{
  "header": {
    "PPQ": 43,
    "bpm": 120,
    "name": ""
  },
  "tempo": [
    {
      "absoluteTime": 0,
      "seconds": 0,
      "bpm": 120
    }
  ],
  "timeSignature": [],
  "startTime": 0,
  "duration": 249.96511627902808,
  "tracks": [
    {
      "startTime": 0,
      "duration": 249.96511627902808,
      "length": 21809,
      "notes": [
        {
          "name": "B1",
          "midi": 35,
          "time": 0,
          "velocity": 0.6299212598425197,
          "duration": 0.023255813953488372
        },
        {
          "name": "G#3",
          "midi": 56,
          "time": 0,
          "velocity": 0.3937007874015748,
          "duration": 0.08139534883720931
        },
        {
          "name": "C2",
          "midi": 36,
          "time": 0.023255813953488372,
          "velocity": 0.6062992125984252,
          "duration": 0.011627906976744186
        },
        {
          "name": "D4",
          "midi": 62,
          "time": 0.023255813953488372,
          "velocity": 0.2755905511811024,
          "duration": 0.09302325581395347
        },
        {
          "name": "A1",
          "midi": 33,
          "time": 0.046511627906976744,
          "velocity": 0.5433070866141733,
          "duration": 0.011627906976744186
        },
        {
          "name": "B1",
          "midi": 35,
          "time": 0.05813953488372093,
          "velocity": 0.5669291338582677,
          "duration": 0.011627906976744186
        },
        {
          "name": "A#1",
          "midi": 34,
          "time": 0.06976744186046512,
          "velocity": 0.5590551181102362,
          "duration": 0.011627906976744193
        },
        {
          "name": "C3",
          "midi": 48,
          "time": 0.06976744186046512,
          "velocity": 0.4251968503937008,
          "duration": 0.023255813953488372
        },
        {
          "name": "B1",
          "midi": 35,
          "time": 0.08139534883720931,
          "velocity": 0.5748031496062992,
          "duration": 0.023255813953488358
        },
        {
          "name": "A#1",
          "midi": 34,
          "time": 0.10465116279069767,
          "velocity": 0.5433070866141733,
          "duration": 0.011627906976744179
        },
        {
          "name": "B1",
          "midi": 35,
          "time": 0.11627906976744184,
          "velocity": 0.5433070866141733,
          "duration": 0.011627906976744179
        },
        {
          "name": "D4",
          "midi": 62,
          "time": 0.12790697674418602,
          "velocity": 0.23622047244094488,
          "duration": 0.046511627906976744
        },
        {
          "name": "C3",
          "midi": 48,
          "time": 0.17441860465116277,
          "velocity": 0.5433070866141733,
          "duration": 0.011627906976744179
        },
        {
          "name": "D#4",
          "midi": 63,
          "time": 0.17441860465116277,
          "velocity": 0.28346456692913385,
          "duration": 0.046511627906976716
        },
        {
          "name": "B4",
          "midi": 71,
          "time": 0.18604651162790695,
          "velocity": 0.09448818897637795,
          "duration": 0.03488372093023254
        },
        {
          "name": "D#3",
          "midi": 51,
          "time": 0.19767441860465113,
          "velocity": 0.3937007874015748,
          "duration": 0.03488372093023254
        },
        {
          "name": "G#3",
          "midi": 56,
          "time": 0.22093023255813948,
          "velocity": 0.28346456692913385,
          "duration": 0.034883720930232565
        },
        {
          "name": "E4",
          "midi": 64,
          "time": 0.22093023255813948,
          "velocity": 0.25984251968503935,
          "duration": 0.023255813953488358
        },
        {
          "name": "A1",
          "midi": 33,
          "time": 0.23255813953488366,
          "velocity": 0.44881889763779526,
          "duration": 0.023255813953488386
        },
        {
          "name": "G3",
          "midi": 55,
          "time": 0.25581395348837205,
          "velocity": 0.13385826771653545,
          "duration": 0.03488372093023262
        },
        {
          "name": "C4",
          "midi": 60,
          "time": 0.25581395348837205,
          "velocity": 0.16535433070866143,
          "duration": 0.03488372093023262
        },
        {
          "name": "A1",
          "midi": 33,
          "time": 0.26744186046511625,
          "velocity": 0.5511811023622047,
          "duration": 0.011627906976744207
        },
        {
          "name": "A#1",
          "midi": 34,
          "time": 0.27906976744186046,
          "velocity": 0.5433070866141733,
          "duration": 0.011627906976744207
        },
        {
          "name": "G#2",
          "midi": 44,
          "time": 0.32558139534883723,
          "velocity": 0.4251968503937008,
          "duration": 0.023255813953488358
        },
        {
          "name": "D3",
          "midi": 50,
          "time": 0.3488372093023256,
          "velocity": 0.4094488188976378,
          "duration": 0.1046511627906977
        },
        {
          "name": "A#1",
          "midi": 34,
          "time": 0.3604651162790698,
          "velocity": 0.5118110236220472,
          "duration": 0.011627906976744207
        },
        {
          "name": "G#1",
          "midi": 32,
          "time": 0.372093023255814,
          "velocity": 0.48031496062992124,
          "duration": 0.023255813953488358
        },
        {
          "name": "F#1",
          "midi": 30,
          "time": 0.40697674418604657,
          "velocity": 0.47244094488188976,
          "duration": 0.023255813953488358
        },
        {
          "name": "G1",
          "midi": 31,
          "time": 0.4302325581395349,
          "velocity": 0.5118110236220472,
          "duration": 0.023255813953488358
        },
        {
          "name": "G#1",
          "midi": 32,
          "time": 0.4534883720930233,
          "velocity": 0.5039370078740157,
          "duration": 0.046511627906976716
        },
        {
          "name": "G2",
          "midi": 43,
          "time": 0.48837209302325585,
          "velocity": 0.41732283464566927,
          "duration": 0.04651162790697666
        },
        {
          "name": "G#2",
          "midi": 44,
          "time": 0.5348837209302325,
          "velocity": 0.4015748031496063,
          "duration": 0.03488372093023262
        },
        {
          "name": "G#1",
          "midi": 32,
          "time": 0.5465116279069767,
          "velocity": 0.4409448818897638,
          "duration": 0.03488372093023262
        },
        {
          "name": "F#1",
          "midi": 30,
          "time": 0.5930232558139535,
          "velocity": 0.4094488188976378,
          "duration": 0.023255813953488413
        },
        {
          "name": "G1",
          "midi": 31,
          "time": 0.616279069767442,
          "velocity": 0.4251968503937008,
          "duration": 0.023255813953488413
        },
        {
          "name": "D3",
          "midi": 50,
          "time": 0.616279069767442,
          "velocity": 0.36220472440944884,
          "duration": 0.11627906976744184
        },
        {
          "name": "A#1",
          "midi": 34,
          "time": 0.6860465116279071,
          "velocity": 0.4094488188976378,
          "duration": 0.03488372093023251
        },
        {
          "name": "G#2",
          "midi": 44,
          "time": 0.7325581395348838,
          "velocity": 0.29133858267716534,
          "duration": 0.03488372093023251
        },
        {
          "name": "C#3",
          "midi": 49,
          "time": 0.7674418604651163,
          "velocity": 0.1968503937007874,
          "duration": 0.03488372093023251
        },
        {
          "name": "D3",
          "midi": 50,
          "time": 0.8023255813953488,
          "velocity": 0.2755905511811024,
          "duration": 0.12790697674418605
        },
        {
          "name": "G#1",
          "midi": 32,
          "time": 0.8372093023255813,
          "velocity": 0.41732283464566927,
          "duration": 0.023255813953488413
        },
        {
          "name": "D3",
          "midi": 50,
          "time": 0.9418604651162791,
          "velocity": 0.1889763779527559,
          "duration": 0.03488372093023262
        },
        {
          "name": "G1",
          "midi": 31,
          "time": 0.9534883720930233,
          "velocity": 0.3937007874015748,
          "duration": 0.046511627906976716
        },
        {
          "name": "E4",
          "midi": 64,
          "time": 1,
          "velocity": 0.29133858267716534,
          "duration": 0.6162790697674427
        },
        {
          "name": "F1",
          "midi": 29,
          "time": 1.0116279069767442,
          "velocity": 0.3464566929133858,
          "duration": 0.023255813953488413
        },
        {
          "name": "G4",
          "midi": 67,
          "time": 1.0232558139534884,
          "velocity": 0.16535433070866143,
          "duration": 0.06976744186046524
        },
        {
          "name": "G1",
          "midi": 31,
          "time": 1.0465116279069768,
          "velocity": 0.3464566929133858,
          "duration": 0.023255813953488413
        },
        {
          "name": "G1",
          "midi": 31,
          "time": 1.1046511627906979,
          "velocity": 0.30708661417322836,
          "duration": 0.023255813953488413
        },
        {
          "name": "F#1",
          "midi": 30,
          "time": 1.1279069767441863,
          "velocity": 0.29133858267716534,
          "duration": 0.023255813953488413
        },
        {
          "name": "B4",
          "midi": 71,
          "time": 1.2093023255813957,
          "velocity": 0.33858267716535434,
          "duration": 0.32558139534883757
        },
        {
          "name": "F#1",
          "midi": 30,
          "time": 1.2441860465116283,
          "velocity": 0.25984251968503935,
          "duration": 0.03488372093023262
        },
        {
          "name": "F#1",
          "midi": 30,
          "time": 1.2906976744186052,
          "velocity": 0.2440944881889764,
          "duration": 0.023255813953488413
        },
        {
          "name": "F1",
          "midi": 29,
          "time": 1.3139534883720936,
          "velocity": 0.2283464566929134,
          "duration": 0.023255813953488413
        },
        {
          "name": "G1",
          "midi": 31,
          "time": 1.406976744186047,
          "velocity": 0.2283464566929134,
          "duration": 0.023255813953488413
        },
        {
          "name": "F#5",
          "midi": 78,
          "time": 1.4302325581395354,
          "velocity": 0.4409448818897638,
          "duration": 0.3604651162790704
        },
        {
          "name": "F#1",
          "midi": 30,
          "time": 1.4883720930232565,
          "velocity": 0.25196850393700787,
          "duration": 0.03488372093023262
        },
        {
          "name": "F#1",
          "midi": 30,
          "time": 1.5348837209302333,
          "velocity": 0.2283464566929134,
          "duration": 0.023255813953488413
        },
        {
          "name": "F#1",
          "midi": 30,
          "time": 1.6395348837209311,
          "velocity": 0.2283464566929134,
          "duration": 0.03488372093023262
        },
        {
          "name": "G4",
          "midi": 67,
          "time": 1.6395348837209311,
          "velocity": 0.1968503937007874,
          "duration": 0.09302325581395365
        },
        {
          "name": "F4",
          "midi": 65,
          "time": 1.6511627906976754,
          "velocity": 0.23622047244094488,
          "duration": 0.023255813953488413
        },
        {
          "name": "B4",
          "midi": 71,
          "time": 1.6511627906976754,
          "velocity": 0.11811023622047244,
          "duration": 0.20930232558139572
        },
        {
          "name": "F1",
          "midi": 29,
          "time": 1.6744186046511638,
          "velocity": 0.2283464566929134,
          "duration": 0.03488372093023262
        },
        {
          "name": "E4",
          "midi": 64,
          "time": 1.6744186046511638,
          "velocity": 0.2677165354330709,
          "duration": 0.5930232558139543
        },
        {
          "name": "G1",
          "midi": 31,
          "time": 1.7093023255813964,
          "velocity": 0.25984251968503935,
          "duration": 0.03488372093023262
        },
        {
          "name": "G1",
          "midi": 31,
          "time": 1.7906976744186058,
          "velocity": 0.25196850393700787,
          "duration": 0.023255813953488413
        },
        {
          "name": "G1",
          "midi": 31,
          "time": 1.8488372093023269,
          "velocity": 0.23622047244094488,
          "duration": 0.023255813953488413
        },
        {
          "name": "D5",
          "midi": 74,
          "time": 1.860465116279071,
          "velocity": 0.3543307086614173,
          "duration": 0.5348837209302333
        },
        {
          "name": "F1",
          "midi": 29,
          "time": 1.8837209302325595,
          "velocity": 0.1968503937007874,
          "duration": 0.03488372093023262
        },
        {
          "name": "G1",
          "midi": 31,
          "time": 1.9302325581395363,
          "velocity": 0.25984251968503935,
          "duration": 0.023255813953488413
        },
        {
          "name": "F#1",
          "midi": 30,
          "time": 1.9883720930232573,
          "velocity": 0.23622047244094488,
          "duration": 0.02325581395348819
        },
        {
          "name": "F#1",
          "midi": 30,
          "time": 2.0581395348837224,
          "velocity": 0.2125984251968504,
          "duration": 0.04651162790697683
        },
        {
          "name": "F1",
          "midi": 29,
          "time": 2.104651162790699,
          "velocity": 0.1889763779527559,
          "duration": 0.03488372093023262
        },
        {
          "name": "F#1",
          "midi": 30,
          "time": 2.139534883720932,
          "velocity": 0.2204724409448819,
          "duration": 0.03488372093023262
        },
        {
          "name": "F#1",
          "midi": 30,
          "time": 2.2325581395348855,
          "velocity": 0.2204724409448819,
          "duration": 0.03488372093023262
        },
        {
          "name": "F1",
          "midi": 29,
          "time": 2.267441860465118,
          "velocity": 0.18110236220472442,
          "duration": 0.03488372093023262
        },
        {
          "name": "E5",
          "midi": 76,
          "time": 2.2906976744186065,
          "velocity": 0.30708661417322836,
          "duration": 0.3720930232558146
        },
        {
          "name": "F#1",
          "midi": 30,
          "time": 2.3023255813953507,
          "velocity": 0.1968503937007874,
          "duration": 0.03488372093023262
        },
        {
          "name": "E4",
          "midi": 64,
          "time": 2.3023255813953507,
          "velocity": 0.12598425196850394,
          "duration": 0.1627906976744189
        },
        {
          "name": "F#1",
          "midi": 30,
          "time": 2.372093023255816,
          "velocity": 0.1968503937007874,
          "duration": 0.04651162790697683
        },
        {
          "name": "F#1",
          "midi": 30,
          "time": 2.441860465116281,
          "velocity": 0.1968503937007874,
          "duration": 0.03488372093023262
        },
        {
          "name": "F1",
          "midi": 29,
          "time": 2.476744186046514,
          "velocity": 0.15748031496062992,
          "duration": 0.04651162790697683
        },
        {
          "name": "E4",
          "midi": 64,
          "time": 2.500000000000002,
          "velocity": 0.29133858267716534,
          "duration": 0.45348837209302406
        },
        {
          "name": "F#1",
          "midi": 30,
          "time": 2.5232558139534906,
          "velocity": 0.1732283464566929,
          "duration": 0.03488372093023262
        },
        {
          "name": "F1",
          "midi": 29,
          "time": 2.5581395348837233,
          "velocity": 0.15748031496062992,
          "duration": 0.03488372093023262
        },
        {
          "name": "F#1",
          "midi": 30,
          "time": 2.593023255813956,
          "velocity": 0.16535433070866143,
          "duration": 0.04651162790697683
        },
        {
          "name": "F1",
          "midi": 29,
          "time": 2.6395348837209327,
          "velocity": 0.15748031496062992,
          "duration": 0.03488372093023262
        },
        {
          "name": "F#1",
          "midi": 30,
          "time": 2.6744186046511653,
          "velocity": 0.16535433070866143,
          "duration": 0.04651162790697683
        },
        {
          "name": "G4",
          "midi": 67,
          "time": 2.709302325581398,
          "velocity": 0.2047244094488189,
          "duration": 0.10465116279069786
        },
        {
          "name": "F1",
          "midi": 29,
          "time": 2.720930232558142,
          "velocity": 0.14173228346456693,
          "duration": 0.03488372093023262
        },
        {
          "name": "B4",
          "midi": 71,
          "time": 2.720930232558142,
          "velocity": 0.31496062992125984,
          "duration": 0.25581395348837255
        },
        {
          "name": "F#1",
          "midi": 30,
          "time": 2.7558139534883748,
          "velocity": 0.14960629921259844,
          "duration": 0.03488372093023262
        },
        {
          "name": "F1",
          "midi": 29,
          "time": 2.7906976744186074,
          "velocity": 0.14173228346456693,
          "duration": 0.03488372093023262
        },
        {
          "name": "F#1",
          "midi": 30,
          "time": 2.82558139534884,
          "velocity": 0.14960629921259844,
          "duration": 0.03488372093023262
        },
        {
          "name": "F1",
          "midi": 29,
          "time": 2.8604651162790726,
          "velocity": 0.13385826771653545,
          "duration": 0.04651162790697683
        },
        {
          "name": "F#1",
          "midi": 30,
          "time": 2.9069767441860495,
          "velocity": 0.14173228346456693,
          "duration": 0.03488372093023262
        },
        {
          "name": "F1",
          "midi": 29,
          "time": 2.941860465116282,
          "velocity": 0.12598425196850394,
          "duration": 0.03488372093023262
        },
        {
          "name": "E4",
          "midi": 64,
          "time": 2.9651162790697705,
          "velocity": 0.29133858267716534,
          "duration": 0.8139534883720936
        },
        {
          "name": "F#1",
          "midi": 30,
          "time": 2.9767441860465147,
          "velocity": 0.13385826771653545,
          "duration": 0.04651162790697683
        },
        {
          "name": "F1",
          "midi": 29,
          "time": 3.104651162790701,
          "velocity": 0.11023622047244094,
          "duration": 0.03488372093023262
        },
        {
          "name": "D5",
          "midi": 74,
          "time": 3.151162790697678,
          "velocity": 0.33070866141732286,
          "duration": 0.5232558139534884
        },
        {
          "name": "B4",
          "midi": 71,
          "time": 3.162790697674422,
          "velocity": 0.16535433070866143,
          "duration": 0.18604651162790686
        },
        {
          "name": "F1",
          "midi": 29,
          "time": 3.1860465116279104,
          "velocity": 0.10236220472440945,
          "duration": 0.03488372093023262
        },
        {
          "name": "A4",
          "midi": 69,
          "time": 3.5813953488372126,
          "velocity": 0.1889763779527559,
          "duration": 0.20930232558139572
        },
        {
          "name": "B4",
          "midi": 71,
          "time": 3.6279069767441894,
          "velocity": 0.11811023622047244,
          "duration": 0.09302325581395365
        },
        {
          "name": "E4",
          "midi": 64,
          "time": 3.825581395348841,
          "velocity": 0.28346456692913385,
          "duration": 0.1627906976744189
        },
        {
          "name": "G4",
          "midi": 67,
          "time": 3.9069767441860503,
          "velocity": 0.13385826771653545,
          "duration": 0.04651162790697683
        },
        {
          "name": "B4",
          "midi": 71,
          "time": 4.011627906976748,
          "velocity": 0.33858267716535434,
          "duration": 0.10465116279069786
        },
        {
          "name": "E4",
          "midi": 64,
          "time": 4.034883720930236,
          "velocity": 0.33070866141732286,
          "duration": 0.3720930232558146
        },
        {
          "name": "B4",
          "midi": 71,
          "time": 4.151162790697678,
          "velocity": 0.11023622047244094,
          "duration": 0.11627906976744207
        },
        {
          "name": "F4",
          "midi": 65,
          "time": 4.430232558139539,
          "velocity": 0.25984251968503935,
          "duration": 0.023255813953488413
        },
        {
          "name": "E4",
          "midi": 64,
          "time": 4.453488372093028,
          "velocity": 0.33070866141732286,
          "duration": 0.6395348837209314
        },
        {
          "name": "B4",
          "midi": 71,
          "time": 4.476744186046516,
          "velocity": 0.14960629921259844,
          "duration": 0.10465116279069786
        },
        {
          "name": "B4",
          "midi": 71,
          "time": 4.651162790697679,
          "velocity": 0.29133858267716534,
          "duration": 0.3604651162790704
        },
        {
          "name": "F#5",
          "midi": 78,
          "time": 4.860465116279075,
          "velocity": 0.4566929133858268,
          "duration": 0.3720930232558146
        },
        {
          "name": "B4",
          "midi": 71,
          "time": 5.069767441860471,
          "velocity": 0.11811023622047244,
          "duration": 0.1627906976744189
        },
        {
          "name": "E4",
          "midi": 64,
          "time": 5.104651162790703,
          "velocity": 0.29133858267716534,
          "duration": 0.5930232558139537
        },
        {
          "name": "D5",
          "midi": 74,
          "time": 5.2906976744186105,
          "velocity": 0.3779527559055118,
          "duration": 0.43023255813953476
        },
        {
          "name": "E5",
          "midi": 76,
          "time": 5.720930232558145,
          "velocity": 0.3228346456692913,
          "duration": 0.3837209302325588
        },
        {
          "name": "E4",
          "midi": 64,
          "time": 5.755813953488378,
          "velocity": 0.28346456692913385,
          "duration": 0.6279069767441872
        },
        {
          "name": "D5",
          "midi": 74,
          "time": 5.883720930232564,
          "velocity": 0.10236220472440945,
          "duration": 0.10465116279069786
        },
        {
          "name": "B4",
          "midi": 71,
          "time": 6.151162790697681,
          "velocity": 0.29133858267716534,
          "duration": 0.12790697674418627
        },
        {
          "name": "G4",
          "midi": 67,
          "time": 6.162790697674425,
          "velocity": 0.09448818897637795,
          "duration": 0.03488372093023262
        },
        {
          "name": "B4",
          "midi": 71,
          "time": 6.302325581395356,
          "velocity": 0.09448818897637795,
          "duration": 0.03488372093023262
        },
        {
          "name": "E4",
          "midi": 64,
          "time": 6.395348837209309,
          "velocity": 0.33070866141732286,
          "duration": 0.5813953488372103
        },
        {
          "name": "A4",
          "midi": 69,
          "time": 6.546511627906984,
          "velocity": 0.08661417322834646,
          "duration": 0.04651162790697683
        },
        {
          "name": "B5",
          "midi": 83,
          "time": 6.5813953488372166,
          "velocity": 0.4251968503937008,
          "duration": 0.1627906976744189
        },
        {
          "name": "G4",
          "midi": 67,
          "time": 6.593023255813961,
          "velocity": 0.09448818897637795,
          "duration": 0.03488372093023262
        },
        {
          "name": "B4",
          "midi": 71,
          "time": 6.67441860465117,
          "velocity": 0.10236220472440945,
          "duration": 0.11627906976744207
        },
        {
          "name": "B5",
          "midi": 83,
          "time": 6.790697674418612,
          "velocity": 0.14173228346456693,
          "duration": 0.1744186046511631
        },
        {
          "name": "A5",
          "midi": 81,
          "time": 7.011627906976752,
          "velocity": 0.41732283464566927,
          "duration": 0.45348837209302406
        },
        {
          "name": "E4",
          "midi": 64,
          "time": 7.034883720930241,
          "velocity": 0.2992125984251969,
          "duration": 0.5465116279069777
        },
        {
          "name": "A4",
          "midi": 69,
          "time": 7.093023255813962,
          "velocity": 0.07874015748031496,
          "duration": 0.06976744186046524
        },
        {
          "name": "A4",
          "midi": 69,
          "time": 7.220930232558148,
          "velocity": 0.08661417322834646,
          "duration": 0.058139534883721034
        },
        {
          "name": "G4",
          "midi": 67,
          "time": 7.33720930232559,
          "velocity": 0.11023622047244094,
          "duration": 0.058139534883721034
        },
        {
          "name": "G4",
          "midi": 67,
          "time": 7.441860465116288,
          "velocity": 0.13385826771653545,
          "duration": 0.058139534883721034
        },
        {
          "name": "F#5",
          "midi": 78,
          "time": 7.441860465116288,
          "velocity": 0.4645669291338583,
          "duration": 0.3604651162790704
        },
        {
          "name": "A4",
          "midi": 69,
          "time": 7.55813953488373,
          "velocity": 0.07086614173228346,
          "duration": 0.06976744186046524
        },
        {
          "name": "E4",
          "midi": 64,
          "time": 7.616279069767451,
          "velocity": 0.29133858267716534,
          "duration": 0.1860465116279073
        },
        {
          "name": "C2",
          "midi": 36,
          "time": 7.767441860465126,
          "velocity": 0.09448818897637795,
          "duration": 0.06976744186046524
        },
        {
          "name": "F#4",
          "midi": 66,
          "time": 7.767441860465126,
          "velocity": 0.29133858267716534,
          "duration": 0.023255813953488413
        },
        {
          "name": "F#4",
          "midi": 66,
          "time": 7.802325581395358,
          "velocity": 0.25984251968503935,
          "duration": 0.03488372093023262
        },
        {
          "name": "F#4",
          "midi": 66,
          "time": 7.848837209302335,
          "velocity": 0.2755905511811024,
          "duration": 0.03488372093023262
        },
        {
          "name": "E4",
          "midi": 64,
          "time": 7.883720930232568,
          "velocity": 0.31496062992125984,
          "duration": 0.2906976744186016
        },
        {
          "name": "G4",
          "midi": 67,
          "time": 7.883720930232568,
          "velocity": 0.3228346456692913,
          "duration": 0.04651162790697683
        },
        {
          "name": "F#5",
          "midi": 78,
          "time": 7.941860465116289,
          "velocity": 0.07086614173228346,
          "duration": 0.03488372093023262
        },
        {
          "name": "A4",
          "midi": 69,
          "time": 7.976744186046521,
          "velocity": 0.07874015748031496,
          "duration": 0.04651162790697594
        },
        {
          "name": "B4",
          "midi": 71,
          "time": 8.081395348837217,
          "velocity": 0.33858267716535434,
          "duration": 0.2325581395348788
        },
        {
          "name": "G4",
          "midi": 67,
          "time": 8.139534883720938,
          "velocity": 0.14960629921259844,
          "duration": 0.03488372093023173
        },
        {
          "name": "E4",
          "midi": 64,
          "time": 8.186046511627913,
          "velocity": 0.25196850393700787,
          "duration": 0.15116279069767202
        },
        {
          "name": "G4",
          "midi": 67,
          "time": 8.197674418604656,
          "velocity": 0.23622047244094488,
          "duration": 0.023255813953488413
        },
        {
          "name": "F#5",
          "midi": 78,
          "time": 8.302325581395353,
          "velocity": 0.4409448818897638,
          "duration": 0.3720930232558075
        },
        {
          "name": "G4",
          "midi": 67,
          "time": 8.360465116279073,
          "velocity": 0.2125984251968504,
          "duration": 0.03488372093023173
        },
        {
          "name": "E4",
          "midi": 64,
          "time": 8.372093023255816,
          "velocity": 0.11811023622047244,
          "duration": 0.04651162790697683
        },
        {
          "name": "F#4",
          "midi": 66,
          "time": 8.453488372093025,
          "velocity": 0.13385826771653545,
          "duration": 0.058139534883720145
        },
        {
          "name": "B4",
          "midi": 71,
          "time": 8.453488372093025,
          "velocity": 0.14173228346456693,
          "duration": 0.27906976744185563
        },
        {
          "name": "E4",
          "midi": 64,
          "time": 8.511627906976745,
          "velocity": 0.28346456692913385,
          "duration": 0.11627906976744029
        },
        {
          "name": "G4",
          "midi": 67,
          "time": 8.523255813953488,
          "velocity": 0.2440944881889764,
          "duration": 0.03488372093023173
        },
        {
          "name": "F#4",
          "midi": 66,
          "time": 8.627906976744185,
          "velocity": 0.14960629921259844,
          "duration": 0.03488372093023173
        },
        {
          "name": "E4",
          "midi": 64,
          "time": 8.639534883720929,
          "velocity": 0.1889763779527559,
          "duration": 0.04651162790697505
        },
        {
          "name": "F#4",
          "midi": 66,
          "time": 8.67441860465116,
          "velocity": 0.2283464566929134,
          "duration": 0.08139534883720678
        },
        {
          "name": "D5",
          "midi": 74,
          "time": 8.73255813953488,
          "velocity": 0.3543307086614173,
          "duration": 0.523255813953476
        },
        {
          "name": "E4",
          "midi": 64,
          "time": 8.744186046511624,
          "velocity": 0.2125984251968504,
          "duration": 0.05813953488371837
        },
        {
          "name": "F#4",
          "midi": 66,
          "time": 8.790697674418599,
          "velocity": 0.15748031496062992,
          "duration": 0.034883720930229956
        },
        {
          "name": "E4",
          "midi": 64,
          "time": 8.813953488372086,
          "velocity": 0.16535433070866143,
          "duration": 0.058139534883720145
        },
        {
          "name": "F#4",
          "midi": 66,
          "time": 8.872093023255806,
          "velocity": 0.16535433070866143,
          "duration": 0.06976744186046346
        },
        {
          "name": "E4",
          "midi": 64,
          "time": 8.906976744186037,
          "velocity": 0.13385826771653545,
          "duration": 0.03488372093023173
        },
        {
          "name": "F4",
          "midi": 65,
          "time": 8.94186046511627,
          "velocity": 0.2283464566929134,
          "duration": 0.03488372093023173
        },
        {
          "name": "E4",
          "midi": 64,
          "time": 8.976744186046501,
          "velocity": 0.23622047244094488,
          "duration": 0.11627906976744207
        },
        {
          "name": "F#4",
          "midi": 66,
          "time": 9.093023255813943,
          "velocity": 0.14173228346456693,
          "duration": 0.03488372093023173
        },
        {
          "name": "B4",
          "midi": 71,
          "time": 9.139534883720918,
          "velocity": 0.12598425196850394,
          "duration": 0.04651162790697505
        },
        {
          "name": "E5",
          "midi": 76,
          "time": 9.151162790697661,
          "velocity": 0.31496062992125984,
          "duration": 0.3837209302325544
        },
        {
          "name": "E4",
          "midi": 64,
          "time": 9.220930232558125,
          "velocity": 0.11023622047244094,
          "duration": 0.03488372093023173
        },
        {
          "name": "E4",
          "midi": 64,
          "time": 9.279069767441845,
          "velocity": 0.30708661417322836,
          "duration": 0.2790697674418592
        },
        {
          "name": "G4",
          "midi": 67,
          "time": 9.40697674418603,
          "velocity": 0.07086614173228346,
          "duration": 0.03488372093023173
        },
        {
          "name": "G4",
          "midi": 67,
          "time": 9.581395348837193,
          "velocity": 0.2125984251968504,
          "duration": 0.06976744186046346
        },
        {
          "name": "B4",
          "midi": 71,
          "time": 9.581395348837193,
          "velocity": 0.33070866141732286,
          "duration": 0.2906976744186025
        },
        {
          "name": "E4",
          "midi": 64,
          "time": 9.593023255813936,
          "velocity": 0.18110236220472442,
          "duration": 0.12790697674418539
        },
        {
          "name": "E4",
          "midi": 64,
          "time": 9.755813953488353,
          "velocity": 0.30708661417322836,
          "duration": 0.39534883720930125
        },
        {
          "name": "B4",
          "midi": 71,
          "time": 9.988372093023237,
          "velocity": 0.1732283464566929,
          "duration": 0.22093023255813726
        },
        {
          "name": "D5",
          "midi": 74,
          "time": 10.023255813953469,
          "velocity": 0.33070866141732286,
          "duration": 0.5232558139534849
        },
        {
          "name": "E4",
          "midi": 64,
          "time": 10.209302325581374,
          "velocity": 0.28346456692913385,
          "duration": 0.20930232558139572
        },
        {
          "name": "A4",
          "midi": 69,
          "time": 10.453488372093002,
          "velocity": 0.1889763779527559,
          "duration": 0.20930232558139394
        },
        {
          "name": "E4",
          "midi": 64,
          "time": 10.465116279069745,
          "velocity": 0.2204724409448819,
          "duration": 0.20930232558139394
        },
        {
          "name": "E4",
          "midi": 64,
          "time": 10.686046511627882,
          "velocity": 0.2992125984251969,
          "duration": 0.18604651162790198
        },
        {
          "name": "A4",
          "midi": 69,
          "time": 10.697674418604626,
          "velocity": 0.08661417322834646,
          "duration": 0.058139534883720145
        },
        {
          "name": "G4",
          "midi": 67,
          "time": 10.76744186046509,
          "velocity": 0.11811023622047244,
          "duration": 0.04651162790697505
        },
        {
          "name": "A4",
          "midi": 69,
          "time": 10.779069767441833,
          "velocity": 0.07874015748031496,
          "duration": 0.058139534883720145
        },
        {
          "name": "B4",
          "midi": 71,
          "time": 10.860465116279041,
          "velocity": 0.3464566929133858,
          "duration": 0.25581395348837077
        },
        {
          "name": "E4",
          "midi": 64,
          "time": 10.883720930232528,
          "velocity": 0.2125984251968504,
          "duration": 0.1627906976744189
        },
        {
          "name": "E4",
          "midi": 64,
          "time": 11.093023255813923,
          "velocity": 0.3228346456692913,
          "duration": 0.1744186046511622
        },
        {
          "name": "B4",
          "midi": 71,
          "time": 11.244186046511597,
          "velocity": 0.07874015748031496,
          "duration": 0.08139534883720856
        },
        {
          "name": "A3",
          "midi": 57,
          "time": 11.290697674418574,
          "velocity": 0.08661417322834646,
          "duration": 0.06976744186046346
        },
        {
          "name": "E4",
          "midi": 64,
          "time": 11.313953488372062,
          "velocity": 0.33858267716535434,
          "duration": 0.6395348837209252
        },
        {
          "name": "B4",
          "midi": 71,
          "time": 11.39534883720927,
          "velocity": 0.12598425196850394,
          "duration": 0.058139534883720145
        },
        {
          "name": "B4",
          "midi": 71,
          "time": 11.523255813953455,
          "velocity": 0.33070866141732286,
          "duration": 0.2674418604651141
        },
        {
          "name": "F#6",
          "midi": 90,
          "time": 11.569767441860431,
          "velocity": 0.07086614173228346,
          "duration": 0.058139534883720145
        },
        {
          "name": "F#5",
          "midi": 78,
          "time": 11.732558139534849,
          "velocity": 0.4566929133858268,
          "duration": 0.3604651162790695
        },
        {
          "name": "F4",
          "midi": 65,
          "time": 11.953488372092988,
          "velocity": 0.2677165354330709,
          "duration": 0.023255813953488413
        },
        {
          "name": "E4",
          "midi": 64,
          "time": 11.976744186046476,
          "velocity": 0.2992125984251969,
          "duration": 0.3255813953488378
        },
        {
          "name": "D5",
          "midi": 74,
          "time": 12.162790697674383,
          "velocity": 0.36220472440944884,
          "duration": 0.604651162790697
        },
        {
          "name": "E4",
          "midi": 64,
          "time": 12.40697674418601,
          "velocity": 0.25196850393700787,
          "duration": 0.3139534883720927
        },
        {
          "name": "E5",
          "midi": 76,
          "time": 12.593023255813918,
          "velocity": 0.3228346456692913,
          "duration": 0.37209302325581284
        },
        {
          "name": "F4",
          "midi": 65,
          "time": 12.813953488372057,
          "velocity": 0.2992125984251969,
          "duration": 0.023255813953488413
        },
        {
          "name": "E4",
          "midi": 64,
          "time": 12.837209302325546,
          "velocity": 0.29133858267716534,
          "duration": 0.3139534883720909
        },
        {
          "name": "D5",
          "midi": 74,
          "time": 12.837209302325546,
          "velocity": 0.11811023622047244,
          "duration": 0.06976744186046524
        },
        {
          "name": "B4",
          "midi": 71,
          "time": 13.011627906976708,
          "velocity": 0.2992125984251969,
          "duration": 0.24418604651162568
        },
        {
          "name": "G4",
          "midi": 67,
          "time": 13.023255813953451,
          "velocity": 0.09448818897637795,
          "duration": 0.058139534883720145
        },
        {
          "name": "E4",
          "midi": 64,
          "time": 13.197674418604613,
          "velocity": 0.3464566929133858,
          "duration": 2.0930232558139394
        },
        {
          "name": "B5",
          "midi": 83,
          "time": 13.453488372092984,
          "velocity": 0.4251968503937008,
          "duration": 0.1511627906976738
        },
        {
          "name": "D5",
          "midi": 74,
          "time": 13.534883720930193,
          "velocity": 0.11023622047244094,
          "duration": 0.06976744186046524
        },
        {
          "name": "B5",
          "midi": 83,
          "time": 13.662790697674378,
          "velocity": 0.18110236220472442,
          "duration": 0.19767441860465063
        },
        {
          "name": "A5",
          "midi": 81,
          "time": 13.883720930232517,
          "velocity": 0.41732283464566927,
          "duration": 0.4534883720930232
        },
        {
          "name": "G4",
          "midi": 67,
          "time": 14.209302325581355,
          "velocity": 0.12598425196850394,
          "duration": 0.04651162790697683
        },
        {
          "name": "F#5",
          "midi": 78,
          "time": 14.302325581395309,
          "velocity": 0.47244094488188976,
          "duration": 0.23255813953488058
        },
        {
          "name": "G4",
          "midi": 67,
          "time": 14.313953488372052,
          "velocity": 0.11811023622047244,
          "duration": 0.04651162790697505
        },
        {
          "name": "D5",
          "midi": 74,
          "time": 14.348837209302284,
          "velocity": 0.07874015748031496,
          "duration": 0.04651162790697505
        },
        {
          "name": "G5",
          "midi": 79,
          "time": 14.534883720930189,
          "velocity": 0.3464566929133858,
          "duration": 0.22093023255813726
        },
        {
          "name": "D7",
          "midi": 98,
          "time": 14.546511627906932,
          "velocity": 0.14960629921259844,
          "duration": 0.10465116279069697
        },
        {
          "name": "B6",
          "midi": 95,
          "time": 14.732558139534838,
          "velocity": 0.2992125984251969,
          "duration": 0.058139534883720145
        },
        {
          "name": "G5",
          "midi": 79,
          "time": 14.779069767441815,
          "velocity": 0.3464566929133858,
          "duration": 0.19767441860464707
        },
        {
          "name": "D7",
          "midi": 98,
          "time": 14.790697674418558,
          "velocity": 0.14960629921259844,
          "duration": 0.06976744186046346
        },
        {
          "name": "D#5",
          "midi": 75,
          "time": 14.813953488372047,
          "velocity": 0.1732283464566929,
          "duration": 0.03488372093023173
        },
        {
          "name": "D5",
          "midi": 74,
          "time": 14.848837209302278,
          "velocity": 0.09448818897637795,
          "duration": 0.03488372093023173
        },
        {
          "name": "B6",
          "midi": 95,
          "time": 14.848837209302278,
          "velocity": 0.3228346456692913,
          "duration": 0.058139534883720145
        },
        {
          "name": "D7",
          "midi": 98,
          "time": 14.906976744185998,
          "velocity": 0.15748031496062992,
          "duration": 0.06976744186046346
        },
        {
          "name": "A#4",
          "midi": 70,
          "time": 14.94186046511623,
          "velocity": 0.23622047244094488,
          "duration": 0.023255813953488413
        },
        {
          "name": "B4",
          "midi": 71,
          "time": 14.965116279069719,
          "velocity": 0.3228346456692913,
          "duration": 0.08139534883720856
        },
        {
          "name": "B6",
          "midi": 95,
          "time": 14.965116279069719,
          "velocity": 0.4015748031496063,
          "duration": 2.267441860465105
        },
        {
          "name": "B4",
          "midi": 71,
          "time": 15.151162790697624,
          "velocity": 0.11811023622047244,
          "duration": 0.03488372093023173
        },
        {
          "name": "F#5",
          "midi": 78,
          "time": 15.174418604651112,
          "velocity": 0.4409448818897638,
          "duration": 0.27906976744185563
        },
        {
          "name": "E5",
          "midi": 76,
          "time": 15.325581395348784,
          "velocity": 0.4015748031496063,
          "duration": 1.9186046511627843
        },
        {
          "name": "B4",
          "midi": 71,
          "time": 15.372093023255761,
          "velocity": 0.1732283464566929,
          "duration": 0.16279069767441534
        },
        {
          "name": "G4",
          "midi": 67,
          "time": 15.383720930232505,
          "velocity": 0.2047244094488189,
          "duration": 0.08139534883720678
        },
        {
          "name": "E4",
          "midi": 64,
          "time": 15.418604651162736,
          "velocity": 0.25196850393700787,
          "duration": 0.023255813953488413
        },
        {
          "name": "E3",
          "midi": 52,
          "time": 15.441860465116225,
          "velocity": 0.08661417322834646,
          "duration": 0.16279069767441534
        },
        {
          "name": "D#4",
          "midi": 63,
          "time": 15.465116279069711,
          "velocity": 0.3779527559055118,
          "duration": 0.023255813953488413
        },
        {
          "name": "E4",
          "midi": 64,
          "time": 15.4883720930232,
          "velocity": 0.3464566929133858,
          "duration": 0.20930232558139217
        },
        {
          "name": "F#5",
          "midi": 78,
          "time": 15.4883720930232,
          "velocity": 0.11023622047244094,
          "duration": 0.04651162790697683
        },
        {
          "name": "D5",
          "midi": 74,
          "time": 15.593023255813897,
          "velocity": 0.3543307086614173,
          "duration": 0.2093023255813904
        },
        {
          "name": "B4",
          "midi": 71,
          "time": 15.627906976744129,
          "velocity": 0.11023622047244094,
          "duration": 0.058139534883720145
        },
        {
          "name": "D#4",
          "midi": 63,
          "time": 15.697674418604592,
          "velocity": 0.3937007874015748,
          "duration": 0.04651162790697683
        },
        {
          "name": "E4",
          "midi": 64,
          "time": 15.744186046511569,
          "velocity": 0.25984251968503935,
          "duration": 0.023255813953486637
        },
        {
          "name": "B4",
          "midi": 71,
          "time": 15.755813953488312,
          "velocity": 0.15748031496062992,
          "duration": 0.1046511627906952
        },
        {
          "name": "E4",
          "midi": 64,
          "time": 15.802325581395287,
          "velocity": 0.3700787401574803,
          "duration": 0.20930232558139394
        },
        {
          "name": "D5",
          "midi": 74,
          "time": 15.837209302325519,
          "velocity": 0.1968503937007874,
          "duration": 0.3023255813953476
        },
        {
          "name": "B4",
          "midi": 71,
          "time": 15.906976744185984,
          "velocity": 0.08661417322834646,
          "duration": 0.058139534883720145
        },
        {
          "name": "D#4",
          "midi": 63,
          "time": 16.01162790697668,
          "velocity": 0.29133858267716534,
          "duration": 0.023255813953486637
        },
        {
          "name": "E4",
          "midi": 64,
          "time": 16.034883720930168,
          "velocity": 0.2677165354330709,
          "duration": 0.2790697674418645
        },
        {
          "name": "G4",
          "midi": 67,
          "time": 16.244186046511565,
          "velocity": 0.14960629921259844,
          "duration": 0.05813953488372192
        },
        {
          "name": "E4",
          "midi": 64,
          "time": 16.348837209302264,
          "velocity": 0.3543307086614173,
          "duration": 0.33720930232557933
        },
        {
          "name": "B4",
          "midi": 71,
          "time": 16.441860465116218,
          "velocity": 0.3464566929133858,
          "duration": 0.24418604651162568
        },
        {
          "name": "G4",
          "midi": 67,
          "time": 16.453488372092963,
          "velocity": 0.2125984251968504,
          "duration": 0.1046511627906952
        },
        {
          "name": "E2",
          "midi": 40,
          "time": 16.53488372093017,
          "velocity": 0.07874015748031496,
          "duration": 0.2906976744186025
        },
        {
          "name": "E4",
          "midi": 64,
          "time": 16.69767441860459,
          "velocity": 0.2677165354330709,
          "duration": 0.2558139534883743
        },
        {
          "name": "D5",
          "midi": 74,
          "time": 16.883720930232496,
          "velocity": 0.3228346456692913,
          "duration": 0.5232558139534902
        },
        {
          "name": "B4",
          "midi": 71,
          "time": 16.89534883720924,
          "velocity": 0.16535433070866143,
          "duration": 0.09302325581395365
        },
        {
          "name": "E4",
          "midi": 64,
          "time": 17.081395348837148,
          "velocity": 0.30708661417322836,
          "duration": 0.2093023255813975
        },
        {
          "name": "B6",
          "midi": 95,
          "time": 17.267441860465055,
          "velocity": 0.2677165354330709,
          "duration": 0.11627906976744384
        },
        {
          "name": "B4",
          "midi": 71,
          "time": 17.2790697674418,
          "velocity": 0.1732283464566929,
          "duration": 0.1744186046511622
        },
        {
          "name": "E5",
          "midi": 76,
          "time": 17.290697674418546,
          "velocity": 0.23622047244094488,
          "duration": 0.08139534883720856
        },
        {
          "name": "A4",
          "midi": 69,
          "time": 17.313953488372032,
          "velocity": 0.1968503937007874,
          "duration": 0.20930232558139394
        },
        {
          "name": "E4",
          "midi": 64,
          "time": 17.325581395348777,
          "velocity": 0.2283464566929134,
          "duration": 0.22093023255813904
        },
        {
          "name": "F#6",
          "midi": 90,
          "time": 17.36046511627901,
          "velocity": 0.10236220472440945,
          "duration": 0.13953488372093048
        },
        {
          "name": "A6",
          "midi": 93,
          "time": 17.36046511627901,
          "velocity": 0.2283464566929134,
          "duration": 0.04651162790697683
        },
        {
          "name": "B6",
          "midi": 95,
          "time": 17.406976744185986,
          "velocity": 0.2047244094488189,
          "duration": 0.15116279069767558
        },
        {
          "name": "A6",
          "midi": 93,
          "time": 17.453488372092963,
          "velocity": 0.3464566929133858,
          "duration": 0.7558139534883779
        },
        {
          "name": "D5",
          "midi": 74,
          "time": 17.465116279069708,
          "velocity": 0.16535433070866143,
          "duration": 0.03488372093023173
        },
        {
          "name": "D7",
          "midi": 98,
          "time": 17.465116279069708,
          "velocity": 0.09448818897637795,
          "duration": 0.03488372093023173
        },
        {
          "name": "D#5",
          "midi": 75,
          "time": 17.49999999999994,
          "velocity": 0.1889763779527559,
          "duration": 0.03488372093023173
        },
        {
          "name": "D5",
          "midi": 74,
          "time": 17.53488372093017,
          "velocity": 0.1968503937007874,
          "duration": 0.6627906976744242
        },
        {
          "name": "G4",
          "midi": 67,
          "time": 17.546511627906916,
          "velocity": 0.10236220472440945,
          "duration": 0.04651162790697683
        },
        {
          "name": "D7",
          "midi": 98,
          "time": 17.546511627906916,
          "velocity": 0.11023622047244094,
          "duration": 0.17441860465116577
        },
        {
          "name": "E4",
          "midi": 64,
          "time": 17.55813953488366,
          "velocity": 0.29133858267716534,
          "duration": 0.30232558139535115
        },
        {
          "name": "F#6",
          "midi": 90,
          "time": 17.55813953488366,
          "velocity": 0.12598425196850394,
          "duration": 0.06976744186046346
        },
        {
          "name": "B6",
          "midi": 95,
          "time": 17.581395348837148,
          "velocity": 0.11023622047244094,
          "duration": 0.06976744186046702
        },
        {
          "name": "G4",
          "midi": 67,
          "time": 17.63953488372087,
          "velocity": 0.14173228346456693,
          "duration": 0.04651162790698038
        },
        {
          "name": "F#6",
          "midi": 90,
          "time": 17.66279069767436,
          "velocity": 0.08661417322834646,
          "duration": 0.04651162790697683
        },
        {
          "name": "B6",
          "midi": 95,
          "time": 17.674418604651105,
          "velocity": 0.10236220472440945,
          "duration": 0.04651162790697683
        },
        {
          "name": "B4",
          "midi": 71,
          "time": 17.74418604651157,
          "velocity": 0.30708661417322836,
          "duration": 0.29069767441860606
        },
        {
          "name": "B6",
          "midi": 95,
          "time": 17.755813953488314,
          "velocity": 0.16535433070866143,
          "duration": 0.1744186046511622
        },
        {
          "name": "D7",
          "midi": 98,
          "time": 17.848837209302268,
          "velocity": 0.09448818897637795,
          "duration": 0.23255813953488413
        },
        {
          "name": "E4",
          "midi": 64,
          "time": 17.90697674418599,
          "velocity": 0.33858267716535434,
          "duration": 0.8139534883720962
        },
        {
          "name": "G4",
          "midi": 67,
          "time": 17.988372093023198,
          "velocity": 0.14173228346456693,
          "duration": 0.04651162790697683
        },
        {
          "name": "B4",
          "midi": 71,
          "time": 18.16279069767436,
          "velocity": 0.1732283464566929,
          "duration": 0.2093023255813975
        },
        {
          "name": "G4",
          "midi": 67,
          "time": 18.174418604651105,
          "velocity": 0.2204724409448819,
          "duration": 0.06976744186046702
        },
        {
          "name": "B6",
          "midi": 95,
          "time": 18.174418604651105,
          "velocity": 0.11811023622047244,
          "duration": 0.06976744186046702
        },
        {
          "name": "D#7",
          "midi": 99,
          "time": 18.18604651162785,
          "velocity": 0.28346456692913385,
          "duration": 2.32558139534882
        },
        {
          "name": "C4",
          "midi": 60,
          "time": 18.20930232558134,
          "velocity": 0.33070866141732286,
          "duration": 0.1744186046511622
        },
        {
          "name": "A6",
          "midi": 93,
          "time": 18.220930232558086,
          "velocity": 0.14173228346456693,
          "duration": 0.11627906976744029
        },
        {
          "name": "F#6",
          "midi": 90,
          "time": 18.29069767441855,
          "velocity": 0.1732283464566929,
          "duration": 0.7441860465116257
        },
        {
          "name": "A6",
          "midi": 93,
          "time": 18.372093023255758,
          "velocity": 0.15748031496062992,
          "duration": 0.04651162790697683
        },
        {
          "name": "B4",
          "midi": 71,
          "time": 18.395348837209248,
          "velocity": 0.29133858267716534,
          "duration": 0.08139534883720856
        },
        {
          "name": "A6",
          "midi": 93,
          "time": 18.46511627906971,
          "velocity": 0.16535433070866143,
          "duration": 0.12790697674418539
        },
        {
          "name": "B4",
          "midi": 71,
          "time": 18.523255813953433,
          "velocity": 0.1889763779527559,
          "duration": 0.7558139534883672
        },
        {
          "name": "D5",
          "midi": 74,
          "time": 18.54651162790692,
          "velocity": 0.10236220472440945,
          "duration": 0.03488372093023173
        },
        {
          "name": "F3",
          "midi": 53,
          "time": 18.558139534883665,
          "velocity": 0.3228346456692913,
          "duration": 0.03488372093023173
        },
        {
          "name": "E3",
          "midi": 52,
          "time": 18.593023255813897,
          "velocity": 0.2992125984251969,
          "duration": 0.11627906976744384
        },
        {
          "name": "C4",
          "midi": 60,
          "time": 18.593023255813897,
          "velocity": 0.09448818897637795,
          "duration": 0.1976744186046524
        },
        {
          "name": "F#5",
          "midi": 78,
          "time": 18.604651162790642,
          "velocity": 0.4566929133858268,
          "duration": 0.36046511627906597
        },
        {
          "name": "D#3",
          "midi": 51,
          "time": 18.70930232558134,
          "velocity": 0.11023622047244094,
          "duration": 0.03488372093023173
        },
        {
          "name": "E3",
          "midi": 52,
          "time": 18.744186046511572,
          "velocity": 0.2125984251968504,
          "duration": 0.23255813953488058
        },
        {
          "name": "F4",
          "midi": 65,
          "time": 18.82558139534878,
          "velocity": 0.25984251968503935,
          "duration": 0.023255813953486637
        },
        {
          "name": "E4",
          "midi": 64,
          "time": 18.848837209302268,
          "velocity": 0.29133858267716534,
          "duration": 0.5697674418604599
        },
        {
          "name": "D5",
          "midi": 74,
          "time": 19.034883720930175,
          "velocity": 0.36220472440944884,
          "duration": 0.6511627906976649
        },
        {
          "name": "F#6",
          "midi": 90,
          "time": 19.08139534883715,
          "velocity": 0.11023622047244094,
          "duration": 0.08139534883720856
        },
        {
          "name": "F#6",
          "midi": 90,
          "time": 19.302325581395287,
          "velocity": 0.07874015748031496,
          "duration": 0.03488372093023173
        },
        {
          "name": "B4",
          "midi": 71,
          "time": 19.348837209302264,
          "velocity": 0.09448818897637795,
          "duration": 0.2674418604651123
        },
        {
          "name": "E3",
          "midi": 52,
          "time": 19.418604651162727,
          "velocity": 0.31496062992125984,
          "duration": 0.16279069767441712
        },
        {
          "name": "E5",
          "midi": 76,
          "time": 19.465116279069704,
          "velocity": 0.31496062992125984,
          "duration": 0.3720930232558075
        },
        {
          "name": "E3",
          "midi": 52,
          "time": 19.59302325581389,
          "velocity": 0.1732283464566929,
          "duration": 0.1046511627906952
        },
        {
          "name": "E4",
          "midi": 64,
          "time": 19.59302325581389,
          "velocity": 0.2992125984251969,
          "duration": 0.5232558139534831
        },
        {
          "name": "B5",
          "midi": 83,
          "time": 19.662790697674353,
          "velocity": 0.15748031496062992,
          "duration": 0.6395348837209234
        },
        {
          "name": "D5",
          "midi": 74,
          "time": 19.72093023255807,
          "velocity": 0.10236220472440945,
          "duration": 0.09302325581395365
        },
        {
          "name": "D#3",
          "midi": 51,
          "time": 19.813953488372025,
          "velocity": 0.07874015748031496,
          "duration": 0.03488372093023173
        },
        {
          "name": "B4",
          "midi": 71,
          "time": 19.88372093023249,
          "velocity": 0.28346456692913385,
          "duration": 0.09302325581395365
        },
        {
          "name": "G4",
          "midi": 67,
          "time": 19.895348837209234,
          "velocity": 0.11023622047244094,
          "duration": 0.04651162790697683
        },
        {
          "name": "E3",
          "midi": 52,
          "time": 20.02325581395342,
          "velocity": 0.07086614173228346,
          "duration": 0.04651162790697683
        },
        {
          "name": "F4",
          "midi": 65,
          "time": 20.116279069767373,
          "velocity": 0.25984251968503935,
          "duration": 0.023255813953486637
        },
        {
          "name": "E4",
          "midi": 64,
          "time": 20.13953488372086,
          "velocity": 0.28346456692913385,
          "duration": 0.16279069767441712
        },
        {
          "name": "A4",
          "midi": 69,
          "time": 20.151162790697605,
          "velocity": 0.07086614173228346,
          "duration": 0.03488372093023173
        },
        {
          "name": "F#6",
          "midi": 90,
          "time": 20.209302325581323,
          "velocity": 0.09448818897637795,
          "duration": 0.03488372093023173
        },
        {
          "name": "B4",
          "midi": 71,
          "time": 20.244186046511555,
          "velocity": 0.09448818897637795,
          "duration": 0.15116279069767558
        },
        {
          "name": "B5",
          "midi": 83,
          "time": 20.31395348837202,
          "velocity": 0.4251968503937008,
          "duration": 0.16279069767441356
        },
        {
          "name": "G4",
          "midi": 67,
          "time": 20.325581395348767,
          "velocity": 0.10236220472440945,
          "duration": 0.04651162790697683
        },
        {
          "name": "E4",
          "midi": 64,
          "time": 20.337209302325512,
          "velocity": 0.11023622047244094,
          "duration": 0.06976744186046346
        },
        {
          "name": "E3",
          "midi": 52,
          "time": 20.372093023255744,
          "velocity": 0.08661417322834646,
          "duration": 0.05813953488371837
        },
        {
          "name": "B4",
          "midi": 71,
          "time": 20.430232558139462,
          "velocity": 0.14173228346456693,
          "duration": 0.06976744186046346
        },
        {
          "name": "E2",
          "midi": 40,
          "time": 20.45348837209295,
          "velocity": 0.07086614173228346,
          "duration": 0.04651162790697683
        },
        {
          "name": "E4",
          "midi": 64,
          "time": 20.48837209302318,
          "velocity": 0.30708661417322836,
          "duration": 0.23255813953488058
        },
        {
          "name": "B5",
          "midi": 83,
          "time": 20.499999999999925,
          "velocity": 0.2125984251968504,
          "duration": 0.2209302325581355
        },
        {
          "name": "E2",
          "midi": 40,
          "time": 20.534883720930157,
          "velocity": 0.09448818897637795,
          "duration": 0.06976744186046346
        },
        {
          "name": "D#7",
          "midi": 99,
          "time": 20.534883720930157,
          "velocity": 0.2440944881889764,
          "duration": 0.24418604651162212
        },
        {
          "name": "A4",
          "midi": 69,
          "time": 20.56976744186039,
          "velocity": 0.10236220472440945,
          "duration": 0.08139534883720856
        },
        {
          "name": "A5",
          "midi": 81,
          "time": 20.744186046511548,
          "velocity": 0.41732283464566927,
          "duration": 0.33720930232557933
        },
        {
          "name": "E4",
          "midi": 64,
          "time": 20.755813953488293,
          "velocity": 0.2125984251968504,
          "duration": 0.22093023255813904
        },
        {
          "name": "F#5",
          "midi": 78,
          "time": 20.755813953488293,
          "velocity": 0.2047244094488189,
          "duration": 0.1046511627906952
        },
        {
          "name": "C#7",
          "midi": 97,
          "time": 20.755813953488293,
          "velocity": 0.3464566929133858,
          "duration": 0.20930232558139394
        },
        {
          "name": "A4",
          "midi": 69,
          "time": 20.81395348837201,
          "velocity": 0.13385826771653545,
          "duration": 0.13953488372093048
        },
        {
          "name": "B5",
          "midi": 83,
          "time": 20.872093023255733,
          "velocity": 0.33070866141732286,
          "duration": 0.6860465116279038
        },
        {
          "name": "E4",
          "midi": 64,
          "time": 20.988372093023177,
          "velocity": 0.2677165354330709,
          "duration": 0.4186046511627879
        },
        {
          "name": "C#7",
          "midi": 97,
          "time": 21.011627906976663,
          "velocity": 0.08661417322834646,
          "duration": 0.03488372093023173
        },
        {
          "name": "G4",
          "midi": 67,
          "time": 21.06976744186038,
          "velocity": 0.10236220472440945,
          "duration": 0.05813953488372192
        },
        {
          "name": "A5",
          "midi": 81,
          "time": 21.127906976744104,
          "velocity": 0.11811023622047244,
          "duration": 0.05813953488372192
        },
        {
          "name": "G4",
          "midi": 67,
          "time": 21.17441860465108,
          "velocity": 0.13385826771653545,
          "duration": 0.06976744186046702
        },
        {
          "name": "F#5",
          "midi": 78,
          "time": 21.17441860465108,
          "velocity": 0.4645669291338583,
          "duration": 0.3604651162790695
        },
        {
          "name": "E4",
          "midi": 64,
          "time": 21.41860465116271,
          "velocity": 0.2755905511811024,
          "duration": 0.16279069767441356
        },
        {
          "name": "B5",
          "midi": 83,
          "time": 21.581395348837123,
          "velocity": 0.2204724409448819,
          "duration": 0.06976744186046702
        },
        {
          "name": "A5",
          "midi": 81,
          "time": 21.616279069767355,
          "velocity": 0.36220472440944884,
          "duration": 2.662790697674396
        },
        {
          "name": "E4",
          "midi": 64,
          "time": 21.6279069767441,
          "velocity": 0.30708661417322836,
          "duration": 0.5465116279069662
        },
        {
          "name": "G4",
          "midi": 67,
          "time": 21.639534883720845,
          "velocity": 0.15748031496062992,
          "duration": 0.04651162790697683
        },
        {
          "name": "A4",
          "midi": 69,
          "time": 21.70930232558131,
          "velocity": 0.12598425196850394,
          "duration": 0.11627906976744029
        },
        {
          "name": "B5",
          "midi": 83,
          "time": 21.755813953488286,
          "velocity": 0.23622047244094488,
          "duration": 0.1976744186046453
        },
        {
          "name": "B4",
          "midi": 71,
          "time": 21.82558139534875,
          "velocity": 0.3543307086614173,
          "duration": 0.23255813953487703
        },
        {
          "name": "A4",
          "midi": 69,
          "time": 21.848837209302236,
          "velocity": 0.10236220472440945,
          "duration": 0.03488372093023173
        },
        {
          "name": "F#5",
          "midi": 78,
          "time": 22.03488372093014,
          "velocity": 0.4330708661417323,
          "duration": 0.3604651162790624
        },
        {
          "name": "E4",
          "midi": 64,
          "time": 22.24418604651153,
          "velocity": 0.2677165354330709,
          "duration": 0.4418604651162781
        },
        {
          "name": "G4",
          "midi": 67,
          "time": 22.24418604651153,
          "velocity": 0.2125984251968504,
          "duration": 0.1046511627906952
        },
        {
          "name": "B4",
          "midi": 71,
          "time": 22.24418604651153,
          "velocity": 0.14960629921259844,
          "duration": 0.16279069767441712
        },
        {
          "name": "A4",
          "midi": 69,
          "time": 22.313953488371993,
          "velocity": 0.15748031496062992,
          "duration": 0.6627906976744207
        },
        {
          "name": "D5",
          "midi": 74,
          "time": 22.46511627906967,
          "velocity": 0.3543307086614173,
          "duration": 0.22093023255813904
        },
        {
          "name": "C4",
          "midi": 60,
          "time": 22.674418604651063,
          "velocity": 0.2283464566929134,
          "duration": 0.0930232558139572
        },
        {
          "name": "F4",
          "midi": 65,
          "time": 22.686046511627808,
          "velocity": 0.2677165354330709,
          "duration": 0.02325581395349019
        },
        {
          "name": "B4",
          "midi": 71,
          "time": 22.697674418604553,
          "velocity": 0.10236220472440945,
          "duration": 0.23255813953488413
        },
        {
          "name": "D5",
          "midi": 74,
          "time": 22.697674418604553,
          "velocity": 0.1889763779527559,
          "duration": 0.3255813953488378
        },
        {
          "name": "E4",
          "midi": 64,
          "time": 22.709302325581298,
          "velocity": 0.2125984251968504,
          "duration": 0.10465116279069875
        },
        {
          "name": "C4",
          "midi": 60,
          "time": 22.813953488371997,
          "velocity": 0.2440944881889764,
          "duration": 0.1046511627906952
        },
        {
          "name": "C#3",
          "midi": 49,
          "time": 22.84883720930223,
          "velocity": 0.25196850393700787,
          "duration": 0.04651162790697683
        },
        {
          "name": "D3",
          "midi": 50,
          "time": 22.895348837209205,
          "velocity": 0.2677165354330709,
          "duration": 0.023255813953486637
        },
        {
          "name": "E5",
          "midi": 76,
          "time": 22.895348837209205,
          "velocity": 0.2992125984251969,
          "duration": 0.3720930232558146
        },
        {
          "name": "C#3",
          "midi": 49,
          "time": 22.918604651162692,
          "velocity": 0.2440944881889764,
          "duration": 0.02325581395349019
        },
        {
          "name": "E4",
          "midi": 64,
          "time": 22.918604651162692,
          "velocity": 0.14960629921259844,
          "duration": 0.04651162790697683
        },
        {
          "name": "D3",
          "midi": 50,
          "time": 22.941860465116182,
          "velocity": 0.25984251968503935,
          "duration": 0.023255813953486637
        },
        {
          "name": "C4",
          "midi": 60,
          "time": 22.96511627906967,
          "velocity": 0.2755905511811024,
          "duration": 0.10465116279069875
        },
        {
          "name": "D3",
          "midi": 50,
          "time": 22.976744186046414,
          "velocity": 0.31496062992125984,
          "duration": 0.03488372093023173
        },
        {
          "name": "E4",
          "midi": 64,
          "time": 22.9999999999999,
          "velocity": 0.2992125984251969,
          "duration": 0.3139534883720927
        },
        {
          "name": "A4",
          "midi": 69,
          "time": 22.9999999999999,
          "velocity": 0.14173228346456693,
          "duration": 0.11627906976744384
        },
        {
          "name": "C#3",
          "midi": 49,
          "time": 23.081395348837113,
          "velocity": 0.29133858267716534,
          "duration": 0.03488372093023173
        },
        {
          "name": "C4",
          "midi": 60,
          "time": 23.093023255813858,
          "velocity": 0.08661417322834646,
          "duration": 0.11627906976744029
        },
        {
          "name": "B4",
          "midi": 71,
          "time": 23.116279069767344,
          "velocity": 0.08661417322834646,
          "duration": 0.05813953488372192
        },
        {
          "name": "C#3",
          "midi": 49,
          "time": 23.12790697674409,
          "velocity": 0.2992125984251969,
          "duration": 0.13953488372093048
        },
        {
          "name": "A4",
          "midi": 69,
          "time": 23.12790697674409,
          "velocity": 0.14173228346456693,
          "duration": 0.19767441860464885
        },
        {
          "name": "G4",
          "midi": 67,
          "time": 23.139534883720835,
          "velocity": 0.11023622047244094,
          "duration": 0.03488372093023173
        },
        {
          "name": "D3",
          "midi": 50,
          "time": 23.26744186046502,
          "velocity": 0.2992125984251969,
          "duration": 0.023255813953486637
        },
        {
          "name": "C4",
          "midi": 60,
          "time": 23.26744186046502,
          "velocity": 0.2204724409448819,
          "duration": 0.06976744186046346
        },
        {
          "name": "C#3",
          "midi": 49,
          "time": 23.290697674418507,
          "velocity": 0.1732283464566929,
          "duration": 0.03488372093023173
        },
        {
          "name": "E2",
          "midi": 40,
          "time": 23.32558139534874,
          "velocity": 0.12598425196850394,
          "duration": 0.16279069767441712
        },
        {
          "name": "E4",
          "midi": 64,
          "time": 23.32558139534874,
          "velocity": 0.16535433070866143,
          "duration": 0.2209302325581355
        },
        {
          "name": "G4",
          "midi": 67,
          "time": 23.32558139534874,
          "velocity": 0.1968503937007874,
          "duration": 0.08139534883720856
        },
        {
          "name": "B4",
          "midi": 71,
          "time": 23.32558139534874,
          "velocity": 0.33070866141732286,
          "duration": 0.30232558139534405
        },
        {
          "name": "C#3",
          "midi": 49,
          "time": 23.337209302325483,
          "velocity": 0.2204724409448819,
          "duration": 0.03488372093023173
        },
        {
          "name": "D3",
          "midi": 50,
          "time": 23.372093023255715,
          "velocity": 0.2440944881889764,
          "duration": 0.023255813953486637
        },
        {
          "name": "C#3",
          "midi": 49,
          "time": 23.3953488372092,
          "velocity": 0.2047244094488189,
          "duration": 0.12790697674418539
        },
        {
          "name": "A4",
          "midi": 69,
          "time": 23.46511627906967,
          "velocity": 0.10236220472440945,
          "duration": 0.2093023255813904
        },
        {
          "name": "F4",
          "midi": 65,
          "time": 23.546511627906874,
          "velocity": 0.2283464566929134,
          "duration": 0.02325581395349019
        },
        {
          "name": "E2",
          "midi": 40,
          "time": 23.55813953488362,
          "velocity": 0.08661417322834646,
          "duration": 0.05813953488371837
        },
        {
          "name": "E4",
          "midi": 64,
          "time": 23.569767441860364,
          "velocity": 0.33858267716535434,
          "duration": 0.16279069767441712
        },
        {
          "name": "D3",
          "midi": 50,
          "time": 23.59302325581385,
          "velocity": 0.2125984251968504,
          "duration": 0.03488372093023173
        },
        {
          "name": "C3",
          "midi": 48,
          "time": 23.639534883720827,
          "velocity": 0.28346456692913385,
          "duration": 0.03488372093023173
        },
        {
          "name": "A3",
          "midi": 57,
          "time": 23.651162790697573,
          "velocity": 0.14173228346456693,
          "duration": 0.03488372093023173
        },
        {
          "name": "B4",
          "midi": 71,
          "time": 23.744186046511526,
          "velocity": 0.1732283464566929,
          "duration": 0.11627906976744029
        },
        {
          "name": "C3",
          "midi": 48,
          "time": 23.75581395348827,
          "velocity": 0.2283464566929134,
          "duration": 0.023255813953486637
        },
        {
          "name": "D5",
          "midi": 74,
          "time": 23.75581395348827,
          "velocity": 0.33070866141732286,
          "duration": 0.2093023255813904
        },
        {
          "name": "E4",
          "midi": 64,
          "time": 23.779069767441758,
          "velocity": 0.14960629921259844,
          "duration": 0.12790697674418539
        },
        {
          "name": "A#2",
          "midi": 46,
          "time": 23.860465116278966,
          "velocity": 0.18110236220472442,
          "duration": 0.03488372093023173
        },
        {
          "name": "E4",
          "midi": 64,
          "time": 23.93023255813943,
          "velocity": 0.2755905511811024,
          "duration": 0.4767441860465098
        },
        {
          "name": "D5",
          "midi": 74,
          "time": 23.98837209302315,
          "velocity": 0.15748031496062992,
          "duration": 0.22093023255813904
        },
        {
          "name": "B2",
          "midi": 47,
          "time": 23.999999999999893,
          "velocity": 0.2677165354330709,
          "duration": 0.02325581395349019
        },
        {
          "name": "A#3",
          "midi": 58,
          "time": 23.999999999999893,
          "velocity": 0.23622047244094488,
          "duration": 0.02325581395349019
        },
        {
          "name": "B4",
          "midi": 71,
          "time": 24.01162790697664,
          "velocity": 0.08661417322834646,
          "duration": 0.08139534883720856
        },
        {
          "name": "A3",
          "midi": 57,
          "time": 24.023255813953384,
          "velocity": 0.13385826771653545,
          "duration": 0.03488372093023173
        },
        {
          "name": "B4",
          "midi": 71,
          "time": 24.16279069767431,
          "velocity": 0.13385826771653545,
          "duration": 0.03488372093023173
        },
        {
          "name": "A4",
          "midi": 69,
          "time": 24.197674418604542,
          "velocity": 0.1732283464566929,
          "duration": 0.24418604651162923
        },
        {
          "name": "B4",
          "midi": 71,
          "time": 24.209302325581287,
          "velocity": 0.09448818897637795,
          "duration": 0.08139534883720856
        },
        {
          "name": "A#2",
          "midi": 46,
          "time": 24.232558139534774,
          "velocity": 0.2204724409448819,
          "duration": 0.04651162790697683
        },
        {
          "name": "D5",
          "midi": 74,
          "time": 24.267441860465006,
          "velocity": 0.1732283464566929,
          "duration": 0.779069767441861
        },
        {
          "name": "D7",
          "midi": 98,
          "time": 24.27906976744175,
          "velocity": 0.07874015748031496,
          "duration": 0.05813953488372192
        },
        {
          "name": "D7",
          "midi": 98,
          "time": 24.395348837209195,
          "velocity": 0.11811023622047244,
          "duration": 0.2790697674418574
        },
        {
          "name": "F4",
          "midi": 65,
          "time": 24.40697674418594,
          "velocity": 0.2677165354330709,
          "duration": 0.023255813953486637
        },
        {
          "name": "E4",
          "midi": 64,
          "time": 24.430232558139426,
          "velocity": 0.30708661417322836,
          "duration": 0.4069767441860428
        },
        {
          "name": "G4",
          "midi": 67,
          "time": 24.430232558139426,
          "velocity": 0.11023622047244094,
          "duration": 0.06976744186046346
        },
        {
          "name": "G#2",
          "midi": 44,
          "time": 24.465116279069658,
          "velocity": 0.2992125984251969,
          "duration": 0.023255813953486637
        },
        {
          "name": "G2",
          "midi": 43,
          "time": 24.488372093023145,
          "velocity": 0.2440944881889764,
          "duration": 0.02325581395349019
        },
        {
          "name": "A4",
          "midi": 69,
          "time": 24.488372093023145,
          "velocity": 0.12598425196850394,
          "duration": 0.08139534883721211
        },
        {
          "name": "F#2",
          "midi": 42,
          "time": 24.511627906976635,
          "velocity": 0.1968503937007874,
          "duration": 0.03488372093023173
        },
        {
          "name": "G4",
          "midi": 67,
          "time": 24.511627906976635,
          "velocity": 0.11023622047244094,
          "duration": 0.04651162790697683
        },
        {
          "name": "F#2",
          "midi": 42,
          "time": 24.558139534883612,
          "velocity": 0.2125984251968504,
          "duration": 0.04651162790697683
        },
        {
          "name": "B4",
          "midi": 71,
          "time": 24.60465116279059,
          "velocity": 0.33070866141732286,
          "duration": 0.2790697674418574
        },
        {
          "name": "F#2",
          "midi": 42,
          "time": 24.616279069767334,
          "velocity": 0.1968503937007874,
          "duration": 0.03488372093023173
        },
        {
          "name": "F2",
          "midi": 41,
          "time": 24.651162790697565,
          "velocity": 0.23622047244094488,
          "duration": 0.05813953488371837
        },
        {
          "name": "F#2",
          "midi": 42,
          "time": 24.709302325581284,
          "velocity": 0.23622047244094488,
          "duration": 0.023255813953486637
        },
        {
          "name": "F#2",
          "midi": 42,
          "time": 24.744186046511516,
          "velocity": 0.23622047244094488,
          "duration": 0.023255813953486637
        },
        {
          "name": "A5",
          "midi": 81,
          "time": 24.779069767441747,
          "velocity": 0.07086614173228346,
          "duration": 0.04651162790697683
        },
        {
          "name": "F2",
          "midi": 41,
          "time": 24.790697674418492,
          "velocity": 0.29133858267716534,
          "duration": 0.11627906976744029
        },
        {
          "name": "E4",
          "midi": 64,
          "time": 24.848837209302214,
          "velocity": 0.2755905511811024,
          "duration": 0.16279069767441712
        },
        {
          "name": "F2",
          "midi": 41,
          "time": 24.918604651162678,
          "velocity": 0.2047244094488189,
          "duration": 0.03488372093023173
        },
        {
          "name": "D#3",
          "midi": 51,
          "time": 24.965116279069655,
          "velocity": 0.2047244094488189,
          "duration": 0.05813953488372192
        },
        {
          "name": "E2",
          "midi": 40,
          "time": 24.999999999999886,
          "velocity": 0.33070866141732286,
          "duration": 0.034883720930235285
        },
        {
          "name": "B4",
          "midi": 71,
          "time": 25.01162790697663,
          "velocity": 0.3228346456692913,
          "duration": 0.46511627906976116
        },
        {
          "name": "D#3",
          "midi": 51,
          "time": 25.046511627906867,
          "velocity": 0.11023622047244094,
          "duration": 0.034883720930235285
        },
        {
          "name": "G4",
          "midi": 67,
          "time": 25.058139534883612,
          "velocity": 0.13385826771653545,
          "duration": 0.04651162790697683
        },
        {
          "name": "G5",
          "midi": 79,
          "time": 25.058139534883612,
          "velocity": 0.3700787401574803,
          "duration": 0.1976744186046453
        },
        {
          "name": "D7",
          "midi": 98,
          "time": 25.058139534883612,
          "velocity": 0.1889763779527559,
          "duration": 0.11627906976743674
        },
        {
          "name": "E4",
          "midi": 64,
          "time": 25.069767441860357,
          "velocity": 0.33858267716535434,
          "duration": 0.6162790697674296
        },
        {
          "name": "A6",
          "midi": 93,
          "time": 25.081395348837102,
          "velocity": 0.2047244094488189,
          "duration": 0.22093023255812838
        },
        {
          "name": "D#2",
          "midi": 39,
          "time": 25.127906976744075,
          "velocity": 0.25196850393700787,
          "duration": 0.023255813953486637
        },
        {
          "name": "C#2",
          "midi": 37,
          "time": 25.197674418604535,
          "velocity": 0.2677165354330709,
          "duration": 0.05813953488372192
        },
        {
          "name": "C2",
          "midi": 36,
          "time": 25.255813953488257,
          "velocity": 0.2992125984251969,
          "duration": 0.023255813953486637
        },
        {
          "name": "B6",
          "midi": 95,
          "time": 25.255813953488257,
          "velocity": 0.33070866141732286,
          "duration": 0.2093023255813904
        },
        {
          "name": "C#2",
          "midi": 37,
          "time": 25.279069767441744,
          "velocity": 0.33858267716535434,
          "duration": 0.03488372093023173
        },
        {
          "name": "G5",
          "midi": 79,
          "time": 25.279069767441744,
          "velocity": 0.3858267716535433,
          "duration": 0.11627906976744029
        },
        {
          "name": "C2",
          "midi": 36,
          "time": 25.313953488371975,
          "velocity": 0.2992125984251969,
          "duration": 0.023255813953486637
        },
        {
          "name": "D7",
          "midi": 98,
          "time": 25.313953488371975,
          "velocity": 0.14173228346456693,
          "duration": 0.06976744186046346
        },
        {
          "name": "C#2",
          "midi": 37,
          "time": 25.337209302325462,
          "velocity": 0.33858267716535434,
          "duration": 0.04651162790697683
        },
        {
          "name": "A6",
          "midi": 93,
          "time": 25.372093023255694,
          "velocity": 0.1732283464566929,
          "duration": 0.04651162790697683
        },
        {
          "name": "C2",
          "midi": 36,
          "time": 25.38372093023244,
          "velocity": 0.29133858267716534,
          "duration": 0.03488372093023173
        },
        {
          "name": "C#2",
          "midi": 37,
          "time": 25.41860465116267,
          "velocity": 0.2992125984251969,
          "duration": 0.03488372093023173
        },
        {
          "name": "D7",
          "midi": 98,
          "time": 25.41860465116267,
          "velocity": 0.18110236220472442,
          "duration": 0.06976744186046702
        },
        {
          "name": "G5",
          "midi": 79,
          "time": 25.430232558139416,
          "velocity": 0.36220472440944884,
          "duration": 0.04651162790697683
        },
        {
          "name": "E5",
          "midi": 76,
          "time": 25.476744186046393,
          "velocity": 0.4015748031496063,
          "duration": 3.290697674418581
        },
        {
          "name": "F#5",
          "midi": 78,
          "time": 25.476744186046393,
          "velocity": 0.4566929133858268,
          "duration": 0.3837209302325526
        },
        {
          "name": "B6",
          "midi": 95,
          "time": 25.476744186046393,
          "velocity": 0.41732283464566927,
          "duration": 4.325581395348802
        },
        {
          "name": "C#2",
          "midi": 37,
          "time": 25.488372093023138,
          "velocity": 0.2992125984251969,
          "duration": 0.023255813953486637
        },
        {
          "name": "A6",
          "midi": 93,
          "time": 25.488372093023138,
          "velocity": 0.2125984251968504,
          "duration": 0.06976744186046346
        },
        {
          "name": "C#2",
          "midi": 37,
          "time": 25.546511627906856,
          "velocity": 0.31496062992125984,
          "duration": 0.02325581395349019
        },
        {
          "name": "C2",
          "midi": 36,
          "time": 25.569767441860346,
          "velocity": 0.2992125984251969,
          "duration": 0.04651162790697683
        },
        {
          "name": "C#2",
          "midi": 37,
          "time": 25.616279069767323,
          "velocity": 0.31496062992125984,
          "duration": 0.023255813953486637
        },
        {
          "name": "C2",
          "midi": 36,
          "time": 25.63953488372081,
          "velocity": 0.28346456692913385,
          "duration": 0.05813953488372192
        },
        {
          "name": "F4",
          "midi": 65,
          "time": 25.686046511627787,
          "velocity": 0.28346456692913385,
          "duration": 0.02325581395349019
        },
        {
          "name": "B4",
          "midi": 71,
          "time": 25.69767441860453,
          "velocity": 0.11023622047244094,
          "duration": 0.13953488372092693
        },
        {
          "name": "E4",
          "midi": 64,
          "time": 25.709302325581277,
          "velocity": 0.2677165354330709,
          "duration": 0.593023255813943
        },
        {
          "name": "A6",
          "midi": 93,
          "time": 25.709302325581277,
          "velocity": 0.11811023622047244,
          "duration": 0.06976744186046346
        },
        {
          "name": "C2",
          "midi": 36,
          "time": 25.813953488371972,
          "velocity": 0.2047244094488189,
          "duration": 0.06976744186045991
        },
        {
          "name": "A6",
          "midi": 93,
          "time": 25.813953488371972,
          "velocity": 0.11811023622047244,
          "duration": 0.06976744186045991
        },
        {
          "name": "F#5",
          "midi": 78,
          "time": 25.883720930232432,
          "velocity": 0.07086614173228346,
          "duration": 0.03488372093023173
        },
        {
          "name": "D5",
          "midi": 74,
          "time": 25.895348837209177,
          "velocity": 0.3779527559055118,
          "duration": 0.20930232558139394
        },
        {
          "name": "D5",
          "midi": 74,
          "time": 26.139534883720803,
          "velocity": 0.2283464566929134,
          "duration": 0.19767441860464885
        },
        {
          "name": "D5",
          "midi": 74,
          "time": 26.360465116278938,
          "velocity": 0.11811023622047244,
          "duration": 0.06976744186046346
        },
        {
          "name": "E4",
          "midi": 64,
          "time": 26.406976744185915,
          "velocity": 0.11811023622047244,
          "duration": 0.11627906976744029
        },
        {
          "name": "A4",
          "midi": 69,
          "time": 26.523255813953355,
          "velocity": 0.13385826771653545,
          "duration": 0.12790697674418539
        },
        {
          "name": "F4",
          "midi": 65,
          "time": 26.546511627906842,
          "velocity": 0.28346456692913385,
          "duration": 0.02325581395349019
        },
        {
          "name": "G4",
          "midi": 67,
          "time": 26.558139534883587,
          "velocity": 0.12598425196850394,
          "duration": 0.04651162790697683
        },
        {
          "name": "D5",
          "midi": 74,
          "time": 26.558139534883587,
          "velocity": 0.09448818897637795,
          "duration": 0.03488372093023173
        },
        {
          "name": "E4",
          "midi": 64,
          "time": 26.569767441860332,
          "velocity": 0.3228346456692913,
          "duration": 0.16279069767441712
        },
        {
          "name": "G4",
          "midi": 67,
          "time": 26.755813953488236,
          "velocity": 0.09448818897637795,
          "duration": 0.05813953488371837
        },
        {
          "name": "B4",
          "midi": 71,
          "time": 26.755813953488236,
          "velocity": 0.28346456692913385,
          "duration": 0.0930232558139501
        },
        {
          "name": "F#6",
          "midi": 90,
          "time": 26.755813953488236,
          "velocity": 0.47244094488188976,
          "duration": 0.38372093023255616
        },
        {
          "name": "E4",
          "midi": 64,
          "time": 26.779069767441722,
          "velocity": 0.30708661417322836,
          "duration": 0.3720930232558146
        },
        {
          "name": "G6",
          "midi": 91,
          "time": 26.83720930232544,
          "velocity": 0.36220472440944884,
          "duration": 0.13953488372093048
        },
        {
          "name": "G6",
          "midi": 91,
          "time": 27.034883720930093,
          "velocity": 0.11023622047244094,
          "duration": 0.04651162790697683
        },
        {
          "name": "G4",
          "midi": 67,
          "time": 27.18604651162777,
          "velocity": 0.07874015748031496,
          "duration": 0.04651162790697683
        },
        {
          "name": "B5",
          "midi": 83,
          "time": 27.18604651162777,
          "velocity": 0.41732283464566927,
          "duration": 0.15116279069767558
        },
        {
          "name": "F#6",
          "midi": 90,
          "time": 27.197674418604514,
          "velocity": 0.1968503937007874,
          "duration": 0.06976744186046346
        },
        {
          "name": "B4",
          "midi": 71,
          "time": 27.24418604651149,
          "velocity": 0.12598425196850394,
          "duration": 0.20930232558139394
        },
        {
          "name": "E4",
          "midi": 64,
          "time": 27.267441860464977,
          "velocity": 0.30708661417322836,
          "duration": 0.5465116279069768
        },
        {
          "name": "E2",
          "midi": 40,
          "time": 27.3255813953487,
          "velocity": 0.11023622047244094,
          "duration": 0.7093023255813939
        },
        {
          "name": "F#6",
          "midi": 90,
          "time": 27.337209302325444,
          "velocity": 0.10236220472440945,
          "duration": 0.03488372093023173
        },
        {
          "name": "B5",
          "midi": 83,
          "time": 27.38372093023242,
          "velocity": 0.1889763779527559,
          "duration": 0.24418604651162568
        },
        {
          "name": "A5",
          "midi": 81,
          "time": 27.6162790697673,
          "velocity": 0.41732283464566927,
          "duration": 0.3372093023255829
        },
        {
          "name": "F4",
          "midi": 65,
          "time": 27.83720930232544,
          "velocity": 0.2755905511811024,
          "duration": 0.02325581395349019
        },
        {
          "name": "B5",
          "midi": 83,
          "time": 27.848837209302186,
          "velocity": 0.07874015748031496,
          "duration": 0.12790697674418539
        },
        {
          "name": "E4",
          "midi": 64,
          "time": 27.86046511627893,
          "velocity": 0.2755905511811024,
          "duration": 0.16279069767441712
        },
        {
          "name": "G4",
          "midi": 67,
          "time": 27.94186046511614,
          "velocity": 0.12598425196850394,
          "duration": 0.04651162790697683
        },
        {
          "name": "A5",
          "midi": 81,
          "time": 27.988372093023116,
          "velocity": 0.10236220472440945,
          "duration": 0.06976744186046702
        },
        {
          "name": "B4",
          "midi": 71,
          "time": 28.034883720930093,
          "velocity": 0.07874015748031496,
          "duration": 0.04651162790697683
        },
        {
          "name": "G4",
          "midi": 67,
          "time": 28.04651162790684,
          "velocity": 0.13385826771653545,
          "duration": 0.06976744186046346
        },
        {
          "name": "F#5",
          "midi": 78,
          "time": 28.04651162790684,
          "velocity": 0.4566929133858268,
          "duration": 0.3023255813953476
        },
        {
          "name": "E4",
          "midi": 64,
          "time": 28.058139534883583,
          "velocity": 0.28346456692913385,
          "duration": 0.3837209302325526
        },
        {
          "name": "G#6",
          "midi": 92,
          "time": 28.372093023255673,
          "velocity": 0.12598425196850394,
          "duration": 0.04651162790697683
        },
        {
          "name": "F#6",
          "midi": 90,
          "time": 28.383720930232418,
          "velocity": 0.36220472440944884,
          "duration": 0.8023255813953476
        },
        {
          "name": "A6",
          "midi": 93,
          "time": 28.465116279069623,
          "velocity": 0.07874015748031496,
          "duration": 0.11627906976744384
        },
        {
          "name": "E4",
          "midi": 64,
          "time": 28.476744186046368,
          "velocity": 0.14960629921259844,
          "duration": 0.15116279069767558
        },
        {
          "name": "F#5",
          "midi": 78,
          "time": 28.488372093023113,
          "velocity": 0.07874015748031496,
          "duration": 0.03488372093023173
        },
        {
          "name": "A6",
          "midi": 93,
          "time": 28.627906976744043,
          "velocity": 0.09448818897637795,
          "duration": 0.04651162790697683
        },
        {
          "name": "E4",
          "midi": 64,
          "time": 28.720930232557997,
          "velocity": 0.07874015748031496,
          "duration": 0.04651162790697683
        },
        {
          "name": "E5",
          "midi": 76,
          "time": 28.77906976744172,
          "velocity": 0.2283464566929134,
          "duration": 0.38372093023255616
        },
        {
          "name": "A6",
          "midi": 93,
          "time": 28.77906976744172,
          "velocity": 0.11023622047244094,
          "duration": 0.09302325581395365
        },
        {
          "name": "D5",
          "midi": 74,
          "time": 28.872093023255673,
          "velocity": 0.08661417322834646,
          "duration": 0.10465116279069875
        },
        {
          "name": "D5",
          "midi": 74,
          "time": 29.09302325581381,
          "velocity": 0.07874015748031496,
          "duration": 0.10465116279069875
        },
        {
          "name": "E5",
          "midi": 76,
          "time": 29.17441860465102,
          "velocity": 0.2755905511811024,
          "duration": 0.48837209302325135
        },
        {
          "name": "F#6",
          "midi": 90,
          "time": 29.19767441860451,
          "velocity": 0.3543307086614173,
          "duration": 0.5116279069767344
        },
        {
          "name": "D5",
          "midi": 74,
          "time": 29.31395348837195,
          "velocity": 0.11023622047244094,
          "duration": 0.08139534883720856
        },
        {
          "name": "F6",
          "midi": 89,
          "time": 29.43023255813939,
          "velocity": 0.09448818897637795,
          "duration": 0.03488372093023173
        },
        {
          "name": "F6",
          "midi": 89,
          "time": 29.499999999999854,
          "velocity": 0.12598425196850394,
          "duration": 0.03488372093023173
        },
        {
          "name": "E5",
          "midi": 76,
          "time": 29.686046511627758,
          "velocity": 0.14960629921259844,
          "duration": 0.12790697674418183
        },
        {
          "name": "F#6",
          "midi": 90,
          "time": 29.744186046511476,
          "velocity": 0.07874015748031496,
          "duration": 0.046511627906973274
        },
        {
          "name": "F4",
          "midi": 65,
          "time": 29.767441860464963,
          "velocity": 0.07874015748031496,
          "duration": 0.04651162790697683
        },
        {
          "name": "F#6",
          "midi": 90,
          "time": 29.825581395348685,
          "velocity": 0.11023622047244094,
          "duration": 0.05813953488371837
        },
        {
          "name": "D5",
          "midi": 74,
          "time": 29.860465116278917,
          "velocity": 0.13385826771653545,
          "duration": 0.046511627906973274
        },
        {
          "name": "G5",
          "midi": 79,
          "time": 29.883720930232403,
          "velocity": 0.11023622047244094,
          "duration": 0.03488372093023173
        },
        {
          "name": "B6",
          "midi": 95,
          "time": 29.883720930232403,
          "velocity": 0.12598425196850394,
          "duration": 0.15116279069767558
        },
        {
          "name": "E5",
          "midi": 76,
          "time": 30.023255813953334,
          "velocity": 0.12598425196850394,
          "duration": 0.034883720930235285
        },
        {
          "name": "F4",
          "midi": 65,
          "time": 30.046511627906824,
          "velocity": 0.08661417322834646,
          "duration": 0.04651162790697683
        },
        {
          "name": "D#5",
          "midi": 75,
          "time": 30.104651162790546,
          "velocity": 0.10236220472440945,
          "duration": 0.03488372093023173
        },
        {
          "name": "B6",
          "midi": 95,
          "time": 30.104651162790546,
          "velocity": 0.14173228346456693,
          "duration": 0.2093023255814046
        },
        {
          "name": "D#3",
          "midi": 51,
          "time": 30.186046511627755,
          "velocity": 0.3858267716535433,
          "duration": 0.02325581395349019
        },
        {
          "name": "C4",
          "midi": 60,
          "time": 30.186046511627755,
          "velocity": 0.33070866141732286,
          "duration": 0.02325581395349019
        },
        {
          "name": "G#4",
          "midi": 68,
          "time": 30.186046511627755,
          "velocity": 0.28346456692913385,
          "duration": 0.2093023255814046
        },
        {
          "name": "E2",
          "midi": 40,
          "time": 30.1976744186045,
          "velocity": 0.5511811023622047,
          "duration": 0.034883720930235285
        },
        {
          "name": "E5",
          "midi": 76,
          "time": 30.1976744186045,
          "velocity": 0.29133858267716534,
          "duration": 0.10465116279070585
        },
        {
          "name": "F6",
          "midi": 89,
          "time": 30.1976744186045,
          "velocity": 0.16535433070866143,
          "duration": 0.034883720930235285
        },
        {
          "name": "A6",
          "midi": 93,
          "time": 30.1976744186045,
          "velocity": 0.10236220472440945,
          "duration": 0.034883720930235285
        },
        {
          "name": "G6",
          "midi": 91,
          "time": 30.209302325581245,
          "velocity": 0.14173228346456693,
          "duration": 0.058139534883725474
        },
        {
          "name": "C4",
          "midi": 60,
          "time": 30.22093023255799,
          "velocity": 0.4094488188976378,
          "duration": 0.034883720930235285
        },
        {
          "name": "B4",
          "midi": 71,
          "time": 30.22093023255799,
          "velocity": 0.2992125984251969,
          "duration": 0.1860465116279144
        },
        {
          "name": "C#2",
          "midi": 37,
          "time": 30.232558139534735,
          "velocity": 0.5196850393700787,
          "duration": 0.011627906976745095
        },
        {
          "name": "E4",
          "midi": 64,
          "time": 30.24418604651148,
          "velocity": 0.31496062992125984,
          "duration": 0.16279069767442422
        },
        {
          "name": "F#5",
          "midi": 78,
          "time": 30.24418604651148,
          "velocity": 0.33858267716535434,
          "duration": 0.06976744186047057
        },
        {
          "name": "A#5",
          "midi": 82,
          "time": 30.255813953488225,
          "velocity": 0.13385826771653545,
          "duration": 0.04651162790698038
        },
        {
          "name": "C4",
          "midi": 60,
          "time": 30.26744186046497,
          "velocity": 0.36220472440944884,
          "duration": 0.02325581395349019
        },
        {
          "name": "D5",
          "midi": 74,
          "time": 30.26744186046497,
          "velocity": 0.14960629921259844,
          "duration": 0.04651162790698038
        },
        {
          "name": "F#2",
          "midi": 42,
          "time": 30.279069767441715,
          "velocity": 0.4330708661417323,
          "duration": 0.02325581395349019
        },
        {
          "name": "B3",
          "midi": 59,
          "time": 30.29069767441846,
          "velocity": 0.36220472440944884,
          "duration": 0.2790697674418645
        },
        {
          "name": "D#2",
          "midi": 39,
          "time": 30.31395348837195,
          "velocity": 0.4015748031496063,
          "duration": 0.023255813953486637
        },
        {
          "name": "F5",
          "midi": 77,
          "time": 30.31395348837195,
          "velocity": 0.33070866141732286,
          "duration": 0.03488372093023173
        },
        {
          "name": "C#7",
          "midi": 97,
          "time": 30.31395348837195,
          "velocity": 0.16535433070866143,
          "duration": 0.04651162790697683
        },
        {
          "name": "E2",
          "midi": 40,
          "time": 30.337209302325437,
          "velocity": 0.4251968503937008,
          "duration": 0.04651162790697683
        },
        {
          "name": "F#5",
          "midi": 78,
          "time": 30.348837209302182,
          "velocity": 0.1968503937007874,
          "duration": 0.05813953488372192
        },
        {
          "name": "D5",
          "midi": 74,
          "time": 30.360465116278927,
          "velocity": 0.08661417322834646,
          "duration": 0.04651162790697683
        },
        {
          "name": "F2",
          "midi": 41,
          "time": 30.383720930232414,
          "velocity": 0.36220472440944884,
          "duration": 0.034883720930235285
        },
        {
          "name": "F#4",
          "midi": 66,
          "time": 30.406976744185904,
          "velocity": 0.4015748031496063,
          "duration": 0.02325581395349019
        },
        {
          "name": "D#6",
          "midi": 87,
          "time": 30.406976744185904,
          "velocity": 0.07086614173228346,
          "duration": 0.034883720930235285
        },
        {
          "name": "G4",
          "midi": 67,
          "time": 30.430232558139394,
          "velocity": 0.36220472440944884,
          "duration": 0.04651162790697683
        },
        {
          "name": "D#5",
          "midi": 75,
          "time": 30.430232558139394,
          "velocity": 0.09448818897637795,
          "duration": 0.04651162790697683
        },
        {
          "name": "B6",
          "midi": 95,
          "time": 30.430232558139394,
          "velocity": 0.16535433070866143,
          "duration": 0.709302325581401
        },
        {
          "name": "E5",
          "midi": 76,
          "time": 30.465116279069626,
          "velocity": 0.2204724409448819,
          "duration": 0.20930232558140105
        },
        {
          "name": "G#4",
          "midi": 68,
          "time": 30.47674418604637,
          "velocity": 0.2992125984251969,
          "duration": 0.13953488372093403
        },
        {
          "name": "E3",
          "midi": 52,
          "time": 30.488372093023116,
          "velocity": 0.12598425196850394,
          "duration": 0.05813953488372192
        },
        {
          "name": "E4",
          "midi": 64,
          "time": 30.488372093023116,
          "velocity": 0.1968503937007874,
          "duration": 0.10465116279069875
        },
        {
          "name": "E2",
          "midi": 40,
          "time": 30.534883720930093,
          "velocity": 0.3228346456692913,
          "duration": 0.04651162790697683
        },
        {
          "name": "B3",
          "midi": 59,
          "time": 30.60465116279056,
          "velocity": 0.25984251968503935,
          "duration": 0.02325581395349019
        },
        {
          "name": "D5",
          "midi": 74,
          "time": 30.616279069767305,
          "velocity": 0.25196850393700787,
          "duration": 0.22093023255813193
        },
        {
          "name": "C#4",
          "midi": 61,
          "time": 30.62790697674405,
          "velocity": 0.30708661417322836,
          "duration": 0.023255813953486637
        },
        {
          "name": "F4",
          "midi": 65,
          "time": 30.62790697674405,
          "velocity": 0.3228346456692913,
          "duration": 0.0930232558139501
        },
        {
          "name": "G#4",
          "midi": 68,
          "time": 30.62790697674405,
          "velocity": 0.25196850393700787,
          "duration": 0.03488372093023173
        },
        {
          "name": "A5",
          "midi": 81,
          "time": 30.62790697674405,
          "velocity": 0.30708661417322836,
          "duration": 0.19767441860464174
        },
        {
          "name": "F#6",
          "midi": 90,
          "time": 30.62790697674405,
          "velocity": 0.2125984251968504,
          "duration": 0.04651162790697683
        },
        {
          "name": "D4",
          "midi": 62,
          "time": 30.651162790697537,
          "velocity": 0.2440944881889764,
          "duration": 0.02325581395349019
        },
        {
          "name": "B4",
          "midi": 71,
          "time": 30.651162790697537,
          "velocity": 0.14173228346456693,
          "duration": 0.1976744186046453
        },
        {
          "name": "E2",
          "midi": 40,
          "time": 30.662790697674282,
          "velocity": 0.2440944881889764,
          "duration": 0.0930232558139501
        },
        {
          "name": "G#4",
          "midi": 68,
          "time": 30.674418604651027,
          "velocity": 0.1889763779527559,
          "duration": 0.12790697674417828
        },
        {
          "name": "E5",
          "midi": 76,
          "time": 30.697674418604514,
          "velocity": 0.3858267716535433,
          "duration": 0.3837209302325597
        },
        {
          "name": "D4",
          "midi": 62,
          "time": 30.720930232558,
          "velocity": 0.2125984251968504,
          "duration": 0.10465116279069164
        },
        {
          "name": "F#6",
          "midi": 90,
          "time": 30.720930232558,
          "velocity": 0.08661417322834646,
          "duration": 0.05813953488371837
        },
        {
          "name": "D#2",
          "midi": 39,
          "time": 30.837209302325437,
          "velocity": 0.15748031496062992,
          "duration": 0.034883720930235285
        },
        {
          "name": "F4",
          "midi": 65,
          "time": 30.837209302325437,
          "velocity": 0.36220472440944884,
          "duration": 0.04651162790698038
        },
        {
          "name": "A5",
          "midi": 81,
          "time": 30.837209302325437,
          "velocity": 0.18110236220472442,
          "duration": 0.034883720930235285
        },
        {
          "name": "A4",
          "midi": 69,
          "time": 30.848837209302182,
          "velocity": 0.33070866141732286,
          "duration": 0.19767441860465595
        },
        {
          "name": "C#6",
          "midi": 85,
          "time": 30.848837209302182,
          "velocity": 0.2755905511811024,
          "duration": 0.16279069767442422
        },
        {
          "name": "B2",
          "midi": 47,
          "time": 30.860465116278927,
          "velocity": 0.23622047244094488,
          "duration": 0.02325581395349019
        },
        {
          "name": "B4",
          "midi": 71,
          "time": 30.872093023255673,
          "velocity": 0.1732283464566929,
          "duration": 0.16279069767442067
        },
        {
          "name": "E4",
          "midi": 64,
          "time": 30.883720930232418,
          "velocity": 0.3464566929133858,
          "duration": 0.02325581395349019
        },
        {
          "name": "C3",
          "midi": 48,
          "time": 30.895348837209163,
          "velocity": 0.2440944881889764,
          "duration": 0.03488372093023173
        },
        {
          "name": "B3",
          "midi": 59,
          "time": 30.895348837209163,
          "velocity": 0.31496062992125984,
          "duration": 0.10465116279069875
        },
        {
          "name": "E2",
          "midi": 40,
          "time": 30.906976744185908,
          "velocity": 0.2047244094488189,
          "duration": 0.03488372093023173
        },
        {
          "name": "F4",
          "midi": 65,
          "time": 30.906976744185908,
          "velocity": 0.31496062992125984,
          "duration": 0.023255813953486637
        },
        {
          "name": "D5",
          "midi": 74,
          "time": 30.930232558139394,
          "velocity": 0.09448818897637795,
          "duration": 0.06976744186046702
        },
        {
          "name": "F4",
          "midi": 65,
          "time": 30.94186046511614,
          "velocity": 0.29133858267716534,
          "duration": 0.05813953488372192
        },
        {
          "name": "C4",
          "midi": 60,
          "time": 30.99999999999986,
          "velocity": 0.14960629921259844,
          "duration": 0.03488372093023173
        },
        {
          "name": "E3",
          "midi": 52,
          "time": 31.011627906976607,
          "velocity": 0.2204724409448819,
          "duration": 0.04651162790697683
        },
        {
          "name": "B3",
          "midi": 59,
          "time": 31.034883720930093,
          "velocity": 0.2204724409448819,
          "duration": 0.058139534883725474
        },
        {
          "name": "C5",
          "midi": 72,
          "time": 31.034883720930093,
          "velocity": 0.15748031496062992,
          "duration": 0.034883720930235285
        },
        {
          "name": "G4",
          "midi": 67,
          "time": 31.04651162790684,
          "velocity": 0.4645669291338583,
          "duration": 0.16279069767442422
        },
        {
          "name": "A#5",
          "midi": 82,
          "time": 31.04651162790684,
          "velocity": 0.16535433070866143,
          "duration": 0.034883720930235285
        },
        {
          "name": "E3",
          "midi": 52,
          "time": 31.081395348837074,
          "velocity": 0.09448818897637795,
          "duration": 0.03488372093023173
        },
        {
          "name": "E5",
          "midi": 76,
          "time": 31.12790697674405,
          "velocity": 0.2677165354330709,
          "duration": 0.3023255813953547
        },
        {
          "name": "A2",
          "midi": 45,
          "time": 31.15116279069754,
          "velocity": 0.16535433070866143,
          "duration": 0.06976744186046702
        },
        {
          "name": "A2",
          "midi": 45,
          "time": 31.232558139534753,
          "velocity": 0.2204724409448819,
          "duration": 0.04651162790697683
        },
        {
          "name": "B4",
          "midi": 71,
          "time": 31.25581395348824,
          "velocity": 0.30708661417322836,
          "duration": 0.3255813953488449
        },
        {
          "name": "C4",
          "midi": 60,
          "time": 31.267441860464984,
          "velocity": 0.28346456692913385,
          "duration": 0.02325581395349019
        },
        {
          "name": "F4",
          "midi": 65,
          "time": 31.267441860464984,
          "velocity": 0.36220472440944884,
          "duration": 0.05813953488372192
        },
        {
          "name": "F#5",
          "midi": 78,
          "time": 31.267441860464984,
          "velocity": 0.33858267716535434,
          "duration": 0.24418604651162923
        },
        {
          "name": "D#6",
          "midi": 87,
          "time": 31.267441860464984,
          "velocity": 0.2125984251968504,
          "duration": 0.05813953488372192
        },
        {
          "name": "B3",
          "midi": 59,
          "time": 31.290697674418475,
          "velocity": 0.2677165354330709,
          "duration": 0.1744186046511622
        },
        {
          "name": "F7",
          "midi": 101,
          "time": 31.290697674418475,
          "velocity": 0.08661417322834646,
          "duration": 0.04651162790697683
        },
        {
          "name": "F4",
          "midi": 65,
          "time": 31.33720930232545,
          "velocity": 0.23622047244094488,
          "duration": 0.023255813953486637
        },
        {
          "name": "A2",
          "midi": 45,
          "time": 31.372093023255683,
          "velocity": 0.11811023622047244,
          "duration": 0.04651162790697683
        },
        {
          "name": "F4",
          "midi": 65,
          "time": 31.372093023255683,
          "velocity": 0.2283464566929134,
          "duration": 0.03488372093023173
        },
        {
          "name": "G4",
          "midi": 67,
          "time": 31.372093023255683,
          "velocity": 0.25196850393700787,
          "duration": 0.12790697674418539
        },
        {
          "name": "D#6",
          "midi": 87,
          "time": 31.372093023255683,
          "velocity": 0.10236220472440945,
          "duration": 0.09302325581395365
        },
        {
          "name": "C4",
          "midi": 60,
          "time": 31.488372093023123,
          "velocity": 0.3937007874015748,
          "duration": 0.04651162790698038
        },
        {
          "name": "B5",
          "midi": 83,
          "time": 31.488372093023123,
          "velocity": 0.4251968503937008,
          "duration": 0.5697674418604777
        },
        {
          "name": "D6",
          "midi": 86,
          "time": 31.488372093023123,
          "velocity": 0.25984251968503935,
          "duration": 0.12790697674419604
        },
        {
          "name": "C7",
          "midi": 96,
          "time": 31.488372093023123,
          "velocity": 0.14173228346456693,
          "duration": 0.034883720930235285
        },
        {
          "name": "C#6",
          "midi": 85,
          "time": 31.49999999999987,
          "velocity": 0.15748031496062992,
          "duration": 0.034883720930235285
        },
        {
          "name": "C#7",
          "midi": 97,
          "time": 31.49999999999987,
          "velocity": 0.1889763779527559,
          "duration": 0.09302325581396076
        },
        {
          "name": "F#7",
          "midi": 102,
          "time": 31.49999999999987,
          "velocity": 0.09448818897637795,
          "duration": 0.08139534883721566
        },
        {
          "name": "E6",
          "midi": 88,
          "time": 31.511627906976614,
          "velocity": 0.16535433070866143,
          "duration": 0.04651162790698038
        },
        {
          "name": "D#6",
          "midi": 87,
          "time": 31.52325581395336,
          "velocity": 0.25984251968503935,
          "duration": 0.034883720930235285
        },
        {
          "name": "G4",
          "midi": 67,
          "time": 31.534883720930104,
          "velocity": 0.33858267716535434,
          "duration": 0.32558139534884134
        },
        {
          "name": "F#5",
          "midi": 78,
          "time": 31.534883720930104,
          "velocity": 0.2440944881889764,
          "duration": 0.1279069767441925
        },
        {
          "name": "C4",
          "midi": 60,
          "time": 31.54651162790685,
          "velocity": 0.3700787401574803,
          "duration": 0.034883720930235285
        },
        {
          "name": "E4",
          "midi": 64,
          "time": 31.558139534883594,
          "velocity": 0.25984251968503935,
          "duration": 0.034883720930235285
        },
        {
          "name": "D5",
          "midi": 74,
          "time": 31.56976744186034,
          "velocity": 0.07874015748031496,
          "duration": 0.058139534883725474
        },
        {
          "name": "B3",
          "midi": 59,
          "time": 31.581395348837084,
          "velocity": 0.31496062992125984,
          "duration": 0.034883720930235285
        },
        {
          "name": "D#6",
          "midi": 87,
          "time": 31.581395348837084,
          "velocity": 0.08661417322834646,
          "duration": 0.04651162790698038
        },
        {
          "name": "E5",
          "midi": 76,
          "time": 31.59302325581383,
          "velocity": 0.07874015748031496,
          "duration": 0.034883720930235285
        },
        {
          "name": "E4",
          "midi": 64,
          "time": 31.604651162790574,
          "velocity": 0.23622047244094488,
          "duration": 0.06976744186046702
        },
        {
          "name": "F#7",
          "midi": 102,
          "time": 31.604651162790574,
          "velocity": 0.11811023622047244,
          "duration": 0.05813953488372192
        },
        {
          "name": "C4",
          "midi": 60,
          "time": 31.61627906976732,
          "velocity": 0.2992125984251969,
          "duration": 0.03488372093023173
        },
        {
          "name": "B4",
          "midi": 71,
          "time": 31.662790697674296,
          "velocity": 0.11023622047244094,
          "duration": 0.034883720930235285
        },
        {
          "name": "E3",
          "midi": 52,
          "time": 31.686046511627787,
          "velocity": 0.08661417322834646,
          "duration": 0.03488372093023173
        },
        {
          "name": "B3",
          "midi": 59,
          "time": 31.69767441860453,
          "velocity": 0.11811023622047244,
          "duration": 0.03488372093023173
        },
        {
          "name": "F4",
          "midi": 65,
          "time": 31.72093023255802,
          "velocity": 0.25196850393700787,
          "duration": 0.03488372093023173
        },
        {
          "name": "B4",
          "midi": 71,
          "time": 31.72093023255802,
          "velocity": 0.14960629921259844,
          "duration": 0.11627906976744029
        },
        {
          "name": "E4",
          "midi": 64,
          "time": 31.75581395348825,
          "velocity": 0.1968503937007874,
          "duration": 0.03488372093023173
        },
        {
          "name": "A2",
          "midi": 45,
          "time": 31.825581395348713,
          "velocity": 0.12598425196850394,
          "duration": 0.04651162790697683
        },
        {
          "name": "F#0",
          "midi": 18,
          "time": 31.895348837209177,
          "velocity": 0.3779527559055118,
          "duration": 0.02325581395349019
        },
        {
          "name": "C#4",
          "midi": 61,
          "time": 31.895348837209177,
          "velocity": 0.4015748031496063,
          "duration": 0.034883720930235285
        },
        {
          "name": "F2",
          "midi": 41,
          "time": 31.906976744185922,
          "velocity": 0.5354330708661418,
          "duration": 0.034883720930235285
        },
        {
          "name": "G#4",
          "midi": 68,
          "time": 31.906976744185922,
          "velocity": 0.2755905511811024,
          "duration": 0.1162790697674474
        },
        {
          "name": "A5",
          "midi": 81,
          "time": 31.906976744185922,
          "velocity": 0.41732283464566927,
          "duration": 0.7558139534883388
        },
        {
          "name": "E4",
          "midi": 64,
          "time": 31.918604651162667,
          "velocity": 0.2283464566929134,
          "duration": 0.02325581395349019
        },
        {
          "name": "C4",
          "midi": 60,
          "time": 31.930232558139412,
          "velocity": 0.41732283464566927,
          "duration": 0.034883720930235285
        },
        {
          "name": "E2",
          "midi": 40,
          "time": 31.941860465116157,
          "velocity": 0.5433070866141733,
          "duration": 0.011627906976745095
        },
        {
          "name": "B4",
          "midi": 71,
          "time": 31.941860465116157,
          "velocity": 0.2440944881889764,
          "duration": 0.17441860465115866
        },
        {
          "name": "E4",
          "midi": 64,
          "time": 31.953488372092902,
          "velocity": 0.2992125984251969,
          "duration": 0.02325581395349019
        },
        {
          "name": "D5",
          "midi": 74,
          "time": 31.953488372092902,
          "velocity": 0.09448818897637795,
          "duration": 0.034883720930235285
        },
        {
          "name": "C#7",
          "midi": 97,
          "time": 31.953488372092902,
          "velocity": 0.11023622047244094,
          "duration": 0.06976744186046702
        },
        {
          "name": "E2",
          "midi": 40,
          "time": 31.976744186046393,
          "velocity": 0.33858267716535434,
          "duration": 0.02325581395349019
        },
        {
          "name": "C#6",
          "midi": 85,
          "time": 31.976744186046393,
          "velocity": 0.16535433070866143,
          "duration": 0.0930232558139501
        },
        {
          "name": "C4",
          "midi": 60,
          "time": 31.988372093023138,
          "velocity": 0.3779527559055118,
          "duration": 0.02325581395349019
        },
        {
          "name": "F#4",
          "midi": 66,
          "time": 31.988372093023138,
          "velocity": 0.36220472440944884,
          "duration": 0.09302325581394655
        },
        {
          "name": "B3",
          "midi": 59,
          "time": 32.01162790697663,
          "velocity": 0.3228346456692913,
          "duration": 0.058139534883714816
        },
        {
          "name": "E3",
          "midi": 52,
          "time": 32.02325581395337,
          "velocity": 0.1889763779527559,
          "duration": 0.046511627906973274
        },
        {
          "name": "D#2",
          "midi": 39,
          "time": 32.03488372093011,
          "velocity": 0.4015748031496063,
          "duration": 0.02325581395349019
        },
        {
          "name": "D5",
          "midi": 74,
          "time": 32.03488372093011,
          "velocity": 0.11023622047244094,
          "duration": 0.058139534883714816
        },
        {
          "name": "E3",
          "midi": 52,
          "time": 32.081395348837084,
          "velocity": 0.1968503937007874,
          "duration": 0.081395348837205
        },
        {
          "name": "B3",
          "midi": 59,
          "time": 32.081395348837084,
          "velocity": 0.2755905511811024,
          "duration": 0.1046511627906952
        },
        {
          "name": "G#4",
          "midi": 68,
          "time": 32.081395348837084,
          "velocity": 0.2992125984251969,
          "duration": 0.25581395348835656
        },
        {
          "name": "F2",
          "midi": 41,
          "time": 32.093023255813826,
          "velocity": 0.3543307086614173,
          "duration": 0.02325581395349019
        },
        {
          "name": "F4",
          "midi": 65,
          "time": 32.12790697674406,
          "velocity": 0.29133858267716534,
          "duration": 0.05813953488372192
        },
        {
          "name": "B4",
          "midi": 71,
          "time": 32.1395348837208,
          "velocity": 0.29133858267716534,
          "duration": 0.36046511627905176
        },
        {
          "name": "D#5",
          "midi": 75,
          "time": 32.1395348837208,
          "velocity": 0.10236220472440945,
          "duration": 0.12790697674418539
        },
        {
          "name": "E4",
          "midi": 64,
          "time": 32.20930232558127,
          "velocity": 0.1968503937007874,
          "duration": 0.046511627906973274
        },
        {
          "name": "E2",
          "midi": 40,
          "time": 32.25581395348824,
          "velocity": 0.33070866141732286,
          "duration": 0.046511627906973274
        },
        {
          "name": "F2",
          "midi": 41,
          "time": 32.31395348837196,
          "velocity": 0.2677165354330709,
          "duration": 0.034883720930224626
        },
        {
          "name": "B3",
          "midi": 59,
          "time": 32.3255813953487,
          "velocity": 0.12598425196850394,
          "duration": 0.058139534883714816
        },
        {
          "name": "D5",
          "midi": 74,
          "time": 32.3255813953487,
          "velocity": 0.30708661417322836,
          "duration": 0.22093023255812483
        },
        {
          "name": "B5",
          "midi": 83,
          "time": 32.3255813953487,
          "velocity": 0.3858267716535433,
          "duration": 0.8139534883720145
        },
        {
          "name": "G4",
          "midi": 67,
          "time": 32.33720930232544,
          "velocity": 0.29133858267716534,
          "duration": 0.046511627906973274
        },
        {
          "name": "F#6",
          "midi": 90,
          "time": 32.33720930232544,
          "velocity": 0.23622047244094488,
          "duration": 0.17441860465115155
        },
        {
          "name": "E2",
          "midi": 40,
          "time": 32.34883720930218,
          "velocity": 0.2755905511811024,
          "duration": 0.1046511627906952
        },
        {
          "name": "D4",
          "midi": 62,
          "time": 32.34883720930218,
          "velocity": 0.2677165354330709,
          "duration": 0.09302325581395365
        },
        {
          "name": "G#4",
          "midi": 68,
          "time": 32.383720930232414,
          "velocity": 0.2283464566929134,
          "duration": 0.02325581395349019
        },
        {
          "name": "G4",
          "midi": 67,
          "time": 32.406976744185904,
          "velocity": 0.25196850393700787,
          "duration": 0.10465116279068809
        },
        {
          "name": "C4",
          "midi": 60,
          "time": 32.45348837209288,
          "velocity": 0.33070866141732286,
          "duration": 0.02325581395349019
        },
        {
          "name": "C4",
          "midi": 60,
          "time": 32.48837209302311,
          "velocity": 0.23622047244094488,
          "duration": 0.023255813953483084
        },
        {
          "name": "C#4",
          "midi": 61,
          "time": 32.51162790697659,
          "velocity": 0.25196850393700787,
          "duration": 0.02325581395349019
        },
        {
          "name": "B4",
          "midi": 71,
          "time": 32.51162790697659,
          "velocity": 0.2283464566929134,
          "duration": 0.25581395348834945
        },
        {
          "name": "F4",
          "midi": 65,
          "time": 32.546511627906824,
          "velocity": 0.4015748031496063,
          "duration": 0.081395348837205
        },
        {
          "name": "E5",
          "midi": 76,
          "time": 32.546511627906824,
          "velocity": 0.36220472440944884,
          "duration": 0.4651162790697114
        },
        {
          "name": "C#6",
          "midi": 85,
          "time": 32.558139534883566,
          "velocity": 0.25196850393700787,
          "duration": 0.17441860465115155
        },
        {
          "name": "A4",
          "midi": 69,
          "time": 32.56976744186031,
          "velocity": 0.2283464566929134,
          "duration": 0.1860465116278931
        },
        {
          "name": "B2",
          "midi": 47,
          "time": 32.58139534883705,
          "velocity": 0.2440944881889764,
          "duration": 0.02325581395349019
        },
        {
          "name": "B3",
          "midi": 59,
          "time": 32.62790697674403,
          "velocity": 0.31496062992125984,
          "duration": 0.06976744186045636
        },
        {
          "name": "E4",
          "midi": 64,
          "time": 32.62790697674403,
          "velocity": 0.23622047244094488,
          "duration": 0.02325581395349019
        },
        {
          "name": "F4",
          "midi": 65,
          "time": 32.65116279069752,
          "velocity": 0.3228346456692913,
          "duration": 0.034883720930224626
        },
        {
          "name": "E2",
          "midi": 40,
          "time": 32.674418604651,
          "velocity": 0.2047244094488189,
          "duration": 0.034883720930224626
        },
        {
          "name": "F#4",
          "midi": 66,
          "time": 32.686046511627744,
          "velocity": 0.1968503937007874,
          "duration": 0.06976744186045636
        },
        {
          "name": "C4",
          "midi": 60,
          "time": 32.697674418604485,
          "velocity": 0.2440944881889764,
          "duration": 0.03488372093023173
        },
        {
          "name": "E3",
          "midi": 52,
          "time": 32.73255813953472,
          "velocity": 0.12598425196850394,
          "duration": 0.05813953488370771
        },
        {
          "name": "B3",
          "midi": 59,
          "time": 32.74418604651146,
          "velocity": 0.2204724409448819,
          "duration": 0.06976744186044925
        },
        {
          "name": "G4",
          "midi": 67,
          "time": 32.7558139534882,
          "velocity": 0.4251968503937008,
          "duration": 0.1627906976743958
        },
        {
          "name": "A5",
          "midi": 81,
          "time": 32.7558139534882,
          "velocity": 0.08661417322834646,
          "duration": 0.06976744186044925
        },
        {
          "name": "D6",
          "midi": 86,
          "time": 32.77906976744168,
          "velocity": 0.3858267716535433,
          "duration": 0.4883720930232158
        },
        {
          "name": "B2",
          "midi": 47,
          "time": 32.802325581395166,
          "velocity": 0.11023622047244094,
          "duration": 0.034883720930224626
        },
        {
          "name": "A6",
          "midi": 93,
          "time": 32.82558139534865,
          "velocity": 0.12598425196850394,
          "duration": 0.058139534883714816
        },
        {
          "name": "D5",
          "midi": 74,
          "time": 32.83720930232539,
          "velocity": 0.2677165354330709,
          "duration": 0.06976744186046346
        },
        {
          "name": "E4",
          "midi": 64,
          "time": 32.84883720930213,
          "velocity": 0.2440944881889764,
          "duration": 0.13953488372091982
        },
        {
          "name": "B4",
          "midi": 71,
          "time": 32.906976744185854,
          "velocity": 0.10236220472440945,
          "duration": 0.034883720930224626
        },
        {
          "name": "D5",
          "midi": 74,
          "time": 32.93023255813934,
          "velocity": 0.13385826771653545,
          "duration": 0.046511627906973274
        },
        {
          "name": "C4",
          "midi": 60,
          "time": 32.97674418604631,
          "velocity": 0.31496062992125984,
          "duration": 0.034883720930224626
        },
        {
          "name": "B4",
          "midi": 71,
          "time": 32.97674418604631,
          "velocity": 0.31496062992125984,
          "duration": 0.23255813953486637
        },
        {
          "name": "F4",
          "midi": 65,
          "time": 32.98837209302305,
          "velocity": 0.25196850393700787,
          "duration": 0.034883720930224626
        },
        {
          "name": "F#5",
          "midi": 78,
          "time": 32.98837209302305,
          "velocity": 0.3858267716535433,
          "duration": 0.6976744186045849
        },
        {
          "name": "D#6",
          "midi": 87,
          "time": 32.999999999999794,
          "velocity": 0.1732283464566929,
          "duration": 0.046511627906973274
        },
        {
          "name": "B3",
          "midi": 59,
          "time": 33.011627906976535,
          "velocity": 0.2755905511811024,
          "duration": 0.046511627906973274
        },
        {
          "name": "B3",
          "midi": 59,
          "time": 33.06976744186025,
          "velocity": 0.1732283464566929,
          "duration": 0.11627906976744384
        },
        {
          "name": "G4",
          "midi": 67,
          "time": 33.08139534883699,
          "velocity": 0.29133858267716534,
          "duration": 0.11627906976744384
        },
        {
          "name": "E5",
          "midi": 76,
          "time": 33.10465116279048,
          "velocity": 0.07874015748031496,
          "duration": 0.05813953488372192
        },
        {
          "name": "C4",
          "midi": 60,
          "time": 33.197674418604436,
          "velocity": 0.3779527559055118,
          "duration": 0.081395348837205
        },
        {
          "name": "F4",
          "midi": 65,
          "time": 33.20930232558118,
          "velocity": 0.2992125984251969,
          "duration": 0.03488372093023173
        },
        {
          "name": "C#6",
          "midi": 85,
          "time": 33.20930232558118,
          "velocity": 0.1732283464566929,
          "duration": 0.17441860465114445
        },
        {
          "name": "A#6",
          "midi": 94,
          "time": 33.20930232558118,
          "velocity": 0.1889763779527559,
          "duration": 0.19767441860462753
        },
        {
          "name": "C#7",
          "midi": 97,
          "time": 33.20930232558118,
          "velocity": 0.2125984251968504,
          "duration": 0.3953488372092693
        },
        {
          "name": "C#5",
          "midi": 73,
          "time": 33.22093023255792,
          "velocity": 0.25984251968503935,
          "duration": 0.10465116279068809
        },
        {
          "name": "A#5",
          "midi": 82,
          "time": 33.22093023255792,
          "velocity": 0.12598425196850394,
          "duration": 0.13953488372091982
        },
        {
          "name": "G#6",
          "midi": 92,
          "time": 33.22093023255792,
          "velocity": 0.11811023622047244,
          "duration": 0.06976744186046346
        },
        {
          "name": "F#4",
          "midi": 66,
          "time": 33.24418604651141,
          "velocity": 0.3228346456692913,
          "duration": 0.02325581395349019
        },
        {
          "name": "B4",
          "midi": 71,
          "time": 33.24418604651141,
          "velocity": 0.18110236220472442,
          "duration": 0.1627906976743958
        },
        {
          "name": "D#6",
          "midi": 87,
          "time": 33.2674418604649,
          "velocity": 0.14173228346456693,
          "duration": 0.034883720930224626
        },
        {
          "name": "D7",
          "midi": 98,
          "time": 33.2674418604649,
          "velocity": 0.09448818897637795,
          "duration": 0.034883720930224626
        },
        {
          "name": "F#4",
          "midi": 66,
          "time": 33.27906976744164,
          "velocity": 0.3858267716535433,
          "duration": 0.11627906976742253
        },
        {
          "name": "D6",
          "midi": 86,
          "time": 33.27906976744164,
          "velocity": 0.12598425196850394,
          "duration": 0.034883720930224626
        },
        {
          "name": "F2",
          "midi": 41,
          "time": 33.29069767441838,
          "velocity": 0.18110236220472442,
          "duration": 0.034883720930224626
        },
        {
          "name": "C4",
          "midi": 60,
          "time": 33.29069767441838,
          "velocity": 0.3464566929133858,
          "duration": 0.034883720930224626
        },
        {
          "name": "D5",
          "midi": 74,
          "time": 33.313953488371865,
          "velocity": 0.28346456692913385,
          "duration": 0.058139534883714816
        },
        {
          "name": "D4",
          "midi": 62,
          "time": 33.33720930232535,
          "velocity": 0.25196850393700787,
          "duration": 0.03488372093023173
        },
        {
          "name": "A5",
          "midi": 81,
          "time": 33.33720930232535,
          "velocity": 0.13385826771653545,
          "duration": 0.12790697674417117
        },
        {
          "name": "E3",
          "midi": 52,
          "time": 33.37209302325558,
          "velocity": 0.15748031496062992,
          "duration": 0.04651162790696617
        },
        {
          "name": "C#4",
          "midi": 61,
          "time": 33.37209302325558,
          "velocity": 0.2440944881889764,
          "duration": 0.023255813953483084
        },
        {
          "name": "B3",
          "midi": 59,
          "time": 33.38372093023232,
          "velocity": 0.1732283464566929,
          "duration": 0.034883720930224626
        },
        {
          "name": "E4",
          "midi": 64,
          "time": 33.39534883720906,
          "velocity": 0.2992125984251969,
          "duration": 0.034883720930224626
        },
        {
          "name": "G#4",
          "midi": 68,
          "time": 33.39534883720906,
          "velocity": 0.2755905511811024,
          "duration": 0.023255813953483084
        },
        {
          "name": "G4",
          "midi": 67,
          "time": 33.418604651162546,
          "velocity": 0.3228346456692913,
          "duration": 0.046511627906973274
        },
        {
          "name": "F4",
          "midi": 65,
          "time": 33.43023255813929,
          "velocity": 0.2677165354330709,
          "duration": 0.046511627906973274
        },
        {
          "name": "F#4",
          "midi": 66,
          "time": 33.51162790697649,
          "velocity": 0.16535433070866143,
          "duration": 0.1046511627906952
        },
        {
          "name": "D4",
          "midi": 62,
          "time": 33.53488372092998,
          "velocity": 0.15748031496062992,
          "duration": 0.081395348837205
        },
        {
          "name": "D5",
          "midi": 74,
          "time": 33.55813953488347,
          "velocity": 0.15748031496062992,
          "duration": 0.046511627906973274
        },
        {
          "name": "D#3",
          "midi": 51,
          "time": 33.61627906976719,
          "velocity": 0.3779527559055118,
          "duration": 0.023255813953483084
        },
        {
          "name": "C#5",
          "midi": 73,
          "time": 33.61627906976719,
          "velocity": 0.16535433070866143,
          "duration": 0.034883720930224626
        },
        {
          "name": "C4",
          "midi": 60,
          "time": 33.62790697674393,
          "velocity": 0.4409448818897638,
          "duration": 0.06976744186044925
        },
        {
          "name": "E5",
          "midi": 76,
          "time": 33.62790697674393,
          "velocity": 0.2992125984251969,
          "duration": 0.15116279069764005
        },
        {
          "name": "F6",
          "midi": 89,
          "time": 33.62790697674393,
          "velocity": 0.07086614173228346,
          "duration": 0.034883720930224626
        },
        {
          "name": "G#5",
          "midi": 80,
          "time": 33.63953488372067,
          "velocity": 0.23622047244094488,
          "duration": 0.1395348837208985
        },
        {
          "name": "E2",
          "midi": 40,
          "time": 33.65116279069741,
          "velocity": 0.5590551181102362,
          "duration": 0.011627906976741542
        },
        {
          "name": "F#4",
          "midi": 66,
          "time": 33.65116279069741,
          "velocity": 0.33858267716535434,
          "duration": 0.04651162790696617
        },
        {
          "name": "D5",
          "midi": 74,
          "time": 33.65116279069741,
          "velocity": 0.14173228346456693,
          "duration": 0.05813953488370771
        },
        {
          "name": "D2",
          "midi": 38,
          "time": 33.662790697674154,
          "velocity": 0.5354330708661418,
          "duration": 0.011627906976741542
        },
        {
          "name": "B5",
          "midi": 83,
          "time": 33.662790697674154,
          "velocity": 0.23622047244094488,
          "duration": 0.2558139534883139
        },
        {
          "name": "B4",
          "midi": 71,
          "time": 33.674418604650896,
          "velocity": 0.31496062992125984,
          "duration": 0.1627906976743816
        },
        {
          "name": "D#1",
          "midi": 27,
          "time": 33.69767441860438,
          "velocity": 0.33070866141732286,
          "duration": 0.023255813953483084
        },
        {
          "name": "F2",
          "midi": 41,
          "time": 33.69767441860438,
          "velocity": 0.3464566929133858,
          "duration": 0.023255813953483084
        },
        {
          "name": "A#5",
          "midi": 82,
          "time": 33.69767441860438,
          "velocity": 0.09448818897637795,
          "duration": 0.05813953488370771
        },
        {
          "name": "C4",
          "midi": 60,
          "time": 33.70930232558112,
          "velocity": 0.4015748031496063,
          "duration": 0.034883720930224626
        },
        {
          "name": "E4",
          "midi": 64,
          "time": 33.70930232558112,
          "velocity": 0.31496062992125984,
          "duration": 0.11627906976741542
        },
        {
          "name": "G#4",
          "midi": 68,
          "time": 33.70930232558112,
          "velocity": 0.2992125984251969,
          "duration": 0.12790697674415696
        },
        {
          "name": "E3",
          "midi": 52,
          "time": 33.72093023255786,
          "velocity": 0.1889763779527559,
          "duration": 0.05813953488370771
        },
        {
          "name": "D5",
          "midi": 74,
          "time": 33.7325581395346,
          "velocity": 0.1889763779527559,
          "duration": 0.11627906976741542
        },
        {
          "name": "F#5",
          "midi": 78,
          "time": 33.7325581395346,
          "velocity": 0.3543307086614173,
          "duration": 0.034883720930224626
        },
        {
          "name": "C#7",
          "midi": 97,
          "time": 33.744186046511345,
          "velocity": 0.18110236220472442,
          "duration": 0.04651162790696617
        },
        {
          "name": "E2",
          "midi": 40,
          "time": 33.76744186046483,
          "velocity": 0.41732283464566927,
          "duration": 0.034883720930224626
        },
        {
          "name": "C4",
          "midi": 60,
          "time": 33.76744186046483,
          "velocity": 0.3779527559055118,
          "duration": 0.023255813953483084
        },
        {
          "name": "F5",
          "midi": 77,
          "time": 33.76744186046483,
          "velocity": 0.28346456692913385,
          "duration": 0.023255813953483084
        },
        {
          "name": "F#5",
          "midi": 78,
          "time": 33.77906976744157,
          "velocity": 0.2755905511811024,
          "duration": 0.1627906976743887
        },
        {
          "name": "B3",
          "midi": 59,
          "time": 33.79069767441831,
          "velocity": 0.3543307086614173,
          "duration": 0.06976744186044925
        },
        {
          "name": "E3",
          "midi": 52,
          "time": 33.80232558139505,
          "velocity": 0.23622047244094488,
          "duration": 0.05813953488370771
        },
        {
          "name": "F2",
          "midi": 41,
          "time": 33.813953488371794,
          "velocity": 0.36220472440944884,
          "duration": 0.034883720930224626
        },
        {
          "name": "F#4",
          "midi": 66,
          "time": 33.825581395348536,
          "velocity": 0.3937007874015748,
          "duration": 0.034883720930224626
        },
        {
          "name": "F#2",
          "midi": 42,
          "time": 33.84883720930202,
          "velocity": 0.29133858267716534,
          "duration": 0.023255813953483084
        },
        {
          "name": "D#5",
          "midi": 75,
          "time": 33.84883720930202,
          "velocity": 0.2047244094488189,
          "duration": 0.04651162790696617
        },
        {
          "name": "G4",
          "midi": 67,
          "time": 33.86046511627876,
          "velocity": 0.3858267716535433,
          "duration": 0.034883720930224626
        },
        {
          "name": "B3",
          "midi": 59,
          "time": 33.8720930232555,
          "velocity": 0.31496062992125984,
          "duration": 0.15116279069766136
        },
        {
          "name": "G#4",
          "midi": 68,
          "time": 33.88372093023224,
          "velocity": 0.33858267716535434,
          "duration": 0.1627906976744029
        },
        {
          "name": "E5",
          "midi": 76,
          "time": 33.88372093023224,
          "velocity": 0.2677165354330709,
          "duration": 0.1627906976744029
        },
        {
          "name": "F2",
          "midi": 41,
          "time": 33.895348837208985,
          "velocity": 0.29133858267716534,
          "duration": 0.023255813953483084
        },
        {
          "name": "E4",
          "midi": 64,
          "time": 33.90697674418573,
          "velocity": 0.2677165354330709,
          "duration": 0.09302325581395365
        },
        {
          "name": "A#1",
          "midi": 34,
          "time": 33.91860465116247,
          "velocity": 0.2677165354330709,
          "duration": 0.02325581395349019
        },
        {
          "name": "E3",
          "midi": 52,
          "time": 33.91860465116247,
          "velocity": 0.13385826771653545,
          "duration": 0.15116279069766136
        },
        {
          "name": "E2",
          "midi": 40,
          "time": 33.97674418604619,
          "velocity": 0.3228346456692913,
          "duration": 0.03488372093023173
        },
        {
          "name": "F2",
          "midi": 41,
          "time": 34.034883720929905,
          "velocity": 0.2440944881889764,
          "duration": 0.034883720930224626
        },
        {
          "name": "F4",
          "midi": 65,
          "time": 34.05813953488339,
          "velocity": 0.3543307086614173,
          "duration": 0.046511627906973274
        },
        {
          "name": "A5",
          "midi": 81,
          "time": 34.05813953488339,
          "velocity": 0.30708661417322836,
          "duration": 0.31395348837205717
        },
        {
          "name": "F#6",
          "midi": 90,
          "time": 34.05813953488339,
          "velocity": 0.18110236220472442,
          "duration": 0.046511627906973274
        },
        {
          "name": "G#4",
          "midi": 68,
          "time": 34.06976744186013,
          "velocity": 0.31496062992125984,
          "duration": 0.13953488372091982
        },
        {
          "name": "D5",
          "midi": 74,
          "time": 34.06976744186013,
          "velocity": 0.29133858267716534,
          "duration": 0.17441860465114445
        },
        {
          "name": "E5",
          "midi": 76,
          "time": 34.06976744186013,
          "velocity": 0.3779527559055118,
          "duration": 0.9302325581394442
        },
        {
          "name": "E2",
          "midi": 40,
          "time": 34.09302325581362,
          "velocity": 0.25196850393700787,
          "duration": 0.0813953488371979
        },
        {
          "name": "C#4",
          "midi": 61,
          "time": 34.09302325581362,
          "velocity": 0.2755905511811024,
          "duration": 0.023255813953483084
        },
        {
          "name": "F#4",
          "midi": 66,
          "time": 34.10465116279036,
          "velocity": 0.28346456692913385,
          "duration": 0.023255813953483084
        },
        {
          "name": "D4",
          "midi": 62,
          "time": 34.1162790697671,
          "velocity": 0.23622047244094488,
          "duration": 0.023255813953483084
        },
        {
          "name": "F4",
          "midi": 65,
          "time": 34.127906976743844,
          "velocity": 0.29133858267716534,
          "duration": 0.023255813953483084
        },
        {
          "name": "D4",
          "midi": 62,
          "time": 34.15116279069733,
          "velocity": 0.2125984251968504,
          "duration": 0.06976744186046346
        },
        {
          "name": "F#4",
          "midi": 66,
          "time": 34.15116279069733,
          "velocity": 0.2755905511811024,
          "duration": 0.02325581395349019
        },
        {
          "name": "B4",
          "midi": 71,
          "time": 34.18604651162756,
          "velocity": 0.07874015748031496,
          "duration": 0.046511627906973274
        },
        {
          "name": "F4",
          "midi": 65,
          "time": 34.255813953488015,
          "velocity": 0.33858267716535434,
          "duration": 0.09302325581394655
        },
        {
          "name": "A4",
          "midi": 69,
          "time": 34.279069767441506,
          "velocity": 0.2992125984251969,
          "duration": 0.19767441860463464
        },
        {
          "name": "C#6",
          "midi": 85,
          "time": 34.279069767441506,
          "velocity": 0.2283464566929134,
          "duration": 0.1860465116278931
        },
        {
          "name": "C4",
          "midi": 60,
          "time": 34.31395348837174,
          "velocity": 0.2125984251968504,
          "duration": 0.034883720930224626
        },
        {
          "name": "B4",
          "midi": 71,
          "time": 34.32558139534848,
          "velocity": 0.11811023622047244,
          "duration": 0.034883720930224626
        },
        {
          "name": "E2",
          "midi": 40,
          "time": 34.33720930232522,
          "velocity": 0.2047244094488189,
          "duration": 0.034883720930224626
        },
        {
          "name": "B3",
          "midi": 59,
          "time": 34.34883720930196,
          "velocity": 0.3228346456692913,
          "duration": 0.09302325581394655
        },
        {
          "name": "E4",
          "midi": 64,
          "time": 34.34883720930196,
          "velocity": 0.29133858267716534,
          "duration": 0.034883720930224626
        },
        {
          "name": "B3",
          "midi": 59,
          "time": 34.4651162790694,
          "velocity": 0.12598425196850394,
          "duration": 0.034883720930224626
        },
        {
          "name": "C5",
          "midi": 72,
          "time": 34.47674418604614,
          "velocity": 0.1732283464566929,
          "duration": 0.04651162790696617
        },
        {
          "name": "E4",
          "midi": 64,
          "time": 34.48837209302288,
          "velocity": 0.13385826771653545,
          "duration": 0.034883720930224626
        },
        {
          "name": "G4",
          "midi": 67,
          "time": 34.48837209302288,
          "velocity": 0.4566929133858268,
          "duration": 0.11627906976742963
        },
        {
          "name": "E3",
          "midi": 52,
          "time": 34.511627906976365,
          "velocity": 0.11023622047244094,
          "duration": 0.058139534883714816
        },
        {
          "name": "A2",
          "midi": 45,
          "time": 34.59302325581357,
          "velocity": 0.16535433070866143,
          "duration": 0.058139534883714816
        },
        {
          "name": "A5",
          "midi": 81,
          "time": 34.59302325581357,
          "velocity": 0.07086614173228346,
          "duration": 0.058139534883714816
        },
        {
          "name": "A4",
          "midi": 69,
          "time": 34.60465116279031,
          "velocity": 0.14960629921259844,
          "duration": 0.046511627906973274
        },
        {
          "name": "B3",
          "midi": 59,
          "time": 34.651162790697285,
          "velocity": 0.07086614173228346,
          "duration": 0.03488372093023173
        },
        {
          "name": "C4",
          "midi": 60,
          "time": 34.68604651162752,
          "velocity": 0.25984251968503935,
          "duration": 0.046511627906973274
        },
        {
          "name": "F4",
          "midi": 65,
          "time": 34.68604651162752,
          "velocity": 0.3700787401574803,
          "duration": 0.12790697674417828
        },
        {
          "name": "B4",
          "midi": 71,
          "time": 34.68604651162752,
          "velocity": 0.29133858267716534,
          "duration": 0.27906976744183254
        },
        {
          "name": "F#5",
          "midi": 78,
          "time": 34.69767441860426,
          "velocity": 0.31496062992125984,
          "duration": 0.372093023255772
        },
        {
          "name": "D#6",
          "midi": 87,
          "time": 34.69767441860426,
          "velocity": 0.18110236220472442,
          "duration": 0.05813953488372192
        },
        {
          "name": "B3",
          "midi": 59,
          "time": 34.73255813953449,
          "velocity": 0.2204724409448819,
          "duration": 0.16279069767441
        },
        {
          "name": "B6",
          "midi": 95,
          "time": 34.79069767441821,
          "velocity": 0.2204724409448819,
          "duration": 1.0232558139533623
        },
        {
          "name": "G4",
          "midi": 67,
          "time": 34.80232558139495,
          "velocity": 0.29133858267716534,
          "duration": 0.13953488372091272
        },
        {
          "name": "A2",
          "midi": 45,
          "time": 34.825581395348436,
          "velocity": 0.10236220472440945,
          "duration": 0.081395348837205
        },
        {
          "name": "C4",
          "midi": 60,
          "time": 34.91860465116238,
          "velocity": 0.3858267716535433,
          "duration": 0.05813953488370771
        },
        {
          "name": "C#6",
          "midi": 85,
          "time": 34.930232558139124,
          "velocity": 0.1889763779527559,
          "duration": 0.034883720930224626
        },
        {
          "name": "D6",
          "midi": 86,
          "time": 34.930232558139124,
          "velocity": 0.25984251968503935,
          "duration": 0.0813953488371908
        },
        {
          "name": "C#7",
          "midi": 97,
          "time": 34.930232558139124,
          "velocity": 0.1968503937007874,
          "duration": 0.09302325581393234
        },
        {
          "name": "F4",
          "midi": 65,
          "time": 34.95348837209261,
          "velocity": 0.2755905511811024,
          "duration": 0.04651162790696617
        },
        {
          "name": "D#6",
          "midi": 87,
          "time": 34.95348837209261,
          "velocity": 0.2440944881889764,
          "duration": 0.04651162790696617
        },
        {
          "name": "C4",
          "midi": 60,
          "time": 34.98837209302283,
          "velocity": 0.36220472440944884,
          "duration": 0.034883720930224626
        },
        {
          "name": "E4",
          "midi": 64,
          "time": 34.999999999999574,
          "velocity": 0.1732283464566929,
          "duration": 0.058139534883714816
        },
        {
          "name": "B3",
          "midi": 59,
          "time": 35.02325581395306,
          "velocity": 0.29133858267716534,
          "duration": 0.03488372093023173
        },
        {
          "name": "E5",
          "midi": 76,
          "time": 35.02325581395306,
          "velocity": 0.36220472440944884,
          "duration": 0.16279069767441
        },
        {
          "name": "F#4",
          "midi": 66,
          "time": 35.04651162790655,
          "velocity": 0.14960629921259844,
          "duration": 0.058139534883714816
        },
        {
          "name": "C4",
          "midi": 60,
          "time": 35.05813953488329,
          "velocity": 0.2677165354330709,
          "duration": 0.046511627906973274
        },
        {
          "name": "A2",
          "midi": 45,
          "time": 35.09302325581352,
          "velocity": 0.1889763779527559,
          "duration": 0.034883720930224626
        },
        {
          "name": "B3",
          "midi": 59,
          "time": 35.10465116279026,
          "velocity": 0.18110236220472442,
          "duration": 0.046511627906973274
        },
        {
          "name": "E3",
          "midi": 52,
          "time": 35.116279069767,
          "velocity": 0.11023622047244094,
          "duration": 0.03488372093023173
        },
        {
          "name": "G4",
          "midi": 67,
          "time": 35.127906976743745,
          "velocity": 0.2992125984251969,
          "duration": 0.09302325581394655
        },
        {
          "name": "F4",
          "midi": 65,
          "time": 35.174418604650725,
          "velocity": 0.1732283464566929,
          "duration": 0.13953488372091272
        },
        {
          "name": "E5",
          "midi": 76,
          "time": 35.19767441860421,
          "velocity": 0.3937007874015748,
          "duration": 0.558139534883658
        },
        {
          "name": "B3",
          "midi": 59,
          "time": 35.20930232558095,
          "velocity": 0.10236220472440945,
          "duration": 0.06976744186045636
        },
        {
          "name": "A2",
          "midi": 45,
          "time": 35.267441860464665,
          "velocity": 0.07874015748031496,
          "duration": 0.03488372093023173
        },
        {
          "name": "C#4",
          "midi": 61,
          "time": 35.32558139534838,
          "velocity": 0.4094488188976378,
          "duration": 0.04651162790696617
        },
        {
          "name": "D#3",
          "midi": 51,
          "time": 35.33720930232512,
          "velocity": 0.3779527559055118,
          "duration": 0.023255813953483084
        },
        {
          "name": "F6",
          "midi": 89,
          "time": 35.34883720930186,
          "velocity": 0.11023622047244094,
          "duration": 0.034883720930224626
        },
        {
          "name": "E2",
          "midi": 40,
          "time": 35.360465116278604,
          "velocity": 0.5511811023622047,
          "duration": 0.023255813953483084
        },
        {
          "name": "F4",
          "midi": 65,
          "time": 35.360465116278604,
          "velocity": 0.28346456692913385,
          "duration": 0.058139534883714816
        },
        {
          "name": "G#4",
          "midi": 68,
          "time": 35.360465116278604,
          "velocity": 0.31496062992125984,
          "duration": 0.4069767441860037
        },
        {
          "name": "C4",
          "midi": 60,
          "time": 35.372093023255346,
          "velocity": 0.4094488188976378,
          "duration": 0.058139534883714816
        },
        {
          "name": "B4",
          "midi": 71,
          "time": 35.372093023255346,
          "velocity": 0.2204724409448819,
          "duration": 0.17441860465113734
        },
        {
          "name": "C#2",
          "midi": 37,
          "time": 35.38372093023209,
          "velocity": 0.5275590551181102,
          "duration": 0.011627906976741542
        },
        {
          "name": "D5",
          "midi": 74,
          "time": 35.38372093023209,
          "velocity": 0.18110236220472442,
          "duration": 0.11627906976742963
        },
        {
          "name": "F#5",
          "midi": 78,
          "time": 35.39534883720883,
          "velocity": 0.12598425196850394,
          "duration": 0.09302325581394655
        },
        {
          "name": "E4",
          "midi": 64,
          "time": 35.41860465116232,
          "velocity": 0.2283464566929134,
          "duration": 0.06976744186045636
        },
        {
          "name": "E3",
          "midi": 52,
          "time": 35.43023255813906,
          "velocity": 0.18110236220472442,
          "duration": 0.046511627906973274
        },
        {
          "name": "B3",
          "midi": 59,
          "time": 35.43023255813906,
          "velocity": 0.3700787401574803,
          "duration": 0.09302325581393944
        },
        {
          "name": "D#2",
          "midi": 39,
          "time": 35.46511627906929,
          "velocity": 0.4409448818897638,
          "duration": 0.023255813953483084
        },
        {
          "name": "E2",
          "midi": 40,
          "time": 35.488372093022775,
          "velocity": 0.44881889763779526,
          "duration": 0.023255813953483084
        },
        {
          "name": "C4",
          "midi": 60,
          "time": 35.523255813953,
          "velocity": 0.1889763779527559,
          "duration": 0.046511627906973274
        },
        {
          "name": "F2",
          "midi": 41,
          "time": 35.53488372092974,
          "velocity": 0.3779527559055118,
          "duration": 0.03488372093023173
        },
        {
          "name": "F#2",
          "midi": 42,
          "time": 35.56976744185997,
          "velocity": 0.2992125984251969,
          "duration": 0.02325581395349019
        },
        {
          "name": "F4",
          "midi": 65,
          "time": 35.56976744185997,
          "velocity": 0.31496062992125984,
          "duration": 0.02325581395349019
        },
        {
          "name": "B4",
          "midi": 71,
          "time": 35.56976744185997,
          "velocity": 0.16535433070866143,
          "duration": 0.13953488372091982
        },
        {
          "name": "F4",
          "midi": 65,
          "time": 35.604651162790205,
          "velocity": 0.25984251968503935,
          "duration": 0.023255813953483084
        },
        {
          "name": "B3",
          "midi": 59,
          "time": 35.61627906976695,
          "velocity": 0.11023622047244094,
          "duration": 0.186046511627886
        },
        {
          "name": "E3",
          "midi": 52,
          "time": 35.63953488372043,
          "velocity": 0.15748031496062992,
          "duration": 0.05813953488372192
        },
        {
          "name": "B1",
          "midi": 35,
          "time": 35.65116279069717,
          "velocity": 0.28346456692913385,
          "duration": 0.02325581395349019
        },
        {
          "name": "E2",
          "midi": 40,
          "time": 35.69767441860415,
          "velocity": 0.33858267716535434,
          "duration": 0.023255813953483084
        },
        {
          "name": "F2",
          "midi": 41,
          "time": 35.744186046511125,
          "velocity": 0.2125984251968504,
          "duration": 0.04651162790696617
        },
        {
          "name": "G4",
          "midi": 67,
          "time": 35.76744186046461,
          "velocity": 0.3543307086614173,
          "duration": 0.05813953488370771
        },
        {
          "name": "F#5",
          "midi": 78,
          "time": 35.76744186046461,
          "velocity": 0.33858267716535434,
          "duration": 0.1627906976743958
        },
        {
          "name": "B4",
          "midi": 71,
          "time": 35.77906976744135,
          "velocity": 0.14960629921259844,
          "duration": 0.22093023255811062
        },
        {
          "name": "E5",
          "midi": 76,
          "time": 35.79069767441809,
          "velocity": 0.29133858267716534,
          "duration": 0.09302325581393944
        },
        {
          "name": "E2",
          "midi": 40,
          "time": 35.825581395348316,
          "velocity": 0.25196850393700787,
          "duration": 0.06976744186045636
        },
        {
          "name": "B6",
          "midi": 95,
          "time": 35.86046511627855,
          "velocity": 0.10236220472440945,
          "duration": 0.12790697674417117
        },
        {
          "name": "C4",
          "midi": 60,
          "time": 35.87209302325529,
          "velocity": 0.33858267716535434,
          "duration": 0.10465116279068809
        },
        {
          "name": "G4",
          "midi": 67,
          "time": 35.89534883720877,
          "velocity": 0.13385826771653545,
          "duration": 0.03488372093023173
        },
        {
          "name": "E5",
          "midi": 76,
          "time": 35.90697674418551,
          "velocity": 0.33858267716535434,
          "duration": 0.12790697674417828
        },
        {
          "name": "F#4",
          "midi": 66,
          "time": 35.965116279069235,
          "velocity": 0.2992125984251969,
          "duration": 0.023255813953483084
        },
        {
          "name": "F4",
          "midi": 65,
          "time": 35.98837209302272,
          "velocity": 0.36220472440944884,
          "duration": 0.03488372093023173
        },
        {
          "name": "D5",
          "midi": 74,
          "time": 35.98837209302272,
          "velocity": 0.14960629921259844,
          "duration": 0.03488372093023173
        },
        {
          "name": "G5",
          "midi": 79,
          "time": 35.98837209302272,
          "velocity": 0.3228346456692913,
          "duration": 0.4069767441860037
        },
        {
          "name": "B2",
          "midi": 47,
          "time": 35.99999999999946,
          "velocity": 0.23622047244094488,
          "duration": 0.03488372093023173
        },
        {
          "name": "G#4",
          "midi": 68,
          "time": 35.99999999999946,
          "velocity": 0.25196850393700787,
          "duration": 0.02325581395349019
        },
        {
          "name": "B4",
          "midi": 71,
          "time": 36.03488372092969,
          "velocity": 0.2283464566929134,
          "duration": 0.15116279069765426
        },
        {
          "name": "C3",
          "midi": 48,
          "time": 36.04651162790643,
          "velocity": 0.2440944881889764,
          "duration": 0.03488372093023173
        },
        {
          "name": "B3",
          "midi": 59,
          "time": 36.04651162790643,
          "velocity": 0.33858267716535434,
          "duration": 0.09302325581394655
        },
        {
          "name": "F4",
          "midi": 65,
          "time": 36.04651162790643,
          "velocity": 0.33858267716535434,
          "duration": 0.081395348837205
        },
        {
          "name": "E5",
          "midi": 76,
          "time": 36.04651162790643,
          "velocity": 0.33858267716535434,
          "duration": 0.27906976744183254
        },
        {
          "name": "C4",
          "midi": 60,
          "time": 36.13953488372038,
          "velocity": 0.1889763779527559,
          "duration": 0.034883720930224626
        },
        {
          "name": "B6",
          "midi": 95,
          "time": 36.15116279069712,
          "velocity": 0.11023622047244094,
          "duration": 0.05813953488370771
        },
        {
          "name": "E3",
          "midi": 52,
          "time": 36.16279069767386,
          "velocity": 0.1889763779527559,
          "duration": 0.0813953488371979
        },
        {
          "name": "G4",
          "midi": 67,
          "time": 36.16279069767386,
          "velocity": 0.2283464566929134,
          "duration": 0.023255813953483084
        },
        {
          "name": "B3",
          "midi": 59,
          "time": 36.174418604650604,
          "velocity": 0.2283464566929134,
          "duration": 0.06976744186045636
        },
        {
          "name": "F#4",
          "midi": 66,
          "time": 36.186046511627346,
          "velocity": 0.3858267716535433,
          "duration": 0.023255813953483084
        },
        {
          "name": "A#5",
          "midi": 82,
          "time": 36.19767441860409,
          "velocity": 0.14960629921259844,
          "duration": 0.046511627906973274
        },
        {
          "name": "D6",
          "midi": 86,
          "time": 36.19767441860409,
          "velocity": 0.08661417322834646,
          "duration": 0.1627906976744029
        },
        {
          "name": "G4",
          "midi": 67,
          "time": 36.20930232558083,
          "velocity": 0.4015748031496063,
          "duration": 0.081395348837205
        },
        {
          "name": "B6",
          "midi": 95,
          "time": 36.23255813953432,
          "velocity": 0.07086614173228346,
          "duration": 0.046511627906973274
        },
        {
          "name": "B6",
          "midi": 95,
          "time": 36.302325581394776,
          "velocity": 0.08661417322834646,
          "duration": 0.058139534883714816
        },
        {
          "name": "G4",
          "midi": 67,
          "time": 36.33720930232501,
          "velocity": 0.2125984251968504,
          "duration": 0.0813953488371979
        },
        {
          "name": "E5",
          "midi": 76,
          "time": 36.34883720930175,
          "velocity": 0.31496062992125984,
          "duration": 0.10465116279068809
        },
        {
          "name": "C4",
          "midi": 60,
          "time": 36.406976744185464,
          "velocity": 0.18110236220472442,
          "duration": 0.06976744186045636
        },
        {
          "name": "F4",
          "midi": 65,
          "time": 36.406976744185464,
          "velocity": 0.29133858267716534,
          "duration": 0.1627906976744029
        },
        {
          "name": "E2",
          "midi": 40,
          "time": 36.418604651162205,
          "velocity": 0.11811023622047244,
          "duration": 0.046511627906973274
        },
        {
          "name": "F#5",
          "midi": 78,
          "time": 36.418604651162205,
          "velocity": 0.33858267716535434,
          "duration": 0.23255813953486637
        },
        {
          "name": "A#6",
          "midi": 94,
          "time": 36.46511627906918,
          "velocity": 0.07874015748031496,
          "duration": 0.0813953488371979
        },
        {
          "name": "C4",
          "midi": 60,
          "time": 36.48837209302266,
          "velocity": 0.07086614173228346,
          "duration": 0.046511627906973274
        },
        {
          "name": "D#5",
          "midi": 75,
          "time": 36.48837209302266,
          "velocity": 0.28346456692913385,
          "duration": 0.12790697674418539
        },
        {
          "name": "F#4",
          "midi": 66,
          "time": 36.59302325581336,
          "velocity": 0.2440944881889764,
          "duration": 0.03488372093023173
        },
        {
          "name": "B4",
          "midi": 71,
          "time": 36.61627906976685,
          "velocity": 0.12598425196850394,
          "duration": 0.10465116279068098
        },
        {
          "name": "C4",
          "midi": 60,
          "time": 36.62790697674359,
          "velocity": 0.3779527559055118,
          "duration": 0.034883720930224626
        },
        {
          "name": "G4",
          "midi": 67,
          "time": 36.62790697674359,
          "velocity": 0.28346456692913385,
          "duration": 0.023255813953483084
        },
        {
          "name": "D5",
          "midi": 74,
          "time": 36.62790697674359,
          "velocity": 0.33070866141732286,
          "duration": 0.23255813953485216
        },
        {
          "name": "E5",
          "midi": 76,
          "time": 36.62790697674359,
          "velocity": 0.1889763779527559,
          "duration": 0.05813953488370771
        },
        {
          "name": "C#6",
          "midi": 85,
          "time": 36.62790697674359,
          "velocity": 0.07874015748031496,
          "duration": 0.06976744186044925
        },
        {
          "name": "F4",
          "midi": 65,
          "time": 36.63953488372033,
          "velocity": 0.2992125984251969,
          "duration": 0.05813953488370771
        },
        {
          "name": "F#6",
          "midi": 90,
          "time": 36.65116279069707,
          "velocity": 0.2755905511811024,
          "duration": 0.186046511627886
        },
        {
          "name": "A6",
          "midi": 93,
          "time": 36.65116279069707,
          "velocity": 0.09448818897637795,
          "duration": 0.04651162790696617
        },
        {
          "name": "C7",
          "midi": 96,
          "time": 36.65116279069707,
          "velocity": 0.2204724409448819,
          "duration": 0.10465116279068809
        },
        {
          "name": "D7",
          "midi": 98,
          "time": 36.65116279069707,
          "velocity": 0.15748031496062992,
          "duration": 0.04651162790696617
        },
        {
          "name": "A5",
          "midi": 81,
          "time": 36.674418604650555,
          "velocity": 0.2283464566929134,
          "duration": 0.2441860465115937
        },
        {
          "name": "C4",
          "midi": 60,
          "time": 36.69767441860404,
          "velocity": 0.3464566929133858,
          "duration": 0.02325581395349019
        },
        {
          "name": "F#5",
          "midi": 78,
          "time": 36.69767441860404,
          "velocity": 0.15748031496062992,
          "duration": 0.17441860465114445
        },
        {
          "name": "F2",
          "midi": 41,
          "time": 36.72093023255753,
          "velocity": 0.14960629921259844,
          "duration": 0.03488372093023173
        },
        {
          "name": "B3",
          "midi": 59,
          "time": 36.72093023255753,
          "velocity": 0.30708661417322836,
          "duration": 0.046511627906973274
        },
        {
          "name": "E4",
          "midi": 64,
          "time": 36.72093023255753,
          "velocity": 0.1968503937007874,
          "duration": 0.03488372093023173
        },
        {
          "name": "F#4",
          "midi": 66,
          "time": 36.74418604651102,
          "velocity": 0.13385826771653545,
          "duration": 0.04651162790696617
        },
        {
          "name": "D4",
          "midi": 62,
          "time": 36.77906976744124,
          "velocity": 0.1732283464566929,
          "duration": 0.058139534883714816
        },
        {
          "name": "C7",
          "midi": 96,
          "time": 36.77906976744124,
          "velocity": 0.11811023622047244,
          "duration": 0.046511627906973274
        },
        {
          "name": "B3",
          "midi": 59,
          "time": 36.83720930232496,
          "velocity": 0.14960629921259844,
          "duration": 0.034883720930224626
        },
        {
          "name": "F4",
          "midi": 65,
          "time": 36.8488372093017,
          "velocity": 0.2992125984251969,
          "duration": 0.05813953488370771
        },
        {
          "name": "D#6",
          "midi": 87,
          "time": 36.8488372093017,
          "velocity": 0.25196850393700787,
          "duration": 0.034883720930224626
        },
        {
          "name": "F6",
          "midi": 89,
          "time": 36.86046511627844,
          "velocity": 0.2047244094488189,
          "duration": 0.034883720930224626
        },
        {
          "name": "C5",
          "midi": 72,
          "time": 36.87209302325518,
          "velocity": 0.2677165354330709,
          "duration": 0.04651162790696617
        },
        {
          "name": "D5",
          "midi": 74,
          "time": 36.87209302325518,
          "velocity": 0.2125984251968504,
          "duration": 0.1860465116278931
        },
        {
          "name": "D4",
          "midi": 62,
          "time": 36.91860465116215,
          "velocity": 0.23622047244094488,
          "duration": 0.13953488372092693
        },
        {
          "name": "F4",
          "midi": 65,
          "time": 36.91860465116215,
          "velocity": 0.16535433070866143,
          "duration": 0.08139534883721211
        },
        {
          "name": "F#6",
          "midi": 90,
          "time": 36.91860465116215,
          "velocity": 0.12598425196850394,
          "duration": 0.08139534883721211
        },
        {
          "name": "A5",
          "midi": 81,
          "time": 37.03488372092959,
          "velocity": 0.11023622047244094,
          "duration": 0.04651162790696617
        },
        {
          "name": "C4",
          "midi": 60,
          "time": 37.046511627906334,
          "velocity": 0.3700787401574803,
          "duration": 0.034883720930224626
        },
        {
          "name": "G#4",
          "midi": 68,
          "time": 37.06976744185982,
          "velocity": 0.30708661417322836,
          "duration": 0.19767441860463464
        },
        {
          "name": "E5",
          "midi": 76,
          "time": 37.06976744185982,
          "velocity": 0.2677165354330709,
          "duration": 0.09302325581394655
        },
        {
          "name": "E2",
          "midi": 40,
          "time": 37.08139534883656,
          "velocity": 0.5354330708661418,
          "duration": 0.011627906976741542
        },
        {
          "name": "D5",
          "midi": 74,
          "time": 37.08139534883656,
          "velocity": 0.2047244094488189,
          "duration": 0.09302325581394655
        },
        {
          "name": "A#5",
          "midi": 82,
          "time": 37.08139534883656,
          "velocity": 0.07874015748031496,
          "duration": 0.081395348837205
        },
        {
          "name": "D2",
          "midi": 38,
          "time": 37.0930232558133,
          "velocity": 0.5433070866141733,
          "duration": 0.011627906976741542
        },
        {
          "name": "C4",
          "midi": 60,
          "time": 37.0930232558133,
          "velocity": 0.41732283464566927,
          "duration": 0.03488372093023173
        },
        {
          "name": "B4",
          "midi": 71,
          "time": 37.0930232558133,
          "velocity": 0.30708661417322836,
          "duration": 0.17441860465115155
        },
        {
          "name": "E4",
          "midi": 64,
          "time": 37.10465116279004,
          "velocity": 0.31496062992125984,
          "duration": 0.02325581395349019
        },
        {
          "name": "F#5",
          "midi": 78,
          "time": 37.10465116279004,
          "velocity": 0.33858267716535434,
          "duration": 0.06976744186046346
        },
        {
          "name": "C4",
          "midi": 60,
          "time": 37.13953488372027,
          "velocity": 0.3700787401574803,
          "duration": 0.03488372093023173
        },
        {
          "name": "E4",
          "midi": 64,
          "time": 37.13953488372027,
          "velocity": 0.3700787401574803,
          "duration": 0.12790697674417828
        },
        {
          "name": "F5",
          "midi": 77,
          "time": 37.16279069767376,
          "velocity": 0.33070866141732286,
          "duration": 0.046511627906973274
        },
        {
          "name": "E3",
          "midi": 52,
          "time": 37.174418604650505,
          "velocity": 0.2204724409448819,
          "duration": 0.046511627906973274
        },
        {
          "name": "C#7",
          "midi": 97,
          "time": 37.174418604650505,
          "velocity": 0.1732283464566929,
          "duration": 0.046511627906973274
        },
        {
          "name": "E2",
          "midi": 40,
          "time": 37.197674418603995,
          "velocity": 0.4251968503937008,
          "duration": 0.023255813953483084
        },
        {
          "name": "F#5",
          "midi": 78,
          "time": 37.20930232558074,
          "velocity": 0.31496062992125984,
          "duration": 0.11627906976742963
        },
        {
          "name": "B3",
          "midi": 59,
          "time": 37.22093023255748,
          "velocity": 0.3543307086614173,
          "duration": 0.06976744186045636
        },
        {
          "name": "E3",
          "midi": 52,
          "time": 37.23255813953422,
          "velocity": 0.25984251968503935,
          "duration": 0.081395348837205
        },
        {
          "name": "F2",
          "midi": 41,
          "time": 37.24418604651096,
          "velocity": 0.3464566929133858,
          "duration": 0.02325581395349019
        },
        {
          "name": "D5",
          "midi": 74,
          "time": 37.24418604651096,
          "velocity": 0.07874015748031496,
          "duration": 0.046511627906973274
        },
        {
          "name": "G4",
          "midi": 67,
          "time": 37.26744186046445,
          "velocity": 0.3779527559055118,
          "duration": 0.058139534883714816
        },
        {
          "name": "F#2",
          "midi": 42,
          "time": 37.27906976744119,
          "velocity": 0.29133858267716534,
          "duration": 0.046511627906973274
        },
        {
          "name": "B4",
          "midi": 71,
          "time": 37.290697674417935,
          "velocity": 0.11811023622047244,
          "duration": 0.15116279069766847
        },
        {
          "name": "D#5",
          "midi": 75,
          "time": 37.290697674417935,
          "velocity": 0.12598425196850394,
          "duration": 0.046511627906973274
        },
        {
          "name": "B3",
          "midi": 59,
          "time": 37.313953488371425,
          "velocity": 0.2755905511811024,
          "duration": 0.09302325581394655
        },
        {
          "name": "F2",
          "midi": 41,
          "time": 37.325581395348166,
          "velocity": 0.30708661417322836,
          "duration": 0.023255813953483084
        },
        {
          "name": "E4",
          "midi": 64,
          "time": 37.325581395348166,
          "velocity": 0.31496062992125984,
          "duration": 0.11627906976743674
        },
        {
          "name": "G#4",
          "midi": 68,
          "time": 37.33720930232491,
          "velocity": 0.33858267716535434,
          "duration": 0.17441860465115866
        },
        {
          "name": "E3",
          "midi": 52,
          "time": 37.37209302325514,
          "velocity": 0.11811023622047244,
          "duration": 0.09302325581395365
        },
        {
          "name": "E2",
          "midi": 40,
          "time": 37.40697674418537,
          "velocity": 0.3228346456692913,
          "duration": 0.05813953488372192
        },
        {
          "name": "F2",
          "midi": 41,
          "time": 37.46511627906909,
          "velocity": 0.2677165354330709,
          "duration": 0.03488372093023173
        },
        {
          "name": "E4",
          "midi": 64,
          "time": 37.46511627906909,
          "velocity": 0.29133858267716534,
          "duration": 0.02325581395349019
        },
        {
          "name": "F4",
          "midi": 65,
          "time": 37.48837209302258,
          "velocity": 0.3543307086614173,
          "duration": 0.058139534883714816
        },
        {
          "name": "D5",
          "midi": 74,
          "time": 37.48837209302258,
          "velocity": 0.25984251968503935,
          "duration": 0.19767441860464174
        },
        {
          "name": "A5",
          "midi": 81,
          "time": 37.48837209302258,
          "velocity": 0.2992125984251969,
          "duration": 0.1860465116279002
        },
        {
          "name": "F#6",
          "midi": 90,
          "time": 37.48837209302258,
          "velocity": 0.2047244094488189,
          "duration": 0.046511627906973274
        },
        {
          "name": "E2",
          "midi": 40,
          "time": 37.499999999999325,
          "velocity": 0.2677165354330709,
          "duration": 0.1046511627906952
        },
        {
          "name": "B4",
          "midi": 71,
          "time": 37.51162790697607,
          "velocity": 0.11811023622047244,
          "duration": 0.06976744186046346
        },
        {
          "name": "D4",
          "midi": 62,
          "time": 37.5465116279063,
          "velocity": 0.2755905511811024,
          "duration": 0.13953488372092693
        },
        {
          "name": "G#4",
          "midi": 68,
          "time": 37.5465116279063,
          "velocity": 0.13385826771653545,
          "duration": 0.12790697674418539
        },
        {
          "name": "F4",
          "midi": 65,
          "time": 37.56976744185979,
          "velocity": 0.2755905511811024,
          "duration": 0.03488372093023173
        },
        {
          "name": "E5",
          "midi": 76,
          "time": 37.58139534883653,
          "velocity": 0.3779527559055118,
          "duration": 0.36046511627903044
        },
        {
          "name": "F#6",
          "midi": 90,
          "time": 37.58139534883653,
          "velocity": 0.10236220472440945,
          "duration": 0.06976744186046346
        },
        {
          "name": "B4",
          "midi": 71,
          "time": 37.686046511627225,
          "velocity": 0.10236220472440945,
          "duration": 0.034883720930224626
        },
        {
          "name": "F4",
          "midi": 65,
          "time": 37.69767441860397,
          "velocity": 0.30708661417322836,
          "duration": 0.04651162790696617
        },
        {
          "name": "A5",
          "midi": 81,
          "time": 37.70930232558071,
          "velocity": 0.18110236220472442,
          "duration": 0.18604651162787889
        },
        {
          "name": "C#6",
          "midi": 85,
          "time": 37.70930232558071,
          "velocity": 0.25984251968503935,
          "duration": 0.13953488372091272
        },
        {
          "name": "A4",
          "midi": 69,
          "time": 37.72093023255745,
          "velocity": 0.2283464566929134,
          "duration": 0.18604651162787889
        },
        {
          "name": "C4",
          "midi": 60,
          "time": 37.73255813953419,
          "velocity": 0.25984251968503935,
          "duration": 0.058139534883714816
        },
        {
          "name": "B4",
          "midi": 71,
          "time": 37.73255813953419,
          "velocity": 0.16535433070866143,
          "duration": 0.06976744186045636
        },
        {
          "name": "E4",
          "midi": 64,
          "time": 37.779069767441165,
          "velocity": 0.2755905511811024,
          "duration": 0.058139534883714816
        },
        {
          "name": "B3",
          "midi": 59,
          "time": 37.790697674417906,
          "velocity": 0.30708661417322836,
          "duration": 0.06976744186045636
        },
        {
          "name": "D5",
          "midi": 74,
          "time": 37.84883720930162,
          "velocity": 0.07086614173228346,
          "duration": 0.034883720930224626
        },
        {
          "name": "E3",
          "midi": 52,
          "time": 37.872093023255104,
          "velocity": 0.18110236220472442,
          "duration": 0.04651162790696617
        },
        {
          "name": "B3",
          "midi": 59,
          "time": 37.883720930231846,
          "velocity": 0.25984251968503935,
          "duration": 0.0813953488371979
        },
        {
          "name": "G4",
          "midi": 67,
          "time": 37.90697674418533,
          "velocity": 0.44881889763779526,
          "duration": 0.12790697674417828
        },
        {
          "name": "F3",
          "midi": 53,
          "time": 37.91860465116207,
          "velocity": 0.1968503937007874,
          "duration": 0.03488372093023173
        },
        {
          "name": "A#5",
          "midi": 82,
          "time": 37.91860465116207,
          "velocity": 0.18110236220472442,
          "duration": 0.03488372093023173
        },
        {
          "name": "C#6",
          "midi": 85,
          "time": 37.91860465116207,
          "velocity": 0.11023622047244094,
          "duration": 0.081395348837205
        },
        {
          "name": "E4",
          "midi": 64,
          "time": 37.96511627906904,
          "velocity": 0.12598425196850394,
          "duration": 0.03488372093023173
        },
        {
          "name": "E5",
          "midi": 76,
          "time": 37.999999999999275,
          "velocity": 0.25984251968503935,
          "duration": 0.3720930232557933
        },
        {
          "name": "A2",
          "midi": 45,
          "time": 38.023255813952765,
          "velocity": 0.2204724409448819,
          "duration": 0.11627906976742963
        },
        {
          "name": "A4",
          "midi": 69,
          "time": 38.03488372092951,
          "velocity": 0.13385826771653545,
          "duration": 0.046511627906973274
        },
        {
          "name": "E3",
          "midi": 52,
          "time": 38.04651162790625,
          "velocity": 0.11811023622047244,
          "duration": 0.081395348837205
        },
        {
          "name": "C4",
          "midi": 60,
          "time": 38.11627906976671,
          "velocity": 0.29133858267716534,
          "duration": 0.046511627906973274
        },
        {
          "name": "F4",
          "midi": 65,
          "time": 38.12790697674345,
          "velocity": 0.33070866141732286,
          "duration": 0.05813953488372192
        },
        {
          "name": "B4",
          "midi": 71,
          "time": 38.12790697674345,
          "velocity": 0.3228346456692913,
          "duration": 0.2674418604650981
        },
        {
          "name": "F#5",
          "midi": 78,
          "time": 38.12790697674345,
          "velocity": 0.33070866141732286,
          "duration": 0.25581395348835656
        },
        {
          "name": "B5",
          "midi": 83,
          "time": 38.139534883720195,
          "velocity": 0.4251968503937008,
          "duration": 0.7558139534882784
        },
        {
          "name": "D#6",
          "midi": 87,
          "time": 38.139534883720195,
          "velocity": 0.2204724409448819,
          "duration": 0.05813953488372192
        },
        {
          "name": "B3",
          "midi": 59,
          "time": 38.162790697673685,
          "velocity": 0.2992125984251969,
          "duration": 0.1860465116279002
        },
        {
          "name": "F4",
          "midi": 65,
          "time": 38.19767441860392,
          "velocity": 0.2125984251968504,
          "duration": 0.046511627906973274
        },
        {
          "name": "G4",
          "midi": 67,
          "time": 38.23255813953415,
          "velocity": 0.25196850393700787,
          "duration": 0.15116279069766136
        },
        {
          "name": "D#6",
          "midi": 87,
          "time": 38.23255813953415,
          "velocity": 0.10236220472440945,
          "duration": 0.1046511627906952
        },
        {
          "name": "A2",
          "midi": 45,
          "time": 38.25581395348763,
          "velocity": 0.11811023622047244,
          "duration": 0.09302325581395365
        },
        {
          "name": "C4",
          "midi": 60,
          "time": 38.348837209301585,
          "velocity": 0.4015748031496063,
          "duration": 0.0813953488371908
        },
        {
          "name": "D7",
          "midi": 98,
          "time": 38.348837209301585,
          "velocity": 0.2125984251968504,
          "duration": 0.05813953488370771
        },
        {
          "name": "C#6",
          "midi": 85,
          "time": 38.36046511627833,
          "velocity": 0.25196850393700787,
          "duration": 0.034883720930224626
        },
        {
          "name": "D6",
          "midi": 86,
          "time": 38.36046511627833,
          "velocity": 0.1968503937007874,
          "duration": 0.04651162790696617
        },
        {
          "name": "A#6",
          "midi": 94,
          "time": 38.36046511627833,
          "velocity": 0.08661417322834646,
          "duration": 0.04651162790696617
        },
        {
          "name": "C#5",
          "midi": 73,
          "time": 38.38372093023181,
          "velocity": 0.23622047244094488,
          "duration": 0.023255813953483084
        },
        {
          "name": "C6",
          "midi": 84,
          "time": 38.38372093023181,
          "velocity": 0.07874015748031496,
          "duration": 0.04651162790696617
        },
        {
          "name": "E4",
          "midi": 64,
          "time": 38.39534883720855,
          "velocity": 0.2992125984251969,
          "duration": 0.15116279069765426
        },
        {
          "name": "G4",
          "midi": 67,
          "time": 38.418604651162035,
          "velocity": 0.3543307086614173,
          "duration": 0.13953488372091272
        },
        {
          "name": "F#5",
          "midi": 78,
          "time": 38.418604651162035,
          "velocity": 0.1968503937007874,
          "duration": 0.06976744186044925
        },
        {
          "name": "E6",
          "midi": 88,
          "time": 38.418604651162035,
          "velocity": 0.13385826771653545,
          "duration": 0.034883720930224626
        },
        {
          "name": "D6",
          "midi": 86,
          "time": 38.430232558138776,
          "velocity": 0.13385826771653545,
          "duration": 0.05813953488370771
        },
        {
          "name": "C4",
          "midi": 60,
          "time": 38.44186046511552,
          "velocity": 0.3464566929133858,
          "duration": 0.023255813953483084
        },
        {
          "name": "B4",
          "midi": 71,
          "time": 38.44186046511552,
          "velocity": 0.3228346456692913,
          "duration": 0.15116279069765426
        },
        {
          "name": "B3",
          "midi": 59,
          "time": 38.465116279069,
          "velocity": 0.2283464566929134,
          "duration": 0.034883720930224626
        },
        {
          "name": "A2",
          "midi": 45,
          "time": 38.47674418604574,
          "velocity": 0.23622047244094488,
          "duration": 0.023255813953483084
        },
        {
          "name": "F#7",
          "midi": 102,
          "time": 38.488372093022484,
          "velocity": 0.07874015748031496,
          "duration": 0.03488372093023173
        },
        {
          "name": "C4",
          "midi": 60,
          "time": 38.499999999999226,
          "velocity": 0.1968503937007874,
          "duration": 0.04651162790698038
        },
        {
          "name": "A2",
          "midi": 45,
          "time": 38.523255813952716,
          "velocity": 0.2283464566929134,
          "duration": 0.03488372093023173
        },
        {
          "name": "E3",
          "midi": 52,
          "time": 38.523255813952716,
          "velocity": 0.1732283464566929,
          "duration": 0.046511627906973274
        },
        {
          "name": "E4",
          "midi": 64,
          "time": 38.55813953488295,
          "velocity": 0.29133858267716534,
          "duration": 0.023255813953483084
        },
        {
          "name": "B3",
          "midi": 59,
          "time": 38.58139534883643,
          "velocity": 0.13385826771653545,
          "duration": 0.17441860465114445
        },
        {
          "name": "F4",
          "midi": 65,
          "time": 38.58139534883643,
          "velocity": 0.25984251968503935,
          "duration": 0.06976744186045636
        },
        {
          "name": "G4",
          "midi": 67,
          "time": 38.639534883720145,
          "velocity": 0.13385826771653545,
          "duration": 0.10465116279068809
        },
        {
          "name": "E4",
          "midi": 64,
          "time": 38.65116279069689,
          "velocity": 0.2283464566929134,
          "duration": 0.046511627906973274
        },
        {
          "name": "D#3",
          "midi": 51,
          "time": 38.76744186046432,
          "velocity": 0.3779527559055118,
          "duration": 0.023255813953483084
        },
        {
          "name": "C#4",
          "midi": 61,
          "time": 38.76744186046432,
          "velocity": 0.4094488188976378,
          "duration": 0.034883720930224626
        },
        {
          "name": "B4",
          "midi": 71,
          "time": 38.76744186046432,
          "velocity": 0.18110236220472442,
          "duration": 0.11627906976741542
        },
        {
          "name": "F2",
          "midi": 41,
          "time": 38.77906976744106,
          "velocity": 0.48031496062992124,
          "duration": 0.023255813953483084
        },
        {
          "name": "G#4",
          "midi": 68,
          "time": 38.77906976744106,
          "velocity": 0.2204724409448819,
          "duration": 0.05813953488370771
        },
        {
          "name": "E2",
          "midi": 40,
          "time": 38.80232558139454,
          "velocity": 0.5590551181102362,
          "duration": 0.011627906976741542
        },
        {
          "name": "C4",
          "midi": 60,
          "time": 38.80232558139454,
          "velocity": 0.44881889763779526,
          "duration": 0.034883720930224626
        },
        {
          "name": "D2",
          "midi": 38,
          "time": 38.81395348837128,
          "velocity": 0.5354330708661418,
          "duration": 0.011627906976741542
        },
        {
          "name": "A5",
          "midi": 81,
          "time": 38.81395348837128,
          "velocity": 0.4094488188976378,
          "duration": 0.6860465116278149
        },
        {
          "name": "E4",
          "midi": 64,
          "time": 38.825581395348024,
          "velocity": 0.28346456692913385,
          "duration": 0.023255813953483084
        },
        {
          "name": "C#7",
          "midi": 97,
          "time": 38.837209302324766,
          "velocity": 0.11023622047244094,
          "duration": 0.05813953488370771
        },
        {
          "name": "D#1",
          "midi": 27,
          "time": 38.84883720930151,
          "velocity": 0.33070866141732286,
          "duration": 0.023255813953483084
        },
        {
          "name": "F2",
          "midi": 41,
          "time": 38.84883720930151,
          "velocity": 0.33858267716535434,
          "duration": 0.023255813953483084
        },
        {
          "name": "G#4",
          "midi": 68,
          "time": 38.84883720930151,
          "velocity": 0.2440944881889764,
          "duration": 0.05813953488370771
        },
        {
          "name": "F#5",
          "midi": 78,
          "time": 38.84883720930151,
          "velocity": 0.08661417322834646,
          "duration": 0.034883720930224626
        },
        {
          "name": "B3",
          "midi": 59,
          "time": 38.86046511627825,
          "velocity": 0.3937007874015748,
          "duration": 0.11627906976742253
        },
        {
          "name": "D5",
          "midi": 74,
          "time": 38.86046511627825,
          "velocity": 0.2047244094488189,
          "duration": 0.12790697674416407
        },
        {
          "name": "E3",
          "midi": 52,
          "time": 38.87209302325499,
          "velocity": 0.1968503937007874,
          "duration": 0.05813953488370771
        },
        {
          "name": "F#4",
          "midi": 66,
          "time": 38.87209302325499,
          "velocity": 0.2992125984251969,
          "duration": 0.05813953488370771
        },
        {
          "name": "E5",
          "midi": 76,
          "time": 38.906976744185215,
          "velocity": 0.10236220472440945,
          "duration": 0.0813953488371979
        },
        {
          "name": "C#6",
          "midi": 85,
          "time": 38.906976744185215,
          "velocity": 0.08661417322834646,
          "duration": 0.046511627906973274
        },
        {
          "name": "E2",
          "midi": 40,
          "time": 38.91860465116196,
          "velocity": 0.4330708661417323,
          "duration": 0.046511627906973274
        },
        {
          "name": "G#4",
          "midi": 68,
          "time": 38.91860465116196,
          "velocity": 0.29133858267716534,
          "duration": 0.27906976744183254
        },
        {
          "name": "F2",
          "midi": 41,
          "time": 38.96511627906893,
          "velocity": 0.3779527559055118,
          "duration": 0.05813953488370771
        },
        {
          "name": "B3",
          "midi": 59,
          "time": 38.98837209302241,
          "velocity": 0.2440944881889764,
          "duration": 0.06976744186045636
        },
        {
          "name": "F#5",
          "midi": 78,
          "time": 38.999999999999154,
          "velocity": 0.09448818897637795,
          "duration": 0.20930232558137618
        },
        {
          "name": "D#5",
          "midi": 75,
          "time": 39.011627906975896,
          "velocity": 0.11023622047244094,
          "duration": 0.12790697674417828
        },
        {
          "name": "F2",
          "midi": 41,
          "time": 39.04651162790613,
          "velocity": 0.2992125984251969,
          "duration": 0.023255813953483084
        },
        {
          "name": "A#1",
          "midi": 34,
          "time": 39.06976744185961,
          "velocity": 0.2755905511811024,
          "duration": 0.02325581395349019
        },
        {
          "name": "E3",
          "midi": 52,
          "time": 39.06976744185961,
          "velocity": 0.2047244094488189,
          "duration": 0.13953488372091982
        },
        {
          "name": "E2",
          "midi": 40,
          "time": 39.12790697674333,
          "velocity": 0.3228346456692913,
          "duration": 0.058139534883714816
        },
        {
          "name": "B3",
          "midi": 59,
          "time": 39.174418604650306,
          "velocity": 0.11023622047244094,
          "duration": 0.034883720930224626
        },
        {
          "name": "F2",
          "midi": 41,
          "time": 39.18604651162705,
          "velocity": 0.2440944881889764,
          "duration": 0.034883720930224626
        },
        {
          "name": "G4",
          "midi": 67,
          "time": 39.19767441860379,
          "velocity": 0.3779527559055118,
          "duration": 0.22093023255811062
        },
        {
          "name": "D5",
          "midi": 74,
          "time": 39.19767441860379,
          "velocity": 0.30708661417322836,
          "duration": 0.22093023255811062
        },
        {
          "name": "B5",
          "midi": 83,
          "time": 39.19767441860379,
          "velocity": 0.4409448818897638,
          "duration": 0.8255813953487419
        },
        {
          "name": "F#6",
          "midi": 90,
          "time": 39.20930232558053,
          "velocity": 0.2440944881889764,
          "duration": 0.058139534883714816
        },
        {
          "name": "D4",
          "midi": 62,
          "time": 39.22093023255727,
          "velocity": 0.2992125984251969,
          "duration": 0.09302325581395365
        },
        {
          "name": "E2",
          "midi": 40,
          "time": 39.267441860464245,
          "velocity": 0.25196850393700787,
          "duration": 0.05813953488372192
        },
        {
          "name": "F#6",
          "midi": 90,
          "time": 39.290697674417736,
          "velocity": 0.13385826771653545,
          "duration": 0.0813953488371979
        },
        {
          "name": "C4",
          "midi": 60,
          "time": 39.313953488371226,
          "velocity": 0.3464566929133858,
          "duration": 0.023255813953483084
        },
        {
          "name": "B4",
          "midi": 71,
          "time": 39.313953488371226,
          "velocity": 0.2677165354330709,
          "duration": 0.06976744186044925
        },
        {
          "name": "E5",
          "midi": 76,
          "time": 39.313953488371226,
          "velocity": 0.11023622047244094,
          "duration": 0.04651162790696617
        },
        {
          "name": "E4",
          "midi": 64,
          "time": 39.32558139534797,
          "velocity": 0.2440944881889764,
          "duration": 0.0813953488371908
        },
        {
          "name": "E2",
          "midi": 40,
          "time": 39.33720930232471,
          "velocity": 0.18110236220472442,
          "duration": 0.034883720930224626
        },
        {
          "name": "C#4",
          "midi": 61,
          "time": 39.34883720930145,
          "velocity": 0.30708661417322836,
          "duration": 0.023255813953483084
        },
        {
          "name": "B4",
          "midi": 71,
          "time": 39.39534883720842,
          "velocity": 0.23622047244094488,
          "duration": 0.23255813953485216
        },
        {
          "name": "D6",
          "midi": 86,
          "time": 39.4186046511619,
          "velocity": 0.09448818897637795,
          "duration": 0.03488372093023173
        },
        {
          "name": "F#6",
          "midi": 90,
          "time": 39.4186046511619,
          "velocity": 0.1732283464566929,
          "duration": 0.09302325581393944
        },
        {
          "name": "F4",
          "midi": 65,
          "time": 39.43023255813864,
          "velocity": 0.3543307086614173,
          "duration": 0.03488372093023173
        },
        {
          "name": "G4",
          "midi": 67,
          "time": 39.43023255813864,
          "velocity": 0.23622047244094488,
          "duration": 0.02325581395349019
        },
        {
          "name": "F#5",
          "midi": 78,
          "time": 39.43023255813864,
          "velocity": 0.3228346456692913,
          "duration": 0.2674418604650839
        },
        {
          "name": "B3",
          "midi": 59,
          "time": 39.476744186045615,
          "velocity": 0.33858267716535434,
          "duration": 0.11627906976742253
        },
        {
          "name": "F4",
          "midi": 65,
          "time": 39.488372093022356,
          "velocity": 0.33858267716535434,
          "duration": 0.034883720930224626
        },
        {
          "name": "D#5",
          "midi": 75,
          "time": 39.51162790697584,
          "velocity": 0.07874015748031496,
          "duration": 0.046511627906973274
        },
        {
          "name": "F#4",
          "midi": 66,
          "time": 39.54651162790607,
          "velocity": 0.2992125984251969,
          "duration": 0.023255813953483084
        },
        {
          "name": "E4",
          "midi": 64,
          "time": 39.581395348836296,
          "velocity": 0.1889763779527559,
          "duration": 0.046511627906973274
        },
        {
          "name": "A#2",
          "midi": 46,
          "time": 39.59302325581304,
          "velocity": 0.23622047244094488,
          "duration": 0.02325581395349019
        },
        {
          "name": "E3",
          "midi": 52,
          "time": 39.59302325581304,
          "velocity": 0.25984251968503935,
          "duration": 0.058139534883714816
        },
        {
          "name": "B3",
          "midi": 59,
          "time": 39.61627906976653,
          "velocity": 0.23622047244094488,
          "duration": 0.058139534883714816
        },
        {
          "name": "G#4",
          "midi": 68,
          "time": 39.61627906976653,
          "velocity": 0.36220472440944884,
          "duration": 0.023255813953483084
        },
        {
          "name": "G4",
          "midi": 67,
          "time": 39.63953488372001,
          "velocity": 0.4409448818897638,
          "duration": 0.1627906976744029
        },
        {
          "name": "D6",
          "midi": 86,
          "time": 39.63953488372001,
          "velocity": 0.3858267716535433,
          "duration": 0.49999999999993605
        },
        {
          "name": "D5",
          "midi": 74,
          "time": 39.686046511626984,
          "velocity": 0.25984251968503935,
          "duration": 0.081395348837205
        },
        {
          "name": "A6",
          "midi": 93,
          "time": 39.697674418603725,
          "velocity": 0.10236220472440945,
          "duration": 0.05813953488372192
        },
        {
          "name": "E4",
          "midi": 64,
          "time": 39.70930232558047,
          "velocity": 0.2677165354330709,
          "duration": 0.12790697674417117
        },
        {
          "name": "B3",
          "midi": 59,
          "time": 39.73255813953396,
          "velocity": 0.09448818897637795,
          "duration": 0.03488372093023173
        },
        {
          "name": "B4",
          "midi": 71,
          "time": 39.73255813953396,
          "velocity": 0.2755905511811024,
          "duration": 0.0813953488371979
        },
        {
          "name": "E3",
          "midi": 52,
          "time": 39.75581395348745,
          "velocity": 0.11023622047244094,
          "duration": 0.0813953488371908
        },
        {
          "name": "F#5",
          "midi": 78,
          "time": 39.75581395348745,
          "velocity": 0.08661417322834646,
          "duration": 0.04651162790696617
        },
        {
          "name": "A6",
          "midi": 93,
          "time": 39.77906976744093,
          "velocity": 0.14173228346456693,
          "duration": 0.034883720930224626
        },
        {
          "name": "D5",
          "midi": 74,
          "time": 39.79069767441767,
          "velocity": 0.31496062992125984,
          "duration": 0.20930232558137618
        },
        {
          "name": "B4",
          "midi": 71,
          "time": 39.825581395347896,
          "velocity": 0.18110236220472442,
          "duration": 0.1046511627906952
        },
        {
          "name": "F#5",
          "midi": 78,
          "time": 39.83720930232464,
          "velocity": 0.08661417322834646,
          "duration": 0.11627906976743674
        },
        {
          "name": "F4",
          "midi": 65,
          "time": 39.84883720930138,
          "velocity": 0.30708661417322836,
          "duration": 0.02325581395349019
        },
        {
          "name": "A5",
          "midi": 81,
          "time": 39.84883720930138,
          "velocity": 0.33858267716535434,
          "duration": 0.2674418604650839
        },
        {
          "name": "F#6",
          "midi": 90,
          "time": 39.84883720930138,
          "velocity": 0.23622047244094488,
          "duration": 0.04651162790698038
        },
        {
          "name": "D4",
          "midi": 62,
          "time": 39.87209302325487,
          "velocity": 0.2677165354330709,
          "duration": 0.1627906976744029
        },
        {
          "name": "F4",
          "midi": 65,
          "time": 39.91860465116185,
          "velocity": 0.2204724409448819,
          "duration": 0.034883720930224626
        },
        {
          "name": "B4",
          "midi": 71,
          "time": 39.94186046511533,
          "velocity": 0.13385826771653545,
          "duration": 0.0813953488371979
        },
        {
          "name": "G4",
          "midi": 67,
          "time": 39.953488372092075,
          "velocity": 0.28346456692913385,
          "duration": 0.10465116279068098
        },
        {
          "name": "F#6",
          "midi": 90,
          "time": 39.965116279068816,
          "velocity": 0.08661417322834646,
          "duration": 0.046511627906973274
        },
        {
          "name": "C4",
          "midi": 60,
          "time": 40.046511627906014,
          "velocity": 0.3543307086614173,
          "duration": 0.0813953488371908
        },
        {
          "name": "C#5",
          "midi": 73,
          "time": 40.058139534882756,
          "velocity": 0.2283464566929134,
          "duration": 0.034883720930224626
        },
        {
          "name": "F4",
          "midi": 65,
          "time": 40.0697674418595,
          "velocity": 0.33858267716535434,
          "duration": 0.05813953488370771
        },
        {
          "name": "E5",
          "midi": 76,
          "time": 40.0697674418595,
          "velocity": 0.31496062992125984,
          "duration": 0.20930232558137618
        },
        {
          "name": "E6",
          "midi": 88,
          "time": 40.0697674418595,
          "velocity": 0.48031496062992124,
          "duration": 0.7093023255813193
        },
        {
          "name": "G#6",
          "midi": 92,
          "time": 40.08139534883624,
          "velocity": 0.28346456692913385,
          "duration": 0.05813953488370771
        },
        {
          "name": "B5",
          "midi": 83,
          "time": 40.09302325581298,
          "velocity": 0.48031496062992124,
          "duration": 3.2906976744182614
        },
        {
          "name": "G4",
          "midi": 67,
          "time": 40.10465116278972,
          "velocity": 0.3543307086614173,
          "duration": 0.36046511627905886
        },
        {
          "name": "C4",
          "midi": 60,
          "time": 40.139534883719946,
          "velocity": 0.33070866141732286,
          "duration": 0.02325581395349019
        },
        {
          "name": "F#5",
          "midi": 78,
          "time": 40.139534883719946,
          "velocity": 0.10236220472440945,
          "duration": 0.03488372093023173
        },
        {
          "name": "F2",
          "midi": 41,
          "time": 40.16279069767344,
          "velocity": 0.14173228346456693,
          "duration": 0.03488372093023173
        },
        {
          "name": "B3",
          "midi": 59,
          "time": 40.16279069767344,
          "velocity": 0.28346456692913385,
          "duration": 0.046511627906973274
        },
        {
          "name": "D6",
          "midi": 86,
          "time": 40.16279069767344,
          "velocity": 0.11811023622047244,
          "duration": 0.046511627906973274
        },
        {
          "name": "D5",
          "midi": 74,
          "time": 40.17441860465018,
          "velocity": 0.07086614173228346,
          "duration": 0.03488372093023173
        },
        {
          "name": "G#6",
          "midi": 92,
          "time": 40.17441860465018,
          "velocity": 0.2047244094488189,
          "duration": 0.1046511627906952
        },
        {
          "name": "E4",
          "midi": 64,
          "time": 40.19767441860367,
          "velocity": 0.1968503937007874,
          "duration": 0.058139534883714816
        },
        {
          "name": "C4",
          "midi": 60,
          "time": 40.20930232558041,
          "velocity": 0.25984251968503935,
          "duration": 0.046511627906973274
        },
        {
          "name": "E5",
          "midi": 76,
          "time": 40.337209302324595,
          "velocity": 0.25196850393700787,
          "duration": 0.3837209302325135
        },
        {
          "name": "D6",
          "midi": 86,
          "time": 40.34883720930134,
          "velocity": 0.11811023622047244,
          "duration": 0.05813953488372192
        },
        {
          "name": "C4",
          "midi": 60,
          "time": 40.48837209302227,
          "velocity": 0.4094488188976378,
          "duration": 0.09302325581393234
        },
        {
          "name": "F2",
          "midi": 41,
          "time": 40.49999999999901,
          "velocity": 0.5118110236220472,
          "duration": 0.023255813953483084
        },
        {
          "name": "G#4",
          "midi": 68,
          "time": 40.49999999999901,
          "velocity": 0.25196850393700787,
          "duration": 0.034883720930224626
        },
        {
          "name": "F#6",
          "midi": 90,
          "time": 40.49999999999901,
          "velocity": 0.1732283464566929,
          "duration": 0.034883720930224626
        },
        {
          "name": "F#5",
          "midi": 78,
          "time": 40.511627906975754,
          "velocity": 0.14960629921259844,
          "duration": 0.10465116279067388
        },
        {
          "name": "A#5",
          "midi": 82,
          "time": 40.511627906975754,
          "velocity": 0.11023622047244094,
          "duration": 0.06976744186044925
        },
        {
          "name": "E2",
          "midi": 40,
          "time": 40.523255813952495,
          "velocity": 0.5511811023622047,
          "duration": 0.011627906976741542
        },
        {
          "name": "C#2",
          "midi": 37,
          "time": 40.53488372092924,
          "velocity": 0.5196850393700787,
          "duration": 0.011627906976741542
        },
        {
          "name": "F#4",
          "midi": 66,
          "time": 40.53488372092924,
          "velocity": 0.3228346456692913,
          "duration": 0.023255813953483084
        },
        {
          "name": "B4",
          "midi": 71,
          "time": 40.53488372092924,
          "velocity": 0.3228346456692913,
          "duration": 0.09302325581393234
        },
        {
          "name": "D5",
          "midi": 74,
          "time": 40.53488372092924,
          "velocity": 0.10236220472440945,
          "duration": 0.034883720930224626
        },
        {
          "name": "E4",
          "midi": 64,
          "time": 40.55813953488272,
          "velocity": 0.3779527559055118,
          "duration": 0.1395348837209056
        },
        {
          "name": "G4",
          "midi": 67,
          "time": 40.55813953488272,
          "velocity": 0.4566929133858268,
          "duration": 0.15116279069764715
        },
        {
          "name": "D6",
          "midi": 86,
          "time": 40.55813953488272,
          "velocity": 0.15748031496062992,
          "duration": 0.0813953488371908
        },
        {
          "name": "F#7",
          "midi": 102,
          "time": 40.55813953488272,
          "velocity": 0.16535433070866143,
          "duration": 0.11627906976742253
        },
        {
          "name": "E3",
          "midi": 52,
          "time": 40.593023255812945,
          "velocity": 0.2047244094488189,
          "duration": 0.04651162790696617
        },
        {
          "name": "B3",
          "midi": 59,
          "time": 40.604651162789686,
          "velocity": 0.3543307086614173,
          "duration": 0.058139534883714816
        },
        {
          "name": "D#2",
          "midi": 39,
          "time": 40.61627906976643,
          "velocity": 0.3937007874015748,
          "duration": 0.023255813953483084
        },
        {
          "name": "D5",
          "midi": 74,
          "time": 40.62790697674317,
          "velocity": 0.09448818897637795,
          "duration": 0.06976744186045636
        },
        {
          "name": "A#3",
          "midi": 58,
          "time": 40.6627906976734,
          "velocity": 0.25984251968503935,
          "duration": 0.023255813953483084
        },
        {
          "name": "F2",
          "midi": 41,
          "time": 40.67441860465014,
          "velocity": 0.33070866141732286,
          "duration": 0.023255813953483084
        },
        {
          "name": "E3",
          "midi": 52,
          "time": 40.67441860465014,
          "velocity": 0.23622047244094488,
          "duration": 0.06976744186044925
        },
        {
          "name": "B3",
          "midi": 59,
          "time": 40.686046511626884,
          "velocity": 0.30708661417322836,
          "duration": 0.06976744186044925
        },
        {
          "name": "D#5",
          "midi": 75,
          "time": 40.70930232558037,
          "velocity": 0.1889763779527559,
          "duration": 0.12790697674417117
        },
        {
          "name": "F#2",
          "midi": 42,
          "time": 40.72093023255711,
          "velocity": 0.28346456692913385,
          "duration": 0.034883720930224626
        },
        {
          "name": "G4",
          "midi": 67,
          "time": 40.72093023255711,
          "velocity": 0.3464566929133858,
          "duration": 0.023255813953483084
        },
        {
          "name": "E4",
          "midi": 64,
          "time": 40.73255813953385,
          "velocity": 0.2677165354330709,
          "duration": 0.023255813953483084
        },
        {
          "name": "G#4",
          "midi": 68,
          "time": 40.74418604651059,
          "velocity": 0.33070866141732286,
          "duration": 0.1627906976744029
        },
        {
          "name": "F2",
          "midi": 41,
          "time": 40.75581395348733,
          "velocity": 0.31496062992125984,
          "duration": 0.023255813953483084
        },
        {
          "name": "E4",
          "midi": 64,
          "time": 40.767441860464075,
          "velocity": 0.33070866141732286,
          "duration": 0.12790697674417828
        },
        {
          "name": "B4",
          "midi": 71,
          "time": 40.767441860464075,
          "velocity": 0.28346456692913385,
          "duration": 0.12790697674417828
        },
        {
          "name": "G5",
          "midi": 79,
          "time": 40.767441860464075,
          "velocity": 0.08661417322834646,
          "duration": 0.081395348837205
        },
        {
          "name": "E2",
          "midi": 40,
          "time": 40.83720930232454,
          "velocity": 0.31496062992125984,
          "duration": 0.06976744186045636
        },
        {
          "name": "F2",
          "midi": 41,
          "time": 40.906976744184995,
          "velocity": 0.2755905511811024,
          "duration": 0.023255813953483084
        },
        {
          "name": "B3",
          "midi": 59,
          "time": 40.906976744184995,
          "velocity": 0.2677165354330709,
          "duration": 0.023255813953483084
        },
        {
          "name": "D5",
          "midi": 74,
          "time": 40.918604651161736,
          "velocity": 0.25984251968503935,
          "duration": 0.19767441860463464
        },
        {
          "name": "A5",
          "midi": 81,
          "time": 40.918604651161736,
          "velocity": 0.31496062992125984,
          "duration": 0.25581395348834945
        },
        {
          "name": "E2",
          "midi": 40,
          "time": 40.93023255813848,
          "velocity": 0.28346456692913385,
          "duration": 0.10465116279068098
        },
        {
          "name": "C#4",
          "midi": 61,
          "time": 40.93023255813848,
          "velocity": 0.31496062992125984,
          "duration": 0.02325581395349019
        },
        {
          "name": "F4",
          "midi": 65,
          "time": 40.93023255813848,
          "velocity": 0.3779527559055118,
          "duration": 0.06976744186045636
        },
        {
          "name": "F#6",
          "midi": 90,
          "time": 40.93023255813848,
          "velocity": 0.1732283464566929,
          "duration": 0.03488372093023173
        },
        {
          "name": "D4",
          "midi": 62,
          "time": 40.95348837209197,
          "velocity": 0.2755905511811024,
          "duration": 0.023255813953483084
        },
        {
          "name": "B4",
          "midi": 71,
          "time": 40.95348837209197,
          "velocity": 0.13385826771653545,
          "duration": 0.04651162790696617
        },
        {
          "name": "D4",
          "midi": 62,
          "time": 40.98837209302219,
          "velocity": 0.2440944881889764,
          "duration": 0.023255813953483084
        },
        {
          "name": "G#4",
          "midi": 68,
          "time": 40.999999999998934,
          "velocity": 0.16535433070866143,
          "duration": 0.058139534883714816
        },
        {
          "name": "F4",
          "midi": 65,
          "time": 41.011627906975676,
          "velocity": 0.28346456692913385,
          "duration": 0.023255813953483084
        },
        {
          "name": "F#6",
          "midi": 90,
          "time": 41.02325581395242,
          "velocity": 0.09448818897637795,
          "duration": 0.05813953488372192
        },
        {
          "name": "D4",
          "midi": 62,
          "time": 41.03488372092916,
          "velocity": 0.2204724409448819,
          "duration": 0.08139534883721211
        },
        {
          "name": "B4",
          "midi": 71,
          "time": 41.08139534883614,
          "velocity": 0.14173228346456693,
          "duration": 0.09302325581394655
        },
        {
          "name": "E4",
          "midi": 64,
          "time": 41.11627906976637,
          "velocity": 0.2440944881889764,
          "duration": 0.023255813953483084
        },
        {
          "name": "E5",
          "midi": 76,
          "time": 41.12790697674311,
          "velocity": 0.3700787401574803,
          "duration": 0.3953488372092693
        },
        {
          "name": "F4",
          "midi": 65,
          "time": 41.139534883719854,
          "velocity": 0.31496062992125984,
          "duration": 0.046511627906973274
        },
        {
          "name": "A4",
          "midi": 69,
          "time": 41.151162790696596,
          "velocity": 0.3228346456692913,
          "duration": 0.19767441860463464
        },
        {
          "name": "C#6",
          "midi": 85,
          "time": 41.151162790696596,
          "velocity": 0.2440944881889764,
          "duration": 0.1860465116278931
        },
        {
          "name": "E4",
          "midi": 64,
          "time": 41.18604651162683,
          "velocity": 0.23622047244094488,
          "duration": 0.05813953488372192
        },
        {
          "name": "B3",
          "midi": 59,
          "time": 41.20930232558032,
          "velocity": 0.3228346456692913,
          "duration": 0.09302325581394655
        },
        {
          "name": "F4",
          "midi": 65,
          "time": 41.24418604651055,
          "velocity": 0.30708661417322836,
          "duration": 0.03488372093023173
        },
        {
          "name": "E2",
          "midi": 40,
          "time": 41.25581395348729,
          "velocity": 0.2204724409448819,
          "duration": 0.03488372093023173
        },
        {
          "name": "E3",
          "midi": 52,
          "time": 41.313953488371006,
          "velocity": 0.2283464566929134,
          "duration": 0.04651162790696617
        },
        {
          "name": "B3",
          "midi": 59,
          "time": 41.32558139534775,
          "velocity": 0.2677165354330709,
          "duration": 0.06976744186044925
        },
        {
          "name": "F#4",
          "midi": 66,
          "time": 41.32558139534775,
          "velocity": 0.33070866141732286,
          "duration": 0.023255813953483084
        },
        {
          "name": "A#5",
          "midi": 82,
          "time": 41.33720930232449,
          "velocity": 0.18110236220472442,
          "duration": 0.034883720930224626
        },
        {
          "name": "G4",
          "midi": 67,
          "time": 41.34883720930123,
          "velocity": 0.4409448818897638,
          "duration": 0.13953488372091982
        },
        {
          "name": "E3",
          "midi": 52,
          "time": 41.383720930231455,
          "velocity": 0.11811023622047244,
          "duration": 0.03488372093023173
        },
        {
          "name": "A5",
          "midi": 81,
          "time": 41.395348837208196,
          "velocity": 0.08661417322834646,
          "duration": 0.06976744186046346
        },
        {
          "name": "C#6",
          "midi": 85,
          "time": 41.395348837208196,
          "velocity": 0.07874015748031496,
          "duration": 0.04651162790698038
        },
        {
          "name": "A2",
          "midi": 45,
          "time": 41.45348837209192,
          "velocity": 0.18110236220472442,
          "duration": 0.046511627906973274
        },
        {
          "name": "C4",
          "midi": 60,
          "time": 41.55813953488261,
          "velocity": 0.28346456692913385,
          "duration": 0.046511627906973274
        },
        {
          "name": "F4",
          "midi": 65,
          "time": 41.55813953488261,
          "velocity": 0.3543307086614173,
          "duration": 0.058139534883714816
        },
        {
          "name": "B4",
          "midi": 71,
          "time": 41.55813953488261,
          "velocity": 0.33070866141732286,
          "duration": 0.27906976744183964
        },
        {
          "name": "F#5",
          "midi": 78,
          "time": 41.569767441859355,
          "velocity": 0.31496062992125984,
          "duration": 0.2093023255813904
        },
        {
          "name": "D#6",
          "midi": 87,
          "time": 41.569767441859355,
          "velocity": 0.2047244094488189,
          "duration": 0.058139534883714816
        },
        {
          "name": "B3",
          "midi": 59,
          "time": 41.60465116278959,
          "velocity": 0.2677165354330709,
          "duration": 0.17441860465115866
        },
        {
          "name": "F4",
          "midi": 65,
          "time": 41.62790697674307,
          "velocity": 0.2440944881889764,
          "duration": 0.08139534883721211
        },
        {
          "name": "G4",
          "midi": 67,
          "time": 41.68604651162679,
          "velocity": 0.2755905511811024,
          "duration": 0.12790697674417828
        },
        {
          "name": "C4",
          "midi": 60,
          "time": 41.779069767440745,
          "velocity": 0.4015748031496063,
          "duration": 0.04651162790696617
        },
        {
          "name": "C#6",
          "midi": 85,
          "time": 41.79069767441749,
          "velocity": 0.25196850393700787,
          "duration": 0.04651162790696617
        },
        {
          "name": "D#6",
          "midi": 87,
          "time": 41.79069767441749,
          "velocity": 0.14960629921259844,
          "duration": 0.034883720930224626
        },
        {
          "name": "A#6",
          "midi": 94,
          "time": 41.79069767441749,
          "velocity": 0.11023622047244094,
          "duration": 0.04651162790696617
        },
        {
          "name": "D7",
          "midi": 98,
          "time": 41.79069767441749,
          "velocity": 0.2047244094488189,
          "duration": 0.04651162790696617
        },
        {
          "name": "C7",
          "midi": 96,
          "time": 41.80232558139423,
          "velocity": 0.2125984251968504,
          "duration": 0.034883720930224626
        },
        {
          "name": "E4",
          "midi": 64,
          "time": 41.82558139534771,
          "velocity": 0.25984251968503935,
          "duration": 0.023255813953483084
        },
        {
          "name": "C4",
          "midi": 60,
          "time": 41.83720930232445,
          "velocity": 0.3228346456692913,
          "duration": 0.034883720930224626
        },
        {
          "name": "F#5",
          "midi": 78,
          "time": 41.83720930232445,
          "velocity": 0.12598425196850394,
          "duration": 0.09302325581393234
        },
        {
          "name": "B4",
          "midi": 71,
          "time": 41.848837209301195,
          "velocity": 0.2283464566929134,
          "duration": 0.04651162790696617
        },
        {
          "name": "E4",
          "midi": 64,
          "time": 41.860465116277936,
          "velocity": 0.1889763779527559,
          "duration": 0.05813953488370771
        },
        {
          "name": "D7",
          "midi": 98,
          "time": 41.860465116277936,
          "velocity": 0.12598425196850394,
          "duration": 0.034883720930224626
        },
        {
          "name": "G#2",
          "midi": 44,
          "time": 41.88372093023142,
          "velocity": 0.23622047244094488,
          "duration": 0.023255813953483084
        },
        {
          "name": "C4",
          "midi": 60,
          "time": 41.88372093023142,
          "velocity": 0.33070866141732286,
          "duration": 0.034883720930224626
        },
        {
          "name": "G#4",
          "midi": 68,
          "time": 41.88372093023142,
          "velocity": 0.09448818897637795,
          "duration": 0.05813953488370771
        },
        {
          "name": "C4",
          "midi": 60,
          "time": 41.94186046511513,
          "velocity": 0.1732283464566929,
          "duration": 0.034883720930224626
        },
        {
          "name": "A2",
          "midi": 45,
          "time": 41.95348837209187,
          "velocity": 0.2125984251968504,
          "duration": 0.034883720930224626
        },
        {
          "name": "E3",
          "midi": 52,
          "time": 41.96511627906861,
          "velocity": 0.13385826771653545,
          "duration": 0.034883720930224626
        },
        {
          "name": "B3",
          "midi": 59,
          "time": 41.97674418604535,
          "velocity": 0.16535433070866143,
          "duration": 0.19767441860464174
        },
        {
          "name": "E4",
          "midi": 64,
          "time": 41.98837209302209,
          "velocity": 0.2992125984251969,
          "duration": 0.023255813953483084
        },
        {
          "name": "G4",
          "midi": 67,
          "time": 41.999999999998835,
          "velocity": 0.3228346456692913,
          "duration": 0.11627906976743674
        },
        {
          "name": "F4",
          "midi": 65,
          "time": 42.011627906975576,
          "velocity": 0.29133858267716534,
          "duration": 0.05813953488372192
        },
        {
          "name": "F4",
          "midi": 65,
          "time": 42.08139534883604,
          "velocity": 0.13385826771653545,
          "duration": 0.06976744186046346
        },
        {
          "name": "A#2",
          "midi": 46,
          "time": 42.186046511626735,
          "velocity": 0.2440944881889764,
          "duration": 0.023255813953483084
        },
        {
          "name": "C#4",
          "midi": 61,
          "time": 42.19767441860348,
          "velocity": 0.3858267716535433,
          "duration": 0.03488372093023173
        },
        {
          "name": "G#4",
          "midi": 68,
          "time": 42.20930232558022,
          "velocity": 0.23622047244094488,
          "duration": 0.046511627906973274
        },
        {
          "name": "E2",
          "midi": 40,
          "time": 42.23255813953371,
          "velocity": 0.5433070866141733,
          "duration": 0.011627906976741542
        },
        {
          "name": "C4",
          "midi": 60,
          "time": 42.23255813953371,
          "velocity": 0.4251968503937008,
          "duration": 0.034883720930224626
        },
        {
          "name": "A#5",
          "midi": 82,
          "time": 42.23255813953371,
          "velocity": 0.10236220472440945,
          "duration": 0.0813953488371908
        },
        {
          "name": "D2",
          "midi": 38,
          "time": 42.24418604651045,
          "velocity": 0.5433070866141733,
          "duration": 0.011627906976741542
        },
        {
          "name": "F#7",
          "midi": 102,
          "time": 42.24418604651045,
          "velocity": 0.08661417322834646,
          "duration": 0.04651162790696617
        },
        {
          "name": "E4",
          "midi": 64,
          "time": 42.25581395348719,
          "velocity": 0.2992125984251969,
          "duration": 0.023255813953483084
        },
        {
          "name": "B4",
          "midi": 71,
          "time": 42.25581395348719,
          "velocity": 0.12598425196850394,
          "duration": 0.05813953488370771
        },
        {
          "name": "D5",
          "midi": 74,
          "time": 42.25581395348719,
          "velocity": 0.1968503937007874,
          "duration": 0.11627906976742253
        },
        {
          "name": "B3",
          "midi": 59,
          "time": 42.26744186046393,
          "velocity": 0.2992125984251969,
          "duration": 0.023255813953483084
        },
        {
          "name": "E2",
          "midi": 40,
          "time": 42.279069767440674,
          "velocity": 0.33858267716535434,
          "duration": 0.023255813953483084
        },
        {
          "name": "E4",
          "midi": 64,
          "time": 42.290697674417416,
          "velocity": 0.2283464566929134,
          "duration": 0.046511627906973274
        },
        {
          "name": "G#4",
          "midi": 68,
          "time": 42.290697674417416,
          "velocity": 0.30708661417322836,
          "duration": 0.3488372093022818
        },
        {
          "name": "E3",
          "midi": 52,
          "time": 42.30232558139416,
          "velocity": 0.15748031496062992,
          "duration": 0.03488372093023173
        },
        {
          "name": "B3",
          "midi": 59,
          "time": 42.30232558139416,
          "velocity": 0.4015748031496063,
          "duration": 0.0813953488371979
        },
        {
          "name": "F#5",
          "midi": 78,
          "time": 42.30232558139416,
          "velocity": 0.11811023622047244,
          "duration": 0.046511627906973274
        },
        {
          "name": "D#2",
          "midi": 39,
          "time": 42.33720930232439,
          "velocity": 0.41732283464566927,
          "duration": 0.023255813953483084
        },
        {
          "name": "E2",
          "midi": 40,
          "time": 42.36046511627787,
          "velocity": 0.4251968503937008,
          "duration": 0.023255813953483084
        },
        {
          "name": "E3",
          "midi": 52,
          "time": 42.383720930231355,
          "velocity": 0.2992125984251969,
          "duration": 0.0813953488371908
        },
        {
          "name": "F2",
          "midi": 41,
          "time": 42.3953488372081,
          "velocity": 0.3779527559055118,
          "duration": 0.023255813953483084
        },
        {
          "name": "B3",
          "midi": 59,
          "time": 42.40697674418484,
          "velocity": 0.2992125984251969,
          "duration": 0.06976744186044925
        },
        {
          "name": "F4",
          "midi": 65,
          "time": 42.41860465116158,
          "velocity": 0.29133858267716534,
          "duration": 0.10465116279068098
        },
        {
          "name": "F2",
          "midi": 41,
          "time": 42.43023255813832,
          "velocity": 0.30708661417322836,
          "duration": 0.023255813953483084
        },
        {
          "name": "F#7",
          "midi": 102,
          "time": 42.43023255813832,
          "velocity": 0.11811023622047244,
          "duration": 0.04651162790696617
        },
        {
          "name": "E5",
          "midi": 76,
          "time": 42.44186046511506,
          "velocity": 0.07086614173228346,
          "duration": 0.034883720930224626
        },
        {
          "name": "F2",
          "midi": 41,
          "time": 42.47674418604529,
          "velocity": 0.30708661417322836,
          "duration": 0.02325581395349019
        },
        {
          "name": "D#5",
          "midi": 75,
          "time": 42.47674418604529,
          "velocity": 0.07874015748031496,
          "duration": 0.046511627906973274
        },
        {
          "name": "E3",
          "midi": 52,
          "time": 42.51162790697552,
          "velocity": 0.1732283464566929,
          "duration": 0.11627906976743674
        },
        {
          "name": "B4",
          "midi": 71,
          "time": 42.534883720929,
          "velocity": 0.12598425196850394,
          "duration": 0.09302325581395365
        },
        {
          "name": "E2",
          "midi": 40,
          "time": 42.55813953488249,
          "velocity": 0.33070866141732286,
          "duration": 0.046511627906973274
        },
        {
          "name": "B3",
          "midi": 59,
          "time": 42.569767441859234,
          "velocity": 0.12598425196850394,
          "duration": 0.06976744186046346
        },
        {
          "name": "F2",
          "midi": 41,
          "time": 42.627906976742956,
          "velocity": 0.25984251968503935,
          "duration": 0.023255813953483084
        },
        {
          "name": "E4",
          "midi": 64,
          "time": 42.6395348837197,
          "velocity": 0.15748031496062992,
          "duration": 0.09302325581393944
        },
        {
          "name": "G4",
          "midi": 67,
          "time": 42.6395348837197,
          "velocity": 0.3700787401574803,
          "duration": 0.058139534883714816
        },
        {
          "name": "B4",
          "midi": 71,
          "time": 42.6395348837197,
          "velocity": 0.13385826771653545,
          "duration": 0.15116279069765426
        },
        {
          "name": "F#5",
          "midi": 78,
          "time": 42.6395348837197,
          "velocity": 0.33070866141732286,
          "duration": 0.17441860465114445
        },
        {
          "name": "C#6",
          "midi": 85,
          "time": 42.67441860464993,
          "velocity": 0.09448818897637795,
          "duration": 0.034883720930224626
        },
        {
          "name": "E2",
          "midi": 40,
          "time": 42.68604651162667,
          "velocity": 0.2677165354330709,
          "duration": 0.06976744186044925
        },
        {
          "name": "G4",
          "midi": 67,
          "time": 42.720930232556896,
          "velocity": 0.2125984251968504,
          "duration": 0.034883720930224626
        },
        {
          "name": "C4",
          "midi": 60,
          "time": 42.74418604651038,
          "velocity": 0.3464566929133858,
          "duration": 0.1046511627906952
        },
        {
          "name": "F#7",
          "midi": 102,
          "time": 42.76744186046386,
          "velocity": 0.11023622047244094,
          "duration": 0.04651162790698038
        },
        {
          "name": "F#4",
          "midi": 66,
          "time": 42.83720930232433,
          "velocity": 0.31496062992125984,
          "duration": 0.023255813953483084
        },
        {
          "name": "B4",
          "midi": 71,
          "time": 42.83720930232433,
          "velocity": 0.1732283464566929,
          "duration": 0.17441860465114445
        },
        {
          "name": "G5",
          "midi": 79,
          "time": 42.848837209301074,
          "velocity": 0.3228346456692913,
          "duration": 0.44186046511623545
        },
        {
          "name": "C#6",
          "midi": 85,
          "time": 42.848837209301074,
          "velocity": 0.07874015748031496,
          "duration": 0.034883720930224626
        },
        {
          "name": "B2",
          "midi": 47,
          "time": 42.860465116277815,
          "velocity": 0.2125984251968504,
          "duration": 0.04651162790696617
        },
        {
          "name": "F4",
          "midi": 65,
          "time": 42.860465116277815,
          "velocity": 0.3700787401574803,
          "duration": 0.04651162790696617
        },
        {
          "name": "D5",
          "midi": 74,
          "time": 42.860465116277815,
          "velocity": 0.12598425196850394,
          "duration": 0.034883720930224626
        },
        {
          "name": "C4",
          "midi": 60,
          "time": 42.87209302325456,
          "velocity": 0.14960629921259844,
          "duration": 0.034883720930224626
        },
        {
          "name": "E4",
          "midi": 64,
          "time": 42.90697674418478,
          "velocity": 0.25984251968503935,
          "duration": 0.06976744186046346
        },
        {
          "name": "B3",
          "midi": 59,
          "time": 42.93023255813827,
          "velocity": 0.31496062992125984,
          "duration": 0.10465116279068809
        },
        {
          "name": "F#7",
          "midi": 102,
          "time": 42.93023255813827,
          "velocity": 0.09448818897637795,
          "duration": 0.09302325581394655
        },
        {
          "name": "E2",
          "midi": 40,
          "time": 42.976744186045245,
          "velocity": 0.2283464566929134,
          "duration": 0.03488372093023173
        },
        {
          "name": "F#4",
          "midi": 66,
          "time": 42.976744186045245,
          "velocity": 0.18110236220472442,
          "duration": 0.03488372093023173
        },
        {
          "name": "G4",
          "midi": 67,
          "time": 43.01162790697548,
          "velocity": 0.2125984251968504,
          "duration": 0.046511627906973274
        },
        {
          "name": "E3",
          "midi": 52,
          "time": 43.02325581395222,
          "velocity": 0.15748031496062992,
          "duration": 0.081395348837205
        },
        {
          "name": "B3",
          "midi": 59,
          "time": 43.05813953488245,
          "velocity": 0.2125984251968504,
          "duration": 0.058139534883714816
        },
        {
          "name": "G4",
          "midi": 67,
          "time": 43.06976744185919,
          "velocity": 0.3937007874015748,
          "duration": 0.09302325581394655
        },
        {
          "name": "F#7",
          "midi": 102,
          "time": 43.08139534883593,
          "velocity": 0.11811023622047244,
          "duration": 0.09302325581394655
        },
        {
          "name": "D6",
          "midi": 86,
          "time": 43.116279069766165,
          "velocity": 0.11023622047244094,
          "duration": 0.10465116279068809
        },
        {
          "name": "G4",
          "midi": 67,
          "time": 43.20930232558011,
          "velocity": 0.1889763779527559,
          "duration": 0.0813953488371979
        },
        {
          "name": "F4",
          "midi": 65,
          "time": 43.267441860463826,
          "velocity": 0.25984251968503935,
          "duration": 0.0813953488371908
        },
        {
          "name": "F#5",
          "midi": 78,
          "time": 43.267441860463826,
          "velocity": 0.31496062992125984,
          "duration": 0.17441860465113024
        },
        {
          "name": "C4",
          "midi": 60,
          "time": 43.27906976744057,
          "velocity": 0.1732283464566929,
          "duration": 0.034883720930224626
        },
        {
          "name": "G4",
          "midi": 67,
          "time": 43.30232558139405,
          "velocity": 0.2283464566929134,
          "duration": 0.023255813953483084
        },
        {
          "name": "C4",
          "midi": 60,
          "time": 43.325581395347534,
          "velocity": 0.16535433070866143,
          "duration": 0.034883720930224626
        },
        {
          "name": "G4",
          "midi": 67,
          "time": 43.337209302324275,
          "velocity": 0.1732283464566929,
          "duration": 0.034883720930224626
        },
        {
          "name": "F4",
          "midi": 65,
          "time": 43.39534883720798,
          "velocity": 0.11811023622047244,
          "duration": 0.03488372093023173
        },
        {
          "name": "F#4",
          "midi": 66,
          "time": 43.4534883720917,
          "velocity": 0.18110236220472442,
          "duration": 0.03488372093023173
        },
        {
          "name": "B5",
          "midi": 83,
          "time": 43.4534883720917,
          "velocity": 0.11811023622047244,
          "duration": 0.046511627906973274
        },
        {
          "name": "F#5",
          "midi": 78,
          "time": 43.47674418604519,
          "velocity": 0.25984251968503935,
          "duration": 0.2441860465116008
        },
        {
          "name": "C4",
          "midi": 60,
          "time": 43.48837209302193,
          "velocity": 0.36220472440944884,
          "duration": 0.0813953488371979
        },
        {
          "name": "G4",
          "midi": 67,
          "time": 43.48837209302193,
          "velocity": 0.31496062992125984,
          "duration": 0.023255813953483084
        },
        {
          "name": "C#5",
          "midi": 73,
          "time": 43.48837209302193,
          "velocity": 0.11023622047244094,
          "duration": 0.034883720930224626
        },
        {
          "name": "F4",
          "midi": 65,
          "time": 43.49999999999867,
          "velocity": 0.2755905511811024,
          "duration": 0.023255813953483084
        },
        {
          "name": "D5",
          "midi": 74,
          "time": 43.49999999999867,
          "velocity": 0.3700787401574803,
          "duration": 0.38372093023252773
        },
        {
          "name": "F#6",
          "midi": 90,
          "time": 43.51162790697541,
          "velocity": 0.29133858267716534,
          "duration": 0.22093023255811772
        },
        {
          "name": "C7",
          "midi": 96,
          "time": 43.51162790697541,
          "velocity": 0.18110236220472442,
          "duration": 0.11627906976742963
        },
        {
          "name": "G4",
          "midi": 67,
          "time": 43.523255813952154,
          "velocity": 0.3464566929133858,
          "duration": 0.03488372093023173
        },
        {
          "name": "A5",
          "midi": 81,
          "time": 43.523255813952154,
          "velocity": 0.4094488188976378,
          "duration": 0.46511627906972564
        },
        {
          "name": "D7",
          "midi": 98,
          "time": 43.523255813952154,
          "velocity": 0.14173228346456693,
          "duration": 0.046511627906973274
        },
        {
          "name": "B4",
          "midi": 71,
          "time": 43.546511627905645,
          "velocity": 0.12598425196850394,
          "duration": 0.034883720930224626
        },
        {
          "name": "F#4",
          "midi": 66,
          "time": 43.56976744185913,
          "velocity": 0.3937007874015748,
          "duration": 0.13953488372091982
        },
        {
          "name": "C#6",
          "midi": 85,
          "time": 43.56976744185913,
          "velocity": 0.15748031496062992,
          "duration": 0.11627906976742963
        },
        {
          "name": "C4",
          "midi": 60,
          "time": 43.58139534883587,
          "velocity": 0.3700787401574803,
          "duration": 0.03488372093023173
        },
        {
          "name": "F2",
          "midi": 41,
          "time": 43.59302325581261,
          "velocity": 0.15748031496062992,
          "duration": 0.03488372093023173
        },
        {
          "name": "A#6",
          "midi": 94,
          "time": 43.59302325581261,
          "velocity": 0.10236220472440945,
          "duration": 0.06976744186046346
        },
        {
          "name": "B5",
          "midi": 83,
          "time": 43.6162790697661,
          "velocity": 0.18110236220472442,
          "duration": 0.058139534883714816
        },
        {
          "name": "D4",
          "midi": 62,
          "time": 43.65116279069633,
          "velocity": 0.29133858267716534,
          "duration": 0.058139534883714816
        },
        {
          "name": "C7",
          "midi": 96,
          "time": 43.65116279069633,
          "velocity": 0.13385826771653545,
          "duration": 0.10465116279068809
        },
        {
          "name": "E3",
          "midi": 52,
          "time": 43.68604651162656,
          "velocity": 0.12598425196850394,
          "duration": 0.046511627906973274
        },
        {
          "name": "F4",
          "midi": 65,
          "time": 43.70930232558005,
          "velocity": 0.30708661417322836,
          "duration": 0.06976744186045636
        },
        {
          "name": "D4",
          "midi": 62,
          "time": 43.72093023255679,
          "velocity": 0.2204724409448819,
          "duration": 0.058139534883714816
        },
        {
          "name": "E6",
          "midi": 88,
          "time": 43.75581395348702,
          "velocity": 0.10236220472440945,
          "duration": 0.034883720930224626
        },
        {
          "name": "F#5",
          "midi": 78,
          "time": 43.76744186046376,
          "velocity": 0.10236220472440945,
          "duration": 0.046511627906973274
        },
        {
          "name": "F#6",
          "midi": 90,
          "time": 43.76744186046376,
          "velocity": 0.14173228346456693,
          "duration": 0.058139534883714816
        },
        {
          "name": "F4",
          "midi": 65,
          "time": 43.790697674417245,
          "velocity": 0.1968503937007874,
          "duration": 0.03488372093023173
        },
        {
          "name": "D#3",
          "midi": 51,
          "time": 43.91860465116143,
          "velocity": 0.4015748031496063,
          "duration": 0.023255813953483084
        },
        {
          "name": "C4",
          "midi": 60,
          "time": 43.93023255813817,
          "velocity": 0.3779527559055118,
          "duration": 0.04651162790696617
        },
        {
          "name": "B5",
          "midi": 83,
          "time": 43.93023255813817,
          "velocity": 0.4645669291338583,
          "duration": 1.2209302325580111
        },
        {
          "name": "E4",
          "midi": 64,
          "time": 43.941860465114914,
          "velocity": 0.28346456692913385,
          "duration": 0.1395348837209056
        },
        {
          "name": "E2",
          "midi": 40,
          "time": 43.953488372091655,
          "velocity": 0.5511811023622047,
          "duration": 0.011627906976741542
        },
        {
          "name": "F#5",
          "midi": 78,
          "time": 43.953488372091655,
          "velocity": 0.13385826771653545,
          "duration": 0.034883720930224626
        },
        {
          "name": "F#6",
          "midi": 90,
          "time": 43.953488372091655,
          "velocity": 0.15748031496062992,
          "duration": 0.06976744186044925
        },
        {
          "name": "D2",
          "midi": 38,
          "time": 43.9651162790684,
          "velocity": 0.5118110236220472,
          "duration": 0.011627906976741542
        },
        {
          "name": "G3",
          "midi": 55,
          "time": 43.9651162790684,
          "velocity": 0.25196850393700787,
          "duration": 0.034883720930224626
        },
        {
          "name": "G4",
          "midi": 67,
          "time": 43.9651162790684,
          "velocity": 0.4251968503937008,
          "duration": 0.17441860465113024
        },
        {
          "name": "C#4",
          "midi": 61,
          "time": 43.97674418604514,
          "velocity": 0.30708661417322836,
          "duration": 0.023255813953483084
        },
        {
          "name": "D5",
          "midi": 74,
          "time": 43.98837209302188,
          "velocity": 0.08661417322834646,
          "duration": 0.05813953488370771
        },
        {
          "name": "D6",
          "midi": 86,
          "time": 43.98837209302188,
          "velocity": 0.14173228346456693,
          "duration": 0.09302325581393944
        },
        {
          "name": "C4",
          "midi": 60,
          "time": 43.99999999999862,
          "velocity": 0.4015748031496063,
          "duration": 0.09302325581393944
        },
        {
          "name": "A#4",
          "midi": 70,
          "time": 44.01162790697536,
          "velocity": 0.23622047244094488,
          "duration": 0.023255813953483084
        },
        {
          "name": "F#5",
          "midi": 78,
          "time": 44.01162790697536,
          "velocity": 0.16535433070866143,
          "duration": 0.058139534883714816
        },
        {
          "name": "A5",
          "midi": 81,
          "time": 44.023255813952105,
          "velocity": 0.11811023622047244,
          "duration": 0.12790697674416407
        },
        {
          "name": "G3",
          "midi": 55,
          "time": 44.034883720928846,
          "velocity": 0.30708661417322836,
          "duration": 0.10465116279068098
        },
        {
          "name": "B4",
          "midi": 71,
          "time": 44.034883720928846,
          "velocity": 0.28346456692913385,
          "duration": 0.2674418604650839
        },
        {
          "name": "C3",
          "midi": 48,
          "time": 44.04651162790559,
          "velocity": 0.29133858267716534,
          "duration": 0.02325581395349019
        },
        {
          "name": "F#7",
          "midi": 102,
          "time": 44.04651162790559,
          "velocity": 0.09448818897637795,
          "duration": 0.06976744186045636
        },
        {
          "name": "E2",
          "midi": 40,
          "time": 44.08139534883582,
          "velocity": 0.4094488188976378,
          "duration": 0.04651162790696617
        },
        {
          "name": "E4",
          "midi": 64,
          "time": 44.09302325581256,
          "velocity": 0.1968503937007874,
          "duration": 0.034883720930224626
        },
        {
          "name": "C4",
          "midi": 60,
          "time": 44.1046511627893,
          "velocity": 0.25196850393700787,
          "duration": 0.10465116279068098
        },
        {
          "name": "F#4",
          "midi": 66,
          "time": 44.13953488371953,
          "velocity": 0.3543307086614173,
          "duration": 0.023255813953483084
        },
        {
          "name": "F6",
          "midi": 89,
          "time": 44.13953488371953,
          "velocity": 0.15748031496062992,
          "duration": 0.0813953488371979
        },
        {
          "name": "G3",
          "midi": 55,
          "time": 44.15116279069627,
          "velocity": 0.23622047244094488,
          "duration": 0.13953488372091982
        },
        {
          "name": "D5",
          "midi": 74,
          "time": 44.15116279069627,
          "velocity": 0.13385826771653545,
          "duration": 0.12790697674417828
        },
        {
          "name": "E4",
          "midi": 64,
          "time": 44.16279069767301,
          "velocity": 0.23622047244094488,
          "duration": 0.03488372093023173
        },
        {
          "name": "G4",
          "midi": 67,
          "time": 44.1860465116265,
          "velocity": 0.33858267716535434,
          "duration": 0.18604651162787889
        },
        {
          "name": "C3",
          "midi": 48,
          "time": 44.19767441860324,
          "velocity": 0.2755905511811024,
          "duration": 0.023255813953483084
        },
        {
          "name": "E4",
          "midi": 64,
          "time": 44.220930232556725,
          "velocity": 0.2755905511811024,
          "duration": 0.12790697674417117
        },
        {
          "name": "C3",
          "midi": 48,
          "time": 44.244186046510215,
          "velocity": 0.25196850393700787,
          "duration": 0.02325581395349019
        },
        {
          "name": "E2",
          "midi": 40,
          "time": 44.29069767441719,
          "velocity": 0.3700787401574803,
          "duration": 0.023255813953483084
        },
        {
          "name": "G3",
          "midi": 55,
          "time": 44.31395348837067,
          "velocity": 0.15748031496062992,
          "duration": 0.22093023255811062
        },
        {
          "name": "C3",
          "midi": 48,
          "time": 44.32558139534741,
          "velocity": 0.23622047244094488,
          "duration": 0.023255813953483084
        },
        {
          "name": "B4",
          "midi": 71,
          "time": 44.337209302324155,
          "velocity": 0.18110236220472442,
          "duration": 0.0813953488371908
        },
        {
          "name": "F2",
          "midi": 41,
          "time": 44.348837209300896,
          "velocity": 0.28346456692913385,
          "duration": 0.034883720930224626
        },
        {
          "name": "C4",
          "midi": 60,
          "time": 44.348837209300896,
          "velocity": 0.33070866141732286,
          "duration": 0.023255813953483084
        },
        {
          "name": "D5",
          "midi": 74,
          "time": 44.348837209300896,
          "velocity": 0.2992125984251969,
          "duration": 0.22093023255811772
        },
        {
          "name": "A5",
          "midi": 81,
          "time": 44.36046511627764,
          "velocity": 0.29133858267716534,
          "duration": 0.2441860465116008
        },
        {
          "name": "F#6",
          "midi": 90,
          "time": 44.36046511627764,
          "velocity": 0.2047244094488189,
          "duration": 0.04651162790696617
        },
        {
          "name": "C3",
          "midi": 48,
          "time": 44.37209302325438,
          "velocity": 0.2125984251968504,
          "duration": 0.05813953488370771
        },
        {
          "name": "F4",
          "midi": 65,
          "time": 44.37209302325438,
          "velocity": 0.3937007874015748,
          "duration": 0.023255813953483084
        },
        {
          "name": "G4",
          "midi": 67,
          "time": 44.38372093023112,
          "velocity": 0.28346456692913385,
          "duration": 0.023255813953483084
        },
        {
          "name": "F4",
          "midi": 65,
          "time": 44.406976744184604,
          "velocity": 0.33858267716535434,
          "duration": 0.023255813953483084
        },
        {
          "name": "F2",
          "midi": 41,
          "time": 44.43023255813809,
          "velocity": 0.2125984251968504,
          "duration": 0.04651162790698038
        },
        {
          "name": "E4",
          "midi": 64,
          "time": 44.43023255813809,
          "velocity": 0.28346456692913385,
          "duration": 0.05813953488372192
        },
        {
          "name": "F#6",
          "midi": 90,
          "time": 44.45348837209158,
          "velocity": 0.12598425196850394,
          "duration": 0.06976744186046346
        },
        {
          "name": "D4",
          "midi": 62,
          "time": 44.47674418604507,
          "velocity": 0.23622047244094488,
          "duration": 0.023255813953483084
        },
        {
          "name": "E4",
          "midi": 64,
          "time": 44.49999999999855,
          "velocity": 0.2204724409448819,
          "duration": 0.06976744186046346
        },
        {
          "name": "A#3",
          "midi": 58,
          "time": 44.569767441859014,
          "velocity": 0.14173228346456693,
          "duration": 0.034883720930224626
        },
        {
          "name": "F4",
          "midi": 65,
          "time": 44.569767441859014,
          "velocity": 0.2992125984251969,
          "duration": 0.12790697674417828
        },
        {
          "name": "E5",
          "midi": 76,
          "time": 44.569767441859014,
          "velocity": 0.3937007874015748,
          "duration": 0.2441860465116079
        },
        {
          "name": "A4",
          "midi": 69,
          "time": 44.581395348835755,
          "velocity": 0.2440944881889764,
          "duration": 0.13953488372091982
        },
        {
          "name": "C#6",
          "midi": 85,
          "time": 44.581395348835755,
          "velocity": 0.25196850393700787,
          "duration": 0.2906976744185883
        },
        {
          "name": "C#4",
          "midi": 61,
          "time": 44.5930232558125,
          "velocity": 0.15748031496062992,
          "duration": 0.03488372093023173
        },
        {
          "name": "D5",
          "midi": 74,
          "time": 44.5930232558125,
          "velocity": 0.07086614173228346,
          "duration": 0.03488372093023173
        },
        {
          "name": "G2",
          "midi": 43,
          "time": 44.62790697674273,
          "velocity": 0.30708661417322836,
          "duration": 0.02325581395349019
        },
        {
          "name": "C3",
          "midi": 48,
          "time": 44.66279069767296,
          "velocity": 0.2677165354330709,
          "duration": 0.046511627906973274
        },
        {
          "name": "C4",
          "midi": 60,
          "time": 44.66279069767296,
          "velocity": 0.3700787401574803,
          "duration": 0.10465116279068809
        },
        {
          "name": "G3",
          "midi": 55,
          "time": 44.6744186046497,
          "velocity": 0.1968503937007874,
          "duration": 0.09302325581394655
        },
        {
          "name": "G4",
          "midi": 67,
          "time": 44.709302325579934,
          "velocity": 0.2677165354330709,
          "duration": 0.058139534883714816
        },
        {
          "name": "C3",
          "midi": 48,
          "time": 44.720930232556675,
          "velocity": 0.3228346456692913,
          "duration": 0.03488372093023173
        },
        {
          "name": "A4",
          "midi": 69,
          "time": 44.75581395348691,
          "velocity": 0.29133858267716534,
          "duration": 0.023255813953483084
        },
        {
          "name": "C3",
          "midi": 48,
          "time": 44.76744186046365,
          "velocity": 0.2677165354330709,
          "duration": 0.058139534883714816
        },
        {
          "name": "G4",
          "midi": 67,
          "time": 44.79069767441713,
          "velocity": 0.4566929133858268,
          "duration": 0.19767441860464174
        },
        {
          "name": "G3",
          "midi": 55,
          "time": 44.81395348837062,
          "velocity": 0.1732283464566929,
          "duration": 0.05813953488372192
        },
        {
          "name": "B2",
          "midi": 47,
          "time": 44.82558139534736,
          "velocity": 0.2677165354330709,
          "duration": 0.02325581395349019
        },
        {
          "name": "C4",
          "midi": 60,
          "time": 44.872093023254344,
          "velocity": 0.11811023622047244,
          "duration": 0.03488372093023173
        },
        {
          "name": "B2",
          "midi": 47,
          "time": 44.91860465116132,
          "velocity": 0.25196850393700787,
          "duration": 0.02325581395349019
        },
        {
          "name": "G#2",
          "midi": 44,
          "time": 44.95348837209155,
          "velocity": 0.28346456692913385,
          "duration": 0.023255813953483084
        },
        {
          "name": "C4",
          "midi": 60,
          "time": 44.95348837209155,
          "velocity": 0.31496062992125984,
          "duration": 0.0813953488371908
        },
        {
          "name": "G3",
          "midi": 55,
          "time": 44.96511627906829,
          "velocity": 0.07874015748031496,
          "duration": 0.04651162790696617
        },
        {
          "name": "A2",
          "midi": 45,
          "time": 44.97674418604503,
          "velocity": 0.2755905511811024,
          "duration": 0.023255813953483084
        },
        {
          "name": "B4",
          "midi": 71,
          "time": 44.98837209302177,
          "velocity": 0.33070866141732286,
          "duration": 0.24418604651161502
        },
        {
          "name": "F#5",
          "midi": 78,
          "time": 44.999999999998515,
          "velocity": 0.33070866141732286,
          "duration": 0.24418604651161502
        },
        {
          "name": "D#6",
          "midi": 87,
          "time": 44.999999999998515,
          "velocity": 0.2047244094488189,
          "duration": 0.058139534883714816
        },
        {
          "name": "B2",
          "midi": 47,
          "time": 45.01162790697526,
          "velocity": 0.2440944881889764,
          "duration": 0.023255813953483084
        },
        {
          "name": "F4",
          "midi": 65,
          "time": 45.01162790697526,
          "velocity": 0.3464566929133858,
          "duration": 0.06976744186046346
        },
        {
          "name": "F7",
          "midi": 101,
          "time": 45.023255813952,
          "velocity": 0.07086614173228346,
          "duration": 0.05813953488372192
        },
        {
          "name": "B3",
          "midi": 59,
          "time": 45.03488372092874,
          "velocity": 0.33858267716535434,
          "duration": 0.1860465116279073
        },
        {
          "name": "F4",
          "midi": 65,
          "time": 45.09302325581246,
          "velocity": 0.25984251968503935,
          "duration": 0.02325581395349019
        },
        {
          "name": "G4",
          "midi": 67,
          "time": 45.11627906976595,
          "velocity": 0.2677165354330709,
          "duration": 0.06976744186046346
        },
        {
          "name": "B5",
          "midi": 83,
          "time": 45.186046511626415,
          "velocity": 0.4251968503937008,
          "duration": 0.7558139534882926
        },
        {
          "name": "G4",
          "midi": 67,
          "time": 45.209302325579905,
          "velocity": 0.3700787401574803,
          "duration": 0.453488372092977
        },
        {
          "name": "C4",
          "midi": 60,
          "time": 45.22093023255665,
          "velocity": 0.4251968503937008,
          "duration": 0.04651162790696617
        },
        {
          "name": "D6",
          "midi": 86,
          "time": 45.22093023255665,
          "velocity": 0.1889763779527559,
          "duration": 0.04651162790696617
        },
        {
          "name": "E6",
          "midi": 88,
          "time": 45.23255813953339,
          "velocity": 0.12598425196850394,
          "duration": 0.10465116279067388
        },
        {
          "name": "D#6",
          "midi": 87,
          "time": 45.24418604651013,
          "velocity": 0.1732283464566929,
          "duration": 0.04651162790696617
        },
        {
          "name": "C#7",
          "midi": 97,
          "time": 45.24418604651013,
          "velocity": 0.16535433070866143,
          "duration": 0.06976744186044925
        },
        {
          "name": "D7",
          "midi": 98,
          "time": 45.24418604651013,
          "velocity": 0.1968503937007874,
          "duration": 0.04651162790696617
        },
        {
          "name": "D#7",
          "midi": 99,
          "time": 45.24418604651013,
          "velocity": 0.2047244094488189,
          "duration": 0.0813953488371908
        },
        {
          "name": "G#2",
          "midi": 44,
          "time": 45.25581395348687,
          "velocity": 0.25196850393700787,
          "duration": 0.023255813953483084
        },
        {
          "name": "B4",
          "midi": 71,
          "time": 45.26744186046361,
          "velocity": 0.2047244094488189,
          "duration": 0.04651162790696617
        },
        {
          "name": "C4",
          "midi": 60,
          "time": 45.279069767440355,
          "velocity": 0.3464566929133858,
          "duration": 0.11627906976742253
        },
        {
          "name": "F#5",
          "midi": 78,
          "time": 45.279069767440355,
          "velocity": 0.14960629921259844,
          "duration": 0.06976744186044925
        },
        {
          "name": "A5",
          "midi": 81,
          "time": 45.279069767440355,
          "velocity": 0.07086614173228346,
          "duration": 0.04651162790696617
        },
        {
          "name": "D6",
          "midi": 86,
          "time": 45.279069767440355,
          "velocity": 0.18110236220472442,
          "duration": 0.0813953488371908
        },
        {
          "name": "F#7",
          "midi": 102,
          "time": 45.279069767440355,
          "velocity": 0.09448818897637795,
          "duration": 0.04651162790696617
        },
        {
          "name": "G3",
          "midi": 55,
          "time": 45.30232558139384,
          "velocity": 0.15748031496062992,
          "duration": 0.12790697674417117
        },
        {
          "name": "D#6",
          "midi": 87,
          "time": 45.30232558139384,
          "velocity": 0.11811023622047244,
          "duration": 0.034883720930224626
        },
        {
          "name": "C3",
          "midi": 48,
          "time": 45.31395348837058,
          "velocity": 0.25196850393700787,
          "duration": 0.06976744186045636
        },
        {
          "name": "B4",
          "midi": 71,
          "time": 45.32558139534732,
          "velocity": 0.2755905511811024,
          "duration": 0.06976744186045636
        },
        {
          "name": "E4",
          "midi": 64,
          "time": 45.33720930232406,
          "velocity": 0.28346456692913385,
          "duration": 0.10465116279068809
        },
        {
          "name": "F#7",
          "midi": 102,
          "time": 45.33720930232406,
          "velocity": 0.14960629921259844,
          "duration": 0.058139534883714816
        },
        {
          "name": "A2",
          "midi": 45,
          "time": 45.39534883720778,
          "velocity": 0.2677165354330709,
          "duration": 0.02325581395349019
        },
        {
          "name": "B4",
          "midi": 71,
          "time": 45.41860465116127,
          "velocity": 0.11811023622047244,
          "duration": 0.046511627906973274
        },
        {
          "name": "B2",
          "midi": 47,
          "time": 45.44186046511475,
          "velocity": 0.23622047244094488,
          "duration": 0.02325581395349019
        },
        {
          "name": "C3",
          "midi": 48,
          "time": 45.46511627906824,
          "velocity": 0.13385826771653545,
          "duration": 0.046511627906973274
        },
        {
          "name": "B3",
          "midi": 59,
          "time": 45.49999999999847,
          "velocity": 0.11811023622047244,
          "duration": 0.13953488372092693
        },
        {
          "name": "B4",
          "midi": 71,
          "time": 45.49999999999847,
          "velocity": 0.14960629921259844,
          "duration": 0.06976744186046346
        },
        {
          "name": "D3",
          "midi": 50,
          "time": 45.62790697674266,
          "velocity": 0.3779527559055118,
          "duration": 0.023255813953483084
        },
        {
          "name": "F#5",
          "midi": 78,
          "time": 45.62790697674266,
          "velocity": 0.25984251968503935,
          "duration": 0.20930232558136197
        },
        {
          "name": "C#4",
          "midi": 61,
          "time": 45.6395348837194,
          "velocity": 0.4330708661417323,
          "duration": 0.023255813953483084
        },
        {
          "name": "C4",
          "midi": 60,
          "time": 45.66279069767288,
          "velocity": 0.4015748031496063,
          "duration": 0.023255813953483084
        },
        {
          "name": "F#4",
          "midi": 66,
          "time": 45.66279069767288,
          "velocity": 0.2204724409448819,
          "duration": 0.05813953488370771
        },
        {
          "name": "D#2",
          "midi": 39,
          "time": 45.674418604649624,
          "velocity": 0.5354330708661418,
          "duration": 0.011627906976741542
        },
        {
          "name": "A5",
          "midi": 81,
          "time": 45.674418604649624,
          "velocity": 0.3858267716535433,
          "duration": 0.6744186046510876
        },
        {
          "name": "C#2",
          "midi": 37,
          "time": 45.686046511626365,
          "velocity": 0.5196850393700787,
          "duration": 0.011627906976741542
        },
        {
          "name": "C#4",
          "midi": 61,
          "time": 45.686046511626365,
          "velocity": 0.33858267716535434,
          "duration": 0.023255813953483084
        },
        {
          "name": "C5",
          "midi": 72,
          "time": 45.70930232557985,
          "velocity": 0.15748031496062992,
          "duration": 0.058139534883714816
        },
        {
          "name": "C#7",
          "midi": 97,
          "time": 45.70930232557985,
          "velocity": 0.10236220472440945,
          "duration": 0.058139534883714816
        },
        {
          "name": "G2",
          "midi": 43,
          "time": 45.72093023255659,
          "velocity": 0.3543307086614173,
          "duration": 0.02325581395349019
        },
        {
          "name": "C#4",
          "midi": 61,
          "time": 45.72093023255659,
          "velocity": 0.25196850393700787,
          "duration": 0.02325581395349019
        },
        {
          "name": "D5",
          "midi": 74,
          "time": 45.72093023255659,
          "velocity": 0.11023622047244094,
          "duration": 0.03488372093023173
        },
        {
          "name": "D4",
          "midi": 62,
          "time": 45.74418604651008,
          "velocity": 0.2440944881889764,
          "duration": 0.023255813953483084
        },
        {
          "name": "A4",
          "midi": 69,
          "time": 45.74418604651008,
          "velocity": 0.14960629921259844,
          "duration": 0.034883720930224626
        },
        {
          "name": "A#6",
          "midi": 94,
          "time": 45.74418604651008,
          "velocity": 0.08661417322834646,
          "duration": 0.04651162790696617
        },
        {
          "name": "F#4",
          "midi": 66,
          "time": 45.75581395348682,
          "velocity": 0.33858267716535434,
          "duration": 0.10465116279068809
        },
        {
          "name": "C#4",
          "midi": 61,
          "time": 45.76744186046356,
          "velocity": 0.25984251968503935,
          "duration": 0.023255813953483084
        },
        {
          "name": "D5",
          "midi": 74,
          "time": 45.76744186046356,
          "velocity": 0.2440944881889764,
          "duration": 0.058139534883714816
        },
        {
          "name": "E5",
          "midi": 76,
          "time": 45.76744186046356,
          "velocity": 0.14173228346456693,
          "duration": 0.058139534883714816
        },
        {
          "name": "C#6",
          "midi": 85,
          "time": 45.779069767440305,
          "velocity": 0.10236220472440945,
          "duration": 0.046511627906973274
        },
        {
          "name": "A3",
          "midi": 57,
          "time": 45.790697674417046,
          "velocity": 0.11023622047244094,
          "duration": 0.03488372093023173
        },
        {
          "name": "D4",
          "midi": 62,
          "time": 45.790697674417046,
          "velocity": 0.23622047244094488,
          "duration": 0.081395348837205
        },
        {
          "name": "C#7",
          "midi": 97,
          "time": 45.790697674417046,
          "velocity": 0.14960629921259844,
          "duration": 0.03488372093023173
        },
        {
          "name": "A3",
          "midi": 57,
          "time": 45.83720930232402,
          "velocity": 0.3464566929133858,
          "duration": 0.23255813953486637
        },
        {
          "name": "G6",
          "midi": 91,
          "time": 45.86046511627751,
          "velocity": 0.1889763779527559,
          "duration": 0.0813953488371979
        },
        {
          "name": "B2",
          "midi": 47,
          "time": 45.88372093023099,
          "velocity": 0.25196850393700787,
          "duration": 0.02325581395349019
        },
        {
          "name": "F#4",
          "midi": 66,
          "time": 45.88372093023099,
          "velocity": 0.3464566929133858,
          "duration": 0.046511627906973274
        },
        {
          "name": "G#2",
          "midi": 44,
          "time": 45.90697674418448,
          "velocity": 0.36220472440944884,
          "duration": 0.023255813953483084
        },
        {
          "name": "C#5",
          "midi": 73,
          "time": 45.918604651161225,
          "velocity": 0.07874015748031496,
          "duration": 0.034883720930224626
        },
        {
          "name": "E5",
          "midi": 76,
          "time": 45.918604651161225,
          "velocity": 0.14173228346456693,
          "duration": 0.19767441860463464
        },
        {
          "name": "D4",
          "midi": 62,
          "time": 45.94186046511471,
          "velocity": 0.33070866141732286,
          "duration": 0.2441860465116008
        },
        {
          "name": "F#4",
          "midi": 66,
          "time": 45.94186046511471,
          "velocity": 0.28346456692913385,
          "duration": 0.12790697674417828
        },
        {
          "name": "F2",
          "midi": 41,
          "time": 45.98837209302168,
          "velocity": 0.36220472440944884,
          "duration": 0.02325581395349019
        },
        {
          "name": "B5",
          "midi": 83,
          "time": 45.98837209302168,
          "velocity": 0.09448818897637795,
          "duration": 0.046511627906973274
        },
        {
          "name": "C#5",
          "midi": 73,
          "time": 46.02325581395191,
          "velocity": 0.12598425196850394,
          "duration": 0.058139534883714816
        },
        {
          "name": "G4",
          "midi": 67,
          "time": 46.069767441858886,
          "velocity": 0.28346456692913385,
          "duration": 0.03488372093023173
        },
        {
          "name": "B5",
          "midi": 83,
          "time": 46.069767441858886,
          "velocity": 0.4015748031496063,
          "duration": 0.6627906976743603
        },
        {
          "name": "F#6",
          "midi": 90,
          "time": 46.069767441858886,
          "velocity": 0.23622047244094488,
          "duration": 0.058139534883714816
        },
        {
          "name": "F2",
          "midi": 41,
          "time": 46.08139534883563,
          "velocity": 0.28346456692913385,
          "duration": 0.02325581395349019
        },
        {
          "name": "F#4",
          "midi": 66,
          "time": 46.10465116278912,
          "velocity": 0.2992125984251969,
          "duration": 0.05813953488370771
        },
        {
          "name": "B4",
          "midi": 71,
          "time": 46.1279069767426,
          "velocity": 0.2677165354330709,
          "duration": 0.19767441860462043
        },
        {
          "name": "A3",
          "midi": 57,
          "time": 46.13953488371934,
          "velocity": 0.13385826771653545,
          "duration": 0.034883720930224626
        },
        {
          "name": "F#7",
          "midi": 102,
          "time": 46.13953488371934,
          "velocity": 0.14173228346456693,
          "duration": 0.11627906976742253
        },
        {
          "name": "F#6",
          "midi": 90,
          "time": 46.151162790696084,
          "velocity": 0.12598425196850394,
          "duration": 0.09302325581393944
        },
        {
          "name": "G4",
          "midi": 67,
          "time": 46.162790697672826,
          "velocity": 0.33070866141732286,
          "duration": 0.06976744186045636
        },
        {
          "name": "C4",
          "midi": 60,
          "time": 46.18604651162631,
          "velocity": 0.3228346456692913,
          "duration": 0.06976744186045636
        },
        {
          "name": "G4",
          "midi": 67,
          "time": 46.24418604651002,
          "velocity": 0.2755905511811024,
          "duration": 0.03488372093023173
        },
        {
          "name": "F4",
          "midi": 65,
          "time": 46.279069767440255,
          "velocity": 0.3779527559055118,
          "duration": 0.06976744186045636
        },
        {
          "name": "G#4",
          "midi": 68,
          "time": 46.279069767440255,
          "velocity": 0.2755905511811024,
          "duration": 0.023255813953483084
        },
        {
          "name": "D6",
          "midi": 86,
          "time": 46.279069767440255,
          "velocity": 0.11811023622047244,
          "duration": 0.034883720930224626
        },
        {
          "name": "F#5",
          "midi": 78,
          "time": 46.290697674417,
          "velocity": 0.33070866141732286,
          "duration": 0.19767441860464174
        },
        {
          "name": "D5",
          "midi": 74,
          "time": 46.32558139534722,
          "velocity": 0.07874015748031496,
          "duration": 0.03488372093023173
        },
        {
          "name": "D3",
          "midi": 50,
          "time": 46.36046511627745,
          "velocity": 0.25984251968503935,
          "duration": 0.04651162790698038
        },
        {
          "name": "A3",
          "midi": 57,
          "time": 46.36046511627745,
          "velocity": 0.28346456692913385,
          "duration": 0.11627906976744384
        },
        {
          "name": "F4",
          "midi": 65,
          "time": 46.36046511627745,
          "velocity": 0.30708661417322836,
          "duration": 0.06976744186046346
        },
        {
          "name": "A5",
          "midi": 81,
          "time": 46.38372093023094,
          "velocity": 0.10236220472440945,
          "duration": 0.046511627906973274
        },
        {
          "name": "D3",
          "midi": 50,
          "time": 46.418604651161175,
          "velocity": 0.2125984251968504,
          "duration": 0.03488372093023173
        },
        {
          "name": "D4",
          "midi": 62,
          "time": 46.43023255813792,
          "velocity": 0.25196850393700787,
          "duration": 0.12790697674417828
        },
        {
          "name": "A2",
          "midi": 45,
          "time": 46.45348837209141,
          "velocity": 0.23622047244094488,
          "duration": 0.046511627906973274
        },
        {
          "name": "A#3",
          "midi": 58,
          "time": 46.4767441860449,
          "velocity": 0.13385826771653545,
          "duration": 0.034883720930224626
        },
        {
          "name": "G4",
          "midi": 67,
          "time": 46.48837209302164,
          "velocity": 0.4409448818897638,
          "duration": 0.22093023255812483
        },
        {
          "name": "A2",
          "midi": 45,
          "time": 46.51162790697512,
          "velocity": 0.2677165354330709,
          "duration": 0.081395348837205
        },
        {
          "name": "D6",
          "midi": 86,
          "time": 46.51162790697512,
          "velocity": 0.3937007874015748,
          "duration": 0.6046511627906312
        },
        {
          "name": "B4",
          "midi": 71,
          "time": 46.53488372092861,
          "velocity": 0.14960629921259844,
          "duration": 0.046511627906973274
        },
        {
          "name": "F#5",
          "midi": 78,
          "time": 46.54651162790535,
          "velocity": 0.14960629921259844,
          "duration": 0.13953488372091982
        },
        {
          "name": "D4",
          "midi": 62,
          "time": 46.581395348835585,
          "velocity": 0.14960629921259844,
          "duration": 0.081395348837205
        },
        {
          "name": "A6",
          "midi": 93,
          "time": 46.59302325581233,
          "velocity": 0.11811023622047244,
          "duration": 0.03488372093023173
        },
        {
          "name": "A2",
          "midi": 45,
          "time": 46.60465116278907,
          "velocity": 0.1732283464566929,
          "duration": 0.03488372093023173
        },
        {
          "name": "B4",
          "midi": 71,
          "time": 46.60465116278907,
          "velocity": 0.2125984251968504,
          "duration": 0.06976744186046346
        },
        {
          "name": "D5",
          "midi": 74,
          "time": 46.66279069767279,
          "velocity": 0.2992125984251969,
          "duration": 0.267441860465091
        },
        {
          "name": "B4",
          "midi": 71,
          "time": 46.68604651162627,
          "velocity": 0.11023622047244094,
          "duration": 0.06976744186046346
        },
        {
          "name": "C4",
          "midi": 60,
          "time": 46.70930232557976,
          "velocity": 0.2440944881889764,
          "duration": 0.023255813953483084
        },
        {
          "name": "F4",
          "midi": 65,
          "time": 46.70930232557976,
          "velocity": 0.29133858267716534,
          "duration": 0.10465116279068809
        },
        {
          "name": "A5",
          "midi": 81,
          "time": 46.720930232556505,
          "velocity": 0.41732283464566927,
          "duration": 0.6860465116278149
        },
        {
          "name": "F#6",
          "midi": 90,
          "time": 46.720930232556505,
          "velocity": 0.2204724409448819,
          "duration": 0.046511627906973274
        },
        {
          "name": "D4",
          "midi": 62,
          "time": 46.77906976744022,
          "velocity": 0.2283464566929134,
          "duration": 0.13953488372091982
        },
        {
          "name": "G4",
          "midi": 67,
          "time": 46.80232558139371,
          "velocity": 0.3228346456692913,
          "duration": 0.12790697674417117
        },
        {
          "name": "B5",
          "midi": 83,
          "time": 46.82558139534719,
          "velocity": 0.10236220472440945,
          "duration": 0.03488372093023173
        },
        {
          "name": "F#6",
          "midi": 90,
          "time": 46.837209302323934,
          "velocity": 0.07874015748031496,
          "duration": 0.03488372093023173
        },
        {
          "name": "C5",
          "midi": 72,
          "time": 46.91860465116114,
          "velocity": 0.12598425196850394,
          "duration": 0.06976744186044925
        },
        {
          "name": "C4",
          "midi": 60,
          "time": 46.93023255813788,
          "velocity": 0.3700787401574803,
          "duration": 0.0813953488371908
        },
        {
          "name": "F4",
          "midi": 65,
          "time": 46.94186046511462,
          "velocity": 0.30708661417322836,
          "duration": 0.0813953488371908
        },
        {
          "name": "E5",
          "midi": 76,
          "time": 46.953488372091364,
          "velocity": 0.29133858267716534,
          "duration": 0.6162790697673444
        },
        {
          "name": "B6",
          "midi": 95,
          "time": 46.953488372091364,
          "velocity": 0.11023622047244094,
          "duration": 0.034883720930224626
        },
        {
          "name": "A4",
          "midi": 69,
          "time": 46.965116279068106,
          "velocity": 0.1732283464566929,
          "duration": 0.034883720930224626
        },
        {
          "name": "F#5",
          "midi": 78,
          "time": 46.965116279068106,
          "velocity": 0.33858267716535434,
          "duration": 0.23255813953484505
        },
        {
          "name": "C#6",
          "midi": 85,
          "time": 46.965116279068106,
          "velocity": 0.15748031496062992,
          "duration": 0.10465116279067388
        },
        {
          "name": "D5",
          "midi": 74,
          "time": 46.97674418604485,
          "velocity": 0.25196850393700787,
          "duration": 0.1627906976743887
        },
        {
          "name": "B5",
          "midi": 83,
          "time": 46.97674418604485,
          "velocity": 0.1732283464566929,
          "duration": 0.04651162790696617
        },
        {
          "name": "D#7",
          "midi": 99,
          "time": 46.97674418604485,
          "velocity": 0.09448818897637795,
          "duration": 0.04651162790696617
        },
        {
          "name": "B4",
          "midi": 71,
          "time": 46.98837209302159,
          "velocity": 0.2283464566929134,
          "duration": 0.023255813953483084
        },
        {
          "name": "D3",
          "midi": 50,
          "time": 47.01162790697507,
          "velocity": 0.1968503937007874,
          "duration": 0.034883720930224626
        },
        {
          "name": "A#4",
          "midi": 70,
          "time": 47.01162790697507,
          "velocity": 0.2283464566929134,
          "duration": 0.023255813953483084
        },
        {
          "name": "F4",
          "midi": 65,
          "time": 47.034883720928555,
          "velocity": 0.23622047244094488,
          "duration": 0.023255813953483084
        },
        {
          "name": "B4",
          "midi": 71,
          "time": 47.034883720928555,
          "velocity": 0.25984251968503935,
          "duration": 0.04651162790696617
        },
        {
          "name": "B5",
          "midi": 83,
          "time": 47.034883720928555,
          "velocity": 0.2677165354330709,
          "duration": 0.11627906976742253
        },
        {
          "name": "C#4",
          "midi": 61,
          "time": 47.046511627905296,
          "velocity": 0.25196850393700787,
          "duration": 0.023255813953483084
        },
        {
          "name": "A3",
          "midi": 57,
          "time": 47.05813953488204,
          "velocity": 0.13385826771653545,
          "duration": 0.058139534883714816
        },
        {
          "name": "A4",
          "midi": 69,
          "time": 47.05813953488204,
          "velocity": 0.2125984251968504,
          "duration": 0.0813953488371979
        },
        {
          "name": "C#7",
          "midi": 97,
          "time": 47.05813953488204,
          "velocity": 0.2440944881889764,
          "duration": 0.13953488372091272
        },
        {
          "name": "B4",
          "midi": 71,
          "time": 47.11627906976575,
          "velocity": 0.14960629921259844,
          "duration": 0.0813953488371979
        },
        {
          "name": "D4",
          "midi": 62,
          "time": 47.127906976742494,
          "velocity": 0.2125984251968504,
          "duration": 0.034883720930224626
        },
        {
          "name": "F4",
          "midi": 65,
          "time": 47.15116279069598,
          "velocity": 0.2204724409448819,
          "duration": 0.058139534883714816
        },
        {
          "name": "G4",
          "midi": 67,
          "time": 47.15116279069598,
          "velocity": 0.2755905511811024,
          "duration": 0.06976744186045636
        },
        {
          "name": "C#6",
          "midi": 85,
          "time": 47.15116279069598,
          "velocity": 0.09448818897637795,
          "duration": 0.15116279069766136
        },
        {
          "name": "A4",
          "midi": 69,
          "time": 47.18604651162621,
          "velocity": 0.14960629921259844,
          "duration": 0.09302325581393944
        },
        {
          "name": "D6",
          "midi": 86,
          "time": 47.20930232557969,
          "velocity": 0.12598425196850394,
          "duration": 0.03488372093023173
        },
        {
          "name": "F4",
          "midi": 65,
          "time": 47.220930232556434,
          "velocity": 0.13385826771653545,
          "duration": 0.081395348837205
        },
        {
          "name": "C#7",
          "midi": 97,
          "time": 47.220930232556434,
          "velocity": 0.09448818897637795,
          "duration": 0.03488372093023173
        },
        {
          "name": "B4",
          "midi": 71,
          "time": 47.244186046509924,
          "velocity": 0.07874015748031496,
          "duration": 0.034883720930224626
        },
        {
          "name": "D5",
          "midi": 74,
          "time": 47.244186046509924,
          "velocity": 0.08661417322834646,
          "duration": 0.058139534883714816
        },
        {
          "name": "B5",
          "midi": 83,
          "time": 47.26744186046341,
          "velocity": 0.10236220472440945,
          "duration": 0.058139534883714816
        },
        {
          "name": "F#5",
          "midi": 78,
          "time": 47.27906976744015,
          "velocity": 0.07086614173228346,
          "duration": 0.03488372093023173
        },
        {
          "name": "E4",
          "midi": 64,
          "time": 47.34883720930061,
          "velocity": 0.2204724409448819,
          "duration": 0.034883720930224626
        },
        {
          "name": "D#3",
          "midi": 51,
          "time": 47.360465116277354,
          "velocity": 0.3779527559055118,
          "duration": 0.023255813953483084
        },
        {
          "name": "C4",
          "midi": 60,
          "time": 47.360465116277354,
          "velocity": 0.36220472440944884,
          "duration": 0.023255813953483084
        },
        {
          "name": "G#4",
          "midi": 68,
          "time": 47.360465116277354,
          "velocity": 0.2677165354330709,
          "duration": 0.04651162790696617
        },
        {
          "name": "F#5",
          "midi": 78,
          "time": 47.372093023254095,
          "velocity": 0.15748031496062992,
          "duration": 0.05813953488370771
        },
        {
          "name": "E2",
          "midi": 40,
          "time": 47.38372093023084,
          "velocity": 0.5354330708661418,
          "duration": 0.011627906976741542
        },
        {
          "name": "D2",
          "midi": 38,
          "time": 47.39534883720758,
          "velocity": 0.5354330708661418,
          "duration": 0.011627906976741542
        },
        {
          "name": "C4",
          "midi": 60,
          "time": 47.39534883720758,
          "velocity": 0.4330708661417323,
          "duration": 0.034883720930224626
        },
        {
          "name": "E4",
          "midi": 64,
          "time": 47.40697674418432,
          "velocity": 0.28346456692913385,
          "duration": 0.023255813953483084
        },
        {
          "name": "D5",
          "midi": 74,
          "time": 47.40697674418432,
          "velocity": 0.14173228346456693,
          "duration": 0.1627906976743887
        },
        {
          "name": "B5",
          "midi": 83,
          "time": 47.40697674418432,
          "velocity": 0.29133858267716534,
          "duration": 0.2209302325581035
        },
        {
          "name": "B4",
          "midi": 71,
          "time": 47.41860465116106,
          "velocity": 0.2283464566929134,
          "duration": 0.034883720930224626
        },
        {
          "name": "G5",
          "midi": 79,
          "time": 47.41860465116106,
          "velocity": 0.3779527559055118,
          "duration": 0.10465116279068098
        },
        {
          "name": "D#7",
          "midi": 99,
          "time": 47.41860465116106,
          "velocity": 0.09448818897637795,
          "duration": 0.04651162790696617
        },
        {
          "name": "E2",
          "midi": 40,
          "time": 47.4302325581378,
          "velocity": 0.36220472440944884,
          "duration": 0.023255813953483084
        },
        {
          "name": "F4",
          "midi": 65,
          "time": 47.4302325581378,
          "velocity": 0.2283464566929134,
          "duration": 0.023255813953483084
        },
        {
          "name": "C4",
          "midi": 60,
          "time": 47.441860465114544,
          "velocity": 0.4251968503937008,
          "duration": 0.023255813953483084
        },
        {
          "name": "G#4",
          "midi": 68,
          "time": 47.441860465114544,
          "velocity": 0.2992125984251969,
          "duration": 0.12790697674416407
        },
        {
          "name": "E3",
          "midi": 52,
          "time": 47.453488372091286,
          "velocity": 0.2125984251968504,
          "duration": 0.06976744186045636
        },
        {
          "name": "A5",
          "midi": 81,
          "time": 47.453488372091286,
          "velocity": 0.2283464566929134,
          "duration": 0.10465116279068098
        },
        {
          "name": "B3",
          "midi": 59,
          "time": 47.46511627906803,
          "velocity": 0.3858267716535433,
          "duration": 0.06976744186045636
        },
        {
          "name": "D7",
          "midi": 98,
          "time": 47.46511627906803,
          "velocity": 0.2125984251968504,
          "duration": 0.12790697674417117
        },
        {
          "name": "E2",
          "midi": 40,
          "time": 47.511627906975,
          "velocity": 0.4251968503937008,
          "duration": 0.023255813953483084
        },
        {
          "name": "E3",
          "midi": 52,
          "time": 47.534883720928484,
          "velocity": 0.28346456692913385,
          "duration": 0.0813953488371979
        },
        {
          "name": "A#3",
          "midi": 58,
          "time": 47.534883720928484,
          "velocity": 0.13385826771653545,
          "duration": 0.034883720930224626
        },
        {
          "name": "F2",
          "midi": 41,
          "time": 47.546511627905225,
          "velocity": 0.3779527559055118,
          "duration": 0.046511627906973274
        },
        {
          "name": "F#4",
          "midi": 66,
          "time": 47.55813953488197,
          "velocity": 0.3858267716535433,
          "duration": 0.03488372093023173
        },
        {
          "name": "B3",
          "midi": 59,
          "time": 47.56976744185871,
          "velocity": 0.25196850393700787,
          "duration": 0.046511627906973274
        },
        {
          "name": "D#5",
          "midi": 75,
          "time": 47.56976744185871,
          "velocity": 0.18110236220472442,
          "duration": 0.03488372093023173
        },
        {
          "name": "G5",
          "midi": 79,
          "time": 47.56976744185871,
          "velocity": 0.3464566929133858,
          "duration": 0.2441860465115866
        },
        {
          "name": "G4",
          "midi": 67,
          "time": 47.5930232558122,
          "velocity": 0.4015748031496063,
          "duration": 0.034883720930224626
        },
        {
          "name": "E5",
          "midi": 76,
          "time": 47.5930232558122,
          "velocity": 0.2047244094488189,
          "duration": 0.05813953488370771
        },
        {
          "name": "A5",
          "midi": 81,
          "time": 47.60465116278894,
          "velocity": 0.1732283464566929,
          "duration": 0.0813953488371908
        },
        {
          "name": "G#4",
          "midi": 68,
          "time": 47.61627906976568,
          "velocity": 0.36220472440944884,
          "duration": 0.19767441860461332
        },
        {
          "name": "F2",
          "midi": 41,
          "time": 47.62790697674242,
          "velocity": 0.30708661417322836,
          "duration": 0.023255813953483084
        },
        {
          "name": "B3",
          "midi": 59,
          "time": 47.639534883719165,
          "velocity": 0.1732283464566929,
          "duration": 0.05813953488370771
        },
        {
          "name": "D#5",
          "midi": 75,
          "time": 47.639534883719165,
          "velocity": 0.11811023622047244,
          "duration": 0.0813953488371908
        },
        {
          "name": "E3",
          "midi": 52,
          "time": 47.66279069767265,
          "velocity": 0.1968503937007874,
          "duration": 0.04651162790696617
        },
        {
          "name": "A#2",
          "midi": 46,
          "time": 47.67441860464939,
          "velocity": 0.2677165354330709,
          "duration": 0.023255813953483084
        },
        {
          "name": "E2",
          "midi": 40,
          "time": 47.720930232556356,
          "velocity": 0.3228346456692913,
          "duration": 0.023255813953483084
        },
        {
          "name": "B3",
          "midi": 59,
          "time": 47.7325581395331,
          "velocity": 0.2204724409448819,
          "duration": 0.058139534883714816
        },
        {
          "name": "A5",
          "midi": 81,
          "time": 47.7325581395331,
          "velocity": 0.09448818897637795,
          "duration": 0.0813953488371979
        },
        {
          "name": "E4",
          "midi": 64,
          "time": 47.74418604650984,
          "velocity": 0.12598425196850394,
          "duration": 0.03488372093023173
        },
        {
          "name": "D7",
          "midi": 98,
          "time": 47.75581395348658,
          "velocity": 0.11811023622047244,
          "duration": 0.058139534883714816
        },
        {
          "name": "F2",
          "midi": 41,
          "time": 47.77906976744007,
          "velocity": 0.25984251968503935,
          "duration": 0.023255813953483084
        },
        {
          "name": "C4",
          "midi": 60,
          "time": 47.79069767441681,
          "velocity": 0.2992125984251969,
          "duration": 0.11627906976741542
        },
        {
          "name": "F4",
          "midi": 65,
          "time": 47.79069767441681,
          "velocity": 0.33070866141732286,
          "duration": 0.04651162790696617
        },
        {
          "name": "F#5",
          "midi": 78,
          "time": 47.79069767441681,
          "velocity": 0.3228346456692913,
          "duration": 0.09302325581393234
        },
        {
          "name": "G4",
          "midi": 67,
          "time": 47.80232558139355,
          "velocity": 0.2992125984251969,
          "duration": 0.034883720930224626
        },
        {
          "name": "B4",
          "midi": 71,
          "time": 47.80232558139355,
          "velocity": 0.11023622047244094,
          "duration": 0.17441860465113024
        },
        {
          "name": "E2",
          "midi": 40,
          "time": 47.82558139534704,
          "velocity": 0.25984251968503935,
          "duration": 0.0813953488371908
        },
        {
          "name": "F4",
          "midi": 65,
          "time": 47.84883720930052,
          "velocity": 0.2677165354330709,
          "duration": 0.09302325581393944
        },
        {
          "name": "D7",
          "midi": 98,
          "time": 47.86046511627726,
          "velocity": 0.10236220472440945,
          "duration": 0.10465116279068098
        },
        {
          "name": "G5",
          "midi": 79,
          "time": 47.872093023254,
          "velocity": 0.3543307086614173,
          "duration": 0.19767441860462043
        },
        {
          "name": "F#5",
          "midi": 78,
          "time": 47.895348837207486,
          "velocity": 0.25984251968503935,
          "duration": 0.023255813953483084
        },
        {
          "name": "C4",
          "midi": 60,
          "time": 47.91860465116097,
          "velocity": 0.07874015748031496,
          "duration": 0.03488372093023173
        },
        {
          "name": "F4",
          "midi": 65,
          "time": 47.999999999998174,
          "velocity": 0.2992125984251969,
          "duration": 0.17441860465114445
        },
        {
          "name": "D5",
          "midi": 74,
          "time": 47.999999999998174,
          "velocity": 0.3228346456692913,
          "duration": 0.23255813953485927
        },
        {
          "name": "A5",
          "midi": 81,
          "time": 47.999999999998174,
          "velocity": 0.30708661417322836,
          "duration": 0.23255813953485927
        },
        {
          "name": "D#2",
          "midi": 39,
          "time": 48.011627906974915,
          "velocity": 0.08661417322834646,
          "duration": 0.034883720930224626
        },
        {
          "name": "C#4",
          "midi": 61,
          "time": 48.011627906974915,
          "velocity": 0.28346456692913385,
          "duration": 0.023255813953483084
        },
        {
          "name": "F#6",
          "midi": 90,
          "time": 48.011627906974915,
          "velocity": 0.2047244094488189,
          "duration": 0.186046511627886
        },
        {
          "name": "F#5",
          "midi": 78,
          "time": 48.02325581395166,
          "velocity": 0.3858267716535433,
          "duration": 0.1627906976744029
        },
        {
          "name": "D4",
          "midi": 62,
          "time": 48.0348837209284,
          "velocity": 0.2283464566929134,
          "duration": 0.023255813953483084
        },
        {
          "name": "B5",
          "midi": 83,
          "time": 48.04651162790514,
          "velocity": 0.11811023622047244,
          "duration": 0.046511627906973274
        },
        {
          "name": "B4",
          "midi": 71,
          "time": 48.05813953488188,
          "velocity": 0.2125984251968504,
          "duration": 0.03488372093023173
        },
        {
          "name": "D4",
          "midi": 62,
          "time": 48.06976744185862,
          "velocity": 0.2204724409448819,
          "duration": 0.13953488372091982
        },
        {
          "name": "B4",
          "midi": 71,
          "time": 48.104651162788855,
          "velocity": 0.25196850393700787,
          "duration": 0.06976744186046346
        },
        {
          "name": "B5",
          "midi": 83,
          "time": 48.104651162788855,
          "velocity": 0.2992125984251969,
          "duration": 0.1860465116278931
        },
        {
          "name": "C#7",
          "midi": 97,
          "time": 48.116279069765596,
          "velocity": 0.1968503937007874,
          "duration": 0.17441860465115155
        },
        {
          "name": "B4",
          "midi": 71,
          "time": 48.18604651162606,
          "velocity": 0.2204724409448819,
          "duration": 0.19767441860463464
        },
        {
          "name": "F#5",
          "midi": 78,
          "time": 48.1976744186028,
          "velocity": 0.41732283464566927,
          "duration": 0.49999999999995026
        },
        {
          "name": "G4",
          "midi": 67,
          "time": 48.20930232557954,
          "velocity": 0.4566929133858268,
          "duration": 0.06976744186046346
        },
        {
          "name": "B3",
          "midi": 59,
          "time": 48.267441860463265,
          "velocity": 0.3228346456692913,
          "duration": 0.12790697674417117
        },
        {
          "name": "E4",
          "midi": 64,
          "time": 48.267441860463265,
          "velocity": 0.25984251968503935,
          "duration": 0.023255813953483084
        },
        {
          "name": "G4",
          "midi": 67,
          "time": 48.29069767441675,
          "velocity": 0.2283464566929134,
          "duration": 0.058139534883714816
        },
        {
          "name": "D#5",
          "midi": 75,
          "time": 48.30232558139349,
          "velocity": 0.11811023622047244,
          "duration": 0.03488372093023173
        },
        {
          "name": "F#2",
          "midi": 42,
          "time": 48.31395348837023,
          "velocity": 0.2440944881889764,
          "duration": 0.02325581395349019
        },
        {
          "name": "C#7",
          "midi": 97,
          "time": 48.31395348837023,
          "velocity": 0.2204724409448819,
          "duration": 0.4302325581394868
        },
        {
          "name": "D5",
          "midi": 74,
          "time": 48.33720930232372,
          "velocity": 0.15748031496062992,
          "duration": 0.058139534883714816
        },
        {
          "name": "F#4",
          "midi": 66,
          "time": 48.383720930230695,
          "velocity": 0.16535433070866143,
          "duration": 0.034883720930224626
        },
        {
          "name": "A2",
          "midi": 45,
          "time": 48.40697674418418,
          "velocity": 0.2755905511811024,
          "duration": 0.023255813953483084
        },
        {
          "name": "E3",
          "midi": 52,
          "time": 48.41860465116092,
          "velocity": 0.2047244094488189,
          "duration": 0.05813953488370771
        },
        {
          "name": "B3",
          "midi": 59,
          "time": 48.41860465116092,
          "velocity": 0.2283464566929134,
          "duration": 0.034883720930224626
        },
        {
          "name": "F4",
          "midi": 65,
          "time": 48.43023255813766,
          "velocity": 0.3700787401574803,
          "duration": 0.04651162790696617
        },
        {
          "name": "E5",
          "midi": 76,
          "time": 48.43023255813766,
          "velocity": 0.23622047244094488,
          "duration": 0.5697674418604208
        },
        {
          "name": "B5",
          "midi": 83,
          "time": 48.43023255813766,
          "velocity": 0.3228346456692913,
          "duration": 0.4302325581394939
        },
        {
          "name": "D6",
          "midi": 86,
          "time": 48.43023255813766,
          "velocity": 0.09448818897637795,
          "duration": 0.034883720930224626
        },
        {
          "name": "E6",
          "midi": 88,
          "time": 48.4418604651144,
          "velocity": 0.23622047244094488,
          "duration": 0.09302325581393944
        },
        {
          "name": "C4",
          "midi": 60,
          "time": 48.453488372091144,
          "velocity": 0.2204724409448819,
          "duration": 0.04651162790696617
        },
        {
          "name": "G#6",
          "midi": 92,
          "time": 48.453488372091144,
          "velocity": 0.09448818897637795,
          "duration": 0.20930232558137618
        },
        {
          "name": "A2",
          "midi": 45,
          "time": 48.48837209302137,
          "velocity": 0.25196850393700787,
          "duration": 0.03488372093023173
        },
        {
          "name": "F4",
          "midi": 65,
          "time": 48.49999999999811,
          "velocity": 0.2440944881889764,
          "duration": 0.06976744186046346
        },
        {
          "name": "G#4",
          "midi": 68,
          "time": 48.5232558139516,
          "velocity": 0.2283464566929134,
          "duration": 0.023255813953483084
        },
        {
          "name": "B3",
          "midi": 59,
          "time": 48.53488372092834,
          "velocity": 0.11811023622047244,
          "duration": 0.046511627906973274
        },
        {
          "name": "G4",
          "midi": 67,
          "time": 48.54651162790508,
          "velocity": 0.28346456692913385,
          "duration": 0.12790697674417828
        },
        {
          "name": "F3",
          "midi": 53,
          "time": 48.604651162788805,
          "velocity": 0.09448818897637795,
          "duration": 0.03488372093023173
        },
        {
          "name": "C4",
          "midi": 60,
          "time": 48.63953488371904,
          "velocity": 0.36220472440944884,
          "duration": 0.0813953488371979
        },
        {
          "name": "D6",
          "midi": 86,
          "time": 48.65116279069578,
          "velocity": 0.23622047244094488,
          "duration": 0.20930232558137618
        },
        {
          "name": "D#6",
          "midi": 87,
          "time": 48.65116279069578,
          "velocity": 0.2283464566929134,
          "duration": 0.058139534883714816
        },
        {
          "name": "D5",
          "midi": 74,
          "time": 48.66279069767252,
          "velocity": 0.3858267716535433,
          "duration": 0.49999999999995737
        },
        {
          "name": "F#4",
          "midi": 66,
          "time": 48.67441860464926,
          "velocity": 0.2204724409448819,
          "duration": 0.03488372093023173
        },
        {
          "name": "B4",
          "midi": 71,
          "time": 48.67441860464926,
          "velocity": 0.25196850393700787,
          "duration": 0.06976744186045636
        },
        {
          "name": "F6",
          "midi": 89,
          "time": 48.67441860464926,
          "velocity": 0.1968503937007874,
          "duration": 0.03488372093023173
        },
        {
          "name": "A6",
          "midi": 93,
          "time": 48.67441860464926,
          "velocity": 0.11023622047244094,
          "duration": 0.058139534883714816
        },
        {
          "name": "C7",
          "midi": 96,
          "time": 48.69767441860275,
          "velocity": 0.11023622047244094,
          "duration": 0.034883720930224626
        },
        {
          "name": "G4",
          "midi": 67,
          "time": 48.70930232557949,
          "velocity": 0.3464566929133858,
          "duration": 0.3139534883720785
        },
        {
          "name": "B3",
          "midi": 59,
          "time": 48.74418604650972,
          "velocity": 0.3464566929133858,
          "duration": 0.046511627906973274
        },
        {
          "name": "E4",
          "midi": 64,
          "time": 48.76744186046321,
          "velocity": 0.2125984251968504,
          "duration": 0.09302325581394655
        },
        {
          "name": "C5",
          "midi": 72,
          "time": 48.77906976743995,
          "velocity": 0.12598425196850394,
          "duration": 0.046511627906973274
        },
        {
          "name": "A6",
          "midi": 93,
          "time": 48.77906976743995,
          "velocity": 0.2677165354330709,
          "duration": 0.32558139534882
        },
        {
          "name": "C4",
          "midi": 60,
          "time": 48.79069767441669,
          "velocity": 0.28346456692913385,
          "duration": 0.046511627906973274
        },
        {
          "name": "E3",
          "midi": 52,
          "time": 48.82558139534692,
          "velocity": 0.11811023622047244,
          "duration": 0.046511627906973274
        },
        {
          "name": "B4",
          "midi": 71,
          "time": 48.82558139534692,
          "velocity": 0.2125984251968504,
          "duration": 0.081395348837205
        },
        {
          "name": "B3",
          "midi": 59,
          "time": 48.837209302323664,
          "velocity": 0.1968503937007874,
          "duration": 0.05813953488372192
        },
        {
          "name": "F4",
          "midi": 65,
          "time": 48.860465116277155,
          "velocity": 0.28346456692913385,
          "duration": 0.03488372093023173
        },
        {
          "name": "E4",
          "midi": 64,
          "time": 48.98837209302134,
          "velocity": 0.1968503937007874,
          "duration": 0.03488372093023173
        },
        {
          "name": "A2",
          "midi": 45,
          "time": 48.99999999999808,
          "velocity": 0.07874015748031496,
          "duration": 0.03488372093023173
        },
        {
          "name": "D#3",
          "midi": 51,
          "time": 49.069767441858545,
          "velocity": 0.3858267716535433,
          "duration": 0.023255813953483084
        },
        {
          "name": "C#4",
          "midi": 61,
          "time": 49.069767441858545,
          "velocity": 0.4015748031496063,
          "duration": 0.034883720930224626
        },
        {
          "name": "F2",
          "midi": 41,
          "time": 49.08139534883529,
          "velocity": 0.48031496062992124,
          "duration": 0.023255813953483084
        },
        {
          "name": "G#4",
          "midi": 68,
          "time": 49.08139534883529,
          "velocity": 0.2755905511811024,
          "duration": 0.05813953488370771
        },
        {
          "name": "E5",
          "midi": 76,
          "time": 49.09302325581203,
          "velocity": 0.2204724409448819,
          "duration": 0.09302325581393234
        },
        {
          "name": "E2",
          "midi": 40,
          "time": 49.10465116278877,
          "velocity": 0.5590551181102362,
          "duration": 0.011627906976741542
        },
        {
          "name": "C4",
          "midi": 60,
          "time": 49.10465116278877,
          "velocity": 0.41732283464566927,
          "duration": 0.06976744186044925
        },
        {
          "name": "F#4",
          "midi": 66,
          "time": 49.10465116278877,
          "velocity": 0.2283464566929134,
          "duration": 0.023255813953483084
        },
        {
          "name": "B4",
          "midi": 71,
          "time": 49.10465116278877,
          "velocity": 0.2283464566929134,
          "duration": 0.06976744186044925
        },
        {
          "name": "F#5",
          "midi": 78,
          "time": 49.10465116278877,
          "velocity": 0.31496062992125984,
          "duration": 0.11627906976742253
        },
        {
          "name": "C#2",
          "midi": 37,
          "time": 49.11627906976551,
          "velocity": 0.5354330708661418,
          "duration": 0.011627906976741542
        },
        {
          "name": "B5",
          "midi": 83,
          "time": 49.11627906976551,
          "velocity": 0.2755905511811024,
          "duration": 0.23255813953485927
        },
        {
          "name": "E4",
          "midi": 64,
          "time": 49.12790697674225,
          "velocity": 0.33070866141732286,
          "duration": 0.17441860465114445
        },
        {
          "name": "G4",
          "midi": 67,
          "time": 49.139534883718994,
          "velocity": 0.4015748031496063,
          "duration": 0.10465116279068098
        },
        {
          "name": "F2",
          "midi": 41,
          "time": 49.151162790695736,
          "velocity": 0.3464566929133858,
          "duration": 0.023255813953483084
        },
        {
          "name": "E3",
          "midi": 52,
          "time": 49.17441860464922,
          "velocity": 0.1889763779527559,
          "duration": 0.058139534883714816
        },
        {
          "name": "B3",
          "midi": 59,
          "time": 49.17441860464922,
          "velocity": 0.3543307086614173,
          "duration": 0.11627906976743674
        },
        {
          "name": "C#7",
          "midi": 97,
          "time": 49.1976744186027,
          "velocity": 0.15748031496062992,
          "duration": 0.046511627906973274
        },
        {
          "name": "E2",
          "midi": 40,
          "time": 49.22093023255619,
          "velocity": 0.44881889763779526,
          "duration": 0.046511627906973274
        },
        {
          "name": "F2",
          "midi": 41,
          "time": 49.267441860463165,
          "velocity": 0.3858267716535433,
          "duration": 0.058139534883714816
        },
        {
          "name": "C4",
          "midi": 60,
          "time": 49.290697674416656,
          "velocity": 0.14960629921259844,
          "duration": 0.034883720930224626
        },
        {
          "name": "G#4",
          "midi": 68,
          "time": 49.290697674416656,
          "velocity": 0.3700787401574803,
          "duration": 0.023255813953483084
        },
        {
          "name": "F4",
          "midi": 65,
          "time": 49.3023255813934,
          "velocity": 0.30708661417322836,
          "duration": 0.058139534883714816
        },
        {
          "name": "E3",
          "midi": 52,
          "time": 49.32558139534688,
          "velocity": 0.10236220472440945,
          "duration": 0.03488372093023173
        },
        {
          "name": "B3",
          "midi": 59,
          "time": 49.32558139534688,
          "velocity": 0.1732283464566929,
          "duration": 0.22093023255813904
        },
        {
          "name": "E2",
          "midi": 40,
          "time": 49.34883720930037,
          "velocity": 0.2755905511811024,
          "duration": 0.023255813953483084
        },
        {
          "name": "G#4",
          "midi": 68,
          "time": 49.34883720930037,
          "velocity": 0.3543307086614173,
          "duration": 0.16279069767441712
        },
        {
          "name": "E5",
          "midi": 76,
          "time": 49.34883720930037,
          "velocity": 0.2677165354330709,
          "duration": 0.5697674418604279
        },
        {
          "name": "E4",
          "midi": 64,
          "time": 49.36046511627711,
          "velocity": 0.29133858267716534,
          "duration": 0.12790697674418539
        },
        {
          "name": "E3",
          "midi": 52,
          "time": 49.37209302325385,
          "velocity": 0.18110236220472442,
          "duration": 0.15116279069767558
        },
        {
          "name": "B6",
          "midi": 95,
          "time": 49.37209302325385,
          "velocity": 0.14173228346456693,
          "duration": 0.6627906976743745
        },
        {
          "name": "B1",
          "midi": 35,
          "time": 49.383720930230595,
          "velocity": 0.28346456692913385,
          "duration": 0.02325581395349019
        },
        {
          "name": "E2",
          "midi": 40,
          "time": 49.430232558137575,
          "velocity": 0.33070866141732286,
          "duration": 0.03488372093023173
        },
        {
          "name": "F2",
          "midi": 41,
          "time": 49.4883720930213,
          "velocity": 0.2204724409448819,
          "duration": 0.03488372093023173
        },
        {
          "name": "G4",
          "midi": 67,
          "time": 49.51162790697479,
          "velocity": 0.3858267716535433,
          "duration": 0.058139534883714816
        },
        {
          "name": "F#5",
          "midi": 78,
          "time": 49.51162790697479,
          "velocity": 0.33070866141732286,
          "duration": 0.2093023255813833
        },
        {
          "name": "E2",
          "midi": 40,
          "time": 49.55813953488176,
          "velocity": 0.2440944881889764,
          "duration": 0.06976744186046346
        },
        {
          "name": "E4",
          "midi": 64,
          "time": 49.5697674418585,
          "velocity": 0.15748031496062992,
          "duration": 0.06976744186046346
        },
        {
          "name": "G4",
          "midi": 67,
          "time": 49.59302325581199,
          "velocity": 0.1968503937007874,
          "duration": 0.06976744186046346
        },
        {
          "name": "C4",
          "midi": 60,
          "time": 49.604651162788734,
          "velocity": 0.33070866141732286,
          "duration": 0.1046511627906952
        },
        {
          "name": "F2",
          "midi": 41,
          "time": 49.662790697672456,
          "velocity": 0.15748031496062992,
          "duration": 0.03488372093023173
        },
        {
          "name": "B4",
          "midi": 71,
          "time": 49.686046511625946,
          "velocity": 0.1968503937007874,
          "duration": 0.13953488372091272
        },
        {
          "name": "B3",
          "midi": 59,
          "time": 49.70930232557943,
          "velocity": 0.15748031496062992,
          "duration": 0.034883720930224626
        },
        {
          "name": "F4",
          "midi": 65,
          "time": 49.72093023255617,
          "velocity": 0.36220472440944884,
          "duration": 0.034883720930224626
        },
        {
          "name": "G5",
          "midi": 79,
          "time": 49.72093023255617,
          "velocity": 0.31496062992125984,
          "duration": 0.453488372092977
        },
        {
          "name": "G#4",
          "midi": 68,
          "time": 49.73255813953291,
          "velocity": 0.25984251968503935,
          "duration": 0.023255813953483084
        },
        {
          "name": "E4",
          "midi": 64,
          "time": 49.755813953486395,
          "velocity": 0.29133858267716534,
          "duration": 0.03488372093023173
        },
        {
          "name": "B3",
          "midi": 59,
          "time": 49.779069767439886,
          "velocity": 0.33070866141732286,
          "duration": 0.10465116279068098
        },
        {
          "name": "F4",
          "midi": 65,
          "time": 49.79069767441663,
          "velocity": 0.33070866141732286,
          "duration": 0.06976744186045636
        },
        {
          "name": "G#4",
          "midi": 68,
          "time": 49.80232558139337,
          "velocity": 0.14960629921259844,
          "duration": 0.046511627906973274
        },
        {
          "name": "E2",
          "midi": 40,
          "time": 49.8372093023236,
          "velocity": 0.2283464566929134,
          "duration": 0.034883720930224626
        },
        {
          "name": "F2",
          "midi": 41,
          "time": 49.872093023253825,
          "velocity": 0.25196850393700787,
          "duration": 0.023255813953483084
        },
        {
          "name": "C4",
          "midi": 60,
          "time": 49.88372093023057,
          "velocity": 0.2047244094488189,
          "duration": 0.03488372093023173
        },
        {
          "name": "G4",
          "midi": 67,
          "time": 49.88372093023057,
          "velocity": 0.25984251968503935,
          "duration": 0.046511627906973274
        },
        {
          "name": "E3",
          "midi": 52,
          "time": 49.89534883720731,
          "velocity": 0.2125984251968504,
          "duration": 0.081395348837205
        },
        {
          "name": "B3",
          "midi": 59,
          "time": 49.9186046511608,
          "velocity": 0.23622047244094488,
          "duration": 0.058139534883714816
        },
        {
          "name": "G4",
          "midi": 67,
          "time": 49.94186046511428,
          "velocity": 0.4094488188976378,
          "duration": 0.081395348837205
        },
        {
          "name": "E5",
          "midi": 76,
          "time": 49.988372093021255,
          "velocity": 0.2440944881889764,
          "duration": 0.38372093023253484
        },
        {
          "name": "D6",
          "midi": 86,
          "time": 49.988372093021255,
          "velocity": 0.08661417322834646,
          "duration": 0.09302325581394655
        },
        {
          "name": "G4",
          "midi": 67,
          "time": 50.06976744185846,
          "velocity": 0.18110236220472442,
          "duration": 0.081395348837205
        },
        {
          "name": "C4",
          "midi": 60,
          "time": 50.13953488371892,
          "velocity": 0.1732283464566929,
          "duration": 0.0813953488371979
        },
        {
          "name": "F4",
          "midi": 65,
          "time": 50.151162790695665,
          "velocity": 0.2755905511811024,
          "duration": 0.17441860465115155
        },
        {
          "name": "F#6",
          "midi": 90,
          "time": 50.151162790695665,
          "velocity": 0.16535433070866143,
          "duration": 0.09302325581393944
        },
        {
          "name": "E2",
          "midi": 40,
          "time": 50.162790697672406,
          "velocity": 0.11811023622047244,
          "duration": 0.03488372093023173
        },
        {
          "name": "G4",
          "midi": 67,
          "time": 50.162790697672406,
          "velocity": 0.2677165354330709,
          "duration": 0.03488372093023173
        },
        {
          "name": "F#5",
          "midi": 78,
          "time": 50.162790697672406,
          "velocity": 0.3228346456692913,
          "duration": 0.16279069767441
        },
        {
          "name": "G4",
          "midi": 67,
          "time": 50.20930232557938,
          "velocity": 0.2204724409448819,
          "duration": 0.034883720930224626
        },
        {
          "name": "C4",
          "midi": 60,
          "time": 50.23255813953286,
          "velocity": 0.10236220472440945,
          "duration": 0.03488372093023173
        },
        {
          "name": "F#4",
          "midi": 66,
          "time": 50.325581395346816,
          "velocity": 0.23622047244094488,
          "duration": 0.03488372093023173
        },
        {
          "name": "C4",
          "midi": 60,
          "time": 50.34883720930031,
          "velocity": 0.36220472440944884,
          "duration": 0.06976744186045636
        },
        {
          "name": "C#6",
          "midi": 85,
          "time": 50.34883720930031,
          "velocity": 0.11023622047244094,
          "duration": 0.11627906976742253
        },
        {
          "name": "G4",
          "midi": 67,
          "time": 50.36046511627705,
          "velocity": 0.2992125984251969,
          "duration": 0.023255813953483084
        },
        {
          "name": "F4",
          "midi": 65,
          "time": 50.37209302325379,
          "velocity": 0.36220472440944884,
          "duration": 0.046511627906973274
        },
        {
          "name": "F#5",
          "midi": 78,
          "time": 50.37209302325379,
          "velocity": 0.11811023622047244,
          "duration": 0.06976744186045636
        },
        {
          "name": "D5",
          "midi": 74,
          "time": 50.38372093023053,
          "velocity": 0.28346456692913385,
          "duration": 0.10465116279068098
        },
        {
          "name": "E5",
          "midi": 76,
          "time": 50.38372093023053,
          "velocity": 0.2992125984251969,
          "duration": 0.10465116279068098
        },
        {
          "name": "G#6",
          "midi": 92,
          "time": 50.38372093023053,
          "velocity": 0.2755905511811024,
          "duration": 0.0813953488371979
        },
        {
          "name": "B6",
          "midi": 95,
          "time": 50.38372093023053,
          "velocity": 0.08661417322834646,
          "duration": 0.046511627906973274
        },
        {
          "name": "D7",
          "midi": 98,
          "time": 50.38372093023053,
          "velocity": 0.1968503937007874,
          "duration": 0.046511627906973274
        },
        {
          "name": "E7",
          "midi": 100,
          "time": 50.38372093023053,
          "velocity": 0.15748031496062992,
          "duration": 0.046511627906973274
        },
        {
          "name": "B5",
          "midi": 83,
          "time": 50.39534883720727,
          "velocity": 0.2204724409448819,
          "duration": 0.23255813953485216
        },
        {
          "name": "E4",
          "midi": 64,
          "time": 50.41860465116076,
          "velocity": 0.2283464566929134,
          "duration": 0.023255813953483084
        },
        {
          "name": "G4",
          "midi": 67,
          "time": 50.41860465116076,
          "velocity": 0.18110236220472442,
          "duration": 0.034883720930224626
        },
        {
          "name": "B4",
          "midi": 71,
          "time": 50.41860465116076,
          "velocity": 0.11023622047244094,
          "duration": 0.034883720930224626
        },
        {
          "name": "C#7",
          "midi": 97,
          "time": 50.41860465116076,
          "velocity": 0.11811023622047244,
          "duration": 0.06976744186044925
        },
        {
          "name": "C4",
          "midi": 60,
          "time": 50.430232558137504,
          "velocity": 0.33858267716535434,
          "duration": 0.04651162790696617
        },
        {
          "name": "F#4",
          "midi": 66,
          "time": 50.45348837209099,
          "velocity": 0.33070866141732286,
          "duration": 0.10465116279068098
        },
        {
          "name": "F2",
          "midi": 41,
          "time": 50.46511627906773,
          "velocity": 0.13385826771653545,
          "duration": 0.034883720930224626
        },
        {
          "name": "B3",
          "midi": 59,
          "time": 50.46511627906773,
          "velocity": 0.23622047244094488,
          "duration": 0.023255813953483084
        },
        {
          "name": "D#5",
          "midi": 75,
          "time": 50.47674418604447,
          "velocity": 0.30708661417322836,
          "duration": 0.034883720930224626
        },
        {
          "name": "A5",
          "midi": 81,
          "time": 50.47674418604447,
          "velocity": 0.2283464566929134,
          "duration": 0.1627906976743958
        },
        {
          "name": "B4",
          "midi": 71,
          "time": 50.48837209302121,
          "velocity": 0.10236220472440945,
          "duration": 0.046511627906973274
        },
        {
          "name": "C#6",
          "midi": 85,
          "time": 50.48837209302121,
          "velocity": 0.1889763779527559,
          "duration": 0.046511627906973274
        },
        {
          "name": "G#6",
          "midi": 92,
          "time": 50.48837209302121,
          "velocity": 0.1889763779527559,
          "duration": 0.09302325581393944
        },
        {
          "name": "D5",
          "midi": 74,
          "time": 50.499999999997954,
          "velocity": 0.25984251968503935,
          "duration": 0.23255813953485927
        },
        {
          "name": "D7",
          "midi": 98,
          "time": 50.499999999997954,
          "velocity": 0.10236220472440945,
          "duration": 0.03488372093023173
        },
        {
          "name": "E4",
          "midi": 64,
          "time": 50.511627906974695,
          "velocity": 0.2125984251968504,
          "duration": 0.058139534883714816
        },
        {
          "name": "E5",
          "midi": 76,
          "time": 50.511627906974695,
          "velocity": 0.4015748031496063,
          "duration": 0.23255813953485927
        },
        {
          "name": "E7",
          "midi": 100,
          "time": 50.511627906974695,
          "velocity": 0.07086614173228346,
          "duration": 0.03488372093023173
        },
        {
          "name": "A4",
          "midi": 69,
          "time": 50.534883720928185,
          "velocity": 0.07086614173228346,
          "duration": 0.04651162790696617
        },
        {
          "name": "D4",
          "midi": 62,
          "time": 50.55813953488167,
          "velocity": 0.2440944881889764,
          "duration": 0.034883720930224626
        },
        {
          "name": "C5",
          "midi": 72,
          "time": 50.58139534883515,
          "velocity": 0.14173228346456693,
          "duration": 0.03488372093023173
        },
        {
          "name": "D#6",
          "midi": 87,
          "time": 50.58139534883515,
          "velocity": 0.14173228346456693,
          "duration": 0.081395348837205
        },
        {
          "name": "F4",
          "midi": 65,
          "time": 50.59302325581189,
          "velocity": 0.33070866141732286,
          "duration": 0.13953488372091982
        },
        {
          "name": "G#6",
          "midi": 92,
          "time": 50.627906976742125,
          "velocity": 0.07874015748031496,
          "duration": 0.046511627906973274
        },
        {
          "name": "C#7",
          "midi": 97,
          "time": 50.639534883718866,
          "velocity": 0.10236220472440945,
          "duration": 0.03488372093023173
        },
        {
          "name": "A6",
          "midi": 93,
          "time": 50.6744186046491,
          "velocity": 0.07874015748031496,
          "duration": 0.03488372093023173
        },
        {
          "name": "A4",
          "midi": 69,
          "time": 50.69767441860259,
          "velocity": 0.09448818897637795,
          "duration": 0.034883720930224626
        },
        {
          "name": "D4",
          "midi": 62,
          "time": 50.72093023255607,
          "velocity": 0.14173228346456693,
          "duration": 0.06976744186045636
        },
        {
          "name": "B5",
          "midi": 83,
          "time": 50.72093023255607,
          "velocity": 0.13385826771653545,
          "duration": 0.0813953488371979
        },
        {
          "name": "A6",
          "midi": 93,
          "time": 50.73255813953281,
          "velocity": 0.10236220472440945,
          "duration": 0.06976744186045636
        },
        {
          "name": "E5",
          "midi": 76,
          "time": 50.755813953486296,
          "velocity": 0.23622047244094488,
          "duration": 0.058139534883714816
        },
        {
          "name": "C4",
          "midi": 60,
          "time": 50.779069767439786,
          "velocity": 0.3779527559055118,
          "duration": 0.09302325581393234
        },
        {
          "name": "D#3",
          "midi": 51,
          "time": 50.79069767441653,
          "velocity": 0.3779527559055118,
          "duration": 0.023255813953483084
        },
        {
          "name": "F2",
          "midi": 41,
          "time": 50.80232558139327,
          "velocity": 0.5039370078740157,
          "duration": 0.023255813953483084
        },
        {
          "name": "G4",
          "midi": 67,
          "time": 50.80232558139327,
          "velocity": 0.47244094488188976,
          "duration": 0.3023255813952943
        },
        {
          "name": "D5",
          "midi": 74,
          "time": 50.80232558139327,
          "velocity": 0.16535433070866143,
          "duration": 0.04651162790696617
        },
        {
          "name": "A5",
          "midi": 81,
          "time": 50.80232558139327,
          "velocity": 0.11023622047244094,
          "duration": 0.034883720930224626
        },
        {
          "name": "E4",
          "midi": 64,
          "time": 50.81395348837001,
          "velocity": 0.3700787401574803,
          "duration": 0.18604651162786467
        },
        {
          "name": "F#5",
          "midi": 78,
          "time": 50.81395348837001,
          "velocity": 0.11023622047244094,
          "duration": 0.034883720930224626
        },
        {
          "name": "E2",
          "midi": 40,
          "time": 50.82558139534675,
          "velocity": 0.5275590551181102,
          "duration": 0.011627906976741542
        },
        {
          "name": "E5",
          "midi": 76,
          "time": 50.82558139534675,
          "velocity": 0.3700787401574803,
          "duration": 0.0813953488371908
        },
        {
          "name": "B5",
          "midi": 83,
          "time": 50.82558139534675,
          "velocity": 0.28346456692913385,
          "duration": 0.3255813953487774
        },
        {
          "name": "G3",
          "midi": 55,
          "time": 50.837209302323494,
          "velocity": 0.2283464566929134,
          "duration": 0.034883720930224626
        },
        {
          "name": "A#4",
          "midi": 70,
          "time": 50.837209302323494,
          "velocity": 0.18110236220472442,
          "duration": 0.04651162790696617
        },
        {
          "name": "D6",
          "midi": 86,
          "time": 50.86046511627698,
          "velocity": 0.14960629921259844,
          "duration": 0.10465116279067388
        },
        {
          "name": "B2",
          "midi": 47,
          "time": 50.87209302325372,
          "velocity": 0.33858267716535434,
          "duration": 0.023255813953483084
        },
        {
          "name": "G3",
          "midi": 55,
          "time": 50.88372093023046,
          "velocity": 0.33070866141732286,
          "duration": 0.1395348837209056
        },
        {
          "name": "B4",
          "midi": 71,
          "time": 50.88372093023046,
          "velocity": 0.28346456692913385,
          "duration": 0.09302325581393234
        },
        {
          "name": "F#5",
          "midi": 78,
          "time": 50.88372093023046,
          "velocity": 0.2440944881889764,
          "duration": 0.023255813953483084
        },
        {
          "name": "D5",
          "midi": 74,
          "time": 50.8953488372072,
          "velocity": 0.11811023622047244,
          "duration": 0.034883720930224626
        },
        {
          "name": "C4",
          "midi": 60,
          "time": 50.90697674418394,
          "velocity": 0.4330708661417323,
          "duration": 0.06976744186044925
        },
        {
          "name": "F#5",
          "midi": 78,
          "time": 50.918604651160685,
          "velocity": 0.3700787401574803,
          "duration": 0.023255813953483084
        },
        {
          "name": "C#7",
          "midi": 97,
          "time": 50.918604651160685,
          "velocity": 0.1889763779527559,
          "duration": 0.034883720930224626
        },
        {
          "name": "C3",
          "midi": 48,
          "time": 50.94186046511417,
          "velocity": 0.4015748031496063,
          "duration": 0.18604651162787889
        },
        {
          "name": "A#4",
          "midi": 70,
          "time": 50.94186046511417,
          "velocity": 0.1732283464566929,
          "duration": 0.04651162790696617
        },
        {
          "name": "E2",
          "midi": 40,
          "time": 50.96511627906765,
          "velocity": 0.3700787401574803,
          "duration": 0.023255813953483084
        },
        {
          "name": "F5",
          "midi": 77,
          "time": 50.96511627906765,
          "velocity": 0.14173228346456693,
          "duration": 0.034883720930224626
        },
        {
          "name": "B3",
          "midi": 59,
          "time": 50.97674418604439,
          "velocity": 0.2440944881889764,
          "duration": 0.046511627906973274
        },
        {
          "name": "B4",
          "midi": 71,
          "time": 50.988372093021134,
          "velocity": 0.2755905511811024,
          "duration": 0.0813953488371979
        },
        {
          "name": "F#5",
          "midi": 78,
          "time": 50.999999999997875,
          "velocity": 0.14960629921259844,
          "duration": 0.046511627906973274
        },
        {
          "name": "E4",
          "midi": 64,
          "time": 51.03488372092811,
          "velocity": 0.36220472440944884,
          "duration": 0.17441860465113734
        },
        {
          "name": "G3",
          "midi": 55,
          "time": 51.05813953488159,
          "velocity": 0.1968503937007874,
          "duration": 0.06976744186045636
        },
        {
          "name": "B4",
          "midi": 71,
          "time": 51.09302325581182,
          "velocity": 0.2125984251968504,
          "duration": 0.06976744186044925
        },
        {
          "name": "G4",
          "midi": 67,
          "time": 51.116279069765305,
          "velocity": 0.31496062992125984,
          "duration": 0.12790697674416407
        },
        {
          "name": "C3",
          "midi": 48,
          "time": 51.13953488371879,
          "velocity": 0.2755905511811024,
          "duration": 0.058139534883714816
        },
        {
          "name": "F#3",
          "midi": 54,
          "time": 51.15116279069553,
          "velocity": 0.14173228346456693,
          "duration": 0.03488372093023173
        },
        {
          "name": "F6",
          "midi": 89,
          "time": 51.15116279069553,
          "velocity": 0.14173228346456693,
          "duration": 0.10465116279068098
        },
        {
          "name": "C4",
          "midi": 60,
          "time": 51.16279069767227,
          "velocity": 0.33070866141732286,
          "duration": 0.06976744186045636
        },
        {
          "name": "B6",
          "midi": 95,
          "time": 51.16279069767227,
          "velocity": 0.13385826771653545,
          "duration": 0.5930232558138826
        },
        {
          "name": "G3",
          "midi": 55,
          "time": 51.18604651162576,
          "velocity": 0.1889763779527559,
          "duration": 0.0813953488371908
        },
        {
          "name": "D5",
          "midi": 74,
          "time": 51.18604651162576,
          "velocity": 0.30708661417322836,
          "duration": 0.25581395348833524
        },
        {
          "name": "A5",
          "midi": 81,
          "time": 51.220930232555986,
          "velocity": 0.2992125984251969,
          "duration": 0.36046511627902333
        },
        {
          "name": "C3",
          "midi": 48,
          "time": 51.23255813953273,
          "velocity": 0.2677165354330709,
          "duration": 0.06976744186044925
        },
        {
          "name": "C#4",
          "midi": 61,
          "time": 51.23255813953273,
          "velocity": 0.36220472440944884,
          "duration": 0.023255813953483084
        },
        {
          "name": "F4",
          "midi": 65,
          "time": 51.23255813953273,
          "velocity": 0.36220472440944884,
          "duration": 0.11627906976742253
        },
        {
          "name": "F#6",
          "midi": 90,
          "time": 51.23255813953273,
          "velocity": 0.1968503937007874,
          "duration": 0.034883720930224626
        },
        {
          "name": "D4",
          "midi": 62,
          "time": 51.25581395348621,
          "velocity": 0.28346456692913385,
          "duration": 0.023255813953483084
        },
        {
          "name": "B4",
          "midi": 71,
          "time": 51.25581395348621,
          "velocity": 0.07086614173228346,
          "duration": 0.05813953488370771
        },
        {
          "name": "D4",
          "midi": 62,
          "time": 51.290697674416435,
          "velocity": 0.2755905511811024,
          "duration": 0.023255813953483084
        },
        {
          "name": "C3",
          "midi": 48,
          "time": 51.31395348836992,
          "velocity": 0.1968503937007874,
          "duration": 0.058139534883714816
        },
        {
          "name": "E5",
          "midi": 76,
          "time": 51.32558139534666,
          "velocity": 0.3858267716535433,
          "duration": 0.3720930232557791
        },
        {
          "name": "F#6",
          "midi": 90,
          "time": 51.32558139534666,
          "velocity": 0.09448818897637795,
          "duration": 0.06976744186046346
        },
        {
          "name": "E4",
          "midi": 64,
          "time": 51.34883720930015,
          "velocity": 0.2677165354330709,
          "duration": 0.09302325581394655
        },
        {
          "name": "B4",
          "midi": 71,
          "time": 51.36046511627689,
          "velocity": 0.13385826771653545,
          "duration": 0.06976744186046346
        },
        {
          "name": "G4",
          "midi": 67,
          "time": 51.37209302325363,
          "velocity": 0.08661417322834646,
          "duration": 0.05813953488372192
        },
        {
          "name": "C4",
          "midi": 60,
          "time": 51.430232558137355,
          "velocity": 0.2283464566929134,
          "duration": 0.058139534883714816
        },
        {
          "name": "F4",
          "midi": 65,
          "time": 51.4418604651141,
          "velocity": 0.2992125984251969,
          "duration": 0.046511627906973274
        },
        {
          "name": "A4",
          "midi": 69,
          "time": 51.45348837209084,
          "velocity": 0.2440944881889764,
          "duration": 0.12790697674417117
        },
        {
          "name": "C#6",
          "midi": 85,
          "time": 51.45348837209084,
          "velocity": 0.25984251968503935,
          "duration": 0.25581395348834235
        },
        {
          "name": "G2",
          "midi": 43,
          "time": 51.47674418604433,
          "velocity": 0.30708661417322836,
          "duration": 0.04651162790696617
        },
        {
          "name": "E4",
          "midi": 64,
          "time": 51.48837209302107,
          "velocity": 0.28346456692913385,
          "duration": 0.023255813953483084
        },
        {
          "name": "G#3",
          "midi": 56,
          "time": 51.49999999999781,
          "velocity": 0.07086614173228346,
          "duration": 0.034883720930224626
        },
        {
          "name": "C4",
          "midi": 60,
          "time": 51.51162790697455,
          "velocity": 0.33070866141732286,
          "duration": 0.10465116279068098
        },
        {
          "name": "C3",
          "midi": 48,
          "time": 51.534883720928036,
          "velocity": 0.2677165354330709,
          "duration": 0.02325581395349019
        },
        {
          "name": "G3",
          "midi": 55,
          "time": 51.534883720928036,
          "velocity": 0.12598425196850394,
          "duration": 0.03488372093023173
        },
        {
          "name": "F4",
          "midi": 65,
          "time": 51.534883720928036,
          "velocity": 0.23622047244094488,
          "duration": 0.03488372093023173
        },
        {
          "name": "D5",
          "midi": 74,
          "time": 51.558139534881526,
          "velocity": 0.07086614173228346,
          "duration": 0.04651162790696617
        },
        {
          "name": "G4",
          "midi": 67,
          "time": 51.56976744185827,
          "velocity": 0.25984251968503935,
          "duration": 0.05813953488370771
        },
        {
          "name": "G3",
          "midi": 55,
          "time": 51.58139534883501,
          "velocity": 0.1968503937007874,
          "duration": 0.05813953488370771
        },
        {
          "name": "C3",
          "midi": 48,
          "time": 51.59302325581175,
          "velocity": 0.2755905511811024,
          "duration": 0.10465116279068809
        },
        {
          "name": "E4",
          "midi": 64,
          "time": 51.60465116278849,
          "velocity": 0.1889763779527559,
          "duration": 0.034883720930224626
        },
        {
          "name": "A4",
          "midi": 69,
          "time": 51.616279069765234,
          "velocity": 0.33070866141732286,
          "duration": 0.034883720930224626
        },
        {
          "name": "G4",
          "midi": 67,
          "time": 51.63953488371872,
          "velocity": 0.4566929133858268,
          "duration": 0.22093023255813193
        },
        {
          "name": "E4",
          "midi": 64,
          "time": 51.67441860464895,
          "velocity": 0.18110236220472442,
          "duration": 0.17441860465115866
        },
        {
          "name": "B2",
          "midi": 47,
          "time": 51.69767441860244,
          "velocity": 0.23622047244094488,
          "duration": 0.023255813953483084
        },
        {
          "name": "E5",
          "midi": 76,
          "time": 51.732558139532664,
          "velocity": 0.2677165354330709,
          "duration": 0.32558139534882
        },
        {
          "name": "G#2",
          "midi": 44,
          "time": 51.82558139534662,
          "velocity": 0.25196850393700787,
          "duration": 0.02325581395349019
        },
        {
          "name": "G3",
          "midi": 55,
          "time": 51.84883720930011,
          "velocity": 0.14960629921259844,
          "duration": 0.046511627906973274
        },
        {
          "name": "B4",
          "midi": 71,
          "time": 51.86046511627685,
          "velocity": 0.30708661417322836,
          "duration": 0.2906976744185741
        },
        {
          "name": "C4",
          "midi": 60,
          "time": 51.87209302325359,
          "velocity": 0.30708661417322836,
          "duration": 0.03488372093023173
        },
        {
          "name": "F4",
          "midi": 65,
          "time": 51.87209302325359,
          "velocity": 0.3464566929133858,
          "duration": 0.06976744186046346
        },
        {
          "name": "F#5",
          "midi": 78,
          "time": 51.87209302325359,
          "velocity": 0.33858267716535434,
          "duration": 0.23255813953486637
        },
        {
          "name": "D#6",
          "midi": 87,
          "time": 51.87209302325359,
          "velocity": 0.2204724409448819,
          "duration": 0.06976744186046346
        },
        {
          "name": "B3",
          "midi": 59,
          "time": 51.90697674418382,
          "velocity": 0.3543307086614173,
          "duration": 0.1860465116278931
        },
        {
          "name": "A2",
          "midi": 45,
          "time": 51.941860465114054,
          "velocity": 0.1968503937007874,
          "duration": 0.034883720930224626
        },
        {
          "name": "F4",
          "midi": 65,
          "time": 51.953488372090796,
          "velocity": 0.25196850393700787,
          "duration": 0.023255813953483084
        },
        {
          "name": "G4",
          "midi": 67,
          "time": 51.96511627906754,
          "velocity": 0.3700787401574803,
          "duration": 0.3255813953487916
        },
        {
          "name": "D#6",
          "midi": 87,
          "time": 52.04651162790474,
          "velocity": 0.07086614173228346,
          "duration": 0.03488372093023173
        },
        {
          "name": "G3",
          "midi": 55,
          "time": 52.081395348834974,
          "velocity": 0.14173228346456693,
          "duration": 0.034883720930224626
        },
        {
          "name": "B5",
          "midi": 83,
          "time": 52.081395348834974,
          "velocity": 0.41732283464566927,
          "duration": 0.5581395348836509
        },
        {
          "name": "C4",
          "midi": 60,
          "time": 52.093023255811715,
          "velocity": 0.3858267716535433,
          "duration": 0.034883720930224626
        },
        {
          "name": "D#6",
          "midi": 87,
          "time": 52.093023255811715,
          "velocity": 0.2047244094488189,
          "duration": 0.05813953488370771
        },
        {
          "name": "C#7",
          "midi": 97,
          "time": 52.093023255811715,
          "velocity": 0.16535433070866143,
          "duration": 0.04651162790696617
        },
        {
          "name": "D7",
          "midi": 98,
          "time": 52.093023255811715,
          "velocity": 0.11023622047244094,
          "duration": 0.0813953488371908
        },
        {
          "name": "C7",
          "midi": 96,
          "time": 52.10465116278846,
          "velocity": 0.11811023622047244,
          "duration": 0.04651162790696617
        },
        {
          "name": "F#7",
          "midi": 102,
          "time": 52.1162790697652,
          "velocity": 0.08661417322834646,
          "duration": 0.06976744186044925
        },
        {
          "name": "G#2",
          "midi": 44,
          "time": 52.13953488371868,
          "velocity": 0.3228346456692913,
          "duration": 0.023255813953483084
        },
        {
          "name": "C4",
          "midi": 60,
          "time": 52.13953488371868,
          "velocity": 0.29133858267716534,
          "duration": 0.04651162790696617
        },
        {
          "name": "D6",
          "midi": 86,
          "time": 52.162790697672165,
          "velocity": 0.11811023622047244,
          "duration": 0.06976744186044925
        },
        {
          "name": "B4",
          "midi": 71,
          "time": 52.174418604648906,
          "velocity": 0.2677165354330709,
          "duration": 0.06976744186044925
        },
        {
          "name": "F#5",
          "midi": 78,
          "time": 52.174418604648906,
          "velocity": 0.16535433070866143,
          "duration": 0.05813953488370771
        },
        {
          "name": "C4",
          "midi": 60,
          "time": 52.19767441860239,
          "velocity": 0.3543307086614173,
          "duration": 0.0813953488371979
        },
        {
          "name": "E4",
          "midi": 64,
          "time": 52.20930232557913,
          "velocity": 0.23622047244094488,
          "duration": 0.0813953488371979
        },
        {
          "name": "G3",
          "midi": 55,
          "time": 52.22093023255587,
          "velocity": 0.14960629921259844,
          "duration": 0.058139534883714816
        },
        {
          "name": "F#7",
          "midi": 102,
          "time": 52.22093023255587,
          "velocity": 0.09448818897637795,
          "duration": 0.046511627906973274
        },
        {
          "name": "B4",
          "midi": 71,
          "time": 52.267441860462846,
          "velocity": 0.12598425196850394,
          "duration": 0.06976744186045636
        },
        {
          "name": "F4",
          "midi": 65,
          "time": 52.30232558139307,
          "velocity": 0.2755905511811024,
          "duration": 0.09302325581395365
        },
        {
          "name": "C3",
          "midi": 48,
          "time": 52.32558139534656,
          "velocity": 0.1732283464566929,
          "duration": 0.03488372093023173
        },
        {
          "name": "G3",
          "midi": 55,
          "time": 52.32558139534656,
          "velocity": 0.1732283464566929,
          "duration": 0.09302325581394655
        },
        {
          "name": "B3",
          "midi": 59,
          "time": 52.32558139534656,
          "velocity": 0.12598425196850394,
          "duration": 0.03488372093023173
        },
        {
          "name": "F#5",
          "midi": 78,
          "time": 52.36046511627679,
          "velocity": 0.11811023622047244,
          "duration": 0.11627906976743674
        },
        {
          "name": "G4",
          "midi": 67,
          "time": 52.372093023253534,
          "velocity": 0.18110236220472442,
          "duration": 0.13953488372092693
        },
        {
          "name": "C4",
          "midi": 60,
          "time": 52.406976744183766,
          "velocity": 0.10236220472440945,
          "duration": 0.03488372093023173
        },
        {
          "name": "B3",
          "midi": 59,
          "time": 52.46511627906749,
          "velocity": 0.13385826771653545,
          "duration": 0.03488372093023173
        },
        {
          "name": "C#5",
          "midi": 73,
          "time": 52.49999999999772,
          "velocity": 0.11811023622047244,
          "duration": 0.034883720930224626
        },
        {
          "name": "E2",
          "midi": 40,
          "time": 52.51162790697446,
          "velocity": 0.5354330708661418,
          "duration": 0.04651162790696617
        },
        {
          "name": "D#5",
          "midi": 75,
          "time": 52.51162790697446,
          "velocity": 0.11811023622047244,
          "duration": 0.034883720930224626
        },
        {
          "name": "D#3",
          "midi": 51,
          "time": 52.5232558139512,
          "velocity": 0.3700787401574803,
          "duration": 0.023255813953483084
        },
        {
          "name": "C4",
          "midi": 60,
          "time": 52.5232558139512,
          "velocity": 0.44881889763779526,
          "duration": 0.04651162790696617
        },
        {
          "name": "F#5",
          "midi": 78,
          "time": 52.5232558139512,
          "velocity": 0.25196850393700787,
          "duration": 0.23255813953483795
        },
        {
          "name": "F#4",
          "midi": 66,
          "time": 52.534883720927944,
          "velocity": 0.33858267716535434,
          "duration": 0.18604651162787178
        },
        {
          "name": "A5",
          "midi": 81,
          "time": 52.534883720927944,
          "velocity": 0.4251968503937008,
          "duration": 0.7093023255813051
        },
        {
          "name": "C#7",
          "midi": 97,
          "time": 52.56976744185817,
          "velocity": 0.14173228346456693,
          "duration": 0.058139534883714816
        },
        {
          "name": "D3",
          "midi": 50,
          "time": 52.58139534883491,
          "velocity": 0.30708661417322836,
          "duration": 0.03488372093023173
        },
        {
          "name": "C4",
          "midi": 60,
          "time": 52.58139534883491,
          "velocity": 0.28346456692913385,
          "duration": 0.03488372093023173
        },
        {
          "name": "A4",
          "midi": 69,
          "time": 52.58139534883491,
          "velocity": 0.13385826771653545,
          "duration": 0.03488372093023173
        },
        {
          "name": "D5",
          "midi": 74,
          "time": 52.58139534883491,
          "velocity": 0.25196850393700787,
          "duration": 0.10465116279068098
        },
        {
          "name": "E6",
          "midi": 88,
          "time": 52.58139534883491,
          "velocity": 0.10236220472440945,
          "duration": 0.03488372093023173
        },
        {
          "name": "G#3",
          "midi": 56,
          "time": 52.59302325581165,
          "velocity": 0.2283464566929134,
          "duration": 0.02325581395349019
        },
        {
          "name": "A3",
          "midi": 57,
          "time": 52.61627906976514,
          "velocity": 0.3228346456692913,
          "duration": 0.0813953488371908
        },
        {
          "name": "C#4",
          "midi": 61,
          "time": 52.61627906976514,
          "velocity": 0.3228346456692913,
          "duration": 0.023255813953483084
        },
        {
          "name": "D4",
          "midi": 62,
          "time": 52.639534883718625,
          "velocity": 0.2440944881889764,
          "duration": 0.06976744186044925
        },
        {
          "name": "E5",
          "midi": 76,
          "time": 52.639534883718625,
          "velocity": 0.09448818897637795,
          "duration": 0.034883720930224626
        },
        {
          "name": "C#6",
          "midi": 85,
          "time": 52.639534883718625,
          "velocity": 0.09448818897637795,
          "duration": 0.05813953488370771
        },
        {
          "name": "E2",
          "midi": 40,
          "time": 52.651162790695366,
          "velocity": 0.41732283464566927,
          "duration": 0.034883720930224626
        },
        {
          "name": "C#7",
          "midi": 97,
          "time": 52.66279069767211,
          "velocity": 0.14173228346456693,
          "duration": 0.034883720930224626
        },
        {
          "name": "B5",
          "midi": 83,
          "time": 52.69767441860233,
          "velocity": 0.1889763779527559,
          "duration": 0.10465116279068098
        },
        {
          "name": "A3",
          "midi": 57,
          "time": 52.709302325579074,
          "velocity": 0.2283464566929134,
          "duration": 0.33720930232554736
        },
        {
          "name": "G6",
          "midi": 91,
          "time": 52.73255813953256,
          "velocity": 0.18110236220472442,
          "duration": 0.0813953488371979
        },
        {
          "name": "A#2",
          "midi": 46,
          "time": 52.7441860465093,
          "velocity": 0.30708661417322836,
          "duration": 0.023255813953483084
        },
        {
          "name": "F4",
          "midi": 65,
          "time": 52.7441860465093,
          "velocity": 0.3543307086614173,
          "duration": 0.023255813953483084
        },
        {
          "name": "G#2",
          "midi": 44,
          "time": 52.76744186046278,
          "velocity": 0.3858267716535433,
          "duration": 0.02325581395349019
        },
        {
          "name": "F#4",
          "midi": 66,
          "time": 52.76744186046278,
          "velocity": 0.33070866141732286,
          "duration": 0.17441860465115155
        },
        {
          "name": "E5",
          "midi": 76,
          "time": 52.76744186046278,
          "velocity": 0.15748031496062992,
          "duration": 0.22093023255812483
        },
        {
          "name": "C#5",
          "midi": 73,
          "time": 52.80232558139301,
          "velocity": 0.11023622047244094,
          "duration": 0.03488372093023173
        },
        {
          "name": "A2",
          "midi": 45,
          "time": 52.813953488369755,
          "velocity": 0.2992125984251969,
          "duration": 0.02325581395349019
        },
        {
          "name": "C#5",
          "midi": 73,
          "time": 52.88372093023022,
          "velocity": 0.12598425196850394,
          "duration": 0.06976744186045636
        },
        {
          "name": "D4",
          "midi": 62,
          "time": 52.89534883720696,
          "velocity": 0.18110236220472442,
          "duration": 0.046511627906973274
        },
        {
          "name": "F2",
          "midi": 41,
          "time": 52.9069767441837,
          "velocity": 0.1968503937007874,
          "duration": 0.03488372093023173
        },
        {
          "name": "B5",
          "midi": 83,
          "time": 52.93023255813719,
          "velocity": 0.4251968503937008,
          "duration": 0.6279069767441143
        },
        {
          "name": "E2",
          "midi": 40,
          "time": 52.94186046511393,
          "velocity": 0.25196850393700787,
          "duration": 0.023255813953483084
        },
        {
          "name": "D5",
          "midi": 74,
          "time": 52.94186046511393,
          "velocity": 0.30708661417322836,
          "duration": 0.22093023255811062
        },
        {
          "name": "F#6",
          "midi": 90,
          "time": 52.94186046511393,
          "velocity": 0.2440944881889764,
          "duration": 0.1627906976743958
        },
        {
          "name": "D4",
          "midi": 62,
          "time": 52.965116279067416,
          "velocity": 0.29133858267716534,
          "duration": 0.081395348837205
        },
        {
          "name": "G4",
          "midi": 67,
          "time": 52.965116279067416,
          "velocity": 0.3779527559055118,
          "duration": 0.186046511627886
        },
        {
          "name": "F#5",
          "midi": 78,
          "time": 52.965116279067416,
          "velocity": 0.09448818897637795,
          "duration": 0.046511627906973274
        },
        {
          "name": "B4",
          "midi": 71,
          "time": 52.99999999999765,
          "velocity": 0.2992125984251969,
          "duration": 0.11627906976742253
        },
        {
          "name": "E5",
          "midi": 76,
          "time": 53.04651162790462,
          "velocity": 0.15748031496062992,
          "duration": 0.06976744186044925
        },
        {
          "name": "C4",
          "midi": 60,
          "time": 53.05813953488136,
          "velocity": 0.29133858267716534,
          "duration": 0.023255813953483084
        },
        {
          "name": "E4",
          "midi": 64,
          "time": 53.069767441858104,
          "velocity": 0.25196850393700787,
          "duration": 0.0813953488371979
        },
        {
          "name": "C4",
          "midi": 60,
          "time": 53.09302325581159,
          "velocity": 0.2440944881889764,
          "duration": 0.023255813953483084
        },
        {
          "name": "B4",
          "midi": 71,
          "time": 53.12790697674181,
          "velocity": 0.2283464566929134,
          "duration": 0.046511627906973274
        },
        {
          "name": "E5",
          "midi": 76,
          "time": 53.1511627906953,
          "velocity": 0.36220472440944884,
          "duration": 0.30232558139532273
        },
        {
          "name": "F4",
          "midi": 65,
          "time": 53.162790697672044,
          "velocity": 0.3858267716535433,
          "duration": 0.046511627906973274
        },
        {
          "name": "A4",
          "midi": 69,
          "time": 53.162790697672044,
          "velocity": 0.2677165354330709,
          "duration": 0.19767441860463464
        },
        {
          "name": "C#6",
          "midi": 85,
          "time": 53.174418604648785,
          "velocity": 0.2283464566929134,
          "duration": 0.2441860465116079
        },
        {
          "name": "A3",
          "midi": 57,
          "time": 53.18604651162553,
          "velocity": 0.09448818897637795,
          "duration": 0.04651162790698038
        },
        {
          "name": "D3",
          "midi": 50,
          "time": 53.23255813953251,
          "velocity": 0.15748031496062992,
          "duration": 0.058139534883714816
        },
        {
          "name": "F4",
          "midi": 65,
          "time": 53.23255813953251,
          "velocity": 0.29133858267716534,
          "duration": 0.06976744186045636
        },
        {
          "name": "A3",
          "midi": 57,
          "time": 53.29069767441622,
          "velocity": 0.11811023622047244,
          "duration": 0.046511627906973274
        },
        {
          "name": "D4",
          "midi": 62,
          "time": 53.337209302323195,
          "velocity": 0.1968503937007874,
          "duration": 0.06976744186045636
        },
        {
          "name": "A3",
          "midi": 57,
          "time": 53.34883720929994,
          "velocity": 0.13385826771653545,
          "duration": 0.06976744186045636
        },
        {
          "name": "G4",
          "midi": 67,
          "time": 53.37209302325342,
          "velocity": 0.4330708661417323,
          "duration": 0.17441860465114445
        },
        {
          "name": "D6",
          "midi": 86,
          "time": 53.38372093023016,
          "velocity": 0.3937007874015748,
          "duration": 0.4883720930232158
        },
        {
          "name": "D5",
          "midi": 74,
          "time": 53.430232558137135,
          "velocity": 0.25984251968503935,
          "duration": 0.081395348837205
        },
        {
          "name": "E4",
          "midi": 64,
          "time": 53.46511627906737,
          "velocity": 0.2204724409448819,
          "duration": 0.10465116279068098
        },
        {
          "name": "B4",
          "midi": 71,
          "time": 53.46511627906737,
          "velocity": 0.2440944881889764,
          "duration": 0.06976744186045636
        },
        {
          "name": "A6",
          "midi": 93,
          "time": 53.51162790697434,
          "velocity": 0.12598425196850394,
          "duration": 0.034883720930224626
        },
        {
          "name": "D5",
          "midi": 74,
          "time": 53.52325581395108,
          "velocity": 0.15748031496062992,
          "duration": 0.04651162790696617
        },
        {
          "name": "C4",
          "midi": 60,
          "time": 53.58139534883479,
          "velocity": 0.31496062992125984,
          "duration": 0.03488372093023173
        },
        {
          "name": "F#5",
          "midi": 78,
          "time": 53.58139534883479,
          "velocity": 0.31496062992125984,
          "duration": 0.23255813953486637
        },
        {
          "name": "B5",
          "midi": 83,
          "time": 53.58139534883479,
          "velocity": 0.2125984251968504,
          "duration": 0.09302325581395365
        },
        {
          "name": "F4",
          "midi": 65,
          "time": 53.59302325581153,
          "velocity": 0.2992125984251969,
          "duration": 0.09302325581395365
        },
        {
          "name": "B4",
          "midi": 71,
          "time": 53.59302325581153,
          "velocity": 0.29133858267716534,
          "duration": 0.19767441860464174
        },
        {
          "name": "B3",
          "midi": 59,
          "time": 53.61627906976502,
          "velocity": 0.28346456692913385,
          "duration": 0.11627906976743674
        },
        {
          "name": "G4",
          "midi": 67,
          "time": 53.686046511625484,
          "velocity": 0.28346456692913385,
          "duration": 0.10465116279068809
        },
        {
          "name": "D5",
          "midi": 74,
          "time": 53.697674418602226,
          "velocity": 0.07874015748031496,
          "duration": 0.046511627906973274
        },
        {
          "name": "B3",
          "midi": 59,
          "time": 53.7441860465092,
          "velocity": 0.11811023622047244,
          "duration": 0.046511627906973274
        },
        {
          "name": "F4",
          "midi": 65,
          "time": 53.79069767441617,
          "velocity": 0.3464566929133858,
          "duration": 0.1046511627906952
        },
        {
          "name": "D5",
          "midi": 74,
          "time": 53.79069767441617,
          "velocity": 0.14173228346456693,
          "duration": 0.034883720930224626
        },
        {
          "name": "C4",
          "midi": 60,
          "time": 53.802325581392914,
          "velocity": 0.3779527559055118,
          "duration": 0.09302325581395365
        },
        {
          "name": "A#5",
          "midi": 82,
          "time": 53.813953488369656,
          "velocity": 0.14960629921259844,
          "duration": 0.23255813953487348
        },
        {
          "name": "C#6",
          "midi": 85,
          "time": 53.813953488369656,
          "velocity": 0.16535433070866143,
          "duration": 0.08139534883721211
        },
        {
          "name": "F#6",
          "midi": 90,
          "time": 53.813953488369656,
          "velocity": 0.13385826771653545,
          "duration": 0.03488372093023173
        },
        {
          "name": "G#6",
          "midi": 92,
          "time": 53.813953488369656,
          "velocity": 0.12598425196850394,
          "duration": 0.08139534883721211
        },
        {
          "name": "C#7",
          "midi": 97,
          "time": 53.813953488369656,
          "velocity": 0.1889763779527559,
          "duration": 0.3720930232557862
        },
        {
          "name": "C#5",
          "midi": 73,
          "time": 53.8255813953464,
          "velocity": 0.23622047244094488,
          "duration": 0.09302325581396076
        },
        {
          "name": "F#5",
          "midi": 78,
          "time": 53.8255813953464,
          "velocity": 0.3779527559055118,
          "duration": 0.4534883720929912
        },
        {
          "name": "C#4",
          "midi": 61,
          "time": 53.89534883720687,
          "velocity": 0.2992125984251969,
          "duration": 0.03488372093023173
        },
        {
          "name": "F#4",
          "midi": 66,
          "time": 53.89534883720687,
          "velocity": 0.3464566929133858,
          "duration": 0.10465116279068809
        },
        {
          "name": "D5",
          "midi": 74,
          "time": 53.91860465116036,
          "velocity": 0.29133858267716534,
          "duration": 0.04651162790696617
        },
        {
          "name": "C#6",
          "midi": 85,
          "time": 53.91860465116036,
          "velocity": 0.16535433070866143,
          "duration": 0.04651162790696617
        },
        {
          "name": "A3",
          "midi": 57,
          "time": 53.94186046511384,
          "velocity": 0.12598425196850394,
          "duration": 0.034883720930224626
        },
        {
          "name": "G#6",
          "midi": 92,
          "time": 53.94186046511384,
          "velocity": 0.07086614173228346,
          "duration": 0.034883720930224626
        },
        {
          "name": "D4",
          "midi": 62,
          "time": 53.95348837209058,
          "velocity": 0.2125984251968504,
          "duration": 0.046511627906973274
        },
        {
          "name": "C#5",
          "midi": 73,
          "time": 53.965116279067324,
          "velocity": 0.2283464566929134,
          "duration": 0.20930232558137618
        },
        {
          "name": "G#4",
          "midi": 68,
          "time": 53.999999999997556,
          "velocity": 0.25196850393700787,
          "duration": 0.02325581395349019
        },
        {
          "name": "G4",
          "midi": 67,
          "time": 54.023255813951046,
          "velocity": 0.3543307086614173,
          "duration": 0.034883720930224626
        },
        {
          "name": "A2",
          "midi": 45,
          "time": 54.03488372092779,
          "velocity": 0.07086614173228346,
          "duration": 0.06976744186045636
        },
        {
          "name": "D6",
          "midi": 86,
          "time": 54.03488372092779,
          "velocity": 0.09448818897637795,
          "duration": 0.09302325581393944
        },
        {
          "name": "F#4",
          "midi": 66,
          "time": 54.06976744185801,
          "velocity": 0.28346456692913385,
          "duration": 0.03488372093023173
        },
        {
          "name": "D4",
          "midi": 62,
          "time": 54.116279069764985,
          "velocity": 0.33858267716535434,
          "duration": 0.11627906976742963
        },
        {
          "name": "F#4",
          "midi": 66,
          "time": 54.13953488371847,
          "velocity": 0.2204724409448819,
          "duration": 0.058139534883714816
        },
        {
          "name": "C#5",
          "midi": 73,
          "time": 54.209302325578925,
          "velocity": 0.13385826771653545,
          "duration": 0.04651162790698038
        },
        {
          "name": "F3",
          "midi": 53,
          "time": 54.232558139532415,
          "velocity": 0.36220472440944884,
          "duration": 0.02325581395349019
        },
        {
          "name": "C4",
          "midi": 60,
          "time": 54.232558139532415,
          "velocity": 0.41732283464566927,
          "duration": 0.081395348837205
        },
        {
          "name": "G#4",
          "midi": 68,
          "time": 54.232558139532415,
          "velocity": 0.2440944881889764,
          "duration": 0.10465116279068809
        },
        {
          "name": "E5",
          "midi": 76,
          "time": 54.232558139532415,
          "velocity": 0.29133858267716534,
          "duration": 0.10465116279068809
        },
        {
          "name": "E2",
          "midi": 40,
          "time": 54.255813953485905,
          "velocity": 0.5511811023622047,
          "duration": 0.011627906976741542
        },
        {
          "name": "B4",
          "midi": 71,
          "time": 54.255813953485905,
          "velocity": 0.33858267716535434,
          "duration": 0.186046511627886
        },
        {
          "name": "C#2",
          "midi": 37,
          "time": 54.26744186046265,
          "velocity": 0.5275590551181102,
          "duration": 0.011627906976741542
        },
        {
          "name": "D5",
          "midi": 74,
          "time": 54.26744186046265,
          "velocity": 0.07086614173228346,
          "duration": 0.03488372093023173
        },
        {
          "name": "C2",
          "midi": 36,
          "time": 54.27906976743939,
          "velocity": 0.44881889763779526,
          "duration": 0.02325581395349019
        },
        {
          "name": "E4",
          "midi": 64,
          "time": 54.27906976743939,
          "velocity": 0.3543307086614173,
          "duration": 0.1627906976744029
        },
        {
          "name": "A#5",
          "midi": 82,
          "time": 54.27906976743939,
          "velocity": 0.14173228346456693,
          "duration": 0.058139534883714816
        },
        {
          "name": "C4",
          "midi": 60,
          "time": 54.32558139534636,
          "velocity": 0.33858267716535434,
          "duration": 0.046511627906973274
        },
        {
          "name": "F#5",
          "midi": 78,
          "time": 54.32558139534636,
          "velocity": 0.3700787401574803,
          "duration": 0.058139534883714816
        },
        {
          "name": "D5",
          "midi": 74,
          "time": 54.3372093023231,
          "velocity": 0.1968503937007874,
          "duration": 0.10465116279068809
        },
        {
          "name": "G#4",
          "midi": 68,
          "time": 54.348837209299845,
          "velocity": 0.29133858267716534,
          "duration": 0.081395348837205
        },
        {
          "name": "C#7",
          "midi": 97,
          "time": 54.348837209299845,
          "velocity": 0.16535433070866143,
          "duration": 0.046511627906973274
        },
        {
          "name": "B3",
          "midi": 59,
          "time": 54.372093023253335,
          "velocity": 0.4015748031496063,
          "duration": 0.0813953488371979
        },
        {
          "name": "F5",
          "midi": 77,
          "time": 54.372093023253335,
          "velocity": 0.2440944881889764,
          "duration": 0.023255813953483084
        },
        {
          "name": "D#2",
          "midi": 39,
          "time": 54.383720930230076,
          "velocity": 0.36220472440944884,
          "duration": 0.023255813953483084
        },
        {
          "name": "F#5",
          "midi": 78,
          "time": 54.39534883720682,
          "velocity": 0.25196850393700787,
          "duration": 0.15116279069766136
        },
        {
          "name": "E3",
          "midi": 52,
          "time": 54.40697674418356,
          "velocity": 0.25196850393700787,
          "duration": 0.03488372093023173
        },
        {
          "name": "F#4",
          "midi": 66,
          "time": 54.44186046511379,
          "velocity": 0.4094488188976378,
          "duration": 0.023255813953483084
        },
        {
          "name": "D#5",
          "midi": 75,
          "time": 54.44186046511379,
          "velocity": 0.2125984251968504,
          "duration": 0.058139534883714816
        },
        {
          "name": "F#2",
          "midi": 42,
          "time": 54.45348837209053,
          "velocity": 0.2992125984251969,
          "duration": 0.03488372093023173
        },
        {
          "name": "E3",
          "midi": 52,
          "time": 54.45348837209053,
          "velocity": 0.18110236220472442,
          "duration": 0.03488372093023173
        },
        {
          "name": "B4",
          "midi": 71,
          "time": 54.45348837209053,
          "velocity": 0.25984251968503935,
          "duration": 0.13953488372091982
        },
        {
          "name": "B3",
          "midi": 59,
          "time": 54.465116279067274,
          "velocity": 0.3858267716535433,
          "duration": 0.11627906976743674
        },
        {
          "name": "G4",
          "midi": 67,
          "time": 54.465116279067274,
          "velocity": 0.36220472440944884,
          "duration": 0.02325581395349019
        },
        {
          "name": "B6",
          "midi": 95,
          "time": 54.465116279067274,
          "velocity": 0.07874015748031496,
          "duration": 0.081395348837205
        },
        {
          "name": "F2",
          "midi": 41,
          "time": 54.488372093020764,
          "velocity": 0.30708661417322836,
          "duration": 0.023255813953483084
        },
        {
          "name": "F#4",
          "midi": 66,
          "time": 54.488372093020764,
          "velocity": 0.33858267716535434,
          "duration": 0.023255813953483084
        },
        {
          "name": "E5",
          "midi": 76,
          "time": 54.488372093020764,
          "velocity": 0.2755905511811024,
          "duration": 0.38372093023252063
        },
        {
          "name": "E4",
          "midi": 64,
          "time": 54.499999999997506,
          "velocity": 0.33858267716535434,
          "duration": 0.15116279069766136
        },
        {
          "name": "A#1",
          "midi": 34,
          "time": 54.52325581395099,
          "velocity": 0.2677165354330709,
          "duration": 0.02325581395349019
        },
        {
          "name": "G#4",
          "midi": 68,
          "time": 54.52325581395099,
          "velocity": 0.30708661417322836,
          "duration": 0.12790697674417828
        },
        {
          "name": "E2",
          "midi": 40,
          "time": 54.58139534883471,
          "velocity": 0.31496062992125984,
          "duration": 0.058139534883714816
        },
        {
          "name": "F#5",
          "midi": 78,
          "time": 54.58139534883471,
          "velocity": 0.12598425196850394,
          "duration": 0.0813953488371979
        },
        {
          "name": "B3",
          "midi": 59,
          "time": 54.604651162788194,
          "velocity": 0.23622047244094488,
          "duration": 0.058139534883714816
        },
        {
          "name": "F2",
          "midi": 41,
          "time": 54.639534883718426,
          "velocity": 0.2755905511811024,
          "duration": 0.023255813953483084
        },
        {
          "name": "F4",
          "midi": 65,
          "time": 54.639534883718426,
          "velocity": 0.3779527559055118,
          "duration": 0.13953488372091272
        },
        {
          "name": "D5",
          "midi": 74,
          "time": 54.639534883718426,
          "velocity": 0.2677165354330709,
          "duration": 0.23255813953485927
        },
        {
          "name": "E2",
          "midi": 40,
          "time": 54.66279069767191,
          "velocity": 0.28346456692913385,
          "duration": 0.10465116279068809
        },
        {
          "name": "G#4",
          "midi": 68,
          "time": 54.66279069767191,
          "velocity": 0.2677165354330709,
          "duration": 0.034883720930224626
        },
        {
          "name": "A5",
          "midi": 81,
          "time": 54.66279069767191,
          "velocity": 0.2992125984251969,
          "duration": 0.2906976744185741
        },
        {
          "name": "F#6",
          "midi": 90,
          "time": 54.66279069767191,
          "velocity": 0.1889763779527559,
          "duration": 0.04651162790696617
        },
        {
          "name": "B4",
          "midi": 71,
          "time": 54.67441860464865,
          "velocity": 0.1968503937007874,
          "duration": 0.22093023255811772
        },
        {
          "name": "C4",
          "midi": 60,
          "time": 54.68604651162539,
          "velocity": 0.25984251968503935,
          "duration": 0.023255813953483084
        },
        {
          "name": "G#4",
          "midi": 68,
          "time": 54.709302325578875,
          "velocity": 0.2204724409448819,
          "duration": 0.1046511627906952
        },
        {
          "name": "D4",
          "midi": 62,
          "time": 54.7674418604626,
          "velocity": 0.2204724409448819,
          "duration": 0.09302325581394655
        },
        {
          "name": "F#6",
          "midi": 90,
          "time": 54.7674418604626,
          "velocity": 0.07086614173228346,
          "duration": 0.046511627906973274
        },
        {
          "name": "F4",
          "midi": 65,
          "time": 54.872093023253285,
          "velocity": 0.30708661417322836,
          "duration": 0.034883720930224626
        },
        {
          "name": "A4",
          "midi": 69,
          "time": 54.88372093023003,
          "velocity": 0.2755905511811024,
          "duration": 0.19767441860464174
        },
        {
          "name": "E5",
          "midi": 76,
          "time": 54.88372093023003,
          "velocity": 0.3937007874015748,
          "duration": 0.7209302325580822
        },
        {
          "name": "C#6",
          "midi": 85,
          "time": 54.89534883720677,
          "velocity": 0.25196850393700787,
          "duration": 0.17441860465115866
        },
        {
          "name": "B4",
          "midi": 71,
          "time": 54.90697674418351,
          "velocity": 0.2047244094488189,
          "duration": 0.12790697674418539
        },
        {
          "name": "E4",
          "midi": 64,
          "time": 54.930232558137,
          "velocity": 0.29133858267716534,
          "duration": 0.058139534883714816
        },
        {
          "name": "B3",
          "midi": 59,
          "time": 54.94186046511374,
          "velocity": 0.36220472440944884,
          "duration": 0.1046511627906952
        },
        {
          "name": "F2",
          "midi": 41,
          "time": 54.97674418604397,
          "velocity": 0.1732283464566929,
          "duration": 0.03488372093023173
        },
        {
          "name": "F4",
          "midi": 65,
          "time": 54.988372093020715,
          "velocity": 0.2992125984251969,
          "duration": 0.02325581395349019
        },
        {
          "name": "C3",
          "midi": 48,
          "time": 55.011627906974205,
          "velocity": 0.2440944881889764,
          "duration": 0.03488372093023173
        },
        {
          "name": "F#4",
          "midi": 66,
          "time": 55.011627906974205,
          "velocity": 0.23622047244094488,
          "duration": 0.02325581395349019
        },
        {
          "name": "F#4",
          "midi": 66,
          "time": 55.04651162790444,
          "velocity": 0.2992125984251969,
          "duration": 0.03488372093023173
        },
        {
          "name": "B3",
          "midi": 59,
          "time": 55.06976744185793,
          "velocity": 0.25984251968503935,
          "duration": 0.058139534883714816
        },
        {
          "name": "G4",
          "midi": 67,
          "time": 55.08139534883467,
          "velocity": 0.4330708661417323,
          "duration": 0.15116279069765426
        },
        {
          "name": "A#5",
          "midi": 82,
          "time": 55.08139534883467,
          "velocity": 0.16535433070866143,
          "duration": 0.046511627906973274
        },
        {
          "name": "A#2",
          "midi": 46,
          "time": 55.1162790697649,
          "velocity": 0.2440944881889764,
          "duration": 0.034883720930224626
        },
        {
          "name": "B4",
          "midi": 71,
          "time": 55.13953488371838,
          "velocity": 0.13385826771653545,
          "duration": 0.034883720930224626
        },
        {
          "name": "B3",
          "midi": 59,
          "time": 55.162790697671866,
          "velocity": 0.08661417322834646,
          "duration": 0.034883720930224626
        },
        {
          "name": "A4",
          "midi": 69,
          "time": 55.162790697671866,
          "velocity": 0.16535433070866143,
          "duration": 0.034883720930224626
        },
        {
          "name": "E4",
          "midi": 64,
          "time": 55.18604651162535,
          "velocity": 0.12598425196850394,
          "duration": 0.046511627906973274
        },
        {
          "name": "E3",
          "midi": 52,
          "time": 55.23255813953232,
          "velocity": 0.13385826771653545,
          "duration": 0.06976744186046346
        },
        {
          "name": "B4",
          "midi": 71,
          "time": 55.290697674416045,
          "velocity": 0.29133858267716534,
          "duration": 0.3255813953488058
        },
        {
          "name": "A2",
          "midi": 45,
          "time": 55.302325581392786,
          "velocity": 0.2440944881889764,
          "duration": 0.03488372093023173
        },
        {
          "name": "C4",
          "midi": 60,
          "time": 55.302325581392786,
          "velocity": 0.2677165354330709,
          "duration": 0.03488372093023173
        },
        {
          "name": "F4",
          "midi": 65,
          "time": 55.302325581392786,
          "velocity": 0.3543307086614173,
          "duration": 0.046511627906973274
        },
        {
          "name": "F#5",
          "midi": 78,
          "time": 55.302325581392786,
          "velocity": 0.31496062992125984,
          "duration": 0.4534883720929912
        },
        {
          "name": "D#6",
          "midi": 87,
          "time": 55.302325581392786,
          "velocity": 0.1968503937007874,
          "duration": 0.06976744186046346
        },
        {
          "name": "B3",
          "midi": 59,
          "time": 55.33720930232302,
          "velocity": 0.3228346456692913,
          "duration": 0.1860465116279002
        },
        {
          "name": "F4",
          "midi": 65,
          "time": 55.37209302325325,
          "velocity": 0.2440944881889764,
          "duration": 0.046511627906973274
        },
        {
          "name": "G4",
          "midi": 67,
          "time": 55.40697674418348,
          "velocity": 0.2755905511811024,
          "duration": 0.12790697674417828
        },
        {
          "name": "D#6",
          "midi": 87,
          "time": 55.476744186043945,
          "velocity": 0.07874015748031496,
          "duration": 0.03488372093023173
        },
        {
          "name": "C4",
          "midi": 60,
          "time": 55.52325581395092,
          "velocity": 0.4015748031496063,
          "duration": 0.0813953488371908
        },
        {
          "name": "D#6",
          "midi": 87,
          "time": 55.52325581395092,
          "velocity": 0.2047244094488189,
          "duration": 0.05813953488370771
        },
        {
          "name": "B6",
          "midi": 95,
          "time": 55.52325581395092,
          "velocity": 0.2204724409448819,
          "duration": 0.19767441860462753
        },
        {
          "name": "C7",
          "midi": 96,
          "time": 55.53488372092766,
          "velocity": 0.10236220472440945,
          "duration": 0.04651162790696617
        },
        {
          "name": "C#7",
          "midi": 97,
          "time": 55.53488372092766,
          "velocity": 0.14173228346456693,
          "duration": 0.034883720930224626
        },
        {
          "name": "D7",
          "midi": 98,
          "time": 55.53488372092766,
          "velocity": 0.12598425196850394,
          "duration": 0.04651162790696617
        },
        {
          "name": "B2",
          "midi": 47,
          "time": 55.5465116279044,
          "velocity": 0.1732283464566929,
          "duration": 0.034883720930224626
        },
        {
          "name": "E4",
          "midi": 64,
          "time": 55.55813953488114,
          "velocity": 0.2755905511811024,
          "duration": 0.023255813953483084
        },
        {
          "name": "E4",
          "midi": 64,
          "time": 55.59302325581137,
          "velocity": 0.23622047244094488,
          "duration": 0.058139534883714816
        },
        {
          "name": "F#4",
          "midi": 66,
          "time": 55.59302325581137,
          "velocity": 0.1732283464566929,
          "duration": 0.034883720930224626
        },
        {
          "name": "B3",
          "midi": 59,
          "time": 55.61627906976485,
          "velocity": 0.3700787401574803,
          "duration": 0.06976744186046346
        },
        {
          "name": "E5",
          "midi": 76,
          "time": 55.61627906976485,
          "velocity": 0.3779527559055118,
          "duration": 0.32558139534883423
        },
        {
          "name": "C4",
          "midi": 60,
          "time": 55.686046511625314,
          "velocity": 0.1889763779527559,
          "duration": 0.03488372093023173
        },
        {
          "name": "E4",
          "midi": 64,
          "time": 55.709302325578804,
          "velocity": 0.29133858267716534,
          "duration": 0.03488372093023173
        },
        {
          "name": "G#4",
          "midi": 68,
          "time": 55.709302325578804,
          "velocity": 0.30708661417322836,
          "duration": 0.03488372093023173
        },
        {
          "name": "B3",
          "midi": 59,
          "time": 55.720930232555546,
          "velocity": 0.2047244094488189,
          "duration": 0.1860465116279073
        },
        {
          "name": "F4",
          "midi": 65,
          "time": 55.744186046509036,
          "velocity": 0.30708661417322836,
          "duration": 0.058139534883714816
        },
        {
          "name": "G4",
          "midi": 67,
          "time": 55.744186046509036,
          "velocity": 0.33070866141732286,
          "duration": 0.11627906976743674
        },
        {
          "name": "B6",
          "midi": 95,
          "time": 55.744186046509036,
          "velocity": 0.14960629921259844,
          "duration": 0.4767441860464814
        },
        {
          "name": "A#2",
          "midi": 46,
          "time": 55.76744186046252,
          "velocity": 0.16535433070866143,
          "duration": 0.03488372093023173
        },
        {
          "name": "F4",
          "midi": 65,
          "time": 55.82558139534624,
          "velocity": 0.15748031496062992,
          "duration": 0.05813953488372192
        },
        {
          "name": "C#4",
          "midi": 61,
          "time": 55.941860465113685,
          "velocity": 0.4015748031496063,
          "duration": 0.034883720930224626
        },
        {
          "name": "G#4",
          "midi": 68,
          "time": 55.941860465113685,
          "velocity": 0.25196850393700787,
          "duration": 0.04651162790696617
        },
        {
          "name": "F2",
          "midi": 41,
          "time": 55.953488372090426,
          "velocity": 0.5275590551181102,
          "duration": 0.023255813953483084
        },
        {
          "name": "E5",
          "midi": 76,
          "time": 55.953488372090426,
          "velocity": 0.3464566929133858,
          "duration": 0.4069767441860179
        },
        {
          "name": "F#5",
          "midi": 78,
          "time": 55.953488372090426,
          "velocity": 0.15748031496062992,
          "duration": 0.1627906976743958
        },
        {
          "name": "F6",
          "midi": 89,
          "time": 55.953488372090426,
          "velocity": 0.11023622047244094,
          "duration": 0.034883720930224626
        },
        {
          "name": "A#5",
          "midi": 82,
          "time": 55.96511627906717,
          "velocity": 0.10236220472440945,
          "duration": 0.0813953488371908
        },
        {
          "name": "E2",
          "midi": 40,
          "time": 55.97674418604391,
          "velocity": 0.5511811023622047,
          "duration": 0.011627906976741542
        },
        {
          "name": "C4",
          "midi": 60,
          "time": 55.97674418604391,
          "velocity": 0.4330708661417323,
          "duration": 0.023255813953483084
        },
        {
          "name": "C#2",
          "midi": 37,
          "time": 55.98837209302065,
          "velocity": 0.5118110236220472,
          "duration": 0.011627906976741542
        },
        {
          "name": "E4",
          "midi": 64,
          "time": 55.98837209302065,
          "velocity": 0.29133858267716534,
          "duration": 0.023255813953483084
        },
        {
          "name": "B4",
          "midi": 71,
          "time": 55.98837209302065,
          "velocity": 0.2047244094488189,
          "duration": 0.1627906976744029
        },
        {
          "name": "D5",
          "midi": 74,
          "time": 55.98837209302065,
          "velocity": 0.1732283464566929,
          "duration": 0.12790697674417117
        },
        {
          "name": "G#4",
          "midi": 68,
          "time": 56.023255813950875,
          "velocity": 0.2992125984251969,
          "duration": 0.3488372093023102
        },
        {
          "name": "B3",
          "midi": 59,
          "time": 56.03488372092762,
          "velocity": 0.4015748031496063,
          "duration": 0.081395348837205
        },
        {
          "name": "E4",
          "midi": 64,
          "time": 56.03488372092762,
          "velocity": 0.25196850393700787,
          "duration": 0.058139534883714816
        },
        {
          "name": "E3",
          "midi": 52,
          "time": 56.04651162790436,
          "velocity": 0.14960629921259844,
          "duration": 0.03488372093023173
        },
        {
          "name": "D#2",
          "midi": 39,
          "time": 56.06976744185785,
          "velocity": 0.4094488188976378,
          "duration": 0.023255813953483084
        },
        {
          "name": "E2",
          "midi": 40,
          "time": 56.09302325581133,
          "velocity": 0.41732283464566927,
          "duration": 0.02325581395349019
        },
        {
          "name": "F2",
          "midi": 41,
          "time": 56.13953488371831,
          "velocity": 0.3464566929133858,
          "duration": 0.03488372093023173
        },
        {
          "name": "B3",
          "midi": 59,
          "time": 56.13953488371831,
          "velocity": 0.25984251968503935,
          "duration": 0.081395348837205
        },
        {
          "name": "F4",
          "midi": 65,
          "time": 56.151162790695054,
          "velocity": 0.28346456692913385,
          "duration": 0.1046511627906952
        },
        {
          "name": "F#2",
          "midi": 42,
          "time": 56.174418604648544,
          "velocity": 0.2992125984251969,
          "duration": 0.03488372093023173
        },
        {
          "name": "E3",
          "midi": 52,
          "time": 56.24418604650901,
          "velocity": 0.12598425196850394,
          "duration": 0.11627906976743674
        },
        {
          "name": "B6",
          "midi": 95,
          "time": 56.24418604650901,
          "velocity": 0.13385826771653545,
          "duration": 0.17441860465115155
        },
        {
          "name": "B4",
          "midi": 71,
          "time": 56.27906976743924,
          "velocity": 0.15748031496062992,
          "duration": 0.2441860465116008
        },
        {
          "name": "E2",
          "midi": 40,
          "time": 56.29069767441598,
          "velocity": 0.33070866141732286,
          "duration": 0.046511627906973274
        },
        {
          "name": "F2",
          "midi": 41,
          "time": 56.360465116276444,
          "velocity": 0.25196850393700787,
          "duration": 0.023255813953483084
        },
        {
          "name": "E4",
          "midi": 64,
          "time": 56.372093023253186,
          "velocity": 0.14960629921259844,
          "duration": 0.10465116279068098
        },
        {
          "name": "G4",
          "midi": 67,
          "time": 56.372093023253186,
          "velocity": 0.36220472440944884,
          "duration": 0.06976744186045636
        },
        {
          "name": "F#5",
          "midi": 78,
          "time": 56.372093023253186,
          "velocity": 0.3543307086614173,
          "duration": 0.22093023255811062
        },
        {
          "name": "C#6",
          "midi": 85,
          "time": 56.372093023253186,
          "velocity": 0.10236220472440945,
          "duration": 0.0813953488371979
        },
        {
          "name": "E2",
          "midi": 40,
          "time": 56.38372093022993,
          "velocity": 0.25984251968503935,
          "duration": 0.02325581395349019
        },
        {
          "name": "E5",
          "midi": 76,
          "time": 56.38372093022993,
          "velocity": 0.29133858267716534,
          "duration": 0.10465116279068098
        },
        {
          "name": "E2",
          "midi": 40,
          "time": 56.41860465116016,
          "velocity": 0.2677165354330709,
          "duration": 0.06976744186044925
        },
        {
          "name": "G#4",
          "midi": 68,
          "time": 56.4302325581369,
          "velocity": 0.2047244094488189,
          "duration": 0.034883720930224626
        },
        {
          "name": "B6",
          "midi": 95,
          "time": 56.45348837209038,
          "velocity": 0.10236220472440945,
          "duration": 0.13953488372091272
        },
        {
          "name": "C4",
          "midi": 60,
          "time": 56.47674418604387,
          "velocity": 0.3464566929133858,
          "duration": 0.10465116279068809
        },
        {
          "name": "G#4",
          "midi": 68,
          "time": 56.48837209302061,
          "velocity": 0.18110236220472442,
          "duration": 0.09302325581394655
        },
        {
          "name": "E5",
          "midi": 76,
          "time": 56.5116279069741,
          "velocity": 0.3228346456692913,
          "duration": 0.11627906976742253
        },
        {
          "name": "B4",
          "midi": 71,
          "time": 56.56976744185781,
          "velocity": 0.12598425196850394,
          "duration": 0.034883720930224626
        },
        {
          "name": "A4",
          "midi": 69,
          "time": 56.581395348834555,
          "velocity": 0.15748031496062992,
          "duration": 0.034883720930224626
        },
        {
          "name": "C#6",
          "midi": 85,
          "time": 56.581395348834555,
          "velocity": 0.07086614173228346,
          "duration": 0.06976744186045636
        },
        {
          "name": "F4",
          "midi": 65,
          "time": 56.593023255811296,
          "velocity": 0.36220472440944884,
          "duration": 0.058139534883714816
        },
        {
          "name": "D5",
          "midi": 74,
          "time": 56.593023255811296,
          "velocity": 0.12598425196850394,
          "duration": 0.034883720930224626
        },
        {
          "name": "G5",
          "midi": 79,
          "time": 56.593023255811296,
          "velocity": 0.31496062992125984,
          "duration": 0.46511627906972564
        },
        {
          "name": "B6",
          "midi": 95,
          "time": 56.61627906976478,
          "velocity": 0.11023622047244094,
          "duration": 0.081395348837205
        },
        {
          "name": "B4",
          "midi": 71,
          "time": 56.62790697674152,
          "velocity": 0.1889763779527559,
          "duration": 0.081395348837205
        },
        {
          "name": "D6",
          "midi": 86,
          "time": 56.62790697674152,
          "velocity": 0.09448818897637795,
          "duration": 0.03488372093023173
        },
        {
          "name": "E4",
          "midi": 64,
          "time": 56.65116279069501,
          "velocity": 0.25984251968503935,
          "duration": 0.046511627906973274
        },
        {
          "name": "E5",
          "midi": 76,
          "time": 56.65116279069501,
          "velocity": 0.33070866141732286,
          "duration": 0.4069767441860108
        },
        {
          "name": "B3",
          "midi": 59,
          "time": 56.66279069767175,
          "velocity": 0.33070866141732286,
          "duration": 0.09302325581394655
        },
        {
          "name": "G#4",
          "midi": 68,
          "time": 56.68604651162524,
          "velocity": 0.09448818897637795,
          "duration": 0.034883720930224626
        },
        {
          "name": "E2",
          "midi": 40,
          "time": 56.709302325578726,
          "velocity": 0.2204724409448819,
          "duration": 0.03488372093023173
        },
        {
          "name": "F#4",
          "midi": 66,
          "time": 56.709302325578726,
          "velocity": 0.18110236220472442,
          "duration": 0.03488372093023173
        },
        {
          "name": "G4",
          "midi": 67,
          "time": 56.74418604650896,
          "velocity": 0.1968503937007874,
          "duration": 0.04651162790696617
        },
        {
          "name": "B6",
          "midi": 95,
          "time": 56.7558139534857,
          "velocity": 0.11811023622047244,
          "duration": 0.04651162790696617
        },
        {
          "name": "E3",
          "midi": 52,
          "time": 56.76744186046244,
          "velocity": 0.16535433070866143,
          "duration": 0.034883720930224626
        },
        {
          "name": "B4",
          "midi": 71,
          "time": 56.76744186046244,
          "velocity": 0.09448818897637795,
          "duration": 0.034883720930224626
        },
        {
          "name": "B3",
          "midi": 59,
          "time": 56.77906976743918,
          "velocity": 0.2125984251968504,
          "duration": 0.06976744186045636
        },
        {
          "name": "G4",
          "midi": 67,
          "time": 56.802325581392665,
          "velocity": 0.3937007874015748,
          "duration": 0.11627906976743674
        },
        {
          "name": "B2",
          "midi": 47,
          "time": 56.84883720929964,
          "velocity": 0.09448818897637795,
          "duration": 0.03488372093023173
        },
        {
          "name": "D6",
          "midi": 86,
          "time": 56.84883720929964,
          "velocity": 0.11023622047244094,
          "duration": 0.09302325581395365
        },
        {
          "name": "B6",
          "midi": 95,
          "time": 56.90697674418336,
          "velocity": 0.10236220472440945,
          "duration": 0.05813953488372192
        },
        {
          "name": "G4",
          "midi": 67,
          "time": 56.94186046511359,
          "velocity": 0.18110236220472442,
          "duration": 0.081395348837205
        },
        {
          "name": "C4",
          "midi": 60,
          "time": 57.011627906974056,
          "velocity": 0.1889763779527559,
          "duration": 0.0813953488371979
        },
        {
          "name": "F4",
          "midi": 65,
          "time": 57.011627906974056,
          "velocity": 0.25196850393700787,
          "duration": 0.034883720930224626
        },
        {
          "name": "F#5",
          "midi": 78,
          "time": 57.0232558139508,
          "velocity": 0.3228346456692913,
          "duration": 0.41860465116273815
        },
        {
          "name": "G4",
          "midi": 67,
          "time": 57.03488372092754,
          "velocity": 0.2440944881889764,
          "duration": 0.023255813953483084
        },
        {
          "name": "F4",
          "midi": 65,
          "time": 57.05813953488102,
          "velocity": 0.23622047244094488,
          "duration": 0.058139534883714816
        },
        {
          "name": "B6",
          "midi": 95,
          "time": 57.05813953488102,
          "velocity": 0.09448818897637795,
          "duration": 0.046511627906973274
        },
        {
          "name": "E5",
          "midi": 76,
          "time": 57.08139534883451,
          "velocity": 0.2992125984251969,
          "duration": 0.09302325581393944
        },
        {
          "name": "F4",
          "midi": 65,
          "time": 57.12790697674148,
          "velocity": 0.12598425196850394,
          "duration": 0.046511627906973274
        },
        {
          "name": "D#5",
          "midi": 75,
          "time": 57.17441860464845,
          "velocity": 0.2283464566929134,
          "duration": 0.06976744186046346
        },
        {
          "name": "F#4",
          "midi": 66,
          "time": 57.18604651162519,
          "velocity": 0.28346456692913385,
          "duration": 0.05813953488372192
        },
        {
          "name": "C4",
          "midi": 60,
          "time": 57.220930232555425,
          "velocity": 0.3700787401574803,
          "duration": 0.046511627906973274
        },
        {
          "name": "B4",
          "midi": 71,
          "time": 57.220930232555425,
          "velocity": 0.14173228346456693,
          "duration": 0.046511627906973274
        },
        {
          "name": "C#6",
          "midi": 85,
          "time": 57.220930232555425,
          "velocity": 0.07086614173228346,
          "duration": 0.046511627906973274
        },
        {
          "name": "E5",
          "midi": 76,
          "time": 57.244186046508915,
          "velocity": 0.2047244094488189,
          "duration": 0.0813953488371908
        },
        {
          "name": "G4",
          "midi": 67,
          "time": 57.25581395348566,
          "velocity": 0.33858267716535434,
          "duration": 0.034883720930224626
        },
        {
          "name": "D5",
          "midi": 74,
          "time": 57.25581395348566,
          "velocity": 0.3228346456692913,
          "duration": 0.3720930232557649
        },
        {
          "name": "A6",
          "midi": 93,
          "time": 57.25581395348566,
          "velocity": 0.11023622047244094,
          "duration": 0.04651162790696617
        },
        {
          "name": "C7",
          "midi": 96,
          "time": 57.25581395348566,
          "velocity": 0.2125984251968504,
          "duration": 0.10465116279067388
        },
        {
          "name": "D7",
          "midi": 98,
          "time": 57.25581395348566,
          "velocity": 0.15748031496062992,
          "duration": 0.04651162790696617
        },
        {
          "name": "A5",
          "midi": 81,
          "time": 57.2674418604624,
          "velocity": 0.2283464566929134,
          "duration": 0.2674418604650768
        },
        {
          "name": "C4",
          "midi": 60,
          "time": 57.27906976743914,
          "velocity": 0.3228346456692913,
          "duration": 0.023255813953483084
        },
        {
          "name": "B4",
          "midi": 71,
          "time": 57.27906976743914,
          "velocity": 0.14173228346456693,
          "duration": 0.04651162790696617
        },
        {
          "name": "F4",
          "midi": 65,
          "time": 57.29069767441588,
          "velocity": 0.3464566929133858,
          "duration": 0.04651162790696617
        },
        {
          "name": "C4",
          "midi": 60,
          "time": 57.313953488369364,
          "velocity": 0.3700787401574803,
          "duration": 0.034883720930224626
        },
        {
          "name": "D7",
          "midi": 98,
          "time": 57.325581395346106,
          "velocity": 0.08661417322834646,
          "duration": 0.034883720930224626
        },
        {
          "name": "B3",
          "midi": 59,
          "time": 57.34883720929959,
          "velocity": 0.2755905511811024,
          "duration": 0.03488372093023173
        },
        {
          "name": "F#4",
          "midi": 66,
          "time": 57.36046511627633,
          "velocity": 0.23622047244094488,
          "duration": 0.081395348837205
        },
        {
          "name": "D4",
          "midi": 62,
          "time": 57.39534883720656,
          "velocity": 0.18110236220472442,
          "duration": 0.03488372093023173
        },
        {
          "name": "C7",
          "midi": 96,
          "time": 57.39534883720656,
          "velocity": 0.10236220472440945,
          "duration": 0.046511627906973274
        },
        {
          "name": "E3",
          "midi": 52,
          "time": 57.41860465116005,
          "velocity": 0.12598425196850394,
          "duration": 0.04651162790696617
        },
        {
          "name": "B3",
          "midi": 59,
          "time": 57.41860465116005,
          "velocity": 0.1732283464566929,
          "duration": 0.05813953488370771
        },
        {
          "name": "F4",
          "midi": 65,
          "time": 57.441860465113535,
          "velocity": 0.28346456692913385,
          "duration": 0.10465116279068098
        },
        {
          "name": "G5",
          "midi": 79,
          "time": 57.441860465113535,
          "velocity": 0.07086614173228346,
          "duration": 0.034883720930224626
        },
        {
          "name": "C#5",
          "midi": 73,
          "time": 57.45348837209028,
          "velocity": 0.2283464566929134,
          "duration": 0.023255813953483084
        },
        {
          "name": "D4",
          "midi": 62,
          "time": 57.46511627906702,
          "velocity": 0.14960629921259844,
          "duration": 0.046511627906973274
        },
        {
          "name": "B2",
          "midi": 47,
          "time": 57.47674418604376,
          "velocity": 0.10236220472440945,
          "duration": 0.046511627906973274
        },
        {
          "name": "C5",
          "midi": 72,
          "time": 57.47674418604376,
          "velocity": 0.2440944881889764,
          "duration": 0.03488372093023173
        },
        {
          "name": "F#6",
          "midi": 90,
          "time": 57.51162790697399,
          "velocity": 0.1889763779527559,
          "duration": 0.11627906976742963
        },
        {
          "name": "D4",
          "midi": 62,
          "time": 57.546511627904216,
          "velocity": 0.11811023622047244,
          "duration": 0.09302325581394655
        },
        {
          "name": "F4",
          "midi": 65,
          "time": 57.55813953488096,
          "velocity": 0.11023622047244094,
          "duration": 0.06976744186046346
        },
        {
          "name": "D#5",
          "midi": 75,
          "time": 57.651162790694904,
          "velocity": 0.28346456692913385,
          "duration": 0.06976744186044925
        },
        {
          "name": "G#5",
          "midi": 80,
          "time": 57.662790697671646,
          "velocity": 0.2125984251968504,
          "duration": 0.034883720930224626
        },
        {
          "name": "D6",
          "midi": 86,
          "time": 57.662790697671646,
          "velocity": 0.12598425196850394,
          "duration": 0.034883720930224626
        },
        {
          "name": "F#6",
          "midi": 90,
          "time": 57.662790697671646,
          "velocity": 0.1732283464566929,
          "duration": 0.04651162790696617
        },
        {
          "name": "F5",
          "midi": 77,
          "time": 57.67441860464839,
          "velocity": 0.23622047244094488,
          "duration": 0.023255813953483084
        },
        {
          "name": "E6",
          "midi": 88,
          "time": 57.67441860464839,
          "velocity": 0.4566929133858268,
          "duration": 1.616279069767245
        },
        {
          "name": "A2",
          "midi": 45,
          "time": 57.68604651162513,
          "velocity": 0.5433070866141733,
          "duration": 0.011627906976741542
        },
        {
          "name": "B4",
          "midi": 71,
          "time": 57.68604651162513,
          "velocity": 0.2047244094488189,
          "duration": 0.04651162790696617
        },
        {
          "name": "G5",
          "midi": 79,
          "time": 57.68604651162513,
          "velocity": 0.2047244094488189,
          "duration": 0.034883720930224626
        },
        {
          "name": "A#5",
          "midi": 82,
          "time": 57.68604651162513,
          "velocity": 0.1968503937007874,
          "duration": 0.034883720930224626
        },
        {
          "name": "C#6",
          "midi": 85,
          "time": 57.68604651162513,
          "velocity": 0.09448818897637795,
          "duration": 0.04651162790696617
        },
        {
          "name": "A6",
          "midi": 93,
          "time": 57.68604651162513,
          "velocity": 0.11811023622047244,
          "duration": 0.034883720930224626
        },
        {
          "name": "F#2",
          "midi": 42,
          "time": 57.69767441860187,
          "velocity": 0.5669291338582677,
          "duration": 0.011627906976741542
        },
        {
          "name": "B5",
          "midi": 83,
          "time": 57.69767441860187,
          "velocity": 0.2755905511811024,
          "duration": 0.17441860465113734
        },
        {
          "name": "A#6",
          "midi": 94,
          "time": 57.69767441860187,
          "velocity": 0.23622047244094488,
          "duration": 0.034883720930224626
        },
        {
          "name": "F2",
          "midi": 41,
          "time": 57.70930232557861,
          "velocity": 0.6535433070866141,
          "duration": 0.04651162790696617
        },
        {
          "name": "D5",
          "midi": 74,
          "time": 57.70930232557861,
          "velocity": 0.23622047244094488,
          "duration": 0.034883720930224626
        },
        {
          "name": "G#5",
          "midi": 80,
          "time": 57.70930232557861,
          "velocity": 0.2204724409448819,
          "duration": 0.0813953488371979
        },
        {
          "name": "D#7",
          "midi": 99,
          "time": 57.70930232557861,
          "velocity": 0.14173228346456693,
          "duration": 0.04651162790696617
        },
        {
          "name": "G#3",
          "midi": 56,
          "time": 57.720930232555354,
          "velocity": 0.3543307086614173,
          "duration": 0.023255813953483084
        },
        {
          "name": "E4",
          "midi": 64,
          "time": 57.720930232555354,
          "velocity": 0.3858267716535433,
          "duration": 0.3255813953488058
        },
        {
          "name": "E5",
          "midi": 76,
          "time": 57.720930232555354,
          "velocity": 0.3937007874015748,
          "duration": 0.6046511627906455
        },
        {
          "name": "F#5",
          "midi": 78,
          "time": 57.732558139532095,
          "velocity": 0.2204724409448819,
          "duration": 0.06976744186045636
        },
        {
          "name": "E2",
          "midi": 40,
          "time": 57.75581395348558,
          "velocity": 0.5748031496062992,
          "duration": 0.22093023255812483
        },
        {
          "name": "G#3",
          "midi": 56,
          "time": 57.75581395348558,
          "velocity": 0.30708661417322836,
          "duration": 0.02325581395349019
        },
        {
          "name": "B4",
          "midi": 71,
          "time": 57.75581395348558,
          "velocity": 0.31496062992125984,
          "duration": 0.09302325581394655
        },
        {
          "name": "F#6",
          "midi": 90,
          "time": 57.75581395348558,
          "velocity": 0.3937007874015748,
          "duration": 0.2674418604650981
        },
        {
          "name": "B3",
          "midi": 59,
          "time": 57.77906976743907,
          "velocity": 0.3779527559055118,
          "duration": 0.0813953488371979
        },
        {
          "name": "G#4",
          "midi": 68,
          "time": 57.79069767441581,
          "velocity": 0.3228346456692913,
          "duration": 0.41860465116275947
        },
        {
          "name": "D3",
          "midi": 50,
          "time": 57.860465116276266,
          "velocity": 0.29133858267716534,
          "duration": 0.023255813953483084
        },
        {
          "name": "A#3",
          "midi": 58,
          "time": 57.860465116276266,
          "velocity": 0.2992125984251969,
          "duration": 0.023255813953483084
        },
        {
          "name": "F#5",
          "midi": 78,
          "time": 57.860465116276266,
          "velocity": 0.11811023622047244,
          "duration": 0.046511627906973274
        },
        {
          "name": "B3",
          "midi": 59,
          "time": 57.88372093022975,
          "velocity": 0.29133858267716534,
          "duration": 0.13953488372092693
        },
        {
          "name": "A#0",
          "midi": 22,
          "time": 58.011627906973935,
          "velocity": 0.2992125984251969,
          "duration": 0.023255813953483084
        },
        {
          "name": "E2",
          "midi": 40,
          "time": 58.03488372092742,
          "velocity": 0.3858267716535433,
          "duration": 0.046511627906973274
        },
        {
          "name": "F#6",
          "midi": 90,
          "time": 58.04651162790416,
          "velocity": 0.2440944881889764,
          "duration": 0.1860465116279002
        },
        {
          "name": "D4",
          "midi": 62,
          "time": 58.09302325581113,
          "velocity": 0.2440944881889764,
          "duration": 0.19767441860464174
        },
        {
          "name": "D5",
          "midi": 74,
          "time": 58.09302325581113,
          "velocity": 0.2992125984251969,
          "duration": 0.13953488372092693
        },
        {
          "name": "A5",
          "midi": 81,
          "time": 58.09302325581113,
          "velocity": 0.30708661417322836,
          "duration": 0.3720930232557649
        },
        {
          "name": "E2",
          "midi": 40,
          "time": 58.162790697671596,
          "velocity": 0.30708661417322836,
          "duration": 0.023255813953483084
        },
        {
          "name": "B4",
          "midi": 71,
          "time": 58.17441860464834,
          "velocity": 0.11811023622047244,
          "duration": 0.12790697674417828
        },
        {
          "name": "F2",
          "midi": 41,
          "time": 58.20930232557857,
          "velocity": 0.33858267716535434,
          "duration": 0.03488372093023173
        },
        {
          "name": "F#2",
          "midi": 42,
          "time": 58.290697674415775,
          "velocity": 0.25196850393700787,
          "duration": 0.023255813953483084
        },
        {
          "name": "A4",
          "midi": 69,
          "time": 58.31395348836926,
          "velocity": 0.25984251968503935,
          "duration": 0.034883720930224626
        },
        {
          "name": "B3",
          "midi": 59,
          "time": 58.325581395346,
          "velocity": 0.2283464566929134,
          "duration": 0.023255813953483084
        },
        {
          "name": "C#5",
          "midi": 73,
          "time": 58.325581395346,
          "velocity": 0.2125984251968504,
          "duration": 0.034883720930224626
        },
        {
          "name": "F5",
          "midi": 77,
          "time": 58.325581395346,
          "velocity": 0.3543307086614173,
          "duration": 0.023255813953483084
        },
        {
          "name": "G#5",
          "midi": 80,
          "time": 58.325581395346,
          "velocity": 0.13385826771653545,
          "duration": 0.05813953488370771
        },
        {
          "name": "C#6",
          "midi": 85,
          "time": 58.325581395346,
          "velocity": 0.29133858267716534,
          "duration": 0.31395348837205717
        },
        {
          "name": "F4",
          "midi": 65,
          "time": 58.33720930232274,
          "velocity": 0.4251968503937008,
          "duration": 0.034883720930224626
        },
        {
          "name": "E5",
          "midi": 76,
          "time": 58.33720930232274,
          "velocity": 0.44881889763779526,
          "duration": 0.06976744186044925
        },
        {
          "name": "F2",
          "midi": 41,
          "time": 58.34883720929948,
          "velocity": 0.47244094488188976,
          "duration": 0.034883720930224626
        },
        {
          "name": "A#5",
          "midi": 82,
          "time": 58.34883720929948,
          "velocity": 0.11023622047244094,
          "duration": 0.034883720930224626
        },
        {
          "name": "A4",
          "midi": 69,
          "time": 58.360465116276224,
          "velocity": 0.25196850393700787,
          "duration": 0.25581395348834945
        },
        {
          "name": "E4",
          "midi": 64,
          "time": 58.372093023252965,
          "velocity": 0.4251968503937008,
          "duration": 0.023255813953483084
        },
        {
          "name": "B4",
          "midi": 71,
          "time": 58.372093023252965,
          "velocity": 0.23622047244094488,
          "duration": 0.04651162790696617
        },
        {
          "name": "F#4",
          "midi": 66,
          "time": 58.38372093022971,
          "velocity": 0.25196850393700787,
          "duration": 0.034883720930224626
        },
        {
          "name": "F2",
          "midi": 41,
          "time": 58.39534883720645,
          "velocity": 0.4645669291338583,
          "duration": 0.034883720930224626
        },
        {
          "name": "B3",
          "midi": 59,
          "time": 58.39534883720645,
          "velocity": 0.3228346456692913,
          "duration": 0.04651162790696617
        },
        {
          "name": "E5",
          "midi": 76,
          "time": 58.41860465115993,
          "velocity": 0.44881889763779526,
          "duration": 0.581395348837134
        },
        {
          "name": "F4",
          "midi": 65,
          "time": 58.43023255813667,
          "velocity": 0.28346456692913385,
          "duration": 0.023255813953483084
        },
        {
          "name": "C4",
          "midi": 60,
          "time": 58.453488372090156,
          "velocity": 0.25196850393700787,
          "duration": 0.03488372093023173
        },
        {
          "name": "D#3",
          "midi": 51,
          "time": 58.4651162790669,
          "velocity": 0.2992125984251969,
          "duration": 0.03488372093023173
        },
        {
          "name": "E4",
          "midi": 64,
          "time": 58.4651162790669,
          "velocity": 0.23622047244094488,
          "duration": 0.06976744186046346
        },
        {
          "name": "D5",
          "midi": 74,
          "time": 58.4651162790669,
          "velocity": 0.08661417322834646,
          "duration": 0.03488372093023173
        },
        {
          "name": "E2",
          "midi": 40,
          "time": 58.48837209302039,
          "velocity": 0.47244094488188976,
          "duration": 0.046511627906973274
        },
        {
          "name": "G#3",
          "midi": 56,
          "time": 58.51162790697387,
          "velocity": 0.3228346456692913,
          "duration": 0.02325581395349019
        },
        {
          "name": "F3",
          "midi": 53,
          "time": 58.53488372092736,
          "velocity": 0.41732283464566927,
          "duration": 0.08139534883721211
        },
        {
          "name": "A2",
          "midi": 45,
          "time": 58.627906976741315,
          "velocity": 0.4094488188976378,
          "duration": 0.023255813953483084
        },
        {
          "name": "F3",
          "midi": 53,
          "time": 58.627906976741315,
          "velocity": 0.3937007874015748,
          "duration": 0.034883720930224626
        },
        {
          "name": "A#3",
          "midi": 58,
          "time": 58.627906976741315,
          "velocity": 0.2283464566929134,
          "duration": 0.034883720930224626
        },
        {
          "name": "D5",
          "midi": 74,
          "time": 58.627906976741315,
          "velocity": 0.09448818897637795,
          "duration": 0.04651162790696617
        },
        {
          "name": "F#3",
          "midi": 54,
          "time": 58.66279069767154,
          "velocity": 0.4881889763779528,
          "duration": 0.034883720930224626
        },
        {
          "name": "G#2",
          "midi": 44,
          "time": 58.67441860464828,
          "velocity": 0.4015748031496063,
          "duration": 0.034883720930224626
        },
        {
          "name": "D4",
          "midi": 62,
          "time": 58.67441860464828,
          "velocity": 0.1732283464566929,
          "duration": 0.04651162790696617
        },
        {
          "name": "G#4",
          "midi": 68,
          "time": 58.67441860464828,
          "velocity": 0.1968503937007874,
          "duration": 0.034883720930224626
        },
        {
          "name": "A#4",
          "midi": 70,
          "time": 58.68604651162502,
          "velocity": 0.15748031496062992,
          "duration": 0.04651162790696617
        },
        {
          "name": "F3",
          "midi": 53,
          "time": 58.697674418601764,
          "velocity": 0.5039370078740157,
          "duration": 0.3023255813953014
        },
        {
          "name": "G#4",
          "midi": 68,
          "time": 58.73255813953199,
          "velocity": 0.13385826771653545,
          "duration": 0.04651162790696617
        },
        {
          "name": "B4",
          "midi": 71,
          "time": 58.73255813953199,
          "velocity": 0.3228346456692913,
          "duration": 0.39534883720924086
        },
        {
          "name": "F#5",
          "midi": 78,
          "time": 58.73255813953199,
          "velocity": 0.3464566929133858,
          "duration": 0.22093023255811062
        },
        {
          "name": "G2",
          "midi": 43,
          "time": 58.74418604650873,
          "velocity": 0.4409448818897638,
          "duration": 0.023255813953483084
        },
        {
          "name": "D#6",
          "midi": 87,
          "time": 58.74418604650873,
          "velocity": 0.1889763779527559,
          "duration": 0.06976744186044925
        },
        {
          "name": "B3",
          "midi": 59,
          "time": 58.75581395348547,
          "velocity": 0.23622047244094488,
          "duration": 0.034883720930224626
        },
        {
          "name": "F#2",
          "midi": 42,
          "time": 58.76744186046221,
          "velocity": 0.5118110236220472,
          "duration": 0.011627906976741542
        },
        {
          "name": "F2",
          "midi": 41,
          "time": 58.779069767438955,
          "velocity": 0.48031496062992124,
          "duration": 0.023255813953483084
        },
        {
          "name": "E4",
          "midi": 64,
          "time": 58.779069767438955,
          "velocity": 0.30708661417322836,
          "duration": 0.034883720930224626
        },
        {
          "name": "E2",
          "midi": 40,
          "time": 58.80232558139244,
          "velocity": 0.41732283464566927,
          "duration": 0.023255813953483084
        },
        {
          "name": "B3",
          "midi": 59,
          "time": 58.80232558139244,
          "velocity": 0.2992125984251969,
          "duration": 0.10465116279068809
        },
        {
          "name": "F2",
          "midi": 41,
          "time": 58.82558139534592,
          "velocity": 0.4645669291338583,
          "duration": 0.03488372093023173
        },
        {
          "name": "E2",
          "midi": 40,
          "time": 58.872093023252894,
          "velocity": 0.4251968503937008,
          "duration": 0.02325581395349019
        },
        {
          "name": "B3",
          "midi": 59,
          "time": 58.91860465115987,
          "velocity": 0.1968503937007874,
          "duration": 0.046511627906973274
        },
        {
          "name": "G#4",
          "midi": 68,
          "time": 58.94186046511336,
          "velocity": 0.08661417322834646,
          "duration": 0.034883720930224626
        },
        {
          "name": "F5",
          "midi": 77,
          "time": 58.9534883720901,
          "velocity": 0.11811023622047244,
          "duration": 0.034883720930224626
        },
        {
          "name": "B6",
          "midi": 95,
          "time": 58.9534883720901,
          "velocity": 0.48031496062992124,
          "duration": 0.6162790697673515
        },
        {
          "name": "E2",
          "midi": 40,
          "time": 58.97674418604358,
          "velocity": 0.4566929133858268,
          "duration": 0.023255813953483084
        },
        {
          "name": "B3",
          "midi": 59,
          "time": 58.97674418604358,
          "velocity": 0.29133858267716534,
          "duration": 0.1395348837209056
        },
        {
          "name": "G#5",
          "midi": 80,
          "time": 58.97674418604358,
          "velocity": 0.11811023622047244,
          "duration": 0.10465116279067388
        },
        {
          "name": "A#5",
          "midi": 82,
          "time": 58.97674418604358,
          "velocity": 0.14960629921259844,
          "duration": 0.034883720930224626
        },
        {
          "name": "D#6",
          "midi": 87,
          "time": 58.97674418604358,
          "velocity": 0.15748031496062992,
          "duration": 0.04651162790696617
        },
        {
          "name": "F#5",
          "midi": 78,
          "time": 58.988372093020324,
          "velocity": 0.2125984251968504,
          "duration": 0.10465116279067388
        },
        {
          "name": "D#5",
          "midi": 75,
          "time": 58.999999999997065,
          "velocity": 0.09448818897637795,
          "duration": 0.05813953488370771
        },
        {
          "name": "G#6",
          "midi": 92,
          "time": 58.999999999997065,
          "velocity": 0.16535433070866143,
          "duration": 0.04651162790696617
        },
        {
          "name": "B2",
          "midi": 47,
          "time": 59.01162790697381,
          "velocity": 0.29133858267716534,
          "duration": 0.023255813953483084
        },
        {
          "name": "G4",
          "midi": 67,
          "time": 59.01162790697381,
          "velocity": 0.33858267716535434,
          "duration": 0.19767441860462043
        },
        {
          "name": "A5",
          "midi": 81,
          "time": 59.01162790697381,
          "velocity": 0.14960629921259844,
          "duration": 0.0813953488371908
        },
        {
          "name": "D6",
          "midi": 86,
          "time": 59.01162790697381,
          "velocity": 0.11811023622047244,
          "duration": 0.0813953488371908
        },
        {
          "name": "F3",
          "midi": 53,
          "time": 59.02325581395055,
          "velocity": 0.2992125984251969,
          "duration": 0.12790697674416407
        },
        {
          "name": "E4",
          "midi": 64,
          "time": 59.02325581395055,
          "velocity": 0.2755905511811024,
          "duration": 0.034883720930224626
        },
        {
          "name": "E2",
          "midi": 40,
          "time": 59.04651162790403,
          "velocity": 0.3937007874015748,
          "duration": 0.06976744186045636
        },
        {
          "name": "C#6",
          "midi": 85,
          "time": 59.05813953488077,
          "velocity": 0.07874015748031496,
          "duration": 0.06976744186045636
        },
        {
          "name": "E4",
          "midi": 64,
          "time": 59.069767441857515,
          "velocity": 0.25196850393700787,
          "duration": 0.0813953488371979
        },
        {
          "name": "F2",
          "midi": 41,
          "time": 59.11627906976449,
          "velocity": 0.3779527559055118,
          "duration": 0.034883720930224626
        },
        {
          "name": "B3",
          "midi": 59,
          "time": 59.13953488371797,
          "velocity": 0.16535433070866143,
          "duration": 0.058139534883714816
        },
        {
          "name": "E3",
          "midi": 52,
          "time": 59.15116279069471,
          "velocity": 0.31496062992125984,
          "duration": 0.02325581395349019
        },
        {
          "name": "C#3",
          "midi": 49,
          "time": 59.1744186046482,
          "velocity": 0.33070866141732286,
          "duration": 0.023255813953483084
        },
        {
          "name": "D#4",
          "midi": 63,
          "time": 59.186046511624944,
          "velocity": 0.2204724409448819,
          "duration": 0.034883720930224626
        },
        {
          "name": "B4",
          "midi": 71,
          "time": 59.186046511624944,
          "velocity": 0.1732283464566929,
          "duration": 0.12790697674417117
        },
        {
          "name": "C3",
          "midi": 48,
          "time": 59.197674418601686,
          "velocity": 0.36220472440944884,
          "duration": 0.023255813953483084
        },
        {
          "name": "E3",
          "midi": 52,
          "time": 59.22093023255517,
          "velocity": 0.28346456692913385,
          "duration": 0.02325581395349019
        },
        {
          "name": "F#2",
          "midi": 42,
          "time": 59.24418604650866,
          "velocity": 0.4015748031496063,
          "duration": 0.02325581395349019
        },
        {
          "name": "G4",
          "midi": 67,
          "time": 59.24418604650866,
          "velocity": 0.1968503937007874,
          "duration": 0.09302325581394655
        },
        {
          "name": "A0",
          "midi": 21,
          "time": 59.27906976743889,
          "velocity": 0.2440944881889764,
          "duration": 0.023255813953483084
        },
        {
          "name": "E2",
          "midi": 40,
          "time": 59.27906976743889,
          "velocity": 0.2677165354330709,
          "duration": 0.023255813953483084
        },
        {
          "name": "D#4",
          "midi": 63,
          "time": 59.302325581392374,
          "velocity": 0.13385826771653545,
          "duration": 0.03488372093023173
        },
        {
          "name": "E2",
          "midi": 40,
          "time": 59.313953488369116,
          "velocity": 0.2992125984251969,
          "duration": 0.02325581395349019
        },
        {
          "name": "B3",
          "midi": 59,
          "time": 59.337209302322606,
          "velocity": 0.13385826771653545,
          "duration": 0.03488372093023173
        },
        {
          "name": "E3",
          "midi": 52,
          "time": 59.360465116276096,
          "velocity": 0.28346456692913385,
          "duration": 0.023255813953483084
        },
        {
          "name": "B4",
          "midi": 71,
          "time": 59.38372093022958,
          "velocity": 0.2440944881889764,
          "duration": 0.10465116279068098
        },
        {
          "name": "D5",
          "midi": 74,
          "time": 59.38372093022958,
          "velocity": 0.16535433070866143,
          "duration": 0.06976744186045636
        },
        {
          "name": "A5",
          "midi": 81,
          "time": 59.38372093022958,
          "velocity": 0.2440944881889764,
          "duration": 0.12790697674416407
        },
        {
          "name": "A6",
          "midi": 93,
          "time": 59.38372093022958,
          "velocity": 0.5196850393700787,
          "duration": 0.6162790697673586
        },
        {
          "name": "C3",
          "midi": 48,
          "time": 59.39534883720632,
          "velocity": 0.49606299212598426,
          "duration": 0.03488372093023173
        },
        {
          "name": "E4",
          "midi": 64,
          "time": 59.39534883720632,
          "velocity": 0.31496062992125984,
          "duration": 0.046511627906973274
        },
        {
          "name": "G#4",
          "midi": 68,
          "time": 59.39534883720632,
          "velocity": 0.2283464566929134,
          "duration": 0.03488372093023173
        },
        {
          "name": "C#6",
          "midi": 85,
          "time": 59.39534883720632,
          "velocity": 0.12598425196850394,
          "duration": 0.09302325581393944
        },
        {
          "name": "E7",
          "midi": 100,
          "time": 59.39534883720632,
          "velocity": 0.25196850393700787,
          "duration": 0.5116279069766776
        },
        {
          "name": "F3",
          "midi": 53,
          "time": 59.41860465115981,
          "velocity": 0.2755905511811024,
          "duration": 0.034883720930224626
        },
        {
          "name": "F#4",
          "midi": 66,
          "time": 59.41860465115981,
          "velocity": 0.3779527559055118,
          "duration": 0.12790697674415696
        },
        {
          "name": "C2",
          "midi": 36,
          "time": 59.43023255813655,
          "velocity": 0.5590551181102362,
          "duration": 0.011627906976741542
        },
        {
          "name": "F#6",
          "midi": 90,
          "time": 59.43023255813655,
          "velocity": 0.12598425196850394,
          "duration": 0.034883720930224626
        },
        {
          "name": "E2",
          "midi": 40,
          "time": 59.441860465113294,
          "velocity": 0.5590551181102362,
          "duration": 0.011627906976741542
        },
        {
          "name": "G#4",
          "midi": 68,
          "time": 59.441860465113294,
          "velocity": 0.30708661417322836,
          "duration": 0.05813953488370771
        },
        {
          "name": "F3",
          "midi": 53,
          "time": 59.46511627906678,
          "velocity": 0.2440944881889764,
          "duration": 0.023255813953483084
        },
        {
          "name": "B3",
          "midi": 59,
          "time": 59.46511627906678,
          "velocity": 0.3464566929133858,
          "duration": 0.06976744186044925
        },
        {
          "name": "E4",
          "midi": 64,
          "time": 59.46511627906678,
          "velocity": 0.2283464566929134,
          "duration": 0.034883720930224626
        },
        {
          "name": "A#6",
          "midi": 94,
          "time": 59.47674418604352,
          "velocity": 0.11023622047244094,
          "duration": 0.06976744186044925
        },
        {
          "name": "D5",
          "midi": 74,
          "time": 59.499999999997,
          "velocity": 0.1732283464566929,
          "duration": 0.05813953488370771
        },
        {
          "name": "C#6",
          "midi": 85,
          "time": 59.499999999997,
          "velocity": 0.11023622047244094,
          "duration": 0.034883720930224626
        },
        {
          "name": "A5",
          "midi": 81,
          "time": 59.523255813950485,
          "velocity": 0.3858267716535433,
          "duration": 0.5930232558138826
        },
        {
          "name": "G#4",
          "midi": 68,
          "time": 59.534883720927226,
          "velocity": 0.31496062992125984,
          "duration": 0.33720930232554025
        },
        {
          "name": "E2",
          "midi": 40,
          "time": 59.54651162790397,
          "velocity": 0.5354330708661418,
          "duration": 0.046511627906973274
        },
        {
          "name": "B3",
          "midi": 59,
          "time": 59.54651162790397,
          "velocity": 0.3228346456692913,
          "duration": 0.09302325581394655
        },
        {
          "name": "F2",
          "midi": 41,
          "time": 59.59302325581094,
          "velocity": 0.5275590551181102,
          "duration": 0.02325581395349019
        },
        {
          "name": "E2",
          "midi": 40,
          "time": 59.61627906976443,
          "velocity": 0.48031496062992124,
          "duration": 0.034883720930224626
        },
        {
          "name": "D#5",
          "midi": 75,
          "time": 59.61627906976443,
          "velocity": 0.11023622047244094,
          "duration": 0.12790697674417117
        },
        {
          "name": "E4",
          "midi": 64,
          "time": 59.62790697674117,
          "velocity": 0.15748031496062992,
          "duration": 0.11627906976742963
        },
        {
          "name": "A2",
          "midi": 45,
          "time": 59.69767441860163,
          "velocity": 0.2440944881889764,
          "duration": 0.02325581395349019
        },
        {
          "name": "F#5",
          "midi": 78,
          "time": 59.69767441860163,
          "velocity": 0.07874015748031496,
          "duration": 0.046511627906973274
        },
        {
          "name": "F2",
          "midi": 41,
          "time": 59.72093023255512,
          "velocity": 0.25196850393700787,
          "duration": 0.034883720930224626
        },
        {
          "name": "B3",
          "midi": 59,
          "time": 59.73255813953186,
          "velocity": 0.07874015748031496,
          "duration": 0.034883720930224626
        },
        {
          "name": "D5",
          "midi": 74,
          "time": 59.80232558139232,
          "velocity": 0.29133858267716534,
          "duration": 0.22093023255811062
        },
        {
          "name": "C2",
          "midi": 36,
          "time": 59.81395348836906,
          "velocity": 0.5748031496062992,
          "duration": 0.011627906976741542
        },
        {
          "name": "F#6",
          "midi": 90,
          "time": 59.81395348836906,
          "velocity": 0.2125984251968504,
          "duration": 0.1627906976743958
        },
        {
          "name": "B6",
          "midi": 95,
          "time": 59.81395348836906,
          "velocity": 0.4881889763779528,
          "duration": 0.6046511627906099
        },
        {
          "name": "D2",
          "midi": 38,
          "time": 59.8255813953458,
          "velocity": 0.5354330708661418,
          "duration": 0.011627906976741542
        },
        {
          "name": "D4",
          "midi": 62,
          "time": 59.83720930232254,
          "velocity": 0.25984251968503935,
          "duration": 0.11627906976742963
        },
        {
          "name": "D2",
          "midi": 38,
          "time": 59.84883720929928,
          "velocity": 0.5354330708661418,
          "duration": 0.011627906976741542
        },
        {
          "name": "G4",
          "midi": 67,
          "time": 59.872093023252766,
          "velocity": 0.29133858267716534,
          "duration": 0.11627906976742963
        },
        {
          "name": "G1",
          "midi": 31,
          "time": 59.88372093022951,
          "velocity": 0.4881889763779528,
          "duration": 0.02325581395349019
        },
        {
          "name": "B2",
          "midi": 47,
          "time": 59.88372093022951,
          "velocity": 0.44881889763779526,
          "duration": 0.05813953488372192
        },
        {
          "name": "E5",
          "midi": 76,
          "time": 59.91860465115974,
          "velocity": 0.10236220472440945,
          "duration": 0.046511627906973274
        },
        {
          "name": "A1",
          "midi": 33,
          "time": 59.95348837208997,
          "velocity": 0.5196850393700787,
          "duration": 0.011627906976741542
        },
        {
          "name": "C2",
          "midi": 36,
          "time": 59.96511627906671,
          "velocity": 0.5196850393700787,
          "duration": 0.011627906976741542
        },
        {
          "name": "D4",
          "midi": 62,
          "time": 59.96511627906671,
          "velocity": 0.18110236220472442,
          "duration": 0.034883720930224626
        },
        {
          "name": "B2",
          "midi": 47,
          "time": 59.976744186043454,
          "velocity": 0.3228346456692913,
          "duration": 0.046511627906973274
        },
        {
          "name": "B4",
          "midi": 71,
          "time": 59.976744186043454,
          "velocity": 0.1732283464566929,
          "duration": 0.058139534883714816
        },
        {
          "name": "A2",
          "midi": 45,
          "time": 60.02325581395043,
          "velocity": 0.3228346456692913,
          "duration": 0.023255813953483084
        },
        {
          "name": "E5",
          "midi": 76,
          "time": 60.02325581395043,
          "velocity": 0.36220472440944884,
          "duration": 0.31395348837205006
        },
        {
          "name": "E3",
          "midi": 52,
          "time": 60.03488372092717,
          "velocity": 0.2283464566929134,
          "duration": 0.023255813953483084
        },
        {
          "name": "A4",
          "midi": 69,
          "time": 60.03488372092717,
          "velocity": 0.25196850393700787,
          "duration": 0.09302325581393944
        },
        {
          "name": "C#6",
          "midi": 85,
          "time": 60.03488372092717,
          "velocity": 0.2440944881889764,
          "duration": 0.11627906976742253
        },
        {
          "name": "B4",
          "midi": 71,
          "time": 60.04651162790391,
          "velocity": 0.2204724409448819,
          "duration": 0.058139534883714816
        },
        {
          "name": "B3",
          "midi": 59,
          "time": 60.05813953488065,
          "velocity": 0.3858267716535433,
          "duration": 0.11627906976742253
        },
        {
          "name": "F4",
          "midi": 65,
          "time": 60.05813953488065,
          "velocity": 0.33858267716535434,
          "duration": 0.023255813953483084
        },
        {
          "name": "F#5",
          "midi": 78,
          "time": 60.069767441857394,
          "velocity": 0.14173228346456693,
          "duration": 0.046511627906973274
        },
        {
          "name": "E4",
          "midi": 64,
          "time": 60.081395348834135,
          "velocity": 0.3937007874015748,
          "duration": 0.06976744186045636
        },
        {
          "name": "G4",
          "midi": 67,
          "time": 60.11627906976437,
          "velocity": 0.2440944881889764,
          "duration": 0.034883720930224626
        },
        {
          "name": "F#5",
          "midi": 78,
          "time": 60.12790697674111,
          "velocity": 0.11023622047244094,
          "duration": 0.034883720930224626
        },
        {
          "name": "A6",
          "midi": 93,
          "time": 60.13953488371785,
          "velocity": 0.18110236220472442,
          "duration": 0.0813953488371979
        },
        {
          "name": "F#4",
          "midi": 66,
          "time": 60.15116279069459,
          "velocity": 0.2440944881889764,
          "duration": 0.023255813953483084
        },
        {
          "name": "G1",
          "midi": 31,
          "time": 60.174418604648075,
          "velocity": 0.3464566929133858,
          "duration": 0.023255813953483084
        },
        {
          "name": "A4",
          "midi": 69,
          "time": 60.174418604648075,
          "velocity": 0.2047244094488189,
          "duration": 0.1627906976744029
        },
        {
          "name": "E4",
          "midi": 64,
          "time": 60.186046511624816,
          "velocity": 0.09448818897637795,
          "duration": 0.06976744186045636
        },
        {
          "name": "E3",
          "midi": 52,
          "time": 60.22093023255505,
          "velocity": 0.25984251968503935,
          "duration": 0.034883720930224626
        },
        {
          "name": "B3",
          "midi": 59,
          "time": 60.22093023255505,
          "velocity": 0.2047244094488189,
          "duration": 0.058139534883714816
        },
        {
          "name": "C#6",
          "midi": 85,
          "time": 60.23255813953179,
          "velocity": 0.09448818897637795,
          "duration": 0.081395348837205
        },
        {
          "name": "D7",
          "midi": 98,
          "time": 60.24418604650853,
          "velocity": 0.5039370078740157,
          "duration": 0.5813953488371268
        },
        {
          "name": "D#3",
          "midi": 51,
          "time": 60.290697674415505,
          "velocity": 0.2677165354330709,
          "duration": 0.02325581395349019
        },
        {
          "name": "D5",
          "midi": 74,
          "time": 60.290697674415505,
          "velocity": 0.2755905511811024,
          "duration": 0.15116279069765426
        },
        {
          "name": "A6",
          "midi": 93,
          "time": 60.290697674415505,
          "velocity": 0.10236220472440945,
          "duration": 0.06976744186045636
        },
        {
          "name": "E4",
          "midi": 64,
          "time": 60.325581395345736,
          "velocity": 0.3464566929133858,
          "duration": 0.20930232558136197
        },
        {
          "name": "A#3",
          "midi": 58,
          "time": 60.33720930232248,
          "velocity": 0.07086614173228346,
          "duration": 0.04651162790696617
        },
        {
          "name": "G#1",
          "midi": 32,
          "time": 60.34883720929922,
          "velocity": 0.30708661417322836,
          "duration": 0.023255813953483084
        },
        {
          "name": "B4",
          "midi": 71,
          "time": 60.34883720929922,
          "velocity": 0.12598425196850394,
          "duration": 0.05813953488370771
        },
        {
          "name": "B5",
          "midi": 83,
          "time": 60.36046511627596,
          "velocity": 0.12598425196850394,
          "duration": 0.034883720930224626
        },
        {
          "name": "B2",
          "midi": 47,
          "time": 60.44186046511316,
          "velocity": 0.2204724409448819,
          "duration": 0.034883720930224626
        },
        {
          "name": "F#5",
          "midi": 78,
          "time": 60.4534883720899,
          "velocity": 0.3228346456692913,
          "duration": 0.2441860465116008
        },
        {
          "name": "B5",
          "midi": 83,
          "time": 60.4534883720899,
          "velocity": 0.15748031496062992,
          "duration": 0.15116279069766136
        },
        {
          "name": "B4",
          "midi": 71,
          "time": 60.46511627906664,
          "velocity": 0.33858267716535434,
          "duration": 0.19767441860463464
        },
        {
          "name": "D#6",
          "midi": 87,
          "time": 60.46511627906664,
          "velocity": 0.18110236220472442,
          "duration": 0.058139534883714816
        },
        {
          "name": "B3",
          "midi": 59,
          "time": 60.47674418604338,
          "velocity": 0.2204724409448819,
          "duration": 0.046511627906973274
        },
        {
          "name": "F3",
          "midi": 53,
          "time": 60.511627906973615,
          "velocity": 0.25196850393700787,
          "duration": 0.023255813953483084
        },
        {
          "name": "G3",
          "midi": 55,
          "time": 60.5348837209271,
          "velocity": 0.2125984251968504,
          "duration": 0.03488372093023173
        },
        {
          "name": "E5",
          "midi": 76,
          "time": 60.5348837209271,
          "velocity": 0.07086614173228346,
          "duration": 0.03488372093023173
        },
        {
          "name": "E2",
          "midi": 40,
          "time": 60.54651162790384,
          "velocity": 0.4645669291338583,
          "duration": 0.02325581395349019
        },
        {
          "name": "F2",
          "midi": 41,
          "time": 60.56976744185733,
          "velocity": 0.4409448818897638,
          "duration": 0.03488372093023173
        },
        {
          "name": "D5",
          "midi": 74,
          "time": 60.56976744185733,
          "velocity": 0.08661417322834646,
          "duration": 0.046511627906973274
        },
        {
          "name": "B3",
          "midi": 59,
          "time": 60.651162790694535,
          "velocity": 0.14960629921259844,
          "duration": 0.034883720930224626
        },
        {
          "name": "F5",
          "midi": 77,
          "time": 60.67441860464802,
          "velocity": 0.4015748031496063,
          "duration": 0.034883720930224626
        },
        {
          "name": "A5",
          "midi": 81,
          "time": 60.67441860464802,
          "velocity": 0.11023622047244094,
          "duration": 0.034883720930224626
        },
        {
          "name": "C#6",
          "midi": 85,
          "time": 60.67441860464802,
          "velocity": 0.2283464566929134,
          "duration": 0.09302325581393234
        },
        {
          "name": "E6",
          "midi": 88,
          "time": 60.67441860464802,
          "velocity": 0.07874015748031496,
          "duration": 0.034883720930224626
        },
        {
          "name": "F#6",
          "midi": 90,
          "time": 60.67441860464802,
          "velocity": 0.4094488188976378,
          "duration": 0.7441860465115155
        },
        {
          "name": "G#6",
          "midi": 92,
          "time": 60.67441860464802,
          "velocity": 0.1889763779527559,
          "duration": 0.10465116279067388
        },
        {
          "name": "A#6",
          "midi": 94,
          "time": 60.67441860464802,
          "velocity": 0.12598425196850394,
          "duration": 0.04651162790696617
        },
        {
          "name": "B4",
          "midi": 71,
          "time": 60.68604651162476,
          "velocity": 0.2204724409448819,
          "duration": 0.0813953488371908
        },
        {
          "name": "C#5",
          "midi": 73,
          "time": 60.68604651162476,
          "velocity": 0.25984251968503935,
          "duration": 0.10465116279067388
        },
        {
          "name": "A6",
          "midi": 93,
          "time": 60.68604651162476,
          "velocity": 0.14960629921259844,
          "duration": 0.06976744186044925
        },
        {
          "name": "C#7",
          "midi": 97,
          "time": 60.68604651162476,
          "velocity": 0.2755905511811024,
          "duration": 0.41860465116273105
        },
        {
          "name": "G7",
          "midi": 103,
          "time": 60.68604651162476,
          "velocity": 0.11023622047244094,
          "duration": 0.034883720930224626
        },
        {
          "name": "F4",
          "midi": 65,
          "time": 60.6976744186015,
          "velocity": 0.2677165354330709,
          "duration": 0.023255813953483084
        },
        {
          "name": "D#5",
          "midi": 75,
          "time": 60.6976744186015,
          "velocity": 0.11811023622047244,
          "duration": 0.04651162790696617
        },
        {
          "name": "D#6",
          "midi": 87,
          "time": 60.6976744186015,
          "velocity": 0.14173228346456693,
          "duration": 0.034883720930224626
        },
        {
          "name": "F2",
          "midi": 41,
          "time": 60.70930232557824,
          "velocity": 0.2992125984251969,
          "duration": 0.023255813953483084
        },
        {
          "name": "F#5",
          "midi": 78,
          "time": 60.70930232557824,
          "velocity": 0.5118110236220472,
          "duration": 0.5465116279068951
        },
        {
          "name": "A#5",
          "midi": 82,
          "time": 60.70930232557824,
          "velocity": 0.11811023622047244,
          "duration": 0.034883720930224626
        },
        {
          "name": "C6",
          "midi": 84,
          "time": 60.70930232557824,
          "velocity": 0.2125984251968504,
          "duration": 0.06976744186044925
        },
        {
          "name": "G6",
          "midi": 91,
          "time": 60.70930232557824,
          "velocity": 0.14960629921259844,
          "duration": 0.05813953488370771
        },
        {
          "name": "A5",
          "midi": 81,
          "time": 60.732558139531726,
          "velocity": 0.23622047244094488,
          "duration": 0.06976744186044925
        },
        {
          "name": "A#6",
          "midi": 94,
          "time": 60.732558139531726,
          "velocity": 0.13385826771653545,
          "duration": 0.1395348837208985
        },
        {
          "name": "F#4",
          "midi": 66,
          "time": 60.74418604650847,
          "velocity": 0.36220472440944884,
          "duration": 0.39534883720924796
        },
        {
          "name": "F6",
          "midi": 89,
          "time": 60.74418604650847,
          "velocity": 0.12598425196850394,
          "duration": 0.034883720930224626
        },
        {
          "name": "B3",
          "midi": 59,
          "time": 60.75581395348521,
          "velocity": 0.30708661417322836,
          "duration": 0.05813953488370771
        },
        {
          "name": "A#5",
          "midi": 82,
          "time": 60.75581395348521,
          "velocity": 0.16535433070866143,
          "duration": 0.06976744186044925
        },
        {
          "name": "D5",
          "midi": 74,
          "time": 60.77906976743869,
          "velocity": 0.25984251968503935,
          "duration": 0.06976744186044925
        },
        {
          "name": "C#4",
          "midi": 61,
          "time": 60.802325581392175,
          "velocity": 0.25196850393700787,
          "duration": 0.023255813953483084
        },
        {
          "name": "D4",
          "midi": 62,
          "time": 60.82558139534566,
          "velocity": 0.2047244094488189,
          "duration": 0.04651162790696617
        },
        {
          "name": "A5",
          "midi": 81,
          "time": 60.8372093023224,
          "velocity": 0.07086614173228346,
          "duration": 0.04651162790696617
        },
        {
          "name": "D7",
          "midi": 98,
          "time": 60.84883720929914,
          "velocity": 0.2204724409448819,
          "duration": 0.034883720930224626
        },
        {
          "name": "E2",
          "midi": 40,
          "time": 60.86046511627588,
          "velocity": 0.33858267716535434,
          "duration": 0.023255813953483084
        },
        {
          "name": "C#4",
          "midi": 61,
          "time": 60.872093023252624,
          "velocity": 0.2125984251968504,
          "duration": 0.03488372093023173
        },
        {
          "name": "C#5",
          "midi": 73,
          "time": 60.872093023252624,
          "velocity": 0.2283464566929134,
          "duration": 0.16279069767441
        },
        {
          "name": "D4",
          "midi": 62,
          "time": 60.906976744182856,
          "velocity": 0.14960629921259844,
          "duration": 0.03488372093023173
        },
        {
          "name": "B3",
          "midi": 59,
          "time": 60.94186046511309,
          "velocity": 0.07086614173228346,
          "duration": 0.046511627906973274
        },
        {
          "name": "D7",
          "midi": 98,
          "time": 60.94186046511309,
          "velocity": 0.07086614173228346,
          "duration": 0.046511627906973274
        },
        {
          "name": "D4",
          "midi": 62,
          "time": 61.02325581395029,
          "velocity": 0.11811023622047244,
          "duration": 0.058139534883714816
        },
        {
          "name": "D#2",
          "midi": 39,
          "time": 61.034883720927034,
          "velocity": 0.23622047244094488,
          "duration": 0.02325581395349019
        },
        {
          "name": "D5",
          "midi": 74,
          "time": 61.034883720927034,
          "velocity": 0.11811023622047244,
          "duration": 0.046511627906973274
        },
        {
          "name": "C#5",
          "midi": 73,
          "time": 61.069767441857266,
          "velocity": 0.10236220472440945,
          "duration": 0.034883720930224626
        },
        {
          "name": "D4",
          "midi": 62,
          "time": 61.09302325581075,
          "velocity": 0.2755905511811024,
          "duration": 0.04651162790696617
        },
        {
          "name": "D#5",
          "midi": 75,
          "time": 61.09302325581075,
          "velocity": 0.3228346456692913,
          "duration": 0.06976744186044925
        },
        {
          "name": "F6",
          "midi": 89,
          "time": 61.09302325581075,
          "velocity": 0.1732283464566929,
          "duration": 0.034883720930224626
        },
        {
          "name": "A#3",
          "midi": 58,
          "time": 61.10465116278749,
          "velocity": 0.23622047244094488,
          "duration": 0.023255813953483084
        },
        {
          "name": "E6",
          "midi": 88,
          "time": 61.10465116278749,
          "velocity": 0.4645669291338583,
          "duration": 2.848837209302012
        },
        {
          "name": "G#6",
          "midi": 92,
          "time": 61.10465116278749,
          "velocity": 0.07086614173228346,
          "duration": 0.034883720930224626
        },
        {
          "name": "G#5",
          "midi": 80,
          "time": 61.11627906976423,
          "velocity": 0.2125984251968504,
          "duration": 0.2209302325581035
        },
        {
          "name": "A6",
          "midi": 93,
          "time": 61.11627906976423,
          "velocity": 0.11023622047244094,
          "duration": 0.034883720930224626
        },
        {
          "name": "A2",
          "midi": 45,
          "time": 61.127906976740974,
          "velocity": 0.6062992125984252,
          "duration": 0.011627906976741542
        },
        {
          "name": "G#4",
          "midi": 68,
          "time": 61.127906976740974,
          "velocity": 0.2047244094488189,
          "duration": 0.034883720930224626
        },
        {
          "name": "A#6",
          "midi": 94,
          "time": 61.127906976740974,
          "velocity": 0.23622047244094488,
          "duration": 0.04651162790696617
        },
        {
          "name": "F2",
          "midi": 41,
          "time": 61.139534883717715,
          "velocity": 0.6299212598425197,
          "duration": 0.011627906976741542
        },
        {
          "name": "B5",
          "midi": 83,
          "time": 61.139534883717715,
          "velocity": 0.23622047244094488,
          "duration": 0.25581395348833524
        },
        {
          "name": "B3",
          "midi": 59,
          "time": 61.15116279069446,
          "velocity": 0.33858267716535434,
          "duration": 0.023255813953483084
        },
        {
          "name": "D#7",
          "midi": 99,
          "time": 61.15116279069446,
          "velocity": 0.13385826771653545,
          "duration": 0.034883720930224626
        },
        {
          "name": "F4",
          "midi": 65,
          "time": 61.1627906976712,
          "velocity": 0.33070866141732286,
          "duration": 0.023255813953483084
        },
        {
          "name": "E5",
          "midi": 76,
          "time": 61.1627906976712,
          "velocity": 0.3937007874015748,
          "duration": 0.5930232558139039
        },
        {
          "name": "F1",
          "midi": 29,
          "time": 61.17441860464794,
          "velocity": 0.5354330708661418,
          "duration": 0.023255813953483084
        },
        {
          "name": "G#4",
          "midi": 68,
          "time": 61.17441860464794,
          "velocity": 0.2992125984251969,
          "duration": 0.46511627906972564
        },
        {
          "name": "A#5",
          "midi": 82,
          "time": 61.17441860464794,
          "velocity": 0.09448818897637795,
          "duration": 0.09302325581393944
        },
        {
          "name": "B6",
          "midi": 95,
          "time": 61.17441860464794,
          "velocity": 0.25984251968503935,
          "duration": 0.25581395348833524
        },
        {
          "name": "E4",
          "midi": 64,
          "time": 61.18604651162468,
          "velocity": 0.3700787401574803,
          "duration": 0.12790697674417117
        },
        {
          "name": "A#1",
          "midi": 34,
          "time": 61.19767441860142,
          "velocity": 0.5354330708661418,
          "duration": 0.023255813953483084
        },
        {
          "name": "D5",
          "midi": 74,
          "time": 61.19767441860142,
          "velocity": 0.18110236220472442,
          "duration": 0.10465116279068809
        },
        {
          "name": "B3",
          "midi": 59,
          "time": 61.209302325578165,
          "velocity": 0.3464566929133858,
          "duration": 0.11627906976742963
        },
        {
          "name": "D#3",
          "midi": 51,
          "time": 61.23255813953165,
          "velocity": 0.2440944881889764,
          "duration": 0.02325581395349019
        },
        {
          "name": "E3",
          "midi": 52,
          "time": 61.26744186046188,
          "velocity": 0.33858267716535434,
          "duration": 0.06976744186045636
        },
        {
          "name": "F#5",
          "midi": 78,
          "time": 61.26744186046188,
          "velocity": 0.2047244094488189,
          "duration": 0.18604651162787889
        },
        {
          "name": "E2",
          "midi": 40,
          "time": 61.31395348836885,
          "velocity": 0.41732283464566927,
          "duration": 0.023255813953483084
        },
        {
          "name": "D5",
          "midi": 74,
          "time": 61.31395348836885,
          "velocity": 0.3937007874015748,
          "duration": 0.44186046511624966
        },
        {
          "name": "A#3",
          "midi": 58,
          "time": 61.325581395345594,
          "velocity": 0.28346456692913385,
          "duration": 0.023255813953483084
        },
        {
          "name": "B4",
          "midi": 71,
          "time": 61.325581395345594,
          "velocity": 0.1968503937007874,
          "duration": 0.06976744186045636
        },
        {
          "name": "A6",
          "midi": 93,
          "time": 61.325581395345594,
          "velocity": 0.14960629921259844,
          "duration": 0.034883720930224626
        },
        {
          "name": "F2",
          "midi": 41,
          "time": 61.337209302322336,
          "velocity": 0.4409448818897638,
          "duration": 0.034883720930224626
        },
        {
          "name": "B3",
          "midi": 59,
          "time": 61.34883720929908,
          "velocity": 0.30708661417322836,
          "duration": 0.10465116279068098
        },
        {
          "name": "E4",
          "midi": 64,
          "time": 61.36046511627582,
          "velocity": 0.2283464566929134,
          "duration": 0.10465116279068098
        },
        {
          "name": "F1",
          "midi": 29,
          "time": 61.39534883720605,
          "velocity": 0.3937007874015748,
          "duration": 0.023255813953483084
        },
        {
          "name": "E3",
          "midi": 52,
          "time": 61.40697674418279,
          "velocity": 0.2204724409448819,
          "duration": 0.034883720930224626
        },
        {
          "name": "B5",
          "midi": 83,
          "time": 61.40697674418279,
          "velocity": 0.28346456692913385,
          "duration": 0.15116279069766136
        },
        {
          "name": "A2",
          "midi": 45,
          "time": 61.418604651159534,
          "velocity": 0.30708661417322836,
          "duration": 0.023255813953483084
        },
        {
          "name": "B4",
          "midi": 71,
          "time": 61.418604651159534,
          "velocity": 0.3937007874015748,
          "duration": 1.0581395348836082
        },
        {
          "name": "B6",
          "midi": 95,
          "time": 61.45348837208976,
          "velocity": 0.2992125984251969,
          "duration": 2.5465116279067104
        },
        {
          "name": "B2",
          "midi": 47,
          "time": 61.47674418604324,
          "velocity": 0.31496062992125984,
          "duration": 0.02325581395349019
        },
        {
          "name": "F#6",
          "midi": 90,
          "time": 61.47674418604324,
          "velocity": 0.23622047244094488,
          "duration": 0.1046511627907023
        },
        {
          "name": "A5",
          "midi": 81,
          "time": 61.51162790697347,
          "velocity": 0.4645669291338583,
          "duration": 0.3720930232557933
        },
        {
          "name": "D4",
          "midi": 62,
          "time": 61.53488372092696,
          "velocity": 0.23622047244094488,
          "duration": 0.22093023255813904
        },
        {
          "name": "A2",
          "midi": 45,
          "time": 61.616279069764175,
          "velocity": 0.25984251968503935,
          "duration": 0.02325581395349019
        },
        {
          "name": "F#4",
          "midi": 66,
          "time": 61.616279069764175,
          "velocity": 0.3700787401574803,
          "duration": 0.1860465116278931
        },
        {
          "name": "F#6",
          "midi": 90,
          "time": 61.616279069764175,
          "velocity": 0.10236220472440945,
          "duration": 0.06976744186046346
        },
        {
          "name": "A4",
          "midi": 69,
          "time": 61.74418604650836,
          "velocity": 0.2283464566929134,
          "duration": 0.06976744186044925
        },
        {
          "name": "C#6",
          "midi": 85,
          "time": 61.7558139534851,
          "velocity": 0.2440944881889764,
          "duration": 0.11627906976742253
        },
        {
          "name": "F#6",
          "midi": 90,
          "time": 61.7558139534851,
          "velocity": 0.07874015748031496,
          "duration": 0.04651162790696617
        },
        {
          "name": "D#7",
          "midi": 99,
          "time": 61.7558139534851,
          "velocity": 0.10236220472440945,
          "duration": 0.034883720930224626
        },
        {
          "name": "B3",
          "midi": 59,
          "time": 61.767441860461844,
          "velocity": 0.1968503937007874,
          "duration": 0.034883720930224626
        },
        {
          "name": "E5",
          "midi": 76,
          "time": 61.767441860461844,
          "velocity": 0.4330708661417323,
          "duration": 0.06976744186044925
        },
        {
          "name": "F2",
          "midi": 41,
          "time": 61.779069767438585,
          "velocity": 0.49606299212598426,
          "duration": 0.04651162790696617
        },
        {
          "name": "F4",
          "midi": 65,
          "time": 61.79069767441533,
          "velocity": 0.29133858267716534,
          "duration": 0.023255813953483084
        },
        {
          "name": "A3",
          "midi": 57,
          "time": 61.80232558139207,
          "velocity": 0.25196850393700787,
          "duration": 0.023255813953483084
        },
        {
          "name": "E4",
          "midi": 64,
          "time": 61.81395348836881,
          "velocity": 0.30708661417322836,
          "duration": 0.023255813953483084
        },
        {
          "name": "B3",
          "midi": 59,
          "time": 61.82558139534555,
          "velocity": 0.3464566929133858,
          "duration": 0.0813953488371979
        },
        {
          "name": "A4",
          "midi": 69,
          "time": 61.82558139534555,
          "velocity": 0.2283464566929134,
          "duration": 0.03488372093023173
        },
        {
          "name": "F#5",
          "midi": 78,
          "time": 61.82558139534555,
          "velocity": 0.11023622047244094,
          "duration": 0.058139534883714816
        },
        {
          "name": "D#2",
          "midi": 39,
          "time": 61.83720930232229,
          "velocity": 0.3779527559055118,
          "duration": 0.02325581395349019
        },
        {
          "name": "D#5",
          "midi": 75,
          "time": 61.83720930232229,
          "velocity": 0.23622047244094488,
          "duration": 0.02325581395349019
        },
        {
          "name": "F2",
          "midi": 41,
          "time": 61.86046511627578,
          "velocity": 0.4015748031496063,
          "duration": 0.023255813953483084
        },
        {
          "name": "E4",
          "midi": 64,
          "time": 61.86046511627578,
          "velocity": 0.23622047244094488,
          "duration": 0.034883720930224626
        },
        {
          "name": "E5",
          "midi": 76,
          "time": 61.86046511627578,
          "velocity": 0.4566929133858268,
          "duration": 0.15116279069765426
        },
        {
          "name": "F#4",
          "midi": 66,
          "time": 61.872093023252525,
          "velocity": 0.1732283464566929,
          "duration": 0.06976744186045636
        },
        {
          "name": "A4",
          "midi": 69,
          "time": 61.872093023252525,
          "velocity": 0.1732283464566929,
          "duration": 0.058139534883714816
        },
        {
          "name": "E2",
          "midi": 40,
          "time": 61.883720930229266,
          "velocity": 0.4015748031496063,
          "duration": 0.023255813953483084
        },
        {
          "name": "F2",
          "midi": 41,
          "time": 61.90697674418275,
          "velocity": 0.4409448818897638,
          "duration": 0.02325581395349019
        },
        {
          "name": "E2",
          "midi": 40,
          "time": 61.93023255813624,
          "velocity": 0.4409448818897638,
          "duration": 0.023255813953483084
        },
        {
          "name": "A4",
          "midi": 69,
          "time": 61.94186046511298,
          "velocity": 0.1968503937007874,
          "duration": 0.10465116279068098
        },
        {
          "name": "C#6",
          "midi": 85,
          "time": 61.95348837208972,
          "velocity": 0.09448818897637795,
          "duration": 0.1627906976744029
        },
        {
          "name": "B3",
          "midi": 59,
          "time": 61.965116279066464,
          "velocity": 0.2755905511811024,
          "duration": 0.046511627906973274
        },
        {
          "name": "B2",
          "midi": 47,
          "time": 61.976744186043206,
          "velocity": 0.48031496062992124,
          "duration": 0.058139534883714816
        },
        {
          "name": "E5",
          "midi": 76,
          "time": 62.02325581395018,
          "velocity": 0.3779527559055118,
          "duration": 1.034883720930111
        },
        {
          "name": "B2",
          "midi": 47,
          "time": 62.04651162790366,
          "velocity": 0.41732283464566927,
          "duration": 0.1046511627906952
        },
        {
          "name": "A#1",
          "midi": 34,
          "time": 62.058139534880404,
          "velocity": 0.33070866141732286,
          "duration": 0.02325581395349019
        },
        {
          "name": "B2",
          "midi": 47,
          "time": 62.1627906976711,
          "velocity": 0.30708661417322836,
          "duration": 0.023255813953483084
        },
        {
          "name": "A5",
          "midi": 81,
          "time": 62.1627906976711,
          "velocity": 0.3937007874015748,
          "duration": 0.2441860465115937
        },
        {
          "name": "F#5",
          "midi": 78,
          "time": 62.17441860464784,
          "velocity": 0.3228346456692913,
          "duration": 0.36046511627901623
        },
        {
          "name": "D#6",
          "midi": 87,
          "time": 62.17441860464784,
          "velocity": 0.18110236220472442,
          "duration": 0.058139534883714816
        },
        {
          "name": "F4",
          "midi": 65,
          "time": 62.18604651162458,
          "velocity": 0.25984251968503935,
          "duration": 0.046511627906973274
        },
        {
          "name": "B2",
          "midi": 47,
          "time": 62.20930232557807,
          "velocity": 0.33858267716535434,
          "duration": 0.023255813953483084
        },
        {
          "name": "G#4",
          "midi": 68,
          "time": 62.220930232554814,
          "velocity": 0.15748031496062992,
          "duration": 0.04651162790696617
        },
        {
          "name": "E4",
          "midi": 64,
          "time": 62.232558139531555,
          "velocity": 0.31496062992125984,
          "duration": 0.023255813953483084
        },
        {
          "name": "E2",
          "midi": 40,
          "time": 62.2441860465083,
          "velocity": 0.4409448818897638,
          "duration": 0.023255813953483084
        },
        {
          "name": "D#4",
          "midi": 63,
          "time": 62.25581395348504,
          "velocity": 0.2283464566929134,
          "duration": 0.034883720930224626
        },
        {
          "name": "E3",
          "midi": 52,
          "time": 62.26744186046178,
          "velocity": 0.2125984251968504,
          "duration": 0.05813953488370771
        },
        {
          "name": "E2",
          "midi": 40,
          "time": 62.27906976743852,
          "velocity": 0.4094488188976378,
          "duration": 0.05813953488370771
        },
        {
          "name": "B3",
          "midi": 59,
          "time": 62.27906976743852,
          "velocity": 0.2283464566929134,
          "duration": 0.023255813953483084
        },
        {
          "name": "B3",
          "midi": 59,
          "time": 62.313953488368746,
          "velocity": 0.1968503937007874,
          "duration": 0.081395348837205
        },
        {
          "name": "D#6",
          "midi": 87,
          "time": 62.32558139534549,
          "velocity": 0.18110236220472442,
          "duration": 0.11627906976742963
        },
        {
          "name": "F2",
          "midi": 41,
          "time": 62.33720930232223,
          "velocity": 0.3779527559055118,
          "duration": 0.04651162790698038
        },
        {
          "name": "A4",
          "midi": 69,
          "time": 62.36046511627572,
          "velocity": 0.07874015748031496,
          "duration": 0.046511627906973274
        },
        {
          "name": "E2",
          "midi": 40,
          "time": 62.38372093022921,
          "velocity": 0.3937007874015748,
          "duration": 0.034883720930224626
        },
        {
          "name": "F4",
          "midi": 65,
          "time": 62.40697674418269,
          "velocity": 0.2677165354330709,
          "duration": 0.023255813953483084
        },
        {
          "name": "G#5",
          "midi": 80,
          "time": 62.40697674418269,
          "velocity": 0.1889763779527559,
          "duration": 0.12790697674416407
        },
        {
          "name": "C6",
          "midi": 84,
          "time": 62.40697674418269,
          "velocity": 0.14173228346456693,
          "duration": 0.05813953488370771
        },
        {
          "name": "A5",
          "midi": 81,
          "time": 62.418604651159434,
          "velocity": 0.1968503937007874,
          "duration": 0.04651162790696617
        },
        {
          "name": "E4",
          "midi": 64,
          "time": 62.430232558136176,
          "velocity": 0.2440944881889764,
          "duration": 0.023255813953483084
        },
        {
          "name": "A#5",
          "midi": 82,
          "time": 62.44186046511292,
          "velocity": 0.14173228346456693,
          "duration": 0.06976744186045636
        },
        {
          "name": "B3",
          "midi": 59,
          "time": 62.45348837208966,
          "velocity": 0.30708661417322836,
          "duration": 0.10465116279068809
        },
        {
          "name": "E4",
          "midi": 64,
          "time": 62.4651162790664,
          "velocity": 0.1968503937007874,
          "duration": 0.046511627906973274
        },
        {
          "name": "E2",
          "midi": 40,
          "time": 62.48837209301988,
          "velocity": 0.3858267716535433,
          "duration": 0.09302325581394655
        },
        {
          "name": "F#4",
          "midi": 66,
          "time": 62.523255813950115,
          "velocity": 0.14960629921259844,
          "duration": 0.046511627906973274
        },
        {
          "name": "G5",
          "midi": 79,
          "time": 62.59302325581057,
          "velocity": 0.3543307086614173,
          "duration": 0.23255813953485927
        },
        {
          "name": "C4",
          "midi": 60,
          "time": 62.60465116278731,
          "velocity": 0.11023622047244094,
          "duration": 0.03488372093023173
        },
        {
          "name": "G4",
          "midi": 67,
          "time": 62.60465116278731,
          "velocity": 0.31496062992125984,
          "duration": 0.23255813953485927
        },
        {
          "name": "D6",
          "midi": 86,
          "time": 62.616279069764055,
          "velocity": 0.12598425196850394,
          "duration": 0.10465116279068809
        },
        {
          "name": "C#3",
          "midi": 49,
          "time": 62.639534883717545,
          "velocity": 0.2440944881889764,
          "duration": 0.023255813953483084
        },
        {
          "name": "F4",
          "midi": 65,
          "time": 62.639534883717545,
          "velocity": 0.31496062992125984,
          "duration": 0.023255813953483084
        },
        {
          "name": "C4",
          "midi": 60,
          "time": 62.651162790694286,
          "velocity": 0.25196850393700787,
          "duration": 0.023255813953483084
        },
        {
          "name": "F2",
          "midi": 41,
          "time": 62.66279069767103,
          "velocity": 0.4566929133858268,
          "duration": 0.03488372093023173
        },
        {
          "name": "E4",
          "midi": 64,
          "time": 62.66279069767103,
          "velocity": 0.25196850393700787,
          "duration": 0.03488372093023173
        },
        {
          "name": "G3",
          "midi": 55,
          "time": 62.67441860464777,
          "velocity": 0.14173228346456693,
          "duration": 0.03488372093023173
        },
        {
          "name": "D#4",
          "midi": 63,
          "time": 62.69767441860126,
          "velocity": 0.2047244094488189,
          "duration": 0.034883720930224626
        },
        {
          "name": "B3",
          "midi": 59,
          "time": 62.709302325578,
          "velocity": 0.15748031496062992,
          "duration": 0.046511627906973274
        },
        {
          "name": "F#2",
          "midi": 42,
          "time": 62.732558139531484,
          "velocity": 0.2755905511811024,
          "duration": 0.02325581395349019
        },
        {
          "name": "F2",
          "midi": 41,
          "time": 62.767441860461716,
          "velocity": 0.47244094488188976,
          "duration": 0.046511627906973274
        },
        {
          "name": "G3",
          "midi": 55,
          "time": 62.80232558139195,
          "velocity": 0.3228346456692913,
          "duration": 0.023255813953483084
        },
        {
          "name": "C2",
          "midi": 36,
          "time": 62.81395348836869,
          "velocity": 0.5590551181102362,
          "duration": 0.011627906976741542
        },
        {
          "name": "A#4",
          "midi": 70,
          "time": 62.81395348836869,
          "velocity": 0.25984251968503935,
          "duration": 0.04651162790696617
        },
        {
          "name": "B1",
          "midi": 35,
          "time": 62.82558139534543,
          "velocity": 0.5433070866141733,
          "duration": 0.011627906976741542
        },
        {
          "name": "F#3",
          "midi": 54,
          "time": 62.82558139534543,
          "velocity": 0.2992125984251969,
          "duration": 0.023255813953483084
        },
        {
          "name": "E4",
          "midi": 64,
          "time": 62.82558139534543,
          "velocity": 0.33858267716535434,
          "duration": 0.023255813953483084
        },
        {
          "name": "F#5",
          "midi": 78,
          "time": 62.82558139534543,
          "velocity": 0.23622047244094488,
          "duration": 0.05813953488370771
        },
        {
          "name": "B5",
          "midi": 83,
          "time": 62.82558139534543,
          "velocity": 0.14173228346456693,
          "duration": 0.11627906976742253
        },
        {
          "name": "A1",
          "midi": 33,
          "time": 62.83720930232217,
          "velocity": 0.5826771653543307,
          "duration": 0.034883720930224626
        },
        {
          "name": "C3",
          "midi": 48,
          "time": 62.83720930232217,
          "velocity": 0.47244094488188976,
          "duration": 0.023255813953483084
        },
        {
          "name": "D5",
          "midi": 74,
          "time": 62.83720930232217,
          "velocity": 0.1968503937007874,
          "duration": 0.12790697674416407
        },
        {
          "name": "G#5",
          "midi": 80,
          "time": 62.83720930232217,
          "velocity": 0.2440944881889764,
          "duration": 0.11627906976742253
        },
        {
          "name": "D#4",
          "midi": 63,
          "time": 62.848837209298914,
          "velocity": 0.2992125984251969,
          "duration": 0.023255813953483084
        },
        {
          "name": "B4",
          "midi": 71,
          "time": 62.848837209298914,
          "velocity": 0.2677165354330709,
          "duration": 0.1860465116278931
        },
        {
          "name": "C2",
          "midi": 36,
          "time": 62.8720930232524,
          "velocity": 0.5748031496062992,
          "duration": 0.011627906976741542
        },
        {
          "name": "G#3",
          "midi": 56,
          "time": 62.8720930232524,
          "velocity": 0.33070866141732286,
          "duration": 0.034883720930224626
        },
        {
          "name": "E4",
          "midi": 64,
          "time": 62.8720930232524,
          "velocity": 0.30708661417322836,
          "duration": 0.06976744186045636
        },
        {
          "name": "A1",
          "midi": 33,
          "time": 62.88372093022914,
          "velocity": 0.5511811023622047,
          "duration": 0.011627906976741542
        },
        {
          "name": "F2",
          "midi": 41,
          "time": 62.88372093022914,
          "velocity": 0.5196850393700787,
          "duration": 0.011627906976741542
        },
        {
          "name": "F1",
          "midi": 29,
          "time": 62.89534883720588,
          "velocity": 0.5433070866141733,
          "duration": 0.011627906976741542
        },
        {
          "name": "F#2",
          "midi": 42,
          "time": 62.89534883720588,
          "velocity": 0.5196850393700787,
          "duration": 0.011627906976741542
        },
        {
          "name": "B3",
          "midi": 59,
          "time": 62.90697674418262,
          "velocity": 0.36220472440944884,
          "duration": 0.081395348837205
        },
        {
          "name": "F#5",
          "midi": 78,
          "time": 62.90697674418262,
          "velocity": 0.18110236220472442,
          "duration": 0.046511627906973274
        },
        {
          "name": "F1",
          "midi": 29,
          "time": 62.93023255813611,
          "velocity": 0.4645669291338583,
          "duration": 0.023255813953483084
        },
        {
          "name": "F#4",
          "midi": 66,
          "time": 62.94186046511285,
          "velocity": 0.2677165354330709,
          "duration": 0.023255813953483084
        },
        {
          "name": "G#4",
          "midi": 68,
          "time": 62.965116279066336,
          "velocity": 0.3464566929133858,
          "duration": 0.30232558139532273
        },
        {
          "name": "C4",
          "midi": 60,
          "time": 62.98837209301983,
          "velocity": 0.2440944881889764,
          "duration": 0.02325581395349019
        },
        {
          "name": "E2",
          "midi": 40,
          "time": 63.01162790697332,
          "velocity": 0.3779527559055118,
          "duration": 0.02325581395349019
        },
        {
          "name": "E4",
          "midi": 64,
          "time": 63.01162790697332,
          "velocity": 0.30708661417322836,
          "duration": 0.2674418604650839
        },
        {
          "name": "F#5",
          "midi": 78,
          "time": 63.01162790697332,
          "velocity": 0.10236220472440945,
          "duration": 0.046511627906973274
        },
        {
          "name": "B4",
          "midi": 71,
          "time": 63.04651162790355,
          "velocity": 0.1732283464566929,
          "duration": 0.12790697674417828
        },
        {
          "name": "B3",
          "midi": 59,
          "time": 63.05813953488029,
          "velocity": 0.18110236220472442,
          "duration": 0.13953488372091982
        },
        {
          "name": "E5",
          "midi": 76,
          "time": 63.06976744185703,
          "velocity": 0.4645669291338583,
          "duration": 0.9418604651161857
        },
        {
          "name": "A2",
          "midi": 45,
          "time": 63.139534883717495,
          "velocity": 0.2755905511811024,
          "duration": 0.02325581395349019
        },
        {
          "name": "F#5",
          "midi": 78,
          "time": 63.139534883717495,
          "velocity": 0.08661417322834646,
          "duration": 0.06976744186045636
        },
        {
          "name": "E2",
          "midi": 40,
          "time": 63.18604651162447,
          "velocity": 0.4094488188976378,
          "duration": 0.023255813953483084
        },
        {
          "name": "B4",
          "midi": 71,
          "time": 63.20930232557795,
          "velocity": 0.14960629921259844,
          "duration": 0.15116279069764715
        },
        {
          "name": "E2",
          "midi": 40,
          "time": 63.22093023255469,
          "velocity": 0.4015748031496063,
          "duration": 0.04651162790696617
        },
        {
          "name": "D5",
          "midi": 74,
          "time": 63.232558139531434,
          "velocity": 0.2125984251968504,
          "duration": 0.15116279069765426
        },
        {
          "name": "F#5",
          "midi": 78,
          "time": 63.232558139531434,
          "velocity": 0.3464566929133858,
          "duration": 0.1627906976743958
        },
        {
          "name": "A5",
          "midi": 81,
          "time": 63.244186046508176,
          "velocity": 0.3228346456692913,
          "duration": 0.4069767441859966
        },
        {
          "name": "G4",
          "midi": 67,
          "time": 63.25581395348492,
          "velocity": 0.2440944881889764,
          "duration": 0.034883720930224626
        },
        {
          "name": "D#2",
          "midi": 39,
          "time": 63.26744186046166,
          "velocity": 0.4251968503937008,
          "duration": 0.034883720930224626
        },
        {
          "name": "E3",
          "midi": 52,
          "time": 63.2790697674384,
          "velocity": 0.09448818897637795,
          "duration": 0.04651162790696617
        },
        {
          "name": "B3",
          "midi": 59,
          "time": 63.2790697674384,
          "velocity": 0.11023622047244094,
          "duration": 0.034883720930224626
        },
        {
          "name": "G#4",
          "midi": 68,
          "time": 63.29069767441514,
          "velocity": 0.1732283464566929,
          "duration": 0.10465116279068809
        },
        {
          "name": "E2",
          "midi": 40,
          "time": 63.302325581391884,
          "velocity": 0.3858267716535433,
          "duration": 0.046511627906973274
        },
        {
          "name": "D4",
          "midi": 62,
          "time": 63.3604651162756,
          "velocity": 0.13385826771653545,
          "duration": 0.10465116279068809
        },
        {
          "name": "B4",
          "midi": 71,
          "time": 63.40697674418257,
          "velocity": 0.10236220472440945,
          "duration": 0.058139534883714816
        },
        {
          "name": "G#4",
          "midi": 68,
          "time": 63.453488372089545,
          "velocity": 0.2283464566929134,
          "duration": 0.034883720930224626
        },
        {
          "name": "G5",
          "midi": 79,
          "time": 63.453488372089545,
          "velocity": 0.33070866141732286,
          "duration": 0.4767441860464743
        },
        {
          "name": "E4",
          "midi": 64,
          "time": 63.46511627906629,
          "velocity": 0.25984251968503935,
          "duration": 0.023255813953483084
        },
        {
          "name": "B5",
          "midi": 83,
          "time": 63.46511627906629,
          "velocity": 0.14960629921259844,
          "duration": 0.10465116279068098
        },
        {
          "name": "C3",
          "midi": 48,
          "time": 63.47674418604303,
          "velocity": 0.30708661417322836,
          "duration": 0.023255813953483084
        },
        {
          "name": "B4",
          "midi": 71,
          "time": 63.47674418604303,
          "velocity": 0.18110236220472442,
          "duration": 0.19767441860462753
        },
        {
          "name": "E2",
          "midi": 40,
          "time": 63.48837209301977,
          "velocity": 0.47244094488188976,
          "duration": 0.023255813953483084
        },
        {
          "name": "E4",
          "midi": 64,
          "time": 63.49999999999651,
          "velocity": 0.3779527559055118,
          "duration": 0.023255813953483084
        },
        {
          "name": "F#5",
          "midi": 78,
          "time": 63.49999999999651,
          "velocity": 0.1968503937007874,
          "duration": 0.058139534883714816
        },
        {
          "name": "B3",
          "midi": 59,
          "time": 63.523255813949994,
          "velocity": 0.33070866141732286,
          "duration": 0.1046511627906952
        },
        {
          "name": "F2",
          "midi": 41,
          "time": 63.534883720926736,
          "velocity": 0.36220472440944884,
          "duration": 0.02325581395349019
        },
        {
          "name": "E4",
          "midi": 64,
          "time": 63.534883720926736,
          "velocity": 0.30708661417322836,
          "duration": 0.1046511627906952
        },
        {
          "name": "E2",
          "midi": 40,
          "time": 63.558139534880226,
          "velocity": 0.3543307086614173,
          "duration": 0.03488372093023173
        },
        {
          "name": "G4",
          "midi": 67,
          "time": 63.59302325581046,
          "velocity": 0.2204724409448819,
          "duration": 0.0813953488371979
        },
        {
          "name": "D5",
          "midi": 74,
          "time": 63.59302325581046,
          "velocity": 0.08661417322834646,
          "duration": 0.03488372093023173
        },
        {
          "name": "E3",
          "midi": 52,
          "time": 63.63953488371743,
          "velocity": 0.25196850393700787,
          "duration": 0.034883720930224626
        },
        {
          "name": "E2",
          "midi": 40,
          "time": 63.65116279069417,
          "velocity": 0.4881889763779528,
          "duration": 0.034883720930224626
        },
        {
          "name": "B3",
          "midi": 59,
          "time": 63.662790697670914,
          "velocity": 0.1889763779527559,
          "duration": 0.046511627906973274
        },
        {
          "name": "D6",
          "midi": 86,
          "time": 63.674418604647656,
          "velocity": 0.09448818897637795,
          "duration": 0.12790697674418539
        },
        {
          "name": "D#2",
          "midi": 39,
          "time": 63.6860465116244,
          "velocity": 0.41732283464566927,
          "duration": 0.02325581395349019
        },
        {
          "name": "B2",
          "midi": 47,
          "time": 63.70930232557789,
          "velocity": 0.28346456692913385,
          "duration": 0.11627906976744384
        },
        {
          "name": "G4",
          "midi": 67,
          "time": 63.70930232557789,
          "velocity": 0.2677165354330709,
          "duration": 0.2093023255813904
        },
        {
          "name": "G#1",
          "midi": 32,
          "time": 63.72093023255463,
          "velocity": 0.2677165354330709,
          "duration": 0.02325581395349019
        },
        {
          "name": "G#1",
          "midi": 32,
          "time": 63.80232558139184,
          "velocity": 0.25984251968503935,
          "duration": 0.02325581395349019
        },
        {
          "name": "B2",
          "midi": 47,
          "time": 63.84883720929882,
          "velocity": 0.2440944881889764,
          "duration": 0.03488372093023173
        },
        {
          "name": "A#2",
          "midi": 46,
          "time": 63.88372093022905,
          "velocity": 0.4251968503937008,
          "duration": 0.023255813953483084
        },
        {
          "name": "F#5",
          "midi": 78,
          "time": 63.88372093022905,
          "velocity": 0.28346456692913385,
          "duration": 0.2790697674418041
        },
        {
          "name": "A5",
          "midi": 81,
          "time": 63.88372093022905,
          "velocity": 0.30708661417322836,
          "duration": 0.2441860465115795
        },
        {
          "name": "D6",
          "midi": 86,
          "time": 63.88372093022905,
          "velocity": 0.16535433070866143,
          "duration": 0.05813953488370771
        },
        {
          "name": "D5",
          "midi": 74,
          "time": 63.895348837205795,
          "velocity": 0.2047244094488189,
          "duration": 0.034883720930224626
        },
        {
          "name": "B3",
          "midi": 59,
          "time": 63.906976744182536,
          "velocity": 0.2283464566929134,
          "duration": 0.023255813953483084
        },
        {
          "name": "D#4",
          "midi": 63,
          "time": 63.906976744182536,
          "velocity": 0.29133858267716534,
          "duration": 0.023255813953483084
        },
        {
          "name": "B2",
          "midi": 47,
          "time": 63.91860465115928,
          "velocity": 0.4094488188976378,
          "duration": 0.023255813953483084
        },
        {
          "name": "B4",
          "midi": 71,
          "time": 63.91860465115928,
          "velocity": 0.23622047244094488,
          "duration": 0.05813953488370771
        },
        {
          "name": "E4",
          "midi": 64,
          "time": 63.93023255813602,
          "velocity": 0.29133858267716534,
          "duration": 0.034883720930224626
        },
        {
          "name": "D#2",
          "midi": 39,
          "time": 63.9534883720895,
          "velocity": 0.5196850393700787,
          "duration": 0.011627906976741542
        },
        {
          "name": "B3",
          "midi": 59,
          "time": 63.9534883720895,
          "velocity": 0.18110236220472442,
          "duration": 0.034883720930224626
        },
        {
          "name": "D#6",
          "midi": 87,
          "time": 63.9534883720895,
          "velocity": 0.3228346456692913,
          "duration": 0.10465116279068098
        },
        {
          "name": "E2",
          "midi": 40,
          "time": 63.965116279066244,
          "velocity": 0.5433070866141733,
          "duration": 0.034883720930224626
        },
        {
          "name": "G4",
          "midi": 67,
          "time": 63.965116279066244,
          "velocity": 0.14173228346456693,
          "duration": 0.058139534883714816
        },
        {
          "name": "D4",
          "midi": 62,
          "time": 63.98837209301973,
          "velocity": 0.11811023622047244,
          "duration": 0.10465116279068098
        },
        {
          "name": "A3",
          "midi": 57,
          "time": 63.99999999999647,
          "velocity": 0.2440944881889764,
          "duration": 0.058139534883714816
        },
        {
          "name": "D#5",
          "midi": 75,
          "time": 63.99999999999647,
          "velocity": 0.2755905511811024,
          "duration": 0.03488372093023173
        },
        {
          "name": "A#6",
          "midi": 94,
          "time": 63.99999999999647,
          "velocity": 0.16535433070866143,
          "duration": 0.0813953488371979
        },
        {
          "name": "B2",
          "midi": 47,
          "time": 64.02325581394996,
          "velocity": 0.4330708661417323,
          "duration": 0.034883720930224626
        },
        {
          "name": "F#4",
          "midi": 66,
          "time": 64.02325581394996,
          "velocity": 0.15748031496062992,
          "duration": 0.06976744186044925
        },
        {
          "name": "E2",
          "midi": 40,
          "time": 64.04651162790344,
          "velocity": 0.4251968503937008,
          "duration": 0.034883720930224626
        },
        {
          "name": "D#5",
          "midi": 75,
          "time": 64.04651162790344,
          "velocity": 0.2992125984251969,
          "duration": 0.034883720930224626
        },
        {
          "name": "E6",
          "midi": 88,
          "time": 64.05813953488018,
          "velocity": 0.29133858267716534,
          "duration": 0.1395348837208985
        },
        {
          "name": "A#3",
          "midi": 58,
          "time": 64.08139534883367,
          "velocity": 0.2204724409448819,
          "duration": 0.04651162790696617
        },
        {
          "name": "E5",
          "midi": 76,
          "time": 64.08139534883367,
          "velocity": 0.4251968503937008,
          "duration": 0.17441860465112313
        },
        {
          "name": "B6",
          "midi": 95,
          "time": 64.08139534883367,
          "velocity": 0.2125984251968504,
          "duration": 0.10465116279067388
        },
        {
          "name": "E2",
          "midi": 40,
          "time": 64.09302325581041,
          "velocity": 0.5118110236220472,
          "duration": 0.011627906976741542
        },
        {
          "name": "C#2",
          "midi": 37,
          "time": 64.10465116278715,
          "velocity": 0.5905511811023622,
          "duration": 0.023255813953483084
        },
        {
          "name": "D#4",
          "midi": 63,
          "time": 64.10465116278715,
          "velocity": 0.30708661417322836,
          "duration": 0.023255813953483084
        },
        {
          "name": "D5",
          "midi": 74,
          "time": 64.11627906976389,
          "velocity": 0.33070866141732286,
          "duration": 0.43023255813945127
        },
        {
          "name": "C#6",
          "midi": 85,
          "time": 64.11627906976389,
          "velocity": 0.15748031496062992,
          "duration": 0.09302325581393234
        },
        {
          "name": "C7",
          "midi": 96,
          "time": 64.11627906976389,
          "velocity": 0.2047244094488189,
          "duration": 0.11627906976741542
        },
        {
          "name": "D#2",
          "midi": 39,
          "time": 64.12790697674063,
          "velocity": 0.5118110236220472,
          "duration": 0.023255813953483084
        },
        {
          "name": "D4",
          "midi": 62,
          "time": 64.12790697674063,
          "velocity": 0.30708661417322836,
          "duration": 0.034883720930224626
        },
        {
          "name": "B5",
          "midi": 83,
          "time": 64.12790697674063,
          "velocity": 0.11811023622047244,
          "duration": 0.04651162790696617
        },
        {
          "name": "D7",
          "midi": 98,
          "time": 64.12790697674063,
          "velocity": 0.13385826771653545,
          "duration": 0.05813953488370771
        },
        {
          "name": "B4",
          "midi": 71,
          "time": 64.13953488371737,
          "velocity": 0.08661417322834646,
          "duration": 0.04651162790696617
        },
        {
          "name": "A5",
          "midi": 81,
          "time": 64.13953488371737,
          "velocity": 0.30708661417322836,
          "duration": 0.09302325581393234
        },
        {
          "name": "G5",
          "midi": 79,
          "time": 64.15116279069412,
          "velocity": 0.2047244094488189,
          "duration": 0.04651162790696617
        },
        {
          "name": "A#6",
          "midi": 94,
          "time": 64.15116279069412,
          "velocity": 0.11023622047244094,
          "duration": 0.034883720930224626
        },
        {
          "name": "C3",
          "midi": 48,
          "time": 64.16279069767086,
          "velocity": 0.3937007874015748,
          "duration": 0.023255813953483084
        },
        {
          "name": "B3",
          "midi": 59,
          "time": 64.16279069767086,
          "velocity": 0.28346456692913385,
          "duration": 0.0813953488371908
        },
        {
          "name": "E4",
          "midi": 64,
          "time": 64.16279069767086,
          "velocity": 0.2677165354330709,
          "duration": 0.04651162790696617
        },
        {
          "name": "C6",
          "midi": 84,
          "time": 64.16279069767086,
          "velocity": 0.15748031496062992,
          "duration": 0.034883720930224626
        },
        {
          "name": "G1",
          "midi": 31,
          "time": 64.1744186046476,
          "velocity": 0.3858267716535433,
          "duration": 0.023255813953483084
        },
        {
          "name": "F#7",
          "midi": 102,
          "time": 64.18604651162434,
          "velocity": 0.1968503937007874,
          "duration": 0.05813953488370771
        },
        {
          "name": "E7",
          "midi": 100,
          "time": 64.19767441860108,
          "velocity": 0.07086614173228346,
          "duration": 0.034883720930224626
        },
        {
          "name": "B2",
          "midi": 47,
          "time": 64.20930232557782,
          "velocity": 0.3700787401574803,
          "duration": 0.04651162790696617
        },
        {
          "name": "F#6",
          "midi": 90,
          "time": 64.24418604650805,
          "velocity": 0.2440944881889764,
          "duration": 0.06976744186044925
        },
        {
          "name": "B2",
          "midi": 47,
          "time": 64.26744186046153,
          "velocity": 0.3228346456692913,
          "duration": 0.023255813953483084
        },
        {
          "name": "A5",
          "midi": 81,
          "time": 64.26744186046153,
          "velocity": 0.2204724409448819,
          "duration": 0.1395348837208985
        },
        {
          "name": "E6",
          "midi": 88,
          "time": 64.27906976743827,
          "velocity": 0.09448818897637795,
          "duration": 0.06976744186044925
        },
        {
          "name": "D4",
          "midi": 62,
          "time": 64.29069767441501,
          "velocity": 0.23622047244094488,
          "duration": 0.023255813953483084
        },
        {
          "name": "G3",
          "midi": 55,
          "time": 64.30232558139176,
          "velocity": 0.2677165354330709,
          "duration": 0.023255813953483084
        },
        {
          "name": "C4",
          "midi": 60,
          "time": 64.3139534883685,
          "velocity": 0.25196850393700787,
          "duration": 0.023255813953483084
        },
        {
          "name": "E2",
          "midi": 40,
          "time": 64.32558139534524,
          "velocity": 0.4330708661417323,
          "duration": 0.023255813953483084
        },
        {
          "name": "F1",
          "midi": 29,
          "time": 64.36046511627546,
          "velocity": 0.41732283464566927,
          "duration": 0.023255813953483084
        },
        {
          "name": "F#6",
          "midi": 90,
          "time": 64.39534883720569,
          "velocity": 0.14173228346456693,
          "duration": 0.034883720930224626
        },
        {
          "name": "F2",
          "midi": 41,
          "time": 64.40697674418243,
          "velocity": 0.3543307086614173,
          "duration": 0.023255813953483084
        },
        {
          "name": "B2",
          "midi": 47,
          "time": 64.51162790697312,
          "velocity": 0.2992125984251969,
          "duration": 0.023255813953483084
        },
        {
          "name": "A#1",
          "midi": 34,
          "time": 64.5348837209266,
          "velocity": 0.49606299212598426,
          "duration": 0.023255813953483084
        },
        {
          "name": "A#4",
          "midi": 70,
          "time": 64.5348837209266,
          "velocity": 0.13385826771653545,
          "duration": 0.034883720930224626
        },
        {
          "name": "C#5",
          "midi": 73,
          "time": 64.5348837209266,
          "velocity": 0.2047244094488189,
          "duration": 0.034883720930224626
        },
        {
          "name": "E6",
          "midi": 88,
          "time": 64.5348837209266,
          "velocity": 0.4566929133858268,
          "duration": 1.3720930232556157
        },
        {
          "name": "F#6",
          "midi": 90,
          "time": 64.5348837209266,
          "velocity": 0.16535433070866143,
          "duration": 0.034883720930224626
        },
        {
          "name": "D#4",
          "midi": 63,
          "time": 64.54651162790334,
          "velocity": 0.3858267716535433,
          "duration": 0.023255813953483084
        },
        {
          "name": "G4",
          "midi": 67,
          "time": 64.54651162790334,
          "velocity": 0.28346456692913385,
          "duration": 0.023255813953483084
        },
        {
          "name": "F#5",
          "midi": 78,
          "time": 64.54651162790334,
          "velocity": 0.1889763779527559,
          "duration": 0.034883720930224626
        },
        {
          "name": "G#5",
          "midi": 80,
          "time": 64.54651162790334,
          "velocity": 0.25196850393700787,
          "duration": 0.10465116279067388
        },
        {
          "name": "B5",
          "midi": 83,
          "time": 64.54651162790334,
          "velocity": 0.1732283464566929,
          "duration": 0.05813953488370771
        },
        {
          "name": "G#3",
          "midi": 56,
          "time": 64.55813953488008,
          "velocity": 0.28346456692913385,
          "duration": 0.023255813953483084
        },
        {
          "name": "A6",
          "midi": 93,
          "time": 64.55813953488008,
          "velocity": 0.11811023622047244,
          "duration": 0.05813953488370771
        },
        {
          "name": "G#1",
          "midi": 32,
          "time": 64.56976744185683,
          "velocity": 0.5275590551181102,
          "duration": 0.011627906976741542
        },
        {
          "name": "E4",
          "midi": 64,
          "time": 64.56976744185683,
          "velocity": 0.3779527559055118,
          "duration": 0.023255813953483084
        },
        {
          "name": "B4",
          "midi": 71,
          "time": 64.56976744185683,
          "velocity": 0.23622047244094488,
          "duration": 0.023255813953483084
        },
        {
          "name": "A#6",
          "midi": 94,
          "time": 64.56976744185683,
          "velocity": 0.23622047244094488,
          "duration": 0.034883720930224626
        },
        {
          "name": "C2",
          "midi": 36,
          "time": 64.58139534883357,
          "velocity": 0.5826771653543307,
          "duration": 0.011627906976741542
        },
        {
          "name": "D5",
          "midi": 74,
          "time": 64.58139534883357,
          "velocity": 0.2125984251968504,
          "duration": 0.034883720930224626
        },
        {
          "name": "D#7",
          "midi": 99,
          "time": 64.58139534883357,
          "velocity": 0.14960629921259844,
          "duration": 0.034883720930224626
        },
        {
          "name": "E2",
          "midi": 40,
          "time": 64.59302325581031,
          "velocity": 0.5748031496062992,
          "duration": 0.011627906976741542
        },
        {
          "name": "B3",
          "midi": 59,
          "time": 64.59302325581031,
          "velocity": 0.3779527559055118,
          "duration": 0.0813953488371908
        },
        {
          "name": "F4",
          "midi": 65,
          "time": 64.59302325581031,
          "velocity": 0.4015748031496063,
          "duration": 0.023255813953483084
        },
        {
          "name": "G#4",
          "midi": 68,
          "time": 64.59302325581031,
          "velocity": 0.33070866141732286,
          "duration": 0.5232558139533978
        },
        {
          "name": "E5",
          "midi": 76,
          "time": 64.59302325581031,
          "velocity": 0.4409448818897638,
          "duration": 0.6860465116277936
        },
        {
          "name": "F#5",
          "midi": 78,
          "time": 64.59302325581031,
          "velocity": 0.23622047244094488,
          "duration": 0.18604651162786467
        },
        {
          "name": "F#2",
          "midi": 42,
          "time": 64.60465116278705,
          "velocity": 0.5511811023622047,
          "duration": 0.011627906976741542
        },
        {
          "name": "B6",
          "midi": 95,
          "time": 64.60465116278705,
          "velocity": 0.47244094488188976,
          "duration": 1.82558139534855
        },
        {
          "name": "F2",
          "midi": 41,
          "time": 64.61627906976379,
          "velocity": 0.5511811023622047,
          "duration": 0.011627906976741542
        },
        {
          "name": "E4",
          "midi": 64,
          "time": 64.61627906976379,
          "velocity": 0.4094488188976378,
          "duration": 0.15116279069764005
        },
        {
          "name": "A5",
          "midi": 81,
          "time": 64.62790697674053,
          "velocity": 0.11811023622047244,
          "duration": 0.06976744186044925
        },
        {
          "name": "F#6",
          "midi": 90,
          "time": 64.62790697674053,
          "velocity": 0.4015748031496063,
          "duration": 0.2558139534883139
        },
        {
          "name": "E2",
          "midi": 40,
          "time": 64.65116279069402,
          "velocity": 0.47244094488188976,
          "duration": 0.04651162790696617
        },
        {
          "name": "C4",
          "midi": 60,
          "time": 64.6744186046475,
          "velocity": 0.29133858267716534,
          "duration": 0.023255813953483084
        },
        {
          "name": "D3",
          "midi": 50,
          "time": 64.68604651162424,
          "velocity": 0.25196850393700787,
          "duration": 0.023255813953483084
        },
        {
          "name": "B3",
          "midi": 59,
          "time": 64.69767441860098,
          "velocity": 0.3779527559055118,
          "duration": 0.05813953488370771
        },
        {
          "name": "D5",
          "midi": 74,
          "time": 64.69767441860098,
          "velocity": 0.11023622047244094,
          "duration": 0.06976744186044925
        },
        {
          "name": "E3",
          "midi": 52,
          "time": 64.70930232557772,
          "velocity": 0.2992125984251969,
          "duration": 0.023255813953483084
        },
        {
          "name": "C1",
          "midi": 24,
          "time": 64.72093023255447,
          "velocity": 0.3779527559055118,
          "duration": 0.023255813953483084
        },
        {
          "name": "F2",
          "midi": 41,
          "time": 64.7325581395312,
          "velocity": 0.3937007874015748,
          "duration": 0.04651162790696617
        },
        {
          "name": "B4",
          "midi": 71,
          "time": 64.75581395348469,
          "velocity": 0.12598425196850394,
          "duration": 0.15116279069764005
        },
        {
          "name": "E2",
          "midi": 40,
          "time": 64.77906976743817,
          "velocity": 0.41732283464566927,
          "duration": 0.034883720930224626
        },
        {
          "name": "B3",
          "midi": 59,
          "time": 64.77906976743817,
          "velocity": 0.2677165354330709,
          "duration": 0.10465116279067388
        },
        {
          "name": "E4",
          "midi": 64,
          "time": 64.79069767441491,
          "velocity": 0.2992125984251969,
          "duration": 0.11627906976741542
        },
        {
          "name": "E3",
          "midi": 52,
          "time": 64.83720930232188,
          "velocity": 0.16535433070866143,
          "duration": 0.04651162790696617
        },
        {
          "name": "A#0",
          "midi": 22,
          "time": 64.84883720929862,
          "velocity": 0.3464566929133858,
          "duration": 0.023255813953483084
        },
        {
          "name": "E2",
          "midi": 40,
          "time": 64.84883720929862,
          "velocity": 0.31496062992125984,
          "duration": 0.023255813953483084
        },
        {
          "name": "D5",
          "midi": 74,
          "time": 64.86046511627536,
          "velocity": 0.09448818897637795,
          "duration": 0.034883720930224626
        },
        {
          "name": "D#2",
          "midi": 39,
          "time": 64.88372093022885,
          "velocity": 0.33070866141732286,
          "duration": 0.023255813953483084
        },
        {
          "name": "A#3",
          "midi": 58,
          "time": 64.88372093022885,
          "velocity": 0.08661417322834646,
          "duration": 0.034883720930224626
        },
        {
          "name": "E3",
          "midi": 52,
          "time": 64.89534883720559,
          "velocity": 0.2204724409448819,
          "duration": 0.04651162790696617
        },
        {
          "name": "F#6",
          "midi": 90,
          "time": 64.93023255813581,
          "velocity": 0.25984251968503935,
          "duration": 0.09302325581394655
        },
        {
          "name": "E4",
          "midi": 64,
          "time": 64.94186046511255,
          "velocity": 0.1968503937007874,
          "duration": 0.034883720930224626
        },
        {
          "name": "D5",
          "midi": 74,
          "time": 64.9534883720893,
          "velocity": 0.2755905511811024,
          "duration": 0.19767441860464885
        },
        {
          "name": "A5",
          "midi": 81,
          "time": 64.96511627906604,
          "velocity": 0.31496062992125984,
          "duration": 0.33720930232554736
        },
        {
          "name": "D4",
          "midi": 62,
          "time": 64.97674418604278,
          "velocity": 0.25984251968503935,
          "duration": 0.05813953488372192
        },
        {
          "name": "B4",
          "midi": 71,
          "time": 64.97674418604278,
          "velocity": 0.11023622047244094,
          "duration": 0.081395348837205
        },
        {
          "name": "D4",
          "midi": 62,
          "time": 65.04651162790324,
          "velocity": 0.2283464566929134,
          "duration": 0.12790697674418539
        },
        {
          "name": "F#6",
          "midi": 90,
          "time": 65.05813953487998,
          "velocity": 0.07874015748031496,
          "duration": 0.04651162790698038
        },
        {
          "name": "A#3",
          "midi": 58,
          "time": 65.1162790697637,
          "velocity": 0.07874015748031496,
          "duration": 0.03488372093023884
        },
        {
          "name": "E2",
          "midi": 40,
          "time": 65.15116279069395,
          "velocity": 0.30708661417322836,
          "duration": 0.034883720930224626
        },
        {
          "name": "B4",
          "midi": 71,
          "time": 65.15116279069395,
          "velocity": 0.13385826771653545,
          "duration": 0.06976744186044925
        },
        {
          "name": "G4",
          "midi": 67,
          "time": 65.17441860464743,
          "velocity": 0.2125984251968504,
          "duration": 0.034883720930224626
        },
        {
          "name": "A3",
          "midi": 57,
          "time": 65.18604651162417,
          "velocity": 0.23622047244094488,
          "duration": 0.023255813953483084
        },
        {
          "name": "A4",
          "midi": 69,
          "time": 65.18604651162417,
          "velocity": 0.2755905511811024,
          "duration": 0.29069767441855277
        },
        {
          "name": "C#6",
          "midi": 85,
          "time": 65.18604651162417,
          "velocity": 0.25984251968503935,
          "duration": 0.3255813953487774
        },
        {
          "name": "F4",
          "midi": 65,
          "time": 65.20930232557765,
          "velocity": 0.30708661417322836,
          "duration": 0.023255813953483084
        },
        {
          "name": "F#2",
          "midi": 42,
          "time": 65.2209302325544,
          "velocity": 0.49606299212598426,
          "duration": 0.023255813953483084
        },
        {
          "name": "F3",
          "midi": 53,
          "time": 65.2209302325544,
          "velocity": 0.23622047244094488,
          "duration": 0.023255813953483084
        },
        {
          "name": "B4",
          "midi": 71,
          "time": 65.23255813953114,
          "velocity": 0.15748031496062992,
          "duration": 0.034883720930224626
        },
        {
          "name": "F2",
          "midi": 41,
          "time": 65.24418604650788,
          "velocity": 0.47244094488188976,
          "duration": 0.034883720930224626
        },
        {
          "name": "B3",
          "midi": 59,
          "time": 65.26744186046136,
          "velocity": 0.33070866141732286,
          "duration": 0.06976744186044925
        },
        {
          "name": "D5",
          "midi": 74,
          "time": 65.29069767441484,
          "velocity": 0.11023622047244094,
          "duration": 0.06976744186044925
        },
        {
          "name": "E5",
          "midi": 76,
          "time": 65.29069767441484,
          "velocity": 0.4409448818897638,
          "duration": 0.5697674418604066
        },
        {
          "name": "F#4",
          "midi": 66,
          "time": 65.31395348836833,
          "velocity": 0.1968503937007874,
          "duration": 0.0813953488371908
        },
        {
          "name": "F2",
          "midi": 41,
          "time": 65.34883720929855,
          "velocity": 0.3779527559055118,
          "duration": 0.034883720930224626
        },
        {
          "name": "F#3",
          "midi": 54,
          "time": 65.37209302325203,
          "velocity": 0.28346456692913385,
          "duration": 0.023255813953483084
        },
        {
          "name": "F3",
          "midi": 53,
          "time": 65.39534883720552,
          "velocity": 0.4251968503937008,
          "duration": 0.081395348837205
        },
        {
          "name": "F#2",
          "midi": 42,
          "time": 65.418604651159,
          "velocity": 0.3858267716535433,
          "duration": 0.03488372093023884
        },
        {
          "name": "E2",
          "midi": 40,
          "time": 65.46511627906598,
          "velocity": 0.25984251968503935,
          "duration": 0.023255813953483084
        },
        {
          "name": "F#3",
          "midi": 54,
          "time": 65.47674418604272,
          "velocity": 0.41732283464566927,
          "duration": 0.023255813953483084
        },
        {
          "name": "D5",
          "midi": 74,
          "time": 65.47674418604272,
          "velocity": 0.11811023622047244,
          "duration": 0.034883720930224626
        },
        {
          "name": "A2",
          "midi": 45,
          "time": 65.48837209301946,
          "velocity": 0.3779527559055118,
          "duration": 0.034883720930224626
        },
        {
          "name": "A4",
          "midi": 69,
          "time": 65.48837209301946,
          "velocity": 0.2125984251968504,
          "duration": 0.05813953488370771
        },
        {
          "name": "F3",
          "midi": 53,
          "time": 65.4999999999962,
          "velocity": 0.3858267716535433,
          "duration": 0.034883720930224626
        },
        {
          "name": "D4",
          "midi": 62,
          "time": 65.51162790697295,
          "velocity": 0.16535433070866143,
          "duration": 0.05813953488370771
        },
        {
          "name": "G#2",
          "midi": 44,
          "time": 65.53488372092643,
          "velocity": 0.4015748031496063,
          "duration": 0.023255813953483084
        },
        {
          "name": "F#3",
          "midi": 54,
          "time": 65.53488372092643,
          "velocity": 0.4881889763779528,
          "duration": 0.023255813953483084
        },
        {
          "name": "G#4",
          "midi": 68,
          "time": 65.54651162790317,
          "velocity": 0.2047244094488189,
          "duration": 0.081395348837205
        },
        {
          "name": "F3",
          "midi": 53,
          "time": 65.55813953487991,
          "velocity": 0.5196850393700787,
          "duration": 0.27906976744185386
        },
        {
          "name": "A#3",
          "midi": 58,
          "time": 65.6046511627869,
          "velocity": 0.2047244094488189,
          "duration": 0.034883720930224626
        },
        {
          "name": "B4",
          "midi": 71,
          "time": 65.6046511627869,
          "velocity": 0.3228346456692913,
          "duration": 0.30232558139532273
        },
        {
          "name": "F#5",
          "midi": 78,
          "time": 65.6046511627869,
          "velocity": 0.3543307086614173,
          "duration": 0.24418604651161502
        },
        {
          "name": "D#6",
          "midi": 87,
          "time": 65.6046511627869,
          "velocity": 0.2204724409448819,
          "duration": 0.05813953488370771
        },
        {
          "name": "B3",
          "midi": 59,
          "time": 65.63953488371712,
          "velocity": 0.2755905511811024,
          "duration": 0.081395348837205
        },
        {
          "name": "F#4",
          "midi": 66,
          "time": 65.63953488371712,
          "velocity": 0.2992125984251969,
          "duration": 0.034883720930224626
        },
        {
          "name": "F2",
          "midi": 41,
          "time": 65.65116279069386,
          "velocity": 0.4645669291338583,
          "duration": 0.023255813953483084
        },
        {
          "name": "D#4",
          "midi": 63,
          "time": 65.6627906976706,
          "velocity": 0.2047244094488189,
          "duration": 0.05813953488372192
        },
        {
          "name": "E2",
          "midi": 40,
          "time": 65.67441860464734,
          "velocity": 0.4330708661417323,
          "duration": 0.03488372093023884
        },
        {
          "name": "E2",
          "midi": 40,
          "time": 65.72093023255432,
          "velocity": 0.3779527559055118,
          "duration": 0.04651162790698038
        },
        {
          "name": "B3",
          "midi": 59,
          "time": 65.75581395348456,
          "velocity": 0.2440944881889764,
          "duration": 0.081395348837205
        },
        {
          "name": "F2",
          "midi": 41,
          "time": 65.7674418604613,
          "velocity": 0.4015748031496063,
          "duration": 0.04651162790698038
        },
        {
          "name": "D#6",
          "midi": 87,
          "time": 65.7674418604613,
          "velocity": 0.1968503937007874,
          "duration": 0.15116279069765426
        },
        {
          "name": "D#2",
          "midi": 39,
          "time": 65.81395348836828,
          "velocity": 0.3543307086614173,
          "duration": 0.023255813953483084
        },
        {
          "name": "F2",
          "midi": 41,
          "time": 65.83720930232177,
          "velocity": 0.2755905511811024,
          "duration": 0.023255813953483084
        },
        {
          "name": "F4",
          "midi": 65,
          "time": 65.84883720929851,
          "velocity": 0.23622047244094488,
          "duration": 0.023255813953483084
        },
        {
          "name": "E3",
          "midi": 52,
          "time": 65.86046511627525,
          "velocity": 0.25984251968503935,
          "duration": 0.04651162790696617
        },
        {
          "name": "D#5",
          "midi": 75,
          "time": 65.86046511627525,
          "velocity": 0.14173228346456693,
          "duration": 0.04651162790696617
        },
        {
          "name": "G#6",
          "midi": 92,
          "time": 65.86046511627525,
          "velocity": 0.14960629921259844,
          "duration": 0.05813953488370771
        },
        {
          "name": "C7",
          "midi": 96,
          "time": 65.86046511627525,
          "velocity": 0.11023622047244094,
          "duration": 0.034883720930224626
        },
        {
          "name": "E4",
          "midi": 64,
          "time": 65.87209302325199,
          "velocity": 0.2992125984251969,
          "duration": 0.17441860465113734
        },
        {
          "name": "F#5",
          "midi": 78,
          "time": 65.87209302325199,
          "velocity": 0.2440944881889764,
          "duration": 0.034883720930224626
        },
        {
          "name": "C6",
          "midi": 84,
          "time": 65.87209302325199,
          "velocity": 0.14173228346456693,
          "duration": 0.034883720930224626
        },
        {
          "name": "G6",
          "midi": 91,
          "time": 65.87209302325199,
          "velocity": 0.14173228346456693,
          "duration": 0.04651162790696617
        },
        {
          "name": "E2",
          "midi": 40,
          "time": 65.88372093022873,
          "velocity": 0.33070866141732286,
          "duration": 0.034883720930224626
        },
        {
          "name": "G4",
          "midi": 67,
          "time": 65.88372093022873,
          "velocity": 0.3543307086614173,
          "duration": 0.29069767441855277
        },
        {
          "name": "G#5",
          "midi": 80,
          "time": 65.88372093022873,
          "velocity": 0.11811023622047244,
          "duration": 0.081395348837205
        },
        {
          "name": "A5",
          "midi": 81,
          "time": 65.88372093022873,
          "velocity": 0.14960629921259844,
          "duration": 0.034883720930224626
        },
        {
          "name": "F3",
          "midi": 53,
          "time": 65.90697674418222,
          "velocity": 0.30708661417322836,
          "duration": 0.11627906976742963
        },
        {
          "name": "B3",
          "midi": 59,
          "time": 65.90697674418222,
          "velocity": 0.29133858267716534,
          "duration": 0.081395348837205
        },
        {
          "name": "B4",
          "midi": 71,
          "time": 65.91860465115896,
          "velocity": 0.33070866141732286,
          "duration": 0.04651162790698038
        },
        {
          "name": "F#5",
          "midi": 78,
          "time": 65.91860465115896,
          "velocity": 0.16535433070866143,
          "duration": 0.04651162790698038
        },
        {
          "name": "D6",
          "midi": 86,
          "time": 65.91860465115896,
          "velocity": 0.14960629921259844,
          "duration": 0.03488372093023884
        },
        {
          "name": "C5",
          "midi": 72,
          "time": 65.96511627906594,
          "velocity": 0.14960629921259844,
          "duration": 0.034883720930224626
        },
        {
          "name": "F#5",
          "midi": 78,
          "time": 65.97674418604268,
          "velocity": 0.12598425196850394,
          "duration": 0.04651162790696617
        },
        {
          "name": "B4",
          "midi": 71,
          "time": 65.99999999999616,
          "velocity": 0.1968503937007874,
          "duration": 0.17441860465112313
        },
        {
          "name": "F2",
          "midi": 41,
          "time": 66.0116279069729,
          "velocity": 0.28346456692913385,
          "duration": 0.023255813953483084
        },
        {
          "name": "B3",
          "midi": 59,
          "time": 66.02325581394965,
          "velocity": 0.18110236220472442,
          "duration": 0.034883720930224626
        },
        {
          "name": "F3",
          "midi": 53,
          "time": 66.03488372092639,
          "velocity": 0.2755905511811024,
          "duration": 0.023255813953483084
        },
        {
          "name": "F#3",
          "midi": 54,
          "time": 66.05813953487987,
          "velocity": 0.30708661417322836,
          "duration": 0.023255813953483084
        },
        {
          "name": "F2",
          "midi": 41,
          "time": 66.08139534883335,
          "velocity": 0.33858267716535434,
          "duration": 0.034883720930224626
        },
        {
          "name": "B3",
          "midi": 59,
          "time": 66.08139534883335,
          "velocity": 0.16535433070866143,
          "duration": 0.034883720930224626
        },
        {
          "name": "D#4",
          "midi": 63,
          "time": 66.10465116278684,
          "velocity": 0.1968503937007874,
          "duration": 0.034883720930224626
        },
        {
          "name": "F#3",
          "midi": 54,
          "time": 66.11627906976358,
          "velocity": 0.1968503937007874,
          "duration": 0.034883720930224626
        },
        {
          "name": "E6",
          "midi": 88,
          "time": 66.12790697674032,
          "velocity": 0.09448818897637795,
          "duration": 0.0813953488371908
        },
        {
          "name": "E4",
          "midi": 64,
          "time": 66.13953488371706,
          "velocity": 0.2047244094488189,
          "duration": 0.04651162790696617
        },
        {
          "name": "F3",
          "midi": 53,
          "time": 66.1511627906938,
          "velocity": 0.2204724409448819,
          "duration": 0.04651162790696617
        },
        {
          "name": "B3",
          "midi": 59,
          "time": 66.1511627906938,
          "velocity": 0.14960629921259844,
          "duration": 0.0813953488371908
        },
        {
          "name": "F3",
          "midi": 53,
          "time": 66.24418604650774,
          "velocity": 0.3464566929133858,
          "duration": 0.023255813953483084
        },
        {
          "name": "A6",
          "midi": 93,
          "time": 66.24418604650774,
          "velocity": 0.48031496062992124,
          "duration": 0.4651162790696617
        },
        {
          "name": "E4",
          "midi": 64,
          "time": 66.25581395348448,
          "velocity": 0.2440944881889764,
          "duration": 0.023255813953483084
        },
        {
          "name": "G#4",
          "midi": 68,
          "time": 66.25581395348448,
          "velocity": 0.25984251968503935,
          "duration": 0.0813953488371908
        },
        {
          "name": "A5",
          "midi": 81,
          "time": 66.25581395348448,
          "velocity": 0.33858267716535434,
          "duration": 0.6046511627905744
        },
        {
          "name": "B3",
          "midi": 59,
          "time": 66.26744186046122,
          "velocity": 0.28346456692913385,
          "duration": 0.023255813953483084
        },
        {
          "name": "E7",
          "midi": 100,
          "time": 66.26744186046122,
          "velocity": 0.25984251968503935,
          "duration": 0.43023255813943706
        },
        {
          "name": "A2",
          "midi": 45,
          "time": 66.27906976743796,
          "velocity": 0.5590551181102362,
          "duration": 0.011627906976741542
        },
        {
          "name": "F4",
          "midi": 65,
          "time": 66.27906976743796,
          "velocity": 0.30708661417322836,
          "duration": 0.023255813953483084
        },
        {
          "name": "E5",
          "midi": 76,
          "time": 66.27906976743796,
          "velocity": 0.09448818897637795,
          "duration": 0.04651162790696617
        },
        {
          "name": "F2",
          "midi": 41,
          "time": 66.2906976744147,
          "velocity": 0.5669291338582677,
          "duration": 0.011627906976741542
        },
        {
          "name": "G0",
          "midi": 19,
          "time": 66.30232558139144,
          "velocity": 0.47244094488188976,
          "duration": 0.023255813953483084
        },
        {
          "name": "E2",
          "midi": 40,
          "time": 66.30232558139144,
          "velocity": 0.5669291338582677,
          "duration": 0.011627906976741542
        },
        {
          "name": "B3",
          "midi": 59,
          "time": 66.30232558139144,
          "velocity": 0.3858267716535433,
          "duration": 0.1395348837208985
        },
        {
          "name": "E4",
          "midi": 64,
          "time": 66.30232558139144,
          "velocity": 0.33070866141732286,
          "duration": 0.023255813953483084
        },
        {
          "name": "F2",
          "midi": 41,
          "time": 66.31395348836818,
          "velocity": 0.5118110236220472,
          "duration": 0.04651162790696617
        },
        {
          "name": "E1",
          "midi": 28,
          "time": 66.32558139534493,
          "velocity": 0.5118110236220472,
          "duration": 0.023255813953483084
        },
        {
          "name": "C#7",
          "midi": 97,
          "time": 66.32558139534493,
          "velocity": 0.07874015748031496,
          "duration": 0.034883720930224626
        },
        {
          "name": "D5",
          "midi": 74,
          "time": 66.33720930232167,
          "velocity": 0.25984251968503935,
          "duration": 0.12790697674415696
        },
        {
          "name": "F#4",
          "midi": 66,
          "time": 66.36046511627515,
          "velocity": 0.29133858267716534,
          "duration": 0.034883720930224626
        },
        {
          "name": "G#4",
          "midi": 68,
          "time": 66.36046511627515,
          "velocity": 0.29133858267716534,
          "duration": 0.3604651162789878
        },
        {
          "name": "E2",
          "midi": 40,
          "time": 66.37209302325189,
          "velocity": 0.48031496062992124,
          "duration": 0.023255813953483084
        },
        {
          "name": "E5",
          "midi": 76,
          "time": 66.38372093022863,
          "velocity": 0.09448818897637795,
          "duration": 0.05813953488370771
        },
        {
          "name": "C#6",
          "midi": 85,
          "time": 66.38372093022863,
          "velocity": 0.08661417322834646,
          "duration": 0.04651162790696617
        },
        {
          "name": "E6",
          "midi": 88,
          "time": 66.39534883720538,
          "velocity": 0.09448818897637795,
          "duration": 0.034883720930224626
        },
        {
          "name": "C#7",
          "midi": 97,
          "time": 66.39534883720538,
          "velocity": 0.13385826771653545,
          "duration": 0.034883720930224626
        },
        {
          "name": "E2",
          "midi": 40,
          "time": 66.41860465115886,
          "velocity": 0.5118110236220472,
          "duration": 0.06976744186044925
        },
        {
          "name": "A#0",
          "midi": 22,
          "time": 66.45348837208908,
          "velocity": 0.33858267716535434,
          "duration": 0.034883720930224626
        },
        {
          "name": "B3",
          "midi": 59,
          "time": 66.47674418604257,
          "velocity": 0.2755905511811024,
          "duration": 0.0813953488371908
        },
        {
          "name": "B4",
          "midi": 71,
          "time": 66.47674418604257,
          "velocity": 0.2755905511811024,
          "duration": 0.6279069767440575
        },
        {
          "name": "D#5",
          "midi": 75,
          "time": 66.49999999999605,
          "velocity": 0.11023622047244094,
          "duration": 0.10465116279067388
        },
        {
          "name": "F2",
          "midi": 41,
          "time": 66.51162790697279,
          "velocity": 0.3228346456692913,
          "duration": 0.05813953488370771
        },
        {
          "name": "F#5",
          "midi": 78,
          "time": 66.53488372092627,
          "velocity": 0.11023622047244094,
          "duration": 0.10465116279067388
        },
        {
          "name": "D#1",
          "midi": 27,
          "time": 66.54651162790302,
          "velocity": 0.31496062992125984,
          "duration": 0.023255813953483084
        },
        {
          "name": "E2",
          "midi": 40,
          "time": 66.5697674418565,
          "velocity": 0.33858267716535434,
          "duration": 0.023255813953483084
        },
        {
          "name": "B3",
          "midi": 59,
          "time": 66.59302325580998,
          "velocity": 0.15748031496062992,
          "duration": 0.05813953488370771
        },
        {
          "name": "E3",
          "midi": 52,
          "time": 66.61627906976346,
          "velocity": 0.2440944881889764,
          "duration": 0.04651162790696617
        },
        {
          "name": "C2",
          "midi": 36,
          "time": 66.67441860464717,
          "velocity": 0.5354330708661418,
          "duration": 0.011627906976741542
        },
        {
          "name": "D5",
          "midi": 74,
          "time": 66.67441860464717,
          "velocity": 0.29133858267716534,
          "duration": 0.2209302325581035
        },
        {
          "name": "F#6",
          "midi": 90,
          "time": 66.67441860464717,
          "velocity": 0.2047244094488189,
          "duration": 0.05813953488370771
        },
        {
          "name": "B6",
          "midi": 95,
          "time": 66.67441860464717,
          "velocity": 0.4881889763779528,
          "duration": 0.616279069767316
        },
        {
          "name": "C#2",
          "midi": 37,
          "time": 66.68604651162391,
          "velocity": 0.5590551181102362,
          "duration": 0.011627906976741542
        },
        {
          "name": "C#4",
          "midi": 61,
          "time": 66.68604651162391,
          "velocity": 0.28346456692913385,
          "duration": 0.023255813953483084
        },
        {
          "name": "D4",
          "midi": 62,
          "time": 66.7093023255774,
          "velocity": 0.2992125984251969,
          "duration": 0.0813953488371908
        },
        {
          "name": "A1",
          "midi": 33,
          "time": 66.73255813953088,
          "velocity": 0.49606299212598426,
          "duration": 0.023255813953483084
        },
        {
          "name": "G1",
          "midi": 31,
          "time": 66.75581395348436,
          "velocity": 0.48031496062992124,
          "duration": 0.023255813953483084
        },
        {
          "name": "B2",
          "midi": 47,
          "time": 66.75581395348436,
          "velocity": 0.4251968503937008,
          "duration": 0.081395348837205
        },
        {
          "name": "G4",
          "midi": 67,
          "time": 66.75581395348436,
          "velocity": 0.3543307086614173,
          "duration": 0.13953488372091272
        },
        {
          "name": "F#6",
          "midi": 90,
          "time": 66.75581395348436,
          "velocity": 0.11811023622047244,
          "duration": 0.09302325581394655
        },
        {
          "name": "E4",
          "midi": 64,
          "time": 66.79069767441459,
          "velocity": 0.2755905511811024,
          "duration": 0.11627906976742963
        },
        {
          "name": "B1",
          "midi": 35,
          "time": 66.82558139534483,
          "velocity": 0.5433070866141733,
          "duration": 0.023255813953483084
        },
        {
          "name": "G1",
          "midi": 31,
          "time": 66.84883720929831,
          "velocity": 0.4094488188976378,
          "duration": 0.023255813953483084
        },
        {
          "name": "B2",
          "midi": 47,
          "time": 66.86046511627505,
          "velocity": 0.3228346456692913,
          "duration": 0.023255813953483084
        },
        {
          "name": "F#5",
          "midi": 78,
          "time": 66.88372093022853,
          "velocity": 0.2992125984251969,
          "duration": 0.1627906976743816
        },
        {
          "name": "G#1",
          "midi": 32,
          "time": 66.89534883720528,
          "velocity": 0.3700787401574803,
          "duration": 0.023255813953483084
        },
        {
          "name": "E3",
          "midi": 52,
          "time": 66.90697674418202,
          "velocity": 0.3228346456692913,
          "duration": 0.023255813953483084
        },
        {
          "name": "G5",
          "midi": 79,
          "time": 66.90697674418202,
          "velocity": 0.10236220472440945,
          "duration": 0.034883720930224626
        },
        {
          "name": "F#4",
          "midi": 66,
          "time": 66.91860465115876,
          "velocity": 0.29133858267716534,
          "duration": 0.034883720930224626
        },
        {
          "name": "A#1",
          "midi": 34,
          "time": 66.9302325581355,
          "velocity": 0.44881889763779526,
          "duration": 0.023255813953483084
        },
        {
          "name": "G3",
          "midi": 55,
          "time": 66.9302325581355,
          "velocity": 0.3858267716535433,
          "duration": 0.023255813953483084
        },
        {
          "name": "C#6",
          "midi": 85,
          "time": 66.9302325581355,
          "velocity": 0.10236220472440945,
          "duration": 0.034883720930224626
        },
        {
          "name": "F2",
          "midi": 41,
          "time": 66.96511627906573,
          "velocity": 0.5196850393700787,
          "duration": 0.011627906976741542
        },
        {
          "name": "F4",
          "midi": 65,
          "time": 66.96511627906573,
          "velocity": 0.2283464566929134,
          "duration": 0.023255813953483084
        },
        {
          "name": "E2",
          "midi": 40,
          "time": 66.97674418604247,
          "velocity": 0.5118110236220472,
          "duration": 0.011627906976741542
        },
        {
          "name": "B3",
          "midi": 59,
          "time": 66.97674418604247,
          "velocity": 0.33858267716535434,
          "duration": 0.0813953488371908
        },
        {
          "name": "G4",
          "midi": 67,
          "time": 66.97674418604247,
          "velocity": 0.25984251968503935,
          "duration": 0.04651162790696617
        },
        {
          "name": "D#5",
          "midi": 75,
          "time": 66.97674418604247,
          "velocity": 0.13385826771653545,
          "duration": 0.06976744186044925
        },
        {
          "name": "G#5",
          "midi": 80,
          "time": 66.97674418604247,
          "velocity": 0.11023622047244094,
          "duration": 0.04651162790696617
        },
        {
          "name": "E4",
          "midi": 64,
          "time": 66.98837209301921,
          "velocity": 0.2677165354330709,
          "duration": 0.023255813953483084
        },
        {
          "name": "A5",
          "midi": 81,
          "time": 66.98837209301921,
          "velocity": 0.07874015748031496,
          "duration": 0.04651162790696617
        },
        {
          "name": "F#4",
          "midi": 66,
          "time": 67.02325581394943,
          "velocity": 0.23622047244094488,
          "duration": 0.034883720930224626
        },
        {
          "name": "E4",
          "midi": 64,
          "time": 67.05813953487966,
          "velocity": 0.14960629921259844,
          "duration": 0.0813953488371908
        },
        {
          "name": "G4",
          "midi": 67,
          "time": 67.05813953487966,
          "velocity": 0.11023622047244094,
          "duration": 0.034883720930224626
        },
        {
          "name": "E3",
          "midi": 52,
          "time": 67.08139534883314,
          "velocity": 0.30708661417322836,
          "duration": 0.06976744186044925
        },
        {
          "name": "B3",
          "midi": 59,
          "time": 67.08139534883314,
          "velocity": 0.2125984251968504,
          "duration": 0.06976744186044925
        },
        {
          "name": "D7",
          "midi": 98,
          "time": 67.10465116278662,
          "velocity": 0.48031496062992124,
          "duration": 0.6511627906975264
        },
        {
          "name": "G#1",
          "midi": 32,
          "time": 67.11627906976337,
          "velocity": 0.3464566929133858,
          "duration": 0.023255813953483084
        },
        {
          "name": "D6",
          "midi": 86,
          "time": 67.13953488371685,
          "velocity": 0.2755905511811024,
          "duration": 0.3255813953487632
        },
        {
          "name": "D5",
          "midi": 74,
          "time": 67.15116279069359,
          "velocity": 0.3464566929133858,
          "duration": 0.3255813953487632
        },
        {
          "name": "B5",
          "midi": 83,
          "time": 67.15116279069359,
          "velocity": 0.29133858267716534,
          "duration": 0.2209302325580893
        },
        {
          "name": "A6",
          "midi": 93,
          "time": 67.16279069767033,
          "velocity": 0.14173228346456693,
          "duration": 0.05813953488370771
        },
        {
          "name": "B3",
          "midi": 59,
          "time": 67.17441860464707,
          "velocity": 0.11811023622047244,
          "duration": 0.04651162790696617
        },
        {
          "name": "B4",
          "midi": 71,
          "time": 67.17441860464707,
          "velocity": 0.28346456692913385,
          "duration": 0.10465116279067388
        },
        {
          "name": "E4",
          "midi": 64,
          "time": 67.18604651162381,
          "velocity": 0.2677165354330709,
          "duration": 0.15116279069764005
        },
        {
          "name": "F#5",
          "midi": 78,
          "time": 67.19767441860056,
          "velocity": 0.12598425196850394,
          "duration": 0.0813953488371908
        },
        {
          "name": "E2",
          "midi": 40,
          "time": 67.23255813953078,
          "velocity": 0.3779527559055118,
          "duration": 0.023255813953483084
        },
        {
          "name": "A6",
          "midi": 93,
          "time": 67.24418604650752,
          "velocity": 0.12598425196850394,
          "duration": 0.034883720930224626
        },
        {
          "name": "E3",
          "midi": 52,
          "time": 67.25581395348426,
          "velocity": 0.11023622047244094,
          "duration": 0.05813953488370771
        },
        {
          "name": "A#3",
          "midi": 58,
          "time": 67.25581395348426,
          "velocity": 0.08661417322834646,
          "duration": 0.034883720930224626
        },
        {
          "name": "B4",
          "midi": 71,
          "time": 67.29069767441449,
          "velocity": 0.1968503937007874,
          "duration": 0.05813953488370771
        },
        {
          "name": "A5",
          "midi": 81,
          "time": 67.31395348836797,
          "velocity": 0.3228346456692913,
          "duration": 0.2558139534883139
        },
        {
          "name": "C#4",
          "midi": 61,
          "time": 67.32558139534471,
          "velocity": 0.2677165354330709,
          "duration": 0.023255813953483084
        },
        {
          "name": "F#6",
          "midi": 90,
          "time": 67.32558139534471,
          "velocity": 0.2440944881889764,
          "duration": 0.05813953488370771
        },
        {
          "name": "D4",
          "midi": 62,
          "time": 67.3488372092982,
          "velocity": 0.33070866141732286,
          "duration": 0.17441860465112313
        },
        {
          "name": "G#4",
          "midi": 68,
          "time": 67.3488372092982,
          "velocity": 0.15748031496062992,
          "duration": 0.034883720930224626
        },
        {
          "name": "F2",
          "midi": 41,
          "time": 67.37209302325168,
          "velocity": 0.5118110236220472,
          "duration": 0.023255813953483084
        },
        {
          "name": "E3",
          "midi": 52,
          "time": 67.38372093022842,
          "velocity": 0.2755905511811024,
          "duration": 0.023255813953483084
        },
        {
          "name": "E2",
          "midi": 40,
          "time": 67.39534883720516,
          "velocity": 0.48031496062992124,
          "duration": 0.034883720930224626
        },
        {
          "name": "G#4",
          "midi": 68,
          "time": 67.39534883720516,
          "velocity": 0.11811023622047244,
          "duration": 0.034883720930224626
        },
        {
          "name": "B5",
          "midi": 83,
          "time": 67.39534883720516,
          "velocity": 0.11811023622047244,
          "duration": 0.06976744186044925
        },
        {
          "name": "G3",
          "midi": 55,
          "time": 67.44186046511213,
          "velocity": 0.2047244094488189,
          "duration": 0.034883720930224626
        },
        {
          "name": "F#6",
          "midi": 90,
          "time": 67.44186046511213,
          "velocity": 0.08661417322834646,
          "duration": 0.04651162790696617
        },
        {
          "name": "F2",
          "midi": 41,
          "time": 67.49999999999584,
          "velocity": 0.3464566929133858,
          "duration": 0.034883720930224626
        },
        {
          "name": "D#4",
          "midi": 63,
          "time": 67.53488372092606,
          "velocity": 0.1889763779527559,
          "duration": 0.034883720930224626
        },
        {
          "name": "A#4",
          "midi": 70,
          "time": 67.53488372092606,
          "velocity": 0.16535433070866143,
          "duration": 0.05813953488370771
        },
        {
          "name": "E7",
          "midi": 100,
          "time": 67.53488372092606,
          "velocity": 0.5275590551181102,
          "duration": 0.7441860465114729
        },
        {
          "name": "D5",
          "midi": 74,
          "time": 67.5465116279028,
          "velocity": 0.11023622047244094,
          "duration": 0.04651162790696617
        },
        {
          "name": "E5",
          "midi": 76,
          "time": 67.5465116279028,
          "velocity": 0.31496062992125984,
          "duration": 0.23255813953483084
        },
        {
          "name": "G#6",
          "midi": 92,
          "time": 67.5465116279028,
          "velocity": 0.2992125984251969,
          "duration": 0.05813953488370771
        },
        {
          "name": "B6",
          "midi": 95,
          "time": 67.5465116279028,
          "velocity": 0.25984251968503935,
          "duration": 0.1395348837208985
        },
        {
          "name": "B5",
          "midi": 83,
          "time": 67.55813953487954,
          "velocity": 0.28346456692913385,
          "duration": 0.41860465116270973
        },
        {
          "name": "C6",
          "midi": 84,
          "time": 67.55813953487954,
          "velocity": 0.15748031496062992,
          "duration": 0.034883720930224626
        },
        {
          "name": "A#6",
          "midi": 94,
          "time": 67.55813953487954,
          "velocity": 0.15748031496062992,
          "duration": 0.034883720930224626
        },
        {
          "name": "A#3",
          "midi": 58,
          "time": 67.56976744185629,
          "velocity": 0.2047244094488189,
          "duration": 0.034883720930224626
        },
        {
          "name": "F#6",
          "midi": 90,
          "time": 67.56976744185629,
          "velocity": 0.14173228346456693,
          "duration": 0.034883720930224626
        },
        {
          "name": "F#5",
          "midi": 78,
          "time": 67.58139534883303,
          "velocity": 0.1889763779527559,
          "duration": 0.04651162790696617
        },
        {
          "name": "G4",
          "midi": 67,
          "time": 67.59302325580977,
          "velocity": 0.3464566929133858,
          "duration": 0.3488372093022605
        },
        {
          "name": "B4",
          "midi": 71,
          "time": 67.59302325580977,
          "velocity": 0.1889763779527559,
          "duration": 0.034883720930224626
        },
        {
          "name": "A5",
          "midi": 81,
          "time": 67.59302325580977,
          "velocity": 0.10236220472440945,
          "duration": 0.034883720930224626
        },
        {
          "name": "B3",
          "midi": 59,
          "time": 67.60465116278651,
          "velocity": 0.2440944881889764,
          "duration": 0.10465116279067388
        },
        {
          "name": "D6",
          "midi": 86,
          "time": 67.60465116278651,
          "velocity": 0.12598425196850394,
          "duration": 0.05813953488370771
        },
        {
          "name": "E4",
          "midi": 64,
          "time": 67.63953488371673,
          "velocity": 0.1968503937007874,
          "duration": 0.09302325581393234
        },
        {
          "name": "B4",
          "midi": 71,
          "time": 67.63953488371673,
          "velocity": 0.25984251968503935,
          "duration": 0.06976744186044925
        },
        {
          "name": "B2",
          "midi": 47,
          "time": 67.66279069767022,
          "velocity": 0.2125984251968504,
          "duration": 0.034883720930224626
        },
        {
          "name": "G#6",
          "midi": 92,
          "time": 67.66279069767022,
          "velocity": 0.2204724409448819,
          "duration": 0.09302325581393234
        },
        {
          "name": "B4",
          "midi": 71,
          "time": 67.72093023255393,
          "velocity": 0.18110236220472442,
          "duration": 0.06976744186044925
        },
        {
          "name": "B3",
          "midi": 59,
          "time": 67.73255813953067,
          "velocity": 0.09448818897637795,
          "duration": 0.034883720930224626
        },
        {
          "name": "E2",
          "midi": 40,
          "time": 67.74418604650741,
          "velocity": 0.3464566929133858,
          "duration": 0.04651162790696617
        },
        {
          "name": "E6",
          "midi": 88,
          "time": 67.79069767441437,
          "velocity": 0.14173228346456693,
          "duration": 0.06976744186044925
        },
        {
          "name": "G#6",
          "midi": 92,
          "time": 67.79069767441437,
          "velocity": 0.14960629921259844,
          "duration": 0.05813953488370771
        },
        {
          "name": "E5",
          "midi": 76,
          "time": 67.80232558139112,
          "velocity": 0.25984251968503935,
          "duration": 0.1627906976743958
        },
        {
          "name": "A#0",
          "midi": 22,
          "time": 67.81395348836786,
          "velocity": 0.33070866141732286,
          "duration": 0.023255813953483084
        },
        {
          "name": "D7",
          "midi": 98,
          "time": 67.8255813953446,
          "velocity": 0.07874015748031496,
          "duration": 0.04651162790696617
        },
        {
          "name": "E4",
          "midi": 64,
          "time": 67.83720930232134,
          "velocity": 0.08661417322834646,
          "duration": 0.034883720930224626
        },
        {
          "name": "G#2",
          "midi": 44,
          "time": 67.95348837208877,
          "velocity": 0.4094488188976378,
          "duration": 0.034883720930224626
        },
        {
          "name": "D#5",
          "midi": 75,
          "time": 67.95348837208877,
          "velocity": 0.1968503937007874,
          "duration": 0.034883720930224626
        },
        {
          "name": "G5",
          "midi": 79,
          "time": 67.95348837208877,
          "velocity": 0.2204724409448819,
          "duration": 0.034883720930224626
        },
        {
          "name": "G#4",
          "midi": 68,
          "time": 67.96511627906551,
          "velocity": 0.3464566929133858,
          "duration": 0.05813953488370771
        },
        {
          "name": "C6",
          "midi": 84,
          "time": 67.96511627906551,
          "velocity": 0.10236220472440945,
          "duration": 0.04651162790696617
        },
        {
          "name": "E6",
          "midi": 88,
          "time": 67.96511627906551,
          "velocity": 0.10236220472440945,
          "duration": 0.034883720930224626
        },
        {
          "name": "F6",
          "midi": 89,
          "time": 67.96511627906551,
          "velocity": 0.13385826771653545,
          "duration": 0.034883720930224626
        },
        {
          "name": "B6",
          "midi": 95,
          "time": 67.96511627906551,
          "velocity": 0.5354330708661418,
          "duration": 2.697674418604194
        },
        {
          "name": "E4",
          "midi": 64,
          "time": 67.97674418604225,
          "velocity": 0.3779527559055118,
          "duration": 0.04651162790696617
        },
        {
          "name": "F#5",
          "midi": 78,
          "time": 67.97674418604225,
          "velocity": 0.1889763779527559,
          "duration": 0.1395348837208985
        },
        {
          "name": "C3",
          "midi": 48,
          "time": 67.988372093019,
          "velocity": 0.5118110236220472,
          "duration": 0.023255813953483084
        },
        {
          "name": "B4",
          "midi": 71,
          "time": 67.988372093019,
          "velocity": 0.25196850393700787,
          "duration": 0.06976744186044925
        },
        {
          "name": "A#5",
          "midi": 82,
          "time": 67.988372093019,
          "velocity": 0.16535433070866143,
          "duration": 0.09302325581393234
        },
        {
          "name": "G#1",
          "midi": 32,
          "time": 67.99999999999574,
          "velocity": 0.5196850393700787,
          "duration": 0.011627906976741542
        },
        {
          "name": "B1",
          "midi": 35,
          "time": 68.01162790697248,
          "velocity": 0.6062992125984252,
          "duration": 0.011627906976741542
        },
        {
          "name": "D#2",
          "midi": 39,
          "time": 68.02325581394922,
          "velocity": 0.5748031496062992,
          "duration": 0.011627906976741542
        },
        {
          "name": "G4",
          "midi": 67,
          "time": 68.02325581394922,
          "velocity": 0.4015748031496063,
          "duration": 0.12790697674415696
        },
        {
          "name": "C#4",
          "midi": 61,
          "time": 68.03488372092596,
          "velocity": 0.2755905511811024,
          "duration": 0.023255813953483084
        },
        {
          "name": "D6",
          "midi": 86,
          "time": 68.03488372092596,
          "velocity": 0.14960629921259844,
          "duration": 0.06976744186044925
        },
        {
          "name": "F1",
          "midi": 29,
          "time": 68.0465116279027,
          "velocity": 0.5511811023622047,
          "duration": 0.011627906976741542
        },
        {
          "name": "G3",
          "midi": 55,
          "time": 68.0465116279027,
          "velocity": 0.25984251968503935,
          "duration": 0.034883720930224626
        },
        {
          "name": "C5",
          "midi": 72,
          "time": 68.0465116279027,
          "velocity": 0.25196850393700787,
          "duration": 0.023255813953483084
        },
        {
          "name": "B1",
          "midi": 35,
          "time": 68.05813953487944,
          "velocity": 0.48031496062992124,
          "duration": 0.023255813953483084
        },
        {
          "name": "C4",
          "midi": 60,
          "time": 68.05813953487944,
          "velocity": 0.3700787401574803,
          "duration": 0.023255813953483084
        },
        {
          "name": "B4",
          "midi": 71,
          "time": 68.06976744185619,
          "velocity": 0.30708661417322836,
          "duration": 0.023255813953483084
        },
        {
          "name": "B5",
          "midi": 83,
          "time": 68.06976744185619,
          "velocity": 0.3779527559055118,
          "duration": 0.279069767441797
        },
        {
          "name": "B3",
          "midi": 59,
          "time": 68.08139534883293,
          "velocity": 0.3779527559055118,
          "duration": 0.034883720930224626
        },
        {
          "name": "E4",
          "midi": 64,
          "time": 68.08139534883293,
          "velocity": 0.3937007874015748,
          "duration": 0.12790697674415696
        },
        {
          "name": "D5",
          "midi": 74,
          "time": 68.10465116278641,
          "velocity": 0.11023622047244094,
          "duration": 0.06976744186044925
        },
        {
          "name": "A#3",
          "midi": 58,
          "time": 68.11627906976315,
          "velocity": 0.29133858267716534,
          "duration": 0.023255813953483084
        },
        {
          "name": "A5",
          "midi": 81,
          "time": 68.11627906976315,
          "velocity": 0.07874015748031496,
          "duration": 0.034883720930224626
        },
        {
          "name": "B3",
          "midi": 59,
          "time": 68.13953488371664,
          "velocity": 0.33070866141732286,
          "duration": 0.06976744186044925
        },
        {
          "name": "B4",
          "midi": 71,
          "time": 68.13953488371664,
          "velocity": 0.3779527559055118,
          "duration": 0.41860465116270973
        },
        {
          "name": "E3",
          "midi": 52,
          "time": 68.16279069767012,
          "velocity": 0.3543307086614173,
          "duration": 0.04651162790696617
        },
        {
          "name": "D1",
          "midi": 26,
          "time": 68.17441860464686,
          "velocity": 0.36220472440944884,
          "duration": 0.023255813953483084
        },
        {
          "name": "G#4",
          "midi": 68,
          "time": 68.17441860464686,
          "velocity": 0.3858267716535433,
          "duration": 0.034883720930224626
        },
        {
          "name": "G4",
          "midi": 67,
          "time": 68.19767441860034,
          "velocity": 0.3700787401574803,
          "duration": 0.034883720930224626
        },
        {
          "name": "E5",
          "midi": 76,
          "time": 68.20930232557708,
          "velocity": 0.15748031496062992,
          "duration": 0.06976744186044925
        },
        {
          "name": "E4",
          "midi": 64,
          "time": 68.22093023255383,
          "velocity": 0.2992125984251969,
          "duration": 0.15116279069764005
        },
        {
          "name": "F#6",
          "midi": 90,
          "time": 68.22093023255383,
          "velocity": 0.11811023622047244,
          "duration": 0.04651162790696617
        },
        {
          "name": "G#4",
          "midi": 68,
          "time": 68.23255813953057,
          "velocity": 0.3464566929133858,
          "duration": 0.29069767441855277
        },
        {
          "name": "G5",
          "midi": 79,
          "time": 68.24418604650731,
          "velocity": 0.07874015748031496,
          "duration": 0.034883720930224626
        },
        {
          "name": "D#5",
          "midi": 75,
          "time": 68.25581395348405,
          "velocity": 0.2283464566929134,
          "duration": 0.034883720930224626
        },
        {
          "name": "D5",
          "midi": 74,
          "time": 68.27906976743753,
          "velocity": 0.3937007874015748,
          "duration": 0.6976744186045778
        },
        {
          "name": "F#5",
          "midi": 78,
          "time": 68.27906976743753,
          "velocity": 0.13385826771653545,
          "duration": 0.0813953488371908
        },
        {
          "name": "A6",
          "midi": 93,
          "time": 68.29069767441428,
          "velocity": 0.11023622047244094,
          "duration": 0.11627906976741542
        },
        {
          "name": "D7",
          "midi": 98,
          "time": 68.29069767441428,
          "velocity": 0.1968503937007874,
          "duration": 0.1627906976743958
        },
        {
          "name": "B2",
          "midi": 47,
          "time": 68.30232558139102,
          "velocity": 0.31496062992125984,
          "duration": 0.023255813953483084
        },
        {
          "name": "A#2",
          "midi": 46,
          "time": 68.3255813953445,
          "velocity": 0.3779527559055118,
          "duration": 0.023255813953483084
        },
        {
          "name": "E5",
          "midi": 76,
          "time": 68.37209302325147,
          "velocity": 0.3858267716535433,
          "duration": 0.23255813953485927
        },
        {
          "name": "D4",
          "midi": 62,
          "time": 68.39534883720495,
          "velocity": 0.25984251968503935,
          "duration": 0.19767441860463464
        },
        {
          "name": "A5",
          "midi": 81,
          "time": 68.39534883720495,
          "velocity": 0.29133858267716534,
          "duration": 0.19767441860463464
        },
        {
          "name": "F#6",
          "midi": 90,
          "time": 68.39534883720495,
          "velocity": 0.2047244094488189,
          "duration": 0.05813953488372192
        },
        {
          "name": "E7",
          "midi": 100,
          "time": 68.39534883720495,
          "velocity": 0.1889763779527559,
          "duration": 0.06976744186046346
        },
        {
          "name": "G#1",
          "midi": 32,
          "time": 68.44186046511193,
          "velocity": 0.2440944881889764,
          "duration": 0.023255813953483084
        },
        {
          "name": "G2",
          "midi": 43,
          "time": 68.47674418604215,
          "velocity": 0.2440944881889764,
          "duration": 0.023255813953483084
        },
        {
          "name": "B2",
          "midi": 47,
          "time": 68.49999999999564,
          "velocity": 0.2677165354330709,
          "duration": 0.023255813953483084
        },
        {
          "name": "F#6",
          "midi": 90,
          "time": 68.51162790697238,
          "velocity": 0.10236220472440945,
          "duration": 0.04651162790696617
        },
        {
          "name": "C2",
          "midi": 36,
          "time": 68.53488372092586,
          "velocity": 0.28346456692913385,
          "duration": 0.023255813953483084
        },
        {
          "name": "F2",
          "midi": 41,
          "time": 68.59302325580958,
          "velocity": 0.33858267716535434,
          "duration": 0.034883720930224626
        },
        {
          "name": "D#5",
          "midi": 75,
          "time": 68.60465116278633,
          "velocity": 0.28346456692913385,
          "duration": 0.023255813953483084
        },
        {
          "name": "G5",
          "midi": 79,
          "time": 68.60465116278633,
          "velocity": 0.12598425196850394,
          "duration": 0.034883720930224626
        },
        {
          "name": "D7",
          "midi": 98,
          "time": 68.60465116278633,
          "velocity": 0.1889763779527559,
          "duration": 0.17441860465113734
        },
        {
          "name": "A4",
          "midi": 69,
          "time": 68.61627906976307,
          "velocity": 0.25196850393700787,
          "duration": 0.33720930232556157
        },
        {
          "name": "E5",
          "midi": 76,
          "time": 68.62790697673981,
          "velocity": 0.3464566929133858,
          "duration": 0.36046511627904465
        },
        {
          "name": "C#6",
          "midi": 85,
          "time": 68.62790697673981,
          "velocity": 0.2677165354330709,
          "duration": 0.10465116279067388
        },
        {
          "name": "F2",
          "midi": 41,
          "time": 68.63953488371655,
          "velocity": 0.4251968503937008,
          "duration": 0.023255813953483084
        },
        {
          "name": "G#3",
          "midi": 56,
          "time": 68.65116279069329,
          "velocity": 0.2992125984251969,
          "duration": 0.034883720930224626
        },
        {
          "name": "B4",
          "midi": 71,
          "time": 68.66279069767003,
          "velocity": 0.1732283464566929,
          "duration": 0.04651162790696617
        },
        {
          "name": "F2",
          "midi": 41,
          "time": 68.67441860464677,
          "velocity": 0.4094488188976378,
          "duration": 0.023255813953483084
        },
        {
          "name": "E4",
          "midi": 64,
          "time": 68.67441860464677,
          "velocity": 0.3700787401574803,
          "duration": 0.034883720930224626
        },
        {
          "name": "F#4",
          "midi": 66,
          "time": 68.68604651162352,
          "velocity": 0.15748031496062992,
          "duration": 0.034883720930224626
        },
        {
          "name": "E2",
          "midi": 40,
          "time": 68.69767441860026,
          "velocity": 0.4094488188976378,
          "duration": 0.023255813953483084
        },
        {
          "name": "B3",
          "midi": 59,
          "time": 68.709302325577,
          "velocity": 0.3464566929133858,
          "duration": 0.06976744186046346
        },
        {
          "name": "B5",
          "midi": 83,
          "time": 68.72093023255374,
          "velocity": 0.12598425196850394,
          "duration": 0.081395348837205
        },
        {
          "name": "F#4",
          "midi": 66,
          "time": 68.73255813953048,
          "velocity": 0.18110236220472442,
          "duration": 0.04651162790698038
        },
        {
          "name": "C#6",
          "midi": 85,
          "time": 68.76744186046072,
          "velocity": 0.11023622047244094,
          "duration": 0.12790697674418539
        },
        {
          "name": "F#4",
          "midi": 66,
          "time": 68.7906976744142,
          "velocity": 0.15748031496062992,
          "duration": 0.08139534883721922
        },
        {
          "name": "B2",
          "midi": 47,
          "time": 68.83720930232118,
          "velocity": 0.4645669291338583,
          "duration": 0.20930232558137618
        },
        {
          "name": "C2",
          "midi": 36,
          "time": 68.88372093022817,
          "velocity": 0.4409448818897638,
          "duration": 0.023255813953483084
        },
        {
          "name": "A#3",
          "midi": 58,
          "time": 68.91860465115839,
          "velocity": 0.10236220472440945,
          "duration": 0.05813953488372192
        },
        {
          "name": "G1",
          "midi": 31,
          "time": 68.95348837208863,
          "velocity": 0.2755905511811024,
          "duration": 0.023255813953483084
        },
        {
          "name": "D#2",
          "midi": 39,
          "time": 69.01162790697234,
          "velocity": 0.36220472440944884,
          "duration": 0.023255813953483084
        },
        {
          "name": "B4",
          "midi": 71,
          "time": 69.03488372092582,
          "velocity": 0.3464566929133858,
          "duration": 0.3023255813952943
        },
        {
          "name": "E5",
          "midi": 76,
          "time": 69.03488372092582,
          "velocity": 0.3543307086614173,
          "duration": 0.33720930232551893
        },
        {
          "name": "D#6",
          "midi": 87,
          "time": 69.03488372092582,
          "velocity": 0.16535433070866143,
          "duration": 0.05813953488370771
        },
        {
          "name": "A2",
          "midi": 45,
          "time": 69.04651162790256,
          "velocity": 0.3543307086614173,
          "duration": 0.023255813953483084
        },
        {
          "name": "E4",
          "midi": 64,
          "time": 69.04651162790256,
          "velocity": 0.15748031496062992,
          "duration": 0.034883720930224626
        },
        {
          "name": "F#5",
          "midi": 78,
          "time": 69.0581395348793,
          "velocity": 0.33070866141732286,
          "duration": 0.2674418604650697
        },
        {
          "name": "A5",
          "midi": 81,
          "time": 69.0581395348793,
          "velocity": 0.10236220472440945,
          "duration": 0.034883720930224626
        },
        {
          "name": "F#4",
          "midi": 66,
          "time": 69.06976744185604,
          "velocity": 0.2047244094488189,
          "duration": 0.034883720930224626
        },
        {
          "name": "F#2",
          "midi": 42,
          "time": 69.08139534883279,
          "velocity": 0.5354330708661418,
          "duration": 0.023255813953483084
        },
        {
          "name": "E2",
          "midi": 40,
          "time": 69.11627906976301,
          "velocity": 0.4645669291338583,
          "duration": 0.05813953488372192
        },
        {
          "name": "E4",
          "midi": 64,
          "time": 69.11627906976301,
          "velocity": 0.1968503937007874,
          "duration": 0.05813953488372192
        },
        {
          "name": "D#6",
          "midi": 87,
          "time": 69.15116279069325,
          "velocity": 0.18110236220472442,
          "duration": 0.2209302325580893
        },
        {
          "name": "B3",
          "midi": 59,
          "time": 69.17441860464673,
          "velocity": 0.1889763779527559,
          "duration": 0.11627906976741542
        },
        {
          "name": "G#4",
          "midi": 68,
          "time": 69.18604651162347,
          "velocity": 0.10236220472440945,
          "duration": 0.034883720930224626
        },
        {
          "name": "E3",
          "midi": 52,
          "time": 69.20930232557696,
          "velocity": 0.1732283464566929,
          "duration": 0.04651162790696617
        },
        {
          "name": "D#2",
          "midi": 39,
          "time": 69.23255813953044,
          "velocity": 0.3937007874015748,
          "duration": 0.034883720930224626
        },
        {
          "name": "C6",
          "midi": 84,
          "time": 69.25581395348392,
          "velocity": 0.14960629921259844,
          "duration": 0.04651162790696617
        },
        {
          "name": "E2",
          "midi": 40,
          "time": 69.26744186046066,
          "velocity": 0.3543307086614173,
          "duration": 0.034883720930224626
        },
        {
          "name": "G#5",
          "midi": 80,
          "time": 69.26744186046066,
          "velocity": 0.15748031496062992,
          "duration": 0.09302325581393234
        },
        {
          "name": "A5",
          "midi": 81,
          "time": 69.29069767441415,
          "velocity": 0.09448818897637795,
          "duration": 0.04651162790696617
        },
        {
          "name": "F2",
          "midi": 41,
          "time": 69.30232558139089,
          "velocity": 0.30708661417322836,
          "duration": 0.034883720930224626
        },
        {
          "name": "F6",
          "midi": 89,
          "time": 69.30232558139089,
          "velocity": 0.07874015748031496,
          "duration": 0.034883720930224626
        },
        {
          "name": "C#6",
          "midi": 85,
          "time": 69.31395348836763,
          "velocity": 0.09448818897637795,
          "duration": 0.04651162790696617
        },
        {
          "name": "B3",
          "midi": 59,
          "time": 69.32558139534437,
          "velocity": 0.25984251968503935,
          "duration": 0.081395348837205
        },
        {
          "name": "F#5",
          "midi": 78,
          "time": 69.33720930232111,
          "velocity": 0.13385826771653545,
          "duration": 0.06976744186046346
        },
        {
          "name": "A#5",
          "midi": 82,
          "time": 69.33720930232111,
          "velocity": 0.12598425196850394,
          "duration": 0.034883720930224626
        },
        {
          "name": "A5",
          "midi": 81,
          "time": 69.37209302325134,
          "velocity": 0.10236220472440945,
          "duration": 0.03488372093023884
        },
        {
          "name": "E3",
          "midi": 52,
          "time": 69.43023255813506,
          "velocity": 0.15748031496062992,
          "duration": 0.04651162790696617
        },
        {
          "name": "B3",
          "midi": 59,
          "time": 69.43023255813506,
          "velocity": 0.2204724409448819,
          "duration": 0.0813953488371908
        },
        {
          "name": "C6",
          "midi": 84,
          "time": 69.4418604651118,
          "velocity": 0.11811023622047244,
          "duration": 0.05813953488370771
        },
        {
          "name": "A2",
          "midi": 45,
          "time": 69.45348837208854,
          "velocity": 0.2677165354330709,
          "duration": 0.023255813953483084
        },
        {
          "name": "F#4",
          "midi": 66,
          "time": 69.46511627906528,
          "velocity": 0.28346456692913385,
          "duration": 0.04651162790696617
        },
        {
          "name": "D5",
          "midi": 74,
          "time": 69.46511627906528,
          "velocity": 0.3700787401574803,
          "duration": 0.33720930232551893
        },
        {
          "name": "A6",
          "midi": 93,
          "time": 69.47674418604203,
          "velocity": 0.09448818897637795,
          "duration": 0.09302325581393234
        },
        {
          "name": "D3",
          "midi": 50,
          "time": 69.51162790697225,
          "velocity": 0.36220472440944884,
          "duration": 0.023255813953483084
        },
        {
          "name": "E4",
          "midi": 64,
          "time": 69.52325581394899,
          "velocity": 0.25196850393700787,
          "duration": 0.04651162790696617
        },
        {
          "name": "B2",
          "midi": 47,
          "time": 69.53488372092573,
          "velocity": 0.2992125984251969,
          "duration": 0.023255813953483084
        },
        {
          "name": "E2",
          "midi": 40,
          "time": 69.54651162790248,
          "velocity": 0.3937007874015748,
          "duration": 0.023255813953483084
        },
        {
          "name": "B5",
          "midi": 83,
          "time": 69.55813953487922,
          "velocity": 0.08661417322834646,
          "duration": 0.05813953488370771
        },
        {
          "name": "F#2",
          "midi": 42,
          "time": 69.56976744185596,
          "velocity": 0.3858267716535433,
          "duration": 0.023255813953483084
        },
        {
          "name": "B4",
          "midi": 71,
          "time": 69.5813953488327,
          "velocity": 0.10236220472440945,
          "duration": 0.04651162790696617
        },
        {
          "name": "B3",
          "midi": 59,
          "time": 69.59302325580944,
          "velocity": 0.18110236220472442,
          "duration": 0.081395348837205
        },
        {
          "name": "F#5",
          "midi": 78,
          "time": 69.59302325580944,
          "velocity": 0.08661417322834646,
          "duration": 0.034883720930224626
        },
        {
          "name": "C7",
          "midi": 96,
          "time": 69.61627906976292,
          "velocity": 0.10236220472440945,
          "duration": 0.04651162790698038
        },
        {
          "name": "A#4",
          "midi": 70,
          "time": 69.6627906976699,
          "velocity": 0.25196850393700787,
          "duration": 0.04651162790696617
        },
        {
          "name": "B5",
          "midi": 83,
          "time": 69.6627906976699,
          "velocity": 0.30708661417322836,
          "duration": 0.20930232558134776
        },
        {
          "name": "A#1",
          "midi": 34,
          "time": 69.67441860464665,
          "velocity": 0.5590551181102362,
          "duration": 0.034883720930224626
        },
        {
          "name": "A5",
          "midi": 81,
          "time": 69.67441860464665,
          "velocity": 0.1968503937007874,
          "duration": 0.034883720930224626
        },
        {
          "name": "F#6",
          "midi": 90,
          "time": 69.67441860464665,
          "velocity": 0.18110236220472442,
          "duration": 0.034883720930224626
        },
        {
          "name": "B4",
          "midi": 71,
          "time": 69.68604651162339,
          "velocity": 0.3700787401574803,
          "duration": 0.15116279069764005
        },
        {
          "name": "F#5",
          "midi": 78,
          "time": 69.68604651162339,
          "velocity": 0.2283464566929134,
          "duration": 0.1627906976743816
        },
        {
          "name": "E4",
          "midi": 64,
          "time": 69.69767441860013,
          "velocity": 0.41732283464566927,
          "duration": 0.04651162790696617
        },
        {
          "name": "G#4",
          "midi": 68,
          "time": 69.69767441860013,
          "velocity": 0.29133858267716534,
          "duration": 0.034883720930224626
        },
        {
          "name": "D#7",
          "midi": 99,
          "time": 69.69767441860013,
          "velocity": 0.11023622047244094,
          "duration": 0.05813953488370771
        },
        {
          "name": "E2",
          "midi": 40,
          "time": 69.70930232557687,
          "velocity": 0.5275590551181102,
          "duration": 0.011627906976741542
        },
        {
          "name": "A#5",
          "midi": 82,
          "time": 69.70930232557687,
          "velocity": 0.13385826771653545,
          "duration": 0.06976744186044925
        },
        {
          "name": "G1",
          "midi": 31,
          "time": 69.72093023255361,
          "velocity": 0.5590551181102362,
          "duration": 0.011627906976741542
        },
        {
          "name": "F#2",
          "midi": 42,
          "time": 69.72093023255361,
          "velocity": 0.5826771653543307,
          "duration": 0.011627906976741542
        },
        {
          "name": "C2",
          "midi": 36,
          "time": 69.73255813953035,
          "velocity": 0.5905511811023622,
          "duration": 0.011627906976741542
        },
        {
          "name": "B3",
          "midi": 59,
          "time": 69.7441860465071,
          "velocity": 0.4409448818897638,
          "duration": 0.12790697674415696
        },
        {
          "name": "G1",
          "midi": 31,
          "time": 69.75581395348384,
          "velocity": 0.5433070866141733,
          "duration": 0.011627906976741542
        },
        {
          "name": "F1",
          "midi": 29,
          "time": 69.76744186046058,
          "velocity": 0.5275590551181102,
          "duration": 0.011627906976741542
        },
        {
          "name": "E4",
          "midi": 64,
          "time": 69.76744186046058,
          "velocity": 0.30708661417322836,
          "duration": 0.04651162790696617
        },
        {
          "name": "G#4",
          "midi": 68,
          "time": 69.76744186046058,
          "velocity": 0.30708661417322836,
          "duration": 0.488372093023159
        },
        {
          "name": "F2",
          "midi": 41,
          "time": 69.79069767441406,
          "velocity": 0.47244094488188976,
          "duration": 0.023255813953483084
        },
        {
          "name": "D#5",
          "midi": 75,
          "time": 69.79069767441406,
          "velocity": 0.08661417322834646,
          "duration": 0.034883720930224626
        },
        {
          "name": "F1",
          "midi": 29,
          "time": 69.8023255813908,
          "velocity": 0.47244094488188976,
          "duration": 0.023255813953483084
        },
        {
          "name": "C7",
          "midi": 96,
          "time": 69.8023255813908,
          "velocity": 0.14173228346456693,
          "duration": 0.04651162790696617
        },
        {
          "name": "F#4",
          "midi": 66,
          "time": 69.81395348836755,
          "velocity": 0.2677165354330709,
          "duration": 0.023255813953483084
        },
        {
          "name": "D5",
          "midi": 74,
          "time": 69.82558139534429,
          "velocity": 0.09448818897637795,
          "duration": 0.05813953488370771
        },
        {
          "name": "E3",
          "midi": 52,
          "time": 69.86046511627451,
          "velocity": 0.3228346456692913,
          "duration": 0.034883720930224626
        },
        {
          "name": "A#3",
          "midi": 58,
          "time": 69.87209302325125,
          "velocity": 0.2992125984251969,
          "duration": 0.023255813953483084
        },
        {
          "name": "E2",
          "midi": 40,
          "time": 69.883720930228,
          "velocity": 0.5039370078740157,
          "duration": 0.04651162790696617
        },
        {
          "name": "B3",
          "midi": 59,
          "time": 69.89534883720474,
          "velocity": 0.30708661417322836,
          "duration": 0.04651162790696617
        },
        {
          "name": "E4",
          "midi": 64,
          "time": 69.89534883720474,
          "velocity": 0.1889763779527559,
          "duration": 0.034883720930224626
        },
        {
          "name": "D5",
          "midi": 74,
          "time": 69.89534883720474,
          "velocity": 0.3858267716535433,
          "duration": 0.39534883720924086
        },
        {
          "name": "A6",
          "midi": 93,
          "time": 69.90697674418148,
          "velocity": 0.12598425196850394,
          "duration": 0.06976744186044925
        },
        {
          "name": "A#2",
          "midi": 46,
          "time": 69.95348837208844,
          "velocity": 0.2440944881889764,
          "duration": 0.023255813953483084
        },
        {
          "name": "E4",
          "midi": 64,
          "time": 69.96511627906519,
          "velocity": 0.14173228346456693,
          "duration": 0.05813953488372192
        },
        {
          "name": "E3",
          "midi": 52,
          "time": 69.97674418604193,
          "velocity": 0.2204724409448819,
          "duration": 0.05813953488372192
        },
        {
          "name": "C7",
          "midi": 96,
          "time": 69.97674418604193,
          "velocity": 0.13385826771653545,
          "duration": 0.05813953488372192
        },
        {
          "name": "C6",
          "midi": 84,
          "time": 69.98837209301867,
          "velocity": 0.14173228346456693,
          "duration": 0.06976744186046346
        },
        {
          "name": "E2",
          "midi": 40,
          "time": 70.03488372092565,
          "velocity": 0.3937007874015748,
          "duration": 0.034883720930224626
        },
        {
          "name": "B3",
          "midi": 59,
          "time": 70.03488372092565,
          "velocity": 0.09448818897637795,
          "duration": 0.034883720930224626
        },
        {
          "name": "C3",
          "midi": 48,
          "time": 70.09302325580936,
          "velocity": 0.15748031496062992,
          "duration": 0.034883720930224626
        },
        {
          "name": "E4",
          "midi": 64,
          "time": 70.1046511627861,
          "velocity": 0.14173228346456693,
          "duration": 0.10465116279067388
        },
        {
          "name": "C5",
          "midi": 72,
          "time": 70.1046511627861,
          "velocity": 0.2440944881889764,
          "duration": 0.023255813953483084
        },
        {
          "name": "F#6",
          "midi": 90,
          "time": 70.1046511627861,
          "velocity": 0.18110236220472442,
          "duration": 0.11627906976741542
        },
        {
          "name": "F#5",
          "midi": 78,
          "time": 70.11627906976284,
          "velocity": 0.33070866141732286,
          "duration": 0.2209302325581035
        },
        {
          "name": "B4",
          "midi": 71,
          "time": 70.12790697673958,
          "velocity": 0.29133858267716534,
          "duration": 0.20930232558136197
        },
        {
          "name": "D#7",
          "midi": 99,
          "time": 70.12790697673958,
          "velocity": 0.07086614173228346,
          "duration": 0.034883720930224626
        },
        {
          "name": "C#6",
          "midi": 85,
          "time": 70.15116279069306,
          "velocity": 0.08661417322834646,
          "duration": 0.034883720930224626
        },
        {
          "name": "C7",
          "midi": 96,
          "time": 70.1627906976698,
          "velocity": 0.1968503937007874,
          "duration": 0.06976744186044925
        },
        {
          "name": "C6",
          "midi": 84,
          "time": 70.19767441860003,
          "velocity": 0.13385826771653545,
          "duration": 0.034883720930224626
        },
        {
          "name": "B2",
          "midi": 47,
          "time": 70.244186046507,
          "velocity": 0.14960629921259844,
          "duration": 0.04651162790698038
        },
        {
          "name": "A5",
          "midi": 81,
          "time": 70.31395348836746,
          "velocity": 0.3779527559055118,
          "duration": 0.34883720930224626
        },
        {
          "name": "G5",
          "midi": 79,
          "time": 70.3255813953442,
          "velocity": 0.3858267716535433,
          "duration": 0.406976744185954
        },
        {
          "name": "C#6",
          "midi": 85,
          "time": 70.3255813953442,
          "velocity": 0.12598425196850394,
          "duration": 0.05813953488370771
        },
        {
          "name": "D6",
          "midi": 86,
          "time": 70.3255813953442,
          "velocity": 0.08661417322834646,
          "duration": 0.04651162790696617
        },
        {
          "name": "B4",
          "midi": 71,
          "time": 70.34883720929768,
          "velocity": 0.3464566929133858,
          "duration": 0.2558139534883139
        },
        {
          "name": "F#5",
          "midi": 78,
          "time": 70.36046511627443,
          "velocity": 0.15748031496062992,
          "duration": 0.04651162790696617
        },
        {
          "name": "C7",
          "midi": 96,
          "time": 70.36046511627443,
          "velocity": 0.11811023622047244,
          "duration": 0.04651162790696617
        },
        {
          "name": "F#2",
          "midi": 42,
          "time": 70.37209302325117,
          "velocity": 0.4409448818897638,
          "duration": 0.023255813953483084
        },
        {
          "name": "A#3",
          "midi": 58,
          "time": 70.37209302325117,
          "velocity": 0.25196850393700787,
          "duration": 0.023255813953483084
        },
        {
          "name": "B3",
          "midi": 59,
          "time": 70.39534883720465,
          "velocity": 0.30708661417322836,
          "duration": 0.10465116279067388
        },
        {
          "name": "G#4",
          "midi": 68,
          "time": 70.40697674418139,
          "velocity": 0.10236220472440945,
          "duration": 0.04651162790696617
        },
        {
          "name": "F2",
          "midi": 41,
          "time": 70.41860465115813,
          "velocity": 0.4094488188976378,
          "duration": 0.023255813953483084
        },
        {
          "name": "E2",
          "midi": 40,
          "time": 70.44186046511162,
          "velocity": 0.33070866141732286,
          "duration": 0.034883720930224626
        },
        {
          "name": "D5",
          "midi": 74,
          "time": 70.45348837208836,
          "velocity": 0.07874015748031496,
          "duration": 0.034883720930224626
        },
        {
          "name": "F#5",
          "midi": 78,
          "time": 70.4651162790651,
          "velocity": 0.10236220472440945,
          "duration": 0.06976744186044925
        },
        {
          "name": "G4",
          "midi": 67,
          "time": 70.48837209301858,
          "velocity": 0.33070866141732286,
          "duration": 0.26744186046505547
        },
        {
          "name": "D6",
          "midi": 86,
          "time": 70.51162790697207,
          "velocity": 0.2047244094488189,
          "duration": 0.1395348837208985
        },
        {
          "name": "B3",
          "midi": 59,
          "time": 70.52325581394881,
          "velocity": 0.2755905511811024,
          "duration": 0.05813953488370771
        },
        {
          "name": "C6",
          "midi": 84,
          "time": 70.53488372092555,
          "velocity": 0.08661417322834646,
          "duration": 0.04651162790696617
        },
        {
          "name": "E3",
          "midi": 52,
          "time": 70.54651162790229,
          "velocity": 0.25196850393700787,
          "duration": 0.023255813953483084
        },
        {
          "name": "B1",
          "midi": 35,
          "time": 70.58139534883252,
          "velocity": 0.30708661417322836,
          "duration": 0.023255813953483084
        },
        {
          "name": "F2",
          "midi": 41,
          "time": 70.61627906976274,
          "velocity": 0.36220472440944884,
          "duration": 0.023255813953483084
        },
        {
          "name": "A#6",
          "midi": 94,
          "time": 70.65116279069296,
          "velocity": 0.41732283464566927,
          "duration": 0.05813953488370771
        },
        {
          "name": "B2",
          "midi": 47,
          "time": 70.68604651162319,
          "velocity": 0.2440944881889764,
          "duration": 0.023255813953483084
        },
        {
          "name": "B6",
          "midi": 95,
          "time": 70.69767441859993,
          "velocity": 0.4409448818897638,
          "duration": 0.05813953488370771
        },
        {
          "name": "D6",
          "midi": 86,
          "time": 70.70930232557667,
          "velocity": 0.07086614173228346,
          "duration": 0.05813953488370771
        },
        {
          "name": "E3",
          "midi": 52,
          "time": 70.72093023255341,
          "velocity": 0.10236220472440945,
          "duration": 0.034883720930224626
        },
        {
          "name": "F#5",
          "midi": 78,
          "time": 70.7441860465069,
          "velocity": 0.3228346456692913,
          "duration": 0.19767441860460622
        },
        {
          "name": "A5",
          "midi": 81,
          "time": 70.7441860465069,
          "velocity": 0.3858267716535433,
          "duration": 0.7093023255812341
        },
        {
          "name": "A2",
          "midi": 45,
          "time": 70.75581395348364,
          "velocity": 0.44881889763779526,
          "duration": 0.023255813953483084
        },
        {
          "name": "A#6",
          "midi": 94,
          "time": 70.75581395348364,
          "velocity": 0.12598425196850394,
          "duration": 0.034883720930224626
        },
        {
          "name": "D4",
          "midi": 62,
          "time": 70.76744186046038,
          "velocity": 0.23622047244094488,
          "duration": 0.034883720930224626
        },
        {
          "name": "A4",
          "midi": 69,
          "time": 70.76744186046038,
          "velocity": 0.25196850393700787,
          "duration": 0.034883720930224626
        },
        {
          "name": "B6",
          "midi": 95,
          "time": 70.76744186046038,
          "velocity": 0.1732283464566929,
          "duration": 0.09302325581393234
        },
        {
          "name": "A#2",
          "midi": 46,
          "time": 70.8023255813906,
          "velocity": 0.5118110236220472,
          "duration": 0.011627906976741542
        },
        {
          "name": "F2",
          "midi": 41,
          "time": 70.81395348836735,
          "velocity": 0.5511811023622047,
          "duration": 0.011627906976741542
        },
        {
          "name": "E2",
          "midi": 40,
          "time": 70.82558139534409,
          "velocity": 0.5118110236220472,
          "duration": 0.011627906976741542
        },
        {
          "name": "A4",
          "midi": 69,
          "time": 70.82558139534409,
          "velocity": 0.12598425196850394,
          "duration": 0.034883720930224626
        },
        {
          "name": "G3",
          "midi": 55,
          "time": 70.83720930232083,
          "velocity": 0.18110236220472442,
          "duration": 0.034883720930224626
        },
        {
          "name": "B2",
          "midi": 47,
          "time": 70.8837209302278,
          "velocity": 0.4094488188976378,
          "duration": 0.023255813953483084
        },
        {
          "name": "F#4",
          "midi": 66,
          "time": 70.91860465115802,
          "velocity": 0.14173228346456693,
          "duration": 0.034883720930224626
        },
        {
          "name": "F2",
          "midi": 41,
          "time": 70.93023255813476,
          "velocity": 0.5039370078740157,
          "duration": 0.04651162790696617
        },
        {
          "name": "G5",
          "midi": 79,
          "time": 70.93023255813476,
          "velocity": 0.3937007874015748,
          "duration": 0.1627906976743816
        },
        {
          "name": "B6",
          "midi": 95,
          "time": 70.9418604651115,
          "velocity": 0.13385826771653545,
          "duration": 0.04651162790696617
        },
        {
          "name": "A#3",
          "midi": 58,
          "time": 70.96511627906499,
          "velocity": 0.1732283464566929,
          "duration": 0.034883720930224626
        },
        {
          "name": "A6",
          "midi": 93,
          "time": 70.96511627906499,
          "velocity": 0.49606299212598426,
          "duration": 0.4999999999998863
        },
        {
          "name": "C2",
          "midi": 36,
          "time": 70.97674418604173,
          "velocity": 0.5511811023622047,
          "duration": 0.011627906976741542
        },
        {
          "name": "D5",
          "midi": 74,
          "time": 70.97674418604173,
          "velocity": 0.3858267716535433,
          "duration": 0.3837209302324709
        },
        {
          "name": "F5",
          "midi": 77,
          "time": 70.97674418604173,
          "velocity": 0.11811023622047244,
          "duration": 0.05813953488370771
        },
        {
          "name": "D#2",
          "midi": 39,
          "time": 70.98837209301847,
          "velocity": 0.4330708661417323,
          "duration": 0.023255813953483084
        },
        {
          "name": "F#6",
          "midi": 90,
          "time": 70.98837209301847,
          "velocity": 0.28346456692913385,
          "duration": 0.19767441860460622
        },
        {
          "name": "G#6",
          "midi": 92,
          "time": 70.98837209301847,
          "velocity": 0.13385826771653545,
          "duration": 0.0813953488371908
        },
        {
          "name": "C7",
          "midi": 96,
          "time": 70.98837209301847,
          "velocity": 0.18110236220472442,
          "duration": 0.10465116279067388
        },
        {
          "name": "E7",
          "midi": 100,
          "time": 70.98837209301847,
          "velocity": 0.2677165354330709,
          "duration": 0.4418604651161786
        },
        {
          "name": "G4",
          "midi": 67,
          "time": 70.99999999999521,
          "velocity": 0.3700787401574803,
          "duration": 0.034883720930224626
        },
        {
          "name": "B5",
          "midi": 83,
          "time": 70.99999999999521,
          "velocity": 0.1968503937007874,
          "duration": 0.05813953488370771
        },
        {
          "name": "D4",
          "midi": 62,
          "time": 71.01162790697195,
          "velocity": 0.1968503937007874,
          "duration": 0.034883720930224626
        },
        {
          "name": "C#6",
          "midi": 85,
          "time": 71.01162790697195,
          "velocity": 0.23622047244094488,
          "duration": 0.04651162790696617
        },
        {
          "name": "E6",
          "midi": 88,
          "time": 71.01162790697195,
          "velocity": 0.10236220472440945,
          "duration": 0.04651162790696617
        },
        {
          "name": "A1",
          "midi": 33,
          "time": 71.0232558139487,
          "velocity": 0.4330708661417323,
          "duration": 0.023255813953483084
        },
        {
          "name": "A4",
          "midi": 69,
          "time": 71.03488372092544,
          "velocity": 0.15748031496062992,
          "duration": 0.034883720930224626
        },
        {
          "name": "B3",
          "midi": 59,
          "time": 71.04651162790218,
          "velocity": 0.2677165354330709,
          "duration": 0.06976744186044925
        },
        {
          "name": "G4",
          "midi": 67,
          "time": 71.05813953487892,
          "velocity": 0.33858267716535434,
          "duration": 0.023255813953483084
        },
        {
          "name": "A#6",
          "midi": 94,
          "time": 71.05813953487892,
          "velocity": 0.4330708661417323,
          "duration": 0.17441860465112313
        },
        {
          "name": "F#4",
          "midi": 66,
          "time": 71.06976744185566,
          "velocity": 0.41732283464566927,
          "duration": 0.05813953488370771
        },
        {
          "name": "B2",
          "midi": 47,
          "time": 71.0813953488324,
          "velocity": 0.3858267716535433,
          "duration": 0.034883720930224626
        },
        {
          "name": "C#6",
          "midi": 85,
          "time": 71.09302325580914,
          "velocity": 0.12598425196850394,
          "duration": 0.04651162790696617
        },
        {
          "name": "C#4",
          "midi": 61,
          "time": 71.11627906976263,
          "velocity": 0.28346456692913385,
          "duration": 0.023255813953483084
        },
        {
          "name": "G4",
          "midi": 67,
          "time": 71.11627906976263,
          "velocity": 0.3543307086614173,
          "duration": 0.279069767441797
        },
        {
          "name": "C#7",
          "midi": 97,
          "time": 71.11627906976263,
          "velocity": 0.14960629921259844,
          "duration": 0.034883720930224626
        },
        {
          "name": "B2",
          "midi": 47,
          "time": 71.12790697673937,
          "velocity": 0.3464566929133858,
          "duration": 0.023255813953483084
        },
        {
          "name": "C7",
          "midi": 96,
          "time": 71.12790697673937,
          "velocity": 0.08661417322834646,
          "duration": 0.04651162790696617
        },
        {
          "name": "G1",
          "midi": 31,
          "time": 71.13953488371611,
          "velocity": 0.33858267716535434,
          "duration": 0.023255813953483084
        },
        {
          "name": "D4",
          "midi": 62,
          "time": 71.13953488371611,
          "velocity": 0.3228346456692913,
          "duration": 0.06976744186044925
        },
        {
          "name": "D3",
          "midi": 50,
          "time": 71.16279069766959,
          "velocity": 0.3228346456692913,
          "duration": 0.023255813953483084
        },
        {
          "name": "A4",
          "midi": 69,
          "time": 71.18604651162308,
          "velocity": 0.13385826771653545,
          "duration": 0.034883720930224626
        },
        {
          "name": "E5",
          "midi": 76,
          "time": 71.18604651162308,
          "velocity": 0.29133858267716534,
          "duration": 0.1627906976743816
        },
        {
          "name": "B5",
          "midi": 83,
          "time": 71.18604651162308,
          "velocity": 0.14960629921259844,
          "duration": 0.12790697674415696
        },
        {
          "name": "E2",
          "midi": 40,
          "time": 71.19767441859982,
          "velocity": 0.4881889763779528,
          "duration": 0.023255813953483084
        },
        {
          "name": "E4",
          "midi": 64,
          "time": 71.20930232557656,
          "velocity": 0.2440944881889764,
          "duration": 0.05813953488370771
        },
        {
          "name": "F2",
          "midi": 41,
          "time": 71.24418604650678,
          "velocity": 0.4409448818897638,
          "duration": 0.023255813953483084
        },
        {
          "name": "F#6",
          "midi": 90,
          "time": 71.26744186046027,
          "velocity": 0.12598425196850394,
          "duration": 0.034883720930224626
        },
        {
          "name": "C4",
          "midi": 60,
          "time": 71.27906976743701,
          "velocity": 0.14173228346456693,
          "duration": 0.04651162790696617
        },
        {
          "name": "E4",
          "midi": 64,
          "time": 71.27906976743701,
          "velocity": 0.1732283464566929,
          "duration": 0.034883720930224626
        },
        {
          "name": "E4",
          "midi": 64,
          "time": 71.32558139534397,
          "velocity": 0.2283464566929134,
          "duration": 0.0813953488371908
        },
        {
          "name": "D#1",
          "midi": 27,
          "time": 71.37209302325094,
          "velocity": 0.33858267716535434,
          "duration": 0.023255813953483084
        },
        {
          "name": "C#5",
          "midi": 73,
          "time": 71.39534883720442,
          "velocity": 0.1968503937007874,
          "duration": 0.04651162790696617
        },
        {
          "name": "G#5",
          "midi": 80,
          "time": 71.39534883720442,
          "velocity": 0.10236220472440945,
          "duration": 0.04651162790696617
        },
        {
          "name": "B6",
          "midi": 95,
          "time": 71.39534883720442,
          "velocity": 0.5196850393700787,
          "duration": 1.279069767441655
        },
        {
          "name": "G#4",
          "midi": 68,
          "time": 71.40697674418116,
          "velocity": 0.2283464566929134,
          "duration": 0.034883720930224626
        },
        {
          "name": "E5",
          "midi": 76,
          "time": 71.40697674418116,
          "velocity": 0.25196850393700787,
          "duration": 0.09302325581393234
        },
        {
          "name": "F#5",
          "midi": 78,
          "time": 71.40697674418116,
          "velocity": 0.2283464566929134,
          "duration": 0.12790697674415696
        },
        {
          "name": "F#1",
          "midi": 30,
          "time": 71.44186046511139,
          "velocity": 0.5354330708661418,
          "duration": 0.011627906976741542
        },
        {
          "name": "E4",
          "midi": 64,
          "time": 71.44186046511139,
          "velocity": 0.4015748031496063,
          "duration": 0.17441860465112313
        },
        {
          "name": "G4",
          "midi": 67,
          "time": 71.44186046511139,
          "velocity": 0.28346456692913385,
          "duration": 0.023255813953483084
        },
        {
          "name": "B4",
          "midi": 71,
          "time": 71.44186046511139,
          "velocity": 0.25984251968503935,
          "duration": 0.04651162790696617
        },
        {
          "name": "B5",
          "midi": 83,
          "time": 71.44186046511139,
          "velocity": 0.2992125984251969,
          "duration": 0.26744186046505547
        },
        {
          "name": "C2",
          "midi": 36,
          "time": 71.45348837208813,
          "velocity": 0.5590551181102362,
          "duration": 0.011627906976741542
        },
        {
          "name": "D6",
          "midi": 86,
          "time": 71.46511627906487,
          "velocity": 0.18110236220472442,
          "duration": 0.11627906976741542
        },
        {
          "name": "C3",
          "midi": 48,
          "time": 71.47674418604161,
          "velocity": 0.4330708661417323,
          "duration": 0.023255813953483084
        },
        {
          "name": "F#3",
          "midi": 54,
          "time": 71.47674418604161,
          "velocity": 0.25984251968503935,
          "duration": 0.023255813953483084
        },
        {
          "name": "G4",
          "midi": 67,
          "time": 71.47674418604161,
          "velocity": 0.4330708661417323,
          "duration": 0.4069767441859682
        },
        {
          "name": "G3",
          "midi": 55,
          "time": 71.4999999999951,
          "velocity": 0.3464566929133858,
          "duration": 0.05813953488370771
        },
        {
          "name": "B4",
          "midi": 71,
          "time": 71.4999999999951,
          "velocity": 0.2755905511811024,
          "duration": 0.17441860465112313
        },
        {
          "name": "A6",
          "midi": 93,
          "time": 71.4999999999951,
          "velocity": 0.18110236220472442,
          "duration": 0.1627906976743816
        },
        {
          "name": "F2",
          "midi": 41,
          "time": 71.51162790697184,
          "velocity": 0.3543307086614173,
          "duration": 0.023255813953483084
        },
        {
          "name": "E2",
          "midi": 40,
          "time": 71.53488372092532,
          "velocity": 0.48031496062992124,
          "duration": 0.023255813953483084
        },
        {
          "name": "D#1",
          "midi": 27,
          "time": 71.5581395348788,
          "velocity": 0.4251968503937008,
          "duration": 0.023255813953483084
        },
        {
          "name": "B3",
          "midi": 59,
          "time": 71.5581395348788,
          "velocity": 0.30708661417322836,
          "duration": 0.023255813953483084
        },
        {
          "name": "F#5",
          "midi": 78,
          "time": 71.5581395348788,
          "velocity": 0.09448818897637795,
          "duration": 0.034883720930224626
        },
        {
          "name": "E2",
          "midi": 40,
          "time": 71.59302325580903,
          "velocity": 0.47244094488188976,
          "duration": 0.034883720930224626
        },
        {
          "name": "C4",
          "midi": 60,
          "time": 71.59302325580903,
          "velocity": 0.2440944881889764,
          "duration": 0.023255813953483084
        },
        {
          "name": "F6",
          "midi": 89,
          "time": 71.61627906976251,
          "velocity": 0.14960629921259844,
          "duration": 0.09302325581393234
        },
        {
          "name": "F2",
          "midi": 41,
          "time": 71.62790697673925,
          "velocity": 0.3464566929133858,
          "duration": 0.034883720930224626
        },
        {
          "name": "C3",
          "midi": 48,
          "time": 71.62790697673925,
          "velocity": 0.23622047244094488,
          "duration": 0.023255813953483084
        },
        {
          "name": "G3",
          "midi": 55,
          "time": 71.62790697673925,
          "velocity": 0.28346456692913385,
          "duration": 0.023255813953483084
        },
        {
          "name": "D5",
          "midi": 74,
          "time": 71.62790697673925,
          "velocity": 0.10236220472440945,
          "duration": 0.11627906976742963
        },
        {
          "name": "E4",
          "midi": 64,
          "time": 71.639534883716,
          "velocity": 0.31496062992125984,
          "duration": 0.290697674418567
        },
        {
          "name": "G3",
          "midi": 55,
          "time": 71.66279069766948,
          "velocity": 0.25984251968503935,
          "duration": 0.023255813953483084
        },
        {
          "name": "B4",
          "midi": 71,
          "time": 71.68604651162296,
          "velocity": 0.2677165354330709,
          "duration": 0.09302325581394655
        },
        {
          "name": "G3",
          "midi": 55,
          "time": 71.6976744185997,
          "velocity": 0.25196850393700787,
          "duration": 0.05813953488372192
        },
        {
          "name": "B0",
          "midi": 23,
          "time": 71.74418604650668,
          "velocity": 0.2992125984251969,
          "duration": 0.034883720930224626
        },
        {
          "name": "D#2",
          "midi": 39,
          "time": 71.75581395348343,
          "velocity": 0.3779527559055118,
          "duration": 0.023255813953483084
        },
        {
          "name": "F#3",
          "midi": 54,
          "time": 71.75581395348343,
          "velocity": 0.15748031496062992,
          "duration": 0.034883720930224626
        },
        {
          "name": "E2",
          "midi": 40,
          "time": 71.77906976743691,
          "velocity": 0.4409448818897638,
          "duration": 0.034883720930224626
        },
        {
          "name": "G3",
          "midi": 55,
          "time": 71.80232558139039,
          "velocity": 0.09448818897637795,
          "duration": 0.034883720930224626
        },
        {
          "name": "B4",
          "midi": 71,
          "time": 71.81395348836713,
          "velocity": 0.15748031496062992,
          "duration": 0.05813953488370771
        },
        {
          "name": "C#4",
          "midi": 61,
          "time": 71.82558139534387,
          "velocity": 0.23622047244094488,
          "duration": 0.023255813953483084
        },
        {
          "name": "D5",
          "midi": 74,
          "time": 71.82558139534387,
          "velocity": 0.2992125984251969,
          "duration": 0.22093023255813193
        },
        {
          "name": "A5",
          "midi": 81,
          "time": 71.82558139534387,
          "velocity": 0.29133858267716534,
          "duration": 0.2093023255813904
        },
        {
          "name": "F#6",
          "midi": 90,
          "time": 71.82558139534387,
          "velocity": 0.1968503937007874,
          "duration": 0.04651162790696617
        },
        {
          "name": "E2",
          "midi": 40,
          "time": 71.84883720929736,
          "velocity": 0.3779527559055118,
          "duration": 0.023255813953483084
        },
        {
          "name": "G3",
          "midi": 55,
          "time": 71.84883720929736,
          "velocity": 0.16535433070866143,
          "duration": 0.13953488372092693
        },
        {
          "name": "F#6",
          "midi": 90,
          "time": 71.9418604651113,
          "velocity": 0.07086614173228346,
          "duration": 0.04651162790698038
        },
        {
          "name": "E4",
          "midi": 64,
          "time": 71.97674418604154,
          "velocity": 0.1889763779527559,
          "duration": 0.09302325581394655
        },
        {
          "name": "E2",
          "midi": 40,
          "time": 72.02325581394852,
          "velocity": 0.2755905511811024,
          "duration": 0.04651162790696617
        },
        {
          "name": "E5",
          "midi": 76,
          "time": 72.03488372092527,
          "velocity": 0.3858267716535433,
          "duration": 0.3837209302324851
        },
        {
          "name": "A4",
          "midi": 69,
          "time": 72.046511627902,
          "velocity": 0.28346456692913385,
          "duration": 0.10465116279067388
        },
        {
          "name": "C5",
          "midi": 72,
          "time": 72.05813953487875,
          "velocity": 0.18110236220472442,
          "duration": 0.034883720930224626
        },
        {
          "name": "F#5",
          "midi": 78,
          "time": 72.05813953487875,
          "velocity": 0.08661417322834646,
          "duration": 0.04651162790696617
        },
        {
          "name": "C#6",
          "midi": 85,
          "time": 72.05813953487875,
          "velocity": 0.2677165354330709,
          "duration": 0.15116279069764005
        },
        {
          "name": "G6",
          "midi": 91,
          "time": 72.05813953487875,
          "velocity": 0.11023622047244094,
          "duration": 0.034883720930224626
        },
        {
          "name": "F2",
          "midi": 41,
          "time": 72.08139534883223,
          "velocity": 0.4566929133858268,
          "duration": 0.023255813953483084
        },
        {
          "name": "E4",
          "midi": 64,
          "time": 72.08139534883223,
          "velocity": 0.33070866141732286,
          "duration": 0.06976744186044925
        },
        {
          "name": "F2",
          "midi": 41,
          "time": 72.11627906976246,
          "velocity": 0.4645669291338583,
          "duration": 0.023255813953483084
        },
        {
          "name": "G3",
          "midi": 55,
          "time": 72.1279069767392,
          "velocity": 0.2677165354330709,
          "duration": 0.04651162790696617
        },
        {
          "name": "F2",
          "midi": 41,
          "time": 72.15116279069268,
          "velocity": 0.4409448818897638,
          "duration": 0.04651162790696617
        },
        {
          "name": "C4",
          "midi": 60,
          "time": 72.15116279069268,
          "velocity": 0.3779527559055118,
          "duration": 0.05813953488370771
        },
        {
          "name": "E4",
          "midi": 64,
          "time": 72.16279069766942,
          "velocity": 0.1889763779527559,
          "duration": 0.04651162790696617
        },
        {
          "name": "G4",
          "midi": 67,
          "time": 72.16279069766942,
          "velocity": 0.2755905511811024,
          "duration": 0.0813953488371908
        },
        {
          "name": "G3",
          "midi": 55,
          "time": 72.1860465116229,
          "velocity": 0.3543307086614173,
          "duration": 0.0813953488371908
        },
        {
          "name": "C3",
          "midi": 48,
          "time": 72.20930232557639,
          "velocity": 0.33070866141732286,
          "duration": 0.04651162790696617
        },
        {
          "name": "A4",
          "midi": 69,
          "time": 72.23255813952987,
          "velocity": 0.2283464566929134,
          "duration": 0.12790697674417117
        },
        {
          "name": "G1",
          "midi": 31,
          "time": 72.24418604650661,
          "velocity": 0.2440944881889764,
          "duration": 0.023255813953483084
        },
        {
          "name": "F4",
          "midi": 65,
          "time": 72.25581395348335,
          "velocity": 0.23622047244094488,
          "duration": 0.023255813953483084
        },
        {
          "name": "B2",
          "midi": 47,
          "time": 72.2674418604601,
          "velocity": 0.4015748031496063,
          "duration": 0.023255813953483084
        },
        {
          "name": "F3",
          "midi": 53,
          "time": 72.2674418604601,
          "velocity": 0.4330708661417323,
          "duration": 0.081395348837205
        },
        {
          "name": "B2",
          "midi": 47,
          "time": 72.36046511627404,
          "velocity": 0.41732283464566927,
          "duration": 0.04651162790696617
        },
        {
          "name": "F3",
          "midi": 53,
          "time": 72.36046511627404,
          "velocity": 0.3779527559055118,
          "duration": 0.04651162790696617
        },
        {
          "name": "A#3",
          "midi": 58,
          "time": 72.36046511627404,
          "velocity": 0.2125984251968504,
          "duration": 0.034883720930224626
        },
        {
          "name": "G#4",
          "midi": 68,
          "time": 72.36046511627404,
          "velocity": 0.2283464566929134,
          "duration": 0.023255813953483084
        },
        {
          "name": "A4",
          "midi": 69,
          "time": 72.37209302325078,
          "velocity": 0.11023622047244094,
          "duration": 0.034883720930224626
        },
        {
          "name": "F#3",
          "midi": 54,
          "time": 72.40697674418101,
          "velocity": 0.49606299212598426,
          "duration": 0.023255813953483084
        },
        {
          "name": "C#4",
          "midi": 61,
          "time": 72.41860465115775,
          "velocity": 0.2283464566929134,
          "duration": 0.023255813953483084
        },
        {
          "name": "G4",
          "midi": 67,
          "time": 72.41860465115775,
          "velocity": 0.1732283464566929,
          "duration": 0.05813953488370771
        },
        {
          "name": "F3",
          "midi": 53,
          "time": 72.43023255813449,
          "velocity": 0.5118110236220472,
          "duration": 0.25581395348832814
        },
        {
          "name": "G2",
          "midi": 43,
          "time": 72.44186046511123,
          "velocity": 0.33858267716535434,
          "duration": 0.023255813953483084
        },
        {
          "name": "A#4",
          "midi": 70,
          "time": 72.44186046511123,
          "velocity": 0.14173228346456693,
          "duration": 0.034883720930224626
        },
        {
          "name": "E5",
          "midi": 76,
          "time": 72.46511627906472,
          "velocity": 0.15748031496062992,
          "duration": 0.0813953488371908
        },
        {
          "name": "F#5",
          "midi": 78,
          "time": 72.46511627906472,
          "velocity": 0.3464566929133858,
          "duration": 0.2441860465115866
        },
        {
          "name": "F2",
          "midi": 41,
          "time": 72.47674418604146,
          "velocity": 0.3228346456692913,
          "duration": 0.023255813953483084
        },
        {
          "name": "B4",
          "midi": 71,
          "time": 72.47674418604146,
          "velocity": 0.36220472440944884,
          "duration": 0.3023255813952943
        },
        {
          "name": "D#6",
          "midi": 87,
          "time": 72.47674418604146,
          "velocity": 0.2125984251968504,
          "duration": 0.06976744186044925
        },
        {
          "name": "B3",
          "midi": 59,
          "time": 72.4883720930182,
          "velocity": 0.31496062992125984,
          "duration": 0.05813953488370771
        },
        {
          "name": "F#4",
          "midi": 66,
          "time": 72.49999999999494,
          "velocity": 0.2125984251968504,
          "duration": 0.034883720930224626
        },
        {
          "name": "E4",
          "midi": 64,
          "time": 72.51162790697168,
          "velocity": 0.29133858267716534,
          "duration": 0.023255813953483084
        },
        {
          "name": "E2",
          "midi": 40,
          "time": 72.53488372092517,
          "velocity": 0.44881889763779526,
          "duration": 0.034883720930224626
        },
        {
          "name": "D#4",
          "midi": 63,
          "time": 72.53488372092517,
          "velocity": 0.3228346456692913,
          "duration": 0.023255813953483084
        },
        {
          "name": "F2",
          "midi": 41,
          "time": 72.56976744185539,
          "velocity": 0.4409448818897638,
          "duration": 0.034883720930224626
        },
        {
          "name": "D#6",
          "midi": 87,
          "time": 72.58139534883213,
          "velocity": 0.10236220472440945,
          "duration": 0.12790697674417117
        },
        {
          "name": "B3",
          "midi": 59,
          "time": 72.59302325580887,
          "velocity": 0.23622047244094488,
          "duration": 0.13953488372091272
        },
        {
          "name": "E4",
          "midi": 64,
          "time": 72.59302325580887,
          "velocity": 0.14173228346456693,
          "duration": 0.09302325581394655
        },
        {
          "name": "F5",
          "midi": 77,
          "time": 72.68604651162282,
          "velocity": 0.11811023622047244,
          "duration": 0.04651162790696617
        },
        {
          "name": "A5",
          "midi": 81,
          "time": 72.68604651162282,
          "velocity": 0.14173228346456693,
          "duration": 0.05813953488370771
        },
        {
          "name": "B6",
          "midi": 95,
          "time": 72.68604651162282,
          "velocity": 0.49606299212598426,
          "duration": 0.7209302325579898
        },
        {
          "name": "G5",
          "midi": 79,
          "time": 72.69767441859956,
          "velocity": 0.1732283464566929,
          "duration": 0.06976744186044925
        },
        {
          "name": "A#5",
          "midi": 82,
          "time": 72.69767441859956,
          "velocity": 0.1732283464566929,
          "duration": 0.0813953488371908
        },
        {
          "name": "G4",
          "midi": 67,
          "time": 72.7093023255763,
          "velocity": 0.3700787401574803,
          "duration": 0.3837209302324851
        },
        {
          "name": "B2",
          "midi": 47,
          "time": 72.72093023255304,
          "velocity": 0.2440944881889764,
          "duration": 0.023255813953483084
        },
        {
          "name": "E3",
          "midi": 52,
          "time": 72.72093023255304,
          "velocity": 0.23622047244094488,
          "duration": 0.023255813953483084
        },
        {
          "name": "C6",
          "midi": 84,
          "time": 72.72093023255304,
          "velocity": 0.11023622047244094,
          "duration": 0.04651162790696617
        },
        {
          "name": "E5",
          "midi": 76,
          "time": 72.74418604650653,
          "velocity": 0.14173228346456693,
          "duration": 0.034883720930224626
        },
        {
          "name": "D6",
          "midi": 86,
          "time": 72.74418604650653,
          "velocity": 0.12598425196850394,
          "duration": 0.10465116279067388
        },
        {
          "name": "F#5",
          "midi": 78,
          "time": 72.76744186046001,
          "velocity": 0.18110236220472442,
          "duration": 0.15116279069765426
        },
        {
          "name": "F3",
          "midi": 53,
          "time": 72.77906976743675,
          "velocity": 0.29133858267716534,
          "duration": 0.04651162790696617
        },
        {
          "name": "E4",
          "midi": 64,
          "time": 72.77906976743675,
          "velocity": 0.3228346456692913,
          "duration": 0.17441860465113734
        },
        {
          "name": "C3",
          "midi": 48,
          "time": 72.7906976744135,
          "velocity": 0.25984251968503935,
          "duration": 0.023255813953483084
        },
        {
          "name": "C4",
          "midi": 60,
          "time": 72.7906976744135,
          "velocity": 0.28346456692913385,
          "duration": 0.0813953488371908
        },
        {
          "name": "B4",
          "midi": 71,
          "time": 72.7906976744135,
          "velocity": 0.2677165354330709,
          "duration": 0.13953488372091272
        },
        {
          "name": "F3",
          "midi": 53,
          "time": 72.83720930232046,
          "velocity": 0.33070866141732286,
          "duration": 0.023255813953483084
        },
        {
          "name": "F2",
          "midi": 41,
          "time": 72.86046511627394,
          "velocity": 0.33070866141732286,
          "duration": 0.023255813953483084
        },
        {
          "name": "F3",
          "midi": 53,
          "time": 72.87209302325068,
          "velocity": 0.33070866141732286,
          "duration": 0.081395348837205
        },
        {
          "name": "G#0",
          "midi": 20,
          "time": 72.9302325581344,
          "velocity": 0.3228346456692913,
          "duration": 0.023255813953483084
        },
        {
          "name": "D#4",
          "midi": 63,
          "time": 72.95348837208789,
          "velocity": 0.33070866141732286,
          "duration": 0.05813953488370771
        },
        {
          "name": "F#5",
          "midi": 78,
          "time": 72.97674418604137,
          "velocity": 0.08661417322834646,
          "duration": 0.04651162790696617
        },
        {
          "name": "F#2",
          "midi": 42,
          "time": 72.99999999999486,
          "velocity": 0.4881889763779528,
          "duration": 0.023255813953483084
        },
        {
          "name": "B4",
          "midi": 71,
          "time": 72.99999999999486,
          "velocity": 0.14173228346456693,
          "duration": 0.06976744186044925
        },
        {
          "name": "E4",
          "midi": 64,
          "time": 73.0116279069716,
          "velocity": 0.1732283464566929,
          "duration": 0.05813953488370771
        },
        {
          "name": "F2",
          "midi": 41,
          "time": 73.02325581394834,
          "velocity": 0.4881889763779528,
          "duration": 0.023255813953483084
        },
        {
          "name": "E3",
          "midi": 52,
          "time": 73.03488372092508,
          "velocity": 0.23622047244094488,
          "duration": 0.023255813953483084
        },
        {
          "name": "D2",
          "midi": 38,
          "time": 73.04651162790182,
          "velocity": 0.36220472440944884,
          "duration": 0.023255813953483084
        },
        {
          "name": "C4",
          "midi": 60,
          "time": 73.08139534883205,
          "velocity": 0.1732283464566929,
          "duration": 0.034883720930224626
        },
        {
          "name": "F#2",
          "midi": 42,
          "time": 73.09302325580879,
          "velocity": 0.3464566929133858,
          "duration": 0.023255813953483084
        },
        {
          "name": "F#5",
          "midi": 78,
          "time": 73.10465116278553,
          "velocity": 0.29133858267716534,
          "duration": 0.2558139534883139
        },
        {
          "name": "G5",
          "midi": 79,
          "time": 73.10465116278553,
          "velocity": 0.1889763779527559,
          "duration": 0.034883720930224626
        },
        {
          "name": "G4",
          "midi": 67,
          "time": 73.11627906976227,
          "velocity": 0.25984251968503935,
          "duration": 0.023255813953483084
        },
        {
          "name": "D#6",
          "midi": 87,
          "time": 73.11627906976227,
          "velocity": 0.14173228346456693,
          "duration": 0.034883720930224626
        },
        {
          "name": "A6",
          "midi": 93,
          "time": 73.11627906976227,
          "velocity": 0.4881889763779528,
          "duration": 0.6976744186044925
        },
        {
          "name": "D4",
          "midi": 62,
          "time": 73.12790697673901,
          "velocity": 0.3543307086614173,
          "duration": 0.04651162790696617
        },
        {
          "name": "A5",
          "midi": 81,
          "time": 73.12790697673901,
          "velocity": 0.3937007874015748,
          "duration": 0.6976744186044925
        },
        {
          "name": "C#6",
          "midi": 85,
          "time": 73.12790697673901,
          "velocity": 0.11023622047244094,
          "duration": 0.034883720930224626
        },
        {
          "name": "E7",
          "midi": 100,
          "time": 73.12790697673901,
          "velocity": 0.2677165354330709,
          "duration": 0.4651162790696617
        },
        {
          "name": "C3",
          "midi": 48,
          "time": 73.13953488371575,
          "velocity": 0.47244094488188976,
          "duration": 0.023255813953483084
        },
        {
          "name": "F#4",
          "midi": 66,
          "time": 73.13953488371575,
          "velocity": 0.2440944881889764,
          "duration": 0.023255813953483084
        },
        {
          "name": "F4",
          "midi": 65,
          "time": 73.1511627906925,
          "velocity": 0.3464566929133858,
          "duration": 0.023255813953483084
        },
        {
          "name": "C5",
          "midi": 72,
          "time": 73.1511627906925,
          "velocity": 0.23622047244094488,
          "duration": 0.034883720930224626
        },
        {
          "name": "B5",
          "midi": 83,
          "time": 73.1511627906925,
          "velocity": 0.13385826771653545,
          "duration": 0.05813953488370771
        },
        {
          "name": "F1",
          "midi": 29,
          "time": 73.16279069766924,
          "velocity": 0.5275590551181102,
          "duration": 0.011627906976741542
        },
        {
          "name": "D3",
          "midi": 50,
          "time": 73.16279069766924,
          "velocity": 0.2992125984251969,
          "duration": 0.023255813953483084
        },
        {
          "name": "D#3",
          "midi": 51,
          "time": 73.17441860464598,
          "velocity": 0.2677165354330709,
          "duration": 0.023255813953483084
        },
        {
          "name": "A3",
          "midi": 57,
          "time": 73.17441860464598,
          "velocity": 0.33858267716535434,
          "duration": 0.1395348837208985
        },
        {
          "name": "E4",
          "midi": 64,
          "time": 73.17441860464598,
          "velocity": 0.3543307086614173,
          "duration": 0.04651162790696617
        },
        {
          "name": "D5",
          "midi": 74,
          "time": 73.17441860464598,
          "velocity": 0.16535433070866143,
          "duration": 0.034883720930224626
        },
        {
          "name": "G#5",
          "midi": 80,
          "time": 73.17441860464598,
          "velocity": 0.13385826771653545,
          "duration": 0.11627906976741542
        },
        {
          "name": "C#7",
          "midi": 97,
          "time": 73.17441860464598,
          "velocity": 0.10236220472440945,
          "duration": 0.04651162790696617
        },
        {
          "name": "E1",
          "midi": 28,
          "time": 73.19767441859946,
          "velocity": 0.5118110236220472,
          "duration": 0.011627906976741542
        },
        {
          "name": "C3",
          "midi": 48,
          "time": 73.2093023255762,
          "velocity": 0.41732283464566927,
          "duration": 0.023255813953483084
        },
        {
          "name": "F#4",
          "midi": 66,
          "time": 73.2093023255762,
          "velocity": 0.36220472440944884,
          "duration": 0.39534883720921243
        },
        {
          "name": "C5",
          "midi": 72,
          "time": 73.2093023255762,
          "velocity": 0.1889763779527559,
          "duration": 0.11627906976741542
        },
        {
          "name": "A#6",
          "midi": 94,
          "time": 73.2093023255762,
          "velocity": 0.4330708661417323,
          "duration": 0.17441860465112313
        },
        {
          "name": "C#4",
          "midi": 61,
          "time": 73.22093023255294,
          "velocity": 0.33070866141732286,
          "duration": 0.04651162790696617
        },
        {
          "name": "D5",
          "midi": 74,
          "time": 73.23255813952969,
          "velocity": 0.2204724409448819,
          "duration": 0.06976744186044925
        },
        {
          "name": "E5",
          "midi": 76,
          "time": 73.23255813952969,
          "velocity": 0.13385826771653545,
          "duration": 0.04651162790696617
        },
        {
          "name": "D#3",
          "midi": 51,
          "time": 73.24418604650643,
          "velocity": 0.33858267716535434,
          "duration": 0.034883720930224626
        },
        {
          "name": "C#6",
          "midi": 85,
          "time": 73.24418604650643,
          "velocity": 0.12598425196850394,
          "duration": 0.04651162790696617
        },
        {
          "name": "B1",
          "midi": 35,
          "time": 73.25581395348317,
          "velocity": 0.41732283464566927,
          "duration": 0.023255813953483084
        },
        {
          "name": "G#2",
          "midi": 44,
          "time": 73.26744186045991,
          "velocity": 0.33858267716535434,
          "duration": 0.023255813953483084
        },
        {
          "name": "D4",
          "midi": 62,
          "time": 73.26744186045991,
          "velocity": 0.2283464566929134,
          "duration": 0.06976744186044925
        },
        {
          "name": "A4",
          "midi": 69,
          "time": 73.32558139534362,
          "velocity": 0.2125984251968504,
          "duration": 0.15116279069764005
        },
        {
          "name": "G#2",
          "midi": 44,
          "time": 73.33720930232036,
          "velocity": 0.4094488188976378,
          "duration": 0.023255813953483084
        },
        {
          "name": "A3",
          "midi": 57,
          "time": 73.33720930232036,
          "velocity": 0.2440944881889764,
          "duration": 0.11627906976741542
        },
        {
          "name": "G6",
          "midi": 91,
          "time": 73.33720930232036,
          "velocity": 0.18110236220472442,
          "duration": 0.0813953488371908
        },
        {
          "name": "C5",
          "midi": 72,
          "time": 73.3488372092971,
          "velocity": 0.11023622047244094,
          "duration": 0.06976744186044925
        },
        {
          "name": "G5",
          "midi": 79,
          "time": 73.3488372092971,
          "velocity": 0.14960629921259844,
          "duration": 0.0813953488371908
        },
        {
          "name": "A0",
          "midi": 21,
          "time": 73.37209302325059,
          "velocity": 0.2755905511811024,
          "duration": 0.023255813953483084
        },
        {
          "name": "E5",
          "midi": 76,
          "time": 73.37209302325059,
          "velocity": 0.15748031496062992,
          "duration": 0.11627906976741542
        },
        {
          "name": "D4",
          "midi": 62,
          "time": 73.40697674418081,
          "velocity": 0.2125984251968504,
          "duration": 0.12790697674415696
        },
        {
          "name": "D3",
          "midi": 50,
          "time": 73.41860465115755,
          "velocity": 0.2204724409448819,
          "duration": 0.034883720930224626
        },
        {
          "name": "E2",
          "midi": 40,
          "time": 73.47674418604126,
          "velocity": 0.4094488188976378,
          "duration": 0.023255813953483084
        },
        {
          "name": "C#5",
          "midi": 73,
          "time": 73.51162790697148,
          "velocity": 0.16535433070866143,
          "duration": 0.04651162790696617
        },
        {
          "name": "B3",
          "midi": 59,
          "time": 73.53488372092497,
          "velocity": 0.2992125984251969,
          "duration": 0.023255813953483084
        },
        {
          "name": "B1",
          "midi": 35,
          "time": 73.54651162790171,
          "velocity": 0.5511811023622047,
          "duration": 0.011627906976741542
        },
        {
          "name": "D5",
          "midi": 74,
          "time": 73.54651162790171,
          "velocity": 0.30708661417322836,
          "duration": 0.1627906976743816
        },
        {
          "name": "E5",
          "midi": 76,
          "time": 73.54651162790171,
          "velocity": 0.10236220472440945,
          "duration": 0.05813953488370771
        },
        {
          "name": "F#6",
          "midi": 90,
          "time": 73.54651162790171,
          "velocity": 0.2204724409448819,
          "duration": 0.17441860465112313
        },
        {
          "name": "B6",
          "midi": 95,
          "time": 73.54651162790171,
          "velocity": 0.4645669291338583,
          "duration": 0.6046511627905886
        },
        {
          "name": "C2",
          "midi": 36,
          "time": 73.55813953487845,
          "velocity": 0.5354330708661418,
          "duration": 0.011627906976741542
        },
        {
          "name": "B2",
          "midi": 47,
          "time": 73.55813953487845,
          "velocity": 0.48031496062992124,
          "duration": 0.034883720930224626
        },
        {
          "name": "D#2",
          "midi": 39,
          "time": 73.56976744185519,
          "velocity": 0.5196850393700787,
          "duration": 0.011627906976741542
        },
        {
          "name": "A3",
          "midi": 57,
          "time": 73.56976744185519,
          "velocity": 0.2125984251968504,
          "duration": 0.034883720930224626
        },
        {
          "name": "D4",
          "midi": 62,
          "time": 73.56976744185519,
          "velocity": 0.2677165354330709,
          "duration": 0.17441860465112313
        },
        {
          "name": "E2",
          "midi": 40,
          "time": 73.58139534883193,
          "velocity": 0.5354330708661418,
          "duration": 0.011627906976741542
        },
        {
          "name": "B5",
          "midi": 83,
          "time": 73.58139534883193,
          "velocity": 0.28346456692913385,
          "duration": 0.23255813953483084
        },
        {
          "name": "C2",
          "midi": 36,
          "time": 73.59302325580867,
          "velocity": 0.5118110236220472,
          "duration": 0.011627906976741542
        },
        {
          "name": "F4",
          "midi": 65,
          "time": 73.60465116278542,
          "velocity": 0.2283464566929134,
          "duration": 0.023255813953483084
        },
        {
          "name": "G1",
          "midi": 31,
          "time": 73.61627906976216,
          "velocity": 0.48031496062992124,
          "duration": 0.023255813953483084
        },
        {
          "name": "B2",
          "midi": 47,
          "time": 73.6279069767389,
          "velocity": 0.4409448818897638,
          "duration": 0.023255813953483084
        },
        {
          "name": "G4",
          "midi": 67,
          "time": 73.6279069767389,
          "velocity": 0.36220472440944884,
          "duration": 0.1627906976743816
        },
        {
          "name": "A1",
          "midi": 33,
          "time": 73.65116279069238,
          "velocity": 0.5196850393700787,
          "duration": 0.011627906976741542
        },
        {
          "name": "B4",
          "midi": 71,
          "time": 73.65116279069238,
          "velocity": 0.2440944881889764,
          "duration": 0.05813953488370771
        },
        {
          "name": "B1",
          "midi": 35,
          "time": 73.66279069766912,
          "velocity": 0.5196850393700787,
          "duration": 0.011627906976741542
        },
        {
          "name": "C2",
          "midi": 36,
          "time": 73.69767441859935,
          "velocity": 0.5433070866141733,
          "duration": 0.011627906976741542
        },
        {
          "name": "C#5",
          "midi": 73,
          "time": 73.70930232557609,
          "velocity": 0.08661417322834646,
          "duration": 0.034883720930224626
        },
        {
          "name": "G1",
          "midi": 31,
          "time": 73.72093023255283,
          "velocity": 0.3937007874015748,
          "duration": 0.023255813953483084
        },
        {
          "name": "B4",
          "midi": 71,
          "time": 73.72093023255283,
          "velocity": 0.16535433070866143,
          "duration": 0.0813953488371908
        },
        {
          "name": "B2",
          "midi": 47,
          "time": 73.73255813952957,
          "velocity": 0.3228346456692913,
          "duration": 0.023255813953483084
        },
        {
          "name": "D#3",
          "midi": 51,
          "time": 73.75581395348306,
          "velocity": 0.2440944881889764,
          "duration": 0.023255813953483084
        },
        {
          "name": "A3",
          "midi": 57,
          "time": 73.75581395348306,
          "velocity": 0.1889763779527559,
          "duration": 0.04651162790696617
        },
        {
          "name": "C#5",
          "midi": 73,
          "time": 73.75581395348306,
          "velocity": 0.11811023622047244,
          "duration": 0.034883720930224626
        },
        {
          "name": "F#5",
          "midi": 78,
          "time": 73.75581395348306,
          "velocity": 0.3543307086614173,
          "duration": 0.18604651162787889
        },
        {
          "name": "C#6",
          "midi": 85,
          "time": 73.7674418604598,
          "velocity": 0.11811023622047244,
          "duration": 0.05813953488370771
        },
        {
          "name": "E4",
          "midi": 64,
          "time": 73.77906976743654,
          "velocity": 0.3543307086614173,
          "duration": 0.04651162790696617
        },
        {
          "name": "D#3",
          "midi": 51,
          "time": 73.80232558139002,
          "velocity": 0.33858267716535434,
          "duration": 0.023255813953483084
        },
        {
          "name": "C2",
          "midi": 36,
          "time": 73.83720930232025,
          "velocity": 0.48031496062992124,
          "duration": 0.023255813953483084
        },
        {
          "name": "B4",
          "midi": 71,
          "time": 73.84883720929699,
          "velocity": 0.10236220472440945,
          "duration": 0.034883720930224626
        },
        {
          "name": "G4",
          "midi": 67,
          "time": 73.86046511627373,
          "velocity": 0.1968503937007874,
          "duration": 0.05813953488372192
        },
        {
          "name": "A3",
          "midi": 57,
          "time": 73.88372093022721,
          "velocity": 0.2992125984251969,
          "duration": 0.05813953488372192
        },
        {
          "name": "D4",
          "midi": 62,
          "time": 73.88372093022721,
          "velocity": 0.25196850393700787,
          "duration": 0.13953488372092693
        },
        {
          "name": "B5",
          "midi": 83,
          "time": 73.88372093022721,
          "velocity": 0.12598425196850394,
          "duration": 0.04651162790698038
        },
        {
          "name": "F#4",
          "midi": 66,
          "time": 73.91860465115745,
          "velocity": 0.13385826771653545,
          "duration": 0.034883720930224626
        },
        {
          "name": "D#3",
          "midi": 51,
          "time": 73.9302325581342,
          "velocity": 0.25196850393700787,
          "duration": 0.034883720930224626
        },
        {
          "name": "A3",
          "midi": 57,
          "time": 73.96511627906442,
          "velocity": 0.1968503937007874,
          "duration": 0.09302325581394655
        },
        {
          "name": "D7",
          "midi": 98,
          "time": 73.97674418604116,
          "velocity": 0.5196850393700787,
          "duration": 0.6627906976742963
        },
        {
          "name": "E4",
          "midi": 64,
          "time": 74.0116279069714,
          "velocity": 0.1968503937007874,
          "duration": 0.04651162790696617
        },
        {
          "name": "D5",
          "midi": 74,
          "time": 74.0116279069714,
          "velocity": 0.25196850393700787,
          "duration": 0.11627906976741542
        },
        {
          "name": "B5",
          "midi": 83,
          "time": 74.0116279069714,
          "velocity": 0.1968503937007874,
          "duration": 0.17441860465112313
        },
        {
          "name": "F#5",
          "midi": 78,
          "time": 74.02325581394814,
          "velocity": 0.16535433070866143,
          "duration": 0.09302325581393234
        },
        {
          "name": "G4",
          "midi": 67,
          "time": 74.03488372092488,
          "velocity": 0.2677165354330709,
          "duration": 0.18604651162786467
        },
        {
          "name": "B4",
          "midi": 71,
          "time": 74.03488372092488,
          "velocity": 0.16535433070866143,
          "duration": 0.034883720930224626
        },
        {
          "name": "A6",
          "midi": 93,
          "time": 74.03488372092488,
          "velocity": 0.08661417322834646,
          "duration": 0.05813953488370771
        },
        {
          "name": "D4",
          "midi": 62,
          "time": 74.05813953487836,
          "velocity": 0.13385826771653545,
          "duration": 0.06976744186044925
        },
        {
          "name": "B4",
          "midi": 71,
          "time": 74.08139534883185,
          "velocity": 0.2283464566929134,
          "duration": 0.05813953488370771
        },
        {
          "name": "D5",
          "midi": 74,
          "time": 74.13953488371556,
          "velocity": 0.30708661417322836,
          "duration": 0.25581395348832814
        },
        {
          "name": "D4",
          "midi": 62,
          "time": 74.1511627906923,
          "velocity": 0.08661417322834646,
          "duration": 0.034883720930224626
        },
        {
          "name": "A3",
          "midi": 57,
          "time": 74.16279069766904,
          "velocity": 0.13385826771653545,
          "duration": 0.034883720930224626
        },
        {
          "name": "B4",
          "midi": 71,
          "time": 74.16279069766904,
          "velocity": 0.12598425196850394,
          "duration": 0.05813953488370771
        },
        {
          "name": "G#1",
          "midi": 32,
          "time": 74.18604651162252,
          "velocity": 0.2440944881889764,
          "duration": 0.023255813953483084
        },
        {
          "name": "A5",
          "midi": 81,
          "time": 74.18604651162252,
          "velocity": 0.33070866141732286,
          "duration": 0.6976744186045352
        },
        {
          "name": "F#6",
          "midi": 90,
          "time": 74.18604651162252,
          "velocity": 0.2125984251968504,
          "duration": 0.04651162790696617
        },
        {
          "name": "G2",
          "midi": 43,
          "time": 74.19767441859926,
          "velocity": 0.33858267716535434,
          "duration": 0.023255813953483084
        },
        {
          "name": "F#2",
          "midi": 42,
          "time": 74.22093023255275,
          "velocity": 0.4645669291338583,
          "duration": 0.023255813953483084
        },
        {
          "name": "A3",
          "midi": 57,
          "time": 74.22093023255275,
          "velocity": 0.2283464566929134,
          "duration": 0.023255813953483084
        },
        {
          "name": "C5",
          "midi": 72,
          "time": 74.22093023255275,
          "velocity": 0.1732283464566929,
          "duration": 0.034883720930224626
        },
        {
          "name": "F2",
          "midi": 41,
          "time": 74.24418604650623,
          "velocity": 0.49606299212598426,
          "duration": 0.05813953488370771
        },
        {
          "name": "D4",
          "midi": 62,
          "time": 74.25581395348297,
          "velocity": 0.2755905511811024,
          "duration": 0.12790697674417117
        },
        {
          "name": "D#3",
          "midi": 51,
          "time": 74.27906976743645,
          "velocity": 0.28346456692913385,
          "duration": 0.023255813953483084
        },
        {
          "name": "G4",
          "midi": 67,
          "time": 74.27906976743645,
          "velocity": 0.2047244094488189,
          "duration": 0.05813953488372192
        },
        {
          "name": "F#6",
          "midi": 90,
          "time": 74.2906976744132,
          "velocity": 0.10236220472440945,
          "duration": 0.04651162790698038
        },
        {
          "name": "E2",
          "midi": 40,
          "time": 74.30232558138994,
          "velocity": 0.3858267716535433,
          "duration": 0.04651162790698038
        },
        {
          "name": "G#3",
          "midi": 56,
          "time": 74.36046511627366,
          "velocity": 0.12598425196850394,
          "duration": 0.034883720930224626
        },
        {
          "name": "F2",
          "midi": 41,
          "time": 74.3720930232504,
          "velocity": 0.36220472440944884,
          "duration": 0.023255813953483084
        },
        {
          "name": "A#2",
          "midi": 46,
          "time": 74.40697674418062,
          "velocity": 0.2992125984251969,
          "duration": 0.034883720930224626
        },
        {
          "name": "A6",
          "midi": 93,
          "time": 74.40697674418062,
          "velocity": 0.4645669291338583,
          "duration": 0.6162790697673302
        },
        {
          "name": "G1",
          "midi": 31,
          "time": 74.41860465115737,
          "velocity": 0.25196850393700787,
          "duration": 0.023255813953483084
        },
        {
          "name": "A4",
          "midi": 69,
          "time": 74.41860465115737,
          "velocity": 0.1732283464566929,
          "duration": 0.05813953488370771
        },
        {
          "name": "C5",
          "midi": 72,
          "time": 74.41860465115737,
          "velocity": 0.13385826771653545,
          "duration": 0.034883720930224626
        },
        {
          "name": "E5",
          "midi": 76,
          "time": 74.41860465115737,
          "velocity": 0.29133858267716534,
          "duration": 0.4069767441859824
        },
        {
          "name": "C6",
          "midi": 84,
          "time": 74.41860465115737,
          "velocity": 0.2047244094488189,
          "duration": 0.04651162790696617
        },
        {
          "name": "C#6",
          "midi": 85,
          "time": 74.41860465115737,
          "velocity": 0.25196850393700787,
          "duration": 0.11627906976741542
        },
        {
          "name": "G6",
          "midi": 91,
          "time": 74.41860465115737,
          "velocity": 0.07874015748031496,
          "duration": 0.034883720930224626
        },
        {
          "name": "B6",
          "midi": 95,
          "time": 74.41860465115737,
          "velocity": 0.08661417322834646,
          "duration": 0.05813953488370771
        },
        {
          "name": "E7",
          "midi": 100,
          "time": 74.41860465115737,
          "velocity": 0.25196850393700787,
          "duration": 0.45348837209294857
        },
        {
          "name": "D4",
          "midi": 62,
          "time": 74.43023255813411,
          "velocity": 0.23622047244094488,
          "duration": 0.04651162790696617
        },
        {
          "name": "G#5",
          "midi": 80,
          "time": 74.43023255813411,
          "velocity": 0.15748031496062992,
          "duration": 0.04651162790696617
        },
        {
          "name": "D#7",
          "midi": 99,
          "time": 74.44186046511085,
          "velocity": 0.11811023622047244,
          "duration": 0.05813953488370771
        },
        {
          "name": "D3",
          "midi": 50,
          "time": 74.45348837208759,
          "velocity": 0.2677165354330709,
          "duration": 0.034883720930224626
        },
        {
          "name": "F#5",
          "midi": 78,
          "time": 74.45348837208759,
          "velocity": 0.33858267716535434,
          "duration": 0.20930232558134776
        },
        {
          "name": "B5",
          "midi": 83,
          "time": 74.45348837208759,
          "velocity": 0.18110236220472442,
          "duration": 0.034883720930224626
        },
        {
          "name": "G#1",
          "midi": 32,
          "time": 74.46511627906433,
          "velocity": 0.2440944881889764,
          "duration": 0.023255813953483084
        },
        {
          "name": "F2",
          "midi": 41,
          "time": 74.47674418604107,
          "velocity": 0.3700787401574803,
          "duration": 0.04651162790696617
        },
        {
          "name": "A#4",
          "midi": 70,
          "time": 74.47674418604107,
          "velocity": 0.25984251968503935,
          "duration": 0.04651162790696617
        },
        {
          "name": "D6",
          "midi": 86,
          "time": 74.48837209301782,
          "velocity": 0.18110236220472442,
          "duration": 0.04651162790696617
        },
        {
          "name": "A3",
          "midi": 57,
          "time": 74.49999999999456,
          "velocity": 0.15748031496062992,
          "duration": 0.09302325581393234
        },
        {
          "name": "D4",
          "midi": 62,
          "time": 74.49999999999456,
          "velocity": 0.18110236220472442,
          "duration": 0.034883720930224626
        },
        {
          "name": "D5",
          "midi": 74,
          "time": 74.49999999999456,
          "velocity": 0.2440944881889764,
          "duration": 0.1627906976743816
        },
        {
          "name": "B5",
          "midi": 83,
          "time": 74.5116279069713,
          "velocity": 0.2755905511811024,
          "duration": 0.11627906976741542
        },
        {
          "name": "A4",
          "midi": 69,
          "time": 74.52325581394804,
          "velocity": 0.2047244094488189,
          "duration": 0.23255813953484505
        },
        {
          "name": "A2",
          "midi": 45,
          "time": 74.53488372092478,
          "velocity": 0.2992125984251969,
          "duration": 0.023255813953483084
        },
        {
          "name": "D4",
          "midi": 62,
          "time": 74.55813953487826,
          "velocity": 0.09448818897637795,
          "duration": 0.10465116279067388
        },
        {
          "name": "B4",
          "midi": 71,
          "time": 74.58139534883175,
          "velocity": 0.15748031496062992,
          "duration": 0.09302325581393234
        },
        {
          "name": "C#6",
          "midi": 85,
          "time": 74.59302325580849,
          "velocity": 0.07874015748031496,
          "duration": 0.05813953488370771
        },
        {
          "name": "F2",
          "midi": 41,
          "time": 74.61627906976197,
          "velocity": 0.23622047244094488,
          "duration": 0.023255813953483084
        },
        {
          "name": "C#7",
          "midi": 97,
          "time": 74.68604651162242,
          "velocity": 0.07086614173228346,
          "duration": 0.04651162790698038
        },
        {
          "name": "D7",
          "midi": 98,
          "time": 74.68604651162242,
          "velocity": 0.11023622047244094,
          "duration": 0.03488372093023884
        },
        {
          "name": "B5",
          "midi": 83,
          "time": 74.72093023255266,
          "velocity": 0.09448818897637795,
          "duration": 0.10465116279068809
        },
        {
          "name": "F#5",
          "midi": 78,
          "time": 74.74418604650614,
          "velocity": 0.11023622047244094,
          "duration": 0.034883720930224626
        },
        {
          "name": "E4",
          "midi": 64,
          "time": 74.82558139534335,
          "velocity": 0.23622047244094488,
          "duration": 0.023255813953483084
        },
        {
          "name": "D5",
          "midi": 74,
          "time": 74.82558139534335,
          "velocity": 0.1968503937007874,
          "duration": 0.09302325581393234
        },
        {
          "name": "G5",
          "midi": 79,
          "time": 74.82558139534335,
          "velocity": 0.48031496062992124,
          "duration": 0.48837209302314477
        },
        {
          "name": "C#6",
          "midi": 85,
          "time": 74.82558139534335,
          "velocity": 0.11023622047244094,
          "duration": 0.034883720930224626
        },
        {
          "name": "F#6",
          "midi": 90,
          "time": 74.82558139534335,
          "velocity": 0.14173228346456693,
          "duration": 0.034883720930224626
        },
        {
          "name": "D#5",
          "midi": 75,
          "time": 74.83720930232009,
          "velocity": 0.1889763779527559,
          "duration": 0.034883720930224626
        },
        {
          "name": "B5",
          "midi": 83,
          "time": 74.83720930232009,
          "velocity": 0.29133858267716534,
          "duration": 0.26744186046505547
        },
        {
          "name": "E6",
          "midi": 88,
          "time": 74.83720930232009,
          "velocity": 0.25984251968503935,
          "duration": 0.31395348837202164
        },
        {
          "name": "G6",
          "midi": 91,
          "time": 74.83720930232009,
          "velocity": 0.5118110236220472,
          "duration": 0.883720930232414
        },
        {
          "name": "F#4",
          "midi": 66,
          "time": 74.84883720929683,
          "velocity": 0.2992125984251969,
          "duration": 0.034883720930224626
        },
        {
          "name": "D7",
          "midi": 98,
          "time": 74.84883720929683,
          "velocity": 0.2047244094488189,
          "duration": 0.29069767441853855
        },
        {
          "name": "C3",
          "midi": 48,
          "time": 74.86046511627357,
          "velocity": 0.5354330708661418,
          "duration": 0.011627906976741542
        },
        {
          "name": "G1",
          "midi": 31,
          "time": 74.87209302325032,
          "velocity": 0.5511811023622047,
          "duration": 0.011627906976741542
        },
        {
          "name": "A#2",
          "midi": 46,
          "time": 74.87209302325032,
          "velocity": 0.5118110236220472,
          "duration": 0.023255813953483084
        },
        {
          "name": "E5",
          "midi": 76,
          "time": 74.87209302325032,
          "velocity": 0.2283464566929134,
          "duration": 0.1627906976743816
        },
        {
          "name": "C2",
          "midi": 36,
          "time": 74.88372093022706,
          "velocity": 0.5826771653543307,
          "duration": 0.011627906976741542
        },
        {
          "name": "E3",
          "midi": 52,
          "time": 74.88372093022706,
          "velocity": 0.3937007874015748,
          "duration": 0.023255813953483084
        },
        {
          "name": "A2",
          "midi": 45,
          "time": 74.8953488372038,
          "velocity": 0.5275590551181102,
          "duration": 0.011627906976741542
        },
        {
          "name": "B4",
          "midi": 71,
          "time": 74.8953488372038,
          "velocity": 0.2440944881889764,
          "duration": 0.023255813953483084
        },
        {
          "name": "D#7",
          "midi": 99,
          "time": 74.8953488372038,
          "velocity": 0.09448818897637795,
          "duration": 0.034883720930224626
        },
        {
          "name": "F#1",
          "midi": 30,
          "time": 74.90697674418054,
          "velocity": 0.5118110236220472,
          "duration": 0.011627906976741542
        },
        {
          "name": "B3",
          "midi": 59,
          "time": 74.90697674418054,
          "velocity": 0.3937007874015748,
          "duration": 0.11627906976741542
        },
        {
          "name": "E4",
          "midi": 64,
          "time": 74.90697674418054,
          "velocity": 0.2204724409448819,
          "duration": 0.05813953488370771
        },
        {
          "name": "E1",
          "midi": 28,
          "time": 74.91860465115728,
          "velocity": 0.5354330708661418,
          "duration": 0.011627906976741542
        },
        {
          "name": "C5",
          "midi": 72,
          "time": 74.91860465115728,
          "velocity": 0.25984251968503935,
          "duration": 0.023255813953483084
        },
        {
          "name": "G#4",
          "midi": 68,
          "time": 74.93023255813402,
          "velocity": 0.30708661417322836,
          "duration": 0.5116279069766421
        },
        {
          "name": "A5",
          "midi": 81,
          "time": 74.93023255813402,
          "velocity": 0.2283464566929134,
          "duration": 0.04651162790696617
        },
        {
          "name": "D5",
          "midi": 74,
          "time": 74.94186046511076,
          "velocity": 0.2047244094488189,
          "duration": 0.11627906976741542
        },
        {
          "name": "G3",
          "midi": 55,
          "time": 74.96511627906425,
          "velocity": 0.23622047244094488,
          "duration": 0.023255813953483084
        },
        {
          "name": "G#6",
          "midi": 92,
          "time": 74.96511627906425,
          "velocity": 0.4015748031496063,
          "duration": 0.023255813953483084
        },
        {
          "name": "A5",
          "midi": 81,
          "time": 74.98837209301773,
          "velocity": 0.11811023622047244,
          "duration": 0.06976744186044925
        },
        {
          "name": "A2",
          "midi": 45,
          "time": 74.99999999999447,
          "velocity": 0.44881889763779526,
          "duration": 0.023255813953483084
        },
        {
          "name": "G#6",
          "midi": 92,
          "time": 74.99999999999447,
          "velocity": 0.4330708661417323,
          "duration": 0.05813953488370771
        },
        {
          "name": "F2",
          "midi": 41,
          "time": 75.0348837209247,
          "velocity": 0.4645669291338583,
          "duration": 0.023255813953483084
        },
        {
          "name": "E3",
          "midi": 52,
          "time": 75.0348837209247,
          "velocity": 0.36220472440944884,
          "duration": 0.034883720930224626
        },
        {
          "name": "B3",
          "midi": 59,
          "time": 75.0348837209247,
          "velocity": 0.2677165354330709,
          "duration": 0.04651162790696617
        },
        {
          "name": "E2",
          "midi": 40,
          "time": 75.05813953487818,
          "velocity": 0.4566929133858268,
          "duration": 0.05813953488370771
        },
        {
          "name": "A6",
          "midi": 93,
          "time": 75.05813953487818,
          "velocity": 0.08661417322834646,
          "duration": 0.034883720930224626
        },
        {
          "name": "D#3",
          "midi": 51,
          "time": 75.06976744185492,
          "velocity": 0.33070866141732286,
          "duration": 0.023255813953483084
        },
        {
          "name": "E5",
          "midi": 76,
          "time": 75.06976744185492,
          "velocity": 0.2125984251968504,
          "duration": 0.05813953488370771
        },
        {
          "name": "C4",
          "midi": 60,
          "time": 75.08139534883166,
          "velocity": 0.15748031496062992,
          "duration": 0.04651162790696617
        },
        {
          "name": "B2",
          "midi": 47,
          "time": 75.11627906976189,
          "velocity": 0.2755905511811024,
          "duration": 0.023255813953483084
        },
        {
          "name": "D#5",
          "midi": 75,
          "time": 75.12790697673863,
          "velocity": 0.11023622047244094,
          "duration": 0.04651162790696617
        },
        {
          "name": "E4",
          "midi": 64,
          "time": 75.13953488371537,
          "velocity": 0.10236220472440945,
          "duration": 0.034883720930224626
        },
        {
          "name": "G#6",
          "midi": 92,
          "time": 75.13953488371537,
          "velocity": 0.1732283464566929,
          "duration": 0.0813953488371908
        },
        {
          "name": "B5",
          "midi": 83,
          "time": 75.16279069766885,
          "velocity": 0.16535433070866143,
          "duration": 0.12790697674415696
        },
        {
          "name": "E1",
          "midi": 28,
          "time": 75.1744186046456,
          "velocity": 0.3228346456692913,
          "duration": 0.023255813953483084
        },
        {
          "name": "A6",
          "midi": 93,
          "time": 75.1744186046456,
          "velocity": 0.07874015748031496,
          "duration": 0.034883720930224626
        },
        {
          "name": "B3",
          "midi": 59,
          "time": 75.19767441859908,
          "velocity": 0.14960629921259844,
          "duration": 0.0813953488371908
        },
        {
          "name": "B2",
          "midi": 47,
          "time": 75.20930232557582,
          "velocity": 0.33858267716535434,
          "duration": 0.034883720930224626
        },
        {
          "name": "E4",
          "midi": 64,
          "time": 75.22093023255256,
          "velocity": 0.09448818897637795,
          "duration": 0.034883720930224626
        },
        {
          "name": "E4",
          "midi": 64,
          "time": 75.26744186045953,
          "velocity": 0.12598425196850394,
          "duration": 0.09302325581394655
        },
        {
          "name": "F#5",
          "midi": 78,
          "time": 75.26744186045953,
          "velocity": 0.3543307086614173,
          "duration": 0.05813953488370771
        },
        {
          "name": "D#2",
          "midi": 39,
          "time": 75.27906976743627,
          "velocity": 0.33858267716535434,
          "duration": 0.023255813953483084
        },
        {
          "name": "G5",
          "midi": 79,
          "time": 75.32558139534324,
          "velocity": 0.3779527559055118,
          "duration": 0.03488372093023884
        },
        {
          "name": "F#5",
          "midi": 78,
          "time": 75.36046511627347,
          "velocity": 0.33070866141732286,
          "duration": 0.023255813953483084
        },
        {
          "name": "A2",
          "midi": 45,
          "time": 75.37209302325022,
          "velocity": 0.23622047244094488,
          "duration": 0.023255813953483084
        },
        {
          "name": "G5",
          "midi": 79,
          "time": 75.37209302325022,
          "velocity": 0.3858267716535433,
          "duration": 0.15116279069765426
        },
        {
          "name": "G1",
          "midi": 31,
          "time": 75.38372093022696,
          "velocity": 0.2440944881889764,
          "duration": 0.023255813953483084
        },
        {
          "name": "E2",
          "midi": 40,
          "time": 75.41860465115718,
          "velocity": 0.2283464566929134,
          "duration": 0.023255813953483084
        },
        {
          "name": "F#4",
          "midi": 66,
          "time": 75.4767441860409,
          "velocity": 0.1889763779527559,
          "duration": 0.034883720930224626
        },
        {
          "name": "D5",
          "midi": 74,
          "time": 75.4767441860409,
          "velocity": 0.33070866141732286,
          "duration": 0.27906976744182543
        },
        {
          "name": "A5",
          "midi": 81,
          "time": 75.4767441860409,
          "velocity": 0.3228346456692913,
          "duration": 0.2674418604650839
        },
        {
          "name": "F#6",
          "midi": 90,
          "time": 75.4767441860409,
          "velocity": 0.4251968503937008,
          "duration": 0.7790697674417402
        },
        {
          "name": "D4",
          "midi": 62,
          "time": 75.48837209301765,
          "velocity": 0.36220472440944884,
          "duration": 0.04651162790696617
        },
        {
          "name": "F5",
          "midi": 77,
          "time": 75.48837209301765,
          "velocity": 0.23622047244094488,
          "duration": 0.034883720930224626
        },
        {
          "name": "F2",
          "midi": 41,
          "time": 75.51162790697113,
          "velocity": 0.4409448818897638,
          "duration": 0.023255813953483084
        },
        {
          "name": "G4",
          "midi": 67,
          "time": 75.51162790697113,
          "velocity": 0.25984251968503935,
          "duration": 0.023255813953483084
        },
        {
          "name": "B4",
          "midi": 71,
          "time": 75.51162790697113,
          "velocity": 0.28346456692913385,
          "duration": 0.05813953488370771
        },
        {
          "name": "C#7",
          "midi": 97,
          "time": 75.51162790697113,
          "velocity": 0.31496062992125984,
          "duration": 0.6395348837208417
        },
        {
          "name": "F#5",
          "midi": 78,
          "time": 75.52325581394787,
          "velocity": 0.5196850393700787,
          "duration": 0.7906976744184817
        },
        {
          "name": "E2",
          "midi": 40,
          "time": 75.53488372092461,
          "velocity": 0.4881889763779528,
          "duration": 0.023255813953483084
        },
        {
          "name": "D4",
          "midi": 62,
          "time": 75.54651162790135,
          "velocity": 0.2440944881889764,
          "duration": 0.15116279069766847
        },
        {
          "name": "E2",
          "midi": 40,
          "time": 75.56976744185484,
          "velocity": 0.5039370078740157,
          "duration": 0.023255813953483084
        },
        {
          "name": "B4",
          "midi": 71,
          "time": 75.58139534883158,
          "velocity": 0.25984251968503935,
          "duration": 0.06976744186046346
        },
        {
          "name": "B5",
          "midi": 83,
          "time": 75.58139534883158,
          "velocity": 0.2992125984251969,
          "duration": 0.17441860465115155
        },
        {
          "name": "F2",
          "midi": 41,
          "time": 75.59302325580832,
          "velocity": 0.4645669291338583,
          "duration": 0.023255813953483084
        },
        {
          "name": "E2",
          "midi": 40,
          "time": 75.6162790697618,
          "velocity": 0.4094488188976378,
          "duration": 0.08139534883721922
        },
        {
          "name": "B4",
          "midi": 71,
          "time": 75.66279069766878,
          "velocity": 0.1889763779527559,
          "duration": 0.18604651162787889
        },
        {
          "name": "B2",
          "midi": 47,
          "time": 75.69767441859902,
          "velocity": 0.48031496062992124,
          "duration": 0.18604651162786467
        },
        {
          "name": "F#4",
          "midi": 66,
          "time": 75.70930232557576,
          "velocity": 0.2047244094488189,
          "duration": 0.04651162790696617
        },
        {
          "name": "E4",
          "midi": 64,
          "time": 75.76744186045947,
          "velocity": 0.18110236220472442,
          "duration": 0.04651162790696617
        },
        {
          "name": "G#4",
          "midi": 68,
          "time": 75.79069767441295,
          "velocity": 0.08661417322834646,
          "duration": 0.034883720930224626
        },
        {
          "name": "D5",
          "midi": 74,
          "time": 75.8023255813897,
          "velocity": 0.16535433070866143,
          "duration": 0.06976744186044925
        },
        {
          "name": "G1",
          "midi": 31,
          "time": 75.82558139534318,
          "velocity": 0.25984251968503935,
          "duration": 0.023255813953483084
        },
        {
          "name": "F#4",
          "midi": 66,
          "time": 75.82558139534318,
          "velocity": 0.2204724409448819,
          "duration": 0.11627906976741542
        },
        {
          "name": "A5",
          "midi": 81,
          "time": 75.8604651162734,
          "velocity": 0.09448818897637795,
          "duration": 0.11627906976741542
        },
        {
          "name": "B3",
          "midi": 59,
          "time": 75.88372093022689,
          "velocity": 0.2283464566929134,
          "duration": 0.034883720930224626
        },
        {
          "name": "E5",
          "midi": 76,
          "time": 75.90697674418037,
          "velocity": 0.25984251968503935,
          "duration": 0.23255813953485927
        },
        {
          "name": "B5",
          "midi": 83,
          "time": 75.90697674418037,
          "velocity": 0.30708661417322836,
          "duration": 0.441860465116207
        },
        {
          "name": "D#4",
          "midi": 63,
          "time": 75.91860465115711,
          "velocity": 0.25196850393700787,
          "duration": 0.023255813953483084
        },
        {
          "name": "C#5",
          "midi": 73,
          "time": 75.93023255813385,
          "velocity": 0.15748031496062992,
          "duration": 0.034883720930224626
        },
        {
          "name": "G#6",
          "midi": 92,
          "time": 75.93023255813385,
          "velocity": 0.09448818897637795,
          "duration": 0.22093023255811772
        },
        {
          "name": "B3",
          "midi": 59,
          "time": 75.9418604651106,
          "velocity": 0.23622047244094488,
          "duration": 0.05813953488370771
        },
        {
          "name": "E4",
          "midi": 64,
          "time": 75.9418604651106,
          "velocity": 0.33070866141732286,
          "duration": 0.06976744186044925
        },
        {
          "name": "F3",
          "midi": 53,
          "time": 75.95348837208734,
          "velocity": 0.23622047244094488,
          "duration": 0.023255813953483084
        },
        {
          "name": "G#4",
          "midi": 68,
          "time": 75.95348837208734,
          "velocity": 0.23622047244094488,
          "duration": 0.023255813953483084
        },
        {
          "name": "F2",
          "midi": 41,
          "time": 75.96511627906408,
          "velocity": 0.41732283464566927,
          "duration": 0.034883720930224626
        },
        {
          "name": "G3",
          "midi": 55,
          "time": 75.98837209301756,
          "velocity": 0.2047244094488189,
          "duration": 0.034883720930224626
        },
        {
          "name": "E2",
          "midi": 40,
          "time": 75.9999999999943,
          "velocity": 0.4251968503937008,
          "duration": 0.023255813953483084
        },
        {
          "name": "F2",
          "midi": 41,
          "time": 76.02325581394778,
          "velocity": 0.4094488188976378,
          "duration": 0.05813953488372192
        },
        {
          "name": "F2",
          "midi": 41,
          "time": 76.09302325580825,
          "velocity": 0.31496062992125984,
          "duration": 0.03488372093023884
        },
        {
          "name": "D5",
          "midi": 74,
          "time": 76.09302325580825,
          "velocity": 0.12598425196850394,
          "duration": 0.06976744186046346
        },
        {
          "name": "G#1",
          "midi": 32,
          "time": 76.12790697673849,
          "velocity": 0.25984251968503935,
          "duration": 0.023255813953483084
        },
        {
          "name": "B2",
          "midi": 47,
          "time": 76.12790697673849,
          "velocity": 0.28346456692913385,
          "duration": 0.023255813953483084
        },
        {
          "name": "D6",
          "midi": 86,
          "time": 76.12790697673849,
          "velocity": 0.4015748031496063,
          "duration": 0.558139534883594
        },
        {
          "name": "B3",
          "midi": 59,
          "time": 76.13953488371523,
          "velocity": 0.3228346456692913,
          "duration": 0.1395348837208985
        },
        {
          "name": "E4",
          "midi": 64,
          "time": 76.13953488371523,
          "velocity": 0.1889763779527559,
          "duration": 0.04651162790696617
        },
        {
          "name": "A6",
          "midi": 93,
          "time": 76.13953488371523,
          "velocity": 0.3937007874015748,
          "duration": 0.5116279069766279
        },
        {
          "name": "A#5",
          "midi": 82,
          "time": 76.15116279069197,
          "velocity": 0.14960629921259844,
          "duration": 0.034883720930224626
        },
        {
          "name": "D#6",
          "midi": 87,
          "time": 76.15116279069197,
          "velocity": 0.11811023622047244,
          "duration": 0.034883720930224626
        },
        {
          "name": "F2",
          "midi": 41,
          "time": 76.16279069766871,
          "velocity": 0.28346456692913385,
          "duration": 0.023255813953483084
        },
        {
          "name": "G4",
          "midi": 67,
          "time": 76.17441860464545,
          "velocity": 0.33858267716535434,
          "duration": 0.34883720930224626
        },
        {
          "name": "E5",
          "midi": 76,
          "time": 76.17441860464545,
          "velocity": 0.2047244094488189,
          "duration": 0.31395348837202164
        },
        {
          "name": "G6",
          "midi": 91,
          "time": 76.17441860464545,
          "velocity": 0.11811023622047244,
          "duration": 0.034883720930224626
        },
        {
          "name": "E2",
          "midi": 40,
          "time": 76.1860465116222,
          "velocity": 0.3858267716535433,
          "duration": 0.04651162790696617
        },
        {
          "name": "F4",
          "midi": 65,
          "time": 76.1860465116222,
          "velocity": 0.25196850393700787,
          "duration": 0.023255813953483084
        },
        {
          "name": "D5",
          "midi": 74,
          "time": 76.1860465116222,
          "velocity": 0.23622047244094488,
          "duration": 0.06976744186044925
        },
        {
          "name": "A5",
          "midi": 81,
          "time": 76.1860465116222,
          "velocity": 0.15748031496062992,
          "duration": 0.0813953488371908
        },
        {
          "name": "C6",
          "midi": 84,
          "time": 76.19767441859894,
          "velocity": 0.1732283464566929,
          "duration": 0.034883720930224626
        },
        {
          "name": "E4",
          "midi": 64,
          "time": 76.20930232557568,
          "velocity": 0.1968503937007874,
          "duration": 0.1395348837208985
        },
        {
          "name": "E2",
          "midi": 40,
          "time": 76.26744186045939,
          "velocity": 0.3543307086614173,
          "duration": 0.023255813953483084
        },
        {
          "name": "D5",
          "midi": 74,
          "time": 76.27906976743613,
          "velocity": 0.1732283464566929,
          "duration": 0.10465116279067388
        },
        {
          "name": "E3",
          "midi": 52,
          "time": 76.30232558138961,
          "velocity": 0.1968503937007874,
          "duration": 0.034883720930224626
        },
        {
          "name": "B4",
          "midi": 71,
          "time": 76.30232558138961,
          "velocity": 0.2125984251968504,
          "duration": 0.06976744186044925
        },
        {
          "name": "B3",
          "midi": 59,
          "time": 76.31395348836635,
          "velocity": 0.14173228346456693,
          "duration": 0.04651162790696617
        },
        {
          "name": "F#5",
          "midi": 78,
          "time": 76.34883720929658,
          "velocity": 0.11023622047244094,
          "duration": 0.04651162790696617
        },
        {
          "name": "D4",
          "midi": 62,
          "time": 76.36046511627332,
          "velocity": 0.25196850393700787,
          "duration": 0.034883720930224626
        },
        {
          "name": "G#5",
          "midi": 80,
          "time": 76.36046511627332,
          "velocity": 0.11023622047244094,
          "duration": 0.034883720930224626
        },
        {
          "name": "B5",
          "midi": 83,
          "time": 76.37209302325006,
          "velocity": 0.14173228346456693,
          "duration": 0.06976744186044925
        },
        {
          "name": "E4",
          "midi": 64,
          "time": 76.40697674418028,
          "velocity": 0.2283464566929134,
          "duration": 0.0813953488371908
        },
        {
          "name": "F#2",
          "midi": 42,
          "time": 76.41860465115703,
          "velocity": 0.4251968503937008,
          "duration": 0.023255813953483084
        },
        {
          "name": "D5",
          "midi": 74,
          "time": 76.43023255813377,
          "velocity": 0.16535433070866143,
          "duration": 0.05813953488370771
        },
        {
          "name": "G#3",
          "midi": 56,
          "time": 76.44186046511051,
          "velocity": 0.1968503937007874,
          "duration": 0.034883720930224626
        },
        {
          "name": "F3",
          "midi": 53,
          "time": 76.46511627906399,
          "velocity": 0.15748031496062992,
          "duration": 0.04651162790696617
        },
        {
          "name": "D5",
          "midi": 74,
          "time": 76.53488372092444,
          "velocity": 0.16535433070866143,
          "duration": 0.034883720930224626
        },
        {
          "name": "C2",
          "midi": 36,
          "time": 76.54651162790118,
          "velocity": 0.5511811023622047,
          "duration": 0.011627906976741542
        },
        {
          "name": "G3",
          "midi": 55,
          "time": 76.54651162790118,
          "velocity": 0.31496062992125984,
          "duration": 0.023255813953483084
        },
        {
          "name": "F#6",
          "midi": 90,
          "time": 76.54651162790118,
          "velocity": 0.3858267716535433,
          "duration": 0.20930232558134776
        },
        {
          "name": "G#1",
          "midi": 32,
          "time": 76.55813953487792,
          "velocity": 0.5511811023622047,
          "duration": 0.023255813953483084
        },
        {
          "name": "C3",
          "midi": 48,
          "time": 76.55813953487792,
          "velocity": 0.5039370078740157,
          "duration": 0.023255813953483084
        },
        {
          "name": "D#5",
          "midi": 75,
          "time": 76.55813953487792,
          "velocity": 0.30708661417322836,
          "duration": 0.05813953488370771
        },
        {
          "name": "F#5",
          "midi": 78,
          "time": 76.55813953487792,
          "velocity": 0.2677165354330709,
          "duration": 0.034883720930224626
        },
        {
          "name": "E6",
          "midi": 88,
          "time": 76.55813953487792,
          "velocity": 0.4330708661417323,
          "duration": 1.3953488372090845
        },
        {
          "name": "B4",
          "midi": 71,
          "time": 76.56976744185467,
          "velocity": 0.28346456692913385,
          "duration": 0.11627906976741542
        },
        {
          "name": "A2",
          "midi": 45,
          "time": 76.5813953488314,
          "velocity": 0.5275590551181102,
          "duration": 0.011627906976741542
        },
        {
          "name": "A#6",
          "midi": 94,
          "time": 76.5813953488314,
          "velocity": 0.2125984251968504,
          "duration": 0.034883720930224626
        },
        {
          "name": "F#1",
          "midi": 30,
          "time": 76.59302325580815,
          "velocity": 0.5590551181102362,
          "duration": 0.011627906976741542
        },
        {
          "name": "G#5",
          "midi": 80,
          "time": 76.59302325580815,
          "velocity": 0.23622047244094488,
          "duration": 0.09302325581393234
        },
        {
          "name": "C2",
          "midi": 36,
          "time": 76.60465116278489,
          "velocity": 0.5826771653543307,
          "duration": 0.011627906976741542
        },
        {
          "name": "E4",
          "midi": 64,
          "time": 76.60465116278489,
          "velocity": 0.3937007874015748,
          "duration": 0.3488372093022605
        },
        {
          "name": "G4",
          "midi": 67,
          "time": 76.60465116278489,
          "velocity": 0.3937007874015748,
          "duration": 0.11627906976741542
        },
        {
          "name": "B6",
          "midi": 95,
          "time": 76.60465116278489,
          "velocity": 0.30708661417322836,
          "duration": 1.3255813953486353
        },
        {
          "name": "D#7",
          "midi": 99,
          "time": 76.60465116278489,
          "velocity": 0.12598425196850394,
          "duration": 0.04651162790696617
        },
        {
          "name": "C#2",
          "midi": 37,
          "time": 76.61627906976163,
          "velocity": 0.5118110236220472,
          "duration": 0.011627906976741542
        },
        {
          "name": "B3",
          "midi": 59,
          "time": 76.61627906976163,
          "velocity": 0.2677165354330709,
          "duration": 0.023255813953483084
        },
        {
          "name": "E5",
          "midi": 76,
          "time": 76.61627906976163,
          "velocity": 0.4330708661417323,
          "duration": 0.8372093023254479
        },
        {
          "name": "F#5",
          "midi": 78,
          "time": 76.61627906976163,
          "velocity": 0.11023622047244094,
          "duration": 0.05813953488370771
        },
        {
          "name": "F1",
          "midi": 29,
          "time": 76.62790697673837,
          "velocity": 0.5511811023622047,
          "duration": 0.011627906976741542
        },
        {
          "name": "D5",
          "midi": 74,
          "time": 76.62790697673837,
          "velocity": 0.1889763779527559,
          "duration": 0.0813953488371908
        },
        {
          "name": "B1",
          "midi": 35,
          "time": 76.63953488371511,
          "velocity": 0.5118110236220472,
          "duration": 0.011627906976741542
        },
        {
          "name": "B3",
          "midi": 59,
          "time": 76.65116279069186,
          "velocity": 0.3464566929133858,
          "duration": 0.10465116279067388
        },
        {
          "name": "F2",
          "midi": 41,
          "time": 76.67441860464534,
          "velocity": 0.4645669291338583,
          "duration": 0.023255813953483084
        },
        {
          "name": "E2",
          "midi": 40,
          "time": 76.7209302325523,
          "velocity": 0.5354330708661418,
          "duration": 0.04651162790696617
        },
        {
          "name": "G#4",
          "midi": 68,
          "time": 76.7209302325523,
          "velocity": 0.3228346456692913,
          "duration": 0.023255813953483084
        },
        {
          "name": "D#3",
          "midi": 51,
          "time": 76.73255813952905,
          "velocity": 0.25196850393700787,
          "duration": 0.023255813953483084
        },
        {
          "name": "G4",
          "midi": 67,
          "time": 76.73255813952905,
          "velocity": 0.3858267716535433,
          "duration": 0.034883720930224626
        },
        {
          "name": "A0",
          "midi": 21,
          "time": 76.74418604650579,
          "velocity": 0.33070866141732286,
          "duration": 0.023255813953483084
        },
        {
          "name": "C4",
          "midi": 60,
          "time": 76.75581395348253,
          "velocity": 0.15748031496062992,
          "duration": 0.034883720930224626
        },
        {
          "name": "F2",
          "midi": 41,
          "time": 76.76744186045927,
          "velocity": 0.47244094488188976,
          "duration": 0.023255813953483084
        },
        {
          "name": "G#4",
          "midi": 68,
          "time": 76.76744186045927,
          "velocity": 0.3700787401574803,
          "duration": 0.05813953488372192
        },
        {
          "name": "F#6",
          "midi": 90,
          "time": 76.77906976743601,
          "velocity": 0.15748031496062992,
          "duration": 0.12790697674417117
        },
        {
          "name": "B3",
          "midi": 59,
          "time": 76.79069767441275,
          "velocity": 0.1968503937007874,
          "duration": 0.11627906976742963
        },
        {
          "name": "E2",
          "midi": 40,
          "time": 76.825581395343,
          "velocity": 0.2755905511811024,
          "duration": 0.023255813953483084
        },
        {
          "name": "D6",
          "midi": 86,
          "time": 76.83720930231974,
          "velocity": 0.07874015748031496,
          "duration": 0.034883720930224626
        },
        {
          "name": "G#4",
          "midi": 68,
          "time": 76.84883720929648,
          "velocity": 0.33858267716535434,
          "duration": 0.1395348837208985
        },
        {
          "name": "B2",
          "midi": 47,
          "time": 76.8837209302267,
          "velocity": 0.25196850393700787,
          "duration": 0.023255813953483084
        },
        {
          "name": "F#5",
          "midi": 78,
          "time": 76.8837209302267,
          "velocity": 0.07874015748031496,
          "duration": 0.0813953488371908
        },
        {
          "name": "B2",
          "midi": 47,
          "time": 76.91860465115693,
          "velocity": 0.2755905511811024,
          "duration": 0.023255813953483084
        },
        {
          "name": "B4",
          "midi": 71,
          "time": 76.93023255813367,
          "velocity": 0.1889763779527559,
          "duration": 0.17441860465113734
        },
        {
          "name": "F2",
          "midi": 41,
          "time": 76.95348837208715,
          "velocity": 0.33070866141732286,
          "duration": 0.034883720930224626
        },
        {
          "name": "F#6",
          "midi": 90,
          "time": 76.96511627906389,
          "velocity": 0.1968503937007874,
          "duration": 0.0813953488371908
        },
        {
          "name": "D5",
          "midi": 74,
          "time": 76.97674418604063,
          "velocity": 0.3858267716535433,
          "duration": 0.31395348837205006
        },
        {
          "name": "G4",
          "midi": 67,
          "time": 76.98837209301738,
          "velocity": 0.23622047244094488,
          "duration": 0.034883720930224626
        },
        {
          "name": "F#5",
          "midi": 78,
          "time": 76.98837209301738,
          "velocity": 0.33858267716535434,
          "duration": 0.19767441860463464
        },
        {
          "name": "A6",
          "midi": 93,
          "time": 76.98837209301738,
          "velocity": 0.08661417322834646,
          "duration": 0.05813953488370771
        },
        {
          "name": "D#2",
          "midi": 39,
          "time": 76.99999999999412,
          "velocity": 0.30708661417322836,
          "duration": 0.023255813953483084
        },
        {
          "name": "E4",
          "midi": 64,
          "time": 77.0232558139476,
          "velocity": 0.16535433070866143,
          "duration": 0.081395348837205
        },
        {
          "name": "G#4",
          "midi": 68,
          "time": 77.0232558139476,
          "velocity": 0.15748031496062992,
          "duration": 0.081395348837205
        },
        {
          "name": "B4",
          "midi": 71,
          "time": 77.16279069766853,
          "velocity": 0.3858267716535433,
          "duration": 0.47674418604644586
        },
        {
          "name": "G5",
          "midi": 79,
          "time": 77.18604651162201,
          "velocity": 0.2992125984251969,
          "duration": 0.20930232558136197
        },
        {
          "name": "C#6",
          "midi": 85,
          "time": 77.18604651162201,
          "velocity": 0.10236220472440945,
          "duration": 0.04651162790696617
        },
        {
          "name": "A2",
          "midi": 45,
          "time": 77.19767441859875,
          "velocity": 0.2440944881889764,
          "duration": 0.023255813953483084
        },
        {
          "name": "G#4",
          "midi": 68,
          "time": 77.19767441859875,
          "velocity": 0.25196850393700787,
          "duration": 0.023255813953483084
        },
        {
          "name": "D#7",
          "midi": 99,
          "time": 77.19767441859875,
          "velocity": 0.08661417322834646,
          "duration": 0.06976744186044925
        },
        {
          "name": "B3",
          "midi": 59,
          "time": 77.20930232557549,
          "velocity": 0.1968503937007874,
          "duration": 0.04651162790696617
        },
        {
          "name": "F4",
          "midi": 65,
          "time": 77.22093023255223,
          "velocity": 0.33858267716535434,
          "duration": 0.023255813953483084
        },
        {
          "name": "E3",
          "midi": 52,
          "time": 77.23255813952898,
          "velocity": 0.25984251968503935,
          "duration": 0.023255813953483084
        },
        {
          "name": "E2",
          "midi": 40,
          "time": 77.24418604650572,
          "velocity": 0.44881889763779526,
          "duration": 0.04651162790696617
        },
        {
          "name": "E4",
          "midi": 64,
          "time": 77.24418604650572,
          "velocity": 0.3937007874015748,
          "duration": 0.034883720930224626
        },
        {
          "name": "B3",
          "midi": 59,
          "time": 77.27906976743594,
          "velocity": 0.3228346456692913,
          "duration": 0.05813953488372192
        },
        {
          "name": "G4",
          "midi": 67,
          "time": 77.27906976743594,
          "velocity": 0.18110236220472442,
          "duration": 0.04651162790698038
        },
        {
          "name": "F2",
          "midi": 41,
          "time": 77.29069767441268,
          "velocity": 0.4094488188976378,
          "duration": 0.03488372093023884
        },
        {
          "name": "F#4",
          "midi": 66,
          "time": 77.32558139534292,
          "velocity": 0.1968503937007874,
          "duration": 0.034883720930224626
        },
        {
          "name": "C4",
          "midi": 60,
          "time": 77.33720930231966,
          "velocity": 0.25984251968503935,
          "duration": 0.034883720930224626
        },
        {
          "name": "F2",
          "midi": 41,
          "time": 77.3488372092964,
          "velocity": 0.31496062992125984,
          "duration": 0.023255813953483084
        },
        {
          "name": "D#3",
          "midi": 51,
          "time": 77.3488372092964,
          "velocity": 0.23622047244094488,
          "duration": 0.023255813953483084
        },
        {
          "name": "G4",
          "midi": 67,
          "time": 77.36046511627315,
          "velocity": 0.2992125984251969,
          "duration": 0.3488372093022747
        },
        {
          "name": "E3",
          "midi": 52,
          "time": 77.37209302324989,
          "velocity": 0.2283464566929134,
          "duration": 0.034883720930224626
        },
        {
          "name": "B3",
          "midi": 59,
          "time": 77.37209302324989,
          "velocity": 0.1968503937007874,
          "duration": 0.06976744186044925
        },
        {
          "name": "F2",
          "midi": 41,
          "time": 77.38372093022663,
          "velocity": 0.4409448818897638,
          "duration": 0.034883720930224626
        },
        {
          "name": "D5",
          "midi": 74,
          "time": 77.38372093022663,
          "velocity": 0.3858267716535433,
          "duration": 0.4069767441859824
        },
        {
          "name": "A6",
          "midi": 93,
          "time": 77.41860465115685,
          "velocity": 0.11023622047244094,
          "duration": 0.09302325581393234
        },
        {
          "name": "E5",
          "midi": 76,
          "time": 77.46511627906382,
          "velocity": 0.4409448818897638,
          "duration": 0.5116279069766705
        },
        {
          "name": "B2",
          "midi": 47,
          "time": 77.4883720930173,
          "velocity": 0.2440944881889764,
          "duration": 0.034883720930224626
        },
        {
          "name": "E2",
          "midi": 40,
          "time": 77.54651162790101,
          "velocity": 0.29133858267716534,
          "duration": 0.03488372093023884
        },
        {
          "name": "C#6",
          "midi": 85,
          "time": 77.61627906976149,
          "velocity": 0.13385826771653545,
          "duration": 0.0813953488371908
        },
        {
          "name": "G#1",
          "midi": 32,
          "time": 77.62790697673823,
          "velocity": 0.3858267716535433,
          "duration": 0.023255813953483084
        },
        {
          "name": "F#5",
          "midi": 78,
          "time": 77.62790697673823,
          "velocity": 0.31496062992125984,
          "duration": 0.1627906976743816
        },
        {
          "name": "E2",
          "midi": 40,
          "time": 77.65116279069171,
          "velocity": 0.5196850393700787,
          "duration": 0.011627906976741542
        },
        {
          "name": "F2",
          "midi": 41,
          "time": 77.66279069766846,
          "velocity": 0.5354330708661418,
          "duration": 0.011627906976741542
        },
        {
          "name": "G3",
          "midi": 55,
          "time": 77.66279069766846,
          "velocity": 0.28346456692913385,
          "duration": 0.034883720930224626
        },
        {
          "name": "E4",
          "midi": 64,
          "time": 77.66279069766846,
          "velocity": 0.31496062992125984,
          "duration": 0.0813953488371908
        },
        {
          "name": "B4",
          "midi": 71,
          "time": 77.6744186046452,
          "velocity": 0.13385826771653545,
          "duration": 0.0813953488371908
        },
        {
          "name": "B2",
          "midi": 47,
          "time": 77.7325581395289,
          "velocity": 0.4251968503937008,
          "duration": 0.04651162790696617
        },
        {
          "name": "G#4",
          "midi": 68,
          "time": 77.7325581395289,
          "velocity": 0.14960629921259844,
          "duration": 0.034883720930224626
        },
        {
          "name": "E2",
          "midi": 40,
          "time": 77.74418604650565,
          "velocity": 0.4409448818897638,
          "duration": 0.023255813953483084
        },
        {
          "name": "F#4",
          "midi": 66,
          "time": 77.77906976743587,
          "velocity": 0.14960629921259844,
          "duration": 0.04651162790698038
        },
        {
          "name": "F2",
          "midi": 41,
          "time": 77.82558139534285,
          "velocity": 0.5118110236220472,
          "duration": 0.011627906976741542
        },
        {
          "name": "E2",
          "midi": 40,
          "time": 77.8372093023196,
          "velocity": 0.5826771653543307,
          "duration": 0.011627906976741542
        },
        {
          "name": "G#4",
          "midi": 68,
          "time": 77.8372093023196,
          "velocity": 0.15748031496062992,
          "duration": 0.034883720930224626
        },
        {
          "name": "D5",
          "midi": 74,
          "time": 77.8372093023196,
          "velocity": 0.3779527559055118,
          "duration": 0.39534883720922664
        },
        {
          "name": "A#5",
          "midi": 82,
          "time": 77.8372093023196,
          "velocity": 0.12598425196850394,
          "duration": 0.04651162790696617
        },
        {
          "name": "C#2",
          "midi": 37,
          "time": 77.84883720929633,
          "velocity": 0.5748031496062992,
          "duration": 0.011627906976741542
        },
        {
          "name": "G#6",
          "midi": 92,
          "time": 77.84883720929633,
          "velocity": 0.30708661417322836,
          "duration": 0.0813953488371908
        },
        {
          "name": "D#2",
          "midi": 39,
          "time": 77.86046511627308,
          "velocity": 0.5354330708661418,
          "duration": 0.011627906976741542
        },
        {
          "name": "B4",
          "midi": 71,
          "time": 77.86046511627308,
          "velocity": 0.08661417322834646,
          "duration": 0.04651162790696617
        },
        {
          "name": "C#6",
          "midi": 85,
          "time": 77.86046511627308,
          "velocity": 0.07086614173228346,
          "duration": 0.034883720930224626
        },
        {
          "name": "F#6",
          "midi": 90,
          "time": 77.86046511627308,
          "velocity": 0.10236220472440945,
          "duration": 0.09302325581393234
        },
        {
          "name": "A6",
          "midi": 93,
          "time": 77.86046511627308,
          "velocity": 0.4094488188976378,
          "duration": 0.4651162790696759
        },
        {
          "name": "B2",
          "midi": 47,
          "time": 77.87209302324982,
          "velocity": 0.3779527559055118,
          "duration": 0.023255813953483084
        },
        {
          "name": "E4",
          "midi": 64,
          "time": 77.87209302324982,
          "velocity": 0.29133858267716534,
          "duration": 0.034883720930224626
        },
        {
          "name": "B5",
          "midi": 83,
          "time": 77.88372093022656,
          "velocity": 0.29133858267716534,
          "duration": 0.33720930232551893
        },
        {
          "name": "C3",
          "midi": 48,
          "time": 77.8953488372033,
          "velocity": 0.3779527559055118,
          "duration": 0.023255813953483084
        },
        {
          "name": "F#5",
          "midi": 78,
          "time": 77.8953488372033,
          "velocity": 0.2125984251968504,
          "duration": 0.10465116279067388
        },
        {
          "name": "A5",
          "midi": 81,
          "time": 77.8953488372033,
          "velocity": 0.2440944881889764,
          "duration": 0.20930232558134776
        },
        {
          "name": "C6",
          "midi": 84,
          "time": 77.8953488372033,
          "velocity": 0.11811023622047244,
          "duration": 0.034883720930224626
        },
        {
          "name": "A#6",
          "midi": 94,
          "time": 77.8953488372033,
          "velocity": 0.13385826771653545,
          "duration": 0.05813953488370771
        },
        {
          "name": "C#7",
          "midi": 97,
          "time": 77.8953488372033,
          "velocity": 0.1732283464566929,
          "duration": 0.05813953488370771
        },
        {
          "name": "G1",
          "midi": 31,
          "time": 77.90697674418004,
          "velocity": 0.3937007874015748,
          "duration": 0.023255813953483084
        },
        {
          "name": "A4",
          "midi": 69,
          "time": 77.90697674418004,
          "velocity": 0.13385826771653545,
          "duration": 0.034883720930224626
        },
        {
          "name": "B2",
          "midi": 47,
          "time": 77.91860465115678,
          "velocity": 0.36220472440944884,
          "duration": 0.023255813953483084
        },
        {
          "name": "F#4",
          "midi": 66,
          "time": 77.91860465115678,
          "velocity": 0.33070866141732286,
          "duration": 0.10465116279067388
        },
        {
          "name": "C#6",
          "midi": 85,
          "time": 77.94186046511027,
          "velocity": 0.23622047244094488,
          "duration": 0.0813953488371908
        },
        {
          "name": "D#6",
          "midi": 87,
          "time": 77.94186046511027,
          "velocity": 0.25984251968503935,
          "duration": 0.023255813953483084
        },
        {
          "name": "G#6",
          "midi": 92,
          "time": 77.96511627906375,
          "velocity": 0.18110236220472442,
          "duration": 0.05813953488370771
        },
        {
          "name": "G#1",
          "midi": 32,
          "time": 77.97674418604049,
          "velocity": 0.3779527559055118,
          "duration": 0.023255813953483084
        },
        {
          "name": "B2",
          "midi": 47,
          "time": 77.97674418604049,
          "velocity": 0.4094488188976378,
          "duration": 0.023255813953483084
        },
        {
          "name": "D4",
          "midi": 62,
          "time": 77.98837209301723,
          "velocity": 0.2283464566929134,
          "duration": 0.04651162790696617
        },
        {
          "name": "E5",
          "midi": 76,
          "time": 77.98837209301723,
          "velocity": 0.4251968503937008,
          "duration": 0.9418604651160933
        },
        {
          "name": "B3",
          "midi": 59,
          "time": 78.02325581394746,
          "velocity": 0.25196850393700787,
          "duration": 0.023255813953483084
        },
        {
          "name": "E4",
          "midi": 64,
          "time": 78.02325581394746,
          "velocity": 0.1968503937007874,
          "duration": 0.10465116279067388
        },
        {
          "name": "B4",
          "midi": 71,
          "time": 78.04651162790094,
          "velocity": 0.3543307086614173,
          "duration": 0.2790697674418112
        },
        {
          "name": "E2",
          "midi": 40,
          "time": 78.05813953487768,
          "velocity": 0.41732283464566927,
          "duration": 0.023255813953483084
        },
        {
          "name": "D#7",
          "midi": 99,
          "time": 78.06976744185442,
          "velocity": 0.08661417322834646,
          "duration": 0.034883720930224626
        },
        {
          "name": "F#5",
          "midi": 78,
          "time": 78.0930232558079,
          "velocity": 0.07086614173228346,
          "duration": 0.034883720930224626
        },
        {
          "name": "G#6",
          "midi": 92,
          "time": 78.0930232558079,
          "velocity": 0.11811023622047244,
          "duration": 0.04651162790696617
        },
        {
          "name": "C4",
          "midi": 60,
          "time": 78.12790697673813,
          "velocity": 0.10236220472440945,
          "duration": 0.034883720930224626
        },
        {
          "name": "A4",
          "midi": 69,
          "time": 78.15116279069161,
          "velocity": 0.12598425196850394,
          "duration": 0.05813953488372192
        },
        {
          "name": "E6",
          "midi": 88,
          "time": 78.16279069766836,
          "velocity": 0.4566929133858268,
          "duration": 1.4883720930229742
        },
        {
          "name": "A#2",
          "midi": 46,
          "time": 78.20930232557534,
          "velocity": 0.25984251968503935,
          "duration": 0.023255813953483084
        },
        {
          "name": "D5",
          "midi": 74,
          "time": 78.2558139534823,
          "velocity": 0.2677165354330709,
          "duration": 0.05813953488370771
        },
        {
          "name": "F#4",
          "midi": 66,
          "time": 78.26744186045904,
          "velocity": 0.2283464566929134,
          "duration": 0.034883720930224626
        },
        {
          "name": "F#6",
          "midi": 90,
          "time": 78.26744186045904,
          "velocity": 0.4094488188976378,
          "duration": 0.34883720930224626
        },
        {
          "name": "B3",
          "midi": 59,
          "time": 78.27906976743579,
          "velocity": 0.2755905511811024,
          "duration": 0.023255813953483084
        },
        {
          "name": "C#5",
          "midi": 73,
          "time": 78.27906976743579,
          "velocity": 0.2440944881889764,
          "duration": 0.023255813953483084
        },
        {
          "name": "G5",
          "midi": 79,
          "time": 78.27906976743579,
          "velocity": 0.11811023622047244,
          "duration": 0.034883720930224626
        },
        {
          "name": "D4",
          "midi": 62,
          "time": 78.29069767441253,
          "velocity": 0.3858267716535433,
          "duration": 0.023255813953483084
        },
        {
          "name": "A#6",
          "midi": 94,
          "time": 78.30232558138927,
          "velocity": 0.23622047244094488,
          "duration": 0.034883720930224626
        },
        {
          "name": "B1",
          "midi": 35,
          "time": 78.31395348836601,
          "velocity": 0.5748031496062992,
          "duration": 0.011627906976741542
        },
        {
          "name": "G3",
          "midi": 55,
          "time": 78.31395348836601,
          "velocity": 0.3464566929133858,
          "duration": 0.023255813953483084
        },
        {
          "name": "A#4",
          "midi": 70,
          "time": 78.31395348836601,
          "velocity": 0.2992125984251969,
          "duration": 0.023255813953483084
        },
        {
          "name": "F#5",
          "midi": 78,
          "time": 78.31395348836601,
          "velocity": 0.11811023622047244,
          "duration": 0.04651162790696617
        },
        {
          "name": "B6",
          "midi": 95,
          "time": 78.31395348836601,
          "velocity": 0.30708661417322836,
          "duration": 1.232558139534646
        },
        {
          "name": "D#7",
          "midi": 99,
          "time": 78.31395348836601,
          "velocity": 0.14960629921259844,
          "duration": 0.034883720930224626
        },
        {
          "name": "E2",
          "midi": 40,
          "time": 78.32558139534275,
          "velocity": 0.6062992125984252,
          "duration": 0.011627906976741542
        },
        {
          "name": "E4",
          "midi": 64,
          "time": 78.32558139534275,
          "velocity": 0.31496062992125984,
          "duration": 0.023255813953483084
        },
        {
          "name": "B5",
          "midi": 83,
          "time": 78.32558139534275,
          "velocity": 0.2992125984251969,
          "duration": 0.24418604651157239
        },
        {
          "name": "F2",
          "midi": 41,
          "time": 78.3372093023195,
          "velocity": 0.5905511811023622,
          "duration": 0.011627906976741542
        },
        {
          "name": "G4",
          "midi": 67,
          "time": 78.3372093023195,
          "velocity": 0.4015748031496063,
          "duration": 0.3837209302324709
        },
        {
          "name": "B4",
          "midi": 71,
          "time": 78.3372093023195,
          "velocity": 0.2992125984251969,
          "duration": 0.034883720930224626
        },
        {
          "name": "D6",
          "midi": 86,
          "time": 78.3372093023195,
          "velocity": 0.14173228346456693,
          "duration": 0.06976744186044925
        },
        {
          "name": "F#2",
          "midi": 42,
          "time": 78.34883720929624,
          "velocity": 0.5984251968503937,
          "duration": 0.011627906976741542
        },
        {
          "name": "C4",
          "midi": 60,
          "time": 78.34883720929624,
          "velocity": 0.4015748031496063,
          "duration": 0.09302325581393234
        },
        {
          "name": "F0",
          "midi": 17,
          "time": 78.36046511627298,
          "velocity": 0.3700787401574803,
          "duration": 0.023255813953483084
        },
        {
          "name": "F2",
          "midi": 41,
          "time": 78.36046511627298,
          "velocity": 0.5748031496062992,
          "duration": 0.034883720930224626
        },
        {
          "name": "E4",
          "midi": 64,
          "time": 78.36046511627298,
          "velocity": 0.36220472440944884,
          "duration": 0.34883720930224626
        },
        {
          "name": "G3",
          "midi": 55,
          "time": 78.37209302324972,
          "velocity": 0.3937007874015748,
          "duration": 0.12790697674415696
        },
        {
          "name": "A#4",
          "midi": 70,
          "time": 78.37209302324972,
          "velocity": 0.2440944881889764,
          "duration": 0.05813953488370771
        },
        {
          "name": "F#5",
          "midi": 78,
          "time": 78.37209302324972,
          "velocity": 0.14173228346456693,
          "duration": 0.034883720930224626
        },
        {
          "name": "B4",
          "midi": 71,
          "time": 78.41860465115668,
          "velocity": 0.25984251968503935,
          "duration": 0.12790697674415696
        },
        {
          "name": "C3",
          "midi": 48,
          "time": 78.43023255813343,
          "velocity": 0.4330708661417323,
          "duration": 0.023255813953483084
        },
        {
          "name": "B0",
          "midi": 23,
          "time": 78.44186046511017,
          "velocity": 0.4094488188976378,
          "duration": 0.023255813953483084
        },
        {
          "name": "F2",
          "midi": 41,
          "time": 78.46511627906365,
          "velocity": 0.4094488188976378,
          "duration": 0.034883720930224626
        },
        {
          "name": "C3",
          "midi": 48,
          "time": 78.46511627906365,
          "velocity": 0.3779527559055118,
          "duration": 0.034883720930224626
        },
        {
          "name": "D6",
          "midi": 86,
          "time": 78.48837209301713,
          "velocity": 0.12598425196850394,
          "duration": 0.034883720930224626
        },
        {
          "name": "E2",
          "midi": 40,
          "time": 78.49999999999388,
          "velocity": 0.4566929133858268,
          "duration": 0.034883720930224626
        },
        {
          "name": "C4",
          "midi": 60,
          "time": 78.49999999999388,
          "velocity": 0.2125984251968504,
          "duration": 0.04651162790696617
        },
        {
          "name": "C3",
          "midi": 48,
          "time": 78.5348837209241,
          "velocity": 0.31496062992125984,
          "duration": 0.034883720930224626
        },
        {
          "name": "G3",
          "midi": 55,
          "time": 78.54651162790084,
          "velocity": 0.2125984251968504,
          "duration": 0.05813953488370771
        },
        {
          "name": "D#1",
          "midi": 27,
          "time": 78.55813953487758,
          "velocity": 0.3464566929133858,
          "duration": 0.023255813953483084
        },
        {
          "name": "B2",
          "midi": 47,
          "time": 78.56976744185432,
          "velocity": 0.2992125984251969,
          "duration": 0.023255813953483084
        },
        {
          "name": "B4",
          "midi": 71,
          "time": 78.56976744185432,
          "velocity": 0.18110236220472442,
          "duration": 0.04651162790696617
        },
        {
          "name": "D#2",
          "midi": 39,
          "time": 78.59302325580781,
          "velocity": 0.3228346456692913,
          "duration": 0.023255813953483084
        },
        {
          "name": "C3",
          "midi": 48,
          "time": 78.59302325580781,
          "velocity": 0.2992125984251969,
          "duration": 0.023255813953483084
        },
        {
          "name": "E2",
          "midi": 40,
          "time": 78.61627906976129,
          "velocity": 0.47244094488188976,
          "duration": 0.05813953488370771
        },
        {
          "name": "F6",
          "midi": 89,
          "time": 78.62790697673803,
          "velocity": 0.14960629921259844,
          "duration": 0.04651162790696617
        },
        {
          "name": "G3",
          "midi": 55,
          "time": 78.63953488371477,
          "velocity": 0.2125984251968504,
          "duration": 0.10465116279067388
        },
        {
          "name": "C4",
          "midi": 60,
          "time": 78.65116279069152,
          "velocity": 0.1889763779527559,
          "duration": 0.04651162790696617
        },
        {
          "name": "B4",
          "midi": 71,
          "time": 78.65116279069152,
          "velocity": 0.08661417322834646,
          "duration": 0.05813953488370771
        },
        {
          "name": "F#6",
          "midi": 90,
          "time": 78.65116279069152,
          "velocity": 0.2440944881889764,
          "duration": 0.10465116279067388
        },
        {
          "name": "D#2",
          "midi": 39,
          "time": 78.674418604645,
          "velocity": 0.4566929133858268,
          "duration": 0.023255813953483084
        },
        {
          "name": "D5",
          "midi": 74,
          "time": 78.68604651162174,
          "velocity": 0.30708661417322836,
          "duration": 0.23255813953484505
        },
        {
          "name": "E2",
          "midi": 40,
          "time": 78.69767441859848,
          "velocity": 0.44881889763779526,
          "duration": 0.04651162790696617
        },
        {
          "name": "A5",
          "midi": 81,
          "time": 78.69767441859848,
          "velocity": 0.2992125984251969,
          "duration": 0.18604651162787889
        },
        {
          "name": "D4",
          "midi": 62,
          "time": 78.74418604650545,
          "velocity": 0.29133858267716534,
          "duration": 0.081395348837205
        },
        {
          "name": "E4",
          "midi": 64,
          "time": 78.81395348836591,
          "velocity": 0.25196850393700787,
          "duration": 0.11627906976741542
        },
        {
          "name": "G1",
          "midi": 31,
          "time": 78.82558139534265,
          "velocity": 0.25984251968503935,
          "duration": 0.023255813953483084
        },
        {
          "name": "B4",
          "midi": 71,
          "time": 78.82558139534265,
          "velocity": 0.12598425196850394,
          "duration": 0.09302325581393234
        },
        {
          "name": "E2",
          "midi": 40,
          "time": 78.86046511627288,
          "velocity": 0.28346456692913385,
          "duration": 0.04651162790696617
        },
        {
          "name": "G4",
          "midi": 67,
          "time": 78.86046511627288,
          "velocity": 0.15748031496062992,
          "duration": 0.06976744186044925
        },
        {
          "name": "A4",
          "midi": 69,
          "time": 78.91860465115658,
          "velocity": 0.2677165354330709,
          "duration": 0.12790697674415696
        },
        {
          "name": "C#6",
          "midi": 85,
          "time": 78.91860465115658,
          "velocity": 0.2755905511811024,
          "duration": 0.17441860465113734
        },
        {
          "name": "B4",
          "midi": 71,
          "time": 78.93023255813333,
          "velocity": 0.10236220472440945,
          "duration": 0.034883720930224626
        },
        {
          "name": "F2",
          "midi": 41,
          "time": 78.94186046511007,
          "velocity": 0.4330708661417323,
          "duration": 0.034883720930224626
        },
        {
          "name": "E5",
          "midi": 76,
          "time": 78.94186046511007,
          "velocity": 0.4566929133858268,
          "duration": 0.06976744186044925
        },
        {
          "name": "E4",
          "midi": 64,
          "time": 78.97674418604029,
          "velocity": 0.2283464566929134,
          "duration": 0.023255813953483084
        },
        {
          "name": "F2",
          "midi": 41,
          "time": 78.98837209301703,
          "velocity": 0.4409448818897638,
          "duration": 0.034883720930224626
        },
        {
          "name": "C4",
          "midi": 60,
          "time": 79.01162790697052,
          "velocity": 0.3543307086614173,
          "duration": 0.11627906976742963
        },
        {
          "name": "E2",
          "midi": 40,
          "time": 79.02325581394726,
          "velocity": 0.33858267716535434,
          "duration": 0.023255813953483084
        },
        {
          "name": "E5",
          "midi": 76,
          "time": 79.02325581394726,
          "velocity": 0.4566929133858268,
          "duration": 0.15116279069766847
        },
        {
          "name": "G3",
          "midi": 55,
          "time": 79.034883720924,
          "velocity": 0.2755905511811024,
          "duration": 0.04651162790698038
        },
        {
          "name": "B2",
          "midi": 47,
          "time": 79.08139534883098,
          "velocity": 0.29133858267716534,
          "duration": 0.023255813953483084
        },
        {
          "name": "A4",
          "midi": 69,
          "time": 79.09302325580772,
          "velocity": 0.23622047244094488,
          "duration": 0.12790697674417117
        },
        {
          "name": "E2",
          "midi": 40,
          "time": 79.10465116278446,
          "velocity": 0.3779527559055118,
          "duration": 0.023255813953483084
        },
        {
          "name": "G4",
          "midi": 67,
          "time": 79.1162790697612,
          "velocity": 0.2047244094488189,
          "duration": 0.06976744186046346
        },
        {
          "name": "F3",
          "midi": 53,
          "time": 79.13953488371469,
          "velocity": 0.4330708661417323,
          "duration": 0.06976744186046346
        },
        {
          "name": "E4",
          "midi": 64,
          "time": 79.17441860464493,
          "velocity": 0.12598425196850394,
          "duration": 0.034883720930224626
        },
        {
          "name": "E5",
          "midi": 76,
          "time": 79.18604651162167,
          "velocity": 0.3700787401574803,
          "duration": 0.4651162790696617
        },
        {
          "name": "F#3",
          "midi": 54,
          "time": 79.20930232557515,
          "velocity": 0.4251968503937008,
          "duration": 0.034883720930224626
        },
        {
          "name": "G#4",
          "midi": 68,
          "time": 79.2209302325519,
          "velocity": 0.2440944881889764,
          "duration": 0.034883720930224626
        },
        {
          "name": "B2",
          "midi": 47,
          "time": 79.24418604650538,
          "velocity": 0.3858267716535433,
          "duration": 0.034883720930224626
        },
        {
          "name": "E4",
          "midi": 64,
          "time": 79.24418604650538,
          "velocity": 0.1889763779527559,
          "duration": 0.034883720930224626
        },
        {
          "name": "D4",
          "midi": 62,
          "time": 79.25581395348212,
          "velocity": 0.16535433070866143,
          "duration": 0.05813953488370771
        },
        {
          "name": "F#3",
          "midi": 54,
          "time": 79.26744186045886,
          "velocity": 0.48031496062992124,
          "duration": 0.023255813953483084
        },
        {
          "name": "G#4",
          "midi": 68,
          "time": 79.2790697674356,
          "velocity": 0.2283464566929134,
          "duration": 0.023255813953483084
        },
        {
          "name": "G2",
          "midi": 43,
          "time": 79.29069767441234,
          "velocity": 0.3858267716535433,
          "duration": 0.04651162790696617
        },
        {
          "name": "F3",
          "midi": 53,
          "time": 79.29069767441234,
          "velocity": 0.5118110236220472,
          "duration": 0.31395348837202164
        },
        {
          "name": "A#4",
          "midi": 70,
          "time": 79.30232558138908,
          "velocity": 0.11023622047244094,
          "duration": 0.034883720930224626
        },
        {
          "name": "D4",
          "midi": 62,
          "time": 79.33720930231931,
          "velocity": 0.2283464566929134,
          "duration": 0.023255813953483084
        },
        {
          "name": "F#5",
          "midi": 78,
          "time": 79.33720930231931,
          "velocity": 0.3543307086614173,
          "duration": 0.3837209302324709
        },
        {
          "name": "B5",
          "midi": 83,
          "time": 79.33720930231931,
          "velocity": 0.1732283464566929,
          "duration": 0.19767441860460622
        },
        {
          "name": "D#6",
          "midi": 87,
          "time": 79.33720930231931,
          "velocity": 0.2125984251968504,
          "duration": 0.06976744186044925
        },
        {
          "name": "C4",
          "midi": 60,
          "time": 79.34883720929605,
          "velocity": 0.23622047244094488,
          "duration": 0.023255813953483084
        },
        {
          "name": "B4",
          "midi": 71,
          "time": 79.34883720929605,
          "velocity": 0.33858267716535434,
          "duration": 0.29069767441853855
        },
        {
          "name": "G4",
          "midi": 67,
          "time": 79.36046511627279,
          "velocity": 0.25196850393700787,
          "duration": 0.034883720930224626
        },
        {
          "name": "B3",
          "midi": 59,
          "time": 79.37209302324953,
          "velocity": 0.29133858267716534,
          "duration": 0.023255813953483084
        },
        {
          "name": "D4",
          "midi": 62,
          "time": 79.37209302324953,
          "velocity": 0.2992125984251969,
          "duration": 0.023255813953483084
        },
        {
          "name": "E2",
          "midi": 40,
          "time": 79.38372093022627,
          "velocity": 0.5039370078740157,
          "duration": 0.034883720930224626
        },
        {
          "name": "E4",
          "midi": 64,
          "time": 79.39534883720302,
          "velocity": 0.31496062992125984,
          "duration": 0.04651162790696617
        },
        {
          "name": "B3",
          "midi": 59,
          "time": 79.40697674417976,
          "velocity": 0.28346456692913385,
          "duration": 0.034883720930224626
        },
        {
          "name": "F2",
          "midi": 41,
          "time": 79.4186046511565,
          "velocity": 0.5275590551181102,
          "duration": 0.011627906976741542
        },
        {
          "name": "E2",
          "midi": 40,
          "time": 79.43023255813324,
          "velocity": 0.5039370078740157,
          "duration": 0.023255813953483084
        },
        {
          "name": "E2",
          "midi": 40,
          "time": 79.46511627906347,
          "velocity": 0.4251968503937008,
          "duration": 0.034883720930224626
        },
        {
          "name": "B3",
          "midi": 59,
          "time": 79.47674418604021,
          "velocity": 0.23622047244094488,
          "duration": 0.09302325581393234
        },
        {
          "name": "D#6",
          "midi": 87,
          "time": 79.49999999999369,
          "velocity": 0.10236220472440945,
          "duration": 0.0813953488371908
        },
        {
          "name": "E2",
          "midi": 40,
          "time": 79.51162790697043,
          "velocity": 0.4330708661417323,
          "duration": 0.04651162790696617
        },
        {
          "name": "C#6",
          "midi": 85,
          "time": 79.54651162790066,
          "velocity": 0.13385826771653545,
          "duration": 0.11627906976741542
        },
        {
          "name": "B6",
          "midi": 95,
          "time": 79.5581395348774,
          "velocity": 0.48031496062992124,
          "duration": 0.5581395348836082
        },
        {
          "name": "D#2",
          "midi": 39,
          "time": 79.56976744185414,
          "velocity": 0.41732283464566927,
          "duration": 0.034883720930224626
        },
        {
          "name": "G#5",
          "midi": 80,
          "time": 79.56976744185414,
          "velocity": 0.16535433070866143,
          "duration": 0.034883720930224626
        },
        {
          "name": "A6",
          "midi": 93,
          "time": 79.58139534883088,
          "velocity": 0.11811023622047244,
          "duration": 0.04651162790696617
        },
        {
          "name": "G4",
          "midi": 67,
          "time": 79.59302325580762,
          "velocity": 0.3700787401574803,
          "duration": 0.360465116279002
        },
        {
          "name": "D6",
          "midi": 86,
          "time": 79.59302325580762,
          "velocity": 0.15748031496062992,
          "duration": 0.09302325581393234
        },
        {
          "name": "A#5",
          "midi": 82,
          "time": 79.6162790697611,
          "velocity": 0.2047244094488189,
          "duration": 0.05813953488370771
        },
        {
          "name": "C6",
          "midi": 84,
          "time": 79.6162790697611,
          "velocity": 0.14960629921259844,
          "duration": 0.04651162790696617
        },
        {
          "name": "D#7",
          "midi": 99,
          "time": 79.6162790697611,
          "velocity": 0.07086614173228346,
          "duration": 0.034883720930224626
        },
        {
          "name": "E4",
          "midi": 64,
          "time": 79.62790697673785,
          "velocity": 0.1968503937007874,
          "duration": 0.034883720930224626
        },
        {
          "name": "F3",
          "midi": 53,
          "time": 79.63953488371459,
          "velocity": 0.3228346456692913,
          "duration": 0.06976744186044925
        },
        {
          "name": "C4",
          "midi": 60,
          "time": 79.63953488371459,
          "velocity": 0.31496062992125984,
          "duration": 0.1627906976743958
        },
        {
          "name": "B5",
          "midi": 83,
          "time": 79.63953488371459,
          "velocity": 0.23622047244094488,
          "duration": 0.13953488372091272
        },
        {
          "name": "D#6",
          "midi": 87,
          "time": 79.63953488371459,
          "velocity": 0.09448818897637795,
          "duration": 0.034883720930224626
        },
        {
          "name": "B4",
          "midi": 71,
          "time": 79.65116279069133,
          "velocity": 0.29133858267716534,
          "duration": 0.15116279069765426
        },
        {
          "name": "E6",
          "midi": 88,
          "time": 79.67441860464481,
          "velocity": 0.13385826771653545,
          "duration": 0.20930232558136197
        },
        {
          "name": "E4",
          "midi": 64,
          "time": 79.68604651162156,
          "velocity": 0.14960629921259844,
          "duration": 0.09302325581394655
        },
        {
          "name": "F3",
          "midi": 53,
          "time": 79.73255813952852,
          "velocity": 0.29133858267716534,
          "duration": 0.05813953488372192
        },
        {
          "name": "E4",
          "midi": 64,
          "time": 79.79069767441224,
          "velocity": 0.33858267716535434,
          "duration": 0.04651162790696617
        },
        {
          "name": "C#5",
          "midi": 73,
          "time": 79.80232558138898,
          "velocity": 0.14960629921259844,
          "duration": 0.05813953488370771
        },
        {
          "name": "A0",
          "midi": 21,
          "time": 79.81395348836573,
          "velocity": 0.33070866141732286,
          "duration": 0.034883720930224626
        },
        {
          "name": "G#2",
          "midi": 44,
          "time": 79.82558139534247,
          "velocity": 0.3858267716535433,
          "duration": 0.023255813953483084
        },
        {
          "name": "F3",
          "midi": 53,
          "time": 79.82558139534247,
          "velocity": 0.25984251968503935,
          "duration": 0.04651162790696617
        },
        {
          "name": "B4",
          "midi": 71,
          "time": 79.83720930231921,
          "velocity": 0.1968503937007874,
          "duration": 0.17441860465112313
        },
        {
          "name": "E5",
          "midi": 76,
          "time": 79.84883720929595,
          "velocity": 0.08661417322834646,
          "duration": 0.04651162790696617
        },
        {
          "name": "F#5",
          "midi": 78,
          "time": 79.84883720929595,
          "velocity": 0.10236220472440945,
          "duration": 0.05813953488370771
        },
        {
          "name": "F2",
          "midi": 41,
          "time": 79.86046511627269,
          "velocity": 0.4330708661417323,
          "duration": 0.023255813953483084
        },
        {
          "name": "D#4",
          "midi": 63,
          "time": 79.86046511627269,
          "velocity": 0.16535433070866143,
          "duration": 0.034883720930224626
        },
        {
          "name": "B0",
          "midi": 23,
          "time": 79.87209302324943,
          "velocity": 0.2440944881889764,
          "duration": 0.023255813953483084
        },
        {
          "name": "E2",
          "midi": 40,
          "time": 79.88372093022618,
          "velocity": 0.31496062992125984,
          "duration": 0.023255813953483084
        },
        {
          "name": "F3",
          "midi": 53,
          "time": 79.88372093022618,
          "velocity": 0.2677165354330709,
          "duration": 0.04651162790696617
        },
        {
          "name": "B3",
          "midi": 59,
          "time": 79.90697674417966,
          "velocity": 0.1968503937007874,
          "duration": 0.05813953488370771
        },
        {
          "name": "E2",
          "midi": 40,
          "time": 79.9186046511564,
          "velocity": 0.3700787401574803,
          "duration": 0.04651162790696617
        },
        {
          "name": "C#4",
          "midi": 61,
          "time": 79.97674418604011,
          "velocity": 0.29133858267716534,
          "duration": 0.023255813953483084
        },
        {
          "name": "F#4",
          "midi": 66,
          "time": 79.97674418604011,
          "velocity": 0.1968503937007874,
          "duration": 0.034883720930224626
        },
        {
          "name": "E5",
          "midi": 76,
          "time": 79.98837209301685,
          "velocity": 0.14173228346456693,
          "duration": 0.06976744186044925
        },
        {
          "name": "D#6",
          "midi": 87,
          "time": 79.98837209301685,
          "velocity": 0.13385826771653545,
          "duration": 0.034883720930224626
        },
        {
          "name": "F#6",
          "midi": 90,
          "time": 79.98837209301685,
          "velocity": 0.14960629921259844,
          "duration": 0.034883720930224626
        },
        {
          "name": "A6",
          "midi": 93,
          "time": 79.98837209301685,
          "velocity": 0.5275590551181102,
          "duration": 0.616279069767316
        },
        {
          "name": "D4",
          "midi": 62,
          "time": 79.99999999999359,
          "velocity": 0.29133858267716534,
          "duration": 0.023255813953483084
        },
        {
          "name": "F#5",
          "midi": 78,
          "time": 79.99999999999359,
          "velocity": 0.2755905511811024,
          "duration": 0.20930232558134776
        },
        {
          "name": "G#5",
          "midi": 80,
          "time": 79.99999999999359,
          "velocity": 0.2047244094488189,
          "duration": 0.17441860465112313
        },
        {
          "name": "E7",
          "midi": 100,
          "time": 79.99999999999359,
          "velocity": 0.2677165354330709,
          "duration": 0.5116279069766421
        },
        {
          "name": "F#2",
          "midi": 42,
          "time": 80.01162790697033,
          "velocity": 0.5118110236220472,
          "duration": 0.011627906976741542
        },
        {
          "name": "A5",
          "midi": 81,
          "time": 80.01162790697033,
          "velocity": 0.3858267716535433,
          "duration": 0.5697674418603498
        },
        {
          "name": "F2",
          "midi": 41,
          "time": 80.02325581394707,
          "velocity": 0.5748031496062992,
          "duration": 0.011627906976741542
        },
        {
          "name": "D3",
          "midi": 50,
          "time": 80.02325581394707,
          "velocity": 0.2992125984251969,
          "duration": 0.023255813953483084
        },
        {
          "name": "A4",
          "midi": 69,
          "time": 80.02325581394707,
          "velocity": 0.16535433070866143,
          "duration": 0.034883720930224626
        },
        {
          "name": "C5",
          "midi": 72,
          "time": 80.02325581394707,
          "velocity": 0.1732283464566929,
          "duration": 0.04651162790696617
        },
        {
          "name": "E2",
          "midi": 40,
          "time": 80.03488372092382,
          "velocity": 0.5118110236220472,
          "duration": 0.023255813953483084
        },
        {
          "name": "F#4",
          "midi": 66,
          "time": 80.03488372092382,
          "velocity": 0.36220472440944884,
          "duration": 0.45348837209293436
        },
        {
          "name": "C#7",
          "midi": 97,
          "time": 80.03488372092382,
          "velocity": 0.09448818897637795,
          "duration": 0.05813953488370771
        },
        {
          "name": "E1",
          "midi": 28,
          "time": 80.0581395348773,
          "velocity": 0.5118110236220472,
          "duration": 0.023255813953483084
        },
        {
          "name": "A3",
          "midi": 57,
          "time": 80.0581395348773,
          "velocity": 0.33858267716535434,
          "duration": 0.11627906976741542
        },
        {
          "name": "C#6",
          "midi": 85,
          "time": 80.0581395348773,
          "velocity": 0.13385826771653545,
          "duration": 0.11627906976741542
        },
        {
          "name": "E6",
          "midi": 88,
          "time": 80.0581395348773,
          "velocity": 0.11023622047244094,
          "duration": 0.034883720930224626
        },
        {
          "name": "C3",
          "midi": 48,
          "time": 80.08139534883078,
          "velocity": 0.3228346456692913,
          "duration": 0.023255813953483084
        },
        {
          "name": "C#4",
          "midi": 61,
          "time": 80.08139534883078,
          "velocity": 0.30708661417322836,
          "duration": 0.04651162790696617
        },
        {
          "name": "A#6",
          "midi": 94,
          "time": 80.08139534883078,
          "velocity": 0.10236220472440945,
          "duration": 0.06976744186044925
        },
        {
          "name": "B4",
          "midi": 71,
          "time": 80.10465116278426,
          "velocity": 0.12598425196850394,
          "duration": 0.034883720930224626
        },
        {
          "name": "D5",
          "midi": 74,
          "time": 80.10465116278426,
          "velocity": 0.2677165354330709,
          "duration": 0.05813953488370771
        },
        {
          "name": "E5",
          "midi": 76,
          "time": 80.10465116278426,
          "velocity": 0.14173228346456693,
          "duration": 0.05813953488370771
        },
        {
          "name": "D4",
          "midi": 62,
          "time": 80.12790697673775,
          "velocity": 0.2992125984251969,
          "duration": 0.10465116279067388
        },
        {
          "name": "B6",
          "midi": 95,
          "time": 80.12790697673775,
          "velocity": 0.15748031496062992,
          "duration": 0.04651162790696617
        },
        {
          "name": "C#7",
          "midi": 97,
          "time": 80.12790697673775,
          "velocity": 0.14960629921259844,
          "duration": 0.034883720930224626
        },
        {
          "name": "E2",
          "midi": 40,
          "time": 80.15116279069123,
          "velocity": 0.48031496062992124,
          "duration": 0.05813953488370771
        },
        {
          "name": "B0",
          "midi": 23,
          "time": 80.16279069766797,
          "velocity": 0.3464566929133858,
          "duration": 0.023255813953483084
        },
        {
          "name": "A4",
          "midi": 69,
          "time": 80.18604651162146,
          "velocity": 0.1732283464566929,
          "duration": 0.17441860465113734
        },
        {
          "name": "B6",
          "midi": 95,
          "time": 80.18604651162146,
          "velocity": 0.10236220472440945,
          "duration": 0.034883720930224626
        },
        {
          "name": "B0",
          "midi": 23,
          "time": 80.1976744185982,
          "velocity": 0.3228346456692913,
          "duration": 0.023255813953483084
        },
        {
          "name": "A3",
          "midi": 57,
          "time": 80.1976744185982,
          "velocity": 0.2440944881889764,
          "duration": 0.023255813953483084
        },
        {
          "name": "G6",
          "midi": 91,
          "time": 80.1976744185982,
          "velocity": 0.2047244094488189,
          "duration": 0.0813953488371908
        },
        {
          "name": "F2",
          "midi": 41,
          "time": 80.20930232557494,
          "velocity": 0.44881889763779526,
          "duration": 0.023255813953483084
        },
        {
          "name": "E5",
          "midi": 76,
          "time": 80.23255813952842,
          "velocity": 0.13385826771653545,
          "duration": 0.11627906976742963
        },
        {
          "name": "A3",
          "midi": 57,
          "time": 80.24418604650516,
          "velocity": 0.1968503937007874,
          "duration": 0.04651162790696617
        },
        {
          "name": "G0",
          "midi": 19,
          "time": 80.2558139534819,
          "velocity": 0.25196850393700787,
          "duration": 0.023255813953483084
        },
        {
          "name": "D3",
          "midi": 50,
          "time": 80.27906976743539,
          "velocity": 0.2283464566929134,
          "duration": 0.04651162790698038
        },
        {
          "name": "A3",
          "midi": 57,
          "time": 80.32558139534237,
          "velocity": 0.2440944881889764,
          "duration": 0.06976744186044925
        },
        {
          "name": "D4",
          "midi": 62,
          "time": 80.32558139534237,
          "velocity": 0.18110236220472442,
          "duration": 0.06976744186044925
        },
        {
          "name": "E2",
          "midi": 40,
          "time": 80.3604651162726,
          "velocity": 0.36220472440944884,
          "duration": 0.023255813953483084
        },
        {
          "name": "C#5",
          "midi": 73,
          "time": 80.3604651162726,
          "velocity": 0.14173228346456693,
          "duration": 0.04651162790696617
        },
        {
          "name": "C2",
          "midi": 36,
          "time": 80.4186046511563,
          "velocity": 0.5511811023622047,
          "duration": 0.011627906976741542
        },
        {
          "name": "B2",
          "midi": 47,
          "time": 80.4186046511563,
          "velocity": 0.48031496062992124,
          "duration": 0.034883720930224626
        },
        {
          "name": "D5",
          "midi": 74,
          "time": 80.4186046511563,
          "velocity": 0.29133858267716534,
          "duration": 0.2209302325580893
        },
        {
          "name": "F#6",
          "midi": 90,
          "time": 80.4186046511563,
          "velocity": 0.1968503937007874,
          "duration": 0.1627906976743816
        },
        {
          "name": "B6",
          "midi": 95,
          "time": 80.4186046511563,
          "velocity": 0.4645669291338583,
          "duration": 0.6046511627905744
        },
        {
          "name": "A3",
          "midi": 57,
          "time": 80.43023255813304,
          "velocity": 0.2677165354330709,
          "duration": 0.0813953488371908
        },
        {
          "name": "D4",
          "midi": 62,
          "time": 80.44186046510978,
          "velocity": 0.30708661417322836,
          "duration": 0.0813953488371908
        },
        {
          "name": "C#2",
          "midi": 37,
          "time": 80.45348837208653,
          "velocity": 0.5275590551181102,
          "duration": 0.011627906976741542
        },
        {
          "name": "B4",
          "midi": 71,
          "time": 80.46511627906327,
          "velocity": 0.2992125984251969,
          "duration": 0.17441860465112313
        },
        {
          "name": "G1",
          "midi": 31,
          "time": 80.47674418604001,
          "velocity": 0.48031496062992124,
          "duration": 0.034883720930224626
        },
        {
          "name": "B2",
          "midi": 47,
          "time": 80.48837209301675,
          "velocity": 0.4330708661417323,
          "duration": 0.05813953488370771
        },
        {
          "name": "G4",
          "midi": 67,
          "time": 80.48837209301675,
          "velocity": 0.36220472440944884,
          "duration": 0.1627906976743816
        },
        {
          "name": "E5",
          "midi": 76,
          "time": 80.51162790697023,
          "velocity": 0.16535433070866143,
          "duration": 0.0813953488371908
        },
        {
          "name": "A#1",
          "midi": 34,
          "time": 80.52325581394697,
          "velocity": 0.5118110236220472,
          "duration": 0.011627906976741542
        },
        {
          "name": "E4",
          "midi": 64,
          "time": 80.52325581394697,
          "velocity": 0.29133858267716534,
          "duration": 0.023255813953483084
        },
        {
          "name": "D4",
          "midi": 62,
          "time": 80.53488372092372,
          "velocity": 0.2755905511811024,
          "duration": 0.034883720930224626
        },
        {
          "name": "B1",
          "midi": 35,
          "time": 80.5581395348772,
          "velocity": 0.5275590551181102,
          "duration": 0.011627906976741542
        },
        {
          "name": "G#3",
          "midi": 56,
          "time": 80.5581395348772,
          "velocity": 0.2283464566929134,
          "duration": 0.034883720930224626
        },
        {
          "name": "E4",
          "midi": 64,
          "time": 80.5581395348772,
          "velocity": 0.25196850393700787,
          "duration": 0.0813953488371908
        },
        {
          "name": "C2",
          "midi": 36,
          "time": 80.56976744185394,
          "velocity": 0.5196850393700787,
          "duration": 0.011627906976741542
        },
        {
          "name": "B2",
          "midi": 47,
          "time": 80.59302325580742,
          "velocity": 0.33070866141732286,
          "duration": 0.023255813953483084
        },
        {
          "name": "A1",
          "midi": 33,
          "time": 80.6162790697609,
          "velocity": 0.4251968503937008,
          "duration": 0.023255813953483084
        },
        {
          "name": "A4",
          "midi": 69,
          "time": 80.6162790697609,
          "velocity": 0.2992125984251969,
          "duration": 0.3023255813952943
        },
        {
          "name": "E5",
          "midi": 76,
          "time": 80.62790697673765,
          "velocity": 0.3779527559055118,
          "duration": 0.39534883720922664
        },
        {
          "name": "C#6",
          "midi": 85,
          "time": 80.63953488371439,
          "velocity": 0.25196850393700787,
          "duration": 0.20930232558136197
        },
        {
          "name": "F#4",
          "midi": 66,
          "time": 80.66279069766787,
          "velocity": 0.2677165354330709,
          "duration": 0.023255813953483084
        },
        {
          "name": "B5",
          "midi": 83,
          "time": 80.66279069766787,
          "velocity": 0.11023622047244094,
          "duration": 0.11627906976741542
        },
        {
          "name": "D#4",
          "midi": 63,
          "time": 80.68604651162136,
          "velocity": 0.23622047244094488,
          "duration": 0.05813953488370771
        },
        {
          "name": "F2",
          "midi": 41,
          "time": 80.6976744185981,
          "velocity": 0.5118110236220472,
          "duration": 0.011627906976741542
        },
        {
          "name": "D2",
          "midi": 38,
          "time": 80.70930232557484,
          "velocity": 0.5354330708661418,
          "duration": 0.011627906976741542
        },
        {
          "name": "A#3",
          "midi": 58,
          "time": 80.70930232557484,
          "velocity": 0.18110236220472442,
          "duration": 0.034883720930224626
        },
        {
          "name": "D3",
          "midi": 50,
          "time": 80.74418604650506,
          "velocity": 0.2677165354330709,
          "duration": 0.023255813953483084
        },
        {
          "name": "A6",
          "midi": 93,
          "time": 80.7558139534818,
          "velocity": 0.16535433070866143,
          "duration": 0.05813953488372192
        },
        {
          "name": "E2",
          "midi": 40,
          "time": 80.77906976743529,
          "velocity": 0.5039370078740157,
          "duration": 0.05813953488372192
        },
        {
          "name": "F2",
          "midi": 41,
          "time": 80.83720930231901,
          "velocity": 0.3858267716535433,
          "duration": 0.023255813953483084
        },
        {
          "name": "D7",
          "midi": 98,
          "time": 80.84883720929575,
          "velocity": 0.49606299212598426,
          "duration": 0.5813953488370913
        },
        {
          "name": "D6",
          "midi": 86,
          "time": 80.88372093022598,
          "velocity": 0.28346456692913385,
          "duration": 0.17441860465112313
        },
        {
          "name": "D5",
          "midi": 74,
          "time": 80.89534883720272,
          "velocity": 0.2440944881889764,
          "duration": 0.0813953488371908
        },
        {
          "name": "B5",
          "midi": 83,
          "time": 80.89534883720272,
          "velocity": 0.25984251968503935,
          "duration": 0.2558139534883139
        },
        {
          "name": "E4",
          "midi": 64,
          "time": 80.9186046511562,
          "velocity": 0.2440944881889764,
          "duration": 0.1627906976743816
        },
        {
          "name": "A6",
          "midi": 93,
          "time": 80.93023255813294,
          "velocity": 0.13385826771653545,
          "duration": 0.034883720930224626
        },
        {
          "name": "B4",
          "midi": 71,
          "time": 80.94186046510968,
          "velocity": 0.23622047244094488,
          "duration": 0.06976744186044925
        },
        {
          "name": "G#1",
          "midi": 32,
          "time": 80.95348837208643,
          "velocity": 0.29133858267716534,
          "duration": 0.023255813953483084
        },
        {
          "name": "A6",
          "midi": 93,
          "time": 80.97674418603991,
          "velocity": 0.13385826771653545,
          "duration": 0.034883720930224626
        },
        {
          "name": "G#1",
          "midi": 32,
          "time": 80.98837209301665,
          "velocity": 0.28346456692913385,
          "duration": 0.023255813953483084
        },
        {
          "name": "D5",
          "midi": 74,
          "time": 80.99999999999339,
          "velocity": 0.18110236220472442,
          "duration": 0.04651162790696617
        },
        {
          "name": "G1",
          "midi": 31,
          "time": 81.01162790697013,
          "velocity": 0.23622047244094488,
          "duration": 0.023255813953483084
        },
        {
          "name": "B4",
          "midi": 71,
          "time": 81.03488372092362,
          "velocity": 0.30708661417322836,
          "duration": 0.26744186046505547
        },
        {
          "name": "G#1",
          "midi": 32,
          "time": 81.04651162790036,
          "velocity": 0.2755905511811024,
          "duration": 0.023255813953483084
        },
        {
          "name": "F#5",
          "midi": 78,
          "time": 81.0581395348771,
          "velocity": 0.3228346456692913,
          "duration": 0.24418604651157239
        },
        {
          "name": "D#6",
          "midi": 87,
          "time": 81.0581395348771,
          "velocity": 0.1889763779527559,
          "duration": 0.04651162790696617
        },
        {
          "name": "F2",
          "midi": 41,
          "time": 81.08139534883058,
          "velocity": 0.4015748031496063,
          "duration": 0.023255813953483084
        },
        {
          "name": "B3",
          "midi": 59,
          "time": 81.08139534883058,
          "velocity": 0.23622047244094488,
          "duration": 0.06976744186044925
        },
        {
          "name": "F4",
          "midi": 65,
          "time": 81.08139534883058,
          "velocity": 0.25196850393700787,
          "duration": 0.034883720930224626
        },
        {
          "name": "D#5",
          "midi": 75,
          "time": 81.09302325580732,
          "velocity": 0.12598425196850394,
          "duration": 0.034883720930224626
        },
        {
          "name": "D6",
          "midi": 86,
          "time": 81.09302325580732,
          "velocity": 0.14960629921259844,
          "duration": 0.09302325581393234
        },
        {
          "name": "G#4",
          "midi": 68,
          "time": 81.10465116278407,
          "velocity": 0.07086614173228346,
          "duration": 0.034883720930224626
        },
        {
          "name": "F2",
          "midi": 41,
          "time": 81.11627906976081,
          "velocity": 0.3700787401574803,
          "duration": 0.023255813953483084
        },
        {
          "name": "E4",
          "midi": 64,
          "time": 81.11627906976081,
          "velocity": 0.3228346456692913,
          "duration": 0.05813953488370771
        },
        {
          "name": "E2",
          "midi": 40,
          "time": 81.16279069766777,
          "velocity": 0.3700787401574803,
          "duration": 0.023255813953483084
        },
        {
          "name": "D#6",
          "midi": 87,
          "time": 81.16279069766777,
          "velocity": 0.07874015748031496,
          "duration": 0.034883720930224626
        },
        {
          "name": "E5",
          "midi": 76,
          "time": 81.18604651162126,
          "velocity": 0.11023622047244094,
          "duration": 0.034883720930224626
        },
        {
          "name": "E4",
          "midi": 64,
          "time": 81.197674418598,
          "velocity": 0.1732283464566929,
          "duration": 0.034883720930224626
        },
        {
          "name": "E2",
          "midi": 40,
          "time": 81.22093023255148,
          "velocity": 0.4015748031496063,
          "duration": 0.023255813953483084
        },
        {
          "name": "B3",
          "midi": 59,
          "time": 81.22093023255148,
          "velocity": 0.1732283464566929,
          "duration": 0.04651162790696617
        },
        {
          "name": "F2",
          "midi": 41,
          "time": 81.24418604650496,
          "velocity": 0.4330708661417323,
          "duration": 0.023255813953483084
        },
        {
          "name": "D5",
          "midi": 74,
          "time": 81.27906976743519,
          "velocity": 0.23622047244094488,
          "duration": 0.023255813953483084
        },
        {
          "name": "F5",
          "midi": 77,
          "time": 81.27906976743519,
          "velocity": 0.36220472440944884,
          "duration": 0.034883720930224626
        },
        {
          "name": "C#6",
          "midi": 85,
          "time": 81.27906976743519,
          "velocity": 0.1889763779527559,
          "duration": 0.04651162790696617
        },
        {
          "name": "G#6",
          "midi": 92,
          "time": 81.27906976743519,
          "velocity": 0.2047244094488189,
          "duration": 0.0813953488371908
        },
        {
          "name": "A#6",
          "midi": 94,
          "time": 81.27906976743519,
          "velocity": 0.15748031496062992,
          "duration": 0.04651162790696617
        },
        {
          "name": "E2",
          "midi": 40,
          "time": 81.29069767441193,
          "velocity": 0.3937007874015748,
          "duration": 0.023255813953483084
        },
        {
          "name": "G#5",
          "midi": 80,
          "time": 81.29069767441193,
          "velocity": 0.2125984251968504,
          "duration": 0.09302325581393234
        },
        {
          "name": "F#6",
          "midi": 90,
          "time": 81.29069767441193,
          "velocity": 0.3858267716535433,
          "duration": 0.7674418604650128
        },
        {
          "name": "A6",
          "midi": 93,
          "time": 81.29069767441193,
          "velocity": 0.09448818897637795,
          "duration": 0.06976744186044925
        },
        {
          "name": "C#7",
          "midi": 97,
          "time": 81.29069767441193,
          "velocity": 0.25984251968503935,
          "duration": 0.4069767441860108
        },
        {
          "name": "G7",
          "midi": 103,
          "time": 81.29069767441193,
          "velocity": 0.10236220472440945,
          "duration": 0.034883720930224626
        },
        {
          "name": "C#5",
          "midi": 73,
          "time": 81.30232558138867,
          "velocity": 0.25984251968503935,
          "duration": 0.09302325581393234
        },
        {
          "name": "A#5",
          "midi": 82,
          "time": 81.30232558138867,
          "velocity": 0.15748031496062992,
          "duration": 0.06976744186044925
        },
        {
          "name": "C6",
          "midi": 84,
          "time": 81.30232558138867,
          "velocity": 0.14960629921259844,
          "duration": 0.04651162790696617
        },
        {
          "name": "D#6",
          "midi": 87,
          "time": 81.30232558138867,
          "velocity": 0.11023622047244094,
          "duration": 0.034883720930224626
        },
        {
          "name": "G4",
          "midi": 67,
          "time": 81.31395348836541,
          "velocity": 0.14173228346456693,
          "duration": 0.034883720930224626
        },
        {
          "name": "F#5",
          "midi": 78,
          "time": 81.31395348836541,
          "velocity": 0.5039370078740157,
          "duration": 0.4302325581394939
        },
        {
          "name": "D3",
          "midi": 50,
          "time": 81.32558139534216,
          "velocity": 0.25196850393700787,
          "duration": 0.023255813953483084
        },
        {
          "name": "B5",
          "midi": 83,
          "time": 81.32558139534216,
          "velocity": 0.13385826771653545,
          "duration": 0.05813953488370771
        },
        {
          "name": "E6",
          "midi": 88,
          "time": 81.3372093023189,
          "velocity": 0.08661417322834646,
          "duration": 0.04651162790696617
        },
        {
          "name": "F#4",
          "midi": 66,
          "time": 81.34883720929564,
          "velocity": 0.33858267716535434,
          "duration": 0.2906976744185954
        },
        {
          "name": "D4",
          "midi": 62,
          "time": 81.36046511627238,
          "velocity": 0.23622047244094488,
          "duration": 0.36046511627904465
        },
        {
          "name": "C3",
          "midi": 48,
          "time": 81.37209302324912,
          "velocity": 0.2992125984251969,
          "duration": 0.023255813953483084
        },
        {
          "name": "A3",
          "midi": 57,
          "time": 81.38372093022586,
          "velocity": 0.11023622047244094,
          "duration": 0.05813953488372192
        },
        {
          "name": "D5",
          "midi": 74,
          "time": 81.3953488372026,
          "velocity": 0.2992125984251969,
          "duration": 0.04651162790698038
        },
        {
          "name": "A#5",
          "midi": 82,
          "time": 81.3953488372026,
          "velocity": 0.14960629921259844,
          "duration": 0.05813953488372192
        },
        {
          "name": "C#6",
          "midi": 85,
          "time": 81.3953488372026,
          "velocity": 0.1889763779527559,
          "duration": 0.09302325581396076
        },
        {
          "name": "C#5",
          "midi": 73,
          "time": 81.44186046510958,
          "velocity": 0.2283464566929134,
          "duration": 0.25581395348835656
        },
        {
          "name": "D7",
          "midi": 98,
          "time": 81.45348837208633,
          "velocity": 0.1968503937007874,
          "duration": 0.03488372093023884
        },
        {
          "name": "A#0",
          "midi": 22,
          "time": 81.54651162790029,
          "velocity": 0.3464566929133858,
          "duration": 0.023255813953483084
        },
        {
          "name": "A#2",
          "midi": 46,
          "time": 81.62790697673749,
          "velocity": 0.08661417322834646,
          "duration": 0.034883720930224626
        },
        {
          "name": "G#2",
          "midi": 44,
          "time": 81.6860465116212,
          "velocity": 0.4015748031496063,
          "duration": 0.023255813953483084
        },
        {
          "name": "F3",
          "midi": 53,
          "time": 81.6860465116212,
          "velocity": 0.3700787401574803,
          "duration": 0.023255813953483084
        },
        {
          "name": "G#4",
          "midi": 68,
          "time": 81.69767441859794,
          "velocity": 0.2992125984251969,
          "duration": 0.11627906976741542
        },
        {
          "name": "A#4",
          "midi": 70,
          "time": 81.69767441859794,
          "velocity": 0.1968503937007874,
          "duration": 0.034883720930224626
        },
        {
          "name": "B5",
          "midi": 83,
          "time": 81.69767441859794,
          "velocity": 0.25196850393700787,
          "duration": 0.20930232558134776
        },
        {
          "name": "D#5",
          "midi": 75,
          "time": 81.70930232557468,
          "velocity": 0.33858267716535434,
          "duration": 0.05813953488370771
        },
        {
          "name": "E6",
          "midi": 88,
          "time": 81.70930232557468,
          "velocity": 0.44881889763779526,
          "duration": 2.9069767441855134
        },
        {
          "name": "A1",
          "midi": 33,
          "time": 81.72093023255142,
          "velocity": 0.44881889763779526,
          "duration": 0.023255813953483084
        },
        {
          "name": "B2",
          "midi": 47,
          "time": 81.72093023255142,
          "velocity": 0.5118110236220472,
          "duration": 0.011627906976741542
        },
        {
          "name": "E4",
          "midi": 64,
          "time": 81.72093023255142,
          "velocity": 0.2283464566929134,
          "duration": 0.034883720930224626
        },
        {
          "name": "A6",
          "midi": 93,
          "time": 81.72093023255142,
          "velocity": 0.13385826771653545,
          "duration": 0.034883720930224626
        },
        {
          "name": "A2",
          "midi": 45,
          "time": 81.73255813952817,
          "velocity": 0.5669291338582677,
          "duration": 0.011627906976741542
        },
        {
          "name": "B4",
          "midi": 71,
          "time": 81.73255813952817,
          "velocity": 0.3228346456692913,
          "duration": 0.3255813953487774
        },
        {
          "name": "A#6",
          "midi": 94,
          "time": 81.73255813952817,
          "velocity": 0.2047244094488189,
          "duration": 0.034883720930224626
        },
        {
          "name": "C2",
          "midi": 36,
          "time": 81.74418604650491,
          "velocity": 0.6141732283464567,
          "duration": 0.011627906976741542
        },
        {
          "name": "B3",
          "midi": 59,
          "time": 81.74418604650491,
          "velocity": 0.2440944881889764,
          "duration": 0.023255813953483084
        },
        {
          "name": "F#4",
          "midi": 66,
          "time": 81.74418604650491,
          "velocity": 0.23622047244094488,
          "duration": 0.023255813953483084
        },
        {
          "name": "F5",
          "midi": 77,
          "time": 81.74418604650491,
          "velocity": 0.1968503937007874,
          "duration": 0.034883720930224626
        },
        {
          "name": "D#2",
          "midi": 39,
          "time": 81.75581395348165,
          "velocity": 0.5905511811023622,
          "duration": 0.011627906976741542
        },
        {
          "name": "D#7",
          "midi": 99,
          "time": 81.75581395348165,
          "velocity": 0.12598425196850394,
          "duration": 0.034883720930224626
        },
        {
          "name": "G2",
          "midi": 43,
          "time": 81.76744186045839,
          "velocity": 0.5354330708661418,
          "duration": 0.011627906976741542
        },
        {
          "name": "E5",
          "midi": 76,
          "time": 81.76744186045839,
          "velocity": 0.48031496062992124,
          "duration": 0.6744186046510521
        },
        {
          "name": "A#5",
          "midi": 82,
          "time": 81.76744186045839,
          "velocity": 0.14173228346456693,
          "duration": 0.034883720930224626
        },
        {
          "name": "B6",
          "midi": 95,
          "time": 81.76744186045839,
          "velocity": 0.28346456692913385,
          "duration": 1.8953488372089708
        },
        {
          "name": "F1",
          "midi": 29,
          "time": 81.77906976743513,
          "velocity": 0.5354330708661418,
          "duration": 0.023255813953483084
        },
        {
          "name": "B3",
          "midi": 59,
          "time": 81.77906976743513,
          "velocity": 0.23622047244094488,
          "duration": 0.023255813953483084
        },
        {
          "name": "E4",
          "midi": 64,
          "time": 81.77906976743513,
          "velocity": 0.3700787401574803,
          "duration": 0.3488372093022747
        },
        {
          "name": "D5",
          "midi": 74,
          "time": 81.79069767441187,
          "velocity": 0.2204724409448819,
          "duration": 0.09302325581393234
        },
        {
          "name": "F#5",
          "midi": 78,
          "time": 81.79069767441187,
          "velocity": 0.13385826771653545,
          "duration": 0.034883720930224626
        },
        {
          "name": "C4",
          "midi": 60,
          "time": 81.80232558138862,
          "velocity": 0.2677165354330709,
          "duration": 0.034883720930224626
        },
        {
          "name": "G#4",
          "midi": 68,
          "time": 81.8255813953421,
          "velocity": 0.3228346456692913,
          "duration": 0.4302325581394797
        },
        {
          "name": "C2",
          "midi": 36,
          "time": 81.83720930231884,
          "velocity": 0.5118110236220472,
          "duration": 0.023255813953483084
        },
        {
          "name": "B3",
          "midi": 59,
          "time": 81.84883720929558,
          "velocity": 0.4094488188976378,
          "duration": 0.06976744186044925
        },
        {
          "name": "F#5",
          "midi": 78,
          "time": 81.84883720929558,
          "velocity": 0.2283464566929134,
          "duration": 0.31395348837205006
        },
        {
          "name": "E3",
          "midi": 52,
          "time": 81.87209302324906,
          "velocity": 0.3700787401574803,
          "duration": 0.04651162790696617
        },
        {
          "name": "F2",
          "midi": 41,
          "time": 81.89534883720255,
          "velocity": 0.4409448818897638,
          "duration": 0.023255813953483084
        },
        {
          "name": "E2",
          "midi": 40,
          "time": 81.91860465115603,
          "velocity": 0.41732283464566927,
          "duration": 0.034883720930224626
        },
        {
          "name": "B3",
          "midi": 59,
          "time": 81.93023255813277,
          "velocity": 0.3779527559055118,
          "duration": 0.11627906976742963
        },
        {
          "name": "F2",
          "midi": 41,
          "time": 82.02325581394672,
          "velocity": 0.4094488188976378,
          "duration": 0.023255813953483084
        },
        {
          "name": "E1",
          "midi": 28,
          "time": 82.0465116279002,
          "velocity": 0.30708661417322836,
          "duration": 0.023255813953483084
        },
        {
          "name": "B4",
          "midi": 71,
          "time": 82.09302325580717,
          "velocity": 0.1889763779527559,
          "duration": 0.25581395348834235
        },
        {
          "name": "F#6",
          "midi": 90,
          "time": 82.09302325580717,
          "velocity": 0.2283464566929134,
          "duration": 0.1860465116278931
        },
        {
          "name": "D5",
          "midi": 74,
          "time": 82.1279069767374,
          "velocity": 0.29133858267716534,
          "duration": 0.13953488372091272
        },
        {
          "name": "A5",
          "midi": 81,
          "time": 82.1279069767374,
          "velocity": 0.2992125984251969,
          "duration": 0.3255813953487774
        },
        {
          "name": "D4",
          "midi": 62,
          "time": 82.13953488371415,
          "velocity": 0.2440944881889764,
          "duration": 0.1627906976743958
        },
        {
          "name": "A#1",
          "midi": 34,
          "time": 82.22093023255135,
          "velocity": 0.25984251968503935,
          "duration": 0.023255813953483084
        },
        {
          "name": "F#4",
          "midi": 66,
          "time": 82.24418604650484,
          "velocity": 0.07874015748031496,
          "duration": 0.06976744186044925
        },
        {
          "name": "D5",
          "midi": 74,
          "time": 82.27906976743506,
          "velocity": 0.3937007874015748,
          "duration": 0.39534883720921243
        },
        {
          "name": "B3",
          "midi": 59,
          "time": 82.30232558138854,
          "velocity": 0.10236220472440945,
          "duration": 0.04651162790696617
        },
        {
          "name": "A#2",
          "midi": 46,
          "time": 82.32558139534203,
          "velocity": 0.3464566929133858,
          "duration": 0.034883720930224626
        },
        {
          "name": "G5",
          "midi": 79,
          "time": 82.34883720929551,
          "velocity": 0.11023622047244094,
          "duration": 0.06976744186044925
        },
        {
          "name": "A4",
          "midi": 69,
          "time": 82.36046511627225,
          "velocity": 0.25196850393700787,
          "duration": 0.29069767441853855
        },
        {
          "name": "C#6",
          "midi": 85,
          "time": 82.36046511627225,
          "velocity": 0.2677165354330709,
          "duration": 0.2558139534883139
        },
        {
          "name": "D4",
          "midi": 62,
          "time": 82.372093023249,
          "velocity": 0.25196850393700787,
          "duration": 0.023255813953483084
        },
        {
          "name": "G#3",
          "midi": 56,
          "time": 82.39534883720248,
          "velocity": 0.2992125984251969,
          "duration": 0.023255813953483084
        },
        {
          "name": "F2",
          "midi": 41,
          "time": 82.40697674417922,
          "velocity": 0.5039370078740157,
          "duration": 0.04651162790696617
        },
        {
          "name": "F4",
          "midi": 65,
          "time": 82.40697674417922,
          "velocity": 0.3779527559055118,
          "duration": 0.034883720930224626
        },
        {
          "name": "A#3",
          "midi": 58,
          "time": 82.41860465115596,
          "velocity": 0.3228346456692913,
          "duration": 0.023255813953483084
        },
        {
          "name": "B5",
          "midi": 83,
          "time": 82.41860465115596,
          "velocity": 0.09448818897637795,
          "duration": 0.034883720930224626
        },
        {
          "name": "B3",
          "midi": 59,
          "time": 82.44186046510944,
          "velocity": 0.3464566929133858,
          "duration": 0.06976744186044925
        },
        {
          "name": "F#5",
          "midi": 78,
          "time": 82.44186046510944,
          "velocity": 0.11023622047244094,
          "duration": 0.034883720930224626
        },
        {
          "name": "E5",
          "midi": 76,
          "time": 82.45348837208618,
          "velocity": 0.44881889763779526,
          "duration": 0.1627906976743816
        },
        {
          "name": "F2",
          "midi": 41,
          "time": 82.49999999999315,
          "velocity": 0.4015748031496063,
          "duration": 0.04651162790696617
        },
        {
          "name": "F#4",
          "midi": 66,
          "time": 82.51162790696989,
          "velocity": 0.1732283464566929,
          "duration": 0.0813953488371908
        },
        {
          "name": "B3",
          "midi": 59,
          "time": 82.53488372092337,
          "velocity": 0.23622047244094488,
          "duration": 0.034883720930224626
        },
        {
          "name": "B5",
          "midi": 83,
          "time": 82.55813953487686,
          "velocity": 0.25196850393700787,
          "duration": 0.18604651162786467
        },
        {
          "name": "B2",
          "midi": 47,
          "time": 82.5697674418536,
          "velocity": 0.4881889763779528,
          "duration": 0.12790697674415696
        },
        {
          "name": "B4",
          "midi": 71,
          "time": 82.5697674418536,
          "velocity": 0.4015748031496063,
          "duration": 0.6744186046510521
        },
        {
          "name": "E5",
          "midi": 76,
          "time": 82.62790697673731,
          "velocity": 0.3858267716535433,
          "duration": 1.0465116279067956
        },
        {
          "name": "A#3",
          "midi": 58,
          "time": 82.65116279069079,
          "velocity": 0.11811023622047244,
          "duration": 0.06976744186044925
        },
        {
          "name": "B2",
          "midi": 47,
          "time": 82.7093023255745,
          "velocity": 0.3858267716535433,
          "duration": 0.034883720930224626
        },
        {
          "name": "E2",
          "midi": 40,
          "time": 82.74418604650472,
          "velocity": 0.4015748031496063,
          "duration": 0.034883720930224626
        },
        {
          "name": "B2",
          "midi": 47,
          "time": 82.75581395348146,
          "velocity": 0.33070866141732286,
          "duration": 0.04651162790696617
        },
        {
          "name": "A#3",
          "midi": 58,
          "time": 82.77906976743495,
          "velocity": 0.29133858267716534,
          "duration": 0.023255813953483084
        },
        {
          "name": "D5",
          "midi": 74,
          "time": 82.77906976743495,
          "velocity": 0.3858267716535433,
          "duration": 0.31395348837205006
        },
        {
          "name": "F#5",
          "midi": 78,
          "time": 82.77906976743495,
          "velocity": 0.3464566929133858,
          "duration": 0.27906976744182543
        },
        {
          "name": "A6",
          "midi": 93,
          "time": 82.77906976743495,
          "velocity": 0.11023622047244094,
          "duration": 0.06976744186044925
        },
        {
          "name": "D#6",
          "midi": 87,
          "time": 82.79069767441169,
          "velocity": 0.2047244094488189,
          "duration": 0.04651162790696617
        },
        {
          "name": "B3",
          "midi": 59,
          "time": 82.80232558138843,
          "velocity": 0.29133858267716534,
          "duration": 0.10465116279068809
        },
        {
          "name": "F#2",
          "midi": 42,
          "time": 82.81395348836517,
          "velocity": 0.44881889763779526,
          "duration": 0.023255813953483084
        },
        {
          "name": "F3",
          "midi": 53,
          "time": 82.81395348836517,
          "velocity": 0.25196850393700787,
          "duration": 0.023255813953483084
        },
        {
          "name": "F2",
          "midi": 41,
          "time": 82.83720930231866,
          "velocity": 0.4566929133858268,
          "duration": 0.023255813953483084
        },
        {
          "name": "E3",
          "midi": 52,
          "time": 82.83720930231866,
          "velocity": 0.2755905511811024,
          "duration": 0.023255813953483084
        },
        {
          "name": "E2",
          "midi": 40,
          "time": 82.86046511627214,
          "velocity": 0.36220472440944884,
          "duration": 0.03488372093023884
        },
        {
          "name": "G#4",
          "midi": 68,
          "time": 82.86046511627214,
          "velocity": 0.16535433070866143,
          "duration": 0.03488372093023884
        },
        {
          "name": "A1",
          "midi": 33,
          "time": 82.90697674417912,
          "velocity": 0.25196850393700787,
          "duration": 0.023255813953483084
        },
        {
          "name": "B3",
          "midi": 59,
          "time": 82.91860465115586,
          "velocity": 0.2204724409448819,
          "duration": 0.13953488372091272
        },
        {
          "name": "G#4",
          "midi": 68,
          "time": 82.94186046510934,
          "velocity": 0.10236220472440945,
          "duration": 0.04651162790698038
        },
        {
          "name": "D#6",
          "midi": 87,
          "time": 82.94186046510934,
          "velocity": 0.10236220472440945,
          "duration": 0.12790697674417117
        },
        {
          "name": "E2",
          "midi": 40,
          "time": 82.99999999999307,
          "velocity": 0.3543307086614173,
          "duration": 0.023255813953483084
        },
        {
          "name": "G#5",
          "midi": 80,
          "time": 82.99999999999307,
          "velocity": 0.18110236220472442,
          "duration": 0.034883720930224626
        },
        {
          "name": "A#6",
          "midi": 94,
          "time": 83.0116279069698,
          "velocity": 0.15748031496062992,
          "duration": 0.034883720930224626
        },
        {
          "name": "C#6",
          "midi": 85,
          "time": 83.02325581394655,
          "velocity": 0.07086614173228346,
          "duration": 0.034883720930224626
        },
        {
          "name": "F4",
          "midi": 65,
          "time": 83.04651162790003,
          "velocity": 0.28346456692913385,
          "duration": 0.023255813953483084
        },
        {
          "name": "D#2",
          "midi": 39,
          "time": 83.05813953487677,
          "velocity": 0.3779527559055118,
          "duration": 0.023255813953483084
        },
        {
          "name": "B3",
          "midi": 59,
          "time": 83.06976744185351,
          "velocity": 0.3228346456692913,
          "duration": 0.06976744186044925
        },
        {
          "name": "E4",
          "midi": 64,
          "time": 83.06976744185351,
          "velocity": 0.1732283464566929,
          "duration": 0.04651162790696617
        },
        {
          "name": "F#5",
          "midi": 78,
          "time": 83.093023255807,
          "velocity": 0.11811023622047244,
          "duration": 0.04651162790696617
        },
        {
          "name": "F#4",
          "midi": 66,
          "time": 83.11627906976048,
          "velocity": 0.1732283464566929,
          "duration": 0.09302325581394655
        },
        {
          "name": "E2",
          "midi": 40,
          "time": 83.13953488371396,
          "velocity": 0.3228346456692913,
          "duration": 0.023255813953483084
        },
        {
          "name": "B3",
          "midi": 59,
          "time": 83.16279069766745,
          "velocity": 0.25196850393700787,
          "duration": 0.081395348837205
        },
        {
          "name": "A5",
          "midi": 81,
          "time": 83.19767441859769,
          "velocity": 0.3543307086614173,
          "duration": 0.25581395348832814
        },
        {
          "name": "A4",
          "midi": 69,
          "time": 83.22093023255117,
          "velocity": 0.25984251968503935,
          "duration": 0.10465116279067388
        },
        {
          "name": "C5",
          "midi": 72,
          "time": 83.24418604650465,
          "velocity": 0.25196850393700787,
          "duration": 0.023255813953483084
        },
        {
          "name": "E4",
          "midi": 64,
          "time": 83.2558139534814,
          "velocity": 0.2677165354330709,
          "duration": 0.034883720930224626
        },
        {
          "name": "B4",
          "midi": 71,
          "time": 83.2558139534814,
          "velocity": 0.1968503937007874,
          "duration": 0.15116279069765426
        },
        {
          "name": "G#0",
          "midi": 20,
          "time": 83.27906976743488,
          "velocity": 0.2992125984251969,
          "duration": 0.023255813953483084
        },
        {
          "name": "B3",
          "midi": 59,
          "time": 83.3139534883651,
          "velocity": 0.18110236220472442,
          "duration": 0.09302325581394655
        },
        {
          "name": "F#5",
          "midi": 78,
          "time": 83.3139534883651,
          "velocity": 0.08661417322834646,
          "duration": 0.04651162790696617
        },
        {
          "name": "A2",
          "midi": 45,
          "time": 83.33720930231858,
          "velocity": 0.3543307086614173,
          "duration": 0.023255813953483084
        },
        {
          "name": "G#4",
          "midi": 68,
          "time": 83.40697674417905,
          "velocity": 0.33070866141732286,
          "duration": 0.023255813953483084
        },
        {
          "name": "C5",
          "midi": 72,
          "time": 83.40697674417905,
          "velocity": 0.25196850393700787,
          "duration": 0.034883720930224626
        },
        {
          "name": "F#5",
          "midi": 78,
          "time": 83.40697674417905,
          "velocity": 0.2440944881889764,
          "duration": 0.034883720930224626
        },
        {
          "name": "G5",
          "midi": 79,
          "time": 83.40697674417905,
          "velocity": 0.3700787401574803,
          "duration": 0.2558139534883139
        },
        {
          "name": "A#1",
          "midi": 34,
          "time": 83.41860465115579,
          "velocity": 0.5590551181102362,
          "duration": 0.023255813953483084
        },
        {
          "name": "C3",
          "midi": 48,
          "time": 83.41860465115579,
          "velocity": 0.47244094488188976,
          "duration": 0.034883720930224626
        },
        {
          "name": "E4",
          "midi": 64,
          "time": 83.41860465115579,
          "velocity": 0.2992125984251969,
          "duration": 0.023255813953483084
        },
        {
          "name": "B5",
          "midi": 83,
          "time": 83.41860465115579,
          "velocity": 0.12598425196850394,
          "duration": 0.17441860465112313
        },
        {
          "name": "C#6",
          "midi": 85,
          "time": 83.41860465115579,
          "velocity": 0.12598425196850394,
          "duration": 0.034883720930224626
        },
        {
          "name": "D6",
          "midi": 86,
          "time": 83.43023255813253,
          "velocity": 0.14173228346456693,
          "duration": 0.0813953488371908
        },
        {
          "name": "B1",
          "midi": 35,
          "time": 83.44186046510927,
          "velocity": 0.5118110236220472,
          "duration": 0.011627906976741542
        },
        {
          "name": "D#4",
          "midi": 63,
          "time": 83.44186046510927,
          "velocity": 0.3700787401574803,
          "duration": 0.023255813953483084
        },
        {
          "name": "G#4",
          "midi": 68,
          "time": 83.44186046510927,
          "velocity": 0.29133858267716534,
          "duration": 0.023255813953483084
        },
        {
          "name": "G#1",
          "midi": 32,
          "time": 83.45348837208601,
          "velocity": 0.5354330708661418,
          "duration": 0.011627906976741542
        },
        {
          "name": "F2",
          "midi": 41,
          "time": 83.45348837208601,
          "velocity": 0.5354330708661418,
          "duration": 0.011627906976741542
        },
        {
          "name": "B1",
          "midi": 35,
          "time": 83.46511627906276,
          "velocity": 0.6062992125984252,
          "duration": 0.011627906976741542
        },
        {
          "name": "G#3",
          "midi": 56,
          "time": 83.46511627906276,
          "velocity": 0.3700787401574803,
          "duration": 0.023255813953483084
        },
        {
          "name": "A5",
          "midi": 81,
          "time": 83.46511627906276,
          "velocity": 0.12598425196850394,
          "duration": 0.034883720930224626
        },
        {
          "name": "C2",
          "midi": 36,
          "time": 83.4767441860395,
          "velocity": 0.5669291338582677,
          "duration": 0.011627906976741542
        },
        {
          "name": "F4",
          "midi": 65,
          "time": 83.4767441860395,
          "velocity": 0.3858267716535433,
          "duration": 0.023255813953483084
        },
        {
          "name": "A#1",
          "midi": 34,
          "time": 83.48837209301624,
          "velocity": 0.5511811023622047,
          "duration": 0.011627906976741542
        },
        {
          "name": "D#4",
          "midi": 63,
          "time": 83.48837209301624,
          "velocity": 0.2283464566929134,
          "duration": 0.023255813953483084
        },
        {
          "name": "D5",
          "midi": 74,
          "time": 83.48837209301624,
          "velocity": 0.2047244094488189,
          "duration": 0.09302325581393234
        },
        {
          "name": "F#1",
          "midi": 30,
          "time": 83.49999999999298,
          "velocity": 0.5511811023622047,
          "duration": 0.011627906976741542
        },
        {
          "name": "B3",
          "midi": 59,
          "time": 83.49999999999298,
          "velocity": 0.4330708661417323,
          "duration": 0.11627906976741542
        },
        {
          "name": "G#4",
          "midi": 68,
          "time": 83.49999999999298,
          "velocity": 0.3700787401574803,
          "duration": 0.3488372093022605
        },
        {
          "name": "E4",
          "midi": 64,
          "time": 83.51162790696972,
          "velocity": 0.33070866141732286,
          "duration": 0.04651162790696617
        },
        {
          "name": "E2",
          "midi": 40,
          "time": 83.5348837209232,
          "velocity": 0.5118110236220472,
          "duration": 0.034883720930224626
        },
        {
          "name": "C3",
          "midi": 48,
          "time": 83.55813953487669,
          "velocity": 0.3779527559055118,
          "duration": 0.023255813953483084
        },
        {
          "name": "A#3",
          "midi": 58,
          "time": 83.60465116278365,
          "velocity": 0.29133858267716534,
          "duration": 0.034883720930224626
        },
        {
          "name": "E4",
          "midi": 64,
          "time": 83.6162790697604,
          "velocity": 0.18110236220472442,
          "duration": 0.034883720930224626
        },
        {
          "name": "A5",
          "midi": 81,
          "time": 83.62790697673714,
          "velocity": 0.3858267716535433,
          "duration": 0.20930232558136197
        },
        {
          "name": "A0",
          "midi": 21,
          "time": 83.63953488371388,
          "velocity": 0.4409448818897638,
          "duration": 0.023255813953483084
        },
        {
          "name": "B3",
          "midi": 59,
          "time": 83.63953488371388,
          "velocity": 0.2677165354330709,
          "duration": 0.023255813953483084
        },
        {
          "name": "B2",
          "midi": 47,
          "time": 83.65116279069062,
          "velocity": 0.41732283464566927,
          "duration": 0.034883720930224626
        },
        {
          "name": "E4",
          "midi": 64,
          "time": 83.6744186046441,
          "velocity": 0.16535433070866143,
          "duration": 0.09302325581393234
        },
        {
          "name": "F5",
          "midi": 77,
          "time": 83.6744186046441,
          "velocity": 0.08661417322834646,
          "duration": 0.034883720930224626
        },
        {
          "name": "G5",
          "midi": 79,
          "time": 83.6744186046441,
          "velocity": 0.10236220472440945,
          "duration": 0.04651162790696617
        },
        {
          "name": "A#2",
          "midi": 46,
          "time": 83.68604651162084,
          "velocity": 0.36220472440944884,
          "duration": 0.023255813953483084
        },
        {
          "name": "D#5",
          "midi": 75,
          "time": 83.68604651162084,
          "velocity": 0.08661417322834646,
          "duration": 0.04651162790696617
        },
        {
          "name": "F#2",
          "midi": 42,
          "time": 83.72093023255107,
          "velocity": 0.3858267716535433,
          "duration": 0.023255813953483084
        },
        {
          "name": "C#7",
          "midi": 97,
          "time": 83.72093023255107,
          "velocity": 0.09448818897637795,
          "duration": 0.034883720930224626
        },
        {
          "name": "F#5",
          "midi": 78,
          "time": 83.73255813952781,
          "velocity": 0.2204724409448819,
          "duration": 0.11627906976742963
        },
        {
          "name": "B2",
          "midi": 47,
          "time": 83.79069767441152,
          "velocity": 0.31496062992125984,
          "duration": 0.04651162790698038
        },
        {
          "name": "E4",
          "midi": 64,
          "time": 83.79069767441152,
          "velocity": 0.12598425196850394,
          "duration": 0.04651162790698038
        },
        {
          "name": "F#4",
          "midi": 66,
          "time": 83.8372093023185,
          "velocity": 0.3228346456692913,
          "duration": 0.034883720930224626
        },
        {
          "name": "F#7",
          "midi": 102,
          "time": 83.8372093023185,
          "velocity": 0.11811023622047244,
          "duration": 0.034883720930224626
        },
        {
          "name": "C5",
          "midi": 72,
          "time": 83.84883720929524,
          "velocity": 0.08661417322834646,
          "duration": 0.034883720930224626
        },
        {
          "name": "G5",
          "midi": 79,
          "time": 83.84883720929524,
          "velocity": 0.3464566929133858,
          "duration": 0.05813953488370771
        },
        {
          "name": "D6",
          "midi": 86,
          "time": 83.84883720929524,
          "velocity": 0.1732283464566929,
          "duration": 0.09302325581393234
        },
        {
          "name": "F#6",
          "midi": 90,
          "time": 83.84883720929524,
          "velocity": 0.3228346456692913,
          "duration": 0.2790697674418112
        },
        {
          "name": "B6",
          "midi": 95,
          "time": 83.86046511627198,
          "velocity": 0.33070866141732286,
          "duration": 0.6860465116277652
        },
        {
          "name": "D#4",
          "midi": 63,
          "time": 83.87209302324872,
          "velocity": 0.25196850393700787,
          "duration": 0.05813953488370771
        },
        {
          "name": "G4",
          "midi": 67,
          "time": 83.87209302324872,
          "velocity": 0.3858267716535433,
          "duration": 0.17441860465113734
        },
        {
          "name": "B4",
          "midi": 71,
          "time": 83.88372093022546,
          "velocity": 0.2047244094488189,
          "duration": 0.09302325581393234
        },
        {
          "name": "C#6",
          "midi": 85,
          "time": 83.88372093022546,
          "velocity": 0.08661417322834646,
          "duration": 0.034883720930224626
        },
        {
          "name": "C2",
          "midi": 36,
          "time": 83.8953488372022,
          "velocity": 0.30708661417322836,
          "duration": 0.023255813953483084
        },
        {
          "name": "F3",
          "midi": 53,
          "time": 83.8953488372022,
          "velocity": 0.2047244094488189,
          "duration": 0.034883720930224626
        },
        {
          "name": "F#5",
          "midi": 78,
          "time": 83.8953488372022,
          "velocity": 0.3464566929133858,
          "duration": 0.0813953488371908
        },
        {
          "name": "A5",
          "midi": 81,
          "time": 83.8953488372022,
          "velocity": 0.14173228346456693,
          "duration": 0.04651162790696617
        },
        {
          "name": "D#7",
          "midi": 99,
          "time": 83.8953488372022,
          "velocity": 0.2204724409448819,
          "duration": 0.19767441860462043
        },
        {
          "name": "D#2",
          "midi": 39,
          "time": 83.93023255813243,
          "velocity": 0.3779527559055118,
          "duration": 0.034883720930224626
        },
        {
          "name": "B3",
          "midi": 59,
          "time": 83.93023255813243,
          "velocity": 0.12598425196850394,
          "duration": 0.034883720930224626
        },
        {
          "name": "E4",
          "midi": 64,
          "time": 83.94186046510917,
          "velocity": 0.13385826771653545,
          "duration": 0.034883720930224626
        },
        {
          "name": "A3",
          "midi": 57,
          "time": 84.03488372092312,
          "velocity": 0.3464566929133858,
          "duration": 0.04651162790696617
        },
        {
          "name": "A#4",
          "midi": 70,
          "time": 84.04651162789986,
          "velocity": 0.2677165354330709,
          "duration": 0.034883720930224626
        },
        {
          "name": "E4",
          "midi": 64,
          "time": 84.0581395348766,
          "velocity": 0.31496062992125984,
          "duration": 0.023255813953483084
        },
        {
          "name": "E5",
          "midi": 76,
          "time": 84.06976744185334,
          "velocity": 0.3779527559055118,
          "duration": 0.05813953488370771
        },
        {
          "name": "D#4",
          "midi": 63,
          "time": 84.08139534883009,
          "velocity": 0.28346456692913385,
          "duration": 0.023255813953483084
        },
        {
          "name": "G4",
          "midi": 67,
          "time": 84.08139534883009,
          "velocity": 0.33858267716535434,
          "duration": 0.06976744186044925
        },
        {
          "name": "B4",
          "midi": 71,
          "time": 84.08139534883009,
          "velocity": 0.28346456692913385,
          "duration": 0.11627906976741542
        },
        {
          "name": "A#5",
          "midi": 82,
          "time": 84.08139534883009,
          "velocity": 0.07874015748031496,
          "duration": 0.034883720930224626
        },
        {
          "name": "A#6",
          "midi": 94,
          "time": 84.09302325580683,
          "velocity": 0.2283464566929134,
          "duration": 0.04651162790696617
        },
        {
          "name": "F#2",
          "midi": 42,
          "time": 84.10465116278357,
          "velocity": 0.5196850393700787,
          "duration": 0.023255813953483084
        },
        {
          "name": "F4",
          "midi": 65,
          "time": 84.10465116278357,
          "velocity": 0.33070866141732286,
          "duration": 0.023255813953483084
        },
        {
          "name": "D#7",
          "midi": 99,
          "time": 84.11627906976031,
          "velocity": 0.12598425196850394,
          "duration": 0.034883720930224626
        },
        {
          "name": "B3",
          "midi": 59,
          "time": 84.12790697673705,
          "velocity": 0.3228346456692913,
          "duration": 0.09302325581393234
        },
        {
          "name": "E4",
          "midi": 64,
          "time": 84.12790697673705,
          "velocity": 0.33858267716535434,
          "duration": 0.023255813953483084
        },
        {
          "name": "D#5",
          "midi": 75,
          "time": 84.12790697673705,
          "velocity": 0.33070866141732286,
          "duration": 0.023255813953483084
        },
        {
          "name": "C3",
          "midi": 48,
          "time": 84.15116279069053,
          "velocity": 0.31496062992125984,
          "duration": 0.023255813953483084
        },
        {
          "name": "F4",
          "midi": 65,
          "time": 84.15116279069053,
          "velocity": 0.28346456692913385,
          "duration": 0.034883720930224626
        },
        {
          "name": "E5",
          "midi": 76,
          "time": 84.15116279069053,
          "velocity": 0.41732283464566927,
          "duration": 0.3604651162789878
        },
        {
          "name": "F#6",
          "midi": 90,
          "time": 84.15116279069053,
          "velocity": 0.10236220472440945,
          "duration": 0.034883720930224626
        },
        {
          "name": "G4",
          "midi": 67,
          "time": 84.16279069766728,
          "velocity": 0.2440944881889764,
          "duration": 0.04651162790696617
        },
        {
          "name": "F#5",
          "midi": 78,
          "time": 84.1976744185975,
          "velocity": 0.2047244094488189,
          "duration": 0.034883720930224626
        },
        {
          "name": "F#2",
          "midi": 42,
          "time": 84.22093023255098,
          "velocity": 0.3464566929133858,
          "duration": 0.034883720930224626
        },
        {
          "name": "E3",
          "midi": 52,
          "time": 84.22093023255098,
          "velocity": 0.23622047244094488,
          "duration": 0.034883720930224626
        },
        {
          "name": "C4",
          "midi": 60,
          "time": 84.22093023255098,
          "velocity": 0.2204724409448819,
          "duration": 0.04651162790696617
        },
        {
          "name": "D6",
          "midi": 86,
          "time": 84.23255813952773,
          "velocity": 0.13385826771653545,
          "duration": 0.06976744186044925
        },
        {
          "name": "G4",
          "midi": 67,
          "time": 84.25581395348121,
          "velocity": 0.1732283464566929,
          "duration": 0.0813953488371908
        },
        {
          "name": "D#2",
          "midi": 39,
          "time": 84.26744186045795,
          "velocity": 0.5511811023622047,
          "duration": 0.011627906976741542
        },
        {
          "name": "B3",
          "midi": 59,
          "time": 84.26744186045795,
          "velocity": 0.2283464566929134,
          "duration": 0.04651162790696617
        },
        {
          "name": "E2",
          "midi": 40,
          "time": 84.27906976743469,
          "velocity": 0.5511811023622047,
          "duration": 0.023255813953483084
        },
        {
          "name": "D6",
          "midi": 86,
          "time": 84.36046511627188,
          "velocity": 0.07874015748031496,
          "duration": 0.05813953488370771
        },
        {
          "name": "A2",
          "midi": 45,
          "time": 84.37209302324862,
          "velocity": 0.36220472440944884,
          "duration": 0.023255813953483084
        },
        {
          "name": "G4",
          "midi": 67,
          "time": 84.41860465115559,
          "velocity": 0.07874015748031496,
          "duration": 0.034883720930224626
        },
        {
          "name": "A#2",
          "midi": 46,
          "time": 84.44186046510907,
          "velocity": 0.29133858267716534,
          "duration": 0.023255813953483084
        },
        {
          "name": "E4",
          "midi": 64,
          "time": 84.44186046510907,
          "velocity": 0.10236220472440945,
          "duration": 0.034883720930224626
        },
        {
          "name": "F#5",
          "midi": 78,
          "time": 84.44186046510907,
          "velocity": 0.08661417322834646,
          "duration": 0.034883720930224626
        },
        {
          "name": "G4",
          "midi": 67,
          "time": 84.46511627906256,
          "velocity": 0.2755905511811024,
          "duration": 0.04651162790696617
        },
        {
          "name": "D4",
          "midi": 62,
          "time": 84.4767441860393,
          "velocity": 0.2440944881889764,
          "duration": 0.023255813953483084
        },
        {
          "name": "F#6",
          "midi": 90,
          "time": 84.4767441860393,
          "velocity": 0.3543307086614173,
          "duration": 0.29069767441853855
        },
        {
          "name": "C#7",
          "midi": 97,
          "time": 84.4767441860393,
          "velocity": 0.33070866141732286,
          "duration": 0.31395348837202164
        },
        {
          "name": "D5",
          "midi": 74,
          "time": 84.48837209301604,
          "velocity": 0.25196850393700787,
          "duration": 0.06976744186044925
        },
        {
          "name": "F#5",
          "midi": 78,
          "time": 84.48837209301604,
          "velocity": 0.5275590551181102,
          "duration": 0.11627906976741542
        },
        {
          "name": "C4",
          "midi": 60,
          "time": 84.49999999999278,
          "velocity": 0.23622047244094488,
          "duration": 0.04651162790696617
        },
        {
          "name": "E4",
          "midi": 64,
          "time": 84.49999999999278,
          "velocity": 0.30708661417322836,
          "duration": 0.023255813953483084
        },
        {
          "name": "A5",
          "midi": 81,
          "time": 84.49999999999278,
          "velocity": 0.30708661417322836,
          "duration": 0.3023255813952801
        },
        {
          "name": "F#4",
          "midi": 66,
          "time": 84.52325581394626,
          "velocity": 0.2992125984251969,
          "duration": 0.023255813953483084
        },
        {
          "name": "E2",
          "midi": 40,
          "time": 84.534883720923,
          "velocity": 0.5984251968503937,
          "duration": 0.04651162790696617
        },
        {
          "name": "E5",
          "midi": 76,
          "time": 84.534883720923,
          "velocity": 0.2047244094488189,
          "duration": 0.04651162790696617
        },
        {
          "name": "F#4",
          "midi": 66,
          "time": 84.55813953487649,
          "velocity": 0.1732283464566929,
          "duration": 0.034883720930224626
        },
        {
          "name": "G3",
          "midi": 55,
          "time": 84.56976744185323,
          "velocity": 0.25196850393700787,
          "duration": 0.023255813953483084
        },
        {
          "name": "D5",
          "midi": 74,
          "time": 84.56976744185323,
          "velocity": 0.2125984251968504,
          "duration": 0.11627906976741542
        },
        {
          "name": "B2",
          "midi": 47,
          "time": 84.58139534882997,
          "velocity": 0.4251968503937008,
          "duration": 0.034883720930224626
        },
        {
          "name": "D4",
          "midi": 62,
          "time": 84.58139534882997,
          "velocity": 0.25984251968503935,
          "duration": 0.023255813953483084
        },
        {
          "name": "E4",
          "midi": 64,
          "time": 84.60465116278345,
          "velocity": 0.2283464566929134,
          "duration": 0.023255813953483084
        },
        {
          "name": "F#5",
          "midi": 78,
          "time": 84.6162790697602,
          "velocity": 0.5196850393700787,
          "duration": 0.04651162790696617
        },
        {
          "name": "B2",
          "midi": 47,
          "time": 84.62790697673694,
          "velocity": 0.4251968503937008,
          "duration": 0.034883720930224626
        },
        {
          "name": "D#4",
          "midi": 63,
          "time": 84.62790697673694,
          "velocity": 0.23622047244094488,
          "duration": 0.023255813953483084
        },
        {
          "name": "E6",
          "midi": 88,
          "time": 84.62790697673694,
          "velocity": 0.31496062992125984,
          "duration": 0.023255813953483084
        },
        {
          "name": "E2",
          "midi": 40,
          "time": 84.65116279069042,
          "velocity": 0.4094488188976378,
          "duration": 0.023255813953483084
        },
        {
          "name": "F#4",
          "midi": 66,
          "time": 84.65116279069042,
          "velocity": 0.2047244094488189,
          "duration": 0.034883720930224626
        },
        {
          "name": "D#6",
          "midi": 87,
          "time": 84.65116279069042,
          "velocity": 0.33070866141732286,
          "duration": 0.06976744186044925
        },
        {
          "name": "F#5",
          "midi": 78,
          "time": 84.6744186046439,
          "velocity": 0.48031496062992124,
          "duration": 0.023255813953483084
        },
        {
          "name": "A1",
          "midi": 33,
          "time": 84.68604651162065,
          "velocity": 0.4881889763779528,
          "duration": 0.023255813953483084
        },
        {
          "name": "C7",
          "midi": 96,
          "time": 84.68604651162065,
          "velocity": 0.2440944881889764,
          "duration": 0.1395348837208985
        },
        {
          "name": "E4",
          "midi": 64,
          "time": 84.69767441859739,
          "velocity": 0.30708661417322836,
          "duration": 0.04651162790696617
        },
        {
          "name": "A4",
          "midi": 69,
          "time": 84.69767441859739,
          "velocity": 0.2755905511811024,
          "duration": 0.034883720930224626
        },
        {
          "name": "F5",
          "midi": 77,
          "time": 84.69767441859739,
          "velocity": 0.4251968503937008,
          "duration": 0.034883720930224626
        },
        {
          "name": "G5",
          "midi": 79,
          "time": 84.69767441859739,
          "velocity": 0.2440944881889764,
          "duration": 0.034883720930224626
        },
        {
          "name": "E6",
          "midi": 88,
          "time": 84.69767441859739,
          "velocity": 0.3700787401574803,
          "duration": 0.11627906976741542
        },
        {
          "name": "B1",
          "midi": 35,
          "time": 84.70930232557413,
          "velocity": 0.5275590551181102,
          "duration": 0.011627906976741542
        },
        {
          "name": "G6",
          "midi": 91,
          "time": 84.70930232557413,
          "velocity": 0.4015748031496063,
          "duration": 0.279069767441797
        },
        {
          "name": "B4",
          "midi": 71,
          "time": 84.72093023255087,
          "velocity": 0.2677165354330709,
          "duration": 0.06976744186044925
        },
        {
          "name": "E5",
          "midi": 76,
          "time": 84.72093023255087,
          "velocity": 0.3228346456692913,
          "duration": 0.17441860465112313
        },
        {
          "name": "F#5",
          "midi": 78,
          "time": 84.72093023255087,
          "velocity": 0.47244094488188976,
          "duration": 0.034883720930224626
        },
        {
          "name": "D6",
          "midi": 86,
          "time": 84.72093023255087,
          "velocity": 0.07086614173228346,
          "duration": 0.034883720930224626
        },
        {
          "name": "D5",
          "midi": 74,
          "time": 84.73255813952761,
          "velocity": 0.33858267716535434,
          "duration": 0.3837209302324851
        },
        {
          "name": "D7",
          "midi": 98,
          "time": 84.73255813952761,
          "velocity": 0.3464566929133858,
          "duration": 0.24418604651157239
        },
        {
          "name": "A#1",
          "midi": 34,
          "time": 84.74418604650435,
          "velocity": 0.4566929133858268,
          "duration": 0.034883720930224626
        },
        {
          "name": "F#4",
          "midi": 66,
          "time": 84.74418604650435,
          "velocity": 0.31496062992125984,
          "duration": 0.023255813953483084
        },
        {
          "name": "G#6",
          "midi": 92,
          "time": 84.74418604650435,
          "velocity": 0.15748031496062992,
          "duration": 0.034883720930224626
        },
        {
          "name": "E3",
          "midi": 52,
          "time": 84.7558139534811,
          "velocity": 0.36220472440944884,
          "duration": 0.034883720930224626
        },
        {
          "name": "F4",
          "midi": 65,
          "time": 84.7558139534811,
          "velocity": 0.3543307086614173,
          "duration": 0.023255813953483084
        },
        {
          "name": "G5",
          "midi": 79,
          "time": 84.7558139534811,
          "velocity": 0.49606299212598426,
          "duration": 0.2558139534883139
        },
        {
          "name": "C6",
          "midi": 84,
          "time": 84.7558139534811,
          "velocity": 0.1889763779527559,
          "duration": 0.04651162790696617
        },
        {
          "name": "F6",
          "midi": 89,
          "time": 84.76744186045784,
          "velocity": 0.13385826771653545,
          "duration": 0.04651162790696617
        },
        {
          "name": "B3",
          "midi": 59,
          "time": 84.77906976743458,
          "velocity": 0.33070866141732286,
          "duration": 0.0813953488371908
        },
        {
          "name": "A5",
          "midi": 81,
          "time": 84.8139534883648,
          "velocity": 0.4094488188976378,
          "duration": 0.18604651162786467
        },
        {
          "name": "F#6",
          "midi": 90,
          "time": 84.8139534883648,
          "velocity": 0.2992125984251969,
          "duration": 0.11627906976741542
        },
        {
          "name": "B2",
          "midi": 47,
          "time": 84.83720930231829,
          "velocity": 0.3228346456692913,
          "duration": 0.023255813953483084
        },
        {
          "name": "F#4",
          "midi": 66,
          "time": 84.83720930231829,
          "velocity": 0.2047244094488189,
          "duration": 0.0813953488371908
        },
        {
          "name": "B1",
          "midi": 35,
          "time": 84.86046511627177,
          "velocity": 0.44881889763779526,
          "duration": 0.023255813953483084
        },
        {
          "name": "C7",
          "midi": 96,
          "time": 84.86046511627177,
          "velocity": 0.13385826771653545,
          "duration": 0.034883720930224626
        },
        {
          "name": "A6",
          "midi": 93,
          "time": 84.91860465115548,
          "velocity": 0.4566929133858268,
          "duration": 0.488372093023159
        },
        {
          "name": "E7",
          "midi": 100,
          "time": 84.93023255813222,
          "velocity": 0.28346456692913385,
          "duration": 0.2674418604650697
        },
        {
          "name": "F3",
          "midi": 53,
          "time": 84.94186046510896,
          "velocity": 0.25984251968503935,
          "duration": 0.034883720930224626
        },
        {
          "name": "E4",
          "midi": 64,
          "time": 84.9534883720857,
          "velocity": 0.23622047244094488,
          "duration": 0.05813953488370771
        },
        {
          "name": "F#6",
          "midi": 90,
          "time": 84.97674418603918,
          "velocity": 0.2047244094488189,
          "duration": 0.0813953488371908
        },
        {
          "name": "F2",
          "midi": 41,
          "time": 85.01162790696941,
          "velocity": 0.3464566929133858,
          "duration": 0.023255813953483084
        },
        {
          "name": "C4",
          "midi": 60,
          "time": 85.01162790696941,
          "velocity": 0.11811023622047244,
          "duration": 0.034883720930224626
        },
        {
          "name": "A5",
          "midi": 81,
          "time": 85.01162790696941,
          "velocity": 0.33070866141732286,
          "duration": 0.18604651162787889
        },
        {
          "name": "E4",
          "midi": 64,
          "time": 85.03488372092289,
          "velocity": 0.09448818897637795,
          "duration": 0.034883720930224626
        },
        {
          "name": "F#5",
          "midi": 78,
          "time": 85.03488372092289,
          "velocity": 0.07874015748031496,
          "duration": 0.034883720930224626
        },
        {
          "name": "D4",
          "midi": 62,
          "time": 85.06976744185312,
          "velocity": 0.07086614173228346,
          "duration": 0.04651162790698038
        },
        {
          "name": "G6",
          "midi": 91,
          "time": 85.06976744185312,
          "velocity": 0.2204724409448819,
          "duration": 0.2209302325581035
        },
        {
          "name": "D1",
          "midi": 26,
          "time": 85.10465116278336,
          "velocity": 0.3543307086614173,
          "duration": 0.023255813953483084
        },
        {
          "name": "G5",
          "midi": 79,
          "time": 85.10465116278336,
          "velocity": 0.25196850393700787,
          "duration": 0.04651162790696617
        },
        {
          "name": "F2",
          "midi": 41,
          "time": 85.1162790697601,
          "velocity": 0.4881889763779528,
          "duration": 0.023255813953483084
        },
        {
          "name": "D#7",
          "midi": 99,
          "time": 85.12790697673684,
          "velocity": 0.1732283464566929,
          "duration": 0.11627906976741542
        },
        {
          "name": "F#7",
          "midi": 102,
          "time": 85.12790697673684,
          "velocity": 0.12598425196850394,
          "duration": 0.04651162790696617
        },
        {
          "name": "B1",
          "midi": 35,
          "time": 85.13953488371358,
          "velocity": 0.5275590551181102,
          "duration": 0.011627906976741542
        },
        {
          "name": "A2",
          "midi": 45,
          "time": 85.13953488371358,
          "velocity": 0.5669291338582677,
          "duration": 0.034883720930224626
        },
        {
          "name": "E4",
          "midi": 64,
          "time": 85.13953488371358,
          "velocity": 0.23622047244094488,
          "duration": 0.04651162790696617
        },
        {
          "name": "G#4",
          "midi": 68,
          "time": 85.13953488371358,
          "velocity": 0.25196850393700787,
          "duration": 0.023255813953483084
        },
        {
          "name": "B5",
          "midi": 83,
          "time": 85.13953488371358,
          "velocity": 0.14960629921259844,
          "duration": 0.05813953488370771
        },
        {
          "name": "B6",
          "midi": 95,
          "time": 85.13953488371358,
          "velocity": 0.44881889763779526,
          "duration": 1.7674418604647428
        },
        {
          "name": "F7",
          "midi": 101,
          "time": 85.13953488371358,
          "velocity": 0.09448818897637795,
          "duration": 0.09302325581393234
        },
        {
          "name": "F#5",
          "midi": 78,
          "time": 85.15116279069032,
          "velocity": 0.2283464566929134,
          "duration": 0.1395348837208985
        },
        {
          "name": "D6",
          "midi": 86,
          "time": 85.15116279069032,
          "velocity": 0.08661417322834646,
          "duration": 0.034883720930224626
        },
        {
          "name": "C#7",
          "midi": 97,
          "time": 85.15116279069032,
          "velocity": 0.12598425196850394,
          "duration": 0.034883720930224626
        },
        {
          "name": "D#3",
          "midi": 51,
          "time": 85.16279069766706,
          "velocity": 0.5118110236220472,
          "duration": 0.011627906976741542
        },
        {
          "name": "G4",
          "midi": 67,
          "time": 85.16279069766706,
          "velocity": 0.14960629921259844,
          "duration": 0.034883720930224626
        },
        {
          "name": "A#4",
          "midi": 70,
          "time": 85.16279069766706,
          "velocity": 0.14173228346456693,
          "duration": 0.06976744186044925
        },
        {
          "name": "C5",
          "midi": 72,
          "time": 85.16279069766706,
          "velocity": 0.2125984251968504,
          "duration": 0.19767441860460622
        },
        {
          "name": "D7",
          "midi": 98,
          "time": 85.16279069766706,
          "velocity": 0.13385826771653545,
          "duration": 0.05813953488370771
        },
        {
          "name": "B2",
          "midi": 47,
          "time": 85.1744186046438,
          "velocity": 0.5590551181102362,
          "duration": 0.023255813953483084
        },
        {
          "name": "C4",
          "midi": 60,
          "time": 85.18604651162055,
          "velocity": 0.4015748031496063,
          "duration": 0.18604651162786467
        },
        {
          "name": "D5",
          "midi": 74,
          "time": 85.18604651162055,
          "velocity": 0.16535433070866143,
          "duration": 0.05813953488370771
        },
        {
          "name": "G5",
          "midi": 79,
          "time": 85.18604651162055,
          "velocity": 0.2047244094488189,
          "duration": 0.04651162790696617
        },
        {
          "name": "C3",
          "midi": 48,
          "time": 85.19767441859729,
          "velocity": 0.5826771653543307,
          "duration": 0.011627906976741542
        },
        {
          "name": "F#7",
          "midi": 102,
          "time": 85.19767441859729,
          "velocity": 0.14173228346456693,
          "duration": 0.0813953488371908
        },
        {
          "name": "C#3",
          "midi": 49,
          "time": 85.20930232557403,
          "velocity": 0.5826771653543307,
          "duration": 0.011627906976741542
        },
        {
          "name": "G3",
          "midi": 55,
          "time": 85.20930232557403,
          "velocity": 0.4409448818897638,
          "duration": 0.0813953488371908
        },
        {
          "name": "E4",
          "midi": 64,
          "time": 85.20930232557403,
          "velocity": 0.1968503937007874,
          "duration": 0.06976744186044925
        },
        {
          "name": "C3",
          "midi": 48,
          "time": 85.22093023255077,
          "velocity": 0.5511811023622047,
          "duration": 0.011627906976741542
        },
        {
          "name": "F2",
          "midi": 41,
          "time": 85.23255813952751,
          "velocity": 0.5118110236220472,
          "duration": 0.011627906976741542
        },
        {
          "name": "C#3",
          "midi": 49,
          "time": 85.23255813952751,
          "velocity": 0.5590551181102362,
          "duration": 0.023255813953483084
        },
        {
          "name": "B5",
          "midi": 83,
          "time": 85.23255813952751,
          "velocity": 0.09448818897637795,
          "duration": 0.034883720930224626
        },
        {
          "name": "F#1",
          "midi": 30,
          "time": 85.24418604650425,
          "velocity": 0.2440944881889764,
          "duration": 0.023255813953483084
        },
        {
          "name": "A2",
          "midi": 45,
          "time": 85.27906976743448,
          "velocity": 0.4330708661417323,
          "duration": 0.023255813953483084
        },
        {
          "name": "F#6",
          "midi": 90,
          "time": 85.3139534883647,
          "velocity": 0.11023622047244094,
          "duration": 0.05813953488370771
        },
        {
          "name": "E4",
          "midi": 64,
          "time": 85.33720930231819,
          "velocity": 0.30708661417322836,
          "duration": 0.04651162790696617
        },
        {
          "name": "F#7",
          "midi": 102,
          "time": 85.33720930231819,
          "velocity": 0.1968503937007874,
          "duration": 0.37209302325574356
        },
        {
          "name": "A2",
          "midi": 45,
          "time": 85.34883720929493,
          "velocity": 0.5905511811023622,
          "duration": 0.034883720930224626
        },
        {
          "name": "G4",
          "midi": 67,
          "time": 85.34883720929493,
          "velocity": 0.4094488188976378,
          "duration": 0.6279069767440717
        },
        {
          "name": "F#5",
          "midi": 78,
          "time": 85.34883720929493,
          "velocity": 0.11023622047244094,
          "duration": 0.04651162790696617
        },
        {
          "name": "B5",
          "midi": 83,
          "time": 85.34883720929493,
          "velocity": 0.23622047244094488,
          "duration": 0.3023255813952943
        },
        {
          "name": "A#1",
          "midi": 34,
          "time": 85.36046511627167,
          "velocity": 0.5118110236220472,
          "duration": 0.011627906976741542
        },
        {
          "name": "D5",
          "midi": 74,
          "time": 85.36046511627167,
          "velocity": 0.28346456692913385,
          "duration": 0.20930232558136197
        },
        {
          "name": "C#7",
          "midi": 97,
          "time": 85.36046511627167,
          "velocity": 0.14960629921259844,
          "duration": 0.034883720930224626
        },
        {
          "name": "D7",
          "midi": 98,
          "time": 85.36046511627167,
          "velocity": 0.11023622047244094,
          "duration": 0.05813953488370771
        },
        {
          "name": "D#7",
          "midi": 99,
          "time": 85.36046511627167,
          "velocity": 0.07086614173228346,
          "duration": 0.06976744186044925
        },
        {
          "name": "C5",
          "midi": 72,
          "time": 85.37209302324841,
          "velocity": 0.14960629921259844,
          "duration": 0.13953488372091272
        },
        {
          "name": "B2",
          "midi": 47,
          "time": 85.38372093022515,
          "velocity": 0.5905511811023622,
          "duration": 0.034883720930224626
        },
        {
          "name": "C4",
          "midi": 60,
          "time": 85.40697674417864,
          "velocity": 0.36220472440944884,
          "duration": 0.1627906976743958
        },
        {
          "name": "D3",
          "midi": 50,
          "time": 85.41860465115538,
          "velocity": 0.5826771653543307,
          "duration": 0.011627906976741542
        },
        {
          "name": "E4",
          "midi": 64,
          "time": 85.41860465115538,
          "velocity": 0.28346456692913385,
          "duration": 0.13953488372091272
        },
        {
          "name": "C#3",
          "midi": 49,
          "time": 85.43023255813212,
          "velocity": 0.5826771653543307,
          "duration": 0.011627906976741542
        },
        {
          "name": "G3",
          "midi": 55,
          "time": 85.43023255813212,
          "velocity": 0.47244094488188976,
          "duration": 0.12790697674417117
        },
        {
          "name": "A6",
          "midi": 93,
          "time": 85.43023255813212,
          "velocity": 0.12598425196850394,
          "duration": 0.11627906976742963
        },
        {
          "name": "F2",
          "midi": 41,
          "time": 85.44186046510886,
          "velocity": 0.4881889763779528,
          "duration": 0.023255813953483084
        },
        {
          "name": "C3",
          "midi": 48,
          "time": 85.44186046510886,
          "velocity": 0.5748031496062992,
          "duration": 0.081395348837205
        },
        {
          "name": "A2",
          "midi": 45,
          "time": 85.52325581394607,
          "velocity": 0.5118110236220472,
          "duration": 0.011627906976741542
        },
        {
          "name": "F2",
          "midi": 41,
          "time": 85.54651162789955,
          "velocity": 0.2283464566929134,
          "duration": 0.023255813953483084
        },
        {
          "name": "C7",
          "midi": 96,
          "time": 85.55813953487629,
          "velocity": 0.14960629921259844,
          "duration": 0.15116279069764005
        },
        {
          "name": "A#4",
          "midi": 70,
          "time": 85.56976744185303,
          "velocity": 0.28346456692913385,
          "duration": 0.04651162790696617
        },
        {
          "name": "C#7",
          "midi": 97,
          "time": 85.56976744185303,
          "velocity": 0.2440944881889764,
          "duration": 0.29069767441853855
        },
        {
          "name": "D7",
          "midi": 98,
          "time": 85.56976744185303,
          "velocity": 0.2440944881889764,
          "duration": 0.3023255813952801
        },
        {
          "name": "G7",
          "midi": 103,
          "time": 85.56976744185303,
          "velocity": 0.11023622047244094,
          "duration": 0.034883720930224626
        },
        {
          "name": "E5",
          "midi": 76,
          "time": 85.58139534882977,
          "velocity": 0.30708661417322836,
          "duration": 0.1395348837208985
        },
        {
          "name": "D5",
          "midi": 74,
          "time": 85.59302325580651,
          "velocity": 0.07874015748031496,
          "duration": 0.04651162790696617
        },
        {
          "name": "G3",
          "midi": 55,
          "time": 85.60465116278326,
          "velocity": 0.4015748031496063,
          "duration": 0.06976744186044925
        },
        {
          "name": "E7",
          "midi": 100,
          "time": 85.60465116278326,
          "velocity": 0.09448818897637795,
          "duration": 0.0813953488371908
        },
        {
          "name": "C4",
          "midi": 60,
          "time": 85.61627906976,
          "velocity": 0.29133858267716534,
          "duration": 0.09302325581393234
        },
        {
          "name": "A4",
          "midi": 69,
          "time": 85.61627906976,
          "velocity": 0.30708661417322836,
          "duration": 0.10465116279067388
        },
        {
          "name": "G7",
          "midi": 103,
          "time": 85.62790697673674,
          "velocity": 0.13385826771653545,
          "duration": 0.04651162790696617
        },
        {
          "name": "F7",
          "midi": 101,
          "time": 85.63953488371348,
          "velocity": 0.11811023622047244,
          "duration": 0.05813953488370771
        },
        {
          "name": "E4",
          "midi": 64,
          "time": 85.66279069766696,
          "velocity": 0.14960629921259844,
          "duration": 0.05813953488370771
        },
        {
          "name": "D2",
          "midi": 38,
          "time": 85.6744186046437,
          "velocity": 0.25984251968503935,
          "duration": 0.023255813953483084
        },
        {
          "name": "G#3",
          "midi": 56,
          "time": 85.6744186046437,
          "velocity": 0.3464566929133858,
          "duration": 0.04651162790696617
        },
        {
          "name": "C3",
          "midi": 48,
          "time": 85.68604651162045,
          "velocity": 0.44881889763779526,
          "duration": 0.034883720930224626
        },
        {
          "name": "D5",
          "midi": 74,
          "time": 85.70930232557393,
          "velocity": 0.09448818897637795,
          "duration": 0.06976744186044925
        },
        {
          "name": "D#7",
          "midi": 99,
          "time": 85.70930232557393,
          "velocity": 0.09448818897637795,
          "duration": 0.034883720930224626
        },
        {
          "name": "G3",
          "midi": 55,
          "time": 85.72093023255067,
          "velocity": 0.30708661417322836,
          "duration": 0.023255813953483084
        },
        {
          "name": "E4",
          "midi": 64,
          "time": 85.73255813952741,
          "velocity": 0.36220472440944884,
          "duration": 0.25581395348832814
        },
        {
          "name": "A4",
          "midi": 69,
          "time": 85.73255813952741,
          "velocity": 0.2283464566929134,
          "duration": 0.034883720930224626
        },
        {
          "name": "G3",
          "midi": 55,
          "time": 85.7558139534809,
          "velocity": 0.4251968503937008,
          "duration": 0.04651162790696617
        },
        {
          "name": "A#4",
          "midi": 70,
          "time": 85.7558139534809,
          "velocity": 0.1732283464566929,
          "duration": 0.04651162790696617
        },
        {
          "name": "C#4",
          "midi": 61,
          "time": 85.76744186045764,
          "velocity": 0.23622047244094488,
          "duration": 0.023255813953483084
        },
        {
          "name": "F7",
          "midi": 101,
          "time": 85.76744186045764,
          "velocity": 0.13385826771653545,
          "duration": 0.05813953488370771
        },
        {
          "name": "F#5",
          "midi": 78,
          "time": 85.77906976743438,
          "velocity": 0.30708661417322836,
          "duration": 0.20930232558136197
        },
        {
          "name": "B5",
          "midi": 83,
          "time": 85.77906976743438,
          "velocity": 0.16535433070866143,
          "duration": 0.0813953488371908
        },
        {
          "name": "D#7",
          "midi": 99,
          "time": 85.77906976743438,
          "velocity": 0.12598425196850394,
          "duration": 0.034883720930224626
        },
        {
          "name": "G#2",
          "midi": 44,
          "time": 85.79069767441112,
          "velocity": 0.5511811023622047,
          "duration": 0.011627906976741542
        },
        {
          "name": "D5",
          "midi": 74,
          "time": 85.79069767441112,
          "velocity": 0.2204724409448819,
          "duration": 0.19767441860462043
        },
        {
          "name": "G#6",
          "midi": 92,
          "time": 85.79069767441112,
          "velocity": 0.11811023622047244,
          "duration": 0.034883720930224626
        },
        {
          "name": "A2",
          "midi": 45,
          "time": 85.80232558138786,
          "velocity": 0.5511811023622047,
          "duration": 0.011627906976741542
        },
        {
          "name": "F#3",
          "midi": 54,
          "time": 85.80232558138786,
          "velocity": 0.4566929133858268,
          "duration": 0.023255813953483084
        },
        {
          "name": "B2",
          "midi": 47,
          "time": 85.8139534883646,
          "velocity": 0.5590551181102362,
          "duration": 0.011627906976741542
        },
        {
          "name": "A#4",
          "midi": 70,
          "time": 85.8139534883646,
          "velocity": 0.1732283464566929,
          "duration": 0.034883720930224626
        },
        {
          "name": "C#2",
          "midi": 37,
          "time": 85.82558139534135,
          "velocity": 0.33858267716535434,
          "duration": 0.023255813953483084
        },
        {
          "name": "C3",
          "midi": 48,
          "time": 85.82558139534135,
          "velocity": 0.5118110236220472,
          "duration": 0.023255813953483084
        },
        {
          "name": "G#3",
          "midi": 56,
          "time": 85.82558139534135,
          "velocity": 0.5039370078740157,
          "duration": 0.034883720930224626
        },
        {
          "name": "C#4",
          "midi": 61,
          "time": 85.82558139534135,
          "velocity": 0.3700787401574803,
          "duration": 0.023255813953483084
        },
        {
          "name": "B4",
          "midi": 71,
          "time": 85.83720930231809,
          "velocity": 0.16535433070866143,
          "duration": 0.12790697674417117
        },
        {
          "name": "F#7",
          "midi": 102,
          "time": 85.83720930231809,
          "velocity": 0.23622047244094488,
          "duration": 0.6744186046510237
        },
        {
          "name": "C#3",
          "midi": 49,
          "time": 85.84883720929483,
          "velocity": 0.5354330708661418,
          "duration": 0.011627906976741542
        },
        {
          "name": "C4",
          "midi": 60,
          "time": 85.84883720929483,
          "velocity": 0.36220472440944884,
          "duration": 0.05813953488372192
        },
        {
          "name": "C3",
          "midi": 48,
          "time": 85.86046511627157,
          "velocity": 0.6062992125984252,
          "duration": 0.06976744186046346
        },
        {
          "name": "G3",
          "midi": 55,
          "time": 85.86046511627157,
          "velocity": 0.5433070866141733,
          "duration": 0.04651162790698038
        },
        {
          "name": "D#6",
          "midi": 87,
          "time": 85.87209302324831,
          "velocity": 0.09448818897637795,
          "duration": 0.03488372093023884
        },
        {
          "name": "C4",
          "midi": 60,
          "time": 85.94186046510877,
          "velocity": 0.1968503937007874,
          "duration": 0.034883720930224626
        },
        {
          "name": "C#5",
          "midi": 73,
          "time": 85.976744186039,
          "velocity": 0.3700787401574803,
          "duration": 0.04651162790696617
        },
        {
          "name": "G5",
          "midi": 79,
          "time": 85.976744186039,
          "velocity": 0.2992125984251969,
          "duration": 0.023255813953483084
        },
        {
          "name": "F7",
          "midi": 101,
          "time": 85.976744186039,
          "velocity": 0.1968503937007874,
          "duration": 0.06976744186044925
        },
        {
          "name": "A#3",
          "midi": 58,
          "time": 85.98837209301574,
          "velocity": 0.4409448818897638,
          "duration": 0.034883720930224626
        },
        {
          "name": "G4",
          "midi": 67,
          "time": 85.98837209301574,
          "velocity": 0.3937007874015748,
          "duration": 0.09302325581393234
        },
        {
          "name": "G#6",
          "midi": 92,
          "time": 85.98837209301574,
          "velocity": 0.10236220472440945,
          "duration": 0.04651162790696617
        },
        {
          "name": "D7",
          "midi": 98,
          "time": 85.98837209301574,
          "velocity": 0.18110236220472442,
          "duration": 0.06976744186044925
        },
        {
          "name": "D#7",
          "midi": 99,
          "time": 85.98837209301574,
          "velocity": 0.14173228346456693,
          "duration": 0.06976744186044925
        },
        {
          "name": "G#2",
          "midi": 44,
          "time": 85.99999999999248,
          "velocity": 0.5905511811023622,
          "duration": 0.023255813953483084
        },
        {
          "name": "F#5",
          "midi": 78,
          "time": 85.99999999999248,
          "velocity": 0.3464566929133858,
          "duration": 0.1395348837208985
        },
        {
          "name": "B5",
          "midi": 83,
          "time": 85.99999999999248,
          "velocity": 0.25196850393700787,
          "duration": 0.29069767441853855
        },
        {
          "name": "A5",
          "midi": 81,
          "time": 86.01162790696922,
          "velocity": 0.11811023622047244,
          "duration": 0.04651162790696617
        },
        {
          "name": "C7",
          "midi": 96,
          "time": 86.01162790696922,
          "velocity": 0.09448818897637795,
          "duration": 0.05813953488370771
        },
        {
          "name": "A#2",
          "midi": 46,
          "time": 86.02325581394597,
          "velocity": 0.5590551181102362,
          "duration": 0.011627906976741542
        },
        {
          "name": "C5",
          "midi": 72,
          "time": 86.02325581394597,
          "velocity": 0.2755905511811024,
          "duration": 0.26744186046505547
        },
        {
          "name": "D6",
          "midi": 86,
          "time": 86.02325581394597,
          "velocity": 0.13385826771653545,
          "duration": 0.04651162790696617
        },
        {
          "name": "D#6",
          "midi": 87,
          "time": 86.02325581394597,
          "velocity": 0.11023622047244094,
          "duration": 0.034883720930224626
        },
        {
          "name": "B2",
          "midi": 47,
          "time": 86.0348837209227,
          "velocity": 0.5590551181102362,
          "duration": 0.023255813953483084
        },
        {
          "name": "C#4",
          "midi": 61,
          "time": 86.0348837209227,
          "velocity": 0.4015748031496063,
          "duration": 0.023255813953483084
        },
        {
          "name": "G#5",
          "midi": 80,
          "time": 86.04651162789945,
          "velocity": 0.14173228346456693,
          "duration": 0.09302325581393234
        },
        {
          "name": "C3",
          "midi": 48,
          "time": 86.05813953487619,
          "velocity": 0.5748031496062992,
          "duration": 0.011627906976741542
        },
        {
          "name": "A#4",
          "midi": 70,
          "time": 86.05813953487619,
          "velocity": 0.14960629921259844,
          "duration": 0.05813953488370771
        },
        {
          "name": "C#3",
          "midi": 49,
          "time": 86.06976744185293,
          "velocity": 0.5905511811023622,
          "duration": 0.011627906976741542
        },
        {
          "name": "G3",
          "midi": 55,
          "time": 86.06976744185293,
          "velocity": 0.5039370078740157,
          "duration": 0.12790697674415696
        },
        {
          "name": "C3",
          "midi": 48,
          "time": 86.08139534882967,
          "velocity": 0.5826771653543307,
          "duration": 0.023255813953483084
        },
        {
          "name": "E5",
          "midi": 76,
          "time": 86.08139534882967,
          "velocity": 0.11811023622047244,
          "duration": 0.034883720930224626
        },
        {
          "name": "C#3",
          "midi": 49,
          "time": 86.10465116278316,
          "velocity": 0.5984251968503937,
          "duration": 0.011627906976741542
        },
        {
          "name": "C3",
          "midi": 48,
          "time": 86.1162790697599,
          "velocity": 0.6141732283464567,
          "duration": 0.11627906976741542
        },
        {
          "name": "E4",
          "midi": 64,
          "time": 86.12790697673664,
          "velocity": 0.2755905511811024,
          "duration": 0.034883720930224626
        },
        {
          "name": "G2",
          "midi": 43,
          "time": 86.15116279069012,
          "velocity": 0.5118110236220472,
          "duration": 0.011627906976741542
        },
        {
          "name": "E5",
          "midi": 76,
          "time": 86.1744186046436,
          "velocity": 0.1889763779527559,
          "duration": 0.034883720930224626
        },
        {
          "name": "F#3",
          "midi": 54,
          "time": 86.19767441859709,
          "velocity": 0.5196850393700787,
          "duration": 0.023255813953483084
        },
        {
          "name": "D5",
          "midi": 74,
          "time": 86.20930232557383,
          "velocity": 0.31496062992125984,
          "duration": 0.2209302325580893
        },
        {
          "name": "C7",
          "midi": 96,
          "time": 86.20930232557383,
          "velocity": 0.16535433070866143,
          "duration": 0.04651162790696617
        },
        {
          "name": "G3",
          "midi": 55,
          "time": 86.22093023255057,
          "velocity": 0.4015748031496063,
          "duration": 0.023255813953483084
        },
        {
          "name": "E5",
          "midi": 76,
          "time": 86.22093023255057,
          "velocity": 0.30708661417322836,
          "duration": 0.20930232558134776
        },
        {
          "name": "C#7",
          "midi": 97,
          "time": 86.22093023255057,
          "velocity": 0.2125984251968504,
          "duration": 0.17441860465112313
        },
        {
          "name": "D7",
          "midi": 98,
          "time": 86.22093023255057,
          "velocity": 0.29133858267716534,
          "duration": 0.2558139534883139
        },
        {
          "name": "A2",
          "midi": 45,
          "time": 86.23255813952731,
          "velocity": 0.5905511811023622,
          "duration": 0.011627906976741542
        },
        {
          "name": "B2",
          "midi": 47,
          "time": 86.24418604650405,
          "velocity": 0.5511811023622047,
          "duration": 0.034883720930224626
        },
        {
          "name": "G#3",
          "midi": 56,
          "time": 86.24418604650405,
          "velocity": 0.4015748031496063,
          "duration": 0.04651162790696617
        },
        {
          "name": "E4",
          "midi": 64,
          "time": 86.24418604650405,
          "velocity": 0.33858267716535434,
          "duration": 0.18604651162786467
        },
        {
          "name": "A#4",
          "midi": 70,
          "time": 86.2558139534808,
          "velocity": 0.1889763779527559,
          "duration": 0.05813953488370771
        },
        {
          "name": "C4",
          "midi": 60,
          "time": 86.26744186045754,
          "velocity": 0.25984251968503935,
          "duration": 0.023255813953483084
        },
        {
          "name": "C7",
          "midi": 96,
          "time": 86.26744186045754,
          "velocity": 0.08661417322834646,
          "duration": 0.09302325581393234
        },
        {
          "name": "D#7",
          "midi": 99,
          "time": 86.26744186045754,
          "velocity": 0.10236220472440945,
          "duration": 0.11627906976741542
        },
        {
          "name": "G7",
          "midi": 103,
          "time": 86.26744186045754,
          "velocity": 0.12598425196850394,
          "duration": 0.04651162790696617
        },
        {
          "name": "F7",
          "midi": 101,
          "time": 86.27906976743428,
          "velocity": 0.11811023622047244,
          "duration": 0.05813953488370771
        },
        {
          "name": "G3",
          "midi": 55,
          "time": 86.29069767441102,
          "velocity": 0.3937007874015748,
          "duration": 0.023255813953483084
        },
        {
          "name": "C4",
          "midi": 60,
          "time": 86.30232558138776,
          "velocity": 0.3543307086614173,
          "duration": 0.0813953488371908
        },
        {
          "name": "A2",
          "midi": 45,
          "time": 86.3139534883645,
          "velocity": 0.36220472440944884,
          "duration": 0.023255813953483084
        },
        {
          "name": "G#3",
          "midi": 56,
          "time": 86.3139534883645,
          "velocity": 0.31496062992125984,
          "duration": 0.04651162790696617
        },
        {
          "name": "B5",
          "midi": 83,
          "time": 86.3139534883645,
          "velocity": 0.28346456692913385,
          "duration": 0.6395348837207848
        },
        {
          "name": "A#4",
          "midi": 70,
          "time": 86.32558139534125,
          "velocity": 0.33070866141732286,
          "duration": 0.15116279069764005
        },
        {
          "name": "C3",
          "midi": 48,
          "time": 86.33720930231799,
          "velocity": 0.47244094488188976,
          "duration": 0.023255813953483084
        },
        {
          "name": "G7",
          "midi": 103,
          "time": 86.34883720929473,
          "velocity": 0.08661417322834646,
          "duration": 0.04651162790696617
        },
        {
          "name": "G3",
          "midi": 55,
          "time": 86.36046511627147,
          "velocity": 0.36220472440944884,
          "duration": 0.034883720930224626
        },
        {
          "name": "E2",
          "midi": 40,
          "time": 86.38372093022495,
          "velocity": 0.4251968503937008,
          "duration": 0.023255813953483084
        },
        {
          "name": "G3",
          "midi": 55,
          "time": 86.40697674417844,
          "velocity": 0.44881889763779526,
          "duration": 0.06976744186044925
        },
        {
          "name": "C#7",
          "midi": 97,
          "time": 86.40697674417844,
          "velocity": 0.2125984251968504,
          "duration": 0.09302325581393234
        },
        {
          "name": "D#7",
          "midi": 99,
          "time": 86.40697674417844,
          "velocity": 0.09448818897637795,
          "duration": 0.09302325581393234
        },
        {
          "name": "C#3",
          "midi": 49,
          "time": 86.41860465115518,
          "velocity": 0.4645669291338583,
          "duration": 0.023255813953483084
        },
        {
          "name": "E7",
          "midi": 100,
          "time": 86.41860465115518,
          "velocity": 0.25196850393700787,
          "duration": 0.2558139534883139
        },
        {
          "name": "A6",
          "midi": 93,
          "time": 86.43023255813192,
          "velocity": 0.11023622047244094,
          "duration": 0.034883720930224626
        },
        {
          "name": "E5",
          "midi": 76,
          "time": 86.44186046510866,
          "velocity": 0.2677165354330709,
          "duration": 0.12790697674415696
        },
        {
          "name": "F7",
          "midi": 101,
          "time": 86.44186046510866,
          "velocity": 0.12598425196850394,
          "duration": 0.04651162790696617
        },
        {
          "name": "E4",
          "midi": 64,
          "time": 86.4534883720854,
          "velocity": 0.2047244094488189,
          "duration": 0.10465116279067388
        },
        {
          "name": "A5",
          "midi": 81,
          "time": 86.4534883720854,
          "velocity": 0.13385826771653545,
          "duration": 0.05813953488370771
        },
        {
          "name": "F#6",
          "midi": 90,
          "time": 86.4534883720854,
          "velocity": 0.07874015748031496,
          "duration": 0.05813953488370771
        },
        {
          "name": "F2",
          "midi": 41,
          "time": 86.47674418603889,
          "velocity": 0.49606299212598426,
          "duration": 0.023255813953483084
        },
        {
          "name": "G#3",
          "midi": 56,
          "time": 86.47674418603889,
          "velocity": 0.33070866141732286,
          "duration": 0.023255813953483084
        },
        {
          "name": "A4",
          "midi": 69,
          "time": 86.47674418603889,
          "velocity": 0.2755905511811024,
          "duration": 0.0813953488371908
        },
        {
          "name": "C3",
          "midi": 48,
          "time": 86.48837209301563,
          "velocity": 0.4094488188976378,
          "duration": 0.023255813953483084
        },
        {
          "name": "G3",
          "midi": 55,
          "time": 86.49999999999237,
          "velocity": 0.31496062992125984,
          "duration": 0.034883720930224626
        },
        {
          "name": "C3",
          "midi": 48,
          "time": 86.52325581394585,
          "velocity": 0.31496062992125984,
          "duration": 0.023255813953483084
        },
        {
          "name": "D5",
          "midi": 74,
          "time": 86.52325581394585,
          "velocity": 0.07874015748031496,
          "duration": 0.04651162790696617
        },
        {
          "name": "A2",
          "midi": 45,
          "time": 86.54651162789933,
          "velocity": 0.31496062992125984,
          "duration": 0.023255813953483084
        },
        {
          "name": "F#7",
          "midi": 102,
          "time": 86.54651162789933,
          "velocity": 0.14173228346456693,
          "duration": 0.11627906976741542
        },
        {
          "name": "G3",
          "midi": 55,
          "time": 86.55813953487608,
          "velocity": 0.25984251968503935,
          "duration": 0.034883720930224626
        },
        {
          "name": "F#6",
          "midi": 90,
          "time": 86.55813953487608,
          "velocity": 0.10236220472440945,
          "duration": 0.034883720930224626
        },
        {
          "name": "C#7",
          "midi": 97,
          "time": 86.56976744185282,
          "velocity": 0.11811023622047244,
          "duration": 0.06976744186044925
        },
        {
          "name": "E4",
          "midi": 64,
          "time": 86.58139534882956,
          "velocity": 0.07086614173228346,
          "duration": 0.034883720930224626
        },
        {
          "name": "B2",
          "midi": 47,
          "time": 86.5930232558063,
          "velocity": 0.2755905511811024,
          "duration": 0.023255813953483084
        },
        {
          "name": "E5",
          "midi": 76,
          "time": 86.5930232558063,
          "velocity": 0.2992125984251969,
          "duration": 0.4651162790696617
        },
        {
          "name": "C3",
          "midi": 48,
          "time": 86.61627906975978,
          "velocity": 0.33070866141732286,
          "duration": 0.034883720930224626
        },
        {
          "name": "F4",
          "midi": 65,
          "time": 86.62790697673653,
          "velocity": 0.3228346456692913,
          "duration": 0.034883720930224626
        },
        {
          "name": "C5",
          "midi": 72,
          "time": 86.62790697673653,
          "velocity": 0.15748031496062992,
          "duration": 0.034883720930224626
        },
        {
          "name": "G3",
          "midi": 55,
          "time": 86.63953488371327,
          "velocity": 0.4015748031496063,
          "duration": 0.1395348837208985
        },
        {
          "name": "F#5",
          "midi": 78,
          "time": 86.63953488371327,
          "velocity": 0.31496062992125984,
          "duration": 0.2558139534883139
        },
        {
          "name": "D4",
          "midi": 62,
          "time": 86.65116279069001,
          "velocity": 0.25196850393700787,
          "duration": 0.023255813953483084
        },
        {
          "name": "D7",
          "midi": 98,
          "time": 86.65116279069001,
          "velocity": 0.14960629921259844,
          "duration": 0.04651162790696617
        },
        {
          "name": "C3",
          "midi": 48,
          "time": 86.67441860464349,
          "velocity": 0.4015748031496063,
          "duration": 0.023255813953483084
        },
        {
          "name": "C#7",
          "midi": 97,
          "time": 86.67441860464349,
          "velocity": 0.1968503937007874,
          "duration": 0.19767441860460622
        },
        {
          "name": "C#3",
          "midi": 49,
          "time": 86.69767441859697,
          "velocity": 0.3700787401574803,
          "duration": 0.034883720930224626
        },
        {
          "name": "A#4",
          "midi": 70,
          "time": 86.69767441859697,
          "velocity": 0.2440944881889764,
          "duration": 0.0813953488371908
        },
        {
          "name": "D#7",
          "midi": 99,
          "time": 86.69767441859697,
          "velocity": 0.09448818897637795,
          "duration": 0.11627906976741542
        },
        {
          "name": "E4",
          "midi": 64,
          "time": 86.70930232557372,
          "velocity": 0.18110236220472442,
          "duration": 0.1395348837208985
        },
        {
          "name": "G6",
          "midi": 91,
          "time": 86.74418604650394,
          "velocity": 0.09448818897637795,
          "duration": 0.034883720930224626
        },
        {
          "name": "F7",
          "midi": 101,
          "time": 86.74418604650394,
          "velocity": 0.14173228346456693,
          "duration": 0.05813953488370771
        },
        {
          "name": "C3",
          "midi": 48,
          "time": 86.75581395348068,
          "velocity": 0.4094488188976378,
          "duration": 0.023255813953483084
        },
        {
          "name": "C7",
          "midi": 96,
          "time": 86.75581395348068,
          "velocity": 0.15748031496062992,
          "duration": 0.1627906976743816
        },
        {
          "name": "C2",
          "midi": 36,
          "time": 86.76744186045742,
          "velocity": 0.33070866141732286,
          "duration": 0.023255813953483084
        },
        {
          "name": "C#3",
          "midi": 49,
          "time": 86.77906976743417,
          "velocity": 0.3464566929133858,
          "duration": 0.023255813953483084
        },
        {
          "name": "F#7",
          "midi": 102,
          "time": 86.77906976743417,
          "velocity": 0.11023622047244094,
          "duration": 0.05813953488370771
        },
        {
          "name": "C3",
          "midi": 48,
          "time": 86.80232558138765,
          "velocity": 0.44881889763779526,
          "duration": 0.034883720930224626
        },
        {
          "name": "G3",
          "midi": 55,
          "time": 86.80232558138765,
          "velocity": 0.2440944881889764,
          "duration": 0.023255813953483084
        },
        {
          "name": "A#4",
          "midi": 70,
          "time": 86.80232558138765,
          "velocity": 0.23622047244094488,
          "duration": 0.05813953488370771
        },
        {
          "name": "D7",
          "midi": 98,
          "time": 86.81395348836439,
          "velocity": 0.18110236220472442,
          "duration": 0.0813953488371908
        },
        {
          "name": "D#6",
          "midi": 87,
          "time": 86.82558139534113,
          "velocity": 0.15748031496062992,
          "duration": 0.11627906976741542
        },
        {
          "name": "E2",
          "midi": 40,
          "time": 86.84883720929462,
          "velocity": 0.5511811023622047,
          "duration": 0.011627906976741542
        },
        {
          "name": "C3",
          "midi": 48,
          "time": 86.84883720929462,
          "velocity": 0.5511811023622047,
          "duration": 0.023255813953483084
        },
        {
          "name": "D#4",
          "midi": 63,
          "time": 86.84883720929462,
          "velocity": 0.3464566929133858,
          "duration": 0.023255813953483084
        },
        {
          "name": "A4",
          "midi": 69,
          "time": 86.84883720929462,
          "velocity": 0.25196850393700787,
          "duration": 0.04651162790696617
        },
        {
          "name": "C#6",
          "midi": 85,
          "time": 86.84883720929462,
          "velocity": 0.25984251968503935,
          "duration": 0.023255813953483084
        },
        {
          "name": "E7",
          "midi": 100,
          "time": 86.84883720929462,
          "velocity": 0.31496062992125984,
          "duration": 0.6860465116277652
        },
        {
          "name": "A3",
          "midi": 57,
          "time": 86.86046511627136,
          "velocity": 0.4566929133858268,
          "duration": 0.06976744186044925
        },
        {
          "name": "C5",
          "midi": 72,
          "time": 86.86046511627136,
          "velocity": 0.14960629921259844,
          "duration": 0.034883720930224626
        },
        {
          "name": "A5",
          "midi": 81,
          "time": 86.86046511627136,
          "velocity": 0.3937007874015748,
          "duration": 0.6279069767440575
        },
        {
          "name": "A6",
          "midi": 93,
          "time": 86.86046511627136,
          "velocity": 0.47244094488188976,
          "duration": 0.9999999999998153
        },
        {
          "name": "F#7",
          "midi": 102,
          "time": 86.86046511627136,
          "velocity": 0.07086614173228346,
          "duration": 0.04651162790696617
        },
        {
          "name": "D3",
          "midi": 50,
          "time": 86.8720930232481,
          "velocity": 0.6299212598425197,
          "duration": 0.1395348837208985
        },
        {
          "name": "G4",
          "midi": 67,
          "time": 86.8720930232481,
          "velocity": 0.28346456692913385,
          "duration": 0.19767441860460622
        },
        {
          "name": "E2",
          "midi": 40,
          "time": 86.88372093022484,
          "velocity": 0.4251968503937008,
          "duration": 0.023255813953483084
        },
        {
          "name": "C5",
          "midi": 72,
          "time": 86.90697674417832,
          "velocity": 0.11023622047244094,
          "duration": 0.034883720930224626
        },
        {
          "name": "B4",
          "midi": 71,
          "time": 86.94186046510855,
          "velocity": 0.07086614173228346,
          "duration": 0.04651162790696617
        },
        {
          "name": "A2",
          "midi": 45,
          "time": 86.96511627906203,
          "velocity": 0.5275590551181102,
          "duration": 0.011627906976741542
        },
        {
          "name": "A2",
          "midi": 45,
          "time": 86.98837209301551,
          "velocity": 0.5590551181102362,
          "duration": 0.023255813953483084
        },
        {
          "name": "C#2",
          "midi": 37,
          "time": 87.011627906969,
          "velocity": 0.3700787401574803,
          "duration": 0.023255813953483084
        },
        {
          "name": "A4",
          "midi": 69,
          "time": 87.02325581394574,
          "velocity": 0.08661417322834646,
          "duration": 0.034883720930224626
        },
        {
          "name": "D#2",
          "midi": 39,
          "time": 87.04651162789922,
          "velocity": 0.5039370078740157,
          "duration": 0.023255813953483084
        },
        {
          "name": "A#4",
          "midi": 70,
          "time": 87.05813953487596,
          "velocity": 0.23622047244094488,
          "duration": 0.023255813953483084
        },
        {
          "name": "C#7",
          "midi": 97,
          "time": 87.05813953487596,
          "velocity": 0.16535433070866143,
          "duration": 0.0813953488371908
        },
        {
          "name": "C#2",
          "midi": 37,
          "time": 87.0697674418527,
          "velocity": 0.5118110236220472,
          "duration": 0.011627906976741542
        },
        {
          "name": "A#3",
          "midi": 58,
          "time": 87.0697674418527,
          "velocity": 0.3937007874015748,
          "duration": 0.023255813953483084
        },
        {
          "name": "F#4",
          "midi": 66,
          "time": 87.0697674418527,
          "velocity": 0.29133858267716534,
          "duration": 0.11627906976741542
        },
        {
          "name": "E5",
          "midi": 76,
          "time": 87.0697674418527,
          "velocity": 0.3700787401574803,
          "duration": 0.034883720930224626
        },
        {
          "name": "C7",
          "midi": 96,
          "time": 87.0697674418527,
          "velocity": 0.10236220472440945,
          "duration": 0.05813953488370771
        },
        {
          "name": "D#7",
          "midi": 99,
          "time": 87.0697674418527,
          "velocity": 0.11023622047244094,
          "duration": 0.05813953488370771
        },
        {
          "name": "F2",
          "midi": 41,
          "time": 87.08139534882945,
          "velocity": 0.4645669291338583,
          "duration": 0.034883720930224626
        },
        {
          "name": "D3",
          "midi": 50,
          "time": 87.08139534882945,
          "velocity": 0.5433070866141733,
          "duration": 0.05813953488370771
        },
        {
          "name": "A4",
          "midi": 69,
          "time": 87.08139534882945,
          "velocity": 0.23622047244094488,
          "duration": 0.023255813953483084
        },
        {
          "name": "F#5",
          "midi": 78,
          "time": 87.08139534882945,
          "velocity": 0.5275590551181102,
          "duration": 1.0930232558137476
        },
        {
          "name": "A3",
          "midi": 57,
          "time": 87.09302325580619,
          "velocity": 0.4409448818897638,
          "duration": 0.034883720930224626
        },
        {
          "name": "E5",
          "midi": 76,
          "time": 87.12790697673641,
          "velocity": 0.18110236220472442,
          "duration": 0.04651162790696617
        },
        {
          "name": "C#3",
          "midi": 49,
          "time": 87.13953488371315,
          "velocity": 0.6062992125984252,
          "duration": 0.011627906976741542
        },
        {
          "name": "D3",
          "midi": 50,
          "time": 87.1511627906899,
          "velocity": 0.6062992125984252,
          "duration": 0.011627906976741542
        },
        {
          "name": "D#3",
          "midi": 51,
          "time": 87.16279069766664,
          "velocity": 0.5984251968503937,
          "duration": 0.011627906976741542
        },
        {
          "name": "D4",
          "midi": 62,
          "time": 87.16279069766664,
          "velocity": 0.28346456692913385,
          "duration": 0.023255813953483084
        },
        {
          "name": "D3",
          "midi": 50,
          "time": 87.17441860464338,
          "velocity": 0.6062992125984252,
          "duration": 0.023255813953483084
        },
        {
          "name": "A3",
          "midi": 57,
          "time": 87.17441860464338,
          "velocity": 0.33070866141732286,
          "duration": 0.04651162790696617
        },
        {
          "name": "B6",
          "midi": 95,
          "time": 87.17441860464338,
          "velocity": 0.07874015748031496,
          "duration": 0.04651162790696617
        },
        {
          "name": "A2",
          "midi": 45,
          "time": 87.18604651162012,
          "velocity": 0.5669291338582677,
          "duration": 0.011627906976741542
        },
        {
          "name": "C3",
          "midi": 48,
          "time": 87.19767441859686,
          "velocity": 0.6141732283464567,
          "duration": 0.011627906976741542
        },
        {
          "name": "D4",
          "midi": 62,
          "time": 87.19767441859686,
          "velocity": 0.25984251968503935,
          "duration": 0.04651162790696617
        },
        {
          "name": "F#4",
          "midi": 66,
          "time": 87.19767441859686,
          "velocity": 0.2204724409448819,
          "duration": 0.10465116279067388
        },
        {
          "name": "C5",
          "midi": 72,
          "time": 87.19767441859686,
          "velocity": 0.09448818897637795,
          "duration": 0.034883720930224626
        },
        {
          "name": "A2",
          "midi": 45,
          "time": 87.2093023255736,
          "velocity": 0.5669291338582677,
          "duration": 0.011627906976741542
        },
        {
          "name": "D3",
          "midi": 50,
          "time": 87.2093023255736,
          "velocity": 0.5511811023622047,
          "duration": 0.011627906976741542
        },
        {
          "name": "A#2",
          "midi": 46,
          "time": 87.22093023255034,
          "velocity": 0.5748031496062992,
          "duration": 0.011627906976741542
        },
        {
          "name": "E5",
          "midi": 76,
          "time": 87.22093023255034,
          "velocity": 0.08661417322834646,
          "duration": 0.034883720930224626
        },
        {
          "name": "A2",
          "midi": 45,
          "time": 87.23255813952709,
          "velocity": 0.5511811023622047,
          "duration": 0.023255813953483084
        },
        {
          "name": "D4",
          "midi": 62,
          "time": 87.26744186045731,
          "velocity": 0.1968503937007874,
          "duration": 0.034883720930224626
        },
        {
          "name": "D3",
          "midi": 50,
          "time": 87.27906976743405,
          "velocity": 0.5039370078740157,
          "duration": 0.023255813953483084
        },
        {
          "name": "C#7",
          "midi": 97,
          "time": 87.2906976744108,
          "velocity": 0.16535433070866143,
          "duration": 0.10465116279067388
        },
        {
          "name": "D7",
          "midi": 98,
          "time": 87.2906976744108,
          "velocity": 0.23622047244094488,
          "duration": 0.0813953488371908
        },
        {
          "name": "A#3",
          "midi": 58,
          "time": 87.30232558138754,
          "velocity": 0.29133858267716534,
          "duration": 0.034883720930224626
        },
        {
          "name": "C#5",
          "midi": 73,
          "time": 87.30232558138754,
          "velocity": 0.15748031496062992,
          "duration": 0.05813953488370771
        },
        {
          "name": "F#2",
          "midi": 42,
          "time": 87.31395348836428,
          "velocity": 0.5196850393700787,
          "duration": 0.023255813953483084
        },
        {
          "name": "D3",
          "midi": 50,
          "time": 87.31395348836428,
          "velocity": 0.4881889763779528,
          "duration": 0.06976744186044925
        },
        {
          "name": "E5",
          "midi": 76,
          "time": 87.31395348836428,
          "velocity": 0.1889763779527559,
          "duration": 0.0813953488371908
        },
        {
          "name": "F#7",
          "midi": 102,
          "time": 87.31395348836428,
          "velocity": 0.11811023622047244,
          "duration": 0.10465116279067388
        },
        {
          "name": "F#4",
          "midi": 66,
          "time": 87.33720930231776,
          "velocity": 0.2440944881889764,
          "duration": 0.1627906976743958
        },
        {
          "name": "B6",
          "midi": 95,
          "time": 87.36046511627124,
          "velocity": 0.12598425196850394,
          "duration": 0.09302325581394655
        },
        {
          "name": "C7",
          "midi": 96,
          "time": 87.36046511627124,
          "velocity": 0.07874015748031496,
          "duration": 0.034883720930224626
        },
        {
          "name": "D#7",
          "midi": 99,
          "time": 87.36046511627124,
          "velocity": 0.14960629921259844,
          "duration": 0.05813953488370771
        },
        {
          "name": "D3",
          "midi": 50,
          "time": 87.39534883720147,
          "velocity": 0.4645669291338583,
          "duration": 0.05813953488372192
        },
        {
          "name": "D7",
          "midi": 98,
          "time": 87.39534883720147,
          "velocity": 0.1732283464566929,
          "duration": 0.15116279069765426
        },
        {
          "name": "C#7",
          "midi": 97,
          "time": 87.40697674417821,
          "velocity": 0.36220472440944884,
          "duration": 0.9418604651161075
        },
        {
          "name": "A3",
          "midi": 57,
          "time": 87.41860465115495,
          "velocity": 0.33858267716535434,
          "duration": 0.081395348837205
        },
        {
          "name": "B4",
          "midi": 71,
          "time": 87.41860465115495,
          "velocity": 0.14173228346456693,
          "duration": 0.04651162790698038
        },
        {
          "name": "D5",
          "midi": 74,
          "time": 87.41860465115495,
          "velocity": 0.10236220472440945,
          "duration": 0.05813953488372192
        },
        {
          "name": "D3",
          "midi": 50,
          "time": 87.46511627906193,
          "velocity": 0.4251968503937008,
          "duration": 0.023255813953483084
        },
        {
          "name": "E5",
          "midi": 76,
          "time": 87.46511627906193,
          "velocity": 0.2677165354330709,
          "duration": 0.05813953488370771
        },
        {
          "name": "D#4",
          "midi": 63,
          "time": 87.48837209301541,
          "velocity": 0.2204724409448819,
          "duration": 0.04651162790696617
        },
        {
          "name": "A#4",
          "midi": 70,
          "time": 87.48837209301541,
          "velocity": 0.2125984251968504,
          "duration": 0.034883720930224626
        },
        {
          "name": "D5",
          "midi": 74,
          "time": 87.48837209301541,
          "velocity": 0.2283464566929134,
          "duration": 0.05813953488370771
        },
        {
          "name": "D#7",
          "midi": 99,
          "time": 87.49999999999216,
          "velocity": 0.11023622047244094,
          "duration": 0.05813953488370771
        },
        {
          "name": "E2",
          "midi": 40,
          "time": 87.5116279069689,
          "velocity": 0.4409448818897638,
          "duration": 0.023255813953483084
        },
        {
          "name": "F#4",
          "midi": 66,
          "time": 87.5116279069689,
          "velocity": 0.31496062992125984,
          "duration": 0.1860465116278931
        },
        {
          "name": "A4",
          "midi": 69,
          "time": 87.5116279069689,
          "velocity": 0.2125984251968504,
          "duration": 0.06976744186044925
        },
        {
          "name": "D3",
          "midi": 50,
          "time": 87.52325581394564,
          "velocity": 0.6220472440944882,
          "duration": 0.17441860465115155
        },
        {
          "name": "A3",
          "midi": 57,
          "time": 87.52325581394564,
          "velocity": 0.4094488188976378,
          "duration": 0.05813953488370771
        },
        {
          "name": "F2",
          "midi": 41,
          "time": 87.53488372092238,
          "velocity": 0.5275590551181102,
          "duration": 0.034883720930224626
        },
        {
          "name": "A5",
          "midi": 81,
          "time": 87.53488372092238,
          "velocity": 0.2992125984251969,
          "duration": 0.22093023255811772
        },
        {
          "name": "D5",
          "midi": 74,
          "time": 87.5697674418526,
          "velocity": 0.15748031496062992,
          "duration": 0.081395348837205
        },
        {
          "name": "A4",
          "midi": 69,
          "time": 87.60465116278283,
          "velocity": 0.4330708661417323,
          "duration": 0.1046511627907023
        },
        {
          "name": "D#2",
          "midi": 39,
          "time": 87.68604651162005,
          "velocity": 0.2440944881889764,
          "duration": 0.023255813953483084
        },
        {
          "name": "D#3",
          "midi": 51,
          "time": 87.69767441859679,
          "velocity": 0.4330708661417323,
          "duration": 0.034883720930224626
        },
        {
          "name": "G4",
          "midi": 67,
          "time": 87.69767441859679,
          "velocity": 0.4409448818897638,
          "duration": 0.04651162790696617
        },
        {
          "name": "D5",
          "midi": 74,
          "time": 87.69767441859679,
          "velocity": 0.3464566929133858,
          "duration": 0.034883720930224626
        },
        {
          "name": "E5",
          "midi": 76,
          "time": 87.69767441859679,
          "velocity": 0.28346456692913385,
          "duration": 0.37209302325572935
        },
        {
          "name": "D7",
          "midi": 98,
          "time": 87.69767441859679,
          "velocity": 0.1732283464566929,
          "duration": 0.04651162790696617
        },
        {
          "name": "C4",
          "midi": 60,
          "time": 87.70930232557353,
          "velocity": 0.4330708661417323,
          "duration": 0.023255813953483084
        },
        {
          "name": "C6",
          "midi": 84,
          "time": 87.70930232557353,
          "velocity": 0.12598425196850394,
          "duration": 0.05813953488370771
        },
        {
          "name": "C#6",
          "midi": 85,
          "time": 87.70930232557353,
          "velocity": 0.08661417322834646,
          "duration": 0.034883720930224626
        },
        {
          "name": "D#7",
          "midi": 99,
          "time": 87.70930232557353,
          "velocity": 0.13385826771653545,
          "duration": 0.05813953488370771
        },
        {
          "name": "G#3",
          "midi": 56,
          "time": 87.72093023255027,
          "velocity": 0.4566929133858268,
          "duration": 0.023255813953483084
        },
        {
          "name": "E4",
          "midi": 64,
          "time": 87.72093023255027,
          "velocity": 0.3228346456692913,
          "duration": 0.023255813953483084
        },
        {
          "name": "A4",
          "midi": 69,
          "time": 87.72093023255027,
          "velocity": 0.3858267716535433,
          "duration": 0.6279069767440433
        },
        {
          "name": "D3",
          "midi": 50,
          "time": 87.73255813952701,
          "velocity": 0.6456692913385826,
          "duration": 0.10465116279067388
        },
        {
          "name": "F#4",
          "midi": 66,
          "time": 87.74418604650376,
          "velocity": 0.3700787401574803,
          "duration": 0.0813953488371908
        },
        {
          "name": "C7",
          "midi": 96,
          "time": 87.74418604650376,
          "velocity": 0.15748031496062992,
          "duration": 0.04651162790696617
        },
        {
          "name": "F2",
          "midi": 41,
          "time": 87.7558139534805,
          "velocity": 0.5196850393700787,
          "duration": 0.023255813953483084
        },
        {
          "name": "A3",
          "midi": 57,
          "time": 87.76744186045724,
          "velocity": 0.4015748031496063,
          "duration": 0.04651162790696617
        },
        {
          "name": "C5",
          "midi": 72,
          "time": 87.76744186045724,
          "velocity": 0.10236220472440945,
          "duration": 0.034883720930224626
        },
        {
          "name": "A#3",
          "midi": 58,
          "time": 87.8139534883642,
          "velocity": 0.2992125984251969,
          "duration": 0.05813953488370771
        },
        {
          "name": "A2",
          "midi": 45,
          "time": 87.82558139534095,
          "velocity": 0.5511811023622047,
          "duration": 0.011627906976741542
        },
        {
          "name": "D#4",
          "midi": 63,
          "time": 87.82558139534095,
          "velocity": 0.2204724409448819,
          "duration": 0.034883720930224626
        },
        {
          "name": "D5",
          "midi": 74,
          "time": 87.82558139534095,
          "velocity": 0.12598425196850394,
          "duration": 0.034883720930224626
        },
        {
          "name": "D#3",
          "midi": 51,
          "time": 87.83720930231769,
          "velocity": 0.6141732283464567,
          "duration": 0.011627906976741542
        },
        {
          "name": "F#4",
          "midi": 66,
          "time": 87.83720930231769,
          "velocity": 0.1889763779527559,
          "duration": 0.034883720930224626
        },
        {
          "name": "A2",
          "midi": 45,
          "time": 87.84883720929443,
          "velocity": 0.6220472440944882,
          "duration": 0.06976744186044925
        },
        {
          "name": "D3",
          "midi": 50,
          "time": 87.84883720929443,
          "velocity": 0.5669291338582677,
          "duration": 0.011627906976741542
        },
        {
          "name": "C4",
          "midi": 60,
          "time": 87.87209302324791,
          "velocity": 0.2677165354330709,
          "duration": 0.023255813953483084
        },
        {
          "name": "E4",
          "midi": 64,
          "time": 87.87209302324791,
          "velocity": 0.15748031496062992,
          "duration": 0.034883720930224626
        },
        {
          "name": "F#4",
          "midi": 66,
          "time": 87.88372093022465,
          "velocity": 0.28346456692913385,
          "duration": 0.05813953488370771
        },
        {
          "name": "A#3",
          "midi": 58,
          "time": 87.8953488372014,
          "velocity": 0.33070866141732286,
          "duration": 0.034883720930224626
        },
        {
          "name": "F2",
          "midi": 41,
          "time": 87.91860465115488,
          "velocity": 0.5826771653543307,
          "duration": 0.011627906976741542
        },
        {
          "name": "D5",
          "midi": 74,
          "time": 87.91860465115488,
          "velocity": 0.25984251968503935,
          "duration": 0.04651162790696617
        },
        {
          "name": "G#2",
          "midi": 44,
          "time": 87.93023255813162,
          "velocity": 0.6141732283464567,
          "duration": 0.011627906976741542
        },
        {
          "name": "A3",
          "midi": 57,
          "time": 87.93023255813162,
          "velocity": 0.31496062992125984,
          "duration": 0.023255813953483084
        },
        {
          "name": "D7",
          "midi": 98,
          "time": 87.93023255813162,
          "velocity": 0.2440944881889764,
          "duration": 0.09302325581393234
        },
        {
          "name": "G2",
          "midi": 43,
          "time": 87.94186046510836,
          "velocity": 0.5196850393700787,
          "duration": 0.011627906976741542
        },
        {
          "name": "C5",
          "midi": 72,
          "time": 87.94186046510836,
          "velocity": 0.12598425196850394,
          "duration": 0.1395348837208985
        },
        {
          "name": "D3",
          "midi": 50,
          "time": 87.9534883720851,
          "velocity": 0.48031496062992124,
          "duration": 0.18604651162786467
        },
        {
          "name": "A3",
          "midi": 57,
          "time": 87.96511627906185,
          "velocity": 0.4015748031496063,
          "duration": 0.17441860465112313
        },
        {
          "name": "E2",
          "midi": 40,
          "time": 87.97674418603859,
          "velocity": 0.48031496062992124,
          "duration": 0.023255813953483084
        },
        {
          "name": "F#4",
          "midi": 66,
          "time": 87.97674418603859,
          "velocity": 0.31496062992125984,
          "duration": 0.11627906976741542
        },
        {
          "name": "D#7",
          "midi": 99,
          "time": 87.97674418603859,
          "velocity": 0.12598425196850394,
          "duration": 0.1627906976743816
        },
        {
          "name": "G7",
          "midi": 103,
          "time": 87.98837209301533,
          "velocity": 0.10236220472440945,
          "duration": 0.034883720930224626
        },
        {
          "name": "D#2",
          "midi": 39,
          "time": 87.99999999999207,
          "velocity": 0.31496062992125984,
          "duration": 0.023255813953483084
        },
        {
          "name": "D#4",
          "midi": 63,
          "time": 87.99999999999207,
          "velocity": 0.25196850393700787,
          "duration": 0.023255813953483084
        },
        {
          "name": "A6",
          "midi": 93,
          "time": 88.04651162789904,
          "velocity": 0.13385826771653545,
          "duration": 0.1395348837208985
        },
        {
          "name": "D7",
          "midi": 98,
          "time": 88.04651162789904,
          "velocity": 0.11811023622047244,
          "duration": 0.05813953488370771
        },
        {
          "name": "E5",
          "midi": 76,
          "time": 88.093023255806,
          "velocity": 0.11023622047244094,
          "duration": 0.04651162790696617
        },
        {
          "name": "F#4",
          "midi": 66,
          "time": 88.10465116278274,
          "velocity": 0.31496062992125984,
          "duration": 0.1395348837208985
        },
        {
          "name": "D#2",
          "midi": 39,
          "time": 88.11627906975949,
          "velocity": 0.44881889763779526,
          "duration": 0.023255813953483084
        },
        {
          "name": "D7",
          "midi": 98,
          "time": 88.11627906975949,
          "velocity": 0.29133858267716534,
          "duration": 0.6976744186045067
        },
        {
          "name": "C5",
          "midi": 72,
          "time": 88.12790697673623,
          "velocity": 0.1968503937007874,
          "duration": 0.09302325581393234
        },
        {
          "name": "C#6",
          "midi": 85,
          "time": 88.13953488371297,
          "velocity": 0.2440944881889764,
          "duration": 0.023255813953483084
        },
        {
          "name": "D#6",
          "midi": 87,
          "time": 88.13953488371297,
          "velocity": 0.1732283464566929,
          "duration": 0.06976744186044925
        },
        {
          "name": "G6",
          "midi": 91,
          "time": 88.13953488371297,
          "velocity": 0.47244094488188976,
          "duration": 0.7558139534882145
        },
        {
          "name": "G#2",
          "midi": 44,
          "time": 88.15116279068971,
          "velocity": 0.49606299212598426,
          "duration": 0.023255813953483084
        },
        {
          "name": "C7",
          "midi": 96,
          "time": 88.15116279068971,
          "velocity": 0.1889763779527559,
          "duration": 0.17441860465112313
        },
        {
          "name": "D3",
          "midi": 50,
          "time": 88.16279069766645,
          "velocity": 0.3464566929133858,
          "duration": 0.023255813953483084
        },
        {
          "name": "E5",
          "midi": 76,
          "time": 88.16279069766645,
          "velocity": 0.13385826771653545,
          "duration": 0.034883720930224626
        },
        {
          "name": "G5",
          "midi": 79,
          "time": 88.16279069766645,
          "velocity": 0.48031496062992124,
          "duration": 0.639534883720799
        },
        {
          "name": "D6",
          "midi": 86,
          "time": 88.16279069766645,
          "velocity": 0.2204724409448819,
          "duration": 0.05813953488370771
        },
        {
          "name": "D#3",
          "midi": 51,
          "time": 88.18604651161994,
          "velocity": 0.41732283464566927,
          "duration": 0.023255813953483084
        },
        {
          "name": "D4",
          "midi": 62,
          "time": 88.18604651161994,
          "velocity": 0.2047244094488189,
          "duration": 0.10465116279067388
        },
        {
          "name": "F7",
          "midi": 101,
          "time": 88.18604651161994,
          "velocity": 0.2204724409448819,
          "duration": 0.17441860465112313
        },
        {
          "name": "A3",
          "midi": 57,
          "time": 88.19767441859668,
          "velocity": 0.29133858267716534,
          "duration": 0.1627906976743816
        },
        {
          "name": "D3",
          "midi": 50,
          "time": 88.20930232557342,
          "velocity": 0.47244094488188976,
          "duration": 0.15116279069764005
        },
        {
          "name": "E5",
          "midi": 76,
          "time": 88.22093023255016,
          "velocity": 0.12598425196850394,
          "duration": 0.034883720930224626
        },
        {
          "name": "B4",
          "midi": 71,
          "time": 88.2325581395269,
          "velocity": 0.1968503937007874,
          "duration": 0.10465116279067388
        },
        {
          "name": "D#7",
          "midi": 99,
          "time": 88.2325581395269,
          "velocity": 0.1968503937007874,
          "duration": 0.2209302325580893
        },
        {
          "name": "E7",
          "midi": 100,
          "time": 88.2325581395269,
          "velocity": 0.11023622047244094,
          "duration": 0.0813953488371908
        },
        {
          "name": "F2",
          "midi": 41,
          "time": 88.27906976743387,
          "velocity": 0.30708661417322836,
          "duration": 0.023255813953483084
        },
        {
          "name": "A#6",
          "midi": 94,
          "time": 88.27906976743387,
          "velocity": 0.07874015748031496,
          "duration": 0.04651162790696617
        },
        {
          "name": "E5",
          "midi": 76,
          "time": 88.29069767441061,
          "velocity": 0.2440944881889764,
          "duration": 0.12790697674415696
        },
        {
          "name": "E2",
          "midi": 40,
          "time": 88.32558139534083,
          "velocity": 0.28346456692913385,
          "duration": 0.023255813953483084
        },
        {
          "name": "F#5",
          "midi": 78,
          "time": 88.33720930231758,
          "velocity": 0.30708661417322836,
          "duration": 0.0813953488371908
        },
        {
          "name": "G#4",
          "midi": 68,
          "time": 88.34883720929432,
          "velocity": 0.2125984251968504,
          "duration": 0.04651162790696617
        },
        {
          "name": "C7",
          "midi": 96,
          "time": 88.34883720929432,
          "velocity": 0.25984251968503935,
          "duration": 0.04651162790696617
        },
        {
          "name": "F#4",
          "midi": 66,
          "time": 88.36046511627106,
          "velocity": 0.33858267716535434,
          "duration": 0.2209302325580893
        },
        {
          "name": "B4",
          "midi": 71,
          "time": 88.36046511627106,
          "velocity": 0.1732283464566929,
          "duration": 0.05813953488370771
        },
        {
          "name": "C#5",
          "midi": 73,
          "time": 88.36046511627106,
          "velocity": 0.13385826771653545,
          "duration": 0.034883720930224626
        },
        {
          "name": "C3",
          "midi": 48,
          "time": 88.3720930232478,
          "velocity": 0.4409448818897638,
          "duration": 0.023255813953483084
        },
        {
          "name": "D6",
          "midi": 86,
          "time": 88.3720930232478,
          "velocity": 0.14173228346456693,
          "duration": 0.17441860465112313
        },
        {
          "name": "F3",
          "midi": 53,
          "time": 88.38372093022454,
          "velocity": 0.31496062992125984,
          "duration": 0.04651162790696617
        },
        {
          "name": "A4",
          "midi": 69,
          "time": 88.39534883720128,
          "velocity": 0.33858267716535434,
          "duration": 0.24418604651157239
        },
        {
          "name": "C#7",
          "midi": 97,
          "time": 88.39534883720128,
          "velocity": 0.25984251968503935,
          "duration": 0.23255813953483084
        },
        {
          "name": "D4",
          "midi": 62,
          "time": 88.40697674417802,
          "velocity": 0.3228346456692913,
          "duration": 0.0813953488371908
        },
        {
          "name": "D#6",
          "midi": 87,
          "time": 88.40697674417802,
          "velocity": 0.09448818897637795,
          "duration": 0.034883720930224626
        },
        {
          "name": "C7",
          "midi": 96,
          "time": 88.40697674417802,
          "velocity": 0.09448818897637795,
          "duration": 0.04651162790696617
        },
        {
          "name": "G#2",
          "midi": 44,
          "time": 88.41860465115477,
          "velocity": 0.3937007874015748,
          "duration": 0.023255813953483084
        },
        {
          "name": "A3",
          "midi": 57,
          "time": 88.43023255813151,
          "velocity": 0.3858267716535433,
          "duration": 0.034883720930224626
        },
        {
          "name": "E5",
          "midi": 76,
          "time": 88.44186046510825,
          "velocity": 0.07874015748031496,
          "duration": 0.04651162790696617
        },
        {
          "name": "F7",
          "midi": 101,
          "time": 88.44186046510825,
          "velocity": 0.10236220472440945,
          "duration": 0.034883720930224626
        },
        {
          "name": "D#3",
          "midi": 51,
          "time": 88.47674418603847,
          "velocity": 0.44881889763779526,
          "duration": 0.034883720930224626
        },
        {
          "name": "A3",
          "midi": 57,
          "time": 88.47674418603847,
          "velocity": 0.3228346456692913,
          "duration": 0.04651162790696617
        },
        {
          "name": "F2",
          "midi": 41,
          "time": 88.48837209301522,
          "velocity": 0.44881889763779526,
          "duration": 0.023255813953483084
        },
        {
          "name": "D3",
          "midi": 50,
          "time": 88.5116279069687,
          "velocity": 0.4645669291338583,
          "duration": 0.04651162790696617
        },
        {
          "name": "F#6",
          "midi": 90,
          "time": 88.5116279069687,
          "velocity": 0.2440944881889764,
          "duration": 0.29069767441855277
        },
        {
          "name": "D#7",
          "midi": 99,
          "time": 88.5116279069687,
          "velocity": 0.11023622047244094,
          "duration": 0.04651162790696617
        },
        {
          "name": "A#3",
          "midi": 58,
          "time": 88.52325581394544,
          "velocity": 0.2047244094488189,
          "duration": 0.034883720930224626
        },
        {
          "name": "F2",
          "midi": 41,
          "time": 88.55813953487566,
          "velocity": 0.5275590551181102,
          "duration": 0.011627906976741542
        },
        {
          "name": "D#3",
          "midi": 51,
          "time": 88.55813953487566,
          "velocity": 0.5433070866141733,
          "duration": 0.023255813953483084
        },
        {
          "name": "F5",
          "midi": 77,
          "time": 88.55813953487566,
          "velocity": 0.2283464566929134,
          "duration": 0.023255813953483084
        },
        {
          "name": "F7",
          "midi": 101,
          "time": 88.55813953487566,
          "velocity": 0.07874015748031496,
          "duration": 0.034883720930224626
        },
        {
          "name": "D2",
          "midi": 38,
          "time": 88.5697674418524,
          "velocity": 0.5354330708661418,
          "duration": 0.011627906976741542
        },
        {
          "name": "G#2",
          "midi": 44,
          "time": 88.5697674418524,
          "velocity": 0.5590551181102362,
          "duration": 0.011627906976741542
        },
        {
          "name": "D6",
          "midi": 86,
          "time": 88.5697674418524,
          "velocity": 0.08661417322834646,
          "duration": 0.034883720930224626
        },
        {
          "name": "C3",
          "midi": 48,
          "time": 88.58139534882915,
          "velocity": 0.5905511811023622,
          "duration": 0.011627906976741542
        },
        {
          "name": "E4",
          "midi": 64,
          "time": 88.58139534882915,
          "velocity": 0.41732283464566927,
          "duration": 0.2790697674418112
        },
        {
          "name": "B4",
          "midi": 71,
          "time": 88.58139534882915,
          "velocity": 0.28346456692913385,
          "duration": 0.023255813953483084
        },
        {
          "name": "D#7",
          "midi": 99,
          "time": 88.58139534882915,
          "velocity": 0.09448818897637795,
          "duration": 0.04651162790696617
        },
        {
          "name": "D3",
          "midi": 50,
          "time": 88.59302325580589,
          "velocity": 0.5433070866141733,
          "duration": 0.011627906976741542
        },
        {
          "name": "B3",
          "midi": 59,
          "time": 88.61627906975937,
          "velocity": 0.3464566929133858,
          "duration": 0.023255813953483084
        },
        {
          "name": "B4",
          "midi": 71,
          "time": 88.61627906975937,
          "velocity": 0.3543307086614173,
          "duration": 0.3837209302324851
        },
        {
          "name": "E3",
          "midi": 52,
          "time": 88.62790697673611,
          "velocity": 0.5590551181102362,
          "duration": 0.06976744186044925
        },
        {
          "name": "E2",
          "midi": 40,
          "time": 88.63953488371286,
          "velocity": 0.49606299212598426,
          "duration": 0.023255813953483084
        },
        {
          "name": "A5",
          "midi": 81,
          "time": 88.63953488371286,
          "velocity": 0.11811023622047244,
          "duration": 0.09302325581393234
        },
        {
          "name": "B3",
          "midi": 59,
          "time": 88.6511627906896,
          "velocity": 0.33070866141732286,
          "duration": 0.034883720930224626
        },
        {
          "name": "A4",
          "midi": 69,
          "time": 88.66279069766634,
          "velocity": 0.1889763779527559,
          "duration": 0.04651162790696617
        },
        {
          "name": "D#3",
          "midi": 51,
          "time": 88.69767441859656,
          "velocity": 0.5433070866141733,
          "duration": 0.011627906976741542
        },
        {
          "name": "E3",
          "midi": 52,
          "time": 88.7093023255733,
          "velocity": 0.47244094488188976,
          "duration": 0.023255813953483084
        },
        {
          "name": "A4",
          "midi": 69,
          "time": 88.72093023255005,
          "velocity": 0.1889763779527559,
          "duration": 0.04651162790698038
        },
        {
          "name": "C7",
          "midi": 96,
          "time": 88.72093023255005,
          "velocity": 0.07874015748031496,
          "duration": 0.13953488372091272
        },
        {
          "name": "D2",
          "midi": 38,
          "time": 88.77906976743377,
          "velocity": 0.5196850393700787,
          "duration": 0.011627906976741542
        },
        {
          "name": "F#4",
          "midi": 66,
          "time": 88.77906976743377,
          "velocity": 0.2992125984251969,
          "duration": 0.023255813953483084
        },
        {
          "name": "A3",
          "midi": 57,
          "time": 88.79069767441051,
          "velocity": 0.2992125984251969,
          "duration": 0.023255813953483084
        },
        {
          "name": "F#5",
          "midi": 78,
          "time": 88.79069767441051,
          "velocity": 0.4015748031496063,
          "duration": 0.04651162790696617
        },
        {
          "name": "A5",
          "midi": 81,
          "time": 88.79069767441051,
          "velocity": 0.3464566929133858,
          "duration": 0.4999999999998863
        },
        {
          "name": "A6",
          "midi": 93,
          "time": 88.79069767441051,
          "velocity": 0.4409448818897638,
          "duration": 0.4418604651161786
        },
        {
          "name": "C#7",
          "midi": 97,
          "time": 88.79069767441051,
          "velocity": 0.11023622047244094,
          "duration": 0.04651162790696617
        },
        {
          "name": "E7",
          "midi": 100,
          "time": 88.79069767441051,
          "velocity": 0.28346456692913385,
          "duration": 0.31395348837202164
        },
        {
          "name": "G4",
          "midi": 67,
          "time": 88.80232558138725,
          "velocity": 0.3228346456692913,
          "duration": 0.1627906976743816
        },
        {
          "name": "D#3",
          "midi": 51,
          "time": 88.81395348836399,
          "velocity": 0.48031496062992124,
          "duration": 0.023255813953483084
        },
        {
          "name": "F#2",
          "midi": 42,
          "time": 88.82558139534073,
          "velocity": 0.5118110236220472,
          "duration": 0.023255813953483084
        },
        {
          "name": "B3",
          "midi": 59,
          "time": 88.82558139534073,
          "velocity": 0.30708661417322836,
          "duration": 0.034883720930224626
        },
        {
          "name": "A4",
          "midi": 69,
          "time": 88.82558139534073,
          "velocity": 0.2283464566929134,
          "duration": 0.023255813953483084
        },
        {
          "name": "D7",
          "midi": 98,
          "time": 88.82558139534073,
          "velocity": 0.11811023622047244,
          "duration": 0.034883720930224626
        },
        {
          "name": "E3",
          "midi": 52,
          "time": 88.83720930231748,
          "velocity": 0.5590551181102362,
          "duration": 0.05813953488370771
        },
        {
          "name": "F#6",
          "midi": 90,
          "time": 88.8720930232477,
          "velocity": 0.07874015748031496,
          "duration": 0.05813953488370771
        },
        {
          "name": "B3",
          "midi": 59,
          "time": 88.88372093022444,
          "velocity": 0.23622047244094488,
          "duration": 0.034883720930224626
        },
        {
          "name": "D#3",
          "midi": 51,
          "time": 88.89534883720118,
          "velocity": 0.5433070866141733,
          "duration": 0.011627906976741542
        },
        {
          "name": "D#6",
          "midi": 87,
          "time": 88.89534883720118,
          "velocity": 0.11023622047244094,
          "duration": 0.05813953488370771
        },
        {
          "name": "E3",
          "midi": 52,
          "time": 88.90697674417792,
          "velocity": 0.5196850393700787,
          "duration": 0.023255813953483084
        },
        {
          "name": "E2",
          "midi": 40,
          "time": 88.93023255813141,
          "velocity": 0.44881889763779526,
          "duration": 0.023255813953483084
        },
        {
          "name": "B3",
          "midi": 59,
          "time": 88.94186046510815,
          "velocity": 0.2125984251968504,
          "duration": 0.034883720930224626
        },
        {
          "name": "E4",
          "midi": 64,
          "time": 88.95348837208489,
          "velocity": 0.16535433070866143,
          "duration": 0.06976744186044925
        },
        {
          "name": "A4",
          "midi": 69,
          "time": 88.95348837208489,
          "velocity": 0.09448818897637795,
          "duration": 0.04651162790696617
        },
        {
          "name": "E2",
          "midi": 40,
          "time": 88.96511627906163,
          "velocity": 0.5118110236220472,
          "duration": 0.023255813953483084
        },
        {
          "name": "F#5",
          "midi": 78,
          "time": 88.96511627906163,
          "velocity": 0.14173228346456693,
          "duration": 0.06976744186044925
        },
        {
          "name": "G6",
          "midi": 91,
          "time": 88.96511627906163,
          "velocity": 0.2125984251968504,
          "duration": 0.31395348837202164
        },
        {
          "name": "D5",
          "midi": 74,
          "time": 88.98837209301512,
          "velocity": 0.11811023622047244,
          "duration": 0.04651162790696617
        },
        {
          "name": "B6",
          "midi": 95,
          "time": 88.99999999999186,
          "velocity": 0.4015748031496063,
          "duration": 1.8255813953484363
        },
        {
          "name": "C#7",
          "midi": 97,
          "time": 88.99999999999186,
          "velocity": 0.2992125984251969,
          "duration": 0.279069767441797
        },
        {
          "name": "D7",
          "midi": 98,
          "time": 88.99999999999186,
          "velocity": 0.2125984251968504,
          "duration": 0.29069767441853855
        },
        {
          "name": "C4",
          "midi": 60,
          "time": 89.0116279069686,
          "velocity": 0.2440944881889764,
          "duration": 0.034883720930224626
        },
        {
          "name": "A4",
          "midi": 69,
          "time": 89.0116279069686,
          "velocity": 0.2047244094488189,
          "duration": 0.04651162790696617
        },
        {
          "name": "D#7",
          "midi": 99,
          "time": 89.0116279069686,
          "velocity": 0.16535433070866143,
          "duration": 0.26744186046505547
        },
        {
          "name": "B5",
          "midi": 83,
          "time": 89.02325581394534,
          "velocity": 0.11811023622047244,
          "duration": 0.1627906976743816
        },
        {
          "name": "E6",
          "midi": 88,
          "time": 89.02325581394534,
          "velocity": 0.10236220472440945,
          "duration": 0.034883720930224626
        },
        {
          "name": "F7",
          "midi": 101,
          "time": 89.02325581394534,
          "velocity": 0.07874015748031496,
          "duration": 0.06976744186044925
        },
        {
          "name": "E4",
          "midi": 64,
          "time": 89.03488372092208,
          "velocity": 0.1968503937007874,
          "duration": 0.04651162790696617
        },
        {
          "name": "B4",
          "midi": 71,
          "time": 89.03488372092208,
          "velocity": 0.1732283464566929,
          "duration": 0.12790697674415696
        },
        {
          "name": "D#6",
          "midi": 87,
          "time": 89.03488372092208,
          "velocity": 0.1889763779527559,
          "duration": 0.06976744186044925
        },
        {
          "name": "F#6",
          "midi": 90,
          "time": 89.03488372092208,
          "velocity": 0.08661417322834646,
          "duration": 0.1627906976743816
        },
        {
          "name": "F3",
          "midi": 53,
          "time": 89.04651162789882,
          "velocity": 0.31496062992125984,
          "duration": 0.023255813953483084
        },
        {
          "name": "B3",
          "midi": 59,
          "time": 89.04651162789882,
          "velocity": 0.25196850393700787,
          "duration": 0.034883720930224626
        },
        {
          "name": "C7",
          "midi": 96,
          "time": 89.04651162789882,
          "velocity": 0.11811023622047244,
          "duration": 0.11627906976741542
        },
        {
          "name": "F#5",
          "midi": 78,
          "time": 89.05813953487556,
          "velocity": 0.14960629921259844,
          "duration": 0.0813953488371908
        },
        {
          "name": "D5",
          "midi": 74,
          "time": 89.0697674418523,
          "velocity": 0.2283464566929134,
          "duration": 0.1627906976743816
        },
        {
          "name": "E6",
          "midi": 88,
          "time": 89.0697674418523,
          "velocity": 0.10236220472440945,
          "duration": 0.06976744186044925
        },
        {
          "name": "F#7",
          "midi": 102,
          "time": 89.08139534882905,
          "velocity": 0.1889763779527559,
          "duration": 0.6279069767440433
        },
        {
          "name": "E2",
          "midi": 40,
          "time": 89.09302325580579,
          "velocity": 0.5039370078740157,
          "duration": 0.05813953488370771
        },
        {
          "name": "B3",
          "midi": 59,
          "time": 89.09302325580579,
          "velocity": 0.31496062992125984,
          "duration": 0.11627906976741542
        },
        {
          "name": "F3",
          "midi": 53,
          "time": 89.11627906975927,
          "velocity": 0.29133858267716534,
          "duration": 0.023255813953483084
        },
        {
          "name": "A4",
          "midi": 69,
          "time": 89.11627906975927,
          "velocity": 0.12598425196850394,
          "duration": 0.05813953488370771
        },
        {
          "name": "F7",
          "midi": 101,
          "time": 89.11627906975927,
          "velocity": 0.11811023622047244,
          "duration": 0.0813953488371908
        },
        {
          "name": "E4",
          "midi": 64,
          "time": 89.13953488371276,
          "velocity": 0.2283464566929134,
          "duration": 0.0813953488371908
        },
        {
          "name": "G#5",
          "midi": 80,
          "time": 89.13953488371276,
          "velocity": 0.07086614173228346,
          "duration": 0.04651162790696617
        },
        {
          "name": "E7",
          "midi": 100,
          "time": 89.1511627906895,
          "velocity": 0.10236220472440945,
          "duration": 0.034883720930224626
        },
        {
          "name": "G2",
          "midi": 43,
          "time": 89.16279069766624,
          "velocity": 0.41732283464566927,
          "duration": 0.023255813953483084
        },
        {
          "name": "D#3",
          "midi": 51,
          "time": 89.17441860464298,
          "velocity": 0.4015748031496063,
          "duration": 0.023255813953483084
        },
        {
          "name": "E3",
          "midi": 52,
          "time": 89.19767441859646,
          "velocity": 0.41732283464566927,
          "duration": 0.023255813953483084
        },
        {
          "name": "F#5",
          "midi": 78,
          "time": 89.19767441859646,
          "velocity": 0.31496062992125984,
          "duration": 0.0813953488371908
        },
        {
          "name": "E7",
          "midi": 100,
          "time": 89.19767441859646,
          "velocity": 0.14173228346456693,
          "duration": 0.05813953488370771
        },
        {
          "name": "G4",
          "midi": 67,
          "time": 89.2093023255732,
          "velocity": 0.3464566929133858,
          "duration": 0.20930232558134776
        },
        {
          "name": "C7",
          "midi": 96,
          "time": 89.2093023255732,
          "velocity": 0.15748031496062992,
          "duration": 0.04651162790696617
        },
        {
          "name": "F2",
          "midi": 41,
          "time": 89.22093023254995,
          "velocity": 0.5433070866141733,
          "duration": 0.011627906976741542
        },
        {
          "name": "E5",
          "midi": 76,
          "time": 89.22093023254995,
          "velocity": 0.25984251968503935,
          "duration": 0.5232558139533694
        },
        {
          "name": "F#2",
          "midi": 42,
          "time": 89.23255813952669,
          "velocity": 0.5511811023622047,
          "duration": 0.011627906976741542
        },
        {
          "name": "E2",
          "midi": 40,
          "time": 89.25581395348017,
          "velocity": 0.48031496062992124,
          "duration": 0.05813953488370771
        },
        {
          "name": "B3",
          "midi": 59,
          "time": 89.25581395348017,
          "velocity": 0.3700787401574803,
          "duration": 0.15116279069764005
        },
        {
          "name": "E3",
          "midi": 52,
          "time": 89.27906976743365,
          "velocity": 0.48031496062992124,
          "duration": 0.05813953488370771
        },
        {
          "name": "E7",
          "midi": 100,
          "time": 89.27906976743365,
          "velocity": 0.07874015748031496,
          "duration": 0.05813953488370771
        },
        {
          "name": "A6",
          "midi": 93,
          "time": 89.32558139534062,
          "velocity": 0.11811023622047244,
          "duration": 0.034883720930224626
        },
        {
          "name": "D#2",
          "midi": 39,
          "time": 89.36046511627084,
          "velocity": 0.2283464566929134,
          "duration": 0.023255813953483084
        },
        {
          "name": "D5",
          "midi": 74,
          "time": 89.40697674417781,
          "velocity": 0.23622047244094488,
          "duration": 0.023255813953483084
        },
        {
          "name": "C3",
          "midi": 48,
          "time": 89.41860465115455,
          "velocity": 0.5354330708661418,
          "duration": 0.034883720930224626
        },
        {
          "name": "A#3",
          "midi": 58,
          "time": 89.41860465115455,
          "velocity": 0.4881889763779528,
          "duration": 0.023255813953483084
        },
        {
          "name": "F4",
          "midi": 65,
          "time": 89.41860465115455,
          "velocity": 0.4330708661417323,
          "duration": 0.023255813953483084
        },
        {
          "name": "F#5",
          "midi": 78,
          "time": 89.41860465115455,
          "velocity": 0.12598425196850394,
          "duration": 0.034883720930224626
        },
        {
          "name": "B5",
          "midi": 83,
          "time": 89.41860465115455,
          "velocity": 0.2204724409448819,
          "duration": 0.4418604651161786
        },
        {
          "name": "A#6",
          "midi": 94,
          "time": 89.41860465115455,
          "velocity": 0.11811023622047244,
          "duration": 0.04651162790696617
        },
        {
          "name": "D7",
          "midi": 98,
          "time": 89.41860465115455,
          "velocity": 0.18110236220472442,
          "duration": 0.0813953488371908
        },
        {
          "name": "A5",
          "midi": 81,
          "time": 89.4302325581313,
          "velocity": 0.07086614173228346,
          "duration": 0.04651162790696617
        },
        {
          "name": "D#7",
          "midi": 99,
          "time": 89.4302325581313,
          "velocity": 0.11811023622047244,
          "duration": 0.06976744186044925
        },
        {
          "name": "E7",
          "midi": 100,
          "time": 89.4302325581313,
          "velocity": 0.13385826771653545,
          "duration": 0.09302325581393234
        },
        {
          "name": "G4",
          "midi": 67,
          "time": 89.44186046510804,
          "velocity": 0.25984251968503935,
          "duration": 0.034883720930224626
        },
        {
          "name": "C#7",
          "midi": 97,
          "time": 89.44186046510804,
          "velocity": 0.1889763779527559,
          "duration": 0.04651162790696617
        },
        {
          "name": "E3",
          "midi": 52,
          "time": 89.45348837208478,
          "velocity": 0.5590551181102362,
          "duration": 0.1395348837208985
        },
        {
          "name": "C6",
          "midi": 84,
          "time": 89.45348837208478,
          "velocity": 0.15748031496062992,
          "duration": 0.034883720930224626
        },
        {
          "name": "D#6",
          "midi": 87,
          "time": 89.46511627906152,
          "velocity": 0.07086614173228346,
          "duration": 0.04651162790696617
        },
        {
          "name": "F2",
          "midi": 41,
          "time": 89.47674418603826,
          "velocity": 0.5039370078740157,
          "duration": 0.034883720930224626
        },
        {
          "name": "F#5",
          "midi": 78,
          "time": 89.47674418603826,
          "velocity": 0.1732283464566929,
          "duration": 0.0813953488371908
        },
        {
          "name": "C4",
          "midi": 60,
          "time": 89.488372093015,
          "velocity": 0.41732283464566927,
          "duration": 0.023255813953483084
        },
        {
          "name": "F4",
          "midi": 65,
          "time": 89.488372093015,
          "velocity": 0.25196850393700787,
          "duration": 0.05813953488370771
        },
        {
          "name": "B3",
          "midi": 59,
          "time": 89.51162790696849,
          "velocity": 0.4251968503937008,
          "duration": 0.034883720930224626
        },
        {
          "name": "C3",
          "midi": 48,
          "time": 89.53488372092197,
          "velocity": 0.5118110236220472,
          "duration": 0.011627906976741542
        },
        {
          "name": "B2",
          "midi": 47,
          "time": 89.54651162789871,
          "velocity": 0.5196850393700787,
          "duration": 0.011627906976741542
        },
        {
          "name": "G4",
          "midi": 67,
          "time": 89.55813953487545,
          "velocity": 0.15748031496062992,
          "duration": 0.034883720930224626
        },
        {
          "name": "B4",
          "midi": 71,
          "time": 89.56976744185219,
          "velocity": 0.11023622047244094,
          "duration": 0.034883720930224626
        },
        {
          "name": "C3",
          "midi": 48,
          "time": 89.58139534882893,
          "velocity": 0.5196850393700787,
          "duration": 0.011627906976741542
        },
        {
          "name": "F#5",
          "midi": 78,
          "time": 89.58139534882893,
          "velocity": 0.3700787401574803,
          "duration": 0.10465116279067388
        },
        {
          "name": "B2",
          "midi": 47,
          "time": 89.59302325580568,
          "velocity": 0.5669291338582677,
          "duration": 0.04651162790696617
        },
        {
          "name": "F#4",
          "midi": 66,
          "time": 89.61627906975916,
          "velocity": 0.2125984251968504,
          "duration": 0.034883720930224626
        },
        {
          "name": "E2",
          "midi": 40,
          "time": 89.6279069767359,
          "velocity": 0.5275590551181102,
          "duration": 0.011627906976741542
        },
        {
          "name": "A2",
          "midi": 45,
          "time": 89.63953488371264,
          "velocity": 0.5669291338582677,
          "duration": 0.011627906976741542
        },
        {
          "name": "G6",
          "midi": 91,
          "time": 89.63953488371264,
          "velocity": 0.12598425196850394,
          "duration": 0.04651162790696617
        },
        {
          "name": "D7",
          "midi": 98,
          "time": 89.63953488371264,
          "velocity": 0.2283464566929134,
          "duration": 0.04651162790696617
        },
        {
          "name": "F2",
          "midi": 41,
          "time": 89.65116279068938,
          "velocity": 0.5196850393700787,
          "duration": 0.011627906976741542
        },
        {
          "name": "B2",
          "midi": 47,
          "time": 89.65116279068938,
          "velocity": 0.5354330708661418,
          "duration": 0.011627906976741542
        },
        {
          "name": "G4",
          "midi": 67,
          "time": 89.65116279068938,
          "velocity": 0.4330708661417323,
          "duration": 0.6395348837207848
        },
        {
          "name": "A#2",
          "midi": 46,
          "time": 89.66279069766613,
          "velocity": 0.5669291338582677,
          "duration": 0.011627906976741542
        },
        {
          "name": "D#6",
          "midi": 87,
          "time": 89.66279069766613,
          "velocity": 0.12598425196850394,
          "duration": 0.09302325581393234
        },
        {
          "name": "C#7",
          "midi": 97,
          "time": 89.66279069766613,
          "velocity": 0.23622047244094488,
          "duration": 0.10465116279067388
        },
        {
          "name": "F2",
          "midi": 41,
          "time": 89.67441860464287,
          "velocity": 0.5511811023622047,
          "duration": 0.023255813953483084
        },
        {
          "name": "B2",
          "midi": 47,
          "time": 89.67441860464287,
          "velocity": 0.5196850393700787,
          "duration": 0.011627906976741542
        },
        {
          "name": "B3",
          "midi": 59,
          "time": 89.68604651161961,
          "velocity": 0.3700787401574803,
          "duration": 0.37209302325572935
        },
        {
          "name": "E2",
          "midi": 40,
          "time": 89.69767441859635,
          "velocity": 0.5275590551181102,
          "duration": 0.011627906976741542
        },
        {
          "name": "D6",
          "midi": 86,
          "time": 89.69767441859635,
          "velocity": 0.11811023622047244,
          "duration": 0.04651162790696617
        },
        {
          "name": "D#2",
          "midi": 39,
          "time": 89.70930232557309,
          "velocity": 0.5433070866141733,
          "duration": 0.011627906976741542
        },
        {
          "name": "C7",
          "midi": 96,
          "time": 89.70930232557309,
          "velocity": 0.13385826771653545,
          "duration": 0.10465116279067388
        },
        {
          "name": "D7",
          "midi": 98,
          "time": 89.70930232557309,
          "velocity": 0.2047244094488189,
          "duration": 0.2209302325580893
        },
        {
          "name": "G7",
          "midi": 103,
          "time": 89.70930232557309,
          "velocity": 0.07874015748031496,
          "duration": 0.09302325581393234
        },
        {
          "name": "F2",
          "midi": 41,
          "time": 89.72093023254983,
          "velocity": 0.5196850393700787,
          "duration": 0.011627906976741542
        },
        {
          "name": "E3",
          "midi": 52,
          "time": 89.72093023254983,
          "velocity": 0.4251968503937008,
          "duration": 0.06976744186044925
        },
        {
          "name": "D#2",
          "midi": 39,
          "time": 89.73255813952657,
          "velocity": 0.4409448818897638,
          "duration": 0.034883720930224626
        },
        {
          "name": "E7",
          "midi": 100,
          "time": 89.73255813952657,
          "velocity": 0.07874015748031496,
          "duration": 0.034883720930224626
        },
        {
          "name": "F#7",
          "midi": 102,
          "time": 89.73255813952657,
          "velocity": 0.28346456692913385,
          "duration": 0.8604651162788741
        },
        {
          "name": "F#5",
          "midi": 78,
          "time": 89.74418604650332,
          "velocity": 0.2992125984251969,
          "duration": 0.39534883720921243
        },
        {
          "name": "E2",
          "midi": 40,
          "time": 89.7674418604568,
          "velocity": 0.3937007874015748,
          "duration": 0.023255813953483084
        },
        {
          "name": "B4",
          "midi": 71,
          "time": 89.7674418604568,
          "velocity": 0.3700787401574803,
          "duration": 0.3023255813952801
        },
        {
          "name": "D#6",
          "midi": 87,
          "time": 89.77906976743354,
          "velocity": 0.10236220472440945,
          "duration": 0.05813953488370771
        },
        {
          "name": "C#7",
          "midi": 97,
          "time": 89.77906976743354,
          "velocity": 0.2755905511811024,
          "duration": 0.1627906976743816
        },
        {
          "name": "F7",
          "midi": 101,
          "time": 89.77906976743354,
          "velocity": 0.11023622047244094,
          "duration": 0.05813953488370771
        },
        {
          "name": "F#2",
          "midi": 42,
          "time": 89.80232558138702,
          "velocity": 0.4330708661417323,
          "duration": 0.034883720930224626
        },
        {
          "name": "G7",
          "midi": 103,
          "time": 89.81395348836377,
          "velocity": 0.11811023622047244,
          "duration": 0.034883720930224626
        },
        {
          "name": "E4",
          "midi": 64,
          "time": 89.84883720929399,
          "velocity": 0.29133858267716534,
          "duration": 0.1395348837208985
        },
        {
          "name": "D5",
          "midi": 74,
          "time": 89.84883720929399,
          "velocity": 0.14960629921259844,
          "duration": 0.05813953488370771
        },
        {
          "name": "A5",
          "midi": 81,
          "time": 89.84883720929399,
          "velocity": 0.28346456692913385,
          "duration": 0.3023255813952801
        },
        {
          "name": "C7",
          "midi": 96,
          "time": 89.86046511627073,
          "velocity": 0.11811023622047244,
          "duration": 0.0813953488371908
        },
        {
          "name": "D#7",
          "midi": 99,
          "time": 89.86046511627073,
          "velocity": 0.2440944881889764,
          "duration": 0.17441860465112313
        },
        {
          "name": "F#2",
          "midi": 42,
          "time": 89.87209302324747,
          "velocity": 0.5433070866141733,
          "duration": 0.011627906976741542
        },
        {
          "name": "F2",
          "midi": 41,
          "time": 89.88372093022421,
          "velocity": 0.5748031496062992,
          "duration": 0.034883720930224626
        },
        {
          "name": "F7",
          "midi": 101,
          "time": 89.89534883720096,
          "velocity": 0.1889763779527559,
          "duration": 0.10465116279067388
        },
        {
          "name": "G#6",
          "midi": 92,
          "time": 89.9069767441777,
          "velocity": 0.10236220472440945,
          "duration": 0.04651162790696617
        },
        {
          "name": "E3",
          "midi": 52,
          "time": 89.91860465115444,
          "velocity": 0.3543307086614173,
          "duration": 0.06976744186044925
        },
        {
          "name": "D5",
          "midi": 74,
          "time": 89.93023255813118,
          "velocity": 0.2125984251968504,
          "duration": 0.10465116279067388
        },
        {
          "name": "A#6",
          "midi": 94,
          "time": 89.93023255813118,
          "velocity": 0.14960629921259844,
          "duration": 0.09302325581393234
        },
        {
          "name": "F2",
          "midi": 41,
          "time": 89.9651162790614,
          "velocity": 0.3228346456692913,
          "duration": 0.023255813953483084
        },
        {
          "name": "D7",
          "midi": 98,
          "time": 89.9651162790614,
          "velocity": 0.1968503937007874,
          "duration": 0.23255813953483084
        },
        {
          "name": "E7",
          "midi": 100,
          "time": 89.9651162790614,
          "velocity": 0.2047244094488189,
          "duration": 0.15116279069764005
        },
        {
          "name": "C#7",
          "midi": 97,
          "time": 89.97674418603815,
          "velocity": 0.1889763779527559,
          "duration": 0.04651162790696617
        },
        {
          "name": "E2",
          "midi": 40,
          "time": 89.99999999999163,
          "velocity": 0.2677165354330709,
          "duration": 0.05813953488370771
        },
        {
          "name": "E4",
          "midi": 64,
          "time": 89.99999999999163,
          "velocity": 0.31496062992125984,
          "duration": 0.29069767441853855
        },
        {
          "name": "C7",
          "midi": 96,
          "time": 90.01162790696837,
          "velocity": 0.2283464566929134,
          "duration": 0.04651162790696617
        },
        {
          "name": "A#6",
          "midi": 94,
          "time": 90.03488372092185,
          "velocity": 0.11811023622047244,
          "duration": 0.034883720930224626
        },
        {
          "name": "F7",
          "midi": 101,
          "time": 90.03488372092185,
          "velocity": 0.16535433070866143,
          "duration": 0.279069767441797
        },
        {
          "name": "C#7",
          "midi": 97,
          "time": 90.05813953487534,
          "velocity": 0.23622047244094488,
          "duration": 0.29069767441853855
        },
        {
          "name": "B3",
          "midi": 59,
          "time": 90.06976744185208,
          "velocity": 0.30708661417322836,
          "duration": 0.05813953488370771
        },
        {
          "name": "B4",
          "midi": 71,
          "time": 90.08139534882882,
          "velocity": 0.3228346456692913,
          "duration": 0.19767441860460622
        },
        {
          "name": "D#7",
          "midi": 99,
          "time": 90.08139534882882,
          "velocity": 0.12598425196850394,
          "duration": 0.05813953488370771
        },
        {
          "name": "F3",
          "midi": 53,
          "time": 90.09302325580556,
          "velocity": 0.3543307086614173,
          "duration": 0.023255813953483084
        },
        {
          "name": "D6",
          "midi": 86,
          "time": 90.1046511627823,
          "velocity": 0.09448818897637795,
          "duration": 0.034883720930224626
        },
        {
          "name": "C7",
          "midi": 96,
          "time": 90.1046511627823,
          "velocity": 0.1968503937007874,
          "duration": 0.05813953488370771
        },
        {
          "name": "F#3",
          "midi": 54,
          "time": 90.11627906975905,
          "velocity": 0.3228346456692913,
          "duration": 0.023255813953483084
        },
        {
          "name": "D#6",
          "midi": 87,
          "time": 90.12790697673579,
          "velocity": 0.10236220472440945,
          "duration": 0.0813953488371908
        },
        {
          "name": "B3",
          "midi": 59,
          "time": 90.13953488371253,
          "velocity": 0.3700787401574803,
          "duration": 0.12790697674415696
        },
        {
          "name": "D5",
          "midi": 74,
          "time": 90.15116279068927,
          "velocity": 0.13385826771653545,
          "duration": 0.034883720930224626
        },
        {
          "name": "F#2",
          "midi": 42,
          "time": 90.20930232557298,
          "velocity": 0.5196850393700787,
          "duration": 0.011627906976741542
        },
        {
          "name": "D7",
          "midi": 98,
          "time": 90.20930232557298,
          "velocity": 0.2204724409448819,
          "duration": 0.24418604651157239
        },
        {
          "name": "F2",
          "midi": 41,
          "time": 90.22093023254972,
          "velocity": 0.5196850393700787,
          "duration": 0.011627906976741542
        },
        {
          "name": "D#7",
          "midi": 99,
          "time": 90.22093023254972,
          "velocity": 0.13385826771653545,
          "duration": 0.12790697674415696
        },
        {
          "name": "E2",
          "midi": 40,
          "time": 90.23255813952646,
          "velocity": 0.4645669291338583,
          "duration": 0.023255813953483084
        },
        {
          "name": "D#6",
          "midi": 87,
          "time": 90.23255813952646,
          "velocity": 0.12598425196850394,
          "duration": 0.04651162790696617
        },
        {
          "name": "D6",
          "midi": 86,
          "time": 90.2441860465032,
          "velocity": 0.08661417322834646,
          "duration": 0.04651162790696617
        },
        {
          "name": "D5",
          "midi": 74,
          "time": 90.25581395347994,
          "velocity": 0.1968503937007874,
          "duration": 0.0813953488371908
        },
        {
          "name": "F#6",
          "midi": 90,
          "time": 90.25581395347994,
          "velocity": 0.2047244094488189,
          "duration": 0.4999999999998863
        },
        {
          "name": "G2",
          "midi": 43,
          "time": 90.27906976743343,
          "velocity": 0.5511811023622047,
          "duration": 0.011627906976741542
        },
        {
          "name": "G#4",
          "midi": 68,
          "time": 90.27906976743343,
          "velocity": 0.29133858267716534,
          "duration": 0.09302325581393234
        },
        {
          "name": "C7",
          "midi": 96,
          "time": 90.27906976743343,
          "velocity": 0.14960629921259844,
          "duration": 0.04651162790696617
        },
        {
          "name": "G#2",
          "midi": 44,
          "time": 90.29069767441017,
          "velocity": 0.5826771653543307,
          "duration": 0.011627906976741542
        },
        {
          "name": "B3",
          "midi": 59,
          "time": 90.29069767441017,
          "velocity": 0.3779527559055118,
          "duration": 0.1627906976743816
        },
        {
          "name": "D3",
          "midi": 50,
          "time": 90.30232558138691,
          "velocity": 0.5748031496062992,
          "duration": 0.011627906976741542
        },
        {
          "name": "E4",
          "midi": 64,
          "time": 90.30232558138691,
          "velocity": 0.36220472440944884,
          "duration": 0.2558139534883139
        },
        {
          "name": "E7",
          "midi": 100,
          "time": 90.30232558138691,
          "velocity": 0.14960629921259844,
          "duration": 0.034883720930224626
        },
        {
          "name": "F2",
          "midi": 41,
          "time": 90.31395348836365,
          "velocity": 0.47244094488188976,
          "duration": 0.023255813953483084
        },
        {
          "name": "E3",
          "midi": 52,
          "time": 90.31395348836365,
          "velocity": 0.5433070866141733,
          "duration": 0.06976744186044925
        },
        {
          "name": "F2",
          "midi": 41,
          "time": 90.34883720929388,
          "velocity": 0.5039370078740157,
          "duration": 0.023255813953483084
        },
        {
          "name": "G4",
          "midi": 67,
          "time": 90.37209302324736,
          "velocity": 0.3464566929133858,
          "duration": 0.4651162790696759
        },
        {
          "name": "F3",
          "midi": 53,
          "time": 90.3837209302241,
          "velocity": 0.5275590551181102,
          "duration": 0.011627906976741542
        },
        {
          "name": "E3",
          "midi": 52,
          "time": 90.39534883720084,
          "velocity": 0.5118110236220472,
          "duration": 0.023255813953483084
        },
        {
          "name": "A5",
          "midi": 81,
          "time": 90.41860465115433,
          "velocity": 0.07086614173228346,
          "duration": 0.034883720930224626
        },
        {
          "name": "D6",
          "midi": 86,
          "time": 90.43023255813107,
          "velocity": 0.14173228346456693,
          "duration": 0.09302325581393234
        },
        {
          "name": "C7",
          "midi": 96,
          "time": 90.45348837208455,
          "velocity": 0.2047244094488189,
          "duration": 0.11627906976741542
        },
        {
          "name": "C6",
          "midi": 84,
          "time": 90.47674418603803,
          "velocity": 0.09448818897637795,
          "duration": 0.034883720930224626
        },
        {
          "name": "E2",
          "midi": 40,
          "time": 90.49999999999152,
          "velocity": 0.5354330708661418,
          "duration": 0.011627906976741542
        },
        {
          "name": "F#5",
          "midi": 78,
          "time": 90.49999999999152,
          "velocity": 0.2440944881889764,
          "duration": 0.023255813953483084
        },
        {
          "name": "C#7",
          "midi": 97,
          "time": 90.49999999999152,
          "velocity": 0.1732283464566929,
          "duration": 0.04651162790696617
        },
        {
          "name": "G#2",
          "midi": 44,
          "time": 90.51162790696826,
          "velocity": 0.44881889763779526,
          "duration": 0.023255813953483084
        },
        {
          "name": "E7",
          "midi": 100,
          "time": 90.51162790696826,
          "velocity": 0.07086614173228346,
          "duration": 0.034883720930224626
        },
        {
          "name": "A#3",
          "midi": 58,
          "time": 90.523255813945,
          "velocity": 0.3228346456692913,
          "duration": 0.023255813953483084
        },
        {
          "name": "F#2",
          "midi": 42,
          "time": 90.53488372092174,
          "velocity": 0.49606299212598426,
          "duration": 0.023255813953483084
        },
        {
          "name": "D5",
          "midi": 74,
          "time": 90.53488372092174,
          "velocity": 0.18110236220472442,
          "duration": 0.24418604651157239
        },
        {
          "name": "D7",
          "midi": 98,
          "time": 90.53488372092174,
          "velocity": 0.13385826771653545,
          "duration": 0.034883720930224626
        },
        {
          "name": "B3",
          "midi": 59,
          "time": 90.54651162789848,
          "velocity": 0.3228346456692913,
          "duration": 0.034883720930224626
        },
        {
          "name": "F#5",
          "midi": 78,
          "time": 90.54651162789848,
          "velocity": 0.33858267716535434,
          "duration": 0.10465116279067388
        },
        {
          "name": "E3",
          "midi": 52,
          "time": 90.56976744185197,
          "velocity": 0.5590551181102362,
          "duration": 0.034883720930224626
        },
        {
          "name": "D7",
          "midi": 98,
          "time": 90.5813953488287,
          "velocity": 0.30708661417322836,
          "duration": 0.43023255813945127
        },
        {
          "name": "A#6",
          "midi": 94,
          "time": 90.59302325580545,
          "velocity": 0.3228346456692913,
          "duration": 0.15116279069764005
        },
        {
          "name": "F7",
          "midi": 101,
          "time": 90.59302325580545,
          "velocity": 0.18110236220472442,
          "duration": 0.09302325581393234
        },
        {
          "name": "F3",
          "midi": 53,
          "time": 90.60465116278219,
          "velocity": 0.5196850393700787,
          "duration": 0.011627906976741542
        },
        {
          "name": "B3",
          "midi": 59,
          "time": 90.60465116278219,
          "velocity": 0.29133858267716534,
          "duration": 0.09302325581393234
        },
        {
          "name": "E4",
          "midi": 64,
          "time": 90.60465116278219,
          "velocity": 0.2047244094488189,
          "duration": 0.10465116279067388
        },
        {
          "name": "E7",
          "midi": 100,
          "time": 90.60465116278219,
          "velocity": 0.09448818897637795,
          "duration": 0.04651162790696617
        },
        {
          "name": "D#3",
          "midi": 51,
          "time": 90.61627906975893,
          "velocity": 0.5196850393700787,
          "duration": 0.011627906976741542
        },
        {
          "name": "E3",
          "midi": 52,
          "time": 90.62790697673567,
          "velocity": 0.5118110236220472,
          "duration": 0.011627906976741542
        },
        {
          "name": "F3",
          "midi": 53,
          "time": 90.63953488371241,
          "velocity": 0.5196850393700787,
          "duration": 0.011627906976741542
        },
        {
          "name": "E3",
          "midi": 52,
          "time": 90.65116279068916,
          "velocity": 0.5039370078740157,
          "duration": 0.04651162790696617
        },
        {
          "name": "C7",
          "midi": 96,
          "time": 90.65116279068916,
          "velocity": 0.16535433070866143,
          "duration": 0.05813953488370771
        },
        {
          "name": "E2",
          "midi": 40,
          "time": 90.6627906976659,
          "velocity": 0.5433070866141733,
          "duration": 0.034883720930224626
        },
        {
          "name": "E7",
          "midi": 100,
          "time": 90.68604651161938,
          "velocity": 0.18110236220472442,
          "duration": 0.0813953488371908
        },
        {
          "name": "G#2",
          "midi": 44,
          "time": 90.69767441859612,
          "velocity": 0.5433070866141733,
          "duration": 0.011627906976741542
        },
        {
          "name": "A6",
          "midi": 93,
          "time": 90.69767441859612,
          "velocity": 0.2204724409448819,
          "duration": 0.034883720930224626
        },
        {
          "name": "E3",
          "midi": 52,
          "time": 90.70930232557286,
          "velocity": 0.3700787401574803,
          "duration": 0.023255813953483084
        },
        {
          "name": "A5",
          "midi": 81,
          "time": 90.70930232557286,
          "velocity": 0.30708661417322836,
          "duration": 0.37209302325574356
        },
        {
          "name": "C#7",
          "midi": 97,
          "time": 90.7209302325496,
          "velocity": 0.23622047244094488,
          "duration": 0.3023255813952943
        },
        {
          "name": "A#4",
          "midi": 70,
          "time": 90.73255813952635,
          "velocity": 0.2440944881889764,
          "duration": 0.023255813953483084
        },
        {
          "name": "F#5",
          "midi": 78,
          "time": 90.73255813952635,
          "velocity": 0.3543307086614173,
          "duration": 0.2674418604650697
        },
        {
          "name": "D#7",
          "midi": 99,
          "time": 90.73255813952635,
          "velocity": 0.2125984251968504,
          "duration": 0.23255813953484505
        },
        {
          "name": "F#2",
          "midi": 42,
          "time": 90.75581395347983,
          "velocity": 0.4645669291338583,
          "duration": 0.034883720930224626
        },
        {
          "name": "G7",
          "midi": 103,
          "time": 90.75581395347983,
          "velocity": 0.07874015748031496,
          "duration": 0.034883720930224626
        },
        {
          "name": "F3",
          "midi": 53,
          "time": 90.76744186045657,
          "velocity": 0.3543307086614173,
          "duration": 0.023255813953483084
        },
        {
          "name": "C5",
          "midi": 72,
          "time": 90.76744186045657,
          "velocity": 0.14173228346456693,
          "duration": 0.05813953488372192
        },
        {
          "name": "D#6",
          "midi": 87,
          "time": 90.76744186045657,
          "velocity": 0.11023622047244094,
          "duration": 0.18604651162787889
        },
        {
          "name": "F7",
          "midi": 101,
          "time": 90.76744186045657,
          "velocity": 0.14173228346456693,
          "duration": 0.15116279069765426
        },
        {
          "name": "B3",
          "midi": 59,
          "time": 90.79069767441005,
          "velocity": 0.29133858267716534,
          "duration": 0.081395348837205
        },
        {
          "name": "A#6",
          "midi": 94,
          "time": 90.79069767441005,
          "velocity": 0.11811023622047244,
          "duration": 0.06976744186046346
        },
        {
          "name": "C7",
          "midi": 96,
          "time": 90.79069767441005,
          "velocity": 0.11811023622047244,
          "duration": 0.06976744186046346
        },
        {
          "name": "E7",
          "midi": 100,
          "time": 90.8255813953403,
          "velocity": 0.07086614173228346,
          "duration": 0.04651162790696617
        },
        {
          "name": "F3",
          "midi": 53,
          "time": 90.83720930231704,
          "velocity": 0.3937007874015748,
          "duration": 0.04651162790696617
        },
        {
          "name": "G4",
          "midi": 67,
          "time": 90.84883720929378,
          "velocity": 0.28346456692913385,
          "duration": 0.06976744186044925
        },
        {
          "name": "D6",
          "midi": 86,
          "time": 90.84883720929378,
          "velocity": 0.14173228346456693,
          "duration": 0.05813953488370771
        },
        {
          "name": "B6",
          "midi": 95,
          "time": 90.84883720929378,
          "velocity": 0.11811023622047244,
          "duration": 0.034883720930224626
        },
        {
          "name": "F2",
          "midi": 41,
          "time": 90.86046511627052,
          "velocity": 0.5118110236220472,
          "duration": 0.023255813953483084
        },
        {
          "name": "D5",
          "midi": 74,
          "time": 90.87209302324726,
          "velocity": 0.12598425196850394,
          "duration": 0.05813953488370771
        },
        {
          "name": "G7",
          "midi": 103,
          "time": 90.87209302324726,
          "velocity": 0.07874015748031496,
          "duration": 0.04651162790696617
        },
        {
          "name": "E2",
          "midi": 40,
          "time": 90.883720930224,
          "velocity": 0.4094488188976378,
          "duration": 0.023255813953483084
        },
        {
          "name": "G3",
          "midi": 55,
          "time": 90.89534883720074,
          "velocity": 0.30708661417322836,
          "duration": 0.023255813953483084
        },
        {
          "name": "D3",
          "midi": 50,
          "time": 90.90697674417748,
          "velocity": 0.33858267716535434,
          "duration": 0.023255813953483084
        },
        {
          "name": "B6",
          "midi": 95,
          "time": 90.90697674417748,
          "velocity": 0.33858267716535434,
          "duration": 0.4999999999998863
        },
        {
          "name": "C6",
          "midi": 84,
          "time": 90.91860465115423,
          "velocity": 0.12598425196850394,
          "duration": 0.05813953488370771
        },
        {
          "name": "G6",
          "midi": 91,
          "time": 90.91860465115423,
          "velocity": 0.16535433070866143,
          "duration": 0.11627906976741542
        },
        {
          "name": "G#2",
          "midi": 44,
          "time": 90.93023255813097,
          "velocity": 0.5196850393700787,
          "duration": 0.011627906976741542
        },
        {
          "name": "G4",
          "midi": 67,
          "time": 90.93023255813097,
          "velocity": 0.5039370078740157,
          "duration": 0.24418604651157239
        },
        {
          "name": "B4",
          "midi": 71,
          "time": 90.93023255813097,
          "velocity": 0.33858267716535434,
          "duration": 0.11627906976741542
        },
        {
          "name": "A#6",
          "midi": 94,
          "time": 90.93023255813097,
          "velocity": 0.1732283464566929,
          "duration": 0.09302325581393234
        },
        {
          "name": "C7",
          "midi": 96,
          "time": 90.93023255813097,
          "velocity": 0.14173228346456693,
          "duration": 0.09302325581393234
        },
        {
          "name": "E7",
          "midi": 100,
          "time": 90.93023255813097,
          "velocity": 0.14960629921259844,
          "duration": 0.04651162790696617
        },
        {
          "name": "D3",
          "midi": 50,
          "time": 90.94186046510771,
          "velocity": 0.5826771653543307,
          "duration": 0.011627906976741542
        },
        {
          "name": "E5",
          "midi": 76,
          "time": 90.94186046510771,
          "velocity": 0.2755905511811024,
          "duration": 0.11627906976741542
        },
        {
          "name": "E3",
          "midi": 52,
          "time": 90.95348837208445,
          "velocity": 0.6062992125984252,
          "duration": 0.10465116279067388
        },
        {
          "name": "B3",
          "midi": 59,
          "time": 90.95348837208445,
          "velocity": 0.4645669291338583,
          "duration": 0.11627906976741542
        },
        {
          "name": "C#6",
          "midi": 85,
          "time": 90.97674418603793,
          "velocity": 0.16535433070866143,
          "duration": 0.17441860465112313
        },
        {
          "name": "D#7",
          "midi": 99,
          "time": 90.97674418603793,
          "velocity": 0.25196850393700787,
          "duration": 0.24418604651157239
        },
        {
          "name": "F2",
          "midi": 41,
          "time": 90.99999999999142,
          "velocity": 0.5433070866141733,
          "duration": 0.011627906976741542
        },
        {
          "name": "E2",
          "midi": 40,
          "time": 91.01162790696816,
          "velocity": 0.5354330708661418,
          "duration": 0.011627906976741542
        },
        {
          "name": "F2",
          "midi": 41,
          "time": 91.0232558139449,
          "velocity": 0.5196850393700787,
          "duration": 0.023255813953483084
        },
        {
          "name": "B2",
          "midi": 47,
          "time": 91.03488372092164,
          "velocity": 0.5039370078740157,
          "duration": 0.023255813953483084
        },
        {
          "name": "D7",
          "midi": 98,
          "time": 91.04651162789838,
          "velocity": 0.1889763779527559,
          "duration": 0.2209302325580893
        },
        {
          "name": "A#3",
          "midi": 58,
          "time": 91.06976744185187,
          "velocity": 0.29133858267716534,
          "duration": 0.023255813953483084
        },
        {
          "name": "B5",
          "midi": 83,
          "time": 91.06976744185187,
          "velocity": 0.12598425196850394,
          "duration": 0.05813953488370771
        },
        {
          "name": "E3",
          "midi": 52,
          "time": 91.09302325580535,
          "velocity": 0.2992125984251969,
          "duration": 0.04651162790696617
        },
        {
          "name": "A3",
          "midi": 57,
          "time": 91.09302325580535,
          "velocity": 0.25196850393700787,
          "duration": 0.034883720930224626
        },
        {
          "name": "B4",
          "midi": 71,
          "time": 91.09302325580535,
          "velocity": 0.25984251968503935,
          "duration": 0.04651162790696617
        },
        {
          "name": "E7",
          "midi": 100,
          "time": 91.09302325580535,
          "velocity": 0.2755905511811024,
          "duration": 0.31395348837202164
        },
        {
          "name": "F2",
          "midi": 41,
          "time": 91.10465116278209,
          "velocity": 0.25984251968503935,
          "duration": 0.023255813953483084
        },
        {
          "name": "G7",
          "midi": 103,
          "time": 91.10465116278209,
          "velocity": 0.18110236220472442,
          "duration": 0.10465116279067388
        },
        {
          "name": "E5",
          "midi": 76,
          "time": 91.12790697673557,
          "velocity": 0.2677165354330709,
          "duration": 0.05813953488370771
        },
        {
          "name": "C3",
          "midi": 48,
          "time": 91.13953488371232,
          "velocity": 0.5669291338582677,
          "duration": 0.023255813953483084
        },
        {
          "name": "D5",
          "midi": 74,
          "time": 91.13953488371232,
          "velocity": 0.2440944881889764,
          "duration": 0.023255813953483084
        },
        {
          "name": "F#5",
          "midi": 78,
          "time": 91.13953488371232,
          "velocity": 0.3858267716535433,
          "duration": 0.1627906976743816
        },
        {
          "name": "A6",
          "midi": 93,
          "time": 91.13953488371232,
          "velocity": 0.09448818897637795,
          "duration": 0.04651162790696617
        },
        {
          "name": "A#3",
          "midi": 58,
          "time": 91.15116279068906,
          "velocity": 0.47244094488188976,
          "duration": 0.023255813953483084
        },
        {
          "name": "C6",
          "midi": 84,
          "time": 91.15116279068906,
          "velocity": 0.12598425196850394,
          "duration": 0.04651162790696617
        },
        {
          "name": "A#6",
          "midi": 94,
          "time": 91.15116279068906,
          "velocity": 0.2125984251968504,
          "duration": 0.06976744186044925
        },
        {
          "name": "C#7",
          "midi": 97,
          "time": 91.15116279068906,
          "velocity": 0.2125984251968504,
          "duration": 0.10465116279067388
        },
        {
          "name": "D3",
          "midi": 50,
          "time": 91.1627906976658,
          "velocity": 0.5354330708661418,
          "duration": 0.011627906976741542
        },
        {
          "name": "A3",
          "midi": 57,
          "time": 91.1627906976658,
          "velocity": 0.3937007874015748,
          "duration": 0.023255813953483084
        },
        {
          "name": "B4",
          "midi": 71,
          "time": 91.1627906976658,
          "velocity": 0.3937007874015748,
          "duration": 0.3255813953487632
        },
        {
          "name": "C#6",
          "midi": 85,
          "time": 91.1627906976658,
          "velocity": 0.2047244094488189,
          "duration": 0.279069767441797
        },
        {
          "name": "E2",
          "midi": 40,
          "time": 91.17441860464254,
          "velocity": 0.44881889763779526,
          "duration": 0.023255813953483084
        },
        {
          "name": "E3",
          "midi": 52,
          "time": 91.17441860464254,
          "velocity": 0.4881889763779528,
          "duration": 0.023255813953483084
        },
        {
          "name": "G#4",
          "midi": 68,
          "time": 91.17441860464254,
          "velocity": 0.2677165354330709,
          "duration": 0.0813953488371908
        },
        {
          "name": "D#5",
          "midi": 75,
          "time": 91.17441860464254,
          "velocity": 0.36220472440944884,
          "duration": 0.04651162790696617
        },
        {
          "name": "F4",
          "midi": 65,
          "time": 91.18604651161928,
          "velocity": 0.25196850393700787,
          "duration": 0.06976744186044925
        },
        {
          "name": "D#3",
          "midi": 51,
          "time": 91.19767441859602,
          "velocity": 0.5118110236220472,
          "duration": 0.011627906976741542
        },
        {
          "name": "E2",
          "midi": 40,
          "time": 91.20930232557276,
          "velocity": 0.49606299212598426,
          "duration": 0.034883720930224626
        },
        {
          "name": "E3",
          "midi": 52,
          "time": 91.20930232557276,
          "velocity": 0.5511811023622047,
          "duration": 0.05813953488370771
        },
        {
          "name": "E5",
          "midi": 76,
          "time": 91.2209302325495,
          "velocity": 0.4094488188976378,
          "duration": 0.24418604651157239
        },
        {
          "name": "B3",
          "midi": 59,
          "time": 91.23255813952625,
          "velocity": 0.36220472440944884,
          "duration": 0.023255813953483084
        },
        {
          "name": "B2",
          "midi": 47,
          "time": 91.25581395347973,
          "velocity": 0.5118110236220472,
          "duration": 0.011627906976741542
        },
        {
          "name": "A#3",
          "midi": 58,
          "time": 91.25581395347973,
          "velocity": 0.4094488188976378,
          "duration": 0.023255813953483084
        },
        {
          "name": "F3",
          "midi": 53,
          "time": 91.26744186045647,
          "velocity": 0.5511811023622047,
          "duration": 0.011627906976741542
        },
        {
          "name": "E3",
          "midi": 52,
          "time": 91.27906976743321,
          "velocity": 0.5669291338582677,
          "duration": 0.023255813953483084
        },
        {
          "name": "F3",
          "midi": 53,
          "time": 91.3023255813867,
          "velocity": 0.5433070866141733,
          "duration": 0.011627906976741542
        },
        {
          "name": "G4",
          "midi": 67,
          "time": 91.3023255813867,
          "velocity": 0.30708661417322836,
          "duration": 0.023255813953483084
        },
        {
          "name": "B2",
          "midi": 47,
          "time": 91.31395348836344,
          "velocity": 0.5511811023622047,
          "duration": 0.034883720930224626
        },
        {
          "name": "F#4",
          "midi": 66,
          "time": 91.32558139534018,
          "velocity": 0.2755905511811024,
          "duration": 0.034883720930224626
        },
        {
          "name": "F#5",
          "midi": 78,
          "time": 91.32558139534018,
          "velocity": 0.5118110236220472,
          "duration": 0.279069767441797
        },
        {
          "name": "C3",
          "midi": 48,
          "time": 91.34883720929366,
          "velocity": 0.5275590551181102,
          "duration": 0.011627906976741542
        },
        {
          "name": "A6",
          "midi": 93,
          "time": 91.34883720929366,
          "velocity": 0.11811023622047244,
          "duration": 0.09302325581393234
        },
        {
          "name": "D7",
          "midi": 98,
          "time": 91.34883720929366,
          "velocity": 0.29133858267716534,
          "duration": 0.7674418604649418
        },
        {
          "name": "G7",
          "midi": 103,
          "time": 91.34883720929366,
          "velocity": 0.15748031496062992,
          "duration": 0.034883720930224626
        },
        {
          "name": "F2",
          "midi": 41,
          "time": 91.3604651162704,
          "velocity": 0.5669291338582677,
          "duration": 0.023255813953483084
        },
        {
          "name": "G4",
          "midi": 67,
          "time": 91.3604651162704,
          "velocity": 0.36220472440944884,
          "duration": 0.17441860465112313
        },
        {
          "name": "C#7",
          "midi": 97,
          "time": 91.3604651162704,
          "velocity": 0.33858267716535434,
          "duration": 0.7209302325579756
        },
        {
          "name": "D#7",
          "midi": 99,
          "time": 91.3604651162704,
          "velocity": 0.14173228346456693,
          "duration": 0.05813953488370771
        },
        {
          "name": "D6",
          "midi": 86,
          "time": 91.37209302324715,
          "velocity": 0.18110236220472442,
          "duration": 0.04651162790696617
        },
        {
          "name": "G#2",
          "midi": 44,
          "time": 91.38372093022389,
          "velocity": 0.5905511811023622,
          "duration": 0.011627906976741542
        },
        {
          "name": "F2",
          "midi": 41,
          "time": 91.39534883720063,
          "velocity": 0.5511811023622047,
          "duration": 0.011627906976741542
        },
        {
          "name": "E2",
          "midi": 40,
          "time": 91.40697674417737,
          "velocity": 0.5354330708661418,
          "duration": 0.023255813953483084
        },
        {
          "name": "C7",
          "midi": 96,
          "time": 91.40697674417737,
          "velocity": 0.10236220472440945,
          "duration": 0.04651162790696617
        },
        {
          "name": "F7",
          "midi": 101,
          "time": 91.40697674417737,
          "velocity": 0.14960629921259844,
          "duration": 0.1627906976743816
        },
        {
          "name": "B2",
          "midi": 47,
          "time": 91.41860465115411,
          "velocity": 0.5511811023622047,
          "duration": 0.023255813953483084
        },
        {
          "name": "A5",
          "midi": 81,
          "time": 91.41860465115411,
          "velocity": 0.07874015748031496,
          "duration": 0.04651162790696617
        },
        {
          "name": "A#3",
          "midi": 58,
          "time": 91.43023255813085,
          "velocity": 0.2204724409448819,
          "duration": 0.034883720930224626
        },
        {
          "name": "F#2",
          "midi": 42,
          "time": 91.4418604651076,
          "velocity": 0.5039370078740157,
          "duration": 0.023255813953483084
        },
        {
          "name": "E4",
          "midi": 64,
          "time": 91.4418604651076,
          "velocity": 0.11023622047244094,
          "duration": 0.034883720930224626
        },
        {
          "name": "D6",
          "midi": 86,
          "time": 91.4418604651076,
          "velocity": 0.13385826771653545,
          "duration": 0.04651162790696617
        },
        {
          "name": "D#7",
          "midi": 99,
          "time": 91.4418604651076,
          "velocity": 0.10236220472440945,
          "duration": 0.034883720930224626
        },
        {
          "name": "C#6",
          "midi": 85,
          "time": 91.46511627906108,
          "velocity": 0.11811023622047244,
          "duration": 0.09302325581393234
        },
        {
          "name": "D#6",
          "midi": 87,
          "time": 91.46511627906108,
          "velocity": 0.11023622047244094,
          "duration": 0.09302325581393234
        },
        {
          "name": "E7",
          "midi": 100,
          "time": 91.47674418603782,
          "velocity": 0.14173228346456693,
          "duration": 0.06976744186044925
        },
        {
          "name": "E2",
          "midi": 40,
          "time": 91.48837209301456,
          "velocity": 0.5196850393700787,
          "duration": 0.011627906976741542
        },
        {
          "name": "F2",
          "midi": 41,
          "time": 91.4999999999913,
          "velocity": 0.5433070866141733,
          "duration": 0.011627906976741542
        },
        {
          "name": "E2",
          "midi": 40,
          "time": 91.51162790696804,
          "velocity": 0.5118110236220472,
          "duration": 0.023255813953483084
        },
        {
          "name": "C4",
          "midi": 60,
          "time": 91.51162790696804,
          "velocity": 0.18110236220472442,
          "duration": 0.04651162790696617
        },
        {
          "name": "E3",
          "midi": 52,
          "time": 91.52325581394479,
          "velocity": 0.5354330708661418,
          "duration": 0.09302325581393234
        },
        {
          "name": "G7",
          "midi": 103,
          "time": 91.52325581394479,
          "velocity": 0.13385826771653545,
          "duration": 0.1627906976743816
        },
        {
          "name": "F2",
          "midi": 41,
          "time": 91.53488372092153,
          "velocity": 0.5118110236220472,
          "duration": 0.06976744186044925
        },
        {
          "name": "D#7",
          "midi": 99,
          "time": 91.54651162789827,
          "velocity": 0.25984251968503935,
          "duration": 0.8255813953486495
        },
        {
          "name": "E5",
          "midi": 76,
          "time": 91.56976744185175,
          "velocity": 0.14960629921259844,
          "duration": 0.034883720930224626
        },
        {
          "name": "G4",
          "midi": 67,
          "time": 91.5813953488285,
          "velocity": 0.2755905511811024,
          "duration": 0.023255813953483084
        },
        {
          "name": "D5",
          "midi": 74,
          "time": 91.5813953488285,
          "velocity": 0.15748031496062992,
          "duration": 0.04651162790696617
        },
        {
          "name": "G6",
          "midi": 91,
          "time": 91.5813953488285,
          "velocity": 0.4409448818897638,
          "duration": 0.3255813953487632
        },
        {
          "name": "E7",
          "midi": 100,
          "time": 91.5813953488285,
          "velocity": 0.18110236220472442,
          "duration": 0.12790697674415696
        },
        {
          "name": "B4",
          "midi": 71,
          "time": 91.59302325580524,
          "velocity": 0.33070866141732286,
          "duration": 0.19767441860460622
        },
        {
          "name": "G5",
          "midi": 79,
          "time": 91.59302325580524,
          "velocity": 0.4645669291338583,
          "duration": 0.20930232558134776
        },
        {
          "name": "C7",
          "midi": 96,
          "time": 91.59302325580524,
          "velocity": 0.12598425196850394,
          "duration": 0.04651162790696617
        },
        {
          "name": "F7",
          "midi": 101,
          "time": 91.59302325580524,
          "velocity": 0.2440944881889764,
          "duration": 0.2558139534883139
        },
        {
          "name": "F#4",
          "midi": 66,
          "time": 91.60465116278198,
          "velocity": 0.2283464566929134,
          "duration": 0.023255813953483084
        },
        {
          "name": "E4",
          "midi": 64,
          "time": 91.61627906975872,
          "velocity": 0.2047244094488189,
          "duration": 0.10465116279067388
        },
        {
          "name": "F2",
          "midi": 41,
          "time": 91.62790697673546,
          "velocity": 0.48031496062992124,
          "duration": 0.023255813953483084
        },
        {
          "name": "D6",
          "midi": 86,
          "time": 91.62790697673546,
          "velocity": 0.12598425196850394,
          "duration": 0.12790697674415696
        },
        {
          "name": "B3",
          "midi": 59,
          "time": 91.6395348837122,
          "velocity": 0.1968503937007874,
          "duration": 0.034883720930224626
        },
        {
          "name": "G#6",
          "midi": 92,
          "time": 91.6395348837122,
          "velocity": 0.12598425196850394,
          "duration": 0.09302325581393234
        },
        {
          "name": "B6",
          "midi": 95,
          "time": 91.6395348837122,
          "velocity": 0.2283464566929134,
          "duration": 0.20930232558134776
        },
        {
          "name": "G#4",
          "midi": 68,
          "time": 91.65116279068894,
          "velocity": 0.1889763779527559,
          "duration": 0.034883720930224626
        },
        {
          "name": "D#6",
          "midi": 87,
          "time": 91.66279069766568,
          "velocity": 0.14173228346456693,
          "duration": 0.12790697674415696
        },
        {
          "name": "F3",
          "midi": 53,
          "time": 91.67441860464243,
          "velocity": 0.2992125984251969,
          "duration": 0.023255813953483084
        },
        {
          "name": "F2",
          "midi": 41,
          "time": 91.68604651161917,
          "velocity": 0.36220472440944884,
          "duration": 0.034883720930224626
        },
        {
          "name": "B3",
          "midi": 59,
          "time": 91.68604651161917,
          "velocity": 0.23622047244094488,
          "duration": 0.023255813953483084
        },
        {
          "name": "G4",
          "midi": 67,
          "time": 91.70930232557265,
          "velocity": 0.25196850393700787,
          "duration": 0.09302325581393234
        },
        {
          "name": "E3",
          "midi": 52,
          "time": 91.72093023254939,
          "velocity": 0.3700787401574803,
          "duration": 0.023255813953483084
        },
        {
          "name": "E7",
          "midi": 100,
          "time": 91.72093023254939,
          "velocity": 0.10236220472440945,
          "duration": 0.034883720930224626
        },
        {
          "name": "E2",
          "midi": 40,
          "time": 91.73255813952613,
          "velocity": 0.33858267716535434,
          "duration": 0.023255813953483084
        },
        {
          "name": "A#6",
          "midi": 94,
          "time": 91.74418604650288,
          "velocity": 0.13385826771653545,
          "duration": 0.0813953488371908
        },
        {
          "name": "E3",
          "midi": 52,
          "time": 91.75581395347962,
          "velocity": 0.3543307086614173,
          "duration": 0.04651162790696617
        },
        {
          "name": "B3",
          "midi": 59,
          "time": 91.75581395347962,
          "velocity": 0.23622047244094488,
          "duration": 0.034883720930224626
        },
        {
          "name": "F2",
          "midi": 41,
          "time": 91.7790697674331,
          "velocity": 0.2283464566929134,
          "duration": 0.023255813953483084
        },
        {
          "name": "E7",
          "midi": 100,
          "time": 91.7790697674331,
          "velocity": 0.23622047244094488,
          "duration": 0.1627906976743816
        },
        {
          "name": "A4",
          "midi": 69,
          "time": 91.79069767440984,
          "velocity": 0.33070866141732286,
          "duration": 0.23255813953483084
        },
        {
          "name": "C#5",
          "midi": 73,
          "time": 91.79069767440984,
          "velocity": 0.15748031496062992,
          "duration": 0.034883720930224626
        },
        {
          "name": "F#5",
          "midi": 78,
          "time": 91.79069767440984,
          "velocity": 0.33858267716535434,
          "duration": 0.1627906976743816
        },
        {
          "name": "A5",
          "midi": 81,
          "time": 91.79069767440984,
          "velocity": 0.4094488188976378,
          "duration": 0.3255813953487632
        },
        {
          "name": "D6",
          "midi": 86,
          "time": 91.79069767440984,
          "velocity": 0.09448818897637795,
          "duration": 0.04651162790696617
        },
        {
          "name": "A6",
          "midi": 93,
          "time": 91.79069767440984,
          "velocity": 0.4330708661417323,
          "duration": 0.279069767441797
        },
        {
          "name": "G#2",
          "midi": 44,
          "time": 91.80232558138658,
          "velocity": 0.3464566929133858,
          "duration": 0.023255813953483084
        },
        {
          "name": "F3",
          "midi": 53,
          "time": 91.80232558138658,
          "velocity": 0.3700787401574803,
          "duration": 0.023255813953483084
        },
        {
          "name": "F#4",
          "midi": 66,
          "time": 91.80232558138658,
          "velocity": 0.3228346456692913,
          "duration": 0.18604651162786467
        },
        {
          "name": "C5",
          "midi": 72,
          "time": 91.81395348836332,
          "velocity": 0.14173228346456693,
          "duration": 0.04651162790696617
        },
        {
          "name": "B3",
          "midi": 59,
          "time": 91.82558139534007,
          "velocity": 0.25984251968503935,
          "duration": 0.023255813953483084
        },
        {
          "name": "C7",
          "midi": 96,
          "time": 91.82558139534007,
          "velocity": 0.15748031496062992,
          "duration": 0.05813953488370771
        },
        {
          "name": "B3",
          "midi": 59,
          "time": 91.86046511627029,
          "velocity": 0.2755905511811024,
          "duration": 0.023255813953483084
        },
        {
          "name": "D5",
          "midi": 74,
          "time": 91.86046511627029,
          "velocity": 0.2047244094488189,
          "duration": 0.10465116279067388
        },
        {
          "name": "D3",
          "midi": 50,
          "time": 91.87209302324703,
          "velocity": 0.4881889763779528,
          "duration": 0.12790697674415696
        },
        {
          "name": "F2",
          "midi": 41,
          "time": 91.89534883720052,
          "velocity": 0.25196850393700787,
          "duration": 0.023255813953483084
        },
        {
          "name": "B3",
          "midi": 59,
          "time": 91.89534883720052,
          "velocity": 0.2992125984251969,
          "duration": 0.023255813953483084
        },
        {
          "name": "D#6",
          "midi": 87,
          "time": 91.90697674417726,
          "velocity": 0.13385826771653545,
          "duration": 0.04651162790696617
        },
        {
          "name": "C7",
          "midi": 96,
          "time": 91.90697674417726,
          "velocity": 0.09448818897637795,
          "duration": 0.04651162790696617
        },
        {
          "name": "F7",
          "midi": 101,
          "time": 91.918604651154,
          "velocity": 0.11023622047244094,
          "duration": 0.04651162790696617
        },
        {
          "name": "G6",
          "midi": 91,
          "time": 91.93023255813074,
          "velocity": 0.14960629921259844,
          "duration": 0.12790697674415696
        },
        {
          "name": "G7",
          "midi": 103,
          "time": 91.93023255813074,
          "velocity": 0.2125984251968504,
          "duration": 0.09302325581393234
        },
        {
          "name": "F2",
          "midi": 41,
          "time": 91.94186046510748,
          "velocity": 0.30708661417322836,
          "duration": 0.023255813953483084
        },
        {
          "name": "E5",
          "midi": 76,
          "time": 91.94186046510748,
          "velocity": 0.11811023622047244,
          "duration": 0.0813953488371908
        },
        {
          "name": "G5",
          "midi": 79,
          "time": 91.95348837208422,
          "velocity": 0.14173228346456693,
          "duration": 0.04651162790696617
        },
        {
          "name": "C#6",
          "midi": 85,
          "time": 91.95348837208422,
          "velocity": 0.08661417322834646,
          "duration": 0.04651162790696617
        },
        {
          "name": "E2",
          "midi": 40,
          "time": 91.96511627906096,
          "velocity": 0.23622047244094488,
          "duration": 0.023255813953483084
        },
        {
          "name": "E7",
          "midi": 100,
          "time": 91.96511627906096,
          "velocity": 0.28346456692913385,
          "duration": 0.10465116279067388
        },
        {
          "name": "A3",
          "midi": 57,
          "time": 91.98837209301445,
          "velocity": 0.2992125984251969,
          "duration": 0.023255813953483084
        },
        {
          "name": "F#5",
          "midi": 78,
          "time": 91.98837209301445,
          "velocity": 0.2677165354330709,
          "duration": 0.11627906976741542
        },
        {
          "name": "A2",
          "midi": 45,
          "time": 91.99999999999119,
          "velocity": 0.5826771653543307,
          "duration": 0.04651162790696617
        },
        {
          "name": "B6",
          "midi": 95,
          "time": 91.99999999999119,
          "velocity": 0.4251968503937008,
          "duration": 1.9186046511623687
        },
        {
          "name": "A#1",
          "midi": 34,
          "time": 92.01162790696793,
          "velocity": 0.5118110236220472,
          "duration": 0.011627906976741542
        },
        {
          "name": "A#3",
          "midi": 58,
          "time": 92.01162790696793,
          "velocity": 0.30708661417322836,
          "duration": 0.023255813953483084
        },
        {
          "name": "F#4",
          "midi": 66,
          "time": 92.01162790696793,
          "velocity": 0.28346456692913385,
          "duration": 0.023255813953483084
        },
        {
          "name": "B5",
          "midi": 83,
          "time": 92.01162790696793,
          "velocity": 0.14173228346456693,
          "duration": 0.11627906976741542
        },
        {
          "name": "F7",
          "midi": 101,
          "time": 92.01162790696793,
          "velocity": 0.10236220472440945,
          "duration": 0.09302325581393234
        },
        {
          "name": "C7",
          "midi": 96,
          "time": 92.03488372092141,
          "velocity": 0.11023622047244094,
          "duration": 0.05813953488370771
        },
        {
          "name": "C3",
          "midi": 48,
          "time": 92.04651162789816,
          "velocity": 0.5669291338582677,
          "duration": 0.034883720930224626
        },
        {
          "name": "G4",
          "midi": 67,
          "time": 92.0581395348749,
          "velocity": 0.33858267716535434,
          "duration": 0.17441860465112313
        },
        {
          "name": "F#7",
          "midi": 102,
          "time": 92.0581395348749,
          "velocity": 0.16535433070866143,
          "duration": 0.5116279069766279
        },
        {
          "name": "E4",
          "midi": 64,
          "time": 92.06976744185164,
          "velocity": 0.1968503937007874,
          "duration": 0.06976744186044925
        },
        {
          "name": "C#3",
          "midi": 49,
          "time": 92.08139534882838,
          "velocity": 0.5669291338582677,
          "duration": 0.011627906976741542
        },
        {
          "name": "G3",
          "midi": 55,
          "time": 92.08139534882838,
          "velocity": 0.4645669291338583,
          "duration": 0.0813953488371908
        },
        {
          "name": "C3",
          "midi": 48,
          "time": 92.09302325580512,
          "velocity": 0.5511811023622047,
          "duration": 0.011627906976741542
        },
        {
          "name": "C#3",
          "midi": 49,
          "time": 92.10465116278186,
          "velocity": 0.5590551181102362,
          "duration": 0.011627906976741542
        },
        {
          "name": "D5",
          "midi": 74,
          "time": 92.10465116278186,
          "velocity": 0.11811023622047244,
          "duration": 0.06976744186044925
        },
        {
          "name": "C3",
          "midi": 48,
          "time": 92.1162790697586,
          "velocity": 0.5590551181102362,
          "duration": 0.04651162790696617
        },
        {
          "name": "A#4",
          "midi": 70,
          "time": 92.1162790697586,
          "velocity": 0.11023622047244094,
          "duration": 0.034883720930224626
        },
        {
          "name": "A6",
          "midi": 93,
          "time": 92.1162790697586,
          "velocity": 0.1889763779527559,
          "duration": 0.17441860465112313
        },
        {
          "name": "D#4",
          "midi": 63,
          "time": 92.13953488371209,
          "velocity": 0.09448818897637795,
          "duration": 0.034883720930224626
        },
        {
          "name": "A5",
          "midi": 81,
          "time": 92.13953488371209,
          "velocity": 0.13385826771653545,
          "duration": 0.12790697674415696
        },
        {
          "name": "F7",
          "midi": 101,
          "time": 92.13953488371209,
          "velocity": 0.12598425196850394,
          "duration": 0.05813953488370771
        },
        {
          "name": "B5",
          "midi": 83,
          "time": 92.15116279068883,
          "velocity": 0.2283464566929134,
          "duration": 0.15116279069764005
        },
        {
          "name": "F#6",
          "midi": 90,
          "time": 92.16279069766557,
          "velocity": 0.07874015748031496,
          "duration": 0.05813953488370771
        },
        {
          "name": "G6",
          "midi": 91,
          "time": 92.16279069766557,
          "velocity": 0.07874015748031496,
          "duration": 0.034883720930224626
        },
        {
          "name": "G#3",
          "midi": 56,
          "time": 92.17441860464231,
          "velocity": 0.25196850393700787,
          "duration": 0.023255813953483084
        },
        {
          "name": "G3",
          "midi": 55,
          "time": 92.1976744185958,
          "velocity": 0.3464566929133858,
          "duration": 0.023255813953483084
        },
        {
          "name": "E4",
          "midi": 64,
          "time": 92.1976744185958,
          "velocity": 0.30708661417322836,
          "duration": 0.2558139534883139
        },
        {
          "name": "D5",
          "midi": 74,
          "time": 92.20930232557254,
          "velocity": 0.2755905511811024,
          "duration": 0.24418604651157239
        },
        {
          "name": "A2",
          "midi": 45,
          "time": 92.22093023254928,
          "velocity": 0.5905511811023622,
          "duration": 0.034883720930224626
        },
        {
          "name": "B4",
          "midi": 71,
          "time": 92.22093023254928,
          "velocity": 0.28346456692913385,
          "duration": 0.23255813953483084
        },
        {
          "name": "F#5",
          "midi": 78,
          "time": 92.22093023254928,
          "velocity": 0.31496062992125984,
          "duration": 0.3023255813952801
        },
        {
          "name": "E5",
          "midi": 76,
          "time": 92.23255813952602,
          "velocity": 0.3228346456692913,
          "duration": 0.8488372093021326
        },
        {
          "name": "D7",
          "midi": 98,
          "time": 92.23255813952602,
          "velocity": 0.12598425196850394,
          "duration": 0.04651162790696617
        },
        {
          "name": "G4",
          "midi": 67,
          "time": 92.24418604650276,
          "velocity": 0.2677165354330709,
          "duration": 0.09302325581393234
        },
        {
          "name": "C7",
          "midi": 96,
          "time": 92.24418604650276,
          "velocity": 0.07086614173228346,
          "duration": 0.034883720930224626
        },
        {
          "name": "F7",
          "midi": 101,
          "time": 92.24418604650276,
          "velocity": 0.07086614173228346,
          "duration": 0.034883720930224626
        },
        {
          "name": "B2",
          "midi": 47,
          "time": 92.2558139534795,
          "velocity": 0.5826771653543307,
          "duration": 0.023255813953483084
        },
        {
          "name": "A3",
          "midi": 57,
          "time": 92.2558139534795,
          "velocity": 0.29133858267716534,
          "duration": 0.023255813953483084
        },
        {
          "name": "C3",
          "midi": 48,
          "time": 92.27906976743299,
          "velocity": 0.5748031496062992,
          "duration": 0.011627906976741542
        },
        {
          "name": "C#3",
          "midi": 49,
          "time": 92.29069767440973,
          "velocity": 0.5669291338582677,
          "duration": 0.011627906976741542
        },
        {
          "name": "G3",
          "midi": 55,
          "time": 92.29069767440973,
          "velocity": 0.48031496062992124,
          "duration": 0.12790697674415696
        },
        {
          "name": "C3",
          "midi": 48,
          "time": 92.30232558138647,
          "velocity": 0.5748031496062992,
          "duration": 0.023255813953483084
        },
        {
          "name": "F2",
          "midi": 41,
          "time": 92.31395348836321,
          "velocity": 0.5118110236220472,
          "duration": 0.011627906976741542
        },
        {
          "name": "C#3",
          "midi": 49,
          "time": 92.32558139533995,
          "velocity": 0.5826771653543307,
          "duration": 0.011627906976741542
        },
        {
          "name": "C3",
          "midi": 48,
          "time": 92.3372093023167,
          "velocity": 0.5826771653543307,
          "duration": 0.05813953488370771
        },
        {
          "name": "A6",
          "midi": 93,
          "time": 92.36046511627018,
          "velocity": 0.14173228346456693,
          "duration": 0.05813953488370771
        },
        {
          "name": "B2",
          "midi": 47,
          "time": 92.3953488372004,
          "velocity": 0.5039370078740157,
          "duration": 0.023255813953483084
        },
        {
          "name": "D#2",
          "midi": 39,
          "time": 92.41860465115388,
          "velocity": 0.25196850393700787,
          "duration": 0.023255813953483084
        },
        {
          "name": "A5",
          "midi": 81,
          "time": 92.43023255813063,
          "velocity": 0.2440944881889764,
          "duration": 0.3023255813952801
        },
        {
          "name": "F#3",
          "midi": 54,
          "time": 92.44186046510737,
          "velocity": 0.28346456692913385,
          "duration": 0.023255813953483084
        },
        {
          "name": "C#5",
          "midi": 73,
          "time": 92.45348837208411,
          "velocity": 0.11811023622047244,
          "duration": 0.034883720930224626
        },
        {
          "name": "D7",
          "midi": 98,
          "time": 92.45348837208411,
          "velocity": 0.1968503937007874,
          "duration": 0.06976744186044925
        },
        {
          "name": "G3",
          "midi": 55,
          "time": 92.46511627906085,
          "velocity": 0.3700787401574803,
          "duration": 0.0813953488371908
        },
        {
          "name": "E4",
          "midi": 64,
          "time": 92.46511627906085,
          "velocity": 0.3228346456692913,
          "duration": 0.23255813953483084
        },
        {
          "name": "G4",
          "midi": 67,
          "time": 92.46511627906085,
          "velocity": 0.49606299212598426,
          "duration": 0.9069767441858403
        },
        {
          "name": "C#7",
          "midi": 97,
          "time": 92.46511627906085,
          "velocity": 0.2047244094488189,
          "duration": 0.3023255813952801
        },
        {
          "name": "C7",
          "midi": 96,
          "time": 92.47674418603759,
          "velocity": 0.07874015748031496,
          "duration": 0.034883720930224626
        },
        {
          "name": "D#7",
          "midi": 99,
          "time": 92.49999999999108,
          "velocity": 0.10236220472440945,
          "duration": 0.11627906976741542
        },
        {
          "name": "C3",
          "midi": 48,
          "time": 92.51162790696782,
          "velocity": 0.4015748031496063,
          "duration": 0.023255813953483084
        },
        {
          "name": "A#4",
          "midi": 70,
          "time": 92.51162790696782,
          "velocity": 0.25984251968503935,
          "duration": 0.15116279069764005
        },
        {
          "name": "D5",
          "midi": 74,
          "time": 92.51162790696782,
          "velocity": 0.1889763779527559,
          "duration": 0.06976744186044925
        },
        {
          "name": "C#3",
          "midi": 49,
          "time": 92.5348837209213,
          "velocity": 0.4330708661417323,
          "duration": 0.023255813953483084
        },
        {
          "name": "C4",
          "midi": 60,
          "time": 92.5348837209213,
          "velocity": 0.4330708661417323,
          "duration": 0.26744186046505547
        },
        {
          "name": "F#5",
          "midi": 78,
          "time": 92.5348837209213,
          "velocity": 0.13385826771653545,
          "duration": 0.0813953488371908
        },
        {
          "name": "F7",
          "midi": 101,
          "time": 92.5348837209213,
          "velocity": 0.13385826771653545,
          "duration": 0.04651162790696617
        },
        {
          "name": "G7",
          "midi": 103,
          "time": 92.5348837209213,
          "velocity": 0.10236220472440945,
          "duration": 0.034883720930224626
        },
        {
          "name": "C#2",
          "midi": 37,
          "time": 92.55813953487478,
          "velocity": 0.29133858267716534,
          "duration": 0.023255813953483084
        },
        {
          "name": "C3",
          "midi": 48,
          "time": 92.55813953487478,
          "velocity": 0.4330708661417323,
          "duration": 0.06976744186044925
        },
        {
          "name": "D7",
          "midi": 98,
          "time": 92.55813953487478,
          "velocity": 0.11811023622047244,
          "duration": 0.034883720930224626
        },
        {
          "name": "B5",
          "midi": 83,
          "time": 92.56976744185152,
          "velocity": 0.13385826771653545,
          "duration": 0.05813953488370771
        },
        {
          "name": "C7",
          "midi": 96,
          "time": 92.56976744185152,
          "velocity": 0.14960629921259844,
          "duration": 0.1627906976743816
        },
        {
          "name": "F#3",
          "midi": 54,
          "time": 92.59302325580501,
          "velocity": 0.2677165354330709,
          "duration": 0.023255813953483084
        },
        {
          "name": "G7",
          "midi": 103,
          "time": 92.59302325580501,
          "velocity": 0.12598425196850394,
          "duration": 0.0813953488371908
        },
        {
          "name": "G3",
          "midi": 55,
          "time": 92.61627906975849,
          "velocity": 0.44881889763779526,
          "duration": 0.0813953488371908
        },
        {
          "name": "C#3",
          "midi": 49,
          "time": 92.62790697673523,
          "velocity": 0.4015748031496063,
          "duration": 0.023255813953483084
        },
        {
          "name": "B5",
          "midi": 83,
          "time": 92.63953488371197,
          "velocity": 0.1968503937007874,
          "duration": 0.17441860465112313
        },
        {
          "name": "D7",
          "midi": 98,
          "time": 92.63953488371197,
          "velocity": 0.1889763779527559,
          "duration": 0.10465116279067388
        },
        {
          "name": "D#7",
          "midi": 99,
          "time": 92.63953488371197,
          "velocity": 0.13385826771653545,
          "duration": 0.0813953488371908
        },
        {
          "name": "C3",
          "midi": 48,
          "time": 92.65116279068872,
          "velocity": 0.5275590551181102,
          "duration": 0.011627906976741542
        },
        {
          "name": "D5",
          "midi": 74,
          "time": 92.65116279068872,
          "velocity": 0.2047244094488189,
          "duration": 0.19767441860460622
        },
        {
          "name": "F7",
          "midi": 101,
          "time": 92.65116279068872,
          "velocity": 0.07874015748031496,
          "duration": 0.034883720930224626
        },
        {
          "name": "F#7",
          "midi": 102,
          "time": 92.65116279068872,
          "velocity": 0.10236220472440945,
          "duration": 0.1395348837208985
        },
        {
          "name": "A2",
          "midi": 45,
          "time": 92.66279069766546,
          "velocity": 0.5748031496062992,
          "duration": 0.023255813953483084
        },
        {
          "name": "F#5",
          "midi": 78,
          "time": 92.66279069766546,
          "velocity": 0.09448818897637795,
          "duration": 0.04651162790696617
        },
        {
          "name": "A#2",
          "midi": 46,
          "time": 92.68604651161894,
          "velocity": 0.4645669291338583,
          "duration": 0.023255813953483084
        },
        {
          "name": "D3",
          "midi": 50,
          "time": 92.70930232557242,
          "velocity": 0.5354330708661418,
          "duration": 0.023255813953483084
        },
        {
          "name": "E4",
          "midi": 64,
          "time": 92.70930232557242,
          "velocity": 0.30708661417322836,
          "duration": 0.1395348837208985
        },
        {
          "name": "G3",
          "midi": 55,
          "time": 92.72093023254916,
          "velocity": 0.44881889763779526,
          "duration": 0.05813953488370771
        },
        {
          "name": "C3",
          "midi": 48,
          "time": 92.7325581395259,
          "velocity": 0.5039370078740157,
          "duration": 0.05813953488370771
        },
        {
          "name": "D#7",
          "midi": 99,
          "time": 92.74418604650265,
          "velocity": 0.11023622047244094,
          "duration": 0.034883720930224626
        },
        {
          "name": "D7",
          "midi": 98,
          "time": 92.77906976743287,
          "velocity": 0.11023622047244094,
          "duration": 0.04651162790696617
        },
        {
          "name": "F#7",
          "midi": 102,
          "time": 92.8139534883631,
          "velocity": 0.1889763779527559,
          "duration": 0.9651162790695622
        },
        {
          "name": "B4",
          "midi": 71,
          "time": 92.83720930231658,
          "velocity": 0.25984251968503935,
          "duration": 0.023255813953483084
        },
        {
          "name": "C7",
          "midi": 96,
          "time": 92.83720930231658,
          "velocity": 0.13385826771653545,
          "duration": 0.09302325581393234
        },
        {
          "name": "A#3",
          "midi": 58,
          "time": 92.84883720929332,
          "velocity": 0.4881889763779528,
          "duration": 0.04651162790696617
        },
        {
          "name": "G#5",
          "midi": 80,
          "time": 92.84883720929332,
          "velocity": 0.2125984251968504,
          "duration": 0.034883720930224626
        },
        {
          "name": "D6",
          "midi": 86,
          "time": 92.84883720929332,
          "velocity": 0.14960629921259844,
          "duration": 0.0813953488371908
        },
        {
          "name": "C#7",
          "midi": 97,
          "time": 92.84883720929332,
          "velocity": 0.1732283464566929,
          "duration": 0.0813953488371908
        },
        {
          "name": "E7",
          "midi": 100,
          "time": 92.84883720929332,
          "velocity": 0.1732283464566929,
          "duration": 0.034883720930224626
        },
        {
          "name": "E4",
          "midi": 64,
          "time": 92.86046511627006,
          "velocity": 0.33858267716535434,
          "duration": 0.023255813953483084
        },
        {
          "name": "D5",
          "midi": 74,
          "time": 92.86046511627006,
          "velocity": 0.4015748031496063,
          "duration": 0.023255813953483084
        },
        {
          "name": "F#5",
          "midi": 78,
          "time": 92.86046511627006,
          "velocity": 0.29133858267716534,
          "duration": 0.05813953488370771
        },
        {
          "name": "D#7",
          "midi": 99,
          "time": 92.86046511627006,
          "velocity": 0.14173228346456693,
          "duration": 0.06976744186044925
        },
        {
          "name": "G#2",
          "midi": 44,
          "time": 92.8720930232468,
          "velocity": 0.5905511811023622,
          "duration": 0.023255813953483084
        },
        {
          "name": "B5",
          "midi": 83,
          "time": 92.8720930232468,
          "velocity": 0.1889763779527559,
          "duration": 0.12790697674415696
        },
        {
          "name": "C6",
          "midi": 84,
          "time": 92.8720930232468,
          "velocity": 0.09448818897637795,
          "duration": 0.05813953488370771
        },
        {
          "name": "D7",
          "midi": 98,
          "time": 92.8720930232468,
          "velocity": 0.15748031496062992,
          "duration": 0.0813953488371908
        },
        {
          "name": "B2",
          "midi": 47,
          "time": 92.89534883720029,
          "velocity": 0.5590551181102362,
          "duration": 0.023255813953483084
        },
        {
          "name": "D4",
          "midi": 62,
          "time": 92.89534883720029,
          "velocity": 0.30708661417322836,
          "duration": 0.023255813953483084
        },
        {
          "name": "C3",
          "midi": 48,
          "time": 92.91860465115377,
          "velocity": 0.5748031496062992,
          "duration": 0.011627906976741542
        },
        {
          "name": "D3",
          "midi": 50,
          "time": 92.93023255813051,
          "velocity": 0.5826771653543307,
          "duration": 0.011627906976741542
        },
        {
          "name": "A5",
          "midi": 81,
          "time": 92.93023255813051,
          "velocity": 0.10236220472440945,
          "duration": 0.034883720930224626
        },
        {
          "name": "C#3",
          "midi": 49,
          "time": 92.94186046510725,
          "velocity": 0.5905511811023622,
          "duration": 0.011627906976741542
        },
        {
          "name": "G3",
          "midi": 55,
          "time": 92.94186046510725,
          "velocity": 0.4566929133858268,
          "duration": 0.0813953488371908
        },
        {
          "name": "C3",
          "midi": 48,
          "time": 92.953488372084,
          "velocity": 0.5590551181102362,
          "duration": 0.011627906976741542
        },
        {
          "name": "C#3",
          "midi": 49,
          "time": 92.96511627906074,
          "velocity": 0.5669291338582677,
          "duration": 0.011627906976741542
        },
        {
          "name": "D#7",
          "midi": 99,
          "time": 92.96511627906074,
          "velocity": 0.13385826771653545,
          "duration": 0.26744186046505547
        },
        {
          "name": "C3",
          "midi": 48,
          "time": 92.97674418603748,
          "velocity": 0.6220472440944882,
          "duration": 0.09302325581393234
        },
        {
          "name": "A#4",
          "midi": 70,
          "time": 93.0116279069677,
          "velocity": 0.14173228346456693,
          "duration": 0.04651162790696617
        },
        {
          "name": "F#5",
          "midi": 78,
          "time": 93.0116279069677,
          "velocity": 0.15748031496062992,
          "duration": 0.034883720930224626
        },
        {
          "name": "B5",
          "midi": 83,
          "time": 93.0116279069677,
          "velocity": 0.2204724409448819,
          "duration": 0.15116279069764005
        },
        {
          "name": "F#2",
          "midi": 42,
          "time": 93.02325581394444,
          "velocity": 0.5118110236220472,
          "duration": 0.011627906976741542
        },
        {
          "name": "G3",
          "midi": 55,
          "time": 93.03488372092119,
          "velocity": 0.4409448818897638,
          "duration": 0.023255813953483084
        },
        {
          "name": "E4",
          "midi": 64,
          "time": 93.03488372092119,
          "velocity": 0.3779527559055118,
          "duration": 0.05813953488370771
        },
        {
          "name": "F#3",
          "midi": 54,
          "time": 93.05813953487467,
          "velocity": 0.5196850393700787,
          "duration": 0.034883720930224626
        },
        {
          "name": "B4",
          "midi": 71,
          "time": 93.05813953487467,
          "velocity": 0.18110236220472442,
          "duration": 0.05813953488370771
        },
        {
          "name": "B2",
          "midi": 47,
          "time": 93.06976744185141,
          "velocity": 0.5590551181102362,
          "duration": 0.011627906976741542
        },
        {
          "name": "C3",
          "midi": 48,
          "time": 93.08139534882815,
          "velocity": 0.5590551181102362,
          "duration": 0.011627906976741542
        },
        {
          "name": "F#5",
          "midi": 78,
          "time": 93.08139534882815,
          "velocity": 0.30708661417322836,
          "duration": 0.31395348837202164
        },
        {
          "name": "E6",
          "midi": 88,
          "time": 93.08139534882815,
          "velocity": 0.14960629921259844,
          "duration": 0.06976744186044925
        },
        {
          "name": "C#7",
          "midi": 97,
          "time": 93.08139534882815,
          "velocity": 0.2125984251968504,
          "duration": 0.41860465116270973
        },
        {
          "name": "B2",
          "midi": 47,
          "time": 93.0930232558049,
          "velocity": 0.6062992125984252,
          "duration": 0.011627906976741542
        },
        {
          "name": "D4",
          "midi": 62,
          "time": 93.0930232558049,
          "velocity": 0.2677165354330709,
          "duration": 0.023255813953483084
        },
        {
          "name": "E5",
          "midi": 76,
          "time": 93.0930232558049,
          "velocity": 0.33070866141732286,
          "duration": 0.41860465116270973
        },
        {
          "name": "A2",
          "midi": 45,
          "time": 93.10465116278164,
          "velocity": 0.5905511811023622,
          "duration": 0.011627906976741542
        },
        {
          "name": "D7",
          "midi": 98,
          "time": 93.10465116278164,
          "velocity": 0.15748031496062992,
          "duration": 0.06976744186044925
        },
        {
          "name": "B2",
          "midi": 47,
          "time": 93.11627906975838,
          "velocity": 0.5826771653543307,
          "duration": 0.011627906976741542
        },
        {
          "name": "G3",
          "midi": 55,
          "time": 93.11627906975838,
          "velocity": 0.44881889763779526,
          "duration": 0.09302325581393234
        },
        {
          "name": "A#4",
          "midi": 70,
          "time": 93.11627906975838,
          "velocity": 0.2440944881889764,
          "duration": 0.18604651162786467
        },
        {
          "name": "C3",
          "midi": 48,
          "time": 93.12790697673512,
          "velocity": 0.5826771653543307,
          "duration": 0.011627906976741542
        },
        {
          "name": "B2",
          "midi": 47,
          "time": 93.13953488371186,
          "velocity": 0.5118110236220472,
          "duration": 0.011627906976741542
        },
        {
          "name": "E4",
          "midi": 64,
          "time": 93.13953488371186,
          "velocity": 0.2047244094488189,
          "duration": 0.06976744186044925
        },
        {
          "name": "C7",
          "midi": 96,
          "time": 93.13953488371186,
          "velocity": 0.10236220472440945,
          "duration": 0.034883720930224626
        },
        {
          "name": "C2",
          "midi": 36,
          "time": 93.16279069766534,
          "velocity": 0.4409448818897638,
          "duration": 0.04651162790696617
        },
        {
          "name": "C3",
          "midi": 48,
          "time": 93.17441860464209,
          "velocity": 0.4566929133858268,
          "duration": 0.06976744186044925
        },
        {
          "name": "F7",
          "midi": 101,
          "time": 93.18604651161883,
          "velocity": 0.13385826771653545,
          "duration": 0.05813953488370771
        },
        {
          "name": "D7",
          "midi": 98,
          "time": 93.19767441859557,
          "velocity": 0.28346456692913385,
          "duration": 0.5581395348836082
        },
        {
          "name": "F#3",
          "midi": 54,
          "time": 93.20930232557231,
          "velocity": 0.30708661417322836,
          "duration": 0.023255813953483084
        },
        {
          "name": "B5",
          "midi": 83,
          "time": 93.20930232557231,
          "velocity": 0.1732283464566929,
          "duration": 0.04651162790696617
        },
        {
          "name": "C7",
          "midi": 96,
          "time": 93.20930232557231,
          "velocity": 0.18110236220472442,
          "duration": 0.11627906976741542
        },
        {
          "name": "C3",
          "midi": 48,
          "time": 93.25581395347928,
          "velocity": 0.4645669291338583,
          "duration": 0.05813953488370771
        },
        {
          "name": "G3",
          "midi": 55,
          "time": 93.25581395347928,
          "velocity": 0.4566929133858268,
          "duration": 0.3488372093022605
        },
        {
          "name": "B5",
          "midi": 83,
          "time": 93.26744186045602,
          "velocity": 0.07874015748031496,
          "duration": 0.034883720930224626
        },
        {
          "name": "G7",
          "midi": 103,
          "time": 93.26744186045602,
          "velocity": 0.09448818897637795,
          "duration": 0.05813953488370771
        },
        {
          "name": "D5",
          "midi": 74,
          "time": 93.2906976744095,
          "velocity": 0.2440944881889764,
          "duration": 0.29069767441855277
        },
        {
          "name": "A5",
          "midi": 81,
          "time": 93.2906976744095,
          "velocity": 0.41732283464566927,
          "duration": 1.232558139534632
        },
        {
          "name": "D#6",
          "midi": 87,
          "time": 93.2906976744095,
          "velocity": 0.07874015748031496,
          "duration": 0.05813953488370771
        },
        {
          "name": "D#7",
          "midi": 99,
          "time": 93.2906976744095,
          "velocity": 0.16535433070866143,
          "duration": 0.4418604651161928
        },
        {
          "name": "C#2",
          "midi": 37,
          "time": 93.30232558138624,
          "velocity": 0.3543307086614173,
          "duration": 0.023255813953483084
        },
        {
          "name": "F7",
          "midi": 101,
          "time": 93.30232558138624,
          "velocity": 0.2125984251968504,
          "duration": 0.25581395348832814
        },
        {
          "name": "A#4",
          "midi": 70,
          "time": 93.31395348836298,
          "velocity": 0.2283464566929134,
          "duration": 0.04651162790696617
        },
        {
          "name": "B5",
          "midi": 83,
          "time": 93.31395348836298,
          "velocity": 0.15748031496062992,
          "duration": 0.1627906976743958
        },
        {
          "name": "E7",
          "midi": 100,
          "time": 93.32558139533973,
          "velocity": 0.10236220472440945,
          "duration": 0.034883720930224626
        },
        {
          "name": "E4",
          "midi": 64,
          "time": 93.33720930231647,
          "velocity": 0.1732283464566929,
          "duration": 0.06976744186044925
        },
        {
          "name": "C7",
          "midi": 96,
          "time": 93.34883720929321,
          "velocity": 0.2283464566929134,
          "duration": 0.3255813953487774
        },
        {
          "name": "B4",
          "midi": 71,
          "time": 93.36046511626995,
          "velocity": 0.1732283464566929,
          "duration": 0.04651162790696617
        },
        {
          "name": "E4",
          "midi": 64,
          "time": 93.4302325581304,
          "velocity": 0.3228346456692913,
          "duration": 0.10465116279068809
        },
        {
          "name": "A#4",
          "midi": 70,
          "time": 93.4302325581304,
          "velocity": 0.10236220472440945,
          "duration": 0.05813953488372192
        },
        {
          "name": "C3",
          "midi": 48,
          "time": 93.47674418603738,
          "velocity": 0.29133858267716534,
          "duration": 0.023255813953483084
        },
        {
          "name": "C#3",
          "midi": 49,
          "time": 93.49999999999086,
          "velocity": 0.33858267716535434,
          "duration": 0.034883720930224626
        },
        {
          "name": "C5",
          "midi": 72,
          "time": 93.49999999999086,
          "velocity": 0.11811023622047244,
          "duration": 0.034883720930224626
        },
        {
          "name": "B5",
          "midi": 83,
          "time": 93.49999999999086,
          "velocity": 0.25196850393700787,
          "duration": 0.06976744186044925
        },
        {
          "name": "A#4",
          "midi": 70,
          "time": 93.5116279069676,
          "velocity": 0.2047244094488189,
          "duration": 0.20930232558134776
        },
        {
          "name": "C#7",
          "midi": 97,
          "time": 93.5116279069676,
          "velocity": 0.1889763779527559,
          "duration": 0.09302325581393234
        },
        {
          "name": "G7",
          "midi": 103,
          "time": 93.5116279069676,
          "velocity": 0.14173228346456693,
          "duration": 0.09302325581393234
        },
        {
          "name": "F#2",
          "midi": 42,
          "time": 93.52325581394435,
          "velocity": 0.4251968503937008,
          "duration": 0.034883720930224626
        },
        {
          "name": "G#2",
          "midi": 44,
          "time": 93.56976744185131,
          "velocity": 0.41732283464566927,
          "duration": 0.034883720930224626
        },
        {
          "name": "E4",
          "midi": 64,
          "time": 93.56976744185131,
          "velocity": 0.3543307086614173,
          "duration": 0.1627906976743816
        },
        {
          "name": "C4",
          "midi": 60,
          "time": 93.5930232558048,
          "velocity": 0.2125984251968504,
          "duration": 0.04651162790696617
        },
        {
          "name": "B5",
          "midi": 83,
          "time": 93.5930232558048,
          "velocity": 0.18110236220472442,
          "duration": 0.06976744186044925
        },
        {
          "name": "C#3",
          "midi": 49,
          "time": 93.60465116278154,
          "velocity": 0.3779527559055118,
          "duration": 0.023255813953483084
        },
        {
          "name": "D5",
          "midi": 74,
          "time": 93.60465116278154,
          "velocity": 0.11023622047244094,
          "duration": 0.10465116279067388
        },
        {
          "name": "C#7",
          "midi": 97,
          "time": 93.61627906975828,
          "velocity": 0.2755905511811024,
          "duration": 0.18604651162786467
        },
        {
          "name": "F#3",
          "midi": 54,
          "time": 93.62790697673502,
          "velocity": 0.3228346456692913,
          "duration": 0.023255813953483084
        },
        {
          "name": "F2",
          "midi": 41,
          "time": 93.6511627906885,
          "velocity": 0.3858267716535433,
          "duration": 0.023255813953483084
        },
        {
          "name": "G3",
          "midi": 55,
          "time": 93.6511627906885,
          "velocity": 0.33858267716535434,
          "duration": 0.04651162790696617
        },
        {
          "name": "G7",
          "midi": 103,
          "time": 93.66279069766524,
          "velocity": 0.11811023622047244,
          "duration": 0.04651162790696617
        },
        {
          "name": "D#6",
          "midi": 87,
          "time": 93.67441860464199,
          "velocity": 0.18110236220472442,
          "duration": 0.15116279069764005
        },
        {
          "name": "C3",
          "midi": 48,
          "time": 93.68604651161873,
          "velocity": 0.3858267716535433,
          "duration": 0.023255813953483084
        },
        {
          "name": "G#3",
          "midi": 56,
          "time": 93.69767441859547,
          "velocity": 0.3937007874015748,
          "duration": 0.023255813953483084
        },
        {
          "name": "B5",
          "midi": 83,
          "time": 93.69767441859547,
          "velocity": 0.2204724409448819,
          "duration": 0.17441860465112313
        },
        {
          "name": "F#5",
          "midi": 78,
          "time": 93.70930232557221,
          "velocity": 0.12598425196850394,
          "duration": 0.04651162790696617
        },
        {
          "name": "C3",
          "midi": 48,
          "time": 93.72093023254895,
          "velocity": 0.5433070866141733,
          "duration": 0.011627906976741542
        },
        {
          "name": "A6",
          "midi": 93,
          "time": 93.72093023254895,
          "velocity": 0.4645669291338583,
          "duration": 1.0465116279067672
        },
        {
          "name": "E7",
          "midi": 100,
          "time": 93.72093023254895,
          "velocity": 0.33858267716535434,
          "duration": 0.7325581395347172
        },
        {
          "name": "G1",
          "midi": 31,
          "time": 93.7325581395257,
          "velocity": 0.5354330708661418,
          "duration": 0.011627906976741542
        },
        {
          "name": "C#3",
          "midi": 49,
          "time": 93.7325581395257,
          "velocity": 0.5354330708661418,
          "duration": 0.011627906976741542
        },
        {
          "name": "G4",
          "midi": 67,
          "time": 93.7325581395257,
          "velocity": 0.2677165354330709,
          "duration": 0.20930232558134776
        },
        {
          "name": "C6",
          "midi": 84,
          "time": 93.7325581395257,
          "velocity": 0.14960629921259844,
          "duration": 0.11627906976741542
        },
        {
          "name": "D6",
          "midi": 86,
          "time": 93.7325581395257,
          "velocity": 0.2992125984251969,
          "duration": 0.06976744186044925
        },
        {
          "name": "A#1",
          "midi": 34,
          "time": 93.74418604650243,
          "velocity": 0.5196850393700787,
          "duration": 0.011627906976741542
        },
        {
          "name": "D3",
          "midi": 50,
          "time": 93.74418604650243,
          "velocity": 0.6299212598425197,
          "duration": 0.10465116279067388
        },
        {
          "name": "A3",
          "midi": 57,
          "time": 93.74418604650243,
          "velocity": 0.5039370078740157,
          "duration": 0.05813953488370771
        },
        {
          "name": "C5",
          "midi": 72,
          "time": 93.74418604650243,
          "velocity": 0.15748031496062992,
          "duration": 0.06976744186044925
        },
        {
          "name": "D5",
          "midi": 74,
          "time": 93.74418604650243,
          "velocity": 0.23622047244094488,
          "duration": 0.2209302325580893
        },
        {
          "name": "G#5",
          "midi": 80,
          "time": 93.74418604650243,
          "velocity": 0.09448818897637795,
          "duration": 0.034883720930224626
        },
        {
          "name": "F#5",
          "midi": 78,
          "time": 93.7906976744094,
          "velocity": 0.12598425196850394,
          "duration": 0.05813953488370771
        },
        {
          "name": "A2",
          "midi": 45,
          "time": 93.83720930231637,
          "velocity": 0.5433070866141733,
          "duration": 0.011627906976741542
        },
        {
          "name": "C#3",
          "midi": 49,
          "time": 93.84883720929311,
          "velocity": 0.6141732283464567,
          "duration": 0.011627906976741542
        },
        {
          "name": "A2",
          "midi": 45,
          "time": 93.86046511626985,
          "velocity": 0.5354330708661418,
          "duration": 0.011627906976741542
        },
        {
          "name": "D3",
          "midi": 50,
          "time": 93.86046511626985,
          "velocity": 0.5433070866141733,
          "duration": 0.04651162790696617
        },
        {
          "name": "A4",
          "midi": 69,
          "time": 93.86046511626985,
          "velocity": 0.16535433070866143,
          "duration": 0.06976744186044925
        },
        {
          "name": "G#3",
          "midi": 56,
          "time": 93.87209302324659,
          "velocity": 0.25196850393700787,
          "duration": 0.023255813953483084
        },
        {
          "name": "A2",
          "midi": 45,
          "time": 93.88372093022333,
          "velocity": 0.4251968503937008,
          "duration": 0.023255813953483084
        },
        {
          "name": "E6",
          "midi": 88,
          "time": 93.88372093022333,
          "velocity": 0.11023622047244094,
          "duration": 0.17441860465112313
        },
        {
          "name": "D#7",
          "midi": 99,
          "time": 93.89534883720007,
          "velocity": 0.15748031496062992,
          "duration": 0.06976744186044925
        },
        {
          "name": "A3",
          "midi": 57,
          "time": 93.90697674417682,
          "velocity": 0.3543307086614173,
          "duration": 0.034883720930224626
        },
        {
          "name": "E3",
          "midi": 52,
          "time": 93.91860465115356,
          "velocity": 0.3228346456692913,
          "duration": 0.023255813953483084
        },
        {
          "name": "C#6",
          "midi": 85,
          "time": 93.91860465115356,
          "velocity": 0.08661417322834646,
          "duration": 0.034883720930224626
        },
        {
          "name": "E2",
          "midi": 40,
          "time": 93.9302325581303,
          "velocity": 0.5196850393700787,
          "duration": 0.011627906976741542
        },
        {
          "name": "E5",
          "midi": 76,
          "time": 93.9302325581303,
          "velocity": 0.2677165354330709,
          "duration": 0.10465116279067388
        },
        {
          "name": "F#5",
          "midi": 78,
          "time": 93.9302325581303,
          "velocity": 0.36220472440944884,
          "duration": 0.11627906976741542
        },
        {
          "name": "C#7",
          "midi": 97,
          "time": 93.9302325581303,
          "velocity": 0.14960629921259844,
          "duration": 0.06976744186044925
        },
        {
          "name": "F#4",
          "midi": 66,
          "time": 93.94186046510704,
          "velocity": 0.2677165354330709,
          "duration": 0.1627906976743816
        },
        {
          "name": "D3",
          "midi": 50,
          "time": 93.95348837208378,
          "velocity": 0.6141732283464567,
          "duration": 0.1395348837208985
        },
        {
          "name": "A3",
          "midi": 57,
          "time": 93.95348837208378,
          "velocity": 0.44881889763779526,
          "duration": 0.04651162790696617
        },
        {
          "name": "D#6",
          "midi": 87,
          "time": 93.95348837208378,
          "velocity": 0.10236220472440945,
          "duration": 0.034883720930224626
        },
        {
          "name": "B6",
          "midi": 95,
          "time": 93.95348837208378,
          "velocity": 0.07086614173228346,
          "duration": 0.034883720930224626
        },
        {
          "name": "D7",
          "midi": 98,
          "time": 93.95348837208378,
          "velocity": 0.14960629921259844,
          "duration": 0.04651162790696617
        },
        {
          "name": "F2",
          "midi": 41,
          "time": 93.96511627906052,
          "velocity": 0.41732283464566927,
          "duration": 0.023255813953483084
        },
        {
          "name": "C7",
          "midi": 96,
          "time": 93.96511627906052,
          "velocity": 0.12598425196850394,
          "duration": 0.034883720930224626
        },
        {
          "name": "A4",
          "midi": 69,
          "time": 94.01162790696749,
          "velocity": 0.25196850393700787,
          "duration": 0.12790697674415696
        },
        {
          "name": "B4",
          "midi": 71,
          "time": 94.02325581394423,
          "velocity": 0.1968503937007874,
          "duration": 0.09302325581393234
        },
        {
          "name": "A2",
          "midi": 45,
          "time": 94.04651162789771,
          "velocity": 0.5433070866141733,
          "duration": 0.011627906976741542
        },
        {
          "name": "B6",
          "midi": 95,
          "time": 94.05813953487446,
          "velocity": 0.09448818897637795,
          "duration": 0.034883720930224626
        },
        {
          "name": "A2",
          "midi": 45,
          "time": 94.0697674418512,
          "velocity": 0.5748031496062992,
          "duration": 0.023255813953483084
        },
        {
          "name": "C3",
          "midi": 48,
          "time": 94.09302325580468,
          "velocity": 0.5669291338582677,
          "duration": 0.011627906976741542
        },
        {
          "name": "A2",
          "midi": 45,
          "time": 94.10465116278142,
          "velocity": 0.5433070866141733,
          "duration": 0.011627906976741542
        },
        {
          "name": "E5",
          "midi": 76,
          "time": 94.10465116278142,
          "velocity": 0.11023622047244094,
          "duration": 0.034883720930224626
        },
        {
          "name": "G#2",
          "midi": 44,
          "time": 94.11627906975816,
          "velocity": 0.5196850393700787,
          "duration": 0.011627906976741542
        },
        {
          "name": "G4",
          "midi": 67,
          "time": 94.1279069767349,
          "velocity": 0.18110236220472442,
          "duration": 0.034883720930224626
        },
        {
          "name": "B4",
          "midi": 71,
          "time": 94.15116279068839,
          "velocity": 0.2125984251968504,
          "duration": 0.034883720930224626
        },
        {
          "name": "C7",
          "midi": 96,
          "time": 94.15116279068839,
          "velocity": 0.25984251968503935,
          "duration": 0.10465116279067388
        },
        {
          "name": "G7",
          "midi": 103,
          "time": 94.15116279068839,
          "velocity": 0.15748031496062992,
          "duration": 0.04651162790696617
        },
        {
          "name": "D7",
          "midi": 98,
          "time": 94.16279069766513,
          "velocity": 0.16535433070866143,
          "duration": 0.24418604651157239
        },
        {
          "name": "D#7",
          "midi": 99,
          "time": 94.16279069766513,
          "velocity": 0.1732283464566929,
          "duration": 0.05813953488370771
        },
        {
          "name": "F#7",
          "midi": 102,
          "time": 94.17441860464187,
          "velocity": 0.1968503937007874,
          "duration": 0.12790697674415696
        },
        {
          "name": "E5",
          "midi": 76,
          "time": 94.18604651161861,
          "velocity": 0.11811023622047244,
          "duration": 0.06976744186044925
        },
        {
          "name": "D6",
          "midi": 86,
          "time": 94.18604651161861,
          "velocity": 0.11811023622047244,
          "duration": 0.11627906976741542
        },
        {
          "name": "C5",
          "midi": 72,
          "time": 94.19767441859535,
          "velocity": 0.1732283464566929,
          "duration": 0.06976744186044925
        },
        {
          "name": "C#7",
          "midi": 97,
          "time": 94.19767441859535,
          "velocity": 0.3543307086614173,
          "duration": 1.232558139534646
        },
        {
          "name": "G#2",
          "midi": 44,
          "time": 94.2093023255721,
          "velocity": 0.4330708661417323,
          "duration": 0.023255813953483084
        },
        {
          "name": "A#3",
          "midi": 58,
          "time": 94.22093023254884,
          "velocity": 0.30708661417322836,
          "duration": 0.023255813953483084
        },
        {
          "name": "G4",
          "midi": 67,
          "time": 94.22093023254884,
          "velocity": 0.2047244094488189,
          "duration": 0.05813953488370771
        },
        {
          "name": "D5",
          "midi": 74,
          "time": 94.22093023254884,
          "velocity": 0.15748031496062992,
          "duration": 0.04651162790696617
        },
        {
          "name": "D3",
          "midi": 50,
          "time": 94.23255813952558,
          "velocity": 0.4251968503937008,
          "duration": 0.034883720930224626
        },
        {
          "name": "F7",
          "midi": 101,
          "time": 94.23255813952558,
          "velocity": 0.11811023622047244,
          "duration": 0.034883720930224626
        },
        {
          "name": "A#3",
          "midi": 58,
          "time": 94.25581395347906,
          "velocity": 0.2755905511811024,
          "duration": 0.023255813953483084
        },
        {
          "name": "A4",
          "midi": 69,
          "time": 94.25581395347906,
          "velocity": 0.16535433070866143,
          "duration": 0.034883720930224626
        },
        {
          "name": "D#3",
          "midi": 51,
          "time": 94.2674418604558,
          "velocity": 0.4645669291338583,
          "duration": 0.034883720930224626
        },
        {
          "name": "F#4",
          "midi": 66,
          "time": 94.27906976743255,
          "velocity": 0.14960629921259844,
          "duration": 0.05813953488370771
        },
        {
          "name": "D4",
          "midi": 62,
          "time": 94.29069767440929,
          "velocity": 0.28346456692913385,
          "duration": 0.05813953488370771
        },
        {
          "name": "A#4",
          "midi": 70,
          "time": 94.29069767440929,
          "velocity": 0.14960629921259844,
          "duration": 0.06976744186044925
        },
        {
          "name": "G7",
          "midi": 103,
          "time": 94.29069767440929,
          "velocity": 0.11023622047244094,
          "duration": 0.034883720930224626
        },
        {
          "name": "D3",
          "midi": 50,
          "time": 94.30232558138603,
          "velocity": 0.48031496062992124,
          "duration": 0.04651162790696617
        },
        {
          "name": "D#7",
          "midi": 99,
          "time": 94.30232558138603,
          "velocity": 0.1889763779527559,
          "duration": 0.1395348837208985
        },
        {
          "name": "D#3",
          "midi": 51,
          "time": 94.348837209293,
          "velocity": 0.4330708661417323,
          "duration": 0.023255813953483084
        },
        {
          "name": "A4",
          "midi": 69,
          "time": 94.348837209293,
          "velocity": 0.28346456692913385,
          "duration": 0.10465116279067388
        },
        {
          "name": "F2",
          "midi": 41,
          "time": 94.36046511626974,
          "velocity": 0.2992125984251969,
          "duration": 0.023255813953483084
        },
        {
          "name": "F#4",
          "midi": 66,
          "time": 94.36046511626974,
          "velocity": 0.31496062992125984,
          "duration": 0.19767441860463464
        },
        {
          "name": "E5",
          "midi": 76,
          "time": 94.36046511626974,
          "velocity": 0.3543307086614173,
          "duration": 0.19767441860463464
        },
        {
          "name": "F#5",
          "midi": 78,
          "time": 94.36046511626974,
          "velocity": 0.5433070866141733,
          "duration": 0.6627906976743105
        },
        {
          "name": "D3",
          "midi": 50,
          "time": 94.37209302324648,
          "velocity": 0.6220472440944882,
          "duration": 0.13953488372091272
        },
        {
          "name": "B5",
          "midi": 83,
          "time": 94.37209302324648,
          "velocity": 0.09448818897637795,
          "duration": 0.06976744186044925
        },
        {
          "name": "A3",
          "midi": 57,
          "time": 94.38372093022322,
          "velocity": 0.4015748031496063,
          "duration": 0.034883720930224626
        },
        {
          "name": "C7",
          "midi": 96,
          "time": 94.4069767441767,
          "velocity": 0.08661417322834646,
          "duration": 0.034883720930224626
        },
        {
          "name": "A#3",
          "midi": 58,
          "time": 94.41860465115344,
          "velocity": 0.3700787401574803,
          "duration": 0.034883720930224626
        },
        {
          "name": "A3",
          "midi": 57,
          "time": 94.45348837208367,
          "velocity": 0.3543307086614173,
          "duration": 0.1046511627907023
        },
        {
          "name": "A4",
          "midi": 69,
          "time": 94.46511627906041,
          "velocity": 0.3543307086614173,
          "duration": 0.1046511627907023
        },
        {
          "name": "D3",
          "midi": 50,
          "time": 94.52325581394413,
          "velocity": 0.3858267716535433,
          "duration": 0.04651162790698038
        },
        {
          "name": "E2",
          "midi": 40,
          "time": 94.55813953487437,
          "velocity": 0.28346456692913385,
          "duration": 0.023255813953483084
        },
        {
          "name": "G4",
          "midi": 67,
          "time": 94.55813953487437,
          "velocity": 0.47244094488188976,
          "duration": 0.05813953488370771
        },
        {
          "name": "D#3",
          "midi": 51,
          "time": 94.56976744185111,
          "velocity": 0.3937007874015748,
          "duration": 0.023255813953483084
        },
        {
          "name": "C4",
          "midi": 60,
          "time": 94.56976744185111,
          "velocity": 0.4330708661417323,
          "duration": 0.023255813953483084
        },
        {
          "name": "D5",
          "midi": 74,
          "time": 94.56976744185111,
          "velocity": 0.3464566929133858,
          "duration": 0.023255813953483084
        },
        {
          "name": "E5",
          "midi": 76,
          "time": 94.56976744185111,
          "velocity": 0.2677165354330709,
          "duration": 0.06976744186044925
        },
        {
          "name": "C7",
          "midi": 96,
          "time": 94.56976744185111,
          "velocity": 0.14173228346456693,
          "duration": 0.09302325581393234
        },
        {
          "name": "E7",
          "midi": 100,
          "time": 94.56976744185111,
          "velocity": 0.10236220472440945,
          "duration": 0.05813953488370771
        },
        {
          "name": "E4",
          "midi": 64,
          "time": 94.58139534882785,
          "velocity": 0.33070866141732286,
          "duration": 0.034883720930224626
        },
        {
          "name": "C6",
          "midi": 84,
          "time": 94.58139534882785,
          "velocity": 0.15748031496062992,
          "duration": 0.10465116279067388
        },
        {
          "name": "D#7",
          "midi": 99,
          "time": 94.58139534882785,
          "velocity": 0.18110236220472442,
          "duration": 0.05813953488370771
        },
        {
          "name": "D3",
          "midi": 50,
          "time": 94.5930232558046,
          "velocity": 0.6535433070866141,
          "duration": 0.11627906976741542
        },
        {
          "name": "A4",
          "midi": 69,
          "time": 94.5930232558046,
          "velocity": 0.33858267716535434,
          "duration": 0.19767441860460622
        },
        {
          "name": "G#5",
          "midi": 80,
          "time": 94.5930232558046,
          "velocity": 0.1889763779527559,
          "duration": 0.05813953488370771
        },
        {
          "name": "D#6",
          "midi": 87,
          "time": 94.5930232558046,
          "velocity": 0.16535433070866143,
          "duration": 0.0813953488371908
        },
        {
          "name": "F7",
          "midi": 101,
          "time": 94.5930232558046,
          "velocity": 0.08661417322834646,
          "duration": 0.04651162790696617
        },
        {
          "name": "B6",
          "midi": 95,
          "time": 94.60465116278134,
          "velocity": 0.07086614173228346,
          "duration": 0.034883720930224626
        },
        {
          "name": "A#3",
          "midi": 58,
          "time": 94.61627906975808,
          "velocity": 0.4015748031496063,
          "duration": 0.034883720930224626
        },
        {
          "name": "F2",
          "midi": 41,
          "time": 94.62790697673482,
          "velocity": 0.5275590551181102,
          "duration": 0.023255813953483084
        },
        {
          "name": "A5",
          "midi": 81,
          "time": 94.62790697673482,
          "velocity": 0.3543307086614173,
          "duration": 0.8255813953486637
        },
        {
          "name": "F#4",
          "midi": 66,
          "time": 94.63953488371156,
          "velocity": 0.2755905511811024,
          "duration": 0.04651162790696617
        },
        {
          "name": "C5",
          "midi": 72,
          "time": 94.63953488371156,
          "velocity": 0.18110236220472442,
          "duration": 0.11627906976741542
        },
        {
          "name": "C4",
          "midi": 60,
          "time": 94.6511627906883,
          "velocity": 0.29133858267716534,
          "duration": 0.023255813953483084
        },
        {
          "name": "A3",
          "midi": 57,
          "time": 94.67441860464179,
          "velocity": 0.33070866141732286,
          "duration": 0.023255813953483084
        },
        {
          "name": "A2",
          "midi": 45,
          "time": 94.69767441859527,
          "velocity": 0.5669291338582677,
          "duration": 0.011627906976741542
        },
        {
          "name": "A#3",
          "midi": 58,
          "time": 94.69767441859527,
          "velocity": 0.3464566929133858,
          "duration": 0.023255813953483084
        },
        {
          "name": "C3",
          "midi": 48,
          "time": 94.70930232557201,
          "velocity": 0.6141732283464567,
          "duration": 0.011627906976741542
        },
        {
          "name": "E5",
          "midi": 76,
          "time": 94.70930232557201,
          "velocity": 0.14173228346456693,
          "duration": 0.05813953488370771
        },
        {
          "name": "A2",
          "midi": 45,
          "time": 94.72093023254875,
          "velocity": 0.5905511811023622,
          "duration": 0.011627906976741542
        },
        {
          "name": "D3",
          "midi": 50,
          "time": 94.72093023254875,
          "velocity": 0.5748031496062992,
          "duration": 0.011627906976741542
        },
        {
          "name": "B2",
          "midi": 47,
          "time": 94.7325581395255,
          "velocity": 0.6220472440944882,
          "duration": 0.011627906976741542
        },
        {
          "name": "A2",
          "midi": 45,
          "time": 94.74418604650224,
          "velocity": 0.6062992125984252,
          "duration": 0.011627906976741542
        },
        {
          "name": "D3",
          "midi": 50,
          "time": 94.74418604650224,
          "velocity": 0.5354330708661418,
          "duration": 0.011627906976741542
        },
        {
          "name": "G#2",
          "midi": 44,
          "time": 94.75581395347898,
          "velocity": 0.6220472440944882,
          "duration": 0.011627906976741542
        },
        {
          "name": "A2",
          "midi": 45,
          "time": 94.76744186045572,
          "velocity": 0.5590551181102362,
          "duration": 0.023255813953483084
        },
        {
          "name": "A#3",
          "midi": 58,
          "time": 94.76744186045572,
          "velocity": 0.25984251968503935,
          "duration": 0.023255813953483084
        },
        {
          "name": "D5",
          "midi": 74,
          "time": 94.77906976743246,
          "velocity": 0.2204724409448819,
          "duration": 0.034883720930224626
        },
        {
          "name": "G#2",
          "midi": 44,
          "time": 94.7906976744092,
          "velocity": 0.6141732283464567,
          "duration": 0.023255813953483084
        },
        {
          "name": "D4",
          "midi": 62,
          "time": 94.7906976744092,
          "velocity": 0.10236220472440945,
          "duration": 0.034883720930224626
        },
        {
          "name": "F#4",
          "midi": 66,
          "time": 94.7906976744092,
          "velocity": 0.3464566929133858,
          "duration": 0.639534883720799
        },
        {
          "name": "E5",
          "midi": 76,
          "time": 94.7906976744092,
          "velocity": 0.25196850393700787,
          "duration": 0.15116279069764005
        },
        {
          "name": "C#6",
          "midi": 85,
          "time": 94.7906976744092,
          "velocity": 0.14173228346456693,
          "duration": 0.06976744186044925
        },
        {
          "name": "A4",
          "midi": 69,
          "time": 94.80232558138594,
          "velocity": 0.28346456692913385,
          "duration": 0.06976744186044925
        },
        {
          "name": "C7",
          "midi": 96,
          "time": 94.80232558138594,
          "velocity": 0.25196850393700787,
          "duration": 0.09302325581393234
        },
        {
          "name": "E7",
          "midi": 100,
          "time": 94.80232558138594,
          "velocity": 0.11023622047244094,
          "duration": 0.034883720930224626
        },
        {
          "name": "G7",
          "midi": 103,
          "time": 94.80232558138594,
          "velocity": 0.12598425196850394,
          "duration": 0.11627906976741542
        },
        {
          "name": "A2",
          "midi": 45,
          "time": 94.81395348836269,
          "velocity": 0.5118110236220472,
          "duration": 0.023255813953483084
        },
        {
          "name": "B4",
          "midi": 71,
          "time": 94.82558139533943,
          "velocity": 0.2125984251968504,
          "duration": 0.10465116279067388
        },
        {
          "name": "D4",
          "midi": 62,
          "time": 94.84883720929291,
          "velocity": 0.25984251968503935,
          "duration": 0.05813953488370771
        },
        {
          "name": "D#7",
          "midi": 99,
          "time": 94.84883720929291,
          "velocity": 0.09448818897637795,
          "duration": 0.04651162790696617
        },
        {
          "name": "G2",
          "midi": 43,
          "time": 94.86046511626965,
          "velocity": 0.4015748031496063,
          "duration": 0.023255813953483084
        },
        {
          "name": "A3",
          "midi": 57,
          "time": 94.86046511626965,
          "velocity": 0.33070866141732286,
          "duration": 0.04651162790696617
        },
        {
          "name": "D6",
          "midi": 86,
          "time": 94.86046511626965,
          "velocity": 0.13385826771653545,
          "duration": 0.11627906976742963
        },
        {
          "name": "D7",
          "midi": 98,
          "time": 94.86046511626965,
          "velocity": 0.5118110236220472,
          "duration": 0.9651162790695622
        },
        {
          "name": "D2",
          "midi": 38,
          "time": 94.88372093022313,
          "velocity": 0.33070866141732286,
          "duration": 0.023255813953483084
        },
        {
          "name": "A2",
          "midi": 45,
          "time": 94.90697674417662,
          "velocity": 0.33070866141732286,
          "duration": 0.023255813953483084
        },
        {
          "name": "D#3",
          "midi": 51,
          "time": 94.90697674417662,
          "velocity": 0.4566929133858268,
          "duration": 0.034883720930224626
        },
        {
          "name": "G7",
          "midi": 103,
          "time": 94.9302325581301,
          "velocity": 0.12598425196850394,
          "duration": 0.04651162790698038
        },
        {
          "name": "D3",
          "midi": 50,
          "time": 94.94186046510684,
          "velocity": 0.49606299212598426,
          "duration": 0.05813953488372192
        },
        {
          "name": "B4",
          "midi": 71,
          "time": 94.94186046510684,
          "velocity": 0.15748031496062992,
          "duration": 0.03488372093023884
        },
        {
          "name": "D#6",
          "midi": 87,
          "time": 94.94186046510684,
          "velocity": 0.11023622047244094,
          "duration": 0.03488372093023884
        },
        {
          "name": "A#3",
          "midi": 58,
          "time": 94.97674418603708,
          "velocity": 0.2677165354330709,
          "duration": 0.034883720930224626
        },
        {
          "name": "D#3",
          "midi": 51,
          "time": 94.99999999999056,
          "velocity": 0.48031496062992124,
          "duration": 0.023255813953483084
        },
        {
          "name": "D6",
          "midi": 86,
          "time": 94.99999999999056,
          "velocity": 0.29133858267716534,
          "duration": 0.09302325581393234
        },
        {
          "name": "D#6",
          "midi": 87,
          "time": 94.99999999999056,
          "velocity": 0.16535433070866143,
          "duration": 0.05813953488370771
        },
        {
          "name": "D#2",
          "midi": 39,
          "time": 95.0116279069673,
          "velocity": 0.47244094488188976,
          "duration": 0.023255813953483084
        },
        {
          "name": "G6",
          "midi": 91,
          "time": 95.0116279069673,
          "velocity": 0.44881889763779526,
          "duration": 0.6511627906975264
        },
        {
          "name": "A#6",
          "midi": 94,
          "time": 95.0116279069673,
          "velocity": 0.07874015748031496,
          "duration": 0.034883720930224626
        },
        {
          "name": "D#7",
          "midi": 99,
          "time": 95.0116279069673,
          "velocity": 0.2047244094488189,
          "duration": 0.4186046511626955
        },
        {
          "name": "G5",
          "midi": 79,
          "time": 95.02325581394405,
          "velocity": 0.48031496062992124,
          "duration": 0.48837209302314477
        },
        {
          "name": "C6",
          "midi": 84,
          "time": 95.02325581394405,
          "velocity": 0.13385826771653545,
          "duration": 0.10465116279067388
        },
        {
          "name": "C7",
          "midi": 96,
          "time": 95.03488372092079,
          "velocity": 0.14173228346456693,
          "duration": 0.06976744186044925
        },
        {
          "name": "F#6",
          "midi": 90,
          "time": 95.04651162789753,
          "velocity": 0.1732283464566929,
          "duration": 0.06976744186044925
        },
        {
          "name": "B5",
          "midi": 83,
          "time": 95.05813953487427,
          "velocity": 0.07086614173228346,
          "duration": 0.034883720930224626
        },
        {
          "name": "D3",
          "midi": 50,
          "time": 95.06976744185101,
          "velocity": 0.5275590551181102,
          "duration": 0.18604651162786467
        },
        {
          "name": "D5",
          "midi": 74,
          "time": 95.06976744185101,
          "velocity": 0.2204724409448819,
          "duration": 0.19767441860460622
        },
        {
          "name": "D#6",
          "midi": 87,
          "time": 95.08139534882775,
          "velocity": 0.10236220472440945,
          "duration": 0.05813953488370771
        },
        {
          "name": "F7",
          "midi": 101,
          "time": 95.11627906975798,
          "velocity": 0.09448818897637795,
          "duration": 0.05813953488370771
        },
        {
          "name": "C7",
          "midi": 96,
          "time": 95.12790697673472,
          "velocity": 0.09448818897637795,
          "duration": 0.04651162790696617
        },
        {
          "name": "F#6",
          "midi": 90,
          "time": 95.13953488371146,
          "velocity": 0.2125984251968504,
          "duration": 0.04651162790696617
        },
        {
          "name": "A3",
          "midi": 57,
          "time": 95.16279069766495,
          "velocity": 0.25196850393700787,
          "duration": 0.04651162790696617
        },
        {
          "name": "C5",
          "midi": 72,
          "time": 95.17441860464169,
          "velocity": 0.08661417322834646,
          "duration": 0.04651162790696617
        },
        {
          "name": "E7",
          "midi": 100,
          "time": 95.17441860464169,
          "velocity": 0.12598425196850394,
          "duration": 0.034883720930224626
        },
        {
          "name": "A4",
          "midi": 69,
          "time": 95.20930232557191,
          "velocity": 0.29133858267716534,
          "duration": 0.04651162790696617
        },
        {
          "name": "E5",
          "midi": 76,
          "time": 95.20930232557191,
          "velocity": 0.36220472440944884,
          "duration": 0.2209302325580893
        },
        {
          "name": "F#2",
          "midi": 42,
          "time": 95.2325581395254,
          "velocity": 0.3937007874015748,
          "duration": 0.023255813953483084
        },
        {
          "name": "A3",
          "midi": 57,
          "time": 95.2325581395254,
          "velocity": 0.4094488188976378,
          "duration": 0.06976744186044925
        },
        {
          "name": "C#6",
          "midi": 85,
          "time": 95.2325581395254,
          "velocity": 0.10236220472440945,
          "duration": 0.04651162790696617
        },
        {
          "name": "C7",
          "midi": 96,
          "time": 95.2325581395254,
          "velocity": 0.11811023622047244,
          "duration": 0.034883720930224626
        },
        {
          "name": "D#4",
          "midi": 63,
          "time": 95.25581395347888,
          "velocity": 0.2283464566929134,
          "duration": 0.023255813953483084
        },
        {
          "name": "A#4",
          "midi": 70,
          "time": 95.25581395347888,
          "velocity": 0.29133858267716534,
          "duration": 0.023255813953483084
        },
        {
          "name": "C5",
          "midi": 72,
          "time": 95.25581395347888,
          "velocity": 0.13385826771653545,
          "duration": 0.04651162790696617
        },
        {
          "name": "D#3",
          "midi": 51,
          "time": 95.26744186045562,
          "velocity": 0.3543307086614173,
          "duration": 0.023255813953483084
        },
        {
          "name": "F7",
          "midi": 101,
          "time": 95.26744186045562,
          "velocity": 0.11811023622047244,
          "duration": 0.10465116279067388
        },
        {
          "name": "D4",
          "midi": 62,
          "time": 95.27906976743236,
          "velocity": 0.2125984251968504,
          "duration": 0.05813953488370771
        },
        {
          "name": "A2",
          "midi": 45,
          "time": 95.30232558138584,
          "velocity": 0.3700787401574803,
          "duration": 0.023255813953483084
        },
        {
          "name": "A3",
          "midi": 57,
          "time": 95.31395348836259,
          "velocity": 0.3700787401574803,
          "duration": 0.06976744186044925
        },
        {
          "name": "C7",
          "midi": 96,
          "time": 95.31395348836259,
          "velocity": 0.13385826771653545,
          "duration": 0.0813953488371908
        },
        {
          "name": "E7",
          "midi": 100,
          "time": 95.31395348836259,
          "velocity": 0.11811023622047244,
          "duration": 0.06976744186044925
        },
        {
          "name": "C5",
          "midi": 72,
          "time": 95.32558139533933,
          "velocity": 0.07874015748031496,
          "duration": 0.034883720930224626
        },
        {
          "name": "E2",
          "midi": 40,
          "time": 95.34883720929281,
          "velocity": 0.44881889763779526,
          "duration": 0.034883720930224626
        },
        {
          "name": "G#6",
          "midi": 92,
          "time": 95.34883720929281,
          "velocity": 0.09448818897637795,
          "duration": 0.034883720930224626
        },
        {
          "name": "D4",
          "midi": 62,
          "time": 95.36046511626955,
          "velocity": 0.25984251968503935,
          "duration": 0.0813953488371908
        },
        {
          "name": "D3",
          "midi": 50,
          "time": 95.39534883719978,
          "velocity": 0.4645669291338583,
          "duration": 0.023255813953483084
        },
        {
          "name": "C5",
          "midi": 72,
          "time": 95.40697674417652,
          "velocity": 0.2755905511811024,
          "duration": 0.04651162790696617
        },
        {
          "name": "D#6",
          "midi": 87,
          "time": 95.40697674417652,
          "velocity": 0.07086614173228346,
          "duration": 0.034883720930224626
        },
        {
          "name": "F7",
          "midi": 101,
          "time": 95.40697674417652,
          "velocity": 0.07874015748031496,
          "duration": 0.04651162790696617
        },
        {
          "name": "G2",
          "midi": 43,
          "time": 95.41860465115326,
          "velocity": 0.5275590551181102,
          "duration": 0.023255813953483084
        },
        {
          "name": "D#3",
          "midi": 51,
          "time": 95.41860465115326,
          "velocity": 0.5433070866141733,
          "duration": 0.023255813953483084
        },
        {
          "name": "C7",
          "midi": 96,
          "time": 95.41860465115326,
          "velocity": 0.08661417322834646,
          "duration": 0.05813953488370771
        },
        {
          "name": "C3",
          "midi": 48,
          "time": 95.44186046510674,
          "velocity": 0.6141732283464567,
          "duration": 0.011627906976741542
        },
        {
          "name": "E4",
          "midi": 64,
          "time": 95.44186046510674,
          "velocity": 0.4251968503937008,
          "duration": 0.20930232558134776
        },
        {
          "name": "B5",
          "midi": 83,
          "time": 95.44186046510674,
          "velocity": 0.14173228346456693,
          "duration": 0.09302325581393234
        },
        {
          "name": "E7",
          "midi": 100,
          "time": 95.44186046510674,
          "velocity": 0.12598425196850394,
          "duration": 0.034883720930224626
        },
        {
          "name": "D3",
          "midi": 50,
          "time": 95.45348837208348,
          "velocity": 0.6141732283464567,
          "duration": 0.011627906976741542
        },
        {
          "name": "B3",
          "midi": 59,
          "time": 95.45348837208348,
          "velocity": 0.3937007874015748,
          "duration": 0.1395348837208985
        },
        {
          "name": "C#7",
          "midi": 97,
          "time": 95.45348837208348,
          "velocity": 0.2283464566929134,
          "duration": 0.04651162790696617
        },
        {
          "name": "D#3",
          "midi": 51,
          "time": 95.46511627906023,
          "velocity": 0.5354330708661418,
          "duration": 0.011627906976741542
        },
        {
          "name": "C#6",
          "midi": 85,
          "time": 95.46511627906023,
          "velocity": 0.11023622047244094,
          "duration": 0.034883720930224626
        },
        {
          "name": "D#7",
          "midi": 99,
          "time": 95.47674418603697,
          "velocity": 0.14960629921259844,
          "duration": 0.05813953488370771
        },
        {
          "name": "F2",
          "midi": 41,
          "time": 95.48837209301371,
          "velocity": 0.5039370078740157,
          "duration": 0.034883720930224626
        },
        {
          "name": "E3",
          "midi": 52,
          "time": 95.49999999999045,
          "velocity": 0.5275590551181102,
          "duration": 0.04651162790696617
        },
        {
          "name": "D6",
          "midi": 86,
          "time": 95.49999999999045,
          "velocity": 0.1968503937007874,
          "duration": 0.1627906976743816
        },
        {
          "name": "G5",
          "midi": 79,
          "time": 95.53488372092067,
          "velocity": 0.11811023622047244,
          "duration": 0.04651162790696617
        },
        {
          "name": "F3",
          "midi": 53,
          "time": 95.54651162789742,
          "velocity": 0.5511811023622047,
          "duration": 0.023255813953483084
        },
        {
          "name": "E3",
          "midi": 52,
          "time": 95.5697674418509,
          "velocity": 0.5196850393700787,
          "duration": 0.023255813953483084
        },
        {
          "name": "F2",
          "midi": 41,
          "time": 95.58139534882764,
          "velocity": 0.2755905511811024,
          "duration": 0.023255813953483084
        },
        {
          "name": "D5",
          "midi": 74,
          "time": 95.60465116278112,
          "velocity": 0.08661417322834646,
          "duration": 0.06976744186044925
        },
        {
          "name": "D#7",
          "midi": 99,
          "time": 95.60465116278112,
          "velocity": 0.2283464566929134,
          "duration": 0.09302325581393234
        },
        {
          "name": "A#3",
          "midi": 58,
          "time": 95.61627906975787,
          "velocity": 0.2755905511811024,
          "duration": 0.023255813953483084
        },
        {
          "name": "D2",
          "midi": 38,
          "time": 95.62790697673461,
          "velocity": 0.4409448818897638,
          "duration": 0.023255813953483084
        },
        {
          "name": "A3",
          "midi": 57,
          "time": 95.63953488371135,
          "velocity": 0.31496062992125984,
          "duration": 0.034883720930224626
        },
        {
          "name": "F#5",
          "midi": 78,
          "time": 95.63953488371135,
          "velocity": 0.4015748031496063,
          "duration": 0.06976744186044925
        },
        {
          "name": "C7",
          "midi": 96,
          "time": 95.63953488371135,
          "velocity": 0.13385826771653545,
          "duration": 0.06976744186044925
        },
        {
          "name": "C#2",
          "midi": 37,
          "time": 95.65116279068809,
          "velocity": 0.5275590551181102,
          "duration": 0.011627906976741542
        },
        {
          "name": "G4",
          "midi": 67,
          "time": 95.65116279068809,
          "velocity": 0.3228346456692913,
          "duration": 0.279069767441797
        },
        {
          "name": "A5",
          "midi": 81,
          "time": 95.65116279068809,
          "velocity": 0.4015748031496063,
          "duration": 0.31395348837202164
        },
        {
          "name": "E7",
          "midi": 100,
          "time": 95.65116279068809,
          "velocity": 0.33858267716535434,
          "duration": 0.29069767441853855
        },
        {
          "name": "E4",
          "midi": 64,
          "time": 95.66279069766483,
          "velocity": 0.30708661417322836,
          "duration": 0.04651162790696617
        },
        {
          "name": "D#6",
          "midi": 87,
          "time": 95.66279069766483,
          "velocity": 0.09448818897637795,
          "duration": 0.034883720930224626
        },
        {
          "name": "A6",
          "midi": 93,
          "time": 95.66279069766483,
          "velocity": 0.4094488188976378,
          "duration": 0.5232558139533694
        },
        {
          "name": "C#7",
          "midi": 97,
          "time": 95.66279069766483,
          "velocity": 0.14173228346456693,
          "duration": 0.034883720930224626
        },
        {
          "name": "A#3",
          "midi": 58,
          "time": 95.67441860464157,
          "velocity": 0.30708661417322836,
          "duration": 0.023255813953483084
        },
        {
          "name": "D#3",
          "midi": 51,
          "time": 95.68604651161831,
          "velocity": 0.4645669291338583,
          "duration": 0.034883720930224626
        },
        {
          "name": "G6",
          "midi": 91,
          "time": 95.68604651161831,
          "velocity": 0.09448818897637795,
          "duration": 0.06976744186044925
        },
        {
          "name": "F2",
          "midi": 41,
          "time": 95.69767441859506,
          "velocity": 0.5118110236220472,
          "duration": 0.023255813953483084
        },
        {
          "name": "B3",
          "midi": 59,
          "time": 95.69767441859506,
          "velocity": 0.2992125984251969,
          "duration": 0.034883720930224626
        },
        {
          "name": "E3",
          "midi": 52,
          "time": 95.72093023254854,
          "velocity": 0.5590551181102362,
          "duration": 0.034883720930224626
        },
        {
          "name": "F3",
          "midi": 53,
          "time": 95.75581395347876,
          "velocity": 0.5511811023622047,
          "duration": 0.011627906976741542
        },
        {
          "name": "B4",
          "midi": 71,
          "time": 95.75581395347876,
          "velocity": 0.1889763779527559,
          "duration": 0.11627906976741542
        },
        {
          "name": "D#3",
          "midi": 51,
          "time": 95.7674418604555,
          "velocity": 0.5433070866141733,
          "duration": 0.011627906976741542
        },
        {
          "name": "F#5",
          "midi": 78,
          "time": 95.7674418604555,
          "velocity": 0.25196850393700787,
          "duration": 0.0813953488371908
        },
        {
          "name": "E3",
          "midi": 52,
          "time": 95.77906976743225,
          "velocity": 0.5196850393700787,
          "duration": 0.011627906976741542
        },
        {
          "name": "B3",
          "midi": 59,
          "time": 95.77906976743225,
          "velocity": 0.30708661417322836,
          "duration": 0.10465116279067388
        },
        {
          "name": "F3",
          "midi": 53,
          "time": 95.79069767440899,
          "velocity": 0.5196850393700787,
          "duration": 0.011627906976741542
        },
        {
          "name": "E4",
          "midi": 64,
          "time": 95.79069767440899,
          "velocity": 0.1889763779527559,
          "duration": 0.06976744186044925
        },
        {
          "name": "G6",
          "midi": 91,
          "time": 95.79069767440899,
          "velocity": 0.10236220472440945,
          "duration": 0.034883720930224626
        },
        {
          "name": "E3",
          "midi": 52,
          "time": 95.80232558138573,
          "velocity": 0.49606299212598426,
          "duration": 0.034883720930224626
        },
        {
          "name": "E2",
          "midi": 40,
          "time": 95.82558139533921,
          "velocity": 0.5196850393700787,
          "duration": 0.023255813953483084
        },
        {
          "name": "D5",
          "midi": 74,
          "time": 95.86046511626944,
          "velocity": 0.09448818897637795,
          "duration": 0.06976744186044925
        },
        {
          "name": "D6",
          "midi": 86,
          "time": 95.87209302324618,
          "velocity": 0.12598425196850394,
          "duration": 0.1395348837208985
        },
        {
          "name": "B6",
          "midi": 95,
          "time": 95.87209302324618,
          "velocity": 0.3937007874015748,
          "duration": 1.9069767441856271
        },
        {
          "name": "C#7",
          "midi": 97,
          "time": 95.87209302324618,
          "velocity": 0.2283464566929134,
          "duration": 0.26744186046505547
        },
        {
          "name": "D7",
          "midi": 98,
          "time": 95.87209302324618,
          "velocity": 0.2283464566929134,
          "duration": 0.1395348837208985
        },
        {
          "name": "F#3",
          "midi": 54,
          "time": 95.88372093022292,
          "velocity": 0.23622047244094488,
          "duration": 0.034883720930224626
        },
        {
          "name": "A#4",
          "midi": 70,
          "time": 95.88372093022292,
          "velocity": 0.14173228346456693,
          "duration": 0.034883720930224626
        },
        {
          "name": "D#7",
          "midi": 99,
          "time": 95.88372093022292,
          "velocity": 0.14960629921259844,
          "duration": 0.11627906976741542
        },
        {
          "name": "B3",
          "midi": 59,
          "time": 95.89534883719966,
          "velocity": 0.31496062992125984,
          "duration": 0.1627906976743816
        },
        {
          "name": "B5",
          "midi": 83,
          "time": 95.89534883719966,
          "velocity": 0.11811023622047244,
          "duration": 0.034883720930224626
        },
        {
          "name": "F#2",
          "midi": 42,
          "time": 95.9069767441764,
          "velocity": 0.48031496062992124,
          "duration": 0.034883720930224626
        },
        {
          "name": "D#6",
          "midi": 87,
          "time": 95.9069767441764,
          "velocity": 0.12598425196850394,
          "duration": 0.1627906976743816
        },
        {
          "name": "G7",
          "midi": 103,
          "time": 95.9069767441764,
          "velocity": 0.09448818897637795,
          "duration": 0.04651162790696617
        },
        {
          "name": "F#5",
          "midi": 78,
          "time": 95.91860465115315,
          "velocity": 0.14960629921259844,
          "duration": 0.1395348837208985
        },
        {
          "name": "C7",
          "midi": 96,
          "time": 95.91860465115315,
          "velocity": 0.10236220472440945,
          "duration": 0.04651162790696617
        },
        {
          "name": "F7",
          "midi": 101,
          "time": 95.91860465115315,
          "velocity": 0.14960629921259844,
          "duration": 0.1627906976743816
        },
        {
          "name": "F#7",
          "midi": 102,
          "time": 95.91860465115315,
          "velocity": 0.14960629921259844,
          "duration": 0.09302325581393234
        },
        {
          "name": "D5",
          "midi": 74,
          "time": 95.94186046510663,
          "velocity": 0.18110236220472442,
          "duration": 0.10465116279067388
        },
        {
          "name": "F4",
          "midi": 65,
          "time": 95.97674418603685,
          "velocity": 0.11023622047244094,
          "duration": 0.034883720930224626
        },
        {
          "name": "A5",
          "midi": 81,
          "time": 95.9883720930136,
          "velocity": 0.2677165354330709,
          "duration": 0.45348837209292014
        },
        {
          "name": "F3",
          "midi": 53,
          "time": 95.99999999999034,
          "velocity": 0.4015748031496063,
          "duration": 0.023255813953483084
        },
        {
          "name": "E7",
          "midi": 100,
          "time": 95.99999999999034,
          "velocity": 0.12598425196850394,
          "duration": 0.12790697674415696
        },
        {
          "name": "G7",
          "midi": 103,
          "time": 95.99999999999034,
          "velocity": 0.07874015748031496,
          "duration": 0.10465116279067388
        },
        {
          "name": "F2",
          "midi": 41,
          "time": 96.01162790696708,
          "velocity": 0.5196850393700787,
          "duration": 0.023255813953483084
        },
        {
          "name": "D7",
          "midi": 98,
          "time": 96.02325581394382,
          "velocity": 0.2440944881889764,
          "duration": 0.1395348837208985
        },
        {
          "name": "E2",
          "midi": 40,
          "time": 96.03488372092056,
          "velocity": 0.41732283464566927,
          "duration": 0.023255813953483084
        },
        {
          "name": "A4",
          "midi": 69,
          "time": 96.03488372092056,
          "velocity": 0.14173228346456693,
          "duration": 0.034883720930224626
        },
        {
          "name": "B3",
          "midi": 59,
          "time": 96.06976744185079,
          "velocity": 0.44881889763779526,
          "duration": 0.20930232558134776
        },
        {
          "name": "E5",
          "midi": 76,
          "time": 96.06976744185079,
          "velocity": 0.2992125984251969,
          "duration": 0.1395348837208985
        },
        {
          "name": "G6",
          "midi": 91,
          "time": 96.06976744185079,
          "velocity": 0.2204724409448819,
          "duration": 0.09302325581393234
        },
        {
          "name": "G#2",
          "midi": 44,
          "time": 96.08139534882753,
          "velocity": 0.5196850393700787,
          "duration": 0.011627906976741542
        },
        {
          "name": "F4",
          "midi": 65,
          "time": 96.08139534882753,
          "velocity": 0.25196850393700787,
          "duration": 0.023255813953483084
        },
        {
          "name": "F#5",
          "midi": 78,
          "time": 96.08139534882753,
          "velocity": 0.31496062992125984,
          "duration": 0.06976744186044925
        },
        {
          "name": "D#7",
          "midi": 99,
          "time": 96.08139534882753,
          "velocity": 0.09448818897637795,
          "duration": 0.05813953488370771
        },
        {
          "name": "F#7",
          "midi": 102,
          "time": 96.08139534882753,
          "velocity": 0.11811023622047244,
          "duration": 0.04651162790696617
        },
        {
          "name": "D3",
          "midi": 50,
          "time": 96.09302325580427,
          "velocity": 0.5748031496062992,
          "duration": 0.011627906976741542
        },
        {
          "name": "G4",
          "midi": 67,
          "time": 96.09302325580427,
          "velocity": 0.4566929133858268,
          "duration": 0.4186046511626955
        },
        {
          "name": "E3",
          "midi": 52,
          "time": 96.10465116278101,
          "velocity": 0.5433070866141733,
          "duration": 0.10465116279067388
        },
        {
          "name": "F2",
          "midi": 41,
          "time": 96.13953488371124,
          "velocity": 0.49606299212598426,
          "duration": 0.023255813953483084
        },
        {
          "name": "F#7",
          "midi": 102,
          "time": 96.15116279068798,
          "velocity": 0.12598425196850394,
          "duration": 0.09302325581393234
        },
        {
          "name": "F#5",
          "midi": 78,
          "time": 96.17441860464146,
          "velocity": 0.23622047244094488,
          "duration": 0.0813953488371908
        },
        {
          "name": "D7",
          "midi": 98,
          "time": 96.1860465116182,
          "velocity": 0.08661417322834646,
          "duration": 0.04651162790696617
        },
        {
          "name": "F#7",
          "midi": 102,
          "time": 96.26744186045539,
          "velocity": 0.28346456692913385,
          "duration": 1.2093023255811204
        },
        {
          "name": "C3",
          "midi": 48,
          "time": 96.27906976743213,
          "velocity": 0.5669291338582677,
          "duration": 0.034883720930224626
        },
        {
          "name": "F4",
          "midi": 65,
          "time": 96.27906976743213,
          "velocity": 0.4015748031496063,
          "duration": 0.034883720930224626
        },
        {
          "name": "A#4",
          "midi": 70,
          "time": 96.27906976743213,
          "velocity": 0.28346456692913385,
          "duration": 0.034883720930224626
        },
        {
          "name": "D5",
          "midi": 74,
          "time": 96.27906976743213,
          "velocity": 0.3543307086614173,
          "duration": 0.023255813953483084
        },
        {
          "name": "B5",
          "midi": 83,
          "time": 96.27906976743213,
          "velocity": 0.2204724409448819,
          "duration": 0.0813953488371908
        },
        {
          "name": "D7",
          "midi": 98,
          "time": 96.27906976743213,
          "velocity": 0.16535433070866143,
          "duration": 0.09302325581393234
        },
        {
          "name": "D#7",
          "midi": 99,
          "time": 96.27906976743213,
          "velocity": 0.14960629921259844,
          "duration": 0.06976744186044925
        },
        {
          "name": "C7",
          "midi": 96,
          "time": 96.29069767440888,
          "velocity": 0.09448818897637795,
          "duration": 0.09302325581393234
        },
        {
          "name": "C#7",
          "midi": 97,
          "time": 96.29069767440888,
          "velocity": 0.2204724409448819,
          "duration": 0.06976744186044925
        },
        {
          "name": "A#3",
          "midi": 58,
          "time": 96.30232558138562,
          "velocity": 0.44881889763779526,
          "duration": 0.023255813953483084
        },
        {
          "name": "C#5",
          "midi": 73,
          "time": 96.30232558138562,
          "velocity": 0.3228346456692913,
          "duration": 0.023255813953483084
        },
        {
          "name": "F#5",
          "midi": 78,
          "time": 96.30232558138562,
          "velocity": 0.25984251968503935,
          "duration": 0.05813953488370771
        },
        {
          "name": "C6",
          "midi": 84,
          "time": 96.30232558138562,
          "velocity": 0.12598425196850394,
          "duration": 0.04651162790696617
        },
        {
          "name": "E7",
          "midi": 100,
          "time": 96.30232558138562,
          "velocity": 0.18110236220472442,
          "duration": 0.04651162790696617
        },
        {
          "name": "D3",
          "midi": 50,
          "time": 96.31395348836236,
          "velocity": 0.5275590551181102,
          "duration": 0.011627906976741542
        },
        {
          "name": "B4",
          "midi": 71,
          "time": 96.31395348836236,
          "velocity": 0.2440944881889764,
          "duration": 0.023255813953483084
        },
        {
          "name": "E5",
          "midi": 76,
          "time": 96.31395348836236,
          "velocity": 0.25196850393700787,
          "duration": 0.18604651162786467
        },
        {
          "name": "E2",
          "midi": 40,
          "time": 96.3255813953391,
          "velocity": 0.44881889763779526,
          "duration": 0.023255813953483084
        },
        {
          "name": "E3",
          "midi": 52,
          "time": 96.3255813953391,
          "velocity": 0.4645669291338583,
          "duration": 0.023255813953483084
        },
        {
          "name": "B3",
          "midi": 59,
          "time": 96.3255813953391,
          "velocity": 0.4409448818897638,
          "duration": 0.034883720930224626
        },
        {
          "name": "G7",
          "midi": 103,
          "time": 96.3255813953391,
          "velocity": 0.07086614173228346,
          "duration": 0.04651162790696617
        },
        {
          "name": "D5",
          "midi": 74,
          "time": 96.33720930231584,
          "velocity": 0.1732283464566929,
          "duration": 0.06976744186044925
        },
        {
          "name": "E2",
          "midi": 40,
          "time": 96.36046511626932,
          "velocity": 0.49606299212598426,
          "duration": 0.034883720930224626
        },
        {
          "name": "E3",
          "midi": 52,
          "time": 96.36046511626932,
          "velocity": 0.5748031496062992,
          "duration": 0.09302325581393234
        },
        {
          "name": "C4",
          "midi": 60,
          "time": 96.36046511626932,
          "velocity": 0.3779527559055118,
          "duration": 0.023255813953483084
        },
        {
          "name": "B3",
          "midi": 59,
          "time": 96.38372093022281,
          "velocity": 0.3779527559055118,
          "duration": 0.034883720930224626
        },
        {
          "name": "B2",
          "midi": 47,
          "time": 96.40697674417629,
          "velocity": 0.5118110236220472,
          "duration": 0.011627906976741542
        },
        {
          "name": "G#5",
          "midi": 80,
          "time": 96.43023255812977,
          "velocity": 0.11811023622047244,
          "duration": 0.034883720930224626
        },
        {
          "name": "C3",
          "midi": 48,
          "time": 96.45348837208326,
          "velocity": 0.5118110236220472,
          "duration": 0.011627906976741542
        },
        {
          "name": "F3",
          "midi": 53,
          "time": 96.45348837208326,
          "velocity": 0.5433070866141733,
          "duration": 0.011627906976741542
        },
        {
          "name": "B2",
          "midi": 47,
          "time": 96.46511627906,
          "velocity": 0.5590551181102362,
          "duration": 0.034883720930224626
        },
        {
          "name": "B4",
          "midi": 71,
          "time": 96.47674418603674,
          "velocity": 0.33070866141732286,
          "duration": 0.2558139534883139
        },
        {
          "name": "C4",
          "midi": 60,
          "time": 96.48837209301348,
          "velocity": 0.2204724409448819,
          "duration": 0.034883720930224626
        },
        {
          "name": "A5",
          "midi": 81,
          "time": 96.48837209301348,
          "velocity": 0.11811023622047244,
          "duration": 0.0813953488371908
        },
        {
          "name": "C3",
          "midi": 48,
          "time": 96.49999999999022,
          "velocity": 0.5590551181102362,
          "duration": 0.011627906976741542
        },
        {
          "name": "F2",
          "midi": 41,
          "time": 96.51162790696696,
          "velocity": 0.5354330708661418,
          "duration": 0.011627906976741542
        },
        {
          "name": "B2",
          "midi": 47,
          "time": 96.51162790696696,
          "velocity": 0.5590551181102362,
          "duration": 0.04651162790696617
        },
        {
          "name": "F#5",
          "midi": 78,
          "time": 96.51162790696696,
          "velocity": 0.3700787401574803,
          "duration": 0.034883720930224626
        },
        {
          "name": "E2",
          "midi": 40,
          "time": 96.5232558139437,
          "velocity": 0.4881889763779528,
          "duration": 0.023255813953483084
        },
        {
          "name": "G4",
          "midi": 67,
          "time": 96.5232558139437,
          "velocity": 0.3858267716535433,
          "duration": 0.6162790697673017
        },
        {
          "name": "C#7",
          "midi": 97,
          "time": 96.5232558139437,
          "velocity": 0.15748031496062992,
          "duration": 0.0813953488371908
        },
        {
          "name": "D7",
          "midi": 98,
          "time": 96.5232558139437,
          "velocity": 0.14173228346456693,
          "duration": 0.09302325581393234
        },
        {
          "name": "D#6",
          "midi": 87,
          "time": 96.53488372092045,
          "velocity": 0.11023622047244094,
          "duration": 0.034883720930224626
        },
        {
          "name": "D6",
          "midi": 86,
          "time": 96.54651162789719,
          "velocity": 0.11023622047244094,
          "duration": 0.05813953488370771
        },
        {
          "name": "C7",
          "midi": 96,
          "time": 96.54651162789719,
          "velocity": 0.1968503937007874,
          "duration": 0.10465116279067388
        },
        {
          "name": "A2",
          "midi": 45,
          "time": 96.55813953487393,
          "velocity": 0.5669291338582677,
          "duration": 0.011627906976741542
        },
        {
          "name": "F#2",
          "midi": 42,
          "time": 96.56976744185067,
          "velocity": 0.5118110236220472,
          "duration": 0.011627906976741542
        },
        {
          "name": "B2",
          "midi": 47,
          "time": 96.56976744185067,
          "velocity": 0.5275590551181102,
          "duration": 0.011627906976741542
        },
        {
          "name": "A#2",
          "midi": 46,
          "time": 96.58139534882741,
          "velocity": 0.5511811023622047,
          "duration": 0.011627906976741542
        },
        {
          "name": "D#6",
          "midi": 87,
          "time": 96.59302325580416,
          "velocity": 0.16535433070866143,
          "duration": 0.05813953488370771
        },
        {
          "name": "F3",
          "midi": 53,
          "time": 96.6046511627809,
          "velocity": 0.3858267716535433,
          "duration": 0.023255813953483084
        },
        {
          "name": "F#5",
          "midi": 78,
          "time": 96.61627906975764,
          "velocity": 0.23622047244094488,
          "duration": 0.023255813953483084
        },
        {
          "name": "C#7",
          "midi": 97,
          "time": 96.61627906975764,
          "velocity": 0.2283464566929134,
          "duration": 0.2558139534883139
        },
        {
          "name": "F7",
          "midi": 101,
          "time": 96.62790697673438,
          "velocity": 0.11811023622047244,
          "duration": 0.0813953488371908
        },
        {
          "name": "F#5",
          "midi": 78,
          "time": 96.65116279068786,
          "velocity": 0.14173228346456693,
          "duration": 0.034883720930224626
        },
        {
          "name": "G7",
          "midi": 103,
          "time": 96.6627906976646,
          "velocity": 0.09448818897637795,
          "duration": 0.04651162790696617
        },
        {
          "name": "B2",
          "midi": 47,
          "time": 96.67441860464135,
          "velocity": 0.3700787401574803,
          "duration": 0.034883720930224626
        },
        {
          "name": "D7",
          "midi": 98,
          "time": 96.67441860464135,
          "velocity": 0.14173228346456693,
          "duration": 0.04651162790696617
        },
        {
          "name": "A5",
          "midi": 81,
          "time": 96.68604651161809,
          "velocity": 0.3228346456692913,
          "duration": 0.34883720930224626
        },
        {
          "name": "D6",
          "midi": 86,
          "time": 96.68604651161809,
          "velocity": 0.08661417322834646,
          "duration": 0.034883720930224626
        },
        {
          "name": "E3",
          "midi": 52,
          "time": 96.72093023254831,
          "velocity": 0.4251968503937008,
          "duration": 0.023255813953483084
        },
        {
          "name": "C4",
          "midi": 60,
          "time": 96.72093023254831,
          "velocity": 0.28346456692913385,
          "duration": 0.023255813953483084
        },
        {
          "name": "D#7",
          "midi": 99,
          "time": 96.72093023254831,
          "velocity": 0.25984251968503935,
          "duration": 0.31395348837202164
        },
        {
          "name": "G#2",
          "midi": 44,
          "time": 96.73255813952505,
          "velocity": 0.47244094488188976,
          "duration": 0.023255813953483084
        },
        {
          "name": "D5",
          "midi": 74,
          "time": 96.73255813952505,
          "velocity": 0.14173228346456693,
          "duration": 0.04651162790696617
        },
        {
          "name": "D6",
          "midi": 86,
          "time": 96.73255813952505,
          "velocity": 0.14960629921259844,
          "duration": 0.10465116279067388
        },
        {
          "name": "D#3",
          "midi": 51,
          "time": 96.7441860465018,
          "velocity": 0.3700787401574803,
          "duration": 0.023255813953483084
        },
        {
          "name": "A#3",
          "midi": 58,
          "time": 96.7441860465018,
          "velocity": 0.3228346456692913,
          "duration": 0.023255813953483084
        },
        {
          "name": "B4",
          "midi": 71,
          "time": 96.7441860465018,
          "velocity": 0.3464566929133858,
          "duration": 0.406976744185954
        },
        {
          "name": "C7",
          "midi": 96,
          "time": 96.7441860465018,
          "velocity": 0.18110236220472442,
          "duration": 0.034883720930224626
        },
        {
          "name": "E7",
          "midi": 100,
          "time": 96.75581395347854,
          "velocity": 0.13385826771653545,
          "duration": 0.12790697674415696
        },
        {
          "name": "F7",
          "midi": 101,
          "time": 96.75581395347854,
          "velocity": 0.2440944881889764,
          "duration": 0.279069767441797
        },
        {
          "name": "B3",
          "midi": 59,
          "time": 96.76744186045528,
          "velocity": 0.23622047244094488,
          "duration": 0.05813953488370771
        },
        {
          "name": "F#5",
          "midi": 78,
          "time": 96.77906976743202,
          "velocity": 0.14173228346456693,
          "duration": 0.09302325581393234
        },
        {
          "name": "G#6",
          "midi": 92,
          "time": 96.77906976743202,
          "velocity": 0.13385826771653545,
          "duration": 0.11627906976741542
        },
        {
          "name": "D7",
          "midi": 98,
          "time": 96.77906976743202,
          "velocity": 0.2283464566929134,
          "duration": 0.34883720930224626
        },
        {
          "name": "D5",
          "midi": 74,
          "time": 96.8023255813855,
          "velocity": 0.1732283464566929,
          "duration": 0.09302325581393234
        },
        {
          "name": "G#5",
          "midi": 80,
          "time": 96.83720930231573,
          "velocity": 0.13385826771653545,
          "duration": 0.0813953488371908
        },
        {
          "name": "E4",
          "midi": 64,
          "time": 96.84883720929247,
          "velocity": 0.31496062992125984,
          "duration": 0.1627906976743816
        },
        {
          "name": "A#6",
          "midi": 94,
          "time": 96.8837209302227,
          "velocity": 0.11023622047244094,
          "duration": 0.09302325581393234
        },
        {
          "name": "C#7",
          "midi": 97,
          "time": 96.8837209302227,
          "velocity": 0.25196850393700787,
          "duration": 0.3372093023255047
        },
        {
          "name": "E3",
          "midi": 52,
          "time": 96.89534883719944,
          "velocity": 0.30708661417322836,
          "duration": 0.04651162790696617
        },
        {
          "name": "F#5",
          "midi": 78,
          "time": 96.93023255812966,
          "velocity": 0.28346456692913385,
          "duration": 0.0813953488371908
        },
        {
          "name": "E7",
          "midi": 100,
          "time": 96.93023255812966,
          "velocity": 0.13385826771653545,
          "duration": 0.05813953488370771
        },
        {
          "name": "G#2",
          "midi": 44,
          "time": 96.9418604651064,
          "velocity": 0.33858267716535434,
          "duration": 0.023255813953483084
        },
        {
          "name": "B3",
          "midi": 59,
          "time": 96.96511627905988,
          "velocity": 0.3858267716535433,
          "duration": 0.17441860465112313
        },
        {
          "name": "G2",
          "midi": 43,
          "time": 96.97674418603663,
          "velocity": 0.47244094488188976,
          "duration": 0.04651162790696617
        },
        {
          "name": "E3",
          "midi": 52,
          "time": 96.97674418603663,
          "velocity": 0.44881889763779526,
          "duration": 0.09302325581393234
        },
        {
          "name": "G6",
          "midi": 91,
          "time": 96.97674418603663,
          "velocity": 0.07874015748031496,
          "duration": 0.034883720930224626
        },
        {
          "name": "D#6",
          "midi": 87,
          "time": 96.98837209301337,
          "velocity": 0.07874015748031496,
          "duration": 0.04651162790696617
        },
        {
          "name": "E2",
          "midi": 40,
          "time": 97.03488372092033,
          "velocity": 0.5118110236220472,
          "duration": 0.011627906976741542
        },
        {
          "name": "F2",
          "midi": 41,
          "time": 97.04651162789708,
          "velocity": 0.5511811023622047,
          "duration": 0.05813953488370771
        },
        {
          "name": "D#3",
          "midi": 51,
          "time": 97.06976744185056,
          "velocity": 0.3700787401574803,
          "duration": 0.023255813953483084
        },
        {
          "name": "G7",
          "midi": 103,
          "time": 97.0813953488273,
          "velocity": 0.07086614173228346,
          "duration": 0.12790697674415696
        },
        {
          "name": "F#5",
          "midi": 78,
          "time": 97.09302325580404,
          "velocity": 0.16535433070866143,
          "duration": 0.05813953488370771
        },
        {
          "name": "D#7",
          "midi": 99,
          "time": 97.11627906975752,
          "velocity": 0.11811023622047244,
          "duration": 0.09302325581393234
        },
        {
          "name": "F3",
          "midi": 53,
          "time": 97.12790697673427,
          "velocity": 0.3228346456692913,
          "duration": 0.023255813953483084
        },
        {
          "name": "F2",
          "midi": 41,
          "time": 97.13953488371101,
          "velocity": 0.5748031496062992,
          "duration": 0.023255813953483084
        },
        {
          "name": "G#4",
          "midi": 68,
          "time": 97.13953488371101,
          "velocity": 0.2677165354330709,
          "duration": 0.05813953488370771
        },
        {
          "name": "D7",
          "midi": 98,
          "time": 97.13953488371101,
          "velocity": 0.16535433070866143,
          "duration": 0.23255813953483084
        },
        {
          "name": "E7",
          "midi": 100,
          "time": 97.13953488371101,
          "velocity": 0.14960629921259844,
          "duration": 0.12790697674415696
        },
        {
          "name": "A3",
          "midi": 57,
          "time": 97.15116279068775,
          "velocity": 0.47244094488188976,
          "duration": 0.04651162790696617
        },
        {
          "name": "C5",
          "midi": 72,
          "time": 97.15116279068775,
          "velocity": 0.25984251968503935,
          "duration": 0.023255813953483084
        },
        {
          "name": "D5",
          "midi": 74,
          "time": 97.15116279068775,
          "velocity": 0.15748031496062992,
          "duration": 0.04651162790696617
        },
        {
          "name": "C7",
          "midi": 96,
          "time": 97.15116279068775,
          "velocity": 0.14173228346456693,
          "duration": 0.034883720930224626
        },
        {
          "name": "G#2",
          "midi": 44,
          "time": 97.16279069766449,
          "velocity": 0.5984251968503937,
          "duration": 0.011627906976741542
        },
        {
          "name": "F#6",
          "midi": 90,
          "time": 97.16279069766449,
          "velocity": 0.14960629921259844,
          "duration": 0.24418604651157239
        },
        {
          "name": "G2",
          "midi": 43,
          "time": 97.17441860464123,
          "velocity": 0.5275590551181102,
          "duration": 0.011627906976741542
        },
        {
          "name": "D3",
          "midi": 50,
          "time": 97.17441860464123,
          "velocity": 0.5118110236220472,
          "duration": 0.011627906976741542
        },
        {
          "name": "E4",
          "midi": 64,
          "time": 97.17441860464123,
          "velocity": 0.41732283464566927,
          "duration": 0.41860465116270973
        },
        {
          "name": "B4",
          "midi": 71,
          "time": 97.17441860464123,
          "velocity": 0.4015748031496063,
          "duration": 0.4999999999999005
        },
        {
          "name": "G4",
          "midi": 67,
          "time": 97.18604651161797,
          "velocity": 0.28346456692913385,
          "duration": 0.04651162790696617
        },
        {
          "name": "C#6",
          "midi": 85,
          "time": 97.18604651161797,
          "velocity": 0.11023622047244094,
          "duration": 0.034883720930224626
        },
        {
          "name": "B3",
          "midi": 59,
          "time": 97.2209302325482,
          "velocity": 0.3937007874015748,
          "duration": 0.034883720930224626
        },
        {
          "name": "D6",
          "midi": 86,
          "time": 97.2209302325482,
          "velocity": 0.09448818897637795,
          "duration": 0.05813953488370771
        },
        {
          "name": "E3",
          "midi": 52,
          "time": 97.24418604650168,
          "velocity": 0.5196850393700787,
          "duration": 0.023255813953483084
        },
        {
          "name": "G4",
          "midi": 67,
          "time": 97.24418604650168,
          "velocity": 0.25196850393700787,
          "duration": 0.11627906976741542
        },
        {
          "name": "G#5",
          "midi": 80,
          "time": 97.25581395347842,
          "velocity": 0.08661417322834646,
          "duration": 0.05813953488370771
        },
        {
          "name": "E2",
          "midi": 40,
          "time": 97.26744186045516,
          "velocity": 0.4094488188976378,
          "duration": 0.023255813953483084
        },
        {
          "name": "D5",
          "midi": 74,
          "time": 97.26744186045516,
          "velocity": 0.2125984251968504,
          "duration": 0.43023255813945127
        },
        {
          "name": "E3",
          "midi": 52,
          "time": 97.2790697674319,
          "velocity": 0.4566929133858268,
          "duration": 0.023255813953483084
        },
        {
          "name": "F#5",
          "midi": 78,
          "time": 97.2790697674319,
          "velocity": 0.3464566929133858,
          "duration": 0.3837209302324851
        },
        {
          "name": "F3",
          "midi": 53,
          "time": 97.31395348836213,
          "velocity": 0.29133858267716534,
          "duration": 0.023255813953483084
        },
        {
          "name": "C7",
          "midi": 96,
          "time": 97.31395348836213,
          "velocity": 0.16535433070866143,
          "duration": 0.05813953488370771
        },
        {
          "name": "E3",
          "midi": 52,
          "time": 97.33720930231561,
          "velocity": 0.31496062992125984,
          "duration": 0.023255813953483084
        },
        {
          "name": "C6",
          "midi": 84,
          "time": 97.33720930231561,
          "velocity": 0.10236220472440945,
          "duration": 0.04651162790696617
        },
        {
          "name": "D#2",
          "midi": 39,
          "time": 97.34883720929236,
          "velocity": 0.5275590551181102,
          "duration": 0.023255813953483084
        },
        {
          "name": "F2",
          "midi": 41,
          "time": 97.37209302324584,
          "velocity": 0.5590551181102362,
          "duration": 0.023255813953483084
        },
        {
          "name": "A3",
          "midi": 57,
          "time": 97.37209302324584,
          "velocity": 0.31496062992125984,
          "duration": 0.023255813953483084
        },
        {
          "name": "G4",
          "midi": 67,
          "time": 97.37209302324584,
          "velocity": 0.5039370078740157,
          "duration": 1.0116279069765284
        },
        {
          "name": "C#7",
          "midi": 97,
          "time": 97.37209302324584,
          "velocity": 0.10236220472440945,
          "duration": 0.06976744186044925
        },
        {
          "name": "C7",
          "midi": 96,
          "time": 97.39534883719932,
          "velocity": 0.08661417322834646,
          "duration": 0.05813953488370771
        },
        {
          "name": "E3",
          "midi": 52,
          "time": 97.40697674417606,
          "velocity": 0.4409448818897638,
          "duration": 0.023255813953483084
        },
        {
          "name": "B3",
          "midi": 59,
          "time": 97.40697674417606,
          "velocity": 0.3464566929133858,
          "duration": 0.034883720930224626
        },
        {
          "name": "E3",
          "midi": 52,
          "time": 97.44186046510629,
          "velocity": 0.5590551181102362,
          "duration": 0.081395348837205
        },
        {
          "name": "C4",
          "midi": 60,
          "time": 97.44186046510629,
          "velocity": 0.31496062992125984,
          "duration": 0.023255813953483084
        },
        {
          "name": "D7",
          "midi": 98,
          "time": 97.45348837208303,
          "velocity": 0.1889763779527559,
          "duration": 0.25581395348832814
        },
        {
          "name": "A#6",
          "midi": 94,
          "time": 97.46511627905977,
          "velocity": 0.3228346456692913,
          "duration": 0.12790697674417117
        },
        {
          "name": "F7",
          "midi": 101,
          "time": 97.46511627905977,
          "velocity": 0.1889763779527559,
          "duration": 0.09302325581394655
        },
        {
          "name": "B3",
          "midi": 59,
          "time": 97.47674418603651,
          "velocity": 0.33070866141732286,
          "duration": 0.081395348837205
        },
        {
          "name": "E2",
          "midi": 40,
          "time": 97.51162790696675,
          "velocity": 0.4409448818897638,
          "duration": 0.023255813953483084
        },
        {
          "name": "C7",
          "midi": 96,
          "time": 97.52325581394349,
          "velocity": 0.11023622047244094,
          "duration": 0.04651162790696617
        },
        {
          "name": "E3",
          "midi": 52,
          "time": 97.53488372092023,
          "velocity": 0.48031496062992124,
          "duration": 0.034883720930224626
        },
        {
          "name": "E2",
          "midi": 40,
          "time": 97.54651162789698,
          "velocity": 0.5590551181102362,
          "duration": 0.023255813953483084
        },
        {
          "name": "A5",
          "midi": 81,
          "time": 97.54651162789698,
          "velocity": 0.25984251968503935,
          "duration": 0.39534883720921243
        },
        {
          "name": "E7",
          "midi": 100,
          "time": 97.55813953487372,
          "velocity": 0.15748031496062992,
          "duration": 0.10465116279067388
        },
        {
          "name": "F2",
          "midi": 41,
          "time": 97.56976744185046,
          "velocity": 0.5275590551181102,
          "duration": 0.011627906976741542
        },
        {
          "name": "E2",
          "midi": 40,
          "time": 97.5813953488272,
          "velocity": 0.5039370078740157,
          "duration": 0.023255813953483084
        },
        {
          "name": "B3",
          "midi": 59,
          "time": 97.59302325580394,
          "velocity": 0.29133858267716534,
          "duration": 0.023255813953483084
        },
        {
          "name": "C#7",
          "midi": 97,
          "time": 97.59302325580394,
          "velocity": 0.2047244094488189,
          "duration": 0.09302325581393234
        },
        {
          "name": "F2",
          "midi": 41,
          "time": 97.60465116278068,
          "velocity": 0.5590551181102362,
          "duration": 0.011627906976741542
        },
        {
          "name": "G2",
          "midi": 43,
          "time": 97.61627906975743,
          "velocity": 0.5118110236220472,
          "duration": 0.034883720930224626
        },
        {
          "name": "B3",
          "midi": 59,
          "time": 97.62790697673417,
          "velocity": 0.3779527559055118,
          "duration": 0.17441860465112313
        },
        {
          "name": "F#6",
          "midi": 90,
          "time": 97.63953488371091,
          "velocity": 0.3543307086614173,
          "duration": 0.39534883720921243
        },
        {
          "name": "G1",
          "midi": 31,
          "time": 97.65116279068765,
          "velocity": 0.28346456692913385,
          "duration": 0.023255813953483084
        },
        {
          "name": "G#2",
          "midi": 44,
          "time": 97.65116279068765,
          "velocity": 0.5196850393700787,
          "duration": 0.011627906976741542
        },
        {
          "name": "E3",
          "midi": 52,
          "time": 97.65116279068765,
          "velocity": 0.2992125984251969,
          "duration": 0.034883720930224626
        },
        {
          "name": "F7",
          "midi": 101,
          "time": 97.65116279068765,
          "velocity": 0.08661417322834646,
          "duration": 0.034883720930224626
        },
        {
          "name": "D#7",
          "midi": 99,
          "time": 97.66279069766439,
          "velocity": 0.09448818897637795,
          "duration": 0.034883720930224626
        },
        {
          "name": "E2",
          "midi": 40,
          "time": 97.67441860464113,
          "velocity": 0.5511811023622047,
          "duration": 0.023255813953483084
        },
        {
          "name": "A#6",
          "midi": 94,
          "time": 97.67441860464113,
          "velocity": 0.14173228346456693,
          "duration": 0.10465116279067388
        },
        {
          "name": "C7",
          "midi": 96,
          "time": 97.68604651161787,
          "velocity": 0.1889763779527559,
          "duration": 0.19767441860460622
        },
        {
          "name": "F2",
          "midi": 41,
          "time": 97.69767441859462,
          "velocity": 0.5669291338582677,
          "duration": 0.04651162790696617
        },
        {
          "name": "E4",
          "midi": 64,
          "time": 97.69767441859462,
          "velocity": 0.1968503937007874,
          "duration": 0.05813953488370771
        },
        {
          "name": "C#7",
          "midi": 97,
          "time": 97.70930232557136,
          "velocity": 0.2283464566929134,
          "duration": 0.19767441860460622
        },
        {
          "name": "F#5",
          "midi": 78,
          "time": 97.7209302325481,
          "velocity": 0.3700787401574803,
          "duration": 0.12790697674415696
        },
        {
          "name": "D7",
          "midi": 98,
          "time": 97.7209302325481,
          "velocity": 0.15748031496062992,
          "duration": 0.06976744186044925
        },
        {
          "name": "F7",
          "midi": 101,
          "time": 97.74418604650158,
          "velocity": 0.07874015748031496,
          "duration": 0.04651162790696617
        },
        {
          "name": "F3",
          "midi": 53,
          "time": 97.76744186045507,
          "velocity": 0.31496062992125984,
          "duration": 0.023255813953483084
        },
        {
          "name": "E4",
          "midi": 64,
          "time": 97.7790697674318,
          "velocity": 0.29133858267716534,
          "duration": 0.034883720930224626
        },
        {
          "name": "E5",
          "midi": 76,
          "time": 97.79069767440855,
          "velocity": 0.41732283464566927,
          "duration": 0.3023255813952801
        },
        {
          "name": "D6",
          "midi": 86,
          "time": 97.79069767440855,
          "velocity": 0.14173228346456693,
          "duration": 0.05813953488370771
        },
        {
          "name": "G6",
          "midi": 91,
          "time": 97.79069767440855,
          "velocity": 0.2283464566929134,
          "duration": 0.09302325581393234
        },
        {
          "name": "F#2",
          "midi": 42,
          "time": 97.80232558138529,
          "velocity": 0.5669291338582677,
          "duration": 0.034883720930224626
        },
        {
          "name": "B4",
          "midi": 71,
          "time": 97.80232558138529,
          "velocity": 0.30708661417322836,
          "duration": 0.11627906976741542
        },
        {
          "name": "B6",
          "midi": 95,
          "time": 97.80232558138529,
          "velocity": 0.28346456692913385,
          "duration": 0.31395348837202164
        },
        {
          "name": "D#7",
          "midi": 99,
          "time": 97.80232558138529,
          "velocity": 0.25196850393700787,
          "duration": 0.29069767441853855
        },
        {
          "name": "E7",
          "midi": 100,
          "time": 97.80232558138529,
          "velocity": 0.12598425196850394,
          "duration": 0.05813953488370771
        },
        {
          "name": "G#3",
          "midi": 56,
          "time": 97.81395348836203,
          "velocity": 0.4566929133858268,
          "duration": 0.023255813953483084
        },
        {
          "name": "D#4",
          "midi": 63,
          "time": 97.81395348836203,
          "velocity": 0.2992125984251969,
          "duration": 0.06976744186044925
        },
        {
          "name": "A#6",
          "midi": 94,
          "time": 97.81395348836203,
          "velocity": 0.14173228346456693,
          "duration": 0.034883720930224626
        },
        {
          "name": "D7",
          "midi": 98,
          "time": 97.82558139533877,
          "velocity": 0.2204724409448819,
          "duration": 0.2209302325580893
        },
        {
          "name": "A#3",
          "midi": 58,
          "time": 97.83720930231551,
          "velocity": 0.3543307086614173,
          "duration": 0.023255813953483084
        },
        {
          "name": "D#6",
          "midi": 87,
          "time": 97.83720930231551,
          "velocity": 0.07874015748031496,
          "duration": 0.034883720930224626
        },
        {
          "name": "E3",
          "midi": 52,
          "time": 97.860465116269,
          "velocity": 0.5196850393700787,
          "duration": 0.034883720930224626
        },
        {
          "name": "A#6",
          "midi": 94,
          "time": 97.860465116269,
          "velocity": 0.11023622047244094,
          "duration": 0.05813953488370771
        },
        {
          "name": "B3",
          "midi": 59,
          "time": 97.87209302324574,
          "velocity": 0.4015748031496063,
          "duration": 0.10465116279067388
        },
        {
          "name": "G#6",
          "midi": 92,
          "time": 97.88372093022248,
          "velocity": 0.1968503937007874,
          "duration": 0.15116279069764005
        },
        {
          "name": "F3",
          "midi": 53,
          "time": 97.89534883719922,
          "velocity": 0.5275590551181102,
          "duration": 0.011627906976741542
        },
        {
          "name": "E3",
          "midi": 52,
          "time": 97.90697674417596,
          "velocity": 0.5196850393700787,
          "duration": 0.023255813953483084
        },
        {
          "name": "D5",
          "midi": 74,
          "time": 97.90697674417596,
          "velocity": 0.14960629921259844,
          "duration": 0.09302325581393234
        },
        {
          "name": "E3",
          "midi": 52,
          "time": 97.94186046510619,
          "velocity": 0.23622047244094488,
          "duration": 0.023255813953483084
        },
        {
          "name": "E2",
          "midi": 40,
          "time": 97.98837209301315,
          "velocity": 0.33070866141732286,
          "duration": 0.023255813953483084
        },
        {
          "name": "F#5",
          "midi": 78,
          "time": 97.9999999999899,
          "velocity": 0.3464566929133858,
          "duration": 0.0813953488371908
        },
        {
          "name": "A#6",
          "midi": 94,
          "time": 97.9999999999899,
          "velocity": 0.08661417322834646,
          "duration": 0.034883720930224626
        },
        {
          "name": "E7",
          "midi": 100,
          "time": 97.9999999999899,
          "velocity": 0.2677165354330709,
          "duration": 0.18604651162786467
        },
        {
          "name": "C3",
          "midi": 48,
          "time": 98.01162790696664,
          "velocity": 0.5511811023622047,
          "duration": 0.023255813953483084
        },
        {
          "name": "A#3",
          "midi": 58,
          "time": 98.01162790696664,
          "velocity": 0.49606299212598426,
          "duration": 0.023255813953483084
        },
        {
          "name": "C6",
          "midi": 84,
          "time": 98.01162790696664,
          "velocity": 0.15748031496062992,
          "duration": 0.05813953488370771
        },
        {
          "name": "A6",
          "midi": 93,
          "time": 98.01162790696664,
          "velocity": 0.11023622047244094,
          "duration": 0.05813953488370771
        },
        {
          "name": "C#7",
          "midi": 97,
          "time": 98.01162790696664,
          "velocity": 0.2125984251968504,
          "duration": 0.06976744186044925
        },
        {
          "name": "C#5",
          "midi": 73,
          "time": 98.02325581394338,
          "velocity": 0.3228346456692913,
          "duration": 0.034883720930224626
        },
        {
          "name": "G#5",
          "midi": 80,
          "time": 98.02325581394338,
          "velocity": 0.14173228346456693,
          "duration": 0.04651162790696617
        },
        {
          "name": "D6",
          "midi": 86,
          "time": 98.02325581394338,
          "velocity": 0.14173228346456693,
          "duration": 0.04651162790696617
        },
        {
          "name": "B3",
          "midi": 59,
          "time": 98.03488372092012,
          "velocity": 0.44881889763779526,
          "duration": 0.023255813953483084
        },
        {
          "name": "D#6",
          "midi": 87,
          "time": 98.04651162789686,
          "velocity": 0.12598425196850394,
          "duration": 0.04651162790696617
        },
        {
          "name": "A#6",
          "midi": 94,
          "time": 98.04651162789686,
          "velocity": 0.1889763779527559,
          "duration": 0.034883720930224626
        },
        {
          "name": "G#6",
          "midi": 92,
          "time": 98.0581395348736,
          "velocity": 0.16535433070866143,
          "duration": 0.20930232558134776
        },
        {
          "name": "E3",
          "midi": 52,
          "time": 98.06976744185035,
          "velocity": 0.5433070866141733,
          "duration": 0.10465116279067388
        },
        {
          "name": "D5",
          "midi": 74,
          "time": 98.06976744185035,
          "velocity": 0.23622047244094488,
          "duration": 0.034883720930224626
        },
        {
          "name": "B3",
          "midi": 59,
          "time": 98.09302325580383,
          "velocity": 0.3858267716535433,
          "duration": 0.034883720930224626
        },
        {
          "name": "F#5",
          "midi": 78,
          "time": 98.09302325580383,
          "velocity": 0.5118110236220472,
          "duration": 0.37209302325572935
        },
        {
          "name": "D7",
          "midi": 98,
          "time": 98.09302325580383,
          "velocity": 0.07086614173228346,
          "duration": 0.034883720930224626
        },
        {
          "name": "E5",
          "midi": 76,
          "time": 98.10465116278057,
          "velocity": 0.41732283464566927,
          "duration": 0.12790697674415696
        },
        {
          "name": "C3",
          "midi": 48,
          "time": 98.11627906975731,
          "velocity": 0.5196850393700787,
          "duration": 0.011627906976741542
        },
        {
          "name": "B2",
          "midi": 47,
          "time": 98.12790697673405,
          "velocity": 0.5118110236220472,
          "duration": 0.011627906976741542
        },
        {
          "name": "B6",
          "midi": 95,
          "time": 98.12790697673405,
          "velocity": 0.3779527559055118,
          "duration": 0.11627906976741542
        },
        {
          "name": "B3",
          "midi": 59,
          "time": 98.1395348837108,
          "velocity": 0.30708661417322836,
          "duration": 0.023255813953483084
        },
        {
          "name": "B2",
          "midi": 47,
          "time": 98.16279069766428,
          "velocity": 0.5039370078740157,
          "duration": 0.023255813953483084
        },
        {
          "name": "F3",
          "midi": 53,
          "time": 98.17441860464102,
          "velocity": 0.5196850393700787,
          "duration": 0.011627906976741542
        },
        {
          "name": "C3",
          "midi": 48,
          "time": 98.18604651161776,
          "velocity": 0.5511811023622047,
          "duration": 0.011627906976741542
        },
        {
          "name": "B2",
          "midi": 47,
          "time": 98.1976744185945,
          "velocity": 0.5984251968503937,
          "duration": 0.05813953488370771
        },
        {
          "name": "E7",
          "midi": 100,
          "time": 98.1976744185945,
          "velocity": 0.2283464566929134,
          "duration": 0.3604651162789878
        },
        {
          "name": "C4",
          "midi": 60,
          "time": 98.20930232557124,
          "velocity": 0.23622047244094488,
          "duration": 0.04651162790696617
        },
        {
          "name": "B4",
          "midi": 71,
          "time": 98.22093023254799,
          "velocity": 0.29133858267716534,
          "duration": 0.2209302325580893
        },
        {
          "name": "D6",
          "midi": 86,
          "time": 98.22093023254799,
          "velocity": 0.12598425196850394,
          "duration": 0.06976744186044925
        },
        {
          "name": "D7",
          "midi": 98,
          "time": 98.22093023254799,
          "velocity": 0.13385826771653545,
          "duration": 0.04651162790696617
        },
        {
          "name": "C#7",
          "midi": 97,
          "time": 98.23255813952473,
          "velocity": 0.33858267716535434,
          "duration": 0.4651162790696617
        },
        {
          "name": "E5",
          "midi": 76,
          "time": 98.24418604650147,
          "velocity": 0.2992125984251969,
          "duration": 0.3372093023255047
        },
        {
          "name": "F2",
          "midi": 41,
          "time": 98.25581395347821,
          "velocity": 0.5196850393700787,
          "duration": 0.011627906976741542
        },
        {
          "name": "C3",
          "midi": 48,
          "time": 98.25581395347821,
          "velocity": 0.5118110236220472,
          "duration": 0.011627906976741542
        },
        {
          "name": "D2",
          "midi": 38,
          "time": 98.26744186045495,
          "velocity": 0.5826771653543307,
          "duration": 0.011627906976741542
        },
        {
          "name": "F7",
          "midi": 101,
          "time": 98.26744186045495,
          "velocity": 0.09448818897637795,
          "duration": 0.04651162790696617
        },
        {
          "name": "A2",
          "midi": 45,
          "time": 98.2790697674317,
          "velocity": 0.6062992125984252,
          "duration": 0.011627906976741542
        },
        {
          "name": "D7",
          "midi": 98,
          "time": 98.2790697674317,
          "velocity": 0.14960629921259844,
          "duration": 0.06976744186044925
        },
        {
          "name": "D#7",
          "midi": 99,
          "time": 98.2790697674317,
          "velocity": 0.12598425196850394,
          "duration": 0.04651162790696617
        },
        {
          "name": "B2",
          "midi": 47,
          "time": 98.29069767440843,
          "velocity": 0.5669291338582677,
          "duration": 0.023255813953483084
        },
        {
          "name": "E3",
          "midi": 52,
          "time": 98.30232558138518,
          "velocity": 0.4409448818897638,
          "duration": 0.0813953488371908
        },
        {
          "name": "C4",
          "midi": 60,
          "time": 98.30232558138518,
          "velocity": 0.25196850393700787,
          "duration": 0.023255813953483084
        },
        {
          "name": "B6",
          "midi": 95,
          "time": 98.30232558138518,
          "velocity": 0.14173228346456693,
          "duration": 0.06976744186044925
        },
        {
          "name": "G#6",
          "midi": 92,
          "time": 98.31395348836192,
          "velocity": 0.08661417322834646,
          "duration": 0.10465116279067388
        },
        {
          "name": "B3",
          "midi": 59,
          "time": 98.32558139533866,
          "velocity": 0.41732283464566927,
          "duration": 0.1395348837208985
        },
        {
          "name": "C7",
          "midi": 96,
          "time": 98.32558139533866,
          "velocity": 0.13385826771653545,
          "duration": 0.17441860465112313
        },
        {
          "name": "F2",
          "midi": 41,
          "time": 98.3372093023154,
          "velocity": 0.5354330708661418,
          "duration": 0.04651162790696617
        },
        {
          "name": "F3",
          "midi": 53,
          "time": 98.38372093022237,
          "velocity": 0.2755905511811024,
          "duration": 0.023255813953483084
        },
        {
          "name": "E4",
          "midi": 64,
          "time": 98.38372093022237,
          "velocity": 0.3228346456692913,
          "duration": 0.11627906976741542
        },
        {
          "name": "B6",
          "midi": 95,
          "time": 98.38372093022237,
          "velocity": 0.1732283464566929,
          "duration": 0.15116279069764005
        },
        {
          "name": "D7",
          "midi": 98,
          "time": 98.38372093022237,
          "velocity": 0.3700787401574803,
          "duration": 0.4999999999998863
        },
        {
          "name": "D#7",
          "midi": 99,
          "time": 98.40697674417585,
          "velocity": 0.07086614173228346,
          "duration": 0.034883720930224626
        },
        {
          "name": "G7",
          "midi": 103,
          "time": 98.40697674417585,
          "velocity": 0.11023622047244094,
          "duration": 0.034883720930224626
        },
        {
          "name": "A4",
          "midi": 69,
          "time": 98.43023255812933,
          "velocity": 0.29133858267716534,
          "duration": 0.023255813953483084
        },
        {
          "name": "C5",
          "midi": 72,
          "time": 98.44186046510607,
          "velocity": 0.33858267716535434,
          "duration": 0.04651162790696617
        },
        {
          "name": "G5",
          "midi": 79,
          "time": 98.45348837208282,
          "velocity": 0.48031496062992124,
          "duration": 0.2209302325580893
        },
        {
          "name": "A6",
          "midi": 93,
          "time": 98.45348837208282,
          "velocity": 0.14173228346456693,
          "duration": 0.034883720930224626
        },
        {
          "name": "F7",
          "midi": 101,
          "time": 98.45348837208282,
          "velocity": 0.2440944881889764,
          "duration": 0.26744186046505547
        },
        {
          "name": "C4",
          "midi": 60,
          "time": 98.46511627905956,
          "velocity": 0.36220472440944884,
          "duration": 0.04651162790696617
        },
        {
          "name": "A4",
          "midi": 69,
          "time": 98.46511627905956,
          "velocity": 0.3543307086614173,
          "duration": 0.023255813953483084
        },
        {
          "name": "D#7",
          "midi": 99,
          "time": 98.46511627905956,
          "velocity": 0.25196850393700787,
          "duration": 0.4651162790696617
        },
        {
          "name": "C3",
          "midi": 48,
          "time": 98.48837209301304,
          "velocity": 0.36220472440944884,
          "duration": 0.023255813953483084
        },
        {
          "name": "A#4",
          "midi": 70,
          "time": 98.48837209301304,
          "velocity": 0.28346456692913385,
          "duration": 0.023255813953483084
        },
        {
          "name": "D6",
          "midi": 86,
          "time": 98.48837209301304,
          "velocity": 0.11023622047244094,
          "duration": 0.05813953488370771
        },
        {
          "name": "G3",
          "midi": 55,
          "time": 98.49999999998978,
          "velocity": 0.28346456692913385,
          "duration": 0.04651162790696617
        },
        {
          "name": "A4",
          "midi": 69,
          "time": 98.49999999998978,
          "velocity": 0.3700787401574803,
          "duration": 0.2209302325580893
        },
        {
          "name": "E4",
          "midi": 64,
          "time": 98.51162790696652,
          "velocity": 0.28346456692913385,
          "duration": 0.09302325581393234
        },
        {
          "name": "B3",
          "midi": 59,
          "time": 98.52325581394327,
          "velocity": 0.33070866141732286,
          "duration": 0.034883720930224626
        },
        {
          "name": "G#6",
          "midi": 92,
          "time": 98.52325581394327,
          "velocity": 0.13385826771653545,
          "duration": 0.0813953488371908
        },
        {
          "name": "E3",
          "midi": 52,
          "time": 98.55813953487349,
          "velocity": 0.3937007874015748,
          "duration": 0.11627906976741542
        },
        {
          "name": "G4",
          "midi": 67,
          "time": 98.55813953487349,
          "velocity": 0.2440944881889764,
          "duration": 0.023255813953483084
        },
        {
          "name": "B6",
          "midi": 95,
          "time": 98.56976744185023,
          "velocity": 0.16535433070866143,
          "duration": 0.19767441860460622
        },
        {
          "name": "F#6",
          "midi": 90,
          "time": 98.58139534882697,
          "velocity": 0.11811023622047244,
          "duration": 0.034883720930224626
        },
        {
          "name": "B3",
          "midi": 59,
          "time": 98.59302325580371,
          "velocity": 0.3858267716535433,
          "duration": 0.17441860465112313
        },
        {
          "name": "E7",
          "midi": 100,
          "time": 98.59302325580371,
          "velocity": 0.33858267716535434,
          "duration": 0.3837209302324709
        },
        {
          "name": "G4",
          "midi": 67,
          "time": 98.60465116278046,
          "velocity": 0.2283464566929134,
          "duration": 0.034883720930224626
        },
        {
          "name": "F#6",
          "midi": 90,
          "time": 98.63953488371068,
          "velocity": 0.2125984251968504,
          "duration": 0.2558139534883139
        },
        {
          "name": "G4",
          "midi": 67,
          "time": 98.65116279068742,
          "velocity": 0.2755905511811024,
          "duration": 0.023255813953483084
        },
        {
          "name": "D5",
          "midi": 74,
          "time": 98.65116279068742,
          "velocity": 0.1968503937007874,
          "duration": 0.034883720930224626
        },
        {
          "name": "E5",
          "midi": 76,
          "time": 98.65116279068742,
          "velocity": 0.25196850393700787,
          "duration": 0.34883720930224626
        },
        {
          "name": "A5",
          "midi": 81,
          "time": 98.65116279068742,
          "velocity": 0.3700787401574803,
          "duration": 0.2209302325580893
        },
        {
          "name": "B5",
          "midi": 83,
          "time": 98.65116279068742,
          "velocity": 0.14173228346456693,
          "duration": 0.05813953488370771
        },
        {
          "name": "G#6",
          "midi": 92,
          "time": 98.65116279068742,
          "velocity": 0.13385826771653545,
          "duration": 0.1627906976743816
        },
        {
          "name": "A6",
          "midi": 93,
          "time": 98.66279069766416,
          "velocity": 0.44881889763779526,
          "duration": 0.279069767441797
        },
        {
          "name": "D#3",
          "midi": 51,
          "time": 98.6744186046409,
          "velocity": 0.36220472440944884,
          "duration": 0.023255813953483084
        },
        {
          "name": "F#4",
          "midi": 66,
          "time": 98.6744186046409,
          "velocity": 0.3228346456692913,
          "duration": 0.1627906976743816
        },
        {
          "name": "D#6",
          "midi": 87,
          "time": 98.69767441859439,
          "velocity": 0.10236220472440945,
          "duration": 0.15116279069764005
        },
        {
          "name": "C7",
          "midi": 96,
          "time": 98.69767441859439,
          "velocity": 0.2283464566929134,
          "duration": 0.04651162790696617
        },
        {
          "name": "F#2",
          "midi": 42,
          "time": 98.70930232557113,
          "velocity": 0.49606299212598426,
          "duration": 0.034883720930224626
        },
        {
          "name": "C#7",
          "midi": 97,
          "time": 98.70930232557113,
          "velocity": 0.1968503937007874,
          "duration": 0.09302325581393234
        },
        {
          "name": "A4",
          "midi": 69,
          "time": 98.74418604650135,
          "velocity": 0.3937007874015748,
          "duration": 0.1395348837208985
        },
        {
          "name": "D3",
          "midi": 50,
          "time": 98.76744186045484,
          "velocity": 0.4015748031496063,
          "duration": 0.09302325581393234
        },
        {
          "name": "B5",
          "midi": 83,
          "time": 98.77906976743158,
          "velocity": 0.07874015748031496,
          "duration": 0.04651162790696617
        },
        {
          "name": "B3",
          "midi": 59,
          "time": 98.83720930231529,
          "velocity": 0.3543307086614173,
          "duration": 0.034883720930224626
        },
        {
          "name": "C#7",
          "midi": 97,
          "time": 98.83720930231529,
          "velocity": 0.18110236220472442,
          "duration": 0.06976744186044925
        },
        {
          "name": "F#4",
          "midi": 66,
          "time": 98.84883720929203,
          "velocity": 0.2125984251968504,
          "duration": 0.034883720930224626
        },
        {
          "name": "A2",
          "midi": 45,
          "time": 98.86046511626877,
          "velocity": 0.5669291338582677,
          "duration": 0.04651162790696617
        },
        {
          "name": "G6",
          "midi": 91,
          "time": 98.86046511626877,
          "velocity": 0.25984251968503935,
          "duration": 0.4883720930231732
        },
        {
          "name": "B1",
          "midi": 35,
          "time": 98.87209302324551,
          "velocity": 0.5118110236220472,
          "duration": 0.023255813953483084
        },
        {
          "name": "A#3",
          "midi": 58,
          "time": 98.87209302324551,
          "velocity": 0.4015748031496063,
          "duration": 0.034883720930224626
        },
        {
          "name": "G#5",
          "midi": 80,
          "time": 98.87209302324551,
          "velocity": 0.2283464566929134,
          "duration": 0.023255813953483084
        },
        {
          "name": "B6",
          "midi": 95,
          "time": 98.87209302324551,
          "velocity": 0.41732283464566927,
          "duration": 1.8720930232554451
        },
        {
          "name": "G4",
          "midi": 67,
          "time": 98.88372093022225,
          "velocity": 0.3228346456692913,
          "duration": 0.09302325581393234
        },
        {
          "name": "C7",
          "midi": 96,
          "time": 98.88372093022225,
          "velocity": 0.11023622047244094,
          "duration": 0.06976744186044925
        },
        {
          "name": "C5",
          "midi": 72,
          "time": 98.895348837199,
          "velocity": 0.2440944881889764,
          "duration": 0.19767441860462043
        },
        {
          "name": "D7",
          "midi": 98,
          "time": 98.895348837199,
          "velocity": 0.07874015748031496,
          "duration": 0.05813953488370771
        },
        {
          "name": "F7",
          "midi": 101,
          "time": 98.895348837199,
          "velocity": 0.11023622047244094,
          "duration": 0.0813953488371908
        },
        {
          "name": "B2",
          "midi": 47,
          "time": 98.90697674417574,
          "velocity": 0.5669291338582677,
          "duration": 0.011627906976741542
        },
        {
          "name": "C#4",
          "midi": 61,
          "time": 98.90697674417574,
          "velocity": 0.3858267716535433,
          "duration": 0.023255813953483084
        },
        {
          "name": "B5",
          "midi": 83,
          "time": 98.90697674417574,
          "velocity": 0.11811023622047244,
          "duration": 0.0813953488371908
        },
        {
          "name": "C3",
          "midi": 48,
          "time": 98.91860465115248,
          "velocity": 0.5748031496062992,
          "duration": 0.023255813953483084
        },
        {
          "name": "C#7",
          "midi": 97,
          "time": 98.91860465115248,
          "velocity": 0.07086614173228346,
          "duration": 0.034883720930224626
        },
        {
          "name": "F#7",
          "midi": 102,
          "time": 98.93023255812922,
          "velocity": 0.13385826771653545,
          "duration": 0.0813953488371908
        },
        {
          "name": "C#3",
          "midi": 49,
          "time": 98.94186046510596,
          "velocity": 0.5590551181102362,
          "duration": 0.023255813953483084
        },
        {
          "name": "G3",
          "midi": 55,
          "time": 98.94186046510596,
          "velocity": 0.4645669291338583,
          "duration": 0.0813953488371908
        },
        {
          "name": "A5",
          "midi": 81,
          "time": 98.94186046510596,
          "velocity": 0.10236220472440945,
          "duration": 0.034883720930224626
        },
        {
          "name": "F2",
          "midi": 41,
          "time": 98.96511627905944,
          "velocity": 0.5118110236220472,
          "duration": 0.023255813953483084
        },
        {
          "name": "C3",
          "midi": 48,
          "time": 98.96511627905944,
          "velocity": 0.5433070866141733,
          "duration": 0.011627906976741542
        },
        {
          "name": "A6",
          "midi": 93,
          "time": 98.96511627905944,
          "velocity": 0.15748031496062992,
          "duration": 0.19767441860462043
        },
        {
          "name": "C#3",
          "midi": 49,
          "time": 98.97674418603619,
          "velocity": 0.5590551181102362,
          "duration": 0.011627906976741542
        },
        {
          "name": "C3",
          "midi": 48,
          "time": 98.98837209301293,
          "velocity": 0.5118110236220472,
          "duration": 0.011627906976741542
        },
        {
          "name": "E4",
          "midi": 64,
          "time": 98.98837209301293,
          "velocity": 0.30708661417322836,
          "duration": 0.15116279069765426
        },
        {
          "name": "G5",
          "midi": 79,
          "time": 98.98837209301293,
          "velocity": 0.15748031496062992,
          "duration": 0.12790697674417117
        },
        {
          "name": "G#2",
          "midi": 44,
          "time": 98.99999999998967,
          "velocity": 0.4094488188976378,
          "duration": 0.023255813953483084
        },
        {
          "name": "A5",
          "midi": 81,
          "time": 99.0348837209199,
          "velocity": 0.08661417322834646,
          "duration": 0.03488372093023884
        },
        {
          "name": "F#7",
          "midi": 102,
          "time": 99.0348837209199,
          "velocity": 0.1732283464566929,
          "duration": 0.3488372093022747
        },
        {
          "name": "A2",
          "midi": 45,
          "time": 99.08139534882687,
          "velocity": 0.5984251968503937,
          "duration": 0.034883720930224626
        },
        {
          "name": "D5",
          "midi": 74,
          "time": 99.08139534882687,
          "velocity": 0.28346456692913385,
          "duration": 0.43023255813945127
        },
        {
          "name": "B5",
          "midi": 83,
          "time": 99.08139534882687,
          "velocity": 0.2204724409448819,
          "duration": 0.09302325581393234
        },
        {
          "name": "C7",
          "midi": 96,
          "time": 99.08139534882687,
          "velocity": 0.09448818897637795,
          "duration": 0.0813953488371908
        },
        {
          "name": "C#7",
          "midi": 97,
          "time": 99.08139534882687,
          "velocity": 0.13385826771653545,
          "duration": 0.0813953488371908
        },
        {
          "name": "A#1",
          "midi": 34,
          "time": 99.09302325580362,
          "velocity": 0.5433070866141733,
          "duration": 0.011627906976741542
        },
        {
          "name": "G4",
          "midi": 67,
          "time": 99.09302325580362,
          "velocity": 0.3858267716535433,
          "duration": 0.25581395348832814
        },
        {
          "name": "D7",
          "midi": 98,
          "time": 99.09302325580362,
          "velocity": 0.10236220472440945,
          "duration": 0.04651162790696617
        },
        {
          "name": "G1",
          "midi": 31,
          "time": 99.10465116278036,
          "velocity": 0.5196850393700787,
          "duration": 0.011627906976741542
        },
        {
          "name": "A#2",
          "midi": 46,
          "time": 99.1162790697571,
          "velocity": 0.5748031496062992,
          "duration": 0.011627906976741542
        },
        {
          "name": "B2",
          "midi": 47,
          "time": 99.12790697673384,
          "velocity": 0.5905511811023622,
          "duration": 0.023255813953483084
        },
        {
          "name": "A4",
          "midi": 69,
          "time": 99.13953488371058,
          "velocity": 0.2283464566929134,
          "duration": 0.06976744186044925
        },
        {
          "name": "C3",
          "midi": 48,
          "time": 99.15116279068732,
          "velocity": 0.5826771653543307,
          "duration": 0.011627906976741542
        },
        {
          "name": "E4",
          "midi": 64,
          "time": 99.15116279068732,
          "velocity": 0.29133858267716534,
          "duration": 0.1627906976743958
        },
        {
          "name": "C#3",
          "midi": 49,
          "time": 99.16279069766406,
          "velocity": 0.5748031496062992,
          "duration": 0.011627906976741542
        },
        {
          "name": "G3",
          "midi": 55,
          "time": 99.16279069766406,
          "velocity": 0.48031496062992124,
          "duration": 0.10465116279068809
        },
        {
          "name": "C3",
          "midi": 48,
          "time": 99.1744186046408,
          "velocity": 0.5748031496062992,
          "duration": 0.081395348837205
        },
        {
          "name": "F#6",
          "midi": 90,
          "time": 99.19767441859429,
          "velocity": 0.14960629921259844,
          "duration": 0.06976744186046346
        },
        {
          "name": "B5",
          "midi": 83,
          "time": 99.20930232557103,
          "velocity": 0.15748031496062992,
          "duration": 0.19767441860462043
        },
        {
          "name": "A4",
          "midi": 69,
          "time": 99.22093023254777,
          "velocity": 0.14173228346456693,
          "duration": 0.04651162790698038
        },
        {
          "name": "B2",
          "midi": 47,
          "time": 99.26744186045475,
          "velocity": 0.47244094488188976,
          "duration": 0.023255813953483084
        },
        {
          "name": "A5",
          "midi": 81,
          "time": 99.29069767440824,
          "velocity": 0.2677165354330709,
          "duration": 0.24418604651157239
        },
        {
          "name": "D7",
          "midi": 98,
          "time": 99.30232558138498,
          "velocity": 0.25984251968503935,
          "duration": 0.15116279069764005
        },
        {
          "name": "E7",
          "midi": 100,
          "time": 99.30232558138498,
          "velocity": 0.11811023622047244,
          "duration": 0.06976744186044925
        },
        {
          "name": "A#4",
          "midi": 70,
          "time": 99.31395348836172,
          "velocity": 0.25196850393700787,
          "duration": 0.023255813953483084
        },
        {
          "name": "C7",
          "midi": 96,
          "time": 99.31395348836172,
          "velocity": 0.14960629921259844,
          "duration": 0.09302325581393234
        },
        {
          "name": "D#7",
          "midi": 99,
          "time": 99.31395348836172,
          "velocity": 0.08661417322834646,
          "duration": 0.05813953488370771
        },
        {
          "name": "E4",
          "midi": 64,
          "time": 99.32558139533846,
          "velocity": 0.2992125984251969,
          "duration": 0.17441860465112313
        },
        {
          "name": "F#6",
          "midi": 90,
          "time": 99.32558139533846,
          "velocity": 0.08661417322834646,
          "duration": 0.06976744186044925
        },
        {
          "name": "D3",
          "midi": 50,
          "time": 99.3372093023152,
          "velocity": 0.3464566929133858,
          "duration": 0.023255813953483084
        },
        {
          "name": "G#3",
          "midi": 56,
          "time": 99.3372093023152,
          "velocity": 0.3228346456692913,
          "duration": 0.023255813953483084
        },
        {
          "name": "G#2",
          "midi": 44,
          "time": 99.34883720929194,
          "velocity": 0.3464566929133858,
          "duration": 0.034883720930224626
        },
        {
          "name": "A#4",
          "midi": 70,
          "time": 99.36046511626868,
          "velocity": 0.2204724409448819,
          "duration": 0.2558139534883139
        },
        {
          "name": "C#7",
          "midi": 97,
          "time": 99.36046511626868,
          "velocity": 0.25984251968503935,
          "duration": 0.2209302325580893
        },
        {
          "name": "G3",
          "midi": 55,
          "time": 99.38372093022217,
          "velocity": 0.30708661417322836,
          "duration": 0.04651162790696617
        },
        {
          "name": "C3",
          "midi": 48,
          "time": 99.41860465115239,
          "velocity": 0.4015748031496063,
          "duration": 0.05813953488370771
        },
        {
          "name": "F#6",
          "midi": 90,
          "time": 99.41860465115239,
          "velocity": 0.10236220472440945,
          "duration": 0.034883720930224626
        },
        {
          "name": "E2",
          "midi": 40,
          "time": 99.43023255812913,
          "velocity": 0.33070866141732286,
          "duration": 0.023255813953483084
        },
        {
          "name": "G#3",
          "midi": 56,
          "time": 99.43023255812913,
          "velocity": 0.2755905511811024,
          "duration": 0.023255813953483084
        },
        {
          "name": "G4",
          "midi": 67,
          "time": 99.44186046510588,
          "velocity": 0.3858267716535433,
          "duration": 0.29069767441853855
        },
        {
          "name": "G3",
          "midi": 55,
          "time": 99.45348837208262,
          "velocity": 0.2677165354330709,
          "duration": 0.04651162790696617
        },
        {
          "name": "D#6",
          "midi": 87,
          "time": 99.46511627905936,
          "velocity": 0.11023622047244094,
          "duration": 0.09302325581393234
        },
        {
          "name": "D7",
          "midi": 98,
          "time": 99.46511627905936,
          "velocity": 0.18110236220472442,
          "duration": 0.034883720930224626
        },
        {
          "name": "E2",
          "midi": 40,
          "time": 99.4767441860361,
          "velocity": 0.4015748031496063,
          "duration": 0.034883720930224626
        },
        {
          "name": "G6",
          "midi": 91,
          "time": 99.48837209301284,
          "velocity": 0.15748031496062992,
          "duration": 0.05813953488370771
        },
        {
          "name": "C7",
          "midi": 96,
          "time": 99.49999999998958,
          "velocity": 0.13385826771653545,
          "duration": 0.04651162790696617
        },
        {
          "name": "B5",
          "midi": 83,
          "time": 99.51162790696632,
          "velocity": 0.2204724409448819,
          "duration": 0.19767441860460622
        },
        {
          "name": "D7",
          "midi": 98,
          "time": 99.51162790696632,
          "velocity": 0.1968503937007874,
          "duration": 0.05813953488370771
        },
        {
          "name": "B2",
          "midi": 47,
          "time": 99.52325581394307,
          "velocity": 0.5354330708661418,
          "duration": 0.011627906976741542
        },
        {
          "name": "D5",
          "midi": 74,
          "time": 99.52325581394307,
          "velocity": 0.25196850393700787,
          "duration": 0.19767441860460622
        },
        {
          "name": "E5",
          "midi": 76,
          "time": 99.52325581394307,
          "velocity": 0.3543307086614173,
          "duration": 0.41860465116272394
        },
        {
          "name": "A2",
          "midi": 45,
          "time": 99.53488372091981,
          "velocity": 0.5905511811023622,
          "duration": 0.011627906976741542
        },
        {
          "name": "A#2",
          "midi": 46,
          "time": 99.54651162789655,
          "velocity": 0.5275590551181102,
          "duration": 0.011627906976741542
        },
        {
          "name": "F7",
          "midi": 101,
          "time": 99.54651162789655,
          "velocity": 0.14173228346456693,
          "duration": 0.034883720930224626
        },
        {
          "name": "B2",
          "midi": 47,
          "time": 99.55813953487329,
          "velocity": 0.5354330708661418,
          "duration": 0.023255813953483084
        },
        {
          "name": "D#7",
          "midi": 99,
          "time": 99.55813953487329,
          "velocity": 0.08661417322834646,
          "duration": 0.04651162790696617
        },
        {
          "name": "G7",
          "midi": 103,
          "time": 99.55813953487329,
          "velocity": 0.11811023622047244,
          "duration": 0.034883720930224626
        },
        {
          "name": "E2",
          "midi": 40,
          "time": 99.56976744185003,
          "velocity": 0.4645669291338583,
          "duration": 0.034883720930224626
        },
        {
          "name": "D3",
          "midi": 50,
          "time": 99.58139534882677,
          "velocity": 0.5590551181102362,
          "duration": 0.011627906976741542
        },
        {
          "name": "C4",
          "midi": 60,
          "time": 99.58139534882677,
          "velocity": 0.3779527559055118,
          "duration": 0.05813953488370771
        },
        {
          "name": "E4",
          "midi": 64,
          "time": 99.58139534882677,
          "velocity": 0.4251968503937008,
          "duration": 0.3023255813952943
        },
        {
          "name": "A5",
          "midi": 81,
          "time": 99.58139534882677,
          "velocity": 0.07086614173228346,
          "duration": 0.04651162790696617
        },
        {
          "name": "F#7",
          "midi": 102,
          "time": 99.58139534882677,
          "velocity": 0.12598425196850394,
          "duration": 0.10465116279067388
        },
        {
          "name": "C#3",
          "midi": 49,
          "time": 99.59302325580352,
          "velocity": 0.5826771653543307,
          "duration": 0.011627906976741542
        },
        {
          "name": "G3",
          "midi": 55,
          "time": 99.59302325580352,
          "velocity": 0.3700787401574803,
          "duration": 0.023255813953483084
        },
        {
          "name": "C3",
          "midi": 48,
          "time": 99.60465116278026,
          "velocity": 0.5669291338582677,
          "duration": 0.011627906976741542
        },
        {
          "name": "C#3",
          "midi": 49,
          "time": 99.616279069757,
          "velocity": 0.5275590551181102,
          "duration": 0.011627906976741542
        },
        {
          "name": "C3",
          "midi": 48,
          "time": 99.62790697673374,
          "velocity": 0.5511811023622047,
          "duration": 0.034883720930224626
        },
        {
          "name": "G3",
          "midi": 55,
          "time": 99.62790697673374,
          "velocity": 0.3543307086614173,
          "duration": 0.023255813953483084
        },
        {
          "name": "G#3",
          "midi": 56,
          "time": 99.65116279068722,
          "velocity": 0.23622047244094488,
          "duration": 0.023255813953483084
        },
        {
          "name": "C5",
          "midi": 72,
          "time": 99.66279069766397,
          "velocity": 0.08661417322834646,
          "duration": 0.04651162790696617
        },
        {
          "name": "D3",
          "midi": 50,
          "time": 99.6744186046407,
          "velocity": 0.2992125984251969,
          "duration": 0.023255813953483084
        },
        {
          "name": "F#7",
          "midi": 102,
          "time": 99.70930232557093,
          "velocity": 0.2125984251968504,
          "duration": 0.12790697674415696
        },
        {
          "name": "A#3",
          "midi": 58,
          "time": 99.72093023254767,
          "velocity": 0.4645669291338583,
          "duration": 0.034883720930224626
        },
        {
          "name": "C#5",
          "midi": 73,
          "time": 99.72093023254767,
          "velocity": 0.3779527559055118,
          "duration": 0.04651162790696617
        },
        {
          "name": "C7",
          "midi": 96,
          "time": 99.72093023254767,
          "velocity": 0.15748031496062992,
          "duration": 0.09302325581393234
        },
        {
          "name": "D7",
          "midi": 98,
          "time": 99.72093023254767,
          "velocity": 0.18110236220472442,
          "duration": 0.09302325581393234
        },
        {
          "name": "D#7",
          "midi": 99,
          "time": 99.72093023254767,
          "velocity": 0.18110236220472442,
          "duration": 0.0813953488371908
        },
        {
          "name": "F#6",
          "midi": 90,
          "time": 99.73255813952441,
          "velocity": 0.13385826771653545,
          "duration": 0.034883720930224626
        },
        {
          "name": "G#2",
          "midi": 44,
          "time": 99.74418604650116,
          "velocity": 0.5826771653543307,
          "duration": 0.023255813953483084
        },
        {
          "name": "C4",
          "midi": 60,
          "time": 99.74418604650116,
          "velocity": 0.36220472440944884,
          "duration": 0.023255813953483084
        },
        {
          "name": "F#5",
          "midi": 78,
          "time": 99.74418604650116,
          "velocity": 0.1968503937007874,
          "duration": 0.034883720930224626
        },
        {
          "name": "B5",
          "midi": 83,
          "time": 99.74418604650116,
          "velocity": 0.18110236220472442,
          "duration": 0.13953488372091272
        },
        {
          "name": "C6",
          "midi": 84,
          "time": 99.74418604650116,
          "velocity": 0.14960629921259844,
          "duration": 0.05813953488370771
        },
        {
          "name": "A4",
          "midi": 69,
          "time": 99.7558139534779,
          "velocity": 0.2440944881889764,
          "duration": 0.023255813953483084
        },
        {
          "name": "E7",
          "midi": 100,
          "time": 99.7558139534779,
          "velocity": 0.07874015748031496,
          "duration": 0.06976744186044925
        },
        {
          "name": "F7",
          "midi": 101,
          "time": 99.7558139534779,
          "velocity": 0.10236220472440945,
          "duration": 0.034883720930224626
        },
        {
          "name": "B2",
          "midi": 47,
          "time": 99.76744186045464,
          "velocity": 0.5748031496062992,
          "duration": 0.023255813953483084
        },
        {
          "name": "C#4",
          "midi": 61,
          "time": 99.76744186045464,
          "velocity": 0.3700787401574803,
          "duration": 0.023255813953483084
        },
        {
          "name": "D5",
          "midi": 74,
          "time": 99.76744186045464,
          "velocity": 0.23622047244094488,
          "duration": 0.06976744186044925
        },
        {
          "name": "A3",
          "midi": 57,
          "time": 99.77906976743138,
          "velocity": 0.3779527559055118,
          "duration": 0.023255813953483084
        },
        {
          "name": "G4",
          "midi": 67,
          "time": 99.77906976743138,
          "velocity": 0.4409448818897638,
          "duration": 0.45348837209294857
        },
        {
          "name": "F#6",
          "midi": 90,
          "time": 99.77906976743138,
          "velocity": 0.07086614173228346,
          "duration": 0.04651162790696617
        },
        {
          "name": "C3",
          "midi": 48,
          "time": 99.79069767440812,
          "velocity": 0.5905511811023622,
          "duration": 0.011627906976741542
        },
        {
          "name": "C#3",
          "midi": 49,
          "time": 99.80232558138486,
          "velocity": 0.5984251968503937,
          "duration": 0.011627906976741542
        },
        {
          "name": "G3",
          "midi": 55,
          "time": 99.80232558138486,
          "velocity": 0.4881889763779528,
          "duration": 0.12790697674418539
        },
        {
          "name": "C3",
          "midi": 48,
          "time": 99.8139534883616,
          "velocity": 0.5984251968503937,
          "duration": 0.023255813953483084
        },
        {
          "name": "F2",
          "midi": 41,
          "time": 99.82558139533835,
          "velocity": 0.5196850393700787,
          "duration": 0.011627906976741542
        },
        {
          "name": "C#3",
          "midi": 49,
          "time": 99.83720930231509,
          "velocity": 0.5826771653543307,
          "duration": 0.011627906976741542
        },
        {
          "name": "C3",
          "midi": 48,
          "time": 99.84883720929183,
          "velocity": 0.6141732283464567,
          "duration": 0.09302325581396076
        },
        {
          "name": "F#7",
          "midi": 102,
          "time": 99.84883720929183,
          "velocity": 0.2125984251968504,
          "duration": 0.6046511627905886
        },
        {
          "name": "E4",
          "midi": 64,
          "time": 99.91860465115231,
          "velocity": 0.2992125984251969,
          "duration": 0.04651162790696617
        },
        {
          "name": "F#3",
          "midi": 54,
          "time": 99.93023255812905,
          "velocity": 0.4881889763779528,
          "duration": 0.023255813953483084
        },
        {
          "name": "D5",
          "midi": 74,
          "time": 99.93023255812905,
          "velocity": 0.2992125984251969,
          "duration": 0.3604651162789878
        },
        {
          "name": "B5",
          "midi": 83,
          "time": 99.93023255812905,
          "velocity": 0.25984251968503935,
          "duration": 0.10465116279067388
        },
        {
          "name": "B2",
          "midi": 47,
          "time": 99.94186046510579,
          "velocity": 0.5669291338582677,
          "duration": 0.023255813953483084
        },
        {
          "name": "E6",
          "midi": 88,
          "time": 99.95348837208253,
          "velocity": 0.12598425196850394,
          "duration": 0.04651162790696617
        },
        {
          "name": "C7",
          "midi": 96,
          "time": 99.95348837208253,
          "velocity": 0.15748031496062992,
          "duration": 0.0813953488371908
        },
        {
          "name": "D#7",
          "midi": 99,
          "time": 99.95348837208253,
          "velocity": 0.10236220472440945,
          "duration": 0.04651162790696617
        },
        {
          "name": "A2",
          "midi": 45,
          "time": 99.96511627905927,
          "velocity": 0.6062992125984252,
          "duration": 0.011627906976741542
        },
        {
          "name": "F#3",
          "midi": 54,
          "time": 99.96511627905927,
          "velocity": 0.3779527559055118,
          "duration": 0.023255813953483084
        },
        {
          "name": "D7",
          "midi": 98,
          "time": 99.96511627905927,
          "velocity": 0.2677165354330709,
          "duration": 0.17441860465112313
        },
        {
          "name": "G7",
          "midi": 103,
          "time": 99.96511627905927,
          "velocity": 0.12598425196850394,
          "duration": 0.05813953488370771
        },
        {
          "name": "F#2",
          "midi": 42,
          "time": 99.97674418603602,
          "velocity": 0.5118110236220472,
          "duration": 0.011627906976741542
        },
        {
          "name": "B2",
          "midi": 47,
          "time": 99.97674418603602,
          "velocity": 0.5039370078740157,
          "duration": 0.023255813953483084
        },
        {
          "name": "E5",
          "midi": 76,
          "time": 99.97674418603602,
          "velocity": 0.33070866141732286,
          "duration": 0.39534883720921243
        },
        {
          "name": "C#7",
          "midi": 97,
          "time": 99.98837209301276,
          "velocity": 0.29133858267716534,
          "duration": 0.8953488372090987
        },
        {
          "name": "A2",
          "midi": 45,
          "time": 99.9999999999895,
          "velocity": 0.5669291338582677,
          "duration": 0.023255813953483084
        },
        {
          "name": "G#3",
          "midi": 56,
          "time": 99.9999999999895,
          "velocity": 0.25984251968503935,
          "duration": 0.023255813953483084
        },
        {
          "name": "A#4",
          "midi": 70,
          "time": 99.9999999999895,
          "velocity": 0.2677165354330709,
          "duration": 0.2209302325580893
        },
        {
          "name": "E4",
          "midi": 64,
          "time": 100.01162790696624,
          "velocity": 0.33070866141732286,
          "duration": 0.3837209302324709
        },
        {
          "name": "G3",
          "midi": 55,
          "time": 100.02325581394298,
          "velocity": 0.2992125984251969,
          "duration": 0.04651162790696617
        },
        {
          "name": "C3",
          "midi": 48,
          "time": 100.04651162789646,
          "velocity": 0.44881889763779526,
          "duration": 0.04651162790696617
        },
        {
          "name": "B5",
          "midi": 83,
          "time": 100.04651162789646,
          "velocity": 0.14960629921259844,
          "duration": 0.034883720930224626
        },
        {
          "name": "G#3",
          "midi": 56,
          "time": 100.06976744184995,
          "velocity": 0.23622047244094488,
          "duration": 0.023255813953483084
        },
        {
          "name": "F2",
          "midi": 41,
          "time": 100.08139534882669,
          "velocity": 0.3937007874015748,
          "duration": 0.034883720930224626
        },
        {
          "name": "G3",
          "midi": 55,
          "time": 100.09302325580343,
          "velocity": 0.2283464566929134,
          "duration": 0.023255813953483084
        },
        {
          "name": "G7",
          "midi": 103,
          "time": 100.09302325580343,
          "velocity": 0.10236220472440945,
          "duration": 0.04651162790696617
        },
        {
          "name": "C4",
          "midi": 60,
          "time": 100.11627906975691,
          "velocity": 0.3464566929133858,
          "duration": 0.15116279069764005
        },
        {
          "name": "B5",
          "midi": 83,
          "time": 100.11627906975691,
          "velocity": 0.16535433070866143,
          "duration": 0.23255813953483084
        },
        {
          "name": "D#6",
          "midi": 87,
          "time": 100.11627906975691,
          "velocity": 0.11023622047244094,
          "duration": 0.10465116279067388
        },
        {
          "name": "C3",
          "midi": 48,
          "time": 100.12790697673366,
          "velocity": 0.4409448818897638,
          "duration": 0.023255813953483084
        },
        {
          "name": "D#7",
          "midi": 99,
          "time": 100.12790697673366,
          "velocity": 0.15748031496062992,
          "duration": 0.17441860465112313
        },
        {
          "name": "A5",
          "midi": 81,
          "time": 100.15116279068714,
          "velocity": 0.2992125984251969,
          "duration": 0.2558139534883139
        },
        {
          "name": "C7",
          "midi": 96,
          "time": 100.15116279068714,
          "velocity": 0.14960629921259844,
          "duration": 0.034883720930224626
        },
        {
          "name": "D7",
          "midi": 98,
          "time": 100.15116279068714,
          "velocity": 0.14173228346456693,
          "duration": 0.05813953488370771
        },
        {
          "name": "G3",
          "midi": 55,
          "time": 100.16279069766388,
          "velocity": 0.23622047244094488,
          "duration": 0.023255813953483084
        },
        {
          "name": "A#6",
          "midi": 94,
          "time": 100.16279069766388,
          "velocity": 0.08661417322834646,
          "duration": 0.04651162790696617
        },
        {
          "name": "F7",
          "midi": 101,
          "time": 100.16279069766388,
          "velocity": 0.07874015748031496,
          "duration": 0.04651162790696617
        },
        {
          "name": "G7",
          "midi": 103,
          "time": 100.16279069766388,
          "velocity": 0.16535433070866143,
          "duration": 0.0813953488371908
        },
        {
          "name": "F#5",
          "midi": 78,
          "time": 100.17441860464062,
          "velocity": 0.16535433070866143,
          "duration": 0.034883720930224626
        },
        {
          "name": "E7",
          "midi": 100,
          "time": 100.18604651161736,
          "velocity": 0.11811023622047244,
          "duration": 0.15116279069764005
        },
        {
          "name": "C3",
          "midi": 48,
          "time": 100.20930232557085,
          "velocity": 0.5118110236220472,
          "duration": 0.04651162790696617
        },
        {
          "name": "G3",
          "midi": 55,
          "time": 100.20930232557085,
          "velocity": 0.2283464566929134,
          "duration": 0.0813953488371908
        },
        {
          "name": "C7",
          "midi": 96,
          "time": 100.20930232557085,
          "velocity": 0.18110236220472442,
          "duration": 0.26744186046505547
        },
        {
          "name": "A#4",
          "midi": 70,
          "time": 100.23255813952433,
          "velocity": 0.11023622047244094,
          "duration": 0.04651162790696617
        },
        {
          "name": "C#3",
          "midi": 49,
          "time": 100.25581395347781,
          "velocity": 0.5118110236220472,
          "duration": 0.011627906976741542
        },
        {
          "name": "G4",
          "midi": 67,
          "time": 100.25581395347781,
          "velocity": 0.33070866141732286,
          "duration": 0.10465116279067388
        },
        {
          "name": "C3",
          "midi": 48,
          "time": 100.26744186045455,
          "velocity": 0.5118110236220472,
          "duration": 0.023255813953483084
        },
        {
          "name": "F7",
          "midi": 101,
          "time": 100.26744186045455,
          "velocity": 0.07874015748031496,
          "duration": 0.05813953488370771
        },
        {
          "name": "F#2",
          "midi": 42,
          "time": 100.29069767440804,
          "velocity": 0.30708661417322836,
          "duration": 0.023255813953483084
        },
        {
          "name": "C#3",
          "midi": 49,
          "time": 100.29069767440804,
          "velocity": 0.4094488188976378,
          "duration": 0.034883720930224626
        },
        {
          "name": "A#4",
          "midi": 70,
          "time": 100.30232558138478,
          "velocity": 0.07874015748031496,
          "duration": 0.05813953488370771
        },
        {
          "name": "G3",
          "midi": 55,
          "time": 100.31395348836152,
          "velocity": 0.25196850393700787,
          "duration": 0.04651162790696617
        },
        {
          "name": "C3",
          "midi": 48,
          "time": 100.32558139533826,
          "velocity": 0.4881889763779528,
          "duration": 0.023255813953483084
        },
        {
          "name": "D#7",
          "midi": 99,
          "time": 100.337209302315,
          "velocity": 0.12598425196850394,
          "duration": 0.10465116279067388
        },
        {
          "name": "C3",
          "midi": 48,
          "time": 100.36046511626849,
          "velocity": 0.5275590551181102,
          "duration": 0.023255813953483084
        },
        {
          "name": "D5",
          "midi": 74,
          "time": 100.36046511626849,
          "velocity": 0.29133858267716534,
          "duration": 0.6511627906975406
        },
        {
          "name": "D7",
          "midi": 98,
          "time": 100.36046511626849,
          "velocity": 0.2283464566929134,
          "duration": 0.26744186046505547
        },
        {
          "name": "G3",
          "midi": 55,
          "time": 100.37209302324523,
          "velocity": 0.2755905511811024,
          "duration": 0.034883720930224626
        },
        {
          "name": "B5",
          "midi": 83,
          "time": 100.37209302324523,
          "velocity": 0.2125984251968504,
          "duration": 0.05813953488370771
        },
        {
          "name": "E6",
          "midi": 88,
          "time": 100.38372093022197,
          "velocity": 0.13385826771653545,
          "duration": 0.05813953488370771
        },
        {
          "name": "C3",
          "midi": 48,
          "time": 100.39534883719871,
          "velocity": 0.5354330708661418,
          "duration": 0.023255813953483084
        },
        {
          "name": "G4",
          "midi": 67,
          "time": 100.39534883719871,
          "velocity": 0.3543307086614173,
          "duration": 0.18604651162786467
        },
        {
          "name": "E5",
          "midi": 76,
          "time": 100.39534883719871,
          "velocity": 0.28346456692913385,
          "duration": 0.3604651162789878
        },
        {
          "name": "G#3",
          "midi": 56,
          "time": 100.40697674417545,
          "velocity": 0.33070866141732286,
          "duration": 0.023255813953483084
        },
        {
          "name": "E4",
          "midi": 64,
          "time": 100.40697674417545,
          "velocity": 0.36220472440944884,
          "duration": 0.18604651162786467
        },
        {
          "name": "A#4",
          "midi": 70,
          "time": 100.40697674417545,
          "velocity": 0.15748031496062992,
          "duration": 0.17441860465112313
        },
        {
          "name": "A#2",
          "midi": 46,
          "time": 100.43023255812894,
          "velocity": 0.3858267716535433,
          "duration": 0.023255813953483084
        },
        {
          "name": "A5",
          "midi": 81,
          "time": 100.44186046510568,
          "velocity": 0.09448818897637795,
          "duration": 0.04651162790696617
        },
        {
          "name": "F7",
          "midi": 101,
          "time": 100.44186046510568,
          "velocity": 0.11023622047244094,
          "duration": 0.06976744186044925
        },
        {
          "name": "G7",
          "midi": 103,
          "time": 100.44186046510568,
          "velocity": 0.11023622047244094,
          "duration": 0.034883720930224626
        },
        {
          "name": "B5",
          "midi": 83,
          "time": 100.46511627905916,
          "velocity": 0.2204724409448819,
          "duration": 0.17441860465112313
        },
        {
          "name": "G#2",
          "midi": 44,
          "time": 100.4767441860359,
          "velocity": 0.33070866141732286,
          "duration": 0.023255813953483084
        },
        {
          "name": "G#3",
          "midi": 56,
          "time": 100.4767441860359,
          "velocity": 0.3779527559055118,
          "duration": 0.04651162790696617
        },
        {
          "name": "C3",
          "midi": 48,
          "time": 100.49999999998938,
          "velocity": 0.41732283464566927,
          "duration": 0.023255813953483084
        },
        {
          "name": "C#4",
          "midi": 61,
          "time": 100.49999999998938,
          "velocity": 0.29133858267716534,
          "duration": 0.023255813953483084
        },
        {
          "name": "G3",
          "midi": 55,
          "time": 100.52325581394287,
          "velocity": 0.41732283464566927,
          "duration": 0.04651162790696617
        },
        {
          "name": "F#7",
          "midi": 102,
          "time": 100.52325581394287,
          "velocity": 0.14960629921259844,
          "duration": 0.1627906976743816
        },
        {
          "name": "B2",
          "midi": 47,
          "time": 100.53488372091961,
          "velocity": 0.3858267716535433,
          "duration": 0.023255813953483084
        },
        {
          "name": "E2",
          "midi": 40,
          "time": 100.54651162789635,
          "velocity": 0.4251968503937008,
          "duration": 0.023255813953483084
        },
        {
          "name": "C4",
          "midi": 60,
          "time": 100.55813953487309,
          "velocity": 0.2755905511811024,
          "duration": 0.034883720930224626
        },
        {
          "name": "G#3",
          "midi": 56,
          "time": 100.56976744184983,
          "velocity": 0.3937007874015748,
          "duration": 0.023255813953483084
        },
        {
          "name": "C#6",
          "midi": 85,
          "time": 100.58139534882658,
          "velocity": 0.2440944881889764,
          "duration": 0.023255813953483084
        },
        {
          "name": "D#6",
          "midi": 87,
          "time": 100.58139534882658,
          "velocity": 0.1732283464566929,
          "duration": 0.10465116279067388
        },
        {
          "name": "D#7",
          "midi": 99,
          "time": 100.58139534882658,
          "velocity": 0.18110236220472442,
          "duration": 0.05813953488370771
        },
        {
          "name": "F7",
          "midi": 101,
          "time": 100.58139534882658,
          "velocity": 0.08661417322834646,
          "duration": 0.04651162790696617
        },
        {
          "name": "F2",
          "midi": 41,
          "time": 100.59302325580332,
          "velocity": 0.5118110236220472,
          "duration": 0.011627906976741542
        },
        {
          "name": "D4",
          "midi": 62,
          "time": 100.59302325580332,
          "velocity": 0.4094488188976378,
          "duration": 0.023255813953483084
        },
        {
          "name": "A4",
          "midi": 69,
          "time": 100.59302325580332,
          "velocity": 0.2992125984251969,
          "duration": 0.023255813953483084
        },
        {
          "name": "F#5",
          "midi": 78,
          "time": 100.59302325580332,
          "velocity": 0.07086614173228346,
          "duration": 0.034883720930224626
        },
        {
          "name": "A5",
          "midi": 81,
          "time": 100.59302325580332,
          "velocity": 0.4015748031496063,
          "duration": 0.6744186046510237
        },
        {
          "name": "A6",
          "midi": 93,
          "time": 100.59302325580332,
          "velocity": 0.4881889763779528,
          "duration": 0.7325581395347314
        },
        {
          "name": "E7",
          "midi": 100,
          "time": 100.59302325580332,
          "velocity": 0.33070866141732286,
          "duration": 0.7093023255812483
        },
        {
          "name": "D3",
          "midi": 50,
          "time": 100.60465116278006,
          "velocity": 0.6299212598425197,
          "duration": 0.11627906976741542
        },
        {
          "name": "G4",
          "midi": 67,
          "time": 100.60465116278006,
          "velocity": 0.1968503937007874,
          "duration": 0.12790697674415696
        },
        {
          "name": "C5",
          "midi": 72,
          "time": 100.60465116278006,
          "velocity": 0.11811023622047244,
          "duration": 0.0813953488371908
        },
        {
          "name": "G#5",
          "midi": 80,
          "time": 100.60465116278006,
          "velocity": 0.07874015748031496,
          "duration": 0.04651162790696617
        },
        {
          "name": "C6",
          "midi": 84,
          "time": 100.60465116278006,
          "velocity": 0.15748031496062992,
          "duration": 0.10465116279067388
        },
        {
          "name": "D6",
          "midi": 86,
          "time": 100.60465116278006,
          "velocity": 0.29133858267716534,
          "duration": 0.10465116279067388
        },
        {
          "name": "E2",
          "midi": 40,
          "time": 100.6162790697568,
          "velocity": 0.4645669291338583,
          "duration": 0.023255813953483084
        },
        {
          "name": "A3",
          "midi": 57,
          "time": 100.62790697673354,
          "velocity": 0.4330708661417323,
          "duration": 0.034883720930224626
        },
        {
          "name": "F2",
          "midi": 41,
          "time": 100.63953488371028,
          "velocity": 0.5196850393700787,
          "duration": 0.023255813953483084
        },
        {
          "name": "A2",
          "midi": 45,
          "time": 100.69767441859399,
          "velocity": 0.5748031496062992,
          "duration": 0.023255813953483084
        },
        {
          "name": "C3",
          "midi": 48,
          "time": 100.72093023254747,
          "velocity": 0.5905511811023622,
          "duration": 0.011627906976741542
        },
        {
          "name": "D3",
          "midi": 50,
          "time": 100.73255813952422,
          "velocity": 0.5275590551181102,
          "duration": 0.011627906976741542
        },
        {
          "name": "E2",
          "midi": 40,
          "time": 100.76744186045444,
          "velocity": 0.33070866141732286,
          "duration": 0.023255813953483084
        },
        {
          "name": "A3",
          "midi": 57,
          "time": 100.77906976743118,
          "velocity": 0.47244094488188976,
          "duration": 0.09302325581393234
        },
        {
          "name": "B6",
          "midi": 95,
          "time": 100.77906976743118,
          "velocity": 0.15748031496062992,
          "duration": 0.05813953488370771
        },
        {
          "name": "A#4",
          "midi": 70,
          "time": 100.79069767440792,
          "velocity": 0.2047244094488189,
          "duration": 0.034883720930224626
        },
        {
          "name": "E5",
          "midi": 76,
          "time": 100.79069767440792,
          "velocity": 0.3228346456692913,
          "duration": 0.20930232558136197
        },
        {
          "name": "F#5",
          "midi": 78,
          "time": 100.79069767440792,
          "velocity": 0.2677165354330709,
          "duration": 0.17441860465113734
        },
        {
          "name": "F2",
          "midi": 41,
          "time": 100.80232558138466,
          "velocity": 0.5196850393700787,
          "duration": 0.011627906976741542
        },
        {
          "name": "C5",
          "midi": 72,
          "time": 100.80232558138466,
          "velocity": 0.14960629921259844,
          "duration": 0.034883720930224626
        },
        {
          "name": "D7",
          "midi": 98,
          "time": 100.80232558138466,
          "velocity": 0.14960629921259844,
          "duration": 0.05813953488370771
        },
        {
          "name": "D3",
          "midi": 50,
          "time": 100.8139534883614,
          "velocity": 0.6220472440944882,
          "duration": 0.11627906976742963
        },
        {
          "name": "F#4",
          "midi": 66,
          "time": 100.8139534883614,
          "velocity": 0.2755905511811024,
          "duration": 0.12790697674417117
        },
        {
          "name": "F2",
          "midi": 41,
          "time": 100.84883720929163,
          "velocity": 0.47244094488188976,
          "duration": 0.023255813953483084
        },
        {
          "name": "A2",
          "midi": 45,
          "time": 100.9186046511521,
          "velocity": 0.5511811023622047,
          "duration": 0.011627906976741542
        },
        {
          "name": "A4",
          "midi": 69,
          "time": 100.9186046511521,
          "velocity": 0.2992125984251969,
          "duration": 0.10465116279067388
        },
        {
          "name": "C#3",
          "midi": 49,
          "time": 100.93023255812884,
          "velocity": 0.6220472440944882,
          "duration": 0.011627906976741542
        },
        {
          "name": "A2",
          "midi": 45,
          "time": 100.94186046510558,
          "velocity": 0.5748031496062992,
          "duration": 0.04651162790696617
        },
        {
          "name": "D3",
          "midi": 50,
          "time": 100.94186046510558,
          "velocity": 0.5748031496062992,
          "duration": 0.011627906976741542
        },
        {
          "name": "F#4",
          "midi": 66,
          "time": 100.95348837208232,
          "velocity": 0.2047244094488189,
          "duration": 0.05813953488370771
        },
        {
          "name": "C7",
          "midi": 96,
          "time": 101.01162790696603,
          "velocity": 0.14960629921259844,
          "duration": 0.04651162790696617
        },
        {
          "name": "D3",
          "midi": 50,
          "time": 101.02325581394277,
          "velocity": 0.4645669291338583,
          "duration": 0.023255813953483084
        },
        {
          "name": "A#4",
          "midi": 70,
          "time": 101.02325581394277,
          "velocity": 0.2440944881889764,
          "duration": 0.04651162790696617
        },
        {
          "name": "D6",
          "midi": 86,
          "time": 101.02325581394277,
          "velocity": 0.10236220472440945,
          "duration": 0.034883720930224626
        },
        {
          "name": "C#7",
          "midi": 97,
          "time": 101.02325581394277,
          "velocity": 0.23622047244094488,
          "duration": 0.17441860465112313
        },
        {
          "name": "D7",
          "midi": 98,
          "time": 101.02325581394277,
          "velocity": 0.18110236220472442,
          "duration": 0.06976744186044925
        },
        {
          "name": "G#3",
          "midi": 56,
          "time": 101.03488372091951,
          "velocity": 0.2283464566929134,
          "duration": 0.023255813953483084
        },
        {
          "name": "C#4",
          "midi": 61,
          "time": 101.03488372091951,
          "velocity": 0.1889763779527559,
          "duration": 0.034883720930224626
        },
        {
          "name": "G4",
          "midi": 67,
          "time": 101.03488372091951,
          "velocity": 0.2204724409448819,
          "duration": 0.034883720930224626
        },
        {
          "name": "G#2",
          "midi": 44,
          "time": 101.04651162789625,
          "velocity": 0.47244094488188976,
          "duration": 0.023255813953483084
        },
        {
          "name": "F#5",
          "midi": 78,
          "time": 101.04651162789625,
          "velocity": 0.09448818897637795,
          "duration": 0.034883720930224626
        },
        {
          "name": "D#7",
          "midi": 99,
          "time": 101.04651162789625,
          "velocity": 0.11811023622047244,
          "duration": 0.09302325581393234
        },
        {
          "name": "A3",
          "midi": 57,
          "time": 101.05813953487299,
          "velocity": 0.3228346456692913,
          "duration": 0.04651162790696617
        },
        {
          "name": "F#7",
          "midi": 102,
          "time": 101.05813953487299,
          "velocity": 0.07874015748031496,
          "duration": 0.04651162790696617
        },
        {
          "name": "A2",
          "midi": 45,
          "time": 101.06976744184973,
          "velocity": 0.44881889763779526,
          "duration": 0.04651162790696617
        },
        {
          "name": "D4",
          "midi": 62,
          "time": 101.06976744184973,
          "velocity": 0.25984251968503935,
          "duration": 0.12790697674415696
        },
        {
          "name": "F#4",
          "midi": 66,
          "time": 101.06976744184973,
          "velocity": 0.2125984251968504,
          "duration": 0.09302325581393234
        },
        {
          "name": "C5",
          "midi": 72,
          "time": 101.06976744184973,
          "velocity": 0.14960629921259844,
          "duration": 0.034883720930224626
        },
        {
          "name": "F7",
          "midi": 101,
          "time": 101.06976744184973,
          "velocity": 0.11023622047244094,
          "duration": 0.09302325581393234
        },
        {
          "name": "G7",
          "midi": 103,
          "time": 101.06976744184973,
          "velocity": 0.10236220472440945,
          "duration": 0.1627906976743816
        },
        {
          "name": "F#6",
          "midi": 90,
          "time": 101.10465116277996,
          "velocity": 0.10236220472440945,
          "duration": 0.034883720930224626
        },
        {
          "name": "F#2",
          "midi": 42,
          "time": 101.1162790697567,
          "velocity": 0.4094488188976378,
          "duration": 0.023255813953483084
        },
        {
          "name": "A4",
          "midi": 69,
          "time": 101.1162790697567,
          "velocity": 0.31496062992125984,
          "duration": 0.18604651162786467
        },
        {
          "name": "E5",
          "midi": 76,
          "time": 101.12790697673344,
          "velocity": 0.11811023622047244,
          "duration": 0.04651162790696617
        },
        {
          "name": "D3",
          "midi": 50,
          "time": 101.13953488371018,
          "velocity": 0.4251968503937008,
          "duration": 0.034883720930224626
        },
        {
          "name": "C7",
          "midi": 96,
          "time": 101.13953488371018,
          "velocity": 0.12598425196850394,
          "duration": 0.04651162790696617
        },
        {
          "name": "D7",
          "midi": 98,
          "time": 101.13953488371018,
          "velocity": 0.15748031496062992,
          "duration": 0.034883720930224626
        },
        {
          "name": "D#7",
          "midi": 99,
          "time": 101.16279069766367,
          "velocity": 0.11811023622047244,
          "duration": 0.0813953488371908
        },
        {
          "name": "D2",
          "midi": 38,
          "time": 101.17441860464041,
          "velocity": 0.3858267716535433,
          "duration": 0.023255813953483084
        },
        {
          "name": "D#3",
          "midi": 51,
          "time": 101.17441860464041,
          "velocity": 0.4881889763779528,
          "duration": 0.023255813953483084
        },
        {
          "name": "C5",
          "midi": 72,
          "time": 101.17441860464041,
          "velocity": 0.10236220472440945,
          "duration": 0.05813953488370771
        },
        {
          "name": "A3",
          "midi": 57,
          "time": 101.19767441859389,
          "velocity": 0.31496062992125984,
          "duration": 0.023255813953483084
        },
        {
          "name": "D7",
          "midi": 98,
          "time": 101.19767441859389,
          "velocity": 0.18110236220472442,
          "duration": 0.0813953488371908
        },
        {
          "name": "D#3",
          "midi": 51,
          "time": 101.20930232557063,
          "velocity": 0.48031496062992124,
          "duration": 0.034883720930224626
        },
        {
          "name": "G4",
          "midi": 67,
          "time": 101.20930232557063,
          "velocity": 0.2755905511811024,
          "duration": 0.034883720930224626
        },
        {
          "name": "D2",
          "midi": 38,
          "time": 101.22093023254737,
          "velocity": 0.36220472440944884,
          "duration": 0.023255813953483084
        },
        {
          "name": "D5",
          "midi": 74,
          "time": 101.22093023254737,
          "velocity": 0.2440944881889764,
          "duration": 0.034883720930224626
        },
        {
          "name": "E5",
          "midi": 76,
          "time": 101.22093023254737,
          "velocity": 0.2755905511811024,
          "duration": 0.034883720930224626
        },
        {
          "name": "F#5",
          "midi": 78,
          "time": 101.22093023254737,
          "velocity": 0.5275590551181102,
          "duration": 0.6860465116277652
        },
        {
          "name": "C#7",
          "midi": 97,
          "time": 101.22093023254737,
          "velocity": 0.36220472440944884,
          "duration": 0.7558139534882145
        },
        {
          "name": "A3",
          "midi": 57,
          "time": 101.23255813952412,
          "velocity": 0.4330708661417323,
          "duration": 0.06976744186044925
        },
        {
          "name": "D3",
          "midi": 50,
          "time": 101.24418604650086,
          "velocity": 0.6220472440944882,
          "duration": 0.13953488372091272
        },
        {
          "name": "F#4",
          "midi": 66,
          "time": 101.24418604650086,
          "velocity": 0.3937007874015748,
          "duration": 0.19767441860462043
        },
        {
          "name": "B5",
          "midi": 83,
          "time": 101.24418604650086,
          "velocity": 0.08661417322834646,
          "duration": 0.09302325581393234
        },
        {
          "name": "C#6",
          "midi": 85,
          "time": 101.2558139534776,
          "velocity": 0.10236220472440945,
          "duration": 0.034883720930224626
        },
        {
          "name": "E5",
          "midi": 76,
          "time": 101.26744186045434,
          "velocity": 0.29133858267716534,
          "duration": 0.1627906976743958
        },
        {
          "name": "A#3",
          "midi": 58,
          "time": 101.30232558138457,
          "velocity": 0.33070866141732286,
          "duration": 0.023255813953483084
        },
        {
          "name": "A4",
          "midi": 69,
          "time": 101.33720930231479,
          "velocity": 0.3464566929133858,
          "duration": 0.10465116279068809
        },
        {
          "name": "A3",
          "midi": 57,
          "time": 101.37209302324503,
          "velocity": 0.2204724409448819,
          "duration": 0.034883720930224626
        },
        {
          "name": "D#3",
          "midi": 51,
          "time": 101.38372093022177,
          "velocity": 0.33858267716535434,
          "duration": 0.023255813953483084
        },
        {
          "name": "D3",
          "midi": 50,
          "time": 101.40697674417525,
          "velocity": 0.3700787401574803,
          "duration": 0.023255813953483084
        },
        {
          "name": "D#3",
          "midi": 51,
          "time": 101.43023255812874,
          "velocity": 0.3464566929133858,
          "duration": 0.023255813953483084
        },
        {
          "name": "D7",
          "midi": 98,
          "time": 101.43023255812874,
          "velocity": 0.1889763779527559,
          "duration": 0.05813953488370771
        },
        {
          "name": "C4",
          "midi": 60,
          "time": 101.44186046510548,
          "velocity": 0.44881889763779526,
          "duration": 0.023255813953483084
        },
        {
          "name": "G4",
          "midi": 67,
          "time": 101.44186046510548,
          "velocity": 0.4645669291338583,
          "duration": 0.034883720930224626
        },
        {
          "name": "D5",
          "midi": 74,
          "time": 101.44186046510548,
          "velocity": 0.3858267716535433,
          "duration": 0.023255813953483084
        },
        {
          "name": "A#5",
          "midi": 82,
          "time": 101.44186046510548,
          "velocity": 0.16535433070866143,
          "duration": 0.034883720930224626
        },
        {
          "name": "C6",
          "midi": 84,
          "time": 101.44186046510548,
          "velocity": 0.12598425196850394,
          "duration": 0.06976744186044925
        },
        {
          "name": "C7",
          "midi": 96,
          "time": 101.44186046510548,
          "velocity": 0.1732283464566929,
          "duration": 0.06976744186044925
        },
        {
          "name": "E7",
          "midi": 100,
          "time": 101.44186046510548,
          "velocity": 0.12598425196850394,
          "duration": 0.04651162790696617
        },
        {
          "name": "F7",
          "midi": 101,
          "time": 101.44186046510548,
          "velocity": 0.14173228346456693,
          "duration": 0.034883720930224626
        },
        {
          "name": "D3",
          "midi": 50,
          "time": 101.45348837208222,
          "velocity": 0.6456692913385826,
          "duration": 0.15116279069764005
        },
        {
          "name": "G#3",
          "midi": 56,
          "time": 101.45348837208222,
          "velocity": 0.41732283464566927,
          "duration": 0.023255813953483084
        },
        {
          "name": "E5",
          "midi": 76,
          "time": 101.45348837208222,
          "velocity": 0.13385826771653545,
          "duration": 0.04651162790696617
        },
        {
          "name": "B6",
          "midi": 95,
          "time": 101.45348837208222,
          "velocity": 0.10236220472440945,
          "duration": 0.034883720930224626
        },
        {
          "name": "D#4",
          "midi": 63,
          "time": 101.46511627905896,
          "velocity": 0.44881889763779526,
          "duration": 0.023255813953483084
        },
        {
          "name": "A4",
          "midi": 69,
          "time": 101.46511627905896,
          "velocity": 0.29133858267716534,
          "duration": 0.05813953488370771
        },
        {
          "name": "C#5",
          "midi": 73,
          "time": 101.46511627905896,
          "velocity": 0.3228346456692913,
          "duration": 0.023255813953483084
        },
        {
          "name": "D#7",
          "midi": 99,
          "time": 101.46511627905896,
          "velocity": 0.13385826771653545,
          "duration": 0.05813953488370771
        },
        {
          "name": "F#2",
          "midi": 42,
          "time": 101.49999999998919,
          "velocity": 0.5275590551181102,
          "duration": 0.023255813953483084
        },
        {
          "name": "A3",
          "midi": 57,
          "time": 101.49999999998919,
          "velocity": 0.3464566929133858,
          "duration": 0.023255813953483084
        },
        {
          "name": "C5",
          "midi": 72,
          "time": 101.49999999998919,
          "velocity": 0.1889763779527559,
          "duration": 0.04651162790696617
        },
        {
          "name": "F#4",
          "midi": 66,
          "time": 101.51162790696593,
          "velocity": 0.31496062992125984,
          "duration": 0.04651162790696617
        },
        {
          "name": "E5",
          "midi": 76,
          "time": 101.51162790696593,
          "velocity": 0.11811023622047244,
          "duration": 0.04651162790696617
        },
        {
          "name": "C#6",
          "midi": 85,
          "time": 101.53488372091941,
          "velocity": 0.07874015748031496,
          "duration": 0.034883720930224626
        },
        {
          "name": "G7",
          "midi": 103,
          "time": 101.53488372091941,
          "velocity": 0.09448818897637795,
          "duration": 0.034883720930224626
        },
        {
          "name": "A#3",
          "midi": 58,
          "time": 101.54651162789615,
          "velocity": 0.3464566929133858,
          "duration": 0.04651162790696617
        },
        {
          "name": "A2",
          "midi": 45,
          "time": 101.5581395348729,
          "velocity": 0.5433070866141733,
          "duration": 0.011627906976741542
        },
        {
          "name": "C5",
          "midi": 72,
          "time": 101.5581395348729,
          "velocity": 0.09448818897637795,
          "duration": 0.034883720930224626
        },
        {
          "name": "F6",
          "midi": 89,
          "time": 101.5581395348729,
          "velocity": 0.07086614173228346,
          "duration": 0.034883720930224626
        },
        {
          "name": "A2",
          "midi": 45,
          "time": 101.58139534882638,
          "velocity": 0.5905511811023622,
          "duration": 0.023255813953483084
        },
        {
          "name": "B2",
          "midi": 47,
          "time": 101.60465116277986,
          "velocity": 0.6062992125984252,
          "duration": 0.011627906976741542
        },
        {
          "name": "E7",
          "midi": 100,
          "time": 101.60465116277986,
          "velocity": 0.09448818897637795,
          "duration": 0.06976744186044925
        },
        {
          "name": "A2",
          "midi": 45,
          "time": 101.6162790697566,
          "velocity": 0.6141732283464567,
          "duration": 0.011627906976741542
        },
        {
          "name": "D7",
          "midi": 98,
          "time": 101.6162790697566,
          "velocity": 0.1732283464566929,
          "duration": 0.1627906976743816
        },
        {
          "name": "G#2",
          "midi": 44,
          "time": 101.62790697673334,
          "velocity": 0.6141732283464567,
          "duration": 0.011627906976741542
        },
        {
          "name": "A3",
          "midi": 57,
          "time": 101.62790697673334,
          "velocity": 0.3700787401574803,
          "duration": 0.034883720930224626
        },
        {
          "name": "A2",
          "midi": 45,
          "time": 101.63953488371008,
          "velocity": 0.5354330708661418,
          "duration": 0.011627906976741542
        },
        {
          "name": "B1",
          "midi": 35,
          "time": 101.65116279068683,
          "velocity": 0.5669291338582677,
          "duration": 0.011627906976741542
        },
        {
          "name": "E5",
          "midi": 76,
          "time": 101.65116279068683,
          "velocity": 0.2440944881889764,
          "duration": 0.023255813953483084
        },
        {
          "name": "A6",
          "midi": 93,
          "time": 101.65116279068683,
          "velocity": 0.2283464566929134,
          "duration": 0.2209302325580893
        },
        {
          "name": "G#2",
          "midi": 44,
          "time": 101.66279069766357,
          "velocity": 0.6141732283464567,
          "duration": 0.023255813953483084
        },
        {
          "name": "C7",
          "midi": 96,
          "time": 101.66279069766357,
          "velocity": 0.14173228346456693,
          "duration": 0.034883720930224626
        },
        {
          "name": "G4",
          "midi": 67,
          "time": 101.67441860464031,
          "velocity": 0.30708661417322836,
          "duration": 0.023255813953483084
        },
        {
          "name": "A3",
          "midi": 57,
          "time": 101.68604651161705,
          "velocity": 0.3858267716535433,
          "duration": 0.034883720930224626
        },
        {
          "name": "E5",
          "midi": 76,
          "time": 101.69767441859379,
          "velocity": 0.25196850393700787,
          "duration": 0.09302325581393234
        },
        {
          "name": "C#6",
          "midi": 85,
          "time": 101.69767441859379,
          "velocity": 0.11811023622047244,
          "duration": 0.034883720930224626
        },
        {
          "name": "D4",
          "midi": 62,
          "time": 101.70930232557053,
          "velocity": 0.28346456692913385,
          "duration": 0.034883720930224626
        },
        {
          "name": "D#7",
          "midi": 99,
          "time": 101.70930232557053,
          "velocity": 0.1968503937007874,
          "duration": 0.5697674418603498
        },
        {
          "name": "F7",
          "midi": 101,
          "time": 101.70930232557053,
          "velocity": 0.08661417322834646,
          "duration": 0.04651162790696617
        },
        {
          "name": "A#3",
          "midi": 58,
          "time": 101.72093023254727,
          "velocity": 0.4015748031496063,
          "duration": 0.023255813953483084
        },
        {
          "name": "F#4",
          "midi": 66,
          "time": 101.72093023254727,
          "velocity": 0.2677165354330709,
          "duration": 0.034883720930224626
        },
        {
          "name": "A3",
          "midi": 57,
          "time": 101.74418604650076,
          "velocity": 0.4094488188976378,
          "duration": 0.10465116279067388
        },
        {
          "name": "C7",
          "midi": 96,
          "time": 101.74418604650076,
          "velocity": 0.2047244094488189,
          "duration": 0.20930232558134776
        },
        {
          "name": "G7",
          "midi": 103,
          "time": 101.74418604650076,
          "velocity": 0.10236220472440945,
          "duration": 0.06976744186044925
        },
        {
          "name": "D4",
          "midi": 62,
          "time": 101.7558139534775,
          "velocity": 0.2992125984251969,
          "duration": 0.10465116279067388
        },
        {
          "name": "F#4",
          "midi": 66,
          "time": 101.76744186045424,
          "velocity": 0.2677165354330709,
          "duration": 0.06976744186044925
        },
        {
          "name": "D3",
          "midi": 50,
          "time": 101.77906976743098,
          "velocity": 0.4251968503937008,
          "duration": 0.034883720930224626
        },
        {
          "name": "E7",
          "midi": 100,
          "time": 101.80232558138447,
          "velocity": 0.14173228346456693,
          "duration": 0.04651162790696617
        },
        {
          "name": "D2",
          "midi": 38,
          "time": 101.81395348836121,
          "velocity": 0.36220472440944884,
          "duration": 0.023255813953483084
        },
        {
          "name": "D#3",
          "midi": 51,
          "time": 101.81395348836121,
          "velocity": 0.48031496062992124,
          "duration": 0.023255813953483084
        },
        {
          "name": "D7",
          "midi": 98,
          "time": 101.81395348836121,
          "velocity": 0.29133858267716534,
          "duration": 0.5465116279068667
        },
        {
          "name": "D3",
          "midi": 50,
          "time": 101.83720930231469,
          "velocity": 0.5039370078740157,
          "duration": 0.023255813953483084
        },
        {
          "name": "D#3",
          "midi": 51,
          "time": 101.86046511626817,
          "velocity": 0.49606299212598426,
          "duration": 0.023255813953483084
        },
        {
          "name": "G7",
          "midi": 103,
          "time": 101.86046511626817,
          "velocity": 0.09448818897637795,
          "duration": 0.04651162790696617
        },
        {
          "name": "C#6",
          "midi": 85,
          "time": 101.87209302324491,
          "velocity": 0.2440944881889764,
          "duration": 0.023255813953483084
        },
        {
          "name": "D#6",
          "midi": 87,
          "time": 101.87209302324491,
          "velocity": 0.13385826771653545,
          "duration": 0.0813953488371908
        },
        {
          "name": "G6",
          "midi": 91,
          "time": 101.87209302324491,
          "velocity": 0.47244094488188976,
          "duration": 0.5465116279068667
        },
        {
          "name": "D3",
          "midi": 50,
          "time": 101.88372093022166,
          "velocity": 0.5196850393700787,
          "duration": 0.034883720930224626
        },
        {
          "name": "G5",
          "midi": 79,
          "time": 101.8953488371984,
          "velocity": 0.48031496062992124,
          "duration": 0.4069767441859682
        },
        {
          "name": "C6",
          "midi": 84,
          "time": 101.8953488371984,
          "velocity": 0.16535433070866143,
          "duration": 0.09302325581393234
        },
        {
          "name": "D6",
          "midi": 86,
          "time": 101.8953488371984,
          "velocity": 0.25196850393700787,
          "duration": 0.0813953488371908
        },
        {
          "name": "A4",
          "midi": 69,
          "time": 101.90697674417514,
          "velocity": 0.23622047244094488,
          "duration": 0.04651162790696617
        },
        {
          "name": "F2",
          "midi": 41,
          "time": 101.91860465115188,
          "velocity": 0.5354330708661418,
          "duration": 0.023255813953483084
        },
        {
          "name": "E7",
          "midi": 100,
          "time": 101.93023255812862,
          "velocity": 0.23622047244094488,
          "duration": 0.1627906976743816
        },
        {
          "name": "G2",
          "midi": 43,
          "time": 101.94186046510536,
          "velocity": 0.5118110236220472,
          "duration": 0.011627906976741542
        },
        {
          "name": "C5",
          "midi": 72,
          "time": 101.94186046510536,
          "velocity": 0.14960629921259844,
          "duration": 0.0813953488371908
        },
        {
          "name": "D3",
          "midi": 50,
          "time": 101.9534883720821,
          "velocity": 0.4566929133858268,
          "duration": 0.023255813953483084
        },
        {
          "name": "D5",
          "midi": 74,
          "time": 101.96511627905885,
          "velocity": 0.15748031496062992,
          "duration": 0.04651162790696617
        },
        {
          "name": "F#5",
          "midi": 78,
          "time": 101.96511627905885,
          "velocity": 0.25984251968503935,
          "duration": 0.023255813953483084
        },
        {
          "name": "A4",
          "midi": 69,
          "time": 101.97674418603559,
          "velocity": 0.13385826771653545,
          "duration": 0.05813953488370771
        },
        {
          "name": "D3",
          "midi": 50,
          "time": 101.98837209301233,
          "velocity": 0.47244094488188976,
          "duration": 0.18604651162786467
        },
        {
          "name": "F2",
          "midi": 41,
          "time": 102.02325581394255,
          "velocity": 0.2992125984251969,
          "duration": 0.023255813953483084
        },
        {
          "name": "C#7",
          "midi": 97,
          "time": 102.02325581394255,
          "velocity": 0.2125984251968504,
          "duration": 0.0813953488371908
        },
        {
          "name": "A3",
          "midi": 57,
          "time": 102.0348837209193,
          "velocity": 0.1968503937007874,
          "duration": 0.05813953488370771
        },
        {
          "name": "F#5",
          "midi": 78,
          "time": 102.06976744184952,
          "velocity": 0.2204724409448819,
          "duration": 0.034883720930224626
        },
        {
          "name": "C7",
          "midi": 96,
          "time": 102.06976744184952,
          "velocity": 0.12598425196850394,
          "duration": 0.13953488372091272
        },
        {
          "name": "D5",
          "midi": 74,
          "time": 102.08139534882626,
          "velocity": 0.1889763779527559,
          "duration": 0.17441860465113734
        },
        {
          "name": "E5",
          "midi": 76,
          "time": 102.08139534882626,
          "velocity": 0.33070866141732286,
          "duration": 0.15116279069765426
        },
        {
          "name": "A4",
          "midi": 69,
          "time": 102.093023255803,
          "velocity": 0.33070866141732286,
          "duration": 0.034883720930224626
        },
        {
          "name": "F2",
          "midi": 41,
          "time": 102.10465116277975,
          "velocity": 0.5039370078740157,
          "duration": 0.04651162790696617
        },
        {
          "name": "F#4",
          "midi": 66,
          "time": 102.11627906975649,
          "velocity": 0.30708661417322836,
          "duration": 0.12790697674417117
        },
        {
          "name": "A5",
          "midi": 81,
          "time": 102.11627906975649,
          "velocity": 0.4251968503937008,
          "duration": 0.7674418604649702
        },
        {
          "name": "C#7",
          "midi": 97,
          "time": 102.11627906975649,
          "velocity": 0.2125984251968504,
          "duration": 0.25581395348832814
        },
        {
          "name": "A3",
          "midi": 57,
          "time": 102.13953488370997,
          "velocity": 0.3700787401574803,
          "duration": 0.13953488372091272
        },
        {
          "name": "C5",
          "midi": 72,
          "time": 102.16279069766345,
          "velocity": 0.1889763779527559,
          "duration": 0.15116279069765426
        },
        {
          "name": "D3",
          "midi": 50,
          "time": 102.20930232557043,
          "velocity": 0.4015748031496063,
          "duration": 0.05813953488370771
        },
        {
          "name": "E7",
          "midi": 100,
          "time": 102.23255813952392,
          "velocity": 0.3228346456692913,
          "duration": 0.7558139534882145
        },
        {
          "name": "E2",
          "midi": 40,
          "time": 102.2558139534774,
          "velocity": 0.41732283464566927,
          "duration": 0.023255813953483084
        },
        {
          "name": "D3",
          "midi": 50,
          "time": 102.27906976743088,
          "velocity": 0.4015748031496063,
          "duration": 0.023255813953483084
        },
        {
          "name": "A#3",
          "midi": 58,
          "time": 102.27906976743088,
          "velocity": 0.30708661417322836,
          "duration": 0.023255813953483084
        },
        {
          "name": "F#4",
          "midi": 66,
          "time": 102.27906976743088,
          "velocity": 0.30708661417322836,
          "duration": 0.034883720930224626
        },
        {
          "name": "D#4",
          "midi": 63,
          "time": 102.29069767440762,
          "velocity": 0.3464566929133858,
          "duration": 0.023255813953483084
        },
        {
          "name": "A6",
          "midi": 93,
          "time": 102.29069767440762,
          "velocity": 0.4566929133858268,
          "duration": 0.8023255813951806
        },
        {
          "name": "F2",
          "midi": 41,
          "time": 102.30232558138437,
          "velocity": 0.5826771653543307,
          "duration": 0.011627906976741542
        },
        {
          "name": "D6",
          "midi": 86,
          "time": 102.30232558138437,
          "velocity": 0.11811023622047244,
          "duration": 0.04651162790696617
        },
        {
          "name": "B2",
          "midi": 47,
          "time": 102.31395348836111,
          "velocity": 0.5905511811023622,
          "duration": 0.011627906976741542
        },
        {
          "name": "B4",
          "midi": 71,
          "time": 102.31395348836111,
          "velocity": 0.33858267716535434,
          "duration": 0.3023255813952801
        },
        {
          "name": "E5",
          "midi": 76,
          "time": 102.31395348836111,
          "velocity": 0.2755905511811024,
          "duration": 0.3488372093022605
        },
        {
          "name": "G5",
          "midi": 79,
          "time": 102.31395348836111,
          "velocity": 0.41732283464566927,
          "duration": 0.1395348837208985
        },
        {
          "name": "D#7",
          "midi": 99,
          "time": 102.31395348836111,
          "velocity": 0.14960629921259844,
          "duration": 0.04651162790696617
        },
        {
          "name": "D3",
          "midi": 50,
          "time": 102.32558139533785,
          "velocity": 0.5433070866141733,
          "duration": 0.011627906976741542
        },
        {
          "name": "B3",
          "midi": 59,
          "time": 102.32558139533785,
          "velocity": 0.36220472440944884,
          "duration": 0.04651162790696617
        },
        {
          "name": "E4",
          "midi": 64,
          "time": 102.32558139533785,
          "velocity": 0.4094488188976378,
          "duration": 0.43023255813945127
        },
        {
          "name": "D5",
          "midi": 74,
          "time": 102.32558139533785,
          "velocity": 0.15748031496062992,
          "duration": 0.09302325581393234
        },
        {
          "name": "F#6",
          "midi": 90,
          "time": 102.32558139533785,
          "velocity": 0.25984251968503935,
          "duration": 0.0813953488371908
        },
        {
          "name": "F2",
          "midi": 41,
          "time": 102.34883720929133,
          "velocity": 0.49606299212598426,
          "duration": 0.04651162790696617
        },
        {
          "name": "E3",
          "midi": 52,
          "time": 102.37209302324482,
          "velocity": 0.5354330708661418,
          "duration": 0.04651162790696617
        },
        {
          "name": "C4",
          "midi": 60,
          "time": 102.37209302324482,
          "velocity": 0.33858267716535434,
          "duration": 0.023255813953483084
        },
        {
          "name": "F3",
          "midi": 53,
          "time": 102.41860465115178,
          "velocity": 0.5511811023622047,
          "duration": 0.011627906976741542
        },
        {
          "name": "D#3",
          "midi": 51,
          "time": 102.43023255812852,
          "velocity": 0.5511811023622047,
          "duration": 0.011627906976741542
        },
        {
          "name": "A4",
          "midi": 69,
          "time": 102.43023255812852,
          "velocity": 0.2125984251968504,
          "duration": 0.10465116279067388
        },
        {
          "name": "E3",
          "midi": 52,
          "time": 102.44186046510526,
          "velocity": 0.47244094488188976,
          "duration": 0.023255813953483084
        },
        {
          "name": "F#5",
          "midi": 78,
          "time": 102.44186046510526,
          "velocity": 0.15748031496062992,
          "duration": 0.034883720930224626
        },
        {
          "name": "F#6",
          "midi": 90,
          "time": 102.44186046510526,
          "velocity": 0.2125984251968504,
          "duration": 0.15116279069764005
        },
        {
          "name": "C#7",
          "midi": 97,
          "time": 102.44186046510526,
          "velocity": 0.11023622047244094,
          "duration": 0.05813953488370771
        },
        {
          "name": "A#3",
          "midi": 58,
          "time": 102.453488372082,
          "velocity": 0.18110236220472442,
          "duration": 0.034883720930224626
        },
        {
          "name": "E2",
          "midi": 40,
          "time": 102.46511627905875,
          "velocity": 0.3543307086614173,
          "duration": 0.034883720930224626
        },
        {
          "name": "F3",
          "midi": 53,
          "time": 102.46511627905875,
          "velocity": 0.2755905511811024,
          "duration": 0.023255813953483084
        },
        {
          "name": "G5",
          "midi": 79,
          "time": 102.46511627905875,
          "velocity": 0.23622047244094488,
          "duration": 0.05813953488370771
        },
        {
          "name": "B3",
          "midi": 59,
          "time": 102.48837209301223,
          "velocity": 0.29133858267716534,
          "duration": 0.034883720930224626
        },
        {
          "name": "D7",
          "midi": 98,
          "time": 102.51162790696571,
          "velocity": 0.13385826771653545,
          "duration": 0.09302325581393234
        },
        {
          "name": "C2",
          "midi": 36,
          "time": 102.52325581394246,
          "velocity": 0.5196850393700787,
          "duration": 0.011627906976741542
        },
        {
          "name": "A2",
          "midi": 45,
          "time": 102.52325581394246,
          "velocity": 0.5118110236220472,
          "duration": 0.023255813953483084
        },
        {
          "name": "G4",
          "midi": 67,
          "time": 102.52325581394246,
          "velocity": 0.30708661417322836,
          "duration": 0.2441860465115866
        },
        {
          "name": "F#5",
          "midi": 78,
          "time": 102.52325581394246,
          "velocity": 0.3858267716535433,
          "duration": 0.04651162790696617
        },
        {
          "name": "C#7",
          "midi": 97,
          "time": 102.52325581394246,
          "velocity": 0.16535433070866143,
          "duration": 0.06976744186044925
        },
        {
          "name": "D5",
          "midi": 74,
          "time": 102.5348837209192,
          "velocity": 0.07086614173228346,
          "duration": 0.05813953488370771
        },
        {
          "name": "D#7",
          "midi": 99,
          "time": 102.5348837209192,
          "velocity": 0.09448818897637795,
          "duration": 0.05813953488370771
        },
        {
          "name": "E3",
          "midi": 52,
          "time": 102.55813953487268,
          "velocity": 0.41732283464566927,
          "duration": 0.023255813953483084
        },
        {
          "name": "B3",
          "midi": 59,
          "time": 102.55813953487268,
          "velocity": 0.3700787401574803,
          "duration": 0.13953488372091272
        },
        {
          "name": "F2",
          "midi": 41,
          "time": 102.56976744184942,
          "velocity": 0.5196850393700787,
          "duration": 0.011627906976741542
        },
        {
          "name": "E3",
          "midi": 52,
          "time": 102.5930232558029,
          "velocity": 0.5511811023622047,
          "duration": 0.081395348837205
        },
        {
          "name": "F#5",
          "midi": 78,
          "time": 102.61627906975639,
          "velocity": 0.28346456692913385,
          "duration": 0.1627906976743958
        },
        {
          "name": "E2",
          "midi": 40,
          "time": 102.66279069766337,
          "velocity": 0.4566929133858268,
          "duration": 0.023255813953483084
        },
        {
          "name": "G6",
          "midi": 91,
          "time": 102.67441860464011,
          "velocity": 0.16535433070866143,
          "duration": 0.29069767441853855
        },
        {
          "name": "E3",
          "midi": 52,
          "time": 102.68604651161685,
          "velocity": 0.4645669291338583,
          "duration": 0.034883720930224626
        },
        {
          "name": "E2",
          "midi": 40,
          "time": 102.69767441859359,
          "velocity": 0.5039370078740157,
          "duration": 0.023255813953483084
        },
        {
          "name": "B3",
          "midi": 59,
          "time": 102.70930232557033,
          "velocity": 0.33070866141732286,
          "duration": 0.05813953488370771
        },
        {
          "name": "A#2",
          "midi": 46,
          "time": 102.73255813952382,
          "velocity": 0.3937007874015748,
          "duration": 0.023255813953483084
        },
        {
          "name": "D5",
          "midi": 74,
          "time": 102.73255813952382,
          "velocity": 0.15748031496062992,
          "duration": 0.04651162790696617
        },
        {
          "name": "C#7",
          "midi": 97,
          "time": 102.73255813952382,
          "velocity": 0.2125984251968504,
          "duration": 0.11627906976741542
        },
        {
          "name": "D7",
          "midi": 98,
          "time": 102.73255813952382,
          "velocity": 0.2047244094488189,
          "duration": 0.034883720930224626
        },
        {
          "name": "D#7",
          "midi": 99,
          "time": 102.74418604650056,
          "velocity": 0.13385826771653545,
          "duration": 0.09302325581393234
        },
        {
          "name": "E3",
          "midi": 52,
          "time": 102.7558139534773,
          "velocity": 0.3700787401574803,
          "duration": 0.023255813953483084
        },
        {
          "name": "B6",
          "midi": 95,
          "time": 102.7558139534773,
          "velocity": 0.07874015748031496,
          "duration": 0.04651162790696617
        },
        {
          "name": "G#2",
          "midi": 44,
          "time": 102.77906976743078,
          "velocity": 0.5118110236220472,
          "duration": 0.034883720930224626
        },
        {
          "name": "B3",
          "midi": 59,
          "time": 102.77906976743078,
          "velocity": 0.33858267716535434,
          "duration": 0.04651162790696617
        },
        {
          "name": "F7",
          "midi": 101,
          "time": 102.80232558138427,
          "velocity": 0.08661417322834646,
          "duration": 0.034883720930224626
        },
        {
          "name": "E4",
          "midi": 64,
          "time": 102.81395348836101,
          "velocity": 0.2125984251968504,
          "duration": 0.1395348837208985
        },
        {
          "name": "D5",
          "midi": 74,
          "time": 102.81395348836101,
          "velocity": 0.1889763779527559,
          "duration": 0.09302325581393234
        },
        {
          "name": "E2",
          "midi": 40,
          "time": 102.82558139533775,
          "velocity": 0.5196850393700787,
          "duration": 0.011627906976741542
        },
        {
          "name": "G#4",
          "midi": 68,
          "time": 102.82558139533775,
          "velocity": 0.14960629921259844,
          "duration": 0.04651162790696617
        },
        {
          "name": "D7",
          "midi": 98,
          "time": 102.82558139533775,
          "velocity": 0.18110236220472442,
          "duration": 0.05813953488370771
        },
        {
          "name": "F2",
          "midi": 41,
          "time": 102.83720930231449,
          "velocity": 0.5511811023622047,
          "duration": 0.05813953488370771
        },
        {
          "name": "B3",
          "midi": 59,
          "time": 102.83720930231449,
          "velocity": 0.31496062992125984,
          "duration": 0.10465116279067388
        },
        {
          "name": "F#5",
          "midi": 78,
          "time": 102.83720930231449,
          "velocity": 0.1889763779527559,
          "duration": 0.06976744186044925
        },
        {
          "name": "C7",
          "midi": 96,
          "time": 102.83720930231449,
          "velocity": 0.12598425196850394,
          "duration": 0.12790697674415696
        },
        {
          "name": "D3",
          "midi": 50,
          "time": 102.86046511626797,
          "velocity": 0.3228346456692913,
          "duration": 0.023255813953483084
        },
        {
          "name": "C#7",
          "midi": 97,
          "time": 102.86046511626797,
          "velocity": 0.23622047244094488,
          "duration": 0.12790697674415696
        },
        {
          "name": "D#7",
          "midi": 99,
          "time": 102.86046511626797,
          "velocity": 0.15748031496062992,
          "duration": 0.12790697674415696
        },
        {
          "name": "E3",
          "midi": 52,
          "time": 102.88372093022146,
          "velocity": 0.2677165354330709,
          "duration": 0.023255813953483084
        },
        {
          "name": "D#6",
          "midi": 87,
          "time": 102.88372093022146,
          "velocity": 0.07086614173228346,
          "duration": 0.0813953488371908
        },
        {
          "name": "E2",
          "midi": 40,
          "time": 102.8953488371982,
          "velocity": 0.3858267716535433,
          "duration": 0.023255813953483084
        },
        {
          "name": "A5",
          "midi": 81,
          "time": 102.8953488371982,
          "velocity": 0.25196850393700787,
          "duration": 0.17441860465112313
        },
        {
          "name": "D7",
          "midi": 98,
          "time": 102.8953488371982,
          "velocity": 0.4409448818897638,
          "duration": 1.0697674418602219
        },
        {
          "name": "A#2",
          "midi": 46,
          "time": 102.91860465115168,
          "velocity": 0.4015748031496063,
          "duration": 0.023255813953483084
        },
        {
          "name": "F#2",
          "midi": 42,
          "time": 102.94186046510517,
          "velocity": 0.5433070866141733,
          "duration": 0.034883720930224626
        },
        {
          "name": "C4",
          "midi": 60,
          "time": 102.94186046510517,
          "velocity": 0.3779527559055118,
          "duration": 0.04651162790696617
        },
        {
          "name": "G4",
          "midi": 67,
          "time": 102.94186046510517,
          "velocity": 0.3228346456692913,
          "duration": 0.20930232558134776
        },
        {
          "name": "E5",
          "midi": 76,
          "time": 102.94186046510517,
          "velocity": 0.2755905511811024,
          "duration": 0.1627906976743816
        },
        {
          "name": "F#5",
          "midi": 78,
          "time": 102.94186046510517,
          "velocity": 0.31496062992125984,
          "duration": 0.06976744186044925
        },
        {
          "name": "E3",
          "midi": 52,
          "time": 102.97674418603539,
          "velocity": 0.4094488188976378,
          "duration": 0.023255813953483084
        },
        {
          "name": "B3",
          "midi": 59,
          "time": 102.98837209301213,
          "velocity": 0.3937007874015748,
          "duration": 0.0813953488371908
        },
        {
          "name": "D6",
          "midi": 86,
          "time": 102.98837209301213,
          "velocity": 0.2283464566929134,
          "duration": 0.24418604651157239
        },
        {
          "name": "E2",
          "midi": 40,
          "time": 102.99999999998887,
          "velocity": 0.4409448818897638,
          "duration": 0.023255813953483084
        },
        {
          "name": "E4",
          "midi": 64,
          "time": 102.99999999998887,
          "velocity": 0.18110236220472442,
          "duration": 0.05813953488370771
        },
        {
          "name": "E3",
          "midi": 52,
          "time": 103.01162790696561,
          "velocity": 0.48031496062992124,
          "duration": 0.034883720930224626
        },
        {
          "name": "F#6",
          "midi": 90,
          "time": 103.0348837209191,
          "velocity": 0.10236220472440945,
          "duration": 0.034883720930224626
        },
        {
          "name": "E2",
          "midi": 40,
          "time": 103.05813953487258,
          "velocity": 0.4330708661417323,
          "duration": 0.034883720930224626
        },
        {
          "name": "E3",
          "midi": 52,
          "time": 103.05813953487258,
          "velocity": 0.4645669291338583,
          "duration": 0.023255813953483084
        },
        {
          "name": "D#2",
          "midi": 39,
          "time": 103.0930232558028,
          "velocity": 0.29133858267716534,
          "duration": 0.023255813953483084
        },
        {
          "name": "B3",
          "midi": 59,
          "time": 103.0930232558028,
          "velocity": 0.28346456692913385,
          "duration": 0.05813953488370771
        },
        {
          "name": "A5",
          "midi": 81,
          "time": 103.0930232558028,
          "velocity": 0.1732283464566929,
          "duration": 0.04651162790696617
        },
        {
          "name": "B2",
          "midi": 47,
          "time": 103.11627906975629,
          "velocity": 0.2992125984251969,
          "duration": 0.04651162790696617
        },
        {
          "name": "A6",
          "midi": 93,
          "time": 103.12790697673303,
          "velocity": 0.1732283464566929,
          "duration": 0.12790697674415696
        },
        {
          "name": "E2",
          "midi": 40,
          "time": 103.13953488370977,
          "velocity": 0.3228346456692913,
          "duration": 0.023255813953483084
        },
        {
          "name": "C#4",
          "midi": 61,
          "time": 103.15116279068651,
          "velocity": 0.33070866141732286,
          "duration": 0.023255813953483084
        },
        {
          "name": "F4",
          "midi": 65,
          "time": 103.15116279068651,
          "velocity": 0.41732283464566927,
          "duration": 0.023255813953483084
        },
        {
          "name": "D5",
          "midi": 74,
          "time": 103.15116279068651,
          "velocity": 0.4094488188976378,
          "duration": 0.04651162790696617
        },
        {
          "name": "E5",
          "midi": 76,
          "time": 103.15116279068651,
          "velocity": 0.2677165354330709,
          "duration": 0.023255813953483084
        },
        {
          "name": "G5",
          "midi": 79,
          "time": 103.15116279068651,
          "velocity": 0.31496062992125984,
          "duration": 0.023255813953483084
        },
        {
          "name": "C#6",
          "midi": 85,
          "time": 103.15116279068651,
          "velocity": 0.1732283464566929,
          "duration": 0.05813953488370771
        },
        {
          "name": "E7",
          "midi": 100,
          "time": 103.15116279068651,
          "velocity": 0.16535433070866143,
          "duration": 0.0813953488371908
        },
        {
          "name": "F#7",
          "midi": 102,
          "time": 103.15116279068651,
          "velocity": 0.14173228346456693,
          "duration": 0.034883720930224626
        },
        {
          "name": "C3",
          "midi": 48,
          "time": 103.16279069766325,
          "velocity": 0.5511811023622047,
          "duration": 0.023255813953483084
        },
        {
          "name": "A3",
          "midi": 57,
          "time": 103.16279069766325,
          "velocity": 0.3937007874015748,
          "duration": 0.023255813953483084
        },
        {
          "name": "A#5",
          "midi": 82,
          "time": 103.16279069766325,
          "velocity": 0.09448818897637795,
          "duration": 0.04651162790696617
        },
        {
          "name": "F#6",
          "midi": 90,
          "time": 103.16279069766325,
          "velocity": 0.16535433070866143,
          "duration": 0.11627906976741542
        },
        {
          "name": "A#6",
          "midi": 94,
          "time": 103.16279069766325,
          "velocity": 0.10236220472440945,
          "duration": 0.034883720930224626
        },
        {
          "name": "D#7",
          "midi": 99,
          "time": 103.16279069766325,
          "velocity": 0.11811023622047244,
          "duration": 0.05813953488370771
        },
        {
          "name": "F7",
          "midi": 101,
          "time": 103.16279069766325,
          "velocity": 0.08661417322834646,
          "duration": 0.0813953488371908
        },
        {
          "name": "E4",
          "midi": 64,
          "time": 103.17441860464,
          "velocity": 0.4015748031496063,
          "duration": 0.023255813953483084
        },
        {
          "name": "B4",
          "midi": 71,
          "time": 103.17441860464,
          "velocity": 0.2204724409448819,
          "duration": 0.034883720930224626
        },
        {
          "name": "F#5",
          "midi": 78,
          "time": 103.17441860464,
          "velocity": 0.36220472440944884,
          "duration": 0.26744186046505547
        },
        {
          "name": "C6",
          "midi": 84,
          "time": 103.17441860464,
          "velocity": 0.11811023622047244,
          "duration": 0.05813953488370771
        },
        {
          "name": "B6",
          "midi": 95,
          "time": 103.17441860464,
          "velocity": 0.11811023622047244,
          "duration": 0.034883720930224626
        },
        {
          "name": "C#7",
          "midi": 97,
          "time": 103.17441860464,
          "velocity": 0.2204724409448819,
          "duration": 0.09302325581393234
        },
        {
          "name": "B3",
          "midi": 59,
          "time": 103.18604651161674,
          "velocity": 0.36220472440944884,
          "duration": 0.023255813953483084
        },
        {
          "name": "E3",
          "midi": 52,
          "time": 103.19767441859348,
          "velocity": 0.5590551181102362,
          "duration": 0.12790697674415696
        },
        {
          "name": "F2",
          "midi": 41,
          "time": 103.20930232557022,
          "velocity": 0.49606299212598426,
          "duration": 0.034883720930224626
        },
        {
          "name": "D5",
          "midi": 74,
          "time": 103.20930232557022,
          "velocity": 0.1889763779527559,
          "duration": 0.11627906976741542
        },
        {
          "name": "B5",
          "midi": 83,
          "time": 103.20930232557022,
          "velocity": 0.11811023622047244,
          "duration": 0.05813953488370771
        },
        {
          "name": "C#4",
          "midi": 61,
          "time": 103.22093023254696,
          "velocity": 0.31496062992125984,
          "duration": 0.023255813953483084
        },
        {
          "name": "B3",
          "midi": 59,
          "time": 103.24418604650045,
          "velocity": 0.3858267716535433,
          "duration": 0.034883720930224626
        },
        {
          "name": "A4",
          "midi": 69,
          "time": 103.24418604650045,
          "velocity": 0.07874015748031496,
          "duration": 0.034883720930224626
        },
        {
          "name": "C3",
          "midi": 48,
          "time": 103.26744186045393,
          "velocity": 0.5196850393700787,
          "duration": 0.011627906976741542
        },
        {
          "name": "B2",
          "midi": 47,
          "time": 103.27906976743067,
          "velocity": 0.5196850393700787,
          "duration": 0.011627906976741542
        },
        {
          "name": "B2",
          "midi": 47,
          "time": 103.3139534883609,
          "velocity": 0.5196850393700787,
          "duration": 0.011627906976741542
        },
        {
          "name": "C3",
          "midi": 48,
          "time": 103.32558139533764,
          "velocity": 0.5590551181102362,
          "duration": 0.023255813953483084
        },
        {
          "name": "F3",
          "midi": 53,
          "time": 103.32558139533764,
          "velocity": 0.5196850393700787,
          "duration": 0.011627906976741542
        },
        {
          "name": "B3",
          "midi": 59,
          "time": 103.32558139533764,
          "velocity": 0.3228346456692913,
          "duration": 0.06976744186044925
        },
        {
          "name": "B2",
          "midi": 47,
          "time": 103.34883720929112,
          "velocity": 0.5590551181102362,
          "duration": 0.023255813953483084
        },
        {
          "name": "E2",
          "midi": 40,
          "time": 103.36046511626786,
          "velocity": 0.5118110236220472,
          "duration": 0.011627906976741542
        },
        {
          "name": "A#2",
          "midi": 46,
          "time": 103.3720930232446,
          "velocity": 0.5748031496062992,
          "duration": 0.011627906976741542
        },
        {
          "name": "A6",
          "midi": 93,
          "time": 103.3720930232446,
          "velocity": 0.12598425196850394,
          "duration": 0.1395348837208985
        },
        {
          "name": "F2",
          "midi": 41,
          "time": 103.38372093022134,
          "velocity": 0.5433070866141733,
          "duration": 0.011627906976741542
        },
        {
          "name": "B2",
          "midi": 47,
          "time": 103.38372093022134,
          "velocity": 0.5196850393700787,
          "duration": 0.011627906976741542
        },
        {
          "name": "G4",
          "midi": 67,
          "time": 103.38372093022134,
          "velocity": 0.3700787401574803,
          "duration": 0.3604651162789878
        },
        {
          "name": "C#7",
          "midi": 97,
          "time": 103.38372093022134,
          "velocity": 0.1732283464566929,
          "duration": 0.10465116279067388
        },
        {
          "name": "C#3",
          "midi": 49,
          "time": 103.39534883719809,
          "velocity": 0.5590551181102362,
          "duration": 0.011627906976741542
        },
        {
          "name": "A#3",
          "midi": 58,
          "time": 103.39534883719809,
          "velocity": 0.28346456692913385,
          "duration": 0.023255813953483084
        },
        {
          "name": "F2",
          "midi": 41,
          "time": 103.40697674417483,
          "velocity": 0.5354330708661418,
          "duration": 0.011627906976741542
        },
        {
          "name": "B2",
          "midi": 47,
          "time": 103.40697674417483,
          "velocity": 0.5275590551181102,
          "duration": 0.034883720930224626
        },
        {
          "name": "E2",
          "midi": 40,
          "time": 103.41860465115157,
          "velocity": 0.5118110236220472,
          "duration": 0.023255813953483084
        },
        {
          "name": "E4",
          "midi": 64,
          "time": 103.41860465115157,
          "velocity": 0.2677165354330709,
          "duration": 0.06976744186044925
        },
        {
          "name": "C#3",
          "midi": 49,
          "time": 103.44186046510505,
          "velocity": 0.5590551181102362,
          "duration": 0.011627906976741542
        },
        {
          "name": "D#7",
          "midi": 99,
          "time": 103.44186046510505,
          "velocity": 0.08661417322834646,
          "duration": 0.034883720930224626
        },
        {
          "name": "F2",
          "midi": 41,
          "time": 103.4534883720818,
          "velocity": 0.5748031496062992,
          "duration": 0.023255813953483084
        },
        {
          "name": "E3",
          "midi": 52,
          "time": 103.46511627905853,
          "velocity": 0.3937007874015748,
          "duration": 0.04651162790696617
        },
        {
          "name": "E2",
          "midi": 40,
          "time": 103.47674418603528,
          "velocity": 0.5511811023622047,
          "duration": 0.011627906976741542
        },
        {
          "name": "F2",
          "midi": 41,
          "time": 103.48837209301202,
          "velocity": 0.5511811023622047,
          "duration": 0.011627906976741542
        },
        {
          "name": "F#5",
          "midi": 78,
          "time": 103.48837209301202,
          "velocity": 0.25984251968503935,
          "duration": 0.0813953488371908
        },
        {
          "name": "C7",
          "midi": 96,
          "time": 103.48837209301202,
          "velocity": 0.10236220472440945,
          "duration": 0.04651162790696617
        },
        {
          "name": "E2",
          "midi": 40,
          "time": 103.49999999998876,
          "velocity": 0.5354330708661418,
          "duration": 0.011627906976741542
        },
        {
          "name": "F2",
          "midi": 41,
          "time": 103.5116279069655,
          "velocity": 0.5354330708661418,
          "duration": 0.023255813953483084
        },
        {
          "name": "C#7",
          "midi": 97,
          "time": 103.5116279069655,
          "velocity": 0.2677165354330709,
          "duration": 0.17441860465112313
        },
        {
          "name": "E2",
          "midi": 40,
          "time": 103.53488372091898,
          "velocity": 0.4566929133858268,
          "duration": 0.034883720930224626
        },
        {
          "name": "F3",
          "midi": 53,
          "time": 103.53488372091898,
          "velocity": 0.25984251968503935,
          "duration": 0.034883720930224626
        },
        {
          "name": "D6",
          "midi": 86,
          "time": 103.55813953487247,
          "velocity": 0.14960629921259844,
          "duration": 0.05813953488370771
        },
        {
          "name": "D#7",
          "midi": 99,
          "time": 103.56976744184921,
          "velocity": 0.25984251968503935,
          "duration": 0.26744186046505547
        },
        {
          "name": "D5",
          "midi": 74,
          "time": 103.58139534882595,
          "velocity": 0.13385826771653545,
          "duration": 0.05813953488370771
        },
        {
          "name": "A5",
          "midi": 81,
          "time": 103.58139534882595,
          "velocity": 0.2755905511811024,
          "duration": 0.3837209302324709
        },
        {
          "name": "E4",
          "midi": 64,
          "time": 103.59302325580269,
          "velocity": 0.2677165354330709,
          "duration": 0.2558139534883139
        },
        {
          "name": "C7",
          "midi": 96,
          "time": 103.59302325580269,
          "velocity": 0.09448818897637795,
          "duration": 0.05813953488370771
        },
        {
          "name": "E7",
          "midi": 100,
          "time": 103.59302325580269,
          "velocity": 0.4409448818897638,
          "duration": 0.5465116279068525
        },
        {
          "name": "G#2",
          "midi": 44,
          "time": 103.60465116277943,
          "velocity": 0.4330708661417323,
          "duration": 0.034883720930224626
        },
        {
          "name": "D3",
          "midi": 50,
          "time": 103.61627906975617,
          "velocity": 0.4094488188976378,
          "duration": 0.023255813953483084
        },
        {
          "name": "F#5",
          "midi": 78,
          "time": 103.61627906975617,
          "velocity": 0.29133858267716534,
          "duration": 0.26744186046505547
        },
        {
          "name": "D#6",
          "midi": 87,
          "time": 103.61627906975617,
          "velocity": 0.08661417322834646,
          "duration": 0.06976744186044925
        },
        {
          "name": "F7",
          "midi": 101,
          "time": 103.62790697673292,
          "velocity": 0.23622047244094488,
          "duration": 0.26744186046505547
        },
        {
          "name": "C3",
          "midi": 48,
          "time": 103.63953488370966,
          "velocity": 0.3543307086614173,
          "duration": 0.023255813953483084
        },
        {
          "name": "B3",
          "midi": 59,
          "time": 103.63953488370966,
          "velocity": 0.4094488188976378,
          "duration": 0.37209302325572935
        },
        {
          "name": "E6",
          "midi": 88,
          "time": 103.6511627906864,
          "velocity": 0.2677165354330709,
          "duration": 0.24418604651157239
        },
        {
          "name": "F#7",
          "midi": 102,
          "time": 103.66279069766314,
          "velocity": 0.23622047244094488,
          "duration": 0.29069767441853855
        },
        {
          "name": "G7",
          "midi": 103,
          "time": 103.66279069766314,
          "velocity": 0.13385826771653545,
          "duration": 0.04651162790696617
        },
        {
          "name": "B2",
          "midi": 47,
          "time": 103.67441860463988,
          "velocity": 0.25196850393700787,
          "duration": 0.023255813953483084
        },
        {
          "name": "D5",
          "midi": 74,
          "time": 103.67441860463988,
          "velocity": 0.2047244094488189,
          "duration": 0.06976744186044925
        },
        {
          "name": "F2",
          "midi": 41,
          "time": 103.69767441859337,
          "velocity": 0.33070866141732286,
          "duration": 0.023255813953483084
        },
        {
          "name": "G#6",
          "midi": 92,
          "time": 103.69767441859337,
          "velocity": 0.14173228346456693,
          "duration": 0.17441860465112313
        },
        {
          "name": "C#7",
          "midi": 97,
          "time": 103.69767441859337,
          "velocity": 0.2992125984251969,
          "duration": 0.17441860465112313
        },
        {
          "name": "E3",
          "midi": 52,
          "time": 103.7093023255701,
          "velocity": 0.3858267716535433,
          "duration": 0.12790697674415696
        },
        {
          "name": "B6",
          "midi": 95,
          "time": 103.72093023254685,
          "velocity": 0.13385826771653545,
          "duration": 0.17441860465112313
        },
        {
          "name": "D#2",
          "midi": 39,
          "time": 103.73255813952359,
          "velocity": 0.23622047244094488,
          "duration": 0.023255813953483084
        },
        {
          "name": "G4",
          "midi": 67,
          "time": 103.75581395347707,
          "velocity": 0.12598425196850394,
          "duration": 0.034883720930224626
        },
        {
          "name": "F2",
          "midi": 41,
          "time": 103.76744186045381,
          "velocity": 0.25196850393700787,
          "duration": 0.023255813953483084
        },
        {
          "name": "G4",
          "midi": 67,
          "time": 103.81395348836078,
          "velocity": 0.36220472440944884,
          "duration": 0.26744186046505547
        },
        {
          "name": "F2",
          "midi": 41,
          "time": 103.82558139533752,
          "velocity": 0.44881889763779526,
          "duration": 0.034883720930224626
        },
        {
          "name": "G7",
          "midi": 103,
          "time": 103.83720930231426,
          "velocity": 0.1968503937007874,
          "duration": 0.12790697674415696
        },
        {
          "name": "D#7",
          "midi": 99,
          "time": 103.848837209291,
          "velocity": 0.1889763779527559,
          "duration": 0.0813953488371908
        },
        {
          "name": "E3",
          "midi": 52,
          "time": 103.87209302324449,
          "velocity": 0.3858267716535433,
          "duration": 0.023255813953483084
        },
        {
          "name": "D#6",
          "midi": 87,
          "time": 103.87209302324449,
          "velocity": 0.13385826771653545,
          "duration": 0.2558139534883139
        },
        {
          "name": "C7",
          "midi": 96,
          "time": 103.87209302324449,
          "velocity": 0.1732283464566929,
          "duration": 0.034883720930224626
        },
        {
          "name": "E2",
          "midi": 40,
          "time": 103.88372093022123,
          "velocity": 0.48031496062992124,
          "duration": 0.0813953488371908
        },
        {
          "name": "D#3",
          "midi": 51,
          "time": 103.89534883719797,
          "velocity": 0.30708661417322836,
          "duration": 0.023255813953483084
        },
        {
          "name": "C#7",
          "midi": 97,
          "time": 103.89534883719797,
          "velocity": 0.2125984251968504,
          "duration": 0.29069767441853855
        },
        {
          "name": "F#5",
          "midi": 78,
          "time": 103.91860465115145,
          "velocity": 0.2204724409448819,
          "duration": 0.06976744186044925
        },
        {
          "name": "D#7",
          "midi": 99,
          "time": 103.94186046510494,
          "velocity": 0.14173228346456693,
          "duration": 0.19767441860460622
        },
        {
          "name": "F7",
          "midi": 101,
          "time": 103.94186046510494,
          "velocity": 0.10236220472440945,
          "duration": 0.11627906976741542
        },
        {
          "name": "G7",
          "midi": 103,
          "time": 103.97674418603516,
          "velocity": 0.14960629921259844,
          "duration": 0.06976744186044925
        },
        {
          "name": "D#3",
          "midi": 51,
          "time": 103.9883720930119,
          "velocity": 0.3937007874015748,
          "duration": 0.023255813953483084
        },
        {
          "name": "D7",
          "midi": 98,
          "time": 103.9883720930119,
          "velocity": 0.2204724409448819,
          "duration": 0.1395348837208985
        },
        {
          "name": "D#2",
          "midi": 39,
          "time": 104.01162790696539,
          "velocity": 0.5275590551181102,
          "duration": 0.011627906976741542
        },
        {
          "name": "F#5",
          "midi": 78,
          "time": 104.01162790696539,
          "velocity": 0.07874015748031496,
          "duration": 0.04651162790696617
        },
        {
          "name": "C7",
          "midi": 96,
          "time": 104.01162790696539,
          "velocity": 0.10236220472440945,
          "duration": 0.034883720930224626
        },
        {
          "name": "G2",
          "midi": 43,
          "time": 104.02325581394213,
          "velocity": 0.5748031496062992,
          "duration": 0.011627906976741542
        },
        {
          "name": "C5",
          "midi": 72,
          "time": 104.02325581394213,
          "velocity": 0.30708661417322836,
          "duration": 0.023255813953483084
        },
        {
          "name": "D5",
          "midi": 74,
          "time": 104.02325581394213,
          "velocity": 0.13385826771653545,
          "duration": 0.05813953488370771
        },
        {
          "name": "E5",
          "midi": 76,
          "time": 104.02325581394213,
          "velocity": 0.31496062992125984,
          "duration": 0.8372093023254052
        },
        {
          "name": "B6",
          "midi": 95,
          "time": 104.02325581394213,
          "velocity": 0.4409448818897638,
          "duration": 1.0348837209300115
        },
        {
          "name": "G#2",
          "midi": 44,
          "time": 104.03488372091887,
          "velocity": 0.5669291338582677,
          "duration": 0.011627906976741542
        },
        {
          "name": "E4",
          "midi": 64,
          "time": 104.03488372091887,
          "velocity": 0.4015748031496063,
          "duration": 0.39534883720922664
        },
        {
          "name": "A5",
          "midi": 81,
          "time": 104.03488372091887,
          "velocity": 0.13385826771653545,
          "duration": 0.034883720930224626
        },
        {
          "name": "F#2",
          "midi": 42,
          "time": 104.04651162789561,
          "velocity": 0.5354330708661418,
          "duration": 0.011627906976741542
        },
        {
          "name": "B4",
          "midi": 71,
          "time": 104.04651162789561,
          "velocity": 0.3464566929133858,
          "duration": 0.1627906976743816
        },
        {
          "name": "F#6",
          "midi": 90,
          "time": 104.04651162789561,
          "velocity": 0.15748031496062992,
          "duration": 0.034883720930224626
        },
        {
          "name": "E2",
          "midi": 40,
          "time": 104.05813953487235,
          "velocity": 0.5118110236220472,
          "duration": 0.011627906976741542
        },
        {
          "name": "B3",
          "midi": 59,
          "time": 104.0697674418491,
          "velocity": 0.3543307086614173,
          "duration": 0.023255813953483084
        },
        {
          "name": "A#6",
          "midi": 94,
          "time": 104.0697674418491,
          "velocity": 0.11811023622047244,
          "duration": 0.034883720930224626
        },
        {
          "name": "E2",
          "midi": 40,
          "time": 104.08139534882584,
          "velocity": 0.49606299212598426,
          "duration": 0.034883720930224626
        },
        {
          "name": "E3",
          "midi": 52,
          "time": 104.08139534882584,
          "velocity": 0.5196850393700787,
          "duration": 0.06976744186044925
        },
        {
          "name": "G#4",
          "midi": 68,
          "time": 104.08139534882584,
          "velocity": 0.16535433070866143,
          "duration": 0.04651162790696617
        },
        {
          "name": "G6",
          "midi": 91,
          "time": 104.08139534882584,
          "velocity": 0.15748031496062992,
          "duration": 0.05813953488370771
        },
        {
          "name": "F#5",
          "midi": 78,
          "time": 104.09302325580258,
          "velocity": 0.2755905511811024,
          "duration": 0.1627906976743816
        },
        {
          "name": "B3",
          "midi": 59,
          "time": 104.10465116277932,
          "velocity": 0.3700787401574803,
          "duration": 0.023255813953483084
        },
        {
          "name": "F#7",
          "midi": 102,
          "time": 104.10465116277932,
          "velocity": 0.14960629921259844,
          "duration": 0.06976744186044925
        },
        {
          "name": "B3",
          "midi": 59,
          "time": 104.13953488370954,
          "velocity": 0.2677165354330709,
          "duration": 0.09302325581393234
        },
        {
          "name": "D2",
          "midi": 38,
          "time": 104.15116279068629,
          "velocity": 0.2440944881889764,
          "duration": 0.023255813953483084
        },
        {
          "name": "G#4",
          "midi": 68,
          "time": 104.16279069766303,
          "velocity": 0.2047244094488189,
          "duration": 0.06976744186044925
        },
        {
          "name": "F3",
          "midi": 53,
          "time": 104.17441860463977,
          "velocity": 0.2755905511811024,
          "duration": 0.023255813953483084
        },
        {
          "name": "D7",
          "midi": 98,
          "time": 104.18604651161651,
          "velocity": 0.13385826771653545,
          "duration": 0.034883720930224626
        },
        {
          "name": "F#7",
          "midi": 102,
          "time": 104.20930232557,
          "velocity": 0.1889763779527559,
          "duration": 0.0813953488371908
        },
        {
          "name": "B4",
          "midi": 71,
          "time": 104.22093023254673,
          "velocity": 0.2992125984251969,
          "duration": 0.41860465116270973
        },
        {
          "name": "E7",
          "midi": 100,
          "time": 104.22093023254673,
          "velocity": 0.2283464566929134,
          "duration": 0.11627906976741542
        },
        {
          "name": "E2",
          "midi": 40,
          "time": 104.23255813952348,
          "velocity": 0.5275590551181102,
          "duration": 0.011627906976741542
        },
        {
          "name": "G4",
          "midi": 67,
          "time": 104.23255813952348,
          "velocity": 0.3543307086614173,
          "duration": 0.25581395348832814
        },
        {
          "name": "C#7",
          "midi": 97,
          "time": 104.23255813952348,
          "velocity": 0.15748031496062992,
          "duration": 0.10465116279067388
        },
        {
          "name": "G#2",
          "midi": 44,
          "time": 104.24418604650022,
          "velocity": 0.4645669291338583,
          "duration": 0.034883720930224626
        },
        {
          "name": "A#3",
          "midi": 58,
          "time": 104.24418604650022,
          "velocity": 0.30708661417322836,
          "duration": 0.034883720930224626
        },
        {
          "name": "D7",
          "midi": 98,
          "time": 104.2674418604537,
          "velocity": 0.08661417322834646,
          "duration": 0.034883720930224626
        },
        {
          "name": "E3",
          "midi": 52,
          "time": 104.27906976743044,
          "velocity": 0.5590551181102362,
          "duration": 0.06976744186044925
        },
        {
          "name": "B3",
          "midi": 59,
          "time": 104.27906976743044,
          "velocity": 0.29133858267716534,
          "duration": 0.034883720930224626
        },
        {
          "name": "F#5",
          "midi": 78,
          "time": 104.27906976743044,
          "velocity": 0.33070866141732286,
          "duration": 0.12790697674417117
        },
        {
          "name": "F2",
          "midi": 41,
          "time": 104.29069767440718,
          "velocity": 0.5118110236220472,
          "duration": 0.011627906976741542
        },
        {
          "name": "D#6",
          "midi": 87,
          "time": 104.29069767440718,
          "velocity": 0.07086614173228346,
          "duration": 0.034883720930224626
        },
        {
          "name": "F#7",
          "midi": 102,
          "time": 104.30232558138393,
          "velocity": 0.18110236220472442,
          "duration": 0.04651162790696617
        },
        {
          "name": "B3",
          "midi": 59,
          "time": 104.32558139533741,
          "velocity": 0.33070866141732286,
          "duration": 0.10465116279068809
        },
        {
          "name": "D#3",
          "midi": 51,
          "time": 104.34883720929089,
          "velocity": 0.5354330708661418,
          "duration": 0.011627906976741542
        },
        {
          "name": "E3",
          "midi": 52,
          "time": 104.36046511626763,
          "velocity": 0.5275590551181102,
          "duration": 0.05813953488372192
        },
        {
          "name": "E2",
          "midi": 40,
          "time": 104.37209302324437,
          "velocity": 0.44881889763779526,
          "duration": 0.03488372093023884
        },
        {
          "name": "F#7",
          "midi": 102,
          "time": 104.40697674417461,
          "velocity": 0.2204724409448819,
          "duration": 0.34883720930224626
        },
        {
          "name": "E2",
          "midi": 40,
          "time": 104.41860465115136,
          "velocity": 0.5354330708661418,
          "duration": 0.011627906976741542
        },
        {
          "name": "F2",
          "midi": 41,
          "time": 104.4302325581281,
          "velocity": 0.5511811023622047,
          "duration": 0.023255813953483084
        },
        {
          "name": "D5",
          "midi": 74,
          "time": 104.44186046510484,
          "velocity": 0.1732283464566929,
          "duration": 0.05813953488370771
        },
        {
          "name": "A5",
          "midi": 81,
          "time": 104.44186046510484,
          "velocity": 0.25196850393700787,
          "duration": 0.2558139534883139
        },
        {
          "name": "D7",
          "midi": 98,
          "time": 104.44186046510484,
          "velocity": 0.2992125984251969,
          "duration": 0.04651162790696617
        },
        {
          "name": "E7",
          "midi": 100,
          "time": 104.44186046510484,
          "velocity": 0.15748031496062992,
          "duration": 0.0813953488371908
        },
        {
          "name": "C4",
          "midi": 60,
          "time": 104.45348837208158,
          "velocity": 0.23622047244094488,
          "duration": 0.04651162790696617
        },
        {
          "name": "D#7",
          "midi": 99,
          "time": 104.45348837208158,
          "velocity": 0.08661417322834646,
          "duration": 0.034883720930224626
        },
        {
          "name": "F2",
          "midi": 41,
          "time": 104.46511627905832,
          "velocity": 0.48031496062992124,
          "duration": 0.034883720930224626
        },
        {
          "name": "F#6",
          "midi": 90,
          "time": 104.46511627905832,
          "velocity": 0.14173228346456693,
          "duration": 0.034883720930224626
        },
        {
          "name": "D#6",
          "midi": 87,
          "time": 104.47674418603506,
          "velocity": 0.1968503937007874,
          "duration": 0.06976744186044925
        },
        {
          "name": "C#7",
          "midi": 97,
          "time": 104.47674418603506,
          "velocity": 0.2677165354330709,
          "duration": 0.2558139534883139
        },
        {
          "name": "F#5",
          "midi": 78,
          "time": 104.4883720930118,
          "velocity": 0.30708661417322836,
          "duration": 0.24418604651157239
        },
        {
          "name": "G7",
          "midi": 103,
          "time": 104.4883720930118,
          "velocity": 0.12598425196850394,
          "duration": 0.09302325581393234
        },
        {
          "name": "E3",
          "midi": 52,
          "time": 104.49999999998855,
          "velocity": 0.3543307086614173,
          "duration": 0.034883720930224626
        },
        {
          "name": "B3",
          "midi": 59,
          "time": 104.49999999998855,
          "velocity": 0.2283464566929134,
          "duration": 0.034883720930224626
        },
        {
          "name": "D6",
          "midi": 86,
          "time": 104.49999999998855,
          "velocity": 0.07874015748031496,
          "duration": 0.034883720930224626
        },
        {
          "name": "C7",
          "midi": 96,
          "time": 104.51162790696529,
          "velocity": 0.15748031496062992,
          "duration": 0.0813953488371908
        },
        {
          "name": "D7",
          "midi": 98,
          "time": 104.51162790696529,
          "velocity": 0.2204724409448819,
          "duration": 0.05813953488370771
        },
        {
          "name": "F7",
          "midi": 101,
          "time": 104.51162790696529,
          "velocity": 0.11811023622047244,
          "duration": 0.034883720930224626
        },
        {
          "name": "E2",
          "midi": 40,
          "time": 104.52325581394203,
          "velocity": 0.48031496062992124,
          "duration": 0.0813953488371908
        },
        {
          "name": "D5",
          "midi": 74,
          "time": 104.52325581394203,
          "velocity": 0.14173228346456693,
          "duration": 0.0813953488371908
        },
        {
          "name": "B3",
          "midi": 59,
          "time": 104.54651162789551,
          "velocity": 0.3543307086614173,
          "duration": 0.1395348837208985
        },
        {
          "name": "E7",
          "midi": 100,
          "time": 104.58139534882574,
          "velocity": 0.2125984251968504,
          "duration": 0.17441860465112313
        },
        {
          "name": "F7",
          "midi": 101,
          "time": 104.58139534882574,
          "velocity": 0.11023622047244094,
          "duration": 0.06976744186044925
        },
        {
          "name": "G2",
          "midi": 43,
          "time": 104.61627906975596,
          "velocity": 0.4015748031496063,
          "duration": 0.023255813953483084
        },
        {
          "name": "G7",
          "midi": 103,
          "time": 104.6279069767327,
          "velocity": 0.12598425196850394,
          "duration": 0.05813953488370771
        },
        {
          "name": "E3",
          "midi": 52,
          "time": 104.63953488370944,
          "velocity": 0.4330708661417323,
          "duration": 0.034883720930224626
        },
        {
          "name": "B5",
          "midi": 83,
          "time": 104.63953488370944,
          "velocity": 0.2283464566929134,
          "duration": 0.06976744186044925
        },
        {
          "name": "G4",
          "midi": 67,
          "time": 104.65116279068619,
          "velocity": 0.5039370078740157,
          "duration": 0.2558139534883139
        },
        {
          "name": "F2",
          "midi": 41,
          "time": 104.67441860463967,
          "velocity": 0.5669291338582677,
          "duration": 0.011627906976741542
        },
        {
          "name": "G6",
          "midi": 91,
          "time": 104.67441860463967,
          "velocity": 0.10236220472440945,
          "duration": 0.10465116279067388
        },
        {
          "name": "D7",
          "midi": 98,
          "time": 104.67441860463967,
          "velocity": 0.1889763779527559,
          "duration": 0.06976744186044925
        },
        {
          "name": "F#2",
          "midi": 42,
          "time": 104.68604651161641,
          "velocity": 0.5826771653543307,
          "duration": 0.011627906976741542
        },
        {
          "name": "F2",
          "midi": 41,
          "time": 104.69767441859315,
          "velocity": 0.5354330708661418,
          "duration": 0.034883720930224626
        },
        {
          "name": "B3",
          "midi": 59,
          "time": 104.7093023255699,
          "velocity": 0.3779527559055118,
          "duration": 0.023255813953483084
        },
        {
          "name": "C6",
          "midi": 84,
          "time": 104.7093023255699,
          "velocity": 0.14960629921259844,
          "duration": 0.04651162790696617
        },
        {
          "name": "D#2",
          "midi": 39,
          "time": 104.73255813952338,
          "velocity": 0.5118110236220472,
          "duration": 0.011627906976741542
        },
        {
          "name": "E3",
          "midi": 52,
          "time": 104.73255813952338,
          "velocity": 0.4881889763779528,
          "duration": 0.034883720930224626
        },
        {
          "name": "A5",
          "midi": 81,
          "time": 104.73255813952338,
          "velocity": 0.08661417322834646,
          "duration": 0.034883720930224626
        },
        {
          "name": "G7",
          "midi": 103,
          "time": 104.73255813952338,
          "velocity": 0.14960629921259844,
          "duration": 0.06976744186044925
        },
        {
          "name": "E2",
          "midi": 40,
          "time": 104.74418604650012,
          "velocity": 0.49606299212598426,
          "duration": 0.023255813953483084
        },
        {
          "name": "B3",
          "midi": 59,
          "time": 104.74418604650012,
          "velocity": 0.4330708661417323,
          "duration": 0.10465116279067388
        },
        {
          "name": "F7",
          "midi": 101,
          "time": 104.75581395347686,
          "velocity": 0.14173228346456693,
          "duration": 0.10465116279067388
        },
        {
          "name": "D#3",
          "midi": 51,
          "time": 104.7674418604536,
          "velocity": 0.5196850393700787,
          "duration": 0.011627906976741542
        },
        {
          "name": "G#6",
          "midi": 92,
          "time": 104.7674418604536,
          "velocity": 0.11023622047244094,
          "duration": 0.04651162790696617
        },
        {
          "name": "A#6",
          "midi": 94,
          "time": 104.7674418604536,
          "velocity": 0.23622047244094488,
          "duration": 0.09302325581393234
        },
        {
          "name": "E3",
          "midi": 52,
          "time": 104.77906976743034,
          "velocity": 0.4881889763779528,
          "duration": 0.023255813953483084
        },
        {
          "name": "F#5",
          "midi": 78,
          "time": 104.77906976743034,
          "velocity": 0.1968503937007874,
          "duration": 0.09302325581393234
        },
        {
          "name": "E2",
          "midi": 40,
          "time": 104.80232558138383,
          "velocity": 0.2992125984251969,
          "duration": 0.023255813953483084
        },
        {
          "name": "E4",
          "midi": 64,
          "time": 104.80232558138383,
          "velocity": 0.33070866141732286,
          "duration": 0.06976744186044925
        },
        {
          "name": "F#6",
          "midi": 90,
          "time": 104.81395348836057,
          "velocity": 0.3228346456692913,
          "duration": 0.6046511627905602
        },
        {
          "name": "D7",
          "midi": 98,
          "time": 104.82558139533731,
          "velocity": 0.23622047244094488,
          "duration": 0.3023255813952801
        },
        {
          "name": "A5",
          "midi": 81,
          "time": 104.83720930231405,
          "velocity": 0.11023622047244094,
          "duration": 0.034883720930224626
        },
        {
          "name": "C7",
          "midi": 96,
          "time": 104.83720930231405,
          "velocity": 0.07874015748031496,
          "duration": 0.05813953488370771
        },
        {
          "name": "E7",
          "midi": 100,
          "time": 104.83720930231405,
          "velocity": 0.18110236220472442,
          "duration": 0.1395348837208985
        },
        {
          "name": "E2",
          "midi": 40,
          "time": 104.84883720929079,
          "velocity": 0.2283464566929134,
          "duration": 0.023255813953483084
        },
        {
          "name": "C#4",
          "midi": 61,
          "time": 104.84883720929079,
          "velocity": 0.29133858267716534,
          "duration": 0.023255813953483084
        },
        {
          "name": "B5",
          "midi": 83,
          "time": 104.84883720929079,
          "velocity": 0.11023622047244094,
          "duration": 0.034883720930224626
        },
        {
          "name": "B2",
          "midi": 47,
          "time": 104.86046511626753,
          "velocity": 0.4094488188976378,
          "duration": 0.023255813953483084
        },
        {
          "name": "C5",
          "midi": 72,
          "time": 104.86046511626753,
          "velocity": 0.2677165354330709,
          "duration": 0.034883720930224626
        },
        {
          "name": "D5",
          "midi": 74,
          "time": 104.86046511626753,
          "velocity": 0.3228346456692913,
          "duration": 0.034883720930224626
        },
        {
          "name": "A6",
          "midi": 93,
          "time": 104.86046511626753,
          "velocity": 0.2440944881889764,
          "duration": 0.10465116279067388
        },
        {
          "name": "D#6",
          "midi": 87,
          "time": 104.87209302324428,
          "velocity": 0.08661417322834646,
          "duration": 0.034883720930224626
        },
        {
          "name": "G#6",
          "midi": 92,
          "time": 104.87209302324428,
          "velocity": 0.07874015748031496,
          "duration": 0.04651162790696617
        },
        {
          "name": "D#7",
          "midi": 99,
          "time": 104.87209302324428,
          "velocity": 0.11023622047244094,
          "duration": 0.06976744186044925
        },
        {
          "name": "C3",
          "midi": 48,
          "time": 104.88372093022102,
          "velocity": 0.5511811023622047,
          "duration": 0.023255813953483084
        },
        {
          "name": "F#5",
          "midi": 78,
          "time": 104.88372093022102,
          "velocity": 0.3543307086614173,
          "duration": 0.23255813953483084
        },
        {
          "name": "E6",
          "midi": 88,
          "time": 104.88372093022102,
          "velocity": 0.13385826771653545,
          "duration": 0.09302325581393234
        },
        {
          "name": "C#7",
          "midi": 97,
          "time": 104.88372093022102,
          "velocity": 0.1968503937007874,
          "duration": 0.1395348837208985
        },
        {
          "name": "F4",
          "midi": 65,
          "time": 104.89534883719776,
          "velocity": 0.28346456692913385,
          "duration": 0.04651162790696617
        },
        {
          "name": "B4",
          "midi": 71,
          "time": 104.89534883719776,
          "velocity": 0.3700787401574803,
          "duration": 0.5930232558138187
        },
        {
          "name": "C#6",
          "midi": 85,
          "time": 104.89534883719776,
          "velocity": 0.13385826771653545,
          "duration": 0.0813953488371908
        },
        {
          "name": "A#6",
          "midi": 94,
          "time": 104.89534883719776,
          "velocity": 0.07086614173228346,
          "duration": 0.034883720930224626
        },
        {
          "name": "D3",
          "midi": 50,
          "time": 104.9069767441745,
          "velocity": 0.4566929133858268,
          "duration": 0.023255813953483084
        },
        {
          "name": "G#4",
          "midi": 68,
          "time": 104.9069767441745,
          "velocity": 0.2440944881889764,
          "duration": 0.023255813953483084
        },
        {
          "name": "F7",
          "midi": 101,
          "time": 104.9069767441745,
          "velocity": 0.07874015748031496,
          "duration": 0.05813953488370771
        },
        {
          "name": "A#3",
          "midi": 58,
          "time": 104.91860465115124,
          "velocity": 0.4094488188976378,
          "duration": 0.023255813953483084
        },
        {
          "name": "E2",
          "midi": 40,
          "time": 104.94186046510472,
          "velocity": 0.49606299212598426,
          "duration": 0.034883720930224626
        },
        {
          "name": "E3",
          "midi": 52,
          "time": 104.94186046510472,
          "velocity": 0.5039370078740157,
          "duration": 0.034883720930224626
        },
        {
          "name": "D5",
          "midi": 74,
          "time": 104.94186046510472,
          "velocity": 0.1889763779527559,
          "duration": 0.09302325581393234
        },
        {
          "name": "C7",
          "midi": 96,
          "time": 104.94186046510472,
          "velocity": 0.09448818897637795,
          "duration": 0.034883720930224626
        },
        {
          "name": "G4",
          "midi": 67,
          "time": 104.95348837208147,
          "velocity": 0.23622047244094488,
          "duration": 0.023255813953483084
        },
        {
          "name": "B3",
          "midi": 59,
          "time": 104.96511627905821,
          "velocity": 0.3858267716535433,
          "duration": 0.034883720930224626
        },
        {
          "name": "F3",
          "midi": 53,
          "time": 104.97674418603495,
          "velocity": 0.5196850393700787,
          "duration": 0.011627906976741542
        },
        {
          "name": "G#4",
          "midi": 68,
          "time": 104.97674418603495,
          "velocity": 0.25196850393700787,
          "duration": 0.05813953488370771
        },
        {
          "name": "B2",
          "midi": 47,
          "time": 104.98837209301169,
          "velocity": 0.5275590551181102,
          "duration": 0.023255813953483084
        },
        {
          "name": "E3",
          "midi": 52,
          "time": 104.98837209301169,
          "velocity": 0.5433070866141733,
          "duration": 0.04651162790696617
        },
        {
          "name": "C3",
          "midi": 48,
          "time": 105.03488372091866,
          "velocity": 0.5196850393700787,
          "duration": 0.023255813953483084
        },
        {
          "name": "F3",
          "midi": 53,
          "time": 105.03488372091866,
          "velocity": 0.5196850393700787,
          "duration": 0.034883720930224626
        },
        {
          "name": "B3",
          "midi": 59,
          "time": 105.0465116278954,
          "velocity": 0.33070866141732286,
          "duration": 0.034883720930224626
        },
        {
          "name": "G#4",
          "midi": 68,
          "time": 105.0465116278954,
          "velocity": 0.23622047244094488,
          "duration": 0.034883720930224626
        },
        {
          "name": "A6",
          "midi": 93,
          "time": 105.0465116278954,
          "velocity": 0.07874015748031496,
          "duration": 0.04651162790696617
        },
        {
          "name": "B2",
          "midi": 47,
          "time": 105.05813953487214,
          "velocity": 0.5590551181102362,
          "duration": 0.034883720930224626
        },
        {
          "name": "F#4",
          "midi": 66,
          "time": 105.05813953487214,
          "velocity": 0.33070866141732286,
          "duration": 0.04651162790696617
        },
        {
          "name": "E7",
          "midi": 100,
          "time": 105.05813953487214,
          "velocity": 0.18110236220472442,
          "duration": 0.12790697674415696
        },
        {
          "name": "E2",
          "midi": 40,
          "time": 105.08139534882562,
          "velocity": 0.5118110236220472,
          "duration": 0.011627906976741542
        },
        {
          "name": "B6",
          "midi": 95,
          "time": 105.08139534882562,
          "velocity": 0.25196850393700787,
          "duration": 0.24418604651157239
        },
        {
          "name": "F2",
          "midi": 41,
          "time": 105.09302325580236,
          "velocity": 0.5354330708661418,
          "duration": 0.011627906976741542
        },
        {
          "name": "A5",
          "midi": 81,
          "time": 105.09302325580236,
          "velocity": 0.10236220472440945,
          "duration": 0.11627906976741542
        },
        {
          "name": "E2",
          "midi": 40,
          "time": 105.1046511627791,
          "velocity": 0.5669291338582677,
          "duration": 0.034883720930224626
        },
        {
          "name": "B2",
          "midi": 47,
          "time": 105.1046511627791,
          "velocity": 0.49606299212598426,
          "duration": 0.023255813953483084
        },
        {
          "name": "G4",
          "midi": 67,
          "time": 105.1046511627791,
          "velocity": 0.3700787401574803,
          "duration": 0.17441860465112313
        },
        {
          "name": "D5",
          "midi": 74,
          "time": 105.1046511627791,
          "velocity": 0.11023622047244094,
          "duration": 0.04651162790696617
        },
        {
          "name": "D6",
          "midi": 86,
          "time": 105.1046511627791,
          "velocity": 0.16535433070866143,
          "duration": 0.15116279069764005
        },
        {
          "name": "C#7",
          "midi": 97,
          "time": 105.1046511627791,
          "velocity": 0.2755905511811024,
          "duration": 0.29069767441853855
        },
        {
          "name": "C3",
          "midi": 48,
          "time": 105.12790697673259,
          "velocity": 0.5275590551181102,
          "duration": 0.011627906976741542
        },
        {
          "name": "D4",
          "midi": 62,
          "time": 105.12790697673259,
          "velocity": 0.2283464566929134,
          "duration": 0.034883720930224626
        },
        {
          "name": "D#6",
          "midi": 87,
          "time": 105.12790697673259,
          "velocity": 0.11023622047244094,
          "duration": 0.05813953488370771
        },
        {
          "name": "G#2",
          "midi": 44,
          "time": 105.13953488370933,
          "velocity": 0.5984251968503937,
          "duration": 0.011627906976741542
        },
        {
          "name": "D#7",
          "midi": 99,
          "time": 105.13953488370933,
          "velocity": 0.25196850393700787,
          "duration": 0.34883720930224626
        },
        {
          "name": "B2",
          "midi": 47,
          "time": 105.15116279068607,
          "velocity": 0.5039370078740157,
          "duration": 0.023255813953483084
        },
        {
          "name": "C7",
          "midi": 96,
          "time": 105.15116279068607,
          "velocity": 0.12598425196850394,
          "duration": 0.20930232558134776
        },
        {
          "name": "D7",
          "midi": 98,
          "time": 105.15116279068607,
          "velocity": 0.2992125984251969,
          "duration": 0.6511627906975264
        },
        {
          "name": "F7",
          "midi": 101,
          "time": 105.15116279068607,
          "velocity": 0.13385826771653545,
          "duration": 0.1395348837208985
        },
        {
          "name": "F2",
          "midi": 41,
          "time": 105.16279069766281,
          "velocity": 0.5511811023622047,
          "duration": 0.034883720930224626
        },
        {
          "name": "E4",
          "midi": 64,
          "time": 105.16279069766281,
          "velocity": 0.2125984251968504,
          "duration": 0.15116279069764005
        },
        {
          "name": "E2",
          "midi": 40,
          "time": 105.19767441859304,
          "velocity": 0.5590551181102362,
          "duration": 0.011627906976741542
        },
        {
          "name": "A6",
          "midi": 93,
          "time": 105.19767441859304,
          "velocity": 0.11023622047244094,
          "duration": 0.12790697674415696
        },
        {
          "name": "F2",
          "midi": 41,
          "time": 105.20930232556978,
          "velocity": 0.5275590551181102,
          "duration": 0.011627906976741542
        },
        {
          "name": "E2",
          "midi": 40,
          "time": 105.22093023254652,
          "velocity": 0.47244094488188976,
          "duration": 0.023255813953483084
        },
        {
          "name": "B3",
          "midi": 59,
          "time": 105.22093023254652,
          "velocity": 0.2755905511811024,
          "duration": 0.11627906976741542
        },
        {
          "name": "D#6",
          "midi": 87,
          "time": 105.23255813952326,
          "velocity": 0.10236220472440945,
          "duration": 0.034883720930224626
        },
        {
          "name": "D#3",
          "midi": 51,
          "time": 105.25581395347675,
          "velocity": 0.4251968503937008,
          "duration": 0.023255813953483084
        },
        {
          "name": "G7",
          "midi": 103,
          "time": 105.25581395347675,
          "velocity": 0.15748031496062992,
          "duration": 0.10465116279067388
        },
        {
          "name": "F#5",
          "midi": 78,
          "time": 105.26744186045349,
          "velocity": 0.3858267716535433,
          "duration": 0.05813953488370771
        },
        {
          "name": "E3",
          "midi": 52,
          "time": 105.27906976743023,
          "velocity": 0.3228346456692913,
          "duration": 0.023255813953483084
        },
        {
          "name": "G4",
          "midi": 67,
          "time": 105.30232558138371,
          "velocity": 0.2440944881889764,
          "duration": 0.034883720930224626
        },
        {
          "name": "D6",
          "midi": 86,
          "time": 105.30232558138371,
          "velocity": 0.09448818897637795,
          "duration": 0.034883720930224626
        },
        {
          "name": "F7",
          "midi": 101,
          "time": 105.30232558138371,
          "velocity": 0.07874015748031496,
          "duration": 0.034883720930224626
        },
        {
          "name": "G2",
          "midi": 43,
          "time": 105.31395348836045,
          "velocity": 0.41732283464566927,
          "duration": 0.023255813953483084
        },
        {
          "name": "E3",
          "midi": 52,
          "time": 105.31395348836045,
          "velocity": 0.4015748031496063,
          "duration": 0.023255813953483084
        },
        {
          "name": "D#6",
          "midi": 87,
          "time": 105.31395348836045,
          "velocity": 0.11811023622047244,
          "duration": 0.06976744186044925
        },
        {
          "name": "G6",
          "midi": 91,
          "time": 105.31395348836045,
          "velocity": 0.4251968503937008,
          "duration": 0.19767441860460622
        },
        {
          "name": "A#6",
          "midi": 94,
          "time": 105.31395348836045,
          "velocity": 0.1889763779527559,
          "duration": 0.10465116279067388
        },
        {
          "name": "D#5",
          "midi": 75,
          "time": 105.3255813953372,
          "velocity": 0.13385826771653545,
          "duration": 0.04651162790696617
        },
        {
          "name": "G5",
          "midi": 79,
          "time": 105.3255813953372,
          "velocity": 0.4409448818897638,
          "duration": 0.2209302325580893
        },
        {
          "name": "F#2",
          "midi": 42,
          "time": 105.33720930231394,
          "velocity": 0.5196850393700787,
          "duration": 0.011627906976741542
        },
        {
          "name": "E4",
          "midi": 64,
          "time": 105.33720930231394,
          "velocity": 0.29133858267716534,
          "duration": 0.18604651162786467
        },
        {
          "name": "B6",
          "midi": 95,
          "time": 105.33720930231394,
          "velocity": 0.2440944881889764,
          "duration": 0.4651162790696617
        },
        {
          "name": "E7",
          "midi": 100,
          "time": 105.33720930231394,
          "velocity": 0.11023622047244094,
          "duration": 0.05813953488370771
        },
        {
          "name": "F2",
          "midi": 41,
          "time": 105.34883720929068,
          "velocity": 0.5354330708661418,
          "duration": 0.034883720930224626
        },
        {
          "name": "F7",
          "midi": 101,
          "time": 105.34883720929068,
          "velocity": 0.2283464566929134,
          "duration": 0.43023255813943706
        },
        {
          "name": "G#6",
          "midi": 92,
          "time": 105.36046511626742,
          "velocity": 0.2283464566929134,
          "duration": 0.5697674418603356
        },
        {
          "name": "E3",
          "midi": 52,
          "time": 105.37209302324416,
          "velocity": 0.3858267716535433,
          "duration": 0.0813953488371908
        },
        {
          "name": "G4",
          "midi": 67,
          "time": 105.37209302324416,
          "velocity": 0.2283464566929134,
          "duration": 0.05813953488370771
        },
        {
          "name": "B3",
          "midi": 59,
          "time": 105.3837209302209,
          "velocity": 0.16535433070866143,
          "duration": 0.09302325581393234
        },
        {
          "name": "F#5",
          "midi": 78,
          "time": 105.3837209302209,
          "velocity": 0.25196850393700787,
          "duration": 0.023255813953483084
        },
        {
          "name": "D6",
          "midi": 86,
          "time": 105.3837209302209,
          "velocity": 0.07874015748031496,
          "duration": 0.04651162790696617
        },
        {
          "name": "E2",
          "midi": 40,
          "time": 105.41860465115113,
          "velocity": 0.2125984251968504,
          "duration": 0.04651162790696617
        },
        {
          "name": "E7",
          "midi": 100,
          "time": 105.41860465115113,
          "velocity": 0.2440944881889764,
          "duration": 0.1627906976743816
        },
        {
          "name": "F#7",
          "midi": 102,
          "time": 105.41860465115113,
          "velocity": 0.25984251968503935,
          "duration": 0.05813953488370771
        },
        {
          "name": "C#7",
          "midi": 97,
          "time": 105.43023255812787,
          "velocity": 0.2047244094488189,
          "duration": 0.05813953488370771
        },
        {
          "name": "A#6",
          "midi": 94,
          "time": 105.44186046510461,
          "velocity": 0.08661417322834646,
          "duration": 0.034883720930224626
        },
        {
          "name": "D6",
          "midi": 86,
          "time": 105.45348837208135,
          "velocity": 0.13385826771653545,
          "duration": 0.05813953488370771
        },
        {
          "name": "F#6",
          "midi": 90,
          "time": 105.4651162790581,
          "velocity": 0.3779527559055118,
          "duration": 0.34883720930224626
        },
        {
          "name": "E2",
          "midi": 40,
          "time": 105.48837209301158,
          "velocity": 0.1968503937007874,
          "duration": 0.034883720930224626
        },
        {
          "name": "D#3",
          "midi": 51,
          "time": 105.48837209301158,
          "velocity": 0.25984251968503935,
          "duration": 0.023255813953483084
        },
        {
          "name": "A#6",
          "midi": 94,
          "time": 105.48837209301158,
          "velocity": 0.10236220472440945,
          "duration": 0.034883720930224626
        },
        {
          "name": "C7",
          "midi": 96,
          "time": 105.48837209301158,
          "velocity": 0.2440944881889764,
          "duration": 0.023255813953483084
        },
        {
          "name": "C#7",
          "midi": 97,
          "time": 105.51162790696506,
          "velocity": 0.29133858267716534,
          "duration": 0.279069767441797
        },
        {
          "name": "A4",
          "midi": 69,
          "time": 105.5232558139418,
          "velocity": 0.2677165354330709,
          "duration": 0.0813953488371908
        },
        {
          "name": "F#5",
          "midi": 78,
          "time": 105.5232558139418,
          "velocity": 0.5433070866141733,
          "duration": 0.31395348837202164
        },
        {
          "name": "F#4",
          "midi": 66,
          "time": 105.53488372091854,
          "velocity": 0.30708661417322836,
          "duration": 0.19767441860460622
        },
        {
          "name": "F5",
          "midi": 77,
          "time": 105.53488372091854,
          "velocity": 0.33070866141732286,
          "duration": 0.023255813953483084
        },
        {
          "name": "C7",
          "midi": 96,
          "time": 105.53488372091854,
          "velocity": 0.2204724409448819,
          "duration": 0.17441860465112313
        },
        {
          "name": "G6",
          "midi": 91,
          "time": 105.54651162789528,
          "velocity": 0.1968503937007874,
          "duration": 0.0813953488371908
        },
        {
          "name": "D#7",
          "midi": 99,
          "time": 105.54651162789528,
          "velocity": 0.1968503937007874,
          "duration": 0.279069767441797
        },
        {
          "name": "F2",
          "midi": 41,
          "time": 105.55813953487203,
          "velocity": 0.49606299212598426,
          "duration": 0.04651162790696617
        },
        {
          "name": "E5",
          "midi": 76,
          "time": 105.55813953487203,
          "velocity": 0.28346456692913385,
          "duration": 0.23255813953483084
        },
        {
          "name": "B4",
          "midi": 71,
          "time": 105.56976744184877,
          "velocity": 0.16535433070866143,
          "duration": 0.15116279069764005
        },
        {
          "name": "D#3",
          "midi": 51,
          "time": 105.58139534882551,
          "velocity": 0.3937007874015748,
          "duration": 0.023255813953483084
        },
        {
          "name": "D4",
          "midi": 62,
          "time": 105.58139534882551,
          "velocity": 0.2283464566929134,
          "duration": 0.15116279069764005
        },
        {
          "name": "E7",
          "midi": 100,
          "time": 105.59302325580225,
          "velocity": 0.2755905511811024,
          "duration": 1.755813953487987
        },
        {
          "name": "D3",
          "midi": 50,
          "time": 105.60465116277899,
          "velocity": 0.41732283464566927,
          "duration": 0.10465116279067388
        },
        {
          "name": "A4",
          "midi": 69,
          "time": 105.62790697673248,
          "velocity": 0.33070866141732286,
          "duration": 0.19767441860460622
        },
        {
          "name": "G6",
          "midi": 91,
          "time": 105.65116279068596,
          "velocity": 0.13385826771653545,
          "duration": 0.17441860465112313
        },
        {
          "name": "F2",
          "midi": 41,
          "time": 105.6627906976627,
          "velocity": 0.33858267716535434,
          "duration": 0.034883720930224626
        },
        {
          "name": "A3",
          "midi": 57,
          "time": 105.68604651161618,
          "velocity": 0.2125984251968504,
          "duration": 0.034883720930224626
        },
        {
          "name": "D2",
          "midi": 38,
          "time": 105.70930232556967,
          "velocity": 0.33858267716535434,
          "duration": 0.023255813953483084
        },
        {
          "name": "D6",
          "midi": 86,
          "time": 105.72093023254641,
          "velocity": 0.12598425196850394,
          "duration": 0.04651162790696617
        },
        {
          "name": "G#5",
          "midi": 80,
          "time": 105.73255813952315,
          "velocity": 0.16535433070866143,
          "duration": 0.034883720930224626
        },
        {
          "name": "G#1",
          "midi": 32,
          "time": 105.74418604649989,
          "velocity": 0.5354330708661418,
          "duration": 0.011627906976741542
        },
        {
          "name": "A2",
          "midi": 45,
          "time": 105.74418604649989,
          "velocity": 0.5905511811023622,
          "duration": 0.023255813953483084
        },
        {
          "name": "C#4",
          "midi": 61,
          "time": 105.74418604649989,
          "velocity": 0.3779527559055118,
          "duration": 0.04651162790696617
        },
        {
          "name": "B5",
          "midi": 83,
          "time": 105.74418604649989,
          "velocity": 0.08661417322834646,
          "duration": 0.034883720930224626
        },
        {
          "name": "E4",
          "midi": 64,
          "time": 105.75581395347663,
          "velocity": 0.23622047244094488,
          "duration": 0.034883720930224626
        },
        {
          "name": "C5",
          "midi": 72,
          "time": 105.75581395347663,
          "velocity": 0.25196850393700787,
          "duration": 0.31395348837202164
        },
        {
          "name": "G2",
          "midi": 43,
          "time": 105.76744186045337,
          "velocity": 0.5433070866141733,
          "duration": 0.011627906976741542
        },
        {
          "name": "G5",
          "midi": 79,
          "time": 105.76744186045337,
          "velocity": 0.1889763779527559,
          "duration": 0.034883720930224626
        },
        {
          "name": "C3",
          "midi": 48,
          "time": 105.77906976743012,
          "velocity": 0.5826771653543307,
          "duration": 0.011627906976741542
        },
        {
          "name": "D#5",
          "midi": 75,
          "time": 105.77906976743012,
          "velocity": 0.3543307086614173,
          "duration": 0.023255813953483084
        },
        {
          "name": "A#6",
          "midi": 94,
          "time": 105.77906976743012,
          "velocity": 0.1968503937007874,
          "duration": 0.034883720930224626
        },
        {
          "name": "C7",
          "midi": 96,
          "time": 105.77906976743012,
          "velocity": 0.12598425196850394,
          "duration": 0.04651162790696617
        },
        {
          "name": "B2",
          "midi": 47,
          "time": 105.79069767440686,
          "velocity": 0.5669291338582677,
          "duration": 0.011627906976741542
        },
        {
          "name": "C4",
          "midi": 60,
          "time": 105.79069767440686,
          "velocity": 0.2992125984251969,
          "duration": 0.034883720930224626
        },
        {
          "name": "C3",
          "midi": 48,
          "time": 105.8023255813836,
          "velocity": 0.5669291338582677,
          "duration": 0.011627906976741542
        },
        {
          "name": "E5",
          "midi": 76,
          "time": 105.8023255813836,
          "velocity": 0.4251968503937008,
          "duration": 0.3837209302324851
        },
        {
          "name": "C#3",
          "midi": 49,
          "time": 105.81395348836034,
          "velocity": 0.5590551181102362,
          "duration": 0.011627906976741542
        },
        {
          "name": "G3",
          "midi": 55,
          "time": 105.81395348836034,
          "velocity": 0.44881889763779526,
          "duration": 0.06976744186044925
        },
        {
          "name": "G5",
          "midi": 79,
          "time": 105.81395348836034,
          "velocity": 0.15748031496062992,
          "duration": 0.06976744186044925
        },
        {
          "name": "B6",
          "midi": 95,
          "time": 105.81395348836034,
          "velocity": 0.3464566929133858,
          "duration": 0.3255813953487774
        },
        {
          "name": "D7",
          "midi": 98,
          "time": 105.81395348836034,
          "velocity": 0.11811023622047244,
          "duration": 0.0813953488371908
        },
        {
          "name": "C3",
          "midi": 48,
          "time": 105.82558139533708,
          "velocity": 0.5590551181102362,
          "duration": 0.023255813953483084
        },
        {
          "name": "E4",
          "midi": 64,
          "time": 105.82558139533708,
          "velocity": 0.18110236220472442,
          "duration": 0.04651162790696617
        },
        {
          "name": "C#3",
          "midi": 49,
          "time": 105.84883720929056,
          "velocity": 0.5669291338582677,
          "duration": 0.011627906976741542
        },
        {
          "name": "F#5",
          "midi": 78,
          "time": 105.84883720929056,
          "velocity": 0.2440944881889764,
          "duration": 0.12790697674415696
        },
        {
          "name": "C4",
          "midi": 60,
          "time": 105.91860465115101,
          "velocity": 0.3858267716535433,
          "duration": 0.0813953488371908
        },
        {
          "name": "C2",
          "midi": 36,
          "time": 105.93023255812776,
          "velocity": 0.4094488188976378,
          "duration": 0.023255813953483084
        },
        {
          "name": "E4",
          "midi": 64,
          "time": 105.9418604651045,
          "velocity": 0.31496062992125984,
          "duration": 0.034883720930224626
        },
        {
          "name": "A2",
          "midi": 45,
          "time": 105.95348837208124,
          "velocity": 0.5826771653543307,
          "duration": 0.034883720930224626
        },
        {
          "name": "C7",
          "midi": 96,
          "time": 105.95348837208124,
          "velocity": 0.10236220472440945,
          "duration": 0.0813953488371908
        },
        {
          "name": "D#7",
          "midi": 99,
          "time": 105.95348837208124,
          "velocity": 0.13385826771653545,
          "duration": 0.04651162790696617
        },
        {
          "name": "A#1",
          "midi": 34,
          "time": 105.96511627905798,
          "velocity": 0.5196850393700787,
          "duration": 0.011627906976741542
        },
        {
          "name": "G4",
          "midi": 67,
          "time": 105.96511627905798,
          "velocity": 0.4094488188976378,
          "duration": 0.06976744186044925
        },
        {
          "name": "D5",
          "midi": 74,
          "time": 105.96511627905798,
          "velocity": 0.25984251968503935,
          "duration": 0.41860465116270973
        },
        {
          "name": "C#7",
          "midi": 97,
          "time": 105.96511627905798,
          "velocity": 0.13385826771653545,
          "duration": 0.034883720930224626
        },
        {
          "name": "D7",
          "midi": 98,
          "time": 105.96511627905798,
          "velocity": 0.16535433070866143,
          "duration": 0.0813953488371908
        },
        {
          "name": "B2",
          "midi": 47,
          "time": 105.98837209301146,
          "velocity": 0.5905511811023622,
          "duration": 0.023255813953483084
        },
        {
          "name": "E4",
          "midi": 64,
          "time": 105.98837209301146,
          "velocity": 0.31496062992125984,
          "duration": 0.17441860465113734
        },
        {
          "name": "B5",
          "midi": 83,
          "time": 105.98837209301146,
          "velocity": 0.08661417322834646,
          "duration": 0.04651162790696617
        },
        {
          "name": "F#6",
          "midi": 90,
          "time": 105.98837209301146,
          "velocity": 0.13385826771653545,
          "duration": 0.0813953488371908
        },
        {
          "name": "G#6",
          "midi": 92,
          "time": 105.98837209301146,
          "velocity": 0.10236220472440945,
          "duration": 0.04651162790696617
        },
        {
          "name": "C3",
          "midi": 48,
          "time": 106.01162790696495,
          "velocity": 0.5826771653543307,
          "duration": 0.011627906976741542
        },
        {
          "name": "C#3",
          "midi": 49,
          "time": 106.02325581394169,
          "velocity": 0.5748031496062992,
          "duration": 0.023255813953483084
        },
        {
          "name": "C4",
          "midi": 60,
          "time": 106.02325581394169,
          "velocity": 0.36220472440944884,
          "duration": 0.17441860465113734
        },
        {
          "name": "F2",
          "midi": 41,
          "time": 106.03488372091843,
          "velocity": 0.49606299212598426,
          "duration": 0.034883720930224626
        },
        {
          "name": "G3",
          "midi": 55,
          "time": 106.03488372091843,
          "velocity": 0.4645669291338583,
          "duration": 0.10465116279068809
        },
        {
          "name": "G6",
          "midi": 91,
          "time": 106.03488372091843,
          "velocity": 0.13385826771653545,
          "duration": 0.04651162790696617
        },
        {
          "name": "C3",
          "midi": 48,
          "time": 106.04651162789517,
          "velocity": 0.5669291338582677,
          "duration": 0.011627906976741542
        },
        {
          "name": "C#3",
          "midi": 49,
          "time": 106.05813953487191,
          "velocity": 0.5826771653543307,
          "duration": 0.011627906976741542
        },
        {
          "name": "C3",
          "midi": 48,
          "time": 106.06976744184865,
          "velocity": 0.5826771653543307,
          "duration": 0.04651162790698038
        },
        {
          "name": "F#5",
          "midi": 78,
          "time": 106.0813953488254,
          "velocity": 0.13385826771653545,
          "duration": 0.04651162790698038
        },
        {
          "name": "F#7",
          "midi": 102,
          "time": 106.0813953488254,
          "velocity": 0.07086614173228346,
          "duration": 0.04651162790698038
        },
        {
          "name": "B2",
          "midi": 47,
          "time": 106.12790697673238,
          "velocity": 0.5118110236220472,
          "duration": 0.023255813953483084
        },
        {
          "name": "C3",
          "midi": 48,
          "time": 106.15116279068586,
          "velocity": 0.3700787401574803,
          "duration": 0.023255813953483084
        },
        {
          "name": "B6",
          "midi": 95,
          "time": 106.1627906976626,
          "velocity": 0.4251968503937008,
          "duration": 1.4069767441857266
        },
        {
          "name": "E4",
          "midi": 64,
          "time": 106.17441860463934,
          "velocity": 0.2047244094488189,
          "duration": 0.1395348837208985
        },
        {
          "name": "A5",
          "midi": 81,
          "time": 106.17441860463934,
          "velocity": 0.25196850393700787,
          "duration": 0.2558139534883139
        },
        {
          "name": "C#7",
          "midi": 97,
          "time": 106.17441860463934,
          "velocity": 0.2047244094488189,
          "duration": 0.17441860465112313
        },
        {
          "name": "D7",
          "midi": 98,
          "time": 106.17441860463934,
          "velocity": 0.2204724409448819,
          "duration": 0.06976744186044925
        },
        {
          "name": "D#7",
          "midi": 99,
          "time": 106.17441860463934,
          "velocity": 0.12598425196850394,
          "duration": 0.06976744186044925
        },
        {
          "name": "F#7",
          "midi": 102,
          "time": 106.17441860463934,
          "velocity": 0.14173228346456693,
          "duration": 0.09302325581393234
        },
        {
          "name": "G7",
          "midi": 103,
          "time": 106.17441860463934,
          "velocity": 0.10236220472440945,
          "duration": 0.034883720930224626
        },
        {
          "name": "A3",
          "midi": 57,
          "time": 106.18604651161608,
          "velocity": 0.3464566929133858,
          "duration": 0.034883720930224626
        },
        {
          "name": "C7",
          "midi": 96,
          "time": 106.18604651161608,
          "velocity": 0.1968503937007874,
          "duration": 0.034883720930224626
        },
        {
          "name": "E5",
          "midi": 76,
          "time": 106.19767441859283,
          "velocity": 0.4094488188976378,
          "duration": 0.26744186046505547
        },
        {
          "name": "G#3",
          "midi": 56,
          "time": 106.22093023254631,
          "velocity": 0.33858267716535434,
          "duration": 0.023255813953483084
        },
        {
          "name": "G7",
          "midi": 103,
          "time": 106.23255813952305,
          "velocity": 0.13385826771653545,
          "duration": 0.034883720930224626
        },
        {
          "name": "F7",
          "midi": 101,
          "time": 106.24418604649979,
          "velocity": 0.13385826771653545,
          "duration": 0.04651162790696617
        },
        {
          "name": "D7",
          "midi": 98,
          "time": 106.25581395347653,
          "velocity": 0.23622047244094488,
          "duration": 0.2209302325580893
        },
        {
          "name": "C4",
          "midi": 60,
          "time": 106.26744186045327,
          "velocity": 0.3228346456692913,
          "duration": 0.034883720930224626
        },
        {
          "name": "A#4",
          "midi": 70,
          "time": 106.26744186045327,
          "velocity": 0.1732283464566929,
          "duration": 0.06976744186044925
        },
        {
          "name": "F#6",
          "midi": 90,
          "time": 106.26744186045327,
          "velocity": 0.09448818897637795,
          "duration": 0.05813953488370771
        },
        {
          "name": "G#3",
          "midi": 56,
          "time": 106.3023255813835,
          "velocity": 0.3779527559055118,
          "duration": 0.023255813953483084
        },
        {
          "name": "C#4",
          "midi": 61,
          "time": 106.3023255813835,
          "velocity": 0.2992125984251969,
          "duration": 0.023255813953483084
        },
        {
          "name": "G#6",
          "midi": 92,
          "time": 106.31395348836024,
          "velocity": 0.08661417322834646,
          "duration": 0.05813953488370771
        },
        {
          "name": "D#7",
          "midi": 99,
          "time": 106.31395348836024,
          "velocity": 0.1732283464566929,
          "duration": 0.11627906976741542
        },
        {
          "name": "G3",
          "midi": 55,
          "time": 106.32558139533698,
          "velocity": 0.4015748031496063,
          "duration": 0.0813953488371908
        },
        {
          "name": "E4",
          "midi": 64,
          "time": 106.33720930231372,
          "velocity": 0.4094488188976378,
          "duration": 0.2558139534883139
        },
        {
          "name": "C4",
          "midi": 60,
          "time": 106.34883720929047,
          "velocity": 0.2440944881889764,
          "duration": 0.034883720930224626
        },
        {
          "name": "A#4",
          "midi": 70,
          "time": 106.3604651162672,
          "velocity": 0.15748031496062992,
          "duration": 0.10465116279067388
        },
        {
          "name": "C#7",
          "midi": 97,
          "time": 106.3604651162672,
          "velocity": 0.12598425196850394,
          "duration": 0.034883720930224626
        },
        {
          "name": "F7",
          "midi": 101,
          "time": 106.37209302324395,
          "velocity": 0.13385826771653545,
          "duration": 0.06976744186044925
        },
        {
          "name": "C5",
          "midi": 72,
          "time": 106.38372093022069,
          "velocity": 0.14173228346456693,
          "duration": 0.04651162790696617
        },
        {
          "name": "B5",
          "midi": 83,
          "time": 106.38372093022069,
          "velocity": 0.1889763779527559,
          "duration": 0.04651162790696617
        },
        {
          "name": "G#2",
          "midi": 44,
          "time": 106.39534883719743,
          "velocity": 0.5669291338582677,
          "duration": 0.011627906976741542
        },
        {
          "name": "D5",
          "midi": 74,
          "time": 106.39534883719743,
          "velocity": 0.1889763779527559,
          "duration": 0.19767441860460622
        },
        {
          "name": "A2",
          "midi": 45,
          "time": 106.40697674417417,
          "velocity": 0.5511811023622047,
          "duration": 0.011627906976741542
        },
        {
          "name": "G#6",
          "midi": 92,
          "time": 106.40697674417417,
          "velocity": 0.10236220472440945,
          "duration": 0.05813953488370771
        },
        {
          "name": "C#7",
          "midi": 97,
          "time": 106.40697674417417,
          "velocity": 0.2283464566929134,
          "duration": 0.05813953488370771
        },
        {
          "name": "B2",
          "midi": 47,
          "time": 106.41860465115091,
          "velocity": 0.5669291338582677,
          "duration": 0.011627906976741542
        },
        {
          "name": "C#4",
          "midi": 61,
          "time": 106.41860465115091,
          "velocity": 0.31496062992125984,
          "duration": 0.023255813953483084
        },
        {
          "name": "C3",
          "midi": 48,
          "time": 106.43023255812766,
          "velocity": 0.5118110236220472,
          "duration": 0.023255813953483084
        },
        {
          "name": "G#3",
          "midi": 56,
          "time": 106.43023255812766,
          "velocity": 0.47244094488188976,
          "duration": 0.034883720930224626
        },
        {
          "name": "C#3",
          "midi": 49,
          "time": 106.45348837208114,
          "velocity": 0.5433070866141733,
          "duration": 0.011627906976741542
        },
        {
          "name": "C3",
          "midi": 48,
          "time": 106.46511627905788,
          "velocity": 0.6062992125984252,
          "duration": 0.05813953488370771
        },
        {
          "name": "G3",
          "midi": 55,
          "time": 106.46511627905788,
          "velocity": 0.5196850393700787,
          "duration": 0.034883720930224626
        },
        {
          "name": "E5",
          "midi": 76,
          "time": 106.47674418603462,
          "velocity": 0.4251968503937008,
          "duration": 0.7674418604649418
        },
        {
          "name": "A5",
          "midi": 81,
          "time": 106.47674418603462,
          "velocity": 0.07086614173228346,
          "duration": 0.05813953488370771
        },
        {
          "name": "B5",
          "midi": 83,
          "time": 106.47674418603462,
          "velocity": 0.09448818897637795,
          "duration": 0.04651162790696617
        },
        {
          "name": "G#3",
          "midi": 56,
          "time": 106.4999999999881,
          "velocity": 0.3700787401574803,
          "duration": 0.034883720930224626
        },
        {
          "name": "G3",
          "midi": 55,
          "time": 106.53488372091833,
          "velocity": 0.2992125984251969,
          "duration": 0.023255813953483084
        },
        {
          "name": "C3",
          "midi": 48,
          "time": 106.56976744184855,
          "velocity": 0.3779527559055118,
          "duration": 0.023255813953483084
        },
        {
          "name": "A#3",
          "midi": 58,
          "time": 106.59302325580204,
          "velocity": 0.5196850393700787,
          "duration": 0.011627906976741542
        },
        {
          "name": "C#5",
          "midi": 73,
          "time": 106.59302325580204,
          "velocity": 0.2440944881889764,
          "duration": 0.034883720930224626
        },
        {
          "name": "F#6",
          "midi": 90,
          "time": 106.59302325580204,
          "velocity": 0.16535433070866143,
          "duration": 0.034883720930224626
        },
        {
          "name": "C7",
          "midi": 96,
          "time": 106.59302325580204,
          "velocity": 0.14960629921259844,
          "duration": 0.05813953488370771
        },
        {
          "name": "C#7",
          "midi": 97,
          "time": 106.59302325580204,
          "velocity": 0.14173228346456693,
          "duration": 0.0813953488371908
        },
        {
          "name": "F7",
          "midi": 101,
          "time": 106.59302325580204,
          "velocity": 0.10236220472440945,
          "duration": 0.04651162790696617
        },
        {
          "name": "G#2",
          "midi": 44,
          "time": 106.60465116277878,
          "velocity": 0.5905511811023622,
          "duration": 0.023255813953483084
        },
        {
          "name": "G#4",
          "midi": 68,
          "time": 106.60465116277878,
          "velocity": 0.2677165354330709,
          "duration": 0.04651162790696617
        },
        {
          "name": "A5",
          "midi": 81,
          "time": 106.60465116277878,
          "velocity": 0.12598425196850394,
          "duration": 0.034883720930224626
        },
        {
          "name": "D6",
          "midi": 86,
          "time": 106.60465116277878,
          "velocity": 0.09448818897637795,
          "duration": 0.06976744186044925
        },
        {
          "name": "D7",
          "midi": 98,
          "time": 106.60465116277878,
          "velocity": 0.15748031496062992,
          "duration": 0.09302325581393234
        },
        {
          "name": "D#7",
          "midi": 99,
          "time": 106.60465116277878,
          "velocity": 0.12598425196850394,
          "duration": 0.06976744186044925
        },
        {
          "name": "C5",
          "midi": 72,
          "time": 106.61627906975552,
          "velocity": 0.25984251968503935,
          "duration": 0.20930232558134776
        },
        {
          "name": "A#2",
          "midi": 46,
          "time": 106.62790697673226,
          "velocity": 0.5748031496062992,
          "duration": 0.011627906976741542
        },
        {
          "name": "B2",
          "midi": 47,
          "time": 106.639534883709,
          "velocity": 0.5826771653543307,
          "duration": 0.023255813953483084
        },
        {
          "name": "A3",
          "midi": 57,
          "time": 106.65116279068575,
          "velocity": 0.4015748031496063,
          "duration": 0.023255813953483084
        },
        {
          "name": "G4",
          "midi": 67,
          "time": 106.65116279068575,
          "velocity": 0.3228346456692913,
          "duration": 0.04651162790696617
        },
        {
          "name": "C3",
          "midi": 48,
          "time": 106.66279069766249,
          "velocity": 0.5905511811023622,
          "duration": 0.011627906976741542
        },
        {
          "name": "C#3",
          "midi": 49,
          "time": 106.67441860463923,
          "velocity": 0.5984251968503937,
          "duration": 0.011627906976741542
        },
        {
          "name": "G3",
          "midi": 55,
          "time": 106.67441860463923,
          "velocity": 0.47244094488188976,
          "duration": 0.11627906976741542
        },
        {
          "name": "E4",
          "midi": 64,
          "time": 106.67441860463923,
          "velocity": 0.29133858267716534,
          "duration": 0.034883720930224626
        },
        {
          "name": "F#5",
          "midi": 78,
          "time": 106.67441860463923,
          "velocity": 0.14173228346456693,
          "duration": 0.06976744186044925
        },
        {
          "name": "C3",
          "midi": 48,
          "time": 106.68604651161597,
          "velocity": 0.6141732283464567,
          "duration": 0.11627906976741542
        },
        {
          "name": "F4",
          "midi": 65,
          "time": 106.70930232556945,
          "velocity": 0.28346456692913385,
          "duration": 0.023255813953483084
        },
        {
          "name": "G2",
          "midi": 43,
          "time": 106.75581395347642,
          "velocity": 0.5196850393700787,
          "duration": 0.011627906976741542
        },
        {
          "name": "F#3",
          "midi": 54,
          "time": 106.79069767440664,
          "velocity": 0.47244094488188976,
          "duration": 0.023255813953483084
        },
        {
          "name": "B2",
          "midi": 47,
          "time": 106.80232558138339,
          "velocity": 0.5748031496062992,
          "duration": 0.011627906976741542
        },
        {
          "name": "E4",
          "midi": 64,
          "time": 106.80232558138339,
          "velocity": 0.29133858267716534,
          "duration": 0.023255813953483084
        },
        {
          "name": "D#5",
          "midi": 75,
          "time": 106.80232558138339,
          "velocity": 0.2755905511811024,
          "duration": 0.023255813953483084
        },
        {
          "name": "C3",
          "midi": 48,
          "time": 106.81395348836013,
          "velocity": 0.5826771653543307,
          "duration": 0.023255813953483084
        },
        {
          "name": "G4",
          "midi": 67,
          "time": 106.81395348836013,
          "velocity": 0.3937007874015748,
          "duration": 0.06976744186044925
        },
        {
          "name": "C#7",
          "midi": 97,
          "time": 106.81395348836013,
          "velocity": 0.2283464566929134,
          "duration": 0.29069767441853855
        },
        {
          "name": "D7",
          "midi": 98,
          "time": 106.81395348836013,
          "velocity": 0.29133858267716534,
          "duration": 0.2558139534883139
        },
        {
          "name": "D5",
          "midi": 74,
          "time": 106.82558139533687,
          "velocity": 0.25196850393700787,
          "duration": 0.0813953488371908
        },
        {
          "name": "C7",
          "midi": 96,
          "time": 106.82558139533687,
          "velocity": 0.14960629921259844,
          "duration": 0.034883720930224626
        },
        {
          "name": "F#7",
          "midi": 102,
          "time": 106.82558139533687,
          "velocity": 0.12598425196850394,
          "duration": 0.12790697674415696
        },
        {
          "name": "A2",
          "midi": 45,
          "time": 106.83720930231361,
          "velocity": 0.5826771653543307,
          "duration": 0.011627906976741542
        },
        {
          "name": "C#4",
          "midi": 61,
          "time": 106.83720930231361,
          "velocity": 0.28346456692913385,
          "duration": 0.034883720930224626
        },
        {
          "name": "C5",
          "midi": 72,
          "time": 106.83720930231361,
          "velocity": 0.18110236220472442,
          "duration": 0.15116279069764005
        },
        {
          "name": "B2",
          "midi": 47,
          "time": 106.84883720929035,
          "velocity": 0.5511811023622047,
          "duration": 0.034883720930224626
        },
        {
          "name": "G#3",
          "midi": 56,
          "time": 106.84883720929035,
          "velocity": 0.33070866141732286,
          "duration": 0.034883720930224626
        },
        {
          "name": "E4",
          "midi": 64,
          "time": 106.84883720929035,
          "velocity": 0.29133858267716534,
          "duration": 0.05813953488370771
        },
        {
          "name": "G#6",
          "midi": 92,
          "time": 106.84883720929035,
          "velocity": 0.07874015748031496,
          "duration": 0.04651162790696617
        },
        {
          "name": "A#4",
          "midi": 70,
          "time": 106.8604651162671,
          "velocity": 0.28346456692913385,
          "duration": 0.279069767441797
        },
        {
          "name": "D#7",
          "midi": 99,
          "time": 106.8604651162671,
          "velocity": 0.13385826771653545,
          "duration": 0.11627906976741542
        },
        {
          "name": "C4",
          "midi": 60,
          "time": 106.87209302324383,
          "velocity": 0.33858267716535434,
          "duration": 0.04651162790696617
        },
        {
          "name": "G3",
          "midi": 55,
          "time": 106.88372093022058,
          "velocity": 0.3700787401574803,
          "duration": 0.034883720930224626
        },
        {
          "name": "C7",
          "midi": 96,
          "time": 106.88372093022058,
          "velocity": 0.12598425196850394,
          "duration": 0.034883720930224626
        },
        {
          "name": "F7",
          "midi": 101,
          "time": 106.88372093022058,
          "velocity": 0.11023622047244094,
          "duration": 0.05813953488370771
        },
        {
          "name": "G#3",
          "midi": 56,
          "time": 106.9186046511508,
          "velocity": 0.3937007874015748,
          "duration": 0.04651162790696617
        },
        {
          "name": "C#4",
          "midi": 61,
          "time": 106.9186046511508,
          "velocity": 0.2755905511811024,
          "duration": 0.023255813953483084
        },
        {
          "name": "E4",
          "midi": 64,
          "time": 106.93023255812754,
          "velocity": 0.33070866141732286,
          "duration": 0.10465116279067388
        },
        {
          "name": "D5",
          "midi": 74,
          "time": 106.93023255812754,
          "velocity": 0.2755905511811024,
          "duration": 0.48837209302314477
        },
        {
          "name": "C3",
          "midi": 48,
          "time": 106.94186046510428,
          "velocity": 0.4881889763779528,
          "duration": 0.023255813953483084
        },
        {
          "name": "G3",
          "midi": 55,
          "time": 106.96511627905777,
          "velocity": 0.4094488188976378,
          "duration": 0.023255813953483084
        },
        {
          "name": "G#3",
          "midi": 56,
          "time": 106.98837209301125,
          "velocity": 0.2992125984251969,
          "duration": 0.023255813953483084
        },
        {
          "name": "F2",
          "midi": 41,
          "time": 106.99999999998799,
          "velocity": 0.4015748031496063,
          "duration": 0.023255813953483084
        },
        {
          "name": "C4",
          "midi": 60,
          "time": 106.99999999998799,
          "velocity": 0.2677165354330709,
          "duration": 0.023255813953483084
        },
        {
          "name": "G3",
          "midi": 55,
          "time": 107.01162790696473,
          "velocity": 0.4330708661417323,
          "duration": 0.06976744186044925
        },
        {
          "name": "A5",
          "midi": 81,
          "time": 107.02325581394147,
          "velocity": 0.2755905511811024,
          "duration": 0.2558139534883139
        },
        {
          "name": "G7",
          "midi": 103,
          "time": 107.02325581394147,
          "velocity": 0.07086614173228346,
          "duration": 0.034883720930224626
        },
        {
          "name": "F#5",
          "midi": 78,
          "time": 107.03488372091822,
          "velocity": 0.14173228346456693,
          "duration": 0.10465116279067388
        },
        {
          "name": "G6",
          "midi": 91,
          "time": 107.03488372091822,
          "velocity": 0.07086614173228346,
          "duration": 0.034883720930224626
        },
        {
          "name": "F#7",
          "midi": 102,
          "time": 107.03488372091822,
          "velocity": 0.11811023622047244,
          "duration": 0.1395348837208985
        },
        {
          "name": "B5",
          "midi": 83,
          "time": 107.04651162789496,
          "velocity": 0.15748031496062992,
          "duration": 0.06976744186044925
        },
        {
          "name": "F7",
          "midi": 101,
          "time": 107.04651162789496,
          "velocity": 0.15748031496062992,
          "duration": 0.04651162790696617
        },
        {
          "name": "G#2",
          "midi": 44,
          "time": 107.0581395348717,
          "velocity": 0.4645669291338583,
          "duration": 0.023255813953483084
        },
        {
          "name": "D#6",
          "midi": 87,
          "time": 107.0581395348717,
          "velocity": 0.07874015748031496,
          "duration": 0.034883720930224626
        },
        {
          "name": "E4",
          "midi": 64,
          "time": 107.06976744184844,
          "velocity": 0.2047244094488189,
          "duration": 0.06976744186044925
        },
        {
          "name": "F2",
          "midi": 41,
          "time": 107.08139534882518,
          "velocity": 0.4881889763779528,
          "duration": 0.023255813953483084
        },
        {
          "name": "G#3",
          "midi": 56,
          "time": 107.08139534882518,
          "velocity": 0.25196850393700787,
          "duration": 0.023255813953483084
        },
        {
          "name": "C3",
          "midi": 48,
          "time": 107.09302325580192,
          "velocity": 0.3858267716535433,
          "duration": 0.023255813953483084
        },
        {
          "name": "G4",
          "midi": 67,
          "time": 107.11627906975541,
          "velocity": 0.2755905511811024,
          "duration": 0.11627906976741542
        },
        {
          "name": "C3",
          "midi": 48,
          "time": 107.12790697673215,
          "velocity": 0.2992125984251969,
          "duration": 0.023255813953483084
        },
        {
          "name": "C4",
          "midi": 60,
          "time": 107.12790697673215,
          "velocity": 0.3779527559055118,
          "duration": 0.3372093023255047
        },
        {
          "name": "G3",
          "midi": 55,
          "time": 107.15116279068563,
          "velocity": 0.2755905511811024,
          "duration": 0.04651162790696617
        },
        {
          "name": "A#4",
          "midi": 70,
          "time": 107.15116279068563,
          "velocity": 0.09448818897637795,
          "duration": 0.034883720930224626
        },
        {
          "name": "D7",
          "midi": 98,
          "time": 107.15116279068563,
          "velocity": 0.09448818897637795,
          "duration": 0.034883720930224626
        },
        {
          "name": "B5",
          "midi": 83,
          "time": 107.16279069766237,
          "velocity": 0.14173228346456693,
          "duration": 0.05813953488370771
        },
        {
          "name": "F#7",
          "midi": 102,
          "time": 107.1976744185926,
          "velocity": 0.07874015748031496,
          "duration": 0.06976744186044925
        },
        {
          "name": "E4",
          "midi": 64,
          "time": 107.20930232556934,
          "velocity": 0.2992125984251969,
          "duration": 0.04651162790696617
        },
        {
          "name": "C#7",
          "midi": 97,
          "time": 107.20930232556934,
          "velocity": 0.23622047244094488,
          "duration": 0.26744186046505547
        },
        {
          "name": "G3",
          "midi": 55,
          "time": 107.23255813952282,
          "velocity": 0.31496062992125984,
          "duration": 0.034883720930224626
        },
        {
          "name": "B5",
          "midi": 83,
          "time": 107.23255813952282,
          "velocity": 0.23622047244094488,
          "duration": 0.06976744186044925
        },
        {
          "name": "B4",
          "midi": 71,
          "time": 107.24418604649956,
          "velocity": 0.12598425196850394,
          "duration": 0.034883720930224626
        },
        {
          "name": "E5",
          "midi": 76,
          "time": 107.2558139534763,
          "velocity": 0.2755905511811024,
          "duration": 0.2209302325580893
        },
        {
          "name": "C7",
          "midi": 96,
          "time": 107.2558139534763,
          "velocity": 0.09448818897637795,
          "duration": 0.10465116279067388
        },
        {
          "name": "D7",
          "midi": 98,
          "time": 107.2558139534763,
          "velocity": 0.1732283464566929,
          "duration": 0.05813953488370771
        },
        {
          "name": "A#4",
          "midi": 70,
          "time": 107.26744186045305,
          "velocity": 0.1889763779527559,
          "duration": 0.19767441860460622
        },
        {
          "name": "G3",
          "midi": 55,
          "time": 107.27906976742979,
          "velocity": 0.3700787401574803,
          "duration": 0.09302325581393234
        },
        {
          "name": "F#7",
          "midi": 102,
          "time": 107.27906976742979,
          "velocity": 0.13385826771653545,
          "duration": 0.05813953488370771
        },
        {
          "name": "C#3",
          "midi": 49,
          "time": 107.30232558138327,
          "velocity": 0.3779527559055118,
          "duration": 0.05813953488370771
        },
        {
          "name": "E4",
          "midi": 64,
          "time": 107.31395348836001,
          "velocity": 0.29133858267716534,
          "duration": 0.1395348837208985
        },
        {
          "name": "A5",
          "midi": 81,
          "time": 107.32558139533676,
          "velocity": 0.07086614173228346,
          "duration": 0.034883720930224626
        },
        {
          "name": "D#7",
          "midi": 99,
          "time": 107.32558139533676,
          "velocity": 0.10236220472440945,
          "duration": 0.05813953488370771
        },
        {
          "name": "F7",
          "midi": 101,
          "time": 107.34883720929024,
          "velocity": 0.14173228346456693,
          "duration": 0.034883720930224626
        },
        {
          "name": "C3",
          "midi": 48,
          "time": 107.36046511626698,
          "velocity": 0.41732283464566927,
          "duration": 0.023255813953483084
        },
        {
          "name": "F#7",
          "midi": 102,
          "time": 107.36046511626698,
          "velocity": 0.13385826771653545,
          "duration": 0.17441860465112313
        },
        {
          "name": "C2",
          "midi": 36,
          "time": 107.37209302324372,
          "velocity": 0.3228346456692913,
          "duration": 0.023255813953483084
        },
        {
          "name": "C#3",
          "midi": 49,
          "time": 107.38372093022046,
          "velocity": 0.33858267716535434,
          "duration": 0.023255813953483084
        },
        {
          "name": "B5",
          "midi": 83,
          "time": 107.3953488371972,
          "velocity": 0.15748031496062992,
          "duration": 0.11627906976741542
        },
        {
          "name": "C7",
          "midi": 96,
          "time": 107.3953488371972,
          "velocity": 0.15748031496062992,
          "duration": 0.1395348837208985
        },
        {
          "name": "C3",
          "midi": 48,
          "time": 107.40697674417395,
          "velocity": 0.41732283464566927,
          "duration": 0.034883720930224626
        },
        {
          "name": "G3",
          "midi": 55,
          "time": 107.40697674417395,
          "velocity": 0.3228346456692913,
          "duration": 0.05813953488370771
        },
        {
          "name": "G7",
          "midi": 103,
          "time": 107.41860465115069,
          "velocity": 0.10236220472440945,
          "duration": 0.034883720930224626
        },
        {
          "name": "C#6",
          "midi": 85,
          "time": 107.43023255812743,
          "velocity": 0.2677165354330709,
          "duration": 0.04651162790696617
        },
        {
          "name": "E7",
          "midi": 100,
          "time": 107.43023255812743,
          "velocity": 0.33070866141732286,
          "duration": 0.5697674418603356
        },
        {
          "name": "D#6",
          "midi": 87,
          "time": 107.44186046510417,
          "velocity": 0.18110236220472442,
          "duration": 0.11627906976741542
        },
        {
          "name": "F#6",
          "midi": 90,
          "time": 107.44186046510417,
          "velocity": 0.1732283464566929,
          "duration": 0.24418604651157239
        },
        {
          "name": "E2",
          "midi": 40,
          "time": 107.45348837208091,
          "velocity": 0.5590551181102362,
          "duration": 0.011627906976741542
        },
        {
          "name": "C3",
          "midi": 48,
          "time": 107.45348837208091,
          "velocity": 0.5433070866141733,
          "duration": 0.023255813953483084
        },
        {
          "name": "A6",
          "midi": 93,
          "time": 107.45348837208091,
          "velocity": 0.48031496062992124,
          "duration": 0.5348837209301109
        },
        {
          "name": "F2",
          "midi": 41,
          "time": 107.46511627905765,
          "velocity": 0.4881889763779528,
          "duration": 0.023255813953483084
        },
        {
          "name": "A3",
          "midi": 57,
          "time": 107.46511627905765,
          "velocity": 0.4330708661417323,
          "duration": 0.06976744186044925
        },
        {
          "name": "D4",
          "midi": 62,
          "time": 107.46511627905765,
          "velocity": 0.4409448818897638,
          "duration": 0.023255813953483084
        },
        {
          "name": "A5",
          "midi": 81,
          "time": 107.46511627905765,
          "velocity": 0.4015748031496063,
          "duration": 0.7674418604649418
        },
        {
          "name": "F7",
          "midi": 101,
          "time": 107.46511627905765,
          "velocity": 0.10236220472440945,
          "duration": 0.034883720930224626
        },
        {
          "name": "D3",
          "midi": 50,
          "time": 107.4767441860344,
          "velocity": 0.6220472440944882,
          "duration": 0.1395348837208985
        },
        {
          "name": "G4",
          "midi": 67,
          "time": 107.4767441860344,
          "velocity": 0.1889763779527559,
          "duration": 0.11627906976741542
        },
        {
          "name": "C5",
          "midi": 72,
          "time": 107.4767441860344,
          "velocity": 0.14173228346456693,
          "duration": 0.09302325581393234
        },
        {
          "name": "D6",
          "midi": 86,
          "time": 107.4767441860344,
          "velocity": 0.25984251968503935,
          "duration": 0.05813953488370771
        },
        {
          "name": "C#7",
          "midi": 97,
          "time": 107.48837209301114,
          "velocity": 0.1732283464566929,
          "duration": 0.04651162790696617
        },
        {
          "name": "F2",
          "midi": 41,
          "time": 107.49999999998788,
          "velocity": 0.48031496062992124,
          "duration": 0.023255813953483084
        },
        {
          "name": "F#5",
          "midi": 78,
          "time": 107.49999999998788,
          "velocity": 0.10236220472440945,
          "duration": 0.10465116279067388
        },
        {
          "name": "E5",
          "midi": 76,
          "time": 107.52325581394136,
          "velocity": 0.14960629921259844,
          "duration": 0.1395348837208985
        },
        {
          "name": "A4",
          "midi": 69,
          "time": 107.54651162789484,
          "velocity": 0.12598425196850394,
          "duration": 0.034883720930224626
        },
        {
          "name": "A2",
          "midi": 45,
          "time": 107.56976744184833,
          "velocity": 0.5354330708661418,
          "duration": 0.011627906976741542
        },
        {
          "name": "A2",
          "midi": 45,
          "time": 107.59302325580181,
          "velocity": 0.5433070866141733,
          "duration": 0.023255813953483084
        },
        {
          "name": "A4",
          "midi": 69,
          "time": 107.59302325580181,
          "velocity": 0.1968503937007874,
          "duration": 0.06976744186044925
        },
        {
          "name": "B6",
          "midi": 95,
          "time": 107.59302325580181,
          "velocity": 0.18110236220472442,
          "duration": 0.09302325581393234
        },
        {
          "name": "C#6",
          "midi": 85,
          "time": 107.60465116277855,
          "velocity": 0.14960629921259844,
          "duration": 0.279069767441797
        },
        {
          "name": "C#7",
          "midi": 97,
          "time": 107.63953488370878,
          "velocity": 0.18110236220472442,
          "duration": 0.10465116279067388
        },
        {
          "name": "E2",
          "midi": 40,
          "time": 107.66279069766226,
          "velocity": 0.5196850393700787,
          "duration": 0.011627906976741542
        },
        {
          "name": "A#4",
          "midi": 70,
          "time": 107.66279069766226,
          "velocity": 0.1968503937007874,
          "duration": 0.034883720930224626
        },
        {
          "name": "F#5",
          "midi": 78,
          "time": 107.66279069766226,
          "velocity": 0.29133858267716534,
          "duration": 0.24418604651157239
        },
        {
          "name": "C7",
          "midi": 96,
          "time": 107.66279069766226,
          "velocity": 0.13385826771653545,
          "duration": 0.0813953488371908
        },
        {
          "name": "D7",
          "midi": 98,
          "time": 107.66279069766226,
          "velocity": 0.13385826771653545,
          "duration": 0.04651162790696617
        },
        {
          "name": "G#2",
          "midi": 44,
          "time": 107.674418604639,
          "velocity": 0.5118110236220472,
          "duration": 0.011627906976741542
        },
        {
          "name": "E5",
          "midi": 76,
          "time": 107.674418604639,
          "velocity": 0.30708661417322836,
          "duration": 0.17441860465112313
        },
        {
          "name": "G1",
          "midi": 31,
          "time": 107.68604651161574,
          "velocity": 0.5275590551181102,
          "duration": 0.011627906976741542
        },
        {
          "name": "D3",
          "midi": 50,
          "time": 107.68604651161574,
          "velocity": 0.5669291338582677,
          "duration": 0.05813953488370771
        },
        {
          "name": "A3",
          "midi": 57,
          "time": 107.68604651161574,
          "velocity": 0.4409448818897638,
          "duration": 0.04651162790696617
        },
        {
          "name": "F#4",
          "midi": 66,
          "time": 107.68604651161574,
          "velocity": 0.28346456692913385,
          "duration": 0.10465116279067388
        },
        {
          "name": "D#7",
          "midi": 99,
          "time": 107.68604651161574,
          "velocity": 0.07086614173228346,
          "duration": 0.034883720930224626
        },
        {
          "name": "B6",
          "midi": 95,
          "time": 107.72093023254597,
          "velocity": 0.13385826771653545,
          "duration": 0.0813953488371908
        },
        {
          "name": "C#3",
          "midi": 49,
          "time": 107.74418604649945,
          "velocity": 0.6141732283464567,
          "duration": 0.011627906976741542
        },
        {
          "name": "D3",
          "midi": 50,
          "time": 107.75581395347619,
          "velocity": 0.6220472440944882,
          "duration": 0.011627906976741542
        },
        {
          "name": "C4",
          "midi": 60,
          "time": 107.75581395347619,
          "velocity": 0.3543307086614173,
          "duration": 0.023255813953483084
        },
        {
          "name": "D#3",
          "midi": 51,
          "time": 107.76744186045293,
          "velocity": 0.6141732283464567,
          "duration": 0.011627906976741542
        },
        {
          "name": "D3",
          "midi": 50,
          "time": 107.77906976742968,
          "velocity": 0.6141732283464567,
          "duration": 0.023255813953483084
        },
        {
          "name": "A2",
          "midi": 45,
          "time": 107.79069767440642,
          "velocity": 0.5669291338582677,
          "duration": 0.011627906976741542
        },
        {
          "name": "G#3",
          "midi": 56,
          "time": 107.79069767440642,
          "velocity": 0.2992125984251969,
          "duration": 0.023255813953483084
        },
        {
          "name": "C3",
          "midi": 48,
          "time": 107.80232558138316,
          "velocity": 0.6062992125984252,
          "duration": 0.011627906976741542
        },
        {
          "name": "A2",
          "midi": 45,
          "time": 107.8139534883599,
          "velocity": 0.5748031496062992,
          "duration": 0.011627906976741542
        },
        {
          "name": "D3",
          "midi": 50,
          "time": 107.8139534883599,
          "velocity": 0.5669291338582677,
          "duration": 0.011627906976741542
        },
        {
          "name": "C3",
          "midi": 48,
          "time": 107.82558139533664,
          "velocity": 0.5826771653543307,
          "duration": 0.011627906976741542
        },
        {
          "name": "A2",
          "midi": 45,
          "time": 107.83720930231338,
          "velocity": 0.5511811023622047,
          "duration": 0.011627906976741542
        },
        {
          "name": "B6",
          "midi": 95,
          "time": 107.83720930231338,
          "velocity": 0.3858267716535433,
          "duration": 0.5348837209301109
        },
        {
          "name": "G#2",
          "midi": 44,
          "time": 107.84883720929012,
          "velocity": 0.5275590551181102,
          "duration": 0.011627906976741542
        },
        {
          "name": "E4",
          "midi": 64,
          "time": 107.86046511626687,
          "velocity": 0.25196850393700787,
          "duration": 0.06976744186044925
        },
        {
          "name": "G4",
          "midi": 67,
          "time": 107.87209302324361,
          "velocity": 0.18110236220472442,
          "duration": 0.05813953488370771
        },
        {
          "name": "D3",
          "midi": 50,
          "time": 107.88372093022035,
          "velocity": 0.49606299212598426,
          "duration": 0.023255813953483084
        },
        {
          "name": "C4",
          "midi": 60,
          "time": 107.88372093022035,
          "velocity": 0.25984251968503935,
          "duration": 0.023255813953483084
        },
        {
          "name": "D6",
          "midi": 86,
          "time": 107.88372093022035,
          "velocity": 0.12598425196850394,
          "duration": 0.034883720930224626
        },
        {
          "name": "D7",
          "midi": 98,
          "time": 107.88372093022035,
          "velocity": 0.2283464566929134,
          "duration": 0.10465116279067388
        },
        {
          "name": "D5",
          "midi": 74,
          "time": 107.89534883719709,
          "velocity": 0.14173228346456693,
          "duration": 0.04651162790696617
        },
        {
          "name": "B5",
          "midi": 83,
          "time": 107.90697674417383,
          "velocity": 0.14960629921259844,
          "duration": 0.0813953488371908
        },
        {
          "name": "C#7",
          "midi": 97,
          "time": 107.90697674417383,
          "velocity": 0.1732283464566929,
          "duration": 0.12790697674415696
        },
        {
          "name": "D#7",
          "midi": 99,
          "time": 107.90697674417383,
          "velocity": 0.14173228346456693,
          "duration": 0.1627906976743816
        },
        {
          "name": "F#2",
          "midi": 42,
          "time": 107.91860465115057,
          "velocity": 0.5196850393700787,
          "duration": 0.011627906976741542
        },
        {
          "name": "A3",
          "midi": 57,
          "time": 107.91860465115057,
          "velocity": 0.2992125984251969,
          "duration": 0.04651162790696617
        },
        {
          "name": "F#4",
          "midi": 66,
          "time": 107.93023255812732,
          "velocity": 0.2283464566929134,
          "duration": 0.15116279069764005
        },
        {
          "name": "D3",
          "midi": 50,
          "time": 107.94186046510406,
          "velocity": 0.44881889763779526,
          "duration": 0.034883720930224626
        },
        {
          "name": "A#4",
          "midi": 70,
          "time": 107.94186046510406,
          "velocity": 0.12598425196850394,
          "duration": 0.034883720930224626
        },
        {
          "name": "E5",
          "midi": 76,
          "time": 107.9534883720808,
          "velocity": 0.2992125984251969,
          "duration": 0.34883720930224626
        },
        {
          "name": "C7",
          "midi": 96,
          "time": 107.9534883720808,
          "velocity": 0.11811023622047244,
          "duration": 0.034883720930224626
        },
        {
          "name": "F#7",
          "midi": 102,
          "time": 107.9534883720808,
          "velocity": 0.14173228346456693,
          "duration": 0.1395348837208985
        },
        {
          "name": "D5",
          "midi": 74,
          "time": 107.96511627905754,
          "velocity": 0.13385826771653545,
          "duration": 0.034883720930224626
        },
        {
          "name": "D#3",
          "midi": 51,
          "time": 107.97674418603428,
          "velocity": 0.4094488188976378,
          "duration": 0.023255813953483084
        },
        {
          "name": "D3",
          "midi": 50,
          "time": 107.99999999998776,
          "velocity": 0.44881889763779526,
          "duration": 0.05813953488370771
        },
        {
          "name": "A4",
          "midi": 69,
          "time": 107.99999999998776,
          "velocity": 0.2992125984251969,
          "duration": 0.18604651162786467
        },
        {
          "name": "F#6",
          "midi": 90,
          "time": 108.0116279069645,
          "velocity": 0.14173228346456693,
          "duration": 0.2558139534883139
        },
        {
          "name": "D7",
          "midi": 98,
          "time": 108.0116279069645,
          "velocity": 0.16535433070866143,
          "duration": 0.12790697674415696
        },
        {
          "name": "D#4",
          "midi": 63,
          "time": 108.03488372091799,
          "velocity": 0.2755905511811024,
          "duration": 0.023255813953483084
        },
        {
          "name": "D#2",
          "midi": 39,
          "time": 108.04651162789473,
          "velocity": 0.4330708661417323,
          "duration": 0.034883720930224626
        },
        {
          "name": "C5",
          "midi": 72,
          "time": 108.04651162789473,
          "velocity": 0.11023622047244094,
          "duration": 0.034883720930224626
        },
        {
          "name": "C#7",
          "midi": 97,
          "time": 108.04651162789473,
          "velocity": 0.1968503937007874,
          "duration": 0.11627906976741542
        },
        {
          "name": "A3",
          "midi": 57,
          "time": 108.05813953487147,
          "velocity": 0.31496062992125984,
          "duration": 0.04651162790696617
        },
        {
          "name": "D4",
          "midi": 62,
          "time": 108.05813953487147,
          "velocity": 0.3464566929133858,
          "duration": 0.034883720930224626
        },
        {
          "name": "E7",
          "midi": 100,
          "time": 108.05813953487147,
          "velocity": 0.1732283464566929,
          "duration": 0.09302325581393234
        },
        {
          "name": "D3",
          "midi": 50,
          "time": 108.06976744184821,
          "velocity": 0.4330708661417323,
          "duration": 0.023255813953483084
        },
        {
          "name": "G4",
          "midi": 67,
          "time": 108.08139534882496,
          "velocity": 0.2440944881889764,
          "duration": 0.034883720930224626
        },
        {
          "name": "D#3",
          "midi": 51,
          "time": 108.0930232558017,
          "velocity": 0.4881889763779528,
          "duration": 0.034883720930224626
        },
        {
          "name": "F#5",
          "midi": 78,
          "time": 108.0930232558017,
          "velocity": 0.3228346456692913,
          "duration": 0.2558139534883139
        },
        {
          "name": "E4",
          "midi": 64,
          "time": 108.10465116277844,
          "velocity": 0.2992125984251969,
          "duration": 0.034883720930224626
        },
        {
          "name": "D5",
          "midi": 74,
          "time": 108.10465116277844,
          "velocity": 0.2125984251968504,
          "duration": 0.034883720930224626
        },
        {
          "name": "E2",
          "midi": 40,
          "time": 108.11627906975518,
          "velocity": 0.44881889763779526,
          "duration": 0.023255813953483084
        },
        {
          "name": "A3",
          "midi": 57,
          "time": 108.11627906975518,
          "velocity": 0.4409448818897638,
          "duration": 0.05813953488370771
        },
        {
          "name": "F#4",
          "midi": 66,
          "time": 108.11627906975518,
          "velocity": 0.30708661417322836,
          "duration": 0.1395348837208985
        },
        {
          "name": "D3",
          "midi": 50,
          "time": 108.12790697673192,
          "velocity": 0.6141732283464567,
          "duration": 0.17441860465112313
        },
        {
          "name": "B5",
          "midi": 83,
          "time": 108.12790697673192,
          "velocity": 0.1968503937007874,
          "duration": 0.24418604651157239
        },
        {
          "name": "C7",
          "midi": 96,
          "time": 108.12790697673192,
          "velocity": 0.08661417322834646,
          "duration": 0.034883720930224626
        },
        {
          "name": "F2",
          "midi": 41,
          "time": 108.13953488370866,
          "velocity": 0.5275590551181102,
          "duration": 0.034883720930224626
        },
        {
          "name": "F#7",
          "midi": 102,
          "time": 108.13953488370866,
          "velocity": 0.18110236220472442,
          "duration": 0.23255813953483084
        },
        {
          "name": "C4",
          "midi": 60,
          "time": 108.18604651161563,
          "velocity": 0.2755905511811024,
          "duration": 0.09302325581393234
        },
        {
          "name": "C#6",
          "midi": 85,
          "time": 108.19767441859237,
          "velocity": 0.09448818897637795,
          "duration": 0.04651162790696617
        },
        {
          "name": "A4",
          "midi": 69,
          "time": 108.20930232556911,
          "velocity": 0.30708661417322836,
          "duration": 0.09302325581393234
        },
        {
          "name": "E4",
          "midi": 64,
          "time": 108.24418604649934,
          "velocity": 0.28346456692913385,
          "duration": 0.05813953488370771
        },
        {
          "name": "D5",
          "midi": 74,
          "time": 108.26744186045282,
          "velocity": 0.12598425196850394,
          "duration": 0.034883720930224626
        },
        {
          "name": "D#2",
          "midi": 39,
          "time": 108.2906976744063,
          "velocity": 0.25984251968503935,
          "duration": 0.023255813953483084
        },
        {
          "name": "G4",
          "midi": 67,
          "time": 108.2906976744063,
          "velocity": 0.44881889763779526,
          "duration": 0.05813953488370771
        },
        {
          "name": "C4",
          "midi": 60,
          "time": 108.30232558138304,
          "velocity": 0.44881889763779526,
          "duration": 0.023255813953483084
        },
        {
          "name": "D#5",
          "midi": 75,
          "time": 108.30232558138304,
          "velocity": 0.28346456692913385,
          "duration": 0.023255813953483084
        },
        {
          "name": "C#6",
          "midi": 85,
          "time": 108.30232558138304,
          "velocity": 0.30708661417322836,
          "duration": 0.05813953488370771
        },
        {
          "name": "D#7",
          "midi": 99,
          "time": 108.30232558138304,
          "velocity": 0.10236220472440945,
          "duration": 0.0813953488371908
        },
        {
          "name": "D5",
          "midi": 74,
          "time": 108.31395348835979,
          "velocity": 0.2992125984251969,
          "duration": 0.023255813953483084
        },
        {
          "name": "A#5",
          "midi": 82,
          "time": 108.31395348835979,
          "velocity": 0.09448818897637795,
          "duration": 0.04651162790696617
        },
        {
          "name": "G#6",
          "midi": 92,
          "time": 108.31395348835979,
          "velocity": 0.11023622047244094,
          "duration": 0.034883720930224626
        },
        {
          "name": "D7",
          "midi": 98,
          "time": 108.31395348835979,
          "velocity": 0.4330708661417323,
          "duration": 0.5465116279068525
        },
        {
          "name": "D3",
          "midi": 50,
          "time": 108.32558139533653,
          "velocity": 0.6456692913385826,
          "duration": 0.11627906976741542
        },
        {
          "name": "E5",
          "midi": 76,
          "time": 108.32558139533653,
          "velocity": 0.14173228346456693,
          "duration": 0.034883720930224626
        },
        {
          "name": "A3",
          "midi": 57,
          "time": 108.33720930231327,
          "velocity": 0.4409448818897638,
          "duration": 0.023255813953483084
        },
        {
          "name": "C#5",
          "midi": 73,
          "time": 108.33720930231327,
          "velocity": 0.23622047244094488,
          "duration": 0.034883720930224626
        },
        {
          "name": "C6",
          "midi": 84,
          "time": 108.34883720929001,
          "velocity": 0.18110236220472442,
          "duration": 0.09302325581393234
        },
        {
          "name": "D6",
          "midi": 86,
          "time": 108.34883720929001,
          "velocity": 0.2677165354330709,
          "duration": 0.2558139534883139
        },
        {
          "name": "F2",
          "midi": 41,
          "time": 108.36046511626675,
          "velocity": 0.5275590551181102,
          "duration": 0.023255813953483084
        },
        {
          "name": "C5",
          "midi": 72,
          "time": 108.3720930232435,
          "velocity": 0.1889763779527559,
          "duration": 0.11627906976741542
        },
        {
          "name": "E5",
          "midi": 76,
          "time": 108.39534883719698,
          "velocity": 0.14960629921259844,
          "duration": 0.0813953488371908
        },
        {
          "name": "F#4",
          "midi": 66,
          "time": 108.41860465115046,
          "velocity": 0.29133858267716534,
          "duration": 0.0813953488371908
        },
        {
          "name": "A2",
          "midi": 45,
          "time": 108.4302325581272,
          "velocity": 0.5511811023622047,
          "duration": 0.011627906976741542
        },
        {
          "name": "A5",
          "midi": 81,
          "time": 108.4302325581272,
          "velocity": 0.11811023622047244,
          "duration": 0.034883720930224626
        },
        {
          "name": "C#3",
          "midi": 49,
          "time": 108.44186046510394,
          "velocity": 0.6220472440944882,
          "duration": 0.011627906976741542
        },
        {
          "name": "A#3",
          "midi": 58,
          "time": 108.44186046510394,
          "velocity": 0.36220472440944884,
          "duration": 0.023255813953483084
        },
        {
          "name": "A2",
          "midi": 45,
          "time": 108.45348837208068,
          "velocity": 0.6220472440944882,
          "duration": 0.06976744186044925
        },
        {
          "name": "D3",
          "midi": 50,
          "time": 108.45348837208068,
          "velocity": 0.5748031496062992,
          "duration": 0.011627906976741542
        },
        {
          "name": "F2",
          "midi": 41,
          "time": 108.52325581394113,
          "velocity": 0.5984251968503937,
          "duration": 0.011627906976741542
        },
        {
          "name": "G4",
          "midi": 67,
          "time": 108.52325581394113,
          "velocity": 0.2755905511811024,
          "duration": 0.034883720930224626
        },
        {
          "name": "E5",
          "midi": 76,
          "time": 108.52325581394113,
          "velocity": 0.2755905511811024,
          "duration": 0.023255813953483084
        },
        {
          "name": "G#2",
          "midi": 44,
          "time": 108.53488372091788,
          "velocity": 0.6062992125984252,
          "duration": 0.011627906976741542
        },
        {
          "name": "G2",
          "midi": 43,
          "time": 108.54651162789462,
          "velocity": 0.5118110236220472,
          "duration": 0.011627906976741542
        },
        {
          "name": "G6",
          "midi": 91,
          "time": 108.54651162789462,
          "velocity": 0.11023622047244094,
          "duration": 0.034883720930224626
        },
        {
          "name": "F#7",
          "midi": 102,
          "time": 108.54651162789462,
          "velocity": 0.09448818897637795,
          "duration": 0.034883720930224626
        },
        {
          "name": "D3",
          "midi": 50,
          "time": 108.55813953487136,
          "velocity": 0.4566929133858268,
          "duration": 0.06976744186044925
        },
        {
          "name": "A6",
          "midi": 93,
          "time": 108.55813953487136,
          "velocity": 0.07086614173228346,
          "duration": 0.034883720930224626
        },
        {
          "name": "B6",
          "midi": 95,
          "time": 108.55813953487136,
          "velocity": 0.08661417322834646,
          "duration": 0.05813953488370771
        },
        {
          "name": "C#7",
          "midi": 97,
          "time": 108.55813953487136,
          "velocity": 0.3228346456692913,
          "duration": 0.6744186046510094
        },
        {
          "name": "D#2",
          "midi": 39,
          "time": 108.5697674418481,
          "velocity": 0.5118110236220472,
          "duration": 0.011627906976741542
        },
        {
          "name": "A#3",
          "midi": 58,
          "time": 108.5697674418481,
          "velocity": 0.3543307086614173,
          "duration": 0.023255813953483084
        },
        {
          "name": "E5",
          "midi": 76,
          "time": 108.5697674418481,
          "velocity": 0.2677165354330709,
          "duration": 0.10465116279067388
        },
        {
          "name": "E2",
          "midi": 40,
          "time": 108.58139534882484,
          "velocity": 0.48031496062992124,
          "duration": 0.023255813953483084
        },
        {
          "name": "F#4",
          "midi": 66,
          "time": 108.58139534882484,
          "velocity": 0.33070866141732286,
          "duration": 0.10465116279067388
        },
        {
          "name": "C#6",
          "midi": 85,
          "time": 108.58139534882484,
          "velocity": 0.29133858267716534,
          "duration": 0.18604651162786467
        },
        {
          "name": "D#7",
          "midi": 99,
          "time": 108.58139534882484,
          "velocity": 0.13385826771653545,
          "duration": 0.10465116279067388
        },
        {
          "name": "A3",
          "midi": 57,
          "time": 108.59302325580158,
          "velocity": 0.3543307086614173,
          "duration": 0.09302325581393234
        },
        {
          "name": "C7",
          "midi": 96,
          "time": 108.60465116277832,
          "velocity": 0.09448818897637795,
          "duration": 0.034883720930224626
        },
        {
          "name": "C5",
          "midi": 72,
          "time": 108.61627906975507,
          "velocity": 0.11811023622047244,
          "duration": 0.0813953488371908
        },
        {
          "name": "D#3",
          "midi": 51,
          "time": 108.62790697673181,
          "velocity": 0.4251968503937008,
          "duration": 0.023255813953483084
        },
        {
          "name": "D3",
          "midi": 50,
          "time": 108.65116279068529,
          "velocity": 0.44881889763779526,
          "duration": 0.04651162790696617
        },
        {
          "name": "F2",
          "midi": 41,
          "time": 108.66279069766203,
          "velocity": 0.4094488188976378,
          "duration": 0.023255813953483084
        },
        {
          "name": "D#2",
          "midi": 39,
          "time": 108.68604651161552,
          "velocity": 0.4566929133858268,
          "duration": 0.023255813953483084
        },
        {
          "name": "C7",
          "midi": 96,
          "time": 108.69767441859226,
          "velocity": 0.10236220472440945,
          "duration": 0.034883720930224626
        },
        {
          "name": "D3",
          "midi": 50,
          "time": 108.709302325569,
          "velocity": 0.4566929133858268,
          "duration": 0.034883720930224626
        },
        {
          "name": "A3",
          "midi": 57,
          "time": 108.709302325569,
          "velocity": 0.1732283464566929,
          "duration": 0.034883720930224626
        },
        {
          "name": "F#4",
          "midi": 66,
          "time": 108.709302325569,
          "velocity": 0.25196850393700787,
          "duration": 0.04651162790696617
        },
        {
          "name": "D#2",
          "midi": 39,
          "time": 108.72093023254574,
          "velocity": 0.4566929133858268,
          "duration": 0.023255813953483084
        },
        {
          "name": "F#6",
          "midi": 90,
          "time": 108.74418604649922,
          "velocity": 0.3858267716535433,
          "duration": 0.4999999999998863
        },
        {
          "name": "C5",
          "midi": 72,
          "time": 108.75581395347596,
          "velocity": 0.14173228346456693,
          "duration": 0.06976744186044925
        },
        {
          "name": "F5",
          "midi": 77,
          "time": 108.75581395347596,
          "velocity": 0.3858267716535433,
          "duration": 0.023255813953483084
        },
        {
          "name": "D#6",
          "midi": 87,
          "time": 108.75581395347596,
          "velocity": 0.18110236220472442,
          "duration": 0.09302325581393234
        },
        {
          "name": "C7",
          "midi": 96,
          "time": 108.75581395347596,
          "velocity": 0.25984251968503935,
          "duration": 0.24418604651157239
        },
        {
          "name": "D3",
          "midi": 50,
          "time": 108.7674418604527,
          "velocity": 0.3700787401574803,
          "duration": 0.023255813953483084
        },
        {
          "name": "A3",
          "midi": 57,
          "time": 108.7674418604527,
          "velocity": 0.25984251968503935,
          "duration": 0.05813953488370771
        },
        {
          "name": "D6",
          "midi": 86,
          "time": 108.7674418604527,
          "velocity": 0.2755905511811024,
          "duration": 0.04651162790696617
        },
        {
          "name": "F2",
          "midi": 41,
          "time": 108.77906976742945,
          "velocity": 0.4881889763779528,
          "duration": 0.023255813953483084
        },
        {
          "name": "F#5",
          "midi": 78,
          "time": 108.77906976742945,
          "velocity": 0.5433070866141733,
          "duration": 0.5348837209301109
        },
        {
          "name": "B5",
          "midi": 83,
          "time": 108.77906976742945,
          "velocity": 0.07874015748031496,
          "duration": 0.05813953488370771
        },
        {
          "name": "D#3",
          "midi": 51,
          "time": 108.79069767440619,
          "velocity": 0.4409448818897638,
          "duration": 0.023255813953483084
        },
        {
          "name": "D4",
          "midi": 62,
          "time": 108.79069767440619,
          "velocity": 0.23622047244094488,
          "duration": 0.10465116279067388
        },
        {
          "name": "F7",
          "midi": 101,
          "time": 108.79069767440619,
          "velocity": 0.2283464566929134,
          "duration": 0.1627906976743816
        },
        {
          "name": "D3",
          "midi": 50,
          "time": 108.81395348835967,
          "velocity": 0.4645669291338583,
          "duration": 0.1395348837208985
        },
        {
          "name": "D5",
          "midi": 74,
          "time": 108.81395348835967,
          "velocity": 0.2440944881889764,
          "duration": 0.17441860465112313
        },
        {
          "name": "A3",
          "midi": 57,
          "time": 108.83720930231316,
          "velocity": 0.16535433070866143,
          "duration": 0.034883720930224626
        },
        {
          "name": "B6",
          "midi": 95,
          "time": 108.83720930231316,
          "velocity": 0.12598425196850394,
          "duration": 0.06976744186044925
        },
        {
          "name": "D#7",
          "midi": 99,
          "time": 108.83720930231316,
          "velocity": 0.2047244094488189,
          "duration": 0.2209302325580893
        },
        {
          "name": "E7",
          "midi": 100,
          "time": 108.8488372092899,
          "velocity": 0.12598425196850394,
          "duration": 0.034883720930224626
        },
        {
          "name": "E6",
          "midi": 88,
          "time": 108.86046511626664,
          "velocity": 0.07874015748031496,
          "duration": 0.034883720930224626
        },
        {
          "name": "D7",
          "midi": 98,
          "time": 108.87209302324338,
          "velocity": 0.2755905511811024,
          "duration": 0.39534883720921243
        },
        {
          "name": "E7",
          "midi": 100,
          "time": 108.9069767441736,
          "velocity": 0.11811023622047244,
          "duration": 0.04651162790696617
        },
        {
          "name": "E2",
          "midi": 40,
          "time": 108.93023255812709,
          "velocity": 0.29133858267716534,
          "duration": 0.023255813953483084
        },
        {
          "name": "B6",
          "midi": 95,
          "time": 108.93023255812709,
          "velocity": 0.10236220472440945,
          "duration": 0.04651162790696617
        },
        {
          "name": "G7",
          "midi": 103,
          "time": 108.93023255812709,
          "velocity": 0.14173228346456693,
          "duration": 0.12790697674415696
        },
        {
          "name": "G4",
          "midi": 67,
          "time": 108.95348837208057,
          "velocity": 0.2283464566929134,
          "duration": 0.023255813953483084
        },
        {
          "name": "E5",
          "midi": 76,
          "time": 108.95348837208057,
          "velocity": 0.33070866141732286,
          "duration": 0.1627906976743816
        },
        {
          "name": "C3",
          "midi": 48,
          "time": 108.96511627905731,
          "velocity": 0.4251968503937008,
          "duration": 0.034883720930224626
        },
        {
          "name": "A4",
          "midi": 69,
          "time": 108.96511627905731,
          "velocity": 0.29133858267716534,
          "duration": 0.023255813953483084
        },
        {
          "name": "A3",
          "midi": 57,
          "time": 108.97674418603405,
          "velocity": 0.25196850393700787,
          "duration": 0.023255813953483084
        },
        {
          "name": "C#4",
          "midi": 61,
          "time": 108.97674418603405,
          "velocity": 0.2440944881889764,
          "duration": 0.034883720930224626
        },
        {
          "name": "F#4",
          "midi": 66,
          "time": 108.97674418603405,
          "velocity": 0.3543307086614173,
          "duration": 0.20930232558134776
        },
        {
          "name": "C#2",
          "midi": 37,
          "time": 108.9883720930108,
          "velocity": 0.33858267716535434,
          "duration": 0.023255813953483084
        },
        {
          "name": "F3",
          "midi": 53,
          "time": 108.9883720930108,
          "velocity": 0.33858267716535434,
          "duration": 0.023255813953483084
        },
        {
          "name": "A4",
          "midi": 69,
          "time": 108.99999999998754,
          "velocity": 0.3937007874015748,
          "duration": 0.29069767441853855
        },
        {
          "name": "A3",
          "midi": 57,
          "time": 109.01162790696428,
          "velocity": 0.36220472440944884,
          "duration": 0.05813953488370771
        },
        {
          "name": "D4",
          "midi": 62,
          "time": 109.01162790696428,
          "velocity": 0.3228346456692913,
          "duration": 0.06976744186044925
        },
        {
          "name": "C7",
          "midi": 96,
          "time": 109.01162790696428,
          "velocity": 0.11023622047244094,
          "duration": 0.05813953488370771
        },
        {
          "name": "G#2",
          "midi": 44,
          "time": 109.02325581394102,
          "velocity": 0.3937007874015748,
          "duration": 0.023255813953483084
        },
        {
          "name": "F7",
          "midi": 101,
          "time": 109.03488372091776,
          "velocity": 0.11023622047244094,
          "duration": 0.034883720930224626
        },
        {
          "name": "D#3",
          "midi": 51,
          "time": 109.06976744184799,
          "velocity": 0.4330708661417323,
          "duration": 0.034883720930224626
        },
        {
          "name": "A3",
          "midi": 57,
          "time": 109.08139534882473,
          "velocity": 0.2755905511811024,
          "duration": 0.023255813953483084
        },
        {
          "name": "F2",
          "midi": 41,
          "time": 109.09302325580147,
          "velocity": 0.44881889763779526,
          "duration": 0.023255813953483084
        },
        {
          "name": "G7",
          "midi": 103,
          "time": 109.09302325580147,
          "velocity": 0.13385826771653545,
          "duration": 0.04651162790696617
        },
        {
          "name": "D3",
          "midi": 50,
          "time": 109.10465116277821,
          "velocity": 0.48031496062992124,
          "duration": 0.05813953488370771
        },
        {
          "name": "D6",
          "midi": 86,
          "time": 109.11627906975495,
          "velocity": 0.12598425196850394,
          "duration": 0.034883720930224626
        },
        {
          "name": "D#7",
          "midi": 99,
          "time": 109.11627906975495,
          "velocity": 0.1968503937007874,
          "duration": 0.19767441860460622
        },
        {
          "name": "E5",
          "midi": 76,
          "time": 109.13953488370844,
          "velocity": 0.10236220472440945,
          "duration": 0.034883720930224626
        },
        {
          "name": "B6",
          "midi": 95,
          "time": 109.13953488370844,
          "velocity": 0.33070866141732286,
          "duration": 2.0813953488367503
        },
        {
          "name": "F2",
          "midi": 41,
          "time": 109.16279069766192,
          "velocity": 0.5354330708661418,
          "duration": 0.011627906976741542
        },
        {
          "name": "D#3",
          "midi": 51,
          "time": 109.16279069766192,
          "velocity": 0.5354330708661418,
          "duration": 0.023255813953483084
        },
        {
          "name": "C#2",
          "midi": 37,
          "time": 109.17441860463866,
          "velocity": 0.5354330708661418,
          "duration": 0.011627906976741542
        },
        {
          "name": "G#2",
          "midi": 44,
          "time": 109.17441860463866,
          "velocity": 0.5511811023622047,
          "duration": 0.011627906976741542
        },
        {
          "name": "E7",
          "midi": 100,
          "time": 109.17441860463866,
          "velocity": 0.33070866141732286,
          "duration": 1.709302325581021
        },
        {
          "name": "D3",
          "midi": 50,
          "time": 109.1860465116154,
          "velocity": 0.5748031496062992,
          "duration": 0.011627906976741542
        },
        {
          "name": "E4",
          "midi": 64,
          "time": 109.1860465116154,
          "velocity": 0.41732283464566927,
          "duration": 0.279069767441797
        },
        {
          "name": "B4",
          "midi": 71,
          "time": 109.1860465116154,
          "velocity": 0.36220472440944884,
          "duration": 0.3023255813952801
        },
        {
          "name": "D#3",
          "midi": 51,
          "time": 109.19767441859214,
          "velocity": 0.5196850393700787,
          "duration": 0.011627906976741542
        },
        {
          "name": "D#5",
          "midi": 75,
          "time": 109.20930232556888,
          "velocity": 0.4015748031496063,
          "duration": 0.034883720930224626
        },
        {
          "name": "E6",
          "midi": 88,
          "time": 109.20930232556888,
          "velocity": 0.11811023622047244,
          "duration": 0.11627906976741542
        },
        {
          "name": "A#6",
          "midi": 94,
          "time": 109.20930232556888,
          "velocity": 0.2283464566929134,
          "duration": 0.034883720930224626
        },
        {
          "name": "C7",
          "midi": 96,
          "time": 109.20930232556888,
          "velocity": 0.07086614173228346,
          "duration": 0.034883720930224626
        },
        {
          "name": "E2",
          "midi": 40,
          "time": 109.22093023254563,
          "velocity": 0.4645669291338583,
          "duration": 0.023255813953483084
        },
        {
          "name": "B2",
          "midi": 47,
          "time": 109.22093023254563,
          "velocity": 0.4566929133858268,
          "duration": 0.023255813953483084
        },
        {
          "name": "E3",
          "midi": 52,
          "time": 109.23255813952237,
          "velocity": 0.5511811023622047,
          "duration": 0.06976744186044925
        },
        {
          "name": "C4",
          "midi": 60,
          "time": 109.23255813952237,
          "velocity": 0.31496062992125984,
          "duration": 0.023255813953483084
        },
        {
          "name": "E5",
          "midi": 76,
          "time": 109.24418604649911,
          "velocity": 0.44881889763779526,
          "duration": 1.883720930232144
        },
        {
          "name": "B3",
          "midi": 59,
          "time": 109.25581395347585,
          "velocity": 0.30708661417322836,
          "duration": 0.023255813953483084
        },
        {
          "name": "D#3",
          "midi": 51,
          "time": 109.30232558138282,
          "velocity": 0.5196850393700787,
          "duration": 0.011627906976741542
        },
        {
          "name": "B3",
          "midi": 59,
          "time": 109.30232558138282,
          "velocity": 0.3228346456692913,
          "duration": 0.0813953488371908
        },
        {
          "name": "E3",
          "midi": 52,
          "time": 109.31395348835956,
          "velocity": 0.44881889763779526,
          "duration": 0.023255813953483084
        },
        {
          "name": "F#5",
          "midi": 78,
          "time": 109.33720930231304,
          "velocity": 0.4094488188976378,
          "duration": 0.11627906976741542
        },
        {
          "name": "F2",
          "midi": 41,
          "time": 109.34883720928978,
          "velocity": 0.3228346456692913,
          "duration": 0.023255813953483084
        },
        {
          "name": "G#4",
          "midi": 68,
          "time": 109.37209302324327,
          "velocity": 0.2283464566929134,
          "duration": 0.023255813953483084
        },
        {
          "name": "C#2",
          "midi": 37,
          "time": 109.38372093022001,
          "velocity": 0.5275590551181102,
          "duration": 0.011627906976741542
        },
        {
          "name": "C#7",
          "midi": 97,
          "time": 109.38372093022001,
          "velocity": 0.11811023622047244,
          "duration": 0.0813953488371908
        },
        {
          "name": "A3",
          "midi": 57,
          "time": 109.39534883719675,
          "velocity": 0.33858267716535434,
          "duration": 0.023255813953483084
        },
        {
          "name": "D#7",
          "midi": 99,
          "time": 109.39534883719675,
          "velocity": 0.12598425196850394,
          "duration": 0.05813953488370771
        },
        {
          "name": "G4",
          "midi": 67,
          "time": 109.40697674417349,
          "velocity": 0.33070866141732286,
          "duration": 0.24418604651157239
        },
        {
          "name": "F#2",
          "midi": 42,
          "time": 109.41860465115023,
          "velocity": 0.5118110236220472,
          "duration": 0.034883720930224626
        },
        {
          "name": "D#3",
          "midi": 51,
          "time": 109.41860465115023,
          "velocity": 0.4881889763779528,
          "duration": 0.034883720930224626
        },
        {
          "name": "C7",
          "midi": 96,
          "time": 109.41860465115023,
          "velocity": 0.07874015748031496,
          "duration": 0.034883720930224626
        },
        {
          "name": "D7",
          "midi": 98,
          "time": 109.41860465115023,
          "velocity": 0.12598425196850394,
          "duration": 0.04651162790696617
        },
        {
          "name": "B3",
          "midi": 59,
          "time": 109.43023255812697,
          "velocity": 0.29133858267716534,
          "duration": 0.023255813953483084
        },
        {
          "name": "E3",
          "midi": 52,
          "time": 109.45348837208046,
          "velocity": 0.5590551181102362,
          "duration": 0.04651162790696617
        },
        {
          "name": "F#5",
          "midi": 78,
          "time": 109.48837209301068,
          "velocity": 0.2755905511811024,
          "duration": 0.10465116279067388
        },
        {
          "name": "D#3",
          "midi": 51,
          "time": 109.49999999998742,
          "velocity": 0.5433070866141733,
          "duration": 0.011627906976741542
        },
        {
          "name": "B4",
          "midi": 71,
          "time": 109.49999999998742,
          "velocity": 0.15748031496062992,
          "duration": 0.17441860465112313
        },
        {
          "name": "E3",
          "midi": 52,
          "time": 109.51162790696416,
          "velocity": 0.5196850393700787,
          "duration": 0.05813953488370771
        },
        {
          "name": "B3",
          "midi": 59,
          "time": 109.51162790696416,
          "velocity": 0.25196850393700787,
          "duration": 0.04651162790696617
        },
        {
          "name": "E2",
          "midi": 40,
          "time": 109.53488372091765,
          "velocity": 0.44881889763779526,
          "duration": 0.023255813953483084
        },
        {
          "name": "E2",
          "midi": 40,
          "time": 109.56976744184787,
          "velocity": 0.5118110236220472,
          "duration": 0.011627906976741542
        },
        {
          "name": "A5",
          "midi": 81,
          "time": 109.59302325580136,
          "velocity": 0.28346456692913385,
          "duration": 0.39534883720922664
        },
        {
          "name": "F#6",
          "midi": 90,
          "time": 109.59302325580136,
          "velocity": 0.1732283464566929,
          "duration": 0.12790697674415696
        },
        {
          "name": "D7",
          "midi": 98,
          "time": 109.59302325580136,
          "velocity": 0.1889763779527559,
          "duration": 0.17441860465112313
        },
        {
          "name": "C4",
          "midi": 60,
          "time": 109.6046511627781,
          "velocity": 0.28346456692913385,
          "duration": 0.05813953488370771
        },
        {
          "name": "D5",
          "midi": 74,
          "time": 109.6046511627781,
          "velocity": 0.15748031496062992,
          "duration": 0.04651162790696617
        },
        {
          "name": "C#7",
          "midi": 97,
          "time": 109.6046511627781,
          "velocity": 0.2992125984251969,
          "duration": 0.0813953488371908
        },
        {
          "name": "F7",
          "midi": 101,
          "time": 109.61627906975484,
          "velocity": 0.09448818897637795,
          "duration": 0.034883720930224626
        },
        {
          "name": "G3",
          "midi": 55,
          "time": 109.62790697673158,
          "velocity": 0.23622047244094488,
          "duration": 0.023255813953483084
        },
        {
          "name": "D#6",
          "midi": 87,
          "time": 109.62790697673158,
          "velocity": 0.11811023622047244,
          "duration": 0.0813953488371908
        },
        {
          "name": "D4",
          "midi": 62,
          "time": 109.63953488370832,
          "velocity": 0.14173228346456693,
          "duration": 0.034883720930224626
        },
        {
          "name": "F#5",
          "midi": 78,
          "time": 109.63953488370832,
          "velocity": 0.18110236220472442,
          "duration": 0.09302325581393234
        },
        {
          "name": "G7",
          "midi": 103,
          "time": 109.63953488370832,
          "velocity": 0.14173228346456693,
          "duration": 0.11627906976741542
        },
        {
          "name": "D#7",
          "midi": 99,
          "time": 109.65116279068506,
          "velocity": 0.14173228346456693,
          "duration": 0.0813953488371908
        },
        {
          "name": "E3",
          "midi": 52,
          "time": 109.6627906976618,
          "velocity": 0.36220472440944884,
          "duration": 0.023255813953483084
        },
        {
          "name": "C7",
          "midi": 96,
          "time": 109.6627906976618,
          "velocity": 0.16535433070866143,
          "duration": 0.17441860465112313
        },
        {
          "name": "F7",
          "midi": 101,
          "time": 109.6627906976618,
          "velocity": 0.11811023622047244,
          "duration": 0.034883720930224626
        },
        {
          "name": "A3",
          "midi": 57,
          "time": 109.67441860463855,
          "velocity": 0.25196850393700787,
          "duration": 0.023255813953483084
        },
        {
          "name": "D4",
          "midi": 62,
          "time": 109.68604651161529,
          "velocity": 0.14960629921259844,
          "duration": 0.034883720930224626
        },
        {
          "name": "D5",
          "midi": 74,
          "time": 109.68604651161529,
          "velocity": 0.1732283464566929,
          "duration": 0.1395348837208985
        },
        {
          "name": "E2",
          "midi": 40,
          "time": 109.69767441859203,
          "velocity": 0.5039370078740157,
          "duration": 0.05813953488370771
        },
        {
          "name": "G4",
          "midi": 67,
          "time": 109.70930232556877,
          "velocity": 0.25196850393700787,
          "duration": 0.10465116279067388
        },
        {
          "name": "B3",
          "midi": 59,
          "time": 109.73255813952225,
          "velocity": 0.36220472440944884,
          "duration": 0.11627906976741542
        },
        {
          "name": "G#6",
          "midi": 92,
          "time": 109.73255813952225,
          "velocity": 0.07874015748031496,
          "duration": 0.034883720930224626
        },
        {
          "name": "D#6",
          "midi": 87,
          "time": 109.744186046499,
          "velocity": 0.13385826771653545,
          "duration": 0.0813953488371908
        },
        {
          "name": "C#7",
          "midi": 97,
          "time": 109.744186046499,
          "velocity": 0.2283464566929134,
          "duration": 0.12790697674415696
        },
        {
          "name": "F7",
          "midi": 101,
          "time": 109.744186046499,
          "velocity": 0.13385826771653545,
          "duration": 0.05813953488370771
        },
        {
          "name": "E3",
          "midi": 52,
          "time": 109.75581395347574,
          "velocity": 0.3228346456692913,
          "duration": 0.023255813953483084
        },
        {
          "name": "F#6",
          "midi": 90,
          "time": 109.75581395347574,
          "velocity": 0.16535433070866143,
          "duration": 0.11627906976741542
        },
        {
          "name": "D#7",
          "midi": 99,
          "time": 109.75581395347574,
          "velocity": 0.1732283464566929,
          "duration": 0.0813953488371908
        },
        {
          "name": "G2",
          "midi": 43,
          "time": 109.76744186045248,
          "velocity": 0.41732283464566927,
          "duration": 0.023255813953483084
        },
        {
          "name": "D7",
          "midi": 98,
          "time": 109.77906976742922,
          "velocity": 0.14173228346456693,
          "duration": 0.10465116279067388
        },
        {
          "name": "G7",
          "midi": 103,
          "time": 109.77906976742922,
          "velocity": 0.13385826771653545,
          "duration": 0.04651162790696617
        },
        {
          "name": "E3",
          "midi": 52,
          "time": 109.79069767440596,
          "velocity": 0.3858267716535433,
          "duration": 0.023255813953483084
        },
        {
          "name": "E2",
          "midi": 40,
          "time": 109.8023255813827,
          "velocity": 0.49606299212598426,
          "duration": 0.023255813953483084
        },
        {
          "name": "A4",
          "midi": 69,
          "time": 109.8023255813827,
          "velocity": 0.2125984251968504,
          "duration": 0.034883720930224626
        },
        {
          "name": "F#5",
          "midi": 78,
          "time": 109.8023255813827,
          "velocity": 0.2992125984251969,
          "duration": 0.0813953488371908
        },
        {
          "name": "F#2",
          "midi": 42,
          "time": 109.82558139533619,
          "velocity": 0.5511811023622047,
          "duration": 0.023255813953483084
        },
        {
          "name": "G4",
          "midi": 67,
          "time": 109.82558139533619,
          "velocity": 0.3779527559055118,
          "duration": 0.19767441860462043
        },
        {
          "name": "G6",
          "midi": 91,
          "time": 109.82558139533619,
          "velocity": 0.09448818897637795,
          "duration": 0.06976744186044925
        },
        {
          "name": "E4",
          "midi": 64,
          "time": 109.83720930231293,
          "velocity": 0.23622047244094488,
          "duration": 0.023255813953483084
        },
        {
          "name": "E2",
          "midi": 40,
          "time": 109.84883720928967,
          "velocity": 0.4881889763779528,
          "duration": 0.06976744186044925
        },
        {
          "name": "D#7",
          "midi": 99,
          "time": 109.84883720928967,
          "velocity": 0.07874015748031496,
          "duration": 0.11627906976742963
        },
        {
          "name": "G7",
          "midi": 103,
          "time": 109.84883720928967,
          "velocity": 0.11023622047244094,
          "duration": 0.05813953488370771
        },
        {
          "name": "B3",
          "midi": 59,
          "time": 109.86046511626641,
          "velocity": 0.4015748031496063,
          "duration": 0.15116279069765426
        },
        {
          "name": "F#5",
          "midi": 78,
          "time": 109.9651162790571,
          "velocity": 0.2125984251968504,
          "duration": 0.06976744186044925
        },
        {
          "name": "E4",
          "midi": 64,
          "time": 109.97674418603384,
          "velocity": 0.31496062992125984,
          "duration": 0.04651162790696617
        },
        {
          "name": "D5",
          "midi": 74,
          "time": 110.01162790696407,
          "velocity": 0.36220472440944884,
          "duration": 0.034883720930224626
        },
        {
          "name": "C7",
          "midi": 96,
          "time": 110.01162790696407,
          "velocity": 0.09448818897637795,
          "duration": 0.034883720930224626
        },
        {
          "name": "C3",
          "midi": 48,
          "time": 110.0232558139408,
          "velocity": 0.5511811023622047,
          "duration": 0.023255813953483084
        },
        {
          "name": "F4",
          "midi": 65,
          "time": 110.0232558139408,
          "velocity": 0.4330708661417323,
          "duration": 0.023255813953483084
        },
        {
          "name": "A#4",
          "midi": 70,
          "time": 110.0232558139408,
          "velocity": 0.29133858267716534,
          "duration": 0.023255813953483084
        },
        {
          "name": "D#6",
          "midi": 87,
          "time": 110.0232558139408,
          "velocity": 0.11811023622047244,
          "duration": 0.09302325581393234
        },
        {
          "name": "C#7",
          "midi": 97,
          "time": 110.0232558139408,
          "velocity": 0.18110236220472442,
          "duration": 0.0813953488371908
        },
        {
          "name": "D#7",
          "midi": 99,
          "time": 110.0232558139408,
          "velocity": 0.13385826771653545,
          "duration": 0.05813953488370771
        },
        {
          "name": "A#3",
          "midi": 58,
          "time": 110.03488372091755,
          "velocity": 0.49606299212598426,
          "duration": 0.023255813953483084
        },
        {
          "name": "G4",
          "midi": 67,
          "time": 110.03488372091755,
          "velocity": 0.2992125984251969,
          "duration": 0.023255813953483084
        },
        {
          "name": "A5",
          "midi": 81,
          "time": 110.03488372091755,
          "velocity": 0.1732283464566929,
          "duration": 0.04651162790696617
        },
        {
          "name": "G#6",
          "midi": 92,
          "time": 110.03488372091755,
          "velocity": 0.09448818897637795,
          "duration": 0.04651162790696617
        },
        {
          "name": "D7",
          "midi": 98,
          "time": 110.03488372091755,
          "velocity": 0.16535433070866143,
          "duration": 0.11627906976741542
        },
        {
          "name": "C#3",
          "midi": 49,
          "time": 110.04651162789429,
          "velocity": 0.5275590551181102,
          "duration": 0.011627906976741542
        },
        {
          "name": "E4",
          "midi": 64,
          "time": 110.04651162789429,
          "velocity": 0.3779527559055118,
          "duration": 0.023255813953483084
        },
        {
          "name": "B4",
          "midi": 71,
          "time": 110.04651162789429,
          "velocity": 0.23622047244094488,
          "duration": 0.023255813953483084
        },
        {
          "name": "C#5",
          "midi": 73,
          "time": 110.04651162789429,
          "velocity": 0.25196850393700787,
          "duration": 0.023255813953483084
        },
        {
          "name": "E3",
          "midi": 52,
          "time": 110.05813953487103,
          "velocity": 0.5118110236220472,
          "duration": 0.06976744186044925
        },
        {
          "name": "B3",
          "midi": 59,
          "time": 110.05813953487103,
          "velocity": 0.44881889763779526,
          "duration": 0.034883720930224626
        },
        {
          "name": "D5",
          "midi": 74,
          "time": 110.06976744184777,
          "velocity": 0.18110236220472442,
          "duration": 0.05813953488370771
        },
        {
          "name": "F#5",
          "midi": 78,
          "time": 110.08139534882451,
          "velocity": 0.12598425196850394,
          "duration": 0.04651162790696617
        },
        {
          "name": "G#5",
          "midi": 80,
          "time": 110.08139534882451,
          "velocity": 0.09448818897637795,
          "duration": 0.034883720930224626
        },
        {
          "name": "C4",
          "midi": 60,
          "time": 110.09302325580126,
          "velocity": 0.3858267716535433,
          "duration": 0.023255813953483084
        },
        {
          "name": "F2",
          "midi": 41,
          "time": 110.104651162778,
          "velocity": 0.5118110236220472,
          "duration": 0.011627906976741542
        },
        {
          "name": "B3",
          "midi": 59,
          "time": 110.11627906975474,
          "velocity": 0.4094488188976378,
          "duration": 0.034883720930224626
        },
        {
          "name": "F3",
          "midi": 53,
          "time": 110.12790697673148,
          "velocity": 0.5275590551181102,
          "duration": 0.011627906976741542
        },
        {
          "name": "B2",
          "midi": 47,
          "time": 110.13953488370822,
          "velocity": 0.5118110236220472,
          "duration": 0.011627906976741542
        },
        {
          "name": "E3",
          "midi": 52,
          "time": 110.13953488370822,
          "velocity": 0.5590551181102362,
          "duration": 0.05813953488370771
        },
        {
          "name": "F#6",
          "midi": 90,
          "time": 110.13953488370822,
          "velocity": 0.07086614173228346,
          "duration": 0.034883720930224626
        },
        {
          "name": "F#5",
          "midi": 78,
          "time": 110.15116279068496,
          "velocity": 0.11811023622047244,
          "duration": 0.034883720930224626
        },
        {
          "name": "B4",
          "midi": 71,
          "time": 110.17441860463845,
          "velocity": 0.3937007874015748,
          "duration": 0.9883720930230311
        },
        {
          "name": "C3",
          "midi": 48,
          "time": 110.18604651161519,
          "velocity": 0.5354330708661418,
          "duration": 0.023255813953483084
        },
        {
          "name": "B2",
          "midi": 47,
          "time": 110.20930232556867,
          "velocity": 0.5669291338582677,
          "duration": 0.034883720930224626
        },
        {
          "name": "F#5",
          "midi": 78,
          "time": 110.20930232556867,
          "velocity": 0.3700787401574803,
          "duration": 0.0813953488371908
        },
        {
          "name": "E2",
          "midi": 40,
          "time": 110.22093023254541,
          "velocity": 0.5354330708661418,
          "duration": 0.023255813953483084
        },
        {
          "name": "C4",
          "midi": 60,
          "time": 110.22093023254541,
          "velocity": 0.23622047244094488,
          "duration": 0.023255813953483084
        },
        {
          "name": "A2",
          "midi": 45,
          "time": 110.2441860464989,
          "velocity": 0.5590551181102362,
          "duration": 0.011627906976741542
        },
        {
          "name": "G4",
          "midi": 67,
          "time": 110.2441860464989,
          "velocity": 0.4015748031496063,
          "duration": 0.3604651162789878
        },
        {
          "name": "F2",
          "midi": 41,
          "time": 110.25581395347564,
          "velocity": 0.5196850393700787,
          "duration": 0.011627906976741542
        },
        {
          "name": "B2",
          "midi": 47,
          "time": 110.25581395347564,
          "velocity": 0.5354330708661418,
          "duration": 0.011627906976741542
        },
        {
          "name": "A2",
          "midi": 45,
          "time": 110.26744186045238,
          "velocity": 0.5669291338582677,
          "duration": 0.011627906976741542
        },
        {
          "name": "C4",
          "midi": 60,
          "time": 110.26744186045238,
          "velocity": 0.29133858267716534,
          "duration": 0.023255813953483084
        },
        {
          "name": "D#6",
          "midi": 87,
          "time": 110.26744186045238,
          "velocity": 0.09448818897637795,
          "duration": 0.05813953488370771
        },
        {
          "name": "C#7",
          "midi": 97,
          "time": 110.26744186045238,
          "velocity": 0.23622047244094488,
          "duration": 0.05813953488370771
        },
        {
          "name": "D#7",
          "midi": 99,
          "time": 110.26744186045238,
          "velocity": 0.11023622047244094,
          "duration": 0.06976744186044925
        },
        {
          "name": "F2",
          "midi": 41,
          "time": 110.27906976742912,
          "velocity": 0.5433070866141733,
          "duration": 0.023255813953483084
        },
        {
          "name": "B2",
          "midi": 47,
          "time": 110.27906976742912,
          "velocity": 0.5118110236220472,
          "duration": 0.011627906976741542
        },
        {
          "name": "E4",
          "midi": 64,
          "time": 110.27906976742912,
          "velocity": 0.28346456692913385,
          "duration": 0.1627906976743816
        },
        {
          "name": "B3",
          "midi": 59,
          "time": 110.29069767440586,
          "velocity": 0.3858267716535433,
          "duration": 0.1395348837208985
        },
        {
          "name": "E2",
          "midi": 40,
          "time": 110.3023255813826,
          "velocity": 0.5433070866141733,
          "duration": 0.023255813953483084
        },
        {
          "name": "C7",
          "midi": 96,
          "time": 110.31395348835935,
          "velocity": 0.09448818897637795,
          "duration": 0.06976744186044925
        },
        {
          "name": "D7",
          "midi": 98,
          "time": 110.32558139533609,
          "velocity": 0.13385826771653545,
          "duration": 0.11627906976741542
        },
        {
          "name": "F7",
          "midi": 101,
          "time": 110.32558139533609,
          "velocity": 0.11811023622047244,
          "duration": 0.11627906976741542
        },
        {
          "name": "D#2",
          "midi": 39,
          "time": 110.33720930231283,
          "velocity": 0.4330708661417323,
          "duration": 0.034883720930224626
        },
        {
          "name": "F#5",
          "midi": 78,
          "time": 110.34883720928957,
          "velocity": 0.2992125984251969,
          "duration": 0.23255813953483084
        },
        {
          "name": "C#7",
          "midi": 97,
          "time": 110.34883720928957,
          "velocity": 0.28346456692913385,
          "duration": 0.20930232558134776
        },
        {
          "name": "D#7",
          "midi": 99,
          "time": 110.36046511626631,
          "velocity": 0.23622047244094488,
          "duration": 0.279069767441797
        },
        {
          "name": "E2",
          "midi": 40,
          "time": 110.37209302324305,
          "velocity": 0.3779527559055118,
          "duration": 0.023255813953483084
        },
        {
          "name": "E3",
          "midi": 52,
          "time": 110.37209302324305,
          "velocity": 0.4094488188976378,
          "duration": 0.023255813953483084
        },
        {
          "name": "D#6",
          "midi": 87,
          "time": 110.37209302324305,
          "velocity": 0.12598425196850394,
          "duration": 0.04651162790696617
        },
        {
          "name": "F#2",
          "midi": 42,
          "time": 110.40697674417328,
          "velocity": 0.4409448818897638,
          "duration": 0.034883720930224626
        },
        {
          "name": "D5",
          "midi": 74,
          "time": 110.40697674417328,
          "velocity": 0.14173228346456693,
          "duration": 0.09302325581393234
        },
        {
          "name": "A5",
          "midi": 81,
          "time": 110.45348837208024,
          "velocity": 0.2677165354330709,
          "duration": 0.3604651162789878
        },
        {
          "name": "D7",
          "midi": 98,
          "time": 110.45348837208024,
          "velocity": 0.2283464566929134,
          "duration": 0.34883720930224626
        },
        {
          "name": "F#2",
          "midi": 42,
          "time": 110.46511627905699,
          "velocity": 0.5511811023622047,
          "duration": 0.023255813953483084
        },
        {
          "name": "E4",
          "midi": 64,
          "time": 110.46511627905699,
          "velocity": 0.33070866141732286,
          "duration": 0.29069767441853855
        },
        {
          "name": "C7",
          "midi": 96,
          "time": 110.46511627905699,
          "velocity": 0.10236220472440945,
          "duration": 0.04651162790696617
        },
        {
          "name": "F#7",
          "midi": 102,
          "time": 110.47674418603373,
          "velocity": 0.18110236220472442,
          "duration": 0.18604651162786467
        },
        {
          "name": "F2",
          "midi": 41,
          "time": 110.48837209301047,
          "velocity": 0.5748031496062992,
          "duration": 0.034883720930224626
        },
        {
          "name": "B3",
          "midi": 59,
          "time": 110.49999999998721,
          "velocity": 0.2047244094488189,
          "duration": 0.06976744186044925
        },
        {
          "name": "F7",
          "midi": 101,
          "time": 110.49999999998721,
          "velocity": 0.1889763779527559,
          "duration": 0.39534883720921243
        },
        {
          "name": "E3",
          "midi": 52,
          "time": 110.51162790696395,
          "velocity": 0.36220472440944884,
          "duration": 0.10465116279067388
        },
        {
          "name": "A#6",
          "midi": 94,
          "time": 110.53488372091743,
          "velocity": 0.13385826771653545,
          "duration": 0.0813953488371908
        },
        {
          "name": "E2",
          "midi": 40,
          "time": 110.54651162789418,
          "velocity": 0.33070866141732286,
          "duration": 0.023255813953483084
        },
        {
          "name": "D5",
          "midi": 74,
          "time": 110.55813953487092,
          "velocity": 0.1732283464566929,
          "duration": 0.05813953488370771
        },
        {
          "name": "F2",
          "midi": 41,
          "time": 110.56976744184766,
          "velocity": 0.3228346456692913,
          "duration": 0.034883720930224626
        },
        {
          "name": "C#7",
          "midi": 97,
          "time": 110.5813953488244,
          "velocity": 0.1889763779527559,
          "duration": 0.05813953488370771
        },
        {
          "name": "B3",
          "midi": 59,
          "time": 110.59302325580114,
          "velocity": 0.2125984251968504,
          "duration": 0.0813953488371908
        },
        {
          "name": "E2",
          "midi": 40,
          "time": 110.60465116277788,
          "velocity": 0.29133858267716534,
          "duration": 0.05813953488370771
        },
        {
          "name": "G#5",
          "midi": 80,
          "time": 110.60465116277788,
          "velocity": 0.13385826771653545,
          "duration": 0.0813953488371908
        },
        {
          "name": "D#3",
          "midi": 51,
          "time": 110.62790697673137,
          "velocity": 0.25196850393700787,
          "duration": 0.023255813953483084
        },
        {
          "name": "F#6",
          "midi": 90,
          "time": 110.62790697673137,
          "velocity": 0.2125984251968504,
          "duration": 0.0813953488371908
        },
        {
          "name": "C7",
          "midi": 96,
          "time": 110.62790697673137,
          "velocity": 0.2440944881889764,
          "duration": 0.034883720930224626
        },
        {
          "name": "D6",
          "midi": 86,
          "time": 110.63953488370811,
          "velocity": 0.12598425196850394,
          "duration": 0.04651162790696617
        },
        {
          "name": "A#6",
          "midi": 94,
          "time": 110.63953488370811,
          "velocity": 0.11811023622047244,
          "duration": 0.034883720930224626
        },
        {
          "name": "G4",
          "midi": 67,
          "time": 110.66279069766159,
          "velocity": 0.41732283464566927,
          "duration": 0.4418604651161786
        },
        {
          "name": "C#7",
          "midi": 97,
          "time": 110.66279069766159,
          "velocity": 0.2440944881889764,
          "duration": 0.29069767441853855
        },
        {
          "name": "F#5",
          "midi": 78,
          "time": 110.67441860463833,
          "velocity": 0.3228346456692913,
          "duration": 0.06976744186044925
        },
        {
          "name": "G6",
          "midi": 91,
          "time": 110.67441860463833,
          "velocity": 0.11811023622047244,
          "duration": 0.12790697674415696
        },
        {
          "name": "C7",
          "midi": 96,
          "time": 110.68604651161507,
          "velocity": 0.2440944881889764,
          "duration": 0.09302325581393234
        },
        {
          "name": "D#7",
          "midi": 99,
          "time": 110.68604651161507,
          "velocity": 0.12598425196850394,
          "duration": 0.06976744186044925
        },
        {
          "name": "F3",
          "midi": 53,
          "time": 110.69767441859182,
          "velocity": 0.36220472440944884,
          "duration": 0.023255813953483084
        },
        {
          "name": "D6",
          "midi": 86,
          "time": 110.70930232556856,
          "velocity": 0.08661417322834646,
          "duration": 0.034883720930224626
        },
        {
          "name": "A#3",
          "midi": 58,
          "time": 110.73255813952204,
          "velocity": 0.2677165354330709,
          "duration": 0.023255813953483084
        },
        {
          "name": "F#7",
          "midi": 102,
          "time": 110.74418604649878,
          "velocity": 0.07874015748031496,
          "duration": 0.05813953488370771
        },
        {
          "name": "B3",
          "midi": 59,
          "time": 110.75581395347552,
          "velocity": 0.2992125984251969,
          "duration": 0.05813953488370771
        },
        {
          "name": "D#6",
          "midi": 87,
          "time": 110.75581395347552,
          "velocity": 0.16535433070866143,
          "duration": 0.12790697674415696
        },
        {
          "name": "F3",
          "midi": 53,
          "time": 110.76744186045227,
          "velocity": 0.3464566929133858,
          "duration": 0.04651162790696617
        },
        {
          "name": "A#6",
          "midi": 94,
          "time": 110.76744186045227,
          "velocity": 0.15748031496062992,
          "duration": 0.1395348837208985
        },
        {
          "name": "D#7",
          "midi": 99,
          "time": 110.76744186045227,
          "velocity": 0.23622047244094488,
          "duration": 0.10465116279067388
        },
        {
          "name": "D5",
          "midi": 74,
          "time": 110.77906976742901,
          "velocity": 0.08661417322834646,
          "duration": 0.034883720930224626
        },
        {
          "name": "G7",
          "midi": 103,
          "time": 110.79069767440575,
          "velocity": 0.29133858267716534,
          "duration": 0.10465116279067388
        },
        {
          "name": "E4",
          "midi": 64,
          "time": 110.80232558138249,
          "velocity": 0.15748031496062992,
          "duration": 0.05813953488370771
        },
        {
          "name": "F#2",
          "midi": 42,
          "time": 110.81395348835923,
          "velocity": 0.5196850393700787,
          "duration": 0.011627906976741542
        },
        {
          "name": "F2",
          "midi": 41,
          "time": 110.82558139533597,
          "velocity": 0.5118110236220472,
          "duration": 0.011627906976741542
        },
        {
          "name": "E2",
          "midi": 40,
          "time": 110.83720930231271,
          "velocity": 0.4566929133858268,
          "duration": 0.023255813953483084
        },
        {
          "name": "D6",
          "midi": 86,
          "time": 110.83720930231271,
          "velocity": 0.15748031496062992,
          "duration": 0.0813953488371908
        },
        {
          "name": "F#7",
          "midi": 102,
          "time": 110.84883720928946,
          "velocity": 0.3228346456692913,
          "duration": 0.18604651162786467
        },
        {
          "name": "F#5",
          "midi": 78,
          "time": 110.8604651162662,
          "velocity": 0.14960629921259844,
          "duration": 0.04651162790696617
        },
        {
          "name": "D5",
          "midi": 74,
          "time": 110.87209302324294,
          "velocity": 0.14960629921259844,
          "duration": 0.10465116279067388
        },
        {
          "name": "A6",
          "midi": 93,
          "time": 110.87209302324294,
          "velocity": 0.2125984251968504,
          "duration": 0.09302325581393234
        },
        {
          "name": "D7",
          "midi": 98,
          "time": 110.87209302324294,
          "velocity": 0.23622047244094488,
          "duration": 0.12790697674415696
        },
        {
          "name": "G2",
          "midi": 43,
          "time": 110.88372093021968,
          "velocity": 0.5433070866141733,
          "duration": 0.011627906976741542
        },
        {
          "name": "D#4",
          "midi": 63,
          "time": 110.88372093021968,
          "velocity": 0.3228346456692913,
          "duration": 0.023255813953483084
        },
        {
          "name": "C7",
          "midi": 96,
          "time": 110.88372093021968,
          "velocity": 0.08661417322834646,
          "duration": 0.034883720930224626
        },
        {
          "name": "B2",
          "midi": 47,
          "time": 110.89534883719642,
          "velocity": 0.5590551181102362,
          "duration": 0.011627906976741542
        },
        {
          "name": "F3",
          "midi": 53,
          "time": 110.89534883719642,
          "velocity": 0.5354330708661418,
          "duration": 0.011627906976741542
        },
        {
          "name": "E7",
          "midi": 100,
          "time": 110.89534883719642,
          "velocity": 0.15748031496062992,
          "duration": 0.034883720930224626
        },
        {
          "name": "D#3",
          "midi": 51,
          "time": 110.90697674417316,
          "velocity": 0.5905511811023622,
          "duration": 0.011627906976741542
        },
        {
          "name": "E4",
          "midi": 64,
          "time": 110.90697674417316,
          "velocity": 0.4251968503937008,
          "duration": 0.3023255813952801
        },
        {
          "name": "E3",
          "midi": 52,
          "time": 110.9186046511499,
          "velocity": 0.5590551181102362,
          "duration": 0.09302325581393234
        },
        {
          "name": "F2",
          "midi": 41,
          "time": 110.93023255812665,
          "velocity": 0.5118110236220472,
          "duration": 0.05813953488370771
        },
        {
          "name": "B3",
          "midi": 59,
          "time": 110.93023255812665,
          "velocity": 0.3700787401574803,
          "duration": 0.023255813953483084
        },
        {
          "name": "C4",
          "midi": 60,
          "time": 110.95348837208013,
          "velocity": 0.3543307086614173,
          "duration": 0.023255813953483084
        },
        {
          "name": "E7",
          "midi": 100,
          "time": 110.95348837208013,
          "velocity": 0.14173228346456693,
          "duration": 0.05813953488370771
        },
        {
          "name": "F#6",
          "midi": 90,
          "time": 110.96511627905687,
          "velocity": 0.12598425196850394,
          "duration": 0.04651162790696617
        },
        {
          "name": "A#6",
          "midi": 94,
          "time": 110.96511627905687,
          "velocity": 0.11811023622047244,
          "duration": 0.09302325581393234
        },
        {
          "name": "D#7",
          "midi": 99,
          "time": 110.96511627905687,
          "velocity": 0.16535433070866143,
          "duration": 0.034883720930224626
        },
        {
          "name": "B3",
          "midi": 59,
          "time": 110.97674418603361,
          "velocity": 0.3543307086614173,
          "duration": 0.034883720930224626
        },
        {
          "name": "G7",
          "midi": 103,
          "time": 110.97674418603361,
          "velocity": 0.1889763779527559,
          "duration": 0.034883720930224626
        },
        {
          "name": "F#5",
          "midi": 78,
          "time": 110.9999999999871,
          "velocity": 0.18110236220472442,
          "duration": 0.06976744186044925
        },
        {
          "name": "D5",
          "midi": 74,
          "time": 111.01162790696384,
          "velocity": 0.13385826771653545,
          "duration": 0.0813953488371908
        },
        {
          "name": "D#7",
          "midi": 99,
          "time": 111.02325581394058,
          "velocity": 0.11811023622047244,
          "duration": 0.034883720930224626
        },
        {
          "name": "E7",
          "midi": 100,
          "time": 111.02325581394058,
          "velocity": 0.09448818897637795,
          "duration": 0.04651162790696617
        },
        {
          "name": "G7",
          "midi": 103,
          "time": 111.02325581394058,
          "velocity": 0.1889763779527559,
          "duration": 0.06976744186044925
        },
        {
          "name": "F3",
          "midi": 53,
          "time": 111.03488372091732,
          "velocity": 0.2677165354330709,
          "duration": 0.023255813953483084
        },
        {
          "name": "B3",
          "midi": 59,
          "time": 111.04651162789406,
          "velocity": 0.2283464566929134,
          "duration": 0.04651162790696617
        },
        {
          "name": "D7",
          "midi": 98,
          "time": 111.04651162789406,
          "velocity": 0.13385826771653545,
          "duration": 0.12790697674415696
        },
        {
          "name": "E3",
          "midi": 52,
          "time": 111.0581395348708,
          "velocity": 0.29133858267716534,
          "duration": 0.034883720930224626
        },
        {
          "name": "D#2",
          "midi": 39,
          "time": 111.08139534882429,
          "velocity": 0.47244094488188976,
          "duration": 0.023255813953483084
        },
        {
          "name": "A3",
          "midi": 57,
          "time": 111.08139534882429,
          "velocity": 0.2992125984251969,
          "duration": 0.05813953488370771
        },
        {
          "name": "F7",
          "midi": 101,
          "time": 111.09302325580103,
          "velocity": 0.12598425196850394,
          "duration": 0.0813953488371908
        },
        {
          "name": "C2",
          "midi": 36,
          "time": 111.10465116277777,
          "velocity": 0.5275590551181102,
          "duration": 0.011627906976741542
        },
        {
          "name": "G#2",
          "midi": 44,
          "time": 111.10465116277777,
          "velocity": 0.5196850393700787,
          "duration": 0.011627906976741542
        },
        {
          "name": "F#5",
          "midi": 78,
          "time": 111.10465116277777,
          "velocity": 0.2440944881889764,
          "duration": 0.023255813953483084
        },
        {
          "name": "C#7",
          "midi": 97,
          "time": 111.10465116277777,
          "velocity": 0.14960629921259844,
          "duration": 0.04651162790696617
        },
        {
          "name": "G6",
          "midi": 91,
          "time": 111.11627906975451,
          "velocity": 0.14960629921259844,
          "duration": 0.10465116279067388
        },
        {
          "name": "G4",
          "midi": 67,
          "time": 111.12790697673125,
          "velocity": 0.4015748031496063,
          "duration": 0.2209302325580893
        },
        {
          "name": "E3",
          "midi": 52,
          "time": 111.139534883708,
          "velocity": 0.4566929133858268,
          "duration": 0.023255813953483084
        },
        {
          "name": "B3",
          "midi": 59,
          "time": 111.139534883708,
          "velocity": 0.33070866141732286,
          "duration": 0.04651162790696617
        },
        {
          "name": "D#7",
          "midi": 99,
          "time": 111.139534883708,
          "velocity": 0.14173228346456693,
          "duration": 0.034883720930224626
        },
        {
          "name": "E3",
          "midi": 52,
          "time": 111.17441860463822,
          "velocity": 0.5511811023622047,
          "duration": 0.034883720930224626
        },
        {
          "name": "F#5",
          "midi": 78,
          "time": 111.18604651161496,
          "velocity": 0.3228346456692913,
          "duration": 0.06976744186044925
        },
        {
          "name": "F3",
          "midi": 53,
          "time": 111.20930232556844,
          "velocity": 0.5354330708661418,
          "duration": 0.011627906976741542
        },
        {
          "name": "E3",
          "midi": 52,
          "time": 111.22093023254519,
          "velocity": 0.5275590551181102,
          "duration": 0.023255813953483084
        },
        {
          "name": "B3",
          "midi": 59,
          "time": 111.23255813952193,
          "velocity": 0.30708661417322836,
          "duration": 0.04651162790696617
        },
        {
          "name": "F3",
          "midi": 53,
          "time": 111.24418604649867,
          "velocity": 0.5275590551181102,
          "duration": 0.011627906976741542
        },
        {
          "name": "G6",
          "midi": 91,
          "time": 111.24418604649867,
          "velocity": 0.09448818897637795,
          "duration": 0.034883720930224626
        },
        {
          "name": "E2",
          "midi": 40,
          "time": 111.25581395347541,
          "velocity": 0.5433070866141733,
          "duration": 0.04651162790696617
        },
        {
          "name": "D7",
          "midi": 98,
          "time": 111.25581395347541,
          "velocity": 0.2125984251968504,
          "duration": 0.279069767441797
        },
        {
          "name": "D6",
          "midi": 86,
          "time": 111.26744186045215,
          "velocity": 0.09448818897637795,
          "duration": 0.034883720930224626
        },
        {
          "name": "F7",
          "midi": 101,
          "time": 111.29069767440564,
          "velocity": 0.09448818897637795,
          "duration": 0.034883720930224626
        },
        {
          "name": "G7",
          "midi": 103,
          "time": 111.29069767440564,
          "velocity": 0.12598425196850394,
          "duration": 0.034883720930224626
        },
        {
          "name": "F2",
          "midi": 41,
          "time": 111.30232558138238,
          "velocity": 0.5354330708661418,
          "duration": 0.023255813953483084
        },
        {
          "name": "F#5",
          "midi": 78,
          "time": 111.30232558138238,
          "velocity": 0.1889763779527559,
          "duration": 0.04651162790696617
        },
        {
          "name": "A5",
          "midi": 81,
          "time": 111.31395348835912,
          "velocity": 0.2677165354330709,
          "duration": 0.2558139534883139
        },
        {
          "name": "B6",
          "midi": 95,
          "time": 111.31395348835912,
          "velocity": 0.33070866141732286,
          "duration": 0.6976744186044925
        },
        {
          "name": "E4",
          "midi": 64,
          "time": 111.32558139533586,
          "velocity": 0.30708661417322836,
          "duration": 0.034883720930224626
        },
        {
          "name": "D6",
          "midi": 86,
          "time": 111.32558139533586,
          "velocity": 0.12598425196850394,
          "duration": 0.04651162790696617
        },
        {
          "name": "F#6",
          "midi": 90,
          "time": 111.32558139533586,
          "velocity": 0.33858267716535434,
          "duration": 0.6511627906975264
        },
        {
          "name": "C#7",
          "midi": 97,
          "time": 111.32558139533586,
          "velocity": 0.23622047244094488,
          "duration": 0.3255813953487632
        },
        {
          "name": "G#2",
          "midi": 44,
          "time": 111.3372093023126,
          "velocity": 0.5196850393700787,
          "duration": 0.034883720930224626
        },
        {
          "name": "F#3",
          "midi": 54,
          "time": 111.3372093023126,
          "velocity": 0.3543307086614173,
          "duration": 0.034883720930224626
        },
        {
          "name": "D#7",
          "midi": 99,
          "time": 111.3372093023126,
          "velocity": 0.25984251968503935,
          "duration": 0.26744186046505547
        },
        {
          "name": "D5",
          "midi": 74,
          "time": 111.34883720928934,
          "velocity": 0.12598425196850394,
          "duration": 0.17441860465112313
        },
        {
          "name": "B3",
          "midi": 59,
          "time": 111.36046511626608,
          "velocity": 0.2440944881889764,
          "duration": 0.023255813953483084
        },
        {
          "name": "D#6",
          "midi": 87,
          "time": 111.36046511626608,
          "velocity": 0.13385826771653545,
          "duration": 0.06976744186044925
        },
        {
          "name": "G7",
          "midi": 103,
          "time": 111.36046511626608,
          "velocity": 0.10236220472440945,
          "duration": 0.06976744186044925
        },
        {
          "name": "F3",
          "midi": 53,
          "time": 111.37209302324283,
          "velocity": 0.3937007874015748,
          "duration": 0.023255813953483084
        },
        {
          "name": "G#4",
          "midi": 68,
          "time": 111.37209302324283,
          "velocity": 0.1889763779527559,
          "duration": 0.05813953488370771
        },
        {
          "name": "F7",
          "midi": 101,
          "time": 111.37209302324283,
          "velocity": 0.14960629921259844,
          "duration": 0.1627906976743816
        },
        {
          "name": "F#5",
          "midi": 78,
          "time": 111.39534883719631,
          "velocity": 0.33070866141732286,
          "duration": 0.17441860465112313
        },
        {
          "name": "B5",
          "midi": 83,
          "time": 111.39534883719631,
          "velocity": 0.08661417322834646,
          "duration": 0.1395348837208985
        },
        {
          "name": "B3",
          "midi": 59,
          "time": 111.41860465114979,
          "velocity": 0.25196850393700787,
          "duration": 0.034883720930224626
        },
        {
          "name": "G6",
          "midi": 91,
          "time": 111.41860465114979,
          "velocity": 0.15748031496062992,
          "duration": 0.19767441860460622
        },
        {
          "name": "G4",
          "midi": 67,
          "time": 111.43023255812653,
          "velocity": 0.4881889763779528,
          "duration": 0.3372093023255047
        },
        {
          "name": "B4",
          "midi": 71,
          "time": 111.43023255812653,
          "velocity": 0.2755905511811024,
          "duration": 0.2558139534883139
        },
        {
          "name": "F3",
          "midi": 53,
          "time": 111.44186046510328,
          "velocity": 0.3858267716535433,
          "duration": 0.023255813953483084
        },
        {
          "name": "F2",
          "midi": 41,
          "time": 111.45348837208002,
          "velocity": 0.49606299212598426,
          "duration": 0.04651162790696617
        },
        {
          "name": "B3",
          "midi": 59,
          "time": 111.46511627905676,
          "velocity": 0.16535433070866143,
          "duration": 0.034883720930224626
        },
        {
          "name": "E3",
          "midi": 52,
          "time": 111.48837209301024,
          "velocity": 0.2677165354330709,
          "duration": 0.023255813953483084
        },
        {
          "name": "D#6",
          "midi": 87,
          "time": 111.48837209301024,
          "velocity": 0.11023622047244094,
          "duration": 0.04651162790696617
        },
        {
          "name": "E2",
          "midi": 40,
          "time": 111.49999999998698,
          "velocity": 0.3937007874015748,
          "duration": 0.023255813953483084
        },
        {
          "name": "D3",
          "midi": 50,
          "time": 111.51162790696372,
          "velocity": 0.3543307086614173,
          "duration": 0.023255813953483084
        },
        {
          "name": "G3",
          "midi": 55,
          "time": 111.51162790696372,
          "velocity": 0.3464566929133858,
          "duration": 0.023255813953483084
        },
        {
          "name": "E7",
          "midi": 100,
          "time": 111.52325581394047,
          "velocity": 0.2992125984251969,
          "duration": 0.8488372093021326
        },
        {
          "name": "G#2",
          "midi": 44,
          "time": 111.53488372091721,
          "velocity": 0.5433070866141733,
          "duration": 0.011627906976741542
        },
        {
          "name": "E4",
          "midi": 64,
          "time": 111.53488372091721,
          "velocity": 0.33070866141732286,
          "duration": 0.034883720930224626
        },
        {
          "name": "C5",
          "midi": 72,
          "time": 111.53488372091721,
          "velocity": 0.23622047244094488,
          "duration": 0.034883720930224626
        },
        {
          "name": "E5",
          "midi": 76,
          "time": 111.53488372091721,
          "velocity": 0.3937007874015748,
          "duration": 0.06976744186044925
        },
        {
          "name": "D3",
          "midi": 50,
          "time": 111.54651162789395,
          "velocity": 0.6062992125984252,
          "duration": 0.011627906976741542
        },
        {
          "name": "D7",
          "midi": 98,
          "time": 111.54651162789395,
          "velocity": 0.15748031496062992,
          "duration": 0.06976744186044925
        },
        {
          "name": "E3",
          "midi": 52,
          "time": 111.55813953487069,
          "velocity": 0.6299212598425197,
          "duration": 0.10465116279067388
        },
        {
          "name": "B3",
          "midi": 59,
          "time": 111.55813953487069,
          "velocity": 0.44881889763779526,
          "duration": 0.1395348837208985
        },
        {
          "name": "A#6",
          "midi": 94,
          "time": 111.56976744184743,
          "velocity": 0.2283464566929134,
          "duration": 0.034883720930224626
        },
        {
          "name": "C7",
          "midi": 96,
          "time": 111.56976744184743,
          "velocity": 0.09448818897637795,
          "duration": 0.04651162790696617
        },
        {
          "name": "F#5",
          "midi": 78,
          "time": 111.58139534882417,
          "velocity": 0.30708661417322836,
          "duration": 0.10465116279067388
        },
        {
          "name": "F2",
          "midi": 41,
          "time": 111.59302325580092,
          "velocity": 0.5275590551181102,
          "duration": 0.011627906976741542
        },
        {
          "name": "E2",
          "midi": 40,
          "time": 111.60465116277766,
          "velocity": 0.5748031496062992,
          "duration": 0.034883720930224626
        },
        {
          "name": "A5",
          "midi": 81,
          "time": 111.60465116277766,
          "velocity": 0.08661417322834646,
          "duration": 0.034883720930224626
        },
        {
          "name": "E5",
          "midi": 76,
          "time": 111.6162790697544,
          "velocity": 0.4094488188976378,
          "duration": 0.3604651162789878
        },
        {
          "name": "D#7",
          "midi": 99,
          "time": 111.62790697673114,
          "velocity": 0.15748031496062992,
          "duration": 0.034883720930224626
        },
        {
          "name": "C#6",
          "midi": 85,
          "time": 111.66279069766136,
          "velocity": 0.07874015748031496,
          "duration": 0.04651162790696617
        },
        {
          "name": "F3",
          "midi": 53,
          "time": 111.6744186046381,
          "velocity": 0.29133858267716534,
          "duration": 0.023255813953483084
        },
        {
          "name": "D#7",
          "midi": 99,
          "time": 111.68604651161485,
          "velocity": 0.13385826771653545,
          "duration": 0.04651162790696617
        },
        {
          "name": "E3",
          "midi": 52,
          "time": 111.69767441859159,
          "velocity": 0.30708661417322836,
          "duration": 0.034883720930224626
        },
        {
          "name": "C4",
          "midi": 60,
          "time": 111.72093023254507,
          "velocity": 0.4094488188976378,
          "duration": 0.023255813953483084
        },
        {
          "name": "D6",
          "midi": 86,
          "time": 111.73255813952181,
          "velocity": 0.2755905511811024,
          "duration": 0.023255813953483084
        },
        {
          "name": "F2",
          "midi": 41,
          "time": 111.74418604649856,
          "velocity": 0.5118110236220472,
          "duration": 0.011627906976741542
        },
        {
          "name": "F#5",
          "midi": 78,
          "time": 111.74418604649856,
          "velocity": 0.30708661417322836,
          "duration": 0.19767441860460622
        },
        {
          "name": "C#6",
          "midi": 85,
          "time": 111.74418604649856,
          "velocity": 0.2047244094488189,
          "duration": 0.05813953488370771
        },
        {
          "name": "A#6",
          "midi": 94,
          "time": 111.74418604649856,
          "velocity": 0.12598425196850394,
          "duration": 0.06976744186044925
        },
        {
          "name": "C#7",
          "midi": 97,
          "time": 111.74418604649856,
          "velocity": 0.2204724409448819,
          "duration": 0.1395348837208985
        },
        {
          "name": "D#7",
          "midi": 99,
          "time": 111.74418604649856,
          "velocity": 0.15748031496062992,
          "duration": 0.05813953488370771
        },
        {
          "name": "B2",
          "midi": 47,
          "time": 111.7558139534753,
          "velocity": 0.5748031496062992,
          "duration": 0.011627906976741542
        },
        {
          "name": "A#3",
          "midi": 58,
          "time": 111.7558139534753,
          "velocity": 0.4409448818897638,
          "duration": 0.023255813953483084
        },
        {
          "name": "D3",
          "midi": 50,
          "time": 111.76744186045204,
          "velocity": 0.5354330708661418,
          "duration": 0.011627906976741542
        },
        {
          "name": "G#4",
          "midi": 68,
          "time": 111.76744186045204,
          "velocity": 0.2283464566929134,
          "duration": 0.05813953488370771
        },
        {
          "name": "B4",
          "midi": 71,
          "time": 111.76744186045204,
          "velocity": 0.3464566929133858,
          "duration": 0.18604651162786467
        },
        {
          "name": "E3",
          "midi": 52,
          "time": 111.77906976742878,
          "velocity": 0.5748031496062992,
          "duration": 0.12790697674415696
        },
        {
          "name": "F4",
          "midi": 65,
          "time": 111.77906976742878,
          "velocity": 0.25984251968503935,
          "duration": 0.0813953488371908
        },
        {
          "name": "G7",
          "midi": 103,
          "time": 111.79069767440552,
          "velocity": 0.09448818897637795,
          "duration": 0.034883720930224626
        },
        {
          "name": "F2",
          "midi": 41,
          "time": 111.80232558138226,
          "velocity": 0.4881889763779528,
          "duration": 0.034883720930224626
        },
        {
          "name": "C4",
          "midi": 60,
          "time": 111.813953488359,
          "velocity": 0.4094488188976378,
          "duration": 0.023255813953483084
        },
        {
          "name": "B3",
          "midi": 59,
          "time": 111.83720930231249,
          "velocity": 0.3858267716535433,
          "duration": 0.023255813953483084
        },
        {
          "name": "G4",
          "midi": 67,
          "time": 111.83720930231249,
          "velocity": 0.2204724409448819,
          "duration": 0.034883720930224626
        },
        {
          "name": "A#6",
          "midi": 94,
          "time": 111.83720930231249,
          "velocity": 0.13385826771653545,
          "duration": 0.04651162790696617
        },
        {
          "name": "B2",
          "midi": 47,
          "time": 111.86046511626597,
          "velocity": 0.5196850393700787,
          "duration": 0.011627906976741542
        },
        {
          "name": "G4",
          "midi": 67,
          "time": 111.88372093021945,
          "velocity": 0.2677165354330709,
          "duration": 0.023255813953483084
        },
        {
          "name": "C3",
          "midi": 48,
          "time": 111.90697674417294,
          "velocity": 0.5511811023622047,
          "duration": 0.034883720930224626
        },
        {
          "name": "F3",
          "midi": 53,
          "time": 111.90697674417294,
          "velocity": 0.5511811023622047,
          "duration": 0.011627906976741542
        },
        {
          "name": "B3",
          "midi": 59,
          "time": 111.90697674417294,
          "velocity": 0.30708661417322836,
          "duration": 0.034883720930224626
        },
        {
          "name": "G4",
          "midi": 67,
          "time": 111.93023255812642,
          "velocity": 0.29133858267716534,
          "duration": 0.023255813953483084
        },
        {
          "name": "C#7",
          "midi": 97,
          "time": 111.93023255812642,
          "velocity": 0.3464566929133858,
          "duration": 0.3604651162789878
        },
        {
          "name": "B2",
          "midi": 47,
          "time": 111.94186046510316,
          "velocity": 0.5511811023622047,
          "duration": 0.011627906976741542
        },
        {
          "name": "C4",
          "midi": 60,
          "time": 111.94186046510316,
          "velocity": 0.28346456692913385,
          "duration": 0.023255813953483084
        },
        {
          "name": "A#2",
          "midi": 46,
          "time": 111.9534883720799,
          "velocity": 0.5669291338582677,
          "duration": 0.011627906976741542
        },
        {
          "name": "G#4",
          "midi": 68,
          "time": 111.9534883720799,
          "velocity": 0.28346456692913385,
          "duration": 0.023255813953483084
        },
        {
          "name": "C#6",
          "midi": 85,
          "time": 111.9534883720799,
          "velocity": 0.12598425196850394,
          "duration": 0.034883720930224626
        },
        {
          "name": "D7",
          "midi": 98,
          "time": 111.9534883720799,
          "velocity": 0.31496062992125984,
          "duration": 0.8837209302323572
        },
        {
          "name": "F2",
          "midi": 41,
          "time": 111.96511627905664,
          "velocity": 0.5433070866141733,
          "duration": 0.011627906976741542
        },
        {
          "name": "B2",
          "midi": 47,
          "time": 111.96511627905664,
          "velocity": 0.5118110236220472,
          "duration": 0.011627906976741542
        },
        {
          "name": "F#5",
          "midi": 78,
          "time": 111.96511627905664,
          "velocity": 0.5039370078740157,
          "duration": 0.24418604651157239
        },
        {
          "name": "D#7",
          "midi": 99,
          "time": 111.96511627905664,
          "velocity": 0.11023622047244094,
          "duration": 0.05813953488370771
        },
        {
          "name": "C2",
          "midi": 36,
          "time": 111.97674418603339,
          "velocity": 0.5669291338582677,
          "duration": 0.011627906976741542
        },
        {
          "name": "A#3",
          "midi": 58,
          "time": 111.97674418603339,
          "velocity": 0.28346456692913385,
          "duration": 0.034883720930224626
        },
        {
          "name": "D#4",
          "midi": 63,
          "time": 111.97674418603339,
          "velocity": 0.2125984251968504,
          "duration": 0.034883720930224626
        },
        {
          "name": "G4",
          "midi": 67,
          "time": 111.97674418603339,
          "velocity": 0.3937007874015748,
          "duration": 0.19767441860460622
        },
        {
          "name": "B4",
          "midi": 71,
          "time": 111.97674418603339,
          "velocity": 0.3464566929133858,
          "duration": 0.11627906976741542
        },
        {
          "name": "F6",
          "midi": 89,
          "time": 111.97674418603339,
          "velocity": 0.3228346456692913,
          "duration": 0.04651162790696617
        },
        {
          "name": "G#2",
          "midi": 44,
          "time": 111.98837209301013,
          "velocity": 0.5669291338582677,
          "duration": 0.011627906976741542
        },
        {
          "name": "F2",
          "midi": 41,
          "time": 111.99999999998687,
          "velocity": 0.5196850393700787,
          "duration": 0.011627906976741542
        },
        {
          "name": "D6",
          "midi": 86,
          "time": 111.99999999998687,
          "velocity": 0.14960629921259844,
          "duration": 0.17441860465112313
        },
        {
          "name": "D#6",
          "midi": 87,
          "time": 111.99999999998687,
          "velocity": 0.11023622047244094,
          "duration": 0.15116279069764005
        },
        {
          "name": "C7",
          "midi": 96,
          "time": 111.99999999998687,
          "velocity": 0.07874015748031496,
          "duration": 0.06976744186044925
        },
        {
          "name": "B3",
          "midi": 59,
          "time": 112.01162790696361,
          "velocity": 0.2440944881889764,
          "duration": 0.034883720930224626
        },
        {
          "name": "D5",
          "midi": 74,
          "time": 112.01162790696361,
          "velocity": 0.10236220472440945,
          "duration": 0.04651162790696617
        },
        {
          "name": "E5",
          "midi": 76,
          "time": 112.01162790696361,
          "velocity": 0.16535433070866143,
          "duration": 0.034883720930224626
        },
        {
          "name": "B2",
          "midi": 47,
          "time": 112.02325581394035,
          "velocity": 0.5590551181102362,
          "duration": 0.023255813953483084
        },
        {
          "name": "F2",
          "midi": 41,
          "time": 112.04651162789384,
          "velocity": 0.5511811023622047,
          "duration": 0.023255813953483084
        },
        {
          "name": "A#3",
          "midi": 58,
          "time": 112.04651162789384,
          "velocity": 0.2440944881889764,
          "duration": 0.023255813953483084
        },
        {
          "name": "A#6",
          "midi": 94,
          "time": 112.04651162789384,
          "velocity": 0.08661417322834646,
          "duration": 0.04651162790696617
        },
        {
          "name": "B3",
          "midi": 59,
          "time": 112.06976744184732,
          "velocity": 0.25196850393700787,
          "duration": 0.023255813953483084
        },
        {
          "name": "E4",
          "midi": 64,
          "time": 112.06976744184732,
          "velocity": 0.23622047244094488,
          "duration": 0.05813953488370771
        },
        {
          "name": "C#6",
          "midi": 85,
          "time": 112.06976744184732,
          "velocity": 0.12598425196850394,
          "duration": 0.04651162790696617
        },
        {
          "name": "B6",
          "midi": 95,
          "time": 112.08139534882406,
          "velocity": 0.07874015748031496,
          "duration": 0.04651162790696617
        },
        {
          "name": "F2",
          "midi": 41,
          "time": 112.0930232558008,
          "velocity": 0.5275590551181102,
          "duration": 0.034883720930224626
        },
        {
          "name": "G7",
          "midi": 103,
          "time": 112.10465116277754,
          "velocity": 0.08661417322834646,
          "duration": 0.05813953488370771
        },
        {
          "name": "E2",
          "midi": 40,
          "time": 112.12790697673103,
          "velocity": 0.4645669291338583,
          "duration": 0.023255813953483084
        },
        {
          "name": "C4",
          "midi": 60,
          "time": 112.16279069766125,
          "velocity": 0.2440944881889764,
          "duration": 0.023255813953483084
        },
        {
          "name": "A#4",
          "midi": 70,
          "time": 112.16279069766125,
          "velocity": 0.2992125984251969,
          "duration": 0.04651162790696617
        },
        {
          "name": "C#5",
          "midi": 73,
          "time": 112.16279069766125,
          "velocity": 0.25196850393700787,
          "duration": 0.034883720930224626
        },
        {
          "name": "F2",
          "midi": 41,
          "time": 112.17441860463799,
          "velocity": 0.5275590551181102,
          "duration": 0.034883720930224626
        },
        {
          "name": "E3",
          "midi": 52,
          "time": 112.17441860463799,
          "velocity": 0.5511811023622047,
          "duration": 0.034883720930224626
        },
        {
          "name": "F#4",
          "midi": 66,
          "time": 112.17441860463799,
          "velocity": 0.33858267716535434,
          "duration": 0.034883720930224626
        },
        {
          "name": "A4",
          "midi": 69,
          "time": 112.17441860463799,
          "velocity": 0.2992125984251969,
          "duration": 0.023255813953483084
        },
        {
          "name": "G6",
          "midi": 91,
          "time": 112.17441860463799,
          "velocity": 0.4645669291338583,
          "duration": 0.2558139534883139
        },
        {
          "name": "D#7",
          "midi": 99,
          "time": 112.17441860463799,
          "velocity": 0.2677165354330709,
          "duration": 0.48837209302314477
        },
        {
          "name": "B3",
          "midi": 59,
          "time": 112.18604651161473,
          "velocity": 0.2440944881889764,
          "duration": 0.023255813953483084
        },
        {
          "name": "G5",
          "midi": 79,
          "time": 112.18604651161473,
          "velocity": 0.4645669291338583,
          "duration": 0.23255813953483084
        },
        {
          "name": "C7",
          "midi": 96,
          "time": 112.18604651161473,
          "velocity": 0.18110236220472442,
          "duration": 0.034883720930224626
        },
        {
          "name": "B6",
          "midi": 95,
          "time": 112.19767441859148,
          "velocity": 0.2125984251968504,
          "duration": 0.20930232558134776
        },
        {
          "name": "F3",
          "midi": 53,
          "time": 112.20930232556822,
          "velocity": 0.4645669291338583,
          "duration": 0.04651162790696617
        },
        {
          "name": "G4",
          "midi": 67,
          "time": 112.20930232556822,
          "velocity": 0.3228346456692913,
          "duration": 0.06976744186044925
        },
        {
          "name": "B4",
          "midi": 71,
          "time": 112.20930232556822,
          "velocity": 0.23622047244094488,
          "duration": 0.023255813953483084
        },
        {
          "name": "C5",
          "midi": 72,
          "time": 112.20930232556822,
          "velocity": 0.18110236220472442,
          "duration": 0.04651162790696617
        },
        {
          "name": "F2",
          "midi": 41,
          "time": 112.2325581395217,
          "velocity": 0.47244094488188976,
          "duration": 0.023255813953483084
        },
        {
          "name": "D4",
          "midi": 62,
          "time": 112.24418604649844,
          "velocity": 0.2204724409448819,
          "duration": 0.04651162790696617
        },
        {
          "name": "G#6",
          "midi": 92,
          "time": 112.25581395347518,
          "velocity": 0.13385826771653545,
          "duration": 0.06976744186044925
        },
        {
          "name": "C#2",
          "midi": 37,
          "time": 112.26744186045192,
          "velocity": 0.25984251968503935,
          "duration": 0.023255813953483084
        },
        {
          "name": "D6",
          "midi": 86,
          "time": 112.26744186045192,
          "velocity": 0.11811023622047244,
          "duration": 0.0813953488371908
        },
        {
          "name": "F3",
          "midi": 53,
          "time": 112.27906976742867,
          "velocity": 0.28346456692913385,
          "duration": 0.023255813953483084
        },
        {
          "name": "B4",
          "midi": 71,
          "time": 112.27906976742867,
          "velocity": 0.2283464566929134,
          "duration": 0.034883720930224626
        },
        {
          "name": "F#5",
          "midi": 78,
          "time": 112.29069767440541,
          "velocity": 0.2283464566929134,
          "duration": 0.023255813953483084
        },
        {
          "name": "D5",
          "midi": 74,
          "time": 112.30232558138215,
          "velocity": 0.14173228346456693,
          "duration": 0.04651162790696617
        },
        {
          "name": "C#7",
          "midi": 97,
          "time": 112.30232558138215,
          "velocity": 0.2440944881889764,
          "duration": 0.37209302325572935
        },
        {
          "name": "D4",
          "midi": 62,
          "time": 112.31395348835889,
          "velocity": 0.25984251968503935,
          "duration": 0.06976744186044925
        },
        {
          "name": "E3",
          "midi": 52,
          "time": 112.32558139533563,
          "velocity": 0.3858267716535433,
          "duration": 0.0813953488371908
        },
        {
          "name": "B4",
          "midi": 71,
          "time": 112.32558139533563,
          "velocity": 0.2047244094488189,
          "duration": 0.05813953488370771
        },
        {
          "name": "A5",
          "midi": 81,
          "time": 112.32558139533563,
          "velocity": 0.10236220472440945,
          "duration": 0.06976744186044925
        },
        {
          "name": "E2",
          "midi": 40,
          "time": 112.33720930231237,
          "velocity": 0.3464566929133858,
          "duration": 0.023255813953483084
        },
        {
          "name": "F#2",
          "midi": 42,
          "time": 112.36046511626586,
          "velocity": 0.3700787401574803,
          "duration": 0.034883720930224626
        },
        {
          "name": "A#6",
          "midi": 94,
          "time": 112.36046511626586,
          "velocity": 0.11023622047244094,
          "duration": 0.05813953488370771
        },
        {
          "name": "A4",
          "midi": 69,
          "time": 112.38372093021934,
          "velocity": 0.31496062992125984,
          "duration": 0.06976744186044925
        },
        {
          "name": "D5",
          "midi": 74,
          "time": 112.38372093021934,
          "velocity": 0.2047244094488189,
          "duration": 0.034883720930224626
        },
        {
          "name": "E6",
          "midi": 88,
          "time": 112.38372093021934,
          "velocity": 0.16535433070866143,
          "duration": 0.06976744186044925
        },
        {
          "name": "A6",
          "midi": 93,
          "time": 112.39534883719608,
          "velocity": 0.4409448818897638,
          "duration": 0.3255813953487632
        },
        {
          "name": "E7",
          "midi": 100,
          "time": 112.39534883719608,
          "velocity": 0.31496062992125984,
          "duration": 0.23255813953483084
        },
        {
          "name": "F3",
          "midi": 53,
          "time": 112.40697674417282,
          "velocity": 0.33070866141732286,
          "duration": 0.023255813953483084
        },
        {
          "name": "F#4",
          "midi": 66,
          "time": 112.40697674417282,
          "velocity": 0.31496062992125984,
          "duration": 0.20930232558134776
        },
        {
          "name": "B4",
          "midi": 71,
          "time": 112.40697674417282,
          "velocity": 0.1889763779527559,
          "duration": 0.12790697674415696
        },
        {
          "name": "F#5",
          "midi": 78,
          "time": 112.40697674417282,
          "velocity": 0.3700787401574803,
          "duration": 0.4651162790696617
        },
        {
          "name": "A5",
          "midi": 81,
          "time": 112.40697674417282,
          "velocity": 0.3464566929133858,
          "duration": 0.05813953488370771
        },
        {
          "name": "F1",
          "midi": 29,
          "time": 112.41860465114956,
          "velocity": 0.28346456692913385,
          "duration": 0.023255813953483084
        },
        {
          "name": "G2",
          "midi": 43,
          "time": 112.41860465114956,
          "velocity": 0.4566929133858268,
          "duration": 0.023255813953483084
        },
        {
          "name": "D4",
          "midi": 62,
          "time": 112.41860465114956,
          "velocity": 0.2755905511811024,
          "duration": 0.18604651162786467
        },
        {
          "name": "C7",
          "midi": 96,
          "time": 112.41860465114956,
          "velocity": 0.16535433070866143,
          "duration": 0.06976744186044925
        },
        {
          "name": "G7",
          "midi": 103,
          "time": 112.44186046510305,
          "velocity": 0.15748031496062992,
          "duration": 0.034883720930224626
        },
        {
          "name": "F2",
          "midi": 41,
          "time": 112.46511627905653,
          "velocity": 0.3700787401574803,
          "duration": 0.05813953488370771
        },
        {
          "name": "D3",
          "midi": 50,
          "time": 112.46511627905653,
          "velocity": 0.49606299212598426,
          "duration": 0.1395348837208985
        },
        {
          "name": "A3",
          "midi": 57,
          "time": 112.46511627905653,
          "velocity": 0.16535433070866143,
          "duration": 0.034883720930224626
        },
        {
          "name": "A4",
          "midi": 69,
          "time": 112.46511627905653,
          "velocity": 0.28346456692913385,
          "duration": 0.15116279069764005
        },
        {
          "name": "G6",
          "midi": 91,
          "time": 112.46511627905653,
          "velocity": 0.1968503937007874,
          "duration": 0.3604651162789878
        },
        {
          "name": "A5",
          "midi": 81,
          "time": 112.47674418603327,
          "velocity": 0.3937007874015748,
          "duration": 0.2558139534883139
        },
        {
          "name": "E6",
          "midi": 88,
          "time": 112.47674418603327,
          "velocity": 0.13385826771653545,
          "duration": 0.0813953488371908
        },
        {
          "name": "A3",
          "midi": 57,
          "time": 112.5116279069635,
          "velocity": 0.2440944881889764,
          "duration": 0.0813953488371908
        },
        {
          "name": "C7",
          "midi": 96,
          "time": 112.5116279069635,
          "velocity": 0.11811023622047244,
          "duration": 0.04651162790696617
        },
        {
          "name": "F7",
          "midi": 101,
          "time": 112.52325581394024,
          "velocity": 0.11023622047244094,
          "duration": 0.04651162790696617
        },
        {
          "name": "G5",
          "midi": 79,
          "time": 112.54651162789372,
          "velocity": 0.14960629921259844,
          "duration": 0.04651162790696617
        },
        {
          "name": "A2",
          "midi": 45,
          "time": 112.60465116277743,
          "velocity": 0.5826771653543307,
          "duration": 0.04651162790696617
        },
        {
          "name": "A#3",
          "midi": 58,
          "time": 112.60465116277743,
          "velocity": 0.2992125984251969,
          "duration": 0.023255813953483084
        },
        {
          "name": "G#4",
          "midi": 68,
          "time": 112.60465116277743,
          "velocity": 0.25984251968503935,
          "duration": 0.034883720930224626
        },
        {
          "name": "B5",
          "midi": 83,
          "time": 112.60465116277743,
          "velocity": 0.3700787401574803,
          "duration": 0.29069767441853855
        },
        {
          "name": "C#6",
          "midi": 85,
          "time": 112.60465116277743,
          "velocity": 0.15748031496062992,
          "duration": 0.034883720930224626
        },
        {
          "name": "B6",
          "midi": 95,
          "time": 112.60465116277743,
          "velocity": 0.4645669291338583,
          "duration": 1.8023255813949817
        },
        {
          "name": "A#1",
          "midi": 34,
          "time": 112.61627906975417,
          "velocity": 0.5511811023622047,
          "duration": 0.011627906976741542
        },
        {
          "name": "E4",
          "midi": 64,
          "time": 112.61627906975417,
          "velocity": 0.28346456692913385,
          "duration": 0.023255813953483084
        },
        {
          "name": "C5",
          "midi": 72,
          "time": 112.61627906975417,
          "velocity": 0.25984251968503935,
          "duration": 0.3023255813952801
        },
        {
          "name": "E6",
          "midi": 88,
          "time": 112.61627906975417,
          "velocity": 0.12598425196850394,
          "duration": 0.09302325581393234
        },
        {
          "name": "F#7",
          "midi": 102,
          "time": 112.61627906975417,
          "velocity": 0.1889763779527559,
          "duration": 0.5348837209301252
        },
        {
          "name": "D#3",
          "midi": 51,
          "time": 112.62790697673091,
          "velocity": 0.5118110236220472,
          "duration": 0.011627906976741542
        },
        {
          "name": "G4",
          "midi": 67,
          "time": 112.62790697673091,
          "velocity": 0.2677165354330709,
          "duration": 0.034883720930224626
        },
        {
          "name": "D5",
          "midi": 74,
          "time": 112.62790697673091,
          "velocity": 0.12598425196850394,
          "duration": 0.034883720930224626
        },
        {
          "name": "C#4",
          "midi": 61,
          "time": 112.63953488370765,
          "velocity": 0.3464566929133858,
          "duration": 0.023255813953483084
        },
        {
          "name": "G#6",
          "midi": 92,
          "time": 112.63953488370765,
          "velocity": 0.15748031496062992,
          "duration": 0.12790697674415696
        },
        {
          "name": "E7",
          "midi": 100,
          "time": 112.63953488370765,
          "velocity": 0.14960629921259844,
          "duration": 0.0813953488371908
        },
        {
          "name": "C3",
          "midi": 48,
          "time": 112.6511627906844,
          "velocity": 0.5748031496062992,
          "duration": 0.034883720930224626
        },
        {
          "name": "C7",
          "midi": 96,
          "time": 112.6511627906844,
          "velocity": 0.07874015748031496,
          "duration": 0.04651162790696617
        },
        {
          "name": "E4",
          "midi": 64,
          "time": 112.66279069766114,
          "velocity": 0.2992125984251969,
          "duration": 0.0813953488371908
        },
        {
          "name": "F2",
          "midi": 41,
          "time": 112.68604651161462,
          "velocity": 0.49606299212598426,
          "duration": 0.034883720930224626
        },
        {
          "name": "C#3",
          "midi": 49,
          "time": 112.68604651161462,
          "velocity": 0.5669291338582677,
          "duration": 0.011627906976741542
        },
        {
          "name": "G3",
          "midi": 55,
          "time": 112.68604651161462,
          "velocity": 0.44881889763779526,
          "duration": 0.06976744186044925
        },
        {
          "name": "C3",
          "midi": 48,
          "time": 112.69767441859136,
          "velocity": 0.5511811023622047,
          "duration": 0.011627906976741542
        },
        {
          "name": "C#3",
          "midi": 49,
          "time": 112.7093023255681,
          "velocity": 0.5590551181102362,
          "duration": 0.011627906976741542
        },
        {
          "name": "C4",
          "midi": 60,
          "time": 112.7093023255681,
          "velocity": 0.4015748031496063,
          "duration": 0.1627906976743816
        },
        {
          "name": "C3",
          "midi": 48,
          "time": 112.72093023254484,
          "velocity": 0.5511811023622047,
          "duration": 0.023255813953483084
        },
        {
          "name": "A#4",
          "midi": 70,
          "time": 112.75581395347507,
          "velocity": 0.07874015748031496,
          "duration": 0.034883720930224626
        },
        {
          "name": "A6",
          "midi": 93,
          "time": 112.75581395347507,
          "velocity": 0.23622047244094488,
          "duration": 0.23255813953484505
        },
        {
          "name": "A5",
          "midi": 81,
          "time": 112.76744186045181,
          "velocity": 0.14173228346456693,
          "duration": 0.0813953488371908
        },
        {
          "name": "E4",
          "midi": 64,
          "time": 112.80232558138204,
          "velocity": 0.33070866141732286,
          "duration": 0.06976744186044925
        },
        {
          "name": "E7",
          "midi": 100,
          "time": 112.80232558138204,
          "velocity": 0.15748031496062992,
          "duration": 0.0813953488371908
        },
        {
          "name": "A2",
          "midi": 45,
          "time": 112.81395348835878,
          "velocity": 0.5905511811023622,
          "duration": 0.04651162790696617
        },
        {
          "name": "C#7",
          "midi": 97,
          "time": 112.81395348835878,
          "velocity": 0.16535433070866143,
          "duration": 0.09302325581393234
        },
        {
          "name": "D#7",
          "midi": 99,
          "time": 112.81395348835878,
          "velocity": 0.13385826771653545,
          "duration": 0.09302325581393234
        },
        {
          "name": "G4",
          "midi": 67,
          "time": 112.82558139533552,
          "velocity": 0.4251968503937008,
          "duration": 0.06976744186044925
        },
        {
          "name": "D5",
          "midi": 74,
          "time": 112.82558139533552,
          "velocity": 0.4330708661417323,
          "duration": 0.360465116279002
        },
        {
          "name": "D7",
          "midi": 98,
          "time": 112.848837209289,
          "velocity": 0.12598425196850394,
          "duration": 0.1627906976743958
        },
        {
          "name": "B2",
          "midi": 47,
          "time": 112.86046511626574,
          "velocity": 0.5905511811023622,
          "duration": 0.023255813953483084
        },
        {
          "name": "A3",
          "midi": 57,
          "time": 112.86046511626574,
          "velocity": 0.30708661417322836,
          "duration": 0.023255813953483084
        },
        {
          "name": "G#6",
          "midi": 92,
          "time": 112.86046511626574,
          "velocity": 0.14173228346456693,
          "duration": 0.12790697674417117
        },
        {
          "name": "C3",
          "midi": 48,
          "time": 112.88372093021923,
          "velocity": 0.5748031496062992,
          "duration": 0.011627906976741542
        },
        {
          "name": "E4",
          "midi": 64,
          "time": 112.88372093021923,
          "velocity": 0.28346456692913385,
          "duration": 0.13953488372091272
        },
        {
          "name": "C#3",
          "midi": 49,
          "time": 112.89534883719597,
          "velocity": 0.5748031496062992,
          "duration": 0.011627906976741542
        },
        {
          "name": "G3",
          "midi": 55,
          "time": 112.89534883719597,
          "velocity": 0.4881889763779528,
          "duration": 0.13953488372091272
        },
        {
          "name": "E7",
          "midi": 100,
          "time": 112.89534883719597,
          "velocity": 0.09448818897637795,
          "duration": 0.04651162790696617
        },
        {
          "name": "C3",
          "midi": 48,
          "time": 112.90697674417271,
          "velocity": 0.5748031496062992,
          "duration": 0.023255813953483084
        },
        {
          "name": "F#5",
          "midi": 78,
          "time": 112.90697674417271,
          "velocity": 0.1968503937007874,
          "duration": 0.3023255813952943
        },
        {
          "name": "B5",
          "midi": 83,
          "time": 112.91860465114945,
          "velocity": 0.2125984251968504,
          "duration": 0.2441860465115866
        },
        {
          "name": "C#3",
          "midi": 49,
          "time": 112.93023255812619,
          "velocity": 0.5905511811023622,
          "duration": 0.011627906976741542
        },
        {
          "name": "C3",
          "midi": 48,
          "time": 112.94186046510293,
          "velocity": 0.5748031496062992,
          "duration": 0.05813953488372192
        },
        {
          "name": "B2",
          "midi": 47,
          "time": 112.99999999998666,
          "velocity": 0.49606299212598426,
          "duration": 0.023255813953483084
        },
        {
          "name": "G6",
          "midi": 91,
          "time": 112.99999999998666,
          "velocity": 0.16535433070866143,
          "duration": 0.05813953488370771
        },
        {
          "name": "E6",
          "midi": 88,
          "time": 113.02325581394014,
          "velocity": 0.14960629921259844,
          "duration": 0.06976744186044925
        },
        {
          "name": "F#6",
          "midi": 90,
          "time": 113.02325581394014,
          "velocity": 0.2125984251968504,
          "duration": 0.06976744186044925
        },
        {
          "name": "A#3",
          "midi": 58,
          "time": 113.03488372091688,
          "velocity": 0.41732283464566927,
          "duration": 0.023255813953483084
        },
        {
          "name": "F#4",
          "midi": 66,
          "time": 113.03488372091688,
          "velocity": 0.3858267716535433,
          "duration": 0.023255813953483084
        },
        {
          "name": "A5",
          "midi": 81,
          "time": 113.03488372091688,
          "velocity": 0.28346456692913385,
          "duration": 0.37209302325574356
        },
        {
          "name": "C#6",
          "midi": 85,
          "time": 113.03488372091688,
          "velocity": 0.15748031496062992,
          "duration": 0.05813953488370771
        },
        {
          "name": "G#6",
          "midi": 92,
          "time": 113.03488372091688,
          "velocity": 0.12598425196850394,
          "duration": 0.034883720930224626
        },
        {
          "name": "A#6",
          "midi": 94,
          "time": 113.03488372091688,
          "velocity": 0.14173228346456693,
          "duration": 0.034883720930224626
        },
        {
          "name": "C7",
          "midi": 96,
          "time": 113.03488372091688,
          "velocity": 0.15748031496062992,
          "duration": 0.034883720930224626
        },
        {
          "name": "C#7",
          "midi": 97,
          "time": 113.04651162789362,
          "velocity": 0.2283464566929134,
          "duration": 0.26744186046505547
        },
        {
          "name": "D#7",
          "midi": 99,
          "time": 113.05813953487036,
          "velocity": 0.10236220472440945,
          "duration": 0.09302325581393234
        },
        {
          "name": "G#3",
          "midi": 56,
          "time": 113.0697674418471,
          "velocity": 0.31496062992125984,
          "duration": 0.023255813953483084
        },
        {
          "name": "D#4",
          "midi": 63,
          "time": 113.0697674418471,
          "velocity": 0.25984251968503935,
          "duration": 0.023255813953483084
        },
        {
          "name": "G4",
          "midi": 67,
          "time": 113.0697674418471,
          "velocity": 0.3228346456692913,
          "duration": 0.17441860465112313
        },
        {
          "name": "E5",
          "midi": 76,
          "time": 113.0697674418471,
          "velocity": 0.31496062992125984,
          "duration": 0.17441860465112313
        },
        {
          "name": "D#6",
          "midi": 87,
          "time": 113.0697674418471,
          "velocity": 0.07874015748031496,
          "duration": 0.04651162790696617
        },
        {
          "name": "D4",
          "midi": 62,
          "time": 113.08139534882385,
          "velocity": 0.2283464566929134,
          "duration": 0.023255813953483084
        },
        {
          "name": "A#4",
          "midi": 70,
          "time": 113.08139534882385,
          "velocity": 0.2440944881889764,
          "duration": 0.18604651162786467
        },
        {
          "name": "E2",
          "midi": 40,
          "time": 113.09302325580059,
          "velocity": 0.3858267716535433,
          "duration": 0.034883720930224626
        },
        {
          "name": "C#3",
          "midi": 49,
          "time": 113.09302325580059,
          "velocity": 0.4330708661417323,
          "duration": 0.023255813953483084
        },
        {
          "name": "C5",
          "midi": 72,
          "time": 113.10465116277733,
          "velocity": 0.1732283464566929,
          "duration": 0.06976744186044925
        },
        {
          "name": "C7",
          "midi": 96,
          "time": 113.10465116277733,
          "velocity": 0.14960629921259844,
          "duration": 0.04651162790696617
        },
        {
          "name": "G7",
          "midi": 103,
          "time": 113.10465116277733,
          "velocity": 0.10236220472440945,
          "duration": 0.06976744186044925
        },
        {
          "name": "C3",
          "midi": 48,
          "time": 113.11627906975407,
          "velocity": 0.4015748031496063,
          "duration": 0.023255813953483084
        },
        {
          "name": "B3",
          "midi": 59,
          "time": 113.11627906975407,
          "velocity": 0.23622047244094488,
          "duration": 0.023255813953483084
        },
        {
          "name": "G#3",
          "midi": 56,
          "time": 113.12790697673081,
          "velocity": 0.29133858267716534,
          "duration": 0.023255813953483084
        },
        {
          "name": "D7",
          "midi": 98,
          "time": 113.12790697673081,
          "velocity": 0.14173228346456693,
          "duration": 0.0813953488371908
        },
        {
          "name": "C#3",
          "midi": 49,
          "time": 113.13953488370755,
          "velocity": 0.4251968503937008,
          "duration": 0.023255813953483084
        },
        {
          "name": "F7",
          "midi": 101,
          "time": 113.13953488370755,
          "velocity": 0.11023622047244094,
          "duration": 0.034883720930224626
        },
        {
          "name": "G3",
          "midi": 55,
          "time": 113.1511627906843,
          "velocity": 0.3543307086614173,
          "duration": 0.09302325581393234
        },
        {
          "name": "C#2",
          "midi": 37,
          "time": 113.16279069766104,
          "velocity": 0.2755905511811024,
          "duration": 0.023255813953483084
        },
        {
          "name": "C3",
          "midi": 48,
          "time": 113.16279069766104,
          "velocity": 0.4251968503937008,
          "duration": 0.06976744186044925
        },
        {
          "name": "G6",
          "midi": 91,
          "time": 113.16279069766104,
          "velocity": 0.11811023622047244,
          "duration": 0.11627906976741542
        },
        {
          "name": "E4",
          "midi": 64,
          "time": 113.17441860463778,
          "velocity": 0.2283464566929134,
          "duration": 0.06976744186044925
        },
        {
          "name": "F#7",
          "midi": 102,
          "time": 113.17441860463778,
          "velocity": 0.15748031496062992,
          "duration": 0.04651162790696617
        },
        {
          "name": "C7",
          "midi": 96,
          "time": 113.18604651161452,
          "velocity": 0.14173228346456693,
          "duration": 0.15116279069764005
        },
        {
          "name": "C#3",
          "midi": 49,
          "time": 113.23255813952149,
          "velocity": 0.41732283464566927,
          "duration": 0.023255813953483084
        },
        {
          "name": "D#5",
          "midi": 75,
          "time": 113.23255813952149,
          "velocity": 0.2283464566929134,
          "duration": 0.023255813953483084
        },
        {
          "name": "D7",
          "midi": 98,
          "time": 113.23255813952149,
          "velocity": 0.1732283464566929,
          "duration": 0.11627906976741542
        },
        {
          "name": "F#5",
          "midi": 78,
          "time": 113.24418604649823,
          "velocity": 0.07874015748031496,
          "duration": 0.05813953488370771
        },
        {
          "name": "E6",
          "midi": 88,
          "time": 113.24418604649823,
          "velocity": 0.1732283464566929,
          "duration": 0.09302325581393234
        },
        {
          "name": "D#7",
          "midi": 99,
          "time": 113.24418604649823,
          "velocity": 0.18110236220472442,
          "duration": 0.09302325581393234
        },
        {
          "name": "F7",
          "midi": 101,
          "time": 113.24418604649823,
          "velocity": 0.09448818897637795,
          "duration": 0.034883720930224626
        },
        {
          "name": "C3",
          "midi": 48,
          "time": 113.25581395347497,
          "velocity": 0.5354330708661418,
          "duration": 0.011627906976741542
        },
        {
          "name": "G4",
          "midi": 67,
          "time": 113.25581395347497,
          "velocity": 0.3858267716535433,
          "duration": 0.20930232558136197
        },
        {
          "name": "D5",
          "midi": 74,
          "time": 113.25581395347497,
          "velocity": 0.2440944881889764,
          "duration": 0.19767441860462043
        },
        {
          "name": "E5",
          "midi": 76,
          "time": 113.25581395347497,
          "velocity": 0.31496062992125984,
          "duration": 0.19767441860462043
        },
        {
          "name": "B5",
          "midi": 83,
          "time": 113.25581395347497,
          "velocity": 0.25984251968503935,
          "duration": 0.49999999999991473
        },
        {
          "name": "F#7",
          "midi": 102,
          "time": 113.25581395347497,
          "velocity": 0.11811023622047244,
          "duration": 0.13953488372091272
        },
        {
          "name": "A2",
          "midi": 45,
          "time": 113.26744186045171,
          "velocity": 0.5669291338582677,
          "duration": 0.011627906976741542
        },
        {
          "name": "E3",
          "midi": 52,
          "time": 113.27906976742845,
          "velocity": 0.3779527559055118,
          "duration": 0.023255813953483084
        },
        {
          "name": "C4",
          "midi": 60,
          "time": 113.27906976742845,
          "velocity": 0.4015748031496063,
          "duration": 0.12790697674417117
        },
        {
          "name": "G#3",
          "midi": 56,
          "time": 113.2906976744052,
          "velocity": 0.33858267716535434,
          "duration": 0.023255813953483084
        },
        {
          "name": "D3",
          "midi": 50,
          "time": 113.31395348835868,
          "velocity": 0.5433070866141733,
          "duration": 0.011627906976741542
        },
        {
          "name": "E4",
          "midi": 64,
          "time": 113.31395348835868,
          "velocity": 0.33070866141732286,
          "duration": 0.1627906976743958
        },
        {
          "name": "C#3",
          "midi": 49,
          "time": 113.32558139533542,
          "velocity": 0.5275590551181102,
          "duration": 0.011627906976741542
        },
        {
          "name": "G3",
          "midi": 55,
          "time": 113.32558139533542,
          "velocity": 0.5039370078740157,
          "duration": 0.06976744186046346
        },
        {
          "name": "C3",
          "midi": 48,
          "time": 113.33720930231216,
          "velocity": 0.49606299212598426,
          "duration": 0.05813953488372192
        },
        {
          "name": "A2",
          "midi": 45,
          "time": 113.39534883719588,
          "velocity": 0.3464566929133858,
          "duration": 0.023255813953483084
        },
        {
          "name": "F#5",
          "midi": 78,
          "time": 113.40697674417262,
          "velocity": 0.14173228346456693,
          "duration": 0.034883720930224626
        },
        {
          "name": "G3",
          "midi": 55,
          "time": 113.43023255812611,
          "velocity": 0.25984251968503935,
          "duration": 0.034883720930224626
        },
        {
          "name": "F#7",
          "midi": 102,
          "time": 113.43023255812611,
          "velocity": 0.14173228346456693,
          "duration": 0.12790697674415696
        },
        {
          "name": "C3",
          "midi": 48,
          "time": 113.44186046510285,
          "velocity": 0.25984251968503935,
          "duration": 0.023255813953483084
        },
        {
          "name": "F#5",
          "midi": 78,
          "time": 113.45348837207959,
          "velocity": 0.14173228346456693,
          "duration": 0.06976744186044925
        },
        {
          "name": "A#3",
          "midi": 58,
          "time": 113.46511627905633,
          "velocity": 0.3228346456692913,
          "duration": 0.023255813953483084
        },
        {
          "name": "G#5",
          "midi": 80,
          "time": 113.46511627905633,
          "velocity": 0.2125984251968504,
          "duration": 0.034883720930224626
        },
        {
          "name": "C7",
          "midi": 96,
          "time": 113.46511627905633,
          "velocity": 0.07874015748031496,
          "duration": 0.05813953488370771
        },
        {
          "name": "D#7",
          "midi": 99,
          "time": 113.46511627905633,
          "velocity": 0.13385826771653545,
          "duration": 0.0813953488371908
        },
        {
          "name": "G#2",
          "midi": 44,
          "time": 113.47674418603307,
          "velocity": 0.5826771653543307,
          "duration": 0.023255813953483084
        },
        {
          "name": "G4",
          "midi": 67,
          "time": 113.47674418603307,
          "velocity": 0.2677165354330709,
          "duration": 0.18604651162787889
        },
        {
          "name": "C5",
          "midi": 72,
          "time": 113.47674418603307,
          "velocity": 0.2204724409448819,
          "duration": 0.360465116279002
        },
        {
          "name": "D7",
          "midi": 98,
          "time": 113.47674418603307,
          "velocity": 0.16535433070866143,
          "duration": 0.05813953488370771
        },
        {
          "name": "C#7",
          "midi": 97,
          "time": 113.48837209300981,
          "velocity": 0.13385826771653545,
          "duration": 0.05813953488370771
        },
        {
          "name": "B2",
          "midi": 47,
          "time": 113.49999999998656,
          "velocity": 0.5590551181102362,
          "duration": 0.023255813953483084
        },
        {
          "name": "C#4",
          "midi": 61,
          "time": 113.49999999998656,
          "velocity": 0.3779527559055118,
          "duration": 0.023255813953483084
        },
        {
          "name": "E5",
          "midi": 76,
          "time": 113.49999999998656,
          "velocity": 0.2125984251968504,
          "duration": 0.18604651162787889
        },
        {
          "name": "E7",
          "midi": 100,
          "time": 113.49999999998656,
          "velocity": 0.11811023622047244,
          "duration": 0.034883720930224626
        },
        {
          "name": "G#3",
          "midi": 56,
          "time": 113.5116279069633,
          "velocity": 0.3464566929133858,
          "duration": 0.023255813953483084
        },
        {
          "name": "C3",
          "midi": 48,
          "time": 113.52325581394004,
          "velocity": 0.5826771653543307,
          "duration": 0.011627906976741542
        },
        {
          "name": "C#3",
          "midi": 49,
          "time": 113.53488372091678,
          "velocity": 0.5826771653543307,
          "duration": 0.011627906976741542
        },
        {
          "name": "G3",
          "midi": 55,
          "time": 113.53488372091678,
          "velocity": 0.49606299212598426,
          "duration": 0.12790697674417117
        },
        {
          "name": "C3",
          "midi": 48,
          "time": 113.54651162789352,
          "velocity": 0.5905511811023622,
          "duration": 0.023255813953483084
        },
        {
          "name": "C#3",
          "midi": 49,
          "time": 113.569767441847,
          "velocity": 0.5748031496062992,
          "duration": 0.011627906976741542
        },
        {
          "name": "F#7",
          "midi": 102,
          "time": 113.569767441847,
          "velocity": 0.1968503937007874,
          "duration": 0.37209302325574356
        },
        {
          "name": "C3",
          "midi": 48,
          "time": 113.58139534882375,
          "velocity": 0.6220472440944882,
          "duration": 0.09302325581394655
        },
        {
          "name": "E4",
          "midi": 64,
          "time": 113.65116279068421,
          "velocity": 0.30708661417322836,
          "duration": 0.04651162790696617
        },
        {
          "name": "F#3",
          "midi": 54,
          "time": 113.66279069766095,
          "velocity": 0.5118110236220472,
          "duration": 0.023255813953483084
        },
        {
          "name": "B2",
          "midi": 47,
          "time": 113.6744186046377,
          "velocity": 0.5669291338582677,
          "duration": 0.011627906976741542
        },
        {
          "name": "D5",
          "midi": 74,
          "time": 113.6744186046377,
          "velocity": 0.4409448818897638,
          "duration": 0.3604651162789878
        },
        {
          "name": "C3",
          "midi": 48,
          "time": 113.68604651161444,
          "velocity": 0.5590551181102362,
          "duration": 0.011627906976741542
        },
        {
          "name": "G3",
          "midi": 55,
          "time": 113.68604651161444,
          "velocity": 0.4566929133858268,
          "duration": 0.023255813953483084
        },
        {
          "name": "G4",
          "midi": 67,
          "time": 113.68604651161444,
          "velocity": 0.48031496062992124,
          "duration": 0.24418604651157239
        },
        {
          "name": "E6",
          "midi": 88,
          "time": 113.68604651161444,
          "velocity": 0.11811023622047244,
          "duration": 0.04651162790696617
        },
        {
          "name": "A#2",
          "midi": 46,
          "time": 113.69767441859118,
          "velocity": 0.6141732283464567,
          "duration": 0.023255813953483084
        },
        {
          "name": "E5",
          "midi": 76,
          "time": 113.69767441859118,
          "velocity": 0.23622047244094488,
          "duration": 0.18604651162786467
        },
        {
          "name": "D7",
          "midi": 98,
          "time": 113.69767441859118,
          "velocity": 0.2283464566929134,
          "duration": 0.5116279069766279
        },
        {
          "name": "C#7",
          "midi": 97,
          "time": 113.70930232556792,
          "velocity": 0.2755905511811024,
          "duration": 0.6395348837207848
        },
        {
          "name": "B2",
          "midi": 47,
          "time": 113.72093023254466,
          "velocity": 0.5826771653543307,
          "duration": 0.011627906976741542
        },
        {
          "name": "C4",
          "midi": 60,
          "time": 113.72093023254466,
          "velocity": 0.2755905511811024,
          "duration": 0.15116279069764005
        },
        {
          "name": "A#4",
          "midi": 70,
          "time": 113.72093023254466,
          "velocity": 0.2283464566929134,
          "duration": 0.15116279069764005
        },
        {
          "name": "C7",
          "midi": 96,
          "time": 113.72093023254466,
          "velocity": 0.07874015748031496,
          "duration": 0.04651162790696617
        },
        {
          "name": "D#7",
          "midi": 99,
          "time": 113.72093023254466,
          "velocity": 0.07086614173228346,
          "duration": 0.10465116279067388
        },
        {
          "name": "C3",
          "midi": 48,
          "time": 113.7325581395214,
          "velocity": 0.5826771653543307,
          "duration": 0.011627906976741542
        },
        {
          "name": "G#3",
          "midi": 56,
          "time": 113.7325581395214,
          "velocity": 0.2677165354330709,
          "duration": 0.034883720930224626
        },
        {
          "name": "D#6",
          "midi": 87,
          "time": 113.7325581395214,
          "velocity": 0.07874015748031496,
          "duration": 0.034883720930224626
        },
        {
          "name": "C#2",
          "midi": 37,
          "time": 113.74418604649814,
          "velocity": 0.41732283464566927,
          "duration": 0.023255813953483084
        },
        {
          "name": "C2",
          "midi": 36,
          "time": 113.76744186045163,
          "velocity": 0.4330708661417323,
          "duration": 0.04651162790696617
        },
        {
          "name": "G3",
          "midi": 55,
          "time": 113.76744186045163,
          "velocity": 0.33858267716535434,
          "duration": 0.05813953488370771
        },
        {
          "name": "C3",
          "midi": 48,
          "time": 113.77906976742837,
          "velocity": 0.4566929133858268,
          "duration": 0.06976744186044925
        },
        {
          "name": "E4",
          "midi": 64,
          "time": 113.77906976742837,
          "velocity": 0.2755905511811024,
          "duration": 0.10465116279067388
        },
        {
          "name": "G#6",
          "midi": 92,
          "time": 113.77906976742837,
          "velocity": 0.07086614173228346,
          "duration": 0.05813953488370771
        },
        {
          "name": "F7",
          "midi": 101,
          "time": 113.79069767440511,
          "velocity": 0.14173228346456693,
          "duration": 0.05813953488370771
        },
        {
          "name": "G7",
          "midi": 103,
          "time": 113.79069767440511,
          "velocity": 0.08661417322834646,
          "duration": 0.034883720930224626
        },
        {
          "name": "C#2",
          "midi": 37,
          "time": 113.81395348835859,
          "velocity": 0.2755905511811024,
          "duration": 0.023255813953483084
        },
        {
          "name": "C7",
          "midi": 96,
          "time": 113.82558139533533,
          "velocity": 0.23622047244094488,
          "duration": 0.45348837209292014
        },
        {
          "name": "E7",
          "midi": 100,
          "time": 113.82558139533533,
          "velocity": 0.09448818897637795,
          "duration": 0.034883720930224626
        },
        {
          "name": "G3",
          "midi": 55,
          "time": 113.83720930231208,
          "velocity": 0.3858267716535433,
          "duration": 0.04651162790696617
        },
        {
          "name": "B5",
          "midi": 83,
          "time": 113.84883720928882,
          "velocity": 0.33858267716535434,
          "duration": 0.47674418604640323
        },
        {
          "name": "C3",
          "midi": 48,
          "time": 113.86046511626556,
          "velocity": 0.48031496062992124,
          "duration": 0.05813953488370771
        },
        {
          "name": "C5",
          "midi": 72,
          "time": 113.8720930232423,
          "velocity": 0.1968503937007874,
          "duration": 0.034883720930224626
        },
        {
          "name": "F#5",
          "midi": 78,
          "time": 113.88372093021904,
          "velocity": 0.16535433070866143,
          "duration": 0.11627906976741542
        },
        {
          "name": "A#5",
          "midi": 82,
          "time": 113.88372093021904,
          "velocity": 0.25984251968503935,
          "duration": 0.023255813953483084
        },
        {
          "name": "A6",
          "midi": 93,
          "time": 113.88372093021904,
          "velocity": 0.11811023622047244,
          "duration": 0.04651162790696617
        },
        {
          "name": "D#7",
          "midi": 99,
          "time": 113.88372093021904,
          "velocity": 0.11811023622047244,
          "duration": 0.034883720930224626
        },
        {
          "name": "C#2",
          "midi": 37,
          "time": 113.89534883719578,
          "velocity": 0.3700787401574803,
          "duration": 0.034883720930224626
        },
        {
          "name": "E4",
          "midi": 64,
          "time": 113.89534883719578,
          "velocity": 0.36220472440944884,
          "duration": 0.023255813953483084
        },
        {
          "name": "G#5",
          "midi": 80,
          "time": 113.89534883719578,
          "velocity": 0.2047244094488189,
          "duration": 0.05813953488370771
        },
        {
          "name": "D#6",
          "midi": 87,
          "time": 113.89534883719578,
          "velocity": 0.14173228346456693,
          "duration": 0.09302325581393234
        },
        {
          "name": "F7",
          "midi": 101,
          "time": 113.89534883719578,
          "velocity": 0.1889763779527559,
          "duration": 0.3604651162789878
        },
        {
          "name": "A5",
          "midi": 81,
          "time": 113.90697674417252,
          "velocity": 0.31496062992125984,
          "duration": 0.3255813953487632
        },
        {
          "name": "G6",
          "midi": 91,
          "time": 113.90697674417252,
          "velocity": 0.08661417322834646,
          "duration": 0.04651162790696617
        },
        {
          "name": "G7",
          "midi": 103,
          "time": 113.90697674417252,
          "velocity": 0.16535433070866143,
          "duration": 0.06976744186044925
        },
        {
          "name": "A#4",
          "midi": 70,
          "time": 113.91860465114927,
          "velocity": 0.2677165354330709,
          "duration": 0.034883720930224626
        },
        {
          "name": "F4",
          "midi": 65,
          "time": 113.94186046510275,
          "velocity": 0.2755905511811024,
          "duration": 0.034883720930224626
        },
        {
          "name": "D#7",
          "midi": 99,
          "time": 113.94186046510275,
          "velocity": 0.14960629921259844,
          "duration": 0.2209302325580893
        },
        {
          "name": "G2",
          "midi": 43,
          "time": 113.95348837207949,
          "velocity": 0.5118110236220472,
          "duration": 0.011627906976741542
        },
        {
          "name": "G3",
          "midi": 55,
          "time": 113.96511627905623,
          "velocity": 0.3779527559055118,
          "duration": 0.023255813953483084
        },
        {
          "name": "A#4",
          "midi": 70,
          "time": 113.96511627905623,
          "velocity": 0.15748031496062992,
          "duration": 0.034883720930224626
        },
        {
          "name": "F#7",
          "midi": 102,
          "time": 113.96511627905623,
          "velocity": 0.2047244094488189,
          "duration": 0.23255813953483084
        },
        {
          "name": "G4",
          "midi": 67,
          "time": 113.98837209300972,
          "velocity": 0.3228346456692913,
          "duration": 0.12790697674415696
        },
        {
          "name": "F#2",
          "midi": 42,
          "time": 113.99999999998646,
          "velocity": 0.2755905511811024,
          "duration": 0.023255813953483084
        },
        {
          "name": "G3",
          "midi": 55,
          "time": 113.99999999998646,
          "velocity": 0.3464566929133858,
          "duration": 0.06976744186044925
        },
        {
          "name": "A#3",
          "midi": 58,
          "time": 114.0116279069632,
          "velocity": 0.31496062992125984,
          "duration": 0.023255813953483084
        },
        {
          "name": "G#2",
          "midi": 44,
          "time": 114.05813953487016,
          "velocity": 0.30708661417322836,
          "duration": 0.023255813953483084
        },
        {
          "name": "B3",
          "midi": 59,
          "time": 114.0697674418469,
          "velocity": 0.2283464566929134,
          "duration": 0.023255813953483084
        },
        {
          "name": "A#4",
          "midi": 70,
          "time": 114.0697674418469,
          "velocity": 0.07086614173228346,
          "duration": 0.034883720930224626
        },
        {
          "name": "E5",
          "midi": 76,
          "time": 114.0697674418469,
          "velocity": 0.4015748031496063,
          "duration": 0.3255813953487632
        },
        {
          "name": "G3",
          "midi": 55,
          "time": 114.08139534882365,
          "velocity": 0.33070866141732286,
          "duration": 0.04651162790696617
        },
        {
          "name": "C#2",
          "midi": 37,
          "time": 114.09302325580039,
          "velocity": 0.5118110236220472,
          "duration": 0.023255813953483084
        },
        {
          "name": "C4",
          "midi": 60,
          "time": 114.09302325580039,
          "velocity": 0.2440944881889764,
          "duration": 0.023255813953483084
        },
        {
          "name": "E4",
          "midi": 64,
          "time": 114.11627906975387,
          "velocity": 0.23622047244094488,
          "duration": 0.023255813953483084
        },
        {
          "name": "D5",
          "midi": 74,
          "time": 114.11627906975387,
          "velocity": 0.23622047244094488,
          "duration": 0.18604651162786467
        },
        {
          "name": "G4",
          "midi": 67,
          "time": 114.12790697673061,
          "velocity": 0.36220472440944884,
          "duration": 0.15116279069764005
        },
        {
          "name": "G#6",
          "midi": 92,
          "time": 114.12790697673061,
          "velocity": 0.11811023622047244,
          "duration": 0.034883720930224626
        },
        {
          "name": "G7",
          "midi": 103,
          "time": 114.12790697673061,
          "velocity": 0.10236220472440945,
          "duration": 0.0813953488371908
        },
        {
          "name": "D3",
          "midi": 50,
          "time": 114.1511627906841,
          "velocity": 0.3543307086614173,
          "duration": 0.023255813953483084
        },
        {
          "name": "G#3",
          "midi": 56,
          "time": 114.1511627906841,
          "velocity": 0.29133858267716534,
          "duration": 0.023255813953483084
        },
        {
          "name": "A#4",
          "midi": 70,
          "time": 114.1511627906841,
          "velocity": 0.2440944881889764,
          "duration": 0.17441860465112313
        },
        {
          "name": "A2",
          "midi": 45,
          "time": 114.17441860463758,
          "velocity": 0.3937007874015748,
          "duration": 0.023255813953483084
        },
        {
          "name": "E4",
          "midi": 64,
          "time": 114.17441860463758,
          "velocity": 0.33858267716535434,
          "duration": 0.1627906976743816
        },
        {
          "name": "G3",
          "midi": 55,
          "time": 114.18604651161432,
          "velocity": 0.3464566929133858,
          "duration": 0.04651162790696617
        },
        {
          "name": "C4",
          "midi": 60,
          "time": 114.18604651161432,
          "velocity": 0.25984251968503935,
          "duration": 0.0813953488371908
        },
        {
          "name": "G#6",
          "midi": 92,
          "time": 114.22093023254455,
          "velocity": 0.12598425196850394,
          "duration": 0.09302325581393234
        },
        {
          "name": "D7",
          "midi": 98,
          "time": 114.23255813952129,
          "velocity": 0.11811023622047244,
          "duration": 0.06976744186044925
        },
        {
          "name": "F#7",
          "midi": 102,
          "time": 114.23255813952129,
          "velocity": 0.14960629921259844,
          "duration": 0.11627906976741542
        },
        {
          "name": "D#6",
          "midi": 87,
          "time": 114.25581395347477,
          "velocity": 0.09448818897637795,
          "duration": 0.034883720930224626
        },
        {
          "name": "C3",
          "midi": 48,
          "time": 114.26744186045151,
          "velocity": 0.4094488188976378,
          "duration": 0.034883720930224626
        },
        {
          "name": "E7",
          "midi": 100,
          "time": 114.26744186045151,
          "velocity": 0.33070866141732286,
          "duration": 0.7325581395347172
        },
        {
          "name": "G5",
          "midi": 79,
          "time": 114.290697674405,
          "velocity": 0.07086614173228346,
          "duration": 0.034883720930224626
        },
        {
          "name": "G4",
          "midi": 67,
          "time": 114.30232558138174,
          "velocity": 0.25196850393700787,
          "duration": 0.034883720930224626
        },
        {
          "name": "D#6",
          "midi": 87,
          "time": 114.30232558138174,
          "velocity": 0.09448818897637795,
          "duration": 0.034883720930224626
        },
        {
          "name": "D7",
          "midi": 98,
          "time": 114.31395348835848,
          "velocity": 0.1889763779527559,
          "duration": 0.04651162790696617
        },
        {
          "name": "C3",
          "midi": 48,
          "time": 114.32558139533522,
          "velocity": 0.5511811023622047,
          "duration": 0.011627906976741542
        },
        {
          "name": "A#3",
          "midi": 58,
          "time": 114.32558139533522,
          "velocity": 0.3937007874015748,
          "duration": 0.023255813953483084
        },
        {
          "name": "F#5",
          "midi": 78,
          "time": 114.32558139533522,
          "velocity": 0.13385826771653545,
          "duration": 0.1627906976743816
        },
        {
          "name": "G#5",
          "midi": 80,
          "time": 114.32558139533522,
          "velocity": 0.14173228346456693,
          "duration": 0.05813953488370771
        },
        {
          "name": "A5",
          "midi": 81,
          "time": 114.32558139533522,
          "velocity": 0.4015748031496063,
          "duration": 0.7209302325579756
        },
        {
          "name": "C6",
          "midi": 84,
          "time": 114.32558139533522,
          "velocity": 0.15748031496062992,
          "duration": 0.12790697674415696
        },
        {
          "name": "A6",
          "midi": 93,
          "time": 114.32558139533522,
          "velocity": 0.47244094488188976,
          "duration": 1.0813953488369918
        },
        {
          "name": "F7",
          "midi": 101,
          "time": 114.32558139533522,
          "velocity": 0.08661417322834646,
          "duration": 0.034883720930224626
        },
        {
          "name": "D6",
          "midi": 86,
          "time": 114.33720930231196,
          "velocity": 0.2677165354330709,
          "duration": 0.034883720930224626
        },
        {
          "name": "D3",
          "midi": 50,
          "time": 114.3488372092887,
          "velocity": 0.5511811023622047,
          "duration": 0.04651162790696617
        },
        {
          "name": "A3",
          "midi": 57,
          "time": 114.3488372092887,
          "velocity": 0.4881889763779528,
          "duration": 0.04651162790696617
        },
        {
          "name": "C5",
          "midi": 72,
          "time": 114.3488372092887,
          "velocity": 0.1732283464566929,
          "duration": 0.06976744186044925
        },
        {
          "name": "D5",
          "midi": 74,
          "time": 114.3488372092887,
          "velocity": 0.2677165354330709,
          "duration": 0.05813953488370771
        },
        {
          "name": "B5",
          "midi": 83,
          "time": 114.3488372092887,
          "velocity": 0.10236220472440945,
          "duration": 0.0813953488371908
        },
        {
          "name": "D#6",
          "midi": 87,
          "time": 114.3488372092887,
          "velocity": 0.14960629921259844,
          "duration": 0.05813953488370771
        },
        {
          "name": "C#7",
          "midi": 97,
          "time": 114.36046511626544,
          "velocity": 0.12598425196850394,
          "duration": 0.04651162790696617
        },
        {
          "name": "C#3",
          "midi": 49,
          "time": 114.39534883719567,
          "velocity": 0.6062992125984252,
          "duration": 0.011627906976741542
        },
        {
          "name": "D3",
          "midi": 50,
          "time": 114.40697674417241,
          "velocity": 0.6141732283464567,
          "duration": 0.011627906976741542
        },
        {
          "name": "D#3",
          "midi": 51,
          "time": 114.41860465114915,
          "velocity": 0.6220472440944882,
          "duration": 0.011627906976741542
        },
        {
          "name": "D3",
          "midi": 50,
          "time": 114.4302325581259,
          "velocity": 0.6220472440944882,
          "duration": 0.023255813953483084
        },
        {
          "name": "B6",
          "midi": 95,
          "time": 114.4302325581259,
          "velocity": 0.23622047244094488,
          "duration": 0.12790697674415696
        },
        {
          "name": "A2",
          "midi": 45,
          "time": 114.44186046510264,
          "velocity": 0.5590551181102362,
          "duration": 0.011627906976741542
        },
        {
          "name": "C3",
          "midi": 48,
          "time": 114.45348837207938,
          "velocity": 0.6220472440944882,
          "duration": 0.011627906976741542
        },
        {
          "name": "A2",
          "midi": 45,
          "time": 114.46511627905612,
          "velocity": 0.5275590551181102,
          "duration": 0.011627906976741542
        },
        {
          "name": "D3",
          "midi": 50,
          "time": 114.46511627905612,
          "velocity": 0.5275590551181102,
          "duration": 0.011627906976741542
        },
        {
          "name": "A4",
          "midi": 69,
          "time": 114.47674418603286,
          "velocity": 0.1732283464566929,
          "duration": 0.04651162790696617
        },
        {
          "name": "A3",
          "midi": 57,
          "time": 114.4883720930096,
          "velocity": 0.30708661417322836,
          "duration": 0.04651162790696617
        },
        {
          "name": "E5",
          "midi": 76,
          "time": 114.4883720930096,
          "velocity": 0.33858267716535434,
          "duration": 0.3604651162789878
        },
        {
          "name": "D3",
          "midi": 50,
          "time": 114.51162790696308,
          "velocity": 0.28346456692913385,
          "duration": 0.023255813953483084
        },
        {
          "name": "G4",
          "midi": 67,
          "time": 114.52325581393983,
          "velocity": 0.31496062992125984,
          "duration": 0.023255813953483084
        },
        {
          "name": "A#4",
          "midi": 70,
          "time": 114.52325581393983,
          "velocity": 0.2440944881889764,
          "duration": 0.034883720930224626
        },
        {
          "name": "E2",
          "midi": 40,
          "time": 114.53488372091657,
          "velocity": 0.5196850393700787,
          "duration": 0.011627906976741542
        },
        {
          "name": "C#7",
          "midi": 97,
          "time": 114.53488372091657,
          "velocity": 0.12598425196850394,
          "duration": 0.034883720930224626
        },
        {
          "name": "D7",
          "midi": 98,
          "time": 114.53488372091657,
          "velocity": 0.16535433070866143,
          "duration": 0.05813953488370771
        },
        {
          "name": "F#4",
          "midi": 66,
          "time": 114.54651162789331,
          "velocity": 0.3543307086614173,
          "duration": 0.0813953488371908
        },
        {
          "name": "C#6",
          "midi": 85,
          "time": 114.54651162789331,
          "velocity": 0.13385826771653545,
          "duration": 0.034883720930224626
        },
        {
          "name": "D3",
          "midi": 50,
          "time": 114.55813953487005,
          "velocity": 0.6141732283464567,
          "duration": 0.1395348837208985
        },
        {
          "name": "A3",
          "midi": 57,
          "time": 114.55813953487005,
          "velocity": 0.47244094488188976,
          "duration": 0.05813953488370771
        },
        {
          "name": "C7",
          "midi": 96,
          "time": 114.55813953487005,
          "velocity": 0.11811023622047244,
          "duration": 0.04651162790696617
        },
        {
          "name": "A#4",
          "midi": 70,
          "time": 114.56976744184679,
          "velocity": 0.25984251968503935,
          "duration": 0.023255813953483084
        },
        {
          "name": "E2",
          "midi": 40,
          "time": 114.58139534882353,
          "velocity": 0.4409448818897638,
          "duration": 0.023255813953483084
        },
        {
          "name": "C5",
          "midi": 72,
          "time": 114.58139534882353,
          "velocity": 0.12598425196850394,
          "duration": 0.12790697674415696
        },
        {
          "name": "C#6",
          "midi": 85,
          "time": 114.60465116277702,
          "velocity": 0.11811023622047244,
          "duration": 0.05813953488370771
        },
        {
          "name": "B6",
          "midi": 95,
          "time": 114.61627906975376,
          "velocity": 0.18110236220472442,
          "duration": 0.05813953488370771
        },
        {
          "name": "A3",
          "midi": 57,
          "time": 114.6279069767305,
          "velocity": 0.3228346456692913,
          "duration": 0.10465116279067388
        },
        {
          "name": "F#4",
          "midi": 66,
          "time": 114.63953488370724,
          "velocity": 0.33070866141732286,
          "duration": 0.10465116279067388
        },
        {
          "name": "A4",
          "midi": 69,
          "time": 114.63953488370724,
          "velocity": 0.4330708661417323,
          "duration": 0.5581395348836224
        },
        {
          "name": "A2",
          "midi": 45,
          "time": 114.65116279068398,
          "velocity": 0.5433070866141733,
          "duration": 0.011627906976741542
        },
        {
          "name": "A2",
          "midi": 45,
          "time": 114.67441860463747,
          "velocity": 0.5826771653543307,
          "duration": 0.04651162790696617
        },
        {
          "name": "A#3",
          "midi": 58,
          "time": 114.73255813952117,
          "velocity": 0.48031496062992124,
          "duration": 0.023255813953483084
        },
        {
          "name": "D5",
          "midi": 74,
          "time": 114.73255813952117,
          "velocity": 0.4094488188976378,
          "duration": 0.04651162790696617
        },
        {
          "name": "G5",
          "midi": 79,
          "time": 114.73255813952117,
          "velocity": 0.33070866141732286,
          "duration": 0.04651162790696617
        },
        {
          "name": "E4",
          "midi": 64,
          "time": 114.74418604649792,
          "velocity": 0.30708661417322836,
          "duration": 0.023255813953483084
        },
        {
          "name": "C7",
          "midi": 96,
          "time": 114.74418604649792,
          "velocity": 0.2755905511811024,
          "duration": 0.11627906976741542
        },
        {
          "name": "A3",
          "midi": 57,
          "time": 114.75581395347466,
          "velocity": 0.4409448818897638,
          "duration": 0.023255813953483084
        },
        {
          "name": "C6",
          "midi": 84,
          "time": 114.75581395347466,
          "velocity": 0.1732283464566929,
          "duration": 0.04651162790696617
        },
        {
          "name": "F#6",
          "midi": 90,
          "time": 114.75581395347466,
          "velocity": 0.13385826771653545,
          "duration": 0.06976744186044925
        },
        {
          "name": "D7",
          "midi": 98,
          "time": 114.75581395347466,
          "velocity": 0.15748031496062992,
          "duration": 0.04651162790696617
        },
        {
          "name": "D#7",
          "midi": 99,
          "time": 114.75581395347466,
          "velocity": 0.14960629921259844,
          "duration": 0.11627906976741542
        },
        {
          "name": "G7",
          "midi": 103,
          "time": 114.75581395347466,
          "velocity": 0.16535433070866143,
          "duration": 0.20930232558134776
        },
        {
          "name": "C#4",
          "midi": 61,
          "time": 114.7674418604514,
          "velocity": 0.2755905511811024,
          "duration": 0.023255813953483084
        },
        {
          "name": "F#5",
          "midi": 78,
          "time": 114.7674418604514,
          "velocity": 0.29133858267716534,
          "duration": 0.034883720930224626
        },
        {
          "name": "A#3",
          "midi": 58,
          "time": 114.79069767440488,
          "velocity": 0.33070866141732286,
          "duration": 0.023255813953483084
        },
        {
          "name": "F4",
          "midi": 65,
          "time": 114.79069767440488,
          "velocity": 0.2047244094488189,
          "duration": 0.034883720930224626
        },
        {
          "name": "D5",
          "midi": 74,
          "time": 114.80232558138162,
          "velocity": 0.2440944881889764,
          "duration": 0.19767441860460622
        },
        {
          "name": "G5",
          "midi": 79,
          "time": 114.80232558138162,
          "velocity": 0.16535433070866143,
          "duration": 0.05813953488370771
        },
        {
          "name": "C#7",
          "midi": 97,
          "time": 114.80232558138162,
          "velocity": 0.2440944881889764,
          "duration": 0.0813953488371908
        },
        {
          "name": "F7",
          "midi": 101,
          "time": 114.80232558138162,
          "velocity": 0.11023622047244094,
          "duration": 0.06976744186044925
        },
        {
          "name": "G#2",
          "midi": 44,
          "time": 114.81395348835837,
          "velocity": 0.4330708661417323,
          "duration": 0.023255813953483084
        },
        {
          "name": "F#4",
          "midi": 66,
          "time": 114.81395348835837,
          "velocity": 0.2283464566929134,
          "duration": 0.05813953488370771
        },
        {
          "name": "C5",
          "midi": 72,
          "time": 114.81395348835837,
          "velocity": 0.18110236220472442,
          "duration": 0.0813953488371908
        },
        {
          "name": "D7",
          "midi": 98,
          "time": 114.81395348835837,
          "velocity": 0.1889763779527559,
          "duration": 0.20930232558134776
        },
        {
          "name": "D3",
          "midi": 50,
          "time": 114.83720930231185,
          "velocity": 0.4251968503937008,
          "duration": 0.034883720930224626
        },
        {
          "name": "A#3",
          "midi": 58,
          "time": 114.83720930231185,
          "velocity": 0.3937007874015748,
          "duration": 0.04651162790696617
        },
        {
          "name": "F#7",
          "midi": 102,
          "time": 114.86046511626533,
          "velocity": 0.11811023622047244,
          "duration": 0.06976744186044925
        },
        {
          "name": "D#3",
          "midi": 51,
          "time": 114.87209302324207,
          "velocity": 0.4645669291338583,
          "duration": 0.034883720930224626
        },
        {
          "name": "G4",
          "midi": 67,
          "time": 114.87209302324207,
          "velocity": 0.23622047244094488,
          "duration": 0.034883720930224626
        },
        {
          "name": "F#5",
          "midi": 78,
          "time": 114.87209302324207,
          "velocity": 0.11811023622047244,
          "duration": 0.034883720930224626
        },
        {
          "name": "E2",
          "midi": 40,
          "time": 114.88372093021881,
          "velocity": 0.4094488188976378,
          "duration": 0.023255813953483084
        },
        {
          "name": "E5",
          "midi": 76,
          "time": 114.88372093021881,
          "velocity": 0.31496062992125984,
          "duration": 0.3488372093022747
        },
        {
          "name": "C7",
          "midi": 96,
          "time": 114.88372093021881,
          "velocity": 0.09448818897637795,
          "duration": 0.05813953488370771
        },
        {
          "name": "D3",
          "midi": 50,
          "time": 114.9069767441723,
          "velocity": 0.4881889763779528,
          "duration": 0.04651162790696617
        },
        {
          "name": "A#3",
          "midi": 58,
          "time": 114.9069767441723,
          "velocity": 0.23622047244094488,
          "duration": 0.04651162790696617
        },
        {
          "name": "F#4",
          "midi": 66,
          "time": 114.9069767441723,
          "velocity": 0.23622047244094488,
          "duration": 0.034883720930224626
        },
        {
          "name": "C#6",
          "midi": 85,
          "time": 114.9069767441723,
          "velocity": 0.08661417322834646,
          "duration": 0.05813953488370771
        },
        {
          "name": "C#7",
          "midi": 97,
          "time": 114.91860465114904,
          "velocity": 0.3858267716535433,
          "duration": 1.1976744186044073
        },
        {
          "name": "D#7",
          "midi": 99,
          "time": 114.91860465114904,
          "velocity": 0.15748031496062992,
          "duration": 0.04651162790696617
        },
        {
          "name": "F7",
          "midi": 101,
          "time": 114.94186046510252,
          "velocity": 0.07086614173228346,
          "duration": 0.06976744186044925
        },
        {
          "name": "E2",
          "midi": 40,
          "time": 114.95348837207926,
          "velocity": 0.3543307086614173,
          "duration": 0.034883720930224626
        },
        {
          "name": "D#3",
          "midi": 51,
          "time": 114.95348837207926,
          "velocity": 0.4330708661417323,
          "duration": 0.023255813953483084
        },
        {
          "name": "F#6",
          "midi": 90,
          "time": 114.95348837207926,
          "velocity": 0.3858267716535433,
          "duration": 0.697674418604521
        },
        {
          "name": "A3",
          "midi": 57,
          "time": 114.965116279056,
          "velocity": 0.2677165354330709,
          "duration": 0.023255813953483084
        },
        {
          "name": "F#5",
          "midi": 78,
          "time": 114.965116279056,
          "velocity": 0.5433070866141733,
          "duration": 0.6744186046510379
        },
        {
          "name": "D3",
          "midi": 50,
          "time": 114.97674418603275,
          "velocity": 0.6220472440944882,
          "duration": 0.13953488372091272
        },
        {
          "name": "F#4",
          "midi": 66,
          "time": 114.97674418603275,
          "velocity": 0.31496062992125984,
          "duration": 0.23255813953485927
        },
        {
          "name": "B5",
          "midi": 83,
          "time": 114.97674418603275,
          "velocity": 0.10236220472440945,
          "duration": 0.05813953488370771
        },
        {
          "name": "D#7",
          "midi": 99,
          "time": 114.97674418603275,
          "velocity": 0.11811023622047244,
          "duration": 0.034883720930224626
        },
        {
          "name": "G#3",
          "midi": 56,
          "time": 114.98837209300949,
          "velocity": 0.36220472440944884,
          "duration": 0.023255813953483084
        },
        {
          "name": "C#6",
          "midi": 85,
          "time": 114.98837209300949,
          "velocity": 0.15748031496062992,
          "duration": 0.0813953488371908
        },
        {
          "name": "G#5",
          "midi": 80,
          "time": 115.01162790696297,
          "velocity": 0.11811023622047244,
          "duration": 0.034883720930224626
        },
        {
          "name": "A#3",
          "midi": 58,
          "time": 115.02325581393971,
          "velocity": 0.3858267716535433,
          "duration": 0.04651162790696617
        },
        {
          "name": "A3",
          "midi": 57,
          "time": 115.06976744184668,
          "velocity": 0.28346456692913385,
          "duration": 0.1046511627907023
        },
        {
          "name": "D3",
          "midi": 50,
          "time": 115.1279069767304,
          "velocity": 0.4015748031496063,
          "duration": 0.04651162790698038
        },
        {
          "name": "D#3",
          "midi": 51,
          "time": 115.17441860463738,
          "velocity": 0.47244094488188976,
          "duration": 0.034883720930224626
        },
        {
          "name": "D7",
          "midi": 98,
          "time": 115.18604651161412,
          "velocity": 0.1732283464566929,
          "duration": 0.04651162790696617
        },
        {
          "name": "A3",
          "midi": 57,
          "time": 115.19767441859086,
          "velocity": 0.41732283464566927,
          "duration": 0.04651162790696617
        },
        {
          "name": "A#4",
          "midi": 70,
          "time": 115.19767441859086,
          "velocity": 0.2283464566929134,
          "duration": 0.034883720930224626
        },
        {
          "name": "D5",
          "midi": 74,
          "time": 115.19767441859086,
          "velocity": 0.3779527559055118,
          "duration": 0.45348837209292014
        },
        {
          "name": "D3",
          "midi": 50,
          "time": 115.2093023255676,
          "velocity": 0.6456692913385826,
          "duration": 0.10465116279067388
        },
        {
          "name": "C7",
          "midi": 96,
          "time": 115.2093023255676,
          "velocity": 0.18110236220472442,
          "duration": 0.0813953488371908
        },
        {
          "name": "F#4",
          "midi": 66,
          "time": 115.22093023254435,
          "velocity": 0.25196850393700787,
          "duration": 0.034883720930224626
        },
        {
          "name": "G6",
          "midi": 91,
          "time": 115.22093023254435,
          "velocity": 0.11023622047244094,
          "duration": 0.034883720930224626
        },
        {
          "name": "A5",
          "midi": 81,
          "time": 115.23255813952109,
          "velocity": 0.3464566929133858,
          "duration": 0.47674418604640323
        },
        {
          "name": "F#2",
          "midi": 42,
          "time": 115.24418604649783,
          "velocity": 0.5275590551181102,
          "duration": 0.011627906976741542
        },
        {
          "name": "A#3",
          "midi": 58,
          "time": 115.24418604649783,
          "velocity": 0.3700787401574803,
          "duration": 0.023255813953483084
        },
        {
          "name": "G#6",
          "midi": 92,
          "time": 115.25581395347457,
          "velocity": 0.07874015748031496,
          "duration": 0.05813953488370771
        },
        {
          "name": "A#3",
          "midi": 58,
          "time": 115.27906976742806,
          "velocity": 0.2677165354330709,
          "duration": 0.023255813953483084
        },
        {
          "name": "A2",
          "midi": 45,
          "time": 115.30232558138154,
          "velocity": 0.5669291338582677,
          "duration": 0.011627906976741542
        },
        {
          "name": "C3",
          "midi": 48,
          "time": 115.31395348835828,
          "velocity": 0.5984251968503937,
          "duration": 0.011627906976741542
        },
        {
          "name": "A2",
          "midi": 45,
          "time": 115.32558139533502,
          "velocity": 0.5905511811023622,
          "duration": 0.011627906976741542
        },
        {
          "name": "D3",
          "midi": 50,
          "time": 115.32558139533502,
          "velocity": 0.5590551181102362,
          "duration": 0.011627906976741542
        },
        {
          "name": "B2",
          "midi": 47,
          "time": 115.33720930231176,
          "velocity": 0.6141732283464567,
          "duration": 0.011627906976741542
        },
        {
          "name": "E5",
          "midi": 76,
          "time": 115.33720930231176,
          "velocity": 0.18110236220472442,
          "duration": 0.05813953488370771
        },
        {
          "name": "A2",
          "midi": 45,
          "time": 115.3488372092885,
          "velocity": 0.6141732283464567,
          "duration": 0.011627906976741542
        },
        {
          "name": "D3",
          "midi": 50,
          "time": 115.3488372092885,
          "velocity": 0.5118110236220472,
          "duration": 0.011627906976741542
        },
        {
          "name": "E7",
          "midi": 100,
          "time": 115.3488372092885,
          "velocity": 0.07086614173228346,
          "duration": 0.034883720930224626
        },
        {
          "name": "G#2",
          "midi": 44,
          "time": 115.36046511626525,
          "velocity": 0.6220472440944882,
          "duration": 0.011627906976741542
        },
        {
          "name": "A2",
          "midi": 45,
          "time": 115.37209302324199,
          "velocity": 0.5511811023622047,
          "duration": 0.023255813953483084
        },
        {
          "name": "F#4",
          "midi": 66,
          "time": 115.38372093021873,
          "velocity": 0.3228346456692913,
          "duration": 0.20930232558134776
        },
        {
          "name": "B4",
          "midi": 71,
          "time": 115.38372093021873,
          "velocity": 0.23622047244094488,
          "duration": 0.023255813953483084
        },
        {
          "name": "G#2",
          "midi": 44,
          "time": 115.39534883719547,
          "velocity": 0.6141732283464567,
          "duration": 0.023255813953483084
        },
        {
          "name": "C#6",
          "midi": 85,
          "time": 115.39534883719547,
          "velocity": 0.12598425196850394,
          "duration": 0.06976744186044925
        },
        {
          "name": "A4",
          "midi": 69,
          "time": 115.40697674417221,
          "velocity": 0.3858267716535433,
          "duration": 0.0813953488371908
        },
        {
          "name": "E6",
          "midi": 88,
          "time": 115.40697674417221,
          "velocity": 0.18110236220472442,
          "duration": 0.05813953488370771
        },
        {
          "name": "C7",
          "midi": 96,
          "time": 115.40697674417221,
          "velocity": 0.2440944881889764,
          "duration": 0.0813953488371908
        },
        {
          "name": "D#7",
          "midi": 99,
          "time": 115.40697674417221,
          "velocity": 0.12598425196850394,
          "duration": 0.10465116279067388
        },
        {
          "name": "G7",
          "midi": 103,
          "time": 115.40697674417221,
          "velocity": 0.11811023622047244,
          "duration": 0.0813953488371908
        },
        {
          "name": "A2",
          "midi": 45,
          "time": 115.41860465114895,
          "velocity": 0.4881889763779528,
          "duration": 0.023255813953483084
        },
        {
          "name": "G6",
          "midi": 91,
          "time": 115.41860465114895,
          "velocity": 0.12598425196850394,
          "duration": 0.04651162790696617
        },
        {
          "name": "E7",
          "midi": 100,
          "time": 115.41860465114895,
          "velocity": 0.2047244094488189,
          "duration": 0.1395348837208985
        },
        {
          "name": "F3",
          "midi": 53,
          "time": 115.4302325581257,
          "velocity": 0.33858267716535434,
          "duration": 0.023255813953483084
        },
        {
          "name": "E5",
          "midi": 76,
          "time": 115.4302325581257,
          "velocity": 0.30708661417322836,
          "duration": 0.11627906976741542
        },
        {
          "name": "G#3",
          "midi": 56,
          "time": 115.45348837207918,
          "velocity": 0.23622047244094488,
          "duration": 0.023255813953483084
        },
        {
          "name": "D7",
          "midi": 98,
          "time": 115.46511627905592,
          "velocity": 0.18110236220472442,
          "duration": 0.1627906976743816
        },
        {
          "name": "A3",
          "midi": 57,
          "time": 115.47674418603266,
          "velocity": 0.33070866141732286,
          "duration": 0.0813953488371908
        },
        {
          "name": "D4",
          "midi": 62,
          "time": 115.47674418603266,
          "velocity": 0.36220472440944884,
          "duration": 0.11627906976741542
        },
        {
          "name": "B6",
          "midi": 95,
          "time": 115.47674418603266,
          "velocity": 0.08661417322834646,
          "duration": 0.04651162790696617
        },
        {
          "name": "F7",
          "midi": 101,
          "time": 115.47674418603266,
          "velocity": 0.07874015748031496,
          "duration": 0.034883720930224626
        },
        {
          "name": "A4",
          "midi": 69,
          "time": 115.49999999998614,
          "velocity": 0.4251968503937008,
          "duration": 0.10465116279067388
        },
        {
          "name": "C#6",
          "midi": 85,
          "time": 115.49999999998614,
          "velocity": 0.07086614173228346,
          "duration": 0.034883720930224626
        },
        {
          "name": "D#3",
          "midi": 51,
          "time": 115.51162790696289,
          "velocity": 0.47244094488188976,
          "duration": 0.034883720930224626
        },
        {
          "name": "D#6",
          "midi": 87,
          "time": 115.53488372091637,
          "velocity": 0.08661417322834646,
          "duration": 0.034883720930224626
        },
        {
          "name": "G7",
          "midi": 103,
          "time": 115.53488372091637,
          "velocity": 0.13385826771653545,
          "duration": 0.04651162790696617
        },
        {
          "name": "D3",
          "midi": 50,
          "time": 115.54651162789311,
          "velocity": 0.5039370078740157,
          "duration": 0.04651162790696617
        },
        {
          "name": "A#3",
          "midi": 58,
          "time": 115.55813953486985,
          "velocity": 0.5118110236220472,
          "duration": 0.0813953488371908
        },
        {
          "name": "D#7",
          "midi": 99,
          "time": 115.55813953486985,
          "velocity": 0.2125984251968504,
          "duration": 0.5348837209301109
        },
        {
          "name": "D#3",
          "midi": 51,
          "time": 115.59302325580008,
          "velocity": 0.47244094488188976,
          "duration": 0.034883720930224626
        },
        {
          "name": "B6",
          "midi": 95,
          "time": 115.59302325580008,
          "velocity": 0.10236220472440945,
          "duration": 0.034883720930224626
        },
        {
          "name": "E7",
          "midi": 100,
          "time": 115.59302325580008,
          "velocity": 0.1732283464566929,
          "duration": 0.1395348837208985
        },
        {
          "name": "F7",
          "midi": 101,
          "time": 115.59302325580008,
          "velocity": 0.15748031496062992,
          "duration": 0.034883720930224626
        },
        {
          "name": "G4",
          "midi": 67,
          "time": 115.60465116277682,
          "velocity": 0.4330708661417323,
          "duration": 0.034883720930224626
        },
        {
          "name": "E5",
          "midi": 76,
          "time": 115.60465116277682,
          "velocity": 0.30708661417322836,
          "duration": 0.023255813953483084
        },
        {
          "name": "C#6",
          "midi": 85,
          "time": 115.60465116277682,
          "velocity": 0.2283464566929134,
          "duration": 0.034883720930224626
        },
        {
          "name": "D#6",
          "midi": 87,
          "time": 115.60465116277682,
          "velocity": 0.14960629921259844,
          "duration": 0.034883720930224626
        },
        {
          "name": "A4",
          "midi": 69,
          "time": 115.61627906975356,
          "velocity": 0.2755905511811024,
          "duration": 0.1395348837208985
        },
        {
          "name": "G5",
          "midi": 79,
          "time": 115.61627906975356,
          "velocity": 0.48031496062992124,
          "duration": 0.4186046511626955
        },
        {
          "name": "F#4",
          "midi": 66,
          "time": 115.63953488370704,
          "velocity": 0.2677165354330709,
          "duration": 0.023255813953483084
        },
        {
          "name": "E6",
          "midi": 88,
          "time": 115.63953488370704,
          "velocity": 0.18110236220472442,
          "duration": 0.10465116279067388
        },
        {
          "name": "D7",
          "midi": 98,
          "time": 115.63953488370704,
          "velocity": 0.3464566929133858,
          "duration": 0.7093023255812341
        },
        {
          "name": "A#3",
          "midi": 58,
          "time": 115.65116279068378,
          "velocity": 0.3543307086614173,
          "duration": 0.034883720930224626
        },
        {
          "name": "C#6",
          "midi": 85,
          "time": 115.65116279068378,
          "velocity": 0.2283464566929134,
          "duration": 0.023255813953483084
        },
        {
          "name": "D#6",
          "midi": 87,
          "time": 115.65116279068378,
          "velocity": 0.08661417322834646,
          "duration": 0.04651162790696617
        },
        {
          "name": "C7",
          "midi": 96,
          "time": 115.65116279068378,
          "velocity": 0.13385826771653545,
          "duration": 0.04651162790696617
        },
        {
          "name": "G2",
          "midi": 43,
          "time": 115.66279069766053,
          "velocity": 0.41732283464566927,
          "duration": 0.023255813953483084
        },
        {
          "name": "F4",
          "midi": 65,
          "time": 115.66279069766053,
          "velocity": 0.28346456692913385,
          "duration": 0.034883720930224626
        },
        {
          "name": "C5",
          "midi": 72,
          "time": 115.66279069766053,
          "velocity": 0.25984251968503935,
          "duration": 0.034883720930224626
        },
        {
          "name": "D5",
          "midi": 74,
          "time": 115.66279069766053,
          "velocity": 0.2677165354330709,
          "duration": 0.09302325581393234
        },
        {
          "name": "F#6",
          "midi": 90,
          "time": 115.66279069766053,
          "velocity": 0.1968503937007874,
          "duration": 0.12790697674415696
        },
        {
          "name": "D3",
          "midi": 50,
          "time": 115.67441860463727,
          "velocity": 0.5275590551181102,
          "duration": 0.15116279069764005
        },
        {
          "name": "F#4",
          "midi": 66,
          "time": 115.69767441859075,
          "velocity": 0.31496062992125984,
          "duration": 0.034883720930224626
        },
        {
          "name": "A#3",
          "midi": 58,
          "time": 115.70930232556749,
          "velocity": 0.29133858267716534,
          "duration": 0.05813953488370771
        },
        {
          "name": "C5",
          "midi": 72,
          "time": 115.72093023254423,
          "velocity": 0.14960629921259844,
          "duration": 0.04651162790696617
        },
        {
          "name": "F7",
          "midi": 101,
          "time": 115.74418604649772,
          "velocity": 0.07086614173228346,
          "duration": 0.034883720930224626
        },
        {
          "name": "A5",
          "midi": 81,
          "time": 115.75581395347446,
          "velocity": 0.1889763779527559,
          "duration": 0.2209302325580893
        },
        {
          "name": "A4",
          "midi": 69,
          "time": 115.7674418604512,
          "velocity": 0.1732283464566929,
          "duration": 0.04651162790696617
        },
        {
          "name": "D6",
          "midi": 86,
          "time": 115.7674418604512,
          "velocity": 0.10236220472440945,
          "duration": 0.034883720930224626
        },
        {
          "name": "E7",
          "midi": 100,
          "time": 115.7674418604512,
          "velocity": 0.16535433070866143,
          "duration": 0.12790697674415696
        },
        {
          "name": "C#6",
          "midi": 85,
          "time": 115.77906976742794,
          "velocity": 0.1732283464566929,
          "duration": 0.2209302325580893
        },
        {
          "name": "G6",
          "midi": 91,
          "time": 115.77906976742794,
          "velocity": 0.48031496062992124,
          "duration": 0.7558139534882002
        },
        {
          "name": "A#3",
          "midi": 58,
          "time": 115.79069767440468,
          "velocity": 0.25196850393700787,
          "duration": 0.023255813953483084
        },
        {
          "name": "A3",
          "midi": 57,
          "time": 115.81395348835817,
          "velocity": 0.28346456692913385,
          "duration": 0.034883720930224626
        },
        {
          "name": "G4",
          "midi": 67,
          "time": 115.81395348835817,
          "velocity": 0.23622047244094488,
          "duration": 0.023255813953483084
        },
        {
          "name": "A#4",
          "midi": 70,
          "time": 115.81395348835817,
          "velocity": 0.2125984251968504,
          "duration": 0.034883720930224626
        },
        {
          "name": "D5",
          "midi": 74,
          "time": 115.81395348835817,
          "velocity": 0.1968503937007874,
          "duration": 0.04651162790696617
        },
        {
          "name": "D#5",
          "midi": 75,
          "time": 115.81395348835817,
          "velocity": 0.1889763779527559,
          "duration": 0.034883720930224626
        },
        {
          "name": "E6",
          "midi": 88,
          "time": 115.81395348835817,
          "velocity": 0.14173228346456693,
          "duration": 0.0813953488371908
        },
        {
          "name": "F#6",
          "midi": 90,
          "time": 115.81395348835817,
          "velocity": 0.2125984251968504,
          "duration": 0.23255813953483084
        },
        {
          "name": "C#2",
          "midi": 37,
          "time": 115.82558139533491,
          "velocity": 0.5354330708661418,
          "duration": 0.011627906976741542
        },
        {
          "name": "D4",
          "midi": 62,
          "time": 115.82558139533491,
          "velocity": 0.2440944881889764,
          "duration": 0.0813953488371908
        },
        {
          "name": "B5",
          "midi": 83,
          "time": 115.82558139533491,
          "velocity": 0.14960629921259844,
          "duration": 0.04651162790696617
        },
        {
          "name": "F#4",
          "midi": 66,
          "time": 115.83720930231165,
          "velocity": 0.33070866141732286,
          "duration": 0.034883720930224626
        },
        {
          "name": "E5",
          "midi": 76,
          "time": 115.83720930231165,
          "velocity": 0.25196850393700787,
          "duration": 0.1395348837208985
        },
        {
          "name": "A4",
          "midi": 69,
          "time": 115.87209302324187,
          "velocity": 0.2125984251968504,
          "duration": 0.034883720930224626
        },
        {
          "name": "F7",
          "midi": 101,
          "time": 115.87209302324187,
          "velocity": 0.11023622047244094,
          "duration": 0.09302325581393234
        },
        {
          "name": "A#3",
          "midi": 58,
          "time": 115.88372093021862,
          "velocity": 0.3543307086614173,
          "duration": 0.023255813953483084
        },
        {
          "name": "F#4",
          "midi": 66,
          "time": 115.89534883719536,
          "velocity": 0.3228346456692913,
          "duration": 0.15116279069764005
        },
        {
          "name": "A3",
          "midi": 57,
          "time": 115.9069767441721,
          "velocity": 0.2677165354330709,
          "duration": 0.034883720930224626
        },
        {
          "name": "F#2",
          "midi": 42,
          "time": 115.91860465114884,
          "velocity": 0.4566929133858268,
          "duration": 0.023255813953483084
        },
        {
          "name": "C7",
          "midi": 96,
          "time": 115.91860465114884,
          "velocity": 0.12598425196850394,
          "duration": 0.10465116279067388
        },
        {
          "name": "A4",
          "midi": 69,
          "time": 115.93023255812558,
          "velocity": 0.29133858267716534,
          "duration": 0.1627906976743816
        },
        {
          "name": "C5",
          "midi": 72,
          "time": 115.93023255812558,
          "velocity": 0.11023622047244094,
          "duration": 0.034883720930224626
        },
        {
          "name": "E2",
          "midi": 40,
          "time": 115.95348837207906,
          "velocity": 0.47244094488188976,
          "duration": 0.023255813953483084
        },
        {
          "name": "D3",
          "midi": 50,
          "time": 115.95348837207906,
          "velocity": 0.3858267716535433,
          "duration": 0.023255813953483084
        },
        {
          "name": "A#6",
          "midi": 94,
          "time": 115.9651162790558,
          "velocity": 0.07086614173228346,
          "duration": 0.034883720930224626
        },
        {
          "name": "D#3",
          "midi": 51,
          "time": 115.97674418603255,
          "velocity": 0.4330708661417323,
          "duration": 0.023255813953483084
        },
        {
          "name": "E2",
          "midi": 40,
          "time": 115.99999999998603,
          "velocity": 0.4251968503937008,
          "duration": 0.023255813953483084
        },
        {
          "name": "D#3",
          "midi": 51,
          "time": 116.01162790696277,
          "velocity": 0.5433070866141733,
          "duration": 0.034883720930224626
        },
        {
          "name": "A#3",
          "midi": 58,
          "time": 116.01162790696277,
          "velocity": 0.2677165354330709,
          "duration": 0.023255813953483084
        },
        {
          "name": "E5",
          "midi": 76,
          "time": 116.01162790696277,
          "velocity": 0.30708661417322836,
          "duration": 0.06976744186044925
        },
        {
          "name": "F7",
          "midi": 101,
          "time": 116.01162790696277,
          "velocity": 0.09448818897637795,
          "duration": 0.034883720930224626
        },
        {
          "name": "E2",
          "midi": 40,
          "time": 116.03488372091626,
          "velocity": 0.5433070866141733,
          "duration": 0.011627906976741542
        },
        {
          "name": "E7",
          "midi": 100,
          "time": 116.03488372091626,
          "velocity": 0.14960629921259844,
          "duration": 0.04651162790696617
        },
        {
          "name": "C3",
          "midi": 48,
          "time": 116.046511627893,
          "velocity": 0.6220472440944882,
          "duration": 0.011627906976741542
        },
        {
          "name": "B3",
          "midi": 59,
          "time": 116.046511627893,
          "velocity": 0.2755905511811024,
          "duration": 0.023255813953483084
        },
        {
          "name": "B4",
          "midi": 71,
          "time": 116.046511627893,
          "velocity": 0.2755905511811024,
          "duration": 0.1627906976743816
        },
        {
          "name": "D5",
          "midi": 74,
          "time": 116.046511627893,
          "velocity": 0.14960629921259844,
          "duration": 0.04651162790696617
        },
        {
          "name": "G5",
          "midi": 79,
          "time": 116.046511627893,
          "velocity": 0.48031496062992124,
          "duration": 0.2209302325580893
        },
        {
          "name": "D3",
          "midi": 50,
          "time": 116.05813953486974,
          "velocity": 0.5905511811023622,
          "duration": 0.011627906976741542
        },
        {
          "name": "E4",
          "midi": 64,
          "time": 116.05813953486974,
          "velocity": 0.3937007874015748,
          "duration": 0.406976744185954
        },
        {
          "name": "B3",
          "midi": 59,
          "time": 116.08139534882322,
          "velocity": 0.36220472440944884,
          "duration": 0.023255813953483084
        },
        {
          "name": "F7",
          "midi": 101,
          "time": 116.08139534882322,
          "velocity": 0.07874015748031496,
          "duration": 0.034883720930224626
        },
        {
          "name": "F2",
          "midi": 41,
          "time": 116.09302325579996,
          "velocity": 0.4881889763779528,
          "duration": 0.034883720930224626
        },
        {
          "name": "C#6",
          "midi": 85,
          "time": 116.09302325579996,
          "velocity": 0.10236220472440945,
          "duration": 0.034883720930224626
        },
        {
          "name": "B6",
          "midi": 95,
          "time": 116.09302325579996,
          "velocity": 0.15748031496062992,
          "duration": 0.04651162790696617
        },
        {
          "name": "E3",
          "midi": 52,
          "time": 116.1046511627767,
          "velocity": 0.5354330708661418,
          "duration": 0.04651162790696617
        },
        {
          "name": "C4",
          "midi": 60,
          "time": 116.1046511627767,
          "velocity": 0.3700787401574803,
          "duration": 0.023255813953483084
        },
        {
          "name": "A4",
          "midi": 69,
          "time": 116.1046511627767,
          "velocity": 0.2047244094488189,
          "duration": 0.04651162790696617
        },
        {
          "name": "D6",
          "midi": 86,
          "time": 116.1046511627767,
          "velocity": 0.11811023622047244,
          "duration": 0.06976744186044925
        },
        {
          "name": "F#6",
          "midi": 90,
          "time": 116.1046511627767,
          "velocity": 0.08661417322834646,
          "duration": 0.034883720930224626
        },
        {
          "name": "G4",
          "midi": 67,
          "time": 116.11627906975345,
          "velocity": 0.25196850393700787,
          "duration": 0.023255813953483084
        },
        {
          "name": "B3",
          "midi": 59,
          "time": 116.12790697673019,
          "velocity": 0.30708661417322836,
          "duration": 0.023255813953483084
        },
        {
          "name": "F3",
          "midi": 53,
          "time": 116.15116279068367,
          "velocity": 0.5511811023622047,
          "duration": 0.023255813953483084
        },
        {
          "name": "D2",
          "midi": 38,
          "time": 116.16279069766041,
          "velocity": 0.29133858267716534,
          "duration": 0.023255813953483084
        },
        {
          "name": "B6",
          "midi": 95,
          "time": 116.16279069766041,
          "velocity": 0.11023622047244094,
          "duration": 0.04651162790696617
        },
        {
          "name": "F7",
          "midi": 101,
          "time": 116.16279069766041,
          "velocity": 0.18110236220472442,
          "duration": 0.24418604651157239
        },
        {
          "name": "E3",
          "midi": 52,
          "time": 116.17441860463715,
          "velocity": 0.4881889763779528,
          "duration": 0.023255813953483084
        },
        {
          "name": "A#3",
          "midi": 58,
          "time": 116.17441860463715,
          "velocity": 0.23622047244094488,
          "duration": 0.023255813953483084
        },
        {
          "name": "G4",
          "midi": 67,
          "time": 116.1860465116139,
          "velocity": 0.2204724409448819,
          "duration": 0.034883720930224626
        },
        {
          "name": "E3",
          "midi": 52,
          "time": 116.23255813952086,
          "velocity": 0.31496062992125984,
          "duration": 0.023255813953483084
        },
        {
          "name": "A3",
          "midi": 57,
          "time": 116.23255813952086,
          "velocity": 0.30708661417322836,
          "duration": 0.04651162790696617
        },
        {
          "name": "B4",
          "midi": 71,
          "time": 116.23255813952086,
          "velocity": 0.33070866141732286,
          "duration": 0.2209302325580893
        },
        {
          "name": "C#2",
          "midi": 37,
          "time": 116.2441860464976,
          "velocity": 0.5275590551181102,
          "duration": 0.034883720930224626
        },
        {
          "name": "A4",
          "midi": 69,
          "time": 116.2441860464976,
          "velocity": 0.30708661417322836,
          "duration": 0.023255813953483084
        },
        {
          "name": "A5",
          "midi": 81,
          "time": 116.2441860464976,
          "velocity": 0.3543307086614173,
          "duration": 0.23255813953483084
        },
        {
          "name": "B6",
          "midi": 95,
          "time": 116.2441860464976,
          "velocity": 0.4409448818897638,
          "duration": 2.255813953487902
        },
        {
          "name": "F#5",
          "midi": 78,
          "time": 116.25581395347434,
          "velocity": 0.4094488188976378,
          "duration": 0.06976744186044925
        },
        {
          "name": "A6",
          "midi": 93,
          "time": 116.25581395347434,
          "velocity": 0.4330708661417323,
          "duration": 0.3604651162789878
        },
        {
          "name": "C#7",
          "midi": 97,
          "time": 116.25581395347434,
          "velocity": 0.14173228346456693,
          "duration": 0.04651162790696617
        },
        {
          "name": "G4",
          "midi": 67,
          "time": 116.26744186045109,
          "velocity": 0.5354330708661418,
          "duration": 1.2674418604648565
        },
        {
          "name": "E7",
          "midi": 100,
          "time": 116.26744186045109,
          "velocity": 0.29133858267716534,
          "duration": 0.29069767441853855
        },
        {
          "name": "A#3",
          "midi": 58,
          "time": 116.27906976742783,
          "velocity": 0.28346456692913385,
          "duration": 0.023255813953483084
        },
        {
          "name": "F2",
          "midi": 41,
          "time": 116.29069767440457,
          "velocity": 0.5039370078740157,
          "duration": 0.034883720930224626
        },
        {
          "name": "B3",
          "midi": 59,
          "time": 116.30232558138131,
          "velocity": 0.31496062992125984,
          "duration": 0.023255813953483084
        },
        {
          "name": "E3",
          "midi": 52,
          "time": 116.3255813953348,
          "velocity": 0.5590551181102362,
          "duration": 0.06976744186044925
        },
        {
          "name": "F#5",
          "midi": 78,
          "time": 116.36046511626502,
          "velocity": 0.2440944881889764,
          "duration": 0.12790697674415696
        },
        {
          "name": "A4",
          "midi": 69,
          "time": 116.37209302324176,
          "velocity": 0.1889763779527559,
          "duration": 0.034883720930224626
        },
        {
          "name": "B3",
          "midi": 59,
          "time": 116.3837209302185,
          "velocity": 0.25984251968503935,
          "duration": 0.05813953488370771
        },
        {
          "name": "F3",
          "midi": 53,
          "time": 116.39534883719524,
          "velocity": 0.5118110236220472,
          "duration": 0.011627906976741542
        },
        {
          "name": "D7",
          "midi": 98,
          "time": 116.39534883719524,
          "velocity": 0.18110236220472442,
          "duration": 0.05813953488370771
        },
        {
          "name": "E3",
          "midi": 52,
          "time": 116.40697674417198,
          "velocity": 0.4881889763779528,
          "duration": 0.023255813953483084
        },
        {
          "name": "E2",
          "midi": 40,
          "time": 116.43023255812547,
          "velocity": 0.5118110236220472,
          "duration": 0.023255813953483084
        },
        {
          "name": "A#4",
          "midi": 70,
          "time": 116.45348837207895,
          "velocity": 0.29133858267716534,
          "duration": 0.034883720930224626
        },
        {
          "name": "D5",
          "midi": 74,
          "time": 116.45348837207895,
          "velocity": 0.4251968503937008,
          "duration": 0.05813953488370771
        },
        {
          "name": "F7",
          "midi": 101,
          "time": 116.45348837207895,
          "velocity": 0.14960629921259844,
          "duration": 0.2558139534883139
        },
        {
          "name": "A#2",
          "midi": 46,
          "time": 116.46511627905569,
          "velocity": 0.41732283464566927,
          "duration": 0.023255813953483084
        },
        {
          "name": "E5",
          "midi": 76,
          "time": 116.46511627905569,
          "velocity": 0.25984251968503935,
          "duration": 0.11627906976741542
        },
        {
          "name": "C#6",
          "midi": 85,
          "time": 116.46511627905569,
          "velocity": 0.07874015748031496,
          "duration": 0.04651162790696617
        },
        {
          "name": "A#6",
          "midi": 94,
          "time": 116.46511627905569,
          "velocity": 0.13385826771653545,
          "duration": 0.04651162790696617
        },
        {
          "name": "C#7",
          "midi": 97,
          "time": 116.46511627905569,
          "velocity": 0.23622047244094488,
          "duration": 0.29069767441853855
        },
        {
          "name": "D7",
          "midi": 98,
          "time": 116.46511627905569,
          "velocity": 0.23622047244094488,
          "duration": 0.12790697674415696
        },
        {
          "name": "F#7",
          "midi": 102,
          "time": 116.46511627905569,
          "velocity": 0.15748031496062992,
          "duration": 0.034883720930224626
        },
        {
          "name": "D#6",
          "midi": 87,
          "time": 116.48837209300918,
          "velocity": 0.11023622047244094,
          "duration": 0.18604651162786467
        },
        {
          "name": "D#7",
          "midi": 99,
          "time": 116.48837209300918,
          "velocity": 0.13385826771653545,
          "duration": 0.11627906976741542
        },
        {
          "name": "F#5",
          "midi": 78,
          "time": 116.49999999998592,
          "velocity": 0.2204724409448819,
          "duration": 0.034883720930224626
        },
        {
          "name": "B5",
          "midi": 83,
          "time": 116.49999999998592,
          "velocity": 0.16535433070866143,
          "duration": 0.034883720930224626
        },
        {
          "name": "F#2",
          "midi": 42,
          "time": 116.51162790696266,
          "velocity": 0.47244094488188976,
          "duration": 0.023255813953483084
        },
        {
          "name": "A3",
          "midi": 57,
          "time": 116.5232558139394,
          "velocity": 0.2992125984251969,
          "duration": 0.023255813953483084
        },
        {
          "name": "A5",
          "midi": 81,
          "time": 116.5232558139394,
          "velocity": 0.2283464566929134,
          "duration": 0.3023255813952801
        },
        {
          "name": "F#7",
          "midi": 102,
          "time": 116.5232558139394,
          "velocity": 0.1732283464566929,
          "duration": 0.11627906976741542
        },
        {
          "name": "D5",
          "midi": 74,
          "time": 116.53488372091614,
          "velocity": 0.25196850393700787,
          "duration": 0.1395348837208985
        },
        {
          "name": "F#5",
          "midi": 78,
          "time": 116.54651162789288,
          "velocity": 0.2125984251968504,
          "duration": 0.09302325581393234
        },
        {
          "name": "B3",
          "midi": 59,
          "time": 116.55813953486962,
          "velocity": 0.30708661417322836,
          "duration": 0.023255813953483084
        },
        {
          "name": "B3",
          "midi": 59,
          "time": 116.59302325579985,
          "velocity": 0.30708661417322836,
          "duration": 0.023255813953483084
        },
        {
          "name": "G6",
          "midi": 91,
          "time": 116.59302325579985,
          "velocity": 0.18110236220472442,
          "duration": 0.17441860465112313
        },
        {
          "name": "F2",
          "midi": 41,
          "time": 116.60465116277659,
          "velocity": 0.5196850393700787,
          "duration": 0.023255813953483084
        },
        {
          "name": "D7",
          "midi": 98,
          "time": 116.60465116277659,
          "velocity": 0.23622047244094488,
          "duration": 0.10465116279067388
        },
        {
          "name": "B4",
          "midi": 71,
          "time": 116.61627906975333,
          "velocity": 0.16535433070866143,
          "duration": 0.034883720930224626
        },
        {
          "name": "E2",
          "midi": 40,
          "time": 116.62790697673007,
          "velocity": 0.4881889763779528,
          "duration": 0.034883720930224626
        },
        {
          "name": "C4",
          "midi": 60,
          "time": 116.65116279068356,
          "velocity": 0.23622047244094488,
          "duration": 0.034883720930224626
        },
        {
          "name": "E5",
          "midi": 76,
          "time": 116.65116279068356,
          "velocity": 0.28346456692913385,
          "duration": 0.17441860465112313
        },
        {
          "name": "F#5",
          "midi": 78,
          "time": 116.67441860463704,
          "velocity": 0.29133858267716534,
          "duration": 0.0813953488371908
        },
        {
          "name": "B5",
          "midi": 83,
          "time": 116.67441860463704,
          "velocity": 0.25984251968503935,
          "duration": 0.19767441860460622
        },
        {
          "name": "E7",
          "midi": 100,
          "time": 116.67441860463704,
          "velocity": 0.07086614173228346,
          "duration": 0.04651162790696617
        },
        {
          "name": "B2",
          "midi": 47,
          "time": 116.68604651161378,
          "velocity": 0.5196850393700787,
          "duration": 0.011627906976741542
        },
        {
          "name": "B4",
          "midi": 71,
          "time": 116.68604651161378,
          "velocity": 0.28346456692913385,
          "duration": 0.11627906976741542
        },
        {
          "name": "F#7",
          "midi": 102,
          "time": 116.68604651161378,
          "velocity": 0.11023622047244094,
          "duration": 0.034883720930224626
        },
        {
          "name": "D3",
          "midi": 50,
          "time": 116.69767441859052,
          "velocity": 0.5590551181102362,
          "duration": 0.011627906976741542
        },
        {
          "name": "B3",
          "midi": 59,
          "time": 116.69767441859052,
          "velocity": 0.3858267716535433,
          "duration": 0.023255813953483084
        },
        {
          "name": "F2",
          "midi": 41,
          "time": 116.70930232556726,
          "velocity": 0.4094488188976378,
          "duration": 0.023255813953483084
        },
        {
          "name": "E3",
          "midi": 52,
          "time": 116.70930232556726,
          "velocity": 0.5118110236220472,
          "duration": 0.09302325581393234
        },
        {
          "name": "B3",
          "midi": 59,
          "time": 116.73255813952075,
          "velocity": 0.3937007874015748,
          "duration": 0.12790697674415696
        },
        {
          "name": "D7",
          "midi": 98,
          "time": 116.73255813952075,
          "velocity": 0.11811023622047244,
          "duration": 0.034883720930224626
        },
        {
          "name": "E2",
          "midi": 40,
          "time": 116.75581395347423,
          "velocity": 0.49606299212598426,
          "duration": 0.023255813953483084
        },
        {
          "name": "F#7",
          "midi": 102,
          "time": 116.75581395347423,
          "velocity": 0.1889763779527559,
          "duration": 0.5813953488371055
        },
        {
          "name": "C3",
          "midi": 48,
          "time": 116.79069767440446,
          "velocity": 0.4645669291338583,
          "duration": 0.023255813953483084
        },
        {
          "name": "D6",
          "midi": 86,
          "time": 116.79069767440446,
          "velocity": 0.1968503937007874,
          "duration": 0.18604651162787889
        },
        {
          "name": "F#5",
          "midi": 78,
          "time": 116.8023255813812,
          "velocity": 0.15748031496062992,
          "duration": 0.12790697674415696
        },
        {
          "name": "G6",
          "midi": 91,
          "time": 116.81395348835794,
          "velocity": 0.13385826771653545,
          "duration": 0.06976744186044925
        },
        {
          "name": "C3",
          "midi": 48,
          "time": 116.84883720928816,
          "velocity": 0.23622047244094488,
          "duration": 0.023255813953483084
        },
        {
          "name": "A6",
          "midi": 93,
          "time": 116.8604651162649,
          "velocity": 0.11023622047244094,
          "duration": 0.06976744186044925
        },
        {
          "name": "B5",
          "midi": 83,
          "time": 116.88372093021839,
          "velocity": 0.1968503937007874,
          "duration": 0.081395348837205
        },
        {
          "name": "C3",
          "midi": 48,
          "time": 116.89534883719513,
          "velocity": 0.5669291338582677,
          "duration": 0.023255813953483084
        },
        {
          "name": "B3",
          "midi": 59,
          "time": 116.89534883719513,
          "velocity": 0.4094488188976378,
          "duration": 0.06976744186046346
        },
        {
          "name": "D7",
          "midi": 98,
          "time": 116.89534883719513,
          "velocity": 0.2204724409448819,
          "duration": 0.11627906976742963
        },
        {
          "name": "E4",
          "midi": 64,
          "time": 116.90697674417187,
          "velocity": 0.3543307086614173,
          "duration": 0.3488372093022747
        },
        {
          "name": "C5",
          "midi": 72,
          "time": 116.90697674417187,
          "velocity": 0.2440944881889764,
          "duration": 0.023255813953483084
        },
        {
          "name": "C#7",
          "midi": 97,
          "time": 116.90697674417187,
          "velocity": 0.2047244094488189,
          "duration": 0.05813953488372192
        },
        {
          "name": "D3",
          "midi": 50,
          "time": 116.91860465114861,
          "velocity": 0.5354330708661418,
          "duration": 0.011627906976741542
        },
        {
          "name": "G6",
          "midi": 91,
          "time": 116.91860465114861,
          "velocity": 0.13385826771653545,
          "duration": 0.05813953488372192
        },
        {
          "name": "E3",
          "midi": 52,
          "time": 116.93023255812535,
          "velocity": 0.5669291338582677,
          "duration": 0.12790697674417117
        },
        {
          "name": "E2",
          "midi": 40,
          "time": 116.9651162790556,
          "velocity": 0.49606299212598426,
          "duration": 0.034883720930224626
        },
        {
          "name": "B3",
          "midi": 59,
          "time": 116.97674418603233,
          "velocity": 0.36220472440944884,
          "duration": 0.05813953488370771
        },
        {
          "name": "A5",
          "midi": 81,
          "time": 116.99999999998582,
          "velocity": 0.07874015748031496,
          "duration": 0.06976744186044925
        },
        {
          "name": "D6",
          "midi": 86,
          "time": 116.99999999998582,
          "velocity": 0.1889763779527559,
          "duration": 0.18604651162787889
        },
        {
          "name": "B2",
          "midi": 47,
          "time": 117.01162790696256,
          "velocity": 0.5118110236220472,
          "duration": 0.011627906976741542
        },
        {
          "name": "C3",
          "midi": 48,
          "time": 117.05813953486953,
          "velocity": 0.5118110236220472,
          "duration": 0.011627906976741542
        },
        {
          "name": "F3",
          "midi": 53,
          "time": 117.05813953486953,
          "velocity": 0.5275590551181102,
          "duration": 0.011627906976741542
        },
        {
          "name": "B2",
          "midi": 47,
          "time": 117.06976744184627,
          "velocity": 0.5748031496062992,
          "duration": 0.06976744186046346
        },
        {
          "name": "F2",
          "midi": 41,
          "time": 117.11627906975325,
          "velocity": 0.5275590551181102,
          "duration": 0.011627906976741542
        },
        {
          "name": "F#5",
          "midi": 78,
          "time": 117.11627906975325,
          "velocity": 0.3543307086614173,
          "duration": 0.034883720930224626
        },
        {
          "name": "C#7",
          "midi": 97,
          "time": 117.11627906975325,
          "velocity": 0.25984251968503935,
          "duration": 0.3604651162789878
        },
        {
          "name": "D#7",
          "midi": 99,
          "time": 117.12790697672999,
          "velocity": 0.07086614173228346,
          "duration": 0.04651162790696617
        },
        {
          "name": "C3",
          "midi": 48,
          "time": 117.13953488370673,
          "velocity": 0.5590551181102362,
          "duration": 0.023255813953483084
        },
        {
          "name": "B3",
          "midi": 59,
          "time": 117.13953488370673,
          "velocity": 0.30708661417322836,
          "duration": 0.15116279069764005
        },
        {
          "name": "A2",
          "midi": 45,
          "time": 117.16279069766021,
          "velocity": 0.5511811023622047,
          "duration": 0.011627906976741542
        },
        {
          "name": "D#6",
          "midi": 87,
          "time": 117.16279069766021,
          "velocity": 0.12598425196850394,
          "duration": 0.15116279069764005
        },
        {
          "name": "F#2",
          "midi": 42,
          "time": 117.17441860463695,
          "velocity": 0.5118110236220472,
          "duration": 0.011627906976741542
        },
        {
          "name": "B2",
          "midi": 47,
          "time": 117.17441860463695,
          "velocity": 0.5275590551181102,
          "duration": 0.011627906976741542
        },
        {
          "name": "A2",
          "midi": 45,
          "time": 117.1860465116137,
          "velocity": 0.5511811023622047,
          "duration": 0.011627906976741542
        },
        {
          "name": "F#5",
          "midi": 78,
          "time": 117.19767441859044,
          "velocity": 0.33858267716535434,
          "duration": 0.11627906976741542
        },
        {
          "name": "C7",
          "midi": 96,
          "time": 117.19767441859044,
          "velocity": 0.13385826771653545,
          "duration": 0.034883720930224626
        },
        {
          "name": "F3",
          "midi": 53,
          "time": 117.20930232556718,
          "velocity": 0.36220472440944884,
          "duration": 0.023255813953483084
        },
        {
          "name": "G#2",
          "midi": 44,
          "time": 117.23255813952066,
          "velocity": 0.4251968503937008,
          "duration": 0.023255813953483084
        },
        {
          "name": "F7",
          "midi": 101,
          "time": 117.23255813952066,
          "velocity": 0.23622047244094488,
          "duration": 0.406976744185954
        },
        {
          "name": "F2",
          "midi": 41,
          "time": 117.25581395347415,
          "velocity": 0.44881889763779526,
          "duration": 0.023255813953483084
        },
        {
          "name": "B2",
          "midi": 47,
          "time": 117.26744186045089,
          "velocity": 0.36220472440944884,
          "duration": 0.023255813953483084
        },
        {
          "name": "E4",
          "midi": 64,
          "time": 117.26744186045089,
          "velocity": 0.23622047244094488,
          "duration": 0.04651162790696617
        },
        {
          "name": "D7",
          "midi": 98,
          "time": 117.26744186045089,
          "velocity": 0.15748031496062992,
          "duration": 0.09302325581393234
        },
        {
          "name": "E7",
          "midi": 100,
          "time": 117.27906976742763,
          "velocity": 0.1968503937007874,
          "duration": 0.34883720930224626
        },
        {
          "name": "D6",
          "midi": 86,
          "time": 117.29069767440437,
          "velocity": 0.18110236220472442,
          "duration": 0.09302325581393234
        },
        {
          "name": "D5",
          "midi": 74,
          "time": 117.30232558138111,
          "velocity": 0.4015748031496063,
          "duration": 0.05813953488370771
        },
        {
          "name": "C4",
          "midi": 60,
          "time": 117.31395348835785,
          "velocity": 0.5039370078740157,
          "duration": 0.034883720930224626
        },
        {
          "name": "G#6",
          "midi": 92,
          "time": 117.31395348835785,
          "velocity": 0.10236220472440945,
          "duration": 0.05813953488370771
        },
        {
          "name": "A#4",
          "midi": 70,
          "time": 117.3255813953346,
          "velocity": 0.28346456692913385,
          "duration": 0.023255813953483084
        },
        {
          "name": "A5",
          "midi": 81,
          "time": 117.3255813953346,
          "velocity": 0.30708661417322836,
          "duration": 0.34883720930224626
        },
        {
          "name": "A#6",
          "midi": 94,
          "time": 117.3255813953346,
          "velocity": 0.15748031496062992,
          "duration": 0.11627906976741542
        },
        {
          "name": "G#2",
          "midi": 44,
          "time": 117.33720930231134,
          "velocity": 0.48031496062992124,
          "duration": 0.023255813953483084
        },
        {
          "name": "E4",
          "midi": 64,
          "time": 117.33720930231134,
          "velocity": 0.28346456692913385,
          "duration": 0.023255813953483084
        },
        {
          "name": "C6",
          "midi": 84,
          "time": 117.33720930231134,
          "velocity": 0.11811023622047244,
          "duration": 0.05813953488370771
        },
        {
          "name": "D#7",
          "midi": 99,
          "time": 117.33720930231134,
          "velocity": 0.25984251968503935,
          "duration": 0.3023255813952801
        },
        {
          "name": "B4",
          "midi": 71,
          "time": 117.34883720928808,
          "velocity": 0.3700787401574803,
          "duration": 0.406976744185954
        },
        {
          "name": "F#5",
          "midi": 78,
          "time": 117.34883720928808,
          "velocity": 0.23622047244094488,
          "duration": 0.0813953488371908
        },
        {
          "name": "A#3",
          "midi": 58,
          "time": 117.36046511626482,
          "velocity": 0.31496062992125984,
          "duration": 0.023255813953483084
        },
        {
          "name": "F#7",
          "midi": 102,
          "time": 117.36046511626482,
          "velocity": 0.28346456692913385,
          "duration": 0.7209302325579898
        },
        {
          "name": "D7",
          "midi": 98,
          "time": 117.37209302324156,
          "velocity": 0.25984251968503935,
          "duration": 1.1395348837206853
        },
        {
          "name": "A3",
          "midi": 57,
          "time": 117.3837209302183,
          "velocity": 0.2755905511811024,
          "duration": 0.023255813953483084
        },
        {
          "name": "D5",
          "midi": 74,
          "time": 117.39534883719504,
          "velocity": 0.25196850393700787,
          "duration": 0.10465116279067388
        },
        {
          "name": "G#6",
          "midi": 92,
          "time": 117.39534883719504,
          "velocity": 0.15748031496062992,
          "duration": 0.10465116279067388
        },
        {
          "name": "E5",
          "midi": 76,
          "time": 117.40697674417179,
          "velocity": 0.11811023622047244,
          "duration": 0.04651162790696617
        },
        {
          "name": "A#3",
          "midi": 58,
          "time": 117.43023255812527,
          "velocity": 0.3228346456692913,
          "duration": 0.04651162790696617
        },
        {
          "name": "D#3",
          "midi": 51,
          "time": 117.45348837207875,
          "velocity": 0.36220472440944884,
          "duration": 0.023255813953483084
        },
        {
          "name": "E4",
          "midi": 64,
          "time": 117.4651162790555,
          "velocity": 0.28346456692913385,
          "duration": 0.0813953488371908
        },
        {
          "name": "E3",
          "midi": 52,
          "time": 117.47674418603224,
          "velocity": 0.3779527559055118,
          "duration": 0.06976744186044925
        },
        {
          "name": "C#7",
          "midi": 97,
          "time": 117.48837209300898,
          "velocity": 0.2440944881889764,
          "duration": 0.19767441860460622
        },
        {
          "name": "G6",
          "midi": 91,
          "time": 117.49999999998572,
          "velocity": 0.16535433070866143,
          "duration": 0.1395348837208985
        },
        {
          "name": "F#5",
          "midi": 78,
          "time": 117.5232558139392,
          "velocity": 0.30708661417322836,
          "duration": 0.09302325581393234
        },
        {
          "name": "A#6",
          "midi": 94,
          "time": 117.53488372091594,
          "velocity": 0.12598425196850394,
          "duration": 0.04651162790696617
        },
        {
          "name": "C2",
          "midi": 36,
          "time": 117.54651162789268,
          "velocity": 0.5118110236220472,
          "duration": 0.011627906976741542
        },
        {
          "name": "G#2",
          "midi": 44,
          "time": 117.54651162789268,
          "velocity": 0.49606299212598426,
          "duration": 0.023255813953483084
        },
        {
          "name": "G4",
          "midi": 67,
          "time": 117.54651162789268,
          "velocity": 0.4409448818897638,
          "duration": 0.8372093023254052
        },
        {
          "name": "D6",
          "midi": 86,
          "time": 117.54651162789268,
          "velocity": 0.09448818897637795,
          "duration": 0.04651162790696617
        },
        {
          "name": "E4",
          "midi": 64,
          "time": 117.55813953486943,
          "velocity": 0.2755905511811024,
          "duration": 0.034883720930224626
        },
        {
          "name": "B3",
          "midi": 59,
          "time": 117.56976744184617,
          "velocity": 0.41732283464566927,
          "duration": 0.20930232558134776
        },
        {
          "name": "C#6",
          "midi": 85,
          "time": 117.58139534882291,
          "velocity": 0.11023622047244094,
          "duration": 0.04651162790696617
        },
        {
          "name": "G#6",
          "midi": 92,
          "time": 117.58139534882291,
          "velocity": 0.10236220472440945,
          "duration": 0.05813953488370771
        },
        {
          "name": "C7",
          "midi": 96,
          "time": 117.58139534882291,
          "velocity": 0.14960629921259844,
          "duration": 0.034883720930224626
        },
        {
          "name": "G#2",
          "midi": 44,
          "time": 117.59302325579965,
          "velocity": 0.48031496062992124,
          "duration": 0.023255813953483084
        },
        {
          "name": "F3",
          "midi": 53,
          "time": 117.61627906975313,
          "velocity": 0.3937007874015748,
          "duration": 0.023255813953483084
        },
        {
          "name": "F2",
          "midi": 41,
          "time": 117.62790697672988,
          "velocity": 0.5433070866141733,
          "duration": 0.0813953488371908
        },
        {
          "name": "C7",
          "midi": 96,
          "time": 117.63953488370662,
          "velocity": 0.14173228346456693,
          "duration": 0.1627906976743816
        },
        {
          "name": "E7",
          "midi": 100,
          "time": 117.65116279068336,
          "velocity": 0.11811023622047244,
          "duration": 0.034883720930224626
        },
        {
          "name": "E4",
          "midi": 64,
          "time": 117.6627906976601,
          "velocity": 0.1732283464566929,
          "duration": 0.034883720930224626
        },
        {
          "name": "D#3",
          "midi": 51,
          "time": 117.67441860463684,
          "velocity": 0.3543307086614173,
          "duration": 0.023255813953483084
        },
        {
          "name": "F#5",
          "midi": 78,
          "time": 117.68604651161358,
          "velocity": 0.12598425196850394,
          "duration": 0.09302325581393234
        },
        {
          "name": "D6",
          "midi": 86,
          "time": 117.69767441859032,
          "velocity": 0.14960629921259844,
          "duration": 0.05813953488370771
        },
        {
          "name": "C#7",
          "midi": 97,
          "time": 117.69767441859032,
          "velocity": 0.2125984251968504,
          "duration": 0.12790697674415696
        },
        {
          "name": "E4",
          "midi": 64,
          "time": 117.70930232556707,
          "velocity": 0.3858267716535433,
          "duration": 0.29069767441855277
        },
        {
          "name": "D#7",
          "midi": 99,
          "time": 117.70930232556707,
          "velocity": 0.07086614173228346,
          "duration": 0.034883720930224626
        },
        {
          "name": "E7",
          "midi": 100,
          "time": 117.72093023254381,
          "velocity": 0.15748031496062992,
          "duration": 0.06976744186044925
        },
        {
          "name": "F3",
          "midi": 53,
          "time": 117.73255813952055,
          "velocity": 0.2755905511811024,
          "duration": 0.023255813953483084
        },
        {
          "name": "F2",
          "midi": 41,
          "time": 117.74418604649729,
          "velocity": 0.5748031496062992,
          "duration": 0.023255813953483084
        },
        {
          "name": "C5",
          "midi": 72,
          "time": 117.75581395347403,
          "velocity": 0.30708661417322836,
          "duration": 0.023255813953483084
        },
        {
          "name": "G#2",
          "midi": 44,
          "time": 117.76744186045077,
          "velocity": 0.5984251968503937,
          "duration": 0.011627906976741542
        },
        {
          "name": "D#7",
          "midi": 99,
          "time": 117.76744186045077,
          "velocity": 0.07874015748031496,
          "duration": 0.04651162790696617
        },
        {
          "name": "F7",
          "midi": 101,
          "time": 117.76744186045077,
          "velocity": 0.13385826771653545,
          "duration": 0.034883720930224626
        },
        {
          "name": "G2",
          "midi": 43,
          "time": 117.77906976742752,
          "velocity": 0.5196850393700787,
          "duration": 0.011627906976741542
        },
        {
          "name": "B4",
          "midi": 71,
          "time": 117.77906976742752,
          "velocity": 0.33858267716535434,
          "duration": 0.18604651162787889
        },
        {
          "name": "E3",
          "midi": 52,
          "time": 117.802325581381,
          "velocity": 0.5196850393700787,
          "duration": 0.06976744186046346
        },
        {
          "name": "B3",
          "midi": 59,
          "time": 117.802325581381,
          "velocity": 0.3858267716535433,
          "duration": 0.023255813953483084
        },
        {
          "name": "B2",
          "midi": 47,
          "time": 117.82558139533448,
          "velocity": 0.4881889763779528,
          "duration": 0.03488372093023884
        },
        {
          "name": "F#6",
          "midi": 90,
          "time": 117.82558139533448,
          "velocity": 0.07874015748031496,
          "duration": 0.06976744186046346
        },
        {
          "name": "F7",
          "midi": 101,
          "time": 117.82558139533448,
          "velocity": 0.10236220472440945,
          "duration": 0.05813953488372192
        },
        {
          "name": "E2",
          "midi": 40,
          "time": 117.87209302324146,
          "velocity": 0.4094488188976378,
          "duration": 0.023255813953483084
        },
        {
          "name": "E3",
          "midi": 52,
          "time": 117.89534883719494,
          "velocity": 0.33070866141732286,
          "duration": 0.023255813953483084
        },
        {
          "name": "B2",
          "midi": 47,
          "time": 117.91860465114843,
          "velocity": 0.25984251968503935,
          "duration": 0.023255813953483084
        },
        {
          "name": "F3",
          "midi": 53,
          "time": 117.91860465114843,
          "velocity": 0.28346456692913385,
          "duration": 0.034883720930224626
        },
        {
          "name": "F#6",
          "midi": 90,
          "time": 117.91860465114843,
          "velocity": 0.07874015748031496,
          "duration": 0.034883720930224626
        },
        {
          "name": "C6",
          "midi": 84,
          "time": 117.94186046510191,
          "velocity": 0.09448818897637795,
          "duration": 0.04651162790696617
        },
        {
          "name": "C7",
          "midi": 96,
          "time": 117.94186046510191,
          "velocity": 0.10236220472440945,
          "duration": 0.04651162790696617
        },
        {
          "name": "D#2",
          "midi": 39,
          "time": 117.95348837207865,
          "velocity": 0.5354330708661418,
          "duration": 0.023255813953483084
        },
        {
          "name": "D6",
          "midi": 86,
          "time": 117.9651162790554,
          "velocity": 0.14960629921259844,
          "duration": 0.09302325581393234
        },
        {
          "name": "A3",
          "midi": 57,
          "time": 117.97674418603214,
          "velocity": 0.28346456692913385,
          "duration": 0.023255813953483084
        },
        {
          "name": "B4",
          "midi": 71,
          "time": 117.97674418603214,
          "velocity": 0.3779527559055118,
          "duration": 0.24418604651157239
        },
        {
          "name": "C#7",
          "midi": 97,
          "time": 117.97674418603214,
          "velocity": 0.11023622047244094,
          "duration": 0.034883720930224626
        },
        {
          "name": "G#2",
          "midi": 44,
          "time": 117.98837209300888,
          "velocity": 0.4094488188976378,
          "duration": 0.023255813953483084
        },
        {
          "name": "F#6",
          "midi": 90,
          "time": 117.99999999998562,
          "velocity": 0.09448818897637795,
          "duration": 0.15116279069764005
        },
        {
          "name": "E3",
          "midi": 52,
          "time": 118.01162790696236,
          "velocity": 0.44881889763779526,
          "duration": 0.023255813953483084
        },
        {
          "name": "B3",
          "midi": 59,
          "time": 118.01162790696236,
          "velocity": 0.33070866141732286,
          "duration": 0.034883720930224626
        },
        {
          "name": "F#5",
          "midi": 78,
          "time": 118.01162790696236,
          "velocity": 0.3228346456692913,
          "duration": 0.11627906976741542
        },
        {
          "name": "F7",
          "midi": 101,
          "time": 118.0232558139391,
          "velocity": 0.1968503937007874,
          "duration": 0.20930232558134776
        },
        {
          "name": "E3",
          "midi": 52,
          "time": 118.04651162789258,
          "velocity": 0.5511811023622047,
          "duration": 0.034883720930224626
        },
        {
          "name": "C4",
          "midi": 60,
          "time": 118.04651162789258,
          "velocity": 0.29133858267716534,
          "duration": 0.023255813953483084
        },
        {
          "name": "A#6",
          "midi": 94,
          "time": 118.06976744184607,
          "velocity": 0.33858267716535434,
          "duration": 0.17441860465112313
        },
        {
          "name": "D#3",
          "midi": 51,
          "time": 118.08139534882281,
          "velocity": 0.5511811023622047,
          "duration": 0.011627906976741542
        },
        {
          "name": "B3",
          "midi": 59,
          "time": 118.08139534882281,
          "velocity": 0.28346456692913385,
          "duration": 0.0813953488371908
        },
        {
          "name": "E4",
          "midi": 64,
          "time": 118.08139534882281,
          "velocity": 0.16535433070866143,
          "duration": 0.04651162790696617
        },
        {
          "name": "E3",
          "midi": 52,
          "time": 118.09302325579955,
          "velocity": 0.5275590551181102,
          "duration": 0.05813953488370771
        },
        {
          "name": "E2",
          "midi": 40,
          "time": 118.11627906975303,
          "velocity": 0.4251968503937008,
          "duration": 0.023255813953483084
        },
        {
          "name": "D6",
          "midi": 86,
          "time": 118.12790697672978,
          "velocity": 0.09448818897637795,
          "duration": 0.04651162790696617
        },
        {
          "name": "C7",
          "midi": 96,
          "time": 118.12790697672978,
          "velocity": 0.13385826771653545,
          "duration": 0.04651162790696617
        },
        {
          "name": "E2",
          "midi": 40,
          "time": 118.15116279068326,
          "velocity": 0.5275590551181102,
          "duration": 0.011627906976741542
        },
        {
          "name": "F2",
          "midi": 41,
          "time": 118.16279069766,
          "velocity": 0.5511811023622047,
          "duration": 0.011627906976741542
        },
        {
          "name": "A6",
          "midi": 93,
          "time": 118.16279069766,
          "velocity": 0.25196850393700787,
          "duration": 0.034883720930224626
        },
        {
          "name": "E7",
          "midi": 100,
          "time": 118.16279069766,
          "velocity": 0.14960629921259844,
          "duration": 0.11627906976741542
        },
        {
          "name": "A#3",
          "midi": 58,
          "time": 118.17441860463674,
          "velocity": 0.4881889763779528,
          "duration": 0.034883720930224626
        },
        {
          "name": "F4",
          "midi": 65,
          "time": 118.17441860463674,
          "velocity": 0.4094488188976378,
          "duration": 0.023255813953483084
        },
        {
          "name": "D5",
          "midi": 74,
          "time": 118.17441860463674,
          "velocity": 0.3228346456692913,
          "duration": 0.2209302325580893
        },
        {
          "name": "F#5",
          "midi": 78,
          "time": 118.17441860463674,
          "velocity": 0.23622047244094488,
          "duration": 0.04651162790696617
        },
        {
          "name": "A5",
          "midi": 81,
          "time": 118.18604651161348,
          "velocity": 0.28346456692913385,
          "duration": 0.2558139534883139
        },
        {
          "name": "C#6",
          "midi": 85,
          "time": 118.18604651161348,
          "velocity": 0.14173228346456693,
          "duration": 0.034883720930224626
        },
        {
          "name": "E6",
          "midi": 88,
          "time": 118.18604651161348,
          "velocity": 0.14173228346456693,
          "duration": 0.0813953488371908
        },
        {
          "name": "C#7",
          "midi": 97,
          "time": 118.18604651161348,
          "velocity": 0.18110236220472442,
          "duration": 0.10465116279067388
        },
        {
          "name": "E5",
          "midi": 76,
          "time": 118.19767441859022,
          "velocity": 0.1889763779527559,
          "duration": 0.04651162790696617
        },
        {
          "name": "F2",
          "midi": 41,
          "time": 118.20930232556697,
          "velocity": 0.4566929133858268,
          "duration": 0.023255813953483084
        },
        {
          "name": "A3",
          "midi": 57,
          "time": 118.20930232556697,
          "velocity": 0.28346456692913385,
          "duration": 0.023255813953483084
        },
        {
          "name": "C6",
          "midi": 84,
          "time": 118.20930232556697,
          "velocity": 0.14173228346456693,
          "duration": 0.04651162790696617
        },
        {
          "name": "B5",
          "midi": 83,
          "time": 118.22093023254371,
          "velocity": 0.10236220472440945,
          "duration": 0.034883720930224626
        },
        {
          "name": "G#2",
          "midi": 44,
          "time": 118.23255813952045,
          "velocity": 0.5039370078740157,
          "duration": 0.034883720930224626
        },
        {
          "name": "F#7",
          "midi": 102,
          "time": 118.23255813952045,
          "velocity": 0.12598425196850394,
          "duration": 0.05813953488370771
        },
        {
          "name": "F4",
          "midi": 65,
          "time": 118.24418604649719,
          "velocity": 0.2992125984251969,
          "duration": 0.023255813953483084
        },
        {
          "name": "E3",
          "midi": 52,
          "time": 118.25581395347393,
          "velocity": 0.28346456692913385,
          "duration": 0.034883720930224626
        },
        {
          "name": "B3",
          "midi": 59,
          "time": 118.26744186045067,
          "velocity": 0.4251968503937008,
          "duration": 0.1395348837208985
        },
        {
          "name": "F#5",
          "midi": 78,
          "time": 118.26744186045067,
          "velocity": 0.1732283464566929,
          "duration": 0.0813953488371908
        },
        {
          "name": "F2",
          "midi": 41,
          "time": 118.27906976742742,
          "velocity": 0.5433070866141733,
          "duration": 0.06976744186044925
        },
        {
          "name": "C7",
          "midi": 96,
          "time": 118.27906976742742,
          "velocity": 0.07874015748031496,
          "duration": 0.0813953488371908
        },
        {
          "name": "E4",
          "midi": 64,
          "time": 118.3023255813809,
          "velocity": 0.2755905511811024,
          "duration": 0.023255813953483084
        },
        {
          "name": "C#7",
          "midi": 97,
          "time": 118.31395348835764,
          "velocity": 0.23622047244094488,
          "duration": 0.1627906976743816
        },
        {
          "name": "F7",
          "midi": 101,
          "time": 118.32558139533438,
          "velocity": 0.08661417322834646,
          "duration": 0.034883720930224626
        },
        {
          "name": "E2",
          "midi": 40,
          "time": 118.34883720928786,
          "velocity": 0.36220472440944884,
          "duration": 0.023255813953483084
        },
        {
          "name": "C#6",
          "midi": 85,
          "time": 118.34883720928786,
          "velocity": 0.07874015748031496,
          "duration": 0.034883720930224626
        },
        {
          "name": "A#6",
          "midi": 94,
          "time": 118.3604651162646,
          "velocity": 0.2125984251968504,
          "duration": 0.24418604651157239
        },
        {
          "name": "A#2",
          "midi": 46,
          "time": 118.37209302324135,
          "velocity": 0.3543307086614173,
          "duration": 0.023255813953483084
        },
        {
          "name": "D#7",
          "midi": 99,
          "time": 118.37209302324135,
          "velocity": 0.2677165354330709,
          "duration": 0.3255813953487632
        },
        {
          "name": "F7",
          "midi": 101,
          "time": 118.37209302324135,
          "velocity": 0.14173228346456693,
          "duration": 0.05813953488370771
        },
        {
          "name": "F3",
          "midi": 53,
          "time": 118.38372093021809,
          "velocity": 0.3937007874015748,
          "duration": 0.023255813953483084
        },
        {
          "name": "E5",
          "midi": 76,
          "time": 118.38372093021809,
          "velocity": 0.2755905511811024,
          "duration": 0.1627906976743816
        },
        {
          "name": "C7",
          "midi": 96,
          "time": 118.38372093021809,
          "velocity": 0.10236220472440945,
          "duration": 0.034883720930224626
        },
        {
          "name": "E4",
          "midi": 64,
          "time": 118.39534883719483,
          "velocity": 0.25196850393700787,
          "duration": 0.034883720930224626
        },
        {
          "name": "G4",
          "midi": 67,
          "time": 118.39534883719483,
          "velocity": 0.3858267716535433,
          "duration": 0.23255813953483084
        },
        {
          "name": "F#5",
          "midi": 78,
          "time": 118.39534883719483,
          "velocity": 0.3543307086614173,
          "duration": 0.0813953488371908
        },
        {
          "name": "E7",
          "midi": 100,
          "time": 118.39534883719483,
          "velocity": 0.18110236220472442,
          "duration": 0.09302325581393234
        },
        {
          "name": "G2",
          "midi": 43,
          "time": 118.40697674417157,
          "velocity": 0.5511811023622047,
          "duration": 0.011627906976741542
        },
        {
          "name": "D6",
          "midi": 86,
          "time": 118.40697674417157,
          "velocity": 0.14960629921259844,
          "duration": 0.04651162790696617
        },
        {
          "name": "F#6",
          "midi": 90,
          "time": 118.40697674417157,
          "velocity": 0.36220472440944884,
          "duration": 0.3023255813952801
        },
        {
          "name": "F#2",
          "midi": 42,
          "time": 118.41860465114831,
          "velocity": 0.5590551181102362,
          "duration": 0.011627906976741542
        },
        {
          "name": "C3",
          "midi": 48,
          "time": 118.4418604651018,
          "velocity": 0.4881889763779528,
          "duration": 0.023255813953483084
        },
        {
          "name": "B3",
          "midi": 59,
          "time": 118.45348837207854,
          "velocity": 0.4094488188976378,
          "duration": 0.12790697674415696
        },
        {
          "name": "E3",
          "midi": 52,
          "time": 118.46511627905528,
          "velocity": 0.5354330708661418,
          "duration": 0.06976744186044925
        },
        {
          "name": "A5",
          "midi": 81,
          "time": 118.46511627905528,
          "velocity": 0.13385826771653545,
          "duration": 0.04651162790696617
        },
        {
          "name": "B6",
          "midi": 95,
          "time": 118.51162790696225,
          "velocity": 0.31496062992125984,
          "duration": 0.4418604651161786
        },
        {
          "name": "C#7",
          "midi": 97,
          "time": 118.52325581393899,
          "velocity": 0.14173228346456693,
          "duration": 0.04651162790696617
        },
        {
          "name": "D6",
          "midi": 86,
          "time": 118.54651162789247,
          "velocity": 0.07086614173228346,
          "duration": 0.0813953488371908
        },
        {
          "name": "F2",
          "midi": 41,
          "time": 118.5813953488227,
          "velocity": 0.33858267716535434,
          "duration": 0.034883720930224626
        },
        {
          "name": "E7",
          "midi": 100,
          "time": 118.5813953488227,
          "velocity": 0.11023622047244094,
          "duration": 0.04651162790696617
        },
        {
          "name": "F#5",
          "midi": 78,
          "time": 118.60465116277618,
          "velocity": 0.5275590551181102,
          "duration": 0.4651162790696617
        },
        {
          "name": "C3",
          "midi": 48,
          "time": 118.61627906975292,
          "velocity": 0.5354330708661418,
          "duration": 0.023255813953483084
        },
        {
          "name": "D7",
          "midi": 98,
          "time": 118.61627906975292,
          "velocity": 0.16535433070866143,
          "duration": 0.0813953488371908
        },
        {
          "name": "E4",
          "midi": 64,
          "time": 118.62790697672966,
          "velocity": 0.2204724409448819,
          "duration": 0.09302325581393234
        },
        {
          "name": "C#6",
          "midi": 85,
          "time": 118.62790697672966,
          "velocity": 0.11023622047244094,
          "duration": 0.05813953488370771
        },
        {
          "name": "C#7",
          "midi": 97,
          "time": 118.62790697672966,
          "velocity": 0.1732283464566929,
          "duration": 0.1395348837208985
        },
        {
          "name": "E3",
          "midi": 52,
          "time": 118.65116279068314,
          "velocity": 0.5511811023622047,
          "duration": 0.12790697674415696
        },
        {
          "name": "B3",
          "midi": 59,
          "time": 118.65116279068314,
          "velocity": 0.3779527559055118,
          "duration": 0.034883720930224626
        },
        {
          "name": "G4",
          "midi": 67,
          "time": 118.65116279068314,
          "velocity": 0.2677165354330709,
          "duration": 0.034883720930224626
        },
        {
          "name": "D#5",
          "midi": 75,
          "time": 118.65116279068314,
          "velocity": 0.3543307086614173,
          "duration": 0.034883720930224626
        },
        {
          "name": "A#6",
          "midi": 94,
          "time": 118.65116279068314,
          "velocity": 0.1968503937007874,
          "duration": 0.034883720930224626
        },
        {
          "name": "E7",
          "midi": 100,
          "time": 118.65116279068314,
          "velocity": 0.2283464566929134,
          "duration": 0.2209302325580893
        },
        {
          "name": "F2",
          "midi": 41,
          "time": 118.67441860463663,
          "velocity": 0.4645669291338583,
          "duration": 0.023255813953483084
        },
        {
          "name": "E5",
          "midi": 76,
          "time": 118.68604651161337,
          "velocity": 0.3858267716535433,
          "duration": 0.15116279069764005
        },
        {
          "name": "B3",
          "midi": 59,
          "time": 118.69767441859011,
          "velocity": 0.3464566929133858,
          "duration": 0.05813953488370771
        },
        {
          "name": "C3",
          "midi": 48,
          "time": 118.7209302325436,
          "velocity": 0.5118110236220472,
          "duration": 0.011627906976741542
        },
        {
          "name": "B2",
          "midi": 47,
          "time": 118.73255813952034,
          "velocity": 0.5196850393700787,
          "duration": 0.011627906976741542
        },
        {
          "name": "F#4",
          "midi": 66,
          "time": 118.74418604649708,
          "velocity": 0.2440944881889764,
          "duration": 0.023255813953483084
        },
        {
          "name": "C3",
          "midi": 48,
          "time": 118.76744186045056,
          "velocity": 0.5511811023622047,
          "duration": 0.034883720930224626
        },
        {
          "name": "F3",
          "midi": 53,
          "time": 118.7790697674273,
          "velocity": 0.5118110236220472,
          "duration": 0.011627906976741542
        },
        {
          "name": "G4",
          "midi": 67,
          "time": 118.79069767440404,
          "velocity": 0.29133858267716534,
          "duration": 0.034883720930224626
        },
        {
          "name": "A#6",
          "midi": 94,
          "time": 118.79069767440404,
          "velocity": 0.13385826771653545,
          "duration": 0.06976744186044925
        },
        {
          "name": "B2",
          "midi": 47,
          "time": 118.80232558138079,
          "velocity": 0.5433070866141733,
          "duration": 0.023255813953483084
        },
        {
          "name": "E2",
          "midi": 40,
          "time": 118.81395348835753,
          "velocity": 0.5196850393700787,
          "duration": 0.011627906976741542
        },
        {
          "name": "F#7",
          "midi": 102,
          "time": 118.81395348835753,
          "velocity": 0.18110236220472442,
          "duration": 0.26744186046505547
        },
        {
          "name": "A#2",
          "midi": 46,
          "time": 118.82558139533427,
          "velocity": 0.5511811023622047,
          "duration": 0.011627906976741542
        },
        {
          "name": "A6",
          "midi": 93,
          "time": 118.82558139533427,
          "velocity": 0.10236220472440945,
          "duration": 0.034883720930224626
        },
        {
          "name": "C#7",
          "midi": 97,
          "time": 118.82558139533427,
          "velocity": 0.33858267716535434,
          "duration": 0.31395348837202164
        },
        {
          "name": "B2",
          "midi": 47,
          "time": 118.83720930231101,
          "velocity": 0.5354330708661418,
          "duration": 0.023255813953483084
        },
        {
          "name": "G4",
          "midi": 67,
          "time": 118.83720930231101,
          "velocity": 0.4645669291338583,
          "duration": 0.20930232558134776
        },
        {
          "name": "D6",
          "midi": 86,
          "time": 118.84883720928775,
          "velocity": 0.13385826771653545,
          "duration": 0.09302325581393234
        },
        {
          "name": "F2",
          "midi": 41,
          "time": 118.86046511626449,
          "velocity": 0.5354330708661418,
          "duration": 0.011627906976741542
        },
        {
          "name": "E2",
          "midi": 40,
          "time": 118.87209302324123,
          "velocity": 0.5826771653543307,
          "duration": 0.011627906976741542
        },
        {
          "name": "G6",
          "midi": 91,
          "time": 118.87209302324123,
          "velocity": 0.12598425196850394,
          "duration": 0.05813953488370771
        },
        {
          "name": "A2",
          "midi": 45,
          "time": 118.88372093021798,
          "velocity": 0.5826771653543307,
          "duration": 0.011627906976741542
        },
        {
          "name": "D7",
          "midi": 98,
          "time": 118.88372093021798,
          "velocity": 0.15748031496062992,
          "duration": 0.09302325581393234
        },
        {
          "name": "D#7",
          "midi": 99,
          "time": 118.88372093021798,
          "velocity": 0.12598425196850394,
          "duration": 0.04651162790696617
        },
        {
          "name": "B2",
          "midi": 47,
          "time": 118.89534883719472,
          "velocity": 0.5354330708661418,
          "duration": 0.023255813953483084
        },
        {
          "name": "F7",
          "midi": 101,
          "time": 118.89534883719472,
          "velocity": 0.07086614173228346,
          "duration": 0.034883720930224626
        },
        {
          "name": "E3",
          "midi": 52,
          "time": 118.90697674417146,
          "velocity": 0.4330708661417323,
          "duration": 0.04651162790696617
        },
        {
          "name": "E5",
          "midi": 76,
          "time": 118.90697674417146,
          "velocity": 0.14173228346456693,
          "duration": 0.034883720930224626
        },
        {
          "name": "B3",
          "midi": 59,
          "time": 118.9186046511482,
          "velocity": 0.41732283464566927,
          "duration": 0.11627906976741542
        },
        {
          "name": "C7",
          "midi": 96,
          "time": 118.9186046511482,
          "velocity": 0.14173228346456693,
          "duration": 0.18604651162786467
        },
        {
          "name": "E7",
          "midi": 100,
          "time": 118.9186046511482,
          "velocity": 0.18110236220472442,
          "duration": 0.05813953488370771
        },
        {
          "name": "F2",
          "midi": 41,
          "time": 118.94186046510168,
          "velocity": 0.5196850393700787,
          "duration": 0.04651162790696617
        },
        {
          "name": "E3",
          "midi": 52,
          "time": 118.96511627905517,
          "velocity": 0.25196850393700787,
          "duration": 0.023255813953483084
        },
        {
          "name": "B6",
          "midi": 95,
          "time": 118.97674418603191,
          "velocity": 0.09448818897637795,
          "duration": 0.04651162790696617
        },
        {
          "name": "D#7",
          "midi": 99,
          "time": 118.97674418603191,
          "velocity": 0.08661417322834646,
          "duration": 0.05813953488370771
        },
        {
          "name": "D7",
          "midi": 98,
          "time": 118.98837209300865,
          "velocity": 0.3543307086614173,
          "duration": 0.406976744185954
        },
        {
          "name": "G7",
          "midi": 103,
          "time": 118.98837209300865,
          "velocity": 0.15748031496062992,
          "duration": 0.10465116279067388
        },
        {
          "name": "E7",
          "midi": 100,
          "time": 119.01162790696213,
          "velocity": 0.2047244094488189,
          "duration": 0.06976744186044925
        },
        {
          "name": "F4",
          "midi": 65,
          "time": 119.02325581393887,
          "velocity": 0.4645669291338583,
          "duration": 0.034883720930224626
        },
        {
          "name": "D5",
          "midi": 74,
          "time": 119.02325581393887,
          "velocity": 0.30708661417322836,
          "duration": 0.034883720930224626
        },
        {
          "name": "C#6",
          "midi": 85,
          "time": 119.02325581393887,
          "velocity": 0.2440944881889764,
          "duration": 0.06976744186044925
        },
        {
          "name": "G6",
          "midi": 91,
          "time": 119.02325581393887,
          "velocity": 0.4645669291338583,
          "duration": 0.43023255813943706
        },
        {
          "name": "G#2",
          "midi": 44,
          "time": 119.03488372091562,
          "velocity": 0.41732283464566927,
          "duration": 0.023255813953483084
        },
        {
          "name": "C4",
          "midi": 60,
          "time": 119.03488372091562,
          "velocity": 0.5118110236220472,
          "duration": 0.011627906976741542
        },
        {
          "name": "C6",
          "midi": 84,
          "time": 119.03488372091562,
          "velocity": 0.11811023622047244,
          "duration": 0.05813953488370771
        },
        {
          "name": "B6",
          "midi": 95,
          "time": 119.03488372091562,
          "velocity": 0.10236220472440945,
          "duration": 0.04651162790696617
        },
        {
          "name": "C5",
          "midi": 72,
          "time": 119.04651162789236,
          "velocity": 0.2755905511811024,
          "duration": 0.023255813953483084
        },
        {
          "name": "E5",
          "midi": 76,
          "time": 119.04651162789236,
          "velocity": 0.28346456692913385,
          "duration": 0.023255813953483084
        },
        {
          "name": "G5",
          "midi": 79,
          "time": 119.04651162789236,
          "velocity": 0.4645669291338583,
          "duration": 0.24418604651157239
        },
        {
          "name": "A#6",
          "midi": 94,
          "time": 119.04651162789236,
          "velocity": 0.09448818897637795,
          "duration": 0.04651162790696617
        },
        {
          "name": "C#3",
          "midi": 49,
          "time": 119.0581395348691,
          "velocity": 0.4015748031496063,
          "duration": 0.023255813953483084
        },
        {
          "name": "D6",
          "midi": 86,
          "time": 119.0581395348691,
          "velocity": 0.15748031496062992,
          "duration": 0.06976744186044925
        },
        {
          "name": "D#7",
          "midi": 99,
          "time": 119.0581395348691,
          "velocity": 0.2440944881889764,
          "duration": 0.48837209302314477
        },
        {
          "name": "B4",
          "midi": 71,
          "time": 119.06976744184584,
          "velocity": 0.3779527559055118,
          "duration": 0.1627906976743816
        },
        {
          "name": "F7",
          "midi": 101,
          "time": 119.06976744184584,
          "velocity": 0.25196850393700787,
          "duration": 0.26744186046505547
        },
        {
          "name": "G4",
          "midi": 67,
          "time": 119.08139534882258,
          "velocity": 0.3858267716535433,
          "duration": 0.04651162790696617
        },
        {
          "name": "F6",
          "midi": 89,
          "time": 119.08139534882258,
          "velocity": 0.10236220472440945,
          "duration": 0.05813953488370771
        },
        {
          "name": "B6",
          "midi": 95,
          "time": 119.09302325579932,
          "velocity": 0.16535433070866143,
          "duration": 0.2209302325580893
        },
        {
          "name": "D5",
          "midi": 74,
          "time": 119.10465116277607,
          "velocity": 0.1889763779527559,
          "duration": 0.12790697674415696
        },
        {
          "name": "E7",
          "midi": 100,
          "time": 119.10465116277607,
          "velocity": 0.18110236220472442,
          "duration": 0.1395348837208985
        },
        {
          "name": "F#3",
          "midi": 54,
          "time": 119.12790697672955,
          "velocity": 0.2440944881889764,
          "duration": 0.023255813953483084
        },
        {
          "name": "B3",
          "midi": 59,
          "time": 119.12790697672955,
          "velocity": 0.29133858267716534,
          "duration": 0.023255813953483084
        },
        {
          "name": "F4",
          "midi": 65,
          "time": 119.12790697672955,
          "velocity": 0.33070866141732286,
          "duration": 0.023255813953483084
        },
        {
          "name": "G#6",
          "midi": 92,
          "time": 119.12790697672955,
          "velocity": 0.07874015748031496,
          "duration": 0.034883720930224626
        },
        {
          "name": "G#4",
          "midi": 68,
          "time": 119.13953488370629,
          "velocity": 0.18110236220472442,
          "duration": 0.034883720930224626
        },
        {
          "name": "F#6",
          "midi": 90,
          "time": 119.15116279068303,
          "velocity": 0.1889763779527559,
          "duration": 0.10465116279067388
        },
        {
          "name": "C#7",
          "midi": 97,
          "time": 119.15116279068303,
          "velocity": 0.33858267716535434,
          "duration": 0.1627906976743816
        },
        {
          "name": "E3",
          "midi": 52,
          "time": 119.16279069765977,
          "velocity": 0.36220472440944884,
          "duration": 0.10465116279067388
        },
        {
          "name": "A#3",
          "midi": 58,
          "time": 119.16279069765977,
          "velocity": 0.2283464566929134,
          "duration": 0.023255813953483084
        },
        {
          "name": "C#6",
          "midi": 85,
          "time": 119.16279069765977,
          "velocity": 0.10236220472440945,
          "duration": 0.09302325581393234
        },
        {
          "name": "G#6",
          "midi": 92,
          "time": 119.17441860463651,
          "velocity": 0.14960629921259844,
          "duration": 0.06976744186044925
        },
        {
          "name": "B3",
          "midi": 59,
          "time": 119.20930232556674,
          "velocity": 0.18110236220472442,
          "duration": 0.034883720930224626
        },
        {
          "name": "F#5",
          "midi": 78,
          "time": 119.23255813952022,
          "velocity": 0.16535433070866143,
          "duration": 0.034883720930224626
        },
        {
          "name": "F#4",
          "midi": 66,
          "time": 119.24418604649696,
          "velocity": 0.25984251968503935,
          "duration": 0.05813953488370771
        },
        {
          "name": "E6",
          "midi": 88,
          "time": 119.24418604649696,
          "velocity": 0.12598425196850394,
          "duration": 0.06976744186044925
        },
        {
          "name": "B1",
          "midi": 35,
          "time": 119.2558139534737,
          "velocity": 0.5196850393700787,
          "duration": 0.034883720930224626
        },
        {
          "name": "A4",
          "midi": 69,
          "time": 119.2558139534737,
          "velocity": 0.2677165354330709,
          "duration": 0.05813953488370771
        },
        {
          "name": "A6",
          "midi": 93,
          "time": 119.2558139534737,
          "velocity": 0.4645669291338583,
          "duration": 0.26744186046505547
        },
        {
          "name": "E7",
          "midi": 100,
          "time": 119.2558139534737,
          "velocity": 0.33858267716535434,
          "duration": 0.37209302325572935
        },
        {
          "name": "E5",
          "midi": 76,
          "time": 119.26744186045045,
          "velocity": 0.23622047244094488,
          "duration": 0.034883720930224626
        },
        {
          "name": "A5",
          "midi": 81,
          "time": 119.26744186045045,
          "velocity": 0.33858267716535434,
          "duration": 0.06976744186044925
        },
        {
          "name": "F#5",
          "midi": 78,
          "time": 119.27906976742719,
          "velocity": 0.3858267716535433,
          "duration": 0.31395348837202164
        },
        {
          "name": "C#6",
          "midi": 85,
          "time": 119.27906976742719,
          "velocity": 0.13385826771653545,
          "duration": 0.0813953488371908
        },
        {
          "name": "B4",
          "midi": 71,
          "time": 119.29069767440393,
          "velocity": 0.2283464566929134,
          "duration": 0.1627906976743816
        },
        {
          "name": "C7",
          "midi": 96,
          "time": 119.29069767440393,
          "velocity": 0.25196850393700787,
          "duration": 0.04651162790696617
        },
        {
          "name": "D5",
          "midi": 74,
          "time": 119.30232558138067,
          "velocity": 0.12598425196850394,
          "duration": 0.05813953488370771
        },
        {
          "name": "F#4",
          "midi": 66,
          "time": 119.31395348835741,
          "velocity": 0.25984251968503935,
          "duration": 0.034883720930224626
        },
        {
          "name": "C#7",
          "midi": 97,
          "time": 119.32558139533415,
          "velocity": 0.1732283464566929,
          "duration": 0.2558139534883139
        },
        {
          "name": "C4",
          "midi": 60,
          "time": 119.3372093023109,
          "velocity": 0.1889763779527559,
          "duration": 0.034883720930224626
        },
        {
          "name": "G4",
          "midi": 67,
          "time": 119.3372093023109,
          "velocity": 0.33070866141732286,
          "duration": 0.023255813953483084
        },
        {
          "name": "A5",
          "midi": 81,
          "time": 119.34883720928764,
          "velocity": 0.33858267716535434,
          "duration": 0.1395348837208985
        },
        {
          "name": "A3",
          "midi": 57,
          "time": 119.36046511626438,
          "velocity": 0.2440944881889764,
          "duration": 0.09302325581393234
        },
        {
          "name": "F#4",
          "midi": 66,
          "time": 119.36046511626438,
          "velocity": 0.3228346456692913,
          "duration": 0.11627906976741542
        },
        {
          "name": "A#6",
          "midi": 94,
          "time": 119.36046511626438,
          "velocity": 0.08661417322834646,
          "duration": 0.034883720930224626
        },
        {
          "name": "F2",
          "midi": 41,
          "time": 119.37209302324112,
          "velocity": 0.29133858267716534,
          "duration": 0.034883720930224626
        },
        {
          "name": "D3",
          "midi": 50,
          "time": 119.37209302324112,
          "velocity": 0.4251968503937008,
          "duration": 0.05813953488370771
        },
        {
          "name": "A4",
          "midi": 69,
          "time": 119.37209302324112,
          "velocity": 0.3228346456692913,
          "duration": 0.20930232558134776
        },
        {
          "name": "C#6",
          "midi": 85,
          "time": 119.37209302324112,
          "velocity": 0.07086614173228346,
          "duration": 0.034883720930224626
        },
        {
          "name": "D5",
          "midi": 74,
          "time": 119.38372093021786,
          "velocity": 0.12598425196850394,
          "duration": 0.09302325581393234
        },
        {
          "name": "E5",
          "midi": 76,
          "time": 119.3953488371946,
          "velocity": 0.31496062992125984,
          "duration": 0.7093023255812483
        },
        {
          "name": "G5",
          "midi": 79,
          "time": 119.40697674417135,
          "velocity": 0.11811023622047244,
          "duration": 0.05813953488370771
        },
        {
          "name": "D#3",
          "midi": 51,
          "time": 119.43023255812483,
          "velocity": 0.3700787401574803,
          "duration": 0.034883720930224626
        },
        {
          "name": "G7",
          "midi": 103,
          "time": 119.46511627905505,
          "velocity": 0.11023622047244094,
          "duration": 0.12790697674415696
        },
        {
          "name": "B1",
          "midi": 35,
          "time": 119.4767441860318,
          "velocity": 0.5196850393700787,
          "duration": 0.011627906976741542
        },
        {
          "name": "A2",
          "midi": 45,
          "time": 119.4767441860318,
          "velocity": 0.5748031496062992,
          "duration": 0.034883720930224626
        },
        {
          "name": "G5",
          "midi": 79,
          "time": 119.4767441860318,
          "velocity": 0.2047244094488189,
          "duration": 0.034883720930224626
        },
        {
          "name": "B5",
          "midi": 83,
          "time": 119.4767441860318,
          "velocity": 0.1732283464566929,
          "duration": 0.10465116279067388
        },
        {
          "name": "C#6",
          "midi": 85,
          "time": 119.4767441860318,
          "velocity": 0.14173228346456693,
          "duration": 0.06976744186044925
        },
        {
          "name": "B6",
          "midi": 95,
          "time": 119.4767441860318,
          "velocity": 0.41732283464566927,
          "duration": 1.8255813953484505
        },
        {
          "name": "C#4",
          "midi": 61,
          "time": 119.48837209300854,
          "velocity": 0.3858267716535433,
          "duration": 0.034883720930224626
        },
        {
          "name": "C5",
          "midi": 72,
          "time": 119.48837209300854,
          "velocity": 0.25984251968503935,
          "duration": 0.3837209302324851
        },
        {
          "name": "D7",
          "midi": 98,
          "time": 119.49999999998528,
          "velocity": 0.1732283464566929,
          "duration": 0.05813953488370771
        },
        {
          "name": "B2",
          "midi": 47,
          "time": 119.51162790696202,
          "velocity": 0.5669291338582677,
          "duration": 0.023255813953483084
        },
        {
          "name": "D4",
          "midi": 62,
          "time": 119.52325581393876,
          "velocity": 0.2992125984251969,
          "duration": 0.023255813953483084
        },
        {
          "name": "F#4",
          "midi": 66,
          "time": 119.52325581393876,
          "velocity": 0.16535433070866143,
          "duration": 0.034883720930224626
        },
        {
          "name": "C7",
          "midi": 96,
          "time": 119.52325581393876,
          "velocity": 0.10236220472440945,
          "duration": 0.06976744186044925
        },
        {
          "name": "C3",
          "midi": 48,
          "time": 119.5348837209155,
          "velocity": 0.5748031496062992,
          "duration": 0.011627906976741542
        },
        {
          "name": "C#3",
          "midi": 49,
          "time": 119.54651162789224,
          "velocity": 0.5590551181102362,
          "duration": 0.011627906976741542
        },
        {
          "name": "G3",
          "midi": 55,
          "time": 119.54651162789224,
          "velocity": 0.4409448818897638,
          "duration": 0.0813953488371908
        },
        {
          "name": "C3",
          "midi": 48,
          "time": 119.55813953486899,
          "velocity": 0.5590551181102362,
          "duration": 0.023255813953483084
        },
        {
          "name": "E4",
          "midi": 64,
          "time": 119.55813953486899,
          "velocity": 0.2047244094488189,
          "duration": 0.09302325581393234
        },
        {
          "name": "F2",
          "midi": 41,
          "time": 119.56976744184573,
          "velocity": 0.5118110236220472,
          "duration": 0.011627906976741542
        },
        {
          "name": "C#3",
          "midi": 49,
          "time": 119.58139534882247,
          "velocity": 0.5669291338582677,
          "duration": 0.011627906976741542
        },
        {
          "name": "C4",
          "midi": 60,
          "time": 119.58139534882247,
          "velocity": 0.31496062992125984,
          "duration": 0.12790697674415696
        },
        {
          "name": "B5",
          "midi": 83,
          "time": 119.60465116277595,
          "velocity": 0.1732283464566929,
          "duration": 0.05813953488370771
        },
        {
          "name": "C3",
          "midi": 48,
          "time": 119.65116279068292,
          "velocity": 0.3228346456692913,
          "duration": 0.023255813953483084
        },
        {
          "name": "C7",
          "midi": 96,
          "time": 119.65116279068292,
          "velocity": 0.11811023622047244,
          "duration": 0.04651162790696617
        },
        {
          "name": "E4",
          "midi": 64,
          "time": 119.6744186046364,
          "velocity": 0.25196850393700787,
          "duration": 0.034883720930224626
        },
        {
          "name": "A4",
          "midi": 69,
          "time": 119.6744186046364,
          "velocity": 0.2283464566929134,
          "duration": 0.023255813953483084
        },
        {
          "name": "A2",
          "midi": 45,
          "time": 119.68604651161314,
          "velocity": 0.5984251968503937,
          "duration": 0.034883720930224626
        },
        {
          "name": "D5",
          "midi": 74,
          "time": 119.68604651161314,
          "velocity": 0.4251968503937008,
          "duration": 0.6511627906975548
        },
        {
          "name": "F#5",
          "midi": 78,
          "time": 119.68604651161314,
          "velocity": 0.10236220472440945,
          "duration": 0.10465116279067388
        },
        {
          "name": "B5",
          "midi": 83,
          "time": 119.68604651161314,
          "velocity": 0.2440944881889764,
          "duration": 0.15116279069765426
        },
        {
          "name": "C#7",
          "midi": 97,
          "time": 119.68604651161314,
          "velocity": 0.16535433070866143,
          "duration": 0.04651162790696617
        },
        {
          "name": "B1",
          "midi": 35,
          "time": 119.69767441858988,
          "velocity": 0.5275590551181102,
          "duration": 0.011627906976741542
        },
        {
          "name": "G4",
          "midi": 67,
          "time": 119.69767441858988,
          "velocity": 0.41732283464566927,
          "duration": 0.06976744186044925
        },
        {
          "name": "D7",
          "midi": 98,
          "time": 119.69767441858988,
          "velocity": 0.09448818897637795,
          "duration": 0.0813953488371908
        },
        {
          "name": "D#7",
          "midi": 99,
          "time": 119.69767441858988,
          "velocity": 0.11023622047244094,
          "duration": 0.034883720930224626
        },
        {
          "name": "C7",
          "midi": 96,
          "time": 119.70930232556663,
          "velocity": 0.12598425196850394,
          "duration": 0.034883720930224626
        },
        {
          "name": "E7",
          "midi": 100,
          "time": 119.70930232556663,
          "velocity": 0.07086614173228346,
          "duration": 0.034883720930224626
        },
        {
          "name": "A#2",
          "midi": 46,
          "time": 119.72093023254337,
          "velocity": 0.5826771653543307,
          "duration": 0.011627906976741542
        },
        {
          "name": "D4",
          "midi": 62,
          "time": 119.72093023254337,
          "velocity": 0.30708661417322836,
          "duration": 0.023255813953483084
        },
        {
          "name": "B2",
          "midi": 47,
          "time": 119.73255813952011,
          "velocity": 0.5826771653543307,
          "duration": 0.023255813953483084
        },
        {
          "name": "A3",
          "midi": 57,
          "time": 119.73255813952011,
          "velocity": 0.28346456692913385,
          "duration": 0.023255813953483084
        },
        {
          "name": "C#3",
          "midi": 49,
          "time": 119.75581395347359,
          "velocity": 0.5748031496062992,
          "duration": 0.023255813953483084
        },
        {
          "name": "C4",
          "midi": 60,
          "time": 119.75581395347359,
          "velocity": 0.4881889763779528,
          "duration": 0.15116279069765426
        },
        {
          "name": "E4",
          "midi": 64,
          "time": 119.75581395347359,
          "velocity": 0.36220472440944884,
          "duration": 0.13953488372091272
        },
        {
          "name": "F#6",
          "midi": 90,
          "time": 119.75581395347359,
          "velocity": 0.11023622047244094,
          "duration": 0.034883720930224626
        },
        {
          "name": "G3",
          "midi": 55,
          "time": 119.76744186045033,
          "velocity": 0.47244094488188976,
          "duration": 0.06976744186046346
        },
        {
          "name": "C3",
          "midi": 48,
          "time": 119.77906976742707,
          "velocity": 0.5826771653543307,
          "duration": 0.09302325581394655
        },
        {
          "name": "A6",
          "midi": 93,
          "time": 119.80232558138056,
          "velocity": 0.09448818897637795,
          "duration": 0.03488372093023884
        },
        {
          "name": "F#7",
          "midi": 102,
          "time": 119.8372093023108,
          "velocity": 0.1968503937007874,
          "duration": 0.18604651162786467
        },
        {
          "name": "G3",
          "midi": 55,
          "time": 119.84883720928754,
          "velocity": 0.31496062992125984,
          "duration": 0.04651162790696617
        },
        {
          "name": "F#6",
          "midi": 90,
          "time": 119.86046511626428,
          "velocity": 0.14173228346456693,
          "duration": 0.10465116279067388
        },
        {
          "name": "B2",
          "midi": 47,
          "time": 119.87209302324102,
          "velocity": 0.48031496062992124,
          "duration": 0.034883720930224626
        },
        {
          "name": "A5",
          "midi": 81,
          "time": 119.8953488371945,
          "velocity": 0.29133858267716534,
          "duration": 0.34883720930224626
        },
        {
          "name": "B5",
          "midi": 83,
          "time": 119.8953488371945,
          "velocity": 0.1889763779527559,
          "duration": 0.09302325581393234
        },
        {
          "name": "C#7",
          "midi": 97,
          "time": 119.8953488371945,
          "velocity": 0.2125984251968504,
          "duration": 0.034883720930224626
        },
        {
          "name": "D7",
          "midi": 98,
          "time": 119.8953488371945,
          "velocity": 0.25984251968503935,
          "duration": 0.1627906976743816
        },
        {
          "name": "E7",
          "midi": 100,
          "time": 119.8953488371945,
          "velocity": 0.18110236220472442,
          "duration": 0.0813953488371908
        },
        {
          "name": "D#6",
          "midi": 87,
          "time": 119.90697674417125,
          "velocity": 0.1732283464566929,
          "duration": 0.06976744186044925
        },
        {
          "name": "G#6",
          "midi": 92,
          "time": 119.90697674417125,
          "velocity": 0.12598425196850394,
          "duration": 0.09302325581393234
        },
        {
          "name": "C7",
          "midi": 96,
          "time": 119.90697674417125,
          "velocity": 0.16535433070866143,
          "duration": 0.0813953488371908
        },
        {
          "name": "F7",
          "midi": 101,
          "time": 119.90697674417125,
          "velocity": 0.10236220472440945,
          "duration": 0.11627906976741542
        },
        {
          "name": "G7",
          "midi": 103,
          "time": 119.90697674417125,
          "velocity": 0.16535433070866143,
          "duration": 0.09302325581393234
        },
        {
          "name": "A#3",
          "midi": 58,
          "time": 119.91860465114799,
          "velocity": 0.2677165354330709,
          "duration": 0.023255813953483084
        },
        {
          "name": "D4",
          "midi": 62,
          "time": 119.91860465114799,
          "velocity": 0.2992125984251969,
          "duration": 0.023255813953483084
        },
        {
          "name": "F#5",
          "midi": 78,
          "time": 119.91860465114799,
          "velocity": 0.15748031496062992,
          "duration": 0.04651162790696617
        },
        {
          "name": "E4",
          "midi": 64,
          "time": 119.93023255812473,
          "velocity": 0.31496062992125984,
          "duration": 0.034883720930224626
        },
        {
          "name": "C5",
          "midi": 72,
          "time": 119.93023255812473,
          "velocity": 0.2125984251968504,
          "duration": 0.06976744186044925
        },
        {
          "name": "G#2",
          "midi": 44,
          "time": 119.94186046510147,
          "velocity": 0.3779527559055118,
          "duration": 0.023255813953483084
        },
        {
          "name": "G#3",
          "midi": 56,
          "time": 119.94186046510147,
          "velocity": 0.41732283464566927,
          "duration": 0.023255813953483084
        },
        {
          "name": "C#7",
          "midi": 97,
          "time": 119.94186046510147,
          "velocity": 0.2755905511811024,
          "duration": 0.24418604651157239
        },
        {
          "name": "A#4",
          "midi": 70,
          "time": 119.95348837207821,
          "velocity": 0.2047244094488189,
          "duration": 0.034883720930224626
        },
        {
          "name": "G4",
          "midi": 67,
          "time": 119.96511627905495,
          "velocity": 0.33070866141732286,
          "duration": 0.034883720930224626
        },
        {
          "name": "F#5",
          "midi": 78,
          "time": 119.98837209300844,
          "velocity": 0.08661417322834646,
          "duration": 0.05813953488370771
        },
        {
          "name": "G4",
          "midi": 67,
          "time": 120.01162790696192,
          "velocity": 0.3228346456692913,
          "duration": 0.10465116279067388
        },
        {
          "name": "C7",
          "midi": 96,
          "time": 120.01162790696192,
          "velocity": 0.11023622047244094,
          "duration": 0.05813953488370771
        },
        {
          "name": "C3",
          "midi": 48,
          "time": 120.02325581393866,
          "velocity": 0.4409448818897638,
          "duration": 0.0813953488371908
        },
        {
          "name": "B5",
          "midi": 83,
          "time": 120.02325581393866,
          "velocity": 0.15748031496062992,
          "duration": 0.04651162790696617
        },
        {
          "name": "C#4",
          "midi": 61,
          "time": 120.04651162789214,
          "velocity": 0.25984251968503935,
          "duration": 0.023255813953483084
        },
        {
          "name": "A#4",
          "midi": 70,
          "time": 120.04651162789214,
          "velocity": 0.2440944881889764,
          "duration": 0.17441860465112313
        },
        {
          "name": "G7",
          "midi": 103,
          "time": 120.04651162789214,
          "velocity": 0.14173228346456693,
          "duration": 0.04651162790696617
        },
        {
          "name": "D#6",
          "midi": 87,
          "time": 120.05813953486889,
          "velocity": 0.09448818897637795,
          "duration": 0.0813953488371908
        },
        {
          "name": "D7",
          "midi": 98,
          "time": 120.06976744184563,
          "velocity": 0.2125984251968504,
          "duration": 0.11627906976741542
        },
        {
          "name": "D#7",
          "midi": 99,
          "time": 120.09302325579911,
          "velocity": 0.09448818897637795,
          "duration": 0.1395348837208985
        },
        {
          "name": "C#3",
          "midi": 49,
          "time": 120.10465116277585,
          "velocity": 0.4645669291338583,
          "duration": 0.023255813953483084
        },
        {
          "name": "C4",
          "midi": 60,
          "time": 120.10465116277585,
          "velocity": 0.2677165354330709,
          "duration": 0.023255813953483084
        },
        {
          "name": "D#5",
          "midi": 75,
          "time": 120.10465116277585,
          "velocity": 0.25196850393700787,
          "duration": 0.023255813953483084
        },
        {
          "name": "B5",
          "midi": 83,
          "time": 120.1162790697526,
          "velocity": 0.2125984251968504,
          "duration": 0.09302325581393234
        },
        {
          "name": "G#6",
          "midi": 92,
          "time": 120.1162790697526,
          "velocity": 0.07086614173228346,
          "duration": 0.034883720930224626
        },
        {
          "name": "A#2",
          "midi": 46,
          "time": 120.12790697672934,
          "velocity": 0.5511811023622047,
          "duration": 0.011627906976741542
        },
        {
          "name": "G4",
          "midi": 67,
          "time": 120.12790697672934,
          "velocity": 0.3779527559055118,
          "duration": 0.41860465116270973
        },
        {
          "name": "E5",
          "midi": 76,
          "time": 120.12790697672934,
          "velocity": 0.3700787401574803,
          "duration": 0.9069767441858545
        },
        {
          "name": "A2",
          "midi": 45,
          "time": 120.13953488370608,
          "velocity": 0.5905511811023622,
          "duration": 0.011627906976741542
        },
        {
          "name": "A#3",
          "midi": 58,
          "time": 120.13953488370608,
          "velocity": 0.30708661417322836,
          "duration": 0.023255813953483084
        },
        {
          "name": "A#2",
          "midi": 46,
          "time": 120.15116279068282,
          "velocity": 0.5354330708661418,
          "duration": 0.011627906976741542
        },
        {
          "name": "F7",
          "midi": 101,
          "time": 120.15116279068282,
          "velocity": 0.11023622047244094,
          "duration": 0.034883720930224626
        },
        {
          "name": "C3",
          "midi": 48,
          "time": 120.16279069765956,
          "velocity": 0.5118110236220472,
          "duration": 0.011627906976741542
        },
        {
          "name": "G#3",
          "midi": 56,
          "time": 120.16279069765956,
          "velocity": 0.36220472440944884,
          "duration": 0.034883720930224626
        },
        {
          "name": "C#4",
          "midi": 61,
          "time": 120.16279069765956,
          "velocity": 0.3464566929133858,
          "duration": 0.023255813953483084
        },
        {
          "name": "B2",
          "midi": 47,
          "time": 120.1744186046363,
          "velocity": 0.5433070866141733,
          "duration": 0.011627906976741542
        },
        {
          "name": "D3",
          "midi": 50,
          "time": 120.18604651161304,
          "velocity": 0.5669291338582677,
          "duration": 0.011627906976741542
        },
        {
          "name": "C4",
          "midi": 60,
          "time": 120.18604651161304,
          "velocity": 0.28346456692913385,
          "duration": 0.034883720930224626
        },
        {
          "name": "E4",
          "midi": 64,
          "time": 120.18604651161304,
          "velocity": 0.29133858267716534,
          "duration": 0.17441860465113734
        },
        {
          "name": "C#3",
          "midi": 49,
          "time": 120.19767441858978,
          "velocity": 0.5905511811023622,
          "duration": 0.011627906976741542
        },
        {
          "name": "G3",
          "midi": 55,
          "time": 120.19767441858978,
          "velocity": 0.3543307086614173,
          "duration": 0.023255813953483084
        },
        {
          "name": "F2",
          "midi": 41,
          "time": 120.20930232556653,
          "velocity": 0.5118110236220472,
          "duration": 0.011627906976741542
        },
        {
          "name": "C3",
          "midi": 48,
          "time": 120.20930232556653,
          "velocity": 0.5669291338582677,
          "duration": 0.011627906976741542
        },
        {
          "name": "B4",
          "midi": 71,
          "time": 120.20930232556653,
          "velocity": 0.09448818897637795,
          "duration": 0.034883720930224626
        },
        {
          "name": "C#3",
          "midi": 49,
          "time": 120.22093023254327,
          "velocity": 0.5433070866141733,
          "duration": 0.011627906976741542
        },
        {
          "name": "B5",
          "midi": 83,
          "time": 120.22093023254327,
          "velocity": 0.25984251968503935,
          "duration": 0.5348837209301252
        },
        {
          "name": "F#7",
          "midi": 102,
          "time": 120.22093023254327,
          "velocity": 0.1732283464566929,
          "duration": 0.04651162790696617
        },
        {
          "name": "C3",
          "midi": 48,
          "time": 120.23255813952001,
          "velocity": 0.5590551181102362,
          "duration": 0.034883720930224626
        },
        {
          "name": "F#7",
          "midi": 102,
          "time": 120.27906976742698,
          "velocity": 0.16535433070866143,
          "duration": 0.13953488372091272
        },
        {
          "name": "F#5",
          "midi": 78,
          "time": 120.3372093023107,
          "velocity": 0.18110236220472442,
          "duration": 0.05813953488370771
        },
        {
          "name": "C7",
          "midi": 96,
          "time": 120.3372093023107,
          "velocity": 0.09448818897637795,
          "duration": 0.034883720930224626
        },
        {
          "name": "D7",
          "midi": 98,
          "time": 120.3372093023107,
          "velocity": 0.1732283464566929,
          "duration": 0.06976744186044925
        },
        {
          "name": "D#7",
          "midi": 99,
          "time": 120.3372093023107,
          "velocity": 0.12598425196850394,
          "duration": 0.05813953488370771
        },
        {
          "name": "G#2",
          "midi": 44,
          "time": 120.34883720928744,
          "velocity": 0.5984251968503937,
          "duration": 0.011627906976741542
        },
        {
          "name": "C5",
          "midi": 72,
          "time": 120.34883720928744,
          "velocity": 0.2125984251968504,
          "duration": 0.3604651162789878
        },
        {
          "name": "C#7",
          "midi": 97,
          "time": 120.34883720928744,
          "velocity": 0.15748031496062992,
          "duration": 0.04651162790696617
        },
        {
          "name": "A2",
          "midi": 45,
          "time": 120.36046511626418,
          "velocity": 0.5590551181102362,
          "duration": 0.011627906976741542
        },
        {
          "name": "B2",
          "midi": 47,
          "time": 120.37209302324092,
          "velocity": 0.5748031496062992,
          "duration": 0.023255813953483084
        },
        {
          "name": "G#3",
          "midi": 56,
          "time": 120.37209302324092,
          "velocity": 0.3543307086614173,
          "duration": 0.034883720930224626
        },
        {
          "name": "C4",
          "midi": 60,
          "time": 120.38372093021766,
          "velocity": 0.3700787401574803,
          "duration": 0.1627906976743816
        },
        {
          "name": "C3",
          "midi": 48,
          "time": 120.3953488371944,
          "velocity": 0.5905511811023622,
          "duration": 0.011627906976741542
        },
        {
          "name": "C#3",
          "midi": 49,
          "time": 120.40697674417115,
          "velocity": 0.5984251968503937,
          "duration": 0.011627906976741542
        },
        {
          "name": "E4",
          "midi": 64,
          "time": 120.40697674417115,
          "velocity": 0.15748031496062992,
          "duration": 0.0813953488371908
        },
        {
          "name": "C3",
          "midi": 48,
          "time": 120.41860465114789,
          "velocity": 0.5905511811023622,
          "duration": 0.023255813953483084
        },
        {
          "name": "F2",
          "midi": 41,
          "time": 120.43023255812463,
          "velocity": 0.5118110236220472,
          "duration": 0.011627906976741542
        },
        {
          "name": "G3",
          "midi": 55,
          "time": 120.43023255812463,
          "velocity": 0.4645669291338583,
          "duration": 0.09302325581393234
        },
        {
          "name": "C#3",
          "midi": 49,
          "time": 120.44186046510137,
          "velocity": 0.5905511811023622,
          "duration": 0.011627906976741542
        },
        {
          "name": "C3",
          "midi": 48,
          "time": 120.45348837207811,
          "velocity": 0.6141732283464567,
          "duration": 0.10465116279067388
        },
        {
          "name": "F#7",
          "midi": 102,
          "time": 120.45348837207811,
          "velocity": 0.2047244094488189,
          "duration": 0.6046511627905602
        },
        {
          "name": "D6",
          "midi": 86,
          "time": 120.46511627905485,
          "velocity": 0.07086614173228346,
          "duration": 0.034883720930224626
        },
        {
          "name": "G2",
          "midi": 43,
          "time": 120.48837209300834,
          "velocity": 0.5118110236220472,
          "duration": 0.011627906976741542
        },
        {
          "name": "E4",
          "midi": 64,
          "time": 120.49999999998508,
          "velocity": 0.4645669291338583,
          "duration": 0.3604651162789878
        },
        {
          "name": "F#3",
          "midi": 54,
          "time": 120.52325581393856,
          "velocity": 0.5039370078740157,
          "duration": 0.034883720930224626
        },
        {
          "name": "D5",
          "midi": 74,
          "time": 120.54651162789204,
          "velocity": 0.3858267716535433,
          "duration": 0.23255813953483084
        },
        {
          "name": "G5",
          "midi": 79,
          "time": 120.54651162789204,
          "velocity": 0.23622047244094488,
          "duration": 0.2558139534883139
        },
        {
          "name": "B2",
          "midi": 47,
          "time": 120.55813953486879,
          "velocity": 0.5669291338582677,
          "duration": 0.011627906976741542
        },
        {
          "name": "G4",
          "midi": 67,
          "time": 120.55813953486879,
          "velocity": 0.2992125984251969,
          "duration": 0.04651162790696617
        },
        {
          "name": "C7",
          "midi": 96,
          "time": 120.55813953486879,
          "velocity": 0.14960629921259844,
          "duration": 0.0813953488371908
        },
        {
          "name": "C#7",
          "midi": 97,
          "time": 120.55813953486879,
          "velocity": 0.2755905511811024,
          "duration": 0.6046511627905602
        },
        {
          "name": "G7",
          "midi": 103,
          "time": 120.55813953486879,
          "velocity": 0.11811023622047244,
          "duration": 0.0813953488371908
        },
        {
          "name": "A2",
          "midi": 45,
          "time": 120.56976744184553,
          "velocity": 0.6062992125984252,
          "duration": 0.011627906976741542
        },
        {
          "name": "F#3",
          "midi": 54,
          "time": 120.56976744184553,
          "velocity": 0.3937007874015748,
          "duration": 0.023255813953483084
        },
        {
          "name": "D7",
          "midi": 98,
          "time": 120.56976744184553,
          "velocity": 0.2677165354330709,
          "duration": 0.12790697674415696
        },
        {
          "name": "D#7",
          "midi": 99,
          "time": 120.56976744184553,
          "velocity": 0.10236220472440945,
          "duration": 0.034883720930224626
        },
        {
          "name": "B2",
          "midi": 47,
          "time": 120.58139534882227,
          "velocity": 0.5118110236220472,
          "duration": 0.023255813953483084
        },
        {
          "name": "G#3",
          "midi": 56,
          "time": 120.59302325579901,
          "velocity": 0.36220472440944884,
          "duration": 0.023255813953483084
        },
        {
          "name": "E7",
          "midi": 100,
          "time": 120.59302325579901,
          "velocity": 0.13385826771653545,
          "duration": 0.05813953488370771
        },
        {
          "name": "A2",
          "midi": 45,
          "time": 120.60465116277575,
          "velocity": 0.5590551181102362,
          "duration": 0.023255813953483084
        },
        {
          "name": "A#4",
          "midi": 70,
          "time": 120.60465116277575,
          "velocity": 0.2204724409448819,
          "duration": 0.15116279069764005
        },
        {
          "name": "C4",
          "midi": 60,
          "time": 120.6162790697525,
          "velocity": 0.2047244094488189,
          "duration": 0.0813953488371908
        },
        {
          "name": "G3",
          "midi": 55,
          "time": 120.62790697672924,
          "velocity": 0.30708661417322836,
          "duration": 0.04651162790696617
        },
        {
          "name": "G4",
          "midi": 67,
          "time": 120.62790697672924,
          "velocity": 0.5511811023622047,
          "duration": 0.20930232558134776
        },
        {
          "name": "C3",
          "midi": 48,
          "time": 120.65116279068272,
          "velocity": 0.4645669291338583,
          "duration": 0.06976744186044925
        },
        {
          "name": "D#6",
          "midi": 87,
          "time": 120.70930232556643,
          "velocity": 0.14960629921259844,
          "duration": 0.10465116279067388
        },
        {
          "name": "D7",
          "midi": 98,
          "time": 120.70930232556643,
          "velocity": 0.2283464566929134,
          "duration": 0.15116279069764005
        },
        {
          "name": "C3",
          "midi": 48,
          "time": 120.73255813951991,
          "velocity": 0.4566929133858268,
          "duration": 0.023255813953483084
        },
        {
          "name": "C7",
          "midi": 96,
          "time": 120.73255813951991,
          "velocity": 0.1968503937007874,
          "duration": 0.3372093023255047
        },
        {
          "name": "C#6",
          "midi": 85,
          "time": 120.74418604649665,
          "velocity": 0.29133858267716534,
          "duration": 0.023255813953483084
        },
        {
          "name": "A#3",
          "midi": 58,
          "time": 120.75581395347339,
          "velocity": 0.4330708661417323,
          "duration": 0.023255813953483084
        },
        {
          "name": "A5",
          "midi": 81,
          "time": 120.75581395347339,
          "velocity": 0.30708661417322836,
          "duration": 0.279069767441797
        },
        {
          "name": "G#6",
          "midi": 92,
          "time": 120.75581395347339,
          "velocity": 0.08661417322834646,
          "duration": 0.034883720930224626
        },
        {
          "name": "F7",
          "midi": 101,
          "time": 120.75581395347339,
          "velocity": 0.10236220472440945,
          "duration": 0.05813953488370771
        },
        {
          "name": "G7",
          "midi": 103,
          "time": 120.75581395347339,
          "velocity": 0.13385826771653545,
          "duration": 0.09302325581393234
        },
        {
          "name": "D#2",
          "midi": 39,
          "time": 120.76744186045013,
          "velocity": 0.4330708661417323,
          "duration": 0.023255813953483084
        },
        {
          "name": "A4",
          "midi": 69,
          "time": 120.76744186045013,
          "velocity": 0.25984251968503935,
          "duration": 0.034883720930224626
        },
        {
          "name": "F#5",
          "midi": 78,
          "time": 120.76744186045013,
          "velocity": 0.1732283464566929,
          "duration": 0.05813953488370771
        },
        {
          "name": "C6",
          "midi": 84,
          "time": 120.76744186045013,
          "velocity": 0.11811023622047244,
          "duration": 0.04651162790696617
        },
        {
          "name": "A#6",
          "midi": 94,
          "time": 120.76744186045013,
          "velocity": 0.16535433070866143,
          "duration": 0.06976744186044925
        },
        {
          "name": "D#7",
          "midi": 99,
          "time": 120.76744186045013,
          "velocity": 0.1732283464566929,
          "duration": 0.12790697674415696
        },
        {
          "name": "C#5",
          "midi": 73,
          "time": 120.77906976742688,
          "velocity": 0.25196850393700787,
          "duration": 0.034883720930224626
        },
        {
          "name": "B5",
          "midi": 83,
          "time": 120.77906976742688,
          "velocity": 0.2283464566929134,
          "duration": 0.06976744186044925
        },
        {
          "name": "C3",
          "midi": 48,
          "time": 120.79069767440362,
          "velocity": 0.5275590551181102,
          "duration": 0.09302325581393234
        },
        {
          "name": "C#4",
          "midi": 61,
          "time": 120.79069767440362,
          "velocity": 0.28346456692913385,
          "duration": 0.023255813953483084
        },
        {
          "name": "A#4",
          "midi": 70,
          "time": 120.80232558138036,
          "velocity": 0.1968503937007874,
          "duration": 0.04651162790696617
        },
        {
          "name": "D5",
          "midi": 74,
          "time": 120.80232558138036,
          "velocity": 0.2755905511811024,
          "duration": 0.15116279069764005
        },
        {
          "name": "A#3",
          "midi": 58,
          "time": 120.8139534883571,
          "velocity": 0.3464566929133858,
          "duration": 0.023255813953483084
        },
        {
          "name": "G#6",
          "midi": 92,
          "time": 120.8139534883571,
          "velocity": 0.13385826771653545,
          "duration": 0.034883720930224626
        },
        {
          "name": "C5",
          "midi": 72,
          "time": 120.82558139533384,
          "velocity": 0.2047244094488189,
          "duration": 0.04651162790696617
        },
        {
          "name": "F#6",
          "midi": 90,
          "time": 120.82558139533384,
          "velocity": 0.08661417322834646,
          "duration": 0.05813953488370771
        },
        {
          "name": "C#4",
          "midi": 61,
          "time": 120.83720930231058,
          "velocity": 0.2440944881889764,
          "duration": 0.034883720930224626
        },
        {
          "name": "F7",
          "midi": 101,
          "time": 120.83720930231058,
          "velocity": 0.07086614173228346,
          "duration": 0.09302325581393234
        },
        {
          "name": "G4",
          "midi": 67,
          "time": 120.86046511626407,
          "velocity": 0.2440944881889764,
          "duration": 0.06976744186044925
        },
        {
          "name": "F#2",
          "midi": 42,
          "time": 120.89534883719429,
          "velocity": 0.29133858267716534,
          "duration": 0.023255813953483084
        },
        {
          "name": "A#3",
          "midi": 58,
          "time": 120.89534883719429,
          "velocity": 0.2677165354330709,
          "duration": 0.034883720930224626
        },
        {
          "name": "E4",
          "midi": 64,
          "time": 120.89534883719429,
          "velocity": 0.2440944881889764,
          "duration": 0.05813953488370771
        },
        {
          "name": "C#3",
          "midi": 49,
          "time": 120.90697674417103,
          "velocity": 0.4015748031496063,
          "duration": 0.023255813953483084
        },
        {
          "name": "C5",
          "midi": 72,
          "time": 120.90697674417103,
          "velocity": 0.14960629921259844,
          "duration": 0.04651162790696617
        },
        {
          "name": "C3",
          "midi": 48,
          "time": 120.93023255812452,
          "velocity": 0.48031496062992124,
          "duration": 0.023255813953483084
        },
        {
          "name": "B3",
          "midi": 59,
          "time": 120.93023255812452,
          "velocity": 0.2283464566929134,
          "duration": 0.023255813953483084
        },
        {
          "name": "B5",
          "midi": 83,
          "time": 120.93023255812452,
          "velocity": 0.15748031496062992,
          "duration": 0.11627906976741542
        },
        {
          "name": "G4",
          "midi": 67,
          "time": 120.94186046510126,
          "velocity": 0.23622047244094488,
          "duration": 0.04651162790696617
        },
        {
          "name": "D#7",
          "midi": 99,
          "time": 120.94186046510126,
          "velocity": 0.16535433070866143,
          "duration": 0.10465116279067388
        },
        {
          "name": "C4",
          "midi": 60,
          "time": 120.953488372078,
          "velocity": 0.36220472440944884,
          "duration": 0.06976744186044925
        },
        {
          "name": "A#6",
          "midi": 94,
          "time": 120.953488372078,
          "velocity": 0.08661417322834646,
          "duration": 0.034883720930224626
        },
        {
          "name": "D7",
          "midi": 98,
          "time": 120.953488372078,
          "velocity": 0.2204724409448819,
          "duration": 0.279069767441797
        },
        {
          "name": "C3",
          "midi": 48,
          "time": 120.96511627905474,
          "velocity": 0.5511811023622047,
          "duration": 0.011627906976741542
        },
        {
          "name": "E4",
          "midi": 64,
          "time": 120.96511627905474,
          "velocity": 0.33070866141732286,
          "duration": 0.05813953488370771
        },
        {
          "name": "C2",
          "midi": 36,
          "time": 120.97674418603148,
          "velocity": 0.5118110236220472,
          "duration": 0.011627906976741542
        },
        {
          "name": "B2",
          "midi": 47,
          "time": 120.97674418603148,
          "velocity": 0.5669291338582677,
          "duration": 0.011627906976741542
        },
        {
          "name": "C6",
          "midi": 84,
          "time": 120.97674418603148,
          "velocity": 0.07086614173228346,
          "duration": 0.04651162790696617
        },
        {
          "name": "D6",
          "midi": 86,
          "time": 120.97674418603148,
          "velocity": 0.13385826771653545,
          "duration": 0.0813953488371908
        },
        {
          "name": "G#6",
          "midi": 92,
          "time": 120.97674418603148,
          "velocity": 0.10236220472440945,
          "duration": 0.05813953488370771
        },
        {
          "name": "G#1",
          "midi": 32,
          "time": 120.98837209300822,
          "velocity": 0.5275590551181102,
          "duration": 0.011627906976741542
        },
        {
          "name": "C3",
          "midi": 48,
          "time": 120.98837209300822,
          "velocity": 0.5354330708661418,
          "duration": 0.011627906976741542
        },
        {
          "name": "D5",
          "midi": 74,
          "time": 120.98837209300822,
          "velocity": 0.2125984251968504,
          "duration": 0.19767441860460622
        },
        {
          "name": "G7",
          "midi": 103,
          "time": 120.98837209300822,
          "velocity": 0.09448818897637795,
          "duration": 0.0813953488371908
        },
        {
          "name": "C#3",
          "midi": 49,
          "time": 120.99999999998496,
          "velocity": 0.5275590551181102,
          "duration": 0.011627906976741542
        },
        {
          "name": "G4",
          "midi": 67,
          "time": 120.99999999998496,
          "velocity": 0.3779527559055118,
          "duration": 0.18604651162786467
        },
        {
          "name": "A#4",
          "midi": 70,
          "time": 120.99999999998496,
          "velocity": 0.25984251968503935,
          "duration": 0.23255813953483084
        },
        {
          "name": "E2",
          "midi": 40,
          "time": 121.0116279069617,
          "velocity": 0.47244094488188976,
          "duration": 0.023255813953483084
        },
        {
          "name": "G#3",
          "midi": 56,
          "time": 121.0116279069617,
          "velocity": 0.36220472440944884,
          "duration": 0.034883720930224626
        },
        {
          "name": "B2",
          "midi": 47,
          "time": 121.03488372091519,
          "velocity": 0.3700787401574803,
          "duration": 0.023255813953483084
        },
        {
          "name": "C4",
          "midi": 60,
          "time": 121.03488372091519,
          "velocity": 0.41732283464566927,
          "duration": 0.05813953488370771
        },
        {
          "name": "E4",
          "midi": 64,
          "time": 121.03488372091519,
          "velocity": 0.33070866141732286,
          "duration": 0.15116279069764005
        },
        {
          "name": "G3",
          "midi": 55,
          "time": 121.04651162789193,
          "velocity": 0.3228346456692913,
          "duration": 0.023255813953483084
        },
        {
          "name": "F7",
          "midi": 101,
          "time": 121.04651162789193,
          "velocity": 0.13385826771653545,
          "duration": 0.06976744186044925
        },
        {
          "name": "G#2",
          "midi": 44,
          "time": 121.08139534882216,
          "velocity": 0.3779527559055118,
          "duration": 0.023255813953483084
        },
        {
          "name": "B5",
          "midi": 83,
          "time": 121.08139534882216,
          "velocity": 0.2125984251968504,
          "duration": 0.20930232558134776
        },
        {
          "name": "C#4",
          "midi": 61,
          "time": 121.0930232557989,
          "velocity": 0.2992125984251969,
          "duration": 0.023255813953483084
        },
        {
          "name": "C3",
          "midi": 48,
          "time": 121.10465116277564,
          "velocity": 0.4330708661417323,
          "duration": 0.023255813953483084
        },
        {
          "name": "G3",
          "midi": 55,
          "time": 121.12790697672912,
          "velocity": 0.3937007874015748,
          "duration": 0.05813953488370771
        },
        {
          "name": "F#7",
          "midi": 102,
          "time": 121.13953488370586,
          "velocity": 0.18110236220472442,
          "duration": 0.034883720930224626
        },
        {
          "name": "G7",
          "midi": 103,
          "time": 121.13953488370586,
          "velocity": 0.15748031496062992,
          "duration": 0.09302325581393234
        },
        {
          "name": "E2",
          "midi": 40,
          "time": 121.1511627906826,
          "velocity": 0.4015748031496063,
          "duration": 0.023255813953483084
        },
        {
          "name": "E7",
          "midi": 100,
          "time": 121.16279069765935,
          "velocity": 0.3464566929133858,
          "duration": 0.5232558139533694
        },
        {
          "name": "C#7",
          "midi": 97,
          "time": 121.17441860463609,
          "velocity": 0.1968503937007874,
          "duration": 0.09302325581393234
        },
        {
          "name": "C#2",
          "midi": 37,
          "time": 121.18604651161283,
          "velocity": 0.5118110236220472,
          "duration": 0.011627906976741542
        },
        {
          "name": "F#5",
          "midi": 78,
          "time": 121.18604651161283,
          "velocity": 0.13385826771653545,
          "duration": 0.17441860465112313
        },
        {
          "name": "C#6",
          "midi": 85,
          "time": 121.18604651161283,
          "velocity": 0.25196850393700787,
          "duration": 0.034883720930224626
        },
        {
          "name": "D#6",
          "midi": 87,
          "time": 121.18604651161283,
          "velocity": 0.16535433070866143,
          "duration": 0.10465116279067388
        },
        {
          "name": "G#6",
          "midi": 92,
          "time": 121.18604651161283,
          "velocity": 0.13385826771653545,
          "duration": 0.034883720930224626
        },
        {
          "name": "D#7",
          "midi": 99,
          "time": 121.18604651161283,
          "velocity": 0.1889763779527559,
          "duration": 0.05813953488370771
        },
        {
          "name": "G#2",
          "midi": 44,
          "time": 121.19767441858957,
          "velocity": 0.5196850393700787,
          "duration": 0.011627906976741542
        },
        {
          "name": "A#3",
          "midi": 58,
          "time": 121.19767441858957,
          "velocity": 0.4330708661417323,
          "duration": 0.023255813953483084
        },
        {
          "name": "A5",
          "midi": 81,
          "time": 121.19767441858957,
          "velocity": 0.4094488188976378,
          "duration": 0.7441860465114587
        },
        {
          "name": "C6",
          "midi": 84,
          "time": 121.19767441858957,
          "velocity": 0.15748031496062992,
          "duration": 0.12790697674415696
        },
        {
          "name": "A6",
          "midi": 93,
          "time": 121.19767441858957,
          "velocity": 0.49606299212598426,
          "duration": 1.0697674418602219
        },
        {
          "name": "D3",
          "midi": 50,
          "time": 121.20930232556631,
          "velocity": 0.6220472440944882,
          "duration": 0.1395348837208985
        },
        {
          "name": "C5",
          "midi": 72,
          "time": 121.20930232556631,
          "velocity": 0.14960629921259844,
          "duration": 0.06976744186044925
        },
        {
          "name": "D5",
          "midi": 74,
          "time": 121.20930232556631,
          "velocity": 0.25984251968503935,
          "duration": 0.3023255813952801
        },
        {
          "name": "D6",
          "midi": 86,
          "time": 121.20930232556631,
          "velocity": 0.25984251968503935,
          "duration": 0.023255813953483084
        },
        {
          "name": "E2",
          "midi": 40,
          "time": 121.22093023254305,
          "velocity": 0.47244094488188976,
          "duration": 0.034883720930224626
        },
        {
          "name": "A3",
          "midi": 57,
          "time": 121.22093023254305,
          "velocity": 0.47244094488188976,
          "duration": 0.04651162790696617
        },
        {
          "name": "G4",
          "midi": 67,
          "time": 121.22093023254305,
          "velocity": 0.13385826771653545,
          "duration": 0.034883720930224626
        },
        {
          "name": "F#7",
          "midi": 102,
          "time": 121.22093023254305,
          "velocity": 0.12598425196850394,
          "duration": 0.05813953488370771
        },
        {
          "name": "A2",
          "midi": 45,
          "time": 121.30232558138025,
          "velocity": 0.5748031496062992,
          "duration": 0.023255813953483084
        },
        {
          "name": "D7",
          "midi": 98,
          "time": 121.30232558138025,
          "velocity": 0.15748031496062992,
          "duration": 0.1627906976743816
        },
        {
          "name": "G4",
          "midi": 67,
          "time": 121.32558139533373,
          "velocity": 0.14173228346456693,
          "duration": 0.034883720930224626
        },
        {
          "name": "A4",
          "midi": 69,
          "time": 121.33720930231047,
          "velocity": 0.16535433070866143,
          "duration": 0.05813953488370771
        },
        {
          "name": "E5",
          "midi": 76,
          "time": 121.33720930231047,
          "velocity": 0.13385826771653545,
          "duration": 0.05813953488370771
        },
        {
          "name": "B6",
          "midi": 95,
          "time": 121.33720930231047,
          "velocity": 0.14173228346456693,
          "duration": 0.06976744186044925
        },
        {
          "name": "C4",
          "midi": 60,
          "time": 121.3720930232407,
          "velocity": 0.23622047244094488,
          "duration": 0.034883720930224626
        },
        {
          "name": "G4",
          "midi": 67,
          "time": 121.3720930232407,
          "velocity": 0.33858267716535434,
          "duration": 0.04651162790696617
        },
        {
          "name": "B5",
          "midi": 83,
          "time": 121.3720930232407,
          "velocity": 0.07874015748031496,
          "duration": 0.034883720930224626
        },
        {
          "name": "F#7",
          "midi": 102,
          "time": 121.3720930232407,
          "velocity": 0.07874015748031496,
          "duration": 0.05813953488370771
        },
        {
          "name": "A#4",
          "midi": 70,
          "time": 121.39534883719418,
          "velocity": 0.1968503937007874,
          "duration": 0.034883720930224626
        },
        {
          "name": "D#5",
          "midi": 75,
          "time": 121.39534883719418,
          "velocity": 0.2440944881889764,
          "duration": 0.023255813953483084
        },
        {
          "name": "F#5",
          "midi": 78,
          "time": 121.40697674417092,
          "velocity": 0.28346456692913385,
          "duration": 0.17441860465112313
        },
        {
          "name": "E6",
          "midi": 88,
          "time": 121.40697674417092,
          "velocity": 0.14960629921259844,
          "duration": 0.06976744186044925
        },
        {
          "name": "C#7",
          "midi": 97,
          "time": 121.40697674417092,
          "velocity": 0.15748031496062992,
          "duration": 0.06976744186044925
        },
        {
          "name": "D#7",
          "midi": 99,
          "time": 121.40697674417092,
          "velocity": 0.11023622047244094,
          "duration": 0.034883720930224626
        },
        {
          "name": "G1",
          "midi": 31,
          "time": 121.41860465114766,
          "velocity": 0.5275590551181102,
          "duration": 0.011627906976741542
        },
        {
          "name": "D3",
          "midi": 50,
          "time": 121.41860465114766,
          "velocity": 0.5433070866141733,
          "duration": 0.05813953488370771
        },
        {
          "name": "F#4",
          "midi": 66,
          "time": 121.41860465114766,
          "velocity": 0.31496062992125984,
          "duration": 0.18604651162786467
        },
        {
          "name": "E5",
          "midi": 76,
          "time": 121.41860465114766,
          "velocity": 0.2992125984251969,
          "duration": 0.19767441860460622
        },
        {
          "name": "A#1",
          "midi": 34,
          "time": 121.4302325581244,
          "velocity": 0.5196850393700787,
          "duration": 0.011627906976741542
        },
        {
          "name": "A3",
          "midi": 57,
          "time": 121.4302325581244,
          "velocity": 0.44881889763779526,
          "duration": 0.034883720930224626
        },
        {
          "name": "B6",
          "midi": 95,
          "time": 121.44186046510114,
          "velocity": 0.1732283464566929,
          "duration": 0.04651162790696617
        },
        {
          "name": "C#3",
          "midi": 49,
          "time": 121.47674418603137,
          "velocity": 0.6062992125984252,
          "duration": 0.011627906976741542
        },
        {
          "name": "D7",
          "midi": 98,
          "time": 121.47674418603137,
          "velocity": 0.2440944881889764,
          "duration": 0.406976744185954
        },
        {
          "name": "D3",
          "midi": 50,
          "time": 121.48837209300811,
          "velocity": 0.6220472440944882,
          "duration": 0.011627906976741542
        },
        {
          "name": "D#3",
          "midi": 51,
          "time": 121.49999999998485,
          "velocity": 0.6141732283464567,
          "duration": 0.011627906976741542
        },
        {
          "name": "D4",
          "midi": 62,
          "time": 121.49999999998485,
          "velocity": 0.33070866141732286,
          "duration": 0.09302325581393234
        },
        {
          "name": "B6",
          "midi": 95,
          "time": 121.49999999998485,
          "velocity": 0.11023622047244094,
          "duration": 0.04651162790696617
        },
        {
          "name": "D3",
          "midi": 50,
          "time": 121.51162790696159,
          "velocity": 0.6141732283464567,
          "duration": 0.023255813953483084
        },
        {
          "name": "A4",
          "midi": 69,
          "time": 121.51162790696159,
          "velocity": 0.31496062992125984,
          "duration": 0.10465116279067388
        },
        {
          "name": "A2",
          "midi": 45,
          "time": 121.52325581393833,
          "velocity": 0.5511811023622047,
          "duration": 0.011627906976741542
        },
        {
          "name": "C3",
          "midi": 48,
          "time": 121.53488372091508,
          "velocity": 0.6220472440944882,
          "duration": 0.011627906976741542
        },
        {
          "name": "A2",
          "midi": 45,
          "time": 121.54651162789182,
          "velocity": 0.5748031496062992,
          "duration": 0.011627906976741542
        },
        {
          "name": "D3",
          "midi": 50,
          "time": 121.54651162789182,
          "velocity": 0.5748031496062992,
          "duration": 0.011627906976741542
        },
        {
          "name": "E3",
          "midi": 52,
          "time": 121.55813953486856,
          "velocity": 0.5748031496062992,
          "duration": 0.011627906976741542
        },
        {
          "name": "A2",
          "midi": 45,
          "time": 121.5697674418453,
          "velocity": 0.5511811023622047,
          "duration": 0.023255813953483084
        },
        {
          "name": "D5",
          "midi": 74,
          "time": 121.5697674418453,
          "velocity": 0.4251968503937008,
          "duration": 0.06976744186044925
        },
        {
          "name": "A3",
          "midi": 57,
          "time": 121.59302325579878,
          "velocity": 0.3228346456692913,
          "duration": 0.023255813953483084
        },
        {
          "name": "E4",
          "midi": 64,
          "time": 121.59302325579878,
          "velocity": 0.3700787401574803,
          "duration": 0.05813953488370771
        },
        {
          "name": "G4",
          "midi": 67,
          "time": 121.60465116277553,
          "velocity": 0.36220472440944884,
          "duration": 0.09302325581393234
        },
        {
          "name": "F#5",
          "midi": 78,
          "time": 121.60465116277553,
          "velocity": 0.25196850393700787,
          "duration": 0.06976744186044925
        },
        {
          "name": "C7",
          "midi": 96,
          "time": 121.60465116277553,
          "velocity": 0.1968503937007874,
          "duration": 0.0813953488371908
        },
        {
          "name": "D#2",
          "midi": 39,
          "time": 121.61627906975227,
          "velocity": 0.28346456692913385,
          "duration": 0.023255813953483084
        },
        {
          "name": "C#6",
          "midi": 85,
          "time": 121.61627906975227,
          "velocity": 0.11023622047244094,
          "duration": 0.034883720930224626
        },
        {
          "name": "C#7",
          "midi": 97,
          "time": 121.61627906975227,
          "velocity": 0.25196850393700787,
          "duration": 0.19767441860460622
        },
        {
          "name": "D#7",
          "midi": 99,
          "time": 121.61627906975227,
          "velocity": 0.13385826771653545,
          "duration": 0.034883720930224626
        },
        {
          "name": "D3",
          "midi": 50,
          "time": 121.62790697672901,
          "velocity": 0.48031496062992124,
          "duration": 0.023255813953483084
        },
        {
          "name": "C#4",
          "midi": 61,
          "time": 121.62790697672901,
          "velocity": 0.3700787401574803,
          "duration": 0.023255813953483084
        },
        {
          "name": "B6",
          "midi": 95,
          "time": 121.62790697672901,
          "velocity": 0.12598425196850394,
          "duration": 0.034883720930224626
        },
        {
          "name": "A4",
          "midi": 69,
          "time": 121.63953488370575,
          "velocity": 0.2440944881889764,
          "duration": 0.04651162790696617
        },
        {
          "name": "E6",
          "midi": 88,
          "time": 121.63953488370575,
          "velocity": 0.15748031496062992,
          "duration": 0.0813953488371908
        },
        {
          "name": "G#2",
          "midi": 44,
          "time": 121.65116279068249,
          "velocity": 0.47244094488188976,
          "duration": 0.04651162790696617
        },
        {
          "name": "D4",
          "midi": 62,
          "time": 121.66279069765923,
          "velocity": 0.1968503937007874,
          "duration": 0.034883720930224626
        },
        {
          "name": "D5",
          "midi": 74,
          "time": 121.66279069765923,
          "velocity": 0.2204724409448819,
          "duration": 0.10465116279067388
        },
        {
          "name": "E5",
          "midi": 76,
          "time": 121.66279069765923,
          "velocity": 0.14173228346456693,
          "duration": 0.034883720930224626
        },
        {
          "name": "F7",
          "midi": 101,
          "time": 121.66279069765923,
          "velocity": 0.08661417322834646,
          "duration": 0.09302325581393234
        },
        {
          "name": "B5",
          "midi": 83,
          "time": 121.67441860463597,
          "velocity": 0.14173228346456693,
          "duration": 0.04651162790696617
        },
        {
          "name": "C5",
          "midi": 72,
          "time": 121.68604651161272,
          "velocity": 0.13385826771653545,
          "duration": 0.04651162790696617
        },
        {
          "name": "D#7",
          "midi": 99,
          "time": 121.68604651161272,
          "velocity": 0.11023622047244094,
          "duration": 0.05813953488370771
        },
        {
          "name": "A2",
          "midi": 45,
          "time": 121.69767441858946,
          "velocity": 0.3858267716535433,
          "duration": 0.023255813953483084
        },
        {
          "name": "F#4",
          "midi": 66,
          "time": 121.69767441858946,
          "velocity": 0.3228346456692913,
          "duration": 0.10465116279067388
        },
        {
          "name": "F#6",
          "midi": 90,
          "time": 121.69767441858946,
          "velocity": 0.16535433070866143,
          "duration": 0.034883720930224626
        },
        {
          "name": "A#6",
          "midi": 94,
          "time": 121.69767441858946,
          "velocity": 0.07874015748031496,
          "duration": 0.034883720930224626
        },
        {
          "name": "E7",
          "midi": 100,
          "time": 121.69767441858946,
          "velocity": 0.31496062992125984,
          "duration": 0.3604651162789878
        },
        {
          "name": "G7",
          "midi": 103,
          "time": 121.69767441858946,
          "velocity": 0.14173228346456693,
          "duration": 0.12790697674415696
        },
        {
          "name": "D4",
          "midi": 62,
          "time": 121.7093023255662,
          "velocity": 0.31496062992125984,
          "duration": 0.11627906976741542
        },
        {
          "name": "C7",
          "midi": 96,
          "time": 121.7093023255662,
          "velocity": 0.15748031496062992,
          "duration": 0.10465116279067388
        },
        {
          "name": "D3",
          "midi": 50,
          "time": 121.73255813951968,
          "velocity": 0.4251968503937008,
          "duration": 0.04651162790696617
        },
        {
          "name": "A#3",
          "midi": 58,
          "time": 121.73255813951968,
          "velocity": 0.3543307086614173,
          "duration": 0.023255813953483084
        },
        {
          "name": "F#7",
          "midi": 102,
          "time": 121.73255813951968,
          "velocity": 0.14173228346456693,
          "duration": 0.0813953488371908
        },
        {
          "name": "E5",
          "midi": 76,
          "time": 121.74418604649642,
          "velocity": 0.14173228346456693,
          "duration": 0.06976744186044925
        },
        {
          "name": "A3",
          "midi": 57,
          "time": 121.75581395347317,
          "velocity": 0.30708661417322836,
          "duration": 0.034883720930224626
        },
        {
          "name": "C#6",
          "midi": 85,
          "time": 121.7674418604499,
          "velocity": 0.11811023622047244,
          "duration": 0.05813953488370771
        },
        {
          "name": "D6",
          "midi": 86,
          "time": 121.7674418604499,
          "velocity": 0.07874015748031496,
          "duration": 0.05813953488370771
        },
        {
          "name": "D#7",
          "midi": 99,
          "time": 121.7674418604499,
          "velocity": 0.11811023622047244,
          "duration": 0.12790697674415696
        },
        {
          "name": "A#6",
          "midi": 94,
          "time": 121.77906976742665,
          "velocity": 0.07086614173228346,
          "duration": 0.034883720930224626
        },
        {
          "name": "D3",
          "midi": 50,
          "time": 121.79069767440339,
          "velocity": 0.4881889763779528,
          "duration": 0.023255813953483084
        },
        {
          "name": "A#3",
          "midi": 58,
          "time": 121.79069767440339,
          "velocity": 0.29133858267716534,
          "duration": 0.034883720930224626
        },
        {
          "name": "F#6",
          "midi": 90,
          "time": 121.79069767440339,
          "velocity": 0.4015748031496063,
          "duration": 0.8488372093021326
        },
        {
          "name": "D#3",
          "midi": 51,
          "time": 121.81395348835687,
          "velocity": 0.47244094488188976,
          "duration": 0.034883720930224626
        },
        {
          "name": "D5",
          "midi": 74,
          "time": 121.82558139533361,
          "velocity": 0.23622047244094488,
          "duration": 0.04651162790696617
        },
        {
          "name": "E6",
          "midi": 88,
          "time": 121.82558139533361,
          "velocity": 0.2125984251968504,
          "duration": 0.1395348837208985
        },
        {
          "name": "C#7",
          "midi": 97,
          "time": 121.82558139533361,
          "velocity": 0.3700787401574803,
          "duration": 1.197674418604393
        },
        {
          "name": "A4",
          "midi": 69,
          "time": 121.83720930231036,
          "velocity": 0.33070866141732286,
          "duration": 0.06976744186044925
        },
        {
          "name": "E5",
          "midi": 76,
          "time": 121.83720930231036,
          "velocity": 0.36220472440944884,
          "duration": 0.1627906976743816
        },
        {
          "name": "F#5",
          "midi": 78,
          "time": 121.83720930231036,
          "velocity": 0.5275590551181102,
          "duration": 0.6627906976742679
        },
        {
          "name": "B6",
          "midi": 95,
          "time": 121.83720930231036,
          "velocity": 0.07874015748031496,
          "duration": 0.034883720930224626
        },
        {
          "name": "E2",
          "midi": 40,
          "time": 121.8488372092871,
          "velocity": 0.4566929133858268,
          "duration": 0.034883720930224626
        },
        {
          "name": "D3",
          "midi": 50,
          "time": 121.8488372092871,
          "velocity": 0.6220472440944882,
          "duration": 0.11627906976741542
        },
        {
          "name": "A3",
          "midi": 57,
          "time": 121.8488372092871,
          "velocity": 0.4015748031496063,
          "duration": 0.04651162790696617
        },
        {
          "name": "B5",
          "midi": 83,
          "time": 121.8488372092871,
          "velocity": 0.08661417322834646,
          "duration": 0.0813953488371908
        },
        {
          "name": "F#4",
          "midi": 66,
          "time": 121.86046511626384,
          "velocity": 0.29133858267716534,
          "duration": 0.023255813953483084
        },
        {
          "name": "C#5",
          "midi": 73,
          "time": 121.87209302324058,
          "velocity": 0.13385826771653545,
          "duration": 0.06976744186044925
        },
        {
          "name": "A3",
          "midi": 57,
          "time": 121.9069767441708,
          "velocity": 0.2992125984251969,
          "duration": 0.034883720930224626
        },
        {
          "name": "F#4",
          "midi": 66,
          "time": 121.9069767441708,
          "velocity": 0.2755905511811024,
          "duration": 0.11627906976741542
        },
        {
          "name": "D6",
          "midi": 86,
          "time": 121.91860465114755,
          "velocity": 0.08661417322834646,
          "duration": 0.05813953488370771
        },
        {
          "name": "A4",
          "midi": 69,
          "time": 121.93023255812429,
          "velocity": 0.4409448818897638,
          "duration": 0.5465116279068525
        },
        {
          "name": "A3",
          "midi": 57,
          "time": 121.95348837207777,
          "velocity": 0.25196850393700787,
          "duration": 0.06976744186044925
        },
        {
          "name": "D#3",
          "midi": 51,
          "time": 121.988372093008,
          "velocity": 0.3543307086614173,
          "duration": 0.023255813953483084
        },
        {
          "name": "D3",
          "midi": 50,
          "time": 122.01162790696148,
          "velocity": 0.3779527559055118,
          "duration": 0.023255813953483084
        },
        {
          "name": "E4",
          "midi": 64,
          "time": 122.02325581393822,
          "velocity": 0.2283464566929134,
          "duration": 0.034883720930224626
        },
        {
          "name": "D#3",
          "midi": 51,
          "time": 122.03488372091496,
          "velocity": 0.44881889763779526,
          "duration": 0.034883720930224626
        },
        {
          "name": "C4",
          "midi": 60,
          "time": 122.03488372091496,
          "velocity": 0.3464566929133858,
          "duration": 0.023255813953483084
        },
        {
          "name": "D6",
          "midi": 86,
          "time": 122.0465116278917,
          "velocity": 0.25196850393700787,
          "duration": 0.0813953488371908
        },
        {
          "name": "D#6",
          "midi": 87,
          "time": 122.0465116278917,
          "velocity": 0.15748031496062992,
          "duration": 0.0813953488371908
        },
        {
          "name": "D5",
          "midi": 74,
          "time": 122.05813953486845,
          "velocity": 0.23622047244094488,
          "duration": 0.406976744185954
        },
        {
          "name": "D#2",
          "midi": 39,
          "time": 122.06976744184519,
          "velocity": 0.4566929133858268,
          "duration": 0.023255813953483084
        },
        {
          "name": "D3",
          "midi": 50,
          "time": 122.06976744184519,
          "velocity": 0.6535433070866141,
          "duration": 0.1395348837208985
        },
        {
          "name": "A3",
          "midi": 57,
          "time": 122.06976744184519,
          "velocity": 0.44881889763779526,
          "duration": 0.06976744186044925
        },
        {
          "name": "C6",
          "midi": 84,
          "time": 122.06976744184519,
          "velocity": 0.13385826771653545,
          "duration": 0.05813953488370771
        },
        {
          "name": "F#4",
          "midi": 66,
          "time": 122.10465116277541,
          "velocity": 0.2125984251968504,
          "duration": 0.09302325581393234
        },
        {
          "name": "C5",
          "midi": 72,
          "time": 122.10465116277541,
          "velocity": 0.11811023622047244,
          "duration": 0.06976744186044925
        },
        {
          "name": "E7",
          "midi": 100,
          "time": 122.10465116277541,
          "velocity": 0.07874015748031496,
          "duration": 0.034883720930224626
        },
        {
          "name": "E6",
          "midi": 88,
          "time": 122.11627906975215,
          "velocity": 0.11023622047244094,
          "duration": 0.10465116279067388
        },
        {
          "name": "E5",
          "midi": 76,
          "time": 122.15116279068238,
          "velocity": 0.14173228346456693,
          "duration": 0.05813953488370771
        },
        {
          "name": "A2",
          "midi": 45,
          "time": 122.16279069765912,
          "velocity": 0.5433070866141733,
          "duration": 0.011627906976741542
        },
        {
          "name": "A2",
          "midi": 45,
          "time": 122.1860465116126,
          "velocity": 0.6141732283464567,
          "duration": 0.04651162790696617
        },
        {
          "name": "G#3",
          "midi": 56,
          "time": 122.22093023254283,
          "velocity": 0.2992125984251969,
          "duration": 0.023255813953483084
        },
        {
          "name": "C#6",
          "midi": 85,
          "time": 122.22093023254283,
          "velocity": 0.11811023622047244,
          "duration": 0.05813953488370771
        },
        {
          "name": "G7",
          "midi": 103,
          "time": 122.22093023254283,
          "velocity": 0.2204724409448819,
          "duration": 0.3604651162789878
        },
        {
          "name": "G#2",
          "midi": 44,
          "time": 122.23255813951957,
          "velocity": 0.6062992125984252,
          "duration": 0.011627906976741542
        },
        {
          "name": "D4",
          "midi": 62,
          "time": 122.23255813951957,
          "velocity": 0.2283464566929134,
          "duration": 0.023255813953483084
        },
        {
          "name": "A2",
          "midi": 45,
          "time": 122.24418604649631,
          "velocity": 0.5275590551181102,
          "duration": 0.011627906976741542
        },
        {
          "name": "E2",
          "midi": 40,
          "time": 122.25581395347305,
          "velocity": 0.5826771653543307,
          "duration": 0.011627906976741542
        },
        {
          "name": "E5",
          "midi": 76,
          "time": 122.25581395347305,
          "velocity": 0.28346456692913385,
          "duration": 0.023255813953483084
        },
        {
          "name": "E6",
          "midi": 88,
          "time": 122.25581395347305,
          "velocity": 0.28346456692913385,
          "duration": 0.06976744186044925
        },
        {
          "name": "G#2",
          "midi": 44,
          "time": 122.2674418604498,
          "velocity": 0.6141732283464567,
          "duration": 0.011627906976741542
        },
        {
          "name": "F#4",
          "midi": 66,
          "time": 122.2674418604498,
          "velocity": 0.30708661417322836,
          "duration": 0.18604651162786467
        },
        {
          "name": "G2",
          "midi": 43,
          "time": 122.27906976742653,
          "velocity": 0.5118110236220472,
          "duration": 0.011627906976741542
        },
        {
          "name": "B2",
          "midi": 47,
          "time": 122.27906976742653,
          "velocity": 0.5118110236220472,
          "duration": 0.011627906976741542
        },
        {
          "name": "C#4",
          "midi": 61,
          "time": 122.27906976742653,
          "velocity": 0.2677165354330709,
          "duration": 0.034883720930224626
        },
        {
          "name": "A6",
          "midi": 93,
          "time": 122.27906976742653,
          "velocity": 0.30708661417322836,
          "duration": 0.43023255813945127
        },
        {
          "name": "D7",
          "midi": 98,
          "time": 122.27906976742653,
          "velocity": 0.2204724409448819,
          "duration": 0.10465116279067388
        },
        {
          "name": "C#3",
          "midi": 49,
          "time": 122.29069767440328,
          "velocity": 0.4251968503937008,
          "duration": 0.023255813953483084
        },
        {
          "name": "A3",
          "midi": 57,
          "time": 122.29069767440328,
          "velocity": 0.3779527559055118,
          "duration": 0.034883720930224626
        },
        {
          "name": "E5",
          "midi": 76,
          "time": 122.30232558138002,
          "velocity": 0.2677165354330709,
          "duration": 0.09302325581393234
        },
        {
          "name": "D4",
          "midi": 62,
          "time": 122.31395348835676,
          "velocity": 0.3543307086614173,
          "duration": 0.1395348837208985
        },
        {
          "name": "F7",
          "midi": 101,
          "time": 122.31395348835676,
          "velocity": 0.11023622047244094,
          "duration": 0.04651162790696617
        },
        {
          "name": "A#3",
          "midi": 58,
          "time": 122.3255813953335,
          "velocity": 0.3700787401574803,
          "duration": 0.023255813953483084
        },
        {
          "name": "D#7",
          "midi": 99,
          "time": 122.3255813953335,
          "velocity": 0.15748031496062992,
          "duration": 0.17441860465112313
        },
        {
          "name": "A3",
          "midi": 57,
          "time": 122.34883720928698,
          "velocity": 0.3779527559055118,
          "duration": 0.09302325581393234
        },
        {
          "name": "C7",
          "midi": 96,
          "time": 122.34883720928698,
          "velocity": 0.12598425196850394,
          "duration": 0.09302325581393234
        },
        {
          "name": "C5",
          "midi": 72,
          "time": 122.37209302324047,
          "velocity": 0.11811023622047244,
          "duration": 0.034883720930224626
        },
        {
          "name": "D3",
          "midi": 50,
          "time": 122.38372093021721,
          "velocity": 0.3937007874015748,
          "duration": 0.034883720930224626
        },
        {
          "name": "E6",
          "midi": 88,
          "time": 122.40697674417069,
          "velocity": 0.23622047244094488,
          "duration": 0.3837209302324851
        },
        {
          "name": "D2",
          "midi": 38,
          "time": 122.41860465114743,
          "velocity": 0.36220472440944884,
          "duration": 0.023255813953483084
        },
        {
          "name": "D#3",
          "midi": 51,
          "time": 122.41860465114743,
          "velocity": 0.4881889763779528,
          "duration": 0.023255813953483084
        },
        {
          "name": "C5",
          "midi": 72,
          "time": 122.43023255812417,
          "velocity": 0.10236220472440945,
          "duration": 0.034883720930224626
        },
        {
          "name": "D3",
          "midi": 50,
          "time": 122.44186046510092,
          "velocity": 0.5039370078740157,
          "duration": 0.023255813953483084
        },
        {
          "name": "D7",
          "midi": 98,
          "time": 122.44186046510092,
          "velocity": 0.2677165354330709,
          "duration": 0.04651162790696617
        },
        {
          "name": "A#3",
          "midi": 58,
          "time": 122.45348837207766,
          "velocity": 0.49606299212598426,
          "duration": 0.04651162790696617
        },
        {
          "name": "D#4",
          "midi": 63,
          "time": 122.45348837207766,
          "velocity": 0.4094488188976378,
          "duration": 0.023255813953483084
        },
        {
          "name": "D#3",
          "midi": 51,
          "time": 122.4651162790544,
          "velocity": 0.5275590551181102,
          "duration": 0.023255813953483084
        },
        {
          "name": "E5",
          "midi": 76,
          "time": 122.4651162790544,
          "velocity": 0.25984251968503935,
          "duration": 0.034883720930224626
        },
        {
          "name": "C7",
          "midi": 96,
          "time": 122.4651162790544,
          "velocity": 0.2047244094488189,
          "duration": 0.09302325581393234
        },
        {
          "name": "G4",
          "midi": 67,
          "time": 122.47674418603114,
          "velocity": 0.44881889763779526,
          "duration": 0.034883720930224626
        },
        {
          "name": "D5",
          "midi": 74,
          "time": 122.47674418603114,
          "velocity": 0.3779527559055118,
          "duration": 0.17441860465112313
        },
        {
          "name": "C#6",
          "midi": 85,
          "time": 122.47674418603114,
          "velocity": 0.23622047244094488,
          "duration": 0.034883720930224626
        },
        {
          "name": "D#6",
          "midi": 87,
          "time": 122.47674418603114,
          "velocity": 0.14960629921259844,
          "duration": 0.10465116279067388
        },
        {
          "name": "G6",
          "midi": 91,
          "time": 122.47674418603114,
          "velocity": 0.4645669291338583,
          "duration": 0.6976744186045067
        },
        {
          "name": "C#3",
          "midi": 49,
          "time": 122.48837209300788,
          "velocity": 0.5354330708661418,
          "duration": 0.011627906976741542
        },
        {
          "name": "E4",
          "midi": 64,
          "time": 122.48837209300788,
          "velocity": 0.2755905511811024,
          "duration": 0.023255813953483084
        },
        {
          "name": "D3",
          "midi": 50,
          "time": 122.49999999998462,
          "velocity": 0.49606299212598426,
          "duration": 0.023255813953483084
        },
        {
          "name": "A4",
          "midi": 69,
          "time": 122.49999999998462,
          "velocity": 0.36220472440944884,
          "duration": 0.19767441860462043
        },
        {
          "name": "G5",
          "midi": 79,
          "time": 122.49999999998462,
          "velocity": 0.48031496062992124,
          "duration": 0.4069767441859682
        },
        {
          "name": "B5",
          "midi": 83,
          "time": 122.49999999998462,
          "velocity": 0.11811023622047244,
          "duration": 0.05813953488370771
        },
        {
          "name": "E7",
          "midi": 100,
          "time": 122.49999999998462,
          "velocity": 0.2440944881889764,
          "duration": 0.5465116279068667
        },
        {
          "name": "F#4",
          "midi": 66,
          "time": 122.51162790696137,
          "velocity": 0.2283464566929134,
          "duration": 0.023255813953483084
        },
        {
          "name": "F7",
          "midi": 101,
          "time": 122.51162790696137,
          "velocity": 0.12598425196850394,
          "duration": 0.0813953488371908
        },
        {
          "name": "F2",
          "midi": 41,
          "time": 122.5232558139381,
          "velocity": 0.5354330708661418,
          "duration": 0.023255813953483084
        },
        {
          "name": "A#3",
          "midi": 58,
          "time": 122.5232558139381,
          "velocity": 0.3464566929133858,
          "duration": 0.023255813953483084
        },
        {
          "name": "D7",
          "midi": 98,
          "time": 122.5232558139381,
          "velocity": 0.4881889763779528,
          "duration": 0.6744186046510237
        },
        {
          "name": "C5",
          "midi": 72,
          "time": 122.53488372091485,
          "velocity": 0.2125984251968504,
          "duration": 0.04651162790696617
        },
        {
          "name": "D3",
          "midi": 50,
          "time": 122.55813953486833,
          "velocity": 0.4566929133858268,
          "duration": 0.023255813953483084
        },
        {
          "name": "B3",
          "midi": 59,
          "time": 122.55813953486833,
          "velocity": 0.2677165354330709,
          "duration": 0.023255813953483084
        },
        {
          "name": "F#4",
          "midi": 66,
          "time": 122.55813953486833,
          "velocity": 0.2992125984251969,
          "duration": 0.04651162790696617
        },
        {
          "name": "C#6",
          "midi": 85,
          "time": 122.55813953486833,
          "velocity": 0.07874015748031496,
          "duration": 0.034883720930224626
        },
        {
          "name": "D#7",
          "midi": 99,
          "time": 122.55813953486833,
          "velocity": 0.1732283464566929,
          "duration": 0.2441860465115866
        },
        {
          "name": "A#3",
          "midi": 58,
          "time": 122.58139534882181,
          "velocity": 0.31496062992125984,
          "duration": 0.04651162790696617
        },
        {
          "name": "D3",
          "midi": 50,
          "time": 122.59302325579856,
          "velocity": 0.4645669291338583,
          "duration": 0.09302325581394655
        },
        {
          "name": "C5",
          "midi": 72,
          "time": 122.59302325579856,
          "velocity": 0.18110236220472442,
          "duration": 0.034883720930224626
        },
        {
          "name": "F2",
          "midi": 41,
          "time": 122.62790697672878,
          "velocity": 0.2992125984251969,
          "duration": 0.023255813953483084
        },
        {
          "name": "C#6",
          "midi": 85,
          "time": 122.65116279068226,
          "velocity": 0.13385826771653545,
          "duration": 0.05813953488372192
        },
        {
          "name": "D#3",
          "midi": 51,
          "time": 122.6860465116125,
          "velocity": 0.4645669291338583,
          "duration": 0.023255813953483084
        },
        {
          "name": "G4",
          "midi": 67,
          "time": 122.6860465116125,
          "velocity": 0.30708661417322836,
          "duration": 0.023255813953483084
        },
        {
          "name": "D5",
          "midi": 74,
          "time": 122.6860465116125,
          "velocity": 0.2283464566929134,
          "duration": 0.04651162790696617
        },
        {
          "name": "E5",
          "midi": 76,
          "time": 122.6860465116125,
          "velocity": 0.2283464566929134,
          "duration": 0.18604651162786467
        },
        {
          "name": "B5",
          "midi": 83,
          "time": 122.6860465116125,
          "velocity": 0.13385826771653545,
          "duration": 0.034883720930224626
        },
        {
          "name": "C2",
          "midi": 36,
          "time": 122.69767441858924,
          "velocity": 0.5118110236220472,
          "duration": 0.011627906976741542
        },
        {
          "name": "A#4",
          "midi": 70,
          "time": 122.69767441858924,
          "velocity": 0.25984251968503935,
          "duration": 0.023255813953483084
        },
        {
          "name": "D3",
          "midi": 50,
          "time": 122.70930232556599,
          "velocity": 0.49606299212598426,
          "duration": 0.023255813953483084
        },
        {
          "name": "F#4",
          "midi": 66,
          "time": 122.70930232556599,
          "velocity": 0.3543307086614173,
          "duration": 0.1395348837208985
        },
        {
          "name": "A4",
          "midi": 69,
          "time": 122.70930232556599,
          "velocity": 0.31496062992125984,
          "duration": 0.2209302325580893
        },
        {
          "name": "C5",
          "midi": 72,
          "time": 122.72093023254273,
          "velocity": 0.14173228346456693,
          "duration": 0.034883720930224626
        },
        {
          "name": "C7",
          "midi": 96,
          "time": 122.72093023254273,
          "velocity": 0.07874015748031496,
          "duration": 0.034883720930224626
        },
        {
          "name": "F2",
          "midi": 41,
          "time": 122.73255813951947,
          "velocity": 0.5196850393700787,
          "duration": 0.023255813953483084
        },
        {
          "name": "A#3",
          "midi": 58,
          "time": 122.74418604649621,
          "velocity": 0.28346456692913385,
          "duration": 0.023255813953483084
        },
        {
          "name": "D4",
          "midi": 62,
          "time": 122.74418604649621,
          "velocity": 0.29133858267716534,
          "duration": 0.034883720930224626
        },
        {
          "name": "D3",
          "midi": 50,
          "time": 122.75581395347295,
          "velocity": 0.41732283464566927,
          "duration": 0.023255813953483084
        },
        {
          "name": "A3",
          "midi": 57,
          "time": 122.7674418604497,
          "velocity": 0.36220472440944884,
          "duration": 0.0813953488371908
        },
        {
          "name": "C7",
          "midi": 96,
          "time": 122.7674418604497,
          "velocity": 0.08661417322834646,
          "duration": 0.04651162790696617
        },
        {
          "name": "C5",
          "midi": 72,
          "time": 122.77906976742644,
          "velocity": 0.14960629921259844,
          "duration": 0.034883720930224626
        },
        {
          "name": "D4",
          "midi": 62,
          "time": 122.80232558137992,
          "velocity": 0.2440944881889764,
          "duration": 0.023255813953483084
        },
        {
          "name": "C#6",
          "midi": 85,
          "time": 122.80232558137992,
          "velocity": 0.10236220472440945,
          "duration": 0.04651162790696617
        },
        {
          "name": "D#4",
          "midi": 63,
          "time": 122.8255813953334,
          "velocity": 0.2283464566929134,
          "duration": 0.023255813953483084
        },
        {
          "name": "D#7",
          "midi": 99,
          "time": 122.8255813953334,
          "velocity": 0.12598425196850394,
          "duration": 0.05813953488370771
        },
        {
          "name": "D#2",
          "midi": 39,
          "time": 122.83720930231014,
          "velocity": 0.4251968503937008,
          "duration": 0.023255813953483084
        },
        {
          "name": "C#3",
          "midi": 49,
          "time": 122.83720930231014,
          "velocity": 0.41732283464566927,
          "duration": 0.023255813953483084
        },
        {
          "name": "C5",
          "midi": 72,
          "time": 122.83720930231014,
          "velocity": 0.14960629921259844,
          "duration": 0.034883720930224626
        },
        {
          "name": "D4",
          "midi": 62,
          "time": 122.84883720928688,
          "velocity": 0.31496062992125984,
          "duration": 0.04651162790696617
        },
        {
          "name": "D#3",
          "midi": 51,
          "time": 122.86046511626363,
          "velocity": 0.28346456692913385,
          "duration": 0.023255813953483084
        },
        {
          "name": "F#6",
          "midi": 90,
          "time": 122.86046511626363,
          "velocity": 0.15748031496062992,
          "duration": 0.05813953488370771
        },
        {
          "name": "D#2",
          "midi": 39,
          "time": 122.87209302324037,
          "velocity": 0.4015748031496063,
          "duration": 0.023255813953483084
        },
        {
          "name": "F#4",
          "midi": 66,
          "time": 122.87209302324037,
          "velocity": 0.3700787401574803,
          "duration": 0.04651162790696617
        },
        {
          "name": "D3",
          "midi": 50,
          "time": 122.88372093021711,
          "velocity": 0.3858267716535433,
          "duration": 0.023255813953483084
        },
        {
          "name": "A3",
          "midi": 57,
          "time": 122.88372093021711,
          "velocity": 0.30708661417322836,
          "duration": 0.04651162790696617
        },
        {
          "name": "D2",
          "midi": 38,
          "time": 122.89534883719385,
          "velocity": 0.5275590551181102,
          "duration": 0.011627906976741542
        },
        {
          "name": "D#4",
          "midi": 63,
          "time": 122.89534883719385,
          "velocity": 0.3464566929133858,
          "duration": 0.023255813953483084
        },
        {
          "name": "F2",
          "midi": 41,
          "time": 122.90697674417059,
          "velocity": 0.5905511811023622,
          "duration": 0.011627906976741542
        },
        {
          "name": "E5",
          "midi": 76,
          "time": 122.90697674417059,
          "velocity": 0.23622047244094488,
          "duration": 0.034883720930224626
        },
        {
          "name": "D6",
          "midi": 86,
          "time": 122.90697674417059,
          "velocity": 0.14960629921259844,
          "duration": 0.034883720930224626
        },
        {
          "name": "B2",
          "midi": 47,
          "time": 122.91860465114733,
          "velocity": 0.5826771653543307,
          "duration": 0.011627906976741542
        },
        {
          "name": "B4",
          "midi": 71,
          "time": 122.91860465114733,
          "velocity": 0.2755905511811024,
          "duration": 0.17441860465112313
        },
        {
          "name": "G5",
          "midi": 79,
          "time": 122.91860465114733,
          "velocity": 0.4251968503937008,
          "duration": 0.06976744186044925
        },
        {
          "name": "B3",
          "midi": 59,
          "time": 122.93023255812408,
          "velocity": 0.3543307086614173,
          "duration": 0.04651162790696617
        },
        {
          "name": "E4",
          "midi": 64,
          "time": 122.93023255812408,
          "velocity": 0.4094488188976378,
          "duration": 0.43023255813943706
        },
        {
          "name": "C7",
          "midi": 96,
          "time": 122.94186046510082,
          "velocity": 0.08661417322834646,
          "duration": 0.04651162790696617
        },
        {
          "name": "D#7",
          "midi": 99,
          "time": 122.94186046510082,
          "velocity": 0.1732283464566929,
          "duration": 0.06976744186044925
        },
        {
          "name": "F2",
          "midi": 41,
          "time": 122.95348837207756,
          "velocity": 0.49606299212598426,
          "duration": 0.04651162790696617
        },
        {
          "name": "E3",
          "midi": 52,
          "time": 122.9651162790543,
          "velocity": 0.5511811023622047,
          "duration": 0.06976744186044925
        },
        {
          "name": "D6",
          "midi": 86,
          "time": 122.9651162790543,
          "velocity": 0.2047244094488189,
          "duration": 0.18604651162786467
        },
        {
          "name": "F#6",
          "midi": 90,
          "time": 122.9651162790543,
          "velocity": 0.2440944881889764,
          "duration": 0.09302325581393234
        },
        {
          "name": "F#7",
          "midi": 102,
          "time": 122.97674418603104,
          "velocity": 0.2440944881889764,
          "duration": 0.0813953488371908
        },
        {
          "name": "B2",
          "midi": 47,
          "time": 122.98837209300778,
          "velocity": 0.4881889763779528,
          "duration": 0.023255813953483084
        },
        {
          "name": "G5",
          "midi": 79,
          "time": 122.99999999998452,
          "velocity": 0.12598425196850394,
          "duration": 0.034883720930224626
        },
        {
          "name": "A6",
          "midi": 93,
          "time": 122.99999999998452,
          "velocity": 0.4330708661417323,
          "duration": 0.47674418604640323
        },
        {
          "name": "D#7",
          "midi": 99,
          "time": 123.02325581393801,
          "velocity": 0.11811023622047244,
          "duration": 0.05813953488370771
        },
        {
          "name": "D#3",
          "midi": 51,
          "time": 123.03488372091475,
          "velocity": 0.5511811023622047,
          "duration": 0.011627906976741542
        },
        {
          "name": "E3",
          "midi": 52,
          "time": 123.04651162789149,
          "velocity": 0.4566929133858268,
          "duration": 0.023255813953483084
        },
        {
          "name": "C4",
          "midi": 60,
          "time": 123.04651162789149,
          "velocity": 0.25196850393700787,
          "duration": 0.023255813953483084
        },
        {
          "name": "G#4",
          "midi": 68,
          "time": 123.04651162789149,
          "velocity": 0.11811023622047244,
          "duration": 0.034883720930224626
        },
        {
          "name": "G5",
          "midi": 79,
          "time": 123.05813953486823,
          "velocity": 0.18110236220472442,
          "duration": 0.06976744186044925
        },
        {
          "name": "E2",
          "midi": 40,
          "time": 123.06976744184497,
          "velocity": 0.36220472440944884,
          "duration": 0.04651162790696617
        },
        {
          "name": "A4",
          "midi": 69,
          "time": 123.06976744184497,
          "velocity": 0.2440944881889764,
          "duration": 0.06976744186044925
        },
        {
          "name": "F#5",
          "midi": 78,
          "time": 123.1046511627752,
          "velocity": 0.4094488188976378,
          "duration": 0.0813953488371908
        },
        {
          "name": "D2",
          "midi": 38,
          "time": 123.11627906975194,
          "velocity": 0.5118110236220472,
          "duration": 0.011627906976741542
        },
        {
          "name": "G4",
          "midi": 67,
          "time": 123.11627906975194,
          "velocity": 0.41732283464566927,
          "duration": 0.24418604651157239
        },
        {
          "name": "A5",
          "midi": 81,
          "time": 123.11627906975194,
          "velocity": 0.4330708661417323,
          "duration": 0.4651162790696617
        },
        {
          "name": "B6",
          "midi": 95,
          "time": 123.11627906975194,
          "velocity": 0.13385826771653545,
          "duration": 0.06976744186044925
        },
        {
          "name": "E7",
          "midi": 100,
          "time": 123.11627906975194,
          "velocity": 0.36220472440944884,
          "duration": 0.3255813953487632
        },
        {
          "name": "F#7",
          "midi": 102,
          "time": 123.11627906975194,
          "velocity": 0.11811023622047244,
          "duration": 0.034883720930224626
        },
        {
          "name": "A2",
          "midi": 45,
          "time": 123.12790697672868,
          "velocity": 0.49606299212598426,
          "duration": 0.023255813953483084
        },
        {
          "name": "B4",
          "midi": 71,
          "time": 123.12790697672868,
          "velocity": 0.3464566929133858,
          "duration": 0.19767441860460622
        },
        {
          "name": "C7",
          "midi": 96,
          "time": 123.12790697672868,
          "velocity": 0.10236220472440945,
          "duration": 0.05813953488370771
        },
        {
          "name": "C#7",
          "midi": 97,
          "time": 123.12790697672868,
          "velocity": 0.2755905511811024,
          "duration": 0.3255813953487632
        },
        {
          "name": "D#7",
          "midi": 99,
          "time": 123.12790697672868,
          "velocity": 0.1889763779527559,
          "duration": 0.06976744186044925
        },
        {
          "name": "E3",
          "midi": 52,
          "time": 123.1627906976589,
          "velocity": 0.4330708661417323,
          "duration": 0.023255813953483084
        },
        {
          "name": "B3",
          "midi": 59,
          "time": 123.1627906976589,
          "velocity": 0.3228346456692913,
          "duration": 0.034883720930224626
        },
        {
          "name": "F#7",
          "midi": 102,
          "time": 123.17441860463565,
          "velocity": 0.08661417322834646,
          "duration": 0.034883720930224626
        },
        {
          "name": "D6",
          "midi": 86,
          "time": 123.18604651161239,
          "velocity": 0.07874015748031496,
          "duration": 0.04651162790696617
        },
        {
          "name": "G7",
          "midi": 103,
          "time": 123.18604651161239,
          "velocity": 0.16535433070866143,
          "duration": 0.0813953488371908
        },
        {
          "name": "E3",
          "midi": 52,
          "time": 123.19767441858913,
          "velocity": 0.5590551181102362,
          "duration": 0.034883720930224626
        },
        {
          "name": "F#5",
          "midi": 78,
          "time": 123.22093023254261,
          "velocity": 0.2755905511811024,
          "duration": 0.23255813953483084
        },
        {
          "name": "D#3",
          "midi": 51,
          "time": 123.23255813951936,
          "velocity": 0.5511811023622047,
          "duration": 0.011627906976741542
        },
        {
          "name": "B3",
          "midi": 59,
          "time": 123.23255813951936,
          "velocity": 0.25984251968503935,
          "duration": 0.0813953488371908
        },
        {
          "name": "D2",
          "midi": 38,
          "time": 123.2441860464961,
          "velocity": 0.3700787401574803,
          "duration": 0.023255813953483084
        },
        {
          "name": "E3",
          "midi": 52,
          "time": 123.2441860464961,
          "velocity": 0.5118110236220472,
          "duration": 0.023255813953483084
        },
        {
          "name": "E2",
          "midi": 40,
          "time": 123.26744186044958,
          "velocity": 0.44881889763779526,
          "duration": 0.023255813953483084
        },
        {
          "name": "F3",
          "midi": 53,
          "time": 123.26744186044958,
          "velocity": 0.5196850393700787,
          "duration": 0.011627906976741542
        },
        {
          "name": "E3",
          "midi": 52,
          "time": 123.29069767440306,
          "velocity": 0.4645669291338583,
          "duration": 0.034883720930224626
        },
        {
          "name": "D7",
          "midi": 98,
          "time": 123.29069767440306,
          "velocity": 0.29133858267716534,
          "duration": 0.20930232558134776
        },
        {
          "name": "E2",
          "midi": 40,
          "time": 123.3023255813798,
          "velocity": 0.5118110236220472,
          "duration": 0.023255813953483084
        },
        {
          "name": "G6",
          "midi": 91,
          "time": 123.31395348835655,
          "velocity": 0.09448818897637795,
          "duration": 0.034883720930224626
        },
        {
          "name": "G#6",
          "midi": 92,
          "time": 123.31395348835655,
          "velocity": 0.11023622047244094,
          "duration": 0.04651162790696617
        },
        {
          "name": "A#3",
          "midi": 58,
          "time": 123.32558139533329,
          "velocity": 0.4409448818897638,
          "duration": 0.034883720930224626
        },
        {
          "name": "D5",
          "midi": 74,
          "time": 123.32558139533329,
          "velocity": 0.4015748031496063,
          "duration": 0.2209302325580893
        },
        {
          "name": "F#6",
          "midi": 90,
          "time": 123.32558139533329,
          "velocity": 0.33858267716535434,
          "duration": 1.0348837209299973
        },
        {
          "name": "F7",
          "midi": 101,
          "time": 123.32558139533329,
          "velocity": 0.13385826771653545,
          "duration": 0.05813953488370771
        },
        {
          "name": "G7",
          "midi": 103,
          "time": 123.32558139533329,
          "velocity": 0.14960629921259844,
          "duration": 0.06976744186044925
        },
        {
          "name": "A#6",
          "midi": 94,
          "time": 123.33720930231003,
          "velocity": 0.12598425196850394,
          "duration": 0.04651162790696617
        },
        {
          "name": "B6",
          "midi": 95,
          "time": 123.33720930231003,
          "velocity": 0.4251968503937008,
          "duration": 2.4069767441855134
        },
        {
          "name": "C7",
          "midi": 96,
          "time": 123.33720930231003,
          "velocity": 0.09448818897637795,
          "duration": 0.034883720930224626
        },
        {
          "name": "D#7",
          "midi": 99,
          "time": 123.33720930231003,
          "velocity": 0.28346456692913385,
          "duration": 0.3372093023255047
        },
        {
          "name": "F2",
          "midi": 41,
          "time": 123.36046511626351,
          "velocity": 0.4015748031496063,
          "duration": 0.023255813953483084
        },
        {
          "name": "D#6",
          "midi": 87,
          "time": 123.36046511626351,
          "velocity": 0.11811023622047244,
          "duration": 0.15116279069764005
        },
        {
          "name": "B5",
          "midi": 83,
          "time": 123.37209302324025,
          "velocity": 0.11811023622047244,
          "duration": 0.034883720930224626
        },
        {
          "name": "G#2",
          "midi": 44,
          "time": 123.383720930217,
          "velocity": 0.5118110236220472,
          "duration": 0.023255813953483084
        },
        {
          "name": "B3",
          "midi": 59,
          "time": 123.383720930217,
          "velocity": 0.3464566929133858,
          "duration": 0.023255813953483084
        },
        {
          "name": "G4",
          "midi": 67,
          "time": 123.383720930217,
          "velocity": 0.31496062992125984,
          "duration": 0.034883720930224626
        },
        {
          "name": "E3",
          "midi": 52,
          "time": 123.39534883719374,
          "velocity": 0.30708661417322836,
          "duration": 0.023255813953483084
        },
        {
          "name": "F4",
          "midi": 65,
          "time": 123.40697674417048,
          "velocity": 0.2047244094488189,
          "duration": 0.034883720930224626
        },
        {
          "name": "F7",
          "midi": 101,
          "time": 123.40697674417048,
          "velocity": 0.07086614173228346,
          "duration": 0.034883720930224626
        },
        {
          "name": "F2",
          "midi": 41,
          "time": 123.41860465114722,
          "velocity": 0.5511811023622047,
          "duration": 0.0813953488371908
        },
        {
          "name": "B3",
          "midi": 59,
          "time": 123.41860465114722,
          "velocity": 0.4015748031496063,
          "duration": 0.12790697674415696
        },
        {
          "name": "C7",
          "midi": 96,
          "time": 123.41860465114722,
          "velocity": 0.11811023622047244,
          "duration": 0.0813953488371908
        },
        {
          "name": "E4",
          "midi": 64,
          "time": 123.43023255812396,
          "velocity": 0.29133858267716534,
          "duration": 0.12790697674415696
        },
        {
          "name": "A4",
          "midi": 69,
          "time": 123.43023255812396,
          "velocity": 0.2440944881889764,
          "duration": 0.11627906976741542
        },
        {
          "name": "G7",
          "midi": 103,
          "time": 123.43023255812396,
          "velocity": 0.13385826771653545,
          "duration": 0.05813953488370771
        },
        {
          "name": "D3",
          "midi": 50,
          "time": 123.46511627905419,
          "velocity": 0.33070866141732286,
          "duration": 0.023255813953483084
        },
        {
          "name": "C#7",
          "midi": 97,
          "time": 123.46511627905419,
          "velocity": 0.2283464566929134,
          "duration": 0.19767441860460622
        },
        {
          "name": "E2",
          "midi": 40,
          "time": 123.49999999998441,
          "velocity": 0.3779527559055118,
          "duration": 0.023255813953483084
        },
        {
          "name": "G5",
          "midi": 79,
          "time": 123.51162790696115,
          "velocity": 0.2047244094488189,
          "duration": 0.034883720930224626
        },
        {
          "name": "D7",
          "midi": 98,
          "time": 123.51162790696115,
          "velocity": 0.13385826771653545,
          "duration": 0.20930232558134776
        },
        {
          "name": "A#2",
          "midi": 46,
          "time": 123.5232558139379,
          "velocity": 0.4015748031496063,
          "duration": 0.023255813953483084
        },
        {
          "name": "F7",
          "midi": 101,
          "time": 123.5232558139379,
          "velocity": 0.13385826771653545,
          "duration": 0.04651162790696617
        },
        {
          "name": "B5",
          "midi": 83,
          "time": 123.53488372091464,
          "velocity": 0.2677165354330709,
          "duration": 0.1627906976743816
        },
        {
          "name": "F#2",
          "midi": 42,
          "time": 123.54651162789138,
          "velocity": 0.5354330708661418,
          "duration": 0.034883720930224626
        },
        {
          "name": "G4",
          "midi": 67,
          "time": 123.54651162789138,
          "velocity": 0.48031496062992124,
          "duration": 1.093023255813705
        },
        {
          "name": "B4",
          "midi": 71,
          "time": 123.54651162789138,
          "velocity": 0.29133858267716534,
          "duration": 0.34883720930224626
        },
        {
          "name": "F#5",
          "midi": 78,
          "time": 123.54651162789138,
          "velocity": 0.31496062992125984,
          "duration": 0.0813953488371908
        },
        {
          "name": "G6",
          "midi": 91,
          "time": 123.54651162789138,
          "velocity": 0.18110236220472442,
          "duration": 0.1627906976743816
        },
        {
          "name": "F4",
          "midi": 65,
          "time": 123.55813953486812,
          "velocity": 0.2755905511811024,
          "duration": 0.023255813953483084
        },
        {
          "name": "E7",
          "midi": 100,
          "time": 123.55813953486812,
          "velocity": 0.15748031496062992,
          "duration": 0.10465116279067388
        },
        {
          "name": "E3",
          "midi": 52,
          "time": 123.5813953488216,
          "velocity": 0.41732283464566927,
          "duration": 0.023255813953483084
        },
        {
          "name": "A6",
          "midi": 93,
          "time": 123.5813953488216,
          "velocity": 0.13385826771653545,
          "duration": 0.06976744186044925
        },
        {
          "name": "B3",
          "midi": 59,
          "time": 123.59302325579834,
          "velocity": 0.4015748031496063,
          "duration": 0.15116279069764005
        },
        {
          "name": "E3",
          "midi": 52,
          "time": 123.61627906975183,
          "velocity": 0.4881889763779528,
          "duration": 0.05813953488370771
        },
        {
          "name": "D6",
          "midi": 86,
          "time": 123.66279069765879,
          "velocity": 0.08661417322834646,
          "duration": 0.034883720930224626
        },
        {
          "name": "A5",
          "midi": 81,
          "time": 123.67441860463553,
          "velocity": 0.11023622047244094,
          "duration": 0.06976744186044925
        },
        {
          "name": "D#2",
          "midi": 39,
          "time": 123.69767441858902,
          "velocity": 0.29133858267716534,
          "duration": 0.023255813953483084
        },
        {
          "name": "B2",
          "midi": 47,
          "time": 123.7209302325425,
          "velocity": 0.3228346456692913,
          "duration": 0.04651162790696617
        },
        {
          "name": "C#7",
          "midi": 97,
          "time": 123.7209302325425,
          "velocity": 0.1889763779527559,
          "duration": 0.1395348837208985
        },
        {
          "name": "D#7",
          "midi": 99,
          "time": 123.7209302325425,
          "velocity": 0.13385826771653545,
          "duration": 0.04651162790696617
        },
        {
          "name": "D6",
          "midi": 86,
          "time": 123.73255813951924,
          "velocity": 0.13385826771653545,
          "duration": 0.05813953488370771
        },
        {
          "name": "E2",
          "midi": 40,
          "time": 123.74418604649598,
          "velocity": 0.33858267716535434,
          "duration": 0.023255813953483084
        },
        {
          "name": "C4",
          "midi": 60,
          "time": 123.74418604649598,
          "velocity": 0.29133858267716534,
          "duration": 0.04651162790696617
        },
        {
          "name": "C3",
          "midi": 48,
          "time": 123.76744186044947,
          "velocity": 0.5433070866141733,
          "duration": 0.023255813953483084
        },
        {
          "name": "E4",
          "midi": 64,
          "time": 123.76744186044947,
          "velocity": 0.36220472440944884,
          "duration": 0.3255813953487632
        },
        {
          "name": "A5",
          "midi": 81,
          "time": 123.76744186044947,
          "velocity": 0.07874015748031496,
          "duration": 0.04651162790696617
        },
        {
          "name": "D7",
          "midi": 98,
          "time": 123.76744186044947,
          "velocity": 0.2125984251968504,
          "duration": 0.06976744186044925
        },
        {
          "name": "B3",
          "midi": 59,
          "time": 123.79069767440295,
          "velocity": 0.4094488188976378,
          "duration": 0.11627906976741542
        },
        {
          "name": "E3",
          "midi": 52,
          "time": 123.80232558137969,
          "velocity": 0.5590551181102362,
          "duration": 0.12790697674415696
        },
        {
          "name": "D#7",
          "midi": 99,
          "time": 123.80232558137969,
          "velocity": 0.2440944881889764,
          "duration": 0.05813953488370771
        },
        {
          "name": "F2",
          "midi": 41,
          "time": 123.81395348835643,
          "velocity": 0.49606299212598426,
          "duration": 0.034883720930224626
        },
        {
          "name": "B2",
          "midi": 47,
          "time": 123.84883720928666,
          "velocity": 0.4881889763779528,
          "duration": 0.023255813953483084
        },
        {
          "name": "A5",
          "midi": 81,
          "time": 123.8604651162634,
          "velocity": 0.11023622047244094,
          "duration": 0.11627906976741542
        },
        {
          "name": "C3",
          "midi": 48,
          "time": 123.87209302324014,
          "velocity": 0.5118110236220472,
          "duration": 0.011627906976741542
        },
        {
          "name": "B2",
          "midi": 47,
          "time": 123.88372093021688,
          "velocity": 0.5275590551181102,
          "duration": 0.011627906976741542
        },
        {
          "name": "B5",
          "midi": 83,
          "time": 123.89534883719362,
          "velocity": 0.2125984251968504,
          "duration": 0.29069767441853855
        },
        {
          "name": "B4",
          "midi": 71,
          "time": 123.90697674417036,
          "velocity": 0.3464566929133858,
          "duration": 0.3023255813952801
        },
        {
          "name": "F#7",
          "midi": 102,
          "time": 123.90697674417036,
          "velocity": 0.33858267716535434,
          "duration": 1.0348837209299973
        },
        {
          "name": "C3",
          "midi": 48,
          "time": 123.9186046511471,
          "velocity": 0.5196850393700787,
          "duration": 0.023255813953483084
        },
        {
          "name": "D7",
          "midi": 98,
          "time": 123.9186046511471,
          "velocity": 0.09448818897637795,
          "duration": 0.034883720930224626
        },
        {
          "name": "F3",
          "midi": 53,
          "time": 123.93023255812385,
          "velocity": 0.5118110236220472,
          "duration": 0.011627906976741542
        },
        {
          "name": "D#7",
          "midi": 99,
          "time": 123.93023255812385,
          "velocity": 0.25196850393700787,
          "duration": 0.15116279069764005
        },
        {
          "name": "B2",
          "midi": 47,
          "time": 123.94186046510059,
          "velocity": 0.5590551181102362,
          "duration": 0.034883720930224626
        },
        {
          "name": "E2",
          "midi": 40,
          "time": 123.96511627905407,
          "velocity": 0.5196850393700787,
          "duration": 0.011627906976741542
        },
        {
          "name": "F#5",
          "midi": 78,
          "time": 123.96511627905407,
          "velocity": 0.3858267716535433,
          "duration": 0.0813953488371908
        },
        {
          "name": "A2",
          "midi": 45,
          "time": 123.97674418603081,
          "velocity": 0.5669291338582677,
          "duration": 0.011627906976741542
        },
        {
          "name": "G6",
          "midi": 91,
          "time": 123.97674418603081,
          "velocity": 0.16535433070866143,
          "duration": 0.15116279069764005
        },
        {
          "name": "F2",
          "midi": 41,
          "time": 123.98837209300756,
          "velocity": 0.5433070866141733,
          "duration": 0.011627906976741542
        },
        {
          "name": "B2",
          "midi": 47,
          "time": 123.98837209300756,
          "velocity": 0.5669291338582677,
          "duration": 0.05813953488370771
        },
        {
          "name": "D6",
          "midi": 86,
          "time": 123.98837209300756,
          "velocity": 0.14173228346456693,
          "duration": 0.11627906976741542
        },
        {
          "name": "F2",
          "midi": 41,
          "time": 124.01162790696104,
          "velocity": 0.5275590551181102,
          "duration": 0.011627906976741542
        },
        {
          "name": "E2",
          "midi": 40,
          "time": 124.02325581393778,
          "velocity": 0.5118110236220472,
          "duration": 0.023255813953483084
        },
        {
          "name": "C#7",
          "midi": 97,
          "time": 124.02325581393778,
          "velocity": 0.1889763779527559,
          "duration": 0.06976744186044925
        },
        {
          "name": "C3",
          "midi": 48,
          "time": 124.04651162789126,
          "velocity": 0.5748031496062992,
          "duration": 0.011627906976741542
        },
        {
          "name": "D7",
          "midi": 98,
          "time": 124.04651162789126,
          "velocity": 0.3700787401574803,
          "duration": 0.6744186046510094
        },
        {
          "name": "F#2",
          "midi": 42,
          "time": 124.058139534868,
          "velocity": 0.5748031496062992,
          "duration": 0.011627906976741542
        },
        {
          "name": "F#5",
          "midi": 78,
          "time": 124.058139534868,
          "velocity": 0.33858267716535434,
          "duration": 0.06976744186044925
        },
        {
          "name": "E2",
          "midi": 40,
          "time": 124.06976744184475,
          "velocity": 0.5590551181102362,
          "duration": 0.023255813953483084
        },
        {
          "name": "C7",
          "midi": 96,
          "time": 124.06976744184475,
          "velocity": 0.09448818897637795,
          "duration": 0.034883720930224626
        },
        {
          "name": "F2",
          "midi": 41,
          "time": 124.09302325579823,
          "velocity": 0.5433070866141733,
          "duration": 0.011627906976741542
        },
        {
          "name": "E2",
          "midi": 40,
          "time": 124.10465116277497,
          "velocity": 0.5354330708661418,
          "duration": 0.011627906976741542
        },
        {
          "name": "C#7",
          "midi": 97,
          "time": 124.10465116277497,
          "velocity": 0.2440944881889764,
          "duration": 0.18604651162786467
        },
        {
          "name": "F2",
          "midi": 41,
          "time": 124.11627906975171,
          "velocity": 0.5354330708661418,
          "duration": 0.023255813953483084
        },
        {
          "name": "A5",
          "midi": 81,
          "time": 124.12790697672845,
          "velocity": 0.14173228346456693,
          "duration": 0.04651162790696617
        },
        {
          "name": "E2",
          "midi": 40,
          "time": 124.1395348837052,
          "velocity": 0.44881889763779526,
          "duration": 0.04651162790696617
        },
        {
          "name": "F3",
          "midi": 53,
          "time": 124.1395348837052,
          "velocity": 0.2440944881889764,
          "duration": 0.034883720930224626
        },
        {
          "name": "F#5",
          "midi": 78,
          "time": 124.1395348837052,
          "velocity": 0.12598425196850394,
          "duration": 0.04651162790696617
        },
        {
          "name": "D6",
          "midi": 86,
          "time": 124.15116279068194,
          "velocity": 0.2047244094488189,
          "duration": 0.20930232558134776
        },
        {
          "name": "G6",
          "midi": 91,
          "time": 124.16279069765868,
          "velocity": 0.12598425196850394,
          "duration": 0.10465116279067388
        },
        {
          "name": "D#7",
          "midi": 99,
          "time": 124.16279069765868,
          "velocity": 0.28346456692913385,
          "duration": 0.3604651162789878
        },
        {
          "name": "D5",
          "midi": 74,
          "time": 124.17441860463542,
          "velocity": 0.4015748031496063,
          "duration": 0.034883720930224626
        },
        {
          "name": "A#3",
          "midi": 58,
          "time": 124.18604651161216,
          "velocity": 0.4881889763779528,
          "duration": 0.04651162790696617
        },
        {
          "name": "A5",
          "midi": 81,
          "time": 124.18604651161216,
          "velocity": 0.28346456692913385,
          "duration": 0.24418604651157239
        },
        {
          "name": "E6",
          "midi": 88,
          "time": 124.18604651161216,
          "velocity": 0.1732283464566929,
          "duration": 0.12790697674415696
        },
        {
          "name": "C7",
          "midi": 96,
          "time": 124.18604651161216,
          "velocity": 0.15748031496062992,
          "duration": 0.034883720930224626
        },
        {
          "name": "F7",
          "midi": 101,
          "time": 124.18604651161216,
          "velocity": 0.23622047244094488,
          "duration": 0.31395348837202164
        },
        {
          "name": "E5",
          "midi": 76,
          "time": 124.1976744185889,
          "velocity": 0.25196850393700787,
          "duration": 0.023255813953483084
        },
        {
          "name": "F#5",
          "midi": 78,
          "time": 124.1976744185889,
          "velocity": 0.1732283464566929,
          "duration": 0.04651162790696617
        },
        {
          "name": "C6",
          "midi": 84,
          "time": 124.1976744185889,
          "velocity": 0.09448818897637795,
          "duration": 0.04651162790696617
        },
        {
          "name": "G#2",
          "midi": 44,
          "time": 124.20930232556564,
          "velocity": 0.41732283464566927,
          "duration": 0.023255813953483084
        },
        {
          "name": "E4",
          "midi": 64,
          "time": 124.20930232556564,
          "velocity": 0.2992125984251969,
          "duration": 0.023255813953483084
        },
        {
          "name": "G#6",
          "midi": 92,
          "time": 124.20930232556564,
          "velocity": 0.29133858267716534,
          "duration": 0.558139534883594
        },
        {
          "name": "B4",
          "midi": 71,
          "time": 124.22093023254239,
          "velocity": 0.3700787401574803,
          "duration": 0.31395348837202164
        },
        {
          "name": "C3",
          "midi": 48,
          "time": 124.23255813951913,
          "velocity": 0.4094488188976378,
          "duration": 0.034883720930224626
        },
        {
          "name": "C7",
          "midi": 96,
          "time": 124.23255813951913,
          "velocity": 0.11811023622047244,
          "duration": 0.034883720930224626
        },
        {
          "name": "G7",
          "midi": 103,
          "time": 124.23255813951913,
          "velocity": 0.14173228346456693,
          "duration": 0.0813953488371908
        },
        {
          "name": "D5",
          "midi": 74,
          "time": 124.25581395347261,
          "velocity": 0.2440944881889764,
          "duration": 0.0813953488371908
        },
        {
          "name": "B2",
          "midi": 47,
          "time": 124.2790697674261,
          "velocity": 0.25984251968503935,
          "duration": 0.023255813953483084
        },
        {
          "name": "B3",
          "midi": 59,
          "time": 124.2790697674261,
          "velocity": 0.25984251968503935,
          "duration": 0.023255813953483084
        },
        {
          "name": "E4",
          "midi": 64,
          "time": 124.30232558137958,
          "velocity": 0.29133858267716534,
          "duration": 0.09302325581393234
        },
        {
          "name": "C#7",
          "midi": 97,
          "time": 124.30232558137958,
          "velocity": 0.29133858267716534,
          "duration": 0.18604651162786467
        },
        {
          "name": "E2",
          "midi": 40,
          "time": 124.31395348835632,
          "velocity": 0.30708661417322836,
          "duration": 0.023255813953483084
        },
        {
          "name": "E3",
          "midi": 52,
          "time": 124.31395348835632,
          "velocity": 0.3700787401574803,
          "duration": 0.09302325581393234
        },
        {
          "name": "A#3",
          "midi": 58,
          "time": 124.32558139533306,
          "velocity": 0.2283464566929134,
          "duration": 0.023255813953483084
        },
        {
          "name": "F#5",
          "midi": 78,
          "time": 124.32558139533306,
          "velocity": 0.15748031496062992,
          "duration": 0.05813953488370771
        },
        {
          "name": "D#2",
          "midi": 39,
          "time": 124.3372093023098,
          "velocity": 0.2440944881889764,
          "duration": 0.023255813953483084
        },
        {
          "name": "B3",
          "midi": 59,
          "time": 124.36046511626328,
          "velocity": 0.1889763779527559,
          "duration": 0.034883720930224626
        },
        {
          "name": "G6",
          "midi": 91,
          "time": 124.36046511626328,
          "velocity": 0.13385826771653545,
          "duration": 0.1395348837208985
        },
        {
          "name": "E5",
          "midi": 76,
          "time": 124.38372093021677,
          "velocity": 0.33070866141732286,
          "duration": 0.24418604651157239
        },
        {
          "name": "F#6",
          "midi": 90,
          "time": 124.39534883719351,
          "velocity": 0.16535433070866143,
          "duration": 0.2209302325580893
        },
        {
          "name": "G7",
          "midi": 103,
          "time": 124.39534883719351,
          "velocity": 0.2047244094488189,
          "duration": 0.15116279069764005
        },
        {
          "name": "C#2",
          "midi": 37,
          "time": 124.40697674417025,
          "velocity": 0.5196850393700787,
          "duration": 0.011627906976741542
        },
        {
          "name": "F#5",
          "midi": 78,
          "time": 124.40697674417025,
          "velocity": 0.28346456692913385,
          "duration": 0.06976744186044925
        },
        {
          "name": "D6",
          "midi": 86,
          "time": 124.40697674417025,
          "velocity": 0.11023622047244094,
          "duration": 0.034883720930224626
        },
        {
          "name": "E7",
          "midi": 100,
          "time": 124.40697674417025,
          "velocity": 0.2047244094488189,
          "duration": 0.17441860465112313
        },
        {
          "name": "G#2",
          "midi": 44,
          "time": 124.45348837207722,
          "velocity": 0.4881889763779528,
          "duration": 0.023255813953483084
        },
        {
          "name": "B3",
          "midi": 59,
          "time": 124.45348837207722,
          "velocity": 0.3543307086614173,
          "duration": 0.1627906976743816
        },
        {
          "name": "D#6",
          "midi": 87,
          "time": 124.45348837207722,
          "velocity": 0.11811023622047244,
          "duration": 0.05813953488370771
        },
        {
          "name": "E4",
          "midi": 64,
          "time": 124.46511627905396,
          "velocity": 0.2125984251968504,
          "duration": 0.0813953488371908
        },
        {
          "name": "E3",
          "midi": 52,
          "time": 124.4767441860307,
          "velocity": 0.33070866141732286,
          "duration": 0.034883720930224626
        },
        {
          "name": "C7",
          "midi": 96,
          "time": 124.4767441860307,
          "velocity": 0.18110236220472442,
          "duration": 0.034883720930224626
        },
        {
          "name": "E2",
          "midi": 40,
          "time": 124.49999999998418,
          "velocity": 0.49606299212598426,
          "duration": 0.034883720930224626
        },
        {
          "name": "C#7",
          "midi": 97,
          "time": 124.49999999998418,
          "velocity": 0.23622047244094488,
          "duration": 0.2209302325580893
        },
        {
          "name": "F3",
          "midi": 53,
          "time": 124.52325581393767,
          "velocity": 0.3543307086614173,
          "duration": 0.023255813953483084
        },
        {
          "name": "E2",
          "midi": 40,
          "time": 124.54651162789115,
          "velocity": 0.4330708661417323,
          "duration": 0.023255813953483084
        },
        {
          "name": "D#6",
          "midi": 87,
          "time": 124.54651162789115,
          "velocity": 0.12598425196850394,
          "duration": 0.034883720930224626
        },
        {
          "name": "F7",
          "midi": 101,
          "time": 124.54651162789115,
          "velocity": 0.09448818897637795,
          "duration": 0.09302325581393234
        },
        {
          "name": "F#5",
          "midi": 78,
          "time": 124.55813953486789,
          "velocity": 0.07874015748031496,
          "duration": 0.04651162790696617
        },
        {
          "name": "D#7",
          "midi": 99,
          "time": 124.55813953486789,
          "velocity": 0.13385826771653545,
          "duration": 0.12790697674415696
        },
        {
          "name": "F#2",
          "midi": 42,
          "time": 124.56976744184463,
          "velocity": 0.4094488188976378,
          "duration": 0.034883720930224626
        },
        {
          "name": "D5",
          "midi": 74,
          "time": 124.56976744184463,
          "velocity": 0.10236220472440945,
          "duration": 0.034883720930224626
        },
        {
          "name": "G7",
          "midi": 103,
          "time": 124.58139534882137,
          "velocity": 0.13385826771653545,
          "duration": 0.05813953488370771
        },
        {
          "name": "D#2",
          "midi": 39,
          "time": 124.6162790697516,
          "velocity": 0.5354330708661418,
          "duration": 0.011627906976741542
        },
        {
          "name": "C7",
          "midi": 96,
          "time": 124.6162790697516,
          "velocity": 0.12598425196850394,
          "duration": 0.04651162790696617
        },
        {
          "name": "G#2",
          "midi": 44,
          "time": 124.62790697672834,
          "velocity": 0.5905511811023622,
          "duration": 0.023255813953483084
        },
        {
          "name": "A3",
          "midi": 57,
          "time": 124.62790697672834,
          "velocity": 0.4645669291338583,
          "duration": 0.04651162790696617
        },
        {
          "name": "C5",
          "midi": 72,
          "time": 124.62790697672834,
          "velocity": 0.33070866141732286,
          "duration": 0.023255813953483084
        },
        {
          "name": "E4",
          "midi": 64,
          "time": 124.63953488370508,
          "velocity": 0.4251968503937008,
          "duration": 0.41860465116270973
        },
        {
          "name": "C#6",
          "midi": 85,
          "time": 124.63953488370508,
          "velocity": 0.11023622047244094,
          "duration": 0.06976744186044925
        },
        {
          "name": "A6",
          "midi": 93,
          "time": 124.63953488370508,
          "velocity": 0.25984251968503935,
          "duration": 0.04651162790696617
        },
        {
          "name": "A#6",
          "midi": 94,
          "time": 124.63953488370508,
          "velocity": 0.25984251968503935,
          "duration": 0.15116279069764005
        },
        {
          "name": "F2",
          "midi": 41,
          "time": 124.65116279068182,
          "velocity": 0.5354330708661418,
          "duration": 0.011627906976741542
        },
        {
          "name": "B4",
          "midi": 71,
          "time": 124.65116279068182,
          "velocity": 0.3700787401574803,
          "duration": 0.17441860465112313
        },
        {
          "name": "E2",
          "midi": 40,
          "time": 124.66279069765856,
          "velocity": 0.5118110236220472,
          "duration": 0.011627906976741542
        },
        {
          "name": "F#6",
          "midi": 90,
          "time": 124.6744186046353,
          "velocity": 0.1732283464566929,
          "duration": 0.04651162790696617
        },
        {
          "name": "E2",
          "midi": 40,
          "time": 124.68604651161205,
          "velocity": 0.4881889763779528,
          "duration": 0.034883720930224626
        },
        {
          "name": "E3",
          "midi": 52,
          "time": 124.68604651161205,
          "velocity": 0.5196850393700787,
          "duration": 0.04651162790696617
        },
        {
          "name": "B3",
          "midi": 59,
          "time": 124.68604651161205,
          "velocity": 0.3779527559055118,
          "duration": 0.034883720930224626
        },
        {
          "name": "D6",
          "midi": 86,
          "time": 124.69767441858879,
          "velocity": 0.12598425196850394,
          "duration": 0.04651162790696617
        },
        {
          "name": "G#4",
          "midi": 68,
          "time": 124.70930232556553,
          "velocity": 0.2283464566929134,
          "duration": 0.06976744186044925
        },
        {
          "name": "C3",
          "midi": 48,
          "time": 124.73255813951901,
          "velocity": 0.4645669291338583,
          "duration": 0.023255813953483084
        },
        {
          "name": "F3",
          "midi": 53,
          "time": 124.73255813951901,
          "velocity": 0.5196850393700787,
          "duration": 0.011627906976741542
        },
        {
          "name": "F#5",
          "midi": 78,
          "time": 124.73255813951901,
          "velocity": 0.08661417322834646,
          "duration": 0.05813953488370771
        },
        {
          "name": "G#3",
          "midi": 56,
          "time": 124.76744186044924,
          "velocity": 0.30708661417322836,
          "duration": 0.023255813953483084
        },
        {
          "name": "E7",
          "midi": 100,
          "time": 124.76744186044924,
          "velocity": 0.14173228346456693,
          "duration": 0.15116279069764005
        },
        {
          "name": "D#2",
          "midi": 39,
          "time": 124.79069767440272,
          "velocity": 0.25196850393700787,
          "duration": 0.023255813953483084
        },
        {
          "name": "E3",
          "midi": 52,
          "time": 124.80232558137946,
          "velocity": 0.3228346456692913,
          "duration": 0.034883720930224626
        },
        {
          "name": "C7",
          "midi": 96,
          "time": 124.80232558137946,
          "velocity": 0.14173228346456693,
          "duration": 0.04651162790696617
        },
        {
          "name": "B3",
          "midi": 59,
          "time": 124.8139534883562,
          "velocity": 0.2204724409448819,
          "duration": 0.034883720930224626
        },
        {
          "name": "F#5",
          "midi": 78,
          "time": 124.8139534883562,
          "velocity": 0.2755905511811024,
          "duration": 0.05813953488370771
        },
        {
          "name": "C6",
          "midi": 84,
          "time": 124.8139534883562,
          "velocity": 0.11023622047244094,
          "duration": 0.034883720930224626
        },
        {
          "name": "C3",
          "midi": 48,
          "time": 124.83720930230969,
          "velocity": 0.3779527559055118,
          "duration": 0.023255813953483084
        },
        {
          "name": "B5",
          "midi": 83,
          "time": 124.83720930230969,
          "velocity": 0.1968503937007874,
          "duration": 0.11627906976741542
        },
        {
          "name": "G6",
          "midi": 91,
          "time": 124.83720930230969,
          "velocity": 0.13385826771653545,
          "duration": 0.04651162790696617
        },
        {
          "name": "D#7",
          "midi": 99,
          "time": 124.83720930230969,
          "velocity": 0.15748031496062992,
          "duration": 0.06976744186044925
        },
        {
          "name": "A#3",
          "midi": 58,
          "time": 124.84883720928643,
          "velocity": 0.30708661417322836,
          "duration": 0.034883720930224626
        },
        {
          "name": "G4",
          "midi": 67,
          "time": 124.84883720928643,
          "velocity": 0.41732283464566927,
          "duration": 0.6511627906975406
        },
        {
          "name": "B4",
          "midi": 71,
          "time": 124.84883720928643,
          "velocity": 0.3543307086614173,
          "duration": 0.31395348837203585
        },
        {
          "name": "C#7",
          "midi": 97,
          "time": 124.84883720928643,
          "velocity": 0.14960629921259844,
          "duration": 0.05813953488370771
        },
        {
          "name": "D#3",
          "midi": 51,
          "time": 124.87209302323991,
          "velocity": 0.5039370078740157,
          "duration": 0.04651162790696617
        },
        {
          "name": "D7",
          "midi": 98,
          "time": 124.87209302323991,
          "velocity": 0.08661417322834646,
          "duration": 0.04651162790696617
        },
        {
          "name": "F2",
          "midi": 41,
          "time": 124.88372093021665,
          "velocity": 0.5354330708661418,
          "duration": 0.023255813953483084
        },
        {
          "name": "B3",
          "midi": 59,
          "time": 124.88372093021665,
          "velocity": 0.3228346456692913,
          "duration": 0.034883720930224626
        },
        {
          "name": "F#5",
          "midi": 78,
          "time": 124.88372093021665,
          "velocity": 0.3228346456692913,
          "duration": 0.10465116279068809
        },
        {
          "name": "G6",
          "midi": 91,
          "time": 124.90697674417014,
          "velocity": 0.13385826771653545,
          "duration": 0.04651162790696617
        },
        {
          "name": "E3",
          "midi": 52,
          "time": 124.91860465114688,
          "velocity": 0.5590551181102362,
          "duration": 0.10465116279068809
        },
        {
          "name": "B3",
          "midi": 59,
          "time": 124.93023255812362,
          "velocity": 0.2992125984251969,
          "duration": 0.12790697674417117
        },
        {
          "name": "A#6",
          "midi": 94,
          "time": 124.93023255812362,
          "velocity": 0.3228346456692913,
          "duration": 0.25581395348832814
        },
        {
          "name": "F7",
          "midi": 101,
          "time": 124.93023255812362,
          "velocity": 0.18110236220472442,
          "duration": 0.12790697674417117
        },
        {
          "name": "C7",
          "midi": 96,
          "time": 124.98837209300734,
          "velocity": 0.11023622047244094,
          "duration": 0.04651162790696617
        },
        {
          "name": "E2",
          "midi": 40,
          "time": 124.99999999998408,
          "velocity": 0.5354330708661418,
          "duration": 0.034883720930224626
        },
        {
          "name": "F#5",
          "midi": 78,
          "time": 124.99999999998408,
          "velocity": 0.2204724409448819,
          "duration": 0.18604651162786467
        },
        {
          "name": "F3",
          "midi": 53,
          "time": 125.02325581393757,
          "velocity": 0.4094488188976378,
          "duration": 0.023255813953483084
        },
        {
          "name": "F2",
          "midi": 41,
          "time": 125.03488372091431,
          "velocity": 0.5433070866141733,
          "duration": 0.023255813953483084
        },
        {
          "name": "A6",
          "midi": 93,
          "time": 125.03488372091431,
          "velocity": 0.23622047244094488,
          "duration": 0.06976744186044925
        },
        {
          "name": "E7",
          "midi": 100,
          "time": 125.03488372091431,
          "velocity": 0.16535433070866143,
          "duration": 0.09302325581393234
        },
        {
          "name": "D5",
          "midi": 74,
          "time": 125.04651162789105,
          "velocity": 0.1889763779527559,
          "duration": 0.05813953488370771
        },
        {
          "name": "G3",
          "midi": 55,
          "time": 125.05813953486779,
          "velocity": 0.3700787401574803,
          "duration": 0.034883720930224626
        },
        {
          "name": "A5",
          "midi": 81,
          "time": 125.05813953486779,
          "velocity": 0.2755905511811024,
          "duration": 0.24418604651157239
        },
        {
          "name": "G6",
          "midi": 91,
          "time": 125.05813953486779,
          "velocity": 0.1732283464566929,
          "duration": 0.06976744186044925
        },
        {
          "name": "C#7",
          "midi": 97,
          "time": 125.05813953486779,
          "velocity": 0.2677165354330709,
          "duration": 0.39534883720921243
        },
        {
          "name": "D7",
          "midi": 98,
          "time": 125.05813953486779,
          "velocity": 0.14960629921259844,
          "duration": 0.034883720930224626
        },
        {
          "name": "F2",
          "midi": 41,
          "time": 125.06976744184453,
          "velocity": 0.5748031496062992,
          "duration": 0.034883720930224626
        },
        {
          "name": "F#3",
          "midi": 54,
          "time": 125.09302325579802,
          "velocity": 0.31496062992125984,
          "duration": 0.023255813953483084
        },
        {
          "name": "B3",
          "midi": 59,
          "time": 125.09302325579802,
          "velocity": 0.3543307086614173,
          "duration": 0.17441860465112313
        },
        {
          "name": "D#6",
          "midi": 87,
          "time": 125.09302325579802,
          "velocity": 0.1732283464566929,
          "duration": 0.1395348837208985
        },
        {
          "name": "F#7",
          "midi": 102,
          "time": 125.10465116277476,
          "velocity": 0.15748031496062992,
          "duration": 0.09302325581393234
        },
        {
          "name": "E3",
          "midi": 52,
          "time": 125.1162790697515,
          "velocity": 0.2755905511811024,
          "duration": 0.023255813953483084
        },
        {
          "name": "C7",
          "midi": 96,
          "time": 125.1162790697515,
          "velocity": 0.10236220472440945,
          "duration": 0.10465116279067388
        },
        {
          "name": "D7",
          "midi": 98,
          "time": 125.1162790697515,
          "velocity": 0.18110236220472442,
          "duration": 0.1395348837208985
        },
        {
          "name": "D#7",
          "midi": 99,
          "time": 125.1162790697515,
          "velocity": 0.2283464566929134,
          "duration": 0.4418604651161786
        },
        {
          "name": "D#2",
          "midi": 39,
          "time": 125.13953488370498,
          "velocity": 0.5118110236220472,
          "duration": 0.023255813953483084
        },
        {
          "name": "D5",
          "midi": 74,
          "time": 125.13953488370498,
          "velocity": 0.14960629921259844,
          "duration": 0.06976744186044925
        },
        {
          "name": "E2",
          "midi": 40,
          "time": 125.16279069765847,
          "velocity": 0.5275590551181102,
          "duration": 0.011627906976741542
        },
        {
          "name": "F3",
          "midi": 53,
          "time": 125.16279069765847,
          "velocity": 0.3464566929133858,
          "duration": 0.023255813953483084
        },
        {
          "name": "E3",
          "midi": 52,
          "time": 125.18604651161195,
          "velocity": 0.29133858267716534,
          "duration": 0.034883720930224626
        },
        {
          "name": "F7",
          "midi": 101,
          "time": 125.18604651161195,
          "velocity": 0.11811023622047244,
          "duration": 0.06976744186044925
        },
        {
          "name": "D#5",
          "midi": 75,
          "time": 125.20930232556543,
          "velocity": 0.2755905511811024,
          "duration": 0.04651162790696617
        },
        {
          "name": "F#5",
          "midi": 78,
          "time": 125.20930232556543,
          "velocity": 0.36220472440944884,
          "duration": 0.12790697674415696
        },
        {
          "name": "G6",
          "midi": 91,
          "time": 125.20930232556543,
          "velocity": 0.11811023622047244,
          "duration": 0.034883720930224626
        },
        {
          "name": "G7",
          "midi": 103,
          "time": 125.20930232556543,
          "velocity": 0.14173228346456693,
          "duration": 0.1395348837208985
        },
        {
          "name": "F#7",
          "midi": 102,
          "time": 125.22093023254217,
          "velocity": 0.07086614173228346,
          "duration": 0.034883720930224626
        },
        {
          "name": "E3",
          "midi": 52,
          "time": 125.24418604649566,
          "velocity": 0.48031496062992124,
          "duration": 0.034883720930224626
        },
        {
          "name": "G6",
          "midi": 91,
          "time": 125.2558139534724,
          "velocity": 0.2204724409448819,
          "duration": 0.1395348837208985
        },
        {
          "name": "E2",
          "midi": 40,
          "time": 125.26744186044914,
          "velocity": 0.5433070866141733,
          "duration": 0.011627906976741542
        },
        {
          "name": "A#6",
          "midi": 94,
          "time": 125.26744186044914,
          "velocity": 0.1732283464566929,
          "duration": 0.09302325581393234
        },
        {
          "name": "E7",
          "midi": 100,
          "time": 125.26744186044914,
          "velocity": 0.1732283464566929,
          "duration": 0.05813953488370771
        },
        {
          "name": "G#2",
          "midi": 44,
          "time": 125.27906976742588,
          "velocity": 0.6062992125984252,
          "duration": 0.011627906976741542
        },
        {
          "name": "E4",
          "midi": 64,
          "time": 125.27906976742588,
          "velocity": 0.33858267716535434,
          "duration": 0.023255813953483084
        },
        {
          "name": "D6",
          "midi": 86,
          "time": 125.27906976742588,
          "velocity": 0.10236220472440945,
          "duration": 0.04651162790696617
        },
        {
          "name": "C7",
          "midi": 96,
          "time": 125.27906976742588,
          "velocity": 0.28346456692913385,
          "duration": 0.0813953488371908
        },
        {
          "name": "D7",
          "midi": 98,
          "time": 125.27906976742588,
          "velocity": 0.1968503937007874,
          "duration": 0.06976744186044925
        },
        {
          "name": "F#2",
          "midi": 42,
          "time": 125.29069767440262,
          "velocity": 0.5826771653543307,
          "duration": 0.011627906976741542
        },
        {
          "name": "E2",
          "midi": 40,
          "time": 125.30232558137936,
          "velocity": 0.5590551181102362,
          "duration": 0.011627906976741542
        },
        {
          "name": "F2",
          "midi": 41,
          "time": 125.3139534883561,
          "velocity": 0.5511811023622047,
          "duration": 0.023255813953483084
        },
        {
          "name": "B3",
          "midi": 59,
          "time": 125.3139534883561,
          "velocity": 0.4094488188976378,
          "duration": 0.1395348837208985
        },
        {
          "name": "D#4",
          "midi": 63,
          "time": 125.3139534883561,
          "velocity": 0.29133858267716534,
          "duration": 0.023255813953483084
        },
        {
          "name": "E2",
          "midi": 40,
          "time": 125.33720930230959,
          "velocity": 0.5433070866141733,
          "duration": 0.034883720930224626
        },
        {
          "name": "A5",
          "midi": 81,
          "time": 125.33720930230959,
          "velocity": 0.07874015748031496,
          "duration": 0.0813953488371908
        },
        {
          "name": "B2",
          "midi": 47,
          "time": 125.34883720928633,
          "velocity": 0.49606299212598426,
          "duration": 0.023255813953483084
        },
        {
          "name": "G#6",
          "midi": 92,
          "time": 125.34883720928633,
          "velocity": 0.1732283464566929,
          "duration": 0.0813953488371908
        },
        {
          "name": "D#3",
          "midi": 51,
          "time": 125.37209302323981,
          "velocity": 0.5275590551181102,
          "duration": 0.011627906976741542
        },
        {
          "name": "E3",
          "midi": 52,
          "time": 125.38372093021655,
          "velocity": 0.49606299212598426,
          "duration": 0.023255813953483084
        },
        {
          "name": "D5",
          "midi": 74,
          "time": 125.38372093021655,
          "velocity": 0.2283464566929134,
          "duration": 0.1395348837208985
        },
        {
          "name": "E4",
          "midi": 64,
          "time": 125.40697674417004,
          "velocity": 0.2440944881889764,
          "duration": 0.04651162790696617
        },
        {
          "name": "D7",
          "midi": 98,
          "time": 125.40697674417004,
          "velocity": 0.2755905511811024,
          "duration": 0.3255813953487632
        },
        {
          "name": "E2",
          "midi": 40,
          "time": 125.41860465114678,
          "velocity": 0.29133858267716534,
          "duration": 0.023255813953483084
        },
        {
          "name": "E2",
          "midi": 40,
          "time": 125.453488372077,
          "velocity": 0.2992125984251969,
          "duration": 0.023255813953483084
        },
        {
          "name": "C3",
          "midi": 48,
          "time": 125.47674418603049,
          "velocity": 0.5511811023622047,
          "duration": 0.023255813953483084
        },
        {
          "name": "F#5",
          "midi": 78,
          "time": 125.48837209300723,
          "velocity": 0.36220472440944884,
          "duration": 0.1627906976743816
        },
        {
          "name": "A5",
          "midi": 81,
          "time": 125.48837209300723,
          "velocity": 0.1732283464566929,
          "duration": 0.04651162790696617
        },
        {
          "name": "E7",
          "midi": 100,
          "time": 125.48837209300723,
          "velocity": 0.2440944881889764,
          "duration": 0.09302325581393234
        },
        {
          "name": "B3",
          "midi": 59,
          "time": 125.49999999998397,
          "velocity": 0.41732283464566927,
          "duration": 0.11627906976741542
        },
        {
          "name": "C#7",
          "midi": 97,
          "time": 125.49999999998397,
          "velocity": 0.1732283464566929,
          "duration": 0.12790697674415696
        },
        {
          "name": "G4",
          "midi": 67,
          "time": 125.51162790696071,
          "velocity": 0.3779527559055118,
          "duration": 0.4186046511626955
        },
        {
          "name": "A#6",
          "midi": 94,
          "time": 125.51162790696071,
          "velocity": 0.2125984251968504,
          "duration": 0.09302325581393234
        },
        {
          "name": "D#3",
          "midi": 51,
          "time": 125.5348837209142,
          "velocity": 0.5118110236220472,
          "duration": 0.011627906976741542
        },
        {
          "name": "E5",
          "midi": 76,
          "time": 125.5348837209142,
          "velocity": 0.3858267716535433,
          "duration": 0.29069767441853855
        },
        {
          "name": "E3",
          "midi": 52,
          "time": 125.54651162789094,
          "velocity": 0.5039370078740157,
          "duration": 0.034883720930224626
        },
        {
          "name": "F3",
          "midi": 53,
          "time": 125.58139534882116,
          "velocity": 0.5354330708661418,
          "duration": 0.011627906976741542
        },
        {
          "name": "A6",
          "midi": 93,
          "time": 125.58139534882116,
          "velocity": 0.18110236220472442,
          "duration": 0.17441860465112313
        },
        {
          "name": "E3",
          "midi": 52,
          "time": 125.5930232557979,
          "velocity": 0.5433070866141733,
          "duration": 0.011627906976741542
        },
        {
          "name": "D5",
          "midi": 74,
          "time": 125.5930232557979,
          "velocity": 0.28346456692913385,
          "duration": 0.3604651162789878
        },
        {
          "name": "F3",
          "midi": 53,
          "time": 125.60465116277464,
          "velocity": 0.5354330708661418,
          "duration": 0.011627906976741542
        },
        {
          "name": "E7",
          "midi": 100,
          "time": 125.60465116277464,
          "velocity": 0.2440944881889764,
          "duration": 0.15116279069764005
        },
        {
          "name": "E3",
          "midi": 52,
          "time": 125.61627906975139,
          "velocity": 0.5433070866141733,
          "duration": 0.023255813953483084
        },
        {
          "name": "C3",
          "midi": 48,
          "time": 125.63953488370487,
          "velocity": 0.5275590551181102,
          "duration": 0.023255813953483084
        },
        {
          "name": "F3",
          "midi": 53,
          "time": 125.63953488370487,
          "velocity": 0.5118110236220472,
          "duration": 0.011627906976741542
        },
        {
          "name": "B2",
          "midi": 47,
          "time": 125.66279069765835,
          "velocity": 0.5669291338582677,
          "duration": 0.06976744186044925
        },
        {
          "name": "F#6",
          "midi": 90,
          "time": 125.66279069765835,
          "velocity": 0.36220472440944884,
          "duration": 0.3255813953487632
        },
        {
          "name": "F#5",
          "midi": 78,
          "time": 125.6744186046351,
          "velocity": 0.5118110236220472,
          "duration": 0.26744186046505547
        },
        {
          "name": "C4",
          "midi": 60,
          "time": 125.68604651161183,
          "velocity": 0.2283464566929134,
          "duration": 0.023255813953483084
        },
        {
          "name": "B4",
          "midi": 71,
          "time": 125.68604651161183,
          "velocity": 0.28346456692913385,
          "duration": 0.19767441860460622
        },
        {
          "name": "G#6",
          "midi": 92,
          "time": 125.69767441858858,
          "velocity": 0.08661417322834646,
          "duration": 0.05813953488370771
        },
        {
          "name": "C#7",
          "midi": 97,
          "time": 125.69767441858858,
          "velocity": 0.36220472440944884,
          "duration": 0.406976744185954
        },
        {
          "name": "D#7",
          "midi": 99,
          "time": 125.70930232556532,
          "velocity": 0.25984251968503935,
          "duration": 0.3837209302324709
        },
        {
          "name": "E2",
          "midi": 40,
          "time": 125.72093023254206,
          "velocity": 0.5511811023622047,
          "duration": 0.011627906976741542
        },
        {
          "name": "F2",
          "midi": 41,
          "time": 125.7325581395188,
          "velocity": 0.5669291338582677,
          "duration": 0.011627906976741542
        },
        {
          "name": "C3",
          "midi": 48,
          "time": 125.7325581395188,
          "velocity": 0.5354330708661418,
          "duration": 0.011627906976741542
        },
        {
          "name": "C7",
          "midi": 96,
          "time": 125.7325581395188,
          "velocity": 0.1889763779527559,
          "duration": 0.11627906976741542
        },
        {
          "name": "G#2",
          "midi": 44,
          "time": 125.74418604649554,
          "velocity": 0.6062992125984252,
          "duration": 0.011627906976741542
        },
        {
          "name": "A5",
          "midi": 81,
          "time": 125.74418604649554,
          "velocity": 0.10236220472440945,
          "duration": 0.05813953488370771
        },
        {
          "name": "D#6",
          "midi": 87,
          "time": 125.74418604649554,
          "velocity": 0.11023622047244094,
          "duration": 0.05813953488370771
        },
        {
          "name": "A#2",
          "midi": 46,
          "time": 125.75581395347228,
          "velocity": 0.5196850393700787,
          "duration": 0.011627906976741542
        },
        {
          "name": "D7",
          "midi": 98,
          "time": 125.75581395347228,
          "velocity": 0.2204724409448819,
          "duration": 0.1395348837208985
        },
        {
          "name": "B2",
          "midi": 47,
          "time": 125.76744186044903,
          "velocity": 0.5118110236220472,
          "duration": 0.011627906976741542
        },
        {
          "name": "E4",
          "midi": 64,
          "time": 125.76744186044903,
          "velocity": 0.18110236220472442,
          "duration": 0.09302325581393234
        },
        {
          "name": "A6",
          "midi": 93,
          "time": 125.76744186044903,
          "velocity": 0.12598425196850394,
          "duration": 0.12790697674415696
        },
        {
          "name": "F2",
          "midi": 41,
          "time": 125.77906976742577,
          "velocity": 0.5748031496062992,
          "duration": 0.04651162790696617
        },
        {
          "name": "E3",
          "midi": 52,
          "time": 125.80232558137925,
          "velocity": 0.41732283464566927,
          "duration": 0.05813953488370771
        },
        {
          "name": "B6",
          "midi": 95,
          "time": 125.80232558137925,
          "velocity": 0.2677165354330709,
          "duration": 0.406976744185954
        },
        {
          "name": "F7",
          "midi": 101,
          "time": 125.80232558137925,
          "velocity": 0.12598425196850394,
          "duration": 0.0813953488371908
        },
        {
          "name": "E2",
          "midi": 40,
          "time": 125.82558139533273,
          "velocity": 0.48031496062992124,
          "duration": 0.023255813953483084
        },
        {
          "name": "B3",
          "midi": 59,
          "time": 125.82558139533273,
          "velocity": 0.3937007874015748,
          "duration": 0.10465116279067388
        },
        {
          "name": "G#6",
          "midi": 92,
          "time": 125.82558139533273,
          "velocity": 0.09448818897637795,
          "duration": 0.034883720930224626
        },
        {
          "name": "D#6",
          "midi": 87,
          "time": 125.83720930230947,
          "velocity": 0.08661417322834646,
          "duration": 0.034883720930224626
        },
        {
          "name": "A5",
          "midi": 81,
          "time": 125.84883720928622,
          "velocity": 0.4094488188976378,
          "duration": 0.17441860465112313
        },
        {
          "name": "D#3",
          "midi": 51,
          "time": 125.86046511626296,
          "velocity": 0.4251968503937008,
          "duration": 0.023255813953483084
        },
        {
          "name": "G7",
          "midi": 103,
          "time": 125.86046511626296,
          "velocity": 0.1732283464566929,
          "duration": 0.10465116279067388
        },
        {
          "name": "E4",
          "midi": 64,
          "time": 125.8720930232397,
          "velocity": 0.2047244094488189,
          "duration": 0.04651162790696617
        },
        {
          "name": "C3",
          "midi": 48,
          "time": 125.88372093021644,
          "velocity": 0.4566929133858268,
          "duration": 0.023255813953483084
        },
        {
          "name": "E3",
          "midi": 52,
          "time": 125.88372093021644,
          "velocity": 0.3937007874015748,
          "duration": 0.034883720930224626
        },
        {
          "name": "F#2",
          "midi": 42,
          "time": 125.90697674416992,
          "velocity": 0.5748031496062992,
          "duration": 0.011627906976741542
        },
        {
          "name": "A4",
          "midi": 69,
          "time": 125.90697674416992,
          "velocity": 0.3700787401574803,
          "duration": 0.04651162790696617
        },
        {
          "name": "E6",
          "midi": 88,
          "time": 125.90697674416992,
          "velocity": 0.18110236220472442,
          "duration": 0.15116279069764005
        },
        {
          "name": "C2",
          "midi": 36,
          "time": 125.91860465114667,
          "velocity": 0.5433070866141733,
          "duration": 0.011627906976741542
        },
        {
          "name": "G#2",
          "midi": 44,
          "time": 125.91860465114667,
          "velocity": 0.5118110236220472,
          "duration": 0.011627906976741542
        },
        {
          "name": "C5",
          "midi": 72,
          "time": 125.91860465114667,
          "velocity": 0.30708661417322836,
          "duration": 0.034883720930224626
        },
        {
          "name": "G6",
          "midi": 91,
          "time": 125.91860465114667,
          "velocity": 0.4566929133858268,
          "duration": 0.3604651162789878
        },
        {
          "name": "D7",
          "midi": 98,
          "time": 125.91860465114667,
          "velocity": 0.3464566929133858,
          "duration": 0.48837209302314477
        },
        {
          "name": "F7",
          "midi": 101,
          "time": 125.91860465114667,
          "velocity": 0.23622047244094488,
          "duration": 0.4418604651161786
        },
        {
          "name": "A3",
          "midi": 57,
          "time": 125.93023255812341,
          "velocity": 0.3543307086614173,
          "duration": 0.023255813953483084
        },
        {
          "name": "E5",
          "midi": 76,
          "time": 125.93023255812341,
          "velocity": 0.2125984251968504,
          "duration": 0.034883720930224626
        },
        {
          "name": "G5",
          "midi": 79,
          "time": 125.93023255812341,
          "velocity": 0.4881889763779528,
          "duration": 0.20930232558134776
        },
        {
          "name": "C7",
          "midi": 96,
          "time": 125.93023255812341,
          "velocity": 0.2047244094488189,
          "duration": 0.034883720930224626
        },
        {
          "name": "F2",
          "midi": 41,
          "time": 125.94186046510015,
          "velocity": 0.5590551181102362,
          "duration": 0.034883720930224626
        },
        {
          "name": "B4",
          "midi": 71,
          "time": 125.94186046510015,
          "velocity": 0.29133858267716534,
          "duration": 0.023255813953483084
        },
        {
          "name": "G4",
          "midi": 67,
          "time": 125.95348837207689,
          "velocity": 0.2440944881889764,
          "duration": 0.12790697674415696
        },
        {
          "name": "A#4",
          "midi": 70,
          "time": 125.96511627905363,
          "velocity": 0.25196850393700787,
          "duration": 0.023255813953483084
        },
        {
          "name": "E2",
          "midi": 40,
          "time": 125.97674418603037,
          "velocity": 0.3543307086614173,
          "duration": 0.034883720930224626
        },
        {
          "name": "G#6",
          "midi": 92,
          "time": 125.97674418603037,
          "velocity": 0.2204724409448819,
          "duration": 0.11627906976741542
        },
        {
          "name": "A#6",
          "midi": 94,
          "time": 125.97674418603037,
          "velocity": 0.11023622047244094,
          "duration": 0.09302325581393234
        },
        {
          "name": "C5",
          "midi": 72,
          "time": 125.98837209300711,
          "velocity": 0.28346456692913385,
          "duration": 0.12790697674415696
        },
        {
          "name": "F#6",
          "midi": 90,
          "time": 125.99999999998386,
          "velocity": 0.16535433070866143,
          "duration": 0.05813953488370771
        },
        {
          "name": "E3",
          "midi": 52,
          "time": 126.0116279069606,
          "velocity": 0.4251968503937008,
          "duration": 0.04651162790696617
        },
        {
          "name": "C4",
          "midi": 60,
          "time": 126.0116279069606,
          "velocity": 0.4566929133858268,
          "duration": 0.11627906976741542
        },
        {
          "name": "A5",
          "midi": 81,
          "time": 126.03488372091408,
          "velocity": 0.29133858267716534,
          "duration": 0.09302325581393234
        },
        {
          "name": "D6",
          "midi": 86,
          "time": 126.04651162789082,
          "velocity": 0.10236220472440945,
          "duration": 0.06976744186044925
        },
        {
          "name": "A6",
          "midi": 93,
          "time": 126.04651162789082,
          "velocity": 0.4566929133858268,
          "duration": 0.3837209302324709
        },
        {
          "name": "A4",
          "midi": 69,
          "time": 126.05813953486756,
          "velocity": 0.4645669291338583,
          "duration": 0.1395348837208985
        },
        {
          "name": "D5",
          "midi": 74,
          "time": 126.05813953486756,
          "velocity": 0.13385826771653545,
          "duration": 0.04651162790696617
        },
        {
          "name": "E4",
          "midi": 64,
          "time": 126.0697674418443,
          "velocity": 0.4251968503937008,
          "duration": 0.05813953488370771
        },
        {
          "name": "E7",
          "midi": 100,
          "time": 126.0697674418443,
          "velocity": 0.29133858267716534,
          "duration": 0.3255813953487632
        },
        {
          "name": "F#6",
          "midi": 90,
          "time": 126.08139534882105,
          "velocity": 0.1968503937007874,
          "duration": 0.04651162790696617
        },
        {
          "name": "G4",
          "midi": 67,
          "time": 126.09302325579779,
          "velocity": 0.4409448818897638,
          "duration": 0.034883720930224626
        },
        {
          "name": "A#6",
          "midi": 94,
          "time": 126.09302325579779,
          "velocity": 0.13385826771653545,
          "duration": 0.05813953488370771
        },
        {
          "name": "C7",
          "midi": 96,
          "time": 126.09302325579779,
          "velocity": 0.2677165354330709,
          "duration": 0.18604651162786467
        },
        {
          "name": "E6",
          "midi": 88,
          "time": 126.10465116277453,
          "velocity": 0.1968503937007874,
          "duration": 0.17441860465112313
        },
        {
          "name": "D#5",
          "midi": 75,
          "time": 126.11627906975127,
          "velocity": 0.33070866141732286,
          "duration": 0.023255813953483084
        },
        {
          "name": "B5",
          "midi": 83,
          "time": 126.11627906975127,
          "velocity": 0.2283464566929134,
          "duration": 0.19767441860460622
        },
        {
          "name": "C#7",
          "midi": 97,
          "time": 126.11627906975127,
          "velocity": 0.2677165354330709,
          "duration": 0.3023255813952801
        },
        {
          "name": "F#7",
          "midi": 102,
          "time": 126.11627906975127,
          "velocity": 0.33858267716535434,
          "duration": 0.8255813953486779
        },
        {
          "name": "A#3",
          "midi": 58,
          "time": 126.12790697672801,
          "velocity": 0.49606299212598426,
          "duration": 0.023255813953483084
        },
        {
          "name": "F#5",
          "midi": 78,
          "time": 126.12790697672801,
          "velocity": 0.33858267716535434,
          "duration": 0.29069767441853855
        },
        {
          "name": "E5",
          "midi": 76,
          "time": 126.13953488370475,
          "velocity": 0.28346456692913385,
          "duration": 0.34883720930224626
        },
        {
          "name": "F#2",
          "midi": 42,
          "time": 126.1511627906815,
          "velocity": 0.5118110236220472,
          "duration": 0.011627906976741542
        },
        {
          "name": "C5",
          "midi": 72,
          "time": 126.1511627906815,
          "velocity": 0.36220472440944884,
          "duration": 0.04651162790696617
        },
        {
          "name": "D#7",
          "midi": 99,
          "time": 126.1511627906815,
          "velocity": 0.2283464566929134,
          "duration": 0.47674418604641744
        },
        {
          "name": "F2",
          "midi": 41,
          "time": 126.16279069765824,
          "velocity": 0.4881889763779528,
          "duration": 0.034883720930224626
        },
        {
          "name": "E3",
          "midi": 52,
          "time": 126.16279069765824,
          "velocity": 0.3858267716535433,
          "duration": 0.023255813953483084
        },
        {
          "name": "C#6",
          "midi": 85,
          "time": 126.16279069765824,
          "velocity": 0.08661417322834646,
          "duration": 0.034883720930224626
        },
        {
          "name": "G4",
          "midi": 67,
          "time": 126.17441860463498,
          "velocity": 0.31496062992125984,
          "duration": 0.034883720930224626
        },
        {
          "name": "D5",
          "midi": 74,
          "time": 126.18604651161172,
          "velocity": 0.2755905511811024,
          "duration": 0.04651162790696617
        },
        {
          "name": "D3",
          "midi": 50,
          "time": 126.19767441858846,
          "velocity": 0.41732283464566927,
          "duration": 0.11627906976741542
        },
        {
          "name": "B4",
          "midi": 71,
          "time": 126.19767441858846,
          "velocity": 0.2755905511811024,
          "duration": 0.023255813953483084
        },
        {
          "name": "A4",
          "midi": 69,
          "time": 126.2093023255652,
          "velocity": 0.4015748031496063,
          "duration": 0.1395348837208985
        },
        {
          "name": "C5",
          "midi": 72,
          "time": 126.22093023254195,
          "velocity": 0.36220472440944884,
          "duration": 0.20930232558134776
        },
        {
          "name": "A#3",
          "midi": 58,
          "time": 126.23255813951869,
          "velocity": 0.3858267716535433,
          "duration": 0.023255813953483084
        },
        {
          "name": "B6",
          "midi": 95,
          "time": 126.23255813951869,
          "velocity": 0.48031496062992124,
          "duration": 1.9418604651158944
        },
        {
          "name": "C#4",
          "midi": 61,
          "time": 126.24418604649543,
          "velocity": 0.33070866141732286,
          "duration": 0.023255813953483084
        },
        {
          "name": "F#4",
          "midi": 66,
          "time": 126.25581395347217,
          "velocity": 0.28346456692913385,
          "duration": 0.05813953488370771
        },
        {
          "name": "D5",
          "midi": 74,
          "time": 126.25581395347217,
          "velocity": 0.2047244094488189,
          "duration": 0.0813953488371908
        },
        {
          "name": "C4",
          "midi": 60,
          "time": 126.27906976742565,
          "velocity": 0.3543307086614173,
          "duration": 0.06976744186044925
        },
        {
          "name": "D#2",
          "midi": 39,
          "time": 126.30232558137914,
          "velocity": 0.3700787401574803,
          "duration": 0.034883720930224626
        },
        {
          "name": "G6",
          "midi": 91,
          "time": 126.32558139533262,
          "velocity": 0.16535433070866143,
          "duration": 0.09302325581393234
        },
        {
          "name": "A2",
          "midi": 45,
          "time": 126.33720930230936,
          "velocity": 0.5905511811023622,
          "duration": 0.04651162790696617
        },
        {
          "name": "G4",
          "midi": 67,
          "time": 126.33720930230936,
          "velocity": 0.30708661417322836,
          "duration": 0.034883720930224626
        },
        {
          "name": "D6",
          "midi": 86,
          "time": 126.33720930230936,
          "velocity": 0.11811023622047244,
          "duration": 0.034883720930224626
        },
        {
          "name": "A#1",
          "midi": 34,
          "time": 126.3488372092861,
          "velocity": 0.5196850393700787,
          "duration": 0.011627906976741542
        },
        {
          "name": "B3",
          "midi": 59,
          "time": 126.3488372092861,
          "velocity": 0.3228346456692913,
          "duration": 0.023255813953483084
        },
        {
          "name": "B5",
          "midi": 83,
          "time": 126.3488372092861,
          "velocity": 0.14960629921259844,
          "duration": 0.034883720930224626
        },
        {
          "name": "C3",
          "midi": 48,
          "time": 126.38372093021633,
          "velocity": 0.5748031496062992,
          "duration": 0.011627906976741542
        },
        {
          "name": "F6",
          "midi": 89,
          "time": 126.38372093021633,
          "velocity": 0.07874015748031496,
          "duration": 0.04651162790696617
        },
        {
          "name": "B2",
          "midi": 47,
          "time": 126.39534883719307,
          "velocity": 0.5590551181102362,
          "duration": 0.011627906976741542
        },
        {
          "name": "C4",
          "midi": 60,
          "time": 126.39534883719307,
          "velocity": 0.4330708661417323,
          "duration": 0.36046511627901623
        },
        {
          "name": "G#5",
          "midi": 80,
          "time": 126.39534883719307,
          "velocity": 0.11023622047244094,
          "duration": 0.04651162790696617
        },
        {
          "name": "B5",
          "midi": 83,
          "time": 126.39534883719307,
          "velocity": 0.1889763779527559,
          "duration": 0.06976744186044925
        },
        {
          "name": "C3",
          "midi": 48,
          "time": 126.40697674416981,
          "velocity": 0.5590551181102362,
          "duration": 0.011627906976741542
        },
        {
          "name": "A5",
          "midi": 81,
          "time": 126.40697674416981,
          "velocity": 0.11023622047244094,
          "duration": 0.13953488372091272
        },
        {
          "name": "C#3",
          "midi": 49,
          "time": 126.41860465114655,
          "velocity": 0.5590551181102362,
          "duration": 0.011627906976741542
        },
        {
          "name": "B4",
          "midi": 71,
          "time": 126.41860465114655,
          "velocity": 0.2440944881889764,
          "duration": 0.0813953488371908
        },
        {
          "name": "C3",
          "midi": 48,
          "time": 126.4302325581233,
          "velocity": 0.5590551181102362,
          "duration": 0.04651162790696617
        },
        {
          "name": "G4",
          "midi": 67,
          "time": 126.4302325581233,
          "velocity": 0.25196850393700787,
          "duration": 0.023255813953483084
        },
        {
          "name": "D7",
          "midi": 98,
          "time": 126.4302325581233,
          "velocity": 0.09448818897637795,
          "duration": 0.034883720930224626
        },
        {
          "name": "G3",
          "midi": 55,
          "time": 126.44186046510004,
          "velocity": 0.4645669291338583,
          "duration": 0.04651162790696617
        },
        {
          "name": "G6",
          "midi": 91,
          "time": 126.44186046510004,
          "velocity": 0.09448818897637795,
          "duration": 0.04651162790696617
        },
        {
          "name": "A4",
          "midi": 69,
          "time": 126.45348837207678,
          "velocity": 0.31496062992125984,
          "duration": 0.11627906976742963
        },
        {
          "name": "G5",
          "midi": 79,
          "time": 126.47674418603026,
          "velocity": 0.18110236220472442,
          "duration": 0.05813953488372192
        },
        {
          "name": "A6",
          "midi": 93,
          "time": 126.488372093007,
          "velocity": 0.2283464566929134,
          "duration": 0.11627906976742963
        },
        {
          "name": "E4",
          "midi": 64,
          "time": 126.49999999998374,
          "velocity": 0.33070866141732286,
          "duration": 0.10465116279068809
        },
        {
          "name": "B5",
          "midi": 83,
          "time": 126.49999999998374,
          "velocity": 0.2047244094488189,
          "duration": 0.2441860465116008
        },
        {
          "name": "F#6",
          "midi": 90,
          "time": 126.53488372091398,
          "velocity": 0.2677165354330709,
          "duration": 0.41860465116270973
        },
        {
          "name": "A2",
          "midi": 45,
          "time": 126.55813953486746,
          "velocity": 0.5748031496062992,
          "duration": 0.034883720930224626
        },
        {
          "name": "G4",
          "midi": 67,
          "time": 126.55813953486746,
          "velocity": 0.3779527559055118,
          "duration": 0.05813953488370771
        },
        {
          "name": "B4",
          "midi": 71,
          "time": 126.55813953486746,
          "velocity": 0.2677165354330709,
          "duration": 0.04651162790696617
        },
        {
          "name": "D5",
          "midi": 74,
          "time": 126.55813953486746,
          "velocity": 0.3464566929133858,
          "duration": 0.41860465116270973
        },
        {
          "name": "E6",
          "midi": 88,
          "time": 126.55813953486746,
          "velocity": 0.16535433070866143,
          "duration": 0.29069767441855277
        },
        {
          "name": "C#7",
          "midi": 97,
          "time": 126.55813953486746,
          "velocity": 0.13385826771653545,
          "duration": 0.06976744186044925
        },
        {
          "name": "D7",
          "midi": 98,
          "time": 126.58139534882095,
          "velocity": 0.08661417322834646,
          "duration": 0.034883720930224626
        },
        {
          "name": "B2",
          "midi": 47,
          "time": 126.59302325579769,
          "velocity": 0.5905511811023622,
          "duration": 0.023255813953483084
        },
        {
          "name": "C7",
          "midi": 96,
          "time": 126.59302325579769,
          "velocity": 0.08661417322834646,
          "duration": 0.034883720930224626
        },
        {
          "name": "A4",
          "midi": 69,
          "time": 126.60465116277443,
          "velocity": 0.2047244094488189,
          "duration": 0.034883720930224626
        },
        {
          "name": "C3",
          "midi": 48,
          "time": 126.61627906975117,
          "velocity": 0.5826771653543307,
          "duration": 0.011627906976741542
        },
        {
          "name": "E4",
          "midi": 64,
          "time": 126.61627906975117,
          "velocity": 0.41732283464566927,
          "duration": 0.15116279069765426
        },
        {
          "name": "C#3",
          "midi": 49,
          "time": 126.62790697672791,
          "velocity": 0.5826771653543307,
          "duration": 0.011627906976741542
        },
        {
          "name": "G3",
          "midi": 55,
          "time": 126.62790697672791,
          "velocity": 0.4881889763779528,
          "duration": 0.13953488372091272
        },
        {
          "name": "A6",
          "midi": 93,
          "time": 126.62790697672791,
          "velocity": 0.1732283464566929,
          "duration": 0.09302325581394655
        },
        {
          "name": "C3",
          "midi": 48,
          "time": 126.63953488370466,
          "velocity": 0.5826771653543307,
          "duration": 0.023255813953483084
        },
        {
          "name": "G4",
          "midi": 67,
          "time": 126.63953488370466,
          "velocity": 0.5433070866141733,
          "duration": 0.2441860465115866
        },
        {
          "name": "C#3",
          "midi": 49,
          "time": 126.66279069765814,
          "velocity": 0.5826771653543307,
          "duration": 0.011627906976741542
        },
        {
          "name": "C3",
          "midi": 48,
          "time": 126.67441860463488,
          "velocity": 0.5826771653543307,
          "duration": 0.05813953488372192
        },
        {
          "name": "D#7",
          "midi": 99,
          "time": 126.67441860463488,
          "velocity": 0.2283464566929134,
          "duration": 0.4418604651161928
        },
        {
          "name": "B2",
          "midi": 47,
          "time": 126.7325581395186,
          "velocity": 0.5039370078740157,
          "duration": 0.023255813953483084
        },
        {
          "name": "A4",
          "midi": 69,
          "time": 126.7325581395186,
          "velocity": 0.23622047244094488,
          "duration": 0.023255813953483084
        },
        {
          "name": "C#6",
          "midi": 85,
          "time": 126.75581395347209,
          "velocity": 0.2440944881889764,
          "duration": 0.034883720930224626
        },
        {
          "name": "C4",
          "midi": 60,
          "time": 126.76744186044883,
          "velocity": 0.5039370078740157,
          "duration": 0.023255813953483084
        },
        {
          "name": "B4",
          "midi": 71,
          "time": 126.76744186044883,
          "velocity": 0.25196850393700787,
          "duration": 0.023255813953483084
        },
        {
          "name": "A5",
          "midi": 81,
          "time": 126.76744186044883,
          "velocity": 0.30708661417322836,
          "duration": 0.37209302325572935
        },
        {
          "name": "C6",
          "midi": 84,
          "time": 126.76744186044883,
          "velocity": 0.14960629921259844,
          "duration": 0.06976744186044925
        },
        {
          "name": "G7",
          "midi": 103,
          "time": 126.76744186044883,
          "velocity": 0.11811023622047244,
          "duration": 0.11627906976741542
        },
        {
          "name": "E4",
          "midi": 64,
          "time": 126.77906976742557,
          "velocity": 0.3779527559055118,
          "duration": 0.034883720930224626
        },
        {
          "name": "G#6",
          "midi": 92,
          "time": 126.77906976742557,
          "velocity": 0.08661417322834646,
          "duration": 0.034883720930224626
        },
        {
          "name": "D7",
          "midi": 98,
          "time": 126.77906976742557,
          "velocity": 0.2440944881889764,
          "duration": 0.29069767441853855
        },
        {
          "name": "B5",
          "midi": 83,
          "time": 126.79069767440231,
          "velocity": 0.25196850393700787,
          "duration": 0.1627906976743816
        },
        {
          "name": "A4",
          "midi": 69,
          "time": 126.80232558137905,
          "velocity": 0.25984251968503935,
          "duration": 0.023255813953483084
        },
        {
          "name": "B4",
          "midi": 71,
          "time": 126.81395348835579,
          "velocity": 0.2440944881889764,
          "duration": 0.023255813953483084
        },
        {
          "name": "G#3",
          "midi": 56,
          "time": 126.82558139533253,
          "velocity": 0.4015748031496063,
          "duration": 0.023255813953483084
        },
        {
          "name": "E4",
          "midi": 64,
          "time": 126.82558139533253,
          "velocity": 0.33858267716535434,
          "duration": 0.06976744186044925
        },
        {
          "name": "C#7",
          "midi": 97,
          "time": 126.82558139533253,
          "velocity": 0.1968503937007874,
          "duration": 0.12790697674415696
        },
        {
          "name": "C5",
          "midi": 72,
          "time": 126.83720930230928,
          "velocity": 0.1968503937007874,
          "duration": 0.034883720930224626
        },
        {
          "name": "F7",
          "midi": 101,
          "time": 126.83720930230928,
          "velocity": 0.09448818897637795,
          "duration": 0.05813953488370771
        },
        {
          "name": "G3",
          "midi": 55,
          "time": 126.84883720928602,
          "velocity": 0.3700787401574803,
          "duration": 0.034883720930224626
        },
        {
          "name": "A#4",
          "midi": 70,
          "time": 126.8720930232395,
          "velocity": 0.23622047244094488,
          "duration": 0.023255813953483084
        },
        {
          "name": "C#4",
          "midi": 61,
          "time": 126.88372093021624,
          "velocity": 0.3464566929133858,
          "duration": 0.023255813953483084
        },
        {
          "name": "B4",
          "midi": 71,
          "time": 126.88372093021624,
          "velocity": 0.25196850393700787,
          "duration": 0.04651162790696617
        },
        {
          "name": "A4",
          "midi": 69,
          "time": 126.89534883719298,
          "velocity": 0.23622047244094488,
          "duration": 0.034883720930224626
        },
        {
          "name": "C5",
          "midi": 72,
          "time": 126.91860465114647,
          "velocity": 0.2125984251968504,
          "duration": 0.04651162790696617
        },
        {
          "name": "G3",
          "midi": 55,
          "time": 126.93023255812321,
          "velocity": 0.3543307086614173,
          "duration": 0.023255813953483084
        },
        {
          "name": "C4",
          "midi": 60,
          "time": 126.94186046509995,
          "velocity": 0.2755905511811024,
          "duration": 0.034883720930224626
        },
        {
          "name": "E4",
          "midi": 64,
          "time": 126.94186046509995,
          "velocity": 0.25984251968503935,
          "duration": 0.034883720930224626
        },
        {
          "name": "G4",
          "midi": 67,
          "time": 126.94186046509995,
          "velocity": 0.4409448818897638,
          "duration": 0.4418604651161928
        },
        {
          "name": "C7",
          "midi": 96,
          "time": 126.94186046509995,
          "velocity": 0.09448818897637795,
          "duration": 0.034883720930224626
        },
        {
          "name": "E7",
          "midi": 100,
          "time": 126.94186046509995,
          "velocity": 0.1732283464566929,
          "duration": 0.09302325581393234
        },
        {
          "name": "F#7",
          "midi": 102,
          "time": 126.95348837207669,
          "velocity": 0.14960629921259844,
          "duration": 0.11627906976741542
        },
        {
          "name": "G3",
          "midi": 55,
          "time": 126.96511627905343,
          "velocity": 0.4015748031496063,
          "duration": 0.04651162790696617
        },
        {
          "name": "C#7",
          "midi": 97,
          "time": 126.96511627905343,
          "velocity": 0.1732283464566929,
          "duration": 0.034883720930224626
        },
        {
          "name": "F7",
          "midi": 101,
          "time": 126.97674418603017,
          "velocity": 0.16535433070866143,
          "duration": 0.06976744186044925
        },
        {
          "name": "E4",
          "midi": 64,
          "time": 126.98837209300692,
          "velocity": 0.33858267716535434,
          "duration": 0.2558139534883139
        },
        {
          "name": "C5",
          "midi": 72,
          "time": 126.98837209300692,
          "velocity": 0.25196850393700787,
          "duration": 0.034883720930224626
        },
        {
          "name": "D5",
          "midi": 74,
          "time": 126.98837209300692,
          "velocity": 0.2755905511811024,
          "duration": 0.19767441860460622
        },
        {
          "name": "B5",
          "midi": 83,
          "time": 126.98837209300692,
          "velocity": 0.2992125984251969,
          "duration": 0.15116279069764005
        },
        {
          "name": "G#2",
          "midi": 44,
          "time": 126.99999999998366,
          "velocity": 0.5669291338582677,
          "duration": 0.011627906976741542
        },
        {
          "name": "F#6",
          "midi": 90,
          "time": 126.99999999998366,
          "velocity": 0.2440944881889764,
          "duration": 0.09302325581393234
        },
        {
          "name": "G#6",
          "midi": 92,
          "time": 126.99999999998366,
          "velocity": 0.13385826771653545,
          "duration": 0.034883720930224626
        },
        {
          "name": "C7",
          "midi": 96,
          "time": 126.99999999998366,
          "velocity": 0.11023622047244094,
          "duration": 0.034883720930224626
        },
        {
          "name": "A#2",
          "midi": 46,
          "time": 127.0116279069604,
          "velocity": 0.5433070866141733,
          "duration": 0.011627906976741542
        },
        {
          "name": "C#7",
          "midi": 97,
          "time": 127.0116279069604,
          "velocity": 0.2440944881889764,
          "duration": 0.05813953488370771
        },
        {
          "name": "B2",
          "midi": 47,
          "time": 127.02325581393714,
          "velocity": 0.5590551181102362,
          "duration": 0.011627906976741542
        },
        {
          "name": "G#3",
          "midi": 56,
          "time": 127.02325581393714,
          "velocity": 0.4330708661417323,
          "duration": 0.034883720930224626
        },
        {
          "name": "C#4",
          "midi": 61,
          "time": 127.02325581393714,
          "velocity": 0.33858267716535434,
          "duration": 0.023255813953483084
        },
        {
          "name": "C3",
          "midi": 48,
          "time": 127.03488372091388,
          "velocity": 0.5039370078740157,
          "duration": 0.023255813953483084
        },
        {
          "name": "C#3",
          "midi": 49,
          "time": 127.05813953486737,
          "velocity": 0.5433070866141733,
          "duration": 0.011627906976741542
        },
        {
          "name": "G3",
          "midi": 55,
          "time": 127.05813953486737,
          "velocity": 0.5433070866141733,
          "duration": 0.10465116279067388
        },
        {
          "name": "B4",
          "midi": 71,
          "time": 127.05813953486737,
          "velocity": 0.15748031496062992,
          "duration": 0.06976744186044925
        },
        {
          "name": "C3",
          "midi": 48,
          "time": 127.0697674418441,
          "velocity": 0.6062992125984252,
          "duration": 0.05813953488370771
        },
        {
          "name": "F#7",
          "midi": 102,
          "time": 127.09302325579759,
          "velocity": 0.16535433070866143,
          "duration": 0.1395348837208985
        },
        {
          "name": "D#7",
          "midi": 99,
          "time": 127.13953488370456,
          "velocity": 0.08661417322834646,
          "duration": 0.034883720930224626
        },
        {
          "name": "E7",
          "midi": 100,
          "time": 127.13953488370456,
          "velocity": 0.11023622047244094,
          "duration": 0.034883720930224626
        },
        {
          "name": "C4",
          "midi": 60,
          "time": 127.1511627906813,
          "velocity": 0.18110236220472442,
          "duration": 0.034883720930224626
        },
        {
          "name": "A4",
          "midi": 69,
          "time": 127.16279069765804,
          "velocity": 0.2204724409448819,
          "duration": 0.06976744186044925
        },
        {
          "name": "B5",
          "midi": 83,
          "time": 127.16279069765804,
          "velocity": 0.30708661417322836,
          "duration": 0.8372093023254052
        },
        {
          "name": "C3",
          "midi": 48,
          "time": 127.17441860463478,
          "velocity": 0.3464566929133858,
          "duration": 0.023255813953483084
        },
        {
          "name": "G3",
          "midi": 55,
          "time": 127.17441860463478,
          "velocity": 0.2677165354330709,
          "duration": 0.023255813953483084
        },
        {
          "name": "F#6",
          "midi": 90,
          "time": 127.17441860463478,
          "velocity": 0.23622047244094488,
          "duration": 0.2441860465115866
        },
        {
          "name": "C#7",
          "midi": 97,
          "time": 127.19767441858826,
          "velocity": 0.14173228346456693,
          "duration": 0.0813953488371908
        },
        {
          "name": "G#2",
          "midi": 44,
          "time": 127.209302325565,
          "velocity": 0.5905511811023622,
          "duration": 0.023255813953483084
        },
        {
          "name": "A#3",
          "midi": 58,
          "time": 127.209302325565,
          "velocity": 0.28346456692913385,
          "duration": 0.023255813953483084
        },
        {
          "name": "D7",
          "midi": 98,
          "time": 127.209302325565,
          "velocity": 0.14960629921259844,
          "duration": 0.05813953488370771
        },
        {
          "name": "D#7",
          "midi": 99,
          "time": 127.209302325565,
          "velocity": 0.12598425196850394,
          "duration": 0.06976744186044925
        },
        {
          "name": "B2",
          "midi": 47,
          "time": 127.23255813951849,
          "velocity": 0.5826771653543307,
          "duration": 0.023255813953483084
        },
        {
          "name": "C5",
          "midi": 72,
          "time": 127.23255813951849,
          "velocity": 0.28346456692913385,
          "duration": 0.2790697674418112
        },
        {
          "name": "G#3",
          "midi": 56,
          "time": 127.24418604649523,
          "velocity": 0.31496062992125984,
          "duration": 0.023255813953483084
        },
        {
          "name": "C#4",
          "midi": 61,
          "time": 127.24418604649523,
          "velocity": 0.3858267716535433,
          "duration": 0.023255813953483084
        },
        {
          "name": "C3",
          "midi": 48,
          "time": 127.25581395347197,
          "velocity": 0.5826771653543307,
          "duration": 0.011627906976741542
        },
        {
          "name": "E4",
          "midi": 64,
          "time": 127.25581395347197,
          "velocity": 0.23622047244094488,
          "duration": 0.09302325581394655
        },
        {
          "name": "C#3",
          "midi": 49,
          "time": 127.26744186044871,
          "velocity": 0.5984251968503937,
          "duration": 0.023255813953483084
        },
        {
          "name": "C4",
          "midi": 60,
          "time": 127.26744186044871,
          "velocity": 0.3228346456692913,
          "duration": 0.13953488372091272
        },
        {
          "name": "G3",
          "midi": 55,
          "time": 127.27906976742545,
          "velocity": 0.48031496062992124,
          "duration": 0.12790697674417117
        },
        {
          "name": "C3",
          "midi": 48,
          "time": 127.2906976744022,
          "velocity": 0.5905511811023622,
          "duration": 0.011627906976741542
        },
        {
          "name": "C#3",
          "midi": 49,
          "time": 127.30232558137894,
          "velocity": 0.5905511811023622,
          "duration": 0.011627906976741542
        },
        {
          "name": "C3",
          "midi": 48,
          "time": 127.31395348835568,
          "velocity": 0.6220472440944882,
          "duration": 0.09302325581394655
        },
        {
          "name": "D#7",
          "midi": 99,
          "time": 127.34883720928592,
          "velocity": 0.15748031496062992,
          "duration": 0.04651162790696617
        },
        {
          "name": "G2",
          "midi": 43,
          "time": 127.36046511626266,
          "velocity": 0.5196850393700787,
          "duration": 0.011627906976741542
        },
        {
          "name": "A4",
          "midi": 69,
          "time": 127.36046511626266,
          "velocity": 0.11811023622047244,
          "duration": 0.034883720930224626
        },
        {
          "name": "F#7",
          "midi": 102,
          "time": 127.3720930232394,
          "velocity": 0.25196850393700787,
          "duration": 0.558139534883594
        },
        {
          "name": "E4",
          "midi": 64,
          "time": 127.38372093021614,
          "velocity": 0.33858267716535434,
          "duration": 0.05813953488370771
        },
        {
          "name": "G#4",
          "midi": 68,
          "time": 127.39534883719288,
          "velocity": 0.23622047244094488,
          "duration": 0.023255813953483084
        },
        {
          "name": "B2",
          "midi": 47,
          "time": 127.40697674416963,
          "velocity": 0.5826771653543307,
          "duration": 0.011627906976741542
        },
        {
          "name": "F#3",
          "midi": 54,
          "time": 127.40697674416963,
          "velocity": 0.5039370078740157,
          "duration": 0.023255813953483084
        },
        {
          "name": "D5",
          "midi": 74,
          "time": 127.40697674416963,
          "velocity": 0.3700787401574803,
          "duration": 0.43023255813943706
        },
        {
          "name": "D#7",
          "midi": 99,
          "time": 127.40697674416963,
          "velocity": 0.18110236220472442,
          "duration": 0.20930232558134776
        },
        {
          "name": "C3",
          "midi": 48,
          "time": 127.41860465114637,
          "velocity": 0.5826771653543307,
          "duration": 0.011627906976741542
        },
        {
          "name": "G4",
          "midi": 67,
          "time": 127.41860465114637,
          "velocity": 0.36220472440944884,
          "duration": 0.04651162790696617
        },
        {
          "name": "C#7",
          "midi": 97,
          "time": 127.41860465114637,
          "velocity": 0.2204724409448819,
          "duration": 0.23255813953483084
        },
        {
          "name": "D7",
          "midi": 98,
          "time": 127.41860465114637,
          "velocity": 0.3228346456692913,
          "duration": 0.29069767441853855
        },
        {
          "name": "B2",
          "midi": 47,
          "time": 127.43023255812311,
          "velocity": 0.5905511811023622,
          "duration": 0.011627906976741542
        },
        {
          "name": "G3",
          "midi": 55,
          "time": 127.43023255812311,
          "velocity": 0.3543307086614173,
          "duration": 0.023255813953483084
        },
        {
          "name": "C7",
          "midi": 96,
          "time": 127.43023255812311,
          "velocity": 0.1732283464566929,
          "duration": 0.04651162790696617
        },
        {
          "name": "A#2",
          "midi": 46,
          "time": 127.44186046509985,
          "velocity": 0.5748031496062992,
          "duration": 0.011627906976741542
        },
        {
          "name": "C#4",
          "midi": 61,
          "time": 127.44186046509985,
          "velocity": 0.2204724409448819,
          "duration": 0.034883720930224626
        },
        {
          "name": "B2",
          "midi": 47,
          "time": 127.45348837207659,
          "velocity": 0.5433070866141733,
          "duration": 0.023255813953483084
        },
        {
          "name": "G#3",
          "midi": 56,
          "time": 127.45348837207659,
          "velocity": 0.36220472440944884,
          "duration": 0.034883720930224626
        },
        {
          "name": "E4",
          "midi": 64,
          "time": 127.45348837207659,
          "velocity": 0.4251968503937008,
          "duration": 0.17441860465112313
        },
        {
          "name": "F#6",
          "midi": 90,
          "time": 127.47674418603007,
          "velocity": 0.18110236220472442,
          "duration": 0.0813953488371908
        },
        {
          "name": "G3",
          "midi": 55,
          "time": 127.48837209300682,
          "velocity": 0.3858267716535433,
          "duration": 0.034883720930224626
        },
        {
          "name": "G4",
          "midi": 67,
          "time": 127.48837209300682,
          "velocity": 0.5039370078740157,
          "duration": 0.23255813953483084
        },
        {
          "name": "F7",
          "midi": 101,
          "time": 127.48837209300682,
          "velocity": 0.13385826771653545,
          "duration": 0.05813953488370771
        },
        {
          "name": "G7",
          "midi": 103,
          "time": 127.48837209300682,
          "velocity": 0.11811023622047244,
          "duration": 0.034883720930224626
        },
        {
          "name": "A#4",
          "midi": 70,
          "time": 127.49999999998356,
          "velocity": 0.3464566929133858,
          "duration": 0.17441860465112313
        },
        {
          "name": "C7",
          "midi": 96,
          "time": 127.49999999998356,
          "velocity": 0.07086614173228346,
          "duration": 0.05813953488370771
        },
        {
          "name": "C4",
          "midi": 60,
          "time": 127.5116279069603,
          "velocity": 0.3858267716535433,
          "duration": 0.0813953488371908
        },
        {
          "name": "G#3",
          "midi": 56,
          "time": 127.52325581393704,
          "velocity": 0.33858267716535434,
          "duration": 0.04651162790696617
        },
        {
          "name": "C3",
          "midi": 48,
          "time": 127.54651162789052,
          "velocity": 0.4881889763779528,
          "duration": 0.023255813953483084
        },
        {
          "name": "G3",
          "midi": 55,
          "time": 127.56976744184401,
          "velocity": 0.3543307086614173,
          "duration": 0.023255813953483084
        },
        {
          "name": "G#3",
          "midi": 56,
          "time": 127.59302325579749,
          "velocity": 0.3464566929133858,
          "duration": 0.023255813953483084
        },
        {
          "name": "C7",
          "midi": 96,
          "time": 127.59302325579749,
          "velocity": 0.07874015748031496,
          "duration": 0.034883720930224626
        },
        {
          "name": "F#6",
          "midi": 90,
          "time": 127.60465116277423,
          "velocity": 0.25984251968503935,
          "duration": 0.09302325581393234
        },
        {
          "name": "A#6",
          "midi": 94,
          "time": 127.61627906975097,
          "velocity": 0.1732283464566929,
          "duration": 0.034883720930224626
        },
        {
          "name": "F7",
          "midi": 101,
          "time": 127.61627906975097,
          "velocity": 0.12598425196850394,
          "duration": 0.0813953488371908
        },
        {
          "name": "A#3",
          "midi": 58,
          "time": 127.62790697672772,
          "velocity": 0.5118110236220472,
          "duration": 0.011627906976741542
        },
        {
          "name": "A5",
          "midi": 81,
          "time": 127.62790697672772,
          "velocity": 0.31496062992125984,
          "duration": 0.24418604651157239
        },
        {
          "name": "E6",
          "midi": 88,
          "time": 127.62790697672772,
          "velocity": 0.25984251968503935,
          "duration": 0.3372093023255047
        },
        {
          "name": "G7",
          "midi": 103,
          "time": 127.62790697672772,
          "velocity": 0.11023622047244094,
          "duration": 0.034883720930224626
        },
        {
          "name": "E5",
          "midi": 76,
          "time": 127.63953488370446,
          "velocity": 0.2677165354330709,
          "duration": 0.20930232558134776
        },
        {
          "name": "F#5",
          "midi": 78,
          "time": 127.63953488370446,
          "velocity": 0.2204724409448819,
          "duration": 0.0813953488371908
        },
        {
          "name": "G#6",
          "midi": 92,
          "time": 127.63953488370446,
          "velocity": 0.07086614173228346,
          "duration": 0.04651162790696617
        },
        {
          "name": "C7",
          "midi": 96,
          "time": 127.63953488370446,
          "velocity": 0.13385826771653545,
          "duration": 0.034883720930224626
        },
        {
          "name": "D#7",
          "midi": 99,
          "time": 127.63953488370446,
          "velocity": 0.1968503937007874,
          "duration": 0.23255813953483084
        },
        {
          "name": "D#4",
          "midi": 63,
          "time": 127.6511627906812,
          "velocity": 0.2440944881889764,
          "duration": 0.023255813953483084
        },
        {
          "name": "C6",
          "midi": 84,
          "time": 127.6511627906812,
          "velocity": 0.15748031496062992,
          "duration": 0.034883720930224626
        },
        {
          "name": "C#7",
          "midi": 97,
          "time": 127.66279069765794,
          "velocity": 0.2440944881889764,
          "duration": 0.04651162790696617
        },
        {
          "name": "F2",
          "midi": 41,
          "time": 127.68604651161142,
          "velocity": 0.48031496062992124,
          "duration": 0.023255813953483084
        },
        {
          "name": "C3",
          "midi": 48,
          "time": 127.69767441858816,
          "velocity": 0.3858267716535433,
          "duration": 0.023255813953483084
        },
        {
          "name": "A#4",
          "midi": 70,
          "time": 127.69767441858816,
          "velocity": 0.2440944881889764,
          "duration": 0.023255813953483084
        },
        {
          "name": "G3",
          "midi": 55,
          "time": 127.7093023255649,
          "velocity": 0.3779527559055118,
          "duration": 0.023255813953483084
        },
        {
          "name": "B4",
          "midi": 71,
          "time": 127.7093023255649,
          "velocity": 0.2204724409448819,
          "duration": 0.034883720930224626
        },
        {
          "name": "F4",
          "midi": 65,
          "time": 127.72093023254165,
          "velocity": 0.2992125984251969,
          "duration": 0.023255813953483084
        },
        {
          "name": "C3",
          "midi": 48,
          "time": 127.73255813951839,
          "velocity": 0.31496062992125984,
          "duration": 0.023255813953483084
        },
        {
          "name": "F#3",
          "midi": 54,
          "time": 127.73255813951839,
          "velocity": 0.31496062992125984,
          "duration": 0.023255813953483084
        },
        {
          "name": "C5",
          "midi": 72,
          "time": 127.74418604649513,
          "velocity": 0.2440944881889764,
          "duration": 0.06976744186044925
        },
        {
          "name": "D7",
          "midi": 98,
          "time": 127.74418604649513,
          "velocity": 0.10236220472440945,
          "duration": 0.034883720930224626
        },
        {
          "name": "G4",
          "midi": 67,
          "time": 127.75581395347187,
          "velocity": 0.1968503937007874,
          "duration": 0.0813953488371908
        },
        {
          "name": "F#6",
          "midi": 90,
          "time": 127.75581395347187,
          "velocity": 0.11811023622047244,
          "duration": 0.04651162790696617
        },
        {
          "name": "B2",
          "midi": 47,
          "time": 127.76744186044861,
          "velocity": 0.2992125984251969,
          "duration": 0.04651162790696617
        },
        {
          "name": "E4",
          "midi": 64,
          "time": 127.77906976742536,
          "velocity": 0.25984251968503935,
          "duration": 0.05813953488370771
        },
        {
          "name": "G3",
          "midi": 55,
          "time": 127.81395348835558,
          "velocity": 0.33070866141732286,
          "duration": 0.034883720930224626
        },
        {
          "name": "C#7",
          "midi": 97,
          "time": 127.81395348835558,
          "velocity": 0.07874015748031496,
          "duration": 0.04651162790696617
        },
        {
          "name": "C4",
          "midi": 60,
          "time": 127.82558139533232,
          "velocity": 0.2992125984251969,
          "duration": 0.04651162790696617
        },
        {
          "name": "A#4",
          "midi": 70,
          "time": 127.82558139533232,
          "velocity": 0.1889763779527559,
          "duration": 0.04651162790696617
        },
        {
          "name": "D#5",
          "midi": 75,
          "time": 127.83720930230906,
          "velocity": 0.2047244094488189,
          "duration": 0.034883720930224626
        },
        {
          "name": "F#4",
          "midi": 66,
          "time": 127.8488372092858,
          "velocity": 0.33070866141732286,
          "duration": 0.034883720930224626
        },
        {
          "name": "D5",
          "midi": 74,
          "time": 127.86046511626255,
          "velocity": 0.2125984251968504,
          "duration": 0.1395348837208985
        },
        {
          "name": "G5",
          "midi": 79,
          "time": 127.86046511626255,
          "velocity": 0.1732283464566929,
          "duration": 0.09302325581393234
        },
        {
          "name": "D7",
          "midi": 98,
          "time": 127.86046511626255,
          "velocity": 0.15748031496062992,
          "duration": 0.05813953488370771
        },
        {
          "name": "E5",
          "midi": 76,
          "time": 127.87209302323929,
          "velocity": 0.33070866141732286,
          "duration": 0.47674418604641744
        },
        {
          "name": "C3",
          "midi": 48,
          "time": 127.88372093021603,
          "velocity": 0.41732283464566927,
          "duration": 0.034883720930224626
        },
        {
          "name": "G4",
          "midi": 67,
          "time": 127.88372093021603,
          "velocity": 0.30708661417322836,
          "duration": 0.17441860465113734
        },
        {
          "name": "A#4",
          "midi": 70,
          "time": 127.88372093021603,
          "velocity": 0.2125984251968504,
          "duration": 0.18604651162787889
        },
        {
          "name": "C#7",
          "midi": 97,
          "time": 127.88372093021603,
          "velocity": 0.2204724409448819,
          "duration": 0.25581395348832814
        },
        {
          "name": "D#6",
          "midi": 87,
          "time": 127.89534883719277,
          "velocity": 0.11023622047244094,
          "duration": 0.05813953488370771
        },
        {
          "name": "G3",
          "midi": 55,
          "time": 127.90697674416951,
          "velocity": 0.33858267716535434,
          "duration": 0.06976744186044925
        },
        {
          "name": "E4",
          "midi": 64,
          "time": 127.90697674416951,
          "velocity": 0.2755905511811024,
          "duration": 0.15116279069765426
        },
        {
          "name": "D#7",
          "midi": 99,
          "time": 127.90697674416951,
          "velocity": 0.1889763779527559,
          "duration": 0.034883720930224626
        },
        {
          "name": "A5",
          "midi": 81,
          "time": 127.91860465114625,
          "velocity": 0.10236220472440945,
          "duration": 0.034883720930224626
        },
        {
          "name": "C#3",
          "midi": 49,
          "time": 127.94186046509974,
          "velocity": 0.3858267716535433,
          "duration": 0.023255813953483084
        },
        {
          "name": "C7",
          "midi": 96,
          "time": 127.95348837207648,
          "velocity": 0.14173228346456693,
          "duration": 0.10465116279068809
        },
        {
          "name": "F7",
          "midi": 101,
          "time": 127.95348837207648,
          "velocity": 0.11023622047244094,
          "duration": 0.05813953488372192
        },
        {
          "name": "F#7",
          "midi": 102,
          "time": 127.95348837207648,
          "velocity": 0.11023622047244094,
          "duration": 0.081395348837205
        },
        {
          "name": "C3",
          "midi": 48,
          "time": 127.96511627905322,
          "velocity": 0.3779527559055118,
          "duration": 0.023255813953483084
        },
        {
          "name": "D#7",
          "midi": 99,
          "time": 127.96511627905322,
          "velocity": 0.10236220472440945,
          "duration": 0.11627906976742963
        },
        {
          "name": "F#3",
          "midi": 54,
          "time": 127.97674418602996,
          "velocity": 0.2283464566929134,
          "duration": 0.04651162790698038
        },
        {
          "name": "D7",
          "midi": 98,
          "time": 127.97674418602996,
          "velocity": 0.1732283464566929,
          "duration": 0.03488372093023884
        },
        {
          "name": "C3",
          "midi": 48,
          "time": 127.99999999998344,
          "velocity": 0.4251968503937008,
          "duration": 0.04651162790698038
        },
        {
          "name": "B5",
          "midi": 83,
          "time": 128.0116279069602,
          "velocity": 0.2283464566929134,
          "duration": 0.15116279069764005
        },
        {
          "name": "G3",
          "midi": 55,
          "time": 128.02325581393694,
          "velocity": 0.3228346456692913,
          "duration": 0.023255813953483084
        },
        {
          "name": "F#6",
          "midi": 90,
          "time": 128.02325581393694,
          "velocity": 0.1968503937007874,
          "duration": 0.11627906976741542
        },
        {
          "name": "D7",
          "midi": 98,
          "time": 128.03488372091368,
          "velocity": 0.11811023622047244,
          "duration": 0.09302325581393234
        },
        {
          "name": "D#6",
          "midi": 87,
          "time": 128.04651162789042,
          "velocity": 0.15748031496062992,
          "duration": 0.15116279069764005
        },
        {
          "name": "F#7",
          "midi": 102,
          "time": 128.04651162789042,
          "velocity": 0.1968503937007874,
          "duration": 0.06976744186044925
        },
        {
          "name": "E2",
          "midi": 40,
          "time": 128.05813953486717,
          "velocity": 0.5590551181102362,
          "duration": 0.011627906976741542
        },
        {
          "name": "C3",
          "midi": 48,
          "time": 128.05813953486717,
          "velocity": 0.5511811023622047,
          "duration": 0.023255813953483084
        },
        {
          "name": "A4",
          "midi": 69,
          "time": 128.05813953486717,
          "velocity": 0.2677165354330709,
          "duration": 0.023255813953483084
        },
        {
          "name": "F#5",
          "midi": 78,
          "time": 128.05813953486717,
          "velocity": 0.11811023622047244,
          "duration": 0.05813953488370771
        },
        {
          "name": "G#5",
          "midi": 80,
          "time": 128.05813953486717,
          "velocity": 0.13385826771653545,
          "duration": 0.05813953488370771
        },
        {
          "name": "A5",
          "midi": 81,
          "time": 128.05813953486717,
          "velocity": 0.4251968503937008,
          "duration": 0.813953488371908
        },
        {
          "name": "D6",
          "midi": 86,
          "time": 128.05813953486717,
          "velocity": 0.29133858267716534,
          "duration": 0.0813953488371908
        },
        {
          "name": "A6",
          "midi": 93,
          "time": 128.05813953486717,
          "velocity": 0.47244094488188976,
          "duration": 0.9069767441858403
        },
        {
          "name": "F7",
          "midi": 101,
          "time": 128.05813953486717,
          "velocity": 0.11811023622047244,
          "duration": 0.05813953488370771
        },
        {
          "name": "F2",
          "midi": 41,
          "time": 128.0697674418439,
          "velocity": 0.4881889763779528,
          "duration": 0.05813953488370771
        },
        {
          "name": "A3",
          "midi": 57,
          "time": 128.0697674418439,
          "velocity": 0.4645669291338583,
          "duration": 0.06976744186044925
        },
        {
          "name": "D4",
          "midi": 62,
          "time": 128.0697674418439,
          "velocity": 0.48031496062992124,
          "duration": 0.19767441860460622
        },
        {
          "name": "C6",
          "midi": 84,
          "time": 128.0697674418439,
          "velocity": 0.13385826771653545,
          "duration": 0.11627906976741542
        },
        {
          "name": "C7",
          "midi": 96,
          "time": 128.0697674418439,
          "velocity": 0.16535433070866143,
          "duration": 0.11627906976741542
        },
        {
          "name": "E7",
          "midi": 100,
          "time": 128.0697674418439,
          "velocity": 0.33070866141732286,
          "duration": 0.3837209302324709
        },
        {
          "name": "D3",
          "midi": 50,
          "time": 128.08139534882065,
          "velocity": 0.6220472440944882,
          "duration": 0.10465116279067388
        },
        {
          "name": "G4",
          "midi": 67,
          "time": 128.08139534882065,
          "velocity": 0.12598425196850394,
          "duration": 0.05813953488370771
        },
        {
          "name": "C5",
          "midi": 72,
          "time": 128.08139534882065,
          "velocity": 0.15748031496062992,
          "duration": 0.04651162790696617
        },
        {
          "name": "G6",
          "midi": 91,
          "time": 128.10465116277413,
          "velocity": 0.14173228346456693,
          "duration": 0.034883720930224626
        },
        {
          "name": "G#4",
          "midi": 68,
          "time": 128.13953488370436,
          "velocity": 0.2125984251968504,
          "duration": 0.05813953488370771
        },
        {
          "name": "F#5",
          "midi": 78,
          "time": 128.13953488370436,
          "velocity": 0.08661417322834646,
          "duration": 0.034883720930224626
        },
        {
          "name": "G#6",
          "midi": 92,
          "time": 128.16279069765784,
          "velocity": 0.12598425196850394,
          "duration": 0.034883720930224626
        },
        {
          "name": "A2",
          "midi": 45,
          "time": 128.17441860463458,
          "velocity": 0.5433070866141733,
          "duration": 0.011627906976741542
        },
        {
          "name": "C#3",
          "midi": 49,
          "time": 128.18604651161132,
          "velocity": 0.6141732283464567,
          "duration": 0.011627906976741542
        },
        {
          "name": "A2",
          "midi": 45,
          "time": 128.19767441858806,
          "velocity": 0.5354330708661418,
          "duration": 0.04651162790696617
        },
        {
          "name": "D3",
          "midi": 50,
          "time": 128.19767441858806,
          "velocity": 0.5511811023622047,
          "duration": 0.04651162790696617
        },
        {
          "name": "A4",
          "midi": 69,
          "time": 128.19767441858806,
          "velocity": 0.2204724409448819,
          "duration": 0.06976744186044925
        },
        {
          "name": "G7",
          "midi": 103,
          "time": 128.19767441858806,
          "velocity": 0.18110236220472442,
          "duration": 0.17441860465112313
        },
        {
          "name": "A3",
          "midi": 57,
          "time": 128.24418604649503,
          "velocity": 0.2755905511811024,
          "duration": 0.034883720930224626
        },
        {
          "name": "E2",
          "midi": 40,
          "time": 128.2674418604485,
          "velocity": 0.5275590551181102,
          "duration": 0.011627906976741542
        },
        {
          "name": "A#4",
          "midi": 70,
          "time": 128.2674418604485,
          "velocity": 0.2125984251968504,
          "duration": 0.034883720930224626
        },
        {
          "name": "C#7",
          "midi": 97,
          "time": 128.2674418604485,
          "velocity": 0.13385826771653545,
          "duration": 0.034883720930224626
        },
        {
          "name": "G#1",
          "midi": 32,
          "time": 128.27906976742526,
          "velocity": 0.5118110236220472,
          "duration": 0.011627906976741542
        },
        {
          "name": "F#5",
          "midi": 78,
          "time": 128.27906976742526,
          "velocity": 0.28346456692913385,
          "duration": 0.20930232558134776
        },
        {
          "name": "C7",
          "midi": 96,
          "time": 128.27906976742526,
          "velocity": 0.08661417322834646,
          "duration": 0.05813953488370771
        },
        {
          "name": "D#7",
          "midi": 99,
          "time": 128.27906976742526,
          "velocity": 0.11811023622047244,
          "duration": 0.0813953488371908
        },
        {
          "name": "G1",
          "midi": 31,
          "time": 128.290697674402,
          "velocity": 0.5196850393700787,
          "duration": 0.011627906976741542
        },
        {
          "name": "D3",
          "midi": 50,
          "time": 128.290697674402,
          "velocity": 0.6220472440944882,
          "duration": 0.1395348837208985
        },
        {
          "name": "A3",
          "midi": 57,
          "time": 128.290697674402,
          "velocity": 0.4330708661417323,
          "duration": 0.04651162790696617
        },
        {
          "name": "F#4",
          "midi": 66,
          "time": 128.290697674402,
          "velocity": 0.30708661417322836,
          "duration": 0.18604651162786467
        },
        {
          "name": "B6",
          "midi": 95,
          "time": 128.290697674402,
          "velocity": 0.14173228346456693,
          "duration": 0.09302325581393234
        },
        {
          "name": "E2",
          "midi": 40,
          "time": 128.31395348835548,
          "velocity": 0.4251968503937008,
          "duration": 0.023255813953483084
        },
        {
          "name": "C#7",
          "midi": 97,
          "time": 128.31395348835548,
          "velocity": 0.15748031496062992,
          "duration": 0.12790697674415696
        },
        {
          "name": "A2",
          "midi": 45,
          "time": 128.38372093021593,
          "velocity": 0.5748031496062992,
          "duration": 0.023255813953483084
        },
        {
          "name": "A4",
          "midi": 69,
          "time": 128.39534883719267,
          "velocity": 0.2440944881889764,
          "duration": 0.0813953488371908
        },
        {
          "name": "E5",
          "midi": 76,
          "time": 128.39534883719267,
          "velocity": 0.12598425196850394,
          "duration": 0.04651162790696617
        },
        {
          "name": "B6",
          "midi": 95,
          "time": 128.39534883719267,
          "velocity": 0.12598425196850394,
          "duration": 0.06976744186044925
        },
        {
          "name": "G7",
          "midi": 103,
          "time": 128.4069767441694,
          "velocity": 0.10236220472440945,
          "duration": 0.04651162790696617
        },
        {
          "name": "A2",
          "midi": 45,
          "time": 128.41860465114615,
          "velocity": 0.5748031496062992,
          "duration": 0.011627906976741542
        },
        {
          "name": "C3",
          "midi": 48,
          "time": 128.4302325581229,
          "velocity": 0.5826771653543307,
          "duration": 0.011627906976741542
        },
        {
          "name": "A2",
          "midi": 45,
          "time": 128.44186046509964,
          "velocity": 0.5433070866141733,
          "duration": 0.011627906976741542
        },
        {
          "name": "G#2",
          "midi": 44,
          "time": 128.45348837207638,
          "velocity": 0.5196850393700787,
          "duration": 0.011627906976741542
        },
        {
          "name": "C4",
          "midi": 60,
          "time": 128.46511627905312,
          "velocity": 0.41732283464566927,
          "duration": 0.023255813953483084
        },
        {
          "name": "G4",
          "midi": 67,
          "time": 128.47674418602986,
          "velocity": 0.4409448818897638,
          "duration": 0.023255813953483084
        },
        {
          "name": "C#7",
          "midi": 97,
          "time": 128.47674418602986,
          "velocity": 0.2204724409448819,
          "duration": 0.11627906976741542
        },
        {
          "name": "D7",
          "midi": 98,
          "time": 128.47674418602986,
          "velocity": 0.25196850393700787,
          "duration": 0.10465116279067388
        },
        {
          "name": "F#7",
          "midi": 102,
          "time": 128.47674418602986,
          "velocity": 0.10236220472440945,
          "duration": 0.12790697674415696
        },
        {
          "name": "G7",
          "midi": 103,
          "time": 128.47674418602986,
          "velocity": 0.11811023622047244,
          "duration": 0.11627906976741542
        },
        {
          "name": "D3",
          "midi": 50,
          "time": 128.4883720930066,
          "velocity": 0.4881889763779528,
          "duration": 0.023255813953483084
        },
        {
          "name": "E4",
          "midi": 64,
          "time": 128.4883720930066,
          "velocity": 0.4015748031496063,
          "duration": 0.034883720930224626
        },
        {
          "name": "C6",
          "midi": 84,
          "time": 128.4883720930066,
          "velocity": 0.2047244094488189,
          "duration": 0.06976744186044925
        },
        {
          "name": "F6",
          "midi": 89,
          "time": 128.4883720930066,
          "velocity": 0.10236220472440945,
          "duration": 0.034883720930224626
        },
        {
          "name": "E7",
          "midi": 100,
          "time": 128.4883720930066,
          "velocity": 0.31496062992125984,
          "duration": 0.5116279069766279
        },
        {
          "name": "F7",
          "midi": 101,
          "time": 128.4883720930066,
          "velocity": 0.12598425196850394,
          "duration": 0.05813953488370771
        },
        {
          "name": "A4",
          "midi": 69,
          "time": 128.49999999998334,
          "velocity": 0.25196850393700787,
          "duration": 0.034883720930224626
        },
        {
          "name": "F#5",
          "midi": 78,
          "time": 128.49999999998334,
          "velocity": 0.08661417322834646,
          "duration": 0.04651162790696617
        },
        {
          "name": "C#5",
          "midi": 73,
          "time": 128.5116279069601,
          "velocity": 0.23622047244094488,
          "duration": 0.034883720930224626
        },
        {
          "name": "F#2",
          "midi": 42,
          "time": 128.52325581393683,
          "velocity": 0.5196850393700787,
          "duration": 0.011627906976741542
        },
        {
          "name": "B3",
          "midi": 59,
          "time": 128.52325581393683,
          "velocity": 0.2677165354330709,
          "duration": 0.023255813953483084
        },
        {
          "name": "D4",
          "midi": 62,
          "time": 128.52325581393683,
          "velocity": 0.30708661417322836,
          "duration": 0.05813953488370771
        },
        {
          "name": "A#4",
          "midi": 70,
          "time": 128.52325581393683,
          "velocity": 0.11811023622047244,
          "duration": 0.034883720930224626
        },
        {
          "name": "D#6",
          "midi": 87,
          "time": 128.52325581393683,
          "velocity": 0.08661417322834646,
          "duration": 0.034883720930224626
        },
        {
          "name": "F#6",
          "midi": 90,
          "time": 128.52325581393683,
          "velocity": 0.13385826771653545,
          "duration": 0.034883720930224626
        },
        {
          "name": "F#4",
          "midi": 66,
          "time": 128.53488372091357,
          "velocity": 0.29133858267716534,
          "duration": 0.023255813953483084
        },
        {
          "name": "E5",
          "midi": 76,
          "time": 128.53488372091357,
          "velocity": 0.1732283464566929,
          "duration": 0.11627906976741542
        },
        {
          "name": "D3",
          "midi": 50,
          "time": 128.5465116278903,
          "velocity": 0.4409448818897638,
          "duration": 0.034883720930224626
        },
        {
          "name": "C5",
          "midi": 72,
          "time": 128.5465116278903,
          "velocity": 0.2204724409448819,
          "duration": 0.034883720930224626
        },
        {
          "name": "G6",
          "midi": 91,
          "time": 128.5465116278903,
          "velocity": 0.08661417322834646,
          "duration": 0.04651162790696617
        },
        {
          "name": "D#2",
          "midi": 39,
          "time": 128.55813953486705,
          "velocity": 0.3700787401574803,
          "duration": 0.023255813953483084
        },
        {
          "name": "D#7",
          "midi": 99,
          "time": 128.55813953486705,
          "velocity": 0.12598425196850394,
          "duration": 0.11627906976741542
        },
        {
          "name": "F#4",
          "midi": 66,
          "time": 128.5697674418438,
          "velocity": 0.28346456692913385,
          "duration": 0.034883720930224626
        },
        {
          "name": "G#6",
          "midi": 92,
          "time": 128.5697674418438,
          "velocity": 0.11023622047244094,
          "duration": 0.05813953488370771
        },
        {
          "name": "C7",
          "midi": 96,
          "time": 128.5697674418438,
          "velocity": 0.08661417322834646,
          "duration": 0.034883720930224626
        },
        {
          "name": "D#3",
          "midi": 51,
          "time": 128.58139534882054,
          "velocity": 0.41732283464566927,
          "duration": 0.023255813953483084
        },
        {
          "name": "A3",
          "midi": 57,
          "time": 128.58139534882054,
          "velocity": 0.33070866141732286,
          "duration": 0.023255813953483084
        },
        {
          "name": "D3",
          "midi": 50,
          "time": 128.60465116277402,
          "velocity": 0.44881889763779526,
          "duration": 0.05813953488370771
        },
        {
          "name": "A4",
          "midi": 69,
          "time": 128.60465116277402,
          "velocity": 0.13385826771653545,
          "duration": 0.04651162790696617
        },
        {
          "name": "C#7",
          "midi": 97,
          "time": 128.60465116277402,
          "velocity": 0.3700787401574803,
          "duration": 1.2325581395346035
        },
        {
          "name": "D7",
          "midi": 98,
          "time": 128.61627906975076,
          "velocity": 0.14173228346456693,
          "duration": 0.04651162790696617
        },
        {
          "name": "F2",
          "midi": 41,
          "time": 128.6279069767275,
          "velocity": 0.4015748031496063,
          "duration": 0.023255813953483084
        },
        {
          "name": "A#3",
          "midi": 58,
          "time": 128.63953488370424,
          "velocity": 0.2992125984251969,
          "duration": 0.023255813953483084
        },
        {
          "name": "D#2",
          "midi": 39,
          "time": 128.65116279068098,
          "velocity": 0.4330708661417323,
          "duration": 0.04651162790696617
        },
        {
          "name": "C5",
          "midi": 72,
          "time": 128.65116279068098,
          "velocity": 0.1889763779527559,
          "duration": 0.04651162790696617
        },
        {
          "name": "F#7",
          "midi": 102,
          "time": 128.65116279068098,
          "velocity": 0.2677165354330709,
          "duration": 0.7093023255812341
        },
        {
          "name": "G7",
          "midi": 103,
          "time": 128.65116279068098,
          "velocity": 0.1732283464566929,
          "duration": 0.0813953488371908
        },
        {
          "name": "A3",
          "midi": 57,
          "time": 128.66279069765773,
          "velocity": 0.30708661417322836,
          "duration": 0.04651162790696617
        },
        {
          "name": "C7",
          "midi": 96,
          "time": 128.66279069765773,
          "velocity": 0.09448818897637795,
          "duration": 0.09302325581393234
        },
        {
          "name": "D3",
          "midi": 50,
          "time": 128.67441860463447,
          "velocity": 0.4409448818897638,
          "duration": 0.023255813953483084
        },
        {
          "name": "E5",
          "midi": 76,
          "time": 128.67441860463447,
          "velocity": 0.3228346456692913,
          "duration": 0.20930232558134776
        },
        {
          "name": "D7",
          "midi": 98,
          "time": 128.67441860463447,
          "velocity": 0.14960629921259844,
          "duration": 0.06976744186044925
        },
        {
          "name": "F#4",
          "midi": 66,
          "time": 128.6860465116112,
          "velocity": 0.3464566929133858,
          "duration": 0.17441860465112313
        },
        {
          "name": "F#6",
          "midi": 90,
          "time": 128.6860465116112,
          "velocity": 0.3937007874015748,
          "duration": 0.8720930232556157
        },
        {
          "name": "D#3",
          "midi": 51,
          "time": 128.69767441858795,
          "velocity": 0.4881889763779528,
          "duration": 0.034883720930224626
        },
        {
          "name": "F#5",
          "midi": 78,
          "time": 128.69767441858795,
          "velocity": 0.5354330708661418,
          "duration": 0.6744186046510094
        },
        {
          "name": "A#6",
          "midi": 94,
          "time": 128.69767441858795,
          "velocity": 0.11023622047244094,
          "duration": 0.11627906976741542
        },
        {
          "name": "E2",
          "midi": 40,
          "time": 128.72093023254143,
          "velocity": 0.4409448818897638,
          "duration": 0.023255813953483084
        },
        {
          "name": "A3",
          "midi": 57,
          "time": 128.72093023254143,
          "velocity": 0.3858267716535433,
          "duration": 0.034883720930224626
        },
        {
          "name": "C#5",
          "midi": 73,
          "time": 128.72093023254143,
          "velocity": 0.14960629921259844,
          "duration": 0.034883720930224626
        },
        {
          "name": "D3",
          "midi": 50,
          "time": 128.73255813951818,
          "velocity": 0.6220472440944882,
          "duration": 0.17441860465112313
        },
        {
          "name": "F2",
          "midi": 41,
          "time": 128.74418604649492,
          "velocity": 0.5275590551181102,
          "duration": 0.034883720930224626
        },
        {
          "name": "A#3",
          "midi": 58,
          "time": 128.75581395347166,
          "velocity": 0.4094488188976378,
          "duration": 0.034883720930224626
        },
        {
          "name": "D5",
          "midi": 74,
          "time": 128.79069767440188,
          "velocity": 0.1732283464566929,
          "duration": 0.10465116279067388
        },
        {
          "name": "A2",
          "midi": 45,
          "time": 128.8255813953321,
          "velocity": 0.4251968503937008,
          "duration": 0.023255813953483084
        },
        {
          "name": "G4",
          "midi": 67,
          "time": 128.86046511626233,
          "velocity": 0.25984251968503935,
          "duration": 0.023255813953483084
        },
        {
          "name": "A5",
          "midi": 81,
          "time": 128.88372093021582,
          "velocity": 0.3858267716535433,
          "duration": 0.6744186046510094
        },
        {
          "name": "D#3",
          "midi": 51,
          "time": 128.9069767441693,
          "velocity": 0.4566929133858268,
          "duration": 0.034883720930224626
        },
        {
          "name": "D5",
          "midi": 74,
          "time": 128.9069767441693,
          "velocity": 0.29133858267716534,
          "duration": 0.0813953488371908
        },
        {
          "name": "A#3",
          "midi": 58,
          "time": 128.91860465114604,
          "velocity": 0.3700787401574803,
          "duration": 0.023255813953483084
        },
        {
          "name": "D7",
          "midi": 98,
          "time": 128.91860465114604,
          "velocity": 0.11811023622047244,
          "duration": 0.06976744186044925
        },
        {
          "name": "D#7",
          "midi": 99,
          "time": 128.91860465114604,
          "velocity": 0.10236220472440945,
          "duration": 0.05813953488370771
        },
        {
          "name": "C#6",
          "midi": 85,
          "time": 128.93023255812278,
          "velocity": 0.07874015748031496,
          "duration": 0.09302325581393234
        },
        {
          "name": "D3",
          "midi": 50,
          "time": 128.94186046509952,
          "velocity": 0.6456692913385826,
          "duration": 0.10465116279067388
        },
        {
          "name": "A3",
          "midi": 57,
          "time": 128.94186046509952,
          "velocity": 0.4409448818897638,
          "duration": 0.06976744186044925
        },
        {
          "name": "G4",
          "midi": 67,
          "time": 128.94186046509952,
          "velocity": 0.2047244094488189,
          "duration": 0.034883720930224626
        },
        {
          "name": "C7",
          "midi": 96,
          "time": 128.95348837207627,
          "velocity": 0.10236220472440945,
          "duration": 0.034883720930224626
        },
        {
          "name": "F2",
          "midi": 41,
          "time": 128.965116279053,
          "velocity": 0.5354330708661418,
          "duration": 0.023255813953483084
        },
        {
          "name": "E6",
          "midi": 88,
          "time": 129.01162790695997,
          "velocity": 0.14173228346456693,
          "duration": 0.09302325581393234
        },
        {
          "name": "A2",
          "midi": 45,
          "time": 129.03488372091346,
          "velocity": 0.5590551181102362,
          "duration": 0.011627906976741542
        },
        {
          "name": "F#4",
          "midi": 66,
          "time": 129.03488372091346,
          "velocity": 0.18110236220472442,
          "duration": 0.034883720930224626
        },
        {
          "name": "C#3",
          "midi": 49,
          "time": 129.0465116278902,
          "velocity": 0.6220472440944882,
          "duration": 0.011627906976741542
        },
        {
          "name": "A2",
          "midi": 45,
          "time": 129.05813953486694,
          "velocity": 0.5905511811023622,
          "duration": 0.011627906976741542
        },
        {
          "name": "D3",
          "midi": 50,
          "time": 129.05813953486694,
          "velocity": 0.5669291338582677,
          "duration": 0.011627906976741542
        },
        {
          "name": "A4",
          "midi": 69,
          "time": 129.05813953486694,
          "velocity": 0.1968503937007874,
          "duration": 0.0813953488371908
        },
        {
          "name": "F#2",
          "midi": 42,
          "time": 129.06976744184368,
          "velocity": 0.6062992125984252,
          "duration": 0.011627906976741542
        },
        {
          "name": "A2",
          "midi": 45,
          "time": 129.08139534882042,
          "velocity": 0.6220472440944882,
          "duration": 0.04651162790696617
        },
        {
          "name": "D3",
          "midi": 50,
          "time": 129.08139534882042,
          "velocity": 0.5354330708661418,
          "duration": 0.011627906976741542
        },
        {
          "name": "F#4",
          "midi": 66,
          "time": 129.08139534882042,
          "velocity": 0.11811023622047244,
          "duration": 0.04651162790696617
        },
        {
          "name": "A#6",
          "midi": 94,
          "time": 129.1046511627739,
          "velocity": 0.13385826771653545,
          "duration": 0.10465116279067388
        },
        {
          "name": "F#2",
          "midi": 42,
          "time": 129.1279069767274,
          "velocity": 0.5984251968503937,
          "duration": 0.011627906976741542
        },
        {
          "name": "A#4",
          "midi": 70,
          "time": 129.1279069767274,
          "velocity": 0.2755905511811024,
          "duration": 0.04651162790696617
        },
        {
          "name": "E5",
          "midi": 76,
          "time": 129.1279069767274,
          "velocity": 0.30708661417322836,
          "duration": 0.023255813953483084
        },
        {
          "name": "G#2",
          "midi": 44,
          "time": 129.13953488370413,
          "velocity": 0.5984251968503937,
          "duration": 0.011627906976741542
        },
        {
          "name": "D7",
          "midi": 98,
          "time": 129.13953488370413,
          "velocity": 0.23622047244094488,
          "duration": 0.09302325581393234
        },
        {
          "name": "D3",
          "midi": 50,
          "time": 129.15116279068087,
          "velocity": 0.48031496062992124,
          "duration": 0.0813953488371908
        },
        {
          "name": "C5",
          "midi": 72,
          "time": 129.15116279068087,
          "velocity": 0.13385826771653545,
          "duration": 0.11627906976741542
        },
        {
          "name": "C#6",
          "midi": 85,
          "time": 129.15116279068087,
          "velocity": 0.07086614173228346,
          "duration": 0.04651162790696617
        },
        {
          "name": "F#4",
          "midi": 66,
          "time": 129.1627906976576,
          "velocity": 0.31496062992125984,
          "duration": 0.12790697674415696
        },
        {
          "name": "A3",
          "midi": 57,
          "time": 129.17441860463435,
          "velocity": 0.3464566929133858,
          "duration": 0.15116279069764005
        },
        {
          "name": "A4",
          "midi": 69,
          "time": 129.17441860463435,
          "velocity": 0.3464566929133858,
          "duration": 0.1627906976743816
        },
        {
          "name": "E5",
          "midi": 76,
          "time": 129.17441860463435,
          "velocity": 0.2677165354330709,
          "duration": 0.0813953488371908
        },
        {
          "name": "E2",
          "midi": 40,
          "time": 129.1860465116111,
          "velocity": 0.47244094488188976,
          "duration": 0.023255813953483084
        },
        {
          "name": "G7",
          "midi": 103,
          "time": 129.1860465116111,
          "velocity": 0.08661417322834646,
          "duration": 0.05813953488370771
        },
        {
          "name": "D#7",
          "midi": 99,
          "time": 129.19767441858784,
          "velocity": 0.12598425196850394,
          "duration": 0.11627906976741542
        },
        {
          "name": "B6",
          "midi": 95,
          "time": 129.20930232556458,
          "velocity": 0.07874015748031496,
          "duration": 0.034883720930224626
        },
        {
          "name": "C7",
          "midi": 96,
          "time": 129.20930232556458,
          "velocity": 0.07874015748031496,
          "duration": 0.034883720930224626
        },
        {
          "name": "D#3",
          "midi": 51,
          "time": 129.23255813951806,
          "velocity": 0.4251968503937008,
          "duration": 0.023255813953483084
        },
        {
          "name": "D7",
          "midi": 98,
          "time": 129.2441860464948,
          "velocity": 0.29133858267716534,
          "duration": 0.6162790697673017
        },
        {
          "name": "D3",
          "midi": 50,
          "time": 129.25581395347155,
          "velocity": 0.4409448818897638,
          "duration": 0.04651162790696617
        },
        {
          "name": "F2",
          "midi": 41,
          "time": 129.2674418604483,
          "velocity": 0.4094488188976378,
          "duration": 0.023255813953483084
        },
        {
          "name": "D#2",
          "midi": 39,
          "time": 129.29069767440177,
          "velocity": 0.4645669291338583,
          "duration": 0.023255813953483084
        },
        {
          "name": "G7",
          "midi": 103,
          "time": 129.3023255813785,
          "velocity": 0.07086614173228346,
          "duration": 0.034883720930224626
        },
        {
          "name": "G4",
          "midi": 67,
          "time": 129.325581395332,
          "velocity": 0.3937007874015748,
          "duration": 0.023255813953483084
        },
        {
          "name": "E6",
          "midi": 88,
          "time": 129.325581395332,
          "velocity": 0.2283464566929134,
          "duration": 0.11627906976741542
        },
        {
          "name": "A4",
          "midi": 69,
          "time": 129.34883720928548,
          "velocity": 0.2677165354330709,
          "duration": 0.023255813953483084
        },
        {
          "name": "C6",
          "midi": 84,
          "time": 129.34883720928548,
          "velocity": 0.2047244094488189,
          "duration": 0.11627906976741542
        },
        {
          "name": "C#6",
          "midi": 85,
          "time": 129.34883720928548,
          "velocity": 0.23622047244094488,
          "duration": 0.023255813953483084
        },
        {
          "name": "G6",
          "midi": 91,
          "time": 129.34883720928548,
          "velocity": 0.4566929133858268,
          "duration": 0.5348837209301109
        },
        {
          "name": "D#7",
          "midi": 99,
          "time": 129.34883720928548,
          "velocity": 0.14960629921259844,
          "duration": 0.06976744186044925
        },
        {
          "name": "A#3",
          "midi": 58,
          "time": 129.36046511626222,
          "velocity": 0.2992125984251969,
          "duration": 0.023255813953483084
        },
        {
          "name": "D#4",
          "midi": 63,
          "time": 129.36046511626222,
          "velocity": 0.3779527559055118,
          "duration": 0.023255813953483084
        },
        {
          "name": "G5",
          "midi": 79,
          "time": 129.36046511626222,
          "velocity": 0.47244094488188976,
          "duration": 0.406976744185954
        },
        {
          "name": "D#6",
          "midi": 87,
          "time": 129.36046511626222,
          "velocity": 0.14173228346456693,
          "duration": 0.05813953488370771
        },
        {
          "name": "B6",
          "midi": 95,
          "time": 129.36046511626222,
          "velocity": 0.23622047244094488,
          "duration": 0.15116279069764005
        },
        {
          "name": "F2",
          "midi": 41,
          "time": 129.3837209302157,
          "velocity": 0.4881889763779528,
          "duration": 0.023255813953483084
        },
        {
          "name": "D#3",
          "midi": 51,
          "time": 129.3837209302157,
          "velocity": 0.4409448818897638,
          "duration": 0.034883720930224626
        },
        {
          "name": "B3",
          "midi": 59,
          "time": 129.3837209302157,
          "velocity": 0.3228346456692913,
          "duration": 0.023255813953483084
        },
        {
          "name": "B5",
          "midi": 83,
          "time": 129.3837209302157,
          "velocity": 0.12598425196850394,
          "duration": 0.06976744186044925
        },
        {
          "name": "F7",
          "midi": 101,
          "time": 129.3837209302157,
          "velocity": 0.2283464566929134,
          "duration": 0.3604651162789878
        },
        {
          "name": "D4",
          "midi": 62,
          "time": 129.39534883719244,
          "velocity": 0.29133858267716534,
          "duration": 0.09302325581393234
        },
        {
          "name": "F4",
          "midi": 65,
          "time": 129.39534883719244,
          "velocity": 0.25984251968503935,
          "duration": 0.034883720930224626
        },
        {
          "name": "A#3",
          "midi": 58,
          "time": 129.40697674416919,
          "velocity": 0.29133858267716534,
          "duration": 0.023255813953483084
        },
        {
          "name": "A4",
          "midi": 69,
          "time": 129.40697674416919,
          "velocity": 0.25196850393700787,
          "duration": 0.11627906976741542
        },
        {
          "name": "D3",
          "midi": 50,
          "time": 129.41860465114593,
          "velocity": 0.4645669291338583,
          "duration": 0.1395348837208985
        },
        {
          "name": "A#3",
          "midi": 58,
          "time": 129.4418604650994,
          "velocity": 0.29133858267716534,
          "duration": 0.06976744186044925
        },
        {
          "name": "G4",
          "midi": 67,
          "time": 129.4418604650994,
          "velocity": 0.31496062992125984,
          "duration": 0.1395348837208985
        },
        {
          "name": "D#7",
          "midi": 99,
          "time": 129.4418604650994,
          "velocity": 0.1889763779527559,
          "duration": 0.2209302325580893
        },
        {
          "name": "C5",
          "midi": 72,
          "time": 129.4651162790529,
          "velocity": 0.14960629921259844,
          "duration": 0.034883720930224626
        },
        {
          "name": "E6",
          "midi": 88,
          "time": 129.4651162790529,
          "velocity": 0.15748031496062992,
          "duration": 0.06976744186044925
        },
        {
          "name": "F#5",
          "midi": 78,
          "time": 129.47674418602963,
          "velocity": 0.25196850393700787,
          "duration": 0.05813953488370771
        },
        {
          "name": "E4",
          "midi": 64,
          "time": 129.51162790695986,
          "velocity": 0.14173228346456693,
          "duration": 0.06976744186044925
        },
        {
          "name": "D5",
          "midi": 74,
          "time": 129.5232558139366,
          "velocity": 0.2283464566929134,
          "duration": 0.06976744186044925
        },
        {
          "name": "A4",
          "midi": 69,
          "time": 129.53488372091334,
          "velocity": 0.33070866141732286,
          "duration": 0.05813953488370771
        },
        {
          "name": "C4",
          "midi": 60,
          "time": 129.54651162789008,
          "velocity": 0.2125984251968504,
          "duration": 0.034883720930224626
        },
        {
          "name": "F#5",
          "midi": 78,
          "time": 129.54651162789008,
          "velocity": 0.30708661417322836,
          "duration": 0.10465116279067388
        },
        {
          "name": "E6",
          "midi": 88,
          "time": 129.54651162789008,
          "velocity": 0.2283464566929134,
          "duration": 0.18604651162786467
        },
        {
          "name": "C7",
          "midi": 96,
          "time": 129.54651162789008,
          "velocity": 0.2440944881889764,
          "duration": 0.09302325581393234
        },
        {
          "name": "C#2",
          "midi": 37,
          "time": 129.55813953486683,
          "velocity": 0.5275590551181102,
          "duration": 0.011627906976741542
        },
        {
          "name": "E5",
          "midi": 76,
          "time": 129.55813953486683,
          "velocity": 0.2204724409448819,
          "duration": 0.2209302325580893
        },
        {
          "name": "B5",
          "midi": 83,
          "time": 129.56976744184357,
          "velocity": 0.09448818897637795,
          "duration": 0.034883720930224626
        },
        {
          "name": "B2",
          "midi": 47,
          "time": 129.5813953488203,
          "velocity": 0.41732283464566927,
          "duration": 0.023255813953483084
        },
        {
          "name": "F#4",
          "midi": 66,
          "time": 129.5813953488203,
          "velocity": 0.33858267716535434,
          "duration": 0.034883720930224626
        },
        {
          "name": "A5",
          "midi": 81,
          "time": 129.5813953488203,
          "velocity": 0.4330708661417323,
          "duration": 0.9069767441858403
        },
        {
          "name": "C2",
          "midi": 36,
          "time": 129.59302325579705,
          "velocity": 0.33070866141732286,
          "duration": 0.023255813953483084
        },
        {
          "name": "A4",
          "midi": 69,
          "time": 129.6046511627738,
          "velocity": 0.1889763779527559,
          "duration": 0.034883720930224626
        },
        {
          "name": "D5",
          "midi": 74,
          "time": 129.6046511627738,
          "velocity": 0.16535433070866143,
          "duration": 0.04651162790696617
        },
        {
          "name": "B6",
          "midi": 95,
          "time": 129.6046511627738,
          "velocity": 0.11811023622047244,
          "duration": 0.0813953488371908
        },
        {
          "name": "G4",
          "midi": 67,
          "time": 129.61627906975053,
          "velocity": 0.2677165354330709,
          "duration": 0.034883720930224626
        },
        {
          "name": "D6",
          "midi": 86,
          "time": 129.62790697672727,
          "velocity": 0.1889763779527559,
          "duration": 0.034883720930224626
        },
        {
          "name": "A3",
          "midi": 57,
          "time": 129.63953488370402,
          "velocity": 0.33070866141732286,
          "duration": 0.023255813953483084
        },
        {
          "name": "B5",
          "midi": 83,
          "time": 129.63953488370402,
          "velocity": 0.07874015748031496,
          "duration": 0.034883720930224626
        },
        {
          "name": "F#4",
          "midi": 66,
          "time": 129.65116279068076,
          "velocity": 0.31496062992125984,
          "duration": 0.12790697674415696
        },
        {
          "name": "F#6",
          "midi": 90,
          "time": 129.65116279068076,
          "velocity": 0.15748031496062992,
          "duration": 0.17441860465112313
        },
        {
          "name": "A4",
          "midi": 69,
          "time": 129.6627906976575,
          "velocity": 0.28346456692913385,
          "duration": 0.06976744186044925
        },
        {
          "name": "D5",
          "midi": 74,
          "time": 129.6627906976575,
          "velocity": 0.18110236220472442,
          "duration": 0.10465116279067388
        },
        {
          "name": "D#3",
          "midi": 51,
          "time": 129.67441860463424,
          "velocity": 0.47244094488188976,
          "duration": 0.034883720930224626
        },
        {
          "name": "A3",
          "midi": 57,
          "time": 129.67441860463424,
          "velocity": 0.2677165354330709,
          "duration": 0.023255813953483084
        },
        {
          "name": "D4",
          "midi": 62,
          "time": 129.68604651161098,
          "velocity": 0.2755905511811024,
          "duration": 0.09302325581393234
        },
        {
          "name": "C7",
          "midi": 96,
          "time": 129.68604651161098,
          "velocity": 0.09448818897637795,
          "duration": 0.06976744186044925
        },
        {
          "name": "E2",
          "midi": 40,
          "time": 129.69767441858772,
          "velocity": 0.44881889763779526,
          "duration": 0.023255813953483084
        },
        {
          "name": "D3",
          "midi": 50,
          "time": 129.70930232556447,
          "velocity": 0.47244094488188976,
          "duration": 0.05813953488370771
        },
        {
          "name": "D#7",
          "midi": 99,
          "time": 129.7209302325412,
          "velocity": 0.16535433070866143,
          "duration": 0.06976744186044925
        },
        {
          "name": "A#3",
          "midi": 58,
          "time": 129.7441860464947,
          "velocity": 0.3228346456692913,
          "duration": 0.023255813953483084
        },
        {
          "name": "E7",
          "midi": 100,
          "time": 129.7441860464947,
          "velocity": 0.33070866141732286,
          "duration": 0.7441860465114587
        },
        {
          "name": "F2",
          "midi": 41,
          "time": 129.76744186044817,
          "velocity": 0.5511811023622047,
          "duration": 0.011627906976741542
        },
        {
          "name": "C5",
          "midi": 72,
          "time": 129.76744186044817,
          "velocity": 0.25196850393700787,
          "duration": 0.023255813953483084
        },
        {
          "name": "C#2",
          "midi": 37,
          "time": 129.77906976742491,
          "velocity": 0.5354330708661418,
          "duration": 0.011627906976741542
        },
        {
          "name": "A#2",
          "midi": 46,
          "time": 129.77906976742491,
          "velocity": 0.5590551181102362,
          "duration": 0.011627906976741542
        },
        {
          "name": "E4",
          "midi": 64,
          "time": 129.77906976742491,
          "velocity": 0.3779527559055118,
          "duration": 0.29069767441853855
        },
        {
          "name": "D5",
          "midi": 74,
          "time": 129.77906976742491,
          "velocity": 0.1889763779527559,
          "duration": 0.05813953488370771
        },
        {
          "name": "G5",
          "midi": 79,
          "time": 129.77906976742491,
          "velocity": 0.4094488188976378,
          "duration": 0.1627906976743816
        },
        {
          "name": "B5",
          "midi": 83,
          "time": 129.77906976742491,
          "velocity": 0.13385826771653545,
          "duration": 0.06976744186044925
        },
        {
          "name": "D#6",
          "midi": 87,
          "time": 129.77906976742491,
          "velocity": 0.08661417322834646,
          "duration": 0.034883720930224626
        },
        {
          "name": "B6",
          "midi": 95,
          "time": 129.77906976742491,
          "velocity": 0.2204724409448819,
          "duration": 0.09302325581393234
        },
        {
          "name": "D3",
          "midi": 50,
          "time": 129.79069767440166,
          "velocity": 0.5511811023622047,
          "duration": 0.011627906976741542
        },
        {
          "name": "G#4",
          "midi": 68,
          "time": 129.79069767440166,
          "velocity": 0.2677165354330709,
          "duration": 0.023255813953483084
        },
        {
          "name": "B4",
          "midi": 71,
          "time": 129.79069767440166,
          "velocity": 0.2992125984251969,
          "duration": 0.12790697674415696
        },
        {
          "name": "B3",
          "midi": 59,
          "time": 129.81395348835514,
          "velocity": 0.36220472440944884,
          "duration": 0.034883720930224626
        },
        {
          "name": "A4",
          "midi": 69,
          "time": 129.81395348835514,
          "velocity": 0.31496062992125984,
          "duration": 0.06976744186044925
        },
        {
          "name": "F2",
          "midi": 41,
          "time": 129.82558139533188,
          "velocity": 0.48031496062992124,
          "duration": 0.034883720930224626
        },
        {
          "name": "E3",
          "midi": 52,
          "time": 129.83720930230862,
          "velocity": 0.5354330708661418,
          "duration": 0.04651162790696617
        },
        {
          "name": "G#6",
          "midi": 92,
          "time": 129.83720930230862,
          "velocity": 0.14960629921259844,
          "duration": 0.05813953488370771
        },
        {
          "name": "C7",
          "midi": 96,
          "time": 129.83720930230862,
          "velocity": 0.1889763779527559,
          "duration": 0.0813953488371908
        },
        {
          "name": "D#7",
          "midi": 99,
          "time": 129.84883720928536,
          "velocity": 0.14173228346456693,
          "duration": 0.06976744186044925
        },
        {
          "name": "B3",
          "midi": 59,
          "time": 129.8604651162621,
          "velocity": 0.3543307086614173,
          "duration": 0.023255813953483084
        },
        {
          "name": "F#5",
          "midi": 78,
          "time": 129.8604651162621,
          "velocity": 0.16535433070866143,
          "duration": 0.034883720930224626
        },
        {
          "name": "D6",
          "midi": 86,
          "time": 129.87209302323885,
          "velocity": 0.07874015748031496,
          "duration": 0.04651162790696617
        },
        {
          "name": "F3",
          "midi": 53,
          "time": 129.8837209302156,
          "velocity": 0.5511811023622047,
          "duration": 0.011627906976741542
        },
        {
          "name": "E3",
          "midi": 52,
          "time": 129.89534883719233,
          "velocity": 0.5354330708661418,
          "duration": 0.034883720930224626
        },
        {
          "name": "F#6",
          "midi": 90,
          "time": 129.89534883719233,
          "velocity": 0.08661417322834646,
          "duration": 0.04651162790696617
        },
        {
          "name": "A4",
          "midi": 69,
          "time": 129.90697674416907,
          "velocity": 0.30708661417322836,
          "duration": 0.09302325581393234
        },
        {
          "name": "F#5",
          "midi": 78,
          "time": 129.90697674416907,
          "velocity": 0.14960629921259844,
          "duration": 0.05813953488370771
        },
        {
          "name": "D3",
          "midi": 50,
          "time": 129.9418604650993,
          "velocity": 0.30708661417322836,
          "duration": 0.023255813953483084
        },
        {
          "name": "F2",
          "midi": 41,
          "time": 129.95348837207604,
          "velocity": 0.31496062992125984,
          "duration": 0.023255813953483084
        },
        {
          "name": "C#7",
          "midi": 97,
          "time": 129.96511627905278,
          "velocity": 0.09448818897637795,
          "duration": 0.05813953488370771
        },
        {
          "name": "B4",
          "midi": 71,
          "time": 129.97674418602952,
          "velocity": 0.33070866141732286,
          "duration": 0.10465116279067388
        },
        {
          "name": "C#2",
          "midi": 37,
          "time": 129.98837209300626,
          "velocity": 0.5354330708661418,
          "duration": 0.011627906976741542
        },
        {
          "name": "A3",
          "midi": 57,
          "time": 129.98837209300626,
          "velocity": 0.2992125984251969,
          "duration": 0.023255813953483084
        },
        {
          "name": "G4",
          "midi": 67,
          "time": 129.98837209300626,
          "velocity": 0.5039370078740157,
          "duration": 0.2558139534883139
        },
        {
          "name": "F#5",
          "midi": 78,
          "time": 129.98837209300626,
          "velocity": 0.4094488188976378,
          "duration": 0.05813953488370771
        },
        {
          "name": "A#3",
          "midi": 58,
          "time": 130.01162790695975,
          "velocity": 0.29133858267716534,
          "duration": 0.023255813953483084
        },
        {
          "name": "F#2",
          "midi": 42,
          "time": 130.0232558139365,
          "velocity": 0.5039370078740157,
          "duration": 0.023255813953483084
        },
        {
          "name": "D#3",
          "midi": 51,
          "time": 130.0232558139365,
          "velocity": 0.49606299212598426,
          "duration": 0.034883720930224626
        },
        {
          "name": "D7",
          "midi": 98,
          "time": 130.0232558139365,
          "velocity": 0.11023622047244094,
          "duration": 0.0813953488371908
        },
        {
          "name": "B3",
          "midi": 59,
          "time": 130.03488372091323,
          "velocity": 0.30708661417322836,
          "duration": 0.034883720930224626
        },
        {
          "name": "D6",
          "midi": 86,
          "time": 130.03488372091323,
          "velocity": 0.11811023622047244,
          "duration": 0.0813953488371908
        },
        {
          "name": "F2",
          "midi": 41,
          "time": 130.04651162788997,
          "velocity": 0.5118110236220472,
          "duration": 0.011627906976741542
        },
        {
          "name": "F#6",
          "midi": 90,
          "time": 130.04651162788997,
          "velocity": 0.14960629921259844,
          "duration": 0.10465116279067388
        },
        {
          "name": "C#7",
          "midi": 97,
          "time": 130.04651162788997,
          "velocity": 0.1732283464566929,
          "duration": 0.0813953488371908
        },
        {
          "name": "E3",
          "midi": 52,
          "time": 130.0581395348667,
          "velocity": 0.5590551181102362,
          "duration": 0.034883720930224626
        },
        {
          "name": "F3",
          "midi": 53,
          "time": 130.09302325579694,
          "velocity": 0.5196850393700787,
          "duration": 0.011627906976741542
        },
        {
          "name": "B4",
          "midi": 71,
          "time": 130.09302325579694,
          "velocity": 0.2677165354330709,
          "duration": 0.09302325581393234
        },
        {
          "name": "D#3",
          "midi": 51,
          "time": 130.10465116277368,
          "velocity": 0.5354330708661418,
          "duration": 0.011627906976741542
        },
        {
          "name": "F#5",
          "midi": 78,
          "time": 130.10465116277368,
          "velocity": 0.2204724409448819,
          "duration": 0.0813953488371908
        },
        {
          "name": "B3",
          "midi": 59,
          "time": 130.11627906975042,
          "velocity": 0.2440944881889764,
          "duration": 0.06976744186044925
        },
        {
          "name": "A4",
          "midi": 69,
          "time": 130.11627906975042,
          "velocity": 0.25196850393700787,
          "duration": 0.06976744186044925
        },
        {
          "name": "G6",
          "midi": 91,
          "time": 130.11627906975042,
          "velocity": 0.13385826771653545,
          "duration": 0.09302325581393234
        },
        {
          "name": "F3",
          "midi": 53,
          "time": 130.12790697672716,
          "velocity": 0.5118110236220472,
          "duration": 0.011627906976741542
        },
        {
          "name": "E2",
          "midi": 40,
          "time": 130.1395348837039,
          "velocity": 0.4566929133858268,
          "duration": 0.023255813953483084
        },
        {
          "name": "E3",
          "midi": 52,
          "time": 130.1395348837039,
          "velocity": 0.5039370078740157,
          "duration": 0.034883720930224626
        },
        {
          "name": "E2",
          "midi": 40,
          "time": 130.17441860463413,
          "velocity": 0.5118110236220472,
          "duration": 0.011627906976741542
        },
        {
          "name": "C#7",
          "midi": 97,
          "time": 130.17441860463413,
          "velocity": 0.30708661417322836,
          "duration": 0.29069767441853855
        },
        {
          "name": "D5",
          "midi": 74,
          "time": 130.18604651161087,
          "velocity": 0.3858267716535433,
          "duration": 0.034883720930224626
        },
        {
          "name": "C6",
          "midi": 84,
          "time": 130.1976744185876,
          "velocity": 0.14173228346456693,
          "duration": 0.0813953488371908
        },
        {
          "name": "D7",
          "midi": 98,
          "time": 130.1976744185876,
          "velocity": 0.1968503937007874,
          "duration": 0.04651162790696617
        },
        {
          "name": "G7",
          "midi": 103,
          "time": 130.1976744185876,
          "velocity": 0.18110236220472442,
          "duration": 0.29069767441853855
        },
        {
          "name": "A#3",
          "midi": 58,
          "time": 130.20930232556435,
          "velocity": 0.4015748031496063,
          "duration": 0.023255813953483084
        },
        {
          "name": "E4",
          "midi": 64,
          "time": 130.20930232556435,
          "velocity": 0.3543307086614173,
          "duration": 0.023255813953483084
        },
        {
          "name": "F7",
          "midi": 101,
          "time": 130.20930232556435,
          "velocity": 0.11811023622047244,
          "duration": 0.0813953488371908
        },
        {
          "name": "E2",
          "midi": 40,
          "time": 130.2209302325411,
          "velocity": 0.4566929133858268,
          "duration": 0.023255813953483084
        },
        {
          "name": "A4",
          "midi": 69,
          "time": 130.2209302325411,
          "velocity": 0.2677165354330709,
          "duration": 0.05813953488370771
        },
        {
          "name": "D#6",
          "midi": 87,
          "time": 130.2209302325411,
          "velocity": 0.15748031496062992,
          "duration": 0.06976744186044925
        },
        {
          "name": "C4",
          "midi": 60,
          "time": 130.23255813951783,
          "velocity": 0.3464566929133858,
          "duration": 0.023255813953483084
        },
        {
          "name": "B4",
          "midi": 71,
          "time": 130.23255813951783,
          "velocity": 0.1968503937007874,
          "duration": 0.04651162790696617
        },
        {
          "name": "F6",
          "midi": 89,
          "time": 130.23255813951783,
          "velocity": 0.11023622047244094,
          "duration": 0.034883720930224626
        },
        {
          "name": "G6",
          "midi": 91,
          "time": 130.23255813951783,
          "velocity": 0.14960629921259844,
          "duration": 0.17441860465112313
        },
        {
          "name": "G5",
          "midi": 79,
          "time": 130.24418604649458,
          "velocity": 0.14960629921259844,
          "duration": 0.05813953488370771
        },
        {
          "name": "B6",
          "midi": 95,
          "time": 130.24418604649458,
          "velocity": 0.11811023622047244,
          "duration": 0.034883720930224626
        },
        {
          "name": "C5",
          "midi": 72,
          "time": 130.25581395347132,
          "velocity": 0.2047244094488189,
          "duration": 0.034883720930224626
        },
        {
          "name": "D5",
          "midi": 74,
          "time": 130.25581395347132,
          "velocity": 0.2440944881889764,
          "duration": 0.09302325581393234
        },
        {
          "name": "E3",
          "midi": 52,
          "time": 130.26744186044806,
          "velocity": 0.33858267716535434,
          "duration": 0.023255813953483084
        },
        {
          "name": "C4",
          "midi": 60,
          "time": 130.26744186044806,
          "velocity": 0.2677165354330709,
          "duration": 0.034883720930224626
        },
        {
          "name": "D7",
          "midi": 98,
          "time": 130.26744186044806,
          "velocity": 0.1889763779527559,
          "duration": 0.09302325581393234
        },
        {
          "name": "E2",
          "midi": 40,
          "time": 130.2790697674248,
          "velocity": 0.5039370078740157,
          "duration": 0.0813953488371908
        },
        {
          "name": "C#6",
          "midi": 85,
          "time": 130.2790697674248,
          "velocity": 0.11023622047244094,
          "duration": 0.034883720930224626
        },
        {
          "name": "D#3",
          "midi": 51,
          "time": 130.29069767440154,
          "velocity": 0.33070866141732286,
          "duration": 0.023255813953483084
        },
        {
          "name": "B3",
          "midi": 59,
          "time": 130.31395348835503,
          "velocity": 0.3937007874015748,
          "duration": 0.10465116279067388
        },
        {
          "name": "A4",
          "midi": 69,
          "time": 130.31395348835503,
          "velocity": 0.2677165354330709,
          "duration": 0.11627906976741542
        },
        {
          "name": "G5",
          "midi": 79,
          "time": 130.31395348835503,
          "velocity": 0.14960629921259844,
          "duration": 0.06976744186044925
        },
        {
          "name": "F7",
          "midi": 101,
          "time": 130.32558139533177,
          "velocity": 0.13385826771653545,
          "duration": 0.10465116279067388
        },
        {
          "name": "G4",
          "midi": 67,
          "time": 130.34883720928525,
          "velocity": 0.2204724409448819,
          "duration": 0.034883720930224626
        },
        {
          "name": "E5",
          "midi": 76,
          "time": 130.34883720928525,
          "velocity": 0.2440944881889764,
          "duration": 0.20930232558134776
        },
        {
          "name": "C7",
          "midi": 96,
          "time": 130.34883720928525,
          "velocity": 0.10236220472440945,
          "duration": 0.034883720930224626
        },
        {
          "name": "E3",
          "midi": 52,
          "time": 130.360465116262,
          "velocity": 0.3464566929133858,
          "duration": 0.023255813953483084
        },
        {
          "name": "D5",
          "midi": 74,
          "time": 130.360465116262,
          "velocity": 0.13385826771653545,
          "duration": 0.06976744186044925
        },
        {
          "name": "F#7",
          "midi": 102,
          "time": 130.37209302323873,
          "velocity": 0.12598425196850394,
          "duration": 0.0813953488371908
        },
        {
          "name": "D7",
          "midi": 98,
          "time": 130.38372093021547,
          "velocity": 0.4881889763779528,
          "duration": 1.1860465116276373
        },
        {
          "name": "E3",
          "midi": 52,
          "time": 130.39534883719222,
          "velocity": 0.3779527559055118,
          "duration": 0.023255813953483084
        },
        {
          "name": "G4",
          "midi": 67,
          "time": 130.40697674416896,
          "velocity": 0.3779527559055118,
          "duration": 0.2209302325580893
        },
        {
          "name": "F#5",
          "midi": 78,
          "time": 130.40697674416896,
          "velocity": 0.25984251968503935,
          "duration": 0.0813953488371908
        },
        {
          "name": "C7",
          "midi": 96,
          "time": 130.40697674416896,
          "velocity": 0.18110236220472442,
          "duration": 0.0813953488371908
        },
        {
          "name": "F#2",
          "midi": 42,
          "time": 130.43023255812244,
          "velocity": 0.5511811023622047,
          "duration": 0.023255813953483084
        },
        {
          "name": "E2",
          "midi": 40,
          "time": 130.45348837207592,
          "velocity": 0.48031496062992124,
          "duration": 0.05813953488370771
        },
        {
          "name": "B3",
          "midi": 59,
          "time": 130.46511627905267,
          "velocity": 0.3700787401574803,
          "duration": 0.15116279069764005
        },
        {
          "name": "E3",
          "midi": 52,
          "time": 130.4767441860294,
          "velocity": 0.4881889763779528,
          "duration": 0.0813953488371908
        },
        {
          "name": "G#6",
          "midi": 92,
          "time": 130.4767441860294,
          "velocity": 0.2755905511811024,
          "duration": 0.10465116279067388
        },
        {
          "name": "D#7",
          "midi": 99,
          "time": 130.4767441860294,
          "velocity": 0.12598425196850394,
          "duration": 0.04651162790696617
        },
        {
          "name": "F7",
          "midi": 101,
          "time": 130.4767441860294,
          "velocity": 0.13385826771653545,
          "duration": 0.034883720930224626
        },
        {
          "name": "D6",
          "midi": 86,
          "time": 130.48837209300615,
          "velocity": 0.2677165354330709,
          "duration": 0.3023255813952801
        },
        {
          "name": "C#7",
          "midi": 97,
          "time": 130.48837209300615,
          "velocity": 0.11811023622047244,
          "duration": 0.05813953488370771
        },
        {
          "name": "A5",
          "midi": 81,
          "time": 130.4999999999829,
          "velocity": 0.11811023622047244,
          "duration": 0.0813953488371908
        },
        {
          "name": "C#5",
          "midi": 73,
          "time": 130.52325581393637,
          "velocity": 0.07874015748031496,
          "duration": 0.034883720930224626
        },
        {
          "name": "D5",
          "midi": 74,
          "time": 130.5581395348666,
          "velocity": 0.3228346456692913,
          "duration": 0.5116279069766279
        },
        {
          "name": "A6",
          "midi": 93,
          "time": 130.56976744184334,
          "velocity": 0.2283464566929134,
          "duration": 0.31395348837202164
        },
        {
          "name": "D#7",
          "midi": 99,
          "time": 130.56976744184334,
          "velocity": 0.09448818897637795,
          "duration": 0.04651162790696617
        },
        {
          "name": "E3",
          "midi": 52,
          "time": 130.59302325579682,
          "velocity": 0.2125984251968504,
          "duration": 0.034883720930224626
        },
        {
          "name": "B5",
          "midi": 83,
          "time": 130.59302325579682,
          "velocity": 0.07086614173228346,
          "duration": 0.034883720930224626
        },
        {
          "name": "A4",
          "midi": 69,
          "time": 130.60465116277356,
          "velocity": 0.1968503937007874,
          "duration": 0.05813953488370771
        },
        {
          "name": "G#6",
          "midi": 92,
          "time": 130.6162790697503,
          "velocity": 0.13385826771653545,
          "duration": 0.034883720930224626
        },
        {
          "name": "C3",
          "midi": 48,
          "time": 130.62790697672705,
          "velocity": 0.5511811023622047,
          "duration": 0.023255813953483084
        },
        {
          "name": "F4",
          "midi": 65,
          "time": 130.62790697672705,
          "velocity": 0.29133858267716534,
          "duration": 0.023255813953483084
        },
        {
          "name": "E5",
          "midi": 76,
          "time": 130.62790697672705,
          "velocity": 0.2125984251968504,
          "duration": 0.20930232558134776
        },
        {
          "name": "E7",
          "midi": 100,
          "time": 130.62790697672705,
          "velocity": 0.13385826771653545,
          "duration": 0.05813953488370771
        },
        {
          "name": "C5",
          "midi": 72,
          "time": 130.6395348837038,
          "velocity": 0.2125984251968504,
          "duration": 0.04651162790696617
        },
        {
          "name": "F#5",
          "midi": 78,
          "time": 130.6395348837038,
          "velocity": 0.14173228346456693,
          "duration": 0.12790697674415696
        },
        {
          "name": "D3",
          "midi": 50,
          "time": 130.65116279068053,
          "velocity": 0.5275590551181102,
          "duration": 0.011627906976741542
        },
        {
          "name": "B3",
          "midi": 59,
          "time": 130.65116279068053,
          "velocity": 0.4015748031496063,
          "duration": 0.12790697674415696
        },
        {
          "name": "E4",
          "midi": 64,
          "time": 130.65116279068053,
          "velocity": 0.33858267716535434,
          "duration": 0.3372093023255047
        },
        {
          "name": "C#7",
          "midi": 97,
          "time": 130.65116279068053,
          "velocity": 0.1968503937007874,
          "duration": 0.04651162790696617
        },
        {
          "name": "E3",
          "midi": 52,
          "time": 130.66279069765727,
          "velocity": 0.4645669291338583,
          "duration": 0.023255813953483084
        },
        {
          "name": "G4",
          "midi": 67,
          "time": 130.66279069765727,
          "velocity": 0.1732283464566929,
          "duration": 0.034883720930224626
        },
        {
          "name": "B5",
          "midi": 83,
          "time": 130.66279069765727,
          "velocity": 0.13385826771653545,
          "duration": 0.04651162790696617
        },
        {
          "name": "D#3",
          "midi": 51,
          "time": 130.68604651161075,
          "velocity": 0.5118110236220472,
          "duration": 0.011627906976741542
        },
        {
          "name": "E3",
          "midi": 52,
          "time": 130.6976744185875,
          "velocity": 0.5118110236220472,
          "duration": 0.034883720930224626
        },
        {
          "name": "F3",
          "midi": 53,
          "time": 130.73255813951772,
          "velocity": 0.5354330708661418,
          "duration": 0.011627906976741542
        },
        {
          "name": "F#7",
          "midi": 102,
          "time": 130.73255813951772,
          "velocity": 0.1968503937007874,
          "duration": 0.2558139534883139
        },
        {
          "name": "E3",
          "midi": 52,
          "time": 130.74418604649446,
          "velocity": 0.5511811023622047,
          "duration": 0.011627906976741542
        },
        {
          "name": "F3",
          "midi": 53,
          "time": 130.7558139534712,
          "velocity": 0.5433070866141733,
          "duration": 0.011627906976741542
        },
        {
          "name": "A4",
          "midi": 69,
          "time": 130.7558139534712,
          "velocity": 0.11811023622047244,
          "duration": 0.05813953488370771
        },
        {
          "name": "E3",
          "midi": 52,
          "time": 130.76744186044795,
          "velocity": 0.5590551181102362,
          "duration": 0.023255813953483084
        },
        {
          "name": "C3",
          "midi": 48,
          "time": 130.79069767440143,
          "velocity": 0.5433070866141733,
          "duration": 0.023255813953483084
        },
        {
          "name": "F3",
          "midi": 53,
          "time": 130.79069767440143,
          "velocity": 0.5275590551181102,
          "duration": 0.011627906976741542
        },
        {
          "name": "B3",
          "midi": 59,
          "time": 130.80232558137817,
          "velocity": 0.16535433070866143,
          "duration": 0.04651162790696617
        },
        {
          "name": "B2",
          "midi": 47,
          "time": 130.8139534883549,
          "velocity": 0.5669291338582677,
          "duration": 0.023255813953483084
        },
        {
          "name": "C#3",
          "midi": 49,
          "time": 130.8372093023084,
          "velocity": 0.5511811023622047,
          "duration": 0.011627906976741542
        },
        {
          "name": "F2",
          "midi": 41,
          "time": 130.84883720928514,
          "velocity": 0.5433070866141733,
          "duration": 0.011627906976741542
        },
        {
          "name": "B2",
          "midi": 47,
          "time": 130.84883720928514,
          "velocity": 0.5433070866141733,
          "duration": 0.023255813953483084
        },
        {
          "name": "G4",
          "midi": 67,
          "time": 130.84883720928514,
          "velocity": 0.4409448818897638,
          "duration": 0.3023255813952801
        },
        {
          "name": "F#5",
          "midi": 78,
          "time": 130.84883720928514,
          "velocity": 0.33858267716535434,
          "duration": 0.04651162790696617
        },
        {
          "name": "A5",
          "midi": 81,
          "time": 130.84883720928514,
          "velocity": 0.08661417322834646,
          "duration": 0.04651162790696617
        },
        {
          "name": "G6",
          "midi": 91,
          "time": 130.84883720928514,
          "velocity": 0.16535433070866143,
          "duration": 0.2558139534883139
        },
        {
          "name": "E2",
          "midi": 40,
          "time": 130.86046511626188,
          "velocity": 0.5196850393700787,
          "duration": 0.011627906976741542
        },
        {
          "name": "A2",
          "midi": 45,
          "time": 130.87209302323862,
          "velocity": 0.5590551181102362,
          "duration": 0.011627906976741542
        },
        {
          "name": "D#6",
          "midi": 87,
          "time": 130.87209302323862,
          "velocity": 0.15748031496062992,
          "duration": 0.05813953488370771
        },
        {
          "name": "C#7",
          "midi": 97,
          "time": 130.87209302323862,
          "velocity": 0.2204724409448819,
          "duration": 0.10465116279067388
        },
        {
          "name": "F2",
          "midi": 41,
          "time": 130.88372093021536,
          "velocity": 0.5433070866141733,
          "duration": 0.011627906976741542
        },
        {
          "name": "B2",
          "midi": 47,
          "time": 130.88372093021536,
          "velocity": 0.5118110236220472,
          "duration": 0.011627906976741542
        },
        {
          "name": "E2",
          "midi": 40,
          "time": 130.8953488371921,
          "velocity": 0.5511811023622047,
          "duration": 0.034883720930224626
        },
        {
          "name": "B3",
          "midi": 59,
          "time": 130.8953488371921,
          "velocity": 0.3543307086614173,
          "duration": 0.1627906976743816
        },
        {
          "name": "A6",
          "midi": 93,
          "time": 130.8953488371921,
          "velocity": 0.2125984251968504,
          "duration": 0.24418604651157239
        },
        {
          "name": "G#6",
          "midi": 92,
          "time": 130.90697674416884,
          "velocity": 0.11811023622047244,
          "duration": 0.09302325581393234
        },
        {
          "name": "C7",
          "midi": 96,
          "time": 130.93023255812233,
          "velocity": 0.08661417322834646,
          "duration": 0.0813953488371908
        },
        {
          "name": "E2",
          "midi": 40,
          "time": 130.96511627905255,
          "velocity": 0.41732283464566927,
          "duration": 0.034883720930224626
        },
        {
          "name": "E3",
          "midi": 52,
          "time": 130.9767441860293,
          "velocity": 0.41732283464566927,
          "duration": 0.023255813953483084
        },
        {
          "name": "C#7",
          "midi": 97,
          "time": 130.98837209300603,
          "velocity": 0.29133858267716534,
          "duration": 0.2558139534883139
        },
        {
          "name": "F7",
          "midi": 101,
          "time": 130.98837209300603,
          "velocity": 0.11023622047244094,
          "duration": 0.05813953488370771
        },
        {
          "name": "F3",
          "midi": 53,
          "time": 130.99999999998278,
          "velocity": 0.3543307086614173,
          "duration": 0.023255813953483084
        },
        {
          "name": "D#7",
          "midi": 99,
          "time": 130.99999999998278,
          "velocity": 0.28346456692913385,
          "duration": 0.24418604651157239
        },
        {
          "name": "F#2",
          "midi": 42,
          "time": 131.01162790695952,
          "velocity": 0.4409448818897638,
          "duration": 0.034883720930224626
        },
        {
          "name": "F#5",
          "midi": 78,
          "time": 131.01162790695952,
          "velocity": 0.29133858267716534,
          "duration": 0.06976744186044925
        },
        {
          "name": "G#6",
          "midi": 92,
          "time": 131.04651162788974,
          "velocity": 0.09448818897637795,
          "duration": 0.034883720930224626
        },
        {
          "name": "C7",
          "midi": 96,
          "time": 131.04651162788974,
          "velocity": 0.1732283464566929,
          "duration": 0.04651162790696617
        },
        {
          "name": "C4",
          "midi": 60,
          "time": 131.05813953486648,
          "velocity": 0.4645669291338583,
          "duration": 0.04651162790696617
        },
        {
          "name": "A#4",
          "midi": 70,
          "time": 131.05813953486648,
          "velocity": 0.30708661417322836,
          "duration": 0.023255813953483084
        },
        {
          "name": "E5",
          "midi": 76,
          "time": 131.05813953486648,
          "velocity": 0.25984251968503935,
          "duration": 0.04651162790696617
        },
        {
          "name": "A5",
          "midi": 81,
          "time": 131.05813953486648,
          "velocity": 0.2992125984251969,
          "duration": 0.279069767441797
        },
        {
          "name": "D#6",
          "midi": 87,
          "time": 131.05813953486648,
          "velocity": 0.2283464566929134,
          "duration": 0.12790697674415696
        },
        {
          "name": "E7",
          "midi": 100,
          "time": 131.05813953486648,
          "velocity": 0.41732283464566927,
          "duration": 0.5930232558138187
        },
        {
          "name": "F#2",
          "midi": 42,
          "time": 131.06976744184323,
          "velocity": 0.5511811023622047,
          "duration": 0.023255813953483084
        },
        {
          "name": "C#5",
          "midi": 73,
          "time": 131.06976744184323,
          "velocity": 0.31496062992125984,
          "duration": 0.023255813953483084
        },
        {
          "name": "B4",
          "midi": 71,
          "time": 131.08139534881997,
          "velocity": 0.3858267716535433,
          "duration": 0.9534883720928065
        },
        {
          "name": "F#7",
          "midi": 102,
          "time": 131.08139534881997,
          "velocity": 0.2283464566929134,
          "duration": 0.2558139534883139
        },
        {
          "name": "F2",
          "midi": 41,
          "time": 131.0930232557967,
          "velocity": 0.5748031496062992,
          "duration": 0.034883720930224626
        },
        {
          "name": "D5",
          "midi": 74,
          "time": 131.0930232557967,
          "velocity": 0.2677165354330709,
          "duration": 0.18604651162786467
        },
        {
          "name": "E6",
          "midi": 88,
          "time": 131.0930232557967,
          "velocity": 0.31496062992125984,
          "duration": 0.2558139534883139
        },
        {
          "name": "A3",
          "midi": 57,
          "time": 131.10465116277345,
          "velocity": 0.28346456692913385,
          "duration": 0.034883720930224626
        },
        {
          "name": "G#6",
          "midi": 92,
          "time": 131.10465116277345,
          "velocity": 0.1732283464566929,
          "duration": 0.04651162790696617
        },
        {
          "name": "F7",
          "midi": 101,
          "time": 131.10465116277345,
          "velocity": 0.1732283464566929,
          "duration": 0.10465116279067388
        },
        {
          "name": "E3",
          "midi": 52,
          "time": 131.1162790697502,
          "velocity": 0.36220472440944884,
          "duration": 0.10465116279067388
        },
        {
          "name": "F#5",
          "midi": 78,
          "time": 131.12790697672693,
          "velocity": 0.1732283464566929,
          "duration": 0.05813953488370771
        },
        {
          "name": "A#6",
          "midi": 94,
          "time": 131.12790697672693,
          "velocity": 0.15748031496062992,
          "duration": 0.09302325581393234
        },
        {
          "name": "G7",
          "midi": 103,
          "time": 131.12790697672693,
          "velocity": 0.2047244094488189,
          "duration": 0.0813953488371908
        },
        {
          "name": "E2",
          "midi": 40,
          "time": 131.15116279068042,
          "velocity": 0.3228346456692913,
          "duration": 0.023255813953483084
        },
        {
          "name": "A#3",
          "midi": 58,
          "time": 131.16279069765716,
          "velocity": 0.30708661417322836,
          "duration": 0.05813953488370771
        },
        {
          "name": "E5",
          "midi": 76,
          "time": 131.16279069765716,
          "velocity": 0.4094488188976378,
          "duration": 0.3604651162789878
        },
        {
          "name": "F2",
          "midi": 41,
          "time": 131.1744186046339,
          "velocity": 0.30708661417322836,
          "duration": 0.034883720930224626
        },
        {
          "name": "G5",
          "midi": 79,
          "time": 131.18604651161064,
          "velocity": 0.15748031496062992,
          "duration": 0.05813953488370771
        },
        {
          "name": "B6",
          "midi": 95,
          "time": 131.18604651161064,
          "velocity": 0.1889763779527559,
          "duration": 0.09302325581393234
        },
        {
          "name": "A4",
          "midi": 69,
          "time": 131.19767441858738,
          "velocity": 0.2047244094488189,
          "duration": 0.034883720930224626
        },
        {
          "name": "E2",
          "midi": 40,
          "time": 131.20930232556412,
          "velocity": 0.29133858267716534,
          "duration": 0.04651162790696617
        },
        {
          "name": "G#6",
          "midi": 92,
          "time": 131.20930232556412,
          "velocity": 0.09448818897637795,
          "duration": 0.04651162790696617
        },
        {
          "name": "F#6",
          "midi": 90,
          "time": 131.22093023254087,
          "velocity": 0.10236220472440945,
          "duration": 0.1395348837208985
        },
        {
          "name": "C7",
          "midi": 96,
          "time": 131.22093023254087,
          "velocity": 0.2047244094488189,
          "duration": 0.034883720930224626
        },
        {
          "name": "D#3",
          "midi": 51,
          "time": 131.2325581395176,
          "velocity": 0.2677165354330709,
          "duration": 0.034883720930224626
        },
        {
          "name": "B3",
          "midi": 59,
          "time": 131.2325581395176,
          "velocity": 0.23622047244094488,
          "duration": 0.023255813953483084
        },
        {
          "name": "A#6",
          "midi": 94,
          "time": 131.24418604649435,
          "velocity": 0.11023622047244094,
          "duration": 0.034883720930224626
        },
        {
          "name": "F7",
          "midi": 101,
          "time": 131.24418604649435,
          "velocity": 0.1732283464566929,
          "duration": 0.26744186046505547
        },
        {
          "name": "G4",
          "midi": 67,
          "time": 131.2558139534711,
          "velocity": 0.29133858267716534,
          "duration": 0.034883720930224626
        },
        {
          "name": "C#7",
          "midi": 97,
          "time": 131.2558139534711,
          "velocity": 0.23622047244094488,
          "duration": 0.3023255813952801
        },
        {
          "name": "D#7",
          "midi": 99,
          "time": 131.2558139534711,
          "velocity": 0.11811023622047244,
          "duration": 0.15116279069764005
        },
        {
          "name": "F#5",
          "midi": 78,
          "time": 131.26744186044783,
          "velocity": 0.30708661417322836,
          "duration": 0.0813953488371908
        },
        {
          "name": "G#5",
          "midi": 80,
          "time": 131.26744186044783,
          "velocity": 0.1732283464566929,
          "duration": 0.034883720930224626
        },
        {
          "name": "C2",
          "midi": 36,
          "time": 131.27906976742457,
          "velocity": 0.5275590551181102,
          "duration": 0.011627906976741542
        },
        {
          "name": "C4",
          "midi": 60,
          "time": 131.27906976742457,
          "velocity": 0.2440944881889764,
          "duration": 0.023255813953483084
        },
        {
          "name": "G6",
          "midi": 91,
          "time": 131.27906976742457,
          "velocity": 0.13385826771653545,
          "duration": 0.0813953488371908
        },
        {
          "name": "B6",
          "midi": 95,
          "time": 131.29069767440131,
          "velocity": 0.1968503937007874,
          "duration": 0.1627906976743816
        },
        {
          "name": "C7",
          "midi": 96,
          "time": 131.29069767440131,
          "velocity": 0.2204724409448819,
          "duration": 0.034883720930224626
        },
        {
          "name": "G4",
          "midi": 67,
          "time": 131.30232558137806,
          "velocity": 0.3543307086614173,
          "duration": 0.2209302325580893
        },
        {
          "name": "B3",
          "midi": 59,
          "time": 131.32558139533154,
          "velocity": 0.3700787401574803,
          "duration": 0.1395348837208985
        },
        {
          "name": "D#6",
          "midi": 87,
          "time": 131.32558139533154,
          "velocity": 0.14173228346456693,
          "duration": 0.1627906976743816
        },
        {
          "name": "C7",
          "midi": 96,
          "time": 131.33720930230828,
          "velocity": 0.07086614173228346,
          "duration": 0.034883720930224626
        },
        {
          "name": "A2",
          "midi": 45,
          "time": 131.36046511626176,
          "velocity": 0.3858267716535433,
          "duration": 0.023255813953483084
        },
        {
          "name": "F3",
          "midi": 53,
          "time": 131.3720930232385,
          "velocity": 0.3779527559055118,
          "duration": 0.04651162790696617
        },
        {
          "name": "D5",
          "midi": 74,
          "time": 131.3720930232385,
          "velocity": 0.2440944881889764,
          "duration": 0.1627906976743816
        },
        {
          "name": "A6",
          "midi": 93,
          "time": 131.3720930232385,
          "velocity": 0.10236220472440945,
          "duration": 0.034883720930224626
        },
        {
          "name": "F#7",
          "midi": 102,
          "time": 131.3720930232385,
          "velocity": 0.14960629921259844,
          "duration": 0.034883720930224626
        },
        {
          "name": "A5",
          "midi": 81,
          "time": 131.40697674416873,
          "velocity": 0.09448818897637795,
          "duration": 0.034883720930224626
        },
        {
          "name": "F2",
          "midi": 41,
          "time": 131.41860465114547,
          "velocity": 0.5196850393700787,
          "duration": 0.011627906976741542
        },
        {
          "name": "E2",
          "midi": 40,
          "time": 131.4302325581222,
          "velocity": 0.5039370078740157,
          "duration": 0.023255813953483084
        },
        {
          "name": "F#5",
          "midi": 78,
          "time": 131.4302325581222,
          "velocity": 0.13385826771653545,
          "duration": 0.034883720930224626
        },
        {
          "name": "D#7",
          "midi": 99,
          "time": 131.4302325581222,
          "velocity": 0.14173228346456693,
          "duration": 0.11627906976741542
        },
        {
          "name": "C7",
          "midi": 96,
          "time": 131.44186046509896,
          "velocity": 0.11811023622047244,
          "duration": 0.034883720930224626
        },
        {
          "name": "B2",
          "midi": 47,
          "time": 131.4534883720757,
          "velocity": 0.4094488188976378,
          "duration": 0.023255813953483084
        },
        {
          "name": "G#6",
          "midi": 92,
          "time": 131.4534883720757,
          "velocity": 0.07086614173228346,
          "duration": 0.034883720930224626
        },
        {
          "name": "G#3",
          "midi": 56,
          "time": 131.46511627905244,
          "velocity": 0.23622047244094488,
          "duration": 0.023255813953483084
        },
        {
          "name": "F#7",
          "midi": 102,
          "time": 131.47674418602918,
          "velocity": 0.13385826771653545,
          "duration": 0.05813953488370771
        },
        {
          "name": "F#2",
          "midi": 42,
          "time": 131.48837209300592,
          "velocity": 0.5826771653543307,
          "duration": 0.011627906976741542
        },
        {
          "name": "D#4",
          "midi": 63,
          "time": 131.48837209300592,
          "velocity": 0.25984251968503935,
          "duration": 0.023255813953483084
        },
        {
          "name": "B6",
          "midi": 95,
          "time": 131.48837209300592,
          "velocity": 0.4330708661417323,
          "duration": 0.8720930232556157
        },
        {
          "name": "G7",
          "midi": 103,
          "time": 131.48837209300592,
          "velocity": 0.14173228346456693,
          "duration": 0.10465116279067388
        },
        {
          "name": "G#2",
          "midi": 44,
          "time": 131.49999999998266,
          "velocity": 0.5748031496062992,
          "duration": 0.011627906976741542
        },
        {
          "name": "A6",
          "midi": 93,
          "time": 131.49999999998266,
          "velocity": 0.07086614173228346,
          "duration": 0.06976744186044925
        },
        {
          "name": "D3",
          "midi": 50,
          "time": 131.5116279069594,
          "velocity": 0.5511811023622047,
          "duration": 0.011627906976741542
        },
        {
          "name": "B3",
          "midi": 59,
          "time": 131.5116279069594,
          "velocity": 0.3858267716535433,
          "duration": 0.04651162790696617
        },
        {
          "name": "E4",
          "midi": 64,
          "time": 131.5116279069594,
          "velocity": 0.3937007874015748,
          "duration": 0.3023255813952801
        },
        {
          "name": "F#6",
          "midi": 90,
          "time": 131.5116279069594,
          "velocity": 0.11023622047244094,
          "duration": 0.04651162790696617
        },
        {
          "name": "G6",
          "midi": 91,
          "time": 131.5116279069594,
          "velocity": 0.14960629921259844,
          "duration": 0.10465116279067388
        },
        {
          "name": "E3",
          "midi": 52,
          "time": 131.52325581393615,
          "velocity": 0.5275590551181102,
          "duration": 0.0813953488371908
        },
        {
          "name": "G4",
          "midi": 67,
          "time": 131.5348837209129,
          "velocity": 0.25196850393700787,
          "duration": 0.023255813953483084
        },
        {
          "name": "F#7",
          "midi": 102,
          "time": 131.54651162788963,
          "velocity": 0.2125984251968504,
          "duration": 0.7209302325579756
        },
        {
          "name": "F2",
          "midi": 41,
          "time": 131.55813953486637,
          "velocity": 0.48031496062992124,
          "duration": 0.023255813953483084
        },
        {
          "name": "G5",
          "midi": 79,
          "time": 131.55813953486637,
          "velocity": 0.09448818897637795,
          "duration": 0.06976744186044925
        },
        {
          "name": "B3",
          "midi": 59,
          "time": 131.5697674418431,
          "velocity": 0.3700787401574803,
          "duration": 0.04651162790696617
        },
        {
          "name": "D6",
          "midi": 86,
          "time": 131.5697674418431,
          "velocity": 0.11811023622047244,
          "duration": 0.05813953488370771
        },
        {
          "name": "F3",
          "midi": 53,
          "time": 131.60465116277334,
          "velocity": 0.5039370078740157,
          "duration": 0.023255813953483084
        },
        {
          "name": "G#4",
          "midi": 68,
          "time": 131.60465116277334,
          "velocity": 0.1968503937007874,
          "duration": 0.05813953488370771
        },
        {
          "name": "F#6",
          "midi": 90,
          "time": 131.60465116277334,
          "velocity": 0.08661417322834646,
          "duration": 0.04651162790696617
        },
        {
          "name": "D#7",
          "midi": 99,
          "time": 131.61627906975008,
          "velocity": 0.1968503937007874,
          "duration": 0.05813953488370771
        },
        {
          "name": "D3",
          "midi": 50,
          "time": 131.62790697672682,
          "velocity": 0.36220472440944884,
          "duration": 0.023255813953483084
        },
        {
          "name": "B3",
          "midi": 59,
          "time": 131.62790697672682,
          "velocity": 0.2283464566929134,
          "duration": 0.034883720930224626
        },
        {
          "name": "F#5",
          "midi": 78,
          "time": 131.62790697672682,
          "velocity": 0.10236220472440945,
          "duration": 0.034883720930224626
        },
        {
          "name": "E3",
          "midi": 52,
          "time": 131.6511627906803,
          "velocity": 0.2992125984251969,
          "duration": 0.023255813953483084
        },
        {
          "name": "G5",
          "midi": 79,
          "time": 131.6744186046338,
          "velocity": 0.09448818897637795,
          "duration": 0.034883720930224626
        },
        {
          "name": "F#6",
          "midi": 90,
          "time": 131.6744186046338,
          "velocity": 0.2047244094488189,
          "duration": 0.37209302325572935
        },
        {
          "name": "A4",
          "midi": 69,
          "time": 131.68604651161053,
          "velocity": 0.2283464566929134,
          "duration": 0.034883720930224626
        },
        {
          "name": "G#3",
          "midi": 56,
          "time": 131.69767441858727,
          "velocity": 0.2677165354330709,
          "duration": 0.023255813953483084
        },
        {
          "name": "C2",
          "midi": 36,
          "time": 131.709302325564,
          "velocity": 0.5275590551181102,
          "duration": 0.011627906976741542
        },
        {
          "name": "G4",
          "midi": 67,
          "time": 131.709302325564,
          "velocity": 0.5039370078740157,
          "duration": 0.2558139534883139
        },
        {
          "name": "G6",
          "midi": 91,
          "time": 131.709302325564,
          "velocity": 0.07874015748031496,
          "duration": 0.034883720930224626
        },
        {
          "name": "C#7",
          "midi": 97,
          "time": 131.709302325564,
          "velocity": 0.15748031496062992,
          "duration": 0.034883720930224626
        },
        {
          "name": "G#2",
          "midi": 44,
          "time": 131.72093023254075,
          "velocity": 0.4015748031496063,
          "duration": 0.023255813953483084
        },
        {
          "name": "F#2",
          "midi": 42,
          "time": 131.74418604649424,
          "velocity": 0.49606299212598426,
          "duration": 0.023255813953483084
        },
        {
          "name": "E3",
          "midi": 52,
          "time": 131.74418604649424,
          "velocity": 0.4409448818897638,
          "duration": 0.023255813953483084
        },
        {
          "name": "B3",
          "midi": 59,
          "time": 131.74418604649424,
          "velocity": 0.3228346456692913,
          "duration": 0.034883720930224626
        },
        {
          "name": "F#5",
          "midi": 78,
          "time": 131.74418604649424,
          "velocity": 0.33070866141732286,
          "duration": 0.2558139534883139
        },
        {
          "name": "D#7",
          "midi": 99,
          "time": 131.75581395347098,
          "velocity": 0.11023622047244094,
          "duration": 0.04651162790696617
        },
        {
          "name": "E3",
          "midi": 52,
          "time": 131.77906976742446,
          "velocity": 0.5511811023622047,
          "duration": 0.06976744186044925
        },
        {
          "name": "G6",
          "midi": 91,
          "time": 131.77906976742446,
          "velocity": 0.11023622047244094,
          "duration": 0.04651162790696617
        },
        {
          "name": "B3",
          "midi": 59,
          "time": 131.81395348835468,
          "velocity": 0.3228346456692913,
          "duration": 0.0813953488371908
        },
        {
          "name": "F3",
          "midi": 53,
          "time": 131.8488372092849,
          "velocity": 0.5196850393700787,
          "duration": 0.011627906976741542
        },
        {
          "name": "E3",
          "midi": 52,
          "time": 131.86046511626165,
          "velocity": 0.49606299212598426,
          "duration": 0.023255813953483084
        },
        {
          "name": "E2",
          "midi": 40,
          "time": 131.88372093021513,
          "velocity": 0.5511811023622047,
          "duration": 0.023255813953483084
        },
        {
          "name": "D5",
          "midi": 74,
          "time": 131.89534883719188,
          "velocity": 0.4094488188976378,
          "duration": 0.034883720930224626
        },
        {
          "name": "G#2",
          "midi": 44,
          "time": 131.90697674416862,
          "velocity": 0.5354330708661418,
          "duration": 0.011627906976741542
        },
        {
          "name": "D7",
          "midi": 98,
          "time": 131.90697674416862,
          "velocity": 0.2047244094488189,
          "duration": 0.1395348837208985
        },
        {
          "name": "F7",
          "midi": 101,
          "time": 131.90697674416862,
          "velocity": 0.14173228346456693,
          "duration": 0.24418604651157239
        },
        {
          "name": "A#3",
          "midi": 58,
          "time": 131.91860465114536,
          "velocity": 0.49606299212598426,
          "duration": 0.034883720930224626
        },
        {
          "name": "G#5",
          "midi": 80,
          "time": 131.91860465114536,
          "velocity": 0.15748031496062992,
          "duration": 0.034883720930224626
        },
        {
          "name": "A5",
          "midi": 81,
          "time": 131.91860465114536,
          "velocity": 0.28346456692913385,
          "duration": 0.3255813953487632
        },
        {
          "name": "C#5",
          "midi": 73,
          "time": 131.9302325581221,
          "velocity": 0.3464566929133858,
          "duration": 0.034883720930224626
        },
        {
          "name": "D6",
          "midi": 86,
          "time": 131.9302325581221,
          "velocity": 0.25984251968503935,
          "duration": 0.2558139534883139
        },
        {
          "name": "C7",
          "midi": 96,
          "time": 131.9302325581221,
          "velocity": 0.07086614173228346,
          "duration": 0.04651162790696617
        },
        {
          "name": "C#7",
          "midi": 97,
          "time": 131.9302325581221,
          "velocity": 0.2283464566929134,
          "duration": 0.26744186046505547
        },
        {
          "name": "D#7",
          "midi": 99,
          "time": 131.9302325581221,
          "velocity": 0.16535433070866143,
          "duration": 0.23255813953483084
        },
        {
          "name": "G6",
          "midi": 91,
          "time": 131.94186046509884,
          "velocity": 0.12598425196850394,
          "duration": 0.034883720930224626
        },
        {
          "name": "G3",
          "midi": 55,
          "time": 131.95348837207558,
          "velocity": 0.23622047244094488,
          "duration": 0.023255813953483084
        },
        {
          "name": "D#6",
          "midi": 87,
          "time": 131.95348837207558,
          "velocity": 0.16535433070866143,
          "duration": 0.17441860465112313
        },
        {
          "name": "F#2",
          "midi": 42,
          "time": 131.96511627905232,
          "velocity": 0.44881889763779526,
          "duration": 0.023255813953483084
        },
        {
          "name": "F#4",
          "midi": 66,
          "time": 131.96511627905232,
          "velocity": 0.25196850393700787,
          "duration": 0.023255813953483084
        },
        {
          "name": "A3",
          "midi": 57,
          "time": 131.97674418602907,
          "velocity": 0.33858267716535434,
          "duration": 0.023255813953483084
        },
        {
          "name": "G7",
          "midi": 103,
          "time": 131.97674418602907,
          "velocity": 0.10236220472440945,
          "duration": 0.04651162790696617
        },
        {
          "name": "F4",
          "midi": 65,
          "time": 131.9883720930058,
          "velocity": 0.2677165354330709,
          "duration": 0.06976744186044925
        },
        {
          "name": "D5",
          "midi": 74,
          "time": 131.9883720930058,
          "velocity": 0.25196850393700787,
          "duration": 0.11627906976741542
        },
        {
          "name": "B3",
          "midi": 59,
          "time": 131.99999999998255,
          "velocity": 0.3464566929133858,
          "duration": 0.034883720930224626
        },
        {
          "name": "F3",
          "midi": 53,
          "time": 132.0116279069593,
          "velocity": 0.33070866141732286,
          "duration": 0.023255813953483084
        },
        {
          "name": "E5",
          "midi": 76,
          "time": 132.0116279069593,
          "velocity": 0.11811023622047244,
          "duration": 0.04651162790696617
        },
        {
          "name": "G6",
          "midi": 91,
          "time": 132.03488372091277,
          "velocity": 0.1732283464566929,
          "duration": 0.23255813953483084
        },
        {
          "name": "F3",
          "midi": 53,
          "time": 132.04651162788952,
          "velocity": 0.3937007874015748,
          "duration": 0.04651162790696617
        },
        {
          "name": "A4",
          "midi": 69,
          "time": 132.04651162788952,
          "velocity": 0.11811023622047244,
          "duration": 0.034883720930224626
        },
        {
          "name": "F#5",
          "midi": 78,
          "time": 132.04651162788952,
          "velocity": 0.09448818897637795,
          "duration": 0.034883720930224626
        },
        {
          "name": "E4",
          "midi": 64,
          "time": 132.05813953486626,
          "velocity": 0.2204724409448819,
          "duration": 0.04651162790696617
        },
        {
          "name": "E6",
          "midi": 88,
          "time": 132.05813953486626,
          "velocity": 0.11023622047244094,
          "duration": 0.034883720930224626
        },
        {
          "name": "C4",
          "midi": 60,
          "time": 132.069767441843,
          "velocity": 0.23622047244094488,
          "duration": 0.023255813953483084
        },
        {
          "name": "B4",
          "midi": 71,
          "time": 132.069767441843,
          "velocity": 0.13385826771653545,
          "duration": 0.034883720930224626
        },
        {
          "name": "E2",
          "midi": 40,
          "time": 132.08139534881974,
          "velocity": 0.4645669291338583,
          "duration": 0.034883720930224626
        },
        {
          "name": "B3",
          "midi": 59,
          "time": 132.09302325579648,
          "velocity": 0.25984251968503935,
          "duration": 0.023255813953483084
        },
        {
          "name": "G#4",
          "midi": 68,
          "time": 132.09302325579648,
          "velocity": 0.13385826771653545,
          "duration": 0.034883720930224626
        },
        {
          "name": "B5",
          "midi": 83,
          "time": 132.09302325579648,
          "velocity": 0.2283464566929134,
          "duration": 0.29069767441853855
        },
        {
          "name": "B4",
          "midi": 71,
          "time": 132.11627906974996,
          "velocity": 0.33070866141732286,
          "duration": 0.6511627906975264
        },
        {
          "name": "F#4",
          "midi": 66,
          "time": 132.1279069767267,
          "velocity": 0.25984251968503935,
          "duration": 0.023255813953483084
        },
        {
          "name": "F#5",
          "midi": 78,
          "time": 132.1279069767267,
          "velocity": 0.2992125984251969,
          "duration": 0.0813953488371908
        },
        {
          "name": "E7",
          "midi": 100,
          "time": 132.1279069767267,
          "velocity": 0.11811023622047244,
          "duration": 0.04651162790696617
        },
        {
          "name": "B2",
          "midi": 47,
          "time": 132.13953488370345,
          "velocity": 0.5433070866141733,
          "duration": 0.011627906976741542
        },
        {
          "name": "D3",
          "midi": 50,
          "time": 132.1511627906802,
          "velocity": 0.5905511811023622,
          "duration": 0.011627906976741542
        },
        {
          "name": "B3",
          "midi": 59,
          "time": 132.1511627906802,
          "velocity": 0.44881889763779526,
          "duration": 0.17441860465112313
        },
        {
          "name": "E4",
          "midi": 64,
          "time": 132.1511627906802,
          "velocity": 0.2125984251968504,
          "duration": 0.05813953488370771
        },
        {
          "name": "G4",
          "midi": 67,
          "time": 132.1511627906802,
          "velocity": 0.3700787401574803,
          "duration": 0.20930232558134776
        },
        {
          "name": "E3",
          "midi": 52,
          "time": 132.16279069765693,
          "velocity": 0.6062992125984252,
          "duration": 0.10465116279067388
        },
        {
          "name": "D#7",
          "midi": 99,
          "time": 132.17441860463367,
          "velocity": 0.14173228346456693,
          "duration": 0.10465116279067388
        },
        {
          "name": "F2",
          "midi": 41,
          "time": 132.19767441858716,
          "velocity": 0.5433070866141733,
          "duration": 0.023255813953483084
        },
        {
          "name": "E2",
          "midi": 40,
          "time": 132.22093023254064,
          "velocity": 0.5354330708661418,
          "duration": 0.011627906976741542
        },
        {
          "name": "C7",
          "midi": 96,
          "time": 132.22093023254064,
          "velocity": 0.13385826771653545,
          "duration": 0.034883720930224626
        },
        {
          "name": "G2",
          "midi": 43,
          "time": 132.23255813951738,
          "velocity": 0.5118110236220472,
          "duration": 0.011627906976741542
        },
        {
          "name": "A#6",
          "midi": 94,
          "time": 132.23255813951738,
          "velocity": 0.25984251968503935,
          "duration": 0.09302325581393234
        },
        {
          "name": "F7",
          "midi": 101,
          "time": 132.23255813951738,
          "velocity": 0.1732283464566929,
          "duration": 0.10465116279067388
        },
        {
          "name": "C3",
          "midi": 48,
          "time": 132.24418604649412,
          "velocity": 0.4881889763779528,
          "duration": 0.023255813953483084
        },
        {
          "name": "A#5",
          "midi": 82,
          "time": 132.27906976742435,
          "velocity": 0.11023622047244094,
          "duration": 0.04651162790696617
        },
        {
          "name": "D6",
          "midi": 86,
          "time": 132.27906976742435,
          "velocity": 0.08661417322834646,
          "duration": 0.04651162790696617
        },
        {
          "name": "D5",
          "midi": 74,
          "time": 132.2906976744011,
          "velocity": 0.09448818897637795,
          "duration": 0.034883720930224626
        },
        {
          "name": "F#6",
          "midi": 90,
          "time": 132.2906976744011,
          "velocity": 0.11023622047244094,
          "duration": 0.15116279069764005
        },
        {
          "name": "E3",
          "midi": 52,
          "time": 132.30232558137783,
          "velocity": 0.30708661417322836,
          "duration": 0.034883720930224626
        },
        {
          "name": "F2",
          "midi": 41,
          "time": 132.31395348835457,
          "velocity": 0.28346456692913385,
          "duration": 0.023255813953483084
        },
        {
          "name": "A6",
          "midi": 93,
          "time": 132.3255813953313,
          "velocity": 0.23622047244094488,
          "duration": 0.09302325581393234
        },
        {
          "name": "E7",
          "midi": 100,
          "time": 132.3255813953313,
          "velocity": 0.14960629921259844,
          "duration": 0.0813953488371908
        },
        {
          "name": "C3",
          "midi": 48,
          "time": 132.33720930230805,
          "velocity": 0.5590551181102362,
          "duration": 0.034883720930224626
        },
        {
          "name": "D5",
          "midi": 74,
          "time": 132.33720930230805,
          "velocity": 0.15748031496062992,
          "duration": 0.05813953488370771
        },
        {
          "name": "E4",
          "midi": 64,
          "time": 132.3488372092848,
          "velocity": 0.25196850393700787,
          "duration": 0.09302325581393234
        },
        {
          "name": "F#5",
          "midi": 78,
          "time": 132.3488372092848,
          "velocity": 0.3228346456692913,
          "duration": 0.23255813953483084
        },
        {
          "name": "D7",
          "midi": 98,
          "time": 132.3488372092848,
          "velocity": 0.15748031496062992,
          "duration": 0.0813953488371908
        },
        {
          "name": "B3",
          "midi": 59,
          "time": 132.36046511626154,
          "velocity": 0.3937007874015748,
          "duration": 0.05813953488370771
        },
        {
          "name": "G6",
          "midi": 91,
          "time": 132.36046511626154,
          "velocity": 0.09448818897637795,
          "duration": 0.034883720930224626
        },
        {
          "name": "C#7",
          "midi": 97,
          "time": 132.36046511626154,
          "velocity": 0.2047244094488189,
          "duration": 0.05813953488370771
        },
        {
          "name": "D3",
          "midi": 50,
          "time": 132.37209302323828,
          "velocity": 0.5196850393700787,
          "duration": 0.011627906976741542
        },
        {
          "name": "B6",
          "midi": 95,
          "time": 132.37209302323828,
          "velocity": 0.2677165354330709,
          "duration": 0.1627906976743816
        },
        {
          "name": "E3",
          "midi": 52,
          "time": 132.38372093021502,
          "velocity": 0.5511811023622047,
          "duration": 0.09302325581393234
        },
        {
          "name": "G7",
          "midi": 103,
          "time": 132.39534883719176,
          "velocity": 0.07874015748031496,
          "duration": 0.04651162790696617
        },
        {
          "name": "F2",
          "midi": 41,
          "time": 132.4069767441685,
          "velocity": 0.4881889763779528,
          "duration": 0.023255813953483084
        },
        {
          "name": "G#4",
          "midi": 68,
          "time": 132.4069767441685,
          "velocity": 0.1732283464566929,
          "duration": 0.10465116279067388
        },
        {
          "name": "B3",
          "midi": 59,
          "time": 132.430232558122,
          "velocity": 0.3464566929133858,
          "duration": 0.05813953488370771
        },
        {
          "name": "F2",
          "midi": 41,
          "time": 132.44186046509873,
          "velocity": 0.47244094488188976,
          "duration": 0.023255813953483084
        },
        {
          "name": "D#7",
          "midi": 99,
          "time": 132.45348837207547,
          "velocity": 0.11811023622047244,
          "duration": 0.0813953488371908
        },
        {
          "name": "B2",
          "midi": 47,
          "time": 132.4651162790522,
          "velocity": 0.5118110236220472,
          "duration": 0.011627906976741542
        },
        {
          "name": "D#3",
          "midi": 51,
          "time": 132.47674418602895,
          "velocity": 0.5511811023622047,
          "duration": 0.011627906976741542
        },
        {
          "name": "E3",
          "midi": 52,
          "time": 132.4883720930057,
          "velocity": 0.5669291338582677,
          "duration": 0.023255813953483084
        },
        {
          "name": "G6",
          "midi": 91,
          "time": 132.49999999998244,
          "velocity": 0.07874015748031496,
          "duration": 0.034883720930224626
        },
        {
          "name": "C3",
          "midi": 48,
          "time": 132.51162790695918,
          "velocity": 0.5433070866141733,
          "duration": 0.023255813953483084
        },
        {
          "name": "F3",
          "midi": 53,
          "time": 132.51162790695918,
          "velocity": 0.5354330708661418,
          "duration": 0.011627906976741542
        },
        {
          "name": "B3",
          "midi": 59,
          "time": 132.51162790695918,
          "velocity": 0.1968503937007874,
          "duration": 0.05813953488370771
        },
        {
          "name": "G4",
          "midi": 67,
          "time": 132.51162790695918,
          "velocity": 0.2283464566929134,
          "duration": 0.023255813953483084
        },
        {
          "name": "E6",
          "midi": 88,
          "time": 132.51162790695918,
          "velocity": 0.10236220472440945,
          "duration": 0.1395348837208985
        },
        {
          "name": "B2",
          "midi": 47,
          "time": 132.53488372091266,
          "velocity": 0.5511811023622047,
          "duration": 0.04651162790696617
        },
        {
          "name": "G4",
          "midi": 67,
          "time": 132.55813953486614,
          "velocity": 0.3228346456692913,
          "duration": 0.06976744186044925
        },
        {
          "name": "B6",
          "midi": 95,
          "time": 132.55813953486614,
          "velocity": 0.2283464566929134,
          "duration": 0.19767441860460622
        },
        {
          "name": "F2",
          "midi": 41,
          "time": 132.56976744184288,
          "velocity": 0.5433070866141733,
          "duration": 0.011627906976741542
        },
        {
          "name": "E5",
          "midi": 76,
          "time": 132.56976744184288,
          "velocity": 0.18110236220472442,
          "duration": 0.11627906976741542
        },
        {
          "name": "C#7",
          "midi": 97,
          "time": 132.56976744184288,
          "velocity": 0.2992125984251969,
          "duration": 0.7209302325579756
        },
        {
          "name": "D7",
          "midi": 98,
          "time": 132.56976744184288,
          "velocity": 0.18110236220472442,
          "duration": 0.11627906976741542
        },
        {
          "name": "D#7",
          "midi": 99,
          "time": 132.56976744184288,
          "velocity": 0.08661417322834646,
          "duration": 0.10465116279067388
        },
        {
          "name": "D3",
          "midi": 50,
          "time": 132.58139534881963,
          "velocity": 0.5826771653543307,
          "duration": 0.011627906976741542
        },
        {
          "name": "G5",
          "midi": 79,
          "time": 132.58139534881963,
          "velocity": 0.3543307086614173,
          "duration": 0.1395348837208985
        },
        {
          "name": "F#2",
          "midi": 42,
          "time": 132.59302325579637,
          "velocity": 0.5826771653543307,
          "duration": 0.011627906976741542
        },
        {
          "name": "E4",
          "midi": 64,
          "time": 132.59302325579637,
          "velocity": 0.15748031496062992,
          "duration": 0.034883720930224626
        },
        {
          "name": "E2",
          "midi": 40,
          "time": 132.6046511627731,
          "velocity": 0.5511811023622047,
          "duration": 0.034883720930224626
        },
        {
          "name": "F3",
          "midi": 53,
          "time": 132.6046511627731,
          "velocity": 0.4094488188976378,
          "duration": 0.023255813953483084
        },
        {
          "name": "A#3",
          "midi": 58,
          "time": 132.6046511627731,
          "velocity": 0.28346456692913385,
          "duration": 0.023255813953483084
        },
        {
          "name": "D6",
          "midi": 86,
          "time": 132.6046511627731,
          "velocity": 0.14173228346456693,
          "duration": 0.1395348837208985
        },
        {
          "name": "D#6",
          "midi": 87,
          "time": 132.6046511627731,
          "velocity": 0.09448818897637795,
          "duration": 0.17441860465112313
        },
        {
          "name": "B2",
          "midi": 47,
          "time": 132.6279069767266,
          "velocity": 0.5275590551181102,
          "duration": 0.011627906976741542
        },
        {
          "name": "F#4",
          "midi": 66,
          "time": 132.6279069767266,
          "velocity": 0.14960629921259844,
          "duration": 0.034883720930224626
        },
        {
          "name": "A2",
          "midi": 45,
          "time": 132.63953488370333,
          "velocity": 0.5590551181102362,
          "duration": 0.011627906976741542
        },
        {
          "name": "E3",
          "midi": 52,
          "time": 132.63953488370333,
          "velocity": 0.4409448818897638,
          "duration": 0.023255813953483084
        },
        {
          "name": "F2",
          "midi": 41,
          "time": 132.66279069765682,
          "velocity": 0.4094488188976378,
          "duration": 0.023255813953483084
        },
        {
          "name": "G4",
          "midi": 67,
          "time": 132.67441860463356,
          "velocity": 0.2125984251968504,
          "duration": 0.034883720930224626
        },
        {
          "name": "F7",
          "midi": 101,
          "time": 132.67441860463356,
          "velocity": 0.2755905511811024,
          "duration": 0.37209302325572935
        },
        {
          "name": "F#5",
          "midi": 78,
          "time": 132.6860465116103,
          "velocity": 0.1968503937007874,
          "duration": 0.0813953488371908
        },
        {
          "name": "E2",
          "midi": 40,
          "time": 132.69767441858704,
          "velocity": 0.5354330708661418,
          "duration": 0.011627906976741542
        },
        {
          "name": "D4",
          "midi": 62,
          "time": 132.69767441858704,
          "velocity": 0.16535433070866143,
          "duration": 0.04651162790696617
        },
        {
          "name": "D#7",
          "midi": 99,
          "time": 132.69767441858704,
          "velocity": 0.15748031496062992,
          "duration": 0.1627906976743816
        },
        {
          "name": "F2",
          "midi": 41,
          "time": 132.70930232556378,
          "velocity": 0.5354330708661418,
          "duration": 0.011627906976741542
        },
        {
          "name": "E2",
          "midi": 40,
          "time": 132.72093023254052,
          "velocity": 0.5039370078740157,
          "duration": 0.023255813953483084
        },
        {
          "name": "G#4",
          "midi": 68,
          "time": 132.72093023254052,
          "velocity": 0.1968503937007874,
          "duration": 0.04651162790696617
        },
        {
          "name": "D7",
          "midi": 98,
          "time": 132.72093023254052,
          "velocity": 0.15748031496062992,
          "duration": 0.04651162790696617
        },
        {
          "name": "D5",
          "midi": 74,
          "time": 132.73255813951727,
          "velocity": 0.36220472440944884,
          "duration": 0.05813953488370771
        },
        {
          "name": "F2",
          "midi": 41,
          "time": 132.744186046494,
          "velocity": 0.5118110236220472,
          "duration": 0.06976744186044925
        },
        {
          "name": "E3",
          "midi": 52,
          "time": 132.7674418604475,
          "velocity": 0.5511811023622047,
          "duration": 0.023255813953483084
        },
        {
          "name": "A4",
          "midi": 69,
          "time": 132.7674418604475,
          "velocity": 0.33858267716535434,
          "duration": 0.05813953488370771
        },
        {
          "name": "G5",
          "midi": 79,
          "time": 132.7674418604475,
          "velocity": 0.3858267716535433,
          "duration": 0.023255813953483084
        },
        {
          "name": "A#5",
          "midi": 82,
          "time": 132.7674418604475,
          "velocity": 0.12598425196850394,
          "duration": 0.034883720930224626
        },
        {
          "name": "E6",
          "midi": 88,
          "time": 132.7674418604475,
          "velocity": 0.11811023622047244,
          "duration": 0.034883720930224626
        },
        {
          "name": "C4",
          "midi": 60,
          "time": 132.77906976742423,
          "velocity": 0.41732283464566927,
          "duration": 0.034883720930224626
        },
        {
          "name": "G6",
          "midi": 91,
          "time": 132.77906976742423,
          "velocity": 0.4330708661417323,
          "duration": 0.45348837209292014
        },
        {
          "name": "C7",
          "midi": 96,
          "time": 132.77906976742423,
          "velocity": 0.14960629921259844,
          "duration": 0.034883720930224626
        },
        {
          "name": "D7",
          "midi": 98,
          "time": 132.77906976742423,
          "velocity": 0.2755905511811024,
          "duration": 0.5348837209301109
        },
        {
          "name": "F3",
          "midi": 53,
          "time": 132.79069767440097,
          "velocity": 0.5354330708661418,
          "duration": 0.011627906976741542
        },
        {
          "name": "F#4",
          "midi": 66,
          "time": 132.79069767440097,
          "velocity": 0.33858267716535434,
          "duration": 0.034883720930224626
        },
        {
          "name": "F#5",
          "midi": 78,
          "time": 132.79069767440097,
          "velocity": 0.4330708661417323,
          "duration": 0.023255813953483084
        },
        {
          "name": "C#6",
          "midi": 85,
          "time": 132.79069767440097,
          "velocity": 0.2204724409448819,
          "duration": 0.034883720930224626
        },
        {
          "name": "B6",
          "midi": 95,
          "time": 132.79069767440097,
          "velocity": 0.2204724409448819,
          "duration": 0.3023255813952801
        },
        {
          "name": "E3",
          "midi": 52,
          "time": 132.80232558137772,
          "velocity": 0.4645669291338583,
          "duration": 0.023255813953483084
        },
        {
          "name": "B4",
          "midi": 71,
          "time": 132.80232558137772,
          "velocity": 0.3779527559055118,
          "duration": 0.15116279069764005
        },
        {
          "name": "G5",
          "midi": 79,
          "time": 132.80232558137772,
          "velocity": 0.4566929133858268,
          "duration": 0.2209302325580893
        },
        {
          "name": "D#6",
          "midi": 87,
          "time": 132.80232558137772,
          "velocity": 0.11023622047244094,
          "duration": 0.034883720930224626
        },
        {
          "name": "A#5",
          "midi": 82,
          "time": 132.81395348835446,
          "velocity": 0.07874015748031496,
          "duration": 0.05813953488370771
        },
        {
          "name": "C6",
          "midi": 84,
          "time": 132.81395348835446,
          "velocity": 0.09448818897637795,
          "duration": 0.034883720930224626
        },
        {
          "name": "E7",
          "midi": 100,
          "time": 132.81395348835446,
          "velocity": 0.15748031496062992,
          "duration": 0.15116279069764005
        },
        {
          "name": "E4",
          "midi": 64,
          "time": 132.8255813953312,
          "velocity": 0.2047244094488189,
          "duration": 0.034883720930224626
        },
        {
          "name": "G4",
          "midi": 67,
          "time": 132.8255813953312,
          "velocity": 0.2755905511811024,
          "duration": 0.06976744186044925
        },
        {
          "name": "A5",
          "midi": 81,
          "time": 132.8255813953312,
          "velocity": 0.14960629921259844,
          "duration": 0.034883720930224626
        },
        {
          "name": "F2",
          "midi": 41,
          "time": 132.83720930230794,
          "velocity": 0.47244094488188976,
          "duration": 0.023255813953483084
        },
        {
          "name": "A#3",
          "midi": 58,
          "time": 132.83720930230794,
          "velocity": 0.2440944881889764,
          "duration": 0.023255813953483084
        },
        {
          "name": "G#6",
          "midi": 92,
          "time": 132.83720930230794,
          "velocity": 0.14173228346456693,
          "duration": 0.09302325581393234
        },
        {
          "name": "F#5",
          "midi": 78,
          "time": 132.84883720928468,
          "velocity": 0.23622047244094488,
          "duration": 0.023255813953483084
        },
        {
          "name": "C#6",
          "midi": 85,
          "time": 132.84883720928468,
          "velocity": 0.11811023622047244,
          "duration": 0.04651162790696617
        },
        {
          "name": "C3",
          "midi": 48,
          "time": 132.87209302323816,
          "velocity": 0.3464566929133858,
          "duration": 0.023255813953483084
        },
        {
          "name": "D#7",
          "midi": 99,
          "time": 132.87209302323816,
          "velocity": 0.2677165354330709,
          "duration": 0.43023255813943706
        },
        {
          "name": "F3",
          "midi": 53,
          "time": 132.8837209302149,
          "velocity": 0.2677165354330709,
          "duration": 0.023255813953483084
        },
        {
          "name": "D5",
          "midi": 74,
          "time": 132.8837209302149,
          "velocity": 0.1732283464566929,
          "duration": 0.04651162790696617
        },
        {
          "name": "A5",
          "midi": 81,
          "time": 132.8837209302149,
          "velocity": 0.13385826771653545,
          "duration": 0.05813953488370771
        },
        {
          "name": "F2",
          "midi": 41,
          "time": 132.89534883719165,
          "velocity": 0.3464566929133858,
          "duration": 0.034883720930224626
        },
        {
          "name": "F#6",
          "midi": 90,
          "time": 132.89534883719165,
          "velocity": 0.12598425196850394,
          "duration": 0.034883720930224626
        },
        {
          "name": "A#3",
          "midi": 58,
          "time": 132.9069767441684,
          "velocity": 0.2755905511811024,
          "duration": 0.034883720930224626
        },
        {
          "name": "E4",
          "midi": 64,
          "time": 132.9069767441684,
          "velocity": 0.2677165354330709,
          "duration": 0.11627906976741542
        },
        {
          "name": "G#4",
          "midi": 68,
          "time": 132.9069767441684,
          "velocity": 0.16535433070866143,
          "duration": 0.034883720930224626
        },
        {
          "name": "F#5",
          "midi": 78,
          "time": 132.9069767441684,
          "velocity": 0.2677165354330709,
          "duration": 0.034883720930224626
        },
        {
          "name": "E3",
          "midi": 52,
          "time": 132.93023255812187,
          "velocity": 0.3700787401574803,
          "duration": 0.023255813953483084
        },
        {
          "name": "E2",
          "midi": 40,
          "time": 132.9418604650986,
          "velocity": 0.31496062992125984,
          "duration": 0.023255813953483084
        },
        {
          "name": "B3",
          "midi": 59,
          "time": 132.9418604650986,
          "velocity": 0.1889763779527559,
          "duration": 0.034883720930224626
        },
        {
          "name": "A6",
          "midi": 93,
          "time": 132.9418604650986,
          "velocity": 0.14173228346456693,
          "duration": 0.034883720930224626
        },
        {
          "name": "E3",
          "midi": 52,
          "time": 132.9651162790521,
          "velocity": 0.3464566929133858,
          "duration": 0.034883720930224626
        },
        {
          "name": "B4",
          "midi": 71,
          "time": 132.97674418602884,
          "velocity": 0.2204724409448819,
          "duration": 0.2209302325580893
        },
        {
          "name": "D5",
          "midi": 74,
          "time": 132.97674418602884,
          "velocity": 0.23622047244094488,
          "duration": 0.04651162790696617
        },
        {
          "name": "F#6",
          "midi": 90,
          "time": 132.97674418602884,
          "velocity": 0.33858267716535434,
          "duration": 0.29069767441853855
        },
        {
          "name": "A#6",
          "midi": 94,
          "time": 132.97674418602884,
          "velocity": 0.1968503937007874,
          "duration": 0.0813953488371908
        },
        {
          "name": "A4",
          "midi": 69,
          "time": 132.99999999998232,
          "velocity": 0.2755905511811024,
          "duration": 0.04651162790696617
        },
        {
          "name": "F5",
          "midi": 77,
          "time": 132.99999999998232,
          "velocity": 0.3937007874015748,
          "duration": 0.034883720930224626
        },
        {
          "name": "E6",
          "midi": 88,
          "time": 132.99999999998232,
          "velocity": 0.15748031496062992,
          "duration": 0.04651162790696617
        },
        {
          "name": "F#4",
          "midi": 66,
          "time": 133.01162790695906,
          "velocity": 0.3779527559055118,
          "duration": 0.29069767441853855
        },
        {
          "name": "C#4",
          "midi": 61,
          "time": 133.0232558139358,
          "velocity": 0.2204724409448819,
          "duration": 0.034883720930224626
        },
        {
          "name": "E5",
          "midi": 76,
          "time": 133.0232558139358,
          "velocity": 0.18110236220472442,
          "duration": 0.034883720930224626
        },
        {
          "name": "C7",
          "midi": 96,
          "time": 133.0232558139358,
          "velocity": 0.16535433070866143,
          "duration": 0.05813953488370771
        },
        {
          "name": "F#5",
          "midi": 78,
          "time": 133.03488372091255,
          "velocity": 0.5354330708661418,
          "duration": 0.279069767441797
        },
        {
          "name": "G3",
          "midi": 55,
          "time": 133.0465116278893,
          "velocity": 0.2440944881889764,
          "duration": 0.023255813953483084
        },
        {
          "name": "D5",
          "midi": 74,
          "time": 133.0465116278893,
          "velocity": 0.1732283464566929,
          "duration": 0.1627906976743816
        },
        {
          "name": "F2",
          "midi": 41,
          "time": 133.06976744184277,
          "velocity": 0.3228346456692913,
          "duration": 0.023255813953483084
        },
        {
          "name": "E6",
          "midi": 88,
          "time": 133.06976744184277,
          "velocity": 0.14960629921259844,
          "duration": 0.09302325581393234
        },
        {
          "name": "D3",
          "midi": 50,
          "time": 133.0813953488195,
          "velocity": 0.5118110236220472,
          "duration": 0.11627906976741542
        },
        {
          "name": "A3",
          "midi": 57,
          "time": 133.104651162773,
          "velocity": 0.2125984251968504,
          "duration": 0.0813953488371908
        },
        {
          "name": "C7",
          "midi": 96,
          "time": 133.104651162773,
          "velocity": 0.07874015748031496,
          "duration": 0.05813953488370771
        },
        {
          "name": "A4",
          "midi": 69,
          "time": 133.11627906974974,
          "velocity": 0.2677165354330709,
          "duration": 0.0813953488371908
        },
        {
          "name": "E5",
          "midi": 76,
          "time": 133.11627906974974,
          "velocity": 0.11023622047244094,
          "duration": 0.034883720930224626
        },
        {
          "name": "F7",
          "midi": 101,
          "time": 133.11627906974974,
          "velocity": 0.11811023622047244,
          "duration": 0.04651162790696617
        },
        {
          "name": "E7",
          "midi": 100,
          "time": 133.13953488370322,
          "velocity": 0.2992125984251969,
          "duration": 1.1744186046508958
        },
        {
          "name": "E5",
          "midi": 76,
          "time": 133.1860465116102,
          "velocity": 0.2755905511811024,
          "duration": 0.05813953488370771
        },
        {
          "name": "C#5",
          "midi": 73,
          "time": 133.19767441858693,
          "velocity": 0.23622047244094488,
          "duration": 0.034883720930224626
        },
        {
          "name": "A2",
          "midi": 45,
          "time": 133.20930232556367,
          "velocity": 0.5905511811023622,
          "duration": 0.034883720930224626
        },
        {
          "name": "C4",
          "midi": 60,
          "time": 133.20930232556367,
          "velocity": 0.29133858267716534,
          "duration": 0.034883720930224626
        },
        {
          "name": "B5",
          "midi": 83,
          "time": 133.20930232556367,
          "velocity": 0.14173228346456693,
          "duration": 0.05813953488370771
        },
        {
          "name": "F6",
          "midi": 89,
          "time": 133.20930232556367,
          "velocity": 0.10236220472440945,
          "duration": 0.05813953488370771
        },
        {
          "name": "B6",
          "midi": 95,
          "time": 133.20930232556367,
          "velocity": 0.33858267716535434,
          "duration": 0.39534883720921243
        },
        {
          "name": "C7",
          "midi": 96,
          "time": 133.20930232556367,
          "velocity": 0.10236220472440945,
          "duration": 0.034883720930224626
        },
        {
          "name": "F7",
          "midi": 101,
          "time": 133.20930232556367,
          "velocity": 0.10236220472440945,
          "duration": 0.04651162790696617
        },
        {
          "name": "G#1",
          "midi": 32,
          "time": 133.2209302325404,
          "velocity": 0.5433070866141733,
          "duration": 0.011627906976741542
        },
        {
          "name": "A#4",
          "midi": 70,
          "time": 133.2209302325404,
          "velocity": 0.16535433070866143,
          "duration": 0.034883720930224626
        },
        {
          "name": "G5",
          "midi": 79,
          "time": 133.23255813951715,
          "velocity": 0.25984251968503935,
          "duration": 0.04651162790696617
        },
        {
          "name": "G#6",
          "midi": 92,
          "time": 133.23255813951715,
          "velocity": 0.25196850393700787,
          "duration": 0.29069767441853855
        },
        {
          "name": "A#2",
          "midi": 46,
          "time": 133.2441860464939,
          "velocity": 0.5590551181102362,
          "duration": 0.011627906976741542
        },
        {
          "name": "C#4",
          "midi": 61,
          "time": 133.2441860464939,
          "velocity": 0.4015748031496063,
          "duration": 0.023255813953483084
        },
        {
          "name": "D#5",
          "midi": 75,
          "time": 133.2441860464939,
          "velocity": 0.30708661417322836,
          "duration": 0.023255813953483084
        },
        {
          "name": "A#6",
          "midi": 94,
          "time": 133.2441860464939,
          "velocity": 0.2047244094488189,
          "duration": 0.034883720930224626
        },
        {
          "name": "C3",
          "midi": 48,
          "time": 133.25581395347064,
          "velocity": 0.5748031496062992,
          "duration": 0.023255813953483084
        },
        {
          "name": "A4",
          "midi": 69,
          "time": 133.25581395347064,
          "velocity": 0.2440944881889764,
          "duration": 0.04651162790696617
        },
        {
          "name": "E5",
          "midi": 76,
          "time": 133.26744186044738,
          "velocity": 0.4645669291338583,
          "duration": 0.3837209302324709
        },
        {
          "name": "C#3",
          "midi": 49,
          "time": 133.27906976742412,
          "velocity": 0.5669291338582677,
          "duration": 0.023255813953483084
        },
        {
          "name": "G3",
          "midi": 55,
          "time": 133.29069767440086,
          "velocity": 0.4409448818897638,
          "duration": 0.05813953488370771
        },
        {
          "name": "F7",
          "midi": 101,
          "time": 133.29069767440086,
          "velocity": 0.07086614173228346,
          "duration": 0.04651162790696617
        },
        {
          "name": "C3",
          "midi": 48,
          "time": 133.3023255813776,
          "velocity": 0.5590551181102362,
          "duration": 0.011627906976741542
        },
        {
          "name": "C#3",
          "midi": 49,
          "time": 133.31395348835434,
          "velocity": 0.5748031496062992,
          "duration": 0.011627906976741542
        },
        {
          "name": "C4",
          "midi": 60,
          "time": 133.31395348835434,
          "velocity": 0.23622047244094488,
          "duration": 0.023255813953483084
        },
        {
          "name": "E4",
          "midi": 64,
          "time": 133.31395348835434,
          "velocity": 0.14173228346456693,
          "duration": 0.05813953488370771
        },
        {
          "name": "C3",
          "midi": 48,
          "time": 133.32558139533108,
          "velocity": 0.5433070866141733,
          "duration": 0.023255813953483084
        },
        {
          "name": "F#6",
          "midi": 90,
          "time": 133.33720930230783,
          "velocity": 0.18110236220472442,
          "duration": 0.1395348837208985
        },
        {
          "name": "D7",
          "midi": 98,
          "time": 133.33720930230783,
          "velocity": 0.07874015748031496,
          "duration": 0.04651162790696617
        },
        {
          "name": "C4",
          "midi": 60,
          "time": 133.37209302323805,
          "velocity": 0.3779527559055118,
          "duration": 0.06976744186044925
        },
        {
          "name": "F#5",
          "midi": 78,
          "time": 133.37209302323805,
          "velocity": 0.1968503937007874,
          "duration": 0.10465116279067388
        },
        {
          "name": "B2",
          "midi": 47,
          "time": 133.39534883719153,
          "velocity": 0.3779527559055118,
          "duration": 0.023255813953483084
        },
        {
          "name": "E4",
          "midi": 64,
          "time": 133.39534883719153,
          "velocity": 0.2677165354330709,
          "duration": 0.05813953488370771
        },
        {
          "name": "A4",
          "midi": 69,
          "time": 133.39534883719153,
          "velocity": 0.2125984251968504,
          "duration": 0.034883720930224626
        },
        {
          "name": "F#4",
          "midi": 66,
          "time": 133.40697674416828,
          "velocity": 0.25196850393700787,
          "duration": 0.023255813953483084
        },
        {
          "name": "F7",
          "midi": 101,
          "time": 133.40697674416828,
          "velocity": 0.10236220472440945,
          "duration": 0.034883720930224626
        },
        {
          "name": "A2",
          "midi": 45,
          "time": 133.41860465114502,
          "velocity": 0.5984251968503937,
          "duration": 0.04651162790696617
        },
        {
          "name": "A#1",
          "midi": 34,
          "time": 133.43023255812176,
          "velocity": 0.5118110236220472,
          "duration": 0.011627906976741542
        },
        {
          "name": "G4",
          "midi": 67,
          "time": 133.43023255812176,
          "velocity": 0.41732283464566927,
          "duration": 0.06976744186044925
        },
        {
          "name": "D5",
          "midi": 74,
          "time": 133.43023255812176,
          "velocity": 0.3937007874015748,
          "duration": 0.6279069767440433
        },
        {
          "name": "C#7",
          "midi": 97,
          "time": 133.43023255812176,
          "velocity": 0.11811023622047244,
          "duration": 0.06976744186044925
        },
        {
          "name": "D#7",
          "midi": 99,
          "time": 133.43023255812176,
          "velocity": 0.08661417322834646,
          "duration": 0.034883720930224626
        },
        {
          "name": "C5",
          "midi": 72,
          "time": 133.4418604650985,
          "velocity": 0.1732283464566929,
          "duration": 0.18604651162786467
        },
        {
          "name": "D7",
          "midi": 98,
          "time": 133.4418604650985,
          "velocity": 0.16535433070866143,
          "duration": 0.12790697674415696
        },
        {
          "name": "C4",
          "midi": 60,
          "time": 133.45348837207524,
          "velocity": 0.2677165354330709,
          "duration": 0.023255813953483084
        },
        {
          "name": "B2",
          "midi": 47,
          "time": 133.46511627905198,
          "velocity": 0.5826771653543307,
          "duration": 0.023255813953483084
        },
        {
          "name": "D#7",
          "midi": 99,
          "time": 133.47674418602872,
          "velocity": 0.08661417322834646,
          "duration": 0.034883720930224626
        },
        {
          "name": "C3",
          "midi": 48,
          "time": 133.48837209300547,
          "velocity": 0.5748031496062992,
          "duration": 0.011627906976741542
        },
        {
          "name": "E4",
          "midi": 64,
          "time": 133.48837209300547,
          "velocity": 0.31496062992125984,
          "duration": 0.1395348837208985
        },
        {
          "name": "C#3",
          "midi": 49,
          "time": 133.4999999999822,
          "velocity": 0.5748031496062992,
          "duration": 0.011627906976741542
        },
        {
          "name": "G3",
          "midi": 55,
          "time": 133.4999999999822,
          "velocity": 0.48031496062992124,
          "duration": 0.10465116279067388
        },
        {
          "name": "C3",
          "midi": 48,
          "time": 133.51162790695895,
          "velocity": 0.5905511811023622,
          "duration": 0.0813953488371908
        },
        {
          "name": "G4",
          "midi": 67,
          "time": 133.5232558139357,
          "velocity": 0.5118110236220472,
          "duration": 0.837209302325391
        },
        {
          "name": "A4",
          "midi": 69,
          "time": 133.55813953486592,
          "velocity": 0.13385826771653545,
          "duration": 0.034883720930224626
        },
        {
          "name": "F#5",
          "midi": 78,
          "time": 133.59302325579614,
          "velocity": 0.2204724409448819,
          "duration": 0.04651162790696617
        },
        {
          "name": "G#6",
          "midi": 92,
          "time": 133.59302325579614,
          "velocity": 0.1889763779527559,
          "duration": 0.0813953488371908
        },
        {
          "name": "B2",
          "midi": 47,
          "time": 133.60465116277288,
          "velocity": 0.49606299212598426,
          "duration": 0.034883720930224626
        },
        {
          "name": "G#3",
          "midi": 56,
          "time": 133.60465116277288,
          "velocity": 0.25984251968503935,
          "duration": 0.023255813953483084
        },
        {
          "name": "F#7",
          "midi": 102,
          "time": 133.61627906974962,
          "velocity": 0.13385826771653545,
          "duration": 0.09302325581393234
        },
        {
          "name": "B4",
          "midi": 71,
          "time": 133.62790697672636,
          "velocity": 0.2440944881889764,
          "duration": 0.023255813953483084
        },
        {
          "name": "A5",
          "midi": 81,
          "time": 133.62790697672636,
          "velocity": 0.29133858267716534,
          "duration": 0.2558139534883139
        },
        {
          "name": "A#3",
          "midi": 58,
          "time": 133.6395348837031,
          "velocity": 0.4566929133858268,
          "duration": 0.034883720930224626
        },
        {
          "name": "E4",
          "midi": 64,
          "time": 133.6395348837031,
          "velocity": 0.3858267716535433,
          "duration": 0.023255813953483084
        },
        {
          "name": "F5",
          "midi": 77,
          "time": 133.6395348837031,
          "velocity": 0.36220472440944884,
          "duration": 0.023255813953483084
        },
        {
          "name": "C6",
          "midi": 84,
          "time": 133.6395348837031,
          "velocity": 0.12598425196850394,
          "duration": 0.05813953488370771
        },
        {
          "name": "F#6",
          "midi": 90,
          "time": 133.6395348837031,
          "velocity": 0.18110236220472442,
          "duration": 0.0813953488371908
        },
        {
          "name": "B6",
          "midi": 95,
          "time": 133.6395348837031,
          "velocity": 0.3464566929133858,
          "duration": 0.5930232558138187
        },
        {
          "name": "E6",
          "midi": 88,
          "time": 133.65116279067985,
          "velocity": 0.08661417322834646,
          "duration": 0.05813953488370771
        },
        {
          "name": "D7",
          "midi": 98,
          "time": 133.65116279067985,
          "velocity": 0.1732283464566929,
          "duration": 0.18604651162786467
        },
        {
          "name": "E5",
          "midi": 76,
          "time": 133.6627906976566,
          "velocity": 0.47244094488188976,
          "duration": 0.3837209302324709
        },
        {
          "name": "F7",
          "midi": 101,
          "time": 133.6627906976566,
          "velocity": 0.11811023622047244,
          "duration": 0.034883720930224626
        },
        {
          "name": "G#3",
          "midi": 56,
          "time": 133.67441860463333,
          "velocity": 0.4015748031496063,
          "duration": 0.023255813953483084
        },
        {
          "name": "B4",
          "midi": 71,
          "time": 133.67441860463333,
          "velocity": 0.2125984251968504,
          "duration": 0.034883720930224626
        },
        {
          "name": "C#7",
          "midi": 97,
          "time": 133.67441860463333,
          "velocity": 0.2125984251968504,
          "duration": 0.24418604651157239
        },
        {
          "name": "E4",
          "midi": 64,
          "time": 133.68604651161007,
          "velocity": 0.3464566929133858,
          "duration": 0.034883720930224626
        },
        {
          "name": "G#6",
          "midi": 92,
          "time": 133.68604651161007,
          "velocity": 0.1968503937007874,
          "duration": 0.10465116279067388
        },
        {
          "name": "D#7",
          "midi": 99,
          "time": 133.68604651161007,
          "velocity": 0.11811023622047244,
          "duration": 0.04651162790696617
        },
        {
          "name": "C#3",
          "midi": 49,
          "time": 133.69767441858681,
          "velocity": 0.4409448818897638,
          "duration": 0.023255813953483084
        },
        {
          "name": "G3",
          "midi": 55,
          "time": 133.70930232556356,
          "velocity": 0.25196850393700787,
          "duration": 0.034883720930224626
        },
        {
          "name": "A#4",
          "midi": 70,
          "time": 133.70930232556356,
          "velocity": 0.23622047244094488,
          "duration": 0.15116279069764005
        },
        {
          "name": "C3",
          "midi": 48,
          "time": 133.7209302325403,
          "velocity": 0.4015748031496063,
          "duration": 0.023255813953483084
        },
        {
          "name": "E4",
          "midi": 64,
          "time": 133.73255813951704,
          "velocity": 0.31496062992125984,
          "duration": 0.17441860465112313
        },
        {
          "name": "F#5",
          "midi": 78,
          "time": 133.73255813951704,
          "velocity": 0.12598425196850394,
          "duration": 0.034883720930224626
        },
        {
          "name": "C#3",
          "midi": 49,
          "time": 133.74418604649378,
          "velocity": 0.4330708661417323,
          "duration": 0.023255813953483084
        },
        {
          "name": "A#3",
          "midi": 58,
          "time": 133.74418604649378,
          "velocity": 0.2677165354330709,
          "duration": 0.04651162790696617
        },
        {
          "name": "D#6",
          "midi": 87,
          "time": 133.74418604649378,
          "velocity": 0.07086614173228346,
          "duration": 0.034883720930224626
        },
        {
          "name": "F7",
          "midi": 101,
          "time": 133.74418604649378,
          "velocity": 0.14960629921259844,
          "duration": 0.034883720930224626
        },
        {
          "name": "C#2",
          "midi": 37,
          "time": 133.76744186044726,
          "velocity": 0.25984251968503935,
          "duration": 0.023255813953483084
        },
        {
          "name": "C3",
          "midi": 48,
          "time": 133.76744186044726,
          "velocity": 0.4330708661417323,
          "duration": 0.06976744186044925
        },
        {
          "name": "C5",
          "midi": 72,
          "time": 133.76744186044726,
          "velocity": 0.14173228346456693,
          "duration": 0.05813953488370771
        },
        {
          "name": "F#7",
          "midi": 102,
          "time": 133.779069767424,
          "velocity": 0.11811023622047244,
          "duration": 0.04651162790696617
        },
        {
          "name": "G3",
          "midi": 55,
          "time": 133.79069767440075,
          "velocity": 0.3464566929133858,
          "duration": 0.05813953488370771
        },
        {
          "name": "C7",
          "midi": 96,
          "time": 133.79069767440075,
          "velocity": 0.12598425196850394,
          "duration": 0.1395348837208985
        },
        {
          "name": "G#6",
          "midi": 92,
          "time": 133.81395348835423,
          "velocity": 0.13385826771653545,
          "duration": 0.04651162790696617
        },
        {
          "name": "B1",
          "midi": 35,
          "time": 133.82558139533097,
          "velocity": 0.25196850393700787,
          "duration": 0.023255813953483084
        },
        {
          "name": "C#3",
          "midi": 49,
          "time": 133.8372093023077,
          "velocity": 0.4330708661417323,
          "duration": 0.023255813953483084
        },
        {
          "name": "F#7",
          "midi": 102,
          "time": 133.8372093023077,
          "velocity": 0.14173228346456693,
          "duration": 0.10465116279067388
        },
        {
          "name": "G#3",
          "midi": 56,
          "time": 133.84883720928445,
          "velocity": 0.3700787401574803,
          "duration": 0.034883720930224626
        },
        {
          "name": "B5",
          "midi": 83,
          "time": 133.84883720928445,
          "velocity": 0.2283464566929134,
          "duration": 0.2558139534883139
        },
        {
          "name": "F7",
          "midi": 101,
          "time": 133.84883720928445,
          "velocity": 0.07874015748031496,
          "duration": 0.034883720930224626
        },
        {
          "name": "C3",
          "midi": 48,
          "time": 133.8604651162612,
          "velocity": 0.5433070866141733,
          "duration": 0.011627906976741542
        },
        {
          "name": "F#6",
          "midi": 90,
          "time": 133.8604651162612,
          "velocity": 0.13385826771653545,
          "duration": 0.034883720930224626
        },
        {
          "name": "D7",
          "midi": 98,
          "time": 133.8604651162612,
          "velocity": 0.2047244094488189,
          "duration": 0.09302325581393234
        },
        {
          "name": "A2",
          "midi": 45,
          "time": 133.87209302323794,
          "velocity": 0.5669291338582677,
          "duration": 0.011627906976741542
        },
        {
          "name": "A#4",
          "midi": 70,
          "time": 133.87209302323794,
          "velocity": 0.11811023622047244,
          "duration": 0.034883720930224626
        },
        {
          "name": "G3",
          "midi": 55,
          "time": 133.88372093021468,
          "velocity": 0.4251968503937008,
          "duration": 0.023255813953483084
        },
        {
          "name": "G#6",
          "midi": 92,
          "time": 133.88372093021468,
          "velocity": 0.11811023622047244,
          "duration": 0.09302325581393234
        },
        {
          "name": "D#7",
          "midi": 99,
          "time": 133.88372093021468,
          "velocity": 0.11023622047244094,
          "duration": 0.04651162790696617
        },
        {
          "name": "B4",
          "midi": 71,
          "time": 133.90697674416816,
          "velocity": 0.2047244094488189,
          "duration": 0.034883720930224626
        },
        {
          "name": "D3",
          "midi": 50,
          "time": 133.9186046511449,
          "velocity": 0.5511811023622047,
          "duration": 0.011627906976741542
        },
        {
          "name": "E4",
          "midi": 64,
          "time": 133.9186046511449,
          "velocity": 0.29133858267716534,
          "duration": 0.19767441860460622
        },
        {
          "name": "C#3",
          "midi": 49,
          "time": 133.93023255812165,
          "velocity": 0.5354330708661418,
          "duration": 0.011627906976741542
        },
        {
          "name": "G3",
          "midi": 55,
          "time": 133.93023255812165,
          "velocity": 0.47244094488188976,
          "duration": 0.05813953488370771
        },
        {
          "name": "C3",
          "midi": 48,
          "time": 133.9418604650984,
          "velocity": 0.49606299212598426,
          "duration": 0.05813953488370771
        },
        {
          "name": "G#6",
          "midi": 92,
          "time": 133.9999999999821,
          "velocity": 0.10236220472440945,
          "duration": 0.034883720930224626
        },
        {
          "name": "C5",
          "midi": 72,
          "time": 134.01162790695884,
          "velocity": 0.13385826771653545,
          "duration": 0.06976744186044925
        },
        {
          "name": "C4",
          "midi": 60,
          "time": 134.02325581393558,
          "velocity": 0.23622047244094488,
          "duration": 0.04651162790696617
        },
        {
          "name": "C3",
          "midi": 48,
          "time": 134.04651162788906,
          "velocity": 0.2755905511811024,
          "duration": 0.023255813953483084
        },
        {
          "name": "E5",
          "midi": 76,
          "time": 134.0581395348658,
          "velocity": 0.4251968503937008,
          "duration": 0.7209302325579756
        },
        {
          "name": "G#2",
          "midi": 44,
          "time": 134.06976744184254,
          "velocity": 0.5826771653543307,
          "duration": 0.034883720930224626
        },
        {
          "name": "A#3",
          "midi": 58,
          "time": 134.06976744184254,
          "velocity": 0.30708661417322836,
          "duration": 0.023255813953483084
        },
        {
          "name": "G#6",
          "midi": 92,
          "time": 134.06976744184254,
          "velocity": 0.12598425196850394,
          "duration": 0.034883720930224626
        },
        {
          "name": "C#7",
          "midi": 97,
          "time": 134.06976744184254,
          "velocity": 0.14173228346456693,
          "duration": 0.05813953488370771
        },
        {
          "name": "D#7",
          "midi": 99,
          "time": 134.06976744184254,
          "velocity": 0.08661417322834646,
          "duration": 0.06976744186044925
        },
        {
          "name": "F#7",
          "midi": 102,
          "time": 134.06976744184254,
          "velocity": 0.11811023622047244,
          "duration": 0.09302325581393234
        },
        {
          "name": "C7",
          "midi": 96,
          "time": 134.08139534881929,
          "velocity": 0.07874015748031496,
          "duration": 0.09302325581393234
        },
        {
          "name": "D7",
          "midi": 98,
          "time": 134.08139534881929,
          "velocity": 0.15748031496062992,
          "duration": 0.11627906976741542
        },
        {
          "name": "B2",
          "midi": 47,
          "time": 134.10465116277277,
          "velocity": 0.5669291338582677,
          "duration": 0.023255813953483084
        },
        {
          "name": "G#3",
          "midi": 56,
          "time": 134.10465116277277,
          "velocity": 0.31496062992125984,
          "duration": 0.034883720930224626
        },
        {
          "name": "C#4",
          "midi": 61,
          "time": 134.10465116277277,
          "velocity": 0.3937007874015748,
          "duration": 0.023255813953483084
        },
        {
          "name": "C5",
          "midi": 72,
          "time": 134.10465116277277,
          "velocity": 0.2755905511811024,
          "duration": 0.3837209302324709
        },
        {
          "name": "C3",
          "midi": 48,
          "time": 134.12790697672625,
          "velocity": 0.5826771653543307,
          "duration": 0.011627906976741542
        },
        {
          "name": "C#3",
          "midi": 49,
          "time": 134.139534883703,
          "velocity": 0.5905511811023622,
          "duration": 0.011627906976741542
        },
        {
          "name": "G3",
          "midi": 55,
          "time": 134.139534883703,
          "velocity": 0.4881889763779528,
          "duration": 0.12790697674415696
        },
        {
          "name": "E4",
          "midi": 64,
          "time": 134.139534883703,
          "velocity": 0.14960629921259844,
          "duration": 0.034883720930224626
        },
        {
          "name": "G#6",
          "midi": 92,
          "time": 134.139534883703,
          "velocity": 0.13385826771653545,
          "duration": 0.05813953488370771
        },
        {
          "name": "C3",
          "midi": 48,
          "time": 134.15116279067973,
          "velocity": 0.5905511811023622,
          "duration": 0.023255813953483084
        },
        {
          "name": "C#3",
          "midi": 49,
          "time": 134.17441860463322,
          "velocity": 0.5748031496062992,
          "duration": 0.011627906976741542
        },
        {
          "name": "C3",
          "midi": 48,
          "time": 134.18604651160996,
          "velocity": 0.6220472440944882,
          "duration": 0.09302325581393234
        },
        {
          "name": "B5",
          "midi": 83,
          "time": 134.1976744185867,
          "velocity": 0.12598425196850394,
          "duration": 0.06976744186044925
        },
        {
          "name": "E4",
          "midi": 64,
          "time": 134.2558139534704,
          "velocity": 0.31496062992125984,
          "duration": 0.1627906976743816
        },
        {
          "name": "F#3",
          "midi": 54,
          "time": 134.26744186044715,
          "velocity": 0.49606299212598426,
          "duration": 0.023255813953483084
        },
        {
          "name": "B6",
          "midi": 95,
          "time": 134.26744186044715,
          "velocity": 0.4409448818897638,
          "duration": 0.8720930232556157
        },
        {
          "name": "B2",
          "midi": 47,
          "time": 134.2790697674239,
          "velocity": 0.5669291338582677,
          "duration": 0.011627906976741542
        },
        {
          "name": "D5",
          "midi": 74,
          "time": 134.2790697674239,
          "velocity": 0.29133858267716534,
          "duration": 0.12790697674415696
        },
        {
          "name": "C3",
          "midi": 48,
          "time": 134.29069767440063,
          "velocity": 0.5590551181102362,
          "duration": 0.011627906976741542
        },
        {
          "name": "B5",
          "midi": 83,
          "time": 134.29069767440063,
          "velocity": 0.15748031496062992,
          "duration": 0.04651162790696617
        },
        {
          "name": "F#7",
          "midi": 102,
          "time": 134.29069767440063,
          "velocity": 0.18110236220472442,
          "duration": 0.10465116279067388
        },
        {
          "name": "A#2",
          "midi": 46,
          "time": 134.30232558137737,
          "velocity": 0.6220472440944882,
          "duration": 0.011627906976741542
        },
        {
          "name": "D7",
          "midi": 98,
          "time": 134.30232558137737,
          "velocity": 0.2440944881889764,
          "duration": 0.558139534883594
        },
        {
          "name": "B2",
          "midi": 47,
          "time": 134.31395348835412,
          "velocity": 0.5905511811023622,
          "duration": 0.023255813953483084
        },
        {
          "name": "C#7",
          "midi": 97,
          "time": 134.31395348835412,
          "velocity": 0.2047244094488189,
          "duration": 0.24418604651157239
        },
        {
          "name": "G3",
          "midi": 55,
          "time": 134.32558139533086,
          "velocity": 0.31496062992125984,
          "duration": 0.023255813953483084
        },
        {
          "name": "C4",
          "midi": 60,
          "time": 134.32558139533086,
          "velocity": 0.33858267716535434,
          "duration": 0.15116279069764005
        },
        {
          "name": "C7",
          "midi": 96,
          "time": 134.32558139533086,
          "velocity": 0.16535433070866143,
          "duration": 0.18604651162786467
        },
        {
          "name": "D#7",
          "midi": 99,
          "time": 134.32558139533086,
          "velocity": 0.12598425196850394,
          "duration": 0.09302325581393234
        },
        {
          "name": "C3",
          "midi": 48,
          "time": 134.3372093023076,
          "velocity": 0.5826771653543307,
          "duration": 0.011627906976741542
        },
        {
          "name": "A#4",
          "midi": 70,
          "time": 134.3372093023076,
          "velocity": 0.2125984251968504,
          "duration": 0.15116279069764005
        },
        {
          "name": "E7",
          "midi": 100,
          "time": 134.3372093023076,
          "velocity": 0.28346456692913385,
          "duration": 0.24418604651157239
        },
        {
          "name": "G4",
          "midi": 67,
          "time": 134.37209302323782,
          "velocity": 0.41732283464566927,
          "duration": 0.20930232558134776
        },
        {
          "name": "C2",
          "midi": 36,
          "time": 134.38372093021457,
          "velocity": 0.36220472440944884,
          "duration": 0.023255813953483084
        },
        {
          "name": "C3",
          "midi": 48,
          "time": 134.38372093021457,
          "velocity": 0.4566929133858268,
          "duration": 0.06976744186044925
        },
        {
          "name": "F7",
          "midi": 101,
          "time": 134.3953488371913,
          "velocity": 0.13385826771653545,
          "duration": 0.04651162790696617
        },
        {
          "name": "G3",
          "midi": 55,
          "time": 134.43023255812153,
          "velocity": 0.4566929133858268,
          "duration": 0.06976744186044925
        },
        {
          "name": "E4",
          "midi": 64,
          "time": 134.44186046509827,
          "velocity": 0.33858267716535434,
          "duration": 0.12790697674415696
        },
        {
          "name": "D5",
          "midi": 74,
          "time": 134.45348837207501,
          "velocity": 0.41732283464566927,
          "duration": 0.2209302325580893
        },
        {
          "name": "F#6",
          "midi": 90,
          "time": 134.46511627905176,
          "velocity": 0.25984251968503935,
          "duration": 0.1627906976743816
        },
        {
          "name": "D#7",
          "midi": 99,
          "time": 134.46511627905176,
          "velocity": 0.16535433070866143,
          "duration": 0.04651162790696617
        },
        {
          "name": "A5",
          "midi": 81,
          "time": 134.4767441860285,
          "velocity": 0.2992125984251969,
          "duration": 0.15116279069764005
        },
        {
          "name": "D2",
          "midi": 38,
          "time": 134.48837209300524,
          "velocity": 0.2992125984251969,
          "duration": 0.023255813953483084
        },
        {
          "name": "C3",
          "midi": 48,
          "time": 134.48837209300524,
          "velocity": 0.4645669291338583,
          "duration": 0.034883720930224626
        },
        {
          "name": "C#6",
          "midi": 85,
          "time": 134.48837209300524,
          "velocity": 0.2047244094488189,
          "duration": 0.04651162790696617
        },
        {
          "name": "D#6",
          "midi": 87,
          "time": 134.48837209300524,
          "velocity": 0.13385826771653545,
          "duration": 0.034883720930224626
        },
        {
          "name": "G#6",
          "midi": 92,
          "time": 134.48837209300524,
          "velocity": 0.12598425196850394,
          "duration": 0.034883720930224626
        },
        {
          "name": "F#7",
          "midi": 102,
          "time": 134.48837209300524,
          "velocity": 0.29133858267716534,
          "duration": 0.31395348837202164
        },
        {
          "name": "A#4",
          "midi": 70,
          "time": 134.49999999998198,
          "velocity": 0.30708661417322836,
          "duration": 0.05813953488370771
        },
        {
          "name": "F#5",
          "midi": 78,
          "time": 134.49999999998198,
          "velocity": 0.3464566929133858,
          "duration": 0.034883720930224626
        },
        {
          "name": "F7",
          "midi": 101,
          "time": 134.49999999998198,
          "velocity": 0.2204724409448819,
          "duration": 0.2558139534883139
        },
        {
          "name": "G7",
          "midi": 103,
          "time": 134.49999999998198,
          "velocity": 0.14960629921259844,
          "duration": 0.034883720930224626
        },
        {
          "name": "C#2",
          "midi": 37,
          "time": 134.51162790695872,
          "velocity": 0.3858267716535433,
          "duration": 0.023255813953483084
        },
        {
          "name": "B3",
          "midi": 59,
          "time": 134.51162790695872,
          "velocity": 0.3543307086614173,
          "duration": 0.023255813953483084
        },
        {
          "name": "B5",
          "midi": 83,
          "time": 134.51162790695872,
          "velocity": 0.2755905511811024,
          "duration": 0.06976744186044925
        },
        {
          "name": "C7",
          "midi": 96,
          "time": 134.52325581393546,
          "velocity": 0.2440944881889764,
          "duration": 0.279069767441797
        },
        {
          "name": "F6",
          "midi": 89,
          "time": 134.5348837209122,
          "velocity": 0.07874015748031496,
          "duration": 0.04651162790696617
        },
        {
          "name": "C4",
          "midi": 60,
          "time": 134.54651162788895,
          "velocity": 0.3700787401574803,
          "duration": 0.034883720930224626
        },
        {
          "name": "D#7",
          "midi": 99,
          "time": 134.54651162788895,
          "velocity": 0.25196850393700787,
          "duration": 0.4418604651161786
        },
        {
          "name": "G#2",
          "midi": 44,
          "time": 134.5581395348657,
          "velocity": 0.5118110236220472,
          "duration": 0.011627906976741542
        },
        {
          "name": "G3",
          "midi": 55,
          "time": 134.56976744184243,
          "velocity": 0.25196850393700787,
          "duration": 0.023255813953483084
        },
        {
          "name": "F#4",
          "midi": 66,
          "time": 134.58139534881917,
          "velocity": 0.1968503937007874,
          "duration": 0.04651162790696617
        },
        {
          "name": "E3",
          "midi": 52,
          "time": 134.5930232557959,
          "velocity": 0.28346456692913385,
          "duration": 0.023255813953483084
        },
        {
          "name": "C#7",
          "midi": 97,
          "time": 134.5930232557959,
          "velocity": 0.1732283464566929,
          "duration": 0.11627906976741542
        },
        {
          "name": "A#3",
          "midi": 58,
          "time": 134.60465116277265,
          "velocity": 0.25984251968503935,
          "duration": 0.05813953488370771
        },
        {
          "name": "G4",
          "midi": 67,
          "time": 134.6162790697494,
          "velocity": 0.2677165354330709,
          "duration": 0.0813953488371908
        },
        {
          "name": "E4",
          "midi": 64,
          "time": 134.62790697672614,
          "velocity": 0.2125984251968504,
          "duration": 0.05813953488370771
        },
        {
          "name": "C5",
          "midi": 72,
          "time": 134.63953488370288,
          "velocity": 0.14960629921259844,
          "duration": 0.06976744186044925
        },
        {
          "name": "A5",
          "midi": 81,
          "time": 134.63953488370288,
          "velocity": 0.18110236220472442,
          "duration": 0.11627906976741542
        },
        {
          "name": "B5",
          "midi": 83,
          "time": 134.65116279067962,
          "velocity": 0.1889763779527559,
          "duration": 0.1395348837208985
        },
        {
          "name": "F#6",
          "midi": 90,
          "time": 134.65116279067962,
          "velocity": 0.1968503937007874,
          "duration": 0.279069767441797
        },
        {
          "name": "G#2",
          "midi": 44,
          "time": 134.66279069765636,
          "velocity": 0.2992125984251969,
          "duration": 0.023255813953483084
        },
        {
          "name": "D3",
          "midi": 50,
          "time": 134.66279069765636,
          "velocity": 0.2283464566929134,
          "duration": 0.023255813953483084
        },
        {
          "name": "B3",
          "midi": 59,
          "time": 134.66279069765636,
          "velocity": 0.25984251968503935,
          "duration": 0.034883720930224626
        },
        {
          "name": "C4",
          "midi": 60,
          "time": 134.6976744185866,
          "velocity": 0.28346456692913385,
          "duration": 0.06976744186044925
        },
        {
          "name": "A#6",
          "midi": 94,
          "time": 134.6976744185866,
          "velocity": 0.07874015748031496,
          "duration": 0.04651162790696617
        },
        {
          "name": "C#2",
          "midi": 37,
          "time": 134.70930232556333,
          "velocity": 0.5196850393700787,
          "duration": 0.011627906976741542
        },
        {
          "name": "G4",
          "midi": 67,
          "time": 134.70930232556333,
          "velocity": 0.36220472440944884,
          "duration": 0.2209302325580893
        },
        {
          "name": "D5",
          "midi": 74,
          "time": 134.70930232556333,
          "velocity": 0.23622047244094488,
          "duration": 0.23255813953483084
        },
        {
          "name": "G#6",
          "midi": 92,
          "time": 134.70930232556333,
          "velocity": 0.07086614173228346,
          "duration": 0.04651162790696617
        },
        {
          "name": "B1",
          "midi": 35,
          "time": 134.72093023254007,
          "velocity": 0.47244094488188976,
          "duration": 0.023255813953483084
        },
        {
          "name": "G7",
          "midi": 103,
          "time": 134.7325581395168,
          "velocity": 0.11811023622047244,
          "duration": 0.0813953488371908
        },
        {
          "name": "C#7",
          "midi": 97,
          "time": 134.74418604649355,
          "velocity": 0.28346456692913385,
          "duration": 0.3023255813952801
        },
        {
          "name": "D3",
          "midi": 50,
          "time": 134.7558139534703,
          "velocity": 0.3700787401574803,
          "duration": 0.023255813953483084
        },
        {
          "name": "G#3",
          "midi": 56,
          "time": 134.7558139534703,
          "velocity": 0.3228346456692913,
          "duration": 0.023255813953483084
        },
        {
          "name": "A#4",
          "midi": 70,
          "time": 134.76744186044704,
          "velocity": 0.2440944881889764,
          "duration": 0.1627906976743816
        },
        {
          "name": "A2",
          "midi": 45,
          "time": 134.77906976742378,
          "velocity": 0.3937007874015748,
          "duration": 0.023255813953483084
        },
        {
          "name": "E4",
          "midi": 64,
          "time": 134.77906976742378,
          "velocity": 0.33858267716535434,
          "duration": 0.1627906976743816
        },
        {
          "name": "C4",
          "midi": 60,
          "time": 134.79069767440052,
          "velocity": 0.2755905511811024,
          "duration": 0.0813953488371908
        },
        {
          "name": "A5",
          "midi": 81,
          "time": 134.79069767440052,
          "velocity": 0.10236220472440945,
          "duration": 0.0813953488371908
        },
        {
          "name": "B5",
          "midi": 83,
          "time": 134.813953488354,
          "velocity": 0.2047244094488189,
          "duration": 0.1627906976743816
        },
        {
          "name": "G3",
          "midi": 55,
          "time": 134.86046511626097,
          "velocity": 0.2755905511811024,
          "duration": 0.04651162790696617
        },
        {
          "name": "C3",
          "midi": 48,
          "time": 134.8720930232377,
          "velocity": 0.4094488188976378,
          "duration": 0.034883720930224626
        },
        {
          "name": "D#6",
          "midi": 87,
          "time": 134.8720930232377,
          "velocity": 0.15748031496062992,
          "duration": 0.20930232558134776
        },
        {
          "name": "D7",
          "midi": 98,
          "time": 134.88372093021445,
          "velocity": 0.2047244094488189,
          "duration": 0.10465116279067388
        },
        {
          "name": "E7",
          "midi": 100,
          "time": 134.88372093021445,
          "velocity": 0.3228346456692913,
          "duration": 0.558139534883594
        },
        {
          "name": "C7",
          "midi": 96,
          "time": 134.90697674416793,
          "velocity": 0.18110236220472442,
          "duration": 0.0813953488371908
        },
        {
          "name": "A4",
          "midi": 69,
          "time": 134.91860465114468,
          "velocity": 0.2992125984251969,
          "duration": 0.023255813953483084
        },
        {
          "name": "A5",
          "midi": 81,
          "time": 134.91860465114468,
          "velocity": 0.4409448818897638,
          "duration": 0.5465116279068525
        },
        {
          "name": "C3",
          "midi": 48,
          "time": 134.93023255812142,
          "velocity": 0.5511811023622047,
          "duration": 0.011627906976741542
        },
        {
          "name": "A#3",
          "midi": 58,
          "time": 134.93023255812142,
          "velocity": 0.41732283464566927,
          "duration": 0.023255813953483084
        },
        {
          "name": "F#5",
          "midi": 78,
          "time": 134.93023255812142,
          "velocity": 0.10236220472440945,
          "duration": 0.1395348837208985
        },
        {
          "name": "C6",
          "midi": 84,
          "time": 134.93023255812142,
          "velocity": 0.13385826771653545,
          "duration": 0.11627906976741542
        },
        {
          "name": "G7",
          "midi": 103,
          "time": 134.93023255812142,
          "velocity": 0.16535433070866143,
          "duration": 0.034883720930224626
        },
        {
          "name": "D6",
          "midi": 86,
          "time": 134.94186046509816,
          "velocity": 0.2677165354330709,
          "duration": 0.06976744186044925
        },
        {
          "name": "D3",
          "midi": 50,
          "time": 134.9534883720749,
          "velocity": 0.5590551181102362,
          "duration": 0.04651162790696617
        },
        {
          "name": "A3",
          "midi": 57,
          "time": 134.9534883720749,
          "velocity": 0.47244094488188976,
          "duration": 0.034883720930224626
        },
        {
          "name": "G4",
          "midi": 67,
          "time": 134.97674418602838,
          "velocity": 0.2677165354330709,
          "duration": 0.09302325581393234
        },
        {
          "name": "C5",
          "midi": 72,
          "time": 134.97674418602838,
          "velocity": 0.07086614173228346,
          "duration": 0.10465116279067388
        },
        {
          "name": "E5",
          "midi": 76,
          "time": 134.97674418602838,
          "velocity": 0.12598425196850394,
          "duration": 0.04651162790696617
        },
        {
          "name": "G7",
          "midi": 103,
          "time": 134.98837209300513,
          "velocity": 0.15748031496062992,
          "duration": 0.12790697674415696
        },
        {
          "name": "C#3",
          "midi": 49,
          "time": 134.99999999998187,
          "velocity": 0.6062992125984252,
          "duration": 0.011627906976741542
        },
        {
          "name": "D3",
          "midi": 50,
          "time": 135.0116279069586,
          "velocity": 0.6141732283464567,
          "duration": 0.011627906976741542
        },
        {
          "name": "D#3",
          "midi": 51,
          "time": 135.02325581393535,
          "velocity": 0.6220472440944882,
          "duration": 0.011627906976741542
        },
        {
          "name": "D3",
          "midi": 50,
          "time": 135.0348837209121,
          "velocity": 0.6220472440944882,
          "duration": 0.023255813953483084
        },
        {
          "name": "A4",
          "midi": 69,
          "time": 135.0348837209121,
          "velocity": 0.2283464566929134,
          "duration": 0.10465116279067388
        },
        {
          "name": "A2",
          "midi": 45,
          "time": 135.04651162788883,
          "velocity": 0.5669291338582677,
          "duration": 0.011627906976741542
        },
        {
          "name": "C3",
          "midi": 48,
          "time": 135.05813953486557,
          "velocity": 0.6141732283464567,
          "duration": 0.011627906976741542
        },
        {
          "name": "A2",
          "midi": 45,
          "time": 135.06976744184232,
          "velocity": 0.5196850393700787,
          "duration": 0.011627906976741542
        },
        {
          "name": "D3",
          "midi": 50,
          "time": 135.06976744184232,
          "velocity": 0.5196850393700787,
          "duration": 0.011627906976741542
        },
        {
          "name": "A3",
          "midi": 57,
          "time": 135.0930232557958,
          "velocity": 0.3543307086614173,
          "duration": 0.05813953488370771
        },
        {
          "name": "F#6",
          "midi": 90,
          "time": 135.10465116277254,
          "velocity": 0.12598425196850394,
          "duration": 0.04651162790696617
        },
        {
          "name": "D#7",
          "midi": 99,
          "time": 135.11627906974928,
          "velocity": 0.14960629921259844,
          "duration": 0.0813953488371908
        },
        {
          "name": "G4",
          "midi": 67,
          "time": 135.12790697672602,
          "velocity": 0.2755905511811024,
          "duration": 0.023255813953483084
        },
        {
          "name": "E6",
          "midi": 88,
          "time": 135.12790697672602,
          "velocity": 0.2677165354330709,
          "duration": 0.1395348837208985
        },
        {
          "name": "D7",
          "midi": 98,
          "time": 135.12790697672602,
          "velocity": 0.11023622047244094,
          "duration": 0.04651162790696617
        },
        {
          "name": "E2",
          "midi": 40,
          "time": 135.13953488370277,
          "velocity": 0.5118110236220472,
          "duration": 0.011627906976741542
        },
        {
          "name": "E5",
          "midi": 76,
          "time": 135.13953488370277,
          "velocity": 0.3228346456692913,
          "duration": 0.1395348837208985
        },
        {
          "name": "F#5",
          "midi": 78,
          "time": 135.13953488370277,
          "velocity": 0.2992125984251969,
          "duration": 0.1627906976743816
        },
        {
          "name": "C#7",
          "midi": 97,
          "time": 135.13953488370277,
          "velocity": 0.1889763779527559,
          "duration": 0.2209302325580893
        },
        {
          "name": "G7",
          "midi": 103,
          "time": 135.13953488370277,
          "velocity": 0.14960629921259844,
          "duration": 0.3023255813952801
        },
        {
          "name": "D3",
          "midi": 50,
          "time": 135.1511627906795,
          "velocity": 0.6141732283464567,
          "duration": 0.11627906976741542
        },
        {
          "name": "F#4",
          "midi": 66,
          "time": 135.1511627906795,
          "velocity": 0.30708661417322836,
          "duration": 0.17441860465112313
        },
        {
          "name": "G#4",
          "midi": 68,
          "time": 135.1511627906795,
          "velocity": 0.2440944881889764,
          "duration": 0.034883720930224626
        },
        {
          "name": "A3",
          "midi": 57,
          "time": 135.16279069765625,
          "velocity": 0.44881889763779526,
          "duration": 0.034883720930224626
        },
        {
          "name": "B6",
          "midi": 95,
          "time": 135.174418604633,
          "velocity": 0.1732283464566929,
          "duration": 0.04651162790696617
        },
        {
          "name": "A#3",
          "midi": 58,
          "time": 135.19767441858647,
          "velocity": 0.36220472440944884,
          "duration": 0.023255813953483084
        },
        {
          "name": "F#7",
          "midi": 102,
          "time": 135.20930232556321,
          "velocity": 0.11023622047244094,
          "duration": 0.034883720930224626
        },
        {
          "name": "A3",
          "midi": 57,
          "time": 135.24418604649344,
          "velocity": 0.23622047244094488,
          "duration": 0.034883720930224626
        },
        {
          "name": "B6",
          "midi": 95,
          "time": 135.24418604649344,
          "velocity": 0.11023622047244094,
          "duration": 0.05813953488370771
        },
        {
          "name": "A2",
          "midi": 45,
          "time": 135.25581395347018,
          "velocity": 0.5511811023622047,
          "duration": 0.011627906976741542
        },
        {
          "name": "D#3",
          "midi": 51,
          "time": 135.26744186044692,
          "velocity": 0.6220472440944882,
          "duration": 0.011627906976741542
        },
        {
          "name": "A2",
          "midi": 45,
          "time": 135.27906976742366,
          "velocity": 0.5748031496062992,
          "duration": 0.04651162790696617
        },
        {
          "name": "D3",
          "midi": 50,
          "time": 135.27906976742366,
          "velocity": 0.5826771653543307,
          "duration": 0.023255813953483084
        },
        {
          "name": "E5",
          "midi": 76,
          "time": 135.3139534883539,
          "velocity": 0.2047244094488189,
          "duration": 0.034883720930224626
        },
        {
          "name": "B6",
          "midi": 95,
          "time": 135.32558139533063,
          "velocity": 0.4409448818897638,
          "duration": 0.48837209302314477
        },
        {
          "name": "D#3",
          "midi": 51,
          "time": 135.33720930230737,
          "velocity": 0.4094488188976378,
          "duration": 0.023255813953483084
        },
        {
          "name": "A#3",
          "midi": 58,
          "time": 135.3488372092841,
          "velocity": 0.4645669291338583,
          "duration": 0.034883720930224626
        },
        {
          "name": "G4",
          "midi": 67,
          "time": 135.3488372092841,
          "velocity": 0.47244094488188976,
          "duration": 0.034883720930224626
        },
        {
          "name": "F#5",
          "midi": 78,
          "time": 135.3488372092841,
          "velocity": 0.2125984251968504,
          "duration": 0.034883720930224626
        },
        {
          "name": "E6",
          "midi": 88,
          "time": 135.3488372092841,
          "velocity": 0.2047244094488189,
          "duration": 0.04651162790696617
        },
        {
          "name": "F#6",
          "midi": 90,
          "time": 135.3488372092841,
          "velocity": 0.2204724409448819,
          "duration": 0.3372093023255047
        },
        {
          "name": "G#6",
          "midi": 92,
          "time": 135.3488372092841,
          "velocity": 0.1732283464566929,
          "duration": 0.034883720930224626
        },
        {
          "name": "D7",
          "midi": 98,
          "time": 135.3488372092841,
          "velocity": 0.1968503937007874,
          "duration": 0.26744186046505547
        },
        {
          "name": "D#7",
          "midi": 99,
          "time": 135.3488372092841,
          "velocity": 0.2440944881889764,
          "duration": 0.39534883720921243
        },
        {
          "name": "F7",
          "midi": 101,
          "time": 135.3488372092841,
          "velocity": 0.10236220472440945,
          "duration": 0.12790697674415696
        },
        {
          "name": "F#7",
          "midi": 102,
          "time": 135.3488372092841,
          "velocity": 0.2755905511811024,
          "duration": 0.5232558139533694
        },
        {
          "name": "E5",
          "midi": 76,
          "time": 135.36046511626085,
          "velocity": 0.2677165354330709,
          "duration": 0.023255813953483084
        },
        {
          "name": "C6",
          "midi": 84,
          "time": 135.36046511626085,
          "velocity": 0.14173228346456693,
          "duration": 0.04651162790696617
        },
        {
          "name": "C7",
          "midi": 96,
          "time": 135.36046511626085,
          "velocity": 0.2677165354330709,
          "duration": 0.034883720930224626
        },
        {
          "name": "C#5",
          "midi": 73,
          "time": 135.3720930232376,
          "velocity": 0.2677165354330709,
          "duration": 0.023255813953483084
        },
        {
          "name": "G#5",
          "midi": 80,
          "time": 135.3720930232376,
          "velocity": 0.13385826771653545,
          "duration": 0.034883720930224626
        },
        {
          "name": "B3",
          "midi": 59,
          "time": 135.38372093021434,
          "velocity": 0.2755905511811024,
          "duration": 0.023255813953483084
        },
        {
          "name": "B5",
          "midi": 83,
          "time": 135.38372093021434,
          "velocity": 0.1732283464566929,
          "duration": 0.04651162790696617
        },
        {
          "name": "C#7",
          "midi": 97,
          "time": 135.38372093021434,
          "velocity": 0.1732283464566929,
          "duration": 0.034883720930224626
        },
        {
          "name": "A#4",
          "midi": 70,
          "time": 135.39534883719108,
          "velocity": 0.2283464566929134,
          "duration": 0.023255813953483084
        },
        {
          "name": "D5",
          "midi": 74,
          "time": 135.39534883719108,
          "velocity": 0.25196850393700787,
          "duration": 0.1627906976743816
        },
        {
          "name": "E5",
          "midi": 76,
          "time": 135.39534883719108,
          "velocity": 0.16535433070866143,
          "duration": 0.05813953488370771
        },
        {
          "name": "E6",
          "midi": 88,
          "time": 135.40697674416782,
          "velocity": 0.1889763779527559,
          "duration": 0.04651162790696617
        },
        {
          "name": "C7",
          "midi": 96,
          "time": 135.40697674416782,
          "velocity": 0.12598425196850394,
          "duration": 0.04651162790696617
        },
        {
          "name": "G#2",
          "midi": 44,
          "time": 135.41860465114456,
          "velocity": 0.4409448818897638,
          "duration": 0.023255813953483084
        },
        {
          "name": "F#4",
          "midi": 66,
          "time": 135.41860465114456,
          "velocity": 0.31496062992125984,
          "duration": 0.09302325581393234
        },
        {
          "name": "B4",
          "midi": 71,
          "time": 135.4302325581213,
          "velocity": 0.14960629921259844,
          "duration": 0.034883720930224626
        },
        {
          "name": "C#7",
          "midi": 97,
          "time": 135.4302325581213,
          "velocity": 0.25984251968503935,
          "duration": 0.20930232558134776
        },
        {
          "name": "D3",
          "midi": 50,
          "time": 135.44186046509805,
          "velocity": 0.4330708661417323,
          "duration": 0.034883720930224626
        },
        {
          "name": "A#3",
          "midi": 58,
          "time": 135.44186046509805,
          "velocity": 0.3779527559055118,
          "duration": 0.06976744186044925
        },
        {
          "name": "C5",
          "midi": 72,
          "time": 135.46511627905153,
          "velocity": 0.15748031496062992,
          "duration": 0.04651162790696617
        },
        {
          "name": "D#3",
          "midi": 51,
          "time": 135.47674418602827,
          "velocity": 0.47244094488188976,
          "duration": 0.034883720930224626
        },
        {
          "name": "A5",
          "midi": 81,
          "time": 135.47674418602827,
          "velocity": 0.28346456692913385,
          "duration": 0.37209302325572935
        },
        {
          "name": "E2",
          "midi": 40,
          "time": 135.488372093005,
          "velocity": 0.4015748031496063,
          "duration": 0.023255813953483084
        },
        {
          "name": "G7",
          "midi": 103,
          "time": 135.49999999998175,
          "velocity": 0.15748031496062992,
          "duration": 0.034883720930224626
        },
        {
          "name": "D3",
          "midi": 50,
          "time": 135.5116279069585,
          "velocity": 0.49606299212598426,
          "duration": 0.04651162790696617
        },
        {
          "name": "A4",
          "midi": 69,
          "time": 135.5116279069585,
          "velocity": 0.29133858267716534,
          "duration": 0.1627906976743816
        },
        {
          "name": "E5",
          "midi": 76,
          "time": 135.5116279069585,
          "velocity": 0.2992125984251969,
          "duration": 0.43023255813943706
        },
        {
          "name": "A#3",
          "midi": 58,
          "time": 135.53488372091198,
          "velocity": 0.2992125984251969,
          "duration": 0.034883720930224626
        },
        {
          "name": "E7",
          "midi": 100,
          "time": 135.53488372091198,
          "velocity": 0.09448818897637795,
          "duration": 0.05813953488370771
        },
        {
          "name": "E2",
          "midi": 40,
          "time": 135.55813953486546,
          "velocity": 0.3464566929133858,
          "duration": 0.023255813953483084
        },
        {
          "name": "D#3",
          "midi": 51,
          "time": 135.55813953486546,
          "velocity": 0.44881889763779526,
          "duration": 0.023255813953483084
        },
        {
          "name": "A3",
          "midi": 57,
          "time": 135.55813953486546,
          "velocity": 0.3937007874015748,
          "duration": 0.06976744186044925
        },
        {
          "name": "G4",
          "midi": 67,
          "time": 135.55813953486546,
          "velocity": 0.3228346456692913,
          "duration": 0.034883720930224626
        },
        {
          "name": "D5",
          "midi": 74,
          "time": 135.5697674418422,
          "velocity": 0.23622047244094488,
          "duration": 0.034883720930224626
        },
        {
          "name": "F#5",
          "midi": 78,
          "time": 135.5697674418422,
          "velocity": 0.28346456692913385,
          "duration": 0.39534883720921243
        },
        {
          "name": "F#2",
          "midi": 42,
          "time": 135.58139534881894,
          "velocity": 0.3543307086614173,
          "duration": 0.023255813953483084
        },
        {
          "name": "D3",
          "midi": 50,
          "time": 135.58139534881894,
          "velocity": 0.6220472440944882,
          "duration": 0.1395348837208985
        },
        {
          "name": "E4",
          "midi": 64,
          "time": 135.58139534881894,
          "velocity": 0.2755905511811024,
          "duration": 0.023255813953483084
        },
        {
          "name": "F#4",
          "midi": 66,
          "time": 135.59302325579569,
          "velocity": 0.2755905511811024,
          "duration": 0.023255813953483084
        },
        {
          "name": "B5",
          "midi": 83,
          "time": 135.59302325579569,
          "velocity": 0.23622047244094488,
          "duration": 0.24418604651157239
        },
        {
          "name": "B4",
          "midi": 71,
          "time": 135.61627906974917,
          "velocity": 0.14960629921259844,
          "duration": 0.11627906976741542
        },
        {
          "name": "F#4",
          "midi": 66,
          "time": 135.6279069767259,
          "velocity": 0.25984251968503935,
          "duration": 0.11627906976741542
        },
        {
          "name": "A3",
          "midi": 57,
          "time": 135.67441860463288,
          "velocity": 0.1968503937007874,
          "duration": 0.0813953488371908
        },
        {
          "name": "A4",
          "midi": 69,
          "time": 135.68604651160962,
          "velocity": 0.25196850393700787,
          "duration": 0.10465116279067388
        },
        {
          "name": "D3",
          "midi": 50,
          "time": 135.73255813951658,
          "velocity": 0.3779527559055118,
          "duration": 0.04651162790696617
        },
        {
          "name": "E4",
          "midi": 64,
          "time": 135.74418604649333,
          "velocity": 0.16535433070866143,
          "duration": 0.034883720930224626
        },
        {
          "name": "F#4",
          "midi": 66,
          "time": 135.75581395347007,
          "velocity": 0.16535433070866143,
          "duration": 0.06976744186044925
        },
        {
          "name": "D7",
          "midi": 98,
          "time": 135.7674418604468,
          "velocity": 0.48031496062992124,
          "duration": 0.837209302325391
        },
        {
          "name": "F#2",
          "midi": 42,
          "time": 135.77906976742355,
          "velocity": 0.3464566929133858,
          "duration": 0.023255813953483084
        },
        {
          "name": "D#3",
          "midi": 51,
          "time": 135.77906976742355,
          "velocity": 0.41732283464566927,
          "duration": 0.023255813953483084
        },
        {
          "name": "D5",
          "midi": 74,
          "time": 135.77906976742355,
          "velocity": 0.3228346456692913,
          "duration": 0.279069767441797
        },
        {
          "name": "D#6",
          "midi": 87,
          "time": 135.77906976742355,
          "velocity": 0.12598425196850394,
          "duration": 0.0813953488371908
        },
        {
          "name": "C#7",
          "midi": 97,
          "time": 135.77906976742355,
          "velocity": 0.2047244094488189,
          "duration": 0.10465116279067388
        },
        {
          "name": "A#4",
          "midi": 70,
          "time": 135.7906976744003,
          "velocity": 0.25196850393700787,
          "duration": 0.034883720930224626
        },
        {
          "name": "D#7",
          "midi": 99,
          "time": 135.7906976744003,
          "velocity": 0.2283464566929134,
          "duration": 0.034883720930224626
        },
        {
          "name": "D3",
          "midi": 50,
          "time": 135.80232558137703,
          "velocity": 0.6535433070866141,
          "duration": 0.1395348837208985
        },
        {
          "name": "A3",
          "midi": 57,
          "time": 135.80232558137703,
          "velocity": 0.4645669291338583,
          "duration": 0.06976744186044925
        },
        {
          "name": "C5",
          "midi": 72,
          "time": 135.81395348835377,
          "velocity": 0.14960629921259844,
          "duration": 0.06976744186044925
        },
        {
          "name": "C7",
          "midi": 96,
          "time": 135.81395348835377,
          "velocity": 0.14173228346456693,
          "duration": 0.04651162790696617
        },
        {
          "name": "G4",
          "midi": 67,
          "time": 135.82558139533052,
          "velocity": 0.15748031496062992,
          "duration": 0.034883720930224626
        },
        {
          "name": "B6",
          "midi": 95,
          "time": 135.83720930230726,
          "velocity": 0.11023622047244094,
          "duration": 0.05813953488370771
        },
        {
          "name": "F#2",
          "midi": 42,
          "time": 135.848837209284,
          "velocity": 0.5354330708661418,
          "duration": 0.011627906976741542
        },
        {
          "name": "D#7",
          "midi": 99,
          "time": 135.848837209284,
          "velocity": 0.16535433070866143,
          "duration": 0.06976744186044925
        },
        {
          "name": "F#4",
          "midi": 66,
          "time": 135.86046511626074,
          "velocity": 0.2125984251968504,
          "duration": 0.11627906976741542
        },
        {
          "name": "B5",
          "midi": 83,
          "time": 135.86046511626074,
          "velocity": 0.07874015748031496,
          "duration": 0.034883720930224626
        },
        {
          "name": "A2",
          "midi": 45,
          "time": 135.89534883719097,
          "velocity": 0.5905511811023622,
          "duration": 0.04651162790696617
        },
        {
          "name": "A5",
          "midi": 81,
          "time": 135.9069767441677,
          "velocity": 0.36220472440944884,
          "duration": 0.6627906976742679
        },
        {
          "name": "B6",
          "midi": 95,
          "time": 135.9302325581212,
          "velocity": 0.14173228346456693,
          "duration": 0.0813953488371908
        },
        {
          "name": "B2",
          "midi": 47,
          "time": 135.94186046509793,
          "velocity": 0.6220472440944882,
          "duration": 0.011627906976741542
        },
        {
          "name": "A2",
          "midi": 45,
          "time": 135.95348837207467,
          "velocity": 0.6141732283464567,
          "duration": 0.011627906976741542
        },
        {
          "name": "D3",
          "midi": 50,
          "time": 135.95348837207467,
          "velocity": 0.5196850393700787,
          "duration": 0.011627906976741542
        },
        {
          "name": "C#6",
          "midi": 85,
          "time": 135.95348837207467,
          "velocity": 0.08661417322834646,
          "duration": 0.034883720930224626
        },
        {
          "name": "G#2",
          "midi": 44,
          "time": 135.96511627905141,
          "velocity": 0.6141732283464567,
          "duration": 0.011627906976741542
        },
        {
          "name": "A3",
          "midi": 57,
          "time": 135.96511627905141,
          "velocity": 0.30708661417322836,
          "duration": 0.023255813953483084
        },
        {
          "name": "A2",
          "midi": 45,
          "time": 135.97674418602816,
          "velocity": 0.5433070866141733,
          "duration": 0.011627906976741542
        },
        {
          "name": "D#7",
          "midi": 99,
          "time": 135.97674418602816,
          "velocity": 0.12598425196850394,
          "duration": 0.034883720930224626
        },
        {
          "name": "A#1",
          "midi": 34,
          "time": 135.9883720930049,
          "velocity": 0.5511811023622047,
          "duration": 0.011627906976741542
        },
        {
          "name": "G#2",
          "midi": 44,
          "time": 135.99999999998164,
          "velocity": 0.6141732283464567,
          "duration": 0.023255813953483084
        },
        {
          "name": "F#5",
          "midi": 78,
          "time": 135.99999999998164,
          "velocity": 0.2440944881889764,
          "duration": 0.20930232558134776
        },
        {
          "name": "E6",
          "midi": 88,
          "time": 135.99999999998164,
          "velocity": 0.1889763779527559,
          "duration": 0.05813953488370771
        },
        {
          "name": "F#4",
          "midi": 66,
          "time": 136.01162790695838,
          "velocity": 0.31496062992125984,
          "duration": 0.18604651162786467
        },
        {
          "name": "F5",
          "midi": 77,
          "time": 136.01162790695838,
          "velocity": 0.2440944881889764,
          "duration": 0.023255813953483084
        },
        {
          "name": "C7",
          "midi": 96,
          "time": 136.01162790695838,
          "velocity": 0.2440944881889764,
          "duration": 0.0813953488371908
        },
        {
          "name": "G7",
          "midi": 103,
          "time": 136.01162790695838,
          "velocity": 0.11811023622047244,
          "duration": 0.06976744186044925
        },
        {
          "name": "B6",
          "midi": 95,
          "time": 136.02325581393512,
          "velocity": 0.14960629921259844,
          "duration": 0.09302325581393234
        },
        {
          "name": "A4",
          "midi": 69,
          "time": 136.03488372091186,
          "velocity": 0.3937007874015748,
          "duration": 0.05813953488370771
        },
        {
          "name": "E5",
          "midi": 76,
          "time": 136.03488372091186,
          "velocity": 0.31496062992125984,
          "duration": 0.17441860465112313
        },
        {
          "name": "C#7",
          "midi": 97,
          "time": 136.03488372091186,
          "velocity": 0.3543307086614173,
          "duration": 0.686046511627751
        },
        {
          "name": "F7",
          "midi": 101,
          "time": 136.0465116278886,
          "velocity": 0.07874015748031496,
          "duration": 0.06976744186044925
        },
        {
          "name": "F#7",
          "midi": 102,
          "time": 136.0697674418421,
          "velocity": 0.28346456692913385,
          "duration": 0.6511627906975264
        },
        {
          "name": "A3",
          "midi": 57,
          "time": 136.08139534881883,
          "velocity": 0.3543307086614173,
          "duration": 0.034883720930224626
        },
        {
          "name": "D4",
          "midi": 62,
          "time": 136.08139534881883,
          "velocity": 0.3464566929133858,
          "duration": 0.11627906976741542
        },
        {
          "name": "A4",
          "midi": 69,
          "time": 136.1046511627723,
          "velocity": 0.41732283464566927,
          "duration": 0.34883720930224626
        },
        {
          "name": "D#3",
          "midi": 51,
          "time": 136.11627906974905,
          "velocity": 0.48031496062992124,
          "duration": 0.034883720930224626
        },
        {
          "name": "A3",
          "midi": 57,
          "time": 136.1279069767258,
          "velocity": 0.2992125984251969,
          "duration": 0.034883720930224626
        },
        {
          "name": "D#6",
          "midi": 87,
          "time": 136.13953488370254,
          "velocity": 0.08661417322834646,
          "duration": 0.034883720930224626
        },
        {
          "name": "G7",
          "midi": 103,
          "time": 136.13953488370254,
          "velocity": 0.13385826771653545,
          "duration": 0.04651162790696617
        },
        {
          "name": "D3",
          "midi": 50,
          "time": 136.15116279067928,
          "velocity": 0.5118110236220472,
          "duration": 0.04651162790696617
        },
        {
          "name": "C#6",
          "midi": 85,
          "time": 136.17441860463276,
          "velocity": 0.1889763779527559,
          "duration": 0.05813953488370771
        },
        {
          "name": "D#7",
          "midi": 99,
          "time": 136.17441860463276,
          "velocity": 0.11811023622047244,
          "duration": 0.034883720930224626
        },
        {
          "name": "A#3",
          "midi": 58,
          "time": 136.1860465116095,
          "velocity": 0.4881889763779528,
          "duration": 0.034883720930224626
        },
        {
          "name": "D#3",
          "midi": 51,
          "time": 136.19767441858625,
          "velocity": 0.47244094488188976,
          "duration": 0.034883720930224626
        },
        {
          "name": "D5",
          "midi": 74,
          "time": 136.19767441858625,
          "velocity": 0.4409448818897638,
          "duration": 0.12790697674415696
        },
        {
          "name": "F7",
          "midi": 101,
          "time": 136.19767441858625,
          "velocity": 0.09448818897637795,
          "duration": 0.0813953488371908
        },
        {
          "name": "E4",
          "midi": 64,
          "time": 136.209302325563,
          "velocity": 0.3543307086614173,
          "duration": 0.023255813953483084
        },
        {
          "name": "C6",
          "midi": 84,
          "time": 136.209302325563,
          "velocity": 0.2047244094488189,
          "duration": 0.09302325581393234
        },
        {
          "name": "D#6",
          "midi": 87,
          "time": 136.209302325563,
          "velocity": 0.2047244094488189,
          "duration": 0.05813953488370771
        },
        {
          "name": "F#6",
          "midi": 90,
          "time": 136.209302325563,
          "velocity": 0.36220472440944884,
          "duration": 0.4999999999998863
        },
        {
          "name": "G#6",
          "midi": 92,
          "time": 136.209302325563,
          "velocity": 0.14960629921259844,
          "duration": 0.05813953488370771
        },
        {
          "name": "E7",
          "midi": 100,
          "time": 136.209302325563,
          "velocity": 0.14173228346456693,
          "duration": 0.12790697674415696
        },
        {
          "name": "G7",
          "midi": 103,
          "time": 136.209302325563,
          "velocity": 0.14960629921259844,
          "duration": 0.09302325581393234
        },
        {
          "name": "F#5",
          "midi": 78,
          "time": 136.22093023253973,
          "velocity": 0.5275590551181102,
          "duration": 0.6046511627905602
        },
        {
          "name": "G#5",
          "midi": 80,
          "time": 136.22093023253973,
          "velocity": 0.12598425196850394,
          "duration": 0.034883720930224626
        },
        {
          "name": "E6",
          "midi": 88,
          "time": 136.22093023253973,
          "velocity": 0.12598425196850394,
          "duration": 0.05813953488370771
        },
        {
          "name": "B6",
          "midi": 95,
          "time": 136.23255813951647,
          "velocity": 0.16535433070866143,
          "duration": 0.05813953488370771
        },
        {
          "name": "E5",
          "midi": 76,
          "time": 136.2441860464932,
          "velocity": 0.2204724409448819,
          "duration": 0.0813953488371908
        },
        {
          "name": "A#6",
          "midi": 94,
          "time": 136.2441860464932,
          "velocity": 0.07874015748031496,
          "duration": 0.04651162790696617
        },
        {
          "name": "G2",
          "midi": 43,
          "time": 136.25581395346995,
          "velocity": 0.4645669291338583,
          "duration": 0.034883720930224626
        },
        {
          "name": "A#3",
          "midi": 58,
          "time": 136.25581395346995,
          "velocity": 0.33070866141732286,
          "duration": 0.034883720930224626
        },
        {
          "name": "F#4",
          "midi": 66,
          "time": 136.25581395346995,
          "velocity": 0.33070866141732286,
          "duration": 0.23255813953483084
        },
        {
          "name": "C#6",
          "midi": 85,
          "time": 136.25581395346995,
          "velocity": 0.23622047244094488,
          "duration": 0.023255813953483084
        },
        {
          "name": "D3",
          "midi": 50,
          "time": 136.27906976742344,
          "velocity": 0.5275590551181102,
          "duration": 0.15116279069764005
        },
        {
          "name": "C5",
          "midi": 72,
          "time": 136.27906976742344,
          "velocity": 0.18110236220472442,
          "duration": 0.0813953488371908
        },
        {
          "name": "B3",
          "midi": 59,
          "time": 136.29069767440018,
          "velocity": 0.2440944881889764,
          "duration": 0.023255813953483084
        },
        {
          "name": "A#3",
          "midi": 58,
          "time": 136.31395348835366,
          "velocity": 0.2755905511811024,
          "duration": 0.05813953488370771
        },
        {
          "name": "A#6",
          "midi": 94,
          "time": 136.3255813953304,
          "velocity": 0.07086614173228346,
          "duration": 0.04651162790696617
        },
        {
          "name": "F7",
          "midi": 101,
          "time": 136.3255813953304,
          "velocity": 0.08661417322834646,
          "duration": 0.05813953488370771
        },
        {
          "name": "G7",
          "midi": 103,
          "time": 136.36046511626063,
          "velocity": 0.14960629921259844,
          "duration": 0.09302325581393234
        },
        {
          "name": "E5",
          "midi": 76,
          "time": 136.37209302323737,
          "velocity": 0.07086614173228346,
          "duration": 0.04651162790696617
        },
        {
          "name": "C#6",
          "midi": 85,
          "time": 136.37209302323737,
          "velocity": 0.1732283464566929,
          "duration": 0.06976744186044925
        },
        {
          "name": "E7",
          "midi": 100,
          "time": 136.37209302323737,
          "velocity": 0.2283464566929134,
          "duration": 0.18604651162786467
        },
        {
          "name": "E6",
          "midi": 88,
          "time": 136.41860465114434,
          "velocity": 0.2125984251968504,
          "duration": 0.10465116279067388
        },
        {
          "name": "C#2",
          "midi": 37,
          "time": 136.43023255812108,
          "velocity": 0.5354330708661418,
          "duration": 0.011627906976741542
        },
        {
          "name": "E5",
          "midi": 76,
          "time": 136.43023255812108,
          "velocity": 0.33858267716535434,
          "duration": 0.1627906976743816
        },
        {
          "name": "A4",
          "midi": 69,
          "time": 136.47674418602804,
          "velocity": 0.3700787401574803,
          "duration": 0.279069767441797
        },
        {
          "name": "D#7",
          "midi": 99,
          "time": 136.47674418602804,
          "velocity": 0.18110236220472442,
          "duration": 0.2558139534883139
        },
        {
          "name": "F7",
          "midi": 101,
          "time": 136.47674418602804,
          "velocity": 0.10236220472440945,
          "duration": 0.04651162790696617
        },
        {
          "name": "A#3",
          "midi": 58,
          "time": 136.48837209300478,
          "velocity": 0.3543307086614173,
          "duration": 0.023255813953483084
        },
        {
          "name": "A2",
          "midi": 45,
          "time": 136.49999999998153,
          "velocity": 0.3700787401574803,
          "duration": 0.023255813953483084
        },
        {
          "name": "F#4",
          "midi": 66,
          "time": 136.49999999998153,
          "velocity": 0.2992125984251969,
          "duration": 0.15116279069764005
        },
        {
          "name": "D5",
          "midi": 74,
          "time": 136.49999999998153,
          "velocity": 0.25984251968503935,
          "duration": 0.17441860465112313
        },
        {
          "name": "A3",
          "midi": 57,
          "time": 136.51162790695827,
          "velocity": 0.3700787401574803,
          "duration": 0.09302325581393234
        },
        {
          "name": "G7",
          "midi": 103,
          "time": 136.51162790695827,
          "velocity": 0.11023622047244094,
          "duration": 0.05813953488370771
        },
        {
          "name": "F#2",
          "midi": 42,
          "time": 136.523255813935,
          "velocity": 0.4566929133858268,
          "duration": 0.023255813953483084
        },
        {
          "name": "C#6",
          "midi": 85,
          "time": 136.53488372091175,
          "velocity": 0.16535433070866143,
          "duration": 0.1395348837208985
        },
        {
          "name": "D4",
          "midi": 62,
          "time": 136.5465116278885,
          "velocity": 0.25984251968503935,
          "duration": 0.10465116279067388
        },
        {
          "name": "E2",
          "midi": 40,
          "time": 136.55813953486523,
          "velocity": 0.47244094488188976,
          "duration": 0.023255813953483084
        },
        {
          "name": "D3",
          "midi": 50,
          "time": 136.55813953486523,
          "velocity": 0.3937007874015748,
          "duration": 0.023255813953483084
        },
        {
          "name": "D#3",
          "midi": 51,
          "time": 136.58139534881872,
          "velocity": 0.44881889763779526,
          "duration": 0.023255813953483084
        },
        {
          "name": "F7",
          "midi": 101,
          "time": 136.6046511627722,
          "velocity": 0.08661417322834646,
          "duration": 0.05813953488370771
        },
        {
          "name": "G7",
          "midi": 103,
          "time": 136.6046511627722,
          "velocity": 0.13385826771653545,
          "duration": 0.04651162790696617
        },
        {
          "name": "D#3",
          "midi": 51,
          "time": 136.61627906974894,
          "velocity": 0.5511811023622047,
          "duration": 0.034883720930224626
        },
        {
          "name": "C7",
          "midi": 96,
          "time": 136.61627906974894,
          "velocity": 0.14173228346456693,
          "duration": 0.05813953488370771
        },
        {
          "name": "D7",
          "midi": 98,
          "time": 136.61627906974894,
          "velocity": 0.2125984251968504,
          "duration": 0.24418604651157239
        },
        {
          "name": "G#2",
          "midi": 44,
          "time": 136.62790697672568,
          "velocity": 0.5511811023622047,
          "duration": 0.023255813953483084
        },
        {
          "name": "C5",
          "midi": 72,
          "time": 136.63953488370242,
          "velocity": 0.25196850393700787,
          "duration": 0.023255813953483084
        },
        {
          "name": "E5",
          "midi": 76,
          "time": 136.63953488370242,
          "velocity": 0.33858267716535434,
          "duration": 0.05813953488370771
        },
        {
          "name": "B6",
          "midi": 95,
          "time": 136.63953488370242,
          "velocity": 0.3779527559055118,
          "duration": 0.4186046511626955
        },
        {
          "name": "E7",
          "midi": 100,
          "time": 136.63953488370242,
          "velocity": 0.36220472440944884,
          "duration": 2.48837209302269
        },
        {
          "name": "C3",
          "midi": 48,
          "time": 136.65116279067917,
          "velocity": 0.6220472440944882,
          "duration": 0.011627906976741542
        },
        {
          "name": "E4",
          "midi": 64,
          "time": 136.65116279067917,
          "velocity": 0.41732283464566927,
          "duration": 0.29069767441853855
        },
        {
          "name": "B5",
          "midi": 83,
          "time": 136.65116279067917,
          "velocity": 0.14173228346456693,
          "duration": 0.06976744186044925
        },
        {
          "name": "D3",
          "midi": 50,
          "time": 136.6627906976559,
          "velocity": 0.5905511811023622,
          "duration": 0.011627906976741542
        },
        {
          "name": "B3",
          "midi": 59,
          "time": 136.6627906976559,
          "velocity": 0.3858267716535433,
          "duration": 0.04651162790696617
        },
        {
          "name": "A6",
          "midi": 93,
          "time": 136.6627906976559,
          "velocity": 0.11023622047244094,
          "duration": 0.034883720930224626
        },
        {
          "name": "E3",
          "midi": 52,
          "time": 136.67441860463265,
          "velocity": 0.49606299212598426,
          "duration": 0.04651162790696617
        },
        {
          "name": "A#6",
          "midi": 94,
          "time": 136.67441860463265,
          "velocity": 0.2204724409448819,
          "duration": 0.04651162790696617
        },
        {
          "name": "D#5",
          "midi": 75,
          "time": 136.6860465116094,
          "velocity": 0.3228346456692913,
          "duration": 0.023255813953483084
        },
        {
          "name": "F2",
          "midi": 41,
          "time": 136.69767441858613,
          "velocity": 0.49606299212598426,
          "duration": 0.034883720930224626
        },
        {
          "name": "D5",
          "midi": 74,
          "time": 136.70930232556287,
          "velocity": 0.14173228346456693,
          "duration": 0.034883720930224626
        },
        {
          "name": "E5",
          "midi": 76,
          "time": 136.70930232556287,
          "velocity": 0.4645669291338583,
          "duration": 2.511627906976173
        },
        {
          "name": "B3",
          "midi": 59,
          "time": 136.72093023253962,
          "velocity": 0.36220472440944884,
          "duration": 0.04651162790696617
        },
        {
          "name": "E3",
          "midi": 52,
          "time": 136.73255813951636,
          "velocity": 0.5275590551181102,
          "duration": 0.023255813953483084
        },
        {
          "name": "F3",
          "midi": 53,
          "time": 136.75581395346984,
          "velocity": 0.5433070866141733,
          "duration": 0.011627906976741542
        },
        {
          "name": "E3",
          "midi": 52,
          "time": 136.76744186044658,
          "velocity": 0.5590551181102362,
          "duration": 0.034883720930224626
        },
        {
          "name": "A4",
          "midi": 69,
          "time": 136.77906976742332,
          "velocity": 0.23622047244094488,
          "duration": 0.09302325581393234
        },
        {
          "name": "C#3",
          "midi": 49,
          "time": 136.8023255813768,
          "velocity": 0.31496062992125984,
          "duration": 0.023255813953483084
        },
        {
          "name": "A3",
          "midi": 57,
          "time": 136.83720930230703,
          "velocity": 0.28346456692913385,
          "duration": 0.04651162790696617
        },
        {
          "name": "F#5",
          "midi": 78,
          "time": 136.84883720928377,
          "velocity": 0.41732283464566927,
          "duration": 0.18604651162786467
        },
        {
          "name": "C2",
          "midi": 36,
          "time": 136.8604651162605,
          "velocity": 0.5196850393700787,
          "duration": 0.011627906976741542
        },
        {
          "name": "G4",
          "midi": 67,
          "time": 136.8604651162605,
          "velocity": 0.5511811023622047,
          "duration": 0.2558139534883139
        },
        {
          "name": "C#7",
          "midi": 97,
          "time": 136.8604651162605,
          "velocity": 0.14960629921259844,
          "duration": 0.05813953488370771
        },
        {
          "name": "E3",
          "midi": 52,
          "time": 136.89534883719074,
          "velocity": 0.4409448818897638,
          "duration": 0.023255813953483084
        },
        {
          "name": "B3",
          "midi": 59,
          "time": 136.89534883719074,
          "velocity": 0.3228346456692913,
          "duration": 0.034883720930224626
        },
        {
          "name": "F2",
          "midi": 41,
          "time": 136.90697674416748,
          "velocity": 0.5118110236220472,
          "duration": 0.011627906976741542
        },
        {
          "name": "E3",
          "midi": 52,
          "time": 136.93023255812096,
          "velocity": 0.5669291338582677,
          "duration": 0.06976744186044925
        },
        {
          "name": "B3",
          "midi": 59,
          "time": 136.9651162790512,
          "velocity": 0.4015748031496063,
          "duration": 0.10465116279067388
        },
        {
          "name": "F3",
          "midi": 53,
          "time": 136.9999999999814,
          "velocity": 0.5196850393700787,
          "duration": 0.011627906976741542
        },
        {
          "name": "E3",
          "midi": 52,
          "time": 137.01162790695815,
          "velocity": 0.49606299212598426,
          "duration": 0.04651162790696617
        },
        {
          "name": "E2",
          "midi": 40,
          "time": 137.03488372091164,
          "velocity": 0.5118110236220472,
          "duration": 0.023255813953483084
        },
        {
          "name": "D5",
          "midi": 74,
          "time": 137.05813953486512,
          "velocity": 0.3858267716535433,
          "duration": 0.05813953488370771
        },
        {
          "name": "A#5",
          "midi": 82,
          "time": 137.05813953486512,
          "velocity": 0.25196850393700787,
          "duration": 0.023255813953483084
        },
        {
          "name": "F#6",
          "midi": 90,
          "time": 137.05813953486512,
          "velocity": 0.07874015748031496,
          "duration": 0.06976744186044925
        },
        {
          "name": "G#6",
          "midi": 92,
          "time": 137.05813953486512,
          "velocity": 0.10236220472440945,
          "duration": 0.09302325581393234
        },
        {
          "name": "B4",
          "midi": 71,
          "time": 137.06976744184186,
          "velocity": 0.30708661417322836,
          "duration": 0.06976744186044925
        },
        {
          "name": "C6",
          "midi": 84,
          "time": 137.06976744184186,
          "velocity": 0.16535433070866143,
          "duration": 0.034883720930224626
        },
        {
          "name": "B6",
          "midi": 95,
          "time": 137.06976744184186,
          "velocity": 0.33070866141732286,
          "duration": 2.1395348837204438
        },
        {
          "name": "C#7",
          "midi": 97,
          "time": 137.06976744184186,
          "velocity": 0.23622047244094488,
          "duration": 0.29069767441853855
        },
        {
          "name": "D7",
          "midi": 98,
          "time": 137.06976744184186,
          "velocity": 0.1968503937007874,
          "duration": 0.11627906976741542
        },
        {
          "name": "D#7",
          "midi": 99,
          "time": 137.06976744184186,
          "velocity": 0.1889763779527559,
          "duration": 0.06976744186044925
        },
        {
          "name": "F#7",
          "midi": 102,
          "time": 137.06976744184186,
          "velocity": 0.12598425196850394,
          "duration": 0.11627906976741542
        },
        {
          "name": "F3",
          "midi": 53,
          "time": 137.0813953488186,
          "velocity": 0.30708661417322836,
          "duration": 0.023255813953483084
        },
        {
          "name": "A#3",
          "midi": 58,
          "time": 137.0813953488186,
          "velocity": 0.3858267716535433,
          "duration": 0.023255813953483084
        },
        {
          "name": "E4",
          "midi": 64,
          "time": 137.0813953488186,
          "velocity": 0.3700787401574803,
          "duration": 0.023255813953483084
        },
        {
          "name": "A5",
          "midi": 81,
          "time": 137.0813953488186,
          "velocity": 0.29133858267716534,
          "duration": 0.24418604651157239
        },
        {
          "name": "B3",
          "midi": 59,
          "time": 137.1046511627721,
          "velocity": 0.3543307086614173,
          "duration": 0.023255813953483084
        },
        {
          "name": "D#6",
          "midi": 87,
          "time": 137.1046511627721,
          "velocity": 0.11023622047244094,
          "duration": 0.04651162790696617
        },
        {
          "name": "F#2",
          "midi": 42,
          "time": 137.11627906974883,
          "velocity": 0.4645669291338583,
          "duration": 0.023255813953483084
        },
        {
          "name": "A4",
          "midi": 69,
          "time": 137.11627906974883,
          "velocity": 0.2440944881889764,
          "duration": 0.05813953488370771
        },
        {
          "name": "D6",
          "midi": 86,
          "time": 137.11627906974883,
          "velocity": 0.10236220472440945,
          "duration": 0.10465116279067388
        },
        {
          "name": "F7",
          "midi": 101,
          "time": 137.11627906974883,
          "velocity": 0.14960629921259844,
          "duration": 0.1627906976743816
        },
        {
          "name": "A3",
          "midi": 57,
          "time": 137.12790697672557,
          "velocity": 0.3228346456692913,
          "duration": 0.023255813953483084
        },
        {
          "name": "F#5",
          "midi": 78,
          "time": 137.12790697672557,
          "velocity": 0.1889763779527559,
          "duration": 0.034883720930224626
        },
        {
          "name": "G7",
          "midi": 103,
          "time": 137.12790697672557,
          "velocity": 0.09448818897637795,
          "duration": 0.034883720930224626
        },
        {
          "name": "E4",
          "midi": 64,
          "time": 137.1395348837023,
          "velocity": 0.3228346456692913,
          "duration": 0.12790697674415696
        },
        {
          "name": "D5",
          "midi": 74,
          "time": 137.1395348837023,
          "velocity": 0.25196850393700787,
          "duration": 0.034883720930224626
        },
        {
          "name": "A#2",
          "midi": 46,
          "time": 137.15116279067905,
          "velocity": 0.4015748031496063,
          "duration": 0.023255813953483084
        },
        {
          "name": "E3",
          "midi": 52,
          "time": 137.15116279067905,
          "velocity": 0.31496062992125984,
          "duration": 0.023255813953483084
        },
        {
          "name": "G#4",
          "midi": 68,
          "time": 137.1627906976558,
          "velocity": 0.2283464566929134,
          "duration": 0.023255813953483084
        },
        {
          "name": "B4",
          "midi": 71,
          "time": 137.1627906976558,
          "velocity": 0.13385826771653545,
          "duration": 0.04651162790696617
        },
        {
          "name": "D#6",
          "midi": 87,
          "time": 137.17441860463254,
          "velocity": 0.13385826771653545,
          "duration": 0.05813953488370771
        },
        {
          "name": "A4",
          "midi": 69,
          "time": 137.18604651160928,
          "velocity": 0.2283464566929134,
          "duration": 0.09302325581393234
        },
        {
          "name": "F#5",
          "midi": 78,
          "time": 137.18604651160928,
          "velocity": 0.18110236220472442,
          "duration": 0.04651162790696617
        },
        {
          "name": "G#6",
          "midi": 92,
          "time": 137.18604651160928,
          "velocity": 0.1889763779527559,
          "duration": 0.17441860465112313
        },
        {
          "name": "F3",
          "midi": 53,
          "time": 137.19767441858602,
          "velocity": 0.3937007874015748,
          "duration": 0.04651162790696617
        },
        {
          "name": "B3",
          "midi": 59,
          "time": 137.19767441858602,
          "velocity": 0.29133858267716534,
          "duration": 0.023255813953483084
        },
        {
          "name": "G4",
          "midi": 67,
          "time": 137.19767441858602,
          "velocity": 0.2125984251968504,
          "duration": 0.04651162790696617
        },
        {
          "name": "F2",
          "midi": 41,
          "time": 137.20930232556276,
          "velocity": 0.5196850393700787,
          "duration": 0.023255813953483084
        },
        {
          "name": "D5",
          "midi": 74,
          "time": 137.20930232556276,
          "velocity": 0.11023622047244094,
          "duration": 0.034883720930224626
        },
        {
          "name": "D7",
          "midi": 98,
          "time": 137.20930232556276,
          "velocity": 0.2283464566929134,
          "duration": 0.15116279069764005
        },
        {
          "name": "C4",
          "midi": 60,
          "time": 137.2209302325395,
          "velocity": 0.23622047244094488,
          "duration": 0.023255813953483084
        },
        {
          "name": "E2",
          "midi": 40,
          "time": 137.23255813951624,
          "velocity": 0.47244094488188976,
          "duration": 0.034883720930224626
        },
        {
          "name": "G7",
          "midi": 103,
          "time": 137.23255813951624,
          "velocity": 0.07086614173228346,
          "duration": 0.06976744186044925
        },
        {
          "name": "C4",
          "midi": 60,
          "time": 137.25581395346973,
          "velocity": 0.23622047244094488,
          "duration": 0.034883720930224626
        },
        {
          "name": "D#6",
          "midi": 87,
          "time": 137.25581395346973,
          "velocity": 0.12598425196850394,
          "duration": 0.034883720930224626
        },
        {
          "name": "B4",
          "midi": 71,
          "time": 137.26744186044647,
          "velocity": 0.2992125984251969,
          "duration": 0.1627906976743816
        },
        {
          "name": "D6",
          "midi": 86,
          "time": 137.26744186044647,
          "velocity": 0.07086614173228346,
          "duration": 0.04651162790696617
        },
        {
          "name": "F3",
          "midi": 53,
          "time": 137.2790697674232,
          "velocity": 0.4566929133858268,
          "duration": 0.023255813953483084
        },
        {
          "name": "G4",
          "midi": 67,
          "time": 137.2790697674232,
          "velocity": 0.3779527559055118,
          "duration": 0.3604651162789878
        },
        {
          "name": "F#5",
          "midi": 78,
          "time": 137.2790697674232,
          "velocity": 0.33070866141732286,
          "duration": 0.0813953488371908
        },
        {
          "name": "D#7",
          "midi": 99,
          "time": 137.2790697674232,
          "velocity": 0.15748031496062992,
          "duration": 0.0813953488371908
        },
        {
          "name": "B2",
          "midi": 47,
          "time": 137.29069767439995,
          "velocity": 0.5354330708661418,
          "duration": 0.011627906976741542
        },
        {
          "name": "G6",
          "midi": 91,
          "time": 137.29069767439995,
          "velocity": 0.08661417322834646,
          "duration": 0.06976744186044925
        },
        {
          "name": "F#7",
          "midi": 102,
          "time": 137.29069767439995,
          "velocity": 0.10236220472440945,
          "duration": 0.034883720930224626
        },
        {
          "name": "D3",
          "midi": 50,
          "time": 137.3023255813767,
          "velocity": 0.5590551181102362,
          "duration": 0.011627906976741542
        },
        {
          "name": "B3",
          "midi": 59,
          "time": 137.3023255813767,
          "velocity": 0.41732283464566927,
          "duration": 0.17441860465112313
        },
        {
          "name": "E3",
          "midi": 52,
          "time": 137.31395348835343,
          "velocity": 0.5039370078740157,
          "duration": 0.09302325581393234
        },
        {
          "name": "E2",
          "midi": 40,
          "time": 137.3604651162604,
          "velocity": 0.49606299212598426,
          "duration": 0.023255813953483084
        },
        {
          "name": "A5",
          "midi": 81,
          "time": 137.3604651162604,
          "velocity": 0.10236220472440945,
          "duration": 0.06976744186044925
        },
        {
          "name": "C3",
          "midi": 48,
          "time": 137.39534883719062,
          "velocity": 0.4566929133858268,
          "duration": 0.023255813953483084
        },
        {
          "name": "D7",
          "midi": 98,
          "time": 137.40697674416737,
          "velocity": 0.07874015748031496,
          "duration": 0.034883720930224626
        },
        {
          "name": "F#5",
          "midi": 78,
          "time": 137.45348837207433,
          "velocity": 0.10236220472440945,
          "duration": 0.034883720930224626
        },
        {
          "name": "F#7",
          "midi": 102,
          "time": 137.45348837207433,
          "velocity": 0.10236220472440945,
          "duration": 0.034883720930224626
        },
        {
          "name": "D7",
          "midi": 98,
          "time": 137.48837209300456,
          "velocity": 0.1968503937007874,
          "duration": 0.17441860465112313
        },
        {
          "name": "C3",
          "midi": 48,
          "time": 137.4999999999813,
          "velocity": 0.5669291338582677,
          "duration": 0.023255813953483084
        },
        {
          "name": "B3",
          "midi": 59,
          "time": 137.4999999999813,
          "velocity": 0.4251968503937008,
          "duration": 0.1395348837208985
        },
        {
          "name": "C5",
          "midi": 72,
          "time": 137.4999999999813,
          "velocity": 0.18110236220472442,
          "duration": 0.034883720930224626
        },
        {
          "name": "G#6",
          "midi": 92,
          "time": 137.4999999999813,
          "velocity": 0.16535433070866143,
          "duration": 0.06976744186044925
        },
        {
          "name": "E4",
          "midi": 64,
          "time": 137.51162790695804,
          "velocity": 0.3543307086614173,
          "duration": 0.406976744185954
        },
        {
          "name": "F#5",
          "midi": 78,
          "time": 137.51162790695804,
          "velocity": 0.18110236220472442,
          "duration": 0.0813953488371908
        },
        {
          "name": "C#7",
          "midi": 97,
          "time": 137.51162790695804,
          "velocity": 0.2125984251968504,
          "duration": 0.04651162790696617
        },
        {
          "name": "D#7",
          "midi": 99,
          "time": 137.51162790695804,
          "velocity": 0.13385826771653545,
          "duration": 0.04651162790696617
        },
        {
          "name": "D3",
          "midi": 50,
          "time": 137.52325581393478,
          "velocity": 0.5196850393700787,
          "duration": 0.011627906976741542
        },
        {
          "name": "E3",
          "midi": 52,
          "time": 137.53488372091152,
          "velocity": 0.5590551181102362,
          "duration": 0.09302325581393234
        },
        {
          "name": "E2",
          "midi": 40,
          "time": 137.56976744184175,
          "velocity": 0.49606299212598426,
          "duration": 0.023255813953483084
        },
        {
          "name": "F#7",
          "midi": 102,
          "time": 137.56976744184175,
          "velocity": 0.12598425196850394,
          "duration": 0.034883720930224626
        },
        {
          "name": "F2",
          "midi": 41,
          "time": 137.59302325579523,
          "velocity": 0.48031496062992124,
          "duration": 0.023255813953483084
        },
        {
          "name": "B2",
          "midi": 47,
          "time": 137.6162790697487,
          "velocity": 0.5196850393700787,
          "duration": 0.011627906976741542
        },
        {
          "name": "D#3",
          "midi": 51,
          "time": 137.62790697672546,
          "velocity": 0.5511811023622047,
          "duration": 0.011627906976741542
        },
        {
          "name": "E3",
          "midi": 52,
          "time": 137.6395348837022,
          "velocity": 0.5669291338582677,
          "duration": 0.023255813953483084
        },
        {
          "name": "F#5",
          "midi": 78,
          "time": 137.6395348837022,
          "velocity": 0.3779527559055118,
          "duration": 0.12790697674415696
        },
        {
          "name": "G#6",
          "midi": 92,
          "time": 137.6395348837022,
          "velocity": 0.14173228346456693,
          "duration": 0.034883720930224626
        },
        {
          "name": "C3",
          "midi": 48,
          "time": 137.66279069765568,
          "velocity": 0.5118110236220472,
          "duration": 0.011627906976741542
        },
        {
          "name": "F3",
          "midi": 53,
          "time": 137.66279069765568,
          "velocity": 0.5196850393700787,
          "duration": 0.011627906976741542
        },
        {
          "name": "B2",
          "midi": 47,
          "time": 137.67441860463242,
          "velocity": 0.5748031496062992,
          "duration": 0.09302325581393234
        },
        {
          "name": "B4",
          "midi": 71,
          "time": 137.68604651160916,
          "velocity": 0.2677165354330709,
          "duration": 0.23255813953483084
        },
        {
          "name": "F2",
          "midi": 41,
          "time": 137.7209302325394,
          "velocity": 0.5196850393700787,
          "duration": 0.011627906976741542
        },
        {
          "name": "G4",
          "midi": 67,
          "time": 137.7209302325394,
          "velocity": 0.4330708661417323,
          "duration": 0.3023255813952801
        },
        {
          "name": "D7",
          "midi": 98,
          "time": 137.7209302325394,
          "velocity": 0.11811023622047244,
          "duration": 0.11627906976741542
        },
        {
          "name": "C#7",
          "midi": 97,
          "time": 137.73255813951613,
          "velocity": 0.2204724409448819,
          "duration": 0.19767441860460622
        },
        {
          "name": "D#7",
          "midi": 99,
          "time": 137.73255813951613,
          "velocity": 0.11023622047244094,
          "duration": 0.05813953488370771
        },
        {
          "name": "D6",
          "midi": 86,
          "time": 137.7558139534696,
          "velocity": 0.15748031496062992,
          "duration": 0.20930232558134776
        },
        {
          "name": "A2",
          "midi": 45,
          "time": 137.76744186044635,
          "velocity": 0.5354330708661418,
          "duration": 0.011627906976741542
        },
        {
          "name": "F2",
          "midi": 41,
          "time": 137.7790697674231,
          "velocity": 0.5196850393700787,
          "duration": 0.011627906976741542
        },
        {
          "name": "B2",
          "midi": 47,
          "time": 137.7790697674231,
          "velocity": 0.5275590551181102,
          "duration": 0.011627906976741542
        },
        {
          "name": "A2",
          "midi": 45,
          "time": 137.79069767439984,
          "velocity": 0.5511811023622047,
          "duration": 0.011627906976741542
        },
        {
          "name": "D#6",
          "midi": 87,
          "time": 137.79069767439984,
          "velocity": 0.15748031496062992,
          "duration": 0.05813953488370771
        },
        {
          "name": "F#5",
          "midi": 78,
          "time": 137.80232558137658,
          "velocity": 0.33070866141732286,
          "duration": 0.24418604651157239
        },
        {
          "name": "F3",
          "midi": 53,
          "time": 137.81395348835332,
          "velocity": 0.3779527559055118,
          "duration": 0.023255813953483084
        },
        {
          "name": "G#6",
          "midi": 92,
          "time": 137.81395348835332,
          "velocity": 0.13385826771653545,
          "duration": 0.12790697674415696
        },
        {
          "name": "G#2",
          "midi": 44,
          "time": 137.8372093023068,
          "velocity": 0.41732283464566927,
          "duration": 0.023255813953483084
        },
        {
          "name": "F7",
          "midi": 101,
          "time": 137.8372093023068,
          "velocity": 0.13385826771653545,
          "duration": 0.06976744186044925
        },
        {
          "name": "E2",
          "midi": 40,
          "time": 137.87209302323703,
          "velocity": 0.41732283464566927,
          "duration": 0.023255813953483084
        },
        {
          "name": "B2",
          "midi": 47,
          "time": 137.87209302323703,
          "velocity": 0.3779527559055118,
          "duration": 0.04651162790696617
        },
        {
          "name": "D7",
          "midi": 98,
          "time": 137.87209302323703,
          "velocity": 0.2283464566929134,
          "duration": 0.34883720930224626
        },
        {
          "name": "D5",
          "midi": 74,
          "time": 137.90697674416725,
          "velocity": 0.3858267716535433,
          "duration": 0.034883720930224626
        },
        {
          "name": "E3",
          "midi": 52,
          "time": 137.918604651144,
          "velocity": 0.4645669291338583,
          "duration": 0.023255813953483084
        },
        {
          "name": "C4",
          "midi": 60,
          "time": 137.918604651144,
          "velocity": 0.4645669291338583,
          "duration": 0.04651162790696617
        },
        {
          "name": "A5",
          "midi": 81,
          "time": 137.918604651144,
          "velocity": 0.2992125984251969,
          "duration": 0.26744186046505547
        },
        {
          "name": "D#7",
          "midi": 99,
          "time": 137.918604651144,
          "velocity": 0.2440944881889764,
          "duration": 0.3255813953487632
        },
        {
          "name": "F#7",
          "midi": 102,
          "time": 137.918604651144,
          "velocity": 0.16535433070866143,
          "duration": 0.09302325581393234
        },
        {
          "name": "B5",
          "midi": 83,
          "time": 137.93023255812074,
          "velocity": 0.2204724409448819,
          "duration": 0.09302325581393234
        },
        {
          "name": "C7",
          "midi": 96,
          "time": 137.93023255812074,
          "velocity": 0.14960629921259844,
          "duration": 0.06976744186044925
        },
        {
          "name": "E4",
          "midi": 64,
          "time": 137.94186046509748,
          "velocity": 0.2992125984251969,
          "duration": 0.023255813953483084
        },
        {
          "name": "C6",
          "midi": 84,
          "time": 137.94186046509748,
          "velocity": 0.14173228346456693,
          "duration": 0.034883720930224626
        },
        {
          "name": "F#2",
          "midi": 42,
          "time": 137.95348837207422,
          "velocity": 0.4566929133858268,
          "duration": 0.023255813953483084
        },
        {
          "name": "E3",
          "midi": 52,
          "time": 137.95348837207422,
          "velocity": 0.3543307086614173,
          "duration": 0.023255813953483084
        },
        {
          "name": "B4",
          "midi": 71,
          "time": 137.95348837207422,
          "velocity": 0.36220472440944884,
          "duration": 0.406976744185954
        },
        {
          "name": "C#7",
          "midi": 97,
          "time": 137.95348837207422,
          "velocity": 0.2440944881889764,
          "duration": 0.3023255813952801
        },
        {
          "name": "F7",
          "midi": 101,
          "time": 137.95348837207422,
          "velocity": 0.2440944881889764,
          "duration": 0.279069767441797
        },
        {
          "name": "A#3",
          "midi": 58,
          "time": 137.96511627905096,
          "velocity": 0.31496062992125984,
          "duration": 0.023255813953483084
        },
        {
          "name": "D6",
          "midi": 86,
          "time": 137.98837209300444,
          "velocity": 0.13385826771653545,
          "duration": 0.0813953488371908
        },
        {
          "name": "G#6",
          "midi": 92,
          "time": 137.98837209300444,
          "velocity": 0.18110236220472442,
          "duration": 0.12790697674415696
        },
        {
          "name": "F2",
          "midi": 41,
          "time": 137.99999999998118,
          "velocity": 0.4015748031496063,
          "duration": 0.023255813953483084
        },
        {
          "name": "F4",
          "midi": 65,
          "time": 138.02325581393467,
          "velocity": 0.23622047244094488,
          "duration": 0.023255813953483084
        },
        {
          "name": "D5",
          "midi": 74,
          "time": 138.02325581393467,
          "velocity": 0.1968503937007874,
          "duration": 0.05813953488370771
        },
        {
          "name": "F#2",
          "midi": 42,
          "time": 138.0348837209114,
          "velocity": 0.30708661417322836,
          "duration": 0.023255813953483084
        },
        {
          "name": "F3",
          "midi": 53,
          "time": 138.0348837209114,
          "velocity": 0.2677165354330709,
          "duration": 0.023255813953483084
        },
        {
          "name": "A#3",
          "midi": 58,
          "time": 138.0348837209114,
          "velocity": 0.2677165354330709,
          "duration": 0.05813953488370771
        },
        {
          "name": "E4",
          "midi": 64,
          "time": 138.0348837209114,
          "velocity": 0.33858267716535434,
          "duration": 0.11627906976741542
        },
        {
          "name": "F#7",
          "midi": 102,
          "time": 138.0348837209114,
          "velocity": 0.18110236220472442,
          "duration": 0.0813953488371908
        },
        {
          "name": "D#3",
          "midi": 51,
          "time": 138.0581395348649,
          "velocity": 0.36220472440944884,
          "duration": 0.023255813953483084
        },
        {
          "name": "D#6",
          "midi": 87,
          "time": 138.06976744184163,
          "velocity": 0.08661417322834646,
          "duration": 0.034883720930224626
        },
        {
          "name": "E3",
          "midi": 52,
          "time": 138.08139534881838,
          "velocity": 0.3700787401574803,
          "duration": 0.06976744186044925
        },
        {
          "name": "F#5",
          "midi": 78,
          "time": 138.08139534881838,
          "velocity": 0.25984251968503935,
          "duration": 0.06976744186044925
        },
        {
          "name": "B3",
          "midi": 59,
          "time": 138.09302325579512,
          "velocity": 0.23622047244094488,
          "duration": 0.034883720930224626
        },
        {
          "name": "A#6",
          "midi": 94,
          "time": 138.09302325579512,
          "velocity": 0.09448818897637795,
          "duration": 0.10465116279067388
        },
        {
          "name": "G4",
          "midi": 67,
          "time": 138.10465116277186,
          "velocity": 0.33858267716535434,
          "duration": 0.26744186046505547
        },
        {
          "name": "C4",
          "midi": 60,
          "time": 138.12790697672534,
          "velocity": 0.2204724409448819,
          "duration": 0.04651162790696617
        },
        {
          "name": "E2",
          "midi": 40,
          "time": 138.13953488370208,
          "velocity": 0.5118110236220472,
          "duration": 0.011627906976741542
        },
        {
          "name": "G#2",
          "midi": 44,
          "time": 138.15116279067882,
          "velocity": 0.4881889763779528,
          "duration": 0.023255813953483084
        },
        {
          "name": "E4",
          "midi": 64,
          "time": 138.16279069765557,
          "velocity": 0.29133858267716534,
          "duration": 0.05813953488370771
        },
        {
          "name": "F#5",
          "midi": 78,
          "time": 138.16279069765557,
          "velocity": 0.30708661417322836,
          "duration": 0.11627906976741542
        },
        {
          "name": "G#6",
          "midi": 92,
          "time": 138.16279069765557,
          "velocity": 0.10236220472440945,
          "duration": 0.05813953488370771
        },
        {
          "name": "B3",
          "midi": 59,
          "time": 138.1744186046323,
          "velocity": 0.3937007874015748,
          "duration": 0.17441860465112313
        },
        {
          "name": "G#2",
          "midi": 44,
          "time": 138.18604651160905,
          "velocity": 0.47244094488188976,
          "duration": 0.034883720930224626
        },
        {
          "name": "D#6",
          "midi": 87,
          "time": 138.1976744185858,
          "velocity": 0.12598425196850394,
          "duration": 0.1627906976743816
        },
        {
          "name": "F#7",
          "midi": 102,
          "time": 138.1976744185858,
          "velocity": 0.10236220472440945,
          "duration": 0.05813953488370771
        },
        {
          "name": "F3",
          "midi": 53,
          "time": 138.22093023253927,
          "velocity": 0.3779527559055118,
          "duration": 0.023255813953483084
        },
        {
          "name": "A5",
          "midi": 81,
          "time": 138.23255813951602,
          "velocity": 0.07874015748031496,
          "duration": 0.06976744186044925
        },
        {
          "name": "F2",
          "midi": 41,
          "time": 138.24418604649276,
          "velocity": 0.5433070866141733,
          "duration": 0.06976744186044925
        },
        {
          "name": "E3",
          "midi": 52,
          "time": 138.24418604649276,
          "velocity": 0.4015748031496063,
          "duration": 0.034883720930224626
        },
        {
          "name": "C7",
          "midi": 96,
          "time": 138.24418604649276,
          "velocity": 0.09448818897637795,
          "duration": 0.05813953488370771
        },
        {
          "name": "D7",
          "midi": 98,
          "time": 138.24418604649276,
          "velocity": 0.2125984251968504,
          "duration": 0.09302325581393234
        },
        {
          "name": "D#3",
          "midi": 51,
          "time": 138.27906976742298,
          "velocity": 0.36220472440944884,
          "duration": 0.023255813953483084
        },
        {
          "name": "C#7",
          "midi": 97,
          "time": 138.27906976742298,
          "velocity": 0.2204724409448819,
          "duration": 0.15116279069764005
        },
        {
          "name": "F2",
          "midi": 41,
          "time": 138.34883720928343,
          "velocity": 0.5433070866141733,
          "duration": 0.011627906976741542
        },
        {
          "name": "C7",
          "midi": 96,
          "time": 138.34883720928343,
          "velocity": 0.07874015748031496,
          "duration": 0.034883720930224626
        },
        {
          "name": "D7",
          "midi": 98,
          "time": 138.34883720928343,
          "velocity": 0.15748031496062992,
          "duration": 0.10465116279067388
        },
        {
          "name": "F#7",
          "midi": 102,
          "time": 138.34883720928343,
          "velocity": 0.13385826771653545,
          "duration": 0.05813953488370771
        },
        {
          "name": "G2",
          "midi": 43,
          "time": 138.36046511626017,
          "velocity": 0.5826771653543307,
          "duration": 0.011627906976741542
        },
        {
          "name": "A3",
          "midi": 57,
          "time": 138.36046511626017,
          "velocity": 0.4330708661417323,
          "duration": 0.034883720930224626
        },
        {
          "name": "E4",
          "midi": 64,
          "time": 138.36046511626017,
          "velocity": 0.4566929133858268,
          "duration": 0.2558139534883139
        },
        {
          "name": "C5",
          "midi": 72,
          "time": 138.36046511626017,
          "velocity": 0.3228346456692913,
          "duration": 0.023255813953483084
        },
        {
          "name": "G#2",
          "midi": 44,
          "time": 138.3720930232369,
          "velocity": 0.5984251968503937,
          "duration": 0.011627906976741542
        },
        {
          "name": "F#2",
          "midi": 42,
          "time": 138.38372093021366,
          "velocity": 0.5118110236220472,
          "duration": 0.011627906976741542
        },
        {
          "name": "G4",
          "midi": 67,
          "time": 138.38372093021366,
          "velocity": 0.3779527559055118,
          "duration": 0.17441860465112313
        },
        {
          "name": "B4",
          "midi": 71,
          "time": 138.38372093021366,
          "velocity": 0.4094488188976378,
          "duration": 0.17441860465112313
        },
        {
          "name": "D#6",
          "midi": 87,
          "time": 138.38372093021366,
          "velocity": 0.11023622047244094,
          "duration": 0.034883720930224626
        },
        {
          "name": "B3",
          "midi": 59,
          "time": 138.40697674416714,
          "velocity": 0.3858267716535433,
          "duration": 0.04651162790696617
        },
        {
          "name": "E3",
          "midi": 52,
          "time": 138.41860465114388,
          "velocity": 0.5039370078740157,
          "duration": 0.023255813953483084
        },
        {
          "name": "F#5",
          "midi": 78,
          "time": 138.41860465114388,
          "velocity": 0.2047244094488189,
          "duration": 0.034883720930224626
        },
        {
          "name": "E3",
          "midi": 52,
          "time": 138.4534883720741,
          "velocity": 0.5118110236220472,
          "duration": 0.011627906976741542
        },
        {
          "name": "F3",
          "midi": 53,
          "time": 138.46511627905085,
          "velocity": 0.5354330708661418,
          "duration": 0.011627906976741542
        },
        {
          "name": "F#5",
          "midi": 78,
          "time": 138.4767441860276,
          "velocity": 0.14960629921259844,
          "duration": 0.05813953488370771
        },
        {
          "name": "D#3",
          "midi": 51,
          "time": 138.48837209300433,
          "velocity": 0.4645669291338583,
          "duration": 0.023255813953483084
        },
        {
          "name": "B3",
          "midi": 59,
          "time": 138.5116279069578,
          "velocity": 0.29133858267716534,
          "duration": 0.05813953488370771
        },
        {
          "name": "G#6",
          "midi": 92,
          "time": 138.5116279069578,
          "velocity": 0.11023622047244094,
          "duration": 0.034883720930224626
        },
        {
          "name": "B2",
          "midi": 47,
          "time": 138.52325581393455,
          "velocity": 0.25984251968503935,
          "duration": 0.034883720930224626
        },
        {
          "name": "F3",
          "midi": 53,
          "time": 138.52325581393455,
          "velocity": 0.25984251968503935,
          "duration": 0.023255813953483084
        },
        {
          "name": "E3",
          "midi": 52,
          "time": 138.54651162788804,
          "velocity": 0.2755905511811024,
          "duration": 0.023255813953483084
        },
        {
          "name": "F#5",
          "midi": 78,
          "time": 138.54651162788804,
          "velocity": 0.14960629921259844,
          "duration": 0.04651162790696617
        },
        {
          "name": "F#7",
          "midi": 102,
          "time": 138.54651162788804,
          "velocity": 0.08661417322834646,
          "duration": 0.04651162790696617
        },
        {
          "name": "E2",
          "midi": 40,
          "time": 138.56976744184152,
          "velocity": 0.5511811023622047,
          "duration": 0.011627906976741542
        },
        {
          "name": "G4",
          "midi": 67,
          "time": 138.56976744184152,
          "velocity": 0.4881889763779528,
          "duration": 0.2558139534883139
        },
        {
          "name": "B4",
          "midi": 71,
          "time": 138.56976744184152,
          "velocity": 0.3858267716535433,
          "duration": 0.34883720930224626
        },
        {
          "name": "F2",
          "midi": 41,
          "time": 138.58139534881826,
          "velocity": 0.5433070866141733,
          "duration": 0.011627906976741542
        },
        {
          "name": "F#5",
          "midi": 78,
          "time": 138.60465116277175,
          "velocity": 0.3228346456692913,
          "duration": 0.279069767441797
        },
        {
          "name": "C7",
          "midi": 96,
          "time": 138.60465116277175,
          "velocity": 0.11811023622047244,
          "duration": 0.034883720930224626
        },
        {
          "name": "D7",
          "midi": 98,
          "time": 138.60465116277175,
          "velocity": 0.11811023622047244,
          "duration": 0.034883720930224626
        },
        {
          "name": "E3",
          "midi": 52,
          "time": 138.6162790697485,
          "velocity": 0.4330708661417323,
          "duration": 0.023255813953483084
        },
        {
          "name": "B3",
          "midi": 59,
          "time": 138.6162790697485,
          "velocity": 0.2992125984251969,
          "duration": 0.034883720930224626
        },
        {
          "name": "D#7",
          "midi": 99,
          "time": 138.6162790697485,
          "velocity": 0.11023622047244094,
          "duration": 0.04651162790696617
        },
        {
          "name": "F2",
          "midi": 41,
          "time": 138.62790697672523,
          "velocity": 0.5196850393700787,
          "duration": 0.011627906976741542
        },
        {
          "name": "D#6",
          "midi": 87,
          "time": 138.62790697672523,
          "velocity": 0.11023622047244094,
          "duration": 0.034883720930224626
        },
        {
          "name": "E4",
          "midi": 64,
          "time": 138.63953488370197,
          "velocity": 0.2992125984251969,
          "duration": 0.1395348837208985
        },
        {
          "name": "E3",
          "midi": 52,
          "time": 138.6511627906787,
          "velocity": 0.5590551181102362,
          "duration": 0.034883720930224626
        },
        {
          "name": "D#3",
          "midi": 51,
          "time": 138.68604651160894,
          "velocity": 0.5511811023622047,
          "duration": 0.011627906976741542
        },
        {
          "name": "B3",
          "midi": 59,
          "time": 138.68604651160894,
          "velocity": 0.30708661417322836,
          "duration": 0.09302325581393234
        },
        {
          "name": "E3",
          "midi": 52,
          "time": 138.69767441858568,
          "velocity": 0.5275590551181102,
          "duration": 0.05813953488370771
        },
        {
          "name": "D#6",
          "midi": 87,
          "time": 138.70930232556242,
          "velocity": 0.07874015748031496,
          "duration": 0.034883720930224626
        },
        {
          "name": "E2",
          "midi": 40,
          "time": 138.72093023253916,
          "velocity": 0.44881889763779526,
          "duration": 0.023255813953483084
        },
        {
          "name": "E2",
          "midi": 40,
          "time": 138.75581395346939,
          "velocity": 0.5354330708661418,
          "duration": 0.011627906976741542
        },
        {
          "name": "F2",
          "midi": 41,
          "time": 138.76744186044613,
          "velocity": 0.5590551181102362,
          "duration": 0.011627906976741542
        },
        {
          "name": "D5",
          "midi": 74,
          "time": 138.76744186044613,
          "velocity": 0.4251968503937008,
          "duration": 0.034883720930224626
        },
        {
          "name": "A#3",
          "midi": 58,
          "time": 138.77906976742287,
          "velocity": 0.4409448818897638,
          "duration": 0.034883720930224626
        },
        {
          "name": "A6",
          "midi": 93,
          "time": 138.77906976742287,
          "velocity": 0.11023622047244094,
          "duration": 0.04651162790696617
        },
        {
          "name": "D7",
          "midi": 98,
          "time": 138.77906976742287,
          "velocity": 0.1889763779527559,
          "duration": 0.09302325581393234
        },
        {
          "name": "F7",
          "midi": 101,
          "time": 138.77906976742287,
          "velocity": 0.11811023622047244,
          "duration": 0.11627906976741542
        },
        {
          "name": "E4",
          "midi": 64,
          "time": 138.7906976743996,
          "velocity": 0.3858267716535433,
          "duration": 0.034883720930224626
        },
        {
          "name": "A5",
          "midi": 81,
          "time": 138.7906976743996,
          "velocity": 0.28346456692913385,
          "duration": 0.3604651162789878
        },
        {
          "name": "C6",
          "midi": 84,
          "time": 138.7906976743996,
          "velocity": 0.11023622047244094,
          "duration": 0.04651162790696617
        },
        {
          "name": "C#7",
          "midi": 97,
          "time": 138.7906976743996,
          "velocity": 0.1968503937007874,
          "duration": 0.10465116279067388
        },
        {
          "name": "F2",
          "midi": 41,
          "time": 138.80232558137635,
          "velocity": 0.5669291338582677,
          "duration": 0.023255813953483084
        },
        {
          "name": "G3",
          "midi": 55,
          "time": 138.80232558137635,
          "velocity": 0.36220472440944884,
          "duration": 0.023255813953483084
        },
        {
          "name": "C#5",
          "midi": 73,
          "time": 138.80232558137635,
          "velocity": 0.33858267716535434,
          "duration": 0.034883720930224626
        },
        {
          "name": "G#6",
          "midi": 92,
          "time": 138.80232558137635,
          "velocity": 0.16535433070866143,
          "duration": 0.06976744186044925
        },
        {
          "name": "G7",
          "midi": 103,
          "time": 138.80232558137635,
          "velocity": 0.11023622047244094,
          "duration": 0.04651162790696617
        },
        {
          "name": "G2",
          "midi": 43,
          "time": 138.82558139532983,
          "velocity": 0.5275590551181102,
          "duration": 0.034883720930224626
        },
        {
          "name": "D#6",
          "midi": 87,
          "time": 138.82558139532983,
          "velocity": 0.15748031496062992,
          "duration": 0.10465116279067388
        },
        {
          "name": "E3",
          "midi": 52,
          "time": 138.83720930230658,
          "velocity": 0.3858267716535433,
          "duration": 0.034883720930224626
        },
        {
          "name": "F4",
          "midi": 65,
          "time": 138.83720930230658,
          "velocity": 0.31496062992125984,
          "duration": 0.023255813953483084
        },
        {
          "name": "D5",
          "midi": 74,
          "time": 138.83720930230658,
          "velocity": 0.2283464566929134,
          "duration": 0.11627906976741542
        },
        {
          "name": "B3",
          "midi": 59,
          "time": 138.8720930232368,
          "velocity": 0.4094488188976378,
          "duration": 0.05813953488370771
        },
        {
          "name": "F#4",
          "midi": 66,
          "time": 138.8720930232368,
          "velocity": 0.2677165354330709,
          "duration": 0.023255813953483084
        },
        {
          "name": "E2",
          "midi": 40,
          "time": 138.88372093021354,
          "velocity": 0.5118110236220472,
          "duration": 0.011627906976741542
        },
        {
          "name": "C7",
          "midi": 96,
          "time": 138.88372093021354,
          "velocity": 0.11811023622047244,
          "duration": 0.19767441860460622
        },
        {
          "name": "D7",
          "midi": 98,
          "time": 138.88372093021354,
          "velocity": 0.16535433070866143,
          "duration": 0.034883720930224626
        },
        {
          "name": "F2",
          "midi": 41,
          "time": 138.89534883719028,
          "velocity": 0.5669291338582677,
          "duration": 0.05813953488370771
        },
        {
          "name": "G#4",
          "midi": 68,
          "time": 138.89534883719028,
          "velocity": 0.18110236220472442,
          "duration": 0.04651162790696617
        },
        {
          "name": "G3",
          "midi": 55,
          "time": 138.90697674416703,
          "velocity": 0.28346456692913385,
          "duration": 0.023255813953483084
        },
        {
          "name": "C5",
          "midi": 72,
          "time": 138.90697674416703,
          "velocity": 0.1889763779527559,
          "duration": 0.034883720930224626
        },
        {
          "name": "F#5",
          "midi": 78,
          "time": 138.90697674416703,
          "velocity": 0.31496062992125984,
          "duration": 0.17441860465112313
        },
        {
          "name": "B5",
          "midi": 83,
          "time": 138.91860465114377,
          "velocity": 0.2204724409448819,
          "duration": 0.45348837209292014
        },
        {
          "name": "C#7",
          "midi": 97,
          "time": 138.91860465114377,
          "velocity": 0.2283464566929134,
          "duration": 0.1627906976743816
        },
        {
          "name": "D7",
          "midi": 98,
          "time": 138.9302325581205,
          "velocity": 0.15748031496062992,
          "duration": 0.11627906976741542
        },
        {
          "name": "B3",
          "midi": 59,
          "time": 138.94186046509725,
          "velocity": 0.3858267716535433,
          "duration": 0.05813953488370771
        },
        {
          "name": "D#3",
          "midi": 51,
          "time": 138.953488372074,
          "velocity": 0.2677165354330709,
          "duration": 0.023255813953483084
        },
        {
          "name": "D#7",
          "midi": 99,
          "time": 138.96511627905073,
          "velocity": 0.07086614173228346,
          "duration": 0.09302325581393234
        },
        {
          "name": "E4",
          "midi": 64,
          "time": 138.97674418602747,
          "velocity": 0.28346456692913385,
          "duration": 0.04651162790696617
        },
        {
          "name": "F3",
          "midi": 53,
          "time": 138.98837209300422,
          "velocity": 0.4330708661417323,
          "duration": 0.023255813953483084
        },
        {
          "name": "G2",
          "midi": 43,
          "time": 138.99999999998096,
          "velocity": 0.5511811023622047,
          "duration": 0.023255813953483084
        },
        {
          "name": "G#4",
          "midi": 68,
          "time": 138.99999999998096,
          "velocity": 0.3228346456692913,
          "duration": 0.023255813953483084
        },
        {
          "name": "D6",
          "midi": 86,
          "time": 138.99999999998096,
          "velocity": 0.11023622047244094,
          "duration": 0.04651162790696617
        },
        {
          "name": "G6",
          "midi": 91,
          "time": 138.99999999998096,
          "velocity": 0.13385826771653545,
          "duration": 0.0813953488371908
        },
        {
          "name": "F7",
          "midi": 101,
          "time": 138.99999999998096,
          "velocity": 0.16535433070866143,
          "duration": 0.034883720930224626
        },
        {
          "name": "F#7",
          "midi": 102,
          "time": 138.99999999998096,
          "velocity": 0.08661417322834646,
          "duration": 0.034883720930224626
        },
        {
          "name": "G#3",
          "midi": 56,
          "time": 139.0116279069577,
          "velocity": 0.48031496062992124,
          "duration": 0.034883720930224626
        },
        {
          "name": "F#2",
          "midi": 42,
          "time": 139.02325581393444,
          "velocity": 0.5590551181102362,
          "duration": 0.011627906976741542
        },
        {
          "name": "D#4",
          "midi": 63,
          "time": 139.02325581393444,
          "velocity": 0.2992125984251969,
          "duration": 0.04651162790696617
        },
        {
          "name": "G4",
          "midi": 67,
          "time": 139.02325581393444,
          "velocity": 0.3464566929133858,
          "duration": 0.20930232558134776
        },
        {
          "name": "C3",
          "midi": 48,
          "time": 139.04651162788792,
          "velocity": 0.48031496062992124,
          "duration": 0.023255813953483084
        },
        {
          "name": "B4",
          "midi": 71,
          "time": 139.04651162788792,
          "velocity": 0.23622047244094488,
          "duration": 0.17441860465112313
        },
        {
          "name": "D#6",
          "midi": 87,
          "time": 139.04651162788792,
          "velocity": 0.18110236220472442,
          "duration": 0.05813953488370771
        },
        {
          "name": "D7",
          "midi": 98,
          "time": 139.05813953486467,
          "velocity": 0.14173228346456693,
          "duration": 0.04651162790696617
        },
        {
          "name": "B3",
          "midi": 59,
          "time": 139.08139534881815,
          "velocity": 0.3779527559055118,
          "duration": 0.11627906976741542
        },
        {
          "name": "G#6",
          "midi": 92,
          "time": 139.08139534881815,
          "velocity": 0.11023622047244094,
          "duration": 0.05813953488370771
        },
        {
          "name": "E3",
          "midi": 52,
          "time": 139.0930232557949,
          "velocity": 0.5354330708661418,
          "duration": 0.034883720930224626
        },
        {
          "name": "F#5",
          "midi": 78,
          "time": 139.11627906974837,
          "velocity": 0.23622047244094488,
          "duration": 0.15116279069764005
        },
        {
          "name": "A#6",
          "midi": 94,
          "time": 139.11627906974837,
          "velocity": 0.18110236220472442,
          "duration": 0.0813953488371908
        },
        {
          "name": "D#7",
          "midi": 99,
          "time": 139.11627906974837,
          "velocity": 0.2047244094488189,
          "duration": 0.0813953488371908
        },
        {
          "name": "D5",
          "midi": 74,
          "time": 139.12790697672511,
          "velocity": 0.11023622047244094,
          "duration": 0.04651162790696617
        },
        {
          "name": "D7",
          "midi": 98,
          "time": 139.12790697672511,
          "velocity": 0.10236220472440945,
          "duration": 0.034883720930224626
        },
        {
          "name": "G7",
          "midi": 103,
          "time": 139.12790697672511,
          "velocity": 0.2677165354330709,
          "duration": 0.05813953488370771
        },
        {
          "name": "D#6",
          "midi": 87,
          "time": 139.13953488370186,
          "velocity": 0.07874015748031496,
          "duration": 0.04651162790696617
        },
        {
          "name": "C#7",
          "midi": 97,
          "time": 139.16279069765534,
          "velocity": 0.08661417322834646,
          "duration": 0.034883720930224626
        },
        {
          "name": "F#7",
          "midi": 102,
          "time": 139.18604651160882,
          "velocity": 0.2440944881889764,
          "duration": 0.10465116279067388
        },
        {
          "name": "C4",
          "midi": 60,
          "time": 139.19767441858556,
          "velocity": 0.3543307086614173,
          "duration": 0.05813953488370771
        },
        {
          "name": "E4",
          "midi": 64,
          "time": 139.19767441858556,
          "velocity": 0.3937007874015748,
          "duration": 0.26744186046505547
        },
        {
          "name": "D7",
          "midi": 98,
          "time": 139.19767441858556,
          "velocity": 0.18110236220472442,
          "duration": 0.04651162790696617
        },
        {
          "name": "G7",
          "midi": 103,
          "time": 139.19767441858556,
          "velocity": 0.13385826771653545,
          "duration": 0.04651162790696617
        },
        {
          "name": "C3",
          "midi": 48,
          "time": 139.22093023253905,
          "velocity": 0.5275590551181102,
          "duration": 0.023255813953483084
        },
        {
          "name": "D#7",
          "midi": 99,
          "time": 139.22093023253905,
          "velocity": 0.1732283464566929,
          "duration": 0.05813953488370771
        },
        {
          "name": "C#7",
          "midi": 97,
          "time": 139.2325581395158,
          "velocity": 0.18110236220472442,
          "duration": 0.06976744186044925
        },
        {
          "name": "D#3",
          "midi": 51,
          "time": 139.24418604649253,
          "velocity": 0.47244094488188976,
          "duration": 0.023255813953483084
        },
        {
          "name": "B4",
          "midi": 71,
          "time": 139.24418604649253,
          "velocity": 0.28346456692913385,
          "duration": 0.12790697674415696
        },
        {
          "name": "B3",
          "midi": 59,
          "time": 139.25581395346927,
          "velocity": 0.3779527559055118,
          "duration": 0.10465116279067388
        },
        {
          "name": "D7",
          "midi": 98,
          "time": 139.25581395346927,
          "velocity": 0.09448818897637795,
          "duration": 0.034883720930224626
        },
        {
          "name": "F2",
          "midi": 41,
          "time": 139.267441860446,
          "velocity": 0.4645669291338583,
          "duration": 0.034883720930224626
        },
        {
          "name": "E3",
          "midi": 52,
          "time": 139.27906976742275,
          "velocity": 0.5511811023622047,
          "duration": 0.10465116279067388
        },
        {
          "name": "G#4",
          "midi": 68,
          "time": 139.31395348835298,
          "velocity": 0.15748031496062992,
          "duration": 0.04651162790696617
        },
        {
          "name": "F#5",
          "midi": 78,
          "time": 139.31395348835298,
          "velocity": 0.12598425196850394,
          "duration": 0.06976744186044925
        },
        {
          "name": "C3",
          "midi": 48,
          "time": 139.32558139532972,
          "velocity": 0.5118110236220472,
          "duration": 0.011627906976741542
        },
        {
          "name": "B2",
          "midi": 47,
          "time": 139.33720930230646,
          "velocity": 0.5275590551181102,
          "duration": 0.011627906976741542
        },
        {
          "name": "C3",
          "midi": 48,
          "time": 139.3720930232367,
          "velocity": 0.5118110236220472,
          "duration": 0.023255813953483084
        },
        {
          "name": "G4",
          "midi": 67,
          "time": 139.3720930232367,
          "velocity": 0.18110236220472442,
          "duration": 0.05813953488370771
        },
        {
          "name": "F3",
          "midi": 53,
          "time": 139.38372093021343,
          "velocity": 0.5039370078740157,
          "duration": 0.023255813953483084
        },
        {
          "name": "B2",
          "midi": 47,
          "time": 139.39534883719017,
          "velocity": 0.5905511811023622,
          "duration": 0.06976744186044925
        },
        {
          "name": "B4",
          "midi": 71,
          "time": 139.39534883719017,
          "velocity": 0.33858267716535434,
          "duration": 0.1627906976743816
        },
        {
          "name": "F2",
          "midi": 41,
          "time": 139.4069767441669,
          "velocity": 0.5196850393700787,
          "duration": 0.011627906976741542
        },
        {
          "name": "D#6",
          "midi": 87,
          "time": 139.4069767441669,
          "velocity": 0.07086614173228346,
          "duration": 0.04651162790696617
        },
        {
          "name": "F#5",
          "midi": 78,
          "time": 139.4302325581204,
          "velocity": 0.25984251968503935,
          "duration": 0.06976744186044925
        },
        {
          "name": "C#7",
          "midi": 97,
          "time": 139.4302325581204,
          "velocity": 0.25984251968503935,
          "duration": 0.31395348837202164
        },
        {
          "name": "D7",
          "midi": 98,
          "time": 139.4302325581204,
          "velocity": 0.1968503937007874,
          "duration": 0.034883720930224626
        },
        {
          "name": "D#7",
          "midi": 99,
          "time": 139.4302325581204,
          "velocity": 0.07086614173228346,
          "duration": 0.034883720930224626
        },
        {
          "name": "G4",
          "midi": 67,
          "time": 139.45348837207388,
          "velocity": 0.48031496062992124,
          "duration": 0.4418604651161786
        },
        {
          "name": "G7",
          "midi": 103,
          "time": 139.45348837207388,
          "velocity": 0.07086614173228346,
          "duration": 0.034883720930224626
        },
        {
          "name": "F#2",
          "midi": 42,
          "time": 139.46511627905062,
          "velocity": 0.5275590551181102,
          "duration": 0.011627906976741542
        },
        {
          "name": "E3",
          "midi": 52,
          "time": 139.46511627905062,
          "velocity": 0.4566929133858268,
          "duration": 0.023255813953483084
        },
        {
          "name": "G2",
          "midi": 43,
          "time": 139.47674418602736,
          "velocity": 0.6062992125984252,
          "duration": 0.011627906976741542
        },
        {
          "name": "G#6",
          "midi": 92,
          "time": 139.47674418602736,
          "velocity": 0.11811023622047244,
          "duration": 0.05813953488370771
        },
        {
          "name": "A2",
          "midi": 45,
          "time": 139.4883720930041,
          "velocity": 0.5826771653543307,
          "duration": 0.011627906976741542
        },
        {
          "name": "D#7",
          "midi": 99,
          "time": 139.4883720930041,
          "velocity": 0.13385826771653545,
          "duration": 0.15116279069764005
        },
        {
          "name": "B2",
          "midi": 47,
          "time": 139.49999999998084,
          "velocity": 0.5511811023622047,
          "duration": 0.011627906976741542
        },
        {
          "name": "D7",
          "midi": 98,
          "time": 139.49999999998084,
          "velocity": 0.36220472440944884,
          "duration": 0.4651162790696617
        },
        {
          "name": "F7",
          "midi": 101,
          "time": 139.49999999998084,
          "velocity": 0.07874015748031496,
          "duration": 0.034883720930224626
        },
        {
          "name": "A#2",
          "midi": 46,
          "time": 139.51162790695759,
          "velocity": 0.5118110236220472,
          "duration": 0.011627906976741542
        },
        {
          "name": "E3",
          "midi": 52,
          "time": 139.51162790695759,
          "velocity": 0.4409448818897638,
          "duration": 0.04651162790696617
        },
        {
          "name": "C4",
          "midi": 60,
          "time": 139.51162790695759,
          "velocity": 0.2283464566929134,
          "duration": 0.023255813953483084
        },
        {
          "name": "C7",
          "midi": 96,
          "time": 139.52325581393433,
          "velocity": 0.15748031496062992,
          "duration": 0.18604651162786467
        },
        {
          "name": "B3",
          "midi": 59,
          "time": 139.53488372091107,
          "velocity": 0.4094488188976378,
          "duration": 0.10465116279067388
        },
        {
          "name": "F2",
          "midi": 41,
          "time": 139.5465116278878,
          "velocity": 0.5354330708661418,
          "duration": 0.04651162790696617
        },
        {
          "name": "E6",
          "midi": 88,
          "time": 139.5465116278878,
          "velocity": 0.11811023622047244,
          "duration": 0.05813953488370771
        },
        {
          "name": "B6",
          "midi": 95,
          "time": 139.5465116278878,
          "velocity": 0.11811023622047244,
          "duration": 0.06976744186044925
        },
        {
          "name": "E3",
          "midi": 52,
          "time": 139.5697674418413,
          "velocity": 0.2440944881889764,
          "duration": 0.023255813953483084
        },
        {
          "name": "G7",
          "midi": 103,
          "time": 139.58139534881803,
          "velocity": 0.09448818897637795,
          "duration": 0.034883720930224626
        },
        {
          "name": "B2",
          "midi": 47,
          "time": 139.59302325579478,
          "velocity": 0.29133858267716534,
          "duration": 0.023255813953483084
        },
        {
          "name": "F#5",
          "midi": 78,
          "time": 139.59302325579478,
          "velocity": 0.14173228346456693,
          "duration": 0.04651162790696617
        },
        {
          "name": "D5",
          "midi": 74,
          "time": 139.63953488370174,
          "velocity": 0.4094488188976378,
          "duration": 0.11627906976741542
        },
        {
          "name": "G5",
          "midi": 79,
          "time": 139.63953488370174,
          "velocity": 0.5039370078740157,
          "duration": 0.2558139534883139
        },
        {
          "name": "C#6",
          "midi": 85,
          "time": 139.63953488370174,
          "velocity": 0.11023622047244094,
          "duration": 0.04651162790696617
        },
        {
          "name": "G#6",
          "midi": 92,
          "time": 139.63953488370174,
          "velocity": 0.16535433070866143,
          "duration": 0.034883720930224626
        },
        {
          "name": "B6",
          "midi": 95,
          "time": 139.63953488370174,
          "velocity": 0.11811023622047244,
          "duration": 0.034883720930224626
        },
        {
          "name": "E7",
          "midi": 100,
          "time": 139.63953488370174,
          "velocity": 0.12598425196850394,
          "duration": 0.04651162790696617
        },
        {
          "name": "F7",
          "midi": 101,
          "time": 139.63953488370174,
          "velocity": 0.2440944881889764,
          "duration": 0.31395348837202164
        },
        {
          "name": "F#7",
          "midi": 102,
          "time": 139.63953488370174,
          "velocity": 0.2440944881889764,
          "duration": 0.19767441860460622
        },
        {
          "name": "E4",
          "midi": 64,
          "time": 139.65116279067848,
          "velocity": 0.4015748031496063,
          "duration": 0.04651162790696617
        },
        {
          "name": "A#5",
          "midi": 82,
          "time": 139.65116279067848,
          "velocity": 0.11023622047244094,
          "duration": 0.04651162790696617
        },
        {
          "name": "F#6",
          "midi": 90,
          "time": 139.65116279067848,
          "velocity": 0.15748031496062992,
          "duration": 0.04651162790696617
        },
        {
          "name": "C#5",
          "midi": 73,
          "time": 139.66279069765523,
          "velocity": 0.2755905511811024,
          "duration": 0.023255813953483084
        },
        {
          "name": "C6",
          "midi": 84,
          "time": 139.66279069765523,
          "velocity": 0.12598425196850394,
          "duration": 0.05813953488370771
        },
        {
          "name": "D3",
          "midi": 50,
          "time": 139.67441860463197,
          "velocity": 0.41732283464566927,
          "duration": 0.023255813953483084
        },
        {
          "name": "A#4",
          "midi": 70,
          "time": 139.67441860463197,
          "velocity": 0.25984251968503935,
          "duration": 0.023255813953483084
        },
        {
          "name": "D#7",
          "midi": 99,
          "time": 139.67441860463197,
          "velocity": 0.25984251968503935,
          "duration": 0.43023255813943706
        },
        {
          "name": "A#3",
          "midi": 58,
          "time": 139.6860465116087,
          "velocity": 0.3700787401574803,
          "duration": 0.023255813953483084
        },
        {
          "name": "B4",
          "midi": 71,
          "time": 139.69767441858545,
          "velocity": 0.25984251968503935,
          "duration": 0.11627906976741542
        },
        {
          "name": "B6",
          "midi": 95,
          "time": 139.69767441858545,
          "velocity": 0.18110236220472442,
          "duration": 0.18604651162786467
        },
        {
          "name": "C#2",
          "midi": 37,
          "time": 139.7093023255622,
          "velocity": 0.25196850393700787,
          "duration": 0.023255813953483084
        },
        {
          "name": "C3",
          "midi": 48,
          "time": 139.7093023255622,
          "velocity": 0.25984251968503935,
          "duration": 0.023255813953483084
        },
        {
          "name": "E4",
          "midi": 64,
          "time": 139.72093023253893,
          "velocity": 0.2677165354330709,
          "duration": 0.034883720930224626
        },
        {
          "name": "G#6",
          "midi": 92,
          "time": 139.72093023253893,
          "velocity": 0.11023622047244094,
          "duration": 0.11627906976741542
        },
        {
          "name": "G3",
          "midi": 55,
          "time": 139.73255813951567,
          "velocity": 0.29133858267716534,
          "duration": 0.023255813953483084
        },
        {
          "name": "B3",
          "midi": 59,
          "time": 139.73255813951567,
          "velocity": 0.2440944881889764,
          "duration": 0.023255813953483084
        },
        {
          "name": "C#7",
          "midi": 97,
          "time": 139.75581395346916,
          "velocity": 0.3464566929133858,
          "duration": 0.4651162790696617
        },
        {
          "name": "E3",
          "midi": 52,
          "time": 139.7674418604459,
          "velocity": 0.3228346456692913,
          "duration": 0.034883720930224626
        },
        {
          "name": "D5",
          "midi": 74,
          "time": 139.7674418604459,
          "velocity": 0.14173228346456693,
          "duration": 0.04651162790696617
        },
        {
          "name": "E3",
          "midi": 52,
          "time": 139.81395348835287,
          "velocity": 0.3700787401574803,
          "duration": 0.034883720930224626
        },
        {
          "name": "E7",
          "midi": 100,
          "time": 139.81395348835287,
          "velocity": 0.3543307086614173,
          "duration": 1.5930232558135913
        },
        {
          "name": "B4",
          "midi": 71,
          "time": 139.8255813953296,
          "velocity": 0.3228346456692913,
          "duration": 0.05813953488370771
        },
        {
          "name": "A#6",
          "midi": 94,
          "time": 139.8255813953296,
          "velocity": 0.2283464566929134,
          "duration": 0.19767441860460622
        },
        {
          "name": "C4",
          "midi": 60,
          "time": 139.83720930230635,
          "velocity": 0.1889763779527559,
          "duration": 0.04651162790696617
        },
        {
          "name": "D5",
          "midi": 74,
          "time": 139.86046511625983,
          "velocity": 0.2047244094488189,
          "duration": 0.034883720930224626
        },
        {
          "name": "F#6",
          "midi": 90,
          "time": 139.86046511625983,
          "velocity": 0.3464566929133858,
          "duration": 0.3023255813952801
        },
        {
          "name": "G#6",
          "midi": 92,
          "time": 139.86046511625983,
          "velocity": 0.1732283464566929,
          "duration": 0.04651162790696617
        },
        {
          "name": "B1",
          "midi": 35,
          "time": 139.87209302323657,
          "velocity": 0.5118110236220472,
          "duration": 0.011627906976741542
        },
        {
          "name": "A4",
          "midi": 69,
          "time": 139.87209302323657,
          "velocity": 0.29133858267716534,
          "duration": 0.04651162790696617
        },
        {
          "name": "F#5",
          "midi": 78,
          "time": 139.87209302323657,
          "velocity": 0.5354330708661418,
          "duration": 0.43023255813943706
        },
        {
          "name": "C7",
          "midi": 96,
          "time": 139.87209302323657,
          "velocity": 0.25984251968503935,
          "duration": 0.06976744186044925
        },
        {
          "name": "E4",
          "midi": 64,
          "time": 139.88372093021331,
          "velocity": 0.2283464566929134,
          "duration": 0.023255813953483084
        },
        {
          "name": "F3",
          "midi": 53,
          "time": 139.9069767441668,
          "velocity": 0.3779527559055118,
          "duration": 0.023255813953483084
        },
        {
          "name": "C#6",
          "midi": 85,
          "time": 139.9069767441668,
          "velocity": 0.07874015748031496,
          "duration": 0.034883720930224626
        },
        {
          "name": "E4",
          "midi": 64,
          "time": 139.91860465114354,
          "velocity": 0.1968503937007874,
          "duration": 0.034883720930224626
        },
        {
          "name": "G4",
          "midi": 67,
          "time": 139.91860465114354,
          "velocity": 0.30708661417322836,
          "duration": 0.06976744186044925
        },
        {
          "name": "B4",
          "midi": 71,
          "time": 139.91860465114354,
          "velocity": 0.15748031496062992,
          "duration": 0.15116279069764005
        },
        {
          "name": "A5",
          "midi": 81,
          "time": 139.95348837207376,
          "velocity": 0.11811023622047244,
          "duration": 0.1627906976743816
        },
        {
          "name": "A3",
          "midi": 57,
          "time": 139.9651162790505,
          "velocity": 0.2204724409448819,
          "duration": 0.09302325581393234
        },
        {
          "name": "E5",
          "midi": 76,
          "time": 139.9651162790505,
          "velocity": 0.15748031496062992,
          "duration": 0.10465116279067388
        },
        {
          "name": "D3",
          "midi": 50,
          "time": 139.97674418602725,
          "velocity": 0.4330708661417323,
          "duration": 0.05813953488370771
        },
        {
          "name": "A4",
          "midi": 69,
          "time": 139.97674418602725,
          "velocity": 0.30708661417322836,
          "duration": 0.09302325581393234
        },
        {
          "name": "G4",
          "midi": 67,
          "time": 139.99999999998073,
          "velocity": 0.3543307086614173,
          "duration": 0.05813953488370771
        },
        {
          "name": "D7",
          "midi": 98,
          "time": 139.99999999998073,
          "velocity": 0.10236220472440945,
          "duration": 0.04651162790696617
        },
        {
          "name": "G6",
          "midi": 91,
          "time": 140.01162790695747,
          "velocity": 0.2047244094488189,
          "duration": 0.2558139534883139
        },
        {
          "name": "G#4",
          "midi": 68,
          "time": 140.05813953486444,
          "velocity": 0.2677165354330709,
          "duration": 0.023255813953483084
        },
        {
          "name": "A2",
          "midi": 45,
          "time": 140.06976744184118,
          "velocity": 0.5826771653543307,
          "duration": 0.04651162790696617
        },
        {
          "name": "A#4",
          "midi": 70,
          "time": 140.06976744184118,
          "velocity": 0.2440944881889764,
          "duration": 0.023255813953483084
        },
        {
          "name": "B5",
          "midi": 83,
          "time": 140.06976744184118,
          "velocity": 0.13385826771653545,
          "duration": 0.04651162790696617
        },
        {
          "name": "C7",
          "midi": 96,
          "time": 140.06976744184118,
          "velocity": 0.14173228346456693,
          "duration": 0.0813953488371908
        },
        {
          "name": "D7",
          "midi": 98,
          "time": 140.06976744184118,
          "velocity": 0.14960629921259844,
          "duration": 0.06976744186044925
        },
        {
          "name": "B1",
          "midi": 35,
          "time": 140.08139534881792,
          "velocity": 0.5196850393700787,
          "duration": 0.011627906976741542
        },
        {
          "name": "G4",
          "midi": 67,
          "time": 140.08139534881792,
          "velocity": 0.3779527559055118,
          "duration": 0.034883720930224626
        },
        {
          "name": "E6",
          "midi": 88,
          "time": 140.08139534881792,
          "velocity": 0.41732283464566927,
          "duration": 1.4767441860461759
        },
        {
          "name": "F7",
          "midi": 101,
          "time": 140.08139534881792,
          "velocity": 0.09448818897637795,
          "duration": 0.06976744186044925
        },
        {
          "name": "C#4",
          "midi": 61,
          "time": 140.09302325579466,
          "velocity": 0.3700787401574803,
          "duration": 0.034883720930224626
        },
        {
          "name": "D5",
          "midi": 74,
          "time": 140.09302325579466,
          "velocity": 0.25984251968503935,
          "duration": 0.023255813953483084
        },
        {
          "name": "F#4",
          "midi": 66,
          "time": 140.1046511627714,
          "velocity": 0.29133858267716534,
          "duration": 0.023255813953483084
        },
        {
          "name": "C5",
          "midi": 72,
          "time": 140.1046511627714,
          "velocity": 0.2755905511811024,
          "duration": 0.06976744186044925
        },
        {
          "name": "B2",
          "midi": 47,
          "time": 140.11627906974815,
          "velocity": 0.5669291338582677,
          "duration": 0.023255813953483084
        },
        {
          "name": "D#5",
          "midi": 75,
          "time": 140.11627906974815,
          "velocity": 0.3228346456692913,
          "duration": 0.04651162790696617
        },
        {
          "name": "G5",
          "midi": 79,
          "time": 140.11627906974815,
          "velocity": 0.23622047244094488,
          "duration": 0.023255813953483084
        },
        {
          "name": "A#6",
          "midi": 94,
          "time": 140.11627906974815,
          "velocity": 0.23622047244094488,
          "duration": 0.034883720930224626
        },
        {
          "name": "D#7",
          "midi": 99,
          "time": 140.11627906974815,
          "velocity": 0.2047244094488189,
          "duration": 0.05813953488370771
        },
        {
          "name": "C4",
          "midi": 60,
          "time": 140.1279069767249,
          "velocity": 0.29133858267716534,
          "duration": 0.04651162790696617
        },
        {
          "name": "C3",
          "midi": 48,
          "time": 140.13953488370163,
          "velocity": 0.5748031496062992,
          "duration": 0.011627906976741542
        },
        {
          "name": "F#4",
          "midi": 66,
          "time": 140.13953488370163,
          "velocity": 0.2677165354330709,
          "duration": 0.023255813953483084
        },
        {
          "name": "C#3",
          "midi": 49,
          "time": 140.15116279067837,
          "velocity": 0.5590551181102362,
          "duration": 0.011627906976741542
        },
        {
          "name": "G3",
          "midi": 55,
          "time": 140.15116279067837,
          "velocity": 0.4566929133858268,
          "duration": 0.05813953488370771
        },
        {
          "name": "E5",
          "midi": 76,
          "time": 140.15116279067837,
          "velocity": 0.44881889763779526,
          "duration": 0.3604651162789878
        },
        {
          "name": "B6",
          "midi": 95,
          "time": 140.15116279067837,
          "velocity": 0.2440944881889764,
          "duration": 0.034883720930224626
        },
        {
          "name": "C3",
          "midi": 48,
          "time": 140.1627906976551,
          "velocity": 0.5590551181102362,
          "duration": 0.023255813953483084
        },
        {
          "name": "B4",
          "midi": 71,
          "time": 140.1627906976551,
          "velocity": 0.1732283464566929,
          "duration": 0.034883720930224626
        },
        {
          "name": "F2",
          "midi": 41,
          "time": 140.17441860463185,
          "velocity": 0.5118110236220472,
          "duration": 0.011627906976741542
        },
        {
          "name": "C#3",
          "midi": 49,
          "time": 140.1860465116086,
          "velocity": 0.5748031496062992,
          "duration": 0.011627906976741542
        },
        {
          "name": "C4",
          "midi": 60,
          "time": 140.1860465116086,
          "velocity": 0.2755905511811024,
          "duration": 0.09302325581393234
        },
        {
          "name": "D7",
          "midi": 98,
          "time": 140.1860465116086,
          "velocity": 0.11811023622047244,
          "duration": 0.05813953488370771
        },
        {
          "name": "B6",
          "midi": 95,
          "time": 140.19767441858534,
          "velocity": 0.3228346456692913,
          "duration": 0.29069767441853855
        },
        {
          "name": "A#4",
          "midi": 70,
          "time": 140.20930232556208,
          "velocity": 0.1889763779527559,
          "duration": 0.034883720930224626
        },
        {
          "name": "G#6",
          "midi": 92,
          "time": 140.22093023253882,
          "velocity": 0.1968503937007874,
          "duration": 0.24418604651157239
        },
        {
          "name": "C3",
          "midi": 48,
          "time": 140.25581395346904,
          "velocity": 0.33070866141732286,
          "duration": 0.023255813953483084
        },
        {
          "name": "A#6",
          "midi": 94,
          "time": 140.25581395346904,
          "velocity": 0.11811023622047244,
          "duration": 0.05813953488370771
        },
        {
          "name": "G3",
          "midi": 55,
          "time": 140.26744186044579,
          "velocity": 0.31496062992125984,
          "duration": 0.023255813953483084
        },
        {
          "name": "F#4",
          "midi": 66,
          "time": 140.27906976742253,
          "velocity": 0.25984251968503935,
          "duration": 0.023255813953483084
        },
        {
          "name": "A#4",
          "midi": 70,
          "time": 140.27906976742253,
          "velocity": 0.2204724409448819,
          "duration": 0.034883720930224626
        },
        {
          "name": "D7",
          "midi": 98,
          "time": 140.27906976742253,
          "velocity": 0.1889763779527559,
          "duration": 0.19767441860460622
        },
        {
          "name": "A2",
          "midi": 45,
          "time": 140.29069767439927,
          "velocity": 0.5905511811023622,
          "duration": 0.034883720930224626
        },
        {
          "name": "C4",
          "midi": 60,
          "time": 140.29069767439927,
          "velocity": 0.3858267716535433,
          "duration": 0.04651162790696617
        },
        {
          "name": "C#7",
          "midi": 97,
          "time": 140.29069767439927,
          "velocity": 0.18110236220472442,
          "duration": 0.0813953488371908
        },
        {
          "name": "A#1",
          "midi": 34,
          "time": 140.302325581376,
          "velocity": 0.5275590551181102,
          "duration": 0.011627906976741542
        },
        {
          "name": "G4",
          "midi": 67,
          "time": 140.302325581376,
          "velocity": 0.4094488188976378,
          "duration": 0.05813953488370771
        },
        {
          "name": "D5",
          "midi": 74,
          "time": 140.302325581376,
          "velocity": 0.2755905511811024,
          "duration": 0.406976744185954
        },
        {
          "name": "C7",
          "midi": 96,
          "time": 140.302325581376,
          "velocity": 0.10236220472440945,
          "duration": 0.06976744186044925
        },
        {
          "name": "B2",
          "midi": 47,
          "time": 140.3255813953295,
          "velocity": 0.5826771653543307,
          "duration": 0.034883720930224626
        },
        {
          "name": "B5",
          "midi": 83,
          "time": 140.3255813953295,
          "velocity": 0.14173228346456693,
          "duration": 0.06976744186044925
        },
        {
          "name": "C#4",
          "midi": 61,
          "time": 140.33720930230623,
          "velocity": 0.3779527559055118,
          "duration": 0.023255813953483084
        },
        {
          "name": "C5",
          "midi": 72,
          "time": 140.33720930230623,
          "velocity": 0.1732283464566929,
          "duration": 0.09302325581393234
        },
        {
          "name": "A#6",
          "midi": 94,
          "time": 140.33720930230623,
          "velocity": 0.11023622047244094,
          "duration": 0.12790697674415696
        },
        {
          "name": "C#3",
          "midi": 49,
          "time": 140.36046511625972,
          "velocity": 0.5748031496062992,
          "duration": 0.023255813953483084
        },
        {
          "name": "C4",
          "midi": 60,
          "time": 140.36046511625972,
          "velocity": 0.36220472440944884,
          "duration": 0.1395348837208985
        },
        {
          "name": "E4",
          "midi": 64,
          "time": 140.36046511625972,
          "velocity": 0.31496062992125984,
          "duration": 0.1627906976743816
        },
        {
          "name": "F#6",
          "midi": 90,
          "time": 140.36046511625972,
          "velocity": 0.13385826771653545,
          "duration": 0.034883720930224626
        },
        {
          "name": "G3",
          "midi": 55,
          "time": 140.37209302323646,
          "velocity": 0.47244094488188976,
          "duration": 0.06976744186044925
        },
        {
          "name": "F2",
          "midi": 41,
          "time": 140.3837209302132,
          "velocity": 0.5039370078740157,
          "duration": 0.023255813953483084
        },
        {
          "name": "C3",
          "midi": 48,
          "time": 140.3837209302132,
          "velocity": 0.5669291338582677,
          "duration": 0.011627906976741542
        },
        {
          "name": "C#3",
          "midi": 49,
          "time": 140.39534883718994,
          "velocity": 0.5826771653543307,
          "duration": 0.011627906976741542
        },
        {
          "name": "C3",
          "midi": 48,
          "time": 140.40697674416668,
          "velocity": 0.5826771653543307,
          "duration": 0.04651162790696617
        },
        {
          "name": "F#5",
          "midi": 78,
          "time": 140.43023255812017,
          "velocity": 0.1968503937007874,
          "duration": 0.0813953488371908
        },
        {
          "name": "G3",
          "midi": 55,
          "time": 140.45348837207365,
          "velocity": 0.29133858267716534,
          "duration": 0.023255813953483084
        },
        {
          "name": "C3",
          "midi": 48,
          "time": 140.4651162790504,
          "velocity": 0.5118110236220472,
          "duration": 0.011627906976741542
        },
        {
          "name": "G#6",
          "midi": 92,
          "time": 140.48837209300387,
          "velocity": 0.2204724409448819,
          "duration": 0.3023255813952801
        },
        {
          "name": "C#3",
          "midi": 49,
          "time": 140.49999999998062,
          "velocity": 0.3937007874015748,
          "duration": 0.023255813953483084
        },
        {
          "name": "A5",
          "midi": 81,
          "time": 140.49999999998062,
          "velocity": 0.25984251968503935,
          "duration": 0.34883720930224626
        },
        {
          "name": "B6",
          "midi": 95,
          "time": 140.49999999998062,
          "velocity": 0.31496062992125984,
          "duration": 0.6046511627905602
        },
        {
          "name": "D7",
          "midi": 98,
          "time": 140.49999999998062,
          "velocity": 0.29133858267716534,
          "duration": 0.1627906976743816
        },
        {
          "name": "D2",
          "midi": 38,
          "time": 140.51162790695736,
          "velocity": 0.31496062992125984,
          "duration": 0.023255813953483084
        },
        {
          "name": "C7",
          "midi": 96,
          "time": 140.51162790695736,
          "velocity": 0.11811023622047244,
          "duration": 0.0813953488371908
        },
        {
          "name": "E5",
          "midi": 76,
          "time": 140.5232558139341,
          "velocity": 0.48031496062992124,
          "duration": 0.45348837209292014
        },
        {
          "name": "D#6",
          "midi": 87,
          "time": 140.5232558139341,
          "velocity": 0.12598425196850394,
          "duration": 0.04651162790696617
        },
        {
          "name": "G7",
          "midi": 103,
          "time": 140.5232558139341,
          "velocity": 0.11023622047244094,
          "duration": 0.0813953488371908
        },
        {
          "name": "G#3",
          "midi": 56,
          "time": 140.53488372091084,
          "velocity": 0.33858267716535434,
          "duration": 0.034883720930224626
        },
        {
          "name": "C4",
          "midi": 60,
          "time": 140.53488372091084,
          "velocity": 0.2992125984251969,
          "duration": 0.10465116279067388
        },
        {
          "name": "E4",
          "midi": 64,
          "time": 140.53488372091084,
          "velocity": 0.33858267716535434,
          "duration": 0.11627906976741542
        },
        {
          "name": "C#7",
          "midi": 97,
          "time": 140.53488372091084,
          "velocity": 0.2047244094488189,
          "duration": 0.06976744186044925
        },
        {
          "name": "F7",
          "midi": 101,
          "time": 140.53488372091084,
          "velocity": 0.09448818897637795,
          "duration": 0.034883720930224626
        },
        {
          "name": "G#2",
          "midi": 44,
          "time": 140.54651162788758,
          "velocity": 0.3700787401574803,
          "duration": 0.023255813953483084
        },
        {
          "name": "D3",
          "midi": 50,
          "time": 140.54651162788758,
          "velocity": 0.3543307086614173,
          "duration": 0.023255813953483084
        },
        {
          "name": "A#4",
          "midi": 70,
          "time": 140.56976744184107,
          "velocity": 0.2283464566929134,
          "duration": 0.24418604651157239
        },
        {
          "name": "G3",
          "midi": 55,
          "time": 140.6046511627713,
          "velocity": 0.30708661417322836,
          "duration": 0.034883720930224626
        },
        {
          "name": "F7",
          "midi": 101,
          "time": 140.6046511627713,
          "velocity": 0.10236220472440945,
          "duration": 0.034883720930224626
        },
        {
          "name": "C3",
          "midi": 48,
          "time": 140.62790697672477,
          "velocity": 0.4409448818897638,
          "duration": 0.0813953488371908
        },
        {
          "name": "C#7",
          "midi": 97,
          "time": 140.63953488370151,
          "velocity": 0.25984251968503935,
          "duration": 0.15116279069764005
        },
        {
          "name": "F2",
          "midi": 41,
          "time": 140.662790697655,
          "velocity": 0.33858267716535434,
          "duration": 0.023255813953483084
        },
        {
          "name": "G3",
          "midi": 55,
          "time": 140.662790697655,
          "velocity": 0.1968503937007874,
          "duration": 0.04651162790696617
        },
        {
          "name": "D4",
          "midi": 62,
          "time": 140.662790697655,
          "velocity": 0.1889763779527559,
          "duration": 0.034883720930224626
        },
        {
          "name": "D7",
          "midi": 98,
          "time": 140.67441860463174,
          "velocity": 0.2047244094488189,
          "duration": 0.034883720930224626
        },
        {
          "name": "F#7",
          "midi": 102,
          "time": 140.67441860463174,
          "velocity": 0.12598425196850394,
          "duration": 0.06976744186044925
        },
        {
          "name": "C5",
          "midi": 72,
          "time": 140.68604651160848,
          "velocity": 0.2440944881889764,
          "duration": 0.23255813953483084
        },
        {
          "name": "F2",
          "midi": 41,
          "time": 140.69767441858522,
          "velocity": 0.3937007874015748,
          "duration": 0.023255813953483084
        },
        {
          "name": "F#4",
          "midi": 66,
          "time": 140.69767441858522,
          "velocity": 0.2440944881889764,
          "duration": 0.034883720930224626
        },
        {
          "name": "C#3",
          "midi": 49,
          "time": 140.70930232556196,
          "velocity": 0.47244094488188976,
          "duration": 0.023255813953483084
        },
        {
          "name": "G5",
          "midi": 79,
          "time": 140.70930232556196,
          "velocity": 0.11811023622047244,
          "duration": 0.06976744186044925
        },
        {
          "name": "B5",
          "midi": 83,
          "time": 140.70930232556196,
          "velocity": 0.2204724409448819,
          "duration": 0.0813953488371908
        },
        {
          "name": "D#6",
          "midi": 87,
          "time": 140.70930232556196,
          "velocity": 0.09448818897637795,
          "duration": 0.034883720930224626
        },
        {
          "name": "C7",
          "midi": 96,
          "time": 140.70930232556196,
          "velocity": 0.11811023622047244,
          "duration": 0.034883720930224626
        },
        {
          "name": "D7",
          "midi": 98,
          "time": 140.7209302325387,
          "velocity": 0.23622047244094488,
          "duration": 0.0813953488371908
        },
        {
          "name": "A#2",
          "midi": 46,
          "time": 140.73255813951545,
          "velocity": 0.5669291338582677,
          "duration": 0.011627906976741542
        },
        {
          "name": "G4",
          "midi": 67,
          "time": 140.73255813951545,
          "velocity": 0.5275590551181102,
          "duration": 0.5116279069766279
        },
        {
          "name": "D5",
          "midi": 74,
          "time": 140.73255813951545,
          "velocity": 0.2125984251968504,
          "duration": 0.18604651162786467
        },
        {
          "name": "A2",
          "midi": 45,
          "time": 140.7441860464922,
          "velocity": 0.5748031496062992,
          "duration": 0.011627906976741542
        },
        {
          "name": "B2",
          "midi": 47,
          "time": 140.75581395346893,
          "velocity": 0.5354330708661418,
          "duration": 0.011627906976741542
        },
        {
          "name": "F7",
          "midi": 101,
          "time": 140.75581395346893,
          "velocity": 0.12598425196850394,
          "duration": 0.034883720930224626
        },
        {
          "name": "C3",
          "midi": 48,
          "time": 140.76744186044567,
          "velocity": 0.5196850393700787,
          "duration": 0.011627906976741542
        },
        {
          "name": "G#3",
          "midi": 56,
          "time": 140.76744186044567,
          "velocity": 0.29133858267716534,
          "duration": 0.023255813953483084
        },
        {
          "name": "D#7",
          "midi": 99,
          "time": 140.76744186044567,
          "velocity": 0.07874015748031496,
          "duration": 0.034883720930224626
        },
        {
          "name": "B2",
          "midi": 47,
          "time": 140.7790697674224,
          "velocity": 0.5433070866141733,
          "duration": 0.011627906976741542
        },
        {
          "name": "C4",
          "midi": 60,
          "time": 140.7790697674224,
          "velocity": 0.3858267716535433,
          "duration": 0.06976744186044925
        },
        {
          "name": "C#3",
          "midi": 49,
          "time": 140.79069767439915,
          "velocity": 0.5905511811023622,
          "duration": 0.023255813953483084
        },
        {
          "name": "E4",
          "midi": 64,
          "time": 140.79069767439915,
          "velocity": 0.4094488188976378,
          "duration": 0.1395348837208985
        },
        {
          "name": "G3",
          "midi": 55,
          "time": 140.8023255813759,
          "velocity": 0.3464566929133858,
          "duration": 0.04651162790696617
        },
        {
          "name": "B5",
          "midi": 83,
          "time": 140.8023255813759,
          "velocity": 0.08661417322834646,
          "duration": 0.15116279069764005
        },
        {
          "name": "F2",
          "midi": 41,
          "time": 140.81395348835264,
          "velocity": 0.5196850393700787,
          "duration": 0.011627906976741542
        },
        {
          "name": "C3",
          "midi": 48,
          "time": 140.81395348835264,
          "velocity": 0.5590551181102362,
          "duration": 0.011627906976741542
        },
        {
          "name": "C#3",
          "midi": 49,
          "time": 140.82558139532938,
          "velocity": 0.5511811023622047,
          "duration": 0.011627906976741542
        },
        {
          "name": "C3",
          "midi": 48,
          "time": 140.83720930230612,
          "velocity": 0.5433070866141733,
          "duration": 0.034883720930224626
        },
        {
          "name": "C#4",
          "midi": 61,
          "time": 140.90697674416657,
          "velocity": 0.36220472440944884,
          "duration": 0.023255813953483084
        },
        {
          "name": "F#7",
          "midi": 102,
          "time": 140.90697674416657,
          "velocity": 0.13385826771653545,
          "duration": 0.20930232558134776
        },
        {
          "name": "B4",
          "midi": 71,
          "time": 140.9186046511433,
          "velocity": 0.23622047244094488,
          "duration": 0.034883720930224626
        },
        {
          "name": "F#6",
          "midi": 90,
          "time": 140.9186046511433,
          "velocity": 0.2047244094488189,
          "duration": 0.06976744186044925
        },
        {
          "name": "G#6",
          "midi": 92,
          "time": 140.9186046511433,
          "velocity": 0.13385826771653545,
          "duration": 0.10465116279067388
        },
        {
          "name": "A#3",
          "midi": 58,
          "time": 140.93023255812005,
          "velocity": 0.47244094488188976,
          "duration": 0.034883720930224626
        },
        {
          "name": "D5",
          "midi": 74,
          "time": 140.93023255812005,
          "velocity": 0.3464566929133858,
          "duration": 0.023255813953483084
        },
        {
          "name": "F#5",
          "midi": 78,
          "time": 140.93023255812005,
          "velocity": 0.2677165354330709,
          "duration": 0.06976744186044925
        },
        {
          "name": "A6",
          "midi": 93,
          "time": 140.93023255812005,
          "velocity": 0.13385826771653545,
          "duration": 0.04651162790696617
        },
        {
          "name": "C7",
          "midi": 96,
          "time": 140.93023255812005,
          "velocity": 0.10236220472440945,
          "duration": 0.04651162790696617
        },
        {
          "name": "C#7",
          "midi": 97,
          "time": 140.93023255812005,
          "velocity": 0.1889763779527559,
          "duration": 0.05813953488370771
        },
        {
          "name": "D#7",
          "midi": 99,
          "time": 140.93023255812005,
          "velocity": 0.12598425196850394,
          "duration": 0.06976744186044925
        },
        {
          "name": "E4",
          "midi": 64,
          "time": 140.9418604650968,
          "velocity": 0.3700787401574803,
          "duration": 0.034883720930224626
        },
        {
          "name": "C6",
          "midi": 84,
          "time": 140.9418604650968,
          "velocity": 0.12598425196850394,
          "duration": 0.04651162790696617
        },
        {
          "name": "C#6",
          "midi": 85,
          "time": 140.9418604650968,
          "velocity": 0.23622047244094488,
          "duration": 0.023255813953483084
        },
        {
          "name": "G#2",
          "midi": 44,
          "time": 140.95348837207354,
          "velocity": 0.5984251968503937,
          "duration": 0.011627906976741542
        },
        {
          "name": "A#6",
          "midi": 94,
          "time": 140.95348837207354,
          "velocity": 0.07874015748031496,
          "duration": 0.034883720930224626
        },
        {
          "name": "A#2",
          "midi": 46,
          "time": 140.96511627905028,
          "velocity": 0.5590551181102362,
          "duration": 0.011627906976741542
        },
        {
          "name": "C5",
          "midi": 72,
          "time": 140.96511627905028,
          "velocity": 0.2755905511811024,
          "duration": 0.34883720930224626
        },
        {
          "name": "D6",
          "midi": 86,
          "time": 140.96511627905028,
          "velocity": 0.11811023622047244,
          "duration": 0.034883720930224626
        },
        {
          "name": "D7",
          "midi": 98,
          "time": 140.96511627905028,
          "velocity": 0.12598425196850394,
          "duration": 0.034883720930224626
        },
        {
          "name": "B2",
          "midi": 47,
          "time": 140.97674418602702,
          "velocity": 0.5826771653543307,
          "duration": 0.023255813953483084
        },
        {
          "name": "A3",
          "midi": 57,
          "time": 140.98837209300376,
          "velocity": 0.4094488188976378,
          "duration": 0.023255813953483084
        },
        {
          "name": "C3",
          "midi": 48,
          "time": 140.9999999999805,
          "velocity": 0.5905511811023622,
          "duration": 0.011627906976741542
        },
        {
          "name": "E5",
          "midi": 76,
          "time": 140.9999999999805,
          "velocity": 0.44881889763779526,
          "duration": 0.406976744185954
        },
        {
          "name": "C#3",
          "midi": 49,
          "time": 141.01162790695724,
          "velocity": 0.6062992125984252,
          "duration": 0.011627906976741542
        },
        {
          "name": "G3",
          "midi": 55,
          "time": 141.01162790695724,
          "velocity": 0.4881889763779528,
          "duration": 0.11627906976741542
        },
        {
          "name": "C3",
          "midi": 48,
          "time": 141.023255813934,
          "velocity": 0.5905511811023622,
          "duration": 0.023255813953483084
        },
        {
          "name": "F2",
          "midi": 41,
          "time": 141.03488372091073,
          "velocity": 0.5118110236220472,
          "duration": 0.011627906976741542
        },
        {
          "name": "C#3",
          "midi": 49,
          "time": 141.04651162788747,
          "velocity": 0.5905511811023622,
          "duration": 0.011627906976741542
        },
        {
          "name": "D5",
          "midi": 74,
          "time": 141.04651162788747,
          "velocity": 0.1889763779527559,
          "duration": 0.04651162790696617
        },
        {
          "name": "C3",
          "midi": 48,
          "time": 141.0581395348642,
          "velocity": 0.6062992125984252,
          "duration": 0.10465116279067388
        },
        {
          "name": "B5",
          "midi": 83,
          "time": 141.0581395348642,
          "velocity": 0.15748031496062992,
          "duration": 0.06976744186044925
        },
        {
          "name": "G#6",
          "midi": 92,
          "time": 141.0813953488177,
          "velocity": 0.15748031496062992,
          "duration": 0.11627906976741542
        },
        {
          "name": "G2",
          "midi": 43,
          "time": 141.09302325579444,
          "velocity": 0.5196850393700787,
          "duration": 0.011627906976741542
        },
        {
          "name": "E4",
          "midi": 64,
          "time": 141.11627906974792,
          "velocity": 0.33858267716535434,
          "duration": 0.05813953488370771
        },
        {
          "name": "F#3",
          "midi": 54,
          "time": 141.12790697672466,
          "velocity": 0.4881889763779528,
          "duration": 0.034883720930224626
        },
        {
          "name": "D#5",
          "midi": 75,
          "time": 141.1395348837014,
          "velocity": 0.29133858267716534,
          "duration": 0.023255813953483084
        },
        {
          "name": "B6",
          "midi": 95,
          "time": 141.15116279067814,
          "velocity": 0.4881889763779528,
          "duration": 0.8255813953486495
        },
        {
          "name": "D7",
          "midi": 98,
          "time": 141.15116279067814,
          "velocity": 0.29133858267716534,
          "duration": 0.19767441860460622
        },
        {
          "name": "B2",
          "midi": 47,
          "time": 141.16279069765488,
          "velocity": 0.5669291338582677,
          "duration": 0.011627906976741542
        },
        {
          "name": "D5",
          "midi": 74,
          "time": 141.16279069765488,
          "velocity": 0.25196850393700787,
          "duration": 0.05813953488370771
        },
        {
          "name": "C7",
          "midi": 96,
          "time": 141.16279069765488,
          "velocity": 0.14173228346456693,
          "duration": 0.0813953488371908
        },
        {
          "name": "G7",
          "midi": 103,
          "time": 141.16279069765488,
          "velocity": 0.11811023622047244,
          "duration": 0.0813953488371908
        },
        {
          "name": "A2",
          "midi": 45,
          "time": 141.17441860463163,
          "velocity": 0.5984251968503937,
          "duration": 0.011627906976741542
        },
        {
          "name": "F#3",
          "midi": 54,
          "time": 141.17441860463163,
          "velocity": 0.33858267716535434,
          "duration": 0.023255813953483084
        },
        {
          "name": "B5",
          "midi": 83,
          "time": 141.17441860463163,
          "velocity": 0.13385826771653545,
          "duration": 0.034883720930224626
        },
        {
          "name": "D#7",
          "midi": 99,
          "time": 141.17441860463163,
          "velocity": 0.09448818897637795,
          "duration": 0.04651162790696617
        },
        {
          "name": "F#7",
          "midi": 102,
          "time": 141.17441860463163,
          "velocity": 0.10236220472440945,
          "duration": 0.06976744186044925
        },
        {
          "name": "B2",
          "midi": 47,
          "time": 141.18604651160837,
          "velocity": 0.5196850393700787,
          "duration": 0.023255813953483084
        },
        {
          "name": "E4",
          "midi": 64,
          "time": 141.18604651160837,
          "velocity": 0.31496062992125984,
          "duration": 0.29069767441853855
        },
        {
          "name": "G#3",
          "midi": 56,
          "time": 141.1976744185851,
          "velocity": 0.3228346456692913,
          "duration": 0.034883720930224626
        },
        {
          "name": "A2",
          "midi": 45,
          "time": 141.20930232556185,
          "velocity": 0.5590551181102362,
          "duration": 0.023255813953483084
        },
        {
          "name": "A#4",
          "midi": 70,
          "time": 141.20930232556185,
          "velocity": 0.2440944881889764,
          "duration": 0.15116279069764005
        },
        {
          "name": "C#7",
          "midi": 97,
          "time": 141.20930232556185,
          "velocity": 0.2992125984251969,
          "duration": 0.558139534883594
        },
        {
          "name": "G3",
          "midi": 55,
          "time": 141.23255813951533,
          "velocity": 0.3464566929133858,
          "duration": 0.04651162790696617
        },
        {
          "name": "C3",
          "midi": 48,
          "time": 141.25581395346882,
          "velocity": 0.4566929133858268,
          "duration": 0.04651162790696617
        },
        {
          "name": "D5",
          "midi": 74,
          "time": 141.25581395346882,
          "velocity": 0.2440944881889764,
          "duration": 0.5465116279068525
        },
        {
          "name": "G4",
          "midi": 67,
          "time": 141.26744186044556,
          "velocity": 0.3937007874015748,
          "duration": 0.3255813953487632
        },
        {
          "name": "G#3",
          "midi": 56,
          "time": 141.2790697674223,
          "velocity": 0.2755905511811024,
          "duration": 0.023255813953483084
        },
        {
          "name": "D#7",
          "midi": 99,
          "time": 141.29069767439904,
          "velocity": 0.2204724409448819,
          "duration": 0.3255813953487632
        },
        {
          "name": "G3",
          "midi": 55,
          "time": 141.30232558137578,
          "velocity": 0.23622047244094488,
          "duration": 0.023255813953483084
        },
        {
          "name": "F#6",
          "midi": 90,
          "time": 141.31395348835252,
          "velocity": 0.23622047244094488,
          "duration": 0.4186046511626955
        },
        {
          "name": "C7",
          "midi": 96,
          "time": 141.337209302306,
          "velocity": 0.11811023622047244,
          "duration": 0.034883720930224626
        },
        {
          "name": "C#3",
          "midi": 49,
          "time": 141.34883720928275,
          "velocity": 0.44881889763779526,
          "duration": 0.023255813953483084
        },
        {
          "name": "A5",
          "midi": 81,
          "time": 141.3604651162595,
          "velocity": 0.29133858267716534,
          "duration": 0.3372093023255047
        },
        {
          "name": "D#6",
          "midi": 87,
          "time": 141.3604651162595,
          "velocity": 0.11811023622047244,
          "duration": 0.09302325581393234
        },
        {
          "name": "D7",
          "midi": 98,
          "time": 141.3604651162595,
          "velocity": 0.16535433070866143,
          "duration": 0.10465116279067388
        },
        {
          "name": "A#4",
          "midi": 70,
          "time": 141.37209302323623,
          "velocity": 0.2440944881889764,
          "duration": 0.034883720930224626
        },
        {
          "name": "F#5",
          "midi": 78,
          "time": 141.37209302323623,
          "velocity": 0.14173228346456693,
          "duration": 0.06976744186044925
        },
        {
          "name": "B5",
          "midi": 83,
          "time": 141.38372093021297,
          "velocity": 0.23622047244094488,
          "duration": 0.0813953488371908
        },
        {
          "name": "G7",
          "midi": 103,
          "time": 141.38372093021297,
          "velocity": 0.15748031496062992,
          "duration": 0.06976744186044925
        },
        {
          "name": "F2",
          "midi": 41,
          "time": 141.39534883718972,
          "velocity": 0.4330708661417323,
          "duration": 0.034883720930224626
        },
        {
          "name": "C3",
          "midi": 48,
          "time": 141.40697674416646,
          "velocity": 0.5196850393700787,
          "duration": 0.0813953488371908
        },
        {
          "name": "A#4",
          "midi": 70,
          "time": 141.4186046511432,
          "velocity": 0.2047244094488189,
          "duration": 0.0813953488371908
        },
        {
          "name": "C7",
          "midi": 96,
          "time": 141.4186046511432,
          "velocity": 0.1968503937007874,
          "duration": 0.2558139534883139
        },
        {
          "name": "D7",
          "midi": 98,
          "time": 141.48837209300365,
          "velocity": 0.09448818897637795,
          "duration": 0.05813953488370771
        },
        {
          "name": "F#2",
          "midi": 42,
          "time": 141.4999999999804,
          "velocity": 0.29133858267716534,
          "duration": 0.023255813953483084
        },
        {
          "name": "C#3",
          "midi": 49,
          "time": 141.51162790695713,
          "velocity": 0.4251968503937008,
          "duration": 0.023255813953483084
        },
        {
          "name": "E4",
          "midi": 64,
          "time": 141.51162790695713,
          "velocity": 0.1732283464566929,
          "duration": 0.034883720930224626
        },
        {
          "name": "G#6",
          "midi": 92,
          "time": 141.51162790695713,
          "velocity": 0.1889763779527559,
          "duration": 0.11627906976741542
        },
        {
          "name": "C3",
          "midi": 48,
          "time": 141.5348837209106,
          "velocity": 0.4881889763779528,
          "duration": 0.023255813953483084
        },
        {
          "name": "B5",
          "midi": 83,
          "time": 141.5348837209106,
          "velocity": 0.18110236220472442,
          "duration": 0.11627906976741542
        },
        {
          "name": "C3",
          "midi": 48,
          "time": 141.56976744184084,
          "velocity": 0.5196850393700787,
          "duration": 0.023255813953483084
        },
        {
          "name": "E4",
          "midi": 64,
          "time": 141.56976744184084,
          "velocity": 0.2440944881889764,
          "duration": 0.023255813953483084
        },
        {
          "name": "G3",
          "midi": 55,
          "time": 141.58139534881758,
          "velocity": 0.28346456692913385,
          "duration": 0.034883720930224626
        },
        {
          "name": "E6",
          "midi": 88,
          "time": 141.58139534881758,
          "velocity": 0.2755905511811024,
          "duration": 0.1395348837208985
        },
        {
          "name": "G#4",
          "midi": 68,
          "time": 141.59302325579432,
          "velocity": 0.29133858267716534,
          "duration": 0.023255813953483084
        },
        {
          "name": "E5",
          "midi": 76,
          "time": 141.59302325579432,
          "velocity": 0.29133858267716534,
          "duration": 0.2209302325580893
        },
        {
          "name": "D7",
          "midi": 98,
          "time": 141.59302325579432,
          "velocity": 0.23622047244094488,
          "duration": 0.24418604651157239
        },
        {
          "name": "E7",
          "midi": 100,
          "time": 141.59302325579432,
          "velocity": 0.3228346456692913,
          "duration": 0.8255813953486495
        },
        {
          "name": "C3",
          "midi": 48,
          "time": 141.60465116277106,
          "velocity": 0.5196850393700787,
          "duration": 0.011627906976741542
        },
        {
          "name": "G4",
          "midi": 67,
          "time": 141.6162790697478,
          "velocity": 0.2677165354330709,
          "duration": 0.10465116279067388
        },
        {
          "name": "G3",
          "midi": 55,
          "time": 141.62790697672455,
          "velocity": 0.3858267716535433,
          "duration": 0.023255813953483084
        },
        {
          "name": "C4",
          "midi": 60,
          "time": 141.6395348837013,
          "velocity": 0.2440944881889764,
          "duration": 0.023255813953483084
        },
        {
          "name": "F7",
          "midi": 101,
          "time": 141.65116279067803,
          "velocity": 0.11811023622047244,
          "duration": 0.05813953488370771
        },
        {
          "name": "G3",
          "midi": 55,
          "time": 141.66279069765477,
          "velocity": 0.2992125984251969,
          "duration": 0.023255813953483084
        },
        {
          "name": "E4",
          "midi": 64,
          "time": 141.6744186046315,
          "velocity": 0.3779527559055118,
          "duration": 0.12790697674415696
        },
        {
          "name": "A#4",
          "midi": 70,
          "time": 141.6744186046315,
          "velocity": 0.13385826771653545,
          "duration": 0.034883720930224626
        },
        {
          "name": "D#7",
          "midi": 99,
          "time": 141.6744186046315,
          "velocity": 0.10236220472440945,
          "duration": 0.034883720930224626
        },
        {
          "name": "G#3",
          "midi": 56,
          "time": 141.68604651160825,
          "velocity": 0.3228346456692913,
          "duration": 0.04651162790696617
        },
        {
          "name": "C4",
          "midi": 60,
          "time": 141.68604651160825,
          "velocity": 0.3228346456692913,
          "duration": 0.10465116279067388
        },
        {
          "name": "B5",
          "midi": 83,
          "time": 141.68604651160825,
          "velocity": 0.2125984251968504,
          "duration": 0.1627906976743816
        },
        {
          "name": "F2",
          "midi": 41,
          "time": 141.70930232556174,
          "velocity": 0.4015748031496063,
          "duration": 0.023255813953483084
        },
        {
          "name": "C3",
          "midi": 48,
          "time": 141.70930232556174,
          "velocity": 0.41732283464566927,
          "duration": 0.023255813953483084
        },
        {
          "name": "G#6",
          "midi": 92,
          "time": 141.70930232556174,
          "velocity": 0.07874015748031496,
          "duration": 0.034883720930224626
        },
        {
          "name": "G3",
          "midi": 55,
          "time": 141.73255813951522,
          "velocity": 0.36220472440944884,
          "duration": 0.04651162790696617
        },
        {
          "name": "A#4",
          "midi": 70,
          "time": 141.73255813951522,
          "velocity": 0.25984251968503935,
          "duration": 0.06976744186044925
        },
        {
          "name": "A6",
          "midi": 93,
          "time": 141.74418604649196,
          "velocity": 0.5354330708661418,
          "duration": 0.6976744186044925
        },
        {
          "name": "G7",
          "midi": 103,
          "time": 141.74418604649196,
          "velocity": 0.09448818897637795,
          "duration": 0.05813953488370771
        },
        {
          "name": "A5",
          "midi": 81,
          "time": 141.7558139534687,
          "velocity": 0.4566929133858268,
          "duration": 0.7906976744184249
        },
        {
          "name": "G#3",
          "midi": 56,
          "time": 141.7790697674222,
          "velocity": 0.3858267716535433,
          "duration": 0.023255813953483084
        },
        {
          "name": "C#7",
          "midi": 97,
          "time": 141.7790697674222,
          "velocity": 0.1968503937007874,
          "duration": 0.11627906976741542
        },
        {
          "name": "D#7",
          "midi": 99,
          "time": 141.7790697674222,
          "velocity": 0.1889763779527559,
          "duration": 0.06976744186044925
        },
        {
          "name": "D#5",
          "midi": 75,
          "time": 141.79069767439893,
          "velocity": 0.16535433070866143,
          "duration": 0.034883720930224626
        },
        {
          "name": "D6",
          "midi": 86,
          "time": 141.79069767439893,
          "velocity": 0.2677165354330709,
          "duration": 0.0813953488371908
        },
        {
          "name": "D#6",
          "midi": 87,
          "time": 141.79069767439893,
          "velocity": 0.1889763779527559,
          "duration": 0.11627906976741542
        },
        {
          "name": "G1",
          "midi": 31,
          "time": 141.80232558137567,
          "velocity": 0.5196850393700787,
          "duration": 0.011627906976741542
        },
        {
          "name": "A#3",
          "midi": 58,
          "time": 141.80232558137567,
          "velocity": 0.4409448818897638,
          "duration": 0.023255813953483084
        },
        {
          "name": "D4",
          "midi": 62,
          "time": 141.80232558137567,
          "velocity": 0.44881889763779526,
          "duration": 0.023255813953483084
        },
        {
          "name": "A4",
          "midi": 69,
          "time": 141.80232558137567,
          "velocity": 0.2755905511811024,
          "duration": 0.023255813953483084
        },
        {
          "name": "F#5",
          "midi": 78,
          "time": 141.80232558137567,
          "velocity": 0.11811023622047244,
          "duration": 0.1395348837208985
        },
        {
          "name": "C6",
          "midi": 84,
          "time": 141.80232558137567,
          "velocity": 0.13385826771653545,
          "duration": 0.10465116279067388
        },
        {
          "name": "F#6",
          "midi": 90,
          "time": 141.80232558137567,
          "velocity": 0.1968503937007874,
          "duration": 0.39534883720921243
        },
        {
          "name": "F#1",
          "midi": 30,
          "time": 141.8139534883524,
          "velocity": 0.5354330708661418,
          "duration": 0.011627906976741542
        },
        {
          "name": "D3",
          "midi": 50,
          "time": 141.8139534883524,
          "velocity": 0.6299212598425197,
          "duration": 0.1395348837208985
        },
        {
          "name": "A3",
          "midi": 57,
          "time": 141.82558139532915,
          "velocity": 0.48031496062992124,
          "duration": 0.04651162790696617
        },
        {
          "name": "D5",
          "midi": 74,
          "time": 141.82558139532915,
          "velocity": 0.25984251968503935,
          "duration": 0.06976744186044925
        },
        {
          "name": "G4",
          "midi": 67,
          "time": 141.84883720928264,
          "velocity": 0.14173228346456693,
          "duration": 0.034883720930224626
        },
        {
          "name": "C5",
          "midi": 72,
          "time": 141.84883720928264,
          "velocity": 0.14173228346456693,
          "duration": 0.034883720930224626
        },
        {
          "name": "A2",
          "midi": 45,
          "time": 141.90697674416634,
          "velocity": 0.5275590551181102,
          "duration": 0.011627906976741542
        },
        {
          "name": "E5",
          "midi": 76,
          "time": 141.90697674416634,
          "velocity": 0.10236220472440945,
          "duration": 0.05813953488370771
        },
        {
          "name": "G7",
          "midi": 103,
          "time": 141.90697674416634,
          "velocity": 0.11023622047244094,
          "duration": 0.04651162790696617
        },
        {
          "name": "A2",
          "midi": 45,
          "time": 141.93023255811983,
          "velocity": 0.5590551181102362,
          "duration": 0.011627906976741542
        },
        {
          "name": "A#4",
          "midi": 70,
          "time": 141.93023255811983,
          "velocity": 0.11811023622047244,
          "duration": 0.034883720930224626
        },
        {
          "name": "G#2",
          "midi": 44,
          "time": 141.94186046509657,
          "velocity": 0.5039370078740157,
          "duration": 0.023255813953483084
        },
        {
          "name": "E5",
          "midi": 76,
          "time": 141.9767441860268,
          "velocity": 0.30708661417322836,
          "duration": 0.19767441860460622
        },
        {
          "name": "F#4",
          "midi": 66,
          "time": 141.99999999998028,
          "velocity": 0.2992125984251969,
          "duration": 0.15116279069764005
        },
        {
          "name": "C#7",
          "midi": 97,
          "time": 141.99999999998028,
          "velocity": 0.1968503937007874,
          "duration": 0.10465116279067388
        },
        {
          "name": "G7",
          "midi": 103,
          "time": 141.99999999998028,
          "velocity": 0.15748031496062992,
          "duration": 0.17441860465112313
        },
        {
          "name": "A#3",
          "midi": 58,
          "time": 142.01162790695702,
          "velocity": 0.41732283464566927,
          "duration": 0.023255813953483084
        },
        {
          "name": "C7",
          "midi": 96,
          "time": 142.01162790695702,
          "velocity": 0.13385826771653545,
          "duration": 0.05813953488370771
        },
        {
          "name": "D7",
          "midi": 98,
          "time": 142.01162790695702,
          "velocity": 0.07874015748031496,
          "duration": 0.034883720930224626
        },
        {
          "name": "D3",
          "midi": 50,
          "time": 142.02325581393376,
          "velocity": 0.5433070866141733,
          "duration": 0.05813953488370771
        },
        {
          "name": "A4",
          "midi": 69,
          "time": 142.02325581393376,
          "velocity": 0.30708661417322836,
          "duration": 0.023255813953483084
        },
        {
          "name": "E2",
          "midi": 40,
          "time": 142.0348837209105,
          "velocity": 0.4566929133858268,
          "duration": 0.023255813953483084
        },
        {
          "name": "A3",
          "midi": 57,
          "time": 142.0348837209105,
          "velocity": 0.4566929133858268,
          "duration": 0.034883720930224626
        },
        {
          "name": "F2",
          "midi": 41,
          "time": 142.05813953486398,
          "velocity": 0.49606299212598426,
          "duration": 0.023255813953483084
        },
        {
          "name": "C#3",
          "midi": 49,
          "time": 142.08139534881747,
          "velocity": 0.6062992125984252,
          "duration": 0.011627906976741542
        },
        {
          "name": "D3",
          "midi": 50,
          "time": 142.0930232557942,
          "velocity": 0.6141732283464567,
          "duration": 0.04651162790696617
        },
        {
          "name": "A2",
          "midi": 45,
          "time": 142.12790697672443,
          "velocity": 0.5669291338582677,
          "duration": 0.011627906976741542
        },
        {
          "name": "C3",
          "midi": 48,
          "time": 142.13953488370117,
          "velocity": 0.6141732283464567,
          "duration": 0.011627906976741542
        },
        {
          "name": "A2",
          "midi": 45,
          "time": 142.15116279067792,
          "velocity": 0.5669291338582677,
          "duration": 0.011627906976741542
        },
        {
          "name": "D3",
          "midi": 50,
          "time": 142.15116279067792,
          "velocity": 0.5669291338582677,
          "duration": 0.011627906976741542
        },
        {
          "name": "D#3",
          "midi": 51,
          "time": 142.16279069765466,
          "velocity": 0.5748031496062992,
          "duration": 0.011627906976741542
        },
        {
          "name": "A2",
          "midi": 45,
          "time": 142.1744186046314,
          "velocity": 0.5511811023622047,
          "duration": 0.023255813953483084
        },
        {
          "name": "F#4",
          "midi": 66,
          "time": 142.18604651160814,
          "velocity": 0.2440944881889764,
          "duration": 0.05813953488370771
        },
        {
          "name": "B6",
          "midi": 95,
          "time": 142.18604651160814,
          "velocity": 0.5511811023622047,
          "duration": 0.5930232558138187
        },
        {
          "name": "E5",
          "midi": 76,
          "time": 142.19767441858488,
          "velocity": 0.18110236220472442,
          "duration": 0.2209302325580893
        },
        {
          "name": "D#2",
          "midi": 39,
          "time": 142.20930232556162,
          "velocity": 0.33070866141732286,
          "duration": 0.034883720930224626
        },
        {
          "name": "F#7",
          "midi": 102,
          "time": 142.20930232556162,
          "velocity": 0.2440944881889764,
          "duration": 0.4651162790696617
        },
        {
          "name": "D3",
          "midi": 50,
          "time": 142.22093023253836,
          "velocity": 0.4645669291338583,
          "duration": 0.034883720930224626
        },
        {
          "name": "D5",
          "midi": 74,
          "time": 142.22093023253836,
          "velocity": 0.23622047244094488,
          "duration": 0.04651162790696617
        },
        {
          "name": "D#7",
          "midi": 99,
          "time": 142.22093023253836,
          "velocity": 0.1968503937007874,
          "duration": 0.11627906976741542
        },
        {
          "name": "A#4",
          "midi": 70,
          "time": 142.2325581395151,
          "velocity": 0.2992125984251969,
          "duration": 0.034883720930224626
        },
        {
          "name": "F#6",
          "midi": 90,
          "time": 142.2325581395151,
          "velocity": 0.2204724409448819,
          "duration": 0.406976744185954
        },
        {
          "name": "C#7",
          "midi": 97,
          "time": 142.2325581395151,
          "velocity": 0.2440944881889764,
          "duration": 0.18604651162786467
        },
        {
          "name": "D7",
          "midi": 98,
          "time": 142.2325581395151,
          "velocity": 0.1889763779527559,
          "duration": 0.0813953488371908
        },
        {
          "name": "C#4",
          "midi": 61,
          "time": 142.24418604649185,
          "velocity": 0.1889763779527559,
          "duration": 0.034883720930224626
        },
        {
          "name": "G#2",
          "midi": 44,
          "time": 142.2558139534686,
          "velocity": 0.4566929133858268,
          "duration": 0.023255813953483084
        },
        {
          "name": "B5",
          "midi": 83,
          "time": 142.2558139534686,
          "velocity": 0.13385826771653545,
          "duration": 0.034883720930224626
        },
        {
          "name": "A4",
          "midi": 69,
          "time": 142.26744186044533,
          "velocity": 0.25196850393700787,
          "duration": 0.11627906976741542
        },
        {
          "name": "F7",
          "midi": 101,
          "time": 142.26744186044533,
          "velocity": 0.10236220472440945,
          "duration": 0.10465116279067388
        },
        {
          "name": "A2",
          "midi": 45,
          "time": 142.27906976742207,
          "velocity": 0.4409448818897638,
          "duration": 0.04651162790696617
        },
        {
          "name": "A#3",
          "midi": 58,
          "time": 142.27906976742207,
          "velocity": 0.2755905511811024,
          "duration": 0.034883720930224626
        },
        {
          "name": "D4",
          "midi": 62,
          "time": 142.27906976742207,
          "velocity": 0.25984251968503935,
          "duration": 0.11627906976741542
        },
        {
          "name": "F#4",
          "midi": 66,
          "time": 142.27906976742207,
          "velocity": 0.25196850393700787,
          "duration": 0.06976744186044925
        },
        {
          "name": "B5",
          "midi": 83,
          "time": 142.30232558137556,
          "velocity": 0.11023622047244094,
          "duration": 0.10465116279067388
        },
        {
          "name": "F2",
          "midi": 41,
          "time": 142.33720930230578,
          "velocity": 0.4409448818897638,
          "duration": 0.023255813953483084
        },
        {
          "name": "D3",
          "midi": 50,
          "time": 142.33720930230578,
          "velocity": 0.4251968503937008,
          "duration": 0.034883720930224626
        },
        {
          "name": "G7",
          "midi": 103,
          "time": 142.33720930230578,
          "velocity": 0.11023622047244094,
          "duration": 0.034883720930224626
        },
        {
          "name": "G4",
          "midi": 67,
          "time": 142.34883720928252,
          "velocity": 0.28346456692913385,
          "duration": 0.023255813953483084
        },
        {
          "name": "D7",
          "midi": 98,
          "time": 142.34883720928252,
          "velocity": 0.1889763779527559,
          "duration": 0.15116279069764005
        },
        {
          "name": "D#7",
          "midi": 99,
          "time": 142.34883720928252,
          "velocity": 0.2125984251968504,
          "duration": 0.15116279069764005
        },
        {
          "name": "A3",
          "midi": 57,
          "time": 142.36046511625926,
          "velocity": 0.2992125984251969,
          "duration": 0.034883720930224626
        },
        {
          "name": "D#3",
          "midi": 51,
          "time": 142.372093023236,
          "velocity": 0.4566929133858268,
          "duration": 0.023255813953483084
        },
        {
          "name": "F#4",
          "midi": 66,
          "time": 142.372093023236,
          "velocity": 0.1889763779527559,
          "duration": 0.05813953488370771
        },
        {
          "name": "D3",
          "midi": 50,
          "time": 142.3953488371895,
          "velocity": 0.4881889763779528,
          "duration": 0.023255813953483084
        },
        {
          "name": "A#3",
          "midi": 58,
          "time": 142.3953488371895,
          "velocity": 0.23622047244094488,
          "duration": 0.034883720930224626
        },
        {
          "name": "E2",
          "midi": 40,
          "time": 142.40697674416623,
          "velocity": 0.4409448818897638,
          "duration": 0.023255813953483084
        },
        {
          "name": "D#3",
          "midi": 51,
          "time": 142.41860465114297,
          "velocity": 0.47244094488188976,
          "duration": 0.023255813953483084
        },
        {
          "name": "E5",
          "midi": 76,
          "time": 142.4302325581197,
          "velocity": 0.2992125984251969,
          "duration": 0.20930232558134776
        },
        {
          "name": "F#5",
          "midi": 78,
          "time": 142.4302325581197,
          "velocity": 0.3228346456692913,
          "duration": 0.1627906976743816
        },
        {
          "name": "C#7",
          "midi": 97,
          "time": 142.4302325581197,
          "velocity": 0.14960629921259844,
          "duration": 0.0813953488371908
        },
        {
          "name": "D#2",
          "midi": 39,
          "time": 142.44186046509645,
          "velocity": 0.41732283464566927,
          "duration": 0.023255813953483084
        },
        {
          "name": "D3",
          "midi": 50,
          "time": 142.44186046509645,
          "velocity": 0.6141732283464567,
          "duration": 0.12790697674415696
        },
        {
          "name": "A4",
          "midi": 69,
          "time": 142.44186046509645,
          "velocity": 0.33070866141732286,
          "duration": 0.06976744186044925
        },
        {
          "name": "E2",
          "midi": 40,
          "time": 142.46511627904994,
          "velocity": 0.4566929133858268,
          "duration": 0.023255813953483084
        },
        {
          "name": "A3",
          "midi": 57,
          "time": 142.46511627904994,
          "velocity": 0.4094488188976378,
          "duration": 0.023255813953483084
        },
        {
          "name": "F#4",
          "midi": 66,
          "time": 142.46511627904994,
          "velocity": 0.2677165354330709,
          "duration": 0.17441860465112313
        },
        {
          "name": "B5",
          "midi": 83,
          "time": 142.46511627904994,
          "velocity": 0.25984251968503935,
          "duration": 0.20930232558134776
        },
        {
          "name": "C#6",
          "midi": 85,
          "time": 142.46511627904994,
          "velocity": 0.07874015748031496,
          "duration": 0.034883720930224626
        },
        {
          "name": "A#6",
          "midi": 94,
          "time": 142.47674418602668,
          "velocity": 0.14173228346456693,
          "duration": 0.04651162790696617
        },
        {
          "name": "A3",
          "midi": 57,
          "time": 142.49999999998016,
          "velocity": 0.3464566929133858,
          "duration": 0.023255813953483084
        },
        {
          "name": "A4",
          "midi": 69,
          "time": 142.5348837209104,
          "velocity": 0.36220472440944884,
          "duration": 0.2209302325580893
        },
        {
          "name": "E7",
          "midi": 100,
          "time": 142.58139534881735,
          "velocity": 0.07086614173228346,
          "duration": 0.04651162790696617
        },
        {
          "name": "D#3",
          "midi": 51,
          "time": 142.5930232557941,
          "velocity": 0.3779527559055118,
          "duration": 0.023255813953483084
        },
        {
          "name": "D3",
          "midi": 50,
          "time": 142.61627906974758,
          "velocity": 0.3858267716535433,
          "duration": 0.023255813953483084
        },
        {
          "name": "F4",
          "midi": 65,
          "time": 142.62790697672432,
          "velocity": 0.3228346456692913,
          "duration": 0.034883720930224626
        },
        {
          "name": "C#5",
          "midi": 73,
          "time": 142.62790697672432,
          "velocity": 0.30708661417322836,
          "duration": 0.023255813953483084
        },
        {
          "name": "C6",
          "midi": 84,
          "time": 142.62790697672432,
          "velocity": 0.1968503937007874,
          "duration": 0.0813953488371908
        },
        {
          "name": "C7",
          "midi": 96,
          "time": 142.62790697672432,
          "velocity": 0.25196850393700787,
          "duration": 0.10465116279067388
        },
        {
          "name": "D#3",
          "midi": 51,
          "time": 142.63953488370106,
          "velocity": 0.3464566929133858,
          "duration": 0.023255813953483084
        },
        {
          "name": "C4",
          "midi": 60,
          "time": 142.63953488370106,
          "velocity": 0.4251968503937008,
          "duration": 0.034883720930224626
        },
        {
          "name": "G5",
          "midi": 79,
          "time": 142.63953488370106,
          "velocity": 0.2992125984251969,
          "duration": 0.023255813953483084
        },
        {
          "name": "C#7",
          "midi": 97,
          "time": 142.63953488370106,
          "velocity": 0.2047244094488189,
          "duration": 0.10465116279067388
        },
        {
          "name": "D7",
          "midi": 98,
          "time": 142.63953488370106,
          "velocity": 0.5984251968503937,
          "duration": 0.7558139534882002
        },
        {
          "name": "D#7",
          "midi": 99,
          "time": 142.63953488370106,
          "velocity": 0.2755905511811024,
          "duration": 0.05813953488370771
        },
        {
          "name": "E7",
          "midi": 100,
          "time": 142.63953488370106,
          "velocity": 0.2125984251968504,
          "duration": 0.0813953488371908
        },
        {
          "name": "D5",
          "midi": 74,
          "time": 142.6511627906778,
          "velocity": 0.3779527559055118,
          "duration": 0.6744186046510094
        },
        {
          "name": "E5",
          "midi": 76,
          "time": 142.6511627906778,
          "velocity": 0.2755905511811024,
          "duration": 0.04651162790696617
        },
        {
          "name": "C#6",
          "midi": 85,
          "time": 142.6511627906778,
          "velocity": 0.28346456692913385,
          "duration": 0.05813953488370771
        },
        {
          "name": "G7",
          "midi": 103,
          "time": 142.6511627906778,
          "velocity": 0.14173228346456693,
          "duration": 0.04651162790696617
        },
        {
          "name": "D3",
          "midi": 50,
          "time": 142.66279069765454,
          "velocity": 0.6535433070866141,
          "duration": 0.11627906976741542
        },
        {
          "name": "G#3",
          "midi": 56,
          "time": 142.66279069765454,
          "velocity": 0.4330708661417323,
          "duration": 0.023255813953483084
        },
        {
          "name": "F#5",
          "midi": 78,
          "time": 142.66279069765454,
          "velocity": 0.2755905511811024,
          "duration": 0.06976744186044925
        },
        {
          "name": "D#4",
          "midi": 63,
          "time": 142.67441860463128,
          "velocity": 0.47244094488188976,
          "duration": 0.023255813953483084
        },
        {
          "name": "G4",
          "midi": 67,
          "time": 142.67441860463128,
          "velocity": 0.2992125984251969,
          "duration": 0.05813953488370771
        },
        {
          "name": "G#5",
          "midi": 80,
          "time": 142.67441860463128,
          "velocity": 0.12598425196850394,
          "duration": 0.04651162790696617
        },
        {
          "name": "D#6",
          "midi": 87,
          "time": 142.67441860463128,
          "velocity": 0.1968503937007874,
          "duration": 0.04651162790696617
        },
        {
          "name": "C5",
          "midi": 72,
          "time": 142.68604651160803,
          "velocity": 0.1732283464566929,
          "duration": 0.06976744186044925
        },
        {
          "name": "B5",
          "midi": 83,
          "time": 142.68604651160803,
          "velocity": 0.13385826771653545,
          "duration": 0.04651162790696617
        },
        {
          "name": "F#7",
          "midi": 102,
          "time": 142.69767441858477,
          "velocity": 0.15748031496062992,
          "duration": 0.1627906976743816
        },
        {
          "name": "A3",
          "midi": 57,
          "time": 142.7093023255615,
          "velocity": 0.3543307086614173,
          "duration": 0.023255813953483084
        },
        {
          "name": "E5",
          "midi": 76,
          "time": 142.72093023253825,
          "velocity": 0.14173228346456693,
          "duration": 0.11627906976741542
        },
        {
          "name": "F#4",
          "midi": 66,
          "time": 142.732558139515,
          "velocity": 0.2283464566929134,
          "duration": 0.023255813953483084
        },
        {
          "name": "D#7",
          "midi": 99,
          "time": 142.732558139515,
          "velocity": 0.10236220472440945,
          "duration": 0.04651162790696617
        },
        {
          "name": "A5",
          "midi": 81,
          "time": 142.75581395346848,
          "velocity": 0.33858267716535434,
          "duration": 0.6162790697673017
        },
        {
          "name": "A2",
          "midi": 45,
          "time": 142.76744186044522,
          "velocity": 0.5511811023622047,
          "duration": 0.011627906976741542
        },
        {
          "name": "A#3",
          "midi": 58,
          "time": 142.76744186044522,
          "velocity": 0.33858267716535434,
          "duration": 0.04651162790696617
        },
        {
          "name": "D#3",
          "midi": 51,
          "time": 142.77906976742196,
          "velocity": 0.6220472440944882,
          "duration": 0.011627906976741542
        },
        {
          "name": "A2",
          "midi": 45,
          "time": 142.7906976743987,
          "velocity": 0.6141732283464567,
          "duration": 0.04651162790696617
        },
        {
          "name": "D3",
          "midi": 50,
          "time": 142.7906976743987,
          "velocity": 0.5826771653543307,
          "duration": 0.011627906976741542
        },
        {
          "name": "F#4",
          "midi": 66,
          "time": 142.7906976743987,
          "velocity": 0.1889763779527559,
          "duration": 0.04651162790696617
        },
        {
          "name": "A4",
          "midi": 69,
          "time": 142.7906976743987,
          "velocity": 0.23622047244094488,
          "duration": 0.06976744186044925
        },
        {
          "name": "B6",
          "midi": 95,
          "time": 142.80232558137544,
          "velocity": 0.2283464566929134,
          "duration": 0.06976744186044925
        },
        {
          "name": "C#6",
          "midi": 85,
          "time": 142.82558139532892,
          "velocity": 0.08661417322834646,
          "duration": 0.034883720930224626
        },
        {
          "name": "G#2",
          "midi": 44,
          "time": 142.83720930230567,
          "velocity": 0.5984251968503937,
          "duration": 0.011627906976741542
        },
        {
          "name": "A#3",
          "midi": 58,
          "time": 142.83720930230567,
          "velocity": 0.31496062992125984,
          "duration": 0.023255813953483084
        },
        {
          "name": "A2",
          "midi": 45,
          "time": 142.8488372092824,
          "velocity": 0.5275590551181102,
          "duration": 0.011627906976741542
        },
        {
          "name": "F#5",
          "midi": 78,
          "time": 142.8488372092824,
          "velocity": 0.2755905511811024,
          "duration": 0.6976744186044925
        },
        {
          "name": "F2",
          "midi": 41,
          "time": 142.86046511625915,
          "velocity": 0.5905511811023622,
          "duration": 0.011627906976741542
        },
        {
          "name": "G4",
          "midi": 67,
          "time": 142.86046511625915,
          "velocity": 0.25984251968503935,
          "duration": 0.034883720930224626
        },
        {
          "name": "A#4",
          "midi": 70,
          "time": 142.86046511625915,
          "velocity": 0.2283464566929134,
          "duration": 0.023255813953483084
        },
        {
          "name": "E5",
          "midi": 76,
          "time": 142.86046511625915,
          "velocity": 0.2677165354330709,
          "duration": 0.023255813953483084
        },
        {
          "name": "G#2",
          "midi": 44,
          "time": 142.8720930232359,
          "velocity": 0.6062992125984252,
          "duration": 0.011627906976741542
        },
        {
          "name": "D4",
          "midi": 62,
          "time": 142.8720930232359,
          "velocity": 0.1732283464566929,
          "duration": 0.034883720930224626
        },
        {
          "name": "C7",
          "midi": 96,
          "time": 142.8720930232359,
          "velocity": 0.12598425196850394,
          "duration": 0.034883720930224626
        },
        {
          "name": "C#7",
          "midi": 97,
          "time": 142.8720930232359,
          "velocity": 0.25196850393700787,
          "duration": 0.11627906976741542
        },
        {
          "name": "D#7",
          "midi": 99,
          "time": 142.8720930232359,
          "velocity": 0.16535433070866143,
          "duration": 0.12790697674415696
        },
        {
          "name": "A4",
          "midi": 69,
          "time": 142.88372093021263,
          "velocity": 0.36220472440944884,
          "duration": 0.3604651162789878
        },
        {
          "name": "F#7",
          "midi": 102,
          "time": 142.88372093021263,
          "velocity": 0.47244094488188976,
          "duration": 0.8720930232556157
        },
        {
          "name": "C#3",
          "midi": 49,
          "time": 142.89534883718937,
          "velocity": 0.3937007874015748,
          "duration": 0.023255813953483084
        },
        {
          "name": "A3",
          "midi": 57,
          "time": 142.89534883718937,
          "velocity": 0.3700787401574803,
          "duration": 0.034883720930224626
        },
        {
          "name": "E5",
          "midi": 76,
          "time": 142.89534883718937,
          "velocity": 0.2755905511811024,
          "duration": 0.10465116279067388
        },
        {
          "name": "A#3",
          "midi": 58,
          "time": 142.9302325581196,
          "velocity": 0.3779527559055118,
          "duration": 0.023255813953483084
        },
        {
          "name": "D4",
          "midi": 62,
          "time": 142.9302325581196,
          "velocity": 0.31496062992125984,
          "duration": 0.12790697674415696
        },
        {
          "name": "F#4",
          "midi": 66,
          "time": 142.9302325581196,
          "velocity": 0.31496062992125984,
          "duration": 0.3604651162789878
        },
        {
          "name": "F7",
          "midi": 101,
          "time": 142.9302325581196,
          "velocity": 0.07086614173228346,
          "duration": 0.034883720930224626
        },
        {
          "name": "A2",
          "midi": 45,
          "time": 142.94186046509634,
          "velocity": 0.4015748031496063,
          "duration": 0.023255813953483084
        },
        {
          "name": "B6",
          "midi": 95,
          "time": 142.95348837207308,
          "velocity": 0.12598425196850394,
          "duration": 0.06976744186044925
        },
        {
          "name": "C7",
          "midi": 96,
          "time": 142.95348837207308,
          "velocity": 0.13385826771653545,
          "duration": 0.09302325581393234
        },
        {
          "name": "G7",
          "midi": 103,
          "time": 142.95348837207308,
          "velocity": 0.11811023622047244,
          "duration": 0.17441860465112313
        },
        {
          "name": "D3",
          "midi": 50,
          "time": 142.9883720930033,
          "velocity": 0.41732283464566927,
          "duration": 0.034883720930224626
        },
        {
          "name": "E7",
          "midi": 100,
          "time": 142.99999999998005,
          "velocity": 0.11023622047244094,
          "duration": 0.06976744186044925
        },
        {
          "name": "D#7",
          "midi": 99,
          "time": 143.0116279069568,
          "velocity": 0.11811023622047244,
          "duration": 0.09302325581393234
        },
        {
          "name": "D2",
          "midi": 38,
          "time": 143.02325581393353,
          "velocity": 0.36220472440944884,
          "duration": 0.023255813953483084
        },
        {
          "name": "D#3",
          "midi": 51,
          "time": 143.02325581393353,
          "velocity": 0.49606299212598426,
          "duration": 0.023255813953483084
        },
        {
          "name": "E5",
          "midi": 76,
          "time": 143.03488372091027,
          "velocity": 0.2047244094488189,
          "duration": 0.10465116279067388
        },
        {
          "name": "D3",
          "midi": 50,
          "time": 143.046511627887,
          "velocity": 0.5118110236220472,
          "duration": 0.023255813953483084
        },
        {
          "name": "D#4",
          "midi": 63,
          "time": 143.05813953486376,
          "velocity": 0.1968503937007874,
          "duration": 0.034883720930224626
        },
        {
          "name": "C7",
          "midi": 96,
          "time": 143.05813953486376,
          "velocity": 0.2047244094488189,
          "duration": 0.10465116279067388
        },
        {
          "name": "D#3",
          "midi": 51,
          "time": 143.0697674418405,
          "velocity": 0.5118110236220472,
          "duration": 0.023255813953483084
        },
        {
          "name": "D#6",
          "midi": 87,
          "time": 143.0697674418405,
          "velocity": 0.14173228346456693,
          "duration": 0.10465116279067388
        },
        {
          "name": "B6",
          "midi": 95,
          "time": 143.0697674418405,
          "velocity": 0.14173228346456693,
          "duration": 0.17441860465112313
        },
        {
          "name": "C#7",
          "midi": 97,
          "time": 143.0697674418405,
          "velocity": 0.33070866141732286,
          "duration": 0.5116279069766279
        },
        {
          "name": "D3",
          "midi": 50,
          "time": 143.09302325579398,
          "velocity": 0.5275590551181102,
          "duration": 0.034883720930224626
        },
        {
          "name": "F#6",
          "midi": 90,
          "time": 143.09302325579398,
          "velocity": 0.30708661417322836,
          "duration": 0.279069767441797
        },
        {
          "name": "E7",
          "midi": 100,
          "time": 143.09302325579398,
          "velocity": 0.12598425196850394,
          "duration": 0.034883720930224626
        },
        {
          "name": "B5",
          "midi": 83,
          "time": 143.11627906974746,
          "velocity": 0.08661417322834646,
          "duration": 0.05813953488370771
        },
        {
          "name": "C6",
          "midi": 84,
          "time": 143.11627906974746,
          "velocity": 0.11811023622047244,
          "duration": 0.10465116279067388
        },
        {
          "name": "F7",
          "midi": 101,
          "time": 143.11627906974746,
          "velocity": 0.10236220472440945,
          "duration": 0.0813953488371908
        },
        {
          "name": "F2",
          "midi": 41,
          "time": 143.1279069767242,
          "velocity": 0.5433070866141733,
          "duration": 0.023255813953483084
        },
        {
          "name": "C#6",
          "midi": 85,
          "time": 143.1279069767242,
          "velocity": 0.2047244094488189,
          "duration": 0.06976744186044925
        },
        {
          "name": "D#7",
          "midi": 99,
          "time": 143.1279069767242,
          "velocity": 0.18110236220472442,
          "duration": 0.3604651162789878
        },
        {
          "name": "D#3",
          "midi": 51,
          "time": 143.13953488370095,
          "velocity": 0.4330708661417323,
          "duration": 0.023255813953483084
        },
        {
          "name": "C5",
          "midi": 72,
          "time": 143.13953488370095,
          "velocity": 0.15748031496062992,
          "duration": 0.06976744186044925
        },
        {
          "name": "E7",
          "midi": 100,
          "time": 143.1511627906777,
          "velocity": 0.1889763779527559,
          "duration": 0.24418604651157239
        },
        {
          "name": "D3",
          "midi": 50,
          "time": 143.16279069765443,
          "velocity": 0.4645669291338583,
          "duration": 0.023255813953483084
        },
        {
          "name": "D3",
          "midi": 50,
          "time": 143.19767441858465,
          "velocity": 0.4566929133858268,
          "duration": 0.04651162790696617
        },
        {
          "name": "F2",
          "midi": 41,
          "time": 143.23255813951488,
          "velocity": 0.30708661417322836,
          "duration": 0.023255813953483084
        },
        {
          "name": "A3",
          "midi": 57,
          "time": 143.24418604649162,
          "velocity": 0.11811023622047244,
          "duration": 0.04651162790696617
        },
        {
          "name": "D3",
          "midi": 50,
          "time": 143.25581395346836,
          "velocity": 0.47244094488188976,
          "duration": 0.20930232558134776
        },
        {
          "name": "C#6",
          "midi": 85,
          "time": 143.25581395346836,
          "velocity": 0.14960629921259844,
          "duration": 0.10465116279067388
        },
        {
          "name": "A4",
          "midi": 69,
          "time": 143.2674418604451,
          "velocity": 0.33070866141732286,
          "duration": 0.11627906976741542
        },
        {
          "name": "E5",
          "midi": 76,
          "time": 143.2906976743986,
          "velocity": 0.25984251968503935,
          "duration": 0.2209302325580893
        },
        {
          "name": "B5",
          "midi": 83,
          "time": 143.2906976743986,
          "velocity": 0.14173228346456693,
          "duration": 0.06976744186044925
        },
        {
          "name": "A#3",
          "midi": 58,
          "time": 143.30232558137533,
          "velocity": 0.29133858267716534,
          "duration": 0.05813953488370771
        },
        {
          "name": "E4",
          "midi": 64,
          "time": 143.30232558137533,
          "velocity": 0.28346456692913385,
          "duration": 0.034883720930224626
        },
        {
          "name": "F2",
          "midi": 41,
          "time": 143.31395348835207,
          "velocity": 0.49606299212598426,
          "duration": 0.034883720930224626
        },
        {
          "name": "F#4",
          "midi": 66,
          "time": 143.3255813953288,
          "velocity": 0.3464566929133858,
          "duration": 0.1395348837208985
        },
        {
          "name": "D5",
          "midi": 74,
          "time": 143.33720930230555,
          "velocity": 0.1889763779527559,
          "duration": 0.034883720930224626
        },
        {
          "name": "E2",
          "midi": 40,
          "time": 143.3488372092823,
          "velocity": 0.44881889763779526,
          "duration": 0.023255813953483084
        },
        {
          "name": "C5",
          "midi": 72,
          "time": 143.3488372092823,
          "velocity": 0.07874015748031496,
          "duration": 0.0813953488371908
        },
        {
          "name": "A3",
          "midi": 57,
          "time": 143.36046511625904,
          "velocity": 0.3464566929133858,
          "duration": 0.1395348837208985
        },
        {
          "name": "D2",
          "midi": 38,
          "time": 143.37209302323578,
          "velocity": 0.30708661417322836,
          "duration": 0.023255813953483084
        },
        {
          "name": "C7",
          "midi": 96,
          "time": 143.37209302323578,
          "velocity": 0.07874015748031496,
          "duration": 0.0813953488371908
        },
        {
          "name": "A4",
          "midi": 69,
          "time": 143.39534883718926,
          "velocity": 0.3700787401574803,
          "duration": 0.15116279069764005
        },
        {
          "name": "D7",
          "midi": 98,
          "time": 143.406976744166,
          "velocity": 0.18110236220472442,
          "duration": 0.2209302325580893
        },
        {
          "name": "D#2",
          "midi": 39,
          "time": 143.44186046509623,
          "velocity": 0.4015748031496063,
          "duration": 0.023255813953483084
        },
        {
          "name": "E2",
          "midi": 40,
          "time": 143.4651162790497,
          "velocity": 0.41732283464566927,
          "duration": 0.023255813953483084
        },
        {
          "name": "D#3",
          "midi": 51,
          "time": 143.4651162790497,
          "velocity": 0.3543307086614173,
          "duration": 0.023255813953483084
        },
        {
          "name": "C5",
          "midi": 72,
          "time": 143.47674418602645,
          "velocity": 0.2204724409448819,
          "duration": 0.04651162790696617
        },
        {
          "name": "F#4",
          "midi": 66,
          "time": 143.4883720930032,
          "velocity": 0.3464566929133858,
          "duration": 0.034883720930224626
        },
        {
          "name": "D#2",
          "midi": 39,
          "time": 143.49999999997993,
          "velocity": 0.5354330708661418,
          "duration": 0.011627906976741542
        },
        {
          "name": "D#4",
          "midi": 63,
          "time": 143.49999999997993,
          "velocity": 0.36220472440944884,
          "duration": 0.023255813953483084
        },
        {
          "name": "G#2",
          "midi": 44,
          "time": 143.51162790695668,
          "velocity": 0.5905511811023622,
          "duration": 0.011627906976741542
        },
        {
          "name": "C7",
          "midi": 96,
          "time": 143.51162790695668,
          "velocity": 0.09448818897637795,
          "duration": 0.034883720930224626
        },
        {
          "name": "E7",
          "midi": 100,
          "time": 143.51162790695668,
          "velocity": 0.5039370078740157,
          "duration": 2.5465116279063977
        },
        {
          "name": "B2",
          "midi": 47,
          "time": 143.52325581393342,
          "velocity": 0.5826771653543307,
          "duration": 0.011627906976741542
        },
        {
          "name": "B4",
          "midi": 71,
          "time": 143.52325581393342,
          "velocity": 0.2677165354330709,
          "duration": 0.11627906976741542
        },
        {
          "name": "D#7",
          "midi": 99,
          "time": 143.52325581393342,
          "velocity": 0.13385826771653545,
          "duration": 0.06976744186044925
        },
        {
          "name": "F7",
          "midi": 101,
          "time": 143.52325581393342,
          "velocity": 0.07874015748031496,
          "duration": 0.034883720930224626
        },
        {
          "name": "B3",
          "midi": 59,
          "time": 143.53488372091016,
          "velocity": 0.36220472440944884,
          "duration": 0.04651162790696617
        },
        {
          "name": "E4",
          "midi": 64,
          "time": 143.53488372091016,
          "velocity": 0.4094488188976378,
          "duration": 0.279069767441797
        },
        {
          "name": "F2",
          "midi": 41,
          "time": 143.55813953486364,
          "velocity": 0.5039370078740157,
          "duration": 0.034883720930224626
        },
        {
          "name": "E3",
          "midi": 52,
          "time": 143.56976744184038,
          "velocity": 0.5433070866141733,
          "duration": 0.06976744186044925
        },
        {
          "name": "C7",
          "midi": 96,
          "time": 143.56976744184038,
          "velocity": 0.10236220472440945,
          "duration": 0.034883720930224626
        },
        {
          "name": "A6",
          "midi": 93,
          "time": 143.58139534881713,
          "velocity": 0.25984251968503935,
          "duration": 0.04651162790696617
        },
        {
          "name": "B6",
          "midi": 95,
          "time": 143.58139534881713,
          "velocity": 0.10236220472440945,
          "duration": 0.05813953488370771
        },
        {
          "name": "B3",
          "midi": 59,
          "time": 143.59302325579387,
          "velocity": 0.36220472440944884,
          "duration": 0.034883720930224626
        },
        {
          "name": "F#5",
          "midi": 78,
          "time": 143.59302325579387,
          "velocity": 0.10236220472440945,
          "duration": 0.034883720930224626
        },
        {
          "name": "G#4",
          "midi": 68,
          "time": 143.61627906974735,
          "velocity": 0.14173228346456693,
          "duration": 0.05813953488370771
        },
        {
          "name": "D#7",
          "midi": 99,
          "time": 143.61627906974735,
          "velocity": 0.2047244094488189,
          "duration": 0.04651162790696617
        },
        {
          "name": "C4",
          "midi": 60,
          "time": 143.6279069767241,
          "velocity": 0.2440944881889764,
          "duration": 0.023255813953483084
        },
        {
          "name": "D#3",
          "midi": 51,
          "time": 143.63953488370083,
          "velocity": 0.5354330708661418,
          "duration": 0.011627906976741542
        },
        {
          "name": "F#5",
          "midi": 78,
          "time": 143.63953488370083,
          "velocity": 0.41732283464566927,
          "duration": 0.1627906976743816
        },
        {
          "name": "E3",
          "midi": 52,
          "time": 143.65116279067757,
          "velocity": 0.4566929133858268,
          "duration": 0.023255813953483084
        },
        {
          "name": "B6",
          "midi": 95,
          "time": 143.66279069765432,
          "velocity": 0.15748031496062992,
          "duration": 0.17441860465112313
        },
        {
          "name": "E2",
          "midi": 40,
          "time": 143.67441860463106,
          "velocity": 0.3858267716535433,
          "duration": 0.04651162790696617
        },
        {
          "name": "D#5",
          "midi": 75,
          "time": 143.67441860463106,
          "velocity": 0.2992125984251969,
          "duration": 0.023255813953483084
        },
        {
          "name": "D7",
          "midi": 98,
          "time": 143.67441860463106,
          "velocity": 0.08661417322834646,
          "duration": 0.04651162790696617
        },
        {
          "name": "B4",
          "midi": 71,
          "time": 143.70930232556128,
          "velocity": 0.33070866141732286,
          "duration": 0.20930232558134776
        },
        {
          "name": "D#2",
          "midi": 39,
          "time": 143.72093023253802,
          "velocity": 0.5275590551181102,
          "duration": 0.011627906976741542
        },
        {
          "name": "A4",
          "midi": 69,
          "time": 143.72093023253802,
          "velocity": 0.23622047244094488,
          "duration": 0.023255813953483084
        },
        {
          "name": "C#7",
          "midi": 97,
          "time": 143.72093023253802,
          "velocity": 0.1889763779527559,
          "duration": 0.0813953488371908
        },
        {
          "name": "A3",
          "midi": 57,
          "time": 143.73255813951477,
          "velocity": 0.2992125984251969,
          "duration": 0.023255813953483084
        },
        {
          "name": "G4",
          "midi": 67,
          "time": 143.7441860464915,
          "velocity": 0.3543307086614173,
          "duration": 0.3604651162789878
        },
        {
          "name": "D#5",
          "midi": 75,
          "time": 143.7441860464915,
          "velocity": 0.23622047244094488,
          "duration": 0.023255813953483084
        },
        {
          "name": "C7",
          "midi": 96,
          "time": 143.75581395346825,
          "velocity": 0.08661417322834646,
          "duration": 0.04651162790696617
        },
        {
          "name": "D7",
          "midi": 98,
          "time": 143.75581395346825,
          "velocity": 0.11023622047244094,
          "duration": 0.05813953488370771
        },
        {
          "name": "D#7",
          "midi": 99,
          "time": 143.75581395346825,
          "velocity": 0.09448818897637795,
          "duration": 0.034883720930224626
        },
        {
          "name": "E3",
          "midi": 52,
          "time": 143.767441860445,
          "velocity": 0.5590551181102362,
          "duration": 0.06976744186044925
        },
        {
          "name": "B3",
          "midi": 59,
          "time": 143.767441860445,
          "velocity": 0.30708661417322836,
          "duration": 0.034883720930224626
        },
        {
          "name": "F2",
          "midi": 41,
          "time": 143.77906976742173,
          "velocity": 0.5118110236220472,
          "duration": 0.011627906976741542
        },
        {
          "name": "G7",
          "midi": 103,
          "time": 143.81395348835196,
          "velocity": 0.12598425196850394,
          "duration": 0.034883720930224626
        },
        {
          "name": "B3",
          "midi": 59,
          "time": 143.8255813953287,
          "velocity": 0.28346456692913385,
          "duration": 0.10465116279067388
        },
        {
          "name": "F#6",
          "midi": 90,
          "time": 143.8255813953287,
          "velocity": 0.15748031496062992,
          "duration": 0.06976744186044925
        },
        {
          "name": "D#3",
          "midi": 51,
          "time": 143.83720930230544,
          "velocity": 0.5511811023622047,
          "duration": 0.011627906976741542
        },
        {
          "name": "E4",
          "midi": 64,
          "time": 143.83720930230544,
          "velocity": 0.2204724409448819,
          "duration": 0.12790697674415696
        },
        {
          "name": "F#5",
          "midi": 78,
          "time": 143.83720930230544,
          "velocity": 0.25984251968503935,
          "duration": 0.1395348837208985
        },
        {
          "name": "E3",
          "midi": 52,
          "time": 143.84883720928218,
          "velocity": 0.5196850393700787,
          "duration": 0.05813953488370771
        },
        {
          "name": "C#7",
          "midi": 97,
          "time": 143.86046511625892,
          "velocity": 0.2440944881889764,
          "duration": 0.18604651162786467
        },
        {
          "name": "E2",
          "midi": 40,
          "time": 143.87209302323566,
          "velocity": 0.4566929133858268,
          "duration": 0.023255813953483084
        },
        {
          "name": "E2",
          "midi": 40,
          "time": 143.9069767441659,
          "velocity": 0.5118110236220472,
          "duration": 0.011627906976741542
        },
        {
          "name": "B6",
          "midi": 95,
          "time": 143.9069767441659,
          "velocity": 0.08661417322834646,
          "duration": 0.034883720930224626
        },
        {
          "name": "D5",
          "midi": 74,
          "time": 143.93023255811937,
          "velocity": 0.1889763779527559,
          "duration": 0.05813953488370771
        },
        {
          "name": "A5",
          "midi": 81,
          "time": 143.93023255811937,
          "velocity": 0.25984251968503935,
          "duration": 0.29069767441853855
        },
        {
          "name": "A2",
          "midi": 45,
          "time": 143.9418604650961,
          "velocity": 0.3858267716535433,
          "duration": 0.023255813953483084
        },
        {
          "name": "B3",
          "midi": 59,
          "time": 143.9418604650961,
          "velocity": 0.2283464566929134,
          "duration": 0.023255813953483084
        },
        {
          "name": "D7",
          "midi": 98,
          "time": 143.9418604650961,
          "velocity": 0.1889763779527559,
          "duration": 0.29069767441853855
        },
        {
          "name": "G#5",
          "midi": 80,
          "time": 143.95348837207285,
          "velocity": 0.07086614173228346,
          "duration": 0.034883720930224626
        },
        {
          "name": "F7",
          "midi": 101,
          "time": 143.95348837207285,
          "velocity": 0.07874015748031496,
          "duration": 0.034883720930224626
        },
        {
          "name": "D#3",
          "midi": 51,
          "time": 143.9651162790496,
          "velocity": 0.3858267716535433,
          "duration": 0.034883720930224626
        },
        {
          "name": "C4",
          "midi": 60,
          "time": 143.9651162790496,
          "velocity": 0.36220472440944884,
          "duration": 0.023255813953483084
        },
        {
          "name": "C7",
          "midi": 96,
          "time": 143.9651162790496,
          "velocity": 0.07874015748031496,
          "duration": 0.04651162790696617
        },
        {
          "name": "G7",
          "midi": 103,
          "time": 143.9651162790496,
          "velocity": 0.10236220472440945,
          "duration": 0.034883720930224626
        },
        {
          "name": "G#6",
          "midi": 92,
          "time": 143.97674418602634,
          "velocity": 0.1732283464566929,
          "duration": 0.11627906976741542
        },
        {
          "name": "B6",
          "midi": 95,
          "time": 143.97674418602634,
          "velocity": 0.07086614173228346,
          "duration": 0.034883720930224626
        },
        {
          "name": "G#2",
          "midi": 44,
          "time": 143.98837209300308,
          "velocity": 0.5196850393700787,
          "duration": 0.023255813953483084
        },
        {
          "name": "B3",
          "midi": 59,
          "time": 143.98837209300308,
          "velocity": 0.3700787401574803,
          "duration": 0.17441860465112313
        },
        {
          "name": "F#7",
          "midi": 102,
          "time": 143.98837209300308,
          "velocity": 0.12598425196850394,
          "duration": 0.05813953488370771
        },
        {
          "name": "B5",
          "midi": 83,
          "time": 143.99999999997982,
          "velocity": 0.13385826771653545,
          "duration": 0.11627906976741542
        },
        {
          "name": "D#7",
          "midi": 99,
          "time": 143.99999999997982,
          "velocity": 0.2047244094488189,
          "duration": 0.17441860465112313
        },
        {
          "name": "D5",
          "midi": 74,
          "time": 144.01162790695656,
          "velocity": 0.25196850393700787,
          "duration": 0.1395348837208985
        },
        {
          "name": "F2",
          "midi": 41,
          "time": 144.0232558139333,
          "velocity": 0.5511811023622047,
          "duration": 0.0813953488371908
        },
        {
          "name": "E3",
          "midi": 52,
          "time": 144.0232558139333,
          "velocity": 0.30708661417322836,
          "duration": 0.023255813953483084
        },
        {
          "name": "G7",
          "midi": 103,
          "time": 144.0232558139333,
          "velocity": 0.15748031496062992,
          "duration": 0.04651162790696617
        },
        {
          "name": "F#5",
          "midi": 78,
          "time": 144.03488372091005,
          "velocity": 0.31496062992125984,
          "duration": 0.18604651162786467
        },
        {
          "name": "C7",
          "midi": 96,
          "time": 144.03488372091005,
          "velocity": 0.15748031496062992,
          "duration": 0.05813953488370771
        },
        {
          "name": "E4",
          "midi": 64,
          "time": 144.0465116278868,
          "velocity": 0.29133858267716534,
          "duration": 0.11627906976741542
        },
        {
          "name": "C#7",
          "midi": 97,
          "time": 144.06976744184027,
          "velocity": 0.2283464566929134,
          "duration": 0.15116279069764005
        },
        {
          "name": "D#6",
          "midi": 87,
          "time": 144.081395348817,
          "velocity": 0.09448818897637795,
          "duration": 0.05813953488370771
        },
        {
          "name": "E2",
          "midi": 40,
          "time": 144.1046511627705,
          "velocity": 0.3779527559055118,
          "duration": 0.023255813953483084
        },
        {
          "name": "F3",
          "midi": 53,
          "time": 144.13953488370072,
          "velocity": 0.41732283464566927,
          "duration": 0.023255813953483084
        },
        {
          "name": "G#5",
          "midi": 80,
          "time": 144.13953488370072,
          "velocity": 0.2047244094488189,
          "duration": 0.034883720930224626
        },
        {
          "name": "G2",
          "midi": 43,
          "time": 144.1627906976542,
          "velocity": 0.5433070866141733,
          "duration": 0.011627906976741542
        },
        {
          "name": "G6",
          "midi": 91,
          "time": 144.1627906976542,
          "velocity": 0.08661417322834646,
          "duration": 0.06976744186044925
        },
        {
          "name": "F7",
          "midi": 101,
          "time": 144.1627906976542,
          "velocity": 0.13385826771653545,
          "duration": 0.034883720930224626
        },
        {
          "name": "F#2",
          "midi": 42,
          "time": 144.17441860463094,
          "velocity": 0.5275590551181102,
          "duration": 0.011627906976741542
        },
        {
          "name": "G4",
          "midi": 67,
          "time": 144.17441860463094,
          "velocity": 0.48031496062992124,
          "duration": 0.20930232558134776
        },
        {
          "name": "E3",
          "midi": 52,
          "time": 144.18604651160769,
          "velocity": 0.4409448818897638,
          "duration": 0.023255813953483084
        },
        {
          "name": "B3",
          "midi": 59,
          "time": 144.18604651160769,
          "velocity": 0.4015748031496063,
          "duration": 0.15116279069764005
        },
        {
          "name": "E5",
          "midi": 76,
          "time": 144.18604651160769,
          "velocity": 0.3937007874015748,
          "duration": 0.6627906976742679
        },
        {
          "name": "D#7",
          "midi": 99,
          "time": 144.18604651160769,
          "velocity": 0.14960629921259844,
          "duration": 0.04651162790696617
        },
        {
          "name": "E4",
          "midi": 64,
          "time": 144.20930232556117,
          "velocity": 0.33858267716535434,
          "duration": 0.15116279069764005
        },
        {
          "name": "E3",
          "midi": 52,
          "time": 144.2209302325379,
          "velocity": 0.48031496062992124,
          "duration": 0.05813953488370771
        },
        {
          "name": "F#6",
          "midi": 90,
          "time": 144.2441860464914,
          "velocity": 0.14960629921259844,
          "duration": 0.0813953488371908
        },
        {
          "name": "E3",
          "midi": 52,
          "time": 144.29069767439836,
          "velocity": 0.25196850393700787,
          "duration": 0.023255813953483084
        },
        {
          "name": "D#2",
          "midi": 39,
          "time": 144.3023255813751,
          "velocity": 0.2755905511811024,
          "duration": 0.023255813953483084
        },
        {
          "name": "F#5",
          "midi": 78,
          "time": 144.31395348835184,
          "velocity": 0.28346456692913385,
          "duration": 0.09302325581393234
        },
        {
          "name": "B2",
          "midi": 47,
          "time": 144.32558139532858,
          "velocity": 0.29133858267716534,
          "duration": 0.034883720930224626
        },
        {
          "name": "B5",
          "midi": 83,
          "time": 144.33720930230533,
          "velocity": 0.16535433070866143,
          "duration": 0.10465116279067388
        },
        {
          "name": "E2",
          "midi": 40,
          "time": 144.34883720928207,
          "velocity": 0.33070866141732286,
          "duration": 0.023255813953483084
        },
        {
          "name": "C5",
          "midi": 72,
          "time": 144.34883720928207,
          "velocity": 0.2677165354330709,
          "duration": 0.034883720930224626
        },
        {
          "name": "D5",
          "midi": 74,
          "time": 144.34883720928207,
          "velocity": 0.4094488188976378,
          "duration": 0.034883720930224626
        },
        {
          "name": "C3",
          "midi": 48,
          "time": 144.3604651162588,
          "velocity": 0.5354330708661418,
          "duration": 0.034883720930224626
        },
        {
          "name": "A#3",
          "midi": 58,
          "time": 144.3604651162588,
          "velocity": 0.47244094488188976,
          "duration": 0.023255813953483084
        },
        {
          "name": "F4",
          "midi": 65,
          "time": 144.3604651162588,
          "velocity": 0.4566929133858268,
          "duration": 0.023255813953483084
        },
        {
          "name": "B6",
          "midi": 95,
          "time": 144.3604651162588,
          "velocity": 0.16535433070866143,
          "duration": 0.04651162790696617
        },
        {
          "name": "C#7",
          "midi": 97,
          "time": 144.3604651162588,
          "velocity": 0.2440944881889764,
          "duration": 0.09302325581393234
        },
        {
          "name": "D7",
          "midi": 98,
          "time": 144.3604651162588,
          "velocity": 0.14173228346456693,
          "duration": 0.0813953488371908
        },
        {
          "name": "F#7",
          "midi": 102,
          "time": 144.3604651162588,
          "velocity": 0.1732283464566929,
          "duration": 0.11627906976741542
        },
        {
          "name": "A#6",
          "midi": 94,
          "time": 144.37209302323555,
          "velocity": 0.16535433070866143,
          "duration": 0.06976744186044925
        },
        {
          "name": "D#7",
          "midi": 99,
          "time": 144.37209302323555,
          "velocity": 0.2047244094488189,
          "duration": 0.04651162790696617
        },
        {
          "name": "G7",
          "midi": 103,
          "time": 144.37209302323555,
          "velocity": 0.10236220472440945,
          "duration": 0.06976744186044925
        },
        {
          "name": "E4",
          "midi": 64,
          "time": 144.3837209302123,
          "velocity": 0.3937007874015748,
          "duration": 0.023255813953483084
        },
        {
          "name": "A4",
          "midi": 69,
          "time": 144.3837209302123,
          "velocity": 0.1968503937007874,
          "duration": 0.04651162790696617
        },
        {
          "name": "C#5",
          "midi": 73,
          "time": 144.3837209302123,
          "velocity": 0.3464566929133858,
          "duration": 0.023255813953483084
        },
        {
          "name": "B3",
          "midi": 59,
          "time": 144.39534883718903,
          "velocity": 0.4566929133858268,
          "duration": 0.034883720930224626
        },
        {
          "name": "D5",
          "midi": 74,
          "time": 144.40697674416577,
          "velocity": 0.2283464566929134,
          "duration": 0.11627906976741542
        },
        {
          "name": "D#6",
          "midi": 87,
          "time": 144.40697674416577,
          "velocity": 0.12598425196850394,
          "duration": 0.0813953488371908
        },
        {
          "name": "F2",
          "midi": 41,
          "time": 144.41860465114252,
          "velocity": 0.5039370078740157,
          "duration": 0.034883720930224626
        },
        {
          "name": "E4",
          "midi": 64,
          "time": 144.41860465114252,
          "velocity": 0.30708661417322836,
          "duration": 0.04651162790696617
        },
        {
          "name": "G5",
          "midi": 79,
          "time": 144.41860465114252,
          "velocity": 0.14960629921259844,
          "duration": 0.034883720930224626
        },
        {
          "name": "E3",
          "midi": 52,
          "time": 144.43023255811926,
          "velocity": 0.5511811023622047,
          "duration": 0.10465116279067388
        },
        {
          "name": "C4",
          "midi": 60,
          "time": 144.43023255811926,
          "velocity": 0.3858267716535433,
          "duration": 0.023255813953483084
        },
        {
          "name": "F#5",
          "midi": 78,
          "time": 144.441860465096,
          "velocity": 0.3779527559055118,
          "duration": 0.18604651162786467
        },
        {
          "name": "A6",
          "midi": 93,
          "time": 144.441860465096,
          "velocity": 0.11023622047244094,
          "duration": 0.034883720930224626
        },
        {
          "name": "B3",
          "midi": 59,
          "time": 144.45348837207274,
          "velocity": 0.4015748031496063,
          "duration": 0.034883720930224626
        },
        {
          "name": "G#6",
          "midi": 92,
          "time": 144.45348837207274,
          "velocity": 0.13385826771653545,
          "duration": 0.18604651162786467
        },
        {
          "name": "C3",
          "midi": 48,
          "time": 144.47674418602622,
          "velocity": 0.5118110236220472,
          "duration": 0.011627906976741542
        },
        {
          "name": "B2",
          "midi": 47,
          "time": 144.48837209300297,
          "velocity": 0.5275590551181102,
          "duration": 0.011627906976741542
        },
        {
          "name": "G4",
          "midi": 67,
          "time": 144.48837209300297,
          "velocity": 0.25984251968503935,
          "duration": 0.06976744186044925
        },
        {
          "name": "C3",
          "midi": 48,
          "time": 144.5232558139332,
          "velocity": 0.5196850393700787,
          "duration": 0.011627906976741542
        },
        {
          "name": "B2",
          "midi": 47,
          "time": 144.53488372090993,
          "velocity": 0.5669291338582677,
          "duration": 0.04651162790696617
        },
        {
          "name": "D#7",
          "midi": 99,
          "time": 144.54651162788667,
          "velocity": 0.15748031496062992,
          "duration": 0.034883720930224626
        },
        {
          "name": "E2",
          "midi": 40,
          "time": 144.55813953486341,
          "velocity": 0.5275590551181102,
          "duration": 0.023255813953483084
        },
        {
          "name": "A2",
          "midi": 45,
          "time": 144.5813953488169,
          "velocity": 0.5590551181102362,
          "duration": 0.011627906976741542
        },
        {
          "name": "G4",
          "midi": 67,
          "time": 144.5813953488169,
          "velocity": 0.3858267716535433,
          "duration": 0.34883720930224626
        },
        {
          "name": "F2",
          "midi": 41,
          "time": 144.59302325579364,
          "velocity": 0.5433070866141733,
          "duration": 0.011627906976741542
        },
        {
          "name": "B2",
          "midi": 47,
          "time": 144.59302325579364,
          "velocity": 0.5196850393700787,
          "duration": 0.011627906976741542
        },
        {
          "name": "C#7",
          "midi": 97,
          "time": 144.59302325579364,
          "velocity": 0.15748031496062992,
          "duration": 0.10465116279067388
        },
        {
          "name": "A2",
          "midi": 45,
          "time": 144.60465116277038,
          "velocity": 0.5669291338582677,
          "duration": 0.011627906976741542
        },
        {
          "name": "D6",
          "midi": 86,
          "time": 144.60465116277038,
          "velocity": 0.07874015748031496,
          "duration": 0.06976744186044925
        },
        {
          "name": "F7",
          "midi": 101,
          "time": 144.60465116277038,
          "velocity": 0.10236220472440945,
          "duration": 0.034883720930224626
        },
        {
          "name": "F2",
          "midi": 41,
          "time": 144.61627906974712,
          "velocity": 0.5196850393700787,
          "duration": 0.011627906976741542
        },
        {
          "name": "B2",
          "midi": 47,
          "time": 144.61627906974712,
          "velocity": 0.5826771653543307,
          "duration": 0.04651162790696617
        },
        {
          "name": "E3",
          "midi": 52,
          "time": 144.61627906974712,
          "velocity": 0.4251968503937008,
          "duration": 0.023255813953483084
        },
        {
          "name": "E2",
          "midi": 40,
          "time": 144.62790697672386,
          "velocity": 0.5039370078740157,
          "duration": 0.023255813953483084
        },
        {
          "name": "D#7",
          "midi": 99,
          "time": 144.6395348837006,
          "velocity": 0.07874015748031496,
          "duration": 0.04651162790696617
        },
        {
          "name": "D7",
          "midi": 98,
          "time": 144.65116279067735,
          "velocity": 0.14960629921259844,
          "duration": 0.12790697674415696
        },
        {
          "name": "F2",
          "midi": 41,
          "time": 144.6627906976541,
          "velocity": 0.5669291338582677,
          "duration": 0.011627906976741542
        },
        {
          "name": "E3",
          "midi": 52,
          "time": 144.6627906976541,
          "velocity": 0.4094488188976378,
          "duration": 0.05813953488370771
        },
        {
          "name": "E2",
          "midi": 40,
          "time": 144.67441860463083,
          "velocity": 0.5590551181102362,
          "duration": 0.023255813953483084
        },
        {
          "name": "F2",
          "midi": 41,
          "time": 144.6976744185843,
          "velocity": 0.5433070866141733,
          "duration": 0.011627906976741542
        },
        {
          "name": "F#5",
          "midi": 78,
          "time": 144.6976744185843,
          "velocity": 0.2755905511811024,
          "duration": 0.1395348837208985
        },
        {
          "name": "C7",
          "midi": 96,
          "time": 144.6976744185843,
          "velocity": 0.10236220472440945,
          "duration": 0.034883720930224626
        },
        {
          "name": "E2",
          "midi": 40,
          "time": 144.70930232556105,
          "velocity": 0.5354330708661418,
          "duration": 0.011627906976741542
        },
        {
          "name": "D5",
          "midi": 74,
          "time": 144.70930232556105,
          "velocity": 0.09448818897637795,
          "duration": 0.05813953488370771
        },
        {
          "name": "G#5",
          "midi": 80,
          "time": 144.70930232556105,
          "velocity": 0.09448818897637795,
          "duration": 0.034883720930224626
        },
        {
          "name": "C#7",
          "midi": 97,
          "time": 144.70930232556105,
          "velocity": 0.28346456692913385,
          "duration": 0.3837209302324709
        },
        {
          "name": "F2",
          "midi": 41,
          "time": 144.7209302325378,
          "velocity": 0.5275590551181102,
          "duration": 0.023255813953483084
        },
        {
          "name": "E2",
          "midi": 40,
          "time": 144.74418604649128,
          "velocity": 0.4409448818897638,
          "duration": 0.04651162790696617
        },
        {
          "name": "F3",
          "midi": 53,
          "time": 144.74418604649128,
          "velocity": 0.23622047244094488,
          "duration": 0.034883720930224626
        },
        {
          "name": "D#6",
          "midi": 87,
          "time": 144.75581395346802,
          "velocity": 0.11811023622047244,
          "duration": 0.04651162790696617
        },
        {
          "name": "F#7",
          "midi": 102,
          "time": 144.75581395346802,
          "velocity": 0.08661417322834646,
          "duration": 0.06976744186044925
        },
        {
          "name": "C7",
          "midi": 96,
          "time": 144.79069767439825,
          "velocity": 0.07874015748031496,
          "duration": 0.06976744186044925
        },
        {
          "name": "A5",
          "midi": 81,
          "time": 144.802325581375,
          "velocity": 0.25984251968503935,
          "duration": 0.34883720930224626
        },
        {
          "name": "D7",
          "midi": 98,
          "time": 144.802325581375,
          "velocity": 0.3228346456692913,
          "duration": 0.37209302325572935
        },
        {
          "name": "G#2",
          "midi": 44,
          "time": 144.81395348835173,
          "velocity": 0.4094488188976378,
          "duration": 0.023255813953483084
        },
        {
          "name": "D#7",
          "midi": 99,
          "time": 144.81395348835173,
          "velocity": 0.28346456692913385,
          "duration": 0.4651162790696617
        },
        {
          "name": "D3",
          "midi": 50,
          "time": 144.82558139532847,
          "velocity": 0.4094488188976378,
          "duration": 0.023255813953483084
        },
        {
          "name": "F7",
          "midi": 101,
          "time": 144.82558139532847,
          "velocity": 0.2283464566929134,
          "duration": 0.279069767441797
        },
        {
          "name": "E4",
          "midi": 64,
          "time": 144.8372093023052,
          "velocity": 0.31496062992125984,
          "duration": 0.20930232558134776
        },
        {
          "name": "C3",
          "midi": 48,
          "time": 144.84883720928195,
          "velocity": 0.3228346456692913,
          "duration": 0.023255813953483084
        },
        {
          "name": "B3",
          "midi": 59,
          "time": 144.84883720928195,
          "velocity": 0.1732283464566929,
          "duration": 0.04651162790696617
        },
        {
          "name": "F#5",
          "midi": 78,
          "time": 144.84883720928195,
          "velocity": 0.2440944881889764,
          "duration": 0.23255813953483084
        },
        {
          "name": "F#7",
          "midi": 102,
          "time": 144.84883720928195,
          "velocity": 0.25196850393700787,
          "duration": 0.31395348837202164
        },
        {
          "name": "G#6",
          "midi": 92,
          "time": 144.8604651162587,
          "velocity": 0.16535433070866143,
          "duration": 0.19767441860460622
        },
        {
          "name": "D5",
          "midi": 74,
          "time": 144.87209302323544,
          "velocity": 0.1889763779527559,
          "duration": 0.10465116279067388
        },
        {
          "name": "G7",
          "midi": 103,
          "time": 144.87209302323544,
          "velocity": 0.15748031496062992,
          "duration": 0.04651162790696617
        },
        {
          "name": "E2",
          "midi": 40,
          "time": 144.9186046511424,
          "velocity": 0.30708661417322836,
          "duration": 0.023255813953483084
        },
        {
          "name": "E3",
          "midi": 52,
          "time": 144.9186046511424,
          "velocity": 0.3779527559055118,
          "duration": 0.12790697674415696
        },
        {
          "name": "G#4",
          "midi": 68,
          "time": 144.9186046511424,
          "velocity": 0.28346456692913385,
          "duration": 0.023255813953483084
        },
        {
          "name": "E5",
          "midi": 76,
          "time": 144.9186046511424,
          "velocity": 0.3779527559055118,
          "duration": 0.43023255813943706
        },
        {
          "name": "B6",
          "midi": 95,
          "time": 144.93023255811914,
          "velocity": 0.15748031496062992,
          "duration": 0.19767441860460622
        },
        {
          "name": "G4",
          "midi": 67,
          "time": 144.94186046509589,
          "velocity": 0.2755905511811024,
          "duration": 0.06976744186044925
        },
        {
          "name": "F2",
          "midi": 41,
          "time": 144.96511627904937,
          "velocity": 0.2440944881889764,
          "duration": 0.023255813953483084
        },
        {
          "name": "G#5",
          "midi": 80,
          "time": 144.96511627904937,
          "velocity": 0.10236220472440945,
          "duration": 0.04651162790696617
        },
        {
          "name": "G7",
          "midi": 103,
          "time": 144.98837209300285,
          "velocity": 0.2283464566929134,
          "duration": 0.0813953488371908
        },
        {
          "name": "D6",
          "midi": 86,
          "time": 144.9999999999796,
          "velocity": 0.10236220472440945,
          "duration": 0.034883720930224626
        },
        {
          "name": "F#2",
          "midi": 42,
          "time": 145.01162790695633,
          "velocity": 0.23622047244094488,
          "duration": 0.023255813953483084
        },
        {
          "name": "G4",
          "midi": 67,
          "time": 145.02325581393308,
          "velocity": 0.3700787401574803,
          "duration": 0.26744186046505547
        },
        {
          "name": "F2",
          "midi": 41,
          "time": 145.04651162788656,
          "velocity": 0.4566929133858268,
          "duration": 0.023255813953483084
        },
        {
          "name": "D#6",
          "midi": 87,
          "time": 145.04651162788656,
          "velocity": 0.11811023622047244,
          "duration": 0.1627906976743816
        },
        {
          "name": "E3",
          "midi": 52,
          "time": 145.0581395348633,
          "velocity": 0.3779527559055118,
          "duration": 0.04651162790696617
        },
        {
          "name": "B3",
          "midi": 59,
          "time": 145.0581395348633,
          "velocity": 0.36220472440944884,
          "duration": 0.1627906976743816
        },
        {
          "name": "C7",
          "midi": 96,
          "time": 145.08139534881678,
          "velocity": 0.18110236220472442,
          "duration": 0.034883720930224626
        },
        {
          "name": "G7",
          "midi": 103,
          "time": 145.08139534881678,
          "velocity": 0.11811023622047244,
          "duration": 0.09302325581393234
        },
        {
          "name": "E2",
          "midi": 40,
          "time": 145.09302325579353,
          "velocity": 0.48031496062992124,
          "duration": 0.06976744186044925
        },
        {
          "name": "D#3",
          "midi": 51,
          "time": 145.10465116277027,
          "velocity": 0.31496062992125984,
          "duration": 0.023255813953483084
        },
        {
          "name": "F#6",
          "midi": 90,
          "time": 145.10465116277027,
          "velocity": 0.11023622047244094,
          "duration": 0.034883720930224626
        },
        {
          "name": "G#6",
          "midi": 92,
          "time": 145.10465116277027,
          "velocity": 0.14173228346456693,
          "duration": 0.09302325581393234
        },
        {
          "name": "C#7",
          "midi": 97,
          "time": 145.10465116277027,
          "velocity": 0.2440944881889764,
          "duration": 0.23255813953483084
        },
        {
          "name": "F#5",
          "midi": 78,
          "time": 145.12790697672375,
          "velocity": 0.25196850393700787,
          "duration": 0.034883720930224626
        },
        {
          "name": "C7",
          "midi": 96,
          "time": 145.12790697672375,
          "velocity": 0.07086614173228346,
          "duration": 0.04651162790696617
        },
        {
          "name": "F7",
          "midi": 101,
          "time": 145.15116279067723,
          "velocity": 0.15748031496062992,
          "duration": 0.11627906976741542
        },
        {
          "name": "F2",
          "midi": 41,
          "time": 145.16279069765397,
          "velocity": 0.4015748031496063,
          "duration": 0.023255813953483084
        },
        {
          "name": "F#5",
          "midi": 78,
          "time": 145.17441860463072,
          "velocity": 0.1732283464566929,
          "duration": 0.05813953488370771
        },
        {
          "name": "D#3",
          "midi": 51,
          "time": 145.18604651160746,
          "velocity": 0.3937007874015748,
          "duration": 0.023255813953483084
        },
        {
          "name": "D7",
          "midi": 98,
          "time": 145.18604651160746,
          "velocity": 0.14173228346456693,
          "duration": 0.034883720930224626
        },
        {
          "name": "G7",
          "midi": 103,
          "time": 145.18604651160746,
          "velocity": 0.14960629921259844,
          "duration": 0.06976744186044925
        },
        {
          "name": "D#2",
          "midi": 39,
          "time": 145.22093023253768,
          "velocity": 0.5196850393700787,
          "duration": 0.011627906976741542
        },
        {
          "name": "D#4",
          "midi": 63,
          "time": 145.22093023253768,
          "velocity": 0.3228346456692913,
          "duration": 0.023255813953483084
        },
        {
          "name": "D6",
          "midi": 86,
          "time": 145.22093023253768,
          "velocity": 0.08661417322834646,
          "duration": 0.034883720930224626
        },
        {
          "name": "G#2",
          "midi": 44,
          "time": 145.23255813951442,
          "velocity": 0.5905511811023622,
          "duration": 0.011627906976741542
        },
        {
          "name": "G#5",
          "midi": 80,
          "time": 145.23255813951442,
          "velocity": 0.13385826771653545,
          "duration": 0.11627906976741542
        },
        {
          "name": "C#6",
          "midi": 85,
          "time": 145.23255813951442,
          "velocity": 0.08661417322834646,
          "duration": 0.034883720930224626
        },
        {
          "name": "G2",
          "midi": 43,
          "time": 145.24418604649117,
          "velocity": 0.5748031496062992,
          "duration": 0.011627906976741542
        },
        {
          "name": "E4",
          "midi": 64,
          "time": 145.24418604649117,
          "velocity": 0.4251968503937008,
          "duration": 0.19767441860460622
        },
        {
          "name": "B4",
          "midi": 71,
          "time": 145.24418604649117,
          "velocity": 0.4094488188976378,
          "duration": 0.6279069767440433
        },
        {
          "name": "D7",
          "midi": 98,
          "time": 145.24418604649117,
          "velocity": 0.11811023622047244,
          "duration": 0.04651162790696617
        },
        {
          "name": "F2",
          "midi": 41,
          "time": 145.2558139534679,
          "velocity": 0.5511811023622047,
          "duration": 0.011627906976741542
        },
        {
          "name": "B3",
          "midi": 59,
          "time": 145.2558139534679,
          "velocity": 0.3543307086614173,
          "duration": 0.034883720930224626
        },
        {
          "name": "E2",
          "midi": 40,
          "time": 145.26744186044465,
          "velocity": 0.5354330708661418,
          "duration": 0.034883720930224626
        },
        {
          "name": "D#3",
          "midi": 51,
          "time": 145.2790697674214,
          "velocity": 0.5118110236220472,
          "duration": 0.011627906976741542
        },
        {
          "name": "C7",
          "midi": 96,
          "time": 145.2790697674214,
          "velocity": 0.08661417322834646,
          "duration": 0.034883720930224626
        },
        {
          "name": "C4",
          "midi": 60,
          "time": 145.29069767439813,
          "velocity": 0.3700787401574803,
          "duration": 0.023255813953483084
        },
        {
          "name": "F2",
          "midi": 41,
          "time": 145.30232558137487,
          "velocity": 0.4566929133858268,
          "duration": 0.023255813953483084
        },
        {
          "name": "G4",
          "midi": 67,
          "time": 145.30232558137487,
          "velocity": 0.29133858267716534,
          "duration": 0.023255813953483084
        },
        {
          "name": "A6",
          "midi": 93,
          "time": 145.30232558137487,
          "velocity": 0.10236220472440945,
          "duration": 0.0813953488371908
        },
        {
          "name": "B3",
          "midi": 59,
          "time": 145.31395348835161,
          "velocity": 0.3779527559055118,
          "duration": 0.023255813953483084
        },
        {
          "name": "G#4",
          "midi": 68,
          "time": 145.32558139532836,
          "velocity": 0.25984251968503935,
          "duration": 0.023255813953483084
        },
        {
          "name": "F#5",
          "midi": 78,
          "time": 145.32558139532836,
          "velocity": 0.25984251968503935,
          "duration": 0.1395348837208985
        },
        {
          "name": "G7",
          "midi": 103,
          "time": 145.3372093023051,
          "velocity": 0.07874015748031496,
          "duration": 0.034883720930224626
        },
        {
          "name": "D2",
          "midi": 38,
          "time": 145.36046511625858,
          "velocity": 0.29133858267716534,
          "duration": 0.023255813953483084
        },
        {
          "name": "G#4",
          "midi": 68,
          "time": 145.36046511625858,
          "velocity": 0.2283464566929134,
          "duration": 0.034883720930224626
        },
        {
          "name": "D5",
          "midi": 74,
          "time": 145.36046511625858,
          "velocity": 0.08661417322834646,
          "duration": 0.034883720930224626
        },
        {
          "name": "E2",
          "midi": 40,
          "time": 145.38372093021206,
          "velocity": 0.25196850393700787,
          "duration": 0.023255813953483084
        },
        {
          "name": "B3",
          "midi": 59,
          "time": 145.38372093021206,
          "velocity": 0.25196850393700787,
          "duration": 0.04651162790696617
        },
        {
          "name": "E3",
          "midi": 52,
          "time": 145.3953488371888,
          "velocity": 0.2755905511811024,
          "duration": 0.023255813953483084
        },
        {
          "name": "G#4",
          "midi": 68,
          "time": 145.40697674416555,
          "velocity": 0.1889763779527559,
          "duration": 0.034883720930224626
        },
        {
          "name": "F#7",
          "midi": 102,
          "time": 145.40697674416555,
          "velocity": 0.08661417322834646,
          "duration": 0.04651162790696617
        },
        {
          "name": "G#6",
          "midi": 92,
          "time": 145.4186046511423,
          "velocity": 0.11023622047244094,
          "duration": 0.034883720930224626
        },
        {
          "name": "C#2",
          "midi": 37,
          "time": 145.44186046509577,
          "velocity": 0.5354330708661418,
          "duration": 0.011627906976741542
        },
        {
          "name": "F#4",
          "midi": 66,
          "time": 145.44186046509577,
          "velocity": 0.25984251968503935,
          "duration": 0.023255813953483084
        },
        {
          "name": "C#7",
          "midi": 97,
          "time": 145.44186046509577,
          "velocity": 0.14960629921259844,
          "duration": 0.0813953488371908
        },
        {
          "name": "E4",
          "midi": 64,
          "time": 145.4534883720725,
          "velocity": 0.28346456692913385,
          "duration": 0.19767441860460622
        },
        {
          "name": "G4",
          "midi": 67,
          "time": 145.46511627904925,
          "velocity": 0.33858267716535434,
          "duration": 0.20930232558134776
        },
        {
          "name": "G#6",
          "midi": 92,
          "time": 145.476744186026,
          "velocity": 0.11023622047244094,
          "duration": 0.034883720930224626
        },
        {
          "name": "B3",
          "midi": 59,
          "time": 145.48837209300274,
          "velocity": 0.30708661417322836,
          "duration": 0.034883720930224626
        },
        {
          "name": "F#5",
          "midi": 78,
          "time": 145.48837209300274,
          "velocity": 0.3700787401574803,
          "duration": 0.10465116279067388
        },
        {
          "name": "D#7",
          "midi": 99,
          "time": 145.48837209300274,
          "velocity": 0.12598425196850394,
          "duration": 0.04651162790696617
        },
        {
          "name": "F#2",
          "midi": 42,
          "time": 145.49999999997948,
          "velocity": 0.5118110236220472,
          "duration": 0.011627906976741542
        },
        {
          "name": "E3",
          "midi": 52,
          "time": 145.51162790695622,
          "velocity": 0.5511811023622047,
          "duration": 0.034883720930224626
        },
        {
          "name": "D#5",
          "midi": 75,
          "time": 145.5348837209097,
          "velocity": 0.30708661417322836,
          "duration": 0.023255813953483084
        },
        {
          "name": "E6",
          "midi": 88,
          "time": 145.5348837209097,
          "velocity": 0.1889763779527559,
          "duration": 0.09302325581393234
        },
        {
          "name": "F3",
          "midi": 53,
          "time": 145.54651162788645,
          "velocity": 0.5275590551181102,
          "duration": 0.011627906976741542
        },
        {
          "name": "B3",
          "midi": 59,
          "time": 145.54651162788645,
          "velocity": 0.31496062992125984,
          "duration": 0.09302325581393234
        },
        {
          "name": "E3",
          "midi": 52,
          "time": 145.5581395348632,
          "velocity": 0.5354330708661418,
          "duration": 0.023255813953483084
        },
        {
          "name": "E5",
          "midi": 76,
          "time": 145.5581395348632,
          "velocity": 0.3779527559055118,
          "duration": 0.15116279069764005
        },
        {
          "name": "E2",
          "midi": 40,
          "time": 145.56976744183993,
          "velocity": 0.4566929133858268,
          "duration": 0.04651162790696617
        },
        {
          "name": "F3",
          "midi": 53,
          "time": 145.58139534881667,
          "velocity": 0.5275590551181102,
          "duration": 0.011627906976741542
        },
        {
          "name": "D#6",
          "midi": 87,
          "time": 145.58139534881667,
          "velocity": 0.08661417322834646,
          "duration": 0.04651162790696617
        },
        {
          "name": "E3",
          "midi": 52,
          "time": 145.5930232557934,
          "velocity": 0.5039370078740157,
          "duration": 0.05813953488370771
        },
        {
          "name": "F#5",
          "midi": 78,
          "time": 145.60465116277015,
          "velocity": 0.3228346456692913,
          "duration": 0.3372093023255047
        },
        {
          "name": "E2",
          "midi": 40,
          "time": 145.62790697672364,
          "velocity": 0.5511811023622047,
          "duration": 0.011627906976741542
        },
        {
          "name": "F2",
          "midi": 41,
          "time": 145.63953488370038,
          "velocity": 0.5433070866141733,
          "duration": 0.023255813953483084
        },
        {
          "name": "A5",
          "midi": 81,
          "time": 145.65116279067712,
          "velocity": 0.25984251968503935,
          "duration": 0.2558139534883139
        },
        {
          "name": "E4",
          "midi": 64,
          "time": 145.66279069765386,
          "velocity": 0.29133858267716534,
          "duration": 0.034883720930224626
        },
        {
          "name": "D5",
          "midi": 74,
          "time": 145.66279069765386,
          "velocity": 0.13385826771653545,
          "duration": 0.034883720930224626
        },
        {
          "name": "F6",
          "midi": 89,
          "time": 145.66279069765386,
          "velocity": 0.13385826771653545,
          "duration": 0.034883720930224626
        },
        {
          "name": "C#7",
          "midi": 97,
          "time": 145.66279069765386,
          "velocity": 0.25984251968503935,
          "duration": 0.26744186046505547
        },
        {
          "name": "D7",
          "midi": 98,
          "time": 145.66279069765386,
          "velocity": 0.1889763779527559,
          "duration": 0.034883720930224626
        },
        {
          "name": "D#7",
          "midi": 99,
          "time": 145.66279069765386,
          "velocity": 0.13385826771653545,
          "duration": 0.26744186046505547
        },
        {
          "name": "F2",
          "midi": 41,
          "time": 145.6744186046306,
          "velocity": 0.5196850393700787,
          "duration": 0.011627906976741542
        },
        {
          "name": "E2",
          "midi": 40,
          "time": 145.68604651160734,
          "velocity": 0.5275590551181102,
          "duration": 0.023255813953483084
        },
        {
          "name": "G4",
          "midi": 67,
          "time": 145.68604651160734,
          "velocity": 0.2283464566929134,
          "duration": 0.18604651162786467
        },
        {
          "name": "G#6",
          "midi": 92,
          "time": 145.68604651160734,
          "velocity": 0.1732283464566929,
          "duration": 0.034883720930224626
        },
        {
          "name": "B3",
          "midi": 59,
          "time": 145.69767441858409,
          "velocity": 0.33070866141732286,
          "duration": 0.1627906976743816
        },
        {
          "name": "G7",
          "midi": 103,
          "time": 145.69767441858409,
          "velocity": 0.14173228346456693,
          "duration": 0.034883720930224626
        },
        {
          "name": "E4",
          "midi": 64,
          "time": 145.70930232556083,
          "velocity": 0.1889763779527559,
          "duration": 0.04651162790696617
        },
        {
          "name": "D#5",
          "midi": 75,
          "time": 145.70930232556083,
          "velocity": 0.33858267716535434,
          "duration": 0.04651162790696617
        },
        {
          "name": "A#6",
          "midi": 94,
          "time": 145.72093023253757,
          "velocity": 0.14960629921259844,
          "duration": 0.04651162790696617
        },
        {
          "name": "C7",
          "midi": 96,
          "time": 145.72093023253757,
          "velocity": 0.11023622047244094,
          "duration": 0.11627906976741542
        },
        {
          "name": "D7",
          "midi": 98,
          "time": 145.72093023253757,
          "velocity": 0.1889763779527559,
          "duration": 0.09302325581393234
        },
        {
          "name": "F7",
          "midi": 101,
          "time": 145.72093023253757,
          "velocity": 0.09448818897637795,
          "duration": 0.034883720930224626
        },
        {
          "name": "E2",
          "midi": 40,
          "time": 145.74418604649105,
          "velocity": 0.5196850393700787,
          "duration": 0.011627906976741542
        },
        {
          "name": "D#2",
          "midi": 39,
          "time": 145.7558139534678,
          "velocity": 0.5118110236220472,
          "duration": 0.011627906976741542
        },
        {
          "name": "E5",
          "midi": 76,
          "time": 145.7558139534678,
          "velocity": 0.3858267716535433,
          "duration": 0.1627906976743816
        },
        {
          "name": "E2",
          "midi": 40,
          "time": 145.76744186044453,
          "velocity": 0.5039370078740157,
          "duration": 0.034883720930224626
        },
        {
          "name": "D5",
          "midi": 74,
          "time": 145.76744186044453,
          "velocity": 0.10236220472440945,
          "duration": 0.04651162790696617
        },
        {
          "name": "B6",
          "midi": 95,
          "time": 145.76744186044453,
          "velocity": 0.1732283464566929,
          "duration": 0.11627906976741542
        },
        {
          "name": "G7",
          "midi": 103,
          "time": 145.76744186044453,
          "velocity": 0.11811023622047244,
          "duration": 0.04651162790696617
        },
        {
          "name": "F7",
          "midi": 101,
          "time": 145.79069767439802,
          "velocity": 0.11811023622047244,
          "duration": 0.0813953488371908
        },
        {
          "name": "F2",
          "midi": 41,
          "time": 145.80232558137476,
          "velocity": 0.4094488188976378,
          "duration": 0.034883720930224626
        },
        {
          "name": "E3",
          "midi": 52,
          "time": 145.8139534883515,
          "velocity": 0.36220472440944884,
          "duration": 0.023255813953483084
        },
        {
          "name": "F6",
          "midi": 89,
          "time": 145.8139534883515,
          "velocity": 0.15748031496062992,
          "duration": 0.04651162790696617
        },
        {
          "name": "D7",
          "midi": 98,
          "time": 145.83720930230498,
          "velocity": 0.1732283464566929,
          "duration": 0.1395348837208985
        },
        {
          "name": "G7",
          "midi": 103,
          "time": 145.83720930230498,
          "velocity": 0.23622047244094488,
          "duration": 0.1627906976743816
        },
        {
          "name": "E3",
          "midi": 52,
          "time": 145.84883720928173,
          "velocity": 0.3858267716535433,
          "duration": 0.023255813953483084
        },
        {
          "name": "E2",
          "midi": 40,
          "time": 145.86046511625847,
          "velocity": 0.5196850393700787,
          "duration": 0.023255813953483084
        },
        {
          "name": "D#6",
          "midi": 87,
          "time": 145.86046511625847,
          "velocity": 0.11811023622047244,
          "duration": 0.034883720930224626
        },
        {
          "name": "C5",
          "midi": 72,
          "time": 145.8720930232352,
          "velocity": 0.23622047244094488,
          "duration": 0.034883720930224626
        },
        {
          "name": "G6",
          "midi": 91,
          "time": 145.8720930232352,
          "velocity": 0.13385826771653545,
          "duration": 0.0813953488371908
        },
        {
          "name": "G#2",
          "midi": 44,
          "time": 145.88372093021195,
          "velocity": 0.5826771653543307,
          "duration": 0.011627906976741542
        },
        {
          "name": "G4",
          "midi": 67,
          "time": 145.88372093021195,
          "velocity": 0.4015748031496063,
          "duration": 0.19767441860460622
        },
        {
          "name": "A#6",
          "midi": 94,
          "time": 145.88372093021195,
          "velocity": 0.13385826771653545,
          "duration": 0.12790697674415696
        },
        {
          "name": "C7",
          "midi": 96,
          "time": 145.88372093021195,
          "velocity": 0.1732283464566929,
          "duration": 0.06976744186044925
        },
        {
          "name": "F#2",
          "midi": 42,
          "time": 145.8953488371887,
          "velocity": 0.5590551181102362,
          "duration": 0.011627906976741542
        },
        {
          "name": "G#3",
          "midi": 56,
          "time": 145.8953488371887,
          "velocity": 0.41732283464566927,
          "duration": 0.023255813953483084
        },
        {
          "name": "F2",
          "midi": 41,
          "time": 145.90697674416543,
          "velocity": 0.5590551181102362,
          "duration": 0.023255813953483084
        },
        {
          "name": "D#5",
          "midi": 75,
          "time": 145.90697674416543,
          "velocity": 0.41732283464566927,
          "duration": 0.10465116279067388
        },
        {
          "name": "B3",
          "midi": 59,
          "time": 145.91860465114218,
          "velocity": 0.3937007874015748,
          "duration": 0.1395348837208985
        },
        {
          "name": "E2",
          "midi": 40,
          "time": 145.93023255811892,
          "velocity": 0.5433070866141733,
          "duration": 0.011627906976741542
        },
        {
          "name": "E4",
          "midi": 64,
          "time": 145.93023255811892,
          "velocity": 0.2755905511811024,
          "duration": 0.06976744186044925
        },
        {
          "name": "D#2",
          "midi": 39,
          "time": 145.94186046509566,
          "velocity": 0.5433070866141733,
          "duration": 0.023255813953483084
        },
        {
          "name": "E3",
          "midi": 52,
          "time": 145.94186046509566,
          "velocity": 0.5118110236220472,
          "duration": 0.05813953488370771
        },
        {
          "name": "A5",
          "midi": 81,
          "time": 145.94186046509566,
          "velocity": 0.07874015748031496,
          "duration": 0.034883720930224626
        },
        {
          "name": "D#7",
          "midi": 99,
          "time": 145.96511627904914,
          "velocity": 0.4251968503937008,
          "duration": 0.10465116279067388
        },
        {
          "name": "F#5",
          "midi": 78,
          "time": 145.97674418602588,
          "velocity": 0.25196850393700787,
          "duration": 0.09302325581393234
        },
        {
          "name": "D#3",
          "midi": 51,
          "time": 145.99999999997937,
          "velocity": 0.4330708661417323,
          "duration": 0.023255813953483084
        },
        {
          "name": "E5",
          "midi": 76,
          "time": 146.0116279069561,
          "velocity": 0.4094488188976378,
          "duration": 0.11627906976741542
        },
        {
          "name": "B2",
          "midi": 47,
          "time": 146.0348837209096,
          "velocity": 0.2440944881889764,
          "duration": 0.034883720930224626
        },
        {
          "name": "D#6",
          "midi": 87,
          "time": 146.0348837209096,
          "velocity": 0.07874015748031496,
          "duration": 0.034883720930224626
        },
        {
          "name": "B4",
          "midi": 71,
          "time": 146.05813953486307,
          "velocity": 0.30708661417322836,
          "duration": 0.023255813953483084
        },
        {
          "name": "F4",
          "midi": 65,
          "time": 146.06976744183982,
          "velocity": 0.41732283464566927,
          "duration": 0.023255813953483084
        },
        {
          "name": "A5",
          "midi": 81,
          "time": 146.06976744183982,
          "velocity": 0.18110236220472442,
          "duration": 0.04651162790696617
        },
        {
          "name": "D7",
          "midi": 98,
          "time": 146.06976744183982,
          "velocity": 0.3937007874015748,
          "duration": 0.12790697674415696
        },
        {
          "name": "A#4",
          "midi": 70,
          "time": 146.08139534881656,
          "velocity": 0.3464566929133858,
          "duration": 0.023255813953483084
        },
        {
          "name": "D5",
          "midi": 74,
          "time": 146.08139534881656,
          "velocity": 0.3543307086614173,
          "duration": 0.023255813953483084
        },
        {
          "name": "G5",
          "midi": 79,
          "time": 146.08139534881656,
          "velocity": 0.33070866141732286,
          "duration": 0.034883720930224626
        },
        {
          "name": "F#6",
          "midi": 90,
          "time": 146.08139534881656,
          "velocity": 0.14960629921259844,
          "duration": 0.034883720930224626
        },
        {
          "name": "A#6",
          "midi": 94,
          "time": 146.08139534881656,
          "velocity": 0.11811023622047244,
          "duration": 0.17441860465112313
        },
        {
          "name": "D#7",
          "midi": 99,
          "time": 146.08139534881656,
          "velocity": 0.28346456692913385,
          "duration": 0.09302325581393234
        },
        {
          "name": "E7",
          "midi": 100,
          "time": 146.08139534881656,
          "velocity": 0.15748031496062992,
          "duration": 0.1627906976743816
        },
        {
          "name": "F7",
          "midi": 101,
          "time": 146.08139534881656,
          "velocity": 0.09448818897637795,
          "duration": 0.0813953488371908
        },
        {
          "name": "G#2",
          "midi": 44,
          "time": 146.0930232557933,
          "velocity": 0.5669291338582677,
          "duration": 0.011627906976741542
        },
        {
          "name": "A3",
          "midi": 57,
          "time": 146.0930232557933,
          "velocity": 0.41732283464566927,
          "duration": 0.023255813953483084
        },
        {
          "name": "E4",
          "midi": 64,
          "time": 146.0930232557933,
          "velocity": 0.3858267716535433,
          "duration": 0.023255813953483084
        },
        {
          "name": "D#6",
          "midi": 87,
          "time": 146.0930232557933,
          "velocity": 0.11811023622047244,
          "duration": 0.034883720930224626
        },
        {
          "name": "C#7",
          "midi": 97,
          "time": 146.0930232557933,
          "velocity": 0.2125984251968504,
          "duration": 0.10465116279067388
        },
        {
          "name": "D3",
          "midi": 50,
          "time": 146.10465116277004,
          "velocity": 0.5275590551181102,
          "duration": 0.011627906976741542
        },
        {
          "name": "G#4",
          "midi": 68,
          "time": 146.10465116277004,
          "velocity": 0.25196850393700787,
          "duration": 0.023255813953483084
        },
        {
          "name": "B4",
          "midi": 71,
          "time": 146.10465116277004,
          "velocity": 0.3464566929133858,
          "duration": 0.17441860465112313
        },
        {
          "name": "F#5",
          "midi": 78,
          "time": 146.10465116277004,
          "velocity": 0.3543307086614173,
          "duration": 0.23255813953483084
        },
        {
          "name": "E3",
          "midi": 52,
          "time": 146.11627906974678,
          "velocity": 0.4409448818897638,
          "duration": 0.023255813953483084
        },
        {
          "name": "G4",
          "midi": 67,
          "time": 146.12790697672352,
          "velocity": 0.30708661417322836,
          "duration": 0.04651162790696617
        },
        {
          "name": "D#5",
          "midi": 75,
          "time": 146.12790697672352,
          "velocity": 0.3464566929133858,
          "duration": 0.05813953488370771
        },
        {
          "name": "F2",
          "midi": 41,
          "time": 146.13953488370026,
          "velocity": 0.47244094488188976,
          "duration": 0.034883720930224626
        },
        {
          "name": "E3",
          "midi": 52,
          "time": 146.151162790677,
          "velocity": 0.5433070866141733,
          "duration": 0.05813953488370771
        },
        {
          "name": "C4",
          "midi": 60,
          "time": 146.151162790677,
          "velocity": 0.3937007874015748,
          "duration": 0.023255813953483084
        },
        {
          "name": "A5",
          "midi": 81,
          "time": 146.151162790677,
          "velocity": 0.11023622047244094,
          "duration": 0.034883720930224626
        },
        {
          "name": "C#6",
          "midi": 85,
          "time": 146.151162790677,
          "velocity": 0.08661417322834646,
          "duration": 0.034883720930224626
        },
        {
          "name": "E6",
          "midi": 88,
          "time": 146.151162790677,
          "velocity": 0.13385826771653545,
          "duration": 0.18604651162786467
        },
        {
          "name": "E2",
          "midi": 40,
          "time": 146.1744186046305,
          "velocity": 0.4251968503937008,
          "duration": 0.023255813953483084
        },
        {
          "name": "B3",
          "midi": 59,
          "time": 146.1744186046305,
          "velocity": 0.3858267716535433,
          "duration": 0.034883720930224626
        },
        {
          "name": "G#4",
          "midi": 68,
          "time": 146.1744186046305,
          "velocity": 0.2204724409448819,
          "duration": 0.034883720930224626
        },
        {
          "name": "G7",
          "midi": 103,
          "time": 146.1744186046305,
          "velocity": 0.1889763779527559,
          "duration": 0.05813953488370771
        },
        {
          "name": "B2",
          "midi": 47,
          "time": 146.19767441858397,
          "velocity": 0.5118110236220472,
          "duration": 0.011627906976741542
        },
        {
          "name": "D#5",
          "midi": 75,
          "time": 146.19767441858397,
          "velocity": 0.36220472440944884,
          "duration": 0.023255813953483084
        },
        {
          "name": "F3",
          "midi": 53,
          "time": 146.2093023255607,
          "velocity": 0.5433070866141733,
          "duration": 0.011627906976741542
        },
        {
          "name": "G4",
          "midi": 67,
          "time": 146.2093023255607,
          "velocity": 0.28346456692913385,
          "duration": 0.06976744186044925
        },
        {
          "name": "E3",
          "midi": 52,
          "time": 146.22093023253746,
          "velocity": 0.5511811023622047,
          "duration": 0.023255813953483084
        },
        {
          "name": "D#5",
          "midi": 75,
          "time": 146.2325581395142,
          "velocity": 0.25196850393700787,
          "duration": 0.023255813953483084
        },
        {
          "name": "C3",
          "midi": 48,
          "time": 146.24418604649094,
          "velocity": 0.5590551181102362,
          "duration": 0.034883720930224626
        },
        {
          "name": "F3",
          "midi": 53,
          "time": 146.24418604649094,
          "velocity": 0.5275590551181102,
          "duration": 0.011627906976741542
        },
        {
          "name": "B3",
          "midi": 59,
          "time": 146.24418604649094,
          "velocity": 0.30708661417322836,
          "duration": 0.05813953488370771
        },
        {
          "name": "B2",
          "midi": 47,
          "time": 146.27906976742116,
          "velocity": 0.5669291338582677,
          "duration": 0.04651162790696617
        },
        {
          "name": "D#5",
          "midi": 75,
          "time": 146.27906976742116,
          "velocity": 0.31496062992125984,
          "duration": 0.023255813953483084
        },
        {
          "name": "B4",
          "midi": 71,
          "time": 146.2906976743979,
          "velocity": 0.33858267716535434,
          "duration": 0.12790697674415696
        },
        {
          "name": "D7",
          "midi": 98,
          "time": 146.2906976743979,
          "velocity": 0.15748031496062992,
          "duration": 0.034883720930224626
        },
        {
          "name": "F2",
          "midi": 41,
          "time": 146.30232558137465,
          "velocity": 0.5354330708661418,
          "duration": 0.011627906976741542
        },
        {
          "name": "G4",
          "midi": 67,
          "time": 146.30232558137465,
          "velocity": 0.4015748031496063,
          "duration": 0.10465116279067388
        },
        {
          "name": "E5",
          "midi": 76,
          "time": 146.30232558137465,
          "velocity": 0.33858267716535434,
          "duration": 0.023255813953483084
        },
        {
          "name": "C#7",
          "midi": 97,
          "time": 146.30232558137465,
          "velocity": 0.2755905511811024,
          "duration": 0.06976744186044925
        },
        {
          "name": "G7",
          "midi": 103,
          "time": 146.30232558137465,
          "velocity": 0.2440944881889764,
          "duration": 0.15116279069764005
        },
        {
          "name": "E2",
          "midi": 40,
          "time": 146.3139534883514,
          "velocity": 0.5275590551181102,
          "duration": 0.023255813953483084
        },
        {
          "name": "E4",
          "midi": 64,
          "time": 146.3139534883514,
          "velocity": 0.33858267716535434,
          "duration": 0.18604651162786467
        },
        {
          "name": "D6",
          "midi": 86,
          "time": 146.3139534883514,
          "velocity": 0.18110236220472442,
          "duration": 0.1395348837208985
        },
        {
          "name": "D#7",
          "midi": 99,
          "time": 146.3139534883514,
          "velocity": 0.1889763779527559,
          "duration": 0.11627906976741542
        },
        {
          "name": "B3",
          "midi": 59,
          "time": 146.32558139532813,
          "velocity": 0.29133858267716534,
          "duration": 0.04651162790696617
        },
        {
          "name": "D#5",
          "midi": 75,
          "time": 146.32558139532813,
          "velocity": 0.4251968503937008,
          "duration": 0.10465116279067388
        },
        {
          "name": "F2",
          "midi": 41,
          "time": 146.33720930230487,
          "velocity": 0.5354330708661418,
          "duration": 0.011627906976741542
        },
        {
          "name": "A6",
          "midi": 93,
          "time": 146.33720930230487,
          "velocity": 0.09448818897637795,
          "duration": 0.04651162790696617
        },
        {
          "name": "A2",
          "midi": 45,
          "time": 146.3488372092816,
          "velocity": 0.5748031496062992,
          "duration": 0.011627906976741542
        },
        {
          "name": "A#6",
          "midi": 94,
          "time": 146.36046511625835,
          "velocity": 0.16535433070866143,
          "duration": 0.05813953488370771
        },
        {
          "name": "C7",
          "midi": 96,
          "time": 146.36046511625835,
          "velocity": 0.15748031496062992,
          "duration": 0.09302325581393234
        },
        {
          "name": "F7",
          "midi": 101,
          "time": 146.36046511625835,
          "velocity": 0.07874015748031496,
          "duration": 0.034883720930224626
        },
        {
          "name": "F2",
          "midi": 41,
          "time": 146.3720930232351,
          "velocity": 0.5984251968503937,
          "duration": 0.023255813953483084
        },
        {
          "name": "D7",
          "midi": 98,
          "time": 146.3720930232351,
          "velocity": 0.18110236220472442,
          "duration": 0.0813953488371908
        },
        {
          "name": "E3",
          "midi": 52,
          "time": 146.38372093021184,
          "velocity": 0.4409448818897638,
          "duration": 0.0813953488371908
        },
        {
          "name": "C#7",
          "midi": 97,
          "time": 146.38372093021184,
          "velocity": 0.25984251968503935,
          "duration": 0.2209302325580893
        },
        {
          "name": "E2",
          "midi": 40,
          "time": 146.39534883718858,
          "velocity": 0.5826771653543307,
          "duration": 0.011627906976741542
        },
        {
          "name": "F2",
          "midi": 41,
          "time": 146.40697674416532,
          "velocity": 0.5590551181102362,
          "duration": 0.05813953488370771
        },
        {
          "name": "B3",
          "midi": 59,
          "time": 146.40697674416532,
          "velocity": 0.29133858267716534,
          "duration": 0.1627906976743816
        },
        {
          "name": "G#4",
          "midi": 68,
          "time": 146.40697674416532,
          "velocity": 0.14960629921259844,
          "duration": 0.04651162790696617
        },
        {
          "name": "F#5",
          "midi": 78,
          "time": 146.40697674416532,
          "velocity": 0.1968503937007874,
          "duration": 0.0813953488371908
        },
        {
          "name": "E6",
          "midi": 88,
          "time": 146.40697674416532,
          "velocity": 0.12598425196850394,
          "duration": 0.034883720930224626
        },
        {
          "name": "E5",
          "midi": 76,
          "time": 146.41860465114206,
          "velocity": 0.3700787401574803,
          "duration": 0.09302325581393234
        },
        {
          "name": "B6",
          "midi": 95,
          "time": 146.41860465114206,
          "velocity": 0.2283464566929134,
          "duration": 0.10465116279067388
        },
        {
          "name": "B4",
          "midi": 71,
          "time": 146.4302325581188,
          "velocity": 0.29133858267716534,
          "duration": 0.0813953488371908
        },
        {
          "name": "F7",
          "midi": 101,
          "time": 146.4302325581188,
          "velocity": 0.13385826771653545,
          "duration": 0.0813953488371908
        },
        {
          "name": "D#7",
          "midi": 99,
          "time": 146.44186046509554,
          "velocity": 0.2677165354330709,
          "duration": 0.24418604651157239
        },
        {
          "name": "G4",
          "midi": 67,
          "time": 146.4534883720723,
          "velocity": 0.36220472440944884,
          "duration": 0.20930232558134776
        },
        {
          "name": "G#2",
          "midi": 44,
          "time": 146.46511627904903,
          "velocity": 0.3858267716535433,
          "duration": 0.023255813953483084
        },
        {
          "name": "D#3",
          "midi": 51,
          "time": 146.46511627904903,
          "velocity": 0.4251968503937008,
          "duration": 0.023255813953483084
        },
        {
          "name": "G7",
          "midi": 103,
          "time": 146.46511627904903,
          "velocity": 0.12598425196850394,
          "duration": 0.0813953488371908
        },
        {
          "name": "A#4",
          "midi": 70,
          "time": 146.49999999997925,
          "velocity": 0.3228346456692913,
          "duration": 0.034883720930224626
        },
        {
          "name": "D#5",
          "midi": 75,
          "time": 146.49999999997925,
          "velocity": 0.36220472440944884,
          "duration": 0.034883720930224626
        },
        {
          "name": "C7",
          "midi": 96,
          "time": 146.49999999997925,
          "velocity": 0.11811023622047244,
          "duration": 0.0813953488371908
        },
        {
          "name": "G3",
          "midi": 55,
          "time": 146.511627906956,
          "velocity": 0.31496062992125984,
          "duration": 0.034883720930224626
        },
        {
          "name": "C#5",
          "midi": 73,
          "time": 146.511627906956,
          "velocity": 0.2755905511811024,
          "duration": 0.034883720930224626
        },
        {
          "name": "D7",
          "midi": 98,
          "time": 146.511627906956,
          "velocity": 0.2125984251968504,
          "duration": 0.0813953488371908
        },
        {
          "name": "G2",
          "midi": 43,
          "time": 146.52325581393274,
          "velocity": 0.47244094488188976,
          "duration": 0.023255813953483084
        },
        {
          "name": "F#5",
          "midi": 78,
          "time": 146.52325581393274,
          "velocity": 0.3779527559055118,
          "duration": 0.3255813953487632
        },
        {
          "name": "A#6",
          "midi": 94,
          "time": 146.52325581393274,
          "velocity": 0.10236220472440945,
          "duration": 0.034883720930224626
        },
        {
          "name": "B4",
          "midi": 71,
          "time": 146.53488372090948,
          "velocity": 0.29133858267716534,
          "duration": 0.09302325581393234
        },
        {
          "name": "E5",
          "midi": 76,
          "time": 146.53488372090948,
          "velocity": 0.3779527559055118,
          "duration": 0.023255813953483084
        },
        {
          "name": "F#7",
          "midi": 102,
          "time": 146.53488372090948,
          "velocity": 0.16535433070866143,
          "duration": 0.24418604651157239
        },
        {
          "name": "F#2",
          "midi": 42,
          "time": 146.54651162788622,
          "velocity": 0.5354330708661418,
          "duration": 0.011627906976741542
        },
        {
          "name": "D#4",
          "midi": 63,
          "time": 146.54651162788622,
          "velocity": 0.2047244094488189,
          "duration": 0.034883720930224626
        },
        {
          "name": "B6",
          "midi": 95,
          "time": 146.54651162788622,
          "velocity": 0.16535433070866143,
          "duration": 0.10465116279067388
        },
        {
          "name": "F2",
          "midi": 41,
          "time": 146.55813953486296,
          "velocity": 0.5118110236220472,
          "duration": 0.023255813953483084
        },
        {
          "name": "D#5",
          "midi": 75,
          "time": 146.55813953486296,
          "velocity": 0.41732283464566927,
          "duration": 0.05813953488370771
        },
        {
          "name": "E7",
          "midi": 100,
          "time": 146.55813953486296,
          "velocity": 0.08661417322834646,
          "duration": 0.034883720930224626
        },
        {
          "name": "F7",
          "midi": 101,
          "time": 146.55813953486296,
          "velocity": 0.2283464566929134,
          "duration": 0.39534883720921243
        },
        {
          "name": "E6",
          "midi": 88,
          "time": 146.5697674418397,
          "velocity": 0.14173228346456693,
          "duration": 0.15116279069764005
        },
        {
          "name": "E4",
          "midi": 64,
          "time": 146.58139534881644,
          "velocity": 0.25984251968503935,
          "duration": 0.0813953488371908
        },
        {
          "name": "A#6",
          "midi": 94,
          "time": 146.59302325579318,
          "velocity": 0.11811023622047244,
          "duration": 0.034883720930224626
        },
        {
          "name": "D2",
          "midi": 38,
          "time": 146.61627906974667,
          "velocity": 0.30708661417322836,
          "duration": 0.04651162790696617
        },
        {
          "name": "E3",
          "midi": 52,
          "time": 146.61627906974667,
          "velocity": 0.3937007874015748,
          "duration": 0.06976744186044925
        },
        {
          "name": "E5",
          "midi": 76,
          "time": 146.61627906974667,
          "velocity": 0.4094488188976378,
          "duration": 0.034883720930224626
        },
        {
          "name": "D7",
          "midi": 98,
          "time": 146.61627906974667,
          "velocity": 0.18110236220472442,
          "duration": 0.37209302325572935
        },
        {
          "name": "E7",
          "midi": 100,
          "time": 146.61627906974667,
          "velocity": 0.2204724409448819,
          "duration": 0.19767441860460622
        },
        {
          "name": "B4",
          "midi": 71,
          "time": 146.63953488370015,
          "velocity": 0.1968503937007874,
          "duration": 0.034883720930224626
        },
        {
          "name": "C#7",
          "midi": 97,
          "time": 146.63953488370015,
          "velocity": 0.2047244094488189,
          "duration": 0.05813953488370771
        },
        {
          "name": "D#5",
          "midi": 75,
          "time": 146.6511627906769,
          "velocity": 0.3858267716535433,
          "duration": 0.1395348837208985
        },
        {
          "name": "A#6",
          "midi": 94,
          "time": 146.6511627906769,
          "velocity": 0.14960629921259844,
          "duration": 0.1395348837208985
        },
        {
          "name": "D6",
          "midi": 86,
          "time": 146.66279069765363,
          "velocity": 0.13385826771653545,
          "duration": 0.04651162790696617
        },
        {
          "name": "G7",
          "midi": 103,
          "time": 146.66279069765363,
          "velocity": 0.1968503937007874,
          "duration": 0.20930232558134776
        },
        {
          "name": "D#3",
          "midi": 51,
          "time": 146.68604651160712,
          "velocity": 0.2755905511811024,
          "duration": 0.023255813953483084
        },
        {
          "name": "F#4",
          "midi": 66,
          "time": 146.69767441858386,
          "velocity": 0.31496062992125984,
          "duration": 0.20930232558134776
        },
        {
          "name": "C#7",
          "midi": 97,
          "time": 146.7093023255606,
          "velocity": 0.2440944881889764,
          "duration": 0.23255813953483084
        },
        {
          "name": "D#7",
          "midi": 99,
          "time": 146.7093023255606,
          "velocity": 0.07874015748031496,
          "duration": 0.034883720930224626
        },
        {
          "name": "A4",
          "midi": 69,
          "time": 146.72093023253734,
          "velocity": 0.33070866141732286,
          "duration": 0.06976744186044925
        },
        {
          "name": "E2",
          "midi": 40,
          "time": 146.73255813951408,
          "velocity": 0.4645669291338583,
          "duration": 0.023255813953483084
        },
        {
          "name": "C7",
          "midi": 96,
          "time": 146.73255813951408,
          "velocity": 0.2677165354330709,
          "duration": 0.1395348837208985
        },
        {
          "name": "F3",
          "midi": 53,
          "time": 146.74418604649082,
          "velocity": 0.3858267716535433,
          "duration": 0.034883720930224626
        },
        {
          "name": "E6",
          "midi": 88,
          "time": 146.74418604649082,
          "velocity": 0.16535433070866143,
          "duration": 0.05813953488370771
        },
        {
          "name": "F2",
          "midi": 41,
          "time": 146.75581395346757,
          "velocity": 0.5039370078740157,
          "duration": 0.034883720930224626
        },
        {
          "name": "D#7",
          "midi": 99,
          "time": 146.75581395346757,
          "velocity": 0.1889763779527559,
          "duration": 0.23255813953483084
        },
        {
          "name": "B4",
          "midi": 71,
          "time": 146.7674418604443,
          "velocity": 0.2440944881889764,
          "duration": 0.10465116279067388
        },
        {
          "name": "D4",
          "midi": 62,
          "time": 146.77906976742105,
          "velocity": 0.2283464566929134,
          "duration": 0.1627906976743816
        },
        {
          "name": "E5",
          "midi": 76,
          "time": 146.77906976742105,
          "velocity": 0.36220472440944884,
          "duration": 0.09302325581393234
        },
        {
          "name": "G#2",
          "midi": 44,
          "time": 146.7906976743978,
          "velocity": 0.4409448818897638,
          "duration": 0.023255813953483084
        },
        {
          "name": "D3",
          "midi": 50,
          "time": 146.80232558137453,
          "velocity": 0.41732283464566927,
          "duration": 0.10465116279067388
        },
        {
          "name": "D#5",
          "midi": 75,
          "time": 146.80232558137453,
          "velocity": 0.36220472440944884,
          "duration": 0.023255813953483084
        },
        {
          "name": "B6",
          "midi": 95,
          "time": 146.82558139532802,
          "velocity": 0.14960629921259844,
          "duration": 0.09302325581393234
        },
        {
          "name": "A4",
          "midi": 69,
          "time": 146.83720930230476,
          "velocity": 0.31496062992125984,
          "duration": 0.11627906976741542
        },
        {
          "name": "F#7",
          "midi": 102,
          "time": 146.83720930230476,
          "velocity": 0.1732283464566929,
          "duration": 0.15116279069764005
        },
        {
          "name": "A3",
          "midi": 57,
          "time": 146.8488372092815,
          "velocity": 0.3779527559055118,
          "duration": 0.10465116279067388
        },
        {
          "name": "D#5",
          "midi": 75,
          "time": 146.86046511625824,
          "velocity": 0.2440944881889764,
          "duration": 0.023255813953483084
        },
        {
          "name": "B4",
          "midi": 71,
          "time": 146.88372093021172,
          "velocity": 0.1732283464566929,
          "duration": 0.05813953488370771
        },
        {
          "name": "E5",
          "midi": 76,
          "time": 146.88372093021172,
          "velocity": 0.2677165354330709,
          "duration": 0.023255813953483084
        },
        {
          "name": "D#5",
          "midi": 75,
          "time": 146.89534883718846,
          "velocity": 0.36220472440944884,
          "duration": 0.05813953488370771
        },
        {
          "name": "D#3",
          "midi": 51,
          "time": 146.9069767441652,
          "velocity": 0.30708661417322836,
          "duration": 0.034883720930224626
        },
        {
          "name": "G7",
          "midi": 103,
          "time": 146.91860465114195,
          "velocity": 0.15748031496062992,
          "duration": 0.06976744186044925
        },
        {
          "name": "G4",
          "midi": 67,
          "time": 146.9302325581187,
          "velocity": 0.3228346456692913,
          "duration": 0.023255813953483084
        },
        {
          "name": "C7",
          "midi": 96,
          "time": 146.9302325581187,
          "velocity": 0.12598425196850394,
          "duration": 0.04651162790696617
        },
        {
          "name": "D6",
          "midi": 86,
          "time": 146.94186046509543,
          "velocity": 0.11023622047244094,
          "duration": 0.034883720930224626
        },
        {
          "name": "B1",
          "midi": 35,
          "time": 146.95348837207217,
          "velocity": 0.6377952755905512,
          "duration": 0.034883720930224626
        },
        {
          "name": "E5",
          "midi": 76,
          "time": 146.95348837207217,
          "velocity": 0.4566929133858268,
          "duration": 0.18604651162786467
        },
        {
          "name": "G#5",
          "midi": 80,
          "time": 146.95348837207217,
          "velocity": 0.14173228346456693,
          "duration": 0.04651162790696617
        },
        {
          "name": "C#7",
          "midi": 97,
          "time": 146.9651162790489,
          "velocity": 0.07086614173228346,
          "duration": 0.04651162790696617
        },
        {
          "name": "A2",
          "midi": 45,
          "time": 146.97674418602566,
          "velocity": 0.5511811023622047,
          "duration": 0.011627906976741542
        },
        {
          "name": "D3",
          "midi": 50,
          "time": 146.97674418602566,
          "velocity": 0.5511811023622047,
          "duration": 0.011627906976741542
        },
        {
          "name": "E4",
          "midi": 64,
          "time": 146.97674418602566,
          "velocity": 0.36220472440944884,
          "duration": 0.023255813953483084
        },
        {
          "name": "A4",
          "midi": 69,
          "time": 146.97674418602566,
          "velocity": 0.2440944881889764,
          "duration": 0.023255813953483084
        },
        {
          "name": "B5",
          "midi": 83,
          "time": 146.97674418602566,
          "velocity": 0.2283464566929134,
          "duration": 0.34883720930224626
        },
        {
          "name": "A1",
          "midi": 33,
          "time": 146.9883720930024,
          "velocity": 0.5511811023622047,
          "duration": 0.011627906976741542
        },
        {
          "name": "D#3",
          "midi": 51,
          "time": 146.9883720930024,
          "velocity": 0.4645669291338583,
          "duration": 0.034883720930224626
        },
        {
          "name": "B1",
          "midi": 35,
          "time": 146.99999999997914,
          "velocity": 0.6062992125984252,
          "duration": 0.023255813953483084
        },
        {
          "name": "G#3",
          "midi": 56,
          "time": 146.99999999997914,
          "velocity": 0.41732283464566927,
          "duration": 0.04651162790696617
        },
        {
          "name": "D4",
          "midi": 62,
          "time": 147.01162790695588,
          "velocity": 0.3543307086614173,
          "duration": 0.023255813953483084
        },
        {
          "name": "B4",
          "midi": 71,
          "time": 147.01162790695588,
          "velocity": 0.33858267716535434,
          "duration": 0.3023255813952801
        },
        {
          "name": "A#1",
          "midi": 34,
          "time": 147.02325581393262,
          "velocity": 0.5748031496062992,
          "duration": 0.011627906976741542
        },
        {
          "name": "F#4",
          "midi": 66,
          "time": 147.02325581393262,
          "velocity": 0.3858267716535433,
          "duration": 0.034883720930224626
        },
        {
          "name": "C2",
          "midi": 36,
          "time": 147.03488372090936,
          "velocity": 0.5275590551181102,
          "duration": 0.011627906976741542
        },
        {
          "name": "E4",
          "midi": 64,
          "time": 147.03488372090936,
          "velocity": 0.3779527559055118,
          "duration": 0.023255813953483084
        },
        {
          "name": "D7",
          "midi": 98,
          "time": 147.0465116278861,
          "velocity": 0.08661417322834646,
          "duration": 0.09302325581393234
        },
        {
          "name": "G#2",
          "midi": 44,
          "time": 147.05813953486285,
          "velocity": 0.48031496062992124,
          "duration": 0.023255813953483084
        },
        {
          "name": "B3",
          "midi": 59,
          "time": 147.05813953486285,
          "velocity": 0.31496062992125984,
          "duration": 0.023255813953483084
        },
        {
          "name": "F#4",
          "midi": 66,
          "time": 147.0697674418396,
          "velocity": 0.3700787401574803,
          "duration": 0.09302325581393234
        },
        {
          "name": "A#1",
          "midi": 34,
          "time": 147.08139534881633,
          "velocity": 0.6062992125984252,
          "duration": 0.023255813953483084
        },
        {
          "name": "G#1",
          "midi": 32,
          "time": 147.1046511627698,
          "velocity": 0.5511811023622047,
          "duration": 0.011627906976741542
        },
        {
          "name": "F3",
          "midi": 53,
          "time": 147.1046511627698,
          "velocity": 0.2677165354330709,
          "duration": 0.023255813953483084
        },
        {
          "name": "E4",
          "midi": 64,
          "time": 147.1046511627698,
          "velocity": 0.31496062992125984,
          "duration": 0.05813953488370771
        },
        {
          "name": "D#5",
          "midi": 75,
          "time": 147.13953488370004,
          "velocity": 0.29133858267716534,
          "duration": 0.05813953488370771
        },
        {
          "name": "D3",
          "midi": 50,
          "time": 147.15116279067678,
          "velocity": 0.4015748031496063,
          "duration": 0.034883720930224626
        },
        {
          "name": "F#1",
          "midi": 30,
          "time": 147.16279069765352,
          "velocity": 0.5275590551181102,
          "duration": 0.011627906976741542
        },
        {
          "name": "F#5",
          "midi": 78,
          "time": 147.16279069765352,
          "velocity": 0.33070866141732286,
          "duration": 0.20930232558134776
        },
        {
          "name": "G1",
          "midi": 31,
          "time": 147.17441860463026,
          "velocity": 0.5354330708661418,
          "duration": 0.011627906976741542
        },
        {
          "name": "B3",
          "midi": 59,
          "time": 147.17441860463026,
          "velocity": 0.28346456692913385,
          "duration": 0.034883720930224626
        },
        {
          "name": "F#4",
          "midi": 66,
          "time": 147.17441860463026,
          "velocity": 0.3464566929133858,
          "duration": 0.034883720930224626
        },
        {
          "name": "E4",
          "midi": 64,
          "time": 147.19767441858374,
          "velocity": 0.2992125984251969,
          "duration": 0.06976744186044925
        },
        {
          "name": "E5",
          "midi": 76,
          "time": 147.19767441858374,
          "velocity": 0.33858267716535434,
          "duration": 0.20930232558134776
        },
        {
          "name": "G4",
          "midi": 67,
          "time": 147.2093023255605,
          "velocity": 0.3858267716535433,
          "duration": 0.034883720930224626
        },
        {
          "name": "D#7",
          "midi": 99,
          "time": 147.2093023255605,
          "velocity": 0.09448818897637795,
          "duration": 0.034883720930224626
        },
        {
          "name": "A#3",
          "midi": 58,
          "time": 147.22093023253723,
          "velocity": 0.25984251968503935,
          "duration": 0.023255813953483084
        },
        {
          "name": "D#1",
          "midi": 27,
          "time": 147.2441860464907,
          "velocity": 0.48031496062992124,
          "duration": 0.023255813953483084
        },
        {
          "name": "D#3",
          "midi": 51,
          "time": 147.2441860464907,
          "velocity": 0.33858267716535434,
          "duration": 0.023255813953483084
        },
        {
          "name": "F#4",
          "midi": 66,
          "time": 147.25581395346745,
          "velocity": 0.31496062992125984,
          "duration": 0.023255813953483084
        },
        {
          "name": "B1",
          "midi": 35,
          "time": 147.2674418604442,
          "velocity": 0.5826771653543307,
          "duration": 0.011627906976741542
        },
        {
          "name": "G#1",
          "midi": 32,
          "time": 147.27906976742094,
          "velocity": 0.5511811023622047,
          "duration": 0.023255813953483084
        },
        {
          "name": "E4",
          "midi": 64,
          "time": 147.27906976742094,
          "velocity": 0.33070866141732286,
          "duration": 0.06976744186044925
        },
        {
          "name": "G4",
          "midi": 67,
          "time": 147.27906976742094,
          "velocity": 0.33858267716535434,
          "duration": 0.034883720930224626
        },
        {
          "name": "B3",
          "midi": 59,
          "time": 147.30232558137442,
          "velocity": 0.2440944881889764,
          "duration": 0.0813953488371908
        },
        {
          "name": "A4",
          "midi": 69,
          "time": 147.30232558137442,
          "velocity": 0.16535433070866143,
          "duration": 0.04651162790696617
        },
        {
          "name": "F#2",
          "midi": 42,
          "time": 147.3255813953279,
          "velocity": 0.41732283464566927,
          "duration": 0.023255813953483084
        },
        {
          "name": "F#4",
          "midi": 66,
          "time": 147.33720930230464,
          "velocity": 0.2283464566929134,
          "duration": 0.034883720930224626
        },
        {
          "name": "E3",
          "midi": 52,
          "time": 147.34883720928138,
          "velocity": 0.18110236220472442,
          "duration": 0.04651162790696617
        },
        {
          "name": "D#4",
          "midi": 63,
          "time": 147.34883720928138,
          "velocity": 0.1968503937007874,
          "duration": 0.034883720930224626
        },
        {
          "name": "B4",
          "midi": 71,
          "time": 147.34883720928138,
          "velocity": 0.33858267716535434,
          "duration": 0.1395348837208985
        },
        {
          "name": "A#1",
          "midi": 34,
          "time": 147.36046511625813,
          "velocity": 0.5118110236220472,
          "duration": 0.011627906976741542
        },
        {
          "name": "B1",
          "midi": 35,
          "time": 147.37209302323487,
          "velocity": 0.4881889763779528,
          "duration": 0.023255813953483084
        },
        {
          "name": "G4",
          "midi": 67,
          "time": 147.37209302323487,
          "velocity": 0.25196850393700787,
          "duration": 0.023255813953483084
        },
        {
          "name": "D#6",
          "midi": 87,
          "time": 147.37209302323487,
          "velocity": 0.10236220472440945,
          "duration": 0.034883720930224626
        },
        {
          "name": "F#6",
          "midi": 90,
          "time": 147.37209302323487,
          "velocity": 0.30708661417322836,
          "duration": 0.15116279069764005
        },
        {
          "name": "C#7",
          "midi": 97,
          "time": 147.37209302323487,
          "velocity": 0.23622047244094488,
          "duration": 0.09302325581393234
        },
        {
          "name": "D#5",
          "midi": 75,
          "time": 147.39534883718835,
          "velocity": 0.28346456692913385,
          "duration": 0.034883720930224626
        },
        {
          "name": "F#5",
          "midi": 78,
          "time": 147.39534883718835,
          "velocity": 0.1889763779527559,
          "duration": 0.10465116279067388
        },
        {
          "name": "E4",
          "midi": 64,
          "time": 147.4069767441651,
          "velocity": 0.33070866141732286,
          "duration": 0.034883720930224626
        },
        {
          "name": "G#5",
          "midi": 80,
          "time": 147.4069767441651,
          "velocity": 0.16535433070866143,
          "duration": 0.04651162790696617
        },
        {
          "name": "D3",
          "midi": 50,
          "time": 147.41860465114183,
          "velocity": 0.4015748031496063,
          "duration": 0.05813953488370771
        },
        {
          "name": "G4",
          "midi": 67,
          "time": 147.41860465114183,
          "velocity": 0.29133858267716534,
          "duration": 0.034883720930224626
        },
        {
          "name": "G#1",
          "midi": 32,
          "time": 147.44186046509532,
          "velocity": 0.4094488188976378,
          "duration": 0.023255813953483084
        },
        {
          "name": "F#4",
          "midi": 66,
          "time": 147.44186046509532,
          "velocity": 0.2204724409448819,
          "duration": 0.034883720930224626
        },
        {
          "name": "E4",
          "midi": 64,
          "time": 147.45348837207206,
          "velocity": 0.18110236220472442,
          "duration": 0.04651162790696617
        },
        {
          "name": "D#3",
          "midi": 51,
          "time": 147.47674418602554,
          "velocity": 0.4015748031496063,
          "duration": 0.034883720930224626
        },
        {
          "name": "F#4",
          "midi": 66,
          "time": 147.49999999997902,
          "velocity": 0.23622047244094488,
          "duration": 0.034883720930224626
        },
        {
          "name": "B4",
          "midi": 71,
          "time": 147.49999999997902,
          "velocity": 0.2677165354330709,
          "duration": 0.09302325581393234
        },
        {
          "name": "D#5",
          "midi": 75,
          "time": 147.49999999997902,
          "velocity": 0.1732283464566929,
          "duration": 0.09302325581393234
        },
        {
          "name": "F#1",
          "midi": 30,
          "time": 147.51162790695577,
          "velocity": 0.3858267716535433,
          "duration": 0.023255813953483084
        },
        {
          "name": "G#2",
          "midi": 44,
          "time": 147.53488372090925,
          "velocity": 0.3464566929133858,
          "duration": 0.034883720930224626
        },
        {
          "name": "G4",
          "midi": 67,
          "time": 147.53488372090925,
          "velocity": 0.28346456692913385,
          "duration": 0.023255813953483084
        },
        {
          "name": "E4",
          "midi": 64,
          "time": 147.546511627886,
          "velocity": 0.28346456692913385,
          "duration": 0.06976744186044925
        },
        {
          "name": "F#6",
          "midi": 90,
          "time": 147.546511627886,
          "velocity": 0.2047244094488189,
          "duration": 0.19767441860460622
        },
        {
          "name": "G1",
          "midi": 31,
          "time": 147.55813953486273,
          "velocity": 0.4015748031496063,
          "duration": 0.023255813953483084
        },
        {
          "name": "G#5",
          "midi": 80,
          "time": 147.56976744183947,
          "velocity": 0.11811023622047244,
          "duration": 0.09302325581393234
        },
        {
          "name": "A#1",
          "midi": 34,
          "time": 147.59302325579296,
          "velocity": 0.30708661417322836,
          "duration": 0.034883720930224626
        },
        {
          "name": "D5",
          "midi": 74,
          "time": 147.59302325579296,
          "velocity": 0.3937007874015748,
          "duration": 0.0813953488371908
        },
        {
          "name": "A6",
          "midi": 93,
          "time": 147.59302325579296,
          "velocity": 0.18110236220472442,
          "duration": 0.09302325581393234
        },
        {
          "name": "F#4",
          "midi": 66,
          "time": 147.6046511627697,
          "velocity": 0.2283464566929134,
          "duration": 0.023255813953483084
        },
        {
          "name": "D#3",
          "midi": 51,
          "time": 147.61627906974644,
          "velocity": 0.33858267716535434,
          "duration": 0.023255813953483084
        },
        {
          "name": "B4",
          "midi": 71,
          "time": 147.61627906974644,
          "velocity": 0.30708661417322836,
          "duration": 0.09302325581393234
        },
        {
          "name": "F#5",
          "midi": 78,
          "time": 147.65116279067666,
          "velocity": 0.08661417322834646,
          "duration": 0.034883720930224626
        },
        {
          "name": "D3",
          "midi": 50,
          "time": 147.6627906976534,
          "velocity": 0.25196850393700787,
          "duration": 0.09302325581393234
        },
        {
          "name": "F#4",
          "midi": 66,
          "time": 147.6627906976534,
          "velocity": 0.2283464566929134,
          "duration": 0.09302325581393234
        },
        {
          "name": "D#5",
          "midi": 75,
          "time": 147.6627906976534,
          "velocity": 0.2677165354330709,
          "duration": 0.09302325581393234
        },
        {
          "name": "A#1",
          "midi": 34,
          "time": 147.69767441858363,
          "velocity": 0.4330708661417323,
          "duration": 0.023255813953483084
        },
        {
          "name": "B4",
          "midi": 71,
          "time": 147.7209302325371,
          "velocity": 0.25984251968503935,
          "duration": 0.1627906976743816
        },
        {
          "name": "G#5",
          "midi": 80,
          "time": 147.73255813951386,
          "velocity": 0.08661417322834646,
          "duration": 0.11627906976741542
        },
        {
          "name": "E6",
          "midi": 88,
          "time": 147.73255813951386,
          "velocity": 0.13385826771653545,
          "duration": 0.05813953488370771
        },
        {
          "name": "G4",
          "midi": 67,
          "time": 147.75581395346734,
          "velocity": 0.2283464566929134,
          "duration": 0.034883720930224626
        },
        {
          "name": "E5",
          "midi": 76,
          "time": 147.75581395346734,
          "velocity": 0.1889763779527559,
          "duration": 0.06976744186044925
        },
        {
          "name": "G1",
          "midi": 31,
          "time": 147.76744186044408,
          "velocity": 0.48031496062992124,
          "duration": 0.023255813953483084
        },
        {
          "name": "F#6",
          "midi": 90,
          "time": 147.76744186044408,
          "velocity": 0.16535433070866143,
          "duration": 0.0813953488371908
        },
        {
          "name": "C#6",
          "midi": 85,
          "time": 147.77906976742082,
          "velocity": 0.10236220472440945,
          "duration": 0.034883720930224626
        },
        {
          "name": "F#4",
          "midi": 66,
          "time": 147.79069767439756,
          "velocity": 0.33070866141732286,
          "duration": 0.18604651162786467
        },
        {
          "name": "A#1",
          "midi": 34,
          "time": 147.81395348835105,
          "velocity": 0.4409448818897638,
          "duration": 0.023255813953483084
        },
        {
          "name": "E4",
          "midi": 64,
          "time": 147.81395348835105,
          "velocity": 0.1889763779527559,
          "duration": 0.034883720930224626
        },
        {
          "name": "E5",
          "midi": 76,
          "time": 147.84883720928127,
          "velocity": 0.2204724409448819,
          "duration": 0.09302325581393234
        },
        {
          "name": "E4",
          "midi": 64,
          "time": 147.860465116258,
          "velocity": 0.2440944881889764,
          "duration": 0.04651162790696617
        },
        {
          "name": "C5",
          "midi": 72,
          "time": 147.87209302323475,
          "velocity": 0.1732283464566929,
          "duration": 0.05813953488370771
        },
        {
          "name": "B6",
          "midi": 95,
          "time": 147.87209302323475,
          "velocity": 0.28346456692913385,
          "duration": 0.20930232558134776
        },
        {
          "name": "F#6",
          "midi": 90,
          "time": 147.8837209302115,
          "velocity": 0.11811023622047244,
          "duration": 0.06976744186044925
        },
        {
          "name": "B5",
          "midi": 83,
          "time": 147.89534883718824,
          "velocity": 0.11023622047244094,
          "duration": 0.09302325581393234
        },
        {
          "name": "A1",
          "midi": 33,
          "time": 147.91860465114172,
          "velocity": 0.31496062992125984,
          "duration": 0.034883720930224626
        },
        {
          "name": "B4",
          "midi": 71,
          "time": 147.93023255811846,
          "velocity": 0.2283464566929134,
          "duration": 0.034883720930224626
        },
        {
          "name": "D#5",
          "midi": 75,
          "time": 147.93023255811846,
          "velocity": 0.2047244094488189,
          "duration": 0.09302325581393234
        },
        {
          "name": "E4",
          "midi": 64,
          "time": 147.9651162790487,
          "velocity": 0.2755905511811024,
          "duration": 0.05813953488370771
        },
        {
          "name": "G#5",
          "midi": 80,
          "time": 147.9651162790487,
          "velocity": 0.15748031496062992,
          "duration": 0.034883720930224626
        },
        {
          "name": "F#1",
          "midi": 30,
          "time": 147.97674418602543,
          "velocity": 0.3937007874015748,
          "duration": 0.023255813953483084
        },
        {
          "name": "B4",
          "midi": 71,
          "time": 147.97674418602543,
          "velocity": 0.2755905511811024,
          "duration": 0.06976744186044925
        },
        {
          "name": "F1",
          "midi": 29,
          "time": 147.9999999999789,
          "velocity": 0.4015748031496063,
          "duration": 0.023255813953483084
        },
        {
          "name": "F#4",
          "midi": 66,
          "time": 148.01162790695565,
          "velocity": 0.2440944881889764,
          "duration": 0.0813953488371908
        },
        {
          "name": "E5",
          "midi": 76,
          "time": 148.01162790695565,
          "velocity": 0.4094488188976378,
          "duration": 0.19767441860460622
        },
        {
          "name": "F#6",
          "midi": 90,
          "time": 148.01162790695565,
          "velocity": 0.08661417322834646,
          "duration": 0.034883720930224626
        },
        {
          "name": "G#5",
          "midi": 80,
          "time": 148.03488372090914,
          "velocity": 0.11811023622047244,
          "duration": 0.09302325581393234
        },
        {
          "name": "B4",
          "midi": 71,
          "time": 148.05813953486262,
          "velocity": 0.30708661417322836,
          "duration": 0.15116279069764005
        },
        {
          "name": "F#4",
          "midi": 66,
          "time": 148.10465116276958,
          "velocity": 0.2755905511811024,
          "duration": 0.05813953488370771
        },
        {
          "name": "B6",
          "midi": 95,
          "time": 148.10465116276958,
          "velocity": 0.1889763779527559,
          "duration": 0.26744186046505547
        },
        {
          "name": "E4",
          "midi": 64,
          "time": 148.11627906974633,
          "velocity": 0.33070866141732286,
          "duration": 0.279069767441797
        },
        {
          "name": "F#6",
          "midi": 90,
          "time": 148.11627906974633,
          "velocity": 0.11023622047244094,
          "duration": 0.05813953488370771
        },
        {
          "name": "G#5",
          "midi": 80,
          "time": 148.1627906976533,
          "velocity": 0.08661417322834646,
          "duration": 0.05813953488370771
        },
        {
          "name": "E3",
          "midi": 52,
          "time": 148.17441860463003,
          "velocity": 0.14173228346456693,
          "duration": 0.034883720930224626
        },
        {
          "name": "E1",
          "midi": 28,
          "time": 148.20930232556026,
          "velocity": 0.41732283464566927,
          "duration": 0.05813953488370771
        },
        {
          "name": "B4",
          "midi": 71,
          "time": 148.23255813951374,
          "velocity": 0.3937007874015748,
          "duration": 0.05813953488370771
        },
        {
          "name": "D#5",
          "midi": 75,
          "time": 148.24418604649048,
          "velocity": 0.15748031496062992,
          "duration": 0.06976744186044925
        },
        {
          "name": "E3",
          "midi": 52,
          "time": 148.25581395346723,
          "velocity": 0.1968503937007874,
          "duration": 0.04651162790696617
        },
        {
          "name": "F#4",
          "midi": 66,
          "time": 148.25581395346723,
          "velocity": 0.1889763779527559,
          "duration": 0.06976744186044925
        },
        {
          "name": "D7",
          "midi": 98,
          "time": 148.26744186044397,
          "velocity": 0.09448818897637795,
          "duration": 0.034883720930224626
        },
        {
          "name": "B4",
          "midi": 71,
          "time": 148.3023255813742,
          "velocity": 0.31496062992125984,
          "duration": 0.0813953488371908
        },
        {
          "name": "F#4",
          "midi": 66,
          "time": 148.38372093021138,
          "velocity": 0.11023622047244094,
          "duration": 0.034883720930224626
        },
        {
          "name": "C5",
          "midi": 72,
          "time": 148.38372093021138,
          "velocity": 0.23622047244094488,
          "duration": 0.034883720930224626
        },
        {
          "name": "D#4",
          "midi": 63,
          "time": 148.39534883718812,
          "velocity": 0.1889763779527559,
          "duration": 0.04651162790696617
        },
        {
          "name": "B5",
          "midi": 83,
          "time": 148.4186046511416,
          "velocity": 0.2125984251968504,
          "duration": 0.2558139534883139
        },
        {
          "name": "G#5",
          "midi": 80,
          "time": 148.43023255811835,
          "velocity": 0.13385826771653545,
          "duration": 0.04651162790696617
        },
        {
          "name": "E5",
          "midi": 76,
          "time": 148.4418604650951,
          "velocity": 0.23622047244094488,
          "duration": 0.05813953488370771
        },
        {
          "name": "B4",
          "midi": 71,
          "time": 148.46511627904857,
          "velocity": 0.2440944881889764,
          "duration": 0.023255813953483084
        },
        {
          "name": "E3",
          "midi": 52,
          "time": 148.47674418602531,
          "velocity": 0.1889763779527559,
          "duration": 0.05813953488370771
        },
        {
          "name": "E4",
          "midi": 64,
          "time": 148.48837209300206,
          "velocity": 0.3543307086614173,
          "duration": 0.20930232558134776
        },
        {
          "name": "D#5",
          "midi": 75,
          "time": 148.48837209300206,
          "velocity": 0.14173228346456693,
          "duration": 0.06976744186044925
        },
        {
          "name": "B4",
          "midi": 71,
          "time": 148.4999999999788,
          "velocity": 0.3937007874015748,
          "duration": 0.05813953488370771
        },
        {
          "name": "F1",
          "midi": 29,
          "time": 148.54651162788576,
          "velocity": 0.3464566929133858,
          "duration": 0.034883720930224626
        },
        {
          "name": "E3",
          "midi": 52,
          "time": 148.54651162788576,
          "velocity": 0.1732283464566929,
          "duration": 0.034883720930224626
        },
        {
          "name": "F#6",
          "midi": 90,
          "time": 148.5581395348625,
          "velocity": 0.09448818897637795,
          "duration": 0.10465116279067388
        },
        {
          "name": "B4",
          "midi": 71,
          "time": 148.56976744183925,
          "velocity": 0.4015748031496063,
          "duration": 0.47674418604640323
        },
        {
          "name": "G#5",
          "midi": 80,
          "time": 148.56976744183925,
          "velocity": 0.14173228346456693,
          "duration": 0.10465116279067388
        },
        {
          "name": "C#1",
          "midi": 25,
          "time": 148.59302325579273,
          "velocity": 0.2440944881889764,
          "duration": 0.023255813953483084
        },
        {
          "name": "F1",
          "midi": 29,
          "time": 148.6162790697462,
          "velocity": 0.2992125984251969,
          "duration": 0.023255813953483084
        },
        {
          "name": "D#5",
          "midi": 75,
          "time": 148.62790697672295,
          "velocity": 0.14173228346456693,
          "duration": 0.034883720930224626
        },
        {
          "name": "E5",
          "midi": 76,
          "time": 148.65116279067644,
          "velocity": 0.3937007874015748,
          "duration": 0.43023255813943706
        },
        {
          "name": "F3",
          "midi": 53,
          "time": 148.66279069765318,
          "velocity": 0.23622047244094488,
          "duration": 0.023255813953483084
        },
        {
          "name": "E3",
          "midi": 52,
          "time": 148.70930232556015,
          "velocity": 0.2283464566929134,
          "duration": 0.023255813953483084
        },
        {
          "name": "D7",
          "midi": 98,
          "time": 148.70930232556015,
          "velocity": 0.08661417322834646,
          "duration": 0.12790697674415696
        },
        {
          "name": "F3",
          "midi": 53,
          "time": 148.73255813951363,
          "velocity": 0.15748031496062992,
          "duration": 0.034883720930224626
        },
        {
          "name": "F4",
          "midi": 65,
          "time": 148.73255813951363,
          "velocity": 0.25984251968503935,
          "duration": 0.023255813953483084
        },
        {
          "name": "F#1",
          "midi": 30,
          "time": 148.7558139534671,
          "velocity": 0.2992125984251969,
          "duration": 0.04651162790696617
        },
        {
          "name": "F#6",
          "midi": 90,
          "time": 148.7558139534671,
          "velocity": 0.11811023622047244,
          "duration": 0.04651162790696617
        },
        {
          "name": "G#5",
          "midi": 80,
          "time": 148.79069767439734,
          "velocity": 0.15748031496062992,
          "duration": 0.034883720930224626
        },
        {
          "name": "F1",
          "midi": 29,
          "time": 148.80232558137408,
          "velocity": 0.30708661417322836,
          "duration": 0.023255813953483084
        },
        {
          "name": "E4",
          "midi": 64,
          "time": 148.80232558137408,
          "velocity": 0.25196850393700787,
          "duration": 0.18604651162786467
        },
        {
          "name": "C#2",
          "midi": 37,
          "time": 148.82558139532756,
          "velocity": 0.33070866141732286,
          "duration": 0.023255813953483084
        },
        {
          "name": "B6",
          "midi": 95,
          "time": 148.8372093023043,
          "velocity": 0.12598425196850394,
          "duration": 0.04651162790696617
        },
        {
          "name": "B1",
          "midi": 35,
          "time": 148.84883720928104,
          "velocity": 0.2755905511811024,
          "duration": 0.023255813953483084
        },
        {
          "name": "D#7",
          "midi": 99,
          "time": 148.86046511625779,
          "velocity": 0.12598425196850394,
          "duration": 0.034883720930224626
        },
        {
          "name": "F#5",
          "midi": 78,
          "time": 148.87209302323453,
          "velocity": 0.29133858267716534,
          "duration": 0.3604651162789878
        },
        {
          "name": "B3",
          "midi": 59,
          "time": 148.88372093021127,
          "velocity": 0.2204724409448819,
          "duration": 0.23255813953483084
        },
        {
          "name": "D#6",
          "midi": 87,
          "time": 148.88372093021127,
          "velocity": 0.14173228346456693,
          "duration": 0.034883720930224626
        },
        {
          "name": "E3",
          "midi": 52,
          "time": 148.895348837188,
          "velocity": 0.23622047244094488,
          "duration": 0.05813953488370771
        },
        {
          "name": "B6",
          "midi": 95,
          "time": 148.90697674416475,
          "velocity": 0.14173228346456693,
          "duration": 0.04651162790696617
        },
        {
          "name": "D7",
          "midi": 98,
          "time": 148.93023255811823,
          "velocity": 0.11023622047244094,
          "duration": 0.04651162790696617
        },
        {
          "name": "G4",
          "midi": 67,
          "time": 148.94186046509498,
          "velocity": 0.14173228346456693,
          "duration": 0.034883720930224626
        },
        {
          "name": "G#5",
          "midi": 80,
          "time": 148.96511627904846,
          "velocity": 0.13385826771653545,
          "duration": 0.0813953488371908
        },
        {
          "name": "F1",
          "midi": 29,
          "time": 148.9767441860252,
          "velocity": 0.2677165354330709,
          "duration": 0.023255813953483084
        },
        {
          "name": "F3",
          "midi": 53,
          "time": 148.99999999997868,
          "velocity": 0.2047244094488189,
          "duration": 0.09302325581393234
        },
        {
          "name": "F4",
          "midi": 65,
          "time": 149.0348837209089,
          "velocity": 0.2283464566929134,
          "duration": 0.04651162790696617
        },
        {
          "name": "B4",
          "midi": 71,
          "time": 149.0581395348624,
          "velocity": 0.41732283464566927,
          "duration": 0.1395348837208985
        },
        {
          "name": "E4",
          "midi": 64,
          "time": 149.08139534881587,
          "velocity": 0.31496062992125984,
          "duration": 0.1395348837208985
        },
        {
          "name": "D#6",
          "midi": 87,
          "time": 149.09302325579262,
          "velocity": 0.07086614173228346,
          "duration": 0.034883720930224626
        },
        {
          "name": "F1",
          "midi": 29,
          "time": 149.1162790697461,
          "velocity": 0.23622047244094488,
          "duration": 0.023255813953483084
        },
        {
          "name": "E3",
          "midi": 52,
          "time": 149.1162790697461,
          "velocity": 0.1889763779527559,
          "duration": 0.09302325581393234
        },
        {
          "name": "G#4",
          "midi": 68,
          "time": 149.15116279067632,
          "velocity": 0.15748031496062992,
          "duration": 0.034883720930224626
        },
        {
          "name": "E1",
          "midi": 28,
          "time": 149.1744186046298,
          "velocity": 0.2440944881889764,
          "duration": 0.023255813953483084
        },
        {
          "name": "G#1",
          "midi": 32,
          "time": 149.1976744185833,
          "velocity": 0.25196850393700787,
          "duration": 0.023255813953483084
        },
        {
          "name": "B4",
          "midi": 71,
          "time": 149.20930232556003,
          "velocity": 0.23622047244094488,
          "duration": 0.09302325581393234
        },
        {
          "name": "G#5",
          "midi": 80,
          "time": 149.20930232556003,
          "velocity": 0.11811023622047244,
          "duration": 0.034883720930224626
        },
        {
          "name": "D4",
          "midi": 62,
          "time": 149.22093023253677,
          "velocity": 0.15748031496062992,
          "duration": 0.034883720930224626
        },
        {
          "name": "E4",
          "midi": 64,
          "time": 149.24418604649026,
          "velocity": 0.36220472440944884,
          "duration": 0.24418604651157239
        },
        {
          "name": "E3",
          "midi": 52,
          "time": 149.255813953467,
          "velocity": 0.1732283464566929,
          "duration": 0.04651162790696617
        },
        {
          "name": "F#1",
          "midi": 30,
          "time": 149.26744186044374,
          "velocity": 0.30708661417322836,
          "duration": 0.023255813953483084
        },
        {
          "name": "F1",
          "midi": 29,
          "time": 149.29069767439722,
          "velocity": 0.2677165354330709,
          "duration": 0.023255813953483084
        },
        {
          "name": "G#5",
          "midi": 80,
          "time": 149.29069767439722,
          "velocity": 0.1732283464566929,
          "duration": 0.034883720930224626
        },
        {
          "name": "A5",
          "midi": 81,
          "time": 149.30232558137396,
          "velocity": 0.3700787401574803,
          "duration": 0.12790697674415696
        },
        {
          "name": "G#4",
          "midi": 68,
          "time": 149.3139534883507,
          "velocity": 0.11811023622047244,
          "duration": 0.034883720930224626
        },
        {
          "name": "D7",
          "midi": 98,
          "time": 149.3139534883507,
          "velocity": 0.13385826771653545,
          "duration": 0.20930232558134776
        },
        {
          "name": "E3",
          "midi": 52,
          "time": 149.32558139532745,
          "velocity": 0.2204724409448819,
          "duration": 0.20930232558134776
        },
        {
          "name": "B4",
          "midi": 71,
          "time": 149.3372093023042,
          "velocity": 0.2992125984251969,
          "duration": 0.06976744186044925
        },
        {
          "name": "A4",
          "midi": 69,
          "time": 149.34883720928093,
          "velocity": 0.14173228346456693,
          "duration": 0.04651162790696617
        },
        {
          "name": "C5",
          "midi": 72,
          "time": 149.40697674416464,
          "velocity": 0.2755905511811024,
          "duration": 0.023255813953483084
        },
        {
          "name": "B4",
          "midi": 71,
          "time": 149.41860465114138,
          "velocity": 0.3543307086614173,
          "duration": 0.06976744186044925
        },
        {
          "name": "F#1",
          "midi": 30,
          "time": 149.44186046509486,
          "velocity": 0.25984251968503935,
          "duration": 0.023255813953483084
        },
        {
          "name": "A5",
          "midi": 81,
          "time": 149.4534883720716,
          "velocity": 0.16535433070866143,
          "duration": 0.10465116279067388
        },
        {
          "name": "F1",
          "midi": 29,
          "time": 149.46511627904835,
          "velocity": 0.23622047244094488,
          "duration": 0.023255813953483084
        },
        {
          "name": "E5",
          "midi": 76,
          "time": 149.48837209300183,
          "velocity": 0.13385826771653545,
          "duration": 0.034883720930224626
        },
        {
          "name": "C#4",
          "midi": 61,
          "time": 149.49999999997857,
          "velocity": 0.09448818897637795,
          "duration": 0.034883720930224626
        },
        {
          "name": "B4",
          "midi": 71,
          "time": 149.49999999997857,
          "velocity": 0.33070866141732286,
          "duration": 0.034883720930224626
        },
        {
          "name": "F#1",
          "midi": 30,
          "time": 149.5116279069553,
          "velocity": 0.1732283464566929,
          "duration": 0.034883720930224626
        },
        {
          "name": "A4",
          "midi": 69,
          "time": 149.52325581393205,
          "velocity": 0.08661417322834646,
          "duration": 0.034883720930224626
        },
        {
          "name": "E4",
          "midi": 64,
          "time": 149.55813953486228,
          "velocity": 0.2204724409448819,
          "duration": 0.09302325581393234
        },
        {
          "name": "B4",
          "midi": 71,
          "time": 149.56976744183902,
          "velocity": 0.23622047244094488,
          "duration": 0.023255813953483084
        },
        {
          "name": "D6",
          "midi": 86,
          "time": 149.56976744183902,
          "velocity": 0.1732283464566929,
          "duration": 0.12790697674415696
        },
        {
          "name": "A6",
          "midi": 93,
          "time": 149.56976744183902,
          "velocity": 0.1732283464566929,
          "duration": 0.19767441860460622
        },
        {
          "name": "A5",
          "midi": 81,
          "time": 149.58139534881576,
          "velocity": 0.1968503937007874,
          "duration": 0.11627906976741542
        },
        {
          "name": "E3",
          "midi": 52,
          "time": 149.60465116276924,
          "velocity": 0.08661417322834646,
          "duration": 0.04651162790696617
        },
        {
          "name": "E6",
          "midi": 88,
          "time": 149.60465116276924,
          "velocity": 0.1732283464566929,
          "duration": 0.04651162790696617
        },
        {
          "name": "C5",
          "midi": 72,
          "time": 149.61627906974599,
          "velocity": 0.2125984251968504,
          "duration": 0.034883720930224626
        },
        {
          "name": "F#1",
          "midi": 30,
          "time": 149.63953488369947,
          "velocity": 0.2283464566929134,
          "duration": 0.034883720930224626
        },
        {
          "name": "F3",
          "midi": 53,
          "time": 149.6511627906762,
          "velocity": 0.08661417322834646,
          "duration": 0.034883720930224626
        },
        {
          "name": "B4",
          "midi": 71,
          "time": 149.6511627906762,
          "velocity": 0.29133858267716534,
          "duration": 0.05813953488370771
        },
        {
          "name": "E4",
          "midi": 64,
          "time": 149.66279069765295,
          "velocity": 0.2047244094488189,
          "duration": 0.15116279069764005
        },
        {
          "name": "A5",
          "midi": 81,
          "time": 149.72093023253666,
          "velocity": 0.14960629921259844,
          "duration": 0.20930232558134776
        },
        {
          "name": "D6",
          "midi": 86,
          "time": 149.72093023253666,
          "velocity": 0.11811023622047244,
          "duration": 0.279069767441797
        },
        {
          "name": "F1",
          "midi": 29,
          "time": 149.7325581395134,
          "velocity": 0.1968503937007874,
          "duration": 0.04651162790696617
        },
        {
          "name": "C5",
          "midi": 72,
          "time": 149.7325581395134,
          "velocity": 0.12598425196850394,
          "duration": 0.034883720930224626
        },
        {
          "name": "B5",
          "midi": 83,
          "time": 149.7325581395134,
          "velocity": 0.2755905511811024,
          "duration": 0.0813953488371908
        },
        {
          "name": "E3",
          "midi": 52,
          "time": 149.77906976742037,
          "velocity": 0.14960629921259844,
          "duration": 0.04651162790696617
        },
        {
          "name": "B4",
          "midi": 71,
          "time": 149.77906976742037,
          "velocity": 0.4251968503937008,
          "duration": 0.09302325581393234
        },
        {
          "name": "E4",
          "midi": 64,
          "time": 149.82558139532733,
          "velocity": 0.3464566929133858,
          "duration": 0.279069767441797
        },
        {
          "name": "F3",
          "midi": 53,
          "time": 149.84883720928082,
          "velocity": 0.08661417322834646,
          "duration": 0.04651162790696617
        },
        {
          "name": "B4",
          "midi": 71,
          "time": 149.88372093021104,
          "velocity": 0.1732283464566929,
          "duration": 0.0813953488371908
        },
        {
          "name": "E3",
          "midi": 52,
          "time": 149.89534883718778,
          "velocity": 0.07874015748031496,
          "duration": 0.034883720930224626
        },
        {
          "name": "F1",
          "midi": 29,
          "time": 149.91860465114127,
          "velocity": 0.15748031496062992,
          "duration": 0.034883720930224626
        },
        {
          "name": "A5",
          "midi": 81,
          "time": 149.94186046509475,
          "velocity": 0.36220472440944884,
          "duration": 0.11627906976741542
        },
        {
          "name": "A4",
          "midi": 69,
          "time": 149.96511627904823,
          "velocity": 0.14960629921259844,
          "duration": 0.05813953488370771
        },
        {
          "name": "E3",
          "midi": 52,
          "time": 149.97674418602497,
          "velocity": 0.09448818897637795,
          "duration": 0.06976744186044925
        },
        {
          "name": "B4",
          "midi": 71,
          "time": 149.99999999997846,
          "velocity": 0.2677165354330709,
          "duration": 0.05813953488370771
        },
        {
          "name": "A4",
          "midi": 69,
          "time": 150.03488372090868,
          "velocity": 0.15748031496062992,
          "duration": 0.04651162790696617
        },
        {
          "name": "D7",
          "midi": 98,
          "time": 150.03488372090868,
          "velocity": 0.1889763779527559,
          "duration": 0.34883720930224626
        },
        {
          "name": "B4",
          "midi": 71,
          "time": 150.0697674418389,
          "velocity": 0.25984251968503935,
          "duration": 0.06976744186044925
        },
        {
          "name": "B4",
          "midi": 71,
          "time": 150.1511627906761,
          "velocity": 0.33070866141732286,
          "duration": 0.12790697674415696
        },
        {
          "name": "G#5",
          "midi": 80,
          "time": 150.1511627906761,
          "velocity": 0.11811023622047244,
          "duration": 0.0813953488371908
        },
        {
          "name": "E5",
          "midi": 76,
          "time": 150.16279069765284,
          "velocity": 0.41732283464566927,
          "duration": 0.39534883720921243
        },
        {
          "name": "E4",
          "midi": 64,
          "time": 150.18604651160632,
          "velocity": 0.23622047244094488,
          "duration": 0.0813953488371908
        },
        {
          "name": "E3",
          "midi": 52,
          "time": 150.19767441858306,
          "velocity": 0.1732283464566929,
          "duration": 0.09302325581393234
        },
        {
          "name": "A5",
          "midi": 81,
          "time": 150.2325581395133,
          "velocity": 0.18110236220472442,
          "duration": 0.17441860465112313
        },
        {
          "name": "G#6",
          "midi": 92,
          "time": 150.25581395346677,
          "velocity": 0.07874015748031496,
          "duration": 0.11627906976741542
        },
        {
          "name": "A6",
          "midi": 93,
          "time": 150.27906976742025,
          "velocity": 0.18110236220472442,
          "duration": 0.1395348837208985
        },
        {
          "name": "E4",
          "midi": 64,
          "time": 150.290697674397,
          "velocity": 0.33070866141732286,
          "duration": 0.6162790697673017
        },
        {
          "name": "B4",
          "midi": 71,
          "time": 150.290697674397,
          "velocity": 0.36220472440944884,
          "duration": 0.5232558139533694
        },
        {
          "name": "F#5",
          "midi": 78,
          "time": 150.31395348835048,
          "velocity": 0.14173228346456693,
          "duration": 0.034883720930224626
        },
        {
          "name": "E3",
          "midi": 52,
          "time": 150.37209302323419,
          "velocity": 0.23622047244094488,
          "duration": 0.10465116279067388
        },
        {
          "name": "G1",
          "midi": 31,
          "time": 150.38372093021093,
          "velocity": 0.07874015748031496,
          "duration": 0.034883720930224626
        },
        {
          "name": "F#6",
          "midi": 90,
          "time": 150.4069767441644,
          "velocity": 0.15748031496062992,
          "duration": 0.19767441860460622
        },
        {
          "name": "G#5",
          "midi": 80,
          "time": 150.51162790695508,
          "velocity": 0.07874015748031496,
          "duration": 0.04651162790696617
        },
        {
          "name": "F#5",
          "midi": 78,
          "time": 150.59302325579227,
          "velocity": 0.2992125984251969,
          "duration": 0.3255813953487632
        },
        {
          "name": "D#6",
          "midi": 87,
          "time": 150.59302325579227,
          "velocity": 0.1732283464566929,
          "duration": 0.06976744186044925
        },
        {
          "name": "B3",
          "midi": 59,
          "time": 150.61627906974576,
          "velocity": 0.23622047244094488,
          "duration": 0.034883720930224626
        },
        {
          "name": "E3",
          "midi": 52,
          "time": 150.6279069767225,
          "velocity": 0.07874015748031496,
          "duration": 0.04651162790696617
        },
        {
          "name": "D5",
          "midi": 74,
          "time": 150.63953488369924,
          "velocity": 0.25196850393700787,
          "duration": 0.12790697674415696
        },
        {
          "name": "B3",
          "midi": 59,
          "time": 150.67441860462947,
          "velocity": 0.2283464566929134,
          "duration": 0.1395348837208985
        },
        {
          "name": "A5",
          "midi": 81,
          "time": 150.73255813951317,
          "velocity": 0.10236220472440945,
          "duration": 0.034883720930224626
        },
        {
          "name": "D#6",
          "midi": 87,
          "time": 150.77906976742014,
          "velocity": 0.07874015748031496,
          "duration": 0.0813953488371908
        },
        {
          "name": "D6",
          "midi": 86,
          "time": 150.79069767439688,
          "velocity": 0.13385826771653545,
          "duration": 0.0813953488371908
        },
        {
          "name": "D5",
          "midi": 74,
          "time": 150.80232558137362,
          "velocity": 0.28346456692913385,
          "duration": 0.15116279069764005
        },
        {
          "name": "A5",
          "midi": 81,
          "time": 150.80232558137362,
          "velocity": 0.10236220472440945,
          "duration": 0.034883720930224626
        },
        {
          "name": "C#7",
          "midi": 97,
          "time": 150.80232558137362,
          "velocity": 0.2204724409448819,
          "duration": 0.11627906976741542
        },
        {
          "name": "B5",
          "midi": 83,
          "time": 150.81395348835036,
          "velocity": 0.2283464566929134,
          "duration": 0.15116279069764005
        },
        {
          "name": "F#6",
          "midi": 90,
          "time": 150.81395348835036,
          "velocity": 0.3228346456692913,
          "duration": 0.15116279069764005
        },
        {
          "name": "E3",
          "midi": 52,
          "time": 150.8255813953271,
          "velocity": 0.14173228346456693,
          "duration": 0.0813953488371908
        },
        {
          "name": "B4",
          "midi": 71,
          "time": 150.8488372092806,
          "velocity": 0.23622047244094488,
          "duration": 0.06976744186044925
        },
        {
          "name": "A5",
          "midi": 81,
          "time": 150.8837209302108,
          "velocity": 0.11811023622047244,
          "duration": 0.04651162790696617
        },
        {
          "name": "D4",
          "midi": 62,
          "time": 150.89534883718756,
          "velocity": 0.2440944881889764,
          "duration": 0.2209302325580893
        },
        {
          "name": "F#5",
          "midi": 78,
          "time": 150.94186046509452,
          "velocity": 0.09448818897637795,
          "duration": 0.05813953488370771
        },
        {
          "name": "A5",
          "midi": 81,
          "time": 150.94186046509452,
          "velocity": 0.10236220472440945,
          "duration": 0.0813953488371908
        },
        {
          "name": "B4",
          "midi": 71,
          "time": 150.9883720930015,
          "velocity": 0.2125984251968504,
          "duration": 0.0813953488371908
        },
        {
          "name": "E5",
          "midi": 76,
          "time": 150.9883720930015,
          "velocity": 0.10236220472440945,
          "duration": 0.09302325581393234
        },
        {
          "name": "B6",
          "midi": 95,
          "time": 150.99999999997823,
          "velocity": 0.10236220472440945,
          "duration": 0.04651162790696617
        },
        {
          "name": "D5",
          "midi": 74,
          "time": 151.0232558139317,
          "velocity": 0.4330708661417323,
          "duration": 1.5813953488368782
        },
        {
          "name": "A6",
          "midi": 93,
          "time": 151.0232558139317,
          "velocity": 0.2047244094488189,
          "duration": 0.11627906976741542
        },
        {
          "name": "F#6",
          "midi": 90,
          "time": 151.05813953486194,
          "velocity": 0.18110236220472442,
          "duration": 0.0813953488371908
        },
        {
          "name": "A5",
          "midi": 81,
          "time": 151.06976744183868,
          "velocity": 0.2047244094488189,
          "duration": 0.10465116279067388
        },
        {
          "name": "F#5",
          "midi": 78,
          "time": 151.09302325579216,
          "velocity": 0.09448818897637795,
          "duration": 0.034883720930224626
        },
        {
          "name": "B5",
          "midi": 83,
          "time": 151.09302325579216,
          "velocity": 0.09448818897637795,
          "duration": 0.0813953488371908
        },
        {
          "name": "E4",
          "midi": 64,
          "time": 151.1046511627689,
          "velocity": 0.16535433070866143,
          "duration": 0.09302325581393234
        },
        {
          "name": "D#6",
          "midi": 87,
          "time": 151.15116279067587,
          "velocity": 0.11023622047244094,
          "duration": 0.034883720930224626
        },
        {
          "name": "F#6",
          "midi": 90,
          "time": 151.1627906976526,
          "velocity": 0.07874015748031496,
          "duration": 0.04651162790696617
        },
        {
          "name": "B6",
          "midi": 95,
          "time": 151.1627906976526,
          "velocity": 0.10236220472440945,
          "duration": 0.11627906976741542
        },
        {
          "name": "E6",
          "midi": 88,
          "time": 151.1860465116061,
          "velocity": 0.14173228346456693,
          "duration": 0.09302325581393234
        },
        {
          "name": "B5",
          "midi": 83,
          "time": 151.20930232555958,
          "velocity": 0.09448818897637795,
          "duration": 0.06976744186044925
        },
        {
          "name": "D4",
          "midi": 62,
          "time": 151.23255813951306,
          "velocity": 0.10236220472440945,
          "duration": 0.04651162790696617
        },
        {
          "name": "B4",
          "midi": 71,
          "time": 151.23255813951306,
          "velocity": 0.16535433070866143,
          "duration": 0.09302325581393234
        },
        {
          "name": "A5",
          "midi": 81,
          "time": 151.23255813951306,
          "velocity": 0.11811023622047244,
          "duration": 0.034883720930224626
        },
        {
          "name": "D4",
          "midi": 62,
          "time": 151.29069767439677,
          "velocity": 0.1732283464566929,
          "duration": 0.09302325581393234
        },
        {
          "name": "B6",
          "midi": 95,
          "time": 151.29069767439677,
          "velocity": 0.12598425196850394,
          "duration": 0.04651162790696617
        },
        {
          "name": "F#6",
          "midi": 90,
          "time": 151.325581395327,
          "velocity": 0.07086614173228346,
          "duration": 0.034883720930224626
        },
        {
          "name": "B4",
          "midi": 71,
          "time": 151.33720930230373,
          "velocity": 0.14960629921259844,
          "duration": 0.05813953488370771
        },
        {
          "name": "A5",
          "midi": 81,
          "time": 151.34883720928048,
          "velocity": 0.15748031496062992,
          "duration": 0.11627906976741542
        },
        {
          "name": "B6",
          "midi": 95,
          "time": 151.4418604650944,
          "velocity": 0.25196850393700787,
          "duration": 0.0813953488371908
        },
        {
          "name": "B4",
          "midi": 71,
          "time": 151.45348837207115,
          "velocity": 0.16535433070866143,
          "duration": 0.19767441860460622
        },
        {
          "name": "E5",
          "midi": 76,
          "time": 151.45348837207115,
          "velocity": 0.4094488188976378,
          "duration": 0.1627906976743816
        },
        {
          "name": "F#6",
          "midi": 90,
          "time": 151.45348837207115,
          "velocity": 0.09448818897637795,
          "duration": 0.10465116279067388
        },
        {
          "name": "A5",
          "midi": 81,
          "time": 151.48837209300137,
          "velocity": 0.1732283464566929,
          "duration": 0.0813953488371908
        },
        {
          "name": "D4",
          "midi": 62,
          "time": 151.51162790695486,
          "velocity": 0.2047244094488189,
          "duration": 0.10465116279067388
        },
        {
          "name": "B6",
          "midi": 95,
          "time": 151.54651162788508,
          "velocity": 0.15748031496062992,
          "duration": 0.09302325581393234
        },
        {
          "name": "F#6",
          "midi": 90,
          "time": 151.59302325579205,
          "velocity": 0.09448818897637795,
          "duration": 0.034883720930224626
        },
        {
          "name": "B5",
          "midi": 83,
          "time": 151.6046511627688,
          "velocity": 0.23622047244094488,
          "duration": 0.20930232558134776
        },
        {
          "name": "A5",
          "midi": 81,
          "time": 151.61627906974553,
          "velocity": 0.14960629921259844,
          "duration": 0.0813953488371908
        },
        {
          "name": "F#6",
          "midi": 90,
          "time": 151.6627906976525,
          "velocity": 0.14960629921259844,
          "duration": 0.06976744186044925
        },
        {
          "name": "B4",
          "midi": 71,
          "time": 151.67441860462924,
          "velocity": 0.3464566929133858,
          "duration": 0.26744186046505547
        },
        {
          "name": "E5",
          "midi": 76,
          "time": 151.68604651160598,
          "velocity": 0.1732283464566929,
          "duration": 0.11627906976741542
        },
        {
          "name": "D4",
          "midi": 62,
          "time": 151.7209302325362,
          "velocity": 0.2283464566929134,
          "duration": 0.1627906976743816
        },
        {
          "name": "A5",
          "midi": 81,
          "time": 151.7441860464897,
          "velocity": 0.13385826771653545,
          "duration": 0.12790697674415696
        },
        {
          "name": "F#6",
          "midi": 90,
          "time": 151.83720930230362,
          "velocity": 0.07086614173228346,
          "duration": 0.034883720930224626
        },
        {
          "name": "A5",
          "midi": 81,
          "time": 151.89534883718733,
          "velocity": 0.2283464566929134,
          "duration": 0.1395348837208985
        },
        {
          "name": "B6",
          "midi": 95,
          "time": 151.90697674416407,
          "velocity": 0.1889763779527559,
          "duration": 0.05813953488370771
        },
        {
          "name": "D4",
          "midi": 62,
          "time": 151.96511627904778,
          "velocity": 0.23622047244094488,
          "duration": 0.1395348837208985
        },
        {
          "name": "B4",
          "midi": 71,
          "time": 151.97674418602452,
          "velocity": 0.2677165354330709,
          "duration": 0.29069767441853855
        },
        {
          "name": "E5",
          "midi": 76,
          "time": 151.97674418602452,
          "velocity": 0.10236220472440945,
          "duration": 0.09302325581393234
        },
        {
          "name": "B6",
          "midi": 95,
          "time": 151.98837209300126,
          "velocity": 0.12598425196850394,
          "duration": 0.1627906976743816
        },
        {
          "name": "F#6",
          "midi": 90,
          "time": 152.01162790695474,
          "velocity": 0.08661417322834646,
          "duration": 0.0813953488371908
        },
        {
          "name": "A5",
          "midi": 81,
          "time": 152.06976744183845,
          "velocity": 0.13385826771653545,
          "duration": 0.034883720930224626
        },
        {
          "name": "E5",
          "midi": 76,
          "time": 152.09302325579193,
          "velocity": 0.4094488188976378,
          "duration": 0.4651162790696901
        },
        {
          "name": "E4",
          "midi": 64,
          "time": 152.11627906974542,
          "velocity": 0.2992125984251969,
          "duration": 0.41860465116272394
        },
        {
          "name": "A5",
          "midi": 81,
          "time": 152.16279069765238,
          "velocity": 0.1732283464566929,
          "duration": 0.05813953488370771
        },
        {
          "name": "A5",
          "midi": 81,
          "time": 152.24418604648957,
          "velocity": 0.2440944881889764,
          "duration": 0.23255813953485927
        },
        {
          "name": "B4",
          "midi": 71,
          "time": 152.2790697674198,
          "velocity": 0.2992125984251969,
          "duration": 0.3837209302324993
        },
        {
          "name": "B3",
          "midi": 59,
          "time": 152.31395348835002,
          "velocity": 0.1968503937007874,
          "duration": 0.2674418604650839
        },
        {
          "name": "F#5",
          "midi": 78,
          "time": 152.31395348835002,
          "velocity": 0.2755905511811024,
          "duration": 0.441860465116207
        },
        {
          "name": "D#6",
          "midi": 87,
          "time": 152.32558139532676,
          "velocity": 0.15748031496062992,
          "duration": 0.034883720930224626
        },
        {
          "name": "B6",
          "midi": 95,
          "time": 152.40697674416396,
          "velocity": 0.14960629921259844,
          "duration": 0.17441860465115155
        },
        {
          "name": "B5",
          "midi": 83,
          "time": 152.5232558139314,
          "velocity": 0.36220472440944884,
          "duration": 0.3837209302324993
        },
        {
          "name": "F#7",
          "midi": 102,
          "time": 152.5232558139314,
          "velocity": 0.16535433070866143,
          "duration": 0.06976744186044925
        },
        {
          "name": "D#6",
          "midi": 87,
          "time": 152.55813953486162,
          "velocity": 0.07086614173228346,
          "duration": 0.034883720930224626
        },
        {
          "name": "E5",
          "midi": 76,
          "time": 152.6046511627686,
          "velocity": 0.08661417322834646,
          "duration": 0.10465116279067388
        },
        {
          "name": "A5",
          "midi": 81,
          "time": 152.6046511627686,
          "velocity": 0.23622047244094488,
          "duration": 0.04651162790696617
        },
        {
          "name": "D5",
          "midi": 74,
          "time": 152.61627906974533,
          "velocity": 0.3543307086614173,
          "duration": 0.11627906976741542
        },
        {
          "name": "E4",
          "midi": 64,
          "time": 152.67441860462904,
          "velocity": 0.09448818897637795,
          "duration": 0.10465116279067388
        },
        {
          "name": "A5",
          "midi": 81,
          "time": 152.68604651160578,
          "velocity": 0.3543307086614173,
          "duration": 0.441860465116207
        },
        {
          "name": "B4",
          "midi": 71,
          "time": 152.7441860464895,
          "velocity": 0.14173228346456693,
          "duration": 0.06976744186044925
        },
        {
          "name": "D5",
          "midi": 74,
          "time": 152.7441860464895,
          "velocity": 0.3700787401574803,
          "duration": 0.31395348837205006
        },
        {
          "name": "E5",
          "midi": 76,
          "time": 152.75581395346623,
          "velocity": 0.11023622047244094,
          "duration": 0.06976744186044925
        },
        {
          "name": "D4",
          "midi": 62,
          "time": 152.83720930230342,
          "velocity": 0.15748031496062992,
          "duration": 0.15116279069766847
        },
        {
          "name": "F#6",
          "midi": 90,
          "time": 152.9069767441639,
          "velocity": 0.07874015748031496,
          "duration": 0.034883720930224626
        },
        {
          "name": "E4",
          "midi": 64,
          "time": 152.9883720930011,
          "velocity": 0.09448818897637795,
          "duration": 0.034883720930224626
        },
        {
          "name": "D4",
          "midi": 62,
          "time": 153.03488372090806,
          "velocity": 0.25196850393700787,
          "duration": 0.2558139534883139
        },
        {
          "name": "B6",
          "midi": 95,
          "time": 153.03488372090806,
          "velocity": 0.07874015748031496,
          "duration": 0.034883720930224626
        },
        {
          "name": "B4",
          "midi": 71,
          "time": 153.13953488369873,
          "velocity": 0.16535433070866143,
          "duration": 0.12790697674415696
        },
        {
          "name": "B5",
          "midi": 83,
          "time": 153.1627906976522,
          "velocity": 0.3858267716535433,
          "duration": 0.10465116279067388
        },
        {
          "name": "A5",
          "midi": 81,
          "time": 153.19767441858244,
          "velocity": 0.13385826771653545,
          "duration": 0.04651162790696617
        },
        {
          "name": "D5",
          "midi": 74,
          "time": 153.25581395346614,
          "velocity": 0.28346456692913385,
          "duration": 0.06976744186044925
        },
        {
          "name": "A5",
          "midi": 81,
          "time": 153.25581395346614,
          "velocity": 0.3700787401574803,
          "duration": 0.2441860465116008
        },
        {
          "name": "D5",
          "midi": 74,
          "time": 153.33720930230334,
          "velocity": 0.3700787401574803,
          "duration": 0.3953488372092693
        },
        {
          "name": "D4",
          "midi": 62,
          "time": 153.3837209302103,
          "velocity": 0.14960629921259844,
          "duration": 0.22093023255814614
        },
        {
          "name": "B5",
          "midi": 83,
          "time": 153.3837209302103,
          "velocity": 0.16535433070866143,
          "duration": 0.11627906976744384
        },
        {
          "name": "A5",
          "midi": 81,
          "time": 153.5116279069545,
          "velocity": 0.2755905511811024,
          "duration": 0.09302325581396076
        },
        {
          "name": "E5",
          "midi": 76,
          "time": 153.5930232557917,
          "velocity": 0.4409448818897638,
          "duration": 0.19767441860460622
        },
        {
          "name": "B6",
          "midi": 95,
          "time": 153.5930232557917,
          "velocity": 0.2125984251968504,
          "duration": 0.12790697674415696
        },
        {
          "name": "A6",
          "midi": 93,
          "time": 153.60465116276845,
          "velocity": 0.07874015748031496,
          "duration": 0.06976744186044925
        },
        {
          "name": "B5",
          "midi": 83,
          "time": 153.62790697672193,
          "velocity": 0.09448818897637795,
          "duration": 0.06976744186044925
        },
        {
          "name": "A5",
          "midi": 81,
          "time": 153.65116279067541,
          "velocity": 0.28346456692913385,
          "duration": 0.26744186046505547
        },
        {
          "name": "D5",
          "midi": 74,
          "time": 153.74418604648935,
          "velocity": 0.3779527559055118,
          "duration": 0.5813953488371055
        },
        {
          "name": "B5",
          "midi": 83,
          "time": 153.74418604648935,
          "velocity": 0.15748031496062992,
          "duration": 0.06976744186044925
        },
        {
          "name": "E5",
          "midi": 76,
          "time": 153.80232558137305,
          "velocity": 0.30708661417322836,
          "duration": 0.4069767441859824
        },
        {
          "name": "C4",
          "midi": 60,
          "time": 153.8139534883498,
          "velocity": 0.2677165354330709,
          "duration": 0.4302325581394655
        },
        {
          "name": "F7",
          "midi": 101,
          "time": 153.8139534883498,
          "velocity": 0.16535433070866143,
          "duration": 0.11627906976741542
        },
        {
          "name": "B5",
          "midi": 83,
          "time": 153.84883720928002,
          "velocity": 0.2283464566929134,
          "duration": 0.4302325581394655
        },
        {
          "name": "F#5",
          "midi": 78,
          "time": 153.86046511625676,
          "velocity": 0.07086614173228346,
          "duration": 0.09302325581393234
        },
        {
          "name": "G4",
          "midi": 67,
          "time": 153.98837209300092,
          "velocity": 0.28346456692913385,
          "duration": 0.47674418604643165
        },
        {
          "name": "A5",
          "midi": 81,
          "time": 154.0581395348614,
          "velocity": 0.09448818897637795,
          "duration": 0.05813953488370771
        },
        {
          "name": "F#5",
          "midi": 78,
          "time": 154.10465116276836,
          "velocity": 0.10236220472440945,
          "duration": 0.04651162790696617
        },
        {
          "name": "C3",
          "midi": 48,
          "time": 154.1395348836986,
          "velocity": 0.08661417322834646,
          "duration": 0.26744186046505547
        },
        {
          "name": "A5",
          "midi": 81,
          "time": 154.16279069765207,
          "velocity": 0.11023622047244094,
          "duration": 0.04651162790696617
        },
        {
          "name": "D7",
          "midi": 98,
          "time": 154.1976744185823,
          "velocity": 0.08661417322834646,
          "duration": 0.034883720930224626
        },
        {
          "name": "B4",
          "midi": 71,
          "time": 154.20930232555904,
          "velocity": 0.23622047244094488,
          "duration": 0.05813953488370771
        },
        {
          "name": "E5",
          "midi": 76,
          "time": 154.23255813951252,
          "velocity": 0.15748031496062992,
          "duration": 0.034883720930224626
        },
        {
          "name": "F#5",
          "midi": 78,
          "time": 154.23255813951252,
          "velocity": 0.2677165354330709,
          "duration": 0.17441860465112313
        },
        {
          "name": "F#6",
          "midi": 90,
          "time": 154.24418604648926,
          "velocity": 0.33858267716535434,
          "duration": 0.3023255813952801
        },
        {
          "name": "C#7",
          "midi": 97,
          "time": 154.24418604648926,
          "velocity": 0.25196850393700787,
          "duration": 0.12790697674415696
        },
        {
          "name": "D7",
          "midi": 98,
          "time": 154.26744186044274,
          "velocity": 0.07874015748031496,
          "duration": 0.04651162790696617
        },
        {
          "name": "B4",
          "midi": 71,
          "time": 154.2790697674195,
          "velocity": 0.29133858267716534,
          "duration": 0.09302325581393234
        },
        {
          "name": "E5",
          "midi": 76,
          "time": 154.29069767439623,
          "velocity": 0.25984251968503935,
          "duration": 0.10465116279067388
        },
        {
          "name": "A5",
          "midi": 81,
          "time": 154.3139534883497,
          "velocity": 0.12598425196850394,
          "duration": 0.034883720930224626
        },
        {
          "name": "C4",
          "midi": 60,
          "time": 154.32558139532645,
          "velocity": 0.14960629921259844,
          "duration": 0.04651162790696617
        },
        {
          "name": "D5",
          "midi": 74,
          "time": 154.3372093023032,
          "velocity": 0.13385826771653545,
          "duration": 0.034883720930224626
        },
        {
          "name": "B3",
          "midi": 59,
          "time": 154.38372093021016,
          "velocity": 0.16535433070866143,
          "duration": 0.06976744186044925
        },
        {
          "name": "E4",
          "midi": 64,
          "time": 154.40697674416364,
          "velocity": 0.08661417322834646,
          "duration": 0.06976744186044925
        },
        {
          "name": "B4",
          "midi": 71,
          "time": 154.40697674416364,
          "velocity": 0.36220472440944884,
          "duration": 0.4418604651161786
        },
        {
          "name": "D5",
          "midi": 74,
          "time": 154.43023255811713,
          "velocity": 0.47244094488188976,
          "duration": 0.11627906976741542
        },
        {
          "name": "A6",
          "midi": 93,
          "time": 154.4534883720706,
          "velocity": 0.23622047244094488,
          "duration": 0.09302325581393234
        },
        {
          "name": "B3",
          "midi": 59,
          "time": 154.48837209300083,
          "velocity": 0.15748031496062992,
          "duration": 0.09302325581393234
        },
        {
          "name": "F#5",
          "midi": 78,
          "time": 154.49999999997758,
          "velocity": 0.13385826771653545,
          "duration": 0.1395348837208985
        },
        {
          "name": "D#5",
          "midi": 75,
          "time": 154.54651162788454,
          "velocity": 0.25984251968503935,
          "duration": 0.023255813953483084
        },
        {
          "name": "E5",
          "midi": 76,
          "time": 154.56976744183802,
          "velocity": 0.28346456692913385,
          "duration": 0.26744186046505547
        },
        {
          "name": "C4",
          "midi": 60,
          "time": 154.58139534881477,
          "velocity": 0.14960629921259844,
          "duration": 0.12790697674415696
        },
        {
          "name": "D5",
          "midi": 74,
          "time": 154.5930232557915,
          "velocity": 0.1968503937007874,
          "duration": 0.05813953488370771
        },
        {
          "name": "F6",
          "midi": 89,
          "time": 154.616279069745,
          "velocity": 0.14960629921259844,
          "duration": 0.04651162790696617
        },
        {
          "name": "G4",
          "midi": 67,
          "time": 154.62790697672173,
          "velocity": 0.1732283464566929,
          "duration": 0.19767441860460622
        },
        {
          "name": "D5",
          "midi": 74,
          "time": 154.6744186046287,
          "velocity": 0.18110236220472442,
          "duration": 0.0813953488371908
        },
        {
          "name": "F#5",
          "midi": 78,
          "time": 154.68604651160544,
          "velocity": 0.1732283464566929,
          "duration": 0.1395348837208985
        },
        {
          "name": "D7",
          "midi": 98,
          "time": 154.70930232555892,
          "velocity": 0.07874015748031496,
          "duration": 0.06976744186044925
        },
        {
          "name": "B3",
          "midi": 59,
          "time": 154.74418604648915,
          "velocity": 0.16535433070866143,
          "duration": 0.034883720930224626
        },
        {
          "name": "D5",
          "midi": 74,
          "time": 154.77906976741937,
          "velocity": 0.23622047244094488,
          "duration": 0.0813953488371908
        },
        {
          "name": "E5",
          "midi": 76,
          "time": 154.86046511625656,
          "velocity": 0.4094488188976378,
          "duration": 0.1627906976743816
        },
        {
          "name": "B4",
          "midi": 71,
          "time": 154.8720930232333,
          "velocity": 0.23622047244094488,
          "duration": 0.0813953488371908
        },
        {
          "name": "D5",
          "midi": 74,
          "time": 154.8720930232333,
          "velocity": 0.1732283464566929,
          "duration": 0.10465116279067388
        },
        {
          "name": "C4",
          "midi": 60,
          "time": 154.88372093021005,
          "velocity": 0.11023622047244094,
          "duration": 0.05813953488370771
        },
        {
          "name": "B6",
          "midi": 95,
          "time": 154.88372093021005,
          "velocity": 0.2204724409448819,
          "duration": 0.09302325581393234
        },
        {
          "name": "B5",
          "midi": 83,
          "time": 154.90697674416353,
          "velocity": 0.2992125984251969,
          "duration": 0.837209302325391
        },
        {
          "name": "G4",
          "midi": 67,
          "time": 154.91860465114027,
          "velocity": 0.07086614173228346,
          "duration": 0.06976744186044925
        },
        {
          "name": "F#5",
          "midi": 78,
          "time": 154.91860465114027,
          "velocity": 0.2125984251968504,
          "duration": 0.034883720930224626
        },
        {
          "name": "C3",
          "midi": 48,
          "time": 154.9534883720705,
          "velocity": 0.08661417322834646,
          "duration": 0.17441860465112313
        },
        {
          "name": "E4",
          "midi": 64,
          "time": 154.98837209300072,
          "velocity": 0.11811023622047244,
          "duration": 0.1627906976743816
        },
        {
          "name": "F#5",
          "midi": 78,
          "time": 154.99999999997746,
          "velocity": 0.18110236220472442,
          "duration": 0.15116279069764005
        },
        {
          "name": "B4",
          "midi": 71,
          "time": 155.0116279069542,
          "velocity": 0.4094488188976378,
          "duration": 0.29069767441853855
        },
        {
          "name": "D5",
          "midi": 74,
          "time": 155.0116279069542,
          "velocity": 0.2204724409448819,
          "duration": 0.0813953488371908
        },
        {
          "name": "B3",
          "midi": 59,
          "time": 155.02325581393094,
          "velocity": 0.11023622047244094,
          "duration": 0.1395348837208985
        },
        {
          "name": "E6",
          "midi": 88,
          "time": 155.02325581393094,
          "velocity": 0.08661417322834646,
          "duration": 0.034883720930224626
        },
        {
          "name": "E5",
          "midi": 76,
          "time": 155.04651162788443,
          "velocity": 0.1968503937007874,
          "duration": 0.23255813953483084
        },
        {
          "name": "D5",
          "midi": 74,
          "time": 155.18604651160533,
          "velocity": 0.07874015748031496,
          "duration": 0.04651162790696617
        },
        {
          "name": "F#5",
          "midi": 78,
          "time": 155.22093023253555,
          "velocity": 0.1732283464566929,
          "duration": 0.06976744186044925
        },
        {
          "name": "B3",
          "midi": 59,
          "time": 155.30232558137274,
          "velocity": 0.09448818897637795,
          "duration": 0.06976744186044925
        },
        {
          "name": "B4",
          "midi": 71,
          "time": 155.31395348834948,
          "velocity": 0.2755905511811024,
          "duration": 0.10465116279067388
        },
        {
          "name": "G4",
          "midi": 67,
          "time": 155.3720930232332,
          "velocity": 0.07086614173228346,
          "duration": 0.04651162790696617
        },
        {
          "name": "E5",
          "midi": 76,
          "time": 155.3720930232332,
          "velocity": 0.15748031496062992,
          "duration": 0.18604651162786467
        },
        {
          "name": "B3",
          "midi": 59,
          "time": 155.41860465114016,
          "velocity": 0.09448818897637795,
          "duration": 0.05813953488370771
        },
        {
          "name": "B4",
          "midi": 71,
          "time": 155.44186046509364,
          "velocity": 0.2440944881889764,
          "duration": 0.1395348837208985
        },
        {
          "name": "D5",
          "midi": 74,
          "time": 155.4883720930006,
          "velocity": 0.2047244094488189,
          "duration": 0.11627906976741542
        },
        {
          "name": "F#5",
          "midi": 78,
          "time": 155.52325581393083,
          "velocity": 0.2283464566929134,
          "duration": 0.12790697674415696
        },
        {
          "name": "D4",
          "midi": 62,
          "time": 155.5465116278843,
          "velocity": 0.2047244094488189,
          "duration": 0.3488372093022747
        },
        {
          "name": "C5",
          "midi": 72,
          "time": 155.58139534881454,
          "velocity": 0.1732283464566929,
          "duration": 0.034883720930224626
        },
        {
          "name": "D6",
          "midi": 86,
          "time": 155.58139534881454,
          "velocity": 0.2283464566929134,
          "duration": 0.8720930232556441
        },
        {
          "name": "G5",
          "midi": 79,
          "time": 155.60465116276802,
          "velocity": 0.33858267716535434,
          "duration": 1.279069767441598
        },
        {
          "name": "A5",
          "midi": 81,
          "time": 155.60465116276802,
          "velocity": 0.2204724409448819,
          "duration": 0.18604651162786467
        },
        {
          "name": "B4",
          "midi": 71,
          "time": 155.61627906974476,
          "velocity": 0.2440944881889764,
          "duration": 0.05813953488370771
        },
        {
          "name": "G7",
          "midi": 103,
          "time": 155.6279069767215,
          "velocity": 0.08661417322834646,
          "duration": 0.15116279069764005
        },
        {
          "name": "A4",
          "midi": 69,
          "time": 155.6860465116052,
          "velocity": 0.28346456692913385,
          "duration": 0.290697674418567
        },
        {
          "name": "F#5",
          "midi": 78,
          "time": 155.6860465116052,
          "velocity": 0.07874015748031496,
          "duration": 0.04651162790696617
        },
        {
          "name": "C5",
          "midi": 72,
          "time": 155.7093023255587,
          "velocity": 0.15748031496062992,
          "duration": 0.04651162790696617
        },
        {
          "name": "E5",
          "midi": 76,
          "time": 155.74418604648892,
          "velocity": 0.4015748031496063,
          "duration": 0.49999999999991473
        },
        {
          "name": "A3",
          "midi": 57,
          "time": 155.75581395346566,
          "velocity": 0.12598425196850394,
          "duration": 0.1046511627907023
        },
        {
          "name": "B4",
          "midi": 71,
          "time": 155.75581395346566,
          "velocity": 0.25196850393700787,
          "duration": 0.1046511627907023
        },
        {
          "name": "D5",
          "midi": 74,
          "time": 155.75581395346566,
          "velocity": 0.2204724409448819,
          "duration": 0.2441860465116008
        },
        {
          "name": "C#6",
          "midi": 85,
          "time": 155.75581395346566,
          "velocity": 0.2125984251968504,
          "duration": 0.15116279069766847
        },
        {
          "name": "F#5",
          "midi": 78,
          "time": 155.8720930232331,
          "velocity": 0.12598425196850394,
          "duration": 0.034883720930224626
        },
        {
          "name": "B5",
          "midi": 83,
          "time": 155.9534883720703,
          "velocity": 0.2283464566929134,
          "duration": 0.0813953488371908
        },
        {
          "name": "C#6",
          "midi": 85,
          "time": 155.9534883720703,
          "velocity": 0.13385826771653545,
          "duration": 0.1395348837208985
        },
        {
          "name": "B4",
          "midi": 71,
          "time": 155.96511627904704,
          "velocity": 0.33858267716535434,
          "duration": 0.10465116279067388
        },
        {
          "name": "A4",
          "midi": 69,
          "time": 155.98837209300052,
          "velocity": 0.33070866141732286,
          "duration": 0.15116279069764005
        },
        {
          "name": "D5",
          "midi": 74,
          "time": 156.0348837209075,
          "velocity": 0.14960629921259844,
          "duration": 0.19767441860460622
        },
        {
          "name": "B5",
          "midi": 83,
          "time": 156.08139534881445,
          "velocity": 0.09448818897637795,
          "duration": 0.1395348837208985
        },
        {
          "name": "F#5",
          "midi": 78,
          "time": 156.12790697672142,
          "velocity": 0.09448818897637795,
          "duration": 0.034883720930224626
        },
        {
          "name": "A4",
          "midi": 69,
          "time": 156.1511627906749,
          "velocity": 0.29133858267716534,
          "duration": 0.19767441860460622
        },
        {
          "name": "A5",
          "midi": 81,
          "time": 156.16279069765164,
          "velocity": 0.30708661417322836,
          "duration": 0.17441860465112313
        },
        {
          "name": "B4",
          "midi": 71,
          "time": 156.2325581395121,
          "velocity": 0.1968503937007874,
          "duration": 0.034883720930224626
        },
        {
          "name": "A3",
          "midi": 57,
          "time": 156.2906976743958,
          "velocity": 0.14960629921259844,
          "duration": 0.11627906976741542
        },
        {
          "name": "D5",
          "midi": 74,
          "time": 156.33720930230277,
          "velocity": 0.07086614173228346,
          "duration": 0.04651162790696617
        },
        {
          "name": "A4",
          "midi": 69,
          "time": 156.372093023233,
          "velocity": 0.31496062992125984,
          "duration": 0.2209302325580893
        },
        {
          "name": "E5",
          "midi": 76,
          "time": 156.44186046509344,
          "velocity": 0.12598425196850394,
          "duration": 0.04651162790696617
        },
        {
          "name": "D6",
          "midi": 86,
          "time": 156.4883720930004,
          "velocity": 0.29133858267716534,
          "duration": 0.8488372093021326
        },
        {
          "name": "G4",
          "midi": 67,
          "time": 156.52325581393063,
          "velocity": 0.2204724409448819,
          "duration": 0.09302325581393234
        },
        {
          "name": "E5",
          "midi": 76,
          "time": 156.5697674418376,
          "velocity": 0.11023622047244094,
          "duration": 0.11627906976741542
        },
        {
          "name": "A4",
          "midi": 69,
          "time": 156.60465116276782,
          "velocity": 0.3700787401574803,
          "duration": 0.0813953488371908
        },
        {
          "name": "D5",
          "midi": 74,
          "time": 156.67441860462827,
          "velocity": 0.09448818897637795,
          "duration": 0.06976744186044925
        },
        {
          "name": "E5",
          "midi": 76,
          "time": 156.69767441858176,
          "velocity": 0.13385826771653545,
          "duration": 0.12790697674415696
        },
        {
          "name": "A4",
          "midi": 69,
          "time": 156.7093023255585,
          "velocity": 0.2677165354330709,
          "duration": 0.11627906976741542
        },
        {
          "name": "D5",
          "midi": 74,
          "time": 156.7906976743957,
          "velocity": 0.25984251968503935,
          "duration": 0.3604651162789878
        },
        {
          "name": "D4",
          "midi": 62,
          "time": 156.80232558137243,
          "velocity": 0.28346456692913385,
          "duration": 0.279069767441797
        },
        {
          "name": "A5",
          "midi": 81,
          "time": 156.81395348834917,
          "velocity": 0.36220472440944884,
          "duration": 0.4418604651161786
        },
        {
          "name": "F#6",
          "midi": 90,
          "time": 156.81395348834917,
          "velocity": 0.2283464566929134,
          "duration": 0.05813953488370771
        },
        {
          "name": "G4",
          "midi": 67,
          "time": 156.8255813953259,
          "velocity": 0.10236220472440945,
          "duration": 0.034883720930224626
        },
        {
          "name": "E5",
          "midi": 76,
          "time": 156.83720930230265,
          "velocity": 0.14173228346456693,
          "duration": 0.06976744186044925
        },
        {
          "name": "A4",
          "midi": 69,
          "time": 156.8488372092794,
          "velocity": 0.29133858267716534,
          "duration": 0.09302325581393234
        },
        {
          "name": "G4",
          "midi": 67,
          "time": 156.9302325581166,
          "velocity": 0.2125984251968504,
          "duration": 0.034883720930224626
        },
        {
          "name": "F#6",
          "midi": 90,
          "time": 156.9302325581166,
          "velocity": 0.07086614173228346,
          "duration": 0.15116279069764005
        },
        {
          "name": "G5",
          "midi": 79,
          "time": 156.94186046509333,
          "velocity": 0.2204724409448819,
          "duration": 0.3604651162789878
        },
        {
          "name": "A4",
          "midi": 69,
          "time": 156.95348837207007,
          "velocity": 0.29133858267716534,
          "duration": 0.04651162790696617
        },
        {
          "name": "G4",
          "midi": 67,
          "time": 156.97674418602355,
          "velocity": 0.25196850393700787,
          "duration": 0.10465116279067388
        },
        {
          "name": "E5",
          "midi": 76,
          "time": 157.03488372090726,
          "velocity": 0.15748031496062992,
          "duration": 0.034883720930224626
        },
        {
          "name": "A4",
          "midi": 69,
          "time": 157.046511627884,
          "velocity": 0.2677165354330709,
          "duration": 0.05813953488370771
        },
        {
          "name": "A3",
          "midi": 57,
          "time": 157.06976744183748,
          "velocity": 0.1732283464566929,
          "duration": 0.2558139534883139
        },
        {
          "name": "G4",
          "midi": 67,
          "time": 157.09302325579097,
          "velocity": 0.2440944881889764,
          "duration": 0.11627906976741542
        },
        {
          "name": "E5",
          "midi": 76,
          "time": 157.1046511627677,
          "velocity": 0.09448818897637795,
          "duration": 0.05813953488370771
        },
        {
          "name": "A4",
          "midi": 69,
          "time": 157.17441860462816,
          "velocity": 0.1968503937007874,
          "duration": 0.15116279069764005
        },
        {
          "name": "E5",
          "midi": 76,
          "time": 157.19767441858164,
          "velocity": 0.3700787401574803,
          "duration": 0.5232558139533694
        },
        {
          "name": "D4",
          "midi": 62,
          "time": 157.22093023253512,
          "velocity": 0.1732283464566929,
          "duration": 0.034883720930224626
        },
        {
          "name": "B4",
          "midi": 71,
          "time": 157.2441860464886,
          "velocity": 0.28346456692913385,
          "duration": 0.4651162790696617
        },
        {
          "name": "E4",
          "midi": 64,
          "time": 157.25581395346535,
          "velocity": 0.3228346456692913,
          "duration": 0.45348837209292014
        },
        {
          "name": "F#6",
          "midi": 90,
          "time": 157.29069767439557,
          "velocity": 0.12598425196850394,
          "duration": 0.11627906976741542
        },
        {
          "name": "B6",
          "midi": 95,
          "time": 157.31395348834906,
          "velocity": 0.14173228346456693,
          "duration": 0.12790697674415696
        },
        {
          "name": "D#3",
          "midi": 51,
          "time": 157.3255813953258,
          "velocity": 0.12598425196850394,
          "duration": 0.034883720930224626
        },
        {
          "name": "G4",
          "midi": 67,
          "time": 157.3255813953258,
          "velocity": 0.13385826771653545,
          "duration": 0.11627906976741542
        },
        {
          "name": "G5",
          "midi": 79,
          "time": 157.34883720927928,
          "velocity": 0.14960629921259844,
          "duration": 0.10465116279067388
        },
        {
          "name": "D7",
          "midi": 98,
          "time": 157.39534883718625,
          "velocity": 0.07086614173228346,
          "duration": 0.04651162790696617
        },
        {
          "name": "A3",
          "midi": 57,
          "time": 157.43023255811647,
          "velocity": 0.07086614173228346,
          "duration": 0.04651162790696617
        },
        {
          "name": "A4",
          "midi": 69,
          "time": 157.43023255811647,
          "velocity": 0.16535433070866143,
          "duration": 0.04651162790696617
        },
        {
          "name": "F#5",
          "midi": 78,
          "time": 157.4651162790467,
          "velocity": 0.31496062992125984,
          "duration": 0.43023255813943706
        },
        {
          "name": "D#6",
          "midi": 87,
          "time": 157.4651162790467,
          "velocity": 0.14960629921259844,
          "duration": 0.04651162790696617
        },
        {
          "name": "A#3",
          "midi": 58,
          "time": 157.47674418602344,
          "velocity": 0.23622047244094488,
          "duration": 0.023255813953483084
        },
        {
          "name": "B3",
          "midi": 59,
          "time": 157.49999999997692,
          "velocity": 0.1968503937007874,
          "duration": 0.2209302325580893
        },
        {
          "name": "D7",
          "midi": 98,
          "time": 157.49999999997692,
          "velocity": 0.08661417322834646,
          "duration": 0.1627906976743816
        },
        {
          "name": "A4",
          "midi": 69,
          "time": 157.5232558139304,
          "velocity": 0.23622047244094488,
          "duration": 0.05813953488370771
        },
        {
          "name": "E3",
          "midi": 52,
          "time": 157.5813953488141,
          "velocity": 0.2125984251968504,
          "duration": 0.1395348837208985
        },
        {
          "name": "A4",
          "midi": 69,
          "time": 157.62790697672108,
          "velocity": 0.2440944881889764,
          "duration": 0.05813953488370771
        },
        {
          "name": "G4",
          "midi": 67,
          "time": 157.6860465116048,
          "velocity": 0.2440944881889764,
          "duration": 0.034883720930224626
        },
        {
          "name": "E4",
          "midi": 64,
          "time": 157.720930232535,
          "velocity": 0.25196850393700787,
          "duration": 0.12790697674415696
        },
        {
          "name": "B4",
          "midi": 71,
          "time": 157.7441860464885,
          "velocity": 0.1968503937007874,
          "duration": 0.05813953488370771
        },
        {
          "name": "B4",
          "midi": 71,
          "time": 157.82558139532568,
          "velocity": 0.3228346456692913,
          "duration": 0.05813953488370771
        },
        {
          "name": "F#4",
          "midi": 66,
          "time": 157.84883720927917,
          "velocity": 0.15748031496062992,
          "duration": 0.04651162790696617
        },
        {
          "name": "E3",
          "midi": 52,
          "time": 157.87209302323265,
          "velocity": 0.08661417322834646,
          "duration": 0.034883720930224626
        },
        {
          "name": "C#6",
          "midi": 85,
          "time": 157.87209302323265,
          "velocity": 0.13385826771653545,
          "duration": 0.0813953488371908
        },
        {
          "name": "G5",
          "midi": 79,
          "time": 157.8837209302094,
          "velocity": 0.33858267716535434,
          "duration": 0.23255813953483084
        },
        {
          "name": "B4",
          "midi": 71,
          "time": 157.89534883718613,
          "velocity": 0.28346456692913385,
          "duration": 0.1395348837208985
        },
        {
          "name": "E3",
          "midi": 52,
          "time": 157.91860465113962,
          "velocity": 0.14173228346456693,
          "duration": 0.034883720930224626
        },
        {
          "name": "E4",
          "midi": 64,
          "time": 157.91860465113962,
          "velocity": 0.25984251968503935,
          "duration": 0.2209302325580893
        },
        {
          "name": "F#4",
          "midi": 66,
          "time": 157.93023255811636,
          "velocity": 0.1889763779527559,
          "duration": 0.034883720930224626
        },
        {
          "name": "A4",
          "midi": 69,
          "time": 157.95348837206984,
          "velocity": 0.14960629921259844,
          "duration": 0.04651162790696617
        },
        {
          "name": "D6",
          "midi": 86,
          "time": 157.96511627904658,
          "velocity": 0.10236220472440945,
          "duration": 0.05813953488370771
        },
        {
          "name": "E3",
          "midi": 52,
          "time": 157.97674418602332,
          "velocity": 0.16535433070866143,
          "duration": 0.05813953488370771
        },
        {
          "name": "A4",
          "midi": 69,
          "time": 158.01162790695355,
          "velocity": 0.13385826771653545,
          "duration": 0.034883720930224626
        },
        {
          "name": "G4",
          "midi": 67,
          "time": 158.03488372090703,
          "velocity": 0.28346456692913385,
          "duration": 0.3604651162789878
        },
        {
          "name": "B4",
          "midi": 71,
          "time": 158.05813953486052,
          "velocity": 0.28346456692913385,
          "duration": 0.0813953488371908
        },
        {
          "name": "D6",
          "midi": 86,
          "time": 158.081395348814,
          "velocity": 0.09448818897637795,
          "duration": 0.1395348837208985
        },
        {
          "name": "B6",
          "midi": 95,
          "time": 158.09302325579074,
          "velocity": 0.08661417322834646,
          "duration": 0.04651162790696617
        },
        {
          "name": "E3",
          "midi": 52,
          "time": 158.10465116276748,
          "velocity": 0.2677165354330709,
          "duration": 0.1395348837208985
        },
        {
          "name": "F#5",
          "midi": 78,
          "time": 158.10465116276748,
          "velocity": 0.1968503937007874,
          "duration": 0.05813953488370771
        },
        {
          "name": "E4",
          "midi": 64,
          "time": 158.15116279067445,
          "velocity": 0.31496062992125984,
          "duration": 0.3837209302324709
        },
        {
          "name": "B4",
          "midi": 71,
          "time": 158.15116279067445,
          "velocity": 0.25984251968503935,
          "duration": 0.034883720930224626
        },
        {
          "name": "D7",
          "midi": 98,
          "time": 158.15116279067445,
          "velocity": 0.11023622047244094,
          "duration": 0.034883720930224626
        },
        {
          "name": "B6",
          "midi": 95,
          "time": 158.1976744185814,
          "velocity": 0.08661417322834646,
          "duration": 0.034883720930224626
        },
        {
          "name": "B4",
          "midi": 71,
          "time": 158.24418604648838,
          "velocity": 0.16535433070866143,
          "duration": 0.034883720930224626
        },
        {
          "name": "B6",
          "midi": 95,
          "time": 158.25581395346512,
          "velocity": 0.14960629921259844,
          "duration": 0.19767441860460622
        },
        {
          "name": "F#6",
          "midi": 90,
          "time": 158.26744186044186,
          "velocity": 0.09448818897637795,
          "duration": 0.034883720930224626
        },
        {
          "name": "B4",
          "midi": 71,
          "time": 158.3023255813721,
          "velocity": 0.28346456692913385,
          "duration": 0.15116279069764005
        },
        {
          "name": "F#5",
          "midi": 78,
          "time": 158.3023255813721,
          "velocity": 0.3228346456692913,
          "duration": 0.2558139534883139
        },
        {
          "name": "E3",
          "midi": 52,
          "time": 158.34883720927905,
          "velocity": 0.14173228346456693,
          "duration": 0.04651162790696617
        },
        {
          "name": "E3",
          "midi": 52,
          "time": 158.4186046511395,
          "velocity": 0.18110236220472442,
          "duration": 0.05813953488370771
        },
        {
          "name": "A4",
          "midi": 69,
          "time": 158.441860465093,
          "velocity": 0.07086614173228346,
          "duration": 0.034883720930224626
        },
        {
          "name": "B4",
          "midi": 71,
          "time": 158.48837209299995,
          "velocity": 0.2125984251968504,
          "duration": 0.12790697674415696
        },
        {
          "name": "D5",
          "midi": 74,
          "time": 158.52325581393018,
          "velocity": 0.33070866141732286,
          "duration": 0.31395348837202164
        },
        {
          "name": "A5",
          "midi": 81,
          "time": 158.52325581393018,
          "velocity": 0.3543307086614173,
          "duration": 0.31395348837202164
        },
        {
          "name": "D4",
          "midi": 62,
          "time": 158.54651162788366,
          "velocity": 0.31496062992125984,
          "duration": 0.0813953488371908
        },
        {
          "name": "E3",
          "midi": 52,
          "time": 158.58139534881388,
          "velocity": 0.13385826771653545,
          "duration": 0.06976744186044925
        },
        {
          "name": "C5",
          "midi": 72,
          "time": 158.62790697672085,
          "velocity": 0.2047244094488189,
          "duration": 0.034883720930224626
        },
        {
          "name": "D4",
          "midi": 62,
          "time": 158.6395348836976,
          "velocity": 0.2992125984251969,
          "duration": 0.023255813953483084
        },
        {
          "name": "B4",
          "midi": 71,
          "time": 158.66279069765108,
          "velocity": 0.2204724409448819,
          "duration": 0.034883720930224626
        },
        {
          "name": "D4",
          "midi": 62,
          "time": 158.67441860462782,
          "velocity": 0.2204724409448819,
          "duration": 0.09302325581393234
        },
        {
          "name": "B4",
          "midi": 71,
          "time": 158.70930232555804,
          "velocity": 0.2677165354330709,
          "duration": 0.15116279069764005
        },
        {
          "name": "E5",
          "midi": 76,
          "time": 158.70930232555804,
          "velocity": 0.33858267716535434,
          "duration": 0.43023255813943706
        },
        {
          "name": "F3",
          "midi": 53,
          "time": 158.755813953465,
          "velocity": 0.1732283464566929,
          "duration": 0.034883720930224626
        },
        {
          "name": "E4",
          "midi": 64,
          "time": 158.76744186044175,
          "velocity": 0.1889763779527559,
          "duration": 0.12790697674415696
        },
        {
          "name": "E3",
          "midi": 52,
          "time": 158.82558139532546,
          "velocity": 0.1968503937007874,
          "duration": 0.06976744186044925
        },
        {
          "name": "A5",
          "midi": 81,
          "time": 158.86046511625568,
          "velocity": 0.09448818897637795,
          "duration": 0.05813953488370771
        },
        {
          "name": "D7",
          "midi": 98,
          "time": 158.87209302323242,
          "velocity": 0.08661417322834646,
          "duration": 0.034883720930224626
        },
        {
          "name": "B4",
          "midi": 71,
          "time": 158.88372093020917,
          "velocity": 0.25984251968503935,
          "duration": 0.06976744186044925
        },
        {
          "name": "D4",
          "midi": 62,
          "time": 158.90697674416265,
          "velocity": 0.1889763779527559,
          "duration": 0.034883720930224626
        },
        {
          "name": "E4",
          "midi": 64,
          "time": 158.93023255811613,
          "velocity": 0.2047244094488189,
          "duration": 0.05813953488370771
        },
        {
          "name": "D7",
          "midi": 98,
          "time": 158.93023255811613,
          "velocity": 0.07874015748031496,
          "duration": 0.15116279069764005
        },
        {
          "name": "F3",
          "midi": 53,
          "time": 158.95348837206961,
          "velocity": 0.2283464566929134,
          "duration": 0.06976744186044925
        },
        {
          "name": "B4",
          "midi": 71,
          "time": 158.96511627904636,
          "velocity": 0.3228346456692913,
          "duration": 0.34883720930224626
        },
        {
          "name": "A5",
          "midi": 81,
          "time": 158.9767441860231,
          "velocity": 0.14960629921259844,
          "duration": 0.10465116279067388
        },
        {
          "name": "D4",
          "midi": 62,
          "time": 158.98837209299984,
          "velocity": 0.14173228346456693,
          "duration": 0.04651162790696617
        },
        {
          "name": "E3",
          "midi": 52,
          "time": 159.02325581393006,
          "velocity": 0.23622047244094488,
          "duration": 0.1627906976743816
        },
        {
          "name": "E4",
          "midi": 64,
          "time": 159.04651162788355,
          "velocity": 0.2992125984251969,
          "duration": 0.31395348837202164
        },
        {
          "name": "F#5",
          "midi": 78,
          "time": 159.08139534881377,
          "velocity": 0.07874015748031496,
          "duration": 0.04651162790696617
        },
        {
          "name": "F#5",
          "midi": 78,
          "time": 159.1744186046277,
          "velocity": 0.31496062992125984,
          "duration": 0.43023255813943706
        },
        {
          "name": "B3",
          "midi": 59,
          "time": 159.18604651160445,
          "velocity": 0.1732283464566929,
          "duration": 0.2558139534883139
        },
        {
          "name": "D#6",
          "midi": 87,
          "time": 159.18604651160445,
          "velocity": 0.11023622047244094,
          "duration": 0.034883720930224626
        },
        {
          "name": "D7",
          "midi": 98,
          "time": 159.1976744185812,
          "velocity": 0.10236220472440945,
          "duration": 0.0813953488371908
        },
        {
          "name": "E3",
          "midi": 52,
          "time": 159.24418604648815,
          "velocity": 0.07086614173228346,
          "duration": 0.09302325581393234
        },
        {
          "name": "B4",
          "midi": 71,
          "time": 159.32558139532534,
          "velocity": 0.29133858267716534,
          "duration": 0.09302325581393234
        },
        {
          "name": "B6",
          "midi": 95,
          "time": 159.38372093020905,
          "velocity": 0.12598425196850394,
          "duration": 0.04651162790696617
        },
        {
          "name": "G4",
          "midi": 67,
          "time": 159.3953488371858,
          "velocity": 0.2283464566929134,
          "duration": 0.034883720930224626
        },
        {
          "name": "E3",
          "midi": 52,
          "time": 159.44186046509276,
          "velocity": 0.1889763779527559,
          "duration": 0.11627906976741542
        },
        {
          "name": "F#4",
          "midi": 66,
          "time": 159.44186046509276,
          "velocity": 0.13385826771653545,
          "duration": 0.034883720930224626
        },
        {
          "name": "B4",
          "midi": 71,
          "time": 159.44186046509276,
          "velocity": 0.1889763779527559,
          "duration": 0.06976744186044925
        },
        {
          "name": "E5",
          "midi": 76,
          "time": 159.4534883720695,
          "velocity": 0.14173228346456693,
          "duration": 0.034883720930224626
        },
        {
          "name": "F#4",
          "midi": 66,
          "time": 159.55813953486017,
          "velocity": 0.14173228346456693,
          "duration": 0.04651162790696617
        },
        {
          "name": "B4",
          "midi": 71,
          "time": 159.55813953486017,
          "velocity": 0.2677165354330709,
          "duration": 0.034883720930224626
        },
        {
          "name": "E4",
          "midi": 64,
          "time": 159.56976744183692,
          "velocity": 0.29133858267716534,
          "duration": 0.24418604651157239
        },
        {
          "name": "B5",
          "midi": 83,
          "time": 159.56976744183692,
          "velocity": 0.2755905511811024,
          "duration": 0.558139534883594
        },
        {
          "name": "C#6",
          "midi": 85,
          "time": 159.5930232557904,
          "velocity": 0.10236220472440945,
          "duration": 0.06976744186044925
        },
        {
          "name": "D7",
          "midi": 98,
          "time": 159.5930232557904,
          "velocity": 0.11023622047244094,
          "duration": 0.10465116279067388
        },
        {
          "name": "B4",
          "midi": 71,
          "time": 159.60465116276714,
          "velocity": 0.28346456692913385,
          "duration": 0.09302325581393234
        },
        {
          "name": "G5",
          "midi": 79,
          "time": 159.60465116276714,
          "velocity": 0.3228346456692913,
          "duration": 0.43023255813943706
        },
        {
          "name": "E3",
          "midi": 52,
          "time": 159.6511627906741,
          "velocity": 0.2204724409448819,
          "duration": 0.19767441860460622
        },
        {
          "name": "B4",
          "midi": 71,
          "time": 159.70930232555781,
          "velocity": 0.30708661417322836,
          "duration": 0.0813953488371908
        },
        {
          "name": "G#5",
          "midi": 80,
          "time": 159.75581395346478,
          "velocity": 0.12598425196850394,
          "duration": 0.034883720930224626
        },
        {
          "name": "G4",
          "midi": 67,
          "time": 159.76744186044152,
          "velocity": 0.2677165354330709,
          "duration": 0.3837209302324709
        },
        {
          "name": "B4",
          "midi": 71,
          "time": 159.80232558137175,
          "velocity": 0.23622047244094488,
          "duration": 0.06976744186044925
        },
        {
          "name": "D6",
          "midi": 86,
          "time": 159.80232558137175,
          "velocity": 0.09448818897637795,
          "duration": 0.17441860465112313
        },
        {
          "name": "F3",
          "midi": 53,
          "time": 159.8488372092787,
          "velocity": 0.1732283464566929,
          "duration": 0.0813953488371908
        },
        {
          "name": "F#6",
          "midi": 90,
          "time": 159.86046511625545,
          "velocity": 0.11023622047244094,
          "duration": 0.05813953488370771
        },
        {
          "name": "E4",
          "midi": 64,
          "time": 159.8720930232322,
          "velocity": 0.29133858267716534,
          "duration": 0.3837209302324709
        },
        {
          "name": "E3",
          "midi": 52,
          "time": 159.9302325581159,
          "velocity": 0.08661417322834646,
          "duration": 0.034883720930224626
        },
        {
          "name": "B4",
          "midi": 71,
          "time": 159.94186046509265,
          "velocity": 0.1889763779527559,
          "duration": 0.0813953488371908
        },
        {
          "name": "G#5",
          "midi": 80,
          "time": 159.94186046509265,
          "velocity": 0.11023622047244094,
          "duration": 0.0813953488371908
        },
        {
          "name": "F#6",
          "midi": 90,
          "time": 159.97674418602287,
          "velocity": 0.2204724409448819,
          "duration": 0.12790697674415696
        },
        {
          "name": "E3",
          "midi": 52,
          "time": 159.99999999997635,
          "velocity": 0.1968503937007874,
          "duration": 0.09302325581393234
        },
        {
          "name": "D7",
          "midi": 98,
          "time": 159.99999999997635,
          "velocity": 0.07874015748031496,
          "duration": 0.17441860465112313
        },
        {
          "name": "F#5",
          "midi": 78,
          "time": 160.03488372090658,
          "velocity": 0.3464566929133858,
          "duration": 0.39534883720921243
        },
        {
          "name": "G#5",
          "midi": 80,
          "time": 160.0697674418368,
          "velocity": 0.11023622047244094,
          "duration": 0.034883720930224626
        },
        {
          "name": "B4",
          "midi": 71,
          "time": 160.09302325579029,
          "velocity": 0.1968503937007874,
          "duration": 0.06976744186044925
        },
        {
          "name": "B4",
          "midi": 71,
          "time": 160.18604651160422,
          "velocity": 0.2283464566929134,
          "duration": 0.05813953488370771
        },
        {
          "name": "B5",
          "midi": 83,
          "time": 160.2093023255577,
          "velocity": 0.28346456692913385,
          "duration": 0.406976744185954
        },
        {
          "name": "E3",
          "midi": 52,
          "time": 160.22093023253444,
          "velocity": 0.12598425196850394,
          "duration": 0.04651162790696617
        },
        {
          "name": "F#4",
          "midi": 66,
          "time": 160.23255813951118,
          "velocity": 0.1889763779527559,
          "duration": 0.034883720930224626
        },
        {
          "name": "E6",
          "midi": 88,
          "time": 160.25581395346467,
          "velocity": 0.2755905511811024,
          "duration": 0.10465116279067388
        },
        {
          "name": "F3",
          "midi": 53,
          "time": 160.2674418604414,
          "velocity": 0.11023622047244094,
          "duration": 0.05813953488370771
        },
        {
          "name": "G#6",
          "midi": 92,
          "time": 160.2674418604414,
          "velocity": 0.11811023622047244,
          "duration": 0.18604651162786467
        },
        {
          "name": "D7",
          "midi": 98,
          "time": 160.30232558137163,
          "velocity": 0.11023622047244094,
          "duration": 0.05813953488370771
        },
        {
          "name": "E4",
          "midi": 64,
          "time": 160.31395348834837,
          "velocity": 0.18110236220472442,
          "duration": 0.04651162790696617
        },
        {
          "name": "E3",
          "midi": 52,
          "time": 160.32558139532512,
          "velocity": 0.14960629921259844,
          "duration": 0.04651162790696617
        },
        {
          "name": "B4",
          "midi": 71,
          "time": 160.3488372092786,
          "velocity": 0.16535433070866143,
          "duration": 0.05813953488370771
        },
        {
          "name": "D#4",
          "midi": 63,
          "time": 160.39534883718557,
          "velocity": 0.09448818897637795,
          "duration": 0.034883720930224626
        },
        {
          "name": "B4",
          "midi": 71,
          "time": 160.41860465113905,
          "velocity": 0.2992125984251969,
          "duration": 0.10465116279067388
        },
        {
          "name": "E4",
          "midi": 64,
          "time": 160.4302325581158,
          "velocity": 0.16535433070866143,
          "duration": 0.034883720930224626
        },
        {
          "name": "A#3",
          "midi": 58,
          "time": 160.46511627904601,
          "velocity": 0.13385826771653545,
          "duration": 0.05813953488370771
        },
        {
          "name": "F3",
          "midi": 53,
          "time": 160.47674418602276,
          "velocity": 0.11023622047244094,
          "duration": 0.034883720930224626
        },
        {
          "name": "F4",
          "midi": 65,
          "time": 160.47674418602276,
          "velocity": 0.1968503937007874,
          "duration": 0.04651162790696617
        },
        {
          "name": "D#5",
          "midi": 75,
          "time": 160.47674418602276,
          "velocity": 0.1889763779527559,
          "duration": 0.04651162790696617
        },
        {
          "name": "F#5",
          "midi": 78,
          "time": 160.49999999997624,
          "velocity": 0.14960629921259844,
          "duration": 0.09302325581393234
        },
        {
          "name": "E5",
          "midi": 76,
          "time": 160.52325581392972,
          "velocity": 0.08661417322834646,
          "duration": 0.04651162790696617
        },
        {
          "name": "B4",
          "midi": 71,
          "time": 160.53488372090646,
          "velocity": 0.29133858267716534,
          "duration": 0.05813953488370771
        },
        {
          "name": "E3",
          "midi": 52,
          "time": 160.5465116278832,
          "velocity": 0.2440944881889764,
          "duration": 0.05813953488370771
        },
        {
          "name": "D4",
          "midi": 62,
          "time": 160.5697674418367,
          "velocity": 0.23622047244094488,
          "duration": 0.05813953488370771
        },
        {
          "name": "G#6",
          "midi": 92,
          "time": 160.5697674418367,
          "velocity": 0.14173228346456693,
          "duration": 0.10465116279067388
        },
        {
          "name": "E5",
          "midi": 76,
          "time": 160.58139534881343,
          "velocity": 0.18110236220472442,
          "duration": 0.05813953488370771
        },
        {
          "name": "F6",
          "midi": 89,
          "time": 160.58139534881343,
          "velocity": 0.18110236220472442,
          "duration": 0.1395348837208985
        },
        {
          "name": "G6",
          "midi": 91,
          "time": 160.59302325579017,
          "velocity": 0.11023622047244094,
          "duration": 0.11627906976741542
        },
        {
          "name": "A6",
          "midi": 93,
          "time": 160.59302325579017,
          "velocity": 0.15748031496062992,
          "duration": 0.10465116279067388
        },
        {
          "name": "B4",
          "midi": 71,
          "time": 160.6046511627669,
          "velocity": 0.1889763779527559,
          "duration": 0.04651162790696617
        },
        {
          "name": "A#6",
          "midi": 94,
          "time": 160.6046511627669,
          "velocity": 0.09448818897637795,
          "duration": 0.034883720930224626
        },
        {
          "name": "G#3",
          "midi": 56,
          "time": 160.61627906974365,
          "velocity": 0.23622047244094488,
          "duration": 0.034883720930224626
        },
        {
          "name": "A5",
          "midi": 81,
          "time": 160.61627906974365,
          "velocity": 0.18110236220472442,
          "duration": 0.09302325581393234
        },
        {
          "name": "C6",
          "midi": 84,
          "time": 160.61627906974365,
          "velocity": 0.15748031496062992,
          "duration": 0.09302325581393234
        },
        {
          "name": "F#5",
          "midi": 78,
          "time": 160.6279069767204,
          "velocity": 0.2125984251968504,
          "duration": 0.05813953488370771
        },
        {
          "name": "B5",
          "midi": 83,
          "time": 160.63953488369714,
          "velocity": 0.25984251968503935,
          "duration": 0.5813953488370771
        },
        {
          "name": "F3",
          "midi": 53,
          "time": 160.65116279067388,
          "velocity": 0.33858267716535434,
          "duration": 0.034883720930224626
        },
        {
          "name": "G4",
          "midi": 67,
          "time": 160.65116279067388,
          "velocity": 0.31496062992125984,
          "duration": 0.04651162790696617
        },
        {
          "name": "C5",
          "midi": 72,
          "time": 160.65116279067388,
          "velocity": 0.29133858267716534,
          "duration": 0.06976744186044925
        },
        {
          "name": "E5",
          "midi": 76,
          "time": 160.66279069765062,
          "velocity": 0.41732283464566927,
          "duration": 0.18604651162786467
        },
        {
          "name": "C#6",
          "midi": 85,
          "time": 160.66279069765062,
          "velocity": 0.11023622047244094,
          "duration": 0.04651162790696617
        },
        {
          "name": "D#6",
          "midi": 87,
          "time": 160.66279069765062,
          "velocity": 0.1968503937007874,
          "duration": 0.05813953488370771
        },
        {
          "name": "D7",
          "midi": 98,
          "time": 160.66279069765062,
          "velocity": 0.18110236220472442,
          "duration": 0.04651162790696617
        },
        {
          "name": "A#6",
          "midi": 94,
          "time": 160.67441860462736,
          "velocity": 0.1889763779527559,
          "duration": 0.034883720930224626
        },
        {
          "name": "C7",
          "midi": 96,
          "time": 160.67441860462736,
          "velocity": 0.1889763779527559,
          "duration": 0.04651162790696617
        },
        {
          "name": "E2",
          "midi": 40,
          "time": 160.6860465116041,
          "velocity": 0.5275590551181102,
          "duration": 0.011627906976741542
        },
        {
          "name": "A3",
          "midi": 57,
          "time": 160.6860465116041,
          "velocity": 0.31496062992125984,
          "duration": 0.023255813953483084
        },
        {
          "name": "C#4",
          "midi": 61,
          "time": 160.6860465116041,
          "velocity": 0.4015748031496063,
          "duration": 0.023255813953483084
        },
        {
          "name": "G#6",
          "midi": 92,
          "time": 160.6860465116041,
          "velocity": 0.18110236220472442,
          "duration": 0.034883720930224626
        },
        {
          "name": "B4",
          "midi": 71,
          "time": 160.69767441858085,
          "velocity": 0.3700787401574803,
          "duration": 0.2209302325580893
        },
        {
          "name": "C4",
          "midi": 60,
          "time": 160.7093023255576,
          "velocity": 0.33858267716535434,
          "duration": 0.023255813953483084
        },
        {
          "name": "G#4",
          "midi": 68,
          "time": 160.72093023253433,
          "velocity": 0.11811023622047244,
          "duration": 0.034883720930224626
        },
        {
          "name": "D3",
          "midi": 50,
          "time": 160.73255813951107,
          "velocity": 0.49606299212598426,
          "duration": 0.023255813953483084
        },
        {
          "name": "C4",
          "midi": 60,
          "time": 160.7441860464878,
          "velocity": 0.25196850393700787,
          "duration": 0.023255813953483084
        },
        {
          "name": "C#4",
          "midi": 61,
          "time": 160.75581395346455,
          "velocity": 0.30708661417322836,
          "duration": 0.023255813953483084
        },
        {
          "name": "F4",
          "midi": 65,
          "time": 160.7674418604413,
          "velocity": 0.33858267716535434,
          "duration": 0.04651162790696617
        },
        {
          "name": "D#3",
          "midi": 51,
          "time": 160.77906976741804,
          "velocity": 0.48031496062992124,
          "duration": 0.023255813953483084
        },
        {
          "name": "G#5",
          "midi": 80,
          "time": 160.80232558137152,
          "velocity": 0.14960629921259844,
          "duration": 0.04651162790696617
        },
        {
          "name": "B3",
          "midi": 59,
          "time": 160.81395348834826,
          "velocity": 0.31496062992125984,
          "duration": 0.04651162790696617
        },
        {
          "name": "E4",
          "midi": 64,
          "time": 160.81395348834826,
          "velocity": 0.3543307086614173,
          "duration": 0.023255813953483084
        },
        {
          "name": "D#3",
          "midi": 51,
          "time": 160.825581395325,
          "velocity": 0.6141732283464567,
          "duration": 0.04651162790696617
        },
        {
          "name": "E2",
          "midi": 40,
          "time": 160.84883720927849,
          "velocity": 0.5275590551181102,
          "duration": 0.011627906976741542
        },
        {
          "name": "F#4",
          "midi": 66,
          "time": 160.86046511625523,
          "velocity": 0.33858267716535434,
          "duration": 0.034883720930224626
        },
        {
          "name": "E2",
          "midi": 40,
          "time": 160.87209302323197,
          "velocity": 0.5433070866141733,
          "duration": 0.011627906976741542
        },
        {
          "name": "D3",
          "midi": 50,
          "time": 160.87209302323197,
          "velocity": 0.5669291338582677,
          "duration": 0.1395348837208985
        },
        {
          "name": "E5",
          "midi": 76,
          "time": 160.87209302323197,
          "velocity": 0.2204724409448819,
          "duration": 0.06976744186044925
        },
        {
          "name": "F2",
          "midi": 41,
          "time": 160.8837209302087,
          "velocity": 0.4881889763779528,
          "duration": 0.034883720930224626
        },
        {
          "name": "F#5",
          "midi": 78,
          "time": 160.8837209302087,
          "velocity": 0.33858267716535434,
          "duration": 0.2209302325580893
        },
        {
          "name": "G#5",
          "midi": 80,
          "time": 160.8837209302087,
          "velocity": 0.14173228346456693,
          "duration": 0.05813953488370771
        },
        {
          "name": "F4",
          "midi": 65,
          "time": 160.89534883718545,
          "velocity": 0.3858267716535433,
          "duration": 0.023255813953483084
        },
        {
          "name": "D#6",
          "midi": 87,
          "time": 160.89534883718545,
          "velocity": 0.13385826771653545,
          "duration": 0.05813953488370771
        },
        {
          "name": "A#3",
          "midi": 58,
          "time": 160.91860465113893,
          "velocity": 0.3543307086614173,
          "duration": 0.023255813953483084
        },
        {
          "name": "E4",
          "midi": 64,
          "time": 160.91860465113893,
          "velocity": 0.4015748031496063,
          "duration": 0.24418604651157239
        },
        {
          "name": "D7",
          "midi": 98,
          "time": 160.91860465113893,
          "velocity": 0.11811023622047244,
          "duration": 0.05813953488370771
        },
        {
          "name": "E2",
          "midi": 40,
          "time": 160.93023255811568,
          "velocity": 0.4015748031496063,
          "duration": 0.034883720930224626
        },
        {
          "name": "B4",
          "midi": 71,
          "time": 160.93023255811568,
          "velocity": 0.2992125984251969,
          "duration": 0.06976744186044925
        },
        {
          "name": "B3",
          "midi": 59,
          "time": 160.94186046509242,
          "velocity": 0.2755905511811024,
          "duration": 0.05813953488370771
        },
        {
          "name": "C5",
          "midi": 72,
          "time": 160.98837209299938,
          "velocity": 0.2047244094488189,
          "duration": 0.06976744186044925
        },
        {
          "name": "C#3",
          "midi": 49,
          "time": 161.01162790695287,
          "velocity": 0.4645669291338583,
          "duration": 0.023255813953483084
        },
        {
          "name": "G4",
          "midi": 67,
          "time": 161.01162790695287,
          "velocity": 0.1732283464566929,
          "duration": 0.034883720930224626
        },
        {
          "name": "D3",
          "midi": 50,
          "time": 161.03488372090635,
          "velocity": 0.47244094488188976,
          "duration": 0.04651162790696617
        },
        {
          "name": "B3",
          "midi": 59,
          "time": 161.03488372090635,
          "velocity": 0.31496062992125984,
          "duration": 0.023255813953483084
        },
        {
          "name": "B4",
          "midi": 71,
          "time": 161.05813953485983,
          "velocity": 0.3228346456692913,
          "duration": 0.05813953488370771
        },
        {
          "name": "E2",
          "midi": 40,
          "time": 161.06976744183658,
          "velocity": 0.3858267716535433,
          "duration": 0.023255813953483084
        },
        {
          "name": "B3",
          "midi": 59,
          "time": 161.06976744183658,
          "velocity": 0.2992125984251969,
          "duration": 0.04651162790696617
        },
        {
          "name": "C#2",
          "midi": 37,
          "time": 161.1046511627668,
          "velocity": 0.3858267716535433,
          "duration": 0.034883720930224626
        },
        {
          "name": "A4",
          "midi": 69,
          "time": 161.1046511627668,
          "velocity": 0.2677165354330709,
          "duration": 0.12790697674415696
        },
        {
          "name": "F#6",
          "midi": 90,
          "time": 161.1046511627668,
          "velocity": 0.3228346456692913,
          "duration": 0.15116279069764005
        },
        {
          "name": "C#7",
          "midi": 97,
          "time": 161.1046511627668,
          "velocity": 0.25196850393700787,
          "duration": 0.1395348837208985
        },
        {
          "name": "D#3",
          "midi": 51,
          "time": 161.11627906974354,
          "velocity": 0.47244094488188976,
          "duration": 0.023255813953483084
        },
        {
          "name": "C4",
          "midi": 60,
          "time": 161.11627906974354,
          "velocity": 0.36220472440944884,
          "duration": 0.034883720930224626
        },
        {
          "name": "B4",
          "midi": 71,
          "time": 161.15116279067377,
          "velocity": 0.25984251968503935,
          "duration": 0.15116279069764005
        },
        {
          "name": "D3",
          "midi": 50,
          "time": 161.1627906976505,
          "velocity": 0.48031496062992124,
          "duration": 0.023255813953483084
        },
        {
          "name": "C4",
          "midi": 60,
          "time": 161.1627906976505,
          "velocity": 0.23622047244094488,
          "duration": 0.034883720930224626
        },
        {
          "name": "D7",
          "midi": 98,
          "time": 161.1627906976505,
          "velocity": 0.14173228346456693,
          "duration": 0.04651162790696617
        },
        {
          "name": "G2",
          "midi": 43,
          "time": 161.19767441858073,
          "velocity": 0.44881889763779526,
          "duration": 0.023255813953483084
        },
        {
          "name": "E4",
          "midi": 64,
          "time": 161.19767441858073,
          "velocity": 0.28346456692913385,
          "duration": 0.023255813953483084
        },
        {
          "name": "D3",
          "midi": 50,
          "time": 161.20930232555747,
          "velocity": 0.41732283464566927,
          "duration": 0.04651162790696617
        },
        {
          "name": "G2",
          "midi": 43,
          "time": 161.25581395346444,
          "velocity": 0.31496062992125984,
          "duration": 0.023255813953483084
        },
        {
          "name": "D#3",
          "midi": 51,
          "time": 161.25581395346444,
          "velocity": 0.33858267716535434,
          "duration": 0.023255813953483084
        },
        {
          "name": "E5",
          "midi": 76,
          "time": 161.25581395346444,
          "velocity": 0.15748031496062992,
          "duration": 0.09302325581393234
        },
        {
          "name": "F#2",
          "midi": 42,
          "time": 161.27906976741792,
          "velocity": 0.3937007874015748,
          "duration": 0.023255813953483084
        },
        {
          "name": "E4",
          "midi": 64,
          "time": 161.27906976741792,
          "velocity": 0.3228346456692913,
          "duration": 0.04651162790696617
        },
        {
          "name": "F#6",
          "midi": 90,
          "time": 161.27906976741792,
          "velocity": 0.1968503937007874,
          "duration": 0.1627906976743816
        },
        {
          "name": "F#5",
          "midi": 78,
          "time": 161.29069767439466,
          "velocity": 0.08661417322834646,
          "duration": 0.034883720930224626
        },
        {
          "name": "D7",
          "midi": 98,
          "time": 161.3023255813714,
          "velocity": 0.14960629921259844,
          "duration": 0.10465116279067388
        },
        {
          "name": "F#2",
          "midi": 42,
          "time": 161.31395348834815,
          "velocity": 0.44881889763779526,
          "duration": 0.04651162790696617
        },
        {
          "name": "G#3",
          "midi": 56,
          "time": 161.31395348834815,
          "velocity": 0.14173228346456693,
          "duration": 0.034883720930224626
        },
        {
          "name": "D5",
          "midi": 74,
          "time": 161.31395348834815,
          "velocity": 0.3858267716535433,
          "duration": 0.3023255813952801
        },
        {
          "name": "A6",
          "midi": 93,
          "time": 161.31395348834815,
          "velocity": 0.25984251968503935,
          "duration": 0.09302325581393234
        },
        {
          "name": "G#5",
          "midi": 80,
          "time": 161.3255813953249,
          "velocity": 0.09448818897637795,
          "duration": 0.034883720930224626
        },
        {
          "name": "D3",
          "midi": 50,
          "time": 161.33720930230163,
          "velocity": 0.3858267716535433,
          "duration": 0.023255813953483084
        },
        {
          "name": "F4",
          "midi": 65,
          "time": 161.33720930230163,
          "velocity": 0.3858267716535433,
          "duration": 0.023255813953483084
        },
        {
          "name": "B4",
          "midi": 71,
          "time": 161.34883720927837,
          "velocity": 0.12598425196850394,
          "duration": 0.04651162790696617
        },
        {
          "name": "E4",
          "midi": 64,
          "time": 161.3604651162551,
          "velocity": 0.3937007874015748,
          "duration": 0.43023255813943706
        },
        {
          "name": "F3",
          "midi": 53,
          "time": 161.37209302323186,
          "velocity": 0.3464566929133858,
          "duration": 0.023255813953483084
        },
        {
          "name": "F#5",
          "midi": 78,
          "time": 161.37209302323186,
          "velocity": 0.08661417322834646,
          "duration": 0.06976744186044925
        },
        {
          "name": "B6",
          "midi": 95,
          "time": 161.37209302323186,
          "velocity": 0.10236220472440945,
          "duration": 0.11627906976741542
        },
        {
          "name": "D#3",
          "midi": 51,
          "time": 161.39534883718534,
          "velocity": 0.36220472440944884,
          "duration": 0.023255813953483084
        },
        {
          "name": "B5",
          "midi": 83,
          "time": 161.39534883718534,
          "velocity": 0.18110236220472442,
          "duration": 0.15116279069764005
        },
        {
          "name": "B4",
          "midi": 71,
          "time": 161.40697674416208,
          "velocity": 0.2204724409448819,
          "duration": 0.10465116279067388
        },
        {
          "name": "F2",
          "midi": 41,
          "time": 161.41860465113882,
          "velocity": 0.3937007874015748,
          "duration": 0.023255813953483084
        },
        {
          "name": "A#3",
          "midi": 58,
          "time": 161.43023255811556,
          "velocity": 0.1889763779527559,
          "duration": 0.06976744186044925
        },
        {
          "name": "D#6",
          "midi": 87,
          "time": 161.43023255811556,
          "velocity": 0.11811023622047244,
          "duration": 0.034883720930224626
        },
        {
          "name": "F#2",
          "midi": 42,
          "time": 161.4651162790458,
          "velocity": 0.41732283464566927,
          "duration": 0.034883720930224626
        },
        {
          "name": "D3",
          "midi": 50,
          "time": 161.499999999976,
          "velocity": 0.3937007874015748,
          "duration": 0.023255813953483084
        },
        {
          "name": "C#3",
          "midi": 49,
          "time": 161.5232558139295,
          "velocity": 0.4015748031496063,
          "duration": 0.023255813953483084
        },
        {
          "name": "G4",
          "midi": 67,
          "time": 161.5232558139295,
          "velocity": 0.5118110236220472,
          "duration": 0.19767441860460622
        },
        {
          "name": "B4",
          "midi": 71,
          "time": 161.5232558139295,
          "velocity": 0.2992125984251969,
          "duration": 0.0813953488371908
        },
        {
          "name": "F#6",
          "midi": 90,
          "time": 161.5232558139295,
          "velocity": 0.08661417322834646,
          "duration": 0.034883720930224626
        },
        {
          "name": "A#5",
          "midi": 82,
          "time": 161.54651162788298,
          "velocity": 0.2204724409448819,
          "duration": 0.05813953488370771
        },
        {
          "name": "D3",
          "midi": 50,
          "time": 161.61627906974343,
          "velocity": 0.33858267716535434,
          "duration": 0.023255813953483084
        },
        {
          "name": "B4",
          "midi": 71,
          "time": 161.62790697672017,
          "velocity": 0.18110236220472442,
          "duration": 0.04651162790696617
        },
        {
          "name": "G2",
          "midi": 43,
          "time": 161.6395348836969,
          "velocity": 0.3543307086614173,
          "duration": 0.034883720930224626
        },
        {
          "name": "E5",
          "midi": 76,
          "time": 161.67441860462714,
          "velocity": 0.3937007874015748,
          "duration": 0.2209302325580893
        },
        {
          "name": "G#5",
          "midi": 80,
          "time": 161.67441860462714,
          "velocity": 0.11023622047244094,
          "duration": 0.04651162790696617
        },
        {
          "name": "G2",
          "midi": 43,
          "time": 161.68604651160388,
          "velocity": 0.30708661417322836,
          "duration": 0.023255813953483084
        },
        {
          "name": "D5",
          "midi": 74,
          "time": 161.69767441858062,
          "velocity": 0.2204724409448819,
          "duration": 0.09302325581393234
        },
        {
          "name": "B6",
          "midi": 95,
          "time": 161.69767441858062,
          "velocity": 0.29133858267716534,
          "duration": 0.11627906976741542
        },
        {
          "name": "D3",
          "midi": 50,
          "time": 161.70930232555736,
          "velocity": 0.25984251968503935,
          "duration": 0.034883720930224626
        },
        {
          "name": "B4",
          "midi": 71,
          "time": 161.7209302325341,
          "velocity": 0.2283464566929134,
          "duration": 0.0813953488371908
        },
        {
          "name": "B5",
          "midi": 83,
          "time": 161.7209302325341,
          "velocity": 0.2440944881889764,
          "duration": 0.29069767441853855
        },
        {
          "name": "A4",
          "midi": 69,
          "time": 161.75581395346433,
          "velocity": 0.2440944881889764,
          "duration": 0.09302325581393234
        },
        {
          "name": "G#2",
          "midi": 44,
          "time": 161.76744186044107,
          "velocity": 0.4251968503937008,
          "duration": 0.023255813953483084
        },
        {
          "name": "F#6",
          "midi": 90,
          "time": 161.7790697674178,
          "velocity": 0.11023622047244094,
          "duration": 0.034883720930224626
        },
        {
          "name": "G2",
          "midi": 43,
          "time": 161.81395348834803,
          "velocity": 0.3858267716535433,
          "duration": 0.034883720930224626
        },
        {
          "name": "E4",
          "midi": 64,
          "time": 161.81395348834803,
          "velocity": 0.29133858267716534,
          "duration": 0.034883720930224626
        },
        {
          "name": "B4",
          "midi": 71,
          "time": 161.82558139532478,
          "velocity": 0.1968503937007874,
          "duration": 0.0813953488371908
        },
        {
          "name": "F2",
          "midi": 41,
          "time": 161.84883720927826,
          "velocity": 0.33070866141732286,
          "duration": 0.023255813953483084
        },
        {
          "name": "E4",
          "midi": 64,
          "time": 161.860465116255,
          "velocity": 0.36220472440944884,
          "duration": 0.04651162790696617
        },
        {
          "name": "F2",
          "midi": 41,
          "time": 161.88372093020848,
          "velocity": 0.3937007874015748,
          "duration": 0.023255813953483084
        },
        {
          "name": "G2",
          "midi": 43,
          "time": 161.90697674416197,
          "velocity": 0.3700787401574803,
          "duration": 0.05813953488370771
        },
        {
          "name": "E3",
          "midi": 52,
          "time": 161.90697674416197,
          "velocity": 0.18110236220472442,
          "duration": 0.04651162790696617
        },
        {
          "name": "E5",
          "midi": 76,
          "time": 161.90697674416197,
          "velocity": 0.2204724409448819,
          "duration": 0.20930232558134776
        },
        {
          "name": "E4",
          "midi": 64,
          "time": 161.9186046511387,
          "velocity": 0.30708661417322836,
          "duration": 0.04651162790696617
        },
        {
          "name": "F#6",
          "midi": 90,
          "time": 161.9186046511387,
          "velocity": 0.09448818897637795,
          "duration": 0.034883720930224626
        },
        {
          "name": "B4",
          "midi": 71,
          "time": 161.93023255811545,
          "velocity": 0.2677165354330709,
          "duration": 0.034883720930224626
        },
        {
          "name": "D7",
          "midi": 98,
          "time": 161.9418604650922,
          "velocity": 0.08661417322834646,
          "duration": 0.034883720930224626
        },
        {
          "name": "F#3",
          "midi": 54,
          "time": 161.97674418602242,
          "velocity": 0.33070866141732286,
          "duration": 0.023255813953483084
        },
        {
          "name": "C4",
          "midi": 60,
          "time": 161.97674418602242,
          "velocity": 0.25196850393700787,
          "duration": 0.034883720930224626
        },
        {
          "name": "B4",
          "midi": 71,
          "time": 161.97674418602242,
          "velocity": 0.4251968503937008,
          "duration": 0.15116279069764005
        },
        {
          "name": "G#2",
          "midi": 44,
          "time": 161.98837209299916,
          "velocity": 0.4330708661417323,
          "duration": 0.023255813953483084
        },
        {
          "name": "G4",
          "midi": 67,
          "time": 161.98837209299916,
          "velocity": 0.16535433070866143,
          "duration": 0.034883720930224626
        },
        {
          "name": "F#6",
          "midi": 90,
          "time": 161.98837209299916,
          "velocity": 0.10236220472440945,
          "duration": 0.034883720930224626
        },
        {
          "name": "D7",
          "midi": 98,
          "time": 161.98837209299916,
          "velocity": 0.11023622047244094,
          "duration": 0.09302325581393234
        },
        {
          "name": "F3",
          "midi": 53,
          "time": 161.9999999999759,
          "velocity": 0.31496062992125984,
          "duration": 0.05813953488370771
        },
        {
          "name": "C4",
          "midi": 60,
          "time": 162.02325581392938,
          "velocity": 0.2204724409448819,
          "duration": 0.034883720930224626
        },
        {
          "name": "E4",
          "midi": 64,
          "time": 162.03488372090612,
          "velocity": 0.25196850393700787,
          "duration": 0.06976744186044925
        },
        {
          "name": "G4",
          "midi": 67,
          "time": 162.03488372090612,
          "velocity": 0.14173228346456693,
          "duration": 0.04651162790696617
        },
        {
          "name": "G2",
          "midi": 43,
          "time": 162.04651162788286,
          "velocity": 0.3464566929133858,
          "duration": 0.023255813953483084
        },
        {
          "name": "F#6",
          "midi": 90,
          "time": 162.04651162788286,
          "velocity": 0.11023622047244094,
          "duration": 0.1627906976743816
        },
        {
          "name": "D3",
          "midi": 50,
          "time": 162.0581395348596,
          "velocity": 0.28346456692913385,
          "duration": 0.023255813953483084
        },
        {
          "name": "F#2",
          "midi": 42,
          "time": 162.10465116276657,
          "velocity": 0.28346456692913385,
          "duration": 0.023255813953483084
        },
        {
          "name": "E5",
          "midi": 76,
          "time": 162.12790697672006,
          "velocity": 0.1968503937007874,
          "duration": 0.1395348837208985
        },
        {
          "name": "D3",
          "midi": 50,
          "time": 162.1395348836968,
          "velocity": 0.2755905511811024,
          "duration": 0.023255813953483084
        },
        {
          "name": "B4",
          "midi": 71,
          "time": 162.1395348836968,
          "velocity": 0.25984251968503935,
          "duration": 0.12790697674415696
        },
        {
          "name": "E4",
          "midi": 64,
          "time": 162.15116279067354,
          "velocity": 0.31496062992125984,
          "duration": 0.034883720930224626
        },
        {
          "name": "F4",
          "midi": 65,
          "time": 162.18604651160376,
          "velocity": 0.2992125984251969,
          "duration": 0.04651162790696617
        },
        {
          "name": "A4",
          "midi": 69,
          "time": 162.18604651160376,
          "velocity": 0.10236220472440945,
          "duration": 0.04651162790696617
        },
        {
          "name": "G#5",
          "midi": 80,
          "time": 162.18604651160376,
          "velocity": 0.13385826771653545,
          "duration": 0.06976744186044925
        },
        {
          "name": "E4",
          "midi": 64,
          "time": 162.23255813951073,
          "velocity": 0.25196850393700787,
          "duration": 0.034883720930224626
        },
        {
          "name": "F#2",
          "midi": 42,
          "time": 162.24418604648747,
          "velocity": 0.3937007874015748,
          "duration": 0.023255813953483084
        },
        {
          "name": "F3",
          "midi": 53,
          "time": 162.24418604648747,
          "velocity": 0.2283464566929134,
          "duration": 0.023255813953483084
        },
        {
          "name": "G2",
          "midi": 43,
          "time": 162.26744186044095,
          "velocity": 0.2992125984251969,
          "duration": 0.023255813953483084
        },
        {
          "name": "F3",
          "midi": 53,
          "time": 162.2790697674177,
          "velocity": 0.2283464566929134,
          "duration": 0.023255813953483084
        },
        {
          "name": "E4",
          "midi": 64,
          "time": 162.2790697674177,
          "velocity": 0.30708661417322836,
          "duration": 0.04651162790696617
        },
        {
          "name": "B4",
          "midi": 71,
          "time": 162.2790697674177,
          "velocity": 0.4094488188976378,
          "duration": 0.5465116279068525
        },
        {
          "name": "F#2",
          "midi": 42,
          "time": 162.32558139532466,
          "velocity": 0.41732283464566927,
          "duration": 0.023255813953483084
        },
        {
          "name": "E4",
          "midi": 64,
          "time": 162.3372093023014,
          "velocity": 0.2440944881889764,
          "duration": 0.034883720930224626
        },
        {
          "name": "G2",
          "midi": 43,
          "time": 162.34883720927814,
          "velocity": 0.33858267716535434,
          "duration": 0.023255813953483084
        },
        {
          "name": "F#6",
          "midi": 90,
          "time": 162.34883720927814,
          "velocity": 0.1889763779527559,
          "duration": 0.0813953488371908
        },
        {
          "name": "E5",
          "midi": 76,
          "time": 162.37209302323163,
          "velocity": 0.4094488188976378,
          "duration": 0.45348837209292014
        },
        {
          "name": "D7",
          "midi": 98,
          "time": 162.37209302323163,
          "velocity": 0.14960629921259844,
          "duration": 0.11627906976741542
        },
        {
          "name": "D#4",
          "midi": 63,
          "time": 162.38372093020837,
          "velocity": 0.25984251968503935,
          "duration": 0.023255813953483084
        },
        {
          "name": "C4",
          "midi": 60,
          "time": 162.3953488371851,
          "velocity": 0.33858267716535434,
          "duration": 0.09302325581393234
        },
        {
          "name": "D#6",
          "midi": 87,
          "time": 162.3953488371851,
          "velocity": 0.13385826771653545,
          "duration": 0.034883720930224626
        },
        {
          "name": "F2",
          "midi": 41,
          "time": 162.40697674416185,
          "velocity": 0.5118110236220472,
          "duration": 0.011627906976741542
        },
        {
          "name": "E4",
          "midi": 64,
          "time": 162.40697674416185,
          "velocity": 0.2440944881889764,
          "duration": 0.04651162790696617
        },
        {
          "name": "G4",
          "midi": 67,
          "time": 162.40697674416185,
          "velocity": 0.25984251968503935,
          "duration": 0.05813953488370771
        },
        {
          "name": "C#6",
          "midi": 85,
          "time": 162.40697674416185,
          "velocity": 0.10236220472440945,
          "duration": 0.04651162790696617
        },
        {
          "name": "G#2",
          "midi": 44,
          "time": 162.4186046511386,
          "velocity": 0.48031496062992124,
          "duration": 0.023255813953483084
        },
        {
          "name": "F#5",
          "midi": 78,
          "time": 162.4186046511386,
          "velocity": 0.16535433070866143,
          "duration": 0.05813953488370771
        },
        {
          "name": "G#5",
          "midi": 80,
          "time": 162.4186046511386,
          "velocity": 0.11811023622047244,
          "duration": 0.034883720930224626
        },
        {
          "name": "C6",
          "midi": 84,
          "time": 162.4186046511386,
          "velocity": 0.12598425196850394,
          "duration": 0.04651162790696617
        },
        {
          "name": "D6",
          "midi": 86,
          "time": 162.4186046511386,
          "velocity": 0.10236220472440945,
          "duration": 0.034883720930224626
        },
        {
          "name": "A#6",
          "midi": 94,
          "time": 162.43023255811534,
          "velocity": 0.08661417322834646,
          "duration": 0.034883720930224626
        },
        {
          "name": "A2",
          "midi": 45,
          "time": 162.46511627904556,
          "velocity": 0.25984251968503935,
          "duration": 0.023255813953483084
        },
        {
          "name": "E3",
          "midi": 52,
          "time": 162.46511627904556,
          "velocity": 0.31496062992125984,
          "duration": 0.034883720930224626
        },
        {
          "name": "A#1",
          "midi": 34,
          "time": 162.51162790695253,
          "velocity": 0.2992125984251969,
          "duration": 0.023255813953483084
        },
        {
          "name": "E3",
          "midi": 52,
          "time": 162.51162790695253,
          "velocity": 0.33858267716535434,
          "duration": 0.10465116279067388
        },
        {
          "name": "F#5",
          "midi": 78,
          "time": 162.54651162788275,
          "velocity": 0.31496062992125984,
          "duration": 0.279069767441797
        },
        {
          "name": "G#5",
          "midi": 80,
          "time": 162.5581395348595,
          "velocity": 0.16535433070866143,
          "duration": 0.09302325581393234
        },
        {
          "name": "D#6",
          "midi": 87,
          "time": 162.60465116276646,
          "velocity": 0.11023622047244094,
          "duration": 0.04651162790696617
        },
        {
          "name": "D#3",
          "midi": 51,
          "time": 162.6162790697432,
          "velocity": 0.25984251968503935,
          "duration": 0.023255813953483084
        },
        {
          "name": "F4",
          "midi": 65,
          "time": 162.6162790697432,
          "velocity": 0.3464566929133858,
          "duration": 0.023255813953483084
        },
        {
          "name": "E4",
          "midi": 64,
          "time": 162.63953488369668,
          "velocity": 0.2283464566929134,
          "duration": 0.023255813953483084
        },
        {
          "name": "G2",
          "midi": 43,
          "time": 162.65116279067342,
          "velocity": 0.2283464566929134,
          "duration": 0.023255813953483084
        },
        {
          "name": "E3",
          "midi": 52,
          "time": 162.6744186046269,
          "velocity": 0.2677165354330709,
          "duration": 0.023255813953483084
        },
        {
          "name": "E4",
          "midi": 64,
          "time": 162.6744186046269,
          "velocity": 0.3700787401574803,
          "duration": 0.29069767441853855
        },
        {
          "name": "F2",
          "midi": 41,
          "time": 162.68604651160365,
          "velocity": 0.3228346456692913,
          "duration": 0.023255813953483084
        },
        {
          "name": "D#3",
          "midi": 51,
          "time": 162.73255813951062,
          "velocity": 0.2440944881889764,
          "duration": 0.023255813953483084
        },
        {
          "name": "E3",
          "midi": 52,
          "time": 162.7558139534641,
          "velocity": 0.23622047244094488,
          "duration": 0.05813953488370771
        },
        {
          "name": "B3",
          "midi": 59,
          "time": 162.76744186044084,
          "velocity": 0.23622047244094488,
          "duration": 0.09302325581393234
        },
        {
          "name": "B5",
          "midi": 83,
          "time": 162.82558139532455,
          "velocity": 0.33070866141732286,
          "duration": 0.5232558139533694
        },
        {
          "name": "B4",
          "midi": 71,
          "time": 162.8372093023013,
          "velocity": 0.44881889763779526,
          "duration": 0.12790697674415696
        },
        {
          "name": "E3",
          "midi": 52,
          "time": 162.86046511625477,
          "velocity": 0.28346456692913385,
          "duration": 0.04651162790696617
        },
        {
          "name": "A2",
          "midi": 45,
          "time": 162.88372093020826,
          "velocity": 0.4094488188976378,
          "duration": 0.034883720930224626
        },
        {
          "name": "D7",
          "midi": 98,
          "time": 162.88372093020826,
          "velocity": 0.14173228346456693,
          "duration": 0.19767441860460622
        },
        {
          "name": "F#5",
          "midi": 78,
          "time": 162.90697674416174,
          "velocity": 0.12598425196850394,
          "duration": 0.09302325581393234
        },
        {
          "name": "A#2",
          "midi": 46,
          "time": 162.91860465113848,
          "velocity": 0.25196850393700787,
          "duration": 0.023255813953483084
        },
        {
          "name": "E3",
          "midi": 52,
          "time": 162.91860465113848,
          "velocity": 0.2047244094488189,
          "duration": 0.034883720930224626
        },
        {
          "name": "C4",
          "midi": 60,
          "time": 162.93023255811522,
          "velocity": 0.28346456692913385,
          "duration": 0.034883720930224626
        },
        {
          "name": "F#1",
          "midi": 30,
          "time": 162.94186046509196,
          "velocity": 0.36220472440944884,
          "duration": 0.023255813953483084
        },
        {
          "name": "G4",
          "midi": 67,
          "time": 162.94186046509196,
          "velocity": 0.08661417322834646,
          "duration": 0.034883720930224626
        },
        {
          "name": "D#7",
          "midi": 99,
          "time": 162.94186046509196,
          "velocity": 0.10236220472440945,
          "duration": 0.034883720930224626
        },
        {
          "name": "C4",
          "midi": 60,
          "time": 162.9767441860222,
          "velocity": 0.29133858267716534,
          "duration": 0.0813953488371908
        },
        {
          "name": "E5",
          "midi": 76,
          "time": 162.9767441860222,
          "velocity": 0.10236220472440945,
          "duration": 0.034883720930224626
        },
        {
          "name": "E4",
          "midi": 64,
          "time": 162.98837209299893,
          "velocity": 0.29133858267716534,
          "duration": 0.04651162790696617
        },
        {
          "name": "B4",
          "midi": 71,
          "time": 162.98837209299893,
          "velocity": 0.2125984251968504,
          "duration": 0.034883720930224626
        },
        {
          "name": "A4",
          "midi": 69,
          "time": 163.02325581392915,
          "velocity": 0.29133858267716534,
          "duration": 0.2209302325580893
        },
        {
          "name": "F4",
          "midi": 65,
          "time": 163.0348837209059,
          "velocity": 0.3937007874015748,
          "duration": 0.10465116279067388
        },
        {
          "name": "B4",
          "midi": 71,
          "time": 163.0348837209059,
          "velocity": 0.3228346456692913,
          "duration": 0.17441860465112313
        },
        {
          "name": "E5",
          "midi": 76,
          "time": 163.04651162788264,
          "velocity": 0.2047244094488189,
          "duration": 0.0813953488371908
        },
        {
          "name": "A5",
          "midi": 81,
          "time": 163.04651162788264,
          "velocity": 0.30708661417322836,
          "duration": 0.10465116279067388
        },
        {
          "name": "C#7",
          "midi": 97,
          "time": 163.06976744183612,
          "velocity": 0.08661417322834646,
          "duration": 0.04651162790696617
        },
        {
          "name": "G1",
          "midi": 31,
          "time": 163.08139534881286,
          "velocity": 0.33070866141732286,
          "duration": 0.023255813953483084
        },
        {
          "name": "A2",
          "midi": 45,
          "time": 163.08139534881286,
          "velocity": 0.3779527559055118,
          "duration": 0.023255813953483084
        },
        {
          "name": "F#6",
          "midi": 90,
          "time": 163.08139534881286,
          "velocity": 0.10236220472440945,
          "duration": 0.09302325581393234
        },
        {
          "name": "F3",
          "midi": 53,
          "time": 163.0930232557896,
          "velocity": 0.2204724409448819,
          "duration": 0.05813953488370771
        },
        {
          "name": "B3",
          "midi": 59,
          "time": 163.1162790697431,
          "velocity": 0.1732283464566929,
          "duration": 0.04651162790696617
        },
        {
          "name": "D7",
          "midi": 98,
          "time": 163.1162790697431,
          "velocity": 0.11811023622047244,
          "duration": 0.1395348837208985
        },
        {
          "name": "E4",
          "midi": 64,
          "time": 163.13953488369657,
          "velocity": 0.28346456692913385,
          "duration": 0.10465116279067388
        },
        {
          "name": "G#2",
          "midi": 44,
          "time": 163.1511627906733,
          "velocity": 0.3700787401574803,
          "duration": 0.034883720930224626
        },
        {
          "name": "E3",
          "midi": 52,
          "time": 163.1511627906733,
          "velocity": 0.2440944881889764,
          "duration": 0.023255813953483084
        },
        {
          "name": "F3",
          "midi": 53,
          "time": 163.1744186046268,
          "velocity": 0.2677165354330709,
          "duration": 0.023255813953483084
        },
        {
          "name": "A2",
          "midi": 45,
          "time": 163.18604651160354,
          "velocity": 0.30708661417322836,
          "duration": 0.023255813953483084
        },
        {
          "name": "E3",
          "midi": 52,
          "time": 163.19767441858028,
          "velocity": 0.2283464566929134,
          "duration": 0.04651162790696617
        },
        {
          "name": "B3",
          "midi": 59,
          "time": 163.19767441858028,
          "velocity": 0.1732283464566929,
          "duration": 0.06976744186044925
        },
        {
          "name": "C5",
          "midi": 72,
          "time": 163.20930232555702,
          "velocity": 0.13385826771653545,
          "duration": 0.04651162790696617
        },
        {
          "name": "F#2",
          "midi": 42,
          "time": 163.24418604648724,
          "velocity": 0.3543307086614173,
          "duration": 0.034883720930224626
        },
        {
          "name": "F3",
          "midi": 53,
          "time": 163.24418604648724,
          "velocity": 0.30708661417322836,
          "duration": 0.023255813953483084
        },
        {
          "name": "G4",
          "midi": 67,
          "time": 163.24418604648724,
          "velocity": 0.4881889763779528,
          "duration": 0.11627906976741542
        },
        {
          "name": "E4",
          "midi": 64,
          "time": 163.25581395346398,
          "velocity": 0.3858267716535433,
          "duration": 0.2209302325580893
        },
        {
          "name": "B4",
          "midi": 71,
          "time": 163.25581395346398,
          "velocity": 0.30708661417322836,
          "duration": 0.06976744186044925
        },
        {
          "name": "E3",
          "midi": 52,
          "time": 163.26744186044073,
          "velocity": 0.2992125984251969,
          "duration": 0.034883720930224626
        },
        {
          "name": "F#6",
          "midi": 90,
          "time": 163.26744186044073,
          "velocity": 0.07874015748031496,
          "duration": 0.06976744186044925
        },
        {
          "name": "G2",
          "midi": 43,
          "time": 163.2906976743942,
          "velocity": 0.3228346456692913,
          "duration": 0.023255813953483084
        },
        {
          "name": "B3",
          "midi": 59,
          "time": 163.2906976743942,
          "velocity": 0.09448818897637795,
          "duration": 0.034883720930224626
        },
        {
          "name": "D7",
          "midi": 98,
          "time": 163.2906976743942,
          "velocity": 0.16535433070866143,
          "duration": 0.23255813953483084
        },
        {
          "name": "D6",
          "midi": 86,
          "time": 163.30232558137095,
          "velocity": 0.1732283464566929,
          "duration": 0.10465116279067388
        },
        {
          "name": "A6",
          "midi": 93,
          "time": 163.30232558137095,
          "velocity": 0.2125984251968504,
          "duration": 0.3023255813952801
        },
        {
          "name": "F#2",
          "midi": 42,
          "time": 163.3139534883477,
          "velocity": 0.3543307086614173,
          "duration": 0.023255813953483084
        },
        {
          "name": "A4",
          "midi": 69,
          "time": 163.32558139532443,
          "velocity": 0.25984251968503935,
          "duration": 0.15116279069764005
        },
        {
          "name": "E6",
          "midi": 88,
          "time": 163.33720930230118,
          "velocity": 0.1732283464566929,
          "duration": 0.05813953488370771
        },
        {
          "name": "F#2",
          "midi": 42,
          "time": 163.34883720927792,
          "velocity": 0.33070866141732286,
          "duration": 0.023255813953483084
        },
        {
          "name": "E3",
          "midi": 52,
          "time": 163.34883720927792,
          "velocity": 0.28346456692913385,
          "duration": 0.09302325581393234
        },
        {
          "name": "B4",
          "midi": 71,
          "time": 163.34883720927792,
          "velocity": 0.2204724409448819,
          "duration": 0.034883720930224626
        },
        {
          "name": "B3",
          "midi": 59,
          "time": 163.3720930232314,
          "velocity": 0.13385826771653545,
          "duration": 0.04651162790696617
        },
        {
          "name": "B4",
          "midi": 71,
          "time": 163.39534883718488,
          "velocity": 0.2125984251968504,
          "duration": 0.06976744186044925
        },
        {
          "name": "G2",
          "midi": 43,
          "time": 163.41860465113837,
          "velocity": 0.2677165354330709,
          "duration": 0.023255813953483084
        },
        {
          "name": "B5",
          "midi": 83,
          "time": 163.44186046509185,
          "velocity": 0.31496062992125984,
          "duration": 0.10465116279067388
        },
        {
          "name": "E6",
          "midi": 88,
          "time": 163.46511627904533,
          "velocity": 0.12598425196850394,
          "duration": 0.04651162790696617
        },
        {
          "name": "G#2",
          "midi": 44,
          "time": 163.47674418602207,
          "velocity": 0.3543307086614173,
          "duration": 0.023255813953483084
        },
        {
          "name": "F4",
          "midi": 65,
          "time": 163.47674418602207,
          "velocity": 0.3858267716535433,
          "duration": 0.06976744186044925
        },
        {
          "name": "B4",
          "midi": 71,
          "time": 163.47674418602207,
          "velocity": 0.4330708661417323,
          "duration": 0.0813953488371908
        },
        {
          "name": "B2",
          "midi": 47,
          "time": 163.49999999997556,
          "velocity": 0.31496062992125984,
          "duration": 0.023255813953483084
        },
        {
          "name": "F3",
          "midi": 53,
          "time": 163.49999999997556,
          "velocity": 0.2992125984251969,
          "duration": 0.0813953488371908
        },
        {
          "name": "A4",
          "midi": 69,
          "time": 163.52325581392904,
          "velocity": 0.33070866141732286,
          "duration": 0.3604651162789878
        },
        {
          "name": "G2",
          "midi": 43,
          "time": 163.53488372090578,
          "velocity": 0.25196850393700787,
          "duration": 0.023255813953483084
        },
        {
          "name": "G4",
          "midi": 67,
          "time": 163.55813953485927,
          "velocity": 0.1732283464566929,
          "duration": 0.034883720930224626
        },
        {
          "name": "B6",
          "midi": 95,
          "time": 163.55813953485927,
          "velocity": 0.10236220472440945,
          "duration": 0.05813953488370771
        },
        {
          "name": "D7",
          "midi": 98,
          "time": 163.55813953485927,
          "velocity": 0.18110236220472442,
          "duration": 0.48837209302314477
        },
        {
          "name": "E3",
          "midi": 52,
          "time": 163.58139534881275,
          "velocity": 0.13385826771653545,
          "duration": 0.034883720930224626
        },
        {
          "name": "B4",
          "midi": 71,
          "time": 163.58139534881275,
          "velocity": 0.1968503937007874,
          "duration": 0.034883720930224626
        },
        {
          "name": "E5",
          "midi": 76,
          "time": 163.5930232557895,
          "velocity": 0.14173228346456693,
          "duration": 0.034883720930224626
        },
        {
          "name": "B5",
          "midi": 83,
          "time": 163.5930232557895,
          "velocity": 0.2047244094488189,
          "duration": 0.12790697674415696
        },
        {
          "name": "C5",
          "midi": 72,
          "time": 163.61627906974297,
          "velocity": 0.12598425196850394,
          "duration": 0.034883720930224626
        },
        {
          "name": "G2",
          "midi": 43,
          "time": 163.62790697671971,
          "velocity": 0.25984251968503935,
          "duration": 0.023255813953483084
        },
        {
          "name": "A6",
          "midi": 93,
          "time": 163.63953488369646,
          "velocity": 0.3228346456692913,
          "duration": 0.23255813953483084
        },
        {
          "name": "G2",
          "midi": 43,
          "time": 163.66279069764994,
          "velocity": 0.41732283464566927,
          "duration": 0.04651162790696617
        },
        {
          "name": "F3",
          "midi": 53,
          "time": 163.68604651160342,
          "velocity": 0.3228346456692913,
          "duration": 0.034883720930224626
        },
        {
          "name": "C4",
          "midi": 60,
          "time": 163.69767441858016,
          "velocity": 0.2992125984251969,
          "duration": 0.05813953488370771
        },
        {
          "name": "B4",
          "midi": 71,
          "time": 163.7093023255569,
          "velocity": 0.31496062992125984,
          "duration": 0.034883720930224626
        },
        {
          "name": "D1",
          "midi": 26,
          "time": 163.72093023253365,
          "velocity": 0.25984251968503935,
          "duration": 0.023255813953483084
        },
        {
          "name": "D6",
          "midi": 86,
          "time": 163.72093023253365,
          "velocity": 0.08661417322834646,
          "duration": 0.06976744186044925
        },
        {
          "name": "A#2",
          "midi": 46,
          "time": 163.7325581395104,
          "velocity": 0.30708661417322836,
          "duration": 0.023255813953483084
        },
        {
          "name": "E3",
          "midi": 52,
          "time": 163.75581395346387,
          "velocity": 0.28346456692913385,
          "duration": 0.09302325581393234
        },
        {
          "name": "B4",
          "midi": 71,
          "time": 163.75581395346387,
          "velocity": 0.2204724409448819,
          "duration": 0.06976744186044925
        },
        {
          "name": "G#2",
          "midi": 44,
          "time": 163.83720930230106,
          "velocity": 0.29133858267716534,
          "duration": 0.023255813953483084
        },
        {
          "name": "E3",
          "midi": 52,
          "time": 163.86046511625455,
          "velocity": 0.18110236220472442,
          "duration": 0.034883720930224626
        },
        {
          "name": "B4",
          "midi": 71,
          "time": 163.86046511625455,
          "velocity": 0.25984251968503935,
          "duration": 0.1627906976743816
        },
        {
          "name": "E4",
          "midi": 64,
          "time": 163.88372093020803,
          "velocity": 0.31496062992125984,
          "duration": 0.034883720930224626
        },
        {
          "name": "D6",
          "midi": 86,
          "time": 163.88372093020803,
          "velocity": 0.11811023622047244,
          "duration": 0.06976744186044925
        },
        {
          "name": "B5",
          "midi": 83,
          "time": 163.89534883718477,
          "velocity": 0.28346456692913385,
          "duration": 0.3023255813952801
        },
        {
          "name": "E3",
          "midi": 52,
          "time": 163.9069767441615,
          "velocity": 0.2283464566929134,
          "duration": 0.04651162790696617
        },
        {
          "name": "F2",
          "midi": 41,
          "time": 163.91860465113825,
          "velocity": 0.33070866141732286,
          "duration": 0.023255813953483084
        },
        {
          "name": "F4",
          "midi": 65,
          "time": 163.91860465113825,
          "velocity": 0.25196850393700787,
          "duration": 0.023255813953483084
        },
        {
          "name": "G#6",
          "midi": 92,
          "time": 163.91860465113825,
          "velocity": 0.15748031496062992,
          "duration": 0.3023255813952801
        },
        {
          "name": "E4",
          "midi": 64,
          "time": 163.94186046509174,
          "velocity": 0.30708661417322836,
          "duration": 0.11627906976741542
        },
        {
          "name": "G2",
          "midi": 43,
          "time": 163.96511627904522,
          "velocity": 0.2440944881889764,
          "duration": 0.034883720930224626
        },
        {
          "name": "F#5",
          "midi": 78,
          "time": 163.97674418602196,
          "velocity": 0.1732283464566929,
          "duration": 0.06976744186044925
        },
        {
          "name": "D6",
          "midi": 86,
          "time": 163.97674418602196,
          "velocity": 0.10236220472440945,
          "duration": 0.10465116279067388
        },
        {
          "name": "E3",
          "midi": 52,
          "time": 164.01162790695219,
          "velocity": 0.14960629921259844,
          "duration": 0.034883720930224626
        },
        {
          "name": "F2",
          "midi": 41,
          "time": 164.02325581392893,
          "velocity": 0.2677165354330709,
          "duration": 0.023255813953483084
        },
        {
          "name": "B4",
          "midi": 71,
          "time": 164.0465116278824,
          "velocity": 0.3700787401574803,
          "duration": 0.17441860465112313
        },
        {
          "name": "F#5",
          "midi": 78,
          "time": 164.0697674418359,
          "velocity": 0.14173228346456693,
          "duration": 0.034883720930224626
        },
        {
          "name": "D#4",
          "midi": 63,
          "time": 164.09302325578938,
          "velocity": 0.3464566929133858,
          "duration": 0.023255813953483084
        },
        {
          "name": "D#6",
          "midi": 87,
          "time": 164.09302325578938,
          "velocity": 0.14173228346456693,
          "duration": 0.034883720930224626
        },
        {
          "name": "A2",
          "midi": 45,
          "time": 164.10465116276612,
          "velocity": 0.5354330708661418,
          "duration": 0.011627906976741542
        },
        {
          "name": "F#4",
          "midi": 66,
          "time": 164.10465116276612,
          "velocity": 0.33070866141732286,
          "duration": 0.034883720930224626
        },
        {
          "name": "A4",
          "midi": 69,
          "time": 164.10465116276612,
          "velocity": 0.25984251968503935,
          "duration": 0.034883720930224626
        },
        {
          "name": "C#6",
          "midi": 85,
          "time": 164.10465116276612,
          "velocity": 0.12598425196850394,
          "duration": 0.034883720930224626
        },
        {
          "name": "F2",
          "midi": 41,
          "time": 164.11627906974286,
          "velocity": 0.5275590551181102,
          "duration": 0.011627906976741542
        },
        {
          "name": "C3",
          "midi": 48,
          "time": 164.11627906974286,
          "velocity": 0.5354330708661418,
          "duration": 0.011627906976741542
        },
        {
          "name": "F#6",
          "midi": 90,
          "time": 164.11627906974286,
          "velocity": 0.2125984251968504,
          "duration": 0.09302325581393234
        },
        {
          "name": "C4",
          "midi": 60,
          "time": 164.1279069767196,
          "velocity": 0.3228346456692913,
          "duration": 0.023255813953483084
        },
        {
          "name": "E4",
          "midi": 64,
          "time": 164.1279069767196,
          "velocity": 0.33070866141732286,
          "duration": 0.05813953488370771
        },
        {
          "name": "F7",
          "midi": 101,
          "time": 164.1279069767196,
          "velocity": 0.10236220472440945,
          "duration": 0.034883720930224626
        },
        {
          "name": "F3",
          "midi": 53,
          "time": 164.13953488369634,
          "velocity": 0.3464566929133858,
          "duration": 0.023255813953483084
        },
        {
          "name": "G#5",
          "midi": 80,
          "time": 164.15116279067308,
          "velocity": 0.11811023622047244,
          "duration": 0.034883720930224626
        },
        {
          "name": "C4",
          "midi": 60,
          "time": 164.16279069764983,
          "velocity": 0.23622047244094488,
          "duration": 0.023255813953483084
        },
        {
          "name": "F2",
          "midi": 41,
          "time": 164.17441860462657,
          "velocity": 0.5590551181102362,
          "duration": 0.011627906976741542
        },
        {
          "name": "D#6",
          "midi": 87,
          "time": 164.17441860462657,
          "velocity": 0.14960629921259844,
          "duration": 0.034883720930224626
        },
        {
          "name": "E6",
          "midi": 88,
          "time": 164.17441860462657,
          "velocity": 0.31496062992125984,
          "duration": 1.1744186046508958
        },
        {
          "name": "E2",
          "midi": 40,
          "time": 164.1860465116033,
          "velocity": 0.5354330708661418,
          "duration": 0.011627906976741542
        },
        {
          "name": "A#3",
          "midi": 58,
          "time": 164.1860465116033,
          "velocity": 0.30708661417322836,
          "duration": 0.034883720930224626
        },
        {
          "name": "A5",
          "midi": 81,
          "time": 164.1860465116033,
          "velocity": 0.1889763779527559,
          "duration": 0.034883720930224626
        },
        {
          "name": "E4",
          "midi": 64,
          "time": 164.19767441858005,
          "velocity": 0.2677165354330709,
          "duration": 0.0813953488371908
        },
        {
          "name": "C2",
          "midi": 36,
          "time": 164.2093023255568,
          "velocity": 0.4409448818897638,
          "duration": 0.034883720930224626
        },
        {
          "name": "C#3",
          "midi": 49,
          "time": 164.2093023255568,
          "velocity": 0.44881889763779526,
          "duration": 0.023255813953483084
        },
        {
          "name": "G4",
          "midi": 67,
          "time": 164.2093023255568,
          "velocity": 0.2047244094488189,
          "duration": 0.034883720930224626
        },
        {
          "name": "C4",
          "midi": 60,
          "time": 164.22093023253353,
          "velocity": 0.2755905511811024,
          "duration": 0.023255813953483084
        },
        {
          "name": "A#4",
          "midi": 70,
          "time": 164.22093023253353,
          "velocity": 0.2204724409448819,
          "duration": 0.034883720930224626
        },
        {
          "name": "G#5",
          "midi": 80,
          "time": 164.22093023253353,
          "velocity": 0.15748031496062992,
          "duration": 0.05813953488370771
        },
        {
          "name": "B5",
          "midi": 83,
          "time": 164.22093023253353,
          "velocity": 0.2755905511811024,
          "duration": 0.09302325581393234
        },
        {
          "name": "F#6",
          "midi": 90,
          "time": 164.22093023253353,
          "velocity": 0.12598425196850394,
          "duration": 0.09302325581393234
        },
        {
          "name": "D6",
          "midi": 86,
          "time": 164.23255813951027,
          "velocity": 0.09448818897637795,
          "duration": 0.034883720930224626
        },
        {
          "name": "D5",
          "midi": 74,
          "time": 164.24418604648702,
          "velocity": 0.16535433070866143,
          "duration": 0.04651162790696617
        },
        {
          "name": "A2",
          "midi": 45,
          "time": 164.25581395346376,
          "velocity": 0.5118110236220472,
          "duration": 0.023255813953483084
        },
        {
          "name": "A#3",
          "midi": 58,
          "time": 164.25581395346376,
          "velocity": 0.2755905511811024,
          "duration": 0.023255813953483084
        },
        {
          "name": "B4",
          "midi": 71,
          "time": 164.25581395346376,
          "velocity": 0.44881889763779526,
          "duration": 0.12790697674415696
        },
        {
          "name": "F#5",
          "midi": 78,
          "time": 164.2674418604405,
          "velocity": 0.2440944881889764,
          "duration": 0.04651162790696617
        },
        {
          "name": "A5",
          "midi": 81,
          "time": 164.2674418604405,
          "velocity": 0.2283464566929134,
          "duration": 0.023255813953483084
        },
        {
          "name": "F2",
          "midi": 41,
          "time": 164.27906976741724,
          "velocity": 0.5984251968503937,
          "duration": 0.034883720930224626
        },
        {
          "name": "B3",
          "midi": 59,
          "time": 164.27906976741724,
          "velocity": 0.3543307086614173,
          "duration": 0.034883720930224626
        },
        {
          "name": "A#5",
          "midi": 82,
          "time": 164.30232558137072,
          "velocity": 0.14960629921259844,
          "duration": 0.034883720930224626
        },
        {
          "name": "E4",
          "midi": 64,
          "time": 164.31395348834747,
          "velocity": 0.3779527559055118,
          "duration": 0.06976744186044925
        },
        {
          "name": "C6",
          "midi": 84,
          "time": 164.31395348834747,
          "velocity": 0.14173228346456693,
          "duration": 0.034883720930224626
        },
        {
          "name": "C#6",
          "midi": 85,
          "time": 164.3255813953242,
          "velocity": 0.08661417322834646,
          "duration": 0.034883720930224626
        },
        {
          "name": "A4",
          "midi": 69,
          "time": 164.33720930230095,
          "velocity": 0.2440944881889764,
          "duration": 0.10465116279067388
        },
        {
          "name": "F#5",
          "midi": 78,
          "time": 164.33720930230095,
          "velocity": 0.33858267716535434,
          "duration": 0.29069767441853855
        },
        {
          "name": "D#6",
          "midi": 87,
          "time": 164.33720930230095,
          "velocity": 0.09448818897637795,
          "duration": 0.04651162790696617
        },
        {
          "name": "A#3",
          "midi": 58,
          "time": 164.36046511625443,
          "velocity": 0.2992125984251969,
          "duration": 0.023255813953483084
        },
        {
          "name": "F4",
          "midi": 65,
          "time": 164.38372093020791,
          "velocity": 0.33070866141732286,
          "duration": 0.023255813953483084
        },
        {
          "name": "D5",
          "midi": 74,
          "time": 164.39534883718466,
          "velocity": 0.23622047244094488,
          "duration": 0.11627906976741542
        },
        {
          "name": "B4",
          "midi": 71,
          "time": 164.4069767441614,
          "velocity": 0.25984251968503935,
          "duration": 0.12790697674415696
        },
        {
          "name": "E4",
          "midi": 64,
          "time": 164.44186046509162,
          "velocity": 0.3228346456692913,
          "duration": 0.12790697674415696
        },
        {
          "name": "C#2",
          "midi": 37,
          "time": 164.47674418602185,
          "velocity": 0.4645669291338583,
          "duration": 0.023255813953483084
        },
        {
          "name": "G#3",
          "midi": 56,
          "time": 164.47674418602185,
          "velocity": 0.23622047244094488,
          "duration": 0.023255813953483084
        },
        {
          "name": "D#3",
          "midi": 51,
          "time": 164.51162790695207,
          "velocity": 0.3937007874015748,
          "duration": 0.023255813953483084
        },
        {
          "name": "G#2",
          "midi": 44,
          "time": 164.53488372090555,
          "velocity": 0.48031496062992124,
          "duration": 0.034883720930224626
        },
        {
          "name": "C4",
          "midi": 60,
          "time": 164.53488372090555,
          "velocity": 0.3779527559055118,
          "duration": 0.05813953488370771
        },
        {
          "name": "A4",
          "midi": 69,
          "time": 164.53488372090555,
          "velocity": 0.33070866141732286,
          "duration": 0.1395348837208985
        },
        {
          "name": "G#5",
          "midi": 80,
          "time": 164.53488372090555,
          "velocity": 0.1732283464566929,
          "duration": 0.034883720930224626
        },
        {
          "name": "C#7",
          "midi": 97,
          "time": 164.53488372090555,
          "velocity": 0.23622047244094488,
          "duration": 0.11627906976741542
        },
        {
          "name": "D6",
          "midi": 86,
          "time": 164.5465116278823,
          "velocity": 0.33858267716535434,
          "duration": 0.37209302325572935
        },
        {
          "name": "B4",
          "midi": 71,
          "time": 164.56976744183578,
          "velocity": 0.2677165354330709,
          "duration": 0.17441860465112313
        },
        {
          "name": "D5",
          "midi": 74,
          "time": 164.56976744183578,
          "velocity": 0.3700787401574803,
          "duration": 0.3255813953487632
        },
        {
          "name": "E4",
          "midi": 64,
          "time": 164.58139534881252,
          "velocity": 0.2440944881889764,
          "duration": 0.12790697674415696
        },
        {
          "name": "C#4",
          "midi": 61,
          "time": 164.59302325578926,
          "velocity": 0.2440944881889764,
          "duration": 0.023255813953483084
        },
        {
          "name": "B6",
          "midi": 95,
          "time": 164.59302325578926,
          "velocity": 0.11023622047244094,
          "duration": 0.17441860465112313
        },
        {
          "name": "A2",
          "midi": 45,
          "time": 164.61627906974275,
          "velocity": 0.4251968503937008,
          "duration": 0.023255813953483084
        },
        {
          "name": "E3",
          "midi": 52,
          "time": 164.61627906974275,
          "velocity": 0.3464566929133858,
          "duration": 0.05813953488370771
        },
        {
          "name": "A5",
          "midi": 81,
          "time": 164.67441860462645,
          "velocity": 0.14960629921259844,
          "duration": 0.10465116279067388
        },
        {
          "name": "D4",
          "midi": 62,
          "time": 164.69767441857994,
          "velocity": 0.2204724409448819,
          "duration": 0.04651162790696617
        },
        {
          "name": "F2",
          "midi": 41,
          "time": 164.73255813951016,
          "velocity": 0.31496062992125984,
          "duration": 0.023255813953483084
        },
        {
          "name": "F#5",
          "midi": 78,
          "time": 164.73255813951016,
          "velocity": 0.09448818897637795,
          "duration": 0.04651162790696617
        },
        {
          "name": "F4",
          "midi": 65,
          "time": 164.75581395346364,
          "velocity": 0.41732283464566927,
          "duration": 0.06976744186044925
        },
        {
          "name": "B4",
          "midi": 71,
          "time": 164.75581395346364,
          "velocity": 0.30708661417322836,
          "duration": 0.18604651162786467
        },
        {
          "name": "A6",
          "midi": 93,
          "time": 164.75581395346364,
          "velocity": 0.25196850393700787,
          "duration": 0.12790697674415696
        },
        {
          "name": "F#3",
          "midi": 54,
          "time": 164.77906976741713,
          "velocity": 0.2440944881889764,
          "duration": 0.023255813953483084
        },
        {
          "name": "G#2",
          "midi": 44,
          "time": 164.79069767439387,
          "velocity": 0.4330708661417323,
          "duration": 0.023255813953483084
        },
        {
          "name": "F#2",
          "midi": 42,
          "time": 164.81395348834735,
          "velocity": 0.41732283464566927,
          "duration": 0.023255813953483084
        },
        {
          "name": "A5",
          "midi": 81,
          "time": 164.81395348834735,
          "velocity": 0.2047244094488189,
          "duration": 0.06976744186044925
        },
        {
          "name": "B6",
          "midi": 95,
          "time": 164.81395348834735,
          "velocity": 0.15748031496062992,
          "duration": 0.23255813953483084
        },
        {
          "name": "E5",
          "midi": 76,
          "time": 164.8255813953241,
          "velocity": 0.10236220472440945,
          "duration": 0.05813953488370771
        },
        {
          "name": "G2",
          "midi": 43,
          "time": 164.83720930230083,
          "velocity": 0.31496062992125984,
          "duration": 0.023255813953483084
        },
        {
          "name": "F#5",
          "midi": 78,
          "time": 164.83720930230083,
          "velocity": 0.13385826771653545,
          "duration": 0.06976744186044925
        },
        {
          "name": "D#4",
          "midi": 63,
          "time": 164.84883720927758,
          "velocity": 0.2440944881889764,
          "duration": 0.023255813953483084
        },
        {
          "name": "E4",
          "midi": 64,
          "time": 164.87209302323106,
          "velocity": 0.2677165354330709,
          "duration": 0.09302325581393234
        },
        {
          "name": "A5",
          "midi": 81,
          "time": 164.89534883718454,
          "velocity": 0.15748031496062992,
          "duration": 0.0813953488371908
        },
        {
          "name": "D5",
          "midi": 74,
          "time": 164.91860465113803,
          "velocity": 0.2677165354330709,
          "duration": 0.06976744186044925
        },
        {
          "name": "G4",
          "midi": 67,
          "time": 164.95348837206825,
          "velocity": 0.5118110236220472,
          "duration": 0.1395348837208985
        },
        {
          "name": "F2",
          "midi": 41,
          "time": 164.97674418602173,
          "velocity": 0.3779527559055118,
          "duration": 0.023255813953483084
        },
        {
          "name": "B4",
          "midi": 71,
          "time": 164.98837209299847,
          "velocity": 0.2047244094488189,
          "duration": 0.0813953488371908
        },
        {
          "name": "D6",
          "midi": 86,
          "time": 164.98837209299847,
          "velocity": 0.1732283464566929,
          "duration": 0.09302325581393234
        },
        {
          "name": "A5",
          "midi": 81,
          "time": 164.99999999997522,
          "velocity": 0.12598425196850394,
          "duration": 0.04651162790696617
        },
        {
          "name": "A#5",
          "midi": 82,
          "time": 164.99999999997522,
          "velocity": 0.15748031496062992,
          "duration": 0.034883720930224626
        },
        {
          "name": "F#6",
          "midi": 90,
          "time": 164.99999999997522,
          "velocity": 0.10236220472440945,
          "duration": 0.034883720930224626
        },
        {
          "name": "G#2",
          "midi": 44,
          "time": 165.01162790695196,
          "velocity": 0.3464566929133858,
          "duration": 0.034883720930224626
        },
        {
          "name": "D5",
          "midi": 74,
          "time": 165.01162790695196,
          "velocity": 0.25984251968503935,
          "duration": 0.04651162790696617
        },
        {
          "name": "D4",
          "midi": 62,
          "time": 165.0232558139287,
          "velocity": 0.14173228346456693,
          "duration": 0.06976744186044925
        },
        {
          "name": "E5",
          "midi": 76,
          "time": 165.03488372090544,
          "velocity": 0.3700787401574803,
          "duration": 0.37209302325572935
        },
        {
          "name": "D5",
          "midi": 74,
          "time": 165.06976744183567,
          "velocity": 0.3937007874015748,
          "duration": 0.34883720930224626
        },
        {
          "name": "B4",
          "midi": 71,
          "time": 165.09302325578915,
          "velocity": 0.12598425196850394,
          "duration": 0.09302325581393234
        },
        {
          "name": "A5",
          "midi": 81,
          "time": 165.09302325578915,
          "velocity": 0.13385826771653545,
          "duration": 0.034883720930224626
        },
        {
          "name": "D4",
          "midi": 62,
          "time": 165.1046511627659,
          "velocity": 0.16535433070866143,
          "duration": 0.06976744186044925
        },
        {
          "name": "E3",
          "midi": 52,
          "time": 165.11627906974263,
          "velocity": 0.2204724409448819,
          "duration": 0.05813953488370771
        },
        {
          "name": "F2",
          "midi": 41,
          "time": 165.12790697671937,
          "velocity": 0.3937007874015748,
          "duration": 0.034883720930224626
        },
        {
          "name": "G2",
          "midi": 43,
          "time": 165.1627906976496,
          "velocity": 0.2992125984251969,
          "duration": 0.023255813953483084
        },
        {
          "name": "A5",
          "midi": 81,
          "time": 165.17441860462634,
          "velocity": 0.12598425196850394,
          "duration": 0.06976744186044925
        },
        {
          "name": "B5",
          "midi": 83,
          "time": 165.17441860462634,
          "velocity": 0.2125984251968504,
          "duration": 0.06976744186044925
        },
        {
          "name": "F4",
          "midi": 65,
          "time": 165.18604651160308,
          "velocity": 0.3464566929133858,
          "duration": 0.09302325581393234
        },
        {
          "name": "A4",
          "midi": 69,
          "time": 165.18604651160308,
          "velocity": 0.2440944881889764,
          "duration": 0.09302325581393234
        },
        {
          "name": "B6",
          "midi": 95,
          "time": 165.18604651160308,
          "velocity": 0.2283464566929134,
          "duration": 0.37209302325572935
        },
        {
          "name": "F3",
          "midi": 53,
          "time": 165.20930232555656,
          "velocity": 0.33858267716535434,
          "duration": 0.034883720930224626
        },
        {
          "name": "B4",
          "midi": 71,
          "time": 165.23255813951005,
          "velocity": 0.23622047244094488,
          "duration": 0.09302325581393234
        },
        {
          "name": "D4",
          "midi": 62,
          "time": 165.26744186044027,
          "velocity": 0.1732283464566929,
          "duration": 0.034883720930224626
        },
        {
          "name": "A5",
          "midi": 81,
          "time": 165.279069767417,
          "velocity": 0.13385826771653545,
          "duration": 0.0813953488371908
        },
        {
          "name": "B5",
          "midi": 83,
          "time": 165.33720930230072,
          "velocity": 0.28346456692913385,
          "duration": 0.3837209302324709
        },
        {
          "name": "F#6",
          "midi": 90,
          "time": 165.34883720927746,
          "velocity": 0.12598425196850394,
          "duration": 0.034883720930224626
        },
        {
          "name": "F#2",
          "midi": 42,
          "time": 165.3604651162542,
          "velocity": 0.2992125984251969,
          "duration": 0.034883720930224626
        },
        {
          "name": "B4",
          "midi": 71,
          "time": 165.3604651162542,
          "velocity": 0.11023622047244094,
          "duration": 0.034883720930224626
        },
        {
          "name": "A5",
          "midi": 81,
          "time": 165.37209302323095,
          "velocity": 0.16535433070866143,
          "duration": 0.06976744186044925
        },
        {
          "name": "C5",
          "midi": 72,
          "time": 165.39534883718443,
          "velocity": 0.33070866141732286,
          "duration": 0.023255813953483084
        },
        {
          "name": "E7",
          "midi": 100,
          "time": 165.39534883718443,
          "velocity": 0.1732283464566929,
          "duration": 0.10465116279067388
        },
        {
          "name": "F3",
          "midi": 53,
          "time": 165.40697674416117,
          "velocity": 0.3228346456692913,
          "duration": 0.04651162790696617
        },
        {
          "name": "C4",
          "midi": 60,
          "time": 165.40697674416117,
          "velocity": 0.29133858267716534,
          "duration": 0.0813953488371908
        },
        {
          "name": "E6",
          "midi": 88,
          "time": 165.40697674416117,
          "velocity": 0.1968503937007874,
          "duration": 0.2209302325580893
        },
        {
          "name": "B4",
          "midi": 71,
          "time": 165.4186046511379,
          "velocity": 0.41732283464566927,
          "duration": 0.0813953488371908
        },
        {
          "name": "E5",
          "midi": 76,
          "time": 165.4186046511379,
          "velocity": 0.07086614173228346,
          "duration": 0.034883720930224626
        },
        {
          "name": "C#2",
          "midi": 37,
          "time": 165.43023255811465,
          "velocity": 0.28346456692913385,
          "duration": 0.034883720930224626
        },
        {
          "name": "D5",
          "midi": 74,
          "time": 165.43023255811465,
          "velocity": 0.44881889763779526,
          "duration": 0.39534883720921243
        },
        {
          "name": "B2",
          "midi": 47,
          "time": 165.4418604650914,
          "velocity": 0.2755905511811024,
          "duration": 0.034883720930224626
        },
        {
          "name": "G4",
          "midi": 67,
          "time": 165.4418604650914,
          "velocity": 0.11023622047244094,
          "duration": 0.04651162790696617
        },
        {
          "name": "F#6",
          "midi": 90,
          "time": 165.45348837206814,
          "velocity": 0.07086614173228346,
          "duration": 0.06976744186044925
        },
        {
          "name": "B1",
          "midi": 35,
          "time": 165.51162790695184,
          "velocity": 0.25196850393700787,
          "duration": 0.023255813953483084
        },
        {
          "name": "E3",
          "midi": 52,
          "time": 165.51162790695184,
          "velocity": 0.23622047244094488,
          "duration": 0.06976744186044925
        },
        {
          "name": "D4",
          "midi": 62,
          "time": 165.51162790695184,
          "velocity": 0.1968503937007874,
          "duration": 0.11627906976741542
        },
        {
          "name": "G4",
          "midi": 67,
          "time": 165.51162790695184,
          "velocity": 0.11811023622047244,
          "duration": 0.04651162790696617
        },
        {
          "name": "E5",
          "midi": 76,
          "time": 165.53488372090533,
          "velocity": 0.14960629921259844,
          "duration": 0.12790697674415696
        },
        {
          "name": "A5",
          "midi": 81,
          "time": 165.56976744183555,
          "velocity": 0.14960629921259844,
          "duration": 0.09302325581393234
        },
        {
          "name": "F2",
          "midi": 41,
          "time": 165.59302325578903,
          "velocity": 0.28346456692913385,
          "duration": 0.023255813953483084
        },
        {
          "name": "F#6",
          "midi": 90,
          "time": 165.59302325578903,
          "velocity": 0.11811023622047244,
          "duration": 0.05813953488370771
        },
        {
          "name": "F4",
          "midi": 65,
          "time": 165.60465116276578,
          "velocity": 0.2755905511811024,
          "duration": 0.1627906976743816
        },
        {
          "name": "B4",
          "midi": 71,
          "time": 165.60465116276578,
          "velocity": 0.09448818897637795,
          "duration": 0.04651162790696617
        },
        {
          "name": "F#2",
          "midi": 42,
          "time": 165.61627906974252,
          "velocity": 0.1968503937007874,
          "duration": 0.034883720930224626
        },
        {
          "name": "A4",
          "midi": 69,
          "time": 165.62790697671926,
          "velocity": 0.12598425196850394,
          "duration": 0.04651162790696617
        },
        {
          "name": "E6",
          "midi": 88,
          "time": 165.65116279067274,
          "velocity": 0.25984251968503935,
          "duration": 1.0348837209299973
        },
        {
          "name": "F#2",
          "midi": 42,
          "time": 165.66279069764948,
          "velocity": 0.28346456692913385,
          "duration": 0.05813953488370771
        },
        {
          "name": "B4",
          "midi": 71,
          "time": 165.68604651160297,
          "velocity": 0.3700787401574803,
          "duration": 0.48837209302314477
        },
        {
          "name": "A5",
          "midi": 81,
          "time": 165.68604651160297,
          "velocity": 0.2440944881889764,
          "duration": 0.09302325581393234
        },
        {
          "name": "E5",
          "midi": 76,
          "time": 165.70930232555645,
          "velocity": 0.09448818897637795,
          "duration": 0.05813953488370771
        },
        {
          "name": "F#6",
          "midi": 90,
          "time": 165.7209302325332,
          "velocity": 0.08661417322834646,
          "duration": 0.04651162790696617
        },
        {
          "name": "B6",
          "midi": 95,
          "time": 165.7209302325332,
          "velocity": 0.15748031496062992,
          "duration": 0.23255813953483084
        },
        {
          "name": "D4",
          "midi": 62,
          "time": 165.74418604648667,
          "velocity": 0.2283464566929134,
          "duration": 0.0813953488371908
        },
        {
          "name": "F2",
          "midi": 41,
          "time": 165.76744186044016,
          "velocity": 0.29133858267716534,
          "duration": 0.023255813953483084
        },
        {
          "name": "A5",
          "midi": 81,
          "time": 165.79069767439364,
          "velocity": 0.09448818897637795,
          "duration": 0.04651162790696617
        },
        {
          "name": "F#2",
          "midi": 42,
          "time": 165.80232558137038,
          "velocity": 0.3700787401574803,
          "duration": 0.034883720930224626
        },
        {
          "name": "E3",
          "midi": 52,
          "time": 165.82558139532387,
          "velocity": 0.3464566929133858,
          "duration": 0.034883720930224626
        },
        {
          "name": "C4",
          "midi": 60,
          "time": 165.82558139532387,
          "velocity": 0.31496062992125984,
          "duration": 0.023255813953483084
        },
        {
          "name": "E5",
          "midi": 76,
          "time": 165.82558139532387,
          "velocity": 0.41732283464566927,
          "duration": 0.15116279069764005
        },
        {
          "name": "D6",
          "midi": 86,
          "time": 165.82558139532387,
          "velocity": 0.2440944881889764,
          "duration": 0.09302325581393234
        },
        {
          "name": "F#6",
          "midi": 90,
          "time": 165.82558139532387,
          "velocity": 0.1732283464566929,
          "duration": 0.034883720930224626
        },
        {
          "name": "G4",
          "midi": 67,
          "time": 165.8372093023006,
          "velocity": 0.2440944881889764,
          "duration": 0.0813953488371908
        },
        {
          "name": "D5",
          "midi": 74,
          "time": 165.8372093023006,
          "velocity": 0.4015748031496063,
          "duration": 0.39534883720921243
        },
        {
          "name": "F#5",
          "midi": 78,
          "time": 165.8372093023006,
          "velocity": 0.16535433070866143,
          "duration": 0.06976744186044925
        },
        {
          "name": "C6",
          "midi": 84,
          "time": 165.84883720927735,
          "velocity": 0.12598425196850394,
          "duration": 0.04651162790696617
        },
        {
          "name": "F3",
          "midi": 53,
          "time": 165.8604651162541,
          "velocity": 0.33070866141732286,
          "duration": 0.023255813953483084
        },
        {
          "name": "A5",
          "midi": 81,
          "time": 165.89534883718432,
          "velocity": 0.2755905511811024,
          "duration": 0.0813953488371908
        },
        {
          "name": "D#6",
          "midi": 87,
          "time": 165.89534883718432,
          "velocity": 0.07874015748031496,
          "duration": 0.034883720930224626
        },
        {
          "name": "C#6",
          "midi": 85,
          "time": 165.9186046511378,
          "velocity": 0.10236220472440945,
          "duration": 0.034883720930224626
        },
        {
          "name": "E3",
          "midi": 52,
          "time": 165.93023255811454,
          "velocity": 0.2992125984251969,
          "duration": 0.19767441860460622
        },
        {
          "name": "D#2",
          "midi": 39,
          "time": 165.96511627904476,
          "velocity": 0.29133858267716534,
          "duration": 0.023255813953483084
        },
        {
          "name": "E4",
          "midi": 64,
          "time": 165.9767441860215,
          "velocity": 0.3779527559055118,
          "duration": 0.0813953488371908
        },
        {
          "name": "F#5",
          "midi": 78,
          "time": 165.999999999975,
          "velocity": 0.3228346456692913,
          "duration": 0.3837209302324709
        },
        {
          "name": "A#5",
          "midi": 82,
          "time": 165.999999999975,
          "velocity": 0.08661417322834646,
          "duration": 0.034883720930224626
        },
        {
          "name": "F2",
          "midi": 41,
          "time": 166.01162790695173,
          "velocity": 0.2440944881889764,
          "duration": 0.023255813953483084
        },
        {
          "name": "A5",
          "midi": 81,
          "time": 166.01162790695173,
          "velocity": 0.2677165354330709,
          "duration": 0.12790697674415696
        },
        {
          "name": "F2",
          "midi": 41,
          "time": 166.0581395348587,
          "velocity": 0.3700787401574803,
          "duration": 0.023255813953483084
        },
        {
          "name": "E4",
          "midi": 64,
          "time": 166.06976744183544,
          "velocity": 0.3464566929133858,
          "duration": 0.31395348837202164
        },
        {
          "name": "B3",
          "midi": 59,
          "time": 166.09302325578892,
          "velocity": 0.2125984251968504,
          "duration": 0.05813953488370771
        },
        {
          "name": "F#2",
          "midi": 42,
          "time": 166.10465116276566,
          "velocity": 0.3464566929133858,
          "duration": 0.04651162790696617
        },
        {
          "name": "D#3",
          "midi": 51,
          "time": 166.12790697671915,
          "velocity": 0.2755905511811024,
          "duration": 0.023255813953483084
        },
        {
          "name": "E3",
          "midi": 52,
          "time": 166.15116279067263,
          "velocity": 0.2283464566929134,
          "duration": 0.023255813953483084
        },
        {
          "name": "B3",
          "midi": 59,
          "time": 166.16279069764937,
          "velocity": 0.2204724409448819,
          "duration": 0.034883720930224626
        },
        {
          "name": "E2",
          "midi": 40,
          "time": 166.18604651160285,
          "velocity": 0.25984251968503935,
          "duration": 0.023255813953483084
        },
        {
          "name": "A5",
          "midi": 81,
          "time": 166.1976744185796,
          "velocity": 0.09448818897637795,
          "duration": 0.034883720930224626
        },
        {
          "name": "E3",
          "midi": 52,
          "time": 166.20930232555634,
          "velocity": 0.15748031496062992,
          "duration": 0.034883720930224626
        },
        {
          "name": "B3",
          "midi": 59,
          "time": 166.20930232555634,
          "velocity": 0.23622047244094488,
          "duration": 0.05813953488370771
        },
        {
          "name": "F2",
          "midi": 41,
          "time": 166.22093023253308,
          "velocity": 0.36220472440944884,
          "duration": 0.034883720930224626
        },
        {
          "name": "D5",
          "midi": 74,
          "time": 166.24418604648656,
          "velocity": 0.41732283464566927,
          "duration": 0.29069767441853855
        },
        {
          "name": "B5",
          "midi": 83,
          "time": 166.24418604648656,
          "velocity": 0.3937007874015748,
          "duration": 0.4418604651161786
        },
        {
          "name": "A5",
          "midi": 81,
          "time": 166.2558139534633,
          "velocity": 0.14173228346456693,
          "duration": 0.034883720930224626
        },
        {
          "name": "F#7",
          "midi": 102,
          "time": 166.2558139534633,
          "velocity": 0.14173228346456693,
          "duration": 0.05813953488370771
        },
        {
          "name": "A4",
          "midi": 69,
          "time": 166.26744186044004,
          "velocity": 0.09448818897637795,
          "duration": 0.04651162790696617
        },
        {
          "name": "E2",
          "midi": 40,
          "time": 166.29069767439353,
          "velocity": 0.36220472440944884,
          "duration": 0.023255813953483084
        },
        {
          "name": "A5",
          "midi": 81,
          "time": 166.30232558137027,
          "velocity": 0.15748031496062992,
          "duration": 0.04651162790696617
        },
        {
          "name": "E3",
          "midi": 52,
          "time": 166.3372093023005,
          "velocity": 0.1968503937007874,
          "duration": 0.05813953488370771
        },
        {
          "name": "B4",
          "midi": 71,
          "time": 166.34883720927724,
          "velocity": 0.2440944881889764,
          "duration": 0.11627906976741542
        },
        {
          "name": "C4",
          "midi": 60,
          "time": 166.36046511625398,
          "velocity": 0.33858267716535434,
          "duration": 0.034883720930224626
        },
        {
          "name": "F#7",
          "midi": 102,
          "time": 166.37209302323072,
          "velocity": 0.07874015748031496,
          "duration": 0.05813953488370771
        },
        {
          "name": "G4",
          "midi": 67,
          "time": 166.38372093020746,
          "velocity": 0.10236220472440945,
          "duration": 0.05813953488370771
        },
        {
          "name": "A5",
          "midi": 81,
          "time": 166.38372093020746,
          "velocity": 0.31496062992125984,
          "duration": 0.19767441860460622
        },
        {
          "name": "C4",
          "midi": 60,
          "time": 166.40697674416094,
          "velocity": 0.28346456692913385,
          "duration": 0.023255813953483084
        },
        {
          "name": "E4",
          "midi": 64,
          "time": 166.40697674416094,
          "velocity": 0.3543307086614173,
          "duration": 0.06976744186044925
        },
        {
          "name": "D#3",
          "midi": 51,
          "time": 166.43023255811443,
          "velocity": 0.2440944881889764,
          "duration": 0.034883720930224626
        },
        {
          "name": "C2",
          "midi": 36,
          "time": 166.46511627904465,
          "velocity": 0.30708661417322836,
          "duration": 0.023255813953483084
        },
        {
          "name": "F#5",
          "midi": 78,
          "time": 166.46511627904465,
          "velocity": 0.09448818897637795,
          "duration": 0.04651162790696617
        },
        {
          "name": "F3",
          "midi": 53,
          "time": 166.4767441860214,
          "velocity": 0.33858267716535434,
          "duration": 0.05813953488370771
        },
        {
          "name": "F4",
          "midi": 65,
          "time": 166.4767441860214,
          "velocity": 0.4094488188976378,
          "duration": 0.023255813953483084
        },
        {
          "name": "A4",
          "midi": 69,
          "time": 166.4767441860214,
          "velocity": 0.2677165354330709,
          "duration": 0.15116279069764005
        },
        {
          "name": "F#6",
          "midi": 90,
          "time": 166.4767441860214,
          "velocity": 0.11023622047244094,
          "duration": 0.05813953488370771
        },
        {
          "name": "A2",
          "midi": 45,
          "time": 166.51162790695162,
          "velocity": 0.3779527559055118,
          "duration": 0.023255813953483084
        },
        {
          "name": "E4",
          "midi": 64,
          "time": 166.52325581392836,
          "velocity": 0.2755905511811024,
          "duration": 0.15116279069764005
        },
        {
          "name": "C#2",
          "midi": 37,
          "time": 166.54651162788184,
          "velocity": 0.30708661417322836,
          "duration": 0.034883720930224626
        },
        {
          "name": "E3",
          "midi": 52,
          "time": 166.54651162788184,
          "velocity": 0.2755905511811024,
          "duration": 0.06976744186044925
        },
        {
          "name": "B4",
          "midi": 71,
          "time": 166.54651162788184,
          "velocity": 0.2047244094488189,
          "duration": 0.12790697674415696
        },
        {
          "name": "D5",
          "midi": 74,
          "time": 166.55813953485858,
          "velocity": 0.33858267716535434,
          "duration": 0.2558139534883139
        },
        {
          "name": "B2",
          "midi": 47,
          "time": 166.60465116276555,
          "velocity": 0.29133858267716534,
          "duration": 0.023255813953483084
        },
        {
          "name": "E3",
          "midi": 52,
          "time": 166.62790697671903,
          "velocity": 0.2755905511811024,
          "duration": 0.034883720930224626
        },
        {
          "name": "F#6",
          "midi": 90,
          "time": 166.63953488369577,
          "velocity": 0.11023622047244094,
          "duration": 0.06976744186044925
        },
        {
          "name": "D#3",
          "midi": 51,
          "time": 166.66279069764926,
          "velocity": 0.3464566929133858,
          "duration": 0.023255813953483084
        },
        {
          "name": "G4",
          "midi": 67,
          "time": 166.674418604626,
          "velocity": 0.5118110236220472,
          "duration": 0.20930232558134776
        },
        {
          "name": "A#5",
          "midi": 82,
          "time": 166.674418604626,
          "velocity": 0.23622047244094488,
          "duration": 0.04651162790696617
        },
        {
          "name": "C2",
          "midi": 36,
          "time": 166.68604651160274,
          "velocity": 0.5196850393700787,
          "duration": 0.034883720930224626
        },
        {
          "name": "F3",
          "midi": 53,
          "time": 166.68604651160274,
          "velocity": 0.3228346456692913,
          "duration": 0.034883720930224626
        },
        {
          "name": "E4",
          "midi": 64,
          "time": 166.68604651160274,
          "velocity": 0.2755905511811024,
          "duration": 0.19767441860460622
        },
        {
          "name": "A#3",
          "midi": 58,
          "time": 166.69767441857948,
          "velocity": 0.2283464566929134,
          "duration": 0.04651162790696617
        },
        {
          "name": "A5",
          "midi": 81,
          "time": 166.70930232555622,
          "velocity": 0.2440944881889764,
          "duration": 0.279069767441797
        },
        {
          "name": "F#7",
          "midi": 102,
          "time": 166.70930232555622,
          "velocity": 0.07874015748031496,
          "duration": 0.04651162790696617
        },
        {
          "name": "E3",
          "midi": 52,
          "time": 166.72093023253296,
          "velocity": 0.29133858267716534,
          "duration": 0.04651162790696617
        },
        {
          "name": "B5",
          "midi": 83,
          "time": 166.72093023253296,
          "velocity": 0.3779527559055118,
          "duration": 0.279069767441797
        },
        {
          "name": "B4",
          "midi": 71,
          "time": 166.7325581395097,
          "velocity": 0.2755905511811024,
          "duration": 0.3837209302324709
        },
        {
          "name": "B3",
          "midi": 59,
          "time": 166.80232558137016,
          "velocity": 0.16535433070866143,
          "duration": 0.034883720930224626
        },
        {
          "name": "E3",
          "midi": 52,
          "time": 166.82558139532364,
          "velocity": 0.31496062992125984,
          "duration": 0.05813953488370771
        },
        {
          "name": "D5",
          "midi": 74,
          "time": 166.82558139532364,
          "velocity": 0.4015748031496063,
          "duration": 0.7093023255812341
        },
        {
          "name": "D4",
          "midi": 62,
          "time": 166.8720930232306,
          "velocity": 0.2992125984251969,
          "duration": 0.023255813953483084
        },
        {
          "name": "E2",
          "midi": 40,
          "time": 166.8953488371841,
          "velocity": 0.5905511811023622,
          "duration": 0.011627906976741542
        },
        {
          "name": "A#3",
          "midi": 58,
          "time": 166.8953488371841,
          "velocity": 0.28346456692913385,
          "duration": 0.023255813953483084
        },
        {
          "name": "F#5",
          "midi": 78,
          "time": 166.8953488371841,
          "velocity": 0.2047244094488189,
          "duration": 0.04651162790696617
        },
        {
          "name": "C#2",
          "midi": 37,
          "time": 166.90697674416083,
          "velocity": 0.6377952755905512,
          "duration": 0.011627906976741542
        },
        {
          "name": "C2",
          "midi": 36,
          "time": 166.91860465113757,
          "velocity": 0.5826771653543307,
          "duration": 0.05813953488370771
        },
        {
          "name": "E4",
          "midi": 64,
          "time": 166.91860465113757,
          "velocity": 0.4015748031496063,
          "duration": 0.04651162790696617
        },
        {
          "name": "G6",
          "midi": 91,
          "time": 166.9302325581143,
          "velocity": 0.07086614173228346,
          "duration": 0.10465116279067388
        },
        {
          "name": "E3",
          "midi": 52,
          "time": 166.96511627904454,
          "velocity": 0.30708661417322836,
          "duration": 0.04651162790696617
        },
        {
          "name": "F4",
          "midi": 65,
          "time": 166.97674418602128,
          "velocity": 0.2992125984251969,
          "duration": 0.034883720930224626
        },
        {
          "name": "A5",
          "midi": 81,
          "time": 166.99999999997476,
          "velocity": 0.3543307086614173,
          "duration": 0.2558139534883139
        },
        {
          "name": "F3",
          "midi": 53,
          "time": 167.034883720905,
          "velocity": 0.2283464566929134,
          "duration": 0.034883720930224626
        },
        {
          "name": "F2",
          "midi": 41,
          "time": 167.04651162788173,
          "velocity": 0.4566929133858268,
          "duration": 0.023255813953483084
        },
        {
          "name": "E4",
          "midi": 64,
          "time": 167.05813953485847,
          "velocity": 0.2125984251968504,
          "duration": 0.034883720930224626
        },
        {
          "name": "B1",
          "midi": 35,
          "time": 167.0930232557887,
          "velocity": 0.4645669291338583,
          "duration": 0.023255813953483084
        },
        {
          "name": "F4",
          "midi": 65,
          "time": 167.0930232557887,
          "velocity": 0.30708661417322836,
          "duration": 0.023255813953483084
        },
        {
          "name": "F3",
          "midi": 53,
          "time": 167.10465116276544,
          "velocity": 0.4645669291338583,
          "duration": 0.023255813953483084
        },
        {
          "name": "C#6",
          "midi": 85,
          "time": 167.10465116276544,
          "velocity": 0.1889763779527559,
          "duration": 0.034883720930224626
        },
        {
          "name": "F#4",
          "midi": 66,
          "time": 167.11627906974218,
          "velocity": 0.29133858267716534,
          "duration": 0.04651162790696617
        },
        {
          "name": "A4",
          "midi": 69,
          "time": 167.11627906974218,
          "velocity": 0.2677165354330709,
          "duration": 0.0813953488371908
        },
        {
          "name": "E5",
          "midi": 76,
          "time": 167.11627906974218,
          "velocity": 0.2204724409448819,
          "duration": 0.06976744186044925
        },
        {
          "name": "G6",
          "midi": 91,
          "time": 167.11627906974218,
          "velocity": 0.11811023622047244,
          "duration": 0.11627906976741542
        },
        {
          "name": "D2",
          "midi": 38,
          "time": 167.12790697671892,
          "velocity": 0.5826771653543307,
          "duration": 0.011627906976741542
        },
        {
          "name": "F#3",
          "midi": 54,
          "time": 167.12790697671892,
          "velocity": 0.3858267716535433,
          "duration": 0.023255813953483084
        },
        {
          "name": "B4",
          "midi": 71,
          "time": 167.12790697671892,
          "velocity": 0.2283464566929134,
          "duration": 0.12790697674415696
        },
        {
          "name": "E2",
          "midi": 40,
          "time": 167.13953488369566,
          "velocity": 0.5905511811023622,
          "duration": 0.011627906976741542
        },
        {
          "name": "C4",
          "midi": 60,
          "time": 167.13953488369566,
          "velocity": 0.3779527559055118,
          "duration": 0.0813953488371908
        },
        {
          "name": "F3",
          "midi": 53,
          "time": 167.1511627906724,
          "velocity": 0.33858267716535434,
          "duration": 0.023255813953483084
        },
        {
          "name": "B1",
          "midi": 35,
          "time": 167.17441860462588,
          "velocity": 0.5433070866141733,
          "duration": 0.011627906976741542
        },
        {
          "name": "C2",
          "midi": 36,
          "time": 167.18604651160263,
          "velocity": 0.49606299212598426,
          "duration": 0.034883720930224626
        },
        {
          "name": "F3",
          "midi": 53,
          "time": 167.19767441857937,
          "velocity": 0.33070866141732286,
          "duration": 0.04651162790696617
        },
        {
          "name": "D2",
          "midi": 38,
          "time": 167.22093023253285,
          "velocity": 0.4881889763779528,
          "duration": 0.023255813953483084
        },
        {
          "name": "A4",
          "midi": 69,
          "time": 167.2325581395096,
          "velocity": 0.10236220472440945,
          "duration": 0.034883720930224626
        },
        {
          "name": "F#5",
          "midi": 78,
          "time": 167.2325581395096,
          "velocity": 0.07086614173228346,
          "duration": 0.034883720930224626
        },
        {
          "name": "A3",
          "midi": 57,
          "time": 167.24418604648633,
          "velocity": 0.2047244094488189,
          "duration": 0.06976744186044925
        },
        {
          "name": "F#4",
          "midi": 66,
          "time": 167.24418604648633,
          "velocity": 0.2125984251968504,
          "duration": 0.034883720930224626
        },
        {
          "name": "E2",
          "midi": 40,
          "time": 167.25581395346308,
          "velocity": 0.5354330708661418,
          "duration": 0.023255813953483084
        },
        {
          "name": "G6",
          "midi": 91,
          "time": 167.26744186043982,
          "velocity": 0.16535433070866143,
          "duration": 0.18604651162786467
        },
        {
          "name": "E4",
          "midi": 64,
          "time": 167.30232558137004,
          "velocity": 0.1968503937007874,
          "duration": 0.034883720930224626
        },
        {
          "name": "A5",
          "midi": 81,
          "time": 167.30232558137004,
          "velocity": 0.11811023622047244,
          "duration": 0.04651162790696617
        },
        {
          "name": "E3",
          "midi": 52,
          "time": 167.31395348834678,
          "velocity": 0.2440944881889764,
          "duration": 0.034883720930224626
        },
        {
          "name": "E5",
          "midi": 76,
          "time": 167.31395348834678,
          "velocity": 0.3858267716535433,
          "duration": 0.24418604651157239
        },
        {
          "name": "F#5",
          "midi": 78,
          "time": 167.32558139532352,
          "velocity": 0.13385826771653545,
          "duration": 0.034883720930224626
        },
        {
          "name": "B5",
          "midi": 83,
          "time": 167.32558139532352,
          "velocity": 0.10236220472440945,
          "duration": 0.05813953488370771
        },
        {
          "name": "B6",
          "midi": 95,
          "time": 167.32558139532352,
          "velocity": 0.2283464566929134,
          "duration": 0.17441860465112313
        },
        {
          "name": "D#3",
          "midi": 51,
          "time": 167.348837209277,
          "velocity": 0.2677165354330709,
          "duration": 0.023255813953483084
        },
        {
          "name": "A3",
          "midi": 57,
          "time": 167.348837209277,
          "velocity": 0.23622047244094488,
          "duration": 0.034883720930224626
        },
        {
          "name": "F2",
          "midi": 41,
          "time": 167.36046511625375,
          "velocity": 0.3858267716535433,
          "duration": 0.023255813953483084
        },
        {
          "name": "F1",
          "midi": 29,
          "time": 167.39534883718397,
          "velocity": 0.2677165354330709,
          "duration": 0.023255813953483084
        },
        {
          "name": "E4",
          "midi": 64,
          "time": 167.39534883718397,
          "velocity": 0.1968503937007874,
          "duration": 0.05813953488370771
        },
        {
          "name": "D3",
          "midi": 50,
          "time": 167.40697674416072,
          "velocity": 0.2677165354330709,
          "duration": 0.023255813953483084
        },
        {
          "name": "A3",
          "midi": 57,
          "time": 167.41860465113746,
          "velocity": 0.2204724409448819,
          "duration": 0.034883720930224626
        },
        {
          "name": "C2",
          "midi": 36,
          "time": 167.45348837206768,
          "velocity": 0.5511811023622047,
          "duration": 0.04651162790696617
        },
        {
          "name": "D#4",
          "midi": 63,
          "time": 167.45348837206768,
          "velocity": 0.14173228346456693,
          "duration": 0.034883720930224626
        },
        {
          "name": "G4",
          "midi": 67,
          "time": 167.45348837206768,
          "velocity": 0.14960629921259844,
          "duration": 0.034883720930224626
        },
        {
          "name": "B5",
          "midi": 83,
          "time": 167.45348837206768,
          "velocity": 0.2204724409448819,
          "duration": 0.06976744186044925
        },
        {
          "name": "A6",
          "midi": 93,
          "time": 167.45348837206768,
          "velocity": 0.10236220472440945,
          "duration": 0.06976744186044925
        },
        {
          "name": "A3",
          "midi": 57,
          "time": 167.47674418602116,
          "velocity": 0.1889763779527559,
          "duration": 0.034883720930224626
        },
        {
          "name": "D3",
          "midi": 50,
          "time": 167.49999999997465,
          "velocity": 0.2283464566929134,
          "duration": 0.034883720930224626
        },
        {
          "name": "D#3",
          "midi": 51,
          "time": 167.53488372090487,
          "velocity": 0.4645669291338583,
          "duration": 0.023255813953483084
        },
        {
          "name": "G5",
          "midi": 79,
          "time": 167.53488372090487,
          "velocity": 0.15748031496062992,
          "duration": 0.05813953488370771
        },
        {
          "name": "C2",
          "midi": 36,
          "time": 167.5465116278816,
          "velocity": 0.4881889763779528,
          "duration": 0.023255813953483084
        },
        {
          "name": "A4",
          "midi": 69,
          "time": 167.5465116278816,
          "velocity": 0.23622047244094488,
          "duration": 0.034883720930224626
        },
        {
          "name": "B5",
          "midi": 83,
          "time": 167.5465116278816,
          "velocity": 0.16535433070866143,
          "duration": 0.0813953488371908
        },
        {
          "name": "F7",
          "midi": 101,
          "time": 167.5465116278816,
          "velocity": 0.1732283464566929,
          "duration": 0.11627906976741542
        },
        {
          "name": "D4",
          "midi": 62,
          "time": 167.55813953485836,
          "velocity": 0.33070866141732286,
          "duration": 0.023255813953483084
        },
        {
          "name": "D#3",
          "midi": 51,
          "time": 167.5697674418351,
          "velocity": 0.4330708661417323,
          "duration": 0.023255813953483084
        },
        {
          "name": "C#4",
          "midi": 61,
          "time": 167.5697674418351,
          "velocity": 0.33858267716535434,
          "duration": 0.023255813953483084
        },
        {
          "name": "G4",
          "midi": 67,
          "time": 167.5697674418351,
          "velocity": 0.33858267716535434,
          "duration": 0.12790697674415696
        },
        {
          "name": "E5",
          "midi": 76,
          "time": 167.5697674418351,
          "velocity": 0.3228346456692913,
          "duration": 0.43023255813943706
        },
        {
          "name": "C5",
          "midi": 72,
          "time": 167.58139534881184,
          "velocity": 0.25984251968503935,
          "duration": 0.18604651162786467
        },
        {
          "name": "D3",
          "midi": 50,
          "time": 167.59302325578858,
          "velocity": 0.5039370078740157,
          "duration": 0.05813953488370771
        },
        {
          "name": "C4",
          "midi": 60,
          "time": 167.59302325578858,
          "velocity": 0.33070866141732286,
          "duration": 0.034883720930224626
        },
        {
          "name": "F#1",
          "midi": 30,
          "time": 167.6279069767188,
          "velocity": 0.3779527559055118,
          "duration": 0.023255813953483084
        },
        {
          "name": "C#4",
          "midi": 61,
          "time": 167.6279069767188,
          "velocity": 0.33858267716535434,
          "duration": 0.023255813953483084
        },
        {
          "name": "F4",
          "midi": 65,
          "time": 167.63953488369555,
          "velocity": 0.25984251968503935,
          "duration": 0.034883720930224626
        },
        {
          "name": "D5",
          "midi": 74,
          "time": 167.63953488369555,
          "velocity": 0.3700787401574803,
          "duration": 0.4186046511626955
        },
        {
          "name": "C4",
          "midi": 60,
          "time": 167.6511627906723,
          "velocity": 0.31496062992125984,
          "duration": 0.023255813953483084
        },
        {
          "name": "D3",
          "midi": 50,
          "time": 167.66279069764903,
          "velocity": 0.48031496062992124,
          "duration": 0.034883720930224626
        },
        {
          "name": "A#3",
          "midi": 58,
          "time": 167.67441860462577,
          "velocity": 0.2992125984251969,
          "duration": 0.034883720930224626
        },
        {
          "name": "B5",
          "midi": 83,
          "time": 167.67441860462577,
          "velocity": 0.15748031496062992,
          "duration": 0.05813953488370771
        },
        {
          "name": "D#3",
          "midi": 51,
          "time": 167.69767441857925,
          "velocity": 0.5905511811023622,
          "duration": 0.023255813953483084
        },
        {
          "name": "C#2",
          "midi": 37,
          "time": 167.709302325556,
          "velocity": 0.5275590551181102,
          "duration": 0.011627906976741542
        },
        {
          "name": "B3",
          "midi": 59,
          "time": 167.709302325556,
          "velocity": 0.25984251968503935,
          "duration": 0.023255813953483084
        },
        {
          "name": "D3",
          "midi": 50,
          "time": 167.72093023253274,
          "velocity": 0.5984251968503937,
          "duration": 0.04651162790696617
        },
        {
          "name": "E4",
          "midi": 64,
          "time": 167.72093023253274,
          "velocity": 0.2677165354330709,
          "duration": 0.023255813953483084
        },
        {
          "name": "E2",
          "midi": 40,
          "time": 167.73255813950948,
          "velocity": 0.5039370078740157,
          "duration": 0.023255813953483084
        },
        {
          "name": "G4",
          "midi": 67,
          "time": 167.73255813950948,
          "velocity": 0.3464566929133858,
          "duration": 0.023255813953483084
        },
        {
          "name": "A5",
          "midi": 81,
          "time": 167.73255813950948,
          "velocity": 0.14173228346456693,
          "duration": 0.06976744186044925
        },
        {
          "name": "B5",
          "midi": 83,
          "time": 167.74418604648622,
          "velocity": 0.25984251968503935,
          "duration": 0.39534883720921243
        },
        {
          "name": "F2",
          "midi": 41,
          "time": 167.75581395346296,
          "velocity": 0.49606299212598426,
          "duration": 0.023255813953483084
        },
        {
          "name": "C#3",
          "midi": 49,
          "time": 167.7674418604397,
          "velocity": 0.5196850393700787,
          "duration": 0.011627906976741542
        },
        {
          "name": "F4",
          "midi": 65,
          "time": 167.7674418604397,
          "velocity": 0.2992125984251969,
          "duration": 0.04651162790696617
        },
        {
          "name": "G4",
          "midi": 67,
          "time": 167.7674418604397,
          "velocity": 0.2755905511811024,
          "duration": 0.023255813953483084
        },
        {
          "name": "A4",
          "midi": 69,
          "time": 167.7674418604397,
          "velocity": 0.2283464566929134,
          "duration": 0.0813953488371908
        },
        {
          "name": "D3",
          "midi": 50,
          "time": 167.77906976741644,
          "velocity": 0.5511811023622047,
          "duration": 0.06976744186044925
        },
        {
          "name": "B4",
          "midi": 71,
          "time": 167.7906976743932,
          "velocity": 0.11811023622047244,
          "duration": 0.034883720930224626
        },
        {
          "name": "E2",
          "midi": 40,
          "time": 167.81395348834667,
          "velocity": 0.4881889763779528,
          "duration": 0.023255813953483084
        },
        {
          "name": "E4",
          "midi": 64,
          "time": 167.83720930230015,
          "velocity": 0.23622047244094488,
          "duration": 0.023255813953483084
        },
        {
          "name": "C5",
          "midi": 72,
          "time": 167.8488372092769,
          "velocity": 0.2283464566929134,
          "duration": 0.09302325581393234
        },
        {
          "name": "D3",
          "midi": 50,
          "time": 167.86046511625364,
          "velocity": 0.4881889763779528,
          "duration": 0.023255813953483084
        },
        {
          "name": "F4",
          "midi": 65,
          "time": 167.86046511625364,
          "velocity": 0.15748031496062992,
          "duration": 0.034883720930224626
        },
        {
          "name": "G4",
          "midi": 67,
          "time": 167.93023255811408,
          "velocity": 0.1968503937007874,
          "duration": 0.034883720930224626
        },
        {
          "name": "B4",
          "midi": 71,
          "time": 167.95348837206757,
          "velocity": 0.1968503937007874,
          "duration": 0.04651162790696617
        },
        {
          "name": "A4",
          "midi": 69,
          "time": 167.9651162790443,
          "velocity": 0.29133858267716534,
          "duration": 0.0813953488371908
        },
        {
          "name": "D3",
          "midi": 50,
          "time": 167.97674418602105,
          "velocity": 0.4330708661417323,
          "duration": 0.023255813953483084
        },
        {
          "name": "C#5",
          "midi": 73,
          "time": 167.97674418602105,
          "velocity": 0.09448818897637795,
          "duration": 0.034883720930224626
        },
        {
          "name": "F#6",
          "midi": 90,
          "time": 167.97674418602105,
          "velocity": 0.33070866141732286,
          "duration": 0.1395348837208985
        },
        {
          "name": "C#7",
          "midi": 97,
          "time": 167.97674418602105,
          "velocity": 0.25984251968503935,
          "duration": 0.11627906976741542
        },
        {
          "name": "C4",
          "midi": 60,
          "time": 167.9883720929978,
          "velocity": 0.3464566929133858,
          "duration": 0.034883720930224626
        },
        {
          "name": "F#5",
          "midi": 78,
          "time": 167.99999999997453,
          "velocity": 0.2047244094488189,
          "duration": 0.0813953488371908
        },
        {
          "name": "G2",
          "midi": 43,
          "time": 168.01162790695128,
          "velocity": 0.4645669291338583,
          "duration": 0.023255813953483084
        },
        {
          "name": "B4",
          "midi": 71,
          "time": 168.01162790695128,
          "velocity": 0.2992125984251969,
          "duration": 0.05813953488370771
        },
        {
          "name": "C#4",
          "midi": 61,
          "time": 168.02325581392802,
          "velocity": 0.23622047244094488,
          "duration": 0.023255813953483084
        },
        {
          "name": "D3",
          "midi": 50,
          "time": 168.03488372090476,
          "velocity": 0.4251968503937008,
          "duration": 0.034883720930224626
        },
        {
          "name": "E5",
          "midi": 76,
          "time": 168.03488372090476,
          "velocity": 0.29133858267716534,
          "duration": 0.17441860465112313
        },
        {
          "name": "A4",
          "midi": 69,
          "time": 168.05813953485824,
          "velocity": 0.08661417322834646,
          "duration": 0.06976744186044925
        },
        {
          "name": "G5",
          "midi": 79,
          "time": 168.05813953485824,
          "velocity": 0.14960629921259844,
          "duration": 0.18604651162786467
        },
        {
          "name": "D4",
          "midi": 62,
          "time": 168.06976744183498,
          "velocity": 0.2677165354330709,
          "duration": 0.06976744186044925
        },
        {
          "name": "D6",
          "midi": 86,
          "time": 168.06976744183498,
          "velocity": 0.10236220472440945,
          "duration": 0.034883720930224626
        },
        {
          "name": "G2",
          "midi": 43,
          "time": 168.08139534881172,
          "velocity": 0.4251968503937008,
          "duration": 0.034883720930224626
        },
        {
          "name": "D3",
          "midi": 50,
          "time": 168.09302325578847,
          "velocity": 0.4094488188976378,
          "duration": 0.034883720930224626
        },
        {
          "name": "D5",
          "midi": 74,
          "time": 168.1046511627652,
          "velocity": 0.41732283464566927,
          "duration": 0.18604651162786467
        },
        {
          "name": "F#6",
          "midi": 90,
          "time": 168.13953488369543,
          "velocity": 0.14960629921259844,
          "duration": 0.12790697674415696
        },
        {
          "name": "B3",
          "midi": 59,
          "time": 168.15116279067217,
          "velocity": 0.1968503937007874,
          "duration": 0.034883720930224626
        },
        {
          "name": "B4",
          "midi": 71,
          "time": 168.15116279067217,
          "velocity": 0.2755905511811024,
          "duration": 0.11627906976741542
        },
        {
          "name": "D3",
          "midi": 50,
          "time": 168.16279069764892,
          "velocity": 0.3464566929133858,
          "duration": 0.06976744186044925
        },
        {
          "name": "F#2",
          "midi": 42,
          "time": 168.17441860462566,
          "velocity": 0.47244094488188976,
          "duration": 0.034883720930224626
        },
        {
          "name": "F#5",
          "midi": 78,
          "time": 168.17441860462566,
          "velocity": 0.1968503937007874,
          "duration": 0.04651162790696617
        },
        {
          "name": "F4",
          "midi": 65,
          "time": 168.1860465116024,
          "velocity": 0.3464566929133858,
          "duration": 0.0813953488371908
        },
        {
          "name": "A6",
          "midi": 93,
          "time": 168.1860465116024,
          "velocity": 0.23622047244094488,
          "duration": 0.09302325581393234
        },
        {
          "name": "F#5",
          "midi": 78,
          "time": 168.23255813950936,
          "velocity": 0.18110236220472442,
          "duration": 0.05813953488370771
        },
        {
          "name": "B3",
          "midi": 59,
          "time": 168.25581395346285,
          "velocity": 0.1889763779527559,
          "duration": 0.034883720930224626
        },
        {
          "name": "G2",
          "midi": 43,
          "time": 168.2674418604396,
          "velocity": 0.4094488188976378,
          "duration": 0.034883720930224626
        },
        {
          "name": "C5",
          "midi": 72,
          "time": 168.2674418604396,
          "velocity": 0.2047244094488189,
          "duration": 0.05813953488370771
        },
        {
          "name": "F4",
          "midi": 65,
          "time": 168.27906976741633,
          "velocity": 0.2125984251968504,
          "duration": 0.05813953488370771
        },
        {
          "name": "G5",
          "midi": 79,
          "time": 168.27906976741633,
          "velocity": 0.2125984251968504,
          "duration": 0.26744186046505547
        },
        {
          "name": "D#6",
          "midi": 87,
          "time": 168.27906976741633,
          "velocity": 0.11023622047244094,
          "duration": 0.034883720930224626
        },
        {
          "name": "G4",
          "midi": 67,
          "time": 168.30232558136981,
          "velocity": 0.5118110236220472,
          "duration": 0.3255813953487632
        },
        {
          "name": "D6",
          "midi": 86,
          "time": 168.30232558136981,
          "velocity": 0.14173228346456693,
          "duration": 0.04651162790696617
        },
        {
          "name": "F2",
          "midi": 41,
          "time": 168.3255813953233,
          "velocity": 0.33070866141732286,
          "duration": 0.023255813953483084
        },
        {
          "name": "B4",
          "midi": 71,
          "time": 168.3255813953233,
          "velocity": 0.14960629921259844,
          "duration": 0.04651162790696617
        },
        {
          "name": "B5",
          "midi": 83,
          "time": 168.33720930230004,
          "velocity": 0.15748031496062992,
          "duration": 0.04651162790696617
        },
        {
          "name": "D#3",
          "midi": 51,
          "time": 168.34883720927678,
          "velocity": 0.31496062992125984,
          "duration": 0.023255813953483084
        },
        {
          "name": "E5",
          "midi": 76,
          "time": 168.34883720927678,
          "velocity": 0.14173228346456693,
          "duration": 0.034883720930224626
        },
        {
          "name": "F2",
          "midi": 41,
          "time": 168.383720930207,
          "velocity": 0.33070866141732286,
          "duration": 0.023255813953483084
        },
        {
          "name": "D3",
          "midi": 50,
          "time": 168.383720930207,
          "velocity": 0.44881889763779526,
          "duration": 0.0813953488371908
        },
        {
          "name": "C4",
          "midi": 60,
          "time": 168.39534883718375,
          "velocity": 0.1889763779527559,
          "duration": 0.04651162790696617
        },
        {
          "name": "E5",
          "midi": 76,
          "time": 168.39534883718375,
          "velocity": 0.1889763779527559,
          "duration": 0.09302325581393234
        },
        {
          "name": "A#5",
          "midi": 82,
          "time": 168.4069767441605,
          "velocity": 0.1968503937007874,
          "duration": 0.05813953488370771
        },
        {
          "name": "D5",
          "midi": 74,
          "time": 168.41860465113723,
          "velocity": 0.29133858267716534,
          "duration": 0.29069767441853855
        },
        {
          "name": "B5",
          "midi": 83,
          "time": 168.4418604650907,
          "velocity": 0.14960629921259844,
          "duration": 0.0813953488371908
        },
        {
          "name": "F2",
          "midi": 41,
          "time": 168.45348837206745,
          "velocity": 0.3937007874015748,
          "duration": 0.023255813953483084
        },
        {
          "name": "B4",
          "midi": 71,
          "time": 168.45348837206745,
          "velocity": 0.2440944881889764,
          "duration": 0.06976744186044925
        },
        {
          "name": "G2",
          "midi": 43,
          "time": 168.49999999997442,
          "velocity": 0.41732283464566927,
          "duration": 0.05813953488370771
        },
        {
          "name": "E5",
          "midi": 76,
          "time": 168.5232558139279,
          "velocity": 0.1732283464566929,
          "duration": 0.09302325581393234
        },
        {
          "name": "B4",
          "midi": 71,
          "time": 168.53488372090465,
          "velocity": 0.2755905511811024,
          "duration": 0.0813953488371908
        },
        {
          "name": "F#5",
          "midi": 78,
          "time": 168.5465116278814,
          "velocity": 0.09448818897637795,
          "duration": 0.04651162790696617
        },
        {
          "name": "F#2",
          "midi": 42,
          "time": 168.55813953485813,
          "velocity": 0.2992125984251969,
          "duration": 0.034883720930224626
        },
        {
          "name": "F2",
          "midi": 41,
          "time": 168.59302325578835,
          "velocity": 0.3700787401574803,
          "duration": 0.034883720930224626
        },
        {
          "name": "C4",
          "midi": 60,
          "time": 168.61627906974184,
          "velocity": 0.23622047244094488,
          "duration": 0.023255813953483084
        },
        {
          "name": "F4",
          "midi": 65,
          "time": 168.61627906974184,
          "velocity": 0.28346456692913385,
          "duration": 0.17441860465112313
        },
        {
          "name": "F#5",
          "midi": 78,
          "time": 168.61627906974184,
          "velocity": 0.1968503937007874,
          "duration": 0.034883720930224626
        },
        {
          "name": "B6",
          "midi": 95,
          "time": 168.61627906974184,
          "velocity": 0.2125984251968504,
          "duration": 0.0813953488371908
        },
        {
          "name": "A4",
          "midi": 69,
          "time": 168.62790697671858,
          "velocity": 0.25984251968503935,
          "duration": 0.023255813953483084
        },
        {
          "name": "E5",
          "midi": 76,
          "time": 168.62790697671858,
          "velocity": 0.3937007874015748,
          "duration": 0.29069767441853855
        },
        {
          "name": "G#2",
          "midi": 44,
          "time": 168.63953488369532,
          "velocity": 0.3937007874015748,
          "duration": 0.023255813953483084
        },
        {
          "name": "G4",
          "midi": 67,
          "time": 168.65116279067206,
          "velocity": 0.2204724409448819,
          "duration": 0.04651162790696617
        },
        {
          "name": "A4",
          "midi": 69,
          "time": 168.67441860462554,
          "velocity": 0.15748031496062992,
          "duration": 0.04651162790696617
        },
        {
          "name": "G2",
          "midi": 43,
          "time": 168.69767441857903,
          "velocity": 0.33858267716535434,
          "duration": 0.023255813953483084
        },
        {
          "name": "G5",
          "midi": 79,
          "time": 168.69767441857903,
          "velocity": 0.14960629921259844,
          "duration": 0.09302325581393234
        },
        {
          "name": "F#2",
          "midi": 42,
          "time": 168.7209302325325,
          "velocity": 0.3228346456692913,
          "duration": 0.034883720930224626
        },
        {
          "name": "D#3",
          "midi": 51,
          "time": 168.7209302325325,
          "velocity": 0.30708661417322836,
          "duration": 0.023255813953483084
        },
        {
          "name": "C5",
          "midi": 72,
          "time": 168.7209302325325,
          "velocity": 0.2283464566929134,
          "duration": 0.023255813953483084
        },
        {
          "name": "C4",
          "midi": 60,
          "time": 168.73255813950925,
          "velocity": 0.14960629921259844,
          "duration": 0.034883720930224626
        },
        {
          "name": "B4",
          "midi": 71,
          "time": 168.744186046486,
          "velocity": 0.25196850393700787,
          "duration": 0.034883720930224626
        },
        {
          "name": "F#5",
          "midi": 78,
          "time": 168.744186046486,
          "velocity": 0.13385826771653545,
          "duration": 0.09302325581393234
        },
        {
          "name": "D5",
          "midi": 74,
          "time": 168.75581395346273,
          "velocity": 0.08661417322834646,
          "duration": 0.034883720930224626
        },
        {
          "name": "G2",
          "midi": 43,
          "time": 168.76744186043948,
          "velocity": 0.3937007874015748,
          "duration": 0.05813953488370771
        },
        {
          "name": "B3",
          "midi": 59,
          "time": 168.8023255813697,
          "velocity": 0.1889763779527559,
          "duration": 0.034883720930224626
        },
        {
          "name": "C5",
          "midi": 72,
          "time": 168.8023255813697,
          "velocity": 0.36220472440944884,
          "duration": 0.04651162790696617
        },
        {
          "name": "G5",
          "midi": 79,
          "time": 168.8023255813697,
          "velocity": 0.13385826771653545,
          "duration": 0.0813953488371908
        },
        {
          "name": "D5",
          "midi": 74,
          "time": 168.81395348834644,
          "velocity": 0.12598425196850394,
          "duration": 0.034883720930224626
        },
        {
          "name": "C4",
          "midi": 60,
          "time": 168.83720930229993,
          "velocity": 0.30708661417322836,
          "duration": 0.0813953488371908
        },
        {
          "name": "B5",
          "midi": 83,
          "time": 168.83720930229993,
          "velocity": 0.2755905511811024,
          "duration": 0.10465116279067388
        },
        {
          "name": "B4",
          "midi": 71,
          "time": 168.84883720927667,
          "velocity": 0.4015748031496063,
          "duration": 0.10465116279067388
        },
        {
          "name": "G#2",
          "midi": 44,
          "time": 168.8604651162534,
          "velocity": 0.47244094488188976,
          "duration": 0.023255813953483084
        },
        {
          "name": "F3",
          "midi": 53,
          "time": 168.8604651162534,
          "velocity": 0.30708661417322836,
          "duration": 0.023255813953483084
        },
        {
          "name": "G4",
          "midi": 67,
          "time": 168.87209302323015,
          "velocity": 0.14173228346456693,
          "duration": 0.05813953488370771
        },
        {
          "name": "F#5",
          "midi": 78,
          "time": 168.87209302323015,
          "velocity": 0.11811023622047244,
          "duration": 0.04651162790696617
        },
        {
          "name": "G#2",
          "midi": 44,
          "time": 168.90697674416037,
          "velocity": 0.3700787401574803,
          "duration": 0.023255813953483084
        },
        {
          "name": "D5",
          "midi": 74,
          "time": 168.90697674416037,
          "velocity": 0.16535433070866143,
          "duration": 0.06976744186044925
        },
        {
          "name": "F2",
          "midi": 41,
          "time": 168.93023255811386,
          "velocity": 0.4094488188976378,
          "duration": 0.023255813953483084
        },
        {
          "name": "G5",
          "midi": 79,
          "time": 168.95348837206734,
          "velocity": 0.2125984251968504,
          "duration": 0.3255813953487632
        },
        {
          "name": "B5",
          "midi": 83,
          "time": 168.95348837206734,
          "velocity": 0.2440944881889764,
          "duration": 0.1627906976743816
        },
        {
          "name": "F#2",
          "midi": 42,
          "time": 168.96511627904408,
          "velocity": 0.3779527559055118,
          "duration": 0.023255813953483084
        },
        {
          "name": "B4",
          "midi": 71,
          "time": 168.96511627904408,
          "velocity": 0.3700787401574803,
          "duration": 0.15116279069764005
        },
        {
          "name": "E5",
          "midi": 76,
          "time": 168.97674418602082,
          "velocity": 0.18110236220472442,
          "duration": 0.11627906976741542
        },
        {
          "name": "F#5",
          "midi": 78,
          "time": 168.97674418602082,
          "velocity": 0.10236220472440945,
          "duration": 0.05813953488370771
        },
        {
          "name": "G2",
          "midi": 43,
          "time": 168.98837209299757,
          "velocity": 0.28346456692913385,
          "duration": 0.023255813953483084
        },
        {
          "name": "A3",
          "midi": 57,
          "time": 168.9999999999743,
          "velocity": 0.08661417322834646,
          "duration": 0.034883720930224626
        },
        {
          "name": "G4",
          "midi": 67,
          "time": 168.9999999999743,
          "velocity": 0.11023622047244094,
          "duration": 0.034883720930224626
        },
        {
          "name": "F#2",
          "midi": 42,
          "time": 169.01162790695105,
          "velocity": 0.31496062992125984,
          "duration": 0.023255813953483084
        },
        {
          "name": "D3",
          "midi": 50,
          "time": 169.01162790695105,
          "velocity": 0.31496062992125984,
          "duration": 0.023255813953483084
        },
        {
          "name": "D3",
          "midi": 50,
          "time": 169.04651162788127,
          "velocity": 0.2283464566929134,
          "duration": 0.023255813953483084
        },
        {
          "name": "F4",
          "midi": 65,
          "time": 169.04651162788127,
          "velocity": 0.28346456692913385,
          "duration": 0.15116279069764005
        },
        {
          "name": "B3",
          "midi": 59,
          "time": 169.05813953485801,
          "velocity": 0.2283464566929134,
          "duration": 0.023255813953483084
        },
        {
          "name": "F2",
          "midi": 41,
          "time": 169.06976744183476,
          "velocity": 0.4015748031496063,
          "duration": 0.023255813953483084
        },
        {
          "name": "B3",
          "midi": 59,
          "time": 169.10465116276498,
          "velocity": 0.1968503937007874,
          "duration": 0.04651162790696617
        },
        {
          "name": "F#5",
          "midi": 78,
          "time": 169.10465116276498,
          "velocity": 0.08661417322834646,
          "duration": 0.034883720930224626
        },
        {
          "name": "E5",
          "midi": 76,
          "time": 169.11627906974172,
          "velocity": 0.11811023622047244,
          "duration": 0.04651162790696617
        },
        {
          "name": "G2",
          "midi": 43,
          "time": 169.12790697671846,
          "velocity": 0.4015748031496063,
          "duration": 0.023255813953483084
        },
        {
          "name": "G4",
          "midi": 67,
          "time": 169.12790697671846,
          "velocity": 0.13385826771653545,
          "duration": 0.12790697674415696
        },
        {
          "name": "B4",
          "midi": 71,
          "time": 169.12790697671846,
          "velocity": 0.3228346456692913,
          "duration": 0.19767441860460622
        },
        {
          "name": "F2",
          "midi": 41,
          "time": 169.15116279067195,
          "velocity": 0.3779527559055118,
          "duration": 0.023255813953483084
        },
        {
          "name": "D#3",
          "midi": 51,
          "time": 169.1627906976487,
          "velocity": 0.2677165354330709,
          "duration": 0.023255813953483084
        },
        {
          "name": "F#2",
          "midi": 42,
          "time": 169.18604651160217,
          "velocity": 0.41732283464566927,
          "duration": 0.023255813953483084
        },
        {
          "name": "G2",
          "midi": 43,
          "time": 169.20930232555565,
          "velocity": 0.3700787401574803,
          "duration": 0.023255813953483084
        },
        {
          "name": "A#3",
          "midi": 58,
          "time": 169.2209302325324,
          "velocity": 0.2283464566929134,
          "duration": 0.034883720930224626
        },
        {
          "name": "E6",
          "midi": 88,
          "time": 169.2209302325324,
          "velocity": 0.11811023622047244,
          "duration": 0.12790697674415696
        },
        {
          "name": "F#5",
          "midi": 78,
          "time": 169.23255813950914,
          "velocity": 0.13385826771653545,
          "duration": 0.034883720930224626
        },
        {
          "name": "E5",
          "midi": 76,
          "time": 169.24418604648588,
          "velocity": 0.2283464566929134,
          "duration": 0.034883720930224626
        },
        {
          "name": "D5",
          "midi": 74,
          "time": 169.25581395346262,
          "velocity": 0.2755905511811024,
          "duration": 0.23255813953483084
        },
        {
          "name": "D#6",
          "midi": 87,
          "time": 169.25581395346262,
          "velocity": 0.15748031496062992,
          "duration": 0.04651162790696617
        },
        {
          "name": "F#6",
          "midi": 90,
          "time": 169.25581395346262,
          "velocity": 0.2440944881889764,
          "duration": 0.034883720930224626
        },
        {
          "name": "C#2",
          "midi": 37,
          "time": 169.26744186043936,
          "velocity": 0.5196850393700787,
          "duration": 0.011627906976741542
        },
        {
          "name": "F3",
          "midi": 53,
          "time": 169.26744186043936,
          "velocity": 0.3464566929133858,
          "duration": 0.023255813953483084
        },
        {
          "name": "G7",
          "midi": 103,
          "time": 169.26744186043936,
          "velocity": 0.11023622047244094,
          "duration": 0.23255813953483084
        },
        {
          "name": "E2",
          "midi": 40,
          "time": 169.2790697674161,
          "velocity": 0.5039370078740157,
          "duration": 0.023255813953483084
        },
        {
          "name": "D4",
          "midi": 62,
          "time": 169.2790697674161,
          "velocity": 0.3779527559055118,
          "duration": 0.5232558139533694
        },
        {
          "name": "F#5",
          "midi": 78,
          "time": 169.2790697674161,
          "velocity": 0.30708661417322836,
          "duration": 0.11627906976741542
        },
        {
          "name": "C6",
          "midi": 84,
          "time": 169.2790697674161,
          "velocity": 0.2283464566929134,
          "duration": 0.04651162790696617
        },
        {
          "name": "A5",
          "midi": 81,
          "time": 169.29069767439285,
          "velocity": 0.16535433070866143,
          "duration": 0.034883720930224626
        },
        {
          "name": "C#6",
          "midi": 85,
          "time": 169.29069767439285,
          "velocity": 0.11023622047244094,
          "duration": 0.04651162790696617
        },
        {
          "name": "G6",
          "midi": 91,
          "time": 169.29069767439285,
          "velocity": 0.11023622047244094,
          "duration": 0.04651162790696617
        },
        {
          "name": "G4",
          "midi": 67,
          "time": 169.3023255813696,
          "velocity": 0.23622047244094488,
          "duration": 0.05813953488370771
        },
        {
          "name": "F6",
          "midi": 89,
          "time": 169.31395348834633,
          "velocity": 0.2047244094488189,
          "duration": 0.034883720930224626
        },
        {
          "name": "A6",
          "midi": 93,
          "time": 169.31395348834633,
          "velocity": 0.1968503937007874,
          "duration": 0.2209302325580893
        },
        {
          "name": "D7",
          "midi": 98,
          "time": 169.31395348834633,
          "velocity": 0.15748031496062992,
          "duration": 0.29069767441853855
        },
        {
          "name": "B5",
          "midi": 83,
          "time": 169.32558139532307,
          "velocity": 0.23622047244094488,
          "duration": 0.034883720930224626
        },
        {
          "name": "B4",
          "midi": 71,
          "time": 169.3372093022998,
          "velocity": 0.31496062992125984,
          "duration": 0.18604651162786467
        },
        {
          "name": "D#3",
          "midi": 51,
          "time": 169.34883720927655,
          "velocity": 0.3228346456692913,
          "duration": 0.023255813953483084
        },
        {
          "name": "F#4",
          "midi": 66,
          "time": 169.3604651162533,
          "velocity": 0.09448818897637795,
          "duration": 0.034883720930224626
        },
        {
          "name": "A4",
          "midi": 69,
          "time": 169.3604651162533,
          "velocity": 0.2125984251968504,
          "duration": 0.0813953488371908
        },
        {
          "name": "D3",
          "midi": 50,
          "time": 169.38372093020678,
          "velocity": 0.33070866141732286,
          "duration": 0.034883720930224626
        },
        {
          "name": "F2",
          "midi": 41,
          "time": 169.39534883718352,
          "velocity": 0.4251968503937008,
          "duration": 0.023255813953483084
        },
        {
          "name": "F#5",
          "midi": 78,
          "time": 169.40697674416026,
          "velocity": 0.1732283464566929,
          "duration": 0.034883720930224626
        },
        {
          "name": "E5",
          "midi": 76,
          "time": 169.46511627904397,
          "velocity": 0.3543307086614173,
          "duration": 0.7325581395347172
        },
        {
          "name": "G2",
          "midi": 43,
          "time": 169.4767441860207,
          "velocity": 0.3464566929133858,
          "duration": 0.023255813953483084
        },
        {
          "name": "D3",
          "midi": 50,
          "time": 169.4767441860207,
          "velocity": 0.3228346456692913,
          "duration": 0.05813953488370771
        },
        {
          "name": "F4",
          "midi": 65,
          "time": 169.4767441860207,
          "velocity": 0.25196850393700787,
          "duration": 0.034883720930224626
        },
        {
          "name": "A4",
          "midi": 69,
          "time": 169.48837209299745,
          "velocity": 0.31496062992125984,
          "duration": 0.19767441860460622
        },
        {
          "name": "F2",
          "midi": 41,
          "time": 169.4999999999742,
          "velocity": 0.4330708661417323,
          "duration": 0.023255813953483084
        },
        {
          "name": "A3",
          "midi": 57,
          "time": 169.51162790695093,
          "velocity": 0.2204724409448819,
          "duration": 0.17441860465112313
        },
        {
          "name": "C#6",
          "midi": 85,
          "time": 169.51162790695093,
          "velocity": 0.18110236220472442,
          "duration": 0.11627906976741542
        },
        {
          "name": "F#5",
          "midi": 78,
          "time": 169.54651162788116,
          "velocity": 0.18110236220472442,
          "duration": 0.034883720930224626
        },
        {
          "name": "G2",
          "midi": 43,
          "time": 169.5581395348579,
          "velocity": 0.3464566929133858,
          "duration": 0.023255813953483084
        },
        {
          "name": "D#3",
          "midi": 51,
          "time": 169.56976744183464,
          "velocity": 0.2440944881889764,
          "duration": 0.023255813953483084
        },
        {
          "name": "D6",
          "midi": 86,
          "time": 169.56976744183464,
          "velocity": 0.11811023622047244,
          "duration": 0.04651162790696617
        },
        {
          "name": "G2",
          "midi": 43,
          "time": 169.59302325578813,
          "velocity": 0.3464566929133858,
          "duration": 0.023255813953483084
        },
        {
          "name": "F#5",
          "midi": 78,
          "time": 169.59302325578813,
          "velocity": 0.11811023622047244,
          "duration": 0.04651162790696617
        },
        {
          "name": "G5",
          "midi": 79,
          "time": 169.59302325578813,
          "velocity": 0.12598425196850394,
          "duration": 0.09302325581393234
        },
        {
          "name": "C6",
          "midi": 84,
          "time": 169.60465116276487,
          "velocity": 0.11811023622047244,
          "duration": 0.09302325581393234
        },
        {
          "name": "D7",
          "midi": 98,
          "time": 169.62790697671835,
          "velocity": 0.11811023622047244,
          "duration": 0.06976744186044925
        },
        {
          "name": "G2",
          "midi": 43,
          "time": 169.6395348836951,
          "velocity": 0.33070866141732286,
          "duration": 0.034883720930224626
        },
        {
          "name": "F#5",
          "midi": 78,
          "time": 169.65116279067183,
          "velocity": 0.14173228346456693,
          "duration": 0.034883720930224626
        },
        {
          "name": "C#6",
          "midi": 85,
          "time": 169.65116279067183,
          "velocity": 0.07874015748031496,
          "duration": 0.034883720930224626
        },
        {
          "name": "B4",
          "midi": 71,
          "time": 169.67441860462532,
          "velocity": 0.3937007874015748,
          "duration": 0.11627906976741542
        },
        {
          "name": "A5",
          "midi": 81,
          "time": 169.70930232555554,
          "velocity": 0.14173228346456693,
          "duration": 0.10465116279067388
        },
        {
          "name": "A4",
          "midi": 69,
          "time": 169.72093023253228,
          "velocity": 0.33070866141732286,
          "duration": 0.19767441860460622
        },
        {
          "name": "F#5",
          "midi": 78,
          "time": 169.73255813950902,
          "velocity": 0.14173228346456693,
          "duration": 0.1627906976743816
        },
        {
          "name": "D7",
          "midi": 98,
          "time": 169.73255813950902,
          "velocity": 0.14173228346456693,
          "duration": 0.05813953488370771
        },
        {
          "name": "A2",
          "midi": 45,
          "time": 169.74418604648577,
          "velocity": 0.36220472440944884,
          "duration": 0.023255813953483084
        },
        {
          "name": "C#3",
          "midi": 49,
          "time": 169.7558139534625,
          "velocity": 0.25984251968503935,
          "duration": 0.023255813953483084
        },
        {
          "name": "D#3",
          "midi": 51,
          "time": 169.779069767416,
          "velocity": 0.25196850393700787,
          "duration": 0.023255813953483084
        },
        {
          "name": "D7",
          "midi": 98,
          "time": 169.81395348834621,
          "velocity": 0.07874015748031496,
          "duration": 0.06976744186044925
        },
        {
          "name": "C4",
          "midi": 60,
          "time": 169.82558139532296,
          "velocity": 0.25984251968503935,
          "duration": 0.023255813953483084
        },
        {
          "name": "A5",
          "midi": 81,
          "time": 169.8372093022997,
          "velocity": 0.3858267716535433,
          "duration": 0.2209302325580893
        },
        {
          "name": "B5",
          "midi": 83,
          "time": 169.8372093022997,
          "velocity": 0.11811023622047244,
          "duration": 0.0813953488371908
        },
        {
          "name": "D6",
          "midi": 86,
          "time": 169.86046511625318,
          "velocity": 0.08661417322834646,
          "duration": 0.10465116279067388
        },
        {
          "name": "G#2",
          "midi": 44,
          "time": 169.87209302322992,
          "velocity": 0.2677165354330709,
          "duration": 0.023255813953483084
        },
        {
          "name": "A2",
          "midi": 45,
          "time": 169.90697674416015,
          "velocity": 0.4409448818897638,
          "duration": 0.023255813953483084
        },
        {
          "name": "F4",
          "midi": 65,
          "time": 169.90697674416015,
          "velocity": 0.3700787401574803,
          "duration": 0.19767441860460622
        },
        {
          "name": "C#6",
          "midi": 85,
          "time": 169.90697674416015,
          "velocity": 0.08661417322834646,
          "duration": 0.034883720930224626
        },
        {
          "name": "D7",
          "midi": 98,
          "time": 169.90697674416015,
          "velocity": 0.14173228346456693,
          "duration": 0.24418604651157239
        },
        {
          "name": "A#4",
          "midi": 70,
          "time": 169.9186046511369,
          "velocity": 0.25984251968503935,
          "duration": 0.023255813953483084
        },
        {
          "name": "F#3",
          "midi": 54,
          "time": 169.93023255811363,
          "velocity": 0.28346456692913385,
          "duration": 0.023255813953483084
        },
        {
          "name": "C#7",
          "midi": 97,
          "time": 169.93023255811363,
          "velocity": 0.14173228346456693,
          "duration": 0.06976744186044925
        },
        {
          "name": "F#1",
          "midi": 30,
          "time": 169.94186046509037,
          "velocity": 0.3464566929133858,
          "duration": 0.034883720930224626
        },
        {
          "name": "A4",
          "midi": 69,
          "time": 169.94186046509037,
          "velocity": 0.3228346456692913,
          "duration": 0.1627906976743816
        },
        {
          "name": "F3",
          "midi": 53,
          "time": 169.9534883720671,
          "velocity": 0.2992125984251969,
          "duration": 0.034883720930224626
        },
        {
          "name": "A3",
          "midi": 57,
          "time": 169.96511627904385,
          "velocity": 0.23622047244094488,
          "duration": 0.10465116279067388
        },
        {
          "name": "D4",
          "midi": 62,
          "time": 169.98837209299734,
          "velocity": 0.15748031496062992,
          "duration": 0.09302325581393234
        },
        {
          "name": "G#2",
          "midi": 44,
          "time": 170.01162790695082,
          "velocity": 0.41732283464566927,
          "duration": 0.023255813953483084
        },
        {
          "name": "D6",
          "midi": 86,
          "time": 170.02325581392756,
          "velocity": 0.12598425196850394,
          "duration": 0.19767441860460622
        },
        {
          "name": "G2",
          "midi": 43,
          "time": 170.06976744183453,
          "velocity": 0.2755905511811024,
          "duration": 0.04651162790696617
        },
        {
          "name": "G4",
          "midi": 67,
          "time": 170.10465116276475,
          "velocity": 0.5039370078740157,
          "duration": 0.06976744186044925
        },
        {
          "name": "A#3",
          "midi": 58,
          "time": 170.1162790697415,
          "velocity": 0.15748031496062992,
          "duration": 0.034883720930224626
        },
        {
          "name": "A5",
          "midi": 81,
          "time": 170.1162790697415,
          "velocity": 0.2440944881889764,
          "duration": 0.20930232558134776
        },
        {
          "name": "B5",
          "midi": 83,
          "time": 170.1162790697415,
          "velocity": 0.23622047244094488,
          "duration": 0.023255813953483084
        },
        {
          "name": "D4",
          "midi": 62,
          "time": 170.12790697671824,
          "velocity": 0.15748031496062992,
          "duration": 0.19767441860460622
        },
        {
          "name": "A#5",
          "midi": 82,
          "time": 170.13953488369498,
          "velocity": 0.15748031496062992,
          "duration": 0.034883720930224626
        },
        {
          "name": "F2",
          "midi": 41,
          "time": 170.15116279067172,
          "velocity": 0.2992125984251969,
          "duration": 0.023255813953483084
        },
        {
          "name": "A4",
          "midi": 69,
          "time": 170.15116279067172,
          "velocity": 0.4251968503937008,
          "duration": 0.3837209302324709
        },
        {
          "name": "G2",
          "midi": 43,
          "time": 170.1744186046252,
          "velocity": 0.3464566929133858,
          "duration": 0.023255813953483084
        },
        {
          "name": "A3",
          "midi": 57,
          "time": 170.18604651160194,
          "velocity": 0.1732283464566929,
          "duration": 0.11627906976741542
        },
        {
          "name": "D7",
          "midi": 98,
          "time": 170.18604651160194,
          "velocity": 0.14960629921259844,
          "duration": 0.04651162790696617
        },
        {
          "name": "G4",
          "midi": 67,
          "time": 170.20930232555543,
          "velocity": 0.2283464566929134,
          "duration": 0.023255813953483084
        },
        {
          "name": "E6",
          "midi": 88,
          "time": 170.20930232555543,
          "velocity": 0.14960629921259844,
          "duration": 0.06976744186044925
        },
        {
          "name": "G1",
          "midi": 31,
          "time": 170.22093023253217,
          "velocity": 0.2283464566929134,
          "duration": 0.023255813953483084
        },
        {
          "name": "D7",
          "midi": 98,
          "time": 170.26744186043913,
          "velocity": 0.1732283464566929,
          "duration": 0.5348837209301109
        },
        {
          "name": "D6",
          "midi": 86,
          "time": 170.30232558136936,
          "velocity": 0.2440944881889764,
          "duration": 0.406976744185954
        },
        {
          "name": "F4",
          "midi": 65,
          "time": 170.32558139532284,
          "velocity": 0.33858267716535434,
          "duration": 0.1395348837208985
        },
        {
          "name": "B2",
          "midi": 47,
          "time": 170.33720930229958,
          "velocity": 0.2992125984251969,
          "duration": 0.023255813953483084
        },
        {
          "name": "D#5",
          "midi": 75,
          "time": 170.33720930229958,
          "velocity": 0.08661417322834646,
          "duration": 0.034883720930224626
        },
        {
          "name": "G5",
          "midi": 79,
          "time": 170.33720930229958,
          "velocity": 0.3464566929133858,
          "duration": 0.4418604651161786
        },
        {
          "name": "A#3",
          "midi": 58,
          "time": 170.34883720927633,
          "velocity": 0.11811023622047244,
          "duration": 0.034883720930224626
        },
        {
          "name": "E6",
          "midi": 88,
          "time": 170.34883720927633,
          "velocity": 0.09448818897637795,
          "duration": 0.12790697674415696
        },
        {
          "name": "G#2",
          "midi": 44,
          "time": 170.3720930232298,
          "velocity": 0.41732283464566927,
          "duration": 0.023255813953483084
        },
        {
          "name": "F2",
          "midi": 41,
          "time": 170.3953488371833,
          "velocity": 0.3700787401574803,
          "duration": 0.023255813953483084
        },
        {
          "name": "A3",
          "midi": 57,
          "time": 170.3953488371833,
          "velocity": 0.11023622047244094,
          "duration": 0.05813953488370771
        },
        {
          "name": "E3",
          "midi": 52,
          "time": 170.41860465113677,
          "velocity": 0.1968503937007874,
          "duration": 0.034883720930224626
        },
        {
          "name": "G4",
          "midi": 67,
          "time": 170.41860465113677,
          "velocity": 0.33858267716535434,
          "duration": 0.18604651162786467
        },
        {
          "name": "E5",
          "midi": 76,
          "time": 170.43023255811352,
          "velocity": 0.14960629921259844,
          "duration": 0.034883720930224626
        },
        {
          "name": "G#2",
          "midi": 44,
          "time": 170.46511627904374,
          "velocity": 0.4015748031496063,
          "duration": 0.034883720930224626
        },
        {
          "name": "A3",
          "midi": 57,
          "time": 170.46511627904374,
          "velocity": 0.28346456692913385,
          "duration": 0.09302325581393234
        },
        {
          "name": "D4",
          "midi": 62,
          "time": 170.46511627904374,
          "velocity": 0.31496062992125984,
          "duration": 0.09302325581393234
        },
        {
          "name": "F2",
          "midi": 41,
          "time": 170.49999999997397,
          "velocity": 0.28346456692913385,
          "duration": 0.023255813953483084
        },
        {
          "name": "E5",
          "midi": 76,
          "time": 170.49999999997397,
          "velocity": 0.16535433070866143,
          "duration": 0.04651162790696617
        },
        {
          "name": "G1",
          "midi": 31,
          "time": 170.5348837209042,
          "velocity": 0.25984251968503935,
          "duration": 0.023255813953483084
        },
        {
          "name": "G#2",
          "midi": 44,
          "time": 170.5348837209042,
          "velocity": 0.3700787401574803,
          "duration": 0.034883720930224626
        },
        {
          "name": "A4",
          "midi": 69,
          "time": 170.54651162788093,
          "velocity": 0.29133858267716534,
          "duration": 0.034883720930224626
        },
        {
          "name": "F#6",
          "midi": 90,
          "time": 170.55813953485767,
          "velocity": 0.1732283464566929,
          "duration": 0.034883720930224626
        },
        {
          "name": "A#2",
          "midi": 46,
          "time": 170.56976744183441,
          "velocity": 0.3779527559055118,
          "duration": 0.023255813953483084
        },
        {
          "name": "E5",
          "midi": 76,
          "time": 170.56976744183441,
          "velocity": 0.1889763779527559,
          "duration": 0.06976744186044925
        },
        {
          "name": "F3",
          "midi": 53,
          "time": 170.58139534881116,
          "velocity": 0.29133858267716534,
          "duration": 0.04651162790696617
        },
        {
          "name": "A4",
          "midi": 69,
          "time": 170.5930232557879,
          "velocity": 0.25984251968503935,
          "duration": 0.2209302325580893
        },
        {
          "name": "C#4",
          "midi": 61,
          "time": 170.60465116276464,
          "velocity": 0.2677165354330709,
          "duration": 0.05813953488370771
        },
        {
          "name": "F3",
          "midi": 53,
          "time": 170.63953488369486,
          "velocity": 0.08661417322834646,
          "duration": 0.034883720930224626
        },
        {
          "name": "E5",
          "midi": 76,
          "time": 170.6511627906716,
          "velocity": 0.14960629921259844,
          "duration": 0.06976744186044925
        },
        {
          "name": "A#2",
          "midi": 46,
          "time": 170.66279069764835,
          "velocity": 0.2755905511811024,
          "duration": 0.023255813953483084
        },
        {
          "name": "D4",
          "midi": 62,
          "time": 170.66279069764835,
          "velocity": 0.1968503937007874,
          "duration": 0.11627906976741542
        },
        {
          "name": "F#6",
          "midi": 90,
          "time": 170.66279069764835,
          "velocity": 0.07086614173228346,
          "duration": 0.04651162790696617
        },
        {
          "name": "B2",
          "midi": 47,
          "time": 170.69767441857857,
          "velocity": 0.2283464566929134,
          "duration": 0.034883720930224626
        },
        {
          "name": "G4",
          "midi": 67,
          "time": 170.72093023253206,
          "velocity": 0.07874015748031496,
          "duration": 0.034883720930224626
        },
        {
          "name": "E3",
          "midi": 52,
          "time": 170.7325581395088,
          "velocity": 0.1732283464566929,
          "duration": 0.034883720930224626
        },
        {
          "name": "G#2",
          "midi": 44,
          "time": 170.74418604648554,
          "velocity": 0.31496062992125984,
          "duration": 0.023255813953483084
        },
        {
          "name": "F4",
          "midi": 65,
          "time": 170.76744186043902,
          "velocity": 0.2992125984251969,
          "duration": 0.15116279069764005
        },
        {
          "name": "F2",
          "midi": 41,
          "time": 170.77906976741576,
          "velocity": 0.3543307086614173,
          "duration": 0.034883720930224626
        },
        {
          "name": "G2",
          "midi": 43,
          "time": 170.813953488346,
          "velocity": 0.25984251968503935,
          "duration": 0.023255813953483084
        },
        {
          "name": "G5",
          "midi": 79,
          "time": 170.82558139532273,
          "velocity": 0.07874015748031496,
          "duration": 0.034883720930224626
        },
        {
          "name": "C#7",
          "midi": 97,
          "time": 170.82558139532273,
          "velocity": 0.11811023622047244,
          "duration": 0.04651162790696617
        },
        {
          "name": "G4",
          "midi": 67,
          "time": 170.83720930229947,
          "velocity": 0.13385826771653545,
          "duration": 0.034883720930224626
        },
        {
          "name": "A4",
          "midi": 69,
          "time": 170.83720930229947,
          "velocity": 0.2992125984251969,
          "duration": 0.15116279069764005
        },
        {
          "name": "A3",
          "midi": 57,
          "time": 170.86046511625295,
          "velocity": 0.1968503937007874,
          "duration": 0.10465116279067388
        },
        {
          "name": "D4",
          "midi": 62,
          "time": 170.90697674415992,
          "velocity": 0.13385826771653545,
          "duration": 0.05813953488370771
        },
        {
          "name": "F#2",
          "midi": 42,
          "time": 170.9534883720669,
          "velocity": 0.4409448818897638,
          "duration": 0.023255813953483084
        },
        {
          "name": "E5",
          "midi": 76,
          "time": 170.96511627904363,
          "velocity": 0.41732283464566927,
          "duration": 0.18604651162786467
        },
        {
          "name": "A2",
          "midi": 45,
          "time": 170.97674418602037,
          "velocity": 0.5669291338582677,
          "duration": 0.011627906976741542
        },
        {
          "name": "G3",
          "midi": 55,
          "time": 170.97674418602037,
          "velocity": 0.44881889763779526,
          "duration": 0.023255813953483084
        },
        {
          "name": "D#4",
          "midi": 63,
          "time": 170.97674418602037,
          "velocity": 0.3700787401574803,
          "duration": 0.023255813953483084
        },
        {
          "name": "B4",
          "midi": 71,
          "time": 170.97674418602037,
          "velocity": 0.36220472440944884,
          "duration": 0.09302325581393234
        },
        {
          "name": "G5",
          "midi": 79,
          "time": 170.97674418602037,
          "velocity": 0.11811023622047244,
          "duration": 0.04651162790696617
        },
        {
          "name": "G#6",
          "midi": 92,
          "time": 170.9883720929971,
          "velocity": 0.11811023622047244,
          "duration": 0.04651162790696617
        },
        {
          "name": "F3",
          "midi": 53,
          "time": 170.99999999997385,
          "velocity": 0.4094488188976378,
          "duration": 0.023255813953483084
        },
        {
          "name": "C4",
          "midi": 60,
          "time": 170.99999999997385,
          "velocity": 0.29133858267716534,
          "duration": 0.034883720930224626
        },
        {
          "name": "E4",
          "midi": 64,
          "time": 170.99999999997385,
          "velocity": 0.33070866141732286,
          "duration": 0.04651162790696617
        },
        {
          "name": "G#2",
          "midi": 44,
          "time": 171.0116279069506,
          "velocity": 0.48031496062992124,
          "duration": 0.034883720930224626
        },
        {
          "name": "G#5",
          "midi": 80,
          "time": 171.0116279069506,
          "velocity": 0.10236220472440945,
          "duration": 0.04651162790696617
        },
        {
          "name": "F#6",
          "midi": 90,
          "time": 171.0116279069506,
          "velocity": 0.11811023622047244,
          "duration": 0.12790697674415696
        },
        {
          "name": "A4",
          "midi": 69,
          "time": 171.02325581392734,
          "velocity": 0.3228346456692913,
          "duration": 0.11627906976741542
        },
        {
          "name": "D#3",
          "midi": 51,
          "time": 171.03488372090408,
          "velocity": 0.3700787401574803,
          "duration": 0.023255813953483084
        },
        {
          "name": "E2",
          "midi": 40,
          "time": 171.04651162788082,
          "velocity": 0.5433070866141733,
          "duration": 0.011627906976741542
        },
        {
          "name": "F4",
          "midi": 65,
          "time": 171.04651162788082,
          "velocity": 0.3228346456692913,
          "duration": 0.023255813953483084
        },
        {
          "name": "F#5",
          "midi": 78,
          "time": 171.04651162788082,
          "velocity": 0.14173228346456693,
          "duration": 0.05813953488370771
        },
        {
          "name": "A#3",
          "midi": 58,
          "time": 171.05813953485756,
          "velocity": 0.29133858267716534,
          "duration": 0.023255813953483084
        },
        {
          "name": "D5",
          "midi": 74,
          "time": 171.0697674418343,
          "velocity": 0.11023622047244094,
          "duration": 0.034883720930224626
        },
        {
          "name": "C2",
          "midi": 36,
          "time": 171.08139534881104,
          "velocity": 0.4409448818897638,
          "duration": 0.034883720930224626
        },
        {
          "name": "C#3",
          "midi": 49,
          "time": 171.08139534881104,
          "velocity": 0.44881889763779526,
          "duration": 0.034883720930224626
        },
        {
          "name": "F#4",
          "midi": 66,
          "time": 171.09302325578778,
          "velocity": 0.2677165354330709,
          "duration": 0.023255813953483084
        },
        {
          "name": "B4",
          "midi": 71,
          "time": 171.11627906974127,
          "velocity": 0.36220472440944884,
          "duration": 0.20930232558134776
        },
        {
          "name": "A2",
          "midi": 45,
          "time": 171.127906976718,
          "velocity": 0.5275590551181102,
          "duration": 0.023255813953483084
        },
        {
          "name": "E4",
          "midi": 64,
          "time": 171.127906976718,
          "velocity": 0.33858267716535434,
          "duration": 0.023255813953483084
        },
        {
          "name": "D5",
          "midi": 74,
          "time": 171.127906976718,
          "velocity": 0.18110236220472442,
          "duration": 0.034883720930224626
        },
        {
          "name": "F#5",
          "midi": 78,
          "time": 171.13953488369475,
          "velocity": 0.30708661417322836,
          "duration": 0.24418604651157239
        },
        {
          "name": "C6",
          "midi": 84,
          "time": 171.13953488369475,
          "velocity": 0.16535433070866143,
          "duration": 0.06976744186044925
        },
        {
          "name": "C#3",
          "midi": 49,
          "time": 171.1511627906715,
          "velocity": 0.4015748031496063,
          "duration": 0.023255813953483084
        },
        {
          "name": "D#4",
          "midi": 63,
          "time": 171.1511627906715,
          "velocity": 0.3779527559055118,
          "duration": 0.023255813953483084
        },
        {
          "name": "G3",
          "midi": 55,
          "time": 171.16279069764823,
          "velocity": 0.3464566929133858,
          "duration": 0.023255813953483084
        },
        {
          "name": "A4",
          "midi": 69,
          "time": 171.16279069764823,
          "velocity": 0.2677165354330709,
          "duration": 0.034883720930224626
        },
        {
          "name": "E5",
          "midi": 76,
          "time": 171.16279069764823,
          "velocity": 0.2047244094488189,
          "duration": 0.05813953488370771
        },
        {
          "name": "D#2",
          "midi": 39,
          "time": 171.17441860462498,
          "velocity": 0.4566929133858268,
          "duration": 0.023255813953483084
        },
        {
          "name": "E4",
          "midi": 64,
          "time": 171.17441860462498,
          "velocity": 0.3858267716535433,
          "duration": 0.034883720930224626
        },
        {
          "name": "D#6",
          "midi": 87,
          "time": 171.19767441857846,
          "velocity": 0.14173228346456693,
          "duration": 0.04651162790696617
        },
        {
          "name": "F4",
          "midi": 65,
          "time": 171.2093023255552,
          "velocity": 0.4251968503937008,
          "duration": 0.023255813953483084
        },
        {
          "name": "C#5",
          "midi": 73,
          "time": 171.2093023255552,
          "velocity": 0.07874015748031496,
          "duration": 0.034883720930224626
        },
        {
          "name": "F1",
          "midi": 29,
          "time": 171.22093023253194,
          "velocity": 0.33858267716535434,
          "duration": 0.023255813953483084
        },
        {
          "name": "C3",
          "midi": 48,
          "time": 171.23255813950868,
          "velocity": 0.4645669291338583,
          "duration": 0.034883720930224626
        },
        {
          "name": "A5",
          "midi": 81,
          "time": 171.23255813950868,
          "velocity": 0.1889763779527559,
          "duration": 0.10465116279067388
        },
        {
          "name": "E6",
          "midi": 88,
          "time": 171.23255813950868,
          "velocity": 0.25984251968503935,
          "duration": 2.209302325580893
        },
        {
          "name": "E5",
          "midi": 76,
          "time": 171.24418604648542,
          "velocity": 0.33070866141732286,
          "duration": 0.18604651162786467
        },
        {
          "name": "D5",
          "midi": 74,
          "time": 171.2674418604389,
          "velocity": 0.14960629921259844,
          "duration": 0.04651162790696617
        },
        {
          "name": "E4",
          "midi": 64,
          "time": 171.27906976741565,
          "velocity": 0.4015748031496063,
          "duration": 0.3372093023255047
        },
        {
          "name": "A4",
          "midi": 69,
          "time": 171.27906976741565,
          "velocity": 0.25984251968503935,
          "duration": 0.09302325581393234
        },
        {
          "name": "E2",
          "midi": 40,
          "time": 171.30232558136913,
          "velocity": 0.48031496062992124,
          "duration": 0.023255813953483084
        },
        {
          "name": "F3",
          "midi": 53,
          "time": 171.31395348834587,
          "velocity": 0.3228346456692913,
          "duration": 0.023255813953483084
        },
        {
          "name": "B3",
          "midi": 59,
          "time": 171.31395348834587,
          "velocity": 0.2204724409448819,
          "duration": 0.034883720930224626
        },
        {
          "name": "A2",
          "midi": 45,
          "time": 171.33720930229936,
          "velocity": 0.4566929133858268,
          "duration": 0.023255813953483084
        },
        {
          "name": "E3",
          "midi": 52,
          "time": 171.33720930229936,
          "velocity": 0.3228346456692913,
          "duration": 0.034883720930224626
        },
        {
          "name": "B4",
          "midi": 71,
          "time": 171.33720930229936,
          "velocity": 0.31496062992125984,
          "duration": 0.15116279069764005
        },
        {
          "name": "G#5",
          "midi": 80,
          "time": 171.33720930229936,
          "velocity": 0.07874015748031496,
          "duration": 0.034883720930224626
        },
        {
          "name": "F2",
          "midi": 41,
          "time": 171.37209302322958,
          "velocity": 0.3700787401574803,
          "duration": 0.023255813953483084
        },
        {
          "name": "D3",
          "midi": 50,
          "time": 171.38372093020632,
          "velocity": 0.31496062992125984,
          "duration": 0.023255813953483084
        },
        {
          "name": "G#2",
          "midi": 44,
          "time": 171.4069767441598,
          "velocity": 0.5196850393700787,
          "duration": 0.011627906976741542
        },
        {
          "name": "F#5",
          "midi": 78,
          "time": 171.4069767441598,
          "velocity": 0.3543307086614173,
          "duration": 0.2209302325580893
        },
        {
          "name": "G2",
          "midi": 43,
          "time": 171.41860465113655,
          "velocity": 0.48031496062992124,
          "duration": 0.023255813953483084
        },
        {
          "name": "C4",
          "midi": 60,
          "time": 171.41860465113655,
          "velocity": 0.3700787401574803,
          "duration": 0.04651162790696617
        },
        {
          "name": "A4",
          "midi": 69,
          "time": 171.41860465113655,
          "velocity": 0.3228346456692913,
          "duration": 0.0813953488371908
        },
        {
          "name": "G#5",
          "midi": 80,
          "time": 171.4302325581133,
          "velocity": 0.11811023622047244,
          "duration": 0.034883720930224626
        },
        {
          "name": "E3",
          "midi": 52,
          "time": 171.47674418602026,
          "velocity": 0.3464566929133858,
          "duration": 0.023255813953483084
        },
        {
          "name": "C4",
          "midi": 60,
          "time": 171.47674418602026,
          "velocity": 0.2204724409448819,
          "duration": 0.034883720930224626
        },
        {
          "name": "C#2",
          "midi": 37,
          "time": 171.49999999997374,
          "velocity": 0.31496062992125984,
          "duration": 0.034883720930224626
        },
        {
          "name": "B4",
          "midi": 71,
          "time": 171.49999999997374,
          "velocity": 0.3228346456692913,
          "duration": 0.24418604651157239
        },
        {
          "name": "E3",
          "midi": 52,
          "time": 171.51162790695048,
          "velocity": 0.3228346456692913,
          "duration": 0.023255813953483084
        },
        {
          "name": "D#3",
          "midi": 51,
          "time": 171.53488372090396,
          "velocity": 0.3543307086614173,
          "duration": 0.023255813953483084
        },
        {
          "name": "A4",
          "midi": 69,
          "time": 171.53488372090396,
          "velocity": 0.25196850393700787,
          "duration": 0.0813953488371908
        },
        {
          "name": "G#5",
          "midi": 80,
          "time": 171.5465116278807,
          "velocity": 0.12598425196850394,
          "duration": 0.04651162790696617
        },
        {
          "name": "E3",
          "midi": 52,
          "time": 171.61627906974115,
          "velocity": 0.4094488188976378,
          "duration": 0.023255813953483084
        },
        {
          "name": "F4",
          "midi": 65,
          "time": 171.61627906974115,
          "velocity": 0.3700787401574803,
          "duration": 0.04651162790696617
        },
        {
          "name": "C#6",
          "midi": 85,
          "time": 171.61627906974115,
          "velocity": 0.09448818897637795,
          "duration": 0.06976744186044925
        },
        {
          "name": "G5",
          "midi": 79,
          "time": 171.6279069767179,
          "velocity": 0.3543307086614173,
          "duration": 0.45348837209292014
        },
        {
          "name": "E5",
          "midi": 76,
          "time": 171.63953488369464,
          "velocity": 0.15748031496062992,
          "duration": 0.0813953488371908
        },
        {
          "name": "G#2",
          "midi": 44,
          "time": 171.66279069764812,
          "velocity": 0.4645669291338583,
          "duration": 0.023255813953483084
        },
        {
          "name": "E4",
          "midi": 64,
          "time": 171.66279069764812,
          "velocity": 0.2755905511811024,
          "duration": 0.023255813953483084
        },
        {
          "name": "E3",
          "midi": 52,
          "time": 171.69767441857834,
          "velocity": 0.33070866141732286,
          "duration": 0.023255813953483084
        },
        {
          "name": "B3",
          "midi": 59,
          "time": 171.69767441857834,
          "velocity": 0.14960629921259844,
          "duration": 0.034883720930224626
        },
        {
          "name": "E4",
          "midi": 64,
          "time": 171.69767441857834,
          "velocity": 0.3858267716535433,
          "duration": 0.12790697674415696
        },
        {
          "name": "G#2",
          "midi": 44,
          "time": 171.7093023255551,
          "velocity": 0.2755905511811024,
          "duration": 0.023255813953483084
        },
        {
          "name": "B6",
          "midi": 95,
          "time": 171.7093023255551,
          "velocity": 0.14173228346456693,
          "duration": 0.0813953488371908
        },
        {
          "name": "D#3",
          "midi": 51,
          "time": 171.72093023253183,
          "velocity": 0.3858267716535433,
          "duration": 0.023255813953483084
        },
        {
          "name": "G4",
          "midi": 67,
          "time": 171.73255813950857,
          "velocity": 0.3543307086614173,
          "duration": 0.09302325581393234
        },
        {
          "name": "E3",
          "midi": 52,
          "time": 171.7441860464853,
          "velocity": 0.31496062992125984,
          "duration": 0.04651162790696617
        },
        {
          "name": "B4",
          "midi": 71,
          "time": 171.75581395346205,
          "velocity": 0.36220472440944884,
          "duration": 0.19767441860460622
        },
        {
          "name": "B3",
          "midi": 59,
          "time": 171.7674418604388,
          "velocity": 0.18110236220472442,
          "duration": 0.15116279069764005
        },
        {
          "name": "G#2",
          "midi": 44,
          "time": 171.79069767439228,
          "velocity": 0.3779527559055118,
          "duration": 0.023255813953483084
        },
        {
          "name": "A5",
          "midi": 81,
          "time": 171.80232558136902,
          "velocity": 0.07086614173228346,
          "duration": 0.04651162790696617
        },
        {
          "name": "D6",
          "midi": 86,
          "time": 171.81395348834576,
          "velocity": 0.09448818897637795,
          "duration": 0.04651162790696617
        },
        {
          "name": "F#4",
          "midi": 66,
          "time": 171.8255813953225,
          "velocity": 0.44881889763779526,
          "duration": 0.023255813953483084
        },
        {
          "name": "F2",
          "midi": 41,
          "time": 171.84883720927598,
          "velocity": 0.29133858267716534,
          "duration": 0.023255813953483084
        },
        {
          "name": "F3",
          "midi": 53,
          "time": 171.84883720927598,
          "velocity": 0.3228346456692913,
          "duration": 0.023255813953483084
        },
        {
          "name": "G4",
          "midi": 67,
          "time": 171.84883720927598,
          "velocity": 0.44881889763779526,
          "duration": 0.04651162790696617
        },
        {
          "name": "A#5",
          "midi": 82,
          "time": 171.86046511625273,
          "velocity": 0.18110236220472442,
          "duration": 0.04651162790696617
        },
        {
          "name": "G#2",
          "midi": 44,
          "time": 171.87209302322947,
          "velocity": 0.2755905511811024,
          "duration": 0.04651162790696617
        },
        {
          "name": "E3",
          "midi": 52,
          "time": 171.87209302322947,
          "velocity": 0.30708661417322836,
          "duration": 0.034883720930224626
        },
        {
          "name": "F#6",
          "midi": 90,
          "time": 171.87209302322947,
          "velocity": 0.12598425196850394,
          "duration": 0.04651162790696617
        },
        {
          "name": "D6",
          "midi": 86,
          "time": 171.8837209302062,
          "velocity": 0.12598425196850394,
          "duration": 0.17441860465112313
        },
        {
          "name": "G4",
          "midi": 67,
          "time": 171.9069767441597,
          "velocity": 0.3700787401574803,
          "duration": 0.15116279069764005
        },
        {
          "name": "F#5",
          "midi": 78,
          "time": 171.9069767441597,
          "velocity": 0.11023622047244094,
          "duration": 0.06976744186044925
        },
        {
          "name": "G2",
          "midi": 43,
          "time": 171.91860465113643,
          "velocity": 0.2992125984251969,
          "duration": 0.023255813953483084
        },
        {
          "name": "E4",
          "midi": 64,
          "time": 171.93023255811318,
          "velocity": 0.14960629921259844,
          "duration": 0.034883720930224626
        },
        {
          "name": "G#2",
          "midi": 44,
          "time": 171.94186046508992,
          "velocity": 0.29133858267716534,
          "duration": 0.023255813953483084
        },
        {
          "name": "B4",
          "midi": 71,
          "time": 171.9651162790434,
          "velocity": 0.28346456692913385,
          "duration": 0.023255813953483084
        },
        {
          "name": "E4",
          "midi": 64,
          "time": 171.98837209299688,
          "velocity": 0.2755905511811024,
          "duration": 0.04651162790696617
        },
        {
          "name": "F2",
          "midi": 41,
          "time": 171.99999999997362,
          "velocity": 0.3858267716535433,
          "duration": 0.023255813953483084
        },
        {
          "name": "E3",
          "midi": 52,
          "time": 171.99999999997362,
          "velocity": 0.23622047244094488,
          "duration": 0.023255813953483084
        },
        {
          "name": "E3",
          "midi": 52,
          "time": 172.03488372090385,
          "velocity": 0.30708661417322836,
          "duration": 0.034883720930224626
        },
        {
          "name": "A4",
          "midi": 69,
          "time": 172.03488372090385,
          "velocity": 0.33858267716535434,
          "duration": 0.05813953488370771
        },
        {
          "name": "F#6",
          "midi": 90,
          "time": 172.05813953485733,
          "velocity": 0.14173228346456693,
          "duration": 0.05813953488370771
        },
        {
          "name": "F3",
          "midi": 53,
          "time": 172.06976744183407,
          "velocity": 0.2992125984251969,
          "duration": 0.023255813953483084
        },
        {
          "name": "F4",
          "midi": 65,
          "time": 172.06976744183407,
          "velocity": 0.36220472440944884,
          "duration": 0.034883720930224626
        },
        {
          "name": "B4",
          "midi": 71,
          "time": 172.06976744183407,
          "velocity": 0.31496062992125984,
          "duration": 0.23255813953483084
        },
        {
          "name": "F#5",
          "midi": 78,
          "time": 172.06976744183407,
          "velocity": 0.36220472440944884,
          "duration": 0.19767441860460622
        },
        {
          "name": "F#3",
          "midi": 54,
          "time": 172.09302325578756,
          "velocity": 0.23622047244094488,
          "duration": 0.023255813953483084
        },
        {
          "name": "E4",
          "midi": 64,
          "time": 172.1046511627643,
          "velocity": 0.3543307086614173,
          "duration": 0.1395348837208985
        },
        {
          "name": "G4",
          "midi": 67,
          "time": 172.1046511627643,
          "velocity": 0.28346456692913385,
          "duration": 0.023255813953483084
        },
        {
          "name": "B3",
          "midi": 59,
          "time": 172.11627906974104,
          "velocity": 0.08661417322834646,
          "duration": 0.034883720930224626
        },
        {
          "name": "E3",
          "midi": 52,
          "time": 172.12790697671778,
          "velocity": 0.2992125984251969,
          "duration": 0.06976744186044925
        },
        {
          "name": "F#2",
          "midi": 42,
          "time": 172.1860465116015,
          "velocity": 0.29133858267716534,
          "duration": 0.023255813953483084
        },
        {
          "name": "G4",
          "midi": 67,
          "time": 172.20930232555497,
          "velocity": 0.14173228346456693,
          "duration": 0.034883720930224626
        },
        {
          "name": "E3",
          "midi": 52,
          "time": 172.2209302325317,
          "velocity": 0.3464566929133858,
          "duration": 0.05813953488370771
        },
        {
          "name": "F4",
          "midi": 65,
          "time": 172.2441860464852,
          "velocity": 0.2992125984251969,
          "duration": 0.023255813953483084
        },
        {
          "name": "D5",
          "midi": 74,
          "time": 172.25581395346194,
          "velocity": 0.28346456692913385,
          "duration": 0.5348837209301109
        },
        {
          "name": "E2",
          "midi": 40,
          "time": 172.26744186043868,
          "velocity": 0.33070866141732286,
          "duration": 0.023255813953483084
        },
        {
          "name": "C4",
          "midi": 60,
          "time": 172.26744186043868,
          "velocity": 0.2992125984251969,
          "duration": 0.023255813953483084
        },
        {
          "name": "A5",
          "midi": 81,
          "time": 172.26744186043868,
          "velocity": 0.31496062992125984,
          "duration": 0.4186046511626955
        },
        {
          "name": "F3",
          "midi": 53,
          "time": 172.27906976741542,
          "velocity": 0.3464566929133858,
          "duration": 0.034883720930224626
        },
        {
          "name": "F#6",
          "midi": 90,
          "time": 172.27906976741542,
          "velocity": 0.18110236220472442,
          "duration": 0.0813953488371908
        },
        {
          "name": "A2",
          "midi": 45,
          "time": 172.3023255813689,
          "velocity": 0.33070866141732286,
          "duration": 0.034883720930224626
        },
        {
          "name": "D4",
          "midi": 62,
          "time": 172.3023255813689,
          "velocity": 0.25196850393700787,
          "duration": 0.023255813953483084
        },
        {
          "name": "F#4",
          "midi": 66,
          "time": 172.3023255813689,
          "velocity": 0.16535433070866143,
          "duration": 0.04651162790696617
        },
        {
          "name": "E3",
          "midi": 52,
          "time": 172.34883720927587,
          "velocity": 0.2677165354330709,
          "duration": 0.034883720930224626
        },
        {
          "name": "E5",
          "midi": 76,
          "time": 172.34883720927587,
          "velocity": 0.10236220472440945,
          "duration": 0.04651162790696617
        },
        {
          "name": "A#1",
          "midi": 34,
          "time": 172.3604651162526,
          "velocity": 0.2283464566929134,
          "duration": 0.023255813953483084
        },
        {
          "name": "B4",
          "midi": 71,
          "time": 172.37209302322935,
          "velocity": 0.30708661417322836,
          "duration": 0.18604651162786467
        },
        {
          "name": "F#5",
          "midi": 78,
          "time": 172.37209302322935,
          "velocity": 0.10236220472440945,
          "duration": 0.04651162790696617
        },
        {
          "name": "E4",
          "midi": 64,
          "time": 172.3837209302061,
          "velocity": 0.25984251968503935,
          "duration": 0.06976744186044925
        },
        {
          "name": "F#6",
          "midi": 90,
          "time": 172.40697674415958,
          "velocity": 0.11023622047244094,
          "duration": 0.06976744186044925
        },
        {
          "name": "F3",
          "midi": 53,
          "time": 172.41860465113632,
          "velocity": 0.23622047244094488,
          "duration": 0.023255813953483084
        },
        {
          "name": "D4",
          "midi": 62,
          "time": 172.4418604650898,
          "velocity": 0.18110236220472442,
          "duration": 0.05813953488370771
        },
        {
          "name": "F#2",
          "midi": 42,
          "time": 172.4651162790433,
          "velocity": 0.3228346456692913,
          "duration": 0.023255813953483084
        },
        {
          "name": "A4",
          "midi": 69,
          "time": 172.47674418602003,
          "velocity": 0.16535433070866143,
          "duration": 0.05813953488370771
        },
        {
          "name": "E3",
          "midi": 52,
          "time": 172.48837209299677,
          "velocity": 0.28346456692913385,
          "duration": 0.034883720930224626
        },
        {
          "name": "F4",
          "midi": 65,
          "time": 172.48837209299677,
          "velocity": 0.2440944881889764,
          "duration": 0.023255813953483084
        },
        {
          "name": "F#2",
          "midi": 42,
          "time": 172.51162790695025,
          "velocity": 0.28346456692913385,
          "duration": 0.023255813953483084
        },
        {
          "name": "E4",
          "midi": 64,
          "time": 172.51162790695025,
          "velocity": 0.28346456692913385,
          "duration": 0.034883720930224626
        },
        {
          "name": "D#3",
          "midi": 51,
          "time": 172.54651162788048,
          "velocity": 0.16535433070866143,
          "duration": 0.034883720930224626
        },
        {
          "name": "B4",
          "midi": 71,
          "time": 172.56976744183396,
          "velocity": 0.11811023622047244,
          "duration": 0.04651162790696617
        },
        {
          "name": "B5",
          "midi": 83,
          "time": 172.56976744183396,
          "velocity": 0.16535433070866143,
          "duration": 0.1627906976743816
        },
        {
          "name": "F3",
          "midi": 53,
          "time": 172.5813953488107,
          "velocity": 0.4330708661417323,
          "duration": 0.1395348837208985
        },
        {
          "name": "F#2",
          "midi": 42,
          "time": 172.61627906974093,
          "velocity": 0.2755905511811024,
          "duration": 0.023255813953483084
        },
        {
          "name": "E4",
          "midi": 64,
          "time": 172.62790697671767,
          "velocity": 0.25984251968503935,
          "duration": 0.034883720930224626
        },
        {
          "name": "B4",
          "midi": 71,
          "time": 172.62790697671767,
          "velocity": 0.2283464566929134,
          "duration": 0.04651162790696617
        },
        {
          "name": "B6",
          "midi": 95,
          "time": 172.62790697671767,
          "velocity": 0.18110236220472442,
          "duration": 0.18604651162786467
        },
        {
          "name": "E5",
          "midi": 76,
          "time": 172.65116279067115,
          "velocity": 0.41732283464566927,
          "duration": 0.26744186046505547
        },
        {
          "name": "G2",
          "midi": 43,
          "time": 172.67441860462463,
          "velocity": 0.2440944881889764,
          "duration": 0.023255813953483084
        },
        {
          "name": "F#7",
          "midi": 102,
          "time": 172.67441860462463,
          "velocity": 0.08661417322834646,
          "duration": 0.034883720930224626
        },
        {
          "name": "B4",
          "midi": 71,
          "time": 172.68604651160138,
          "velocity": 0.3464566929133858,
          "duration": 0.23255813953483084
        },
        {
          "name": "F#6",
          "midi": 90,
          "time": 172.68604651160138,
          "velocity": 0.1968503937007874,
          "duration": 0.04651162790696617
        },
        {
          "name": "E4",
          "midi": 64,
          "time": 172.69767441857812,
          "velocity": 0.3858267716535433,
          "duration": 0.05813953488370771
        },
        {
          "name": "F#5",
          "midi": 78,
          "time": 172.69767441857812,
          "velocity": 0.18110236220472442,
          "duration": 0.06976744186044925
        },
        {
          "name": "C6",
          "midi": 84,
          "time": 172.69767441857812,
          "velocity": 0.09448818897637795,
          "duration": 0.06976744186044925
        },
        {
          "name": "C#6",
          "midi": 85,
          "time": 172.69767441857812,
          "velocity": 0.16535433070866143,
          "duration": 0.12790697674415696
        },
        {
          "name": "G#6",
          "midi": 92,
          "time": 172.69767441857812,
          "velocity": 0.07086614173228346,
          "duration": 0.034883720930224626
        },
        {
          "name": "E2",
          "midi": 40,
          "time": 172.70930232555486,
          "velocity": 0.5196850393700787,
          "duration": 0.011627906976741542
        },
        {
          "name": "G#5",
          "midi": 80,
          "time": 172.70930232555486,
          "velocity": 0.11811023622047244,
          "duration": 0.034883720930224626
        },
        {
          "name": "G4",
          "midi": 67,
          "time": 172.7209302325316,
          "velocity": 0.2047244094488189,
          "duration": 0.04651162790696617
        },
        {
          "name": "A4",
          "midi": 69,
          "time": 172.7209302325316,
          "velocity": 0.18110236220472442,
          "duration": 0.05813953488370771
        },
        {
          "name": "F3",
          "midi": 53,
          "time": 172.73255813950834,
          "velocity": 0.41732283464566927,
          "duration": 0.023255813953483084
        },
        {
          "name": "A#6",
          "midi": 94,
          "time": 172.73255813950834,
          "velocity": 0.11811023622047244,
          "duration": 0.034883720930224626
        },
        {
          "name": "C#2",
          "midi": 37,
          "time": 172.74418604648508,
          "velocity": 0.4015748031496063,
          "duration": 0.023255813953483084
        },
        {
          "name": "D#6",
          "midi": 87,
          "time": 172.75581395346182,
          "velocity": 0.11023622047244094,
          "duration": 0.034883720930224626
        },
        {
          "name": "G#4",
          "midi": 68,
          "time": 172.7790697674153,
          "velocity": 0.12598425196850394,
          "duration": 0.034883720930224626
        },
        {
          "name": "F#5",
          "midi": 78,
          "time": 172.7790697674153,
          "velocity": 0.36220472440944884,
          "duration": 0.5116279069766279
        },
        {
          "name": "G2",
          "midi": 43,
          "time": 172.79069767439205,
          "velocity": 0.33070866141732286,
          "duration": 0.023255813953483084
        },
        {
          "name": "E3",
          "midi": 52,
          "time": 172.81395348834553,
          "velocity": 0.33858267716535434,
          "duration": 0.06976744186044925
        },
        {
          "name": "E4",
          "midi": 64,
          "time": 172.82558139532227,
          "velocity": 0.4330708661417323,
          "duration": 0.3604651162789878
        },
        {
          "name": "D#2",
          "midi": 39,
          "time": 172.83720930229902,
          "velocity": 0.2677165354330709,
          "duration": 0.023255813953483084
        },
        {
          "name": "A2",
          "midi": 45,
          "time": 172.84883720927576,
          "velocity": 0.28346456692913385,
          "duration": 0.023255813953483084
        },
        {
          "name": "G4",
          "midi": 67,
          "time": 172.87209302322924,
          "velocity": 0.08661417322834646,
          "duration": 0.034883720930224626
        },
        {
          "name": "F2",
          "midi": 41,
          "time": 172.89534883718272,
          "velocity": 0.3858267716535433,
          "duration": 0.023255813953483084
        },
        {
          "name": "E3",
          "midi": 52,
          "time": 172.89534883718272,
          "velocity": 0.3464566929133858,
          "duration": 0.034883720930224626
        },
        {
          "name": "G2",
          "midi": 43,
          "time": 172.9186046511362,
          "velocity": 0.4409448818897638,
          "duration": 0.023255813953483084
        },
        {
          "name": "A#4",
          "midi": 70,
          "time": 172.9186046511362,
          "velocity": 0.1889763779527559,
          "duration": 0.034883720930224626
        },
        {
          "name": "D6",
          "midi": 86,
          "time": 172.9186046511362,
          "velocity": 0.07874015748031496,
          "duration": 0.034883720930224626
        },
        {
          "name": "D#6",
          "midi": 87,
          "time": 172.9186046511362,
          "velocity": 0.07086614173228346,
          "duration": 0.034883720930224626
        },
        {
          "name": "G#5",
          "midi": 80,
          "time": 172.93023255811295,
          "velocity": 0.18110236220472442,
          "duration": 0.18604651162786467
        },
        {
          "name": "B5",
          "midi": 83,
          "time": 172.9418604650897,
          "velocity": 0.1732283464566929,
          "duration": 0.12790697674415696
        },
        {
          "name": "B4",
          "midi": 71,
          "time": 172.96511627904317,
          "velocity": 0.29133858267716534,
          "duration": 0.0813953488371908
        },
        {
          "name": "E3",
          "midi": 52,
          "time": 172.9767441860199,
          "velocity": 0.28346456692913385,
          "duration": 0.023255813953483084
        },
        {
          "name": "B3",
          "midi": 59,
          "time": 172.9767441860199,
          "velocity": 0.18110236220472442,
          "duration": 0.034883720930224626
        },
        {
          "name": "C5",
          "midi": 72,
          "time": 173.04651162788036,
          "velocity": 0.15748031496062992,
          "duration": 0.034883720930224626
        },
        {
          "name": "B3",
          "midi": 59,
          "time": 173.09302325578733,
          "velocity": 0.2125984251968504,
          "duration": 0.034883720930224626
        },
        {
          "name": "C5",
          "midi": 72,
          "time": 173.09302325578733,
          "velocity": 0.2283464566929134,
          "duration": 0.034883720930224626
        },
        {
          "name": "B5",
          "midi": 83,
          "time": 173.09302325578733,
          "velocity": 0.2440944881889764,
          "duration": 0.1395348837208985
        },
        {
          "name": "E2",
          "midi": 40,
          "time": 173.10465116276407,
          "velocity": 0.36220472440944884,
          "duration": 0.04651162790696617
        },
        {
          "name": "D#3",
          "midi": 51,
          "time": 173.1162790697408,
          "velocity": 0.30708661417322836,
          "duration": 0.023255813953483084
        },
        {
          "name": "G5",
          "midi": 79,
          "time": 173.1162790697408,
          "velocity": 0.14960629921259844,
          "duration": 0.034883720930224626
        },
        {
          "name": "A6",
          "midi": 93,
          "time": 173.12790697671755,
          "velocity": 0.08661417322834646,
          "duration": 0.034883720930224626
        },
        {
          "name": "G4",
          "midi": 67,
          "time": 173.1395348836943,
          "velocity": 0.2440944881889764,
          "duration": 0.034883720930224626
        },
        {
          "name": "G#6",
          "midi": 92,
          "time": 173.1395348836943,
          "velocity": 0.11023622047244094,
          "duration": 0.04651162790696617
        },
        {
          "name": "D#7",
          "midi": 99,
          "time": 173.1395348836943,
          "velocity": 0.14173228346456693,
          "duration": 0.05813953488370771
        },
        {
          "name": "G#5",
          "midi": 80,
          "time": 173.15116279067104,
          "velocity": 0.13385826771653545,
          "duration": 0.04651162790696617
        },
        {
          "name": "B6",
          "midi": 95,
          "time": 173.15116279067104,
          "velocity": 0.33070866141732286,
          "duration": 0.6744186046510094
        },
        {
          "name": "B4",
          "midi": 71,
          "time": 173.16279069764778,
          "velocity": 0.25196850393700787,
          "duration": 0.034883720930224626
        },
        {
          "name": "D5",
          "midi": 74,
          "time": 173.16279069764778,
          "velocity": 0.11811023622047244,
          "duration": 0.034883720930224626
        },
        {
          "name": "F#4",
          "midi": 66,
          "time": 173.18604651160126,
          "velocity": 0.2677165354330709,
          "duration": 0.034883720930224626
        },
        {
          "name": "E5",
          "midi": 76,
          "time": 173.18604651160126,
          "velocity": 0.2677165354330709,
          "duration": 0.1395348837208985
        },
        {
          "name": "F3",
          "midi": 53,
          "time": 173.197674418578,
          "velocity": 0.2283464566929134,
          "duration": 0.023255813953483084
        },
        {
          "name": "E4",
          "midi": 64,
          "time": 173.197674418578,
          "velocity": 0.31496062992125984,
          "duration": 0.11627906976741542
        },
        {
          "name": "C5",
          "midi": 72,
          "time": 173.197674418578,
          "velocity": 0.29133858267716534,
          "duration": 0.034883720930224626
        },
        {
          "name": "B3",
          "midi": 59,
          "time": 173.20930232555475,
          "velocity": 0.25984251968503935,
          "duration": 0.023255813953483084
        },
        {
          "name": "G#5",
          "midi": 80,
          "time": 173.20930232555475,
          "velocity": 0.16535433070866143,
          "duration": 0.034883720930224626
        },
        {
          "name": "G#4",
          "midi": 68,
          "time": 173.2209302325315,
          "velocity": 0.18110236220472442,
          "duration": 0.034883720930224626
        },
        {
          "name": "D#7",
          "midi": 99,
          "time": 173.2209302325315,
          "velocity": 0.2440944881889764,
          "duration": 0.15116279069764005
        },
        {
          "name": "C4",
          "midi": 60,
          "time": 173.23255813950823,
          "velocity": 0.33858267716535434,
          "duration": 0.09302325581393234
        },
        {
          "name": "B4",
          "midi": 71,
          "time": 173.23255813950823,
          "velocity": 0.3464566929133858,
          "duration": 0.11627906976741542
        },
        {
          "name": "E3",
          "midi": 52,
          "time": 173.24418604648497,
          "velocity": 0.41732283464566927,
          "duration": 0.10465116279067388
        },
        {
          "name": "G#5",
          "midi": 80,
          "time": 173.2558139534617,
          "velocity": 0.2125984251968504,
          "duration": 0.06976744186044925
        },
        {
          "name": "A3",
          "midi": 57,
          "time": 173.30232558136868,
          "velocity": 0.3543307086614173,
          "duration": 0.04651162790696617
        },
        {
          "name": "F#2",
          "midi": 42,
          "time": 173.31395348834542,
          "velocity": 0.30708661417322836,
          "duration": 0.023255813953483084
        },
        {
          "name": "G5",
          "midi": 79,
          "time": 173.32558139532216,
          "velocity": 0.29133858267716534,
          "duration": 0.24418604651157239
        },
        {
          "name": "G4",
          "midi": 67,
          "time": 173.3372093022989,
          "velocity": 0.23622047244094488,
          "duration": 0.023255813953483084
        },
        {
          "name": "F3",
          "midi": 53,
          "time": 173.34883720927564,
          "velocity": 0.5039370078740157,
          "duration": 0.023255813953483084
        },
        {
          "name": "B5",
          "midi": 83,
          "time": 173.34883720927564,
          "velocity": 0.12598425196850394,
          "duration": 0.034883720930224626
        },
        {
          "name": "E7",
          "midi": 100,
          "time": 173.34883720927564,
          "velocity": 0.31496062992125984,
          "duration": 0.47674418604640323
        },
        {
          "name": "G#4",
          "midi": 68,
          "time": 173.36046511625239,
          "velocity": 0.2992125984251969,
          "duration": 0.023255813953483084
        },
        {
          "name": "E3",
          "midi": 52,
          "time": 173.37209302322913,
          "velocity": 0.4566929133858268,
          "duration": 0.034883720930224626
        },
        {
          "name": "B4",
          "midi": 71,
          "time": 173.37209302322913,
          "velocity": 0.3464566929133858,
          "duration": 0.3837209302324709
        },
        {
          "name": "D#5",
          "midi": 75,
          "time": 173.37209302322913,
          "velocity": 0.36220472440944884,
          "duration": 0.034883720930224626
        },
        {
          "name": "A6",
          "midi": 93,
          "time": 173.37209302322913,
          "velocity": 0.09448818897637795,
          "duration": 0.034883720930224626
        },
        {
          "name": "A#6",
          "midi": 94,
          "time": 173.38372093020587,
          "velocity": 0.2204724409448819,
          "duration": 0.034883720930224626
        },
        {
          "name": "D#7",
          "midi": 99,
          "time": 173.3953488371826,
          "velocity": 0.13385826771653545,
          "duration": 0.06976744186044925
        },
        {
          "name": "G4",
          "midi": 67,
          "time": 173.40697674415935,
          "velocity": 0.25196850393700787,
          "duration": 0.04651162790696617
        },
        {
          "name": "E5",
          "midi": 76,
          "time": 173.40697674415935,
          "velocity": 0.41732283464566927,
          "duration": 0.406976744185954
        },
        {
          "name": "G#5",
          "midi": 80,
          "time": 173.40697674415935,
          "velocity": 0.13385826771653545,
          "duration": 0.0813953488371908
        },
        {
          "name": "E4",
          "midi": 64,
          "time": 173.4186046511361,
          "velocity": 0.3937007874015748,
          "duration": 0.29069767441853855
        },
        {
          "name": "A2",
          "midi": 45,
          "time": 173.43023255811283,
          "velocity": 0.2677165354330709,
          "duration": 0.023255813953483084
        },
        {
          "name": "A#2",
          "midi": 46,
          "time": 173.45348837206632,
          "velocity": 0.30708661417322836,
          "duration": 0.04651162790696617
        },
        {
          "name": "F#6",
          "midi": 90,
          "time": 173.45348837206632,
          "velocity": 0.11023622047244094,
          "duration": 0.034883720930224626
        },
        {
          "name": "E3",
          "midi": 52,
          "time": 173.46511627904306,
          "velocity": 0.2283464566929134,
          "duration": 0.023255813953483084
        },
        {
          "name": "G4",
          "midi": 67,
          "time": 173.46511627904306,
          "velocity": 0.31496062992125984,
          "duration": 0.0813953488371908
        },
        {
          "name": "G#2",
          "midi": 44,
          "time": 173.51162790695003,
          "velocity": 0.2992125984251969,
          "duration": 0.023255813953483084
        },
        {
          "name": "D6",
          "midi": 86,
          "time": 173.51162790695003,
          "velocity": 0.10236220472440945,
          "duration": 0.034883720930224626
        },
        {
          "name": "A#5",
          "midi": 82,
          "time": 173.54651162788025,
          "velocity": 0.2440944881889764,
          "duration": 0.023255813953483084
        },
        {
          "name": "F3",
          "midi": 53,
          "time": 173.558139534857,
          "velocity": 0.4251968503937008,
          "duration": 0.034883720930224626
        },
        {
          "name": "G4",
          "midi": 67,
          "time": 173.558139534857,
          "velocity": 0.44881889763779526,
          "duration": 0.23255813953483084
        },
        {
          "name": "F#5",
          "midi": 78,
          "time": 173.558139534857,
          "velocity": 0.07874015748031496,
          "duration": 0.034883720930224626
        },
        {
          "name": "G#5",
          "midi": 80,
          "time": 173.56976744183373,
          "velocity": 0.14173228346456693,
          "duration": 0.0813953488371908
        },
        {
          "name": "F#7",
          "midi": 102,
          "time": 173.58139534881047,
          "velocity": 0.07086614173228346,
          "duration": 0.06976744186044925
        },
        {
          "name": "E3",
          "midi": 52,
          "time": 173.59302325578722,
          "velocity": 0.25984251968503935,
          "duration": 0.034883720930224626
        },
        {
          "name": "A#3",
          "midi": 58,
          "time": 173.59302325578722,
          "velocity": 0.23622047244094488,
          "duration": 0.034883720930224626
        },
        {
          "name": "C#2",
          "midi": 37,
          "time": 173.60465116276396,
          "velocity": 0.4251968503937008,
          "duration": 0.023255813953483084
        },
        {
          "name": "F#6",
          "midi": 90,
          "time": 173.6162790697407,
          "velocity": 0.09448818897637795,
          "duration": 0.04651162790696617
        },
        {
          "name": "A1",
          "midi": 33,
          "time": 173.62790697671744,
          "velocity": 0.3858267716535433,
          "duration": 0.023255813953483084
        },
        {
          "name": "C3",
          "midi": 48,
          "time": 173.62790697671744,
          "velocity": 0.31496062992125984,
          "duration": 0.04651162790696617
        },
        {
          "name": "F#5",
          "midi": 78,
          "time": 173.65116279067092,
          "velocity": 0.15748031496062992,
          "duration": 0.06976744186044925
        },
        {
          "name": "F1",
          "midi": 29,
          "time": 173.68604651160115,
          "velocity": 0.3464566929133858,
          "duration": 0.023255813953483084
        },
        {
          "name": "B3",
          "midi": 59,
          "time": 173.68604651160115,
          "velocity": 0.15748031496062992,
          "duration": 0.04651162790696617
        },
        {
          "name": "F#6",
          "midi": 90,
          "time": 173.72093023253137,
          "velocity": 0.3779527559055118,
          "duration": 0.3255813953487632
        },
        {
          "name": "C3",
          "midi": 48,
          "time": 173.73255813950811,
          "velocity": 0.2992125984251969,
          "duration": 0.023255813953483084
        },
        {
          "name": "G#3",
          "midi": 56,
          "time": 173.74418604648486,
          "velocity": 0.25984251968503935,
          "duration": 0.023255813953483084
        },
        {
          "name": "E4",
          "midi": 64,
          "time": 173.74418604648486,
          "velocity": 0.29133858267716534,
          "duration": 0.023255813953483084
        },
        {
          "name": "D2",
          "midi": 38,
          "time": 173.7558139534616,
          "velocity": 0.6220472440944882,
          "duration": 0.023255813953483084
        },
        {
          "name": "C5",
          "midi": 72,
          "time": 173.7558139534616,
          "velocity": 0.2283464566929134,
          "duration": 0.034883720930224626
        },
        {
          "name": "G#5",
          "midi": 80,
          "time": 173.7558139534616,
          "velocity": 0.15748031496062992,
          "duration": 0.034883720930224626
        },
        {
          "name": "C#6",
          "midi": 85,
          "time": 173.7558139534616,
          "velocity": 0.18110236220472442,
          "duration": 0.034883720930224626
        },
        {
          "name": "D6",
          "midi": 86,
          "time": 173.7558139534616,
          "velocity": 0.14173228346456693,
          "duration": 0.04651162790696617
        },
        {
          "name": "C#7",
          "midi": 97,
          "time": 173.7558139534616,
          "velocity": 0.31496062992125984,
          "duration": 0.279069767441797
        },
        {
          "name": "A#4",
          "midi": 70,
          "time": 173.76744186043834,
          "velocity": 0.23622047244094488,
          "duration": 0.023255813953483084
        },
        {
          "name": "F#5",
          "midi": 78,
          "time": 173.76744186043834,
          "velocity": 0.5511811023622047,
          "duration": 0.24418604651157239
        },
        {
          "name": "C2",
          "midi": 36,
          "time": 173.77906976741508,
          "velocity": 0.6141732283464567,
          "duration": 0.023255813953483084
        },
        {
          "name": "D5",
          "midi": 74,
          "time": 173.77906976741508,
          "velocity": 0.14960629921259844,
          "duration": 0.06976744186044925
        },
        {
          "name": "B4",
          "midi": 71,
          "time": 173.79069767439182,
          "velocity": 0.3858267716535433,
          "duration": 0.20930232558134776
        },
        {
          "name": "F6",
          "midi": 89,
          "time": 173.79069767439182,
          "velocity": 0.14173228346456693,
          "duration": 0.04651162790696617
        },
        {
          "name": "G#3",
          "midi": 56,
          "time": 173.80232558136856,
          "velocity": 0.2992125984251969,
          "duration": 0.023255813953483084
        },
        {
          "name": "G#5",
          "midi": 80,
          "time": 173.80232558136856,
          "velocity": 0.1889763779527559,
          "duration": 0.20930232558134776
        },
        {
          "name": "E4",
          "midi": 64,
          "time": 173.8139534883453,
          "velocity": 0.36220472440944884,
          "duration": 0.023255813953483084
        },
        {
          "name": "C#2",
          "midi": 37,
          "time": 173.82558139532205,
          "velocity": 0.5826771653543307,
          "duration": 0.011627906976741542
        },
        {
          "name": "C2",
          "midi": 36,
          "time": 173.8372093022988,
          "velocity": 0.5354330708661418,
          "duration": 0.011627906976741542
        },
        {
          "name": "F#4",
          "midi": 66,
          "time": 173.8372093022988,
          "velocity": 0.33070866141732286,
          "duration": 0.023255813953483084
        },
        {
          "name": "E5",
          "midi": 76,
          "time": 173.8372093022988,
          "velocity": 0.2677165354330709,
          "duration": 0.05813953488370771
        },
        {
          "name": "B6",
          "midi": 95,
          "time": 173.84883720927553,
          "velocity": 0.2047244094488189,
          "duration": 0.06976744186044925
        },
        {
          "name": "C2",
          "midi": 36,
          "time": 173.86046511625227,
          "velocity": 0.5433070866141733,
          "duration": 0.023255813953483084
        },
        {
          "name": "C4",
          "midi": 60,
          "time": 173.86046511625227,
          "velocity": 0.2283464566929134,
          "duration": 0.04651162790696617
        },
        {
          "name": "E4",
          "midi": 64,
          "time": 173.86046511625227,
          "velocity": 0.3543307086614173,
          "duration": 0.06976744186044925
        },
        {
          "name": "F6",
          "midi": 89,
          "time": 173.86046511625227,
          "velocity": 0.14960629921259844,
          "duration": 0.04651162790696617
        },
        {
          "name": "F3",
          "midi": 53,
          "time": 173.872093023229,
          "velocity": 0.25984251968503935,
          "duration": 0.023255813953483084
        },
        {
          "name": "F#4",
          "midi": 66,
          "time": 173.8953488371825,
          "velocity": 0.23622047244094488,
          "duration": 0.034883720930224626
        },
        {
          "name": "E2",
          "midi": 40,
          "time": 173.93023255811272,
          "velocity": 0.4645669291338583,
          "duration": 0.034883720930224626
        },
        {
          "name": "F3",
          "midi": 53,
          "time": 173.96511627904295,
          "velocity": 0.4330708661417323,
          "duration": 0.034883720930224626
        },
        {
          "name": "E2",
          "midi": 40,
          "time": 173.9767441860197,
          "velocity": 0.47244094488188976,
          "duration": 0.023255813953483084
        },
        {
          "name": "A4",
          "midi": 69,
          "time": 173.9767441860197,
          "velocity": 0.2755905511811024,
          "duration": 0.034883720930224626
        },
        {
          "name": "A6",
          "midi": 93,
          "time": 173.9767441860197,
          "velocity": 0.14960629921259844,
          "duration": 0.034883720930224626
        },
        {
          "name": "D#7",
          "midi": 99,
          "time": 173.9767441860197,
          "velocity": 0.07086614173228346,
          "duration": 0.04651162790696617
        },
        {
          "name": "E4",
          "midi": 64,
          "time": 173.98837209299643,
          "velocity": 0.3464566929133858,
          "duration": 0.034883720930224626
        },
        {
          "name": "C#5",
          "midi": 73,
          "time": 173.98837209299643,
          "velocity": 0.2992125984251969,
          "duration": 0.023255813953483084
        },
        {
          "name": "D5",
          "midi": 74,
          "time": 173.98837209299643,
          "velocity": 0.2047244094488189,
          "duration": 0.034883720930224626
        },
        {
          "name": "G6",
          "midi": 91,
          "time": 173.98837209299643,
          "velocity": 0.4645669291338583,
          "duration": 0.279069767441797
        },
        {
          "name": "D7",
          "midi": 98,
          "time": 173.98837209299643,
          "velocity": 0.28346456692913385,
          "duration": 0.2558139534883139
        },
        {
          "name": "C#2",
          "midi": 37,
          "time": 173.99999999997317,
          "velocity": 0.5748031496062992,
          "duration": 0.011627906976741542
        },
        {
          "name": "G5",
          "midi": 79,
          "time": 173.99999999997317,
          "velocity": 0.4645669291338583,
          "duration": 0.23255813953483084
        },
        {
          "name": "E2",
          "midi": 40,
          "time": 174.0116279069499,
          "velocity": 0.5196850393700787,
          "duration": 0.011627906976741542
        },
        {
          "name": "F3",
          "midi": 53,
          "time": 174.0116279069499,
          "velocity": 0.4409448818897638,
          "duration": 0.05813953488370771
        },
        {
          "name": "A2",
          "midi": 45,
          "time": 174.02325581392665,
          "velocity": 0.33070866141732286,
          "duration": 0.023255813953483084
        },
        {
          "name": "B4",
          "midi": 71,
          "time": 174.02325581392665,
          "velocity": 0.3858267716535433,
          "duration": 0.05813953488370771
        },
        {
          "name": "C2",
          "midi": 36,
          "time": 174.0348837209034,
          "velocity": 0.5118110236220472,
          "duration": 0.011627906976741542
        },
        {
          "name": "C4",
          "midi": 60,
          "time": 174.0348837209034,
          "velocity": 0.33070866141732286,
          "duration": 0.05813953488370771
        },
        {
          "name": "B1",
          "midi": 35,
          "time": 174.04651162788014,
          "velocity": 0.5590551181102362,
          "duration": 0.011627906976741542
        },
        {
          "name": "C#6",
          "midi": 85,
          "time": 174.04651162788014,
          "velocity": 0.08661417322834646,
          "duration": 0.06976744186044925
        },
        {
          "name": "G4",
          "midi": 67,
          "time": 174.05813953485688,
          "velocity": 0.2125984251968504,
          "duration": 0.04651162790696617
        },
        {
          "name": "E3",
          "midi": 52,
          "time": 174.06976744183362,
          "velocity": 0.3937007874015748,
          "duration": 0.023255813953483084
        },
        {
          "name": "F#6",
          "midi": 90,
          "time": 174.06976744183362,
          "velocity": 0.25984251968503935,
          "duration": 0.23255813953483084
        },
        {
          "name": "F3",
          "midi": 53,
          "time": 174.0930232557871,
          "velocity": 0.3700787401574803,
          "duration": 0.023255813953483084
        },
        {
          "name": "E4",
          "midi": 64,
          "time": 174.11627906974059,
          "velocity": 0.30708661417322836,
          "duration": 0.023255813953483084
        },
        {
          "name": "E2",
          "midi": 40,
          "time": 174.12790697671733,
          "velocity": 0.5118110236220472,
          "duration": 0.011627906976741542
        },
        {
          "name": "E7",
          "midi": 100,
          "time": 174.12790697671733,
          "velocity": 0.30708661417322836,
          "duration": 0.3372093023255047
        },
        {
          "name": "C#7",
          "midi": 97,
          "time": 174.13953488369407,
          "velocity": 0.11811023622047244,
          "duration": 0.06976744186044925
        },
        {
          "name": "F#4",
          "midi": 66,
          "time": 174.1511627906708,
          "velocity": 0.23622047244094488,
          "duration": 0.023255813953483084
        },
        {
          "name": "B2",
          "midi": 47,
          "time": 174.1744186046243,
          "velocity": 0.25984251968503935,
          "duration": 0.023255813953483084
        },
        {
          "name": "A4",
          "midi": 69,
          "time": 174.1744186046243,
          "velocity": 0.09448818897637795,
          "duration": 0.06976744186044925
        },
        {
          "name": "F3",
          "midi": 53,
          "time": 174.18604651160103,
          "velocity": 0.3228346456692913,
          "duration": 0.023255813953483084
        },
        {
          "name": "A3",
          "midi": 57,
          "time": 174.20930232555452,
          "velocity": 0.23622047244094488,
          "duration": 0.023255813953483084
        },
        {
          "name": "B4",
          "midi": 71,
          "time": 174.20930232555452,
          "velocity": 0.3858267716535433,
          "duration": 0.11627906976741542
        },
        {
          "name": "A5",
          "midi": 81,
          "time": 174.20930232555452,
          "velocity": 0.36220472440944884,
          "duration": 0.06976744186044925
        },
        {
          "name": "A6",
          "midi": 93,
          "time": 174.20930232555452,
          "velocity": 0.4645669291338583,
          "duration": 0.29069767441853855
        },
        {
          "name": "E3",
          "midi": 52,
          "time": 174.22093023253126,
          "velocity": 0.30708661417322836,
          "duration": 0.04651162790696617
        },
        {
          "name": "E4",
          "midi": 64,
          "time": 174.22093023253126,
          "velocity": 0.36220472440944884,
          "duration": 0.0813953488371908
        },
        {
          "name": "D#3",
          "midi": 51,
          "time": 174.26744186043823,
          "velocity": 0.3543307086614173,
          "duration": 0.023255813953483084
        },
        {
          "name": "A5",
          "midi": 81,
          "time": 174.2906976743917,
          "velocity": 0.3858267716535433,
          "duration": 0.23255813953483084
        },
        {
          "name": "F#5",
          "midi": 78,
          "time": 174.3139534883452,
          "velocity": 0.16535433070866143,
          "duration": 0.0813953488371908
        },
        {
          "name": "B1",
          "midi": 35,
          "time": 174.32558139532193,
          "velocity": 0.5196850393700787,
          "duration": 0.011627906976741542
        },
        {
          "name": "C2",
          "midi": 36,
          "time": 174.33720930229867,
          "velocity": 0.5433070866141733,
          "duration": 0.034883720930224626
        },
        {
          "name": "F4",
          "midi": 65,
          "time": 174.33720930229867,
          "velocity": 0.25984251968503935,
          "duration": 0.023255813953483084
        },
        {
          "name": "B4",
          "midi": 71,
          "time": 174.33720930229867,
          "velocity": 0.33858267716535434,
          "duration": 0.11627906976741542
        },
        {
          "name": "G5",
          "midi": 79,
          "time": 174.33720930229867,
          "velocity": 0.07874015748031496,
          "duration": 0.034883720930224626
        },
        {
          "name": "A3",
          "midi": 57,
          "time": 174.34883720927542,
          "velocity": 0.1732283464566929,
          "duration": 0.034883720930224626
        },
        {
          "name": "E4",
          "midi": 64,
          "time": 174.36046511625216,
          "velocity": 0.2755905511811024,
          "duration": 0.04651162790696617
        },
        {
          "name": "F3",
          "midi": 53,
          "time": 174.38372093020564,
          "velocity": 0.28346456692913385,
          "duration": 0.023255813953483084
        },
        {
          "name": "A4",
          "midi": 69,
          "time": 174.40697674415912,
          "velocity": 0.2677165354330709,
          "duration": 0.023255813953483084
        },
        {
          "name": "D5",
          "midi": 74,
          "time": 174.40697674415912,
          "velocity": 0.11023622047244094,
          "duration": 0.04651162790696617
        },
        {
          "name": "B1",
          "midi": 35,
          "time": 174.41860465113587,
          "velocity": 0.5354330708661418,
          "duration": 0.011627906976741542
        },
        {
          "name": "A2",
          "midi": 45,
          "time": 174.41860465113587,
          "velocity": 0.5669291338582677,
          "duration": 0.023255813953483084
        },
        {
          "name": "A#3",
          "midi": 58,
          "time": 174.41860465113587,
          "velocity": 0.2677165354330709,
          "duration": 0.023255813953483084
        },
        {
          "name": "E4",
          "midi": 64,
          "time": 174.41860465113587,
          "velocity": 0.3937007874015748,
          "duration": 0.4186046511626955
        },
        {
          "name": "F#5",
          "midi": 78,
          "time": 174.41860465113587,
          "velocity": 0.18110236220472442,
          "duration": 0.11627906976741542
        },
        {
          "name": "G#5",
          "midi": 80,
          "time": 174.41860465113587,
          "velocity": 0.25196850393700787,
          "duration": 0.023255813953483084
        },
        {
          "name": "G6",
          "midi": 91,
          "time": 174.41860465113587,
          "velocity": 0.1889763779527559,
          "duration": 0.279069767441797
        },
        {
          "name": "B6",
          "midi": 95,
          "time": 174.41860465113587,
          "velocity": 0.4645669291338583,
          "duration": 1.7325581395344898
        },
        {
          "name": "C#7",
          "midi": 97,
          "time": 174.41860465113587,
          "velocity": 0.14960629921259844,
          "duration": 0.04651162790696617
        },
        {
          "name": "D#7",
          "midi": 99,
          "time": 174.41860465113587,
          "velocity": 0.14960629921259844,
          "duration": 0.09302325581393234
        },
        {
          "name": "C#4",
          "midi": 61,
          "time": 174.4302325581126,
          "velocity": 0.3543307086614173,
          "duration": 0.034883720930224626
        },
        {
          "name": "F2",
          "midi": 41,
          "time": 174.44186046508935,
          "velocity": 0.5196850393700787,
          "duration": 0.011627906976741542
        },
        {
          "name": "G4",
          "midi": 67,
          "time": 174.44186046508935,
          "velocity": 0.3464566929133858,
          "duration": 0.18604651162786467
        },
        {
          "name": "D7",
          "midi": 98,
          "time": 174.44186046508935,
          "velocity": 0.13385826771653545,
          "duration": 0.05813953488370771
        },
        {
          "name": "B2",
          "midi": 47,
          "time": 174.4534883720661,
          "velocity": 0.5669291338582677,
          "duration": 0.023255813953483084
        },
        {
          "name": "C5",
          "midi": 72,
          "time": 174.4534883720661,
          "velocity": 0.2755905511811024,
          "duration": 0.11627906976741542
        },
        {
          "name": "F7",
          "midi": 101,
          "time": 174.4534883720661,
          "velocity": 0.12598425196850394,
          "duration": 0.11627906976741542
        },
        {
          "name": "C3",
          "midi": 48,
          "time": 174.47674418601957,
          "velocity": 0.5748031496062992,
          "duration": 0.011627906976741542
        },
        {
          "name": "C#3",
          "midi": 49,
          "time": 174.48837209299631,
          "velocity": 0.5905511811023622,
          "duration": 0.011627906976741542
        },
        {
          "name": "G3",
          "midi": 55,
          "time": 174.48837209299631,
          "velocity": 0.4645669291338583,
          "duration": 0.0813953488371908
        },
        {
          "name": "F#7",
          "midi": 102,
          "time": 174.48837209299631,
          "velocity": 0.14173228346456693,
          "duration": 0.0813953488371908
        },
        {
          "name": "C3",
          "midi": 48,
          "time": 174.49999999997306,
          "velocity": 0.5669291338582677,
          "duration": 0.011627906976741542
        },
        {
          "name": "E7",
          "midi": 100,
          "time": 174.49999999997306,
          "velocity": 0.11023622047244094,
          "duration": 0.034883720930224626
        },
        {
          "name": "C#3",
          "midi": 49,
          "time": 174.5116279069498,
          "velocity": 0.5511811023622047,
          "duration": 0.011627906976741542
        },
        {
          "name": "C3",
          "midi": 48,
          "time": 174.52325581392654,
          "velocity": 0.5826771653543307,
          "duration": 0.04651162790696617
        },
        {
          "name": "A6",
          "midi": 93,
          "time": 174.52325581392654,
          "velocity": 0.2047244094488189,
          "duration": 0.20930232558134776
        },
        {
          "name": "A#4",
          "midi": 70,
          "time": 174.53488372090328,
          "velocity": 0.1732283464566929,
          "duration": 0.034883720930224626
        },
        {
          "name": "E7",
          "midi": 100,
          "time": 174.55813953485676,
          "velocity": 0.12598425196850394,
          "duration": 0.09302325581393234
        },
        {
          "name": "B4",
          "midi": 71,
          "time": 174.5697674418335,
          "velocity": 0.30708661417322836,
          "duration": 0.034883720930224626
        },
        {
          "name": "B1",
          "midi": 35,
          "time": 174.593023255787,
          "velocity": 0.31496062992125984,
          "duration": 0.023255813953483084
        },
        {
          "name": "B2",
          "midi": 47,
          "time": 174.593023255787,
          "velocity": 0.3543307086614173,
          "duration": 0.023255813953483084
        },
        {
          "name": "F#5",
          "midi": 78,
          "time": 174.593023255787,
          "velocity": 0.12598425196850394,
          "duration": 0.034883720930224626
        },
        {
          "name": "G#5",
          "midi": 80,
          "time": 174.593023255787,
          "velocity": 0.11023622047244094,
          "duration": 0.034883720930224626
        },
        {
          "name": "A5",
          "midi": 81,
          "time": 174.593023255787,
          "velocity": 0.12598425196850394,
          "duration": 0.0813953488371908
        },
        {
          "name": "C4",
          "midi": 60,
          "time": 174.60465116276373,
          "velocity": 0.3779527559055118,
          "duration": 0.04651162790696617
        },
        {
          "name": "F#7",
          "midi": 102,
          "time": 174.60465116276373,
          "velocity": 0.1889763779527559,
          "duration": 0.10465116279067388
        },
        {
          "name": "G#2",
          "midi": 44,
          "time": 174.6279069767172,
          "velocity": 0.5196850393700787,
          "duration": 0.011627906976741542
        },
        {
          "name": "G3",
          "midi": 55,
          "time": 174.6279069767172,
          "velocity": 0.2992125984251969,
          "duration": 0.023255813953483084
        },
        {
          "name": "D5",
          "midi": 74,
          "time": 174.6279069767172,
          "velocity": 0.2677165354330709,
          "duration": 0.23255813953483084
        },
        {
          "name": "C#7",
          "midi": 97,
          "time": 174.6279069767172,
          "velocity": 0.13385826771653545,
          "duration": 0.04651162790696617
        },
        {
          "name": "A2",
          "midi": 45,
          "time": 174.63953488369395,
          "velocity": 0.5905511811023622,
          "duration": 0.023255813953483084
        },
        {
          "name": "G4",
          "midi": 67,
          "time": 174.63953488369395,
          "velocity": 0.4094488188976378,
          "duration": 0.06976744186044925
        },
        {
          "name": "C7",
          "midi": 96,
          "time": 174.63953488369395,
          "velocity": 0.08661417322834646,
          "duration": 0.034883720930224626
        },
        {
          "name": "D7",
          "midi": 98,
          "time": 174.63953488369395,
          "velocity": 0.14173228346456693,
          "duration": 0.0813953488371908
        },
        {
          "name": "D#7",
          "midi": 99,
          "time": 174.6511627906707,
          "velocity": 0.11023622047244094,
          "duration": 0.0813953488371908
        },
        {
          "name": "A#2",
          "midi": 46,
          "time": 174.66279069764744,
          "velocity": 0.5826771653543307,
          "duration": 0.011627906976741542
        },
        {
          "name": "B4",
          "midi": 71,
          "time": 174.66279069764744,
          "velocity": 0.25984251968503935,
          "duration": 0.05813953488370771
        },
        {
          "name": "B2",
          "midi": 47,
          "time": 174.67441860462418,
          "velocity": 0.5905511811023622,
          "duration": 0.023255813953483084
        },
        {
          "name": "C#4",
          "midi": 61,
          "time": 174.67441860462418,
          "velocity": 0.3700787401574803,
          "duration": 0.023255813953483084
        },
        {
          "name": "C#3",
          "midi": 49,
          "time": 174.69767441857766,
          "velocity": 0.5905511811023622,
          "duration": 0.023255813953483084
        },
        {
          "name": "C4",
          "midi": 60,
          "time": 174.69767441857766,
          "velocity": 0.3464566929133858,
          "duration": 0.15116279069764005
        },
        {
          "name": "G3",
          "midi": 55,
          "time": 174.7093023255544,
          "velocity": 0.47244094488188976,
          "duration": 0.12790697674415696
        },
        {
          "name": "C3",
          "midi": 48,
          "time": 174.72093023253115,
          "velocity": 0.5748031496062992,
          "duration": 0.011627906976741542
        },
        {
          "name": "C#3",
          "midi": 49,
          "time": 174.7325581395079,
          "velocity": 0.5748031496062992,
          "duration": 0.011627906976741542
        },
        {
          "name": "B4",
          "midi": 71,
          "time": 174.7325581395079,
          "velocity": 0.25984251968503935,
          "duration": 0.12790697674415696
        },
        {
          "name": "F#7",
          "midi": 102,
          "time": 174.7325581395079,
          "velocity": 0.18110236220472442,
          "duration": 0.034883720930224626
        },
        {
          "name": "C3",
          "midi": 48,
          "time": 174.74418604648463,
          "velocity": 0.5826771653543307,
          "duration": 0.06976744186044925
        },
        {
          "name": "G#5",
          "midi": 80,
          "time": 174.7674418604381,
          "velocity": 0.07874015748031496,
          "duration": 0.034883720930224626
        },
        {
          "name": "D#7",
          "midi": 99,
          "time": 174.77906976741485,
          "velocity": 0.08661417322834646,
          "duration": 0.034883720930224626
        },
        {
          "name": "F#7",
          "midi": 102,
          "time": 174.77906976741485,
          "velocity": 0.18110236220472442,
          "duration": 0.26744186046505547
        },
        {
          "name": "G6",
          "midi": 91,
          "time": 174.80232558136834,
          "velocity": 0.14960629921259844,
          "duration": 0.12790697674415696
        },
        {
          "name": "B2",
          "midi": 47,
          "time": 174.81395348834508,
          "velocity": 0.5118110236220472,
          "duration": 0.011627906976741542
        },
        {
          "name": "C#7",
          "midi": 97,
          "time": 174.81395348834508,
          "velocity": 0.25196850393700787,
          "duration": 0.3372093023255047
        },
        {
          "name": "E7",
          "midi": 100,
          "time": 174.82558139532182,
          "velocity": 0.1968503937007874,
          "duration": 0.06976744186044925
        },
        {
          "name": "C#3",
          "midi": 49,
          "time": 174.83720930229856,
          "velocity": 0.3700787401574803,
          "duration": 0.023255813953483084
        },
        {
          "name": "A5",
          "midi": 81,
          "time": 174.8488372092753,
          "velocity": 0.14960629921259844,
          "duration": 0.17441860465112313
        },
        {
          "name": "D7",
          "midi": 98,
          "time": 174.8488372092753,
          "velocity": 0.2283464566929134,
          "duration": 0.3023255813952801
        },
        {
          "name": "A#4",
          "midi": 70,
          "time": 174.86046511625204,
          "velocity": 0.29133858267716534,
          "duration": 0.034883720930224626
        },
        {
          "name": "C7",
          "midi": 96,
          "time": 174.86046511625204,
          "velocity": 0.1732283464566929,
          "duration": 0.034883720930224626
        },
        {
          "name": "F2",
          "midi": 41,
          "time": 174.87209302322879,
          "velocity": 0.44881889763779526,
          "duration": 0.023255813953483084
        },
        {
          "name": "E4",
          "midi": 64,
          "time": 174.87209302322879,
          "velocity": 0.2125984251968504,
          "duration": 0.11627906976741542
        },
        {
          "name": "E5",
          "midi": 76,
          "time": 174.87209302322879,
          "velocity": 0.28346456692913385,
          "duration": 0.18604651162786467
        },
        {
          "name": "G3",
          "midi": 55,
          "time": 174.88372093020553,
          "velocity": 0.4094488188976378,
          "duration": 0.06976744186044925
        },
        {
          "name": "B4",
          "midi": 71,
          "time": 174.88372093020553,
          "velocity": 0.23622047244094488,
          "duration": 0.04651162790696617
        },
        {
          "name": "C4",
          "midi": 60,
          "time": 174.89534883718227,
          "velocity": 0.30708661417322836,
          "duration": 0.09302325581393234
        },
        {
          "name": "F7",
          "midi": 101,
          "time": 174.89534883718227,
          "velocity": 0.11023622047244094,
          "duration": 0.11627906976741542
        },
        {
          "name": "D#7",
          "midi": 99,
          "time": 174.906976744159,
          "velocity": 0.13385826771653545,
          "duration": 0.0813953488371908
        },
        {
          "name": "A4",
          "midi": 69,
          "time": 174.91860465113575,
          "velocity": 0.29133858267716534,
          "duration": 0.05813953488370771
        },
        {
          "name": "E7",
          "midi": 100,
          "time": 174.91860465113575,
          "velocity": 0.08661417322834646,
          "duration": 0.05813953488370771
        },
        {
          "name": "A2",
          "midi": 45,
          "time": 174.9302325581125,
          "velocity": 0.36220472440944884,
          "duration": 0.023255813953483084
        },
        {
          "name": "A#6",
          "midi": 94,
          "time": 174.95348837206598,
          "velocity": 0.09448818897637795,
          "duration": 0.04651162790696617
        },
        {
          "name": "C3",
          "midi": 48,
          "time": 174.96511627904272,
          "velocity": 0.4645669291338583,
          "duration": 0.034883720930224626
        },
        {
          "name": "G#3",
          "midi": 56,
          "time": 174.97674418601946,
          "velocity": 0.2992125984251969,
          "duration": 0.023255813953483084
        },
        {
          "name": "G3",
          "midi": 55,
          "time": 174.99999999997294,
          "velocity": 0.3228346456692913,
          "duration": 0.023255813953483084
        },
        {
          "name": "E4",
          "midi": 64,
          "time": 174.99999999997294,
          "velocity": 0.30708661417322836,
          "duration": 0.05813953488370771
        },
        {
          "name": "G#3",
          "midi": 56,
          "time": 175.02325581392643,
          "velocity": 0.29133858267716534,
          "duration": 0.023255813953483084
        },
        {
          "name": "E7",
          "midi": 100,
          "time": 175.02325581392643,
          "velocity": 0.18110236220472442,
          "duration": 0.10465116279067388
        },
        {
          "name": "G3",
          "midi": 55,
          "time": 175.0465116278799,
          "velocity": 0.44881889763779526,
          "duration": 0.04651162790696617
        },
        {
          "name": "D5",
          "midi": 74,
          "time": 175.0465116278799,
          "velocity": 0.25196850393700787,
          "duration": 0.19767441860460622
        },
        {
          "name": "F7",
          "midi": 101,
          "time": 175.0465116278799,
          "velocity": 0.14960629921259844,
          "duration": 0.0813953488371908
        },
        {
          "name": "F#5",
          "midi": 78,
          "time": 175.05813953485665,
          "velocity": 0.33070866141732286,
          "duration": 0.34883720930224626
        },
        {
          "name": "G7",
          "midi": 103,
          "time": 175.05813953485665,
          "velocity": 0.07086614173228346,
          "duration": 0.04651162790696617
        },
        {
          "name": "G#2",
          "midi": 44,
          "time": 175.0697674418334,
          "velocity": 0.5275590551181102,
          "duration": 0.011627906976741542
        },
        {
          "name": "E4",
          "midi": 64,
          "time": 175.0697674418334,
          "velocity": 0.3937007874015748,
          "duration": 0.19767441860460622
        },
        {
          "name": "A4",
          "midi": 69,
          "time": 175.0697674418334,
          "velocity": 0.25196850393700787,
          "duration": 0.023255813953483084
        },
        {
          "name": "G#6",
          "midi": 92,
          "time": 175.0697674418334,
          "velocity": 0.07874015748031496,
          "duration": 0.034883720930224626
        },
        {
          "name": "D#7",
          "midi": 99,
          "time": 175.0697674418334,
          "velocity": 0.14173228346456693,
          "duration": 0.06976744186044925
        },
        {
          "name": "A2",
          "midi": 45,
          "time": 175.08139534881013,
          "velocity": 0.5590551181102362,
          "duration": 0.011627906976741542
        },
        {
          "name": "F#7",
          "midi": 102,
          "time": 175.08139534881013,
          "velocity": 0.08661417322834646,
          "duration": 0.034883720930224626
        },
        {
          "name": "B2",
          "midi": 47,
          "time": 175.09302325578687,
          "velocity": 0.5748031496062992,
          "duration": 0.011627906976741542
        },
        {
          "name": "C#4",
          "midi": 61,
          "time": 175.09302325578687,
          "velocity": 0.3543307086614173,
          "duration": 0.023255813953483084
        },
        {
          "name": "A#4",
          "midi": 70,
          "time": 175.09302325578687,
          "velocity": 0.2440944881889764,
          "duration": 0.034883720930224626
        },
        {
          "name": "B5",
          "midi": 83,
          "time": 175.09302325578687,
          "velocity": 0.16535433070866143,
          "duration": 0.04651162790696617
        },
        {
          "name": "C3",
          "midi": 48,
          "time": 175.10465116276362,
          "velocity": 0.5196850393700787,
          "duration": 0.023255813953483084
        },
        {
          "name": "G#3",
          "midi": 56,
          "time": 175.10465116276362,
          "velocity": 0.48031496062992124,
          "duration": 0.034883720930224626
        },
        {
          "name": "C#3",
          "midi": 49,
          "time": 175.1279069767171,
          "velocity": 0.5275590551181102,
          "duration": 0.011627906976741542
        },
        {
          "name": "C4",
          "midi": 60,
          "time": 175.1279069767171,
          "velocity": 0.33858267716535434,
          "duration": 0.023255813953483084
        },
        {
          "name": "F#7",
          "midi": 102,
          "time": 175.1279069767171,
          "velocity": 0.12598425196850394,
          "duration": 0.06976744186044925
        },
        {
          "name": "C3",
          "midi": 48,
          "time": 175.13953488369384,
          "velocity": 0.6062992125984252,
          "duration": 0.06976744186044925
        },
        {
          "name": "G3",
          "midi": 55,
          "time": 175.13953488369384,
          "velocity": 0.5511811023622047,
          "duration": 0.05813953488370771
        },
        {
          "name": "B4",
          "midi": 71,
          "time": 175.15116279067058,
          "velocity": 0.2047244094488189,
          "duration": 0.11627906976741542
        },
        {
          "name": "G6",
          "midi": 91,
          "time": 175.15116279067058,
          "velocity": 0.15748031496062992,
          "duration": 0.20930232558134776
        },
        {
          "name": "F#7",
          "midi": 102,
          "time": 175.22093023253103,
          "velocity": 0.18110236220472442,
          "duration": 0.5813953488370771
        },
        {
          "name": "G#3",
          "midi": 56,
          "time": 175.23255813950777,
          "velocity": 0.2677165354330709,
          "duration": 0.023255813953483084
        },
        {
          "name": "C#2",
          "midi": 37,
          "time": 175.24418604648451,
          "velocity": 0.33070866141732286,
          "duration": 0.034883720930224626
        },
        {
          "name": "B3",
          "midi": 59,
          "time": 175.25581395346126,
          "velocity": 0.49606299212598426,
          "duration": 0.023255813953483084
        },
        {
          "name": "D5",
          "midi": 74,
          "time": 175.25581395346126,
          "velocity": 0.3700787401574803,
          "duration": 0.034883720930224626
        },
        {
          "name": "G4",
          "midi": 67,
          "time": 175.267441860438,
          "velocity": 0.49606299212598426,
          "duration": 0.05813953488370771
        },
        {
          "name": "A#4",
          "midi": 70,
          "time": 175.267441860438,
          "velocity": 0.30708661417322836,
          "duration": 0.034883720930224626
        },
        {
          "name": "C6",
          "midi": 84,
          "time": 175.267441860438,
          "velocity": 0.12598425196850394,
          "duration": 0.04651162790696617
        },
        {
          "name": "A6",
          "midi": 93,
          "time": 175.267441860438,
          "velocity": 0.16535433070866143,
          "duration": 0.034883720930224626
        },
        {
          "name": "C#7",
          "midi": 97,
          "time": 175.267441860438,
          "velocity": 0.16535433070866143,
          "duration": 0.0813953488371908
        },
        {
          "name": "D7",
          "midi": 98,
          "time": 175.267441860438,
          "velocity": 0.15748031496062992,
          "duration": 0.11627906976741542
        },
        {
          "name": "E7",
          "midi": 100,
          "time": 175.267441860438,
          "velocity": 0.10236220472440945,
          "duration": 0.0813953488371908
        },
        {
          "name": "F7",
          "midi": 101,
          "time": 175.267441860438,
          "velocity": 0.11811023622047244,
          "duration": 0.06976744186044925
        },
        {
          "name": "A#3",
          "midi": 58,
          "time": 175.27906976741474,
          "velocity": 0.4881889763779528,
          "duration": 0.023255813953483084
        },
        {
          "name": "A5",
          "midi": 81,
          "time": 175.27906976741474,
          "velocity": 0.1732283464566929,
          "duration": 0.034883720930224626
        },
        {
          "name": "E6",
          "midi": 88,
          "time": 175.27906976741474,
          "velocity": 0.1732283464566929,
          "duration": 0.09302325581393234
        },
        {
          "name": "C7",
          "midi": 96,
          "time": 175.27906976741474,
          "velocity": 0.16535433070866143,
          "duration": 0.0813953488371908
        },
        {
          "name": "D#7",
          "midi": 99,
          "time": 175.27906976741474,
          "velocity": 0.13385826771653545,
          "duration": 0.09302325581393234
        },
        {
          "name": "G#2",
          "midi": 44,
          "time": 175.29069767439148,
          "velocity": 0.5984251968503937,
          "duration": 0.011627906976741542
        },
        {
          "name": "A2",
          "midi": 45,
          "time": 175.30232558136822,
          "velocity": 0.5590551181102362,
          "duration": 0.011627906976741542
        },
        {
          "name": "C5",
          "midi": 72,
          "time": 175.30232558136822,
          "velocity": 0.2677165354330709,
          "duration": 0.18604651162786467
        },
        {
          "name": "B2",
          "midi": 47,
          "time": 175.31395348834496,
          "velocity": 0.5748031496062992,
          "duration": 0.023255813953483084
        },
        {
          "name": "C#4",
          "midi": 61,
          "time": 175.31395348834496,
          "velocity": 0.4094488188976378,
          "duration": 0.023255813953483084
        },
        {
          "name": "F4",
          "midi": 65,
          "time": 175.31395348834496,
          "velocity": 0.2283464566929134,
          "duration": 0.023255813953483084
        },
        {
          "name": "A3",
          "midi": 57,
          "time": 175.3255813953217,
          "velocity": 0.4251968503937008,
          "duration": 0.023255813953483084
        },
        {
          "name": "G5",
          "midi": 79,
          "time": 175.3255813953217,
          "velocity": 0.2125984251968504,
          "duration": 0.034883720930224626
        },
        {
          "name": "C3",
          "midi": 48,
          "time": 175.33720930229845,
          "velocity": 0.5826771653543307,
          "duration": 0.011627906976741542
        },
        {
          "name": "G4",
          "midi": 67,
          "time": 175.33720930229845,
          "velocity": 0.3464566929133858,
          "duration": 0.1395348837208985
        },
        {
          "name": "E5",
          "midi": 76,
          "time": 175.33720930229845,
          "velocity": 0.14960629921259844,
          "duration": 0.1395348837208985
        },
        {
          "name": "C#3",
          "midi": 49,
          "time": 175.3488372092752,
          "velocity": 0.5905511811023622,
          "duration": 0.011627906976741542
        },
        {
          "name": "G3",
          "midi": 55,
          "time": 175.3488372092752,
          "velocity": 0.49606299212598426,
          "duration": 0.12790697674415696
        },
        {
          "name": "C3",
          "midi": 48,
          "time": 175.36046511625193,
          "velocity": 0.5905511811023622,
          "duration": 0.023255813953483084
        },
        {
          "name": "C#3",
          "midi": 49,
          "time": 175.3837209302054,
          "velocity": 0.5984251968503937,
          "duration": 0.011627906976741542
        },
        {
          "name": "C4",
          "midi": 60,
          "time": 175.3837209302054,
          "velocity": 0.3858267716535433,
          "duration": 0.023255813953483084
        },
        {
          "name": "D5",
          "midi": 74,
          "time": 175.3837209302054,
          "velocity": 0.18110236220472442,
          "duration": 0.034883720930224626
        },
        {
          "name": "C3",
          "midi": 48,
          "time": 175.39534883718215,
          "velocity": 0.6141732283464567,
          "duration": 0.09302325581393234
        },
        {
          "name": "A#6",
          "midi": 94,
          "time": 175.39534883718215,
          "velocity": 0.07086614173228346,
          "duration": 0.04651162790696617
        },
        {
          "name": "E4",
          "midi": 64,
          "time": 175.4069767441589,
          "velocity": 0.18110236220472442,
          "duration": 0.034883720930224626
        },
        {
          "name": "G2",
          "midi": 43,
          "time": 175.43023255811238,
          "velocity": 0.5275590551181102,
          "duration": 0.011627906976741542
        },
        {
          "name": "B5",
          "midi": 83,
          "time": 175.43023255811238,
          "velocity": 0.1732283464566929,
          "duration": 0.279069767441797
        },
        {
          "name": "F#3",
          "midi": 54,
          "time": 175.47674418601935,
          "velocity": 0.5039370078740157,
          "duration": 0.023255813953483084
        },
        {
          "name": "D5",
          "midi": 74,
          "time": 175.47674418601935,
          "velocity": 0.31496062992125984,
          "duration": 0.7209302325579756
        },
        {
          "name": "G5",
          "midi": 79,
          "time": 175.47674418601935,
          "velocity": 0.1889763779527559,
          "duration": 0.1627906976743816
        },
        {
          "name": "B2",
          "midi": 47,
          "time": 175.4883720929961,
          "velocity": 0.5826771653543307,
          "duration": 0.023255813953483084
        },
        {
          "name": "E6",
          "midi": 88,
          "time": 175.4883720929961,
          "velocity": 0.1968503937007874,
          "duration": 0.05813953488370771
        },
        {
          "name": "C7",
          "midi": 96,
          "time": 175.4883720929961,
          "velocity": 0.16535433070866143,
          "duration": 0.06976744186044925
        },
        {
          "name": "G4",
          "midi": 67,
          "time": 175.49999999997283,
          "velocity": 0.4330708661417323,
          "duration": 0.05813953488370771
        },
        {
          "name": "E5",
          "midi": 76,
          "time": 175.49999999997283,
          "velocity": 0.31496062992125984,
          "duration": 0.31395348837202164
        },
        {
          "name": "C#7",
          "midi": 97,
          "time": 175.49999999997283,
          "velocity": 0.23622047244094488,
          "duration": 0.31395348837202164
        },
        {
          "name": "D7",
          "midi": 98,
          "time": 175.49999999997283,
          "velocity": 0.2992125984251969,
          "duration": 0.2558139534883139
        },
        {
          "name": "D#7",
          "midi": 99,
          "time": 175.49999999997283,
          "velocity": 0.11811023622047244,
          "duration": 0.05813953488370771
        },
        {
          "name": "A2",
          "midi": 45,
          "time": 175.51162790694957,
          "velocity": 0.5984251968503937,
          "duration": 0.011627906976741542
        },
        {
          "name": "C5",
          "midi": 72,
          "time": 175.51162790694957,
          "velocity": 0.25196850393700787,
          "duration": 0.023255813953483084
        },
        {
          "name": "B2",
          "midi": 47,
          "time": 175.5232558139263,
          "velocity": 0.5590551181102362,
          "duration": 0.034883720930224626
        },
        {
          "name": "E4",
          "midi": 64,
          "time": 175.5232558139263,
          "velocity": 0.2755905511811024,
          "duration": 0.17441860465112313
        },
        {
          "name": "G#3",
          "midi": 56,
          "time": 175.53488372090305,
          "velocity": 0.41732283464566927,
          "duration": 0.034883720930224626
        },
        {
          "name": "C4",
          "midi": 60,
          "time": 175.5465116278798,
          "velocity": 0.25984251968503935,
          "duration": 0.034883720930224626
        },
        {
          "name": "F7",
          "midi": 101,
          "time": 175.55813953485654,
          "velocity": 0.11023622047244094,
          "duration": 0.06976744186044925
        },
        {
          "name": "G7",
          "midi": 103,
          "time": 175.55813953485654,
          "velocity": 0.11023622047244094,
          "duration": 0.04651162790696617
        },
        {
          "name": "G3",
          "midi": 55,
          "time": 175.56976744183328,
          "velocity": 0.4015748031496063,
          "duration": 0.034883720930224626
        },
        {
          "name": "C7",
          "midi": 96,
          "time": 175.58139534881002,
          "velocity": 0.11023622047244094,
          "duration": 0.11627906976741542
        },
        {
          "name": "A2",
          "midi": 45,
          "time": 175.59302325578676,
          "velocity": 0.3779527559055118,
          "duration": 0.023255813953483084
        },
        {
          "name": "C4",
          "midi": 60,
          "time": 175.59302325578676,
          "velocity": 0.3464566929133858,
          "duration": 0.06976744186044925
        },
        {
          "name": "G#3",
          "midi": 56,
          "time": 175.6046511627635,
          "velocity": 0.33858267716535434,
          "duration": 0.034883720930224626
        },
        {
          "name": "D#7",
          "midi": 99,
          "time": 175.61627906974024,
          "velocity": 0.12598425196850394,
          "duration": 0.1627906976743816
        },
        {
          "name": "G3",
          "midi": 55,
          "time": 175.63953488369373,
          "velocity": 0.3543307086614173,
          "duration": 0.023255813953483084
        },
        {
          "name": "E2",
          "midi": 40,
          "time": 175.6627906976472,
          "velocity": 0.4251968503937008,
          "duration": 0.034883720930224626
        },
        {
          "name": "G#3",
          "midi": 56,
          "time": 175.6627906976472,
          "velocity": 0.25196850393700787,
          "duration": 0.023255813953483084
        },
        {
          "name": "A#4",
          "midi": 70,
          "time": 175.67441860462395,
          "velocity": 0.3464566929133858,
          "duration": 0.0813953488371908
        },
        {
          "name": "G3",
          "midi": 55,
          "time": 175.6860465116007,
          "velocity": 0.41732283464566927,
          "duration": 0.04651162790696617
        },
        {
          "name": "C#3",
          "midi": 49,
          "time": 175.69767441857744,
          "velocity": 0.44881889763779526,
          "duration": 0.023255813953483084
        },
        {
          "name": "G7",
          "midi": 103,
          "time": 175.69767441857744,
          "velocity": 0.11811023622047244,
          "duration": 0.05813953488370771
        },
        {
          "name": "E4",
          "midi": 64,
          "time": 175.70930232555418,
          "velocity": 0.23622047244094488,
          "duration": 0.04651162790696617
        },
        {
          "name": "A5",
          "midi": 81,
          "time": 175.70930232555418,
          "velocity": 0.13385826771653545,
          "duration": 0.0813953488371908
        },
        {
          "name": "G6",
          "midi": 91,
          "time": 175.70930232555418,
          "velocity": 0.07874015748031496,
          "duration": 0.034883720930224626
        },
        {
          "name": "E7",
          "midi": 100,
          "time": 175.70930232555418,
          "velocity": 0.2440944881889764,
          "duration": 0.24418604651157239
        },
        {
          "name": "A2",
          "midi": 45,
          "time": 175.72093023253092,
          "velocity": 0.5118110236220472,
          "duration": 0.011627906976741542
        },
        {
          "name": "F#5",
          "midi": 78,
          "time": 175.72093023253092,
          "velocity": 0.12598425196850394,
          "duration": 0.034883720930224626
        },
        {
          "name": "F7",
          "midi": 101,
          "time": 175.72093023253092,
          "velocity": 0.13385826771653545,
          "duration": 0.04651162790696617
        },
        {
          "name": "B5",
          "midi": 83,
          "time": 175.73255813950766,
          "velocity": 0.2677165354330709,
          "duration": 0.3837209302324709
        },
        {
          "name": "F2",
          "midi": 41,
          "time": 175.75581395346114,
          "velocity": 0.5039370078740157,
          "duration": 0.023255813953483084
        },
        {
          "name": "G#3",
          "midi": 56,
          "time": 175.75581395346114,
          "velocity": 0.31496062992125984,
          "duration": 0.023255813953483084
        },
        {
          "name": "A4",
          "midi": 69,
          "time": 175.75581395346114,
          "velocity": 0.29133858267716534,
          "duration": 0.05813953488370771
        },
        {
          "name": "C3",
          "midi": 48,
          "time": 175.76744186043788,
          "velocity": 0.4094488188976378,
          "duration": 0.023255813953483084
        },
        {
          "name": "G3",
          "midi": 55,
          "time": 175.77906976741463,
          "velocity": 0.33070866141732286,
          "duration": 0.034883720930224626
        },
        {
          "name": "B2",
          "midi": 47,
          "time": 175.79069767439137,
          "velocity": 0.3228346456692913,
          "duration": 0.023255813953483084
        },
        {
          "name": "A#2",
          "midi": 46,
          "time": 175.8255813953216,
          "velocity": 0.3464566929133858,
          "duration": 0.023255813953483084
        },
        {
          "name": "E6",
          "midi": 88,
          "time": 175.83720930229833,
          "velocity": 0.2204724409448819,
          "duration": 0.15116279069764005
        },
        {
          "name": "C4",
          "midi": 60,
          "time": 175.84883720927508,
          "velocity": 0.14173228346456693,
          "duration": 0.06976744186044925
        },
        {
          "name": "E5",
          "midi": 76,
          "time": 175.84883720927508,
          "velocity": 0.2992125984251969,
          "duration": 0.39534883720921243
        },
        {
          "name": "F#7",
          "midi": 102,
          "time": 175.87209302322856,
          "velocity": 0.12598425196850394,
          "duration": 0.20930232558134776
        },
        {
          "name": "C#7",
          "midi": 97,
          "time": 175.8837209302053,
          "velocity": 0.2204724409448819,
          "duration": 0.26744186046505547
        },
        {
          "name": "A4",
          "midi": 69,
          "time": 175.89534883718204,
          "velocity": 0.1732283464566929,
          "duration": 0.06976744186044925
        },
        {
          "name": "F#4",
          "midi": 66,
          "time": 175.90697674415878,
          "velocity": 0.25196850393700787,
          "duration": 0.023255813953483084
        },
        {
          "name": "F4",
          "midi": 65,
          "time": 175.91860465113552,
          "velocity": 0.31496062992125984,
          "duration": 0.023255813953483084
        },
        {
          "name": "F#5",
          "midi": 78,
          "time": 175.91860465113552,
          "velocity": 0.31496062992125984,
          "duration": 0.19767441860460622
        },
        {
          "name": "F#3",
          "midi": 54,
          "time": 175.93023255811227,
          "velocity": 0.25196850393700787,
          "duration": 0.023255813953483084
        },
        {
          "name": "C4",
          "midi": 60,
          "time": 175.93023255811227,
          "velocity": 0.33858267716535434,
          "duration": 0.20930232558134776
        },
        {
          "name": "D7",
          "midi": 98,
          "time": 175.93023255811227,
          "velocity": 0.14173228346456693,
          "duration": 0.10465116279067388
        },
        {
          "name": "D#7",
          "midi": 99,
          "time": 175.95348837206575,
          "velocity": 0.09448818897637795,
          "duration": 0.10465116279067388
        },
        {
          "name": "A#4",
          "midi": 70,
          "time": 175.9651162790425,
          "velocity": 0.23622047244094488,
          "duration": 0.1627906976743816
        },
        {
          "name": "G#6",
          "midi": 92,
          "time": 175.9651162790425,
          "velocity": 0.07086614173228346,
          "duration": 0.04651162790696617
        },
        {
          "name": "C#3",
          "midi": 49,
          "time": 175.97674418601923,
          "velocity": 0.3937007874015748,
          "duration": 0.023255813953483084
        },
        {
          "name": "G3",
          "midi": 55,
          "time": 175.97674418601923,
          "velocity": 0.33858267716535434,
          "duration": 0.0813953488371908
        },
        {
          "name": "E4",
          "midi": 64,
          "time": 175.97674418601923,
          "velocity": 0.2125984251968504,
          "duration": 0.15116279069764005
        },
        {
          "name": "D#6",
          "midi": 87,
          "time": 175.97674418601923,
          "velocity": 0.11023622047244094,
          "duration": 0.034883720930224626
        },
        {
          "name": "C7",
          "midi": 96,
          "time": 175.97674418601923,
          "velocity": 0.07874015748031496,
          "duration": 0.04651162790696617
        },
        {
          "name": "G7",
          "midi": 103,
          "time": 175.98837209299597,
          "velocity": 0.08661417322834646,
          "duration": 0.06976744186044925
        },
        {
          "name": "C#3",
          "midi": 49,
          "time": 176.01162790694946,
          "velocity": 0.4094488188976378,
          "duration": 0.034883720930224626
        },
        {
          "name": "C2",
          "midi": 36,
          "time": 176.0232558139262,
          "velocity": 0.30708661417322836,
          "duration": 0.04651162790696617
        },
        {
          "name": "F7",
          "midi": 101,
          "time": 176.0232558139262,
          "velocity": 0.14173228346456693,
          "duration": 0.0813953488371908
        },
        {
          "name": "C7",
          "midi": 96,
          "time": 176.03488372090294,
          "velocity": 0.13385826771653545,
          "duration": 0.09302325581393234
        },
        {
          "name": "C3",
          "midi": 48,
          "time": 176.04651162787968,
          "velocity": 0.4015748031496063,
          "duration": 0.023255813953483084
        },
        {
          "name": "D7",
          "midi": 98,
          "time": 176.04651162787968,
          "velocity": 0.16535433070866143,
          "duration": 0.034883720930224626
        },
        {
          "name": "C3",
          "midi": 48,
          "time": 176.0813953488099,
          "velocity": 0.4330708661417323,
          "duration": 0.034883720930224626
        },
        {
          "name": "G3",
          "midi": 55,
          "time": 176.0813953488099,
          "velocity": 0.29133858267716534,
          "duration": 0.04651162790696617
        },
        {
          "name": "D7",
          "midi": 98,
          "time": 176.1046511627634,
          "velocity": 0.12598425196850394,
          "duration": 0.06976744186044925
        },
        {
          "name": "C#2",
          "midi": 37,
          "time": 176.12790697671687,
          "velocity": 0.5433070866141733,
          "duration": 0.011627906976741542
        },
        {
          "name": "C3",
          "midi": 48,
          "time": 176.12790697671687,
          "velocity": 0.5511811023622047,
          "duration": 0.023255813953483084
        },
        {
          "name": "D#4",
          "midi": 63,
          "time": 176.12790697671687,
          "velocity": 0.3779527559055118,
          "duration": 0.023255813953483084
        },
        {
          "name": "F#5",
          "midi": 78,
          "time": 176.12790697671687,
          "velocity": 0.18110236220472442,
          "duration": 0.034883720930224626
        },
        {
          "name": "C#6",
          "midi": 85,
          "time": 176.12790697671687,
          "velocity": 0.2677165354330709,
          "duration": 0.023255813953483084
        },
        {
          "name": "D#6",
          "midi": 87,
          "time": 176.12790697671687,
          "velocity": 0.14960629921259844,
          "duration": 0.10465116279067388
        },
        {
          "name": "F7",
          "midi": 101,
          "time": 176.12790697671687,
          "velocity": 0.08661417322834646,
          "duration": 0.034883720930224626
        },
        {
          "name": "F#7",
          "midi": 102,
          "time": 176.12790697671687,
          "velocity": 0.11023622047244094,
          "duration": 0.034883720930224626
        },
        {
          "name": "G7",
          "midi": 103,
          "time": 176.12790697671687,
          "velocity": 0.09448818897637795,
          "duration": 0.034883720930224626
        },
        {
          "name": "E2",
          "midi": 40,
          "time": 176.1395348836936,
          "velocity": 0.5275590551181102,
          "duration": 0.011627906976741542
        },
        {
          "name": "A4",
          "midi": 69,
          "time": 176.1395348836936,
          "velocity": 0.2440944881889764,
          "duration": 0.023255813953483084
        },
        {
          "name": "A5",
          "midi": 81,
          "time": 176.1395348836936,
          "velocity": 0.4330708661417323,
          "duration": 0.6395348837207848
        },
        {
          "name": "C6",
          "midi": 84,
          "time": 176.1395348836936,
          "velocity": 0.14173228346456693,
          "duration": 0.11627906976741542
        },
        {
          "name": "A6",
          "midi": 93,
          "time": 176.1395348836936,
          "velocity": 0.47244094488188976,
          "duration": 0.7790697674416833
        },
        {
          "name": "E7",
          "midi": 100,
          "time": 176.1395348836936,
          "velocity": 0.33070866141732286,
          "duration": 0.686046511627751
        },
        {
          "name": "F2",
          "midi": 41,
          "time": 176.15116279067036,
          "velocity": 0.4645669291338583,
          "duration": 0.04651162790696617
        },
        {
          "name": "D3",
          "midi": 50,
          "time": 176.15116279067036,
          "velocity": 0.6220472440944882,
          "duration": 0.1395348837208985
        },
        {
          "name": "A3",
          "midi": 57,
          "time": 176.15116279067036,
          "velocity": 0.4566929133858268,
          "duration": 0.04651162790696617
        },
        {
          "name": "C7",
          "midi": 96,
          "time": 176.15116279067036,
          "velocity": 0.14960629921259844,
          "duration": 0.04651162790696617
        },
        {
          "name": "B5",
          "midi": 83,
          "time": 176.1627906976471,
          "velocity": 0.12598425196850394,
          "duration": 0.05813953488370771
        },
        {
          "name": "B6",
          "midi": 95,
          "time": 176.1627906976471,
          "velocity": 0.16535433070866143,
          "duration": 0.18604651162786467
        },
        {
          "name": "C#7",
          "midi": 97,
          "time": 176.1627906976471,
          "velocity": 0.2204724409448819,
          "duration": 0.04651162790696617
        },
        {
          "name": "C5",
          "midi": 72,
          "time": 176.18604651160058,
          "velocity": 0.1732283464566929,
          "duration": 0.0813953488371908
        },
        {
          "name": "D5",
          "midi": 74,
          "time": 176.2209302325308,
          "velocity": 0.2440944881889764,
          "duration": 0.3837209302324709
        },
        {
          "name": "F#5",
          "midi": 78,
          "time": 176.2209302325308,
          "velocity": 0.09448818897637795,
          "duration": 0.06976744186044925
        },
        {
          "name": "C#7",
          "midi": 97,
          "time": 176.23255813950755,
          "velocity": 0.07874015748031496,
          "duration": 0.0813953488371908
        },
        {
          "name": "A2",
          "midi": 45,
          "time": 176.2441860464843,
          "velocity": 0.5354330708661418,
          "duration": 0.011627906976741542
        },
        {
          "name": "C4",
          "midi": 60,
          "time": 176.25581395346103,
          "velocity": 0.2677165354330709,
          "duration": 0.023255813953483084
        },
        {
          "name": "A4",
          "midi": 69,
          "time": 176.25581395346103,
          "velocity": 0.2204724409448819,
          "duration": 0.0813953488371908
        },
        {
          "name": "E5",
          "midi": 76,
          "time": 176.26744186043777,
          "velocity": 0.13385826771653545,
          "duration": 0.0813953488371908
        },
        {
          "name": "C6",
          "midi": 84,
          "time": 176.2790697674145,
          "velocity": 0.08661417322834646,
          "duration": 0.034883720930224626
        },
        {
          "name": "E6",
          "midi": 88,
          "time": 176.29069767439125,
          "velocity": 0.14960629921259844,
          "duration": 0.12790697674415696
        },
        {
          "name": "A3",
          "midi": 57,
          "time": 176.31395348834474,
          "velocity": 0.28346456692913385,
          "duration": 0.034883720930224626
        },
        {
          "name": "D4",
          "midi": 62,
          "time": 176.32558139532148,
          "velocity": 0.23622047244094488,
          "duration": 0.023255813953483084
        },
        {
          "name": "F#6",
          "midi": 90,
          "time": 176.32558139532148,
          "velocity": 0.14173228346456693,
          "duration": 0.05813953488370771
        },
        {
          "name": "C#7",
          "midi": 97,
          "time": 176.33720930229822,
          "velocity": 0.1889763779527559,
          "duration": 0.11627906976741542
        },
        {
          "name": "D7",
          "midi": 98,
          "time": 176.33720930229822,
          "velocity": 0.16535433070866143,
          "duration": 0.04651162790696617
        },
        {
          "name": "G7",
          "midi": 103,
          "time": 176.33720930229822,
          "velocity": 0.11811023622047244,
          "duration": 0.12790697674415696
        },
        {
          "name": "E2",
          "midi": 40,
          "time": 176.34883720927496,
          "velocity": 0.5196850393700787,
          "duration": 0.011627906976741542
        },
        {
          "name": "C5",
          "midi": 72,
          "time": 176.34883720927496,
          "velocity": 0.15748031496062992,
          "duration": 0.034883720930224626
        },
        {
          "name": "F#5",
          "midi": 78,
          "time": 176.34883720927496,
          "velocity": 0.5354330708661418,
          "duration": 1.1046511627904465
        },
        {
          "name": "D3",
          "midi": 50,
          "time": 176.3604651162517,
          "velocity": 0.5354330708661418,
          "duration": 0.05813953488370771
        },
        {
          "name": "A3",
          "midi": 57,
          "time": 176.3604651162517,
          "velocity": 0.47244094488188976,
          "duration": 0.04651162790696617
        },
        {
          "name": "F#4",
          "midi": 66,
          "time": 176.3604651162517,
          "velocity": 0.30708661417322836,
          "duration": 0.15116279069764005
        },
        {
          "name": "E5",
          "midi": 76,
          "time": 176.3604651162517,
          "velocity": 0.33070866141732286,
          "duration": 0.2209302325580893
        },
        {
          "name": "F2",
          "midi": 41,
          "time": 176.3837209302052,
          "velocity": 0.49606299212598426,
          "duration": 0.034883720930224626
        },
        {
          "name": "C7",
          "midi": 96,
          "time": 176.3837209302052,
          "velocity": 0.09448818897637795,
          "duration": 0.034883720930224626
        },
        {
          "name": "A#3",
          "midi": 58,
          "time": 176.40697674415867,
          "velocity": 0.3779527559055118,
          "duration": 0.023255813953483084
        },
        {
          "name": "C5",
          "midi": 72,
          "time": 176.40697674415867,
          "velocity": 0.12598425196850394,
          "duration": 0.034883720930224626
        },
        {
          "name": "C#3",
          "midi": 49,
          "time": 176.4186046511354,
          "velocity": 0.5984251968503937,
          "duration": 0.011627906976741542
        },
        {
          "name": "D3",
          "midi": 50,
          "time": 176.43023255811215,
          "velocity": 0.6141732283464567,
          "duration": 0.011627906976741542
        },
        {
          "name": "D#3",
          "midi": 51,
          "time": 176.4418604650889,
          "velocity": 0.5984251968503937,
          "duration": 0.011627906976741542
        },
        {
          "name": "D4",
          "midi": 62,
          "time": 176.4418604650889,
          "velocity": 0.25196850393700787,
          "duration": 0.023255813953483084
        },
        {
          "name": "D3",
          "midi": 50,
          "time": 176.45348837206564,
          "velocity": 0.6062992125984252,
          "duration": 0.023255813953483084
        },
        {
          "name": "A2",
          "midi": 45,
          "time": 176.46511627904238,
          "velocity": 0.5590551181102362,
          "duration": 0.011627906976741542
        },
        {
          "name": "C5",
          "midi": 72,
          "time": 176.46511627904238,
          "velocity": 0.09448818897637795,
          "duration": 0.05813953488370771
        },
        {
          "name": "C3",
          "midi": 48,
          "time": 176.47674418601912,
          "velocity": 0.6141732283464567,
          "duration": 0.011627906976741542
        },
        {
          "name": "D4",
          "midi": 62,
          "time": 176.47674418601912,
          "velocity": 0.2283464566929134,
          "duration": 0.04651162790696617
        },
        {
          "name": "D7",
          "midi": 98,
          "time": 176.47674418601912,
          "velocity": 0.23622047244094488,
          "duration": 0.34883720930224626
        },
        {
          "name": "A2",
          "midi": 45,
          "time": 176.48837209299586,
          "velocity": 0.5748031496062992,
          "duration": 0.011627906976741542
        },
        {
          "name": "D3",
          "midi": 50,
          "time": 176.48837209299586,
          "velocity": 0.5590551181102362,
          "duration": 0.011627906976741542
        },
        {
          "name": "F2",
          "midi": 41,
          "time": 176.4999999999726,
          "velocity": 0.5748031496062992,
          "duration": 0.011627906976741542
        },
        {
          "name": "A2",
          "midi": 45,
          "time": 176.51162790694934,
          "velocity": 0.5511811023622047,
          "duration": 0.023255813953483084
        },
        {
          "name": "F#4",
          "midi": 66,
          "time": 176.52325581392608,
          "velocity": 0.2125984251968504,
          "duration": 0.05813953488370771
        },
        {
          "name": "D#2",
          "midi": 39,
          "time": 176.54651162787957,
          "velocity": 0.33070866141732286,
          "duration": 0.034883720930224626
        },
        {
          "name": "D3",
          "midi": 50,
          "time": 176.5581395348563,
          "velocity": 0.4881889763779528,
          "duration": 0.023255813953483084
        },
        {
          "name": "C#7",
          "midi": 97,
          "time": 176.56976744183305,
          "velocity": 0.3779527559055118,
          "duration": 1.220930232557862
        },
        {
          "name": "C7",
          "midi": 96,
          "time": 176.5813953488098,
          "velocity": 0.10236220472440945,
          "duration": 0.034883720930224626
        },
        {
          "name": "G#2",
          "midi": 44,
          "time": 176.59302325578653,
          "velocity": 0.5118110236220472,
          "duration": 0.011627906976741542
        },
        {
          "name": "D3",
          "midi": 50,
          "time": 176.59302325578653,
          "velocity": 0.4645669291338583,
          "duration": 0.06976744186044925
        },
        {
          "name": "D#7",
          "midi": 99,
          "time": 176.59302325578653,
          "velocity": 0.12598425196850394,
          "duration": 0.15116279069764005
        },
        {
          "name": "A3",
          "midi": 57,
          "time": 176.61627906974002,
          "velocity": 0.3228346456692913,
          "duration": 0.1627906976743816
        },
        {
          "name": "E5",
          "midi": 76,
          "time": 176.61627906974002,
          "velocity": 0.16535433070866143,
          "duration": 0.10465116279067388
        },
        {
          "name": "F#7",
          "midi": 102,
          "time": 176.61627906974002,
          "velocity": 0.11811023622047244,
          "duration": 0.04651162790696617
        },
        {
          "name": "G4",
          "midi": 67,
          "time": 176.62790697671676,
          "velocity": 0.29133858267716534,
          "duration": 0.034883720930224626
        },
        {
          "name": "D#2",
          "midi": 39,
          "time": 176.6395348836935,
          "velocity": 0.3464566929133858,
          "duration": 0.023255813953483084
        },
        {
          "name": "B4",
          "midi": 71,
          "time": 176.6395348836935,
          "velocity": 0.1968503937007874,
          "duration": 0.09302325581393234
        },
        {
          "name": "B6",
          "midi": 95,
          "time": 176.6395348836935,
          "velocity": 0.11811023622047244,
          "duration": 0.034883720930224626
        },
        {
          "name": "F#4",
          "midi": 66,
          "time": 176.66279069764698,
          "velocity": 0.2283464566929134,
          "duration": 0.034883720930224626
        },
        {
          "name": "D3",
          "midi": 50,
          "time": 176.67441860462372,
          "velocity": 0.4566929133858268,
          "duration": 0.05813953488370771
        },
        {
          "name": "F#7",
          "midi": 102,
          "time": 176.67441860462372,
          "velocity": 0.11023622047244094,
          "duration": 0.06976744186044925
        },
        {
          "name": "G4",
          "midi": 67,
          "time": 176.6976744185772,
          "velocity": 0.28346456692913385,
          "duration": 0.034883720930224626
        },
        {
          "name": "E6",
          "midi": 88,
          "time": 176.7209302325307,
          "velocity": 0.09448818897637795,
          "duration": 0.034883720930224626
        },
        {
          "name": "G7",
          "midi": 103,
          "time": 176.7209302325307,
          "velocity": 0.11811023622047244,
          "duration": 0.04651162790696617
        },
        {
          "name": "C5",
          "midi": 72,
          "time": 176.73255813950743,
          "velocity": 0.14960629921259844,
          "duration": 0.04651162790696617
        },
        {
          "name": "D3",
          "midi": 50,
          "time": 176.74418604648417,
          "velocity": 0.4409448818897638,
          "duration": 0.023255813953483084
        },
        {
          "name": "G4",
          "midi": 67,
          "time": 176.74418604648417,
          "velocity": 0.28346456692913385,
          "duration": 0.034883720930224626
        },
        {
          "name": "E6",
          "midi": 88,
          "time": 176.76744186043766,
          "velocity": 0.1889763779527559,
          "duration": 0.06976744186044925
        },
        {
          "name": "A#3",
          "midi": 58,
          "time": 176.7790697674144,
          "velocity": 0.33858267716535434,
          "duration": 0.023255813953483084
        },
        {
          "name": "F#4",
          "midi": 66,
          "time": 176.7790697674144,
          "velocity": 0.3228346456692913,
          "duration": 0.17441860465112313
        },
        {
          "name": "E5",
          "midi": 76,
          "time": 176.7790697674144,
          "velocity": 0.25196850393700787,
          "duration": 0.023255813953483084
        },
        {
          "name": "C7",
          "midi": 96,
          "time": 176.7790697674144,
          "velocity": 0.10236220472440945,
          "duration": 0.0813953488371908
        },
        {
          "name": "E2",
          "midi": 40,
          "time": 176.79069767439114,
          "velocity": 0.4409448818897638,
          "duration": 0.023255813953483084
        },
        {
          "name": "D#4",
          "midi": 63,
          "time": 176.79069767439114,
          "velocity": 0.28346456692913385,
          "duration": 0.023255813953483084
        },
        {
          "name": "D5",
          "midi": 74,
          "time": 176.79069767439114,
          "velocity": 0.11023622047244094,
          "duration": 0.034883720930224626
        },
        {
          "name": "D#7",
          "midi": 99,
          "time": 176.79069767439114,
          "velocity": 0.08661417322834646,
          "duration": 0.04651162790696617
        },
        {
          "name": "D3",
          "midi": 50,
          "time": 176.80232558136788,
          "velocity": 0.6141732283464567,
          "duration": 0.17441860465112313
        },
        {
          "name": "A3",
          "midi": 57,
          "time": 176.80232558136788,
          "velocity": 0.4015748031496063,
          "duration": 0.034883720930224626
        },
        {
          "name": "F2",
          "midi": 41,
          "time": 176.81395348834462,
          "velocity": 0.5196850393700787,
          "duration": 0.034883720930224626
        },
        {
          "name": "E5",
          "midi": 76,
          "time": 176.81395348834462,
          "velocity": 0.15748031496062992,
          "duration": 0.034883720930224626
        },
        {
          "name": "D5",
          "midi": 74,
          "time": 176.84883720927485,
          "velocity": 0.1889763779527559,
          "duration": 0.10465116279067388
        },
        {
          "name": "A4",
          "midi": 69,
          "time": 176.88372093020507,
          "velocity": 0.31496062992125984,
          "duration": 0.09302325581393234
        },
        {
          "name": "E5",
          "midi": 76,
          "time": 176.8953488371818,
          "velocity": 0.15748031496062992,
          "duration": 0.06976744186044925
        },
        {
          "name": "E6",
          "midi": 88,
          "time": 176.8953488371818,
          "velocity": 0.1889763779527559,
          "duration": 0.12790697674415696
        },
        {
          "name": "D#7",
          "midi": 99,
          "time": 176.90697674415856,
          "velocity": 0.11023622047244094,
          "duration": 0.06976744186044925
        },
        {
          "name": "A6",
          "midi": 93,
          "time": 176.95348837206552,
          "velocity": 0.28346456692913385,
          "duration": 0.23255813953483084
        },
        {
          "name": "D7",
          "midi": 98,
          "time": 176.95348837206552,
          "velocity": 0.1889763779527559,
          "duration": 0.09302325581393234
        },
        {
          "name": "D#2",
          "midi": 39,
          "time": 176.96511627904226,
          "velocity": 0.25196850393700787,
          "duration": 0.023255813953483084
        },
        {
          "name": "D#3",
          "midi": 51,
          "time": 176.976744186019,
          "velocity": 0.4330708661417323,
          "duration": 0.034883720930224626
        },
        {
          "name": "D5",
          "midi": 74,
          "time": 176.976744186019,
          "velocity": 0.3228346456692913,
          "duration": 0.0813953488371908
        },
        {
          "name": "F#2",
          "midi": 42,
          "time": 176.98837209299575,
          "velocity": 0.3779527559055118,
          "duration": 0.023255813953483084
        },
        {
          "name": "C4",
          "midi": 60,
          "time": 176.98837209299575,
          "velocity": 0.47244094488188976,
          "duration": 0.023255813953483084
        },
        {
          "name": "F#4",
          "midi": 66,
          "time": 176.98837209299575,
          "velocity": 0.4330708661417323,
          "duration": 0.034883720930224626
        },
        {
          "name": "A#4",
          "midi": 70,
          "time": 176.98837209299575,
          "velocity": 0.2204724409448819,
          "duration": 0.034883720930224626
        },
        {
          "name": "A#6",
          "midi": 94,
          "time": 176.98837209299575,
          "velocity": 0.08661417322834646,
          "duration": 0.04651162790696617
        },
        {
          "name": "C7",
          "midi": 96,
          "time": 176.98837209299575,
          "velocity": 0.13385826771653545,
          "duration": 0.0813953488371908
        },
        {
          "name": "E5",
          "midi": 76,
          "time": 176.9999999999725,
          "velocity": 0.1968503937007874,
          "duration": 0.04651162790696617
        },
        {
          "name": "D#7",
          "midi": 99,
          "time": 176.9999999999725,
          "velocity": 0.11811023622047244,
          "duration": 0.05813953488370771
        },
        {
          "name": "D3",
          "midi": 50,
          "time": 177.01162790694923,
          "velocity": 0.6456692913385826,
          "duration": 0.1395348837208985
        },
        {
          "name": "D#4",
          "midi": 63,
          "time": 177.01162790694923,
          "velocity": 0.30708661417322836,
          "duration": 0.023255813953483084
        },
        {
          "name": "F4",
          "midi": 65,
          "time": 177.02325581392597,
          "velocity": 0.2755905511811024,
          "duration": 0.023255813953483084
        },
        {
          "name": "A4",
          "midi": 69,
          "time": 177.02325581392597,
          "velocity": 0.36220472440944884,
          "duration": 0.2209302325580893
        },
        {
          "name": "A#3",
          "midi": 58,
          "time": 177.0348837209027,
          "velocity": 0.4566929133858268,
          "duration": 0.034883720930224626
        },
        {
          "name": "F#4",
          "midi": 66,
          "time": 177.04651162787945,
          "velocity": 0.3464566929133858,
          "duration": 0.06976744186044925
        },
        {
          "name": "A3",
          "midi": 57,
          "time": 177.06976744183294,
          "velocity": 0.30708661417322836,
          "duration": 0.023255813953483084
        },
        {
          "name": "E6",
          "midi": 88,
          "time": 177.08139534880968,
          "velocity": 0.1968503937007874,
          "duration": 0.279069767441797
        },
        {
          "name": "A#3",
          "midi": 58,
          "time": 177.09302325578642,
          "velocity": 0.3779527559055118,
          "duration": 0.04651162790696617
        },
        {
          "name": "A2",
          "midi": 45,
          "time": 177.10465116276316,
          "velocity": 0.5433070866141733,
          "duration": 0.011627906976741542
        },
        {
          "name": "D5",
          "midi": 74,
          "time": 177.10465116276316,
          "velocity": 0.2204724409448819,
          "duration": 0.1395348837208985
        },
        {
          "name": "D7",
          "midi": 98,
          "time": 177.1162790697399,
          "velocity": 0.10236220472440945,
          "duration": 0.05813953488370771
        },
        {
          "name": "A2",
          "midi": 45,
          "time": 177.12790697671664,
          "velocity": 0.6141732283464567,
          "duration": 0.04651162790696617
        },
        {
          "name": "B3",
          "midi": 59,
          "time": 177.1395348836934,
          "velocity": 0.2677165354330709,
          "duration": 0.04651162790696617
        },
        {
          "name": "G#2",
          "midi": 44,
          "time": 177.1744186046236,
          "velocity": 0.6062992125984252,
          "duration": 0.011627906976741542
        },
        {
          "name": "A2",
          "midi": 45,
          "time": 177.18604651160035,
          "velocity": 0.5275590551181102,
          "duration": 0.011627906976741542
        },
        {
          "name": "E2",
          "midi": 40,
          "time": 177.1976744185771,
          "velocity": 0.5748031496062992,
          "duration": 0.011627906976741542
        },
        {
          "name": "E5",
          "midi": 76,
          "time": 177.1976744185771,
          "velocity": 0.2755905511811024,
          "duration": 0.023255813953483084
        },
        {
          "name": "G#2",
          "midi": 44,
          "time": 177.20930232555384,
          "velocity": 0.6141732283464567,
          "duration": 0.011627906976741542
        },
        {
          "name": "A3",
          "midi": 57,
          "time": 177.20930232555384,
          "velocity": 0.29133858267716534,
          "duration": 0.034883720930224626
        },
        {
          "name": "E4",
          "midi": 64,
          "time": 177.20930232555384,
          "velocity": 0.11023622047244094,
          "duration": 0.034883720930224626
        },
        {
          "name": "G6",
          "midi": 91,
          "time": 177.20930232555384,
          "velocity": 0.10236220472440945,
          "duration": 0.06976744186044925
        },
        {
          "name": "D7",
          "midi": 98,
          "time": 177.20930232555384,
          "velocity": 0.23622047244094488,
          "duration": 0.09302325581393234
        },
        {
          "name": "G2",
          "midi": 43,
          "time": 177.22093023253058,
          "velocity": 0.5196850393700787,
          "duration": 0.011627906976741542
        },
        {
          "name": "B2",
          "midi": 47,
          "time": 177.22093023253058,
          "velocity": 0.5118110236220472,
          "duration": 0.011627906976741542
        },
        {
          "name": "F#4",
          "midi": 66,
          "time": 177.22093023253058,
          "velocity": 0.28346456692913385,
          "duration": 0.1395348837208985
        },
        {
          "name": "D3",
          "midi": 50,
          "time": 177.23255813950732,
          "velocity": 0.47244094488188976,
          "duration": 0.15116279069764005
        },
        {
          "name": "C5",
          "midi": 72,
          "time": 177.23255813950732,
          "velocity": 0.07874015748031496,
          "duration": 0.15116279069764005
        },
        {
          "name": "E5",
          "midi": 76,
          "time": 177.24418604648406,
          "velocity": 0.25984251968503935,
          "duration": 0.10465116279067388
        },
        {
          "name": "E2",
          "midi": 40,
          "time": 177.2558139534608,
          "velocity": 0.4881889763779528,
          "duration": 0.034883720930224626
        },
        {
          "name": "A4",
          "midi": 69,
          "time": 177.2558139534608,
          "velocity": 0.3937007874015748,
          "duration": 0.47674418604640323
        },
        {
          "name": "D#7",
          "midi": 99,
          "time": 177.2558139534608,
          "velocity": 0.12598425196850394,
          "duration": 0.18604651162786467
        },
        {
          "name": "A3",
          "midi": 57,
          "time": 177.26744186043754,
          "velocity": 0.3464566929133858,
          "duration": 0.15116279069764005
        },
        {
          "name": "C7",
          "midi": 96,
          "time": 177.27906976741428,
          "velocity": 0.08661417322834646,
          "duration": 0.034883720930224626
        },
        {
          "name": "G7",
          "midi": 103,
          "time": 177.27906976741428,
          "velocity": 0.08661417322834646,
          "duration": 0.034883720930224626
        },
        {
          "name": "D7",
          "midi": 98,
          "time": 177.32558139532125,
          "velocity": 0.28346456692913385,
          "duration": 0.8604651162788741
        },
        {
          "name": "C7",
          "midi": 96,
          "time": 177.36046511625148,
          "velocity": 0.09448818897637795,
          "duration": 0.04651162790696617
        },
        {
          "name": "D3",
          "midi": 50,
          "time": 177.3953488371817,
          "velocity": 0.4566929133858268,
          "duration": 0.023255813953483084
        },
        {
          "name": "F#4",
          "midi": 66,
          "time": 177.3953488371817,
          "velocity": 0.2755905511811024,
          "duration": 0.18604651162786467
        },
        {
          "name": "C5",
          "midi": 72,
          "time": 177.40697674415844,
          "velocity": 0.14173228346456693,
          "duration": 0.034883720930224626
        },
        {
          "name": "G#2",
          "midi": 44,
          "time": 177.43023255811192,
          "velocity": 0.49606299212598426,
          "duration": 0.023255813953483084
        },
        {
          "name": "D6",
          "midi": 86,
          "time": 177.43023255811192,
          "velocity": 0.23622047244094488,
          "duration": 0.09302325581393234
        },
        {
          "name": "D#6",
          "midi": 87,
          "time": 177.43023255811192,
          "velocity": 0.18110236220472442,
          "duration": 0.05813953488370771
        },
        {
          "name": "G6",
          "midi": 91,
          "time": 177.43023255811192,
          "velocity": 0.48031496062992124,
          "duration": 0.8255813953486495
        },
        {
          "name": "C7",
          "midi": 96,
          "time": 177.43023255811192,
          "velocity": 0.1732283464566929,
          "duration": 0.1395348837208985
        },
        {
          "name": "D3",
          "midi": 50,
          "time": 177.44186046508867,
          "velocity": 0.3858267716535433,
          "duration": 0.023255813953483084
        },
        {
          "name": "E5",
          "midi": 76,
          "time": 177.44186046508867,
          "velocity": 0.1732283464566929,
          "duration": 0.034883720930224626
        },
        {
          "name": "G5",
          "midi": 79,
          "time": 177.44186046508867,
          "velocity": 0.48031496062992124,
          "duration": 0.39534883720921243
        },
        {
          "name": "C6",
          "midi": 84,
          "time": 177.44186046508867,
          "velocity": 0.08661417322834646,
          "duration": 0.09302325581393234
        },
        {
          "name": "A#3",
          "midi": 58,
          "time": 177.4534883720654,
          "velocity": 0.11023622047244094,
          "duration": 0.034883720930224626
        },
        {
          "name": "C5",
          "midi": 72,
          "time": 177.4534883720654,
          "velocity": 0.1889763779527559,
          "duration": 0.04651162790696617
        },
        {
          "name": "D#3",
          "midi": 51,
          "time": 177.46511627904215,
          "velocity": 0.4330708661417323,
          "duration": 0.023255813953483084
        },
        {
          "name": "D4",
          "midi": 62,
          "time": 177.46511627904215,
          "velocity": 0.1968503937007874,
          "duration": 0.10465116279067388
        },
        {
          "name": "F7",
          "midi": 101,
          "time": 177.46511627904215,
          "velocity": 0.2204724409448819,
          "duration": 0.1627906976743816
        },
        {
          "name": "D3",
          "midi": 50,
          "time": 177.48837209299563,
          "velocity": 0.47244094488188976,
          "duration": 0.15116279069764005
        },
        {
          "name": "E5",
          "midi": 76,
          "time": 177.49999999997237,
          "velocity": 0.13385826771653545,
          "duration": 0.05813953488370771
        },
        {
          "name": "B4",
          "midi": 71,
          "time": 177.51162790694912,
          "velocity": 0.2204724409448819,
          "duration": 0.05813953488370771
        },
        {
          "name": "D#6",
          "midi": 87,
          "time": 177.51162790694912,
          "velocity": 0.07086614173228346,
          "duration": 0.034883720930224626
        },
        {
          "name": "D#7",
          "midi": 99,
          "time": 177.51162790694912,
          "velocity": 0.2047244094488189,
          "duration": 0.23255813953483084
        },
        {
          "name": "E7",
          "midi": 100,
          "time": 177.51162790694912,
          "velocity": 0.11023622047244094,
          "duration": 0.09302325581393234
        },
        {
          "name": "A3",
          "midi": 57,
          "time": 177.5348837209026,
          "velocity": 0.1732283464566929,
          "duration": 0.06976744186044925
        },
        {
          "name": "F2",
          "midi": 41,
          "time": 177.55813953485608,
          "velocity": 0.29133858267716534,
          "duration": 0.023255813953483084
        },
        {
          "name": "A#6",
          "midi": 94,
          "time": 177.55813953485608,
          "velocity": 0.11023622047244094,
          "duration": 0.04651162790696617
        },
        {
          "name": "E6",
          "midi": 88,
          "time": 177.56976744183282,
          "velocity": 0.1732283464566929,
          "duration": 0.12790697674415696
        },
        {
          "name": "F#7",
          "midi": 102,
          "time": 177.56976744183282,
          "velocity": 0.18110236220472442,
          "duration": 0.23255813953483084
        },
        {
          "name": "B4",
          "midi": 71,
          "time": 177.58139534880956,
          "velocity": 0.1732283464566929,
          "duration": 0.04651162790696617
        },
        {
          "name": "D6",
          "midi": 86,
          "time": 177.58139534880956,
          "velocity": 0.07086614173228346,
          "duration": 0.04651162790696617
        },
        {
          "name": "D5",
          "midi": 74,
          "time": 177.5930232557863,
          "velocity": 0.09448818897637795,
          "duration": 0.04651162790696617
        },
        {
          "name": "E2",
          "midi": 40,
          "time": 177.60465116276305,
          "velocity": 0.28346456692913385,
          "duration": 0.034883720930224626
        },
        {
          "name": "F#5",
          "midi": 78,
          "time": 177.6162790697398,
          "velocity": 0.33070866141732286,
          "duration": 0.10465116279067388
        },
        {
          "name": "F#4",
          "midi": 66,
          "time": 177.62790697671653,
          "velocity": 0.3228346456692913,
          "duration": 0.18604651162786467
        },
        {
          "name": "E5",
          "midi": 76,
          "time": 177.62790697671653,
          "velocity": 0.2125984251968504,
          "duration": 0.06976744186044925
        },
        {
          "name": "C7",
          "midi": 96,
          "time": 177.62790697671653,
          "velocity": 0.2677165354330709,
          "duration": 0.10465116279067388
        },
        {
          "name": "C#5",
          "midi": 73,
          "time": 177.63953488369327,
          "velocity": 0.15748031496062992,
          "duration": 0.034883720930224626
        },
        {
          "name": "C3",
          "midi": 48,
          "time": 177.65116279067,
          "velocity": 0.4409448818897638,
          "duration": 0.023255813953483084
        },
        {
          "name": "D6",
          "midi": 86,
          "time": 177.65116279067,
          "velocity": 0.14960629921259844,
          "duration": 0.1395348837208985
        },
        {
          "name": "B4",
          "midi": 71,
          "time": 177.66279069764676,
          "velocity": 0.2125984251968504,
          "duration": 0.034883720930224626
        },
        {
          "name": "F3",
          "midi": 53,
          "time": 177.6744186046235,
          "velocity": 0.31496062992125984,
          "duration": 0.034883720930224626
        },
        {
          "name": "G#2",
          "midi": 44,
          "time": 177.69767441857698,
          "velocity": 0.3858267716535433,
          "duration": 0.023255813953483084
        },
        {
          "name": "A3",
          "midi": 57,
          "time": 177.69767441857698,
          "velocity": 0.3779527559055118,
          "duration": 0.04651162790696617
        },
        {
          "name": "D#6",
          "midi": 87,
          "time": 177.69767441857698,
          "velocity": 0.09448818897637795,
          "duration": 0.04651162790696617
        },
        {
          "name": "D4",
          "midi": 62,
          "time": 177.70930232555372,
          "velocity": 0.2992125984251969,
          "duration": 0.09302325581393234
        },
        {
          "name": "A4",
          "midi": 69,
          "time": 177.74418604648395,
          "velocity": 0.31496062992125984,
          "duration": 0.10465116279067388
        },
        {
          "name": "D#3",
          "midi": 51,
          "time": 177.7558139534607,
          "velocity": 0.44881889763779526,
          "duration": 0.034883720930224626
        },
        {
          "name": "A3",
          "midi": 57,
          "time": 177.7558139534607,
          "velocity": 0.2677165354330709,
          "duration": 0.023255813953483084
        },
        {
          "name": "F2",
          "midi": 41,
          "time": 177.76744186043743,
          "velocity": 0.44881889763779526,
          "duration": 0.023255813953483084
        },
        {
          "name": "D#6",
          "midi": 87,
          "time": 177.77906976741417,
          "velocity": 0.09448818897637795,
          "duration": 0.034883720930224626
        },
        {
          "name": "F#6",
          "midi": 90,
          "time": 177.77906976741417,
          "velocity": 0.1732283464566929,
          "duration": 0.09302325581393234
        },
        {
          "name": "D3",
          "midi": 50,
          "time": 177.7906976743909,
          "velocity": 0.47244094488188976,
          "duration": 0.04651162790696617
        },
        {
          "name": "D#4",
          "midi": 63,
          "time": 177.80232558136765,
          "velocity": 0.2204724409448819,
          "duration": 0.034883720930224626
        },
        {
          "name": "C#7",
          "midi": 97,
          "time": 177.80232558136765,
          "velocity": 0.2047244094488189,
          "duration": 0.10465116279067388
        },
        {
          "name": "D#7",
          "midi": 99,
          "time": 177.80232558136765,
          "velocity": 0.14960629921259844,
          "duration": 0.11627906976741542
        },
        {
          "name": "F7",
          "midi": 101,
          "time": 177.80232558136765,
          "velocity": 0.08661417322834646,
          "duration": 0.09302325581393234
        },
        {
          "name": "F#5",
          "midi": 78,
          "time": 177.8139534883444,
          "velocity": 0.2440944881889764,
          "duration": 0.023255813953483084
        },
        {
          "name": "D#3",
          "midi": 51,
          "time": 177.83720930229788,
          "velocity": 0.5275590551181102,
          "duration": 0.023255813953483084
        },
        {
          "name": "D4",
          "midi": 62,
          "time": 177.83720930229788,
          "velocity": 0.25984251968503935,
          "duration": 0.023255813953483084
        },
        {
          "name": "D2",
          "midi": 38,
          "time": 177.84883720927462,
          "velocity": 0.5354330708661418,
          "duration": 0.011627906976741542
        },
        {
          "name": "G#2",
          "midi": 44,
          "time": 177.84883720927462,
          "velocity": 0.5511811023622047,
          "duration": 0.011627906976741542
        },
        {
          "name": "G5",
          "midi": 79,
          "time": 177.84883720927462,
          "velocity": 0.3779527559055118,
          "duration": 0.023255813953483084
        },
        {
          "name": "B1",
          "midi": 35,
          "time": 177.86046511625136,
          "velocity": 0.5511811023622047,
          "duration": 0.023255813953483084
        },
        {
          "name": "C3",
          "midi": 48,
          "time": 177.86046511625136,
          "velocity": 0.5984251968503937,
          "duration": 0.011627906976741542
        },
        {
          "name": "E4",
          "midi": 64,
          "time": 177.86046511625136,
          "velocity": 0.41732283464566927,
          "duration": 0.43023255813943706
        },
        {
          "name": "B4",
          "midi": 71,
          "time": 177.86046511625136,
          "velocity": 0.2755905511811024,
          "duration": 0.18604651162786467
        },
        {
          "name": "D3",
          "midi": 50,
          "time": 177.8720930232281,
          "velocity": 0.5590551181102362,
          "duration": 0.011627906976741542
        },
        {
          "name": "B3",
          "midi": 59,
          "time": 177.88372093020484,
          "velocity": 0.4015748031496063,
          "duration": 0.034883720930224626
        },
        {
          "name": "A4",
          "midi": 69,
          "time": 177.88372093020484,
          "velocity": 0.2440944881889764,
          "duration": 0.05813953488370771
        },
        {
          "name": "G5",
          "midi": 79,
          "time": 177.88372093020484,
          "velocity": 0.4645669291338583,
          "duration": 0.19767441860460622
        },
        {
          "name": "E3",
          "midi": 52,
          "time": 177.90697674415833,
          "velocity": 0.5354330708661418,
          "duration": 0.05813953488370771
        },
        {
          "name": "C7",
          "midi": 96,
          "time": 177.90697674415833,
          "velocity": 0.15748031496062992,
          "duration": 0.12790697674415696
        },
        {
          "name": "E2",
          "midi": 40,
          "time": 177.91860465113507,
          "velocity": 0.48031496062992124,
          "duration": 0.023255813953483084
        },
        {
          "name": "B3",
          "midi": 59,
          "time": 177.9302325581118,
          "velocity": 0.3543307086614173,
          "duration": 0.05813953488370771
        },
        {
          "name": "F#6",
          "midi": 90,
          "time": 177.9534883720653,
          "velocity": 0.07086614173228346,
          "duration": 0.034883720930224626
        },
        {
          "name": "F3",
          "midi": 53,
          "time": 177.96511627904204,
          "velocity": 0.5354330708661418,
          "duration": 0.011627906976741542
        },
        {
          "name": "D#3",
          "midi": 51,
          "time": 177.97674418601878,
          "velocity": 0.5354330708661418,
          "duration": 0.011627906976741542
        },
        {
          "name": "E3",
          "midi": 52,
          "time": 177.98837209299552,
          "velocity": 0.4645669291338583,
          "duration": 0.023255813953483084
        },
        {
          "name": "D2",
          "midi": 38,
          "time": 178.011627906949,
          "velocity": 0.23622047244094488,
          "duration": 0.023255813953483084
        },
        {
          "name": "D5",
          "midi": 74,
          "time": 178.011627906949,
          "velocity": 0.09448818897637795,
          "duration": 0.06976744186044925
        },
        {
          "name": "G#4",
          "midi": 68,
          "time": 178.02325581392574,
          "velocity": 0.1889763779527559,
          "duration": 0.034883720930224626
        },
        {
          "name": "F#6",
          "midi": 90,
          "time": 178.02325581392574,
          "velocity": 0.1732283464566929,
          "duration": 0.2209302325580893
        },
        {
          "name": "D#3",
          "midi": 51,
          "time": 178.03488372090249,
          "velocity": 0.25984251968503935,
          "duration": 0.023255813953483084
        },
        {
          "name": "B6",
          "midi": 95,
          "time": 178.03488372090249,
          "velocity": 0.07086614173228346,
          "duration": 0.034883720930224626
        },
        {
          "name": "D#2",
          "midi": 39,
          "time": 178.05813953485597,
          "velocity": 0.5118110236220472,
          "duration": 0.011627906976741542
        },
        {
          "name": "B4",
          "midi": 71,
          "time": 178.05813953485597,
          "velocity": 0.3228346456692913,
          "duration": 0.12790697674415696
        },
        {
          "name": "A6",
          "midi": 93,
          "time": 178.05813953485597,
          "velocity": 0.4330708661417323,
          "duration": 0.45348837209292014
        },
        {
          "name": "C2",
          "midi": 36,
          "time": 178.0697674418327,
          "velocity": 0.5118110236220472,
          "duration": 0.023255813953483084
        },
        {
          "name": "A3",
          "midi": 57,
          "time": 178.0697674418327,
          "velocity": 0.30708661417322836,
          "duration": 0.023255813953483084
        },
        {
          "name": "F#5",
          "midi": 78,
          "time": 178.0697674418327,
          "velocity": 0.4251968503937008,
          "duration": 0.05813953488370771
        },
        {
          "name": "G4",
          "midi": 67,
          "time": 178.08139534880945,
          "velocity": 0.2992125984251969,
          "duration": 0.24418604651157239
        },
        {
          "name": "A5",
          "midi": 81,
          "time": 178.08139534880945,
          "velocity": 0.3700787401574803,
          "duration": 0.4651162790696617
        },
        {
          "name": "E7",
          "midi": 100,
          "time": 178.08139534880945,
          "velocity": 0.30708661417322836,
          "duration": 0.4651162790696617
        },
        {
          "name": "F7",
          "midi": 101,
          "time": 178.08139534880945,
          "velocity": 0.12598425196850394,
          "duration": 0.0813953488371908
        },
        {
          "name": "D#3",
          "midi": 51,
          "time": 178.0930232557862,
          "velocity": 0.49606299212598426,
          "duration": 0.023255813953483084
        },
        {
          "name": "C7",
          "midi": 96,
          "time": 178.0930232557862,
          "velocity": 0.11023622047244094,
          "duration": 0.034883720930224626
        },
        {
          "name": "F#2",
          "midi": 42,
          "time": 178.10465116276293,
          "velocity": 0.5196850393700787,
          "duration": 0.023255813953483084
        },
        {
          "name": "B3",
          "midi": 59,
          "time": 178.10465116276293,
          "velocity": 0.3228346456692913,
          "duration": 0.034883720930224626
        },
        {
          "name": "E3",
          "midi": 52,
          "time": 178.13953488369316,
          "velocity": 0.5511811023622047,
          "duration": 0.034883720930224626
        },
        {
          "name": "B3",
          "midi": 59,
          "time": 178.1511627906699,
          "velocity": 0.28346456692913385,
          "duration": 0.10465116279067388
        },
        {
          "name": "D#7",
          "midi": 99,
          "time": 178.16279069764664,
          "velocity": 0.07086614173228346,
          "duration": 0.034883720930224626
        },
        {
          "name": "D#3",
          "midi": 51,
          "time": 178.17441860462338,
          "velocity": 0.5511811023622047,
          "duration": 0.011627906976741542
        },
        {
          "name": "F#5",
          "midi": 78,
          "time": 178.17441860462338,
          "velocity": 0.18110236220472442,
          "duration": 0.034883720930224626
        },
        {
          "name": "C7",
          "midi": 96,
          "time": 178.17441860462338,
          "velocity": 0.13385826771653545,
          "duration": 0.29069767441853855
        },
        {
          "name": "E3",
          "midi": 52,
          "time": 178.18604651160013,
          "velocity": 0.5275590551181102,
          "duration": 0.023255813953483084
        },
        {
          "name": "E2",
          "midi": 40,
          "time": 178.2093023255536,
          "velocity": 0.4409448818897638,
          "duration": 0.023255813953483084
        },
        {
          "name": "F3",
          "midi": 53,
          "time": 178.2093023255536,
          "velocity": 0.5118110236220472,
          "duration": 0.011627906976741542
        },
        {
          "name": "F#5",
          "midi": 78,
          "time": 178.22093023253035,
          "velocity": 0.11811023622047244,
          "duration": 0.06976744186044925
        },
        {
          "name": "E2",
          "midi": 40,
          "time": 178.24418604648383,
          "velocity": 0.5196850393700787,
          "duration": 0.023255813953483084
        },
        {
          "name": "D7",
          "midi": 98,
          "time": 178.26744186043732,
          "velocity": 0.2204724409448819,
          "duration": 0.2209302325580893
        },
        {
          "name": "F2",
          "midi": 41,
          "time": 178.27906976741406,
          "velocity": 0.3543307086614173,
          "duration": 0.023255813953483084
        },
        {
          "name": "B6",
          "midi": 95,
          "time": 178.27906976741406,
          "velocity": 0.41732283464566927,
          "duration": 1.674418604650782
        },
        {
          "name": "C4",
          "midi": 60,
          "time": 178.2906976743908,
          "velocity": 0.28346456692913385,
          "duration": 0.034883720930224626
        },
        {
          "name": "D5",
          "midi": 74,
          "time": 178.2906976743908,
          "velocity": 0.14960629921259844,
          "duration": 0.034883720930224626
        },
        {
          "name": "F#6",
          "midi": 90,
          "time": 178.2906976743908,
          "velocity": 0.14960629921259844,
          "duration": 0.15116279069764005
        },
        {
          "name": "G6",
          "midi": 91,
          "time": 178.2906976743908,
          "velocity": 0.16535433070866143,
          "duration": 0.06976744186044925
        },
        {
          "name": "C#7",
          "midi": 97,
          "time": 178.2906976743908,
          "velocity": 0.28346456692913385,
          "duration": 0.06976744186044925
        },
        {
          "name": "B4",
          "midi": 71,
          "time": 178.30232558136754,
          "velocity": 0.18110236220472442,
          "duration": 0.04651162790696617
        },
        {
          "name": "D#6",
          "midi": 87,
          "time": 178.30232558136754,
          "velocity": 0.15748031496062992,
          "duration": 0.09302325581393234
        },
        {
          "name": "D#7",
          "midi": 99,
          "time": 178.30232558136754,
          "velocity": 0.18110236220472442,
          "duration": 0.26744186046505547
        },
        {
          "name": "F#7",
          "midi": 102,
          "time": 178.31395348834428,
          "velocity": 0.1732283464566929,
          "duration": 0.20930232558134776
        },
        {
          "name": "F3",
          "midi": 53,
          "time": 178.32558139532102,
          "velocity": 0.36220472440944884,
          "duration": 0.023255813953483084
        },
        {
          "name": "B3",
          "midi": 59,
          "time": 178.32558139532102,
          "velocity": 0.33858267716535434,
          "duration": 0.17441860465112313
        },
        {
          "name": "F7",
          "midi": 101,
          "time": 178.33720930229777,
          "velocity": 0.12598425196850394,
          "duration": 0.034883720930224626
        },
        {
          "name": "C5",
          "midi": 72,
          "time": 178.3488372092745,
          "velocity": 0.11023622047244094,
          "duration": 0.034883720930224626
        },
        {
          "name": "D5",
          "midi": 74,
          "time": 178.3488372092745,
          "velocity": 0.2125984251968504,
          "duration": 0.11627906976741542
        },
        {
          "name": "D#3",
          "midi": 51,
          "time": 178.36046511625125,
          "velocity": 0.33858267716535434,
          "duration": 0.023255813953483084
        },
        {
          "name": "A4",
          "midi": 69,
          "time": 178.36046511625125,
          "velocity": 0.14960629921259844,
          "duration": 0.06976744186044925
        },
        {
          "name": "F#5",
          "midi": 78,
          "time": 178.36046511625125,
          "velocity": 0.15748031496062992,
          "duration": 0.06976744186044925
        },
        {
          "name": "E2",
          "midi": 40,
          "time": 178.372093023228,
          "velocity": 0.5039370078740157,
          "duration": 0.05813953488370771
        },
        {
          "name": "B5",
          "midi": 83,
          "time": 178.372093023228,
          "velocity": 0.10236220472440945,
          "duration": 0.034883720930224626
        },
        {
          "name": "C#7",
          "midi": 97,
          "time": 178.38372093020473,
          "velocity": 0.2283464566929134,
          "duration": 0.17441860465112313
        },
        {
          "name": "F3",
          "midi": 53,
          "time": 178.39534883718147,
          "velocity": 0.33070866141732286,
          "duration": 0.023255813953483084
        },
        {
          "name": "G6",
          "midi": 91,
          "time": 178.39534883718147,
          "velocity": 0.12598425196850394,
          "duration": 0.034883720930224626
        },
        {
          "name": "F7",
          "midi": 101,
          "time": 178.39534883718147,
          "velocity": 0.11811023622047244,
          "duration": 0.0813953488371908
        },
        {
          "name": "D#6",
          "midi": 87,
          "time": 178.41860465113496,
          "velocity": 0.09448818897637795,
          "duration": 0.034883720930224626
        },
        {
          "name": "B5",
          "midi": 83,
          "time": 178.4302325581117,
          "velocity": 0.07874015748031496,
          "duration": 0.04651162790696617
        },
        {
          "name": "G2",
          "midi": 43,
          "time": 178.44186046508844,
          "velocity": 0.41732283464566927,
          "duration": 0.023255813953483084
        },
        {
          "name": "D#3",
          "midi": 51,
          "time": 178.45348837206518,
          "velocity": 0.41732283464566927,
          "duration": 0.023255813953483084
        },
        {
          "name": "F#5",
          "midi": 78,
          "time": 178.45348837206518,
          "velocity": 0.31496062992125984,
          "duration": 0.11627906976741542
        },
        {
          "name": "F4",
          "midi": 65,
          "time": 178.4883720929954,
          "velocity": 0.2204724409448819,
          "duration": 0.034883720930224626
        },
        {
          "name": "G#6",
          "midi": 92,
          "time": 178.4883720929954,
          "velocity": 0.11023622047244094,
          "duration": 0.09302325581393234
        },
        {
          "name": "C7",
          "midi": 96,
          "time": 178.4883720929954,
          "velocity": 0.16535433070866143,
          "duration": 0.04651162790696617
        },
        {
          "name": "F2",
          "midi": 41,
          "time": 178.49999999997215,
          "velocity": 0.5433070866141733,
          "duration": 0.011627906976741542
        },
        {
          "name": "G6",
          "midi": 91,
          "time": 178.49999999997215,
          "velocity": 0.09448818897637795,
          "duration": 0.15116279069764005
        },
        {
          "name": "D7",
          "midi": 98,
          "time": 178.49999999997215,
          "velocity": 0.13385826771653545,
          "duration": 0.09302325581393234
        },
        {
          "name": "F#2",
          "midi": 42,
          "time": 178.5116279069489,
          "velocity": 0.5511811023622047,
          "duration": 0.011627906976741542
        },
        {
          "name": "B3",
          "midi": 59,
          "time": 178.5116279069489,
          "velocity": 0.3937007874015748,
          "duration": 0.1627906976743816
        },
        {
          "name": "G4",
          "midi": 67,
          "time": 178.5116279069489,
          "velocity": 0.49606299212598426,
          "duration": 0.3604651162789878
        },
        {
          "name": "E2",
          "midi": 40,
          "time": 178.53488372090237,
          "velocity": 0.47244094488188976,
          "duration": 0.023255813953483084
        },
        {
          "name": "E4",
          "midi": 64,
          "time": 178.5465116278791,
          "velocity": 0.30708661417322836,
          "duration": 0.15116279069764005
        },
        {
          "name": "A6",
          "midi": 93,
          "time": 178.5465116278791,
          "velocity": 0.11023622047244094,
          "duration": 0.09302325581393234
        },
        {
          "name": "E3",
          "midi": 52,
          "time": 178.55813953485585,
          "velocity": 0.48031496062992124,
          "duration": 0.05813953488370771
        },
        {
          "name": "E2",
          "midi": 40,
          "time": 178.5697674418326,
          "velocity": 0.4881889763779528,
          "duration": 0.023255813953483084
        },
        {
          "name": "F#6",
          "midi": 90,
          "time": 178.5697674418326,
          "velocity": 0.08661417322834646,
          "duration": 0.09302325581393234
        },
        {
          "name": "F#7",
          "midi": 102,
          "time": 178.5697674418326,
          "velocity": 0.18110236220472442,
          "duration": 0.034883720930224626
        },
        {
          "name": "F#5",
          "midi": 78,
          "time": 178.6279069767163,
          "velocity": 0.11811023622047244,
          "duration": 0.04651162790696617
        },
        {
          "name": "D#7",
          "midi": 99,
          "time": 178.6279069767163,
          "velocity": 0.09448818897637795,
          "duration": 0.034883720930224626
        },
        {
          "name": "E7",
          "midi": 100,
          "time": 178.6279069767163,
          "velocity": 0.11023622047244094,
          "duration": 0.05813953488370771
        },
        {
          "name": "D#2",
          "midi": 39,
          "time": 178.63953488369305,
          "velocity": 0.2283464566929134,
          "duration": 0.023255813953483084
        },
        {
          "name": "G#6",
          "midi": 92,
          "time": 178.63953488369305,
          "velocity": 0.11811023622047244,
          "duration": 0.0813953488371908
        },
        {
          "name": "E3",
          "midi": 52,
          "time": 178.66279069764653,
          "velocity": 0.36220472440944884,
          "duration": 0.04651162790696617
        },
        {
          "name": "F#7",
          "midi": 102,
          "time": 178.67441860462327,
          "velocity": 0.2992125984251969,
          "duration": 1.220930232557862
        },
        {
          "name": "B4",
          "midi": 71,
          "time": 178.6860465116,
          "velocity": 0.25984251968503935,
          "duration": 0.023255813953483084
        },
        {
          "name": "D5",
          "midi": 74,
          "time": 178.6860465116,
          "velocity": 0.36220472440944884,
          "duration": 0.04651162790696617
        },
        {
          "name": "F#6",
          "midi": 90,
          "time": 178.6860465116,
          "velocity": 0.1968503937007874,
          "duration": 0.279069767441797
        },
        {
          "name": "G7",
          "midi": 103,
          "time": 178.6860465116,
          "velocity": 0.13385826771653545,
          "duration": 0.0813953488371908
        },
        {
          "name": "A5",
          "midi": 81,
          "time": 178.69767441857675,
          "velocity": 0.1889763779527559,
          "duration": 0.06976744186044925
        },
        {
          "name": "A#6",
          "midi": 94,
          "time": 178.69767441857675,
          "velocity": 0.15748031496062992,
          "duration": 0.05813953488370771
        },
        {
          "name": "C#7",
          "midi": 97,
          "time": 178.69767441857675,
          "velocity": 0.1889763779527559,
          "duration": 0.0813953488371908
        },
        {
          "name": "D#7",
          "midi": 99,
          "time": 178.69767441857675,
          "velocity": 0.16535433070866143,
          "duration": 0.11627906976741542
        },
        {
          "name": "C3",
          "midi": 48,
          "time": 178.7093023255535,
          "velocity": 0.5433070866141733,
          "duration": 0.023255813953483084
        },
        {
          "name": "E4",
          "midi": 64,
          "time": 178.7093023255535,
          "velocity": 0.3937007874015748,
          "duration": 0.034883720930224626
        },
        {
          "name": "C6",
          "midi": 84,
          "time": 178.7093023255535,
          "velocity": 0.16535433070866143,
          "duration": 0.06976744186044925
        },
        {
          "name": "D7",
          "midi": 98,
          "time": 178.7093023255535,
          "velocity": 0.16535433070866143,
          "duration": 0.09302325581393234
        },
        {
          "name": "E7",
          "midi": 100,
          "time": 178.7093023255535,
          "velocity": 0.15748031496062992,
          "duration": 0.05813953488370771
        },
        {
          "name": "B3",
          "midi": 59,
          "time": 178.73255813950698,
          "velocity": 0.4330708661417323,
          "duration": 0.023255813953483084
        },
        {
          "name": "F#5",
          "midi": 78,
          "time": 178.73255813950698,
          "velocity": 0.16535433070866143,
          "duration": 0.034883720930224626
        },
        {
          "name": "D5",
          "midi": 74,
          "time": 178.74418604648372,
          "velocity": 0.16535433070866143,
          "duration": 0.05813953488370771
        },
        {
          "name": "G6",
          "midi": 91,
          "time": 178.74418604648372,
          "velocity": 0.07086614173228346,
          "duration": 0.04651162790696617
        },
        {
          "name": "G#5",
          "midi": 80,
          "time": 178.75581395346046,
          "velocity": 0.07086614173228346,
          "duration": 0.034883720930224626
        },
        {
          "name": "E3",
          "midi": 52,
          "time": 178.7674418604372,
          "velocity": 0.5590551181102362,
          "duration": 0.10465116279067388
        },
        {
          "name": "C4",
          "midi": 60,
          "time": 178.7674418604372,
          "velocity": 0.36220472440944884,
          "duration": 0.023255813953483084
        },
        {
          "name": "E2",
          "midi": 40,
          "time": 178.77906976741394,
          "velocity": 0.5039370078740157,
          "duration": 0.023255813953483084
        },
        {
          "name": "B3",
          "midi": 59,
          "time": 178.79069767439069,
          "velocity": 0.3779527559055118,
          "duration": 0.034883720930224626
        },
        {
          "name": "F#5",
          "midi": 78,
          "time": 178.80232558136743,
          "velocity": 0.2125984251968504,
          "duration": 0.10465116279067388
        },
        {
          "name": "C3",
          "midi": 48,
          "time": 178.81395348834417,
          "velocity": 0.5118110236220472,
          "duration": 0.011627906976741542
        },
        {
          "name": "B2",
          "midi": 47,
          "time": 178.8255813953209,
          "velocity": 0.5196850393700787,
          "duration": 0.011627906976741542
        },
        {
          "name": "C5",
          "midi": 72,
          "time": 178.8255813953209,
          "velocity": 0.11811023622047244,
          "duration": 0.034883720930224626
        },
        {
          "name": "D5",
          "midi": 74,
          "time": 178.8255813953209,
          "velocity": 0.08661417322834646,
          "duration": 0.034883720930224626
        },
        {
          "name": "A4",
          "midi": 69,
          "time": 178.8488372092744,
          "velocity": 0.18110236220472442,
          "duration": 0.034883720930224626
        },
        {
          "name": "B5",
          "midi": 83,
          "time": 178.8488372092744,
          "velocity": 0.2047244094488189,
          "duration": 0.279069767441797
        },
        {
          "name": "B2",
          "midi": 47,
          "time": 178.86046511625113,
          "velocity": 0.5196850393700787,
          "duration": 0.023255813953483084
        },
        {
          "name": "F3",
          "midi": 53,
          "time": 178.87209302322788,
          "velocity": 0.5196850393700787,
          "duration": 0.011627906976741542
        },
        {
          "name": "C3",
          "midi": 48,
          "time": 178.88372093020462,
          "velocity": 0.5669291338582677,
          "duration": 0.011627906976741542
        },
        {
          "name": "B2",
          "midi": 47,
          "time": 178.89534883718136,
          "velocity": 0.5590551181102362,
          "duration": 0.023255813953483084
        },
        {
          "name": "E2",
          "midi": 40,
          "time": 178.9069767441581,
          "velocity": 0.5196850393700787,
          "duration": 0.011627906976741542
        },
        {
          "name": "B4",
          "midi": 71,
          "time": 178.9069767441581,
          "velocity": 0.3543307086614173,
          "duration": 0.6279069767440433
        },
        {
          "name": "G5",
          "midi": 79,
          "time": 178.9069767441581,
          "velocity": 0.25984251968503935,
          "duration": 0.023255813953483084
        },
        {
          "name": "A2",
          "midi": 45,
          "time": 178.91860465113484,
          "velocity": 0.5748031496062992,
          "duration": 0.011627906976741542
        },
        {
          "name": "D7",
          "midi": 98,
          "time": 178.91860465113484,
          "velocity": 0.2283464566929134,
          "duration": 0.04651162790696617
        },
        {
          "name": "F2",
          "midi": 41,
          "time": 178.93023255811158,
          "velocity": 0.5196850393700787,
          "duration": 0.011627906976741542
        },
        {
          "name": "B2",
          "midi": 47,
          "time": 178.93023255811158,
          "velocity": 0.5433070866141733,
          "duration": 0.011627906976741542
        },
        {
          "name": "G4",
          "midi": 67,
          "time": 178.93023255811158,
          "velocity": 0.3543307086614173,
          "duration": 0.4186046511626955
        },
        {
          "name": "F#5",
          "midi": 78,
          "time": 178.93023255811158,
          "velocity": 0.3228346456692913,
          "duration": 0.05813953488370771
        },
        {
          "name": "C3",
          "midi": 48,
          "time": 178.94186046508833,
          "velocity": 0.5590551181102362,
          "duration": 0.011627906976741542
        },
        {
          "name": "C#7",
          "midi": 97,
          "time": 178.94186046508833,
          "velocity": 0.2440944881889764,
          "duration": 0.05813953488370771
        },
        {
          "name": "F2",
          "midi": 41,
          "time": 178.95348837206507,
          "velocity": 0.5433070866141733,
          "duration": 0.023255813953483084
        },
        {
          "name": "B2",
          "midi": 47,
          "time": 178.95348837206507,
          "velocity": 0.5196850393700787,
          "duration": 0.011627906976741542
        },
        {
          "name": "D#6",
          "midi": 87,
          "time": 178.95348837206507,
          "velocity": 0.14173228346456693,
          "duration": 0.0813953488371908
        },
        {
          "name": "C7",
          "midi": 96,
          "time": 178.95348837206507,
          "velocity": 0.15748031496062992,
          "duration": 0.0813953488371908
        },
        {
          "name": "F7",
          "midi": 101,
          "time": 178.95348837206507,
          "velocity": 0.11023622047244094,
          "duration": 0.05813953488370771
        },
        {
          "name": "E2",
          "midi": 40,
          "time": 178.97674418601855,
          "velocity": 0.5275590551181102,
          "duration": 0.011627906976741542
        },
        {
          "name": "B2",
          "midi": 47,
          "time": 178.97674418601855,
          "velocity": 0.4881889763779528,
          "duration": 0.023255813953483084
        },
        {
          "name": "E5",
          "midi": 76,
          "time": 178.97674418601855,
          "velocity": 0.2047244094488189,
          "duration": 0.5232558139533694
        },
        {
          "name": "D6",
          "midi": 86,
          "time": 178.97674418601855,
          "velocity": 0.11023622047244094,
          "duration": 0.034883720930224626
        },
        {
          "name": "E7",
          "midi": 100,
          "time": 178.97674418601855,
          "velocity": 0.11811023622047244,
          "duration": 0.06976744186044925
        },
        {
          "name": "D#2",
          "midi": 39,
          "time": 178.9883720929953,
          "velocity": 0.5354330708661418,
          "duration": 0.011627906976741542
        },
        {
          "name": "D7",
          "midi": 98,
          "time": 178.9883720929953,
          "velocity": 0.23622047244094488,
          "duration": 0.24418604651157239
        },
        {
          "name": "F2",
          "midi": 41,
          "time": 178.99999999997203,
          "velocity": 0.5275590551181102,
          "duration": 0.011627906976741542
        },
        {
          "name": "E4",
          "midi": 64,
          "time": 178.99999999997203,
          "velocity": 0.2283464566929134,
          "duration": 0.034883720930224626
        },
        {
          "name": "E3",
          "midi": 52,
          "time": 179.01162790694877,
          "velocity": 0.3858267716535433,
          "duration": 0.034883720930224626
        },
        {
          "name": "D#2",
          "midi": 39,
          "time": 179.02325581392552,
          "velocity": 0.4409448818897638,
          "duration": 0.023255813953483084
        },
        {
          "name": "F#5",
          "midi": 78,
          "time": 179.02325581392552,
          "velocity": 0.31496062992125984,
          "duration": 0.06976744186044925
        },
        {
          "name": "C#7",
          "midi": 97,
          "time": 179.03488372090226,
          "velocity": 0.25984251968503935,
          "duration": 0.19767441860460622
        },
        {
          "name": "E2",
          "midi": 40,
          "time": 179.046511627879,
          "velocity": 0.3937007874015748,
          "duration": 0.023255813953483084
        },
        {
          "name": "F7",
          "midi": 101,
          "time": 179.05813953485574,
          "velocity": 0.10236220472440945,
          "duration": 0.05813953488370771
        },
        {
          "name": "F#2",
          "midi": 42,
          "time": 179.08139534880922,
          "velocity": 0.4409448818897638,
          "duration": 0.034883720930224626
        },
        {
          "name": "D#7",
          "midi": 99,
          "time": 179.09302325578597,
          "velocity": 0.29133858267716534,
          "duration": 0.2209302325580893
        },
        {
          "name": "C7",
          "midi": 96,
          "time": 179.11627906973945,
          "velocity": 0.14173228346456693,
          "duration": 0.10465116279067388
        },
        {
          "name": "D5",
          "midi": 74,
          "time": 179.1279069767162,
          "velocity": 0.11811023622047244,
          "duration": 0.05813953488370771
        },
        {
          "name": "F#5",
          "midi": 78,
          "time": 179.1279069767162,
          "velocity": 0.13385826771653545,
          "duration": 0.1627906976743816
        },
        {
          "name": "A5",
          "midi": 81,
          "time": 179.1279069767162,
          "velocity": 0.25984251968503935,
          "duration": 0.3604651162789878
        },
        {
          "name": "G7",
          "midi": 103,
          "time": 179.13953488369293,
          "velocity": 0.09448818897637795,
          "duration": 0.034883720930224626
        },
        {
          "name": "F#2",
          "midi": 42,
          "time": 179.15116279066967,
          "velocity": 0.5748031496062992,
          "duration": 0.023255813953483084
        },
        {
          "name": "E4",
          "midi": 64,
          "time": 179.16279069764641,
          "velocity": 0.33858267716535434,
          "duration": 0.3837209302324709
        },
        {
          "name": "F2",
          "midi": 41,
          "time": 179.17441860462316,
          "velocity": 0.5669291338582677,
          "duration": 0.023255813953483084
        },
        {
          "name": "F7",
          "midi": 101,
          "time": 179.17441860462316,
          "velocity": 0.1889763779527559,
          "duration": 0.10465116279067388
        },
        {
          "name": "B3",
          "midi": 59,
          "time": 179.1860465115999,
          "velocity": 0.18110236220472442,
          "duration": 0.09302325581393234
        },
        {
          "name": "E3",
          "midi": 52,
          "time": 179.19767441857664,
          "velocity": 0.3779527559055118,
          "duration": 0.0813953488371908
        },
        {
          "name": "D6",
          "midi": 86,
          "time": 179.19767441857664,
          "velocity": 0.07874015748031496,
          "duration": 0.05813953488370771
        },
        {
          "name": "D5",
          "midi": 74,
          "time": 179.20930232555338,
          "velocity": 0.1889763779527559,
          "duration": 0.09302325581393234
        },
        {
          "name": "F#6",
          "midi": 90,
          "time": 179.20930232555338,
          "velocity": 0.1968503937007874,
          "duration": 0.06976744186044925
        },
        {
          "name": "A#6",
          "midi": 94,
          "time": 179.20930232555338,
          "velocity": 0.13385826771653545,
          "duration": 0.1395348837208985
        },
        {
          "name": "F2",
          "midi": 41,
          "time": 179.2441860464836,
          "velocity": 0.3228346456692913,
          "duration": 0.034883720930224626
        },
        {
          "name": "C#7",
          "midi": 97,
          "time": 179.25581395346035,
          "velocity": 0.18110236220472442,
          "duration": 0.05813953488370771
        },
        {
          "name": "E2",
          "midi": 40,
          "time": 179.27906976741383,
          "velocity": 0.2755905511811024,
          "duration": 0.05813953488370771
        },
        {
          "name": "D7",
          "midi": 98,
          "time": 179.27906976741383,
          "velocity": 0.1732283464566929,
          "duration": 0.18604651162786467
        },
        {
          "name": "E7",
          "midi": 100,
          "time": 179.29069767439057,
          "velocity": 0.2047244094488189,
          "duration": 0.11627906976741542
        },
        {
          "name": "F#6",
          "midi": 90,
          "time": 179.3023255813673,
          "velocity": 0.1889763779527559,
          "duration": 0.19767441860460622
        },
        {
          "name": "C7",
          "midi": 96,
          "time": 179.3023255813673,
          "velocity": 0.2440944881889764,
          "duration": 0.034883720930224626
        },
        {
          "name": "D6",
          "midi": 86,
          "time": 179.31395348834405,
          "velocity": 0.13385826771653545,
          "duration": 0.10465116279067388
        },
        {
          "name": "F7",
          "midi": 101,
          "time": 179.31395348834405,
          "velocity": 0.1732283464566929,
          "duration": 0.26744186046505547
        },
        {
          "name": "C#7",
          "midi": 97,
          "time": 179.33720930229754,
          "velocity": 0.23622047244094488,
          "duration": 0.29069767441853855
        },
        {
          "name": "A#3",
          "midi": 58,
          "time": 179.34883720927428,
          "velocity": 0.25196850393700787,
          "duration": 0.023255813953483084
        },
        {
          "name": "F#5",
          "midi": 78,
          "time": 179.34883720927428,
          "velocity": 0.3228346456692913,
          "duration": 0.06976744186044925
        },
        {
          "name": "E3",
          "midi": 52,
          "time": 179.36046511625102,
          "velocity": 0.36220472440944884,
          "duration": 0.023255813953483084
        },
        {
          "name": "G4",
          "midi": 67,
          "time": 179.36046511625102,
          "velocity": 0.33858267716535434,
          "duration": 0.11627906976741542
        },
        {
          "name": "B3",
          "midi": 59,
          "time": 179.37209302322776,
          "velocity": 0.33858267716535434,
          "duration": 0.17441860465112313
        },
        {
          "name": "C7",
          "midi": 96,
          "time": 179.3837209302045,
          "velocity": 0.15748031496062992,
          "duration": 0.05813953488370771
        },
        {
          "name": "D#6",
          "midi": 87,
          "time": 179.406976744158,
          "velocity": 0.09448818897637795,
          "duration": 0.15116279069764005
        },
        {
          "name": "E3",
          "midi": 52,
          "time": 179.43023255811147,
          "velocity": 0.3937007874015748,
          "duration": 0.023255813953483084
        },
        {
          "name": "D6",
          "midi": 86,
          "time": 179.43023255811147,
          "velocity": 0.08661417322834646,
          "duration": 0.06976744186044925
        },
        {
          "name": "D#7",
          "midi": 99,
          "time": 179.43023255811147,
          "velocity": 0.11023622047244094,
          "duration": 0.05813953488370771
        },
        {
          "name": "G2",
          "midi": 43,
          "time": 179.45348837206495,
          "velocity": 0.3937007874015748,
          "duration": 0.023255813953483084
        },
        {
          "name": "F#2",
          "midi": 42,
          "time": 179.48837209299518,
          "velocity": 0.5118110236220472,
          "duration": 0.011627906976741542
        },
        {
          "name": "G4",
          "midi": 67,
          "time": 179.48837209299518,
          "velocity": 0.3464566929133858,
          "duration": 0.09302325581393234
        },
        {
          "name": "F#5",
          "midi": 78,
          "time": 179.48837209299518,
          "velocity": 0.15748031496062992,
          "duration": 0.10465116279067388
        },
        {
          "name": "F2",
          "midi": 41,
          "time": 179.49999999997192,
          "velocity": 0.5196850393700787,
          "duration": 0.011627906976741542
        },
        {
          "name": "D#7",
          "midi": 99,
          "time": 179.49999999997192,
          "velocity": 0.11023622047244094,
          "duration": 0.12790697674415696
        },
        {
          "name": "E2",
          "midi": 40,
          "time": 179.51162790694866,
          "velocity": 0.48031496062992124,
          "duration": 0.023255813953483084
        },
        {
          "name": "D7",
          "midi": 98,
          "time": 179.51162790694866,
          "velocity": 0.2047244094488189,
          "duration": 0.0813953488371908
        },
        {
          "name": "D6",
          "midi": 86,
          "time": 179.5232558139254,
          "velocity": 0.07874015748031496,
          "duration": 0.06976744186044925
        },
        {
          "name": "A6",
          "midi": 93,
          "time": 179.5232558139254,
          "velocity": 0.33070866141732286,
          "duration": 0.5116279069766279
        },
        {
          "name": "G7",
          "midi": 103,
          "time": 179.53488372090214,
          "velocity": 0.13385826771653545,
          "duration": 0.10465116279067388
        },
        {
          "name": "D3",
          "midi": 50,
          "time": 179.54651162787889,
          "velocity": 0.3937007874015748,
          "duration": 0.023255813953483084
        },
        {
          "name": "G2",
          "midi": 43,
          "time": 179.55813953485563,
          "velocity": 0.5354330708661418,
          "duration": 0.011627906976741542
        },
        {
          "name": "B4",
          "midi": 71,
          "time": 179.55813953485563,
          "velocity": 0.36220472440944884,
          "duration": 0.45348837209292014
        },
        {
          "name": "C7",
          "midi": 96,
          "time": 179.55813953485563,
          "velocity": 0.1732283464566929,
          "duration": 0.04651162790696617
        },
        {
          "name": "G#2",
          "midi": 44,
          "time": 179.56976744183237,
          "velocity": 0.5826771653543307,
          "duration": 0.011627906976741542
        },
        {
          "name": "D3",
          "midi": 50,
          "time": 179.5813953488091,
          "velocity": 0.5826771653543307,
          "duration": 0.011627906976741542
        },
        {
          "name": "B3",
          "midi": 59,
          "time": 179.5813953488091,
          "velocity": 0.3858267716535433,
          "duration": 0.05813953488370771
        },
        {
          "name": "E4",
          "midi": 64,
          "time": 179.5813953488091,
          "velocity": 0.3779527559055118,
          "duration": 0.4418604651161786
        },
        {
          "name": "G#4",
          "midi": 68,
          "time": 179.5813953488091,
          "velocity": 0.30708661417322836,
          "duration": 0.023255813953483084
        },
        {
          "name": "G5",
          "midi": 79,
          "time": 179.5813953488091,
          "velocity": 0.11023622047244094,
          "duration": 0.034883720930224626
        },
        {
          "name": "E7",
          "midi": 100,
          "time": 179.5813953488091,
          "velocity": 0.10236220472440945,
          "duration": 0.05813953488370771
        },
        {
          "name": "E3",
          "midi": 52,
          "time": 179.59302325578585,
          "velocity": 0.5590551181102362,
          "duration": 0.09302325581393234
        },
        {
          "name": "G4",
          "midi": 67,
          "time": 179.6046511627626,
          "velocity": 0.36220472440944884,
          "duration": 0.37209302325572935
        },
        {
          "name": "D7",
          "midi": 98,
          "time": 179.6046511627626,
          "velocity": 0.2283464566929134,
          "duration": 0.24418604651157239
        },
        {
          "name": "F2",
          "midi": 41,
          "time": 179.62790697671608,
          "velocity": 0.5039370078740157,
          "duration": 0.023255813953483084
        },
        {
          "name": "D5",
          "midi": 74,
          "time": 179.62790697671608,
          "velocity": 0.13385826771653545,
          "duration": 0.09302325581393234
        },
        {
          "name": "B3",
          "midi": 59,
          "time": 179.65116279066956,
          "velocity": 0.3700787401574803,
          "duration": 0.034883720930224626
        },
        {
          "name": "F#6",
          "midi": 90,
          "time": 179.67441860462304,
          "velocity": 0.10236220472440945,
          "duration": 0.05813953488370771
        },
        {
          "name": "F3",
          "midi": 53,
          "time": 179.73255813950675,
          "velocity": 0.2677165354330709,
          "duration": 0.023255813953483084
        },
        {
          "name": "C7",
          "midi": 96,
          "time": 179.73255813950675,
          "velocity": 0.12598425196850394,
          "duration": 0.10465116279067388
        },
        {
          "name": "D#2",
          "midi": 39,
          "time": 179.75581395346023,
          "velocity": 0.41732283464566927,
          "duration": 0.023255813953483084
        },
        {
          "name": "E3",
          "midi": 52,
          "time": 179.75581395346023,
          "velocity": 0.3464566929133858,
          "duration": 0.023255813953483084
        },
        {
          "name": "C6",
          "midi": 84,
          "time": 179.75581395346023,
          "velocity": 0.09448818897637795,
          "duration": 0.034883720930224626
        },
        {
          "name": "D5",
          "midi": 74,
          "time": 179.76744186043697,
          "velocity": 0.2992125984251969,
          "duration": 0.45348837209292014
        },
        {
          "name": "F#5",
          "midi": 78,
          "time": 179.76744186043697,
          "velocity": 0.2755905511811024,
          "duration": 0.034883720930224626
        },
        {
          "name": "C#2",
          "midi": 37,
          "time": 179.77906976741372,
          "velocity": 0.5275590551181102,
          "duration": 0.011627906976741542
        },
        {
          "name": "A3",
          "midi": 57,
          "time": 179.79069767439046,
          "velocity": 0.28346456692913385,
          "duration": 0.023255813953483084
        },
        {
          "name": "C#7",
          "midi": 97,
          "time": 179.79069767439046,
          "velocity": 0.15748031496062992,
          "duration": 0.034883720930224626
        },
        {
          "name": "D#3",
          "midi": 51,
          "time": 179.81395348834394,
          "velocity": 0.4566929133858268,
          "duration": 0.034883720930224626
        },
        {
          "name": "F#2",
          "midi": 42,
          "time": 179.82558139532068,
          "velocity": 0.5196850393700787,
          "duration": 0.011627906976741542
        },
        {
          "name": "B3",
          "midi": 59,
          "time": 179.82558139532068,
          "velocity": 0.33070866141732286,
          "duration": 0.034883720930224626
        },
        {
          "name": "F#5",
          "midi": 78,
          "time": 179.82558139532068,
          "velocity": 0.3464566929133858,
          "duration": 0.17441860465112313
        },
        {
          "name": "F2",
          "midi": 41,
          "time": 179.83720930229742,
          "velocity": 0.5196850393700787,
          "duration": 0.011627906976741542
        },
        {
          "name": "E3",
          "midi": 52,
          "time": 179.84883720927417,
          "velocity": 0.5511811023622047,
          "duration": 0.034883720930224626
        },
        {
          "name": "A#6",
          "midi": 94,
          "time": 179.87209302322765,
          "velocity": 0.3228346456692913,
          "duration": 0.1627906976743816
        },
        {
          "name": "F7",
          "midi": 101,
          "time": 179.87209302322765,
          "velocity": 0.18110236220472442,
          "duration": 0.11627906976741542
        },
        {
          "name": "B3",
          "midi": 59,
          "time": 179.8837209302044,
          "velocity": 0.29133858267716534,
          "duration": 0.09302325581393234
        },
        {
          "name": "D#3",
          "midi": 51,
          "time": 179.89534883718113,
          "velocity": 0.5354330708661418,
          "duration": 0.011627906976741542
        },
        {
          "name": "E3",
          "midi": 52,
          "time": 179.90697674415787,
          "velocity": 0.5275590551181102,
          "duration": 0.011627906976741542
        },
        {
          "name": "F3",
          "midi": 53,
          "time": 179.91860465113461,
          "velocity": 0.5196850393700787,
          "duration": 0.011627906976741542
        },
        {
          "name": "E3",
          "midi": 52,
          "time": 179.93023255811136,
          "velocity": 0.5039370078740157,
          "duration": 0.034883720930224626
        },
        {
          "name": "C7",
          "midi": 96,
          "time": 179.9418604650881,
          "velocity": 0.11023622047244094,
          "duration": 0.034883720930224626
        },
        {
          "name": "D7",
          "midi": 98,
          "time": 179.9418604650881,
          "velocity": 0.25984251968503935,
          "duration": 0.15116279069764005
        },
        {
          "name": "E2",
          "midi": 40,
          "time": 179.96511627904158,
          "velocity": 0.5354330708661418,
          "duration": 0.011627906976741542
        },
        {
          "name": "G2",
          "midi": 43,
          "time": 179.97674418601832,
          "velocity": 0.5433070866141733,
          "duration": 0.011627906976741542
        },
        {
          "name": "E7",
          "midi": 100,
          "time": 179.97674418601832,
          "velocity": 0.1732283464566929,
          "duration": 0.0813953488371908
        },
        {
          "name": "G4",
          "midi": 67,
          "time": 179.98837209299506,
          "velocity": 0.33070866141732286,
          "duration": 0.1395348837208985
        },
        {
          "name": "A5",
          "midi": 81,
          "time": 179.98837209299506,
          "velocity": 0.25984251968503935,
          "duration": 0.24418604651157239
        },
        {
          "name": "B6",
          "midi": 95,
          "time": 179.98837209299506,
          "velocity": 0.2992125984251969,
          "duration": 0.09302325581393234
        },
        {
          "name": "C#7",
          "midi": 97,
          "time": 179.9999999999718,
          "velocity": 0.25984251968503935,
          "duration": 0.48837209302314477
        },
        {
          "name": "F#7",
          "midi": 102,
          "time": 179.9999999999718,
          "velocity": 0.1889763779527559,
          "duration": 0.1395348837208985
        },
        {
          "name": "D#7",
          "midi": 99,
          "time": 180.01162790694855,
          "velocity": 0.09448818897637795,
          "duration": 0.11627906976741542
        },
        {
          "name": "F#5",
          "midi": 78,
          "time": 180.0232558139253,
          "velocity": 0.11023622047244094,
          "duration": 0.034883720930224626
        },
        {
          "name": "F#2",
          "midi": 42,
          "time": 180.03488372090203,
          "velocity": 0.47244094488188976,
          "duration": 0.034883720930224626
        },
        {
          "name": "D#6",
          "midi": 87,
          "time": 180.04651162787877,
          "velocity": 0.11811023622047244,
          "duration": 0.1627906976743816
        },
        {
          "name": "F7",
          "midi": 101,
          "time": 180.04651162787877,
          "velocity": 0.13385826771653545,
          "duration": 0.1627906976743816
        },
        {
          "name": "B4",
          "midi": 71,
          "time": 180.0581395348555,
          "velocity": 0.25984251968503935,
          "duration": 0.0813953488371908
        },
        {
          "name": "A6",
          "midi": 93,
          "time": 180.0581395348555,
          "velocity": 0.29133858267716534,
          "duration": 0.6511627906975264
        },
        {
          "name": "C7",
          "midi": 96,
          "time": 180.0581395348555,
          "velocity": 0.07874015748031496,
          "duration": 0.034883720930224626
        },
        {
          "name": "A#2",
          "midi": 46,
          "time": 180.081395348809,
          "velocity": 0.33858267716535434,
          "duration": 0.023255813953483084
        },
        {
          "name": "B3",
          "midi": 59,
          "time": 180.09302325578574,
          "velocity": 0.2677165354330709,
          "duration": 0.09302325581393234
        },
        {
          "name": "F3",
          "midi": 53,
          "time": 180.11627906973922,
          "velocity": 0.4015748031496063,
          "duration": 0.023255813953483084
        },
        {
          "name": "F#6",
          "midi": 90,
          "time": 180.11627906973922,
          "velocity": 0.07086614173228346,
          "duration": 0.06976744186044925
        },
        {
          "name": "A#6",
          "midi": 94,
          "time": 180.12790697671596,
          "velocity": 0.14960629921259844,
          "duration": 0.05813953488370771
        },
        {
          "name": "F2",
          "midi": 41,
          "time": 180.1395348836927,
          "velocity": 0.5118110236220472,
          "duration": 0.023255813953483084
        },
        {
          "name": "G4",
          "midi": 67,
          "time": 180.1395348836927,
          "velocity": 0.41732283464566927,
          "duration": 0.279069767441797
        },
        {
          "name": "B6",
          "midi": 95,
          "time": 180.1395348836927,
          "velocity": 0.30708661417322836,
          "duration": 0.5813953488370771
        },
        {
          "name": "D7",
          "midi": 98,
          "time": 180.1395348836927,
          "velocity": 0.2047244094488189,
          "duration": 0.034883720930224626
        },
        {
          "name": "E7",
          "midi": 100,
          "time": 180.15116279066945,
          "velocity": 0.12598425196850394,
          "duration": 0.10465116279067388
        },
        {
          "name": "E2",
          "midi": 40,
          "time": 180.1627906976462,
          "velocity": 0.4094488188976378,
          "duration": 0.023255813953483084
        },
        {
          "name": "F#5",
          "midi": 78,
          "time": 180.1976744185764,
          "velocity": 0.3543307086614173,
          "duration": 0.0813953488371908
        },
        {
          "name": "A#6",
          "midi": 94,
          "time": 180.1976744185764,
          "velocity": 0.13385826771653545,
          "duration": 0.1395348837208985
        },
        {
          "name": "G#2",
          "midi": 44,
          "time": 180.20930232555315,
          "velocity": 0.5196850393700787,
          "duration": 0.011627906976741542
        },
        {
          "name": "B4",
          "midi": 71,
          "time": 180.20930232555315,
          "velocity": 0.28346456692913385,
          "duration": 0.12790697674415696
        },
        {
          "name": "E6",
          "midi": 88,
          "time": 180.20930232555315,
          "velocity": 0.2204724409448819,
          "duration": 0.0813953488371908
        },
        {
          "name": "G6",
          "midi": 91,
          "time": 180.20930232555315,
          "velocity": 0.14173228346456693,
          "duration": 0.0813953488371908
        },
        {
          "name": "D3",
          "midi": 50,
          "time": 180.2209302325299,
          "velocity": 0.5748031496062992,
          "duration": 0.011627906976741542
        },
        {
          "name": "E5",
          "midi": 76,
          "time": 180.2209302325299,
          "velocity": 0.2992125984251969,
          "duration": 0.18604651162786467
        },
        {
          "name": "D7",
          "midi": 98,
          "time": 180.2209302325299,
          "velocity": 0.18110236220472442,
          "duration": 0.06976744186044925
        },
        {
          "name": "E3",
          "midi": 52,
          "time": 180.23255813950664,
          "velocity": 0.6062992125984252,
          "duration": 0.12790697674415696
        },
        {
          "name": "B3",
          "midi": 59,
          "time": 180.23255813950664,
          "velocity": 0.44881889763779526,
          "duration": 0.15116279069764005
        },
        {
          "name": "F2",
          "midi": 41,
          "time": 180.2790697674136,
          "velocity": 0.5354330708661418,
          "duration": 0.011627906976741542
        },
        {
          "name": "E2",
          "midi": 40,
          "time": 180.29069767439034,
          "velocity": 0.5354330708661418,
          "duration": 0.023255813953483084
        },
        {
          "name": "D#7",
          "midi": 99,
          "time": 180.29069767439034,
          "velocity": 0.2440944881889764,
          "duration": 0.20930232558134776
        },
        {
          "name": "E7",
          "midi": 100,
          "time": 180.29069767439034,
          "velocity": 0.1889763779527559,
          "duration": 0.12790697674415696
        },
        {
          "name": "G7",
          "midi": 103,
          "time": 180.29069767439034,
          "velocity": 0.1968503937007874,
          "duration": 0.20930232558134776
        },
        {
          "name": "B5",
          "midi": 83,
          "time": 180.3372093022973,
          "velocity": 0.12598425196850394,
          "duration": 0.0813953488371908
        },
        {
          "name": "F#5",
          "midi": 78,
          "time": 180.34883720927405,
          "velocity": 0.5196850393700787,
          "duration": 0.5348837209301109
        },
        {
          "name": "E3",
          "midi": 52,
          "time": 180.37209302322754,
          "velocity": 0.29133858267716534,
          "duration": 0.034883720930224626
        },
        {
          "name": "F2",
          "midi": 41,
          "time": 180.38372093020428,
          "velocity": 0.25984251968503935,
          "duration": 0.034883720930224626
        },
        {
          "name": "C4",
          "midi": 60,
          "time": 180.40697674415776,
          "velocity": 0.49606299212598426,
          "duration": 0.023255813953483084
        },
        {
          "name": "D#5",
          "midi": 75,
          "time": 180.40697674415776,
          "velocity": 0.33858267716535434,
          "duration": 0.0813953488371908
        },
        {
          "name": "C3",
          "midi": 48,
          "time": 180.4186046511345,
          "velocity": 0.5590551181102362,
          "duration": 0.023255813953483084
        },
        {
          "name": "F#4",
          "midi": 66,
          "time": 180.4186046511345,
          "velocity": 0.4645669291338583,
          "duration": 0.023255813953483084
        },
        {
          "name": "A#3",
          "midi": 58,
          "time": 180.43023255811124,
          "velocity": 0.47244094488188976,
          "duration": 0.023255813953483084
        },
        {
          "name": "A#6",
          "midi": 94,
          "time": 180.43023255811124,
          "velocity": 0.2283464566929134,
          "duration": 0.06976744186044925
        },
        {
          "name": "D7",
          "midi": 98,
          "time": 180.43023255811124,
          "velocity": 0.2047244094488189,
          "duration": 0.10465116279067388
        },
        {
          "name": "D3",
          "midi": 50,
          "time": 180.44186046508798,
          "velocity": 0.5433070866141733,
          "duration": 0.011627906976741542
        },
        {
          "name": "G#4",
          "midi": 68,
          "time": 180.44186046508798,
          "velocity": 0.28346456692913385,
          "duration": 0.023255813953483084
        },
        {
          "name": "B4",
          "midi": 71,
          "time": 180.44186046508798,
          "velocity": 0.3779527559055118,
          "duration": 0.406976744185954
        },
        {
          "name": "E7",
          "midi": 100,
          "time": 180.44186046508798,
          "velocity": 0.28346456692913385,
          "duration": 0.34883720930224626
        },
        {
          "name": "E2",
          "midi": 40,
          "time": 180.45348837206473,
          "velocity": 0.4409448818897638,
          "duration": 0.023255813953483084
        },
        {
          "name": "E3",
          "midi": 52,
          "time": 180.45348837206473,
          "velocity": 0.48031496062992124,
          "duration": 0.023255813953483084
        },
        {
          "name": "F#4",
          "midi": 66,
          "time": 180.45348837206473,
          "velocity": 0.29133858267716534,
          "duration": 0.034883720930224626
        },
        {
          "name": "F2",
          "midi": 41,
          "time": 180.4767441860182,
          "velocity": 0.47244094488188976,
          "duration": 0.023255813953483084
        },
        {
          "name": "D#3",
          "midi": 51,
          "time": 180.4767441860182,
          "velocity": 0.5118110236220472,
          "duration": 0.011627906976741542
        },
        {
          "name": "E3",
          "midi": 52,
          "time": 180.48837209299495,
          "velocity": 0.5275590551181102,
          "duration": 0.034883720930224626
        },
        {
          "name": "C4",
          "midi": 60,
          "time": 180.48837209299495,
          "velocity": 0.4251968503937008,
          "duration": 0.023255813953483084
        },
        {
          "name": "E5",
          "midi": 76,
          "time": 180.48837209299495,
          "velocity": 0.3779527559055118,
          "duration": 0.1627906976743816
        },
        {
          "name": "E2",
          "midi": 40,
          "time": 180.4999999999717,
          "velocity": 0.49606299212598426,
          "duration": 0.023255813953483084
        },
        {
          "name": "B3",
          "midi": 59,
          "time": 180.51162790694843,
          "velocity": 0.41732283464566927,
          "duration": 0.034883720930224626
        },
        {
          "name": "F4",
          "midi": 65,
          "time": 180.51162790694843,
          "velocity": 0.23622047244094488,
          "duration": 0.023255813953483084
        },
        {
          "name": "F3",
          "midi": 53,
          "time": 180.52325581392518,
          "velocity": 0.5354330708661418,
          "duration": 0.011627906976741542
        },
        {
          "name": "D5",
          "midi": 74,
          "time": 180.52325581392518,
          "velocity": 0.2047244094488189,
          "duration": 0.05813953488370771
        },
        {
          "name": "B2",
          "midi": 47,
          "time": 180.53488372090192,
          "velocity": 0.5118110236220472,
          "duration": 0.011627906976741542
        },
        {
          "name": "E3",
          "midi": 52,
          "time": 180.53488372090192,
          "velocity": 0.5511811023622047,
          "duration": 0.011627906976741542
        },
        {
          "name": "C#7",
          "midi": 97,
          "time": 180.53488372090192,
          "velocity": 0.33858267716535434,
          "duration": 0.8255813953486495
        },
        {
          "name": "F3",
          "midi": 53,
          "time": 180.54651162787866,
          "velocity": 0.5511811023622047,
          "duration": 0.011627906976741542
        },
        {
          "name": "A3",
          "midi": 57,
          "time": 180.54651162787866,
          "velocity": 0.30708661417322836,
          "duration": 0.023255813953483084
        },
        {
          "name": "E4",
          "midi": 64,
          "time": 180.54651162787866,
          "velocity": 0.2677165354330709,
          "duration": 0.06976744186044925
        },
        {
          "name": "E3",
          "midi": 52,
          "time": 180.5581395348554,
          "velocity": 0.5669291338582677,
          "duration": 0.034883720930224626
        },
        {
          "name": "B2",
          "midi": 47,
          "time": 180.59302325578562,
          "velocity": 0.5511811023622047,
          "duration": 0.05813953488370771
        },
        {
          "name": "F#4",
          "midi": 66,
          "time": 180.60465116276237,
          "velocity": 0.2992125984251969,
          "duration": 0.04651162790696617
        },
        {
          "name": "A4",
          "midi": 69,
          "time": 180.60465116276237,
          "velocity": 0.2440944881889764,
          "duration": 0.034883720930224626
        },
        {
          "name": "G7",
          "midi": 103,
          "time": 180.62790697671585,
          "velocity": 0.14173228346456693,
          "duration": 0.05813953488370771
        },
        {
          "name": "F2",
          "midi": 41,
          "time": 180.6395348836926,
          "velocity": 0.5669291338582677,
          "duration": 0.023255813953483084
        },
        {
          "name": "D7",
          "midi": 98,
          "time": 180.6395348836926,
          "velocity": 0.14960629921259844,
          "duration": 0.11627906976741542
        },
        {
          "name": "D#7",
          "midi": 99,
          "time": 180.6395348836926,
          "velocity": 0.08661417322834646,
          "duration": 0.05813953488370771
        },
        {
          "name": "A#3",
          "midi": 58,
          "time": 180.65116279066933,
          "velocity": 0.33070866141732286,
          "duration": 0.04651162790696617
        },
        {
          "name": "G4",
          "midi": 67,
          "time": 180.65116279066933,
          "velocity": 0.2992125984251969,
          "duration": 0.034883720930224626
        },
        {
          "name": "D6",
          "midi": 86,
          "time": 180.65116279066933,
          "velocity": 0.16535433070866143,
          "duration": 0.05813953488370771
        },
        {
          "name": "G#2",
          "midi": 44,
          "time": 180.66279069764607,
          "velocity": 0.5984251968503937,
          "duration": 0.011627906976741542
        },
        {
          "name": "F2",
          "midi": 41,
          "time": 180.67441860462282,
          "velocity": 0.5590551181102362,
          "duration": 0.011627906976741542
        },
        {
          "name": "D5",
          "midi": 74,
          "time": 180.67441860462282,
          "velocity": 0.11023622047244094,
          "duration": 0.05813953488370771
        },
        {
          "name": "D#6",
          "midi": 87,
          "time": 180.67441860462282,
          "velocity": 0.11023622047244094,
          "duration": 0.1627906976743816
        },
        {
          "name": "E2",
          "midi": 40,
          "time": 180.68604651159956,
          "velocity": 0.5354330708661418,
          "duration": 0.023255813953483084
        },
        {
          "name": "A4",
          "midi": 69,
          "time": 180.68604651159956,
          "velocity": 0.25984251968503935,
          "duration": 0.023255813953483084
        },
        {
          "name": "C7",
          "midi": 96,
          "time": 180.68604651159956,
          "velocity": 0.07086614173228346,
          "duration": 0.04651162790696617
        },
        {
          "name": "F7",
          "midi": 101,
          "time": 180.68604651159956,
          "velocity": 0.14173228346456693,
          "duration": 0.17441860465112313
        },
        {
          "name": "B2",
          "midi": 47,
          "time": 180.6976744185763,
          "velocity": 0.5118110236220472,
          "duration": 0.011627906976741542
        },
        {
          "name": "G4",
          "midi": 67,
          "time": 180.6976744185763,
          "velocity": 0.1968503937007874,
          "duration": 0.09302325581393234
        },
        {
          "name": "C3",
          "midi": 48,
          "time": 180.70930232555304,
          "velocity": 0.5433070866141733,
          "duration": 0.011627906976741542
        },
        {
          "name": "G#2",
          "midi": 44,
          "time": 180.72093023252978,
          "velocity": 0.5196850393700787,
          "duration": 0.011627906976741542
        },
        {
          "name": "D4",
          "midi": 62,
          "time": 180.72093023252978,
          "velocity": 0.15748031496062992,
          "duration": 0.05813953488370771
        },
        {
          "name": "A4",
          "midi": 69,
          "time": 180.72093023252978,
          "velocity": 0.18110236220472442,
          "duration": 0.034883720930224626
        },
        {
          "name": "D6",
          "midi": 86,
          "time": 180.72093023252978,
          "velocity": 0.11023622047244094,
          "duration": 0.12790697674415696
        },
        {
          "name": "F3",
          "midi": 53,
          "time": 180.73255813950652,
          "velocity": 0.36220472440944884,
          "duration": 0.023255813953483084
        },
        {
          "name": "A#3",
          "midi": 58,
          "time": 180.73255813950652,
          "velocity": 0.2283464566929134,
          "duration": 0.023255813953483084
        },
        {
          "name": "B6",
          "midi": 95,
          "time": 180.74418604648326,
          "velocity": 0.15748031496062992,
          "duration": 0.05813953488370771
        },
        {
          "name": "E5",
          "midi": 76,
          "time": 180.75581395346,
          "velocity": 0.10236220472440945,
          "duration": 0.034883720930224626
        },
        {
          "name": "A6",
          "midi": 93,
          "time": 180.75581395346,
          "velocity": 0.13385826771653545,
          "duration": 0.04651162790696617
        },
        {
          "name": "E2",
          "midi": 40,
          "time": 180.76744186043675,
          "velocity": 0.5118110236220472,
          "duration": 0.011627906976741542
        },
        {
          "name": "A#3",
          "midi": 58,
          "time": 180.76744186043675,
          "velocity": 0.23622047244094488,
          "duration": 0.023255813953483084
        },
        {
          "name": "D7",
          "midi": 98,
          "time": 180.76744186043675,
          "velocity": 0.1968503937007874,
          "duration": 0.0813953488371908
        },
        {
          "name": "F2",
          "midi": 41,
          "time": 180.7790697674135,
          "velocity": 0.5433070866141733,
          "duration": 0.011627906976741542
        },
        {
          "name": "E2",
          "midi": 40,
          "time": 180.79069767439023,
          "velocity": 0.5196850393700787,
          "duration": 0.023255813953483084
        },
        {
          "name": "C4",
          "midi": 60,
          "time": 180.79069767439023,
          "velocity": 0.1968503937007874,
          "duration": 0.04651162790696617
        },
        {
          "name": "A4",
          "midi": 69,
          "time": 180.79069767439023,
          "velocity": 0.25196850393700787,
          "duration": 0.034883720930224626
        },
        {
          "name": "D#7",
          "midi": 99,
          "time": 180.79069767439023,
          "velocity": 0.13385826771653545,
          "duration": 0.04651162790696617
        },
        {
          "name": "G7",
          "midi": 103,
          "time": 180.79069767439023,
          "velocity": 0.13385826771653545,
          "duration": 0.06976744186044925
        },
        {
          "name": "E3",
          "midi": 52,
          "time": 180.80232558136697,
          "velocity": 0.5354330708661418,
          "duration": 0.11627906976741542
        },
        {
          "name": "F2",
          "midi": 41,
          "time": 180.8139534883437,
          "velocity": 0.4881889763779528,
          "duration": 0.034883720930224626
        },
        {
          "name": "D5",
          "midi": 74,
          "time": 180.8139534883437,
          "velocity": 0.07874015748031496,
          "duration": 0.034883720930224626
        },
        {
          "name": "B6",
          "midi": 95,
          "time": 180.82558139532046,
          "velocity": 0.23622047244094488,
          "duration": 0.4186046511626955
        },
        {
          "name": "G4",
          "midi": 67,
          "time": 180.8372093022972,
          "velocity": 0.33858267716535434,
          "duration": 0.2558139534883139
        },
        {
          "name": "A6",
          "midi": 93,
          "time": 180.84883720927394,
          "velocity": 0.11811023622047244,
          "duration": 0.034883720930224626
        },
        {
          "name": "D#7",
          "midi": 99,
          "time": 180.84883720927394,
          "velocity": 0.31496062992125984,
          "duration": 0.279069767441797
        },
        {
          "name": "F2",
          "midi": 41,
          "time": 180.86046511625068,
          "velocity": 0.5118110236220472,
          "duration": 0.023255813953483084
        },
        {
          "name": "B3",
          "midi": 59,
          "time": 180.86046511625068,
          "velocity": 0.2992125984251969,
          "duration": 0.034883720930224626
        },
        {
          "name": "G6",
          "midi": 91,
          "time": 180.86046511625068,
          "velocity": 0.44881889763779526,
          "duration": 0.29069767441853855
        },
        {
          "name": "D7",
          "midi": 98,
          "time": 180.86046511625068,
          "velocity": 0.31496062992125984,
          "duration": 0.4418604651161786
        },
        {
          "name": "E7",
          "midi": 100,
          "time": 180.86046511625068,
          "velocity": 0.2047244094488189,
          "duration": 0.15116279069764005
        },
        {
          "name": "B4",
          "midi": 71,
          "time": 180.87209302322742,
          "velocity": 0.3779527559055118,
          "duration": 0.18604651162786467
        },
        {
          "name": "G5",
          "midi": 79,
          "time": 180.87209302322742,
          "velocity": 0.4566929133858268,
          "duration": 0.20930232558134776
        },
        {
          "name": "C7",
          "midi": 96,
          "time": 180.87209302322742,
          "velocity": 0.11811023622047244,
          "duration": 0.034883720930224626
        },
        {
          "name": "F7",
          "midi": 101,
          "time": 180.87209302322742,
          "velocity": 0.25196850393700787,
          "duration": 0.2558139534883139
        },
        {
          "name": "F2",
          "midi": 41,
          "time": 180.90697674415765,
          "velocity": 0.48031496062992124,
          "duration": 0.023255813953483084
        },
        {
          "name": "D6",
          "midi": 86,
          "time": 180.90697674415765,
          "velocity": 0.13385826771653545,
          "duration": 0.06976744186044925
        },
        {
          "name": "G#6",
          "midi": 92,
          "time": 180.90697674415765,
          "velocity": 0.14960629921259844,
          "duration": 0.10465116279067388
        },
        {
          "name": "D#3",
          "midi": 51,
          "time": 180.93023255811113,
          "velocity": 0.33858267716535434,
          "duration": 0.023255813953483084
        },
        {
          "name": "D5",
          "midi": 74,
          "time": 180.94186046508787,
          "velocity": 0.07874015748031496,
          "duration": 0.05813953488370771
        },
        {
          "name": "C3",
          "midi": 48,
          "time": 180.9534883720646,
          "velocity": 0.2992125984251969,
          "duration": 0.023255813953483084
        },
        {
          "name": "A6",
          "midi": 93,
          "time": 180.9534883720646,
          "velocity": 0.10236220472440945,
          "duration": 0.06976744186044925
        },
        {
          "name": "F2",
          "midi": 41,
          "time": 180.96511627904135,
          "velocity": 0.36220472440944884,
          "duration": 0.034883720930224626
        },
        {
          "name": "D#3",
          "midi": 51,
          "time": 180.9767441860181,
          "velocity": 0.3464566929133858,
          "duration": 0.023255813953483084
        },
        {
          "name": "E2",
          "midi": 40,
          "time": 180.99999999997158,
          "velocity": 0.33858267716535434,
          "duration": 0.034883720930224626
        },
        {
          "name": "E3",
          "midi": 52,
          "time": 180.99999999997158,
          "velocity": 0.3700787401574803,
          "duration": 0.023255813953483084
        },
        {
          "name": "F#5",
          "midi": 78,
          "time": 181.01162790694832,
          "velocity": 0.2440944881889764,
          "duration": 0.023255813953483084
        },
        {
          "name": "D6",
          "midi": 86,
          "time": 181.01162790694832,
          "velocity": 0.08661417322834646,
          "duration": 0.034883720930224626
        },
        {
          "name": "E3",
          "midi": 52,
          "time": 181.0348837209018,
          "velocity": 0.3464566929133858,
          "duration": 0.04651162790696617
        },
        {
          "name": "F2",
          "midi": 41,
          "time": 181.0581395348553,
          "velocity": 0.2440944881889764,
          "duration": 0.023255813953483084
        },
        {
          "name": "A4",
          "midi": 69,
          "time": 181.0581395348553,
          "velocity": 0.3543307086614173,
          "duration": 0.06976744186044925
        },
        {
          "name": "C#5",
          "midi": 73,
          "time": 181.0581395348553,
          "velocity": 0.16535433070866143,
          "duration": 0.034883720930224626
        },
        {
          "name": "D6",
          "midi": 86,
          "time": 181.0581395348553,
          "velocity": 0.08661417322834646,
          "duration": 0.05813953488370771
        },
        {
          "name": "E6",
          "midi": 88,
          "time": 181.0581395348553,
          "velocity": 0.16535433070866143,
          "duration": 0.1627906976743816
        },
        {
          "name": "A6",
          "midi": 93,
          "time": 181.0581395348553,
          "velocity": 0.44881889763779526,
          "duration": 0.3604651162789878
        },
        {
          "name": "A#6",
          "midi": 94,
          "time": 181.0581395348553,
          "velocity": 0.14173228346456693,
          "duration": 0.04651162790696617
        },
        {
          "name": "E7",
          "midi": 100,
          "time": 181.0581395348553,
          "velocity": 0.2992125984251969,
          "duration": 0.26744186046505547
        },
        {
          "name": "E5",
          "midi": 76,
          "time": 181.06976744183203,
          "velocity": 0.2204724409448819,
          "duration": 0.05813953488370771
        },
        {
          "name": "F#5",
          "midi": 78,
          "time": 181.06976744183203,
          "velocity": 0.3228346456692913,
          "duration": 0.31395348837202164
        },
        {
          "name": "A5",
          "midi": 81,
          "time": 181.06976744183203,
          "velocity": 0.4094488188976378,
          "duration": 0.29069767441853855
        },
        {
          "name": "G#2",
          "midi": 44,
          "time": 181.08139534880877,
          "velocity": 0.3464566929133858,
          "duration": 0.023255813953483084
        },
        {
          "name": "F3",
          "midi": 53,
          "time": 181.08139534880877,
          "velocity": 0.36220472440944884,
          "duration": 0.023255813953483084
        },
        {
          "name": "F#4",
          "midi": 66,
          "time": 181.0930232557855,
          "velocity": 0.33070866141732286,
          "duration": 0.20930232558134776
        },
        {
          "name": "B4",
          "midi": 71,
          "time": 181.0930232557855,
          "velocity": 0.15748031496062992,
          "duration": 0.06976744186044925
        },
        {
          "name": "D5",
          "midi": 74,
          "time": 181.0930232557855,
          "velocity": 0.1732283464566929,
          "duration": 0.034883720930224626
        },
        {
          "name": "C7",
          "midi": 96,
          "time": 181.10465116276225,
          "velocity": 0.13385826771653545,
          "duration": 0.05813953488370771
        },
        {
          "name": "G#2",
          "midi": 44,
          "time": 181.116279069739,
          "velocity": 0.49606299212598426,
          "duration": 0.023255813953483084
        },
        {
          "name": "A3",
          "midi": 57,
          "time": 181.13953488369248,
          "velocity": 0.2440944881889764,
          "duration": 0.1395348837208985
        },
        {
          "name": "D5",
          "midi": 74,
          "time": 181.13953488369248,
          "velocity": 0.14173228346456693,
          "duration": 0.1627906976743816
        },
        {
          "name": "D#7",
          "midi": 99,
          "time": 181.13953488369248,
          "velocity": 0.2125984251968504,
          "duration": 0.20930232558134776
        },
        {
          "name": "D3",
          "midi": 50,
          "time": 181.15116279066922,
          "velocity": 0.4881889763779528,
          "duration": 0.12790697674415696
        },
        {
          "name": "F2",
          "midi": 41,
          "time": 181.16279069764596,
          "velocity": 0.2440944881889764,
          "duration": 0.04651162790696617
        },
        {
          "name": "A4",
          "midi": 69,
          "time": 181.16279069764596,
          "velocity": 0.33070866141732286,
          "duration": 0.1395348837208985
        },
        {
          "name": "C7",
          "midi": 96,
          "time": 181.18604651159944,
          "velocity": 0.07874015748031496,
          "duration": 0.04651162790696617
        },
        {
          "name": "E5",
          "midi": 76,
          "time": 181.19767441857618,
          "velocity": 0.08661417322834646,
          "duration": 0.11627906976741542
        },
        {
          "name": "F7",
          "midi": 101,
          "time": 181.19767441857618,
          "velocity": 0.11811023622047244,
          "duration": 0.05813953488370771
        },
        {
          "name": "G7",
          "midi": 103,
          "time": 181.20930232555293,
          "velocity": 0.1889763779527559,
          "duration": 0.10465116279067388
        },
        {
          "name": "E2",
          "midi": 40,
          "time": 181.24418604648315,
          "velocity": 0.2440944881889764,
          "duration": 0.023255813953483084
        },
        {
          "name": "G6",
          "midi": 91,
          "time": 181.26744186043663,
          "velocity": 0.2125984251968504,
          "duration": 0.0813953488371908
        },
        {
          "name": "A2",
          "midi": 45,
          "time": 181.27906976741338,
          "velocity": 0.5826771653543307,
          "duration": 0.034883720930224626
        },
        {
          "name": "B6",
          "midi": 95,
          "time": 181.27906976741338,
          "velocity": 0.41732283464566927,
          "duration": 0.5813953488370771
        },
        {
          "name": "A#1",
          "midi": 34,
          "time": 181.29069767439012,
          "velocity": 0.5118110236220472,
          "duration": 0.011627906976741542
        },
        {
          "name": "A#3",
          "midi": 58,
          "time": 181.29069767439012,
          "velocity": 0.31496062992125984,
          "duration": 0.023255813953483084
        },
        {
          "name": "B5",
          "midi": 83,
          "time": 181.29069767439012,
          "velocity": 0.14960629921259844,
          "duration": 0.12790697674415696
        },
        {
          "name": "G4",
          "midi": 67,
          "time": 181.30232558136686,
          "velocity": 0.33858267716535434,
          "duration": 0.20930232558134776
        },
        {
          "name": "F7",
          "midi": 101,
          "time": 181.30232558136686,
          "velocity": 0.11811023622047244,
          "duration": 0.04651162790696617
        },
        {
          "name": "G#2",
          "midi": 44,
          "time": 181.3139534883436,
          "velocity": 0.5275590551181102,
          "duration": 0.011627906976741542
        },
        {
          "name": "D4",
          "midi": 62,
          "time": 181.3139534883436,
          "velocity": 0.25196850393700787,
          "duration": 0.023255813953483084
        },
        {
          "name": "D7",
          "midi": 98,
          "time": 181.3139534883436,
          "velocity": 0.18110236220472442,
          "duration": 0.06976744186044925
        },
        {
          "name": "C3",
          "midi": 48,
          "time": 181.32558139532034,
          "velocity": 0.5669291338582677,
          "duration": 0.034883720930224626
        },
        {
          "name": "A4",
          "midi": 69,
          "time": 181.34883720927382,
          "velocity": 0.2125984251968504,
          "duration": 0.034883720930224626
        },
        {
          "name": "C#3",
          "midi": 49,
          "time": 181.36046511625057,
          "velocity": 0.5669291338582677,
          "duration": 0.011627906976741542
        },
        {
          "name": "G3",
          "midi": 55,
          "time": 181.36046511625057,
          "velocity": 0.44881889763779526,
          "duration": 0.0813953488371908
        },
        {
          "name": "C3",
          "midi": 48,
          "time": 181.3720930232273,
          "velocity": 0.5590551181102362,
          "duration": 0.011627906976741542
        },
        {
          "name": "C#3",
          "midi": 49,
          "time": 181.38372093020405,
          "velocity": 0.5590551181102362,
          "duration": 0.011627906976741542
        },
        {
          "name": "G6",
          "midi": 91,
          "time": 181.38372093020405,
          "velocity": 0.3228346456692913,
          "duration": 0.837209302325391
        },
        {
          "name": "D#7",
          "midi": 99,
          "time": 181.38372093020405,
          "velocity": 0.16535433070866143,
          "duration": 0.12790697674415696
        },
        {
          "name": "C3",
          "midi": 48,
          "time": 181.3953488371808,
          "velocity": 0.5669291338582677,
          "duration": 0.04651162790696617
        },
        {
          "name": "F#5",
          "midi": 78,
          "time": 181.40697674415753,
          "velocity": 0.1889763779527559,
          "duration": 0.05813953488370771
        },
        {
          "name": "A5",
          "midi": 81,
          "time": 181.43023255811102,
          "velocity": 0.12598425196850394,
          "duration": 0.04651162790696617
        },
        {
          "name": "A6",
          "midi": 93,
          "time": 181.43023255811102,
          "velocity": 0.2125984251968504,
          "duration": 0.24418604651157239
        },
        {
          "name": "C4",
          "midi": 60,
          "time": 181.4534883720645,
          "velocity": 0.18110236220472442,
          "duration": 0.034883720930224626
        },
        {
          "name": "E4",
          "midi": 64,
          "time": 181.47674418601798,
          "velocity": 0.3543307086614173,
          "duration": 0.26744186046505547
        },
        {
          "name": "A#3",
          "midi": 58,
          "time": 181.48837209299472,
          "velocity": 0.30708661417322836,
          "duration": 0.023255813953483084
        },
        {
          "name": "A4",
          "midi": 69,
          "time": 181.48837209299472,
          "velocity": 0.2125984251968504,
          "duration": 0.034883720930224626
        },
        {
          "name": "F#5",
          "midi": 78,
          "time": 181.48837209299472,
          "velocity": 0.28346456692913385,
          "duration": 0.18604651162786467
        },
        {
          "name": "B5",
          "midi": 83,
          "time": 181.48837209299472,
          "velocity": 0.25196850393700787,
          "duration": 0.0813953488371908
        },
        {
          "name": "D7",
          "midi": 98,
          "time": 181.48837209299472,
          "velocity": 0.13385826771653545,
          "duration": 0.04651162790696617
        },
        {
          "name": "A2",
          "midi": 45,
          "time": 181.49999999997146,
          "velocity": 0.5826771653543307,
          "duration": 0.034883720930224626
        },
        {
          "name": "D5",
          "midi": 74,
          "time": 181.49999999997146,
          "velocity": 0.2283464566929134,
          "duration": 0.3837209302324709
        },
        {
          "name": "C#7",
          "midi": 97,
          "time": 181.49999999997146,
          "velocity": 0.13385826771653545,
          "duration": 0.034883720930224626
        },
        {
          "name": "F7",
          "midi": 101,
          "time": 181.49999999997146,
          "velocity": 0.08661417322834646,
          "duration": 0.05813953488370771
        },
        {
          "name": "C7",
          "midi": 96,
          "time": 181.5116279069482,
          "velocity": 0.07086614173228346,
          "duration": 0.06976744186044925
        },
        {
          "name": "G4",
          "midi": 67,
          "time": 181.52325581392495,
          "velocity": 0.2755905511811024,
          "duration": 0.11627906976741542
        },
        {
          "name": "A#4",
          "midi": 70,
          "time": 181.52325581392495,
          "velocity": 0.14960629921259844,
          "duration": 0.034883720930224626
        },
        {
          "name": "A5",
          "midi": 81,
          "time": 181.52325581392495,
          "velocity": 0.07874015748031496,
          "duration": 0.034883720930224626
        },
        {
          "name": "B2",
          "midi": 47,
          "time": 181.5348837209017,
          "velocity": 0.5905511811023622,
          "duration": 0.023255813953483084
        },
        {
          "name": "G#3",
          "midi": 56,
          "time": 181.5348837209017,
          "velocity": 0.28346456692913385,
          "duration": 0.023255813953483084
        },
        {
          "name": "C3",
          "midi": 48,
          "time": 181.55813953485517,
          "velocity": 0.5748031496062992,
          "duration": 0.011627906976741542
        },
        {
          "name": "C#3",
          "midi": 49,
          "time": 181.5697674418319,
          "velocity": 0.5669291338582677,
          "duration": 0.011627906976741542
        },
        {
          "name": "C4",
          "midi": 60,
          "time": 181.5697674418319,
          "velocity": 0.23622047244094488,
          "duration": 0.04651162790696617
        },
        {
          "name": "B4",
          "midi": 71,
          "time": 181.5697674418319,
          "velocity": 0.2047244094488189,
          "duration": 0.17441860465112313
        },
        {
          "name": "C3",
          "midi": 48,
          "time": 181.58139534880866,
          "velocity": 0.5748031496062992,
          "duration": 0.023255813953483084
        },
        {
          "name": "G3",
          "midi": 55,
          "time": 181.5930232557854,
          "velocity": 0.4645669291338583,
          "duration": 0.05813953488370771
        },
        {
          "name": "C#3",
          "midi": 49,
          "time": 181.60465116276214,
          "velocity": 0.5826771653543307,
          "duration": 0.011627906976741542
        },
        {
          "name": "B5",
          "midi": 83,
          "time": 181.60465116276214,
          "velocity": 0.2125984251968504,
          "duration": 0.18604651162786467
        },
        {
          "name": "C3",
          "midi": 48,
          "time": 181.61627906973888,
          "velocity": 0.5511811023622047,
          "duration": 0.011627906976741542
        },
        {
          "name": "C#3",
          "midi": 49,
          "time": 181.62790697671562,
          "velocity": 0.5354330708661418,
          "duration": 0.011627906976741542
        },
        {
          "name": "C4",
          "midi": 60,
          "time": 181.62790697671562,
          "velocity": 0.2677165354330709,
          "duration": 0.04651162790696617
        },
        {
          "name": "C3",
          "midi": 48,
          "time": 181.63953488369236,
          "velocity": 0.5826771653543307,
          "duration": 0.034883720930224626
        },
        {
          "name": "A4",
          "midi": 69,
          "time": 181.63953488369236,
          "velocity": 0.1968503937007874,
          "duration": 0.05813953488370771
        },
        {
          "name": "G3",
          "midi": 55,
          "time": 181.66279069764585,
          "velocity": 0.2677165354330709,
          "duration": 0.034883720930224626
        },
        {
          "name": "B2",
          "midi": 47,
          "time": 181.6744186046226,
          "velocity": 0.5118110236220472,
          "duration": 0.023255813953483084
        },
        {
          "name": "G4",
          "midi": 67,
          "time": 181.6744186046226,
          "velocity": 0.5354330708661418,
          "duration": 0.5465116279068525
        },
        {
          "name": "E7",
          "midi": 100,
          "time": 181.6744186046226,
          "velocity": 0.07874015748031496,
          "duration": 0.05813953488370771
        },
        {
          "name": "C#3",
          "midi": 49,
          "time": 181.7093023255528,
          "velocity": 0.4015748031496063,
          "duration": 0.023255813953483084
        },
        {
          "name": "A5",
          "midi": 81,
          "time": 181.7093023255528,
          "velocity": 0.25196850393700787,
          "duration": 0.37209302325572935
        },
        {
          "name": "A#3",
          "midi": 58,
          "time": 181.72093023252955,
          "velocity": 0.23622047244094488,
          "duration": 0.023255813953483084
        },
        {
          "name": "C#7",
          "midi": 97,
          "time": 181.72093023252955,
          "velocity": 0.2125984251968504,
          "duration": 0.29069767441853855
        },
        {
          "name": "D7",
          "midi": 98,
          "time": 181.7325581395063,
          "velocity": 0.2755905511811024,
          "duration": 0.4999999999998863
        },
        {
          "name": "F#6",
          "midi": 90,
          "time": 181.74418604648304,
          "velocity": 0.13385826771653545,
          "duration": 0.3372093023255047
        },
        {
          "name": "G#3",
          "midi": 56,
          "time": 181.75581395345978,
          "velocity": 0.31496062992125984,
          "duration": 0.023255813953483084
        },
        {
          "name": "E4",
          "midi": 64,
          "time": 181.75581395345978,
          "velocity": 0.3228346456692913,
          "duration": 0.20930232558134776
        },
        {
          "name": "C7",
          "midi": 96,
          "time": 181.75581395345978,
          "velocity": 0.07874015748031496,
          "duration": 0.06976744186044925
        },
        {
          "name": "F7",
          "midi": 101,
          "time": 181.75581395345978,
          "velocity": 0.12598425196850394,
          "duration": 0.04651162790696617
        },
        {
          "name": "E2",
          "midi": 40,
          "time": 181.76744186043652,
          "velocity": 0.3858267716535433,
          "duration": 0.034883720930224626
        },
        {
          "name": "G3",
          "midi": 55,
          "time": 181.77906976741326,
          "velocity": 0.31496062992125984,
          "duration": 0.023255813953483084
        },
        {
          "name": "A#4",
          "midi": 70,
          "time": 181.77906976741326,
          "velocity": 0.25984251968503935,
          "duration": 0.1627906976743816
        },
        {
          "name": "C3",
          "midi": 48,
          "time": 181.79069767439,
          "velocity": 0.4015748031496063,
          "duration": 0.023255813953483084
        },
        {
          "name": "D#7",
          "midi": 99,
          "time": 181.79069767439,
          "velocity": 0.11811023622047244,
          "duration": 0.05813953488370771
        },
        {
          "name": "C#3",
          "midi": 49,
          "time": 181.8139534883435,
          "velocity": 0.4330708661417323,
          "duration": 0.023255813953483084
        },
        {
          "name": "C4",
          "midi": 60,
          "time": 181.8139534883435,
          "velocity": 0.41732283464566927,
          "duration": 0.2209302325580893
        },
        {
          "name": "C#2",
          "midi": 37,
          "time": 181.83720930229697,
          "velocity": 0.2992125984251969,
          "duration": 0.023255813953483084
        },
        {
          "name": "C3",
          "midi": 48,
          "time": 181.83720930229697,
          "velocity": 0.4409448818897638,
          "duration": 0.06976744186044925
        },
        {
          "name": "F#5",
          "midi": 78,
          "time": 181.83720930229697,
          "velocity": 0.07086614173228346,
          "duration": 0.04651162790696617
        },
        {
          "name": "G3",
          "midi": 55,
          "time": 181.86046511625045,
          "velocity": 0.3464566929133858,
          "duration": 0.06976744186044925
        },
        {
          "name": "C7",
          "midi": 96,
          "time": 181.86046511625045,
          "velocity": 0.12598425196850394,
          "duration": 0.15116279069764005
        },
        {
          "name": "B6",
          "midi": 95,
          "time": 181.88372093020394,
          "velocity": 0.4251968503937008,
          "duration": 1.3139534883717943
        },
        {
          "name": "C#3",
          "midi": 49,
          "time": 181.90697674415742,
          "velocity": 0.3779527559055118,
          "duration": 0.023255813953483084
        },
        {
          "name": "D#5",
          "midi": 75,
          "time": 181.91860465113416,
          "velocity": 0.2204724409448819,
          "duration": 0.034883720930224626
        },
        {
          "name": "B5",
          "midi": 83,
          "time": 181.91860465113416,
          "velocity": 0.2125984251968504,
          "duration": 0.17441860465112313
        },
        {
          "name": "C3",
          "midi": 48,
          "time": 181.9302325581109,
          "velocity": 0.5118110236220472,
          "duration": 0.011627906976741542
        },
        {
          "name": "E6",
          "midi": 88,
          "time": 181.9302325581109,
          "velocity": 0.2125984251968504,
          "duration": 0.06976744186044925
        },
        {
          "name": "F7",
          "midi": 101,
          "time": 181.9302325581109,
          "velocity": 0.08661417322834646,
          "duration": 0.04651162790696617
        },
        {
          "name": "A2",
          "midi": 45,
          "time": 181.94186046508764,
          "velocity": 0.5669291338582677,
          "duration": 0.023255813953483084
        },
        {
          "name": "D5",
          "midi": 74,
          "time": 181.94186046508764,
          "velocity": 0.13385826771653545,
          "duration": 0.18604651162786467
        },
        {
          "name": "E5",
          "midi": 76,
          "time": 181.94186046508764,
          "velocity": 0.36220472440944884,
          "duration": 0.4186046511626955
        },
        {
          "name": "D#7",
          "midi": 99,
          "time": 181.95348837206438,
          "velocity": 0.11023622047244094,
          "duration": 0.034883720930224626
        },
        {
          "name": "D3",
          "midi": 50,
          "time": 181.9883720929946,
          "velocity": 0.5433070866141733,
          "duration": 0.023255813953483084
        },
        {
          "name": "E4",
          "midi": 64,
          "time": 181.9883720929946,
          "velocity": 0.4409448818897638,
          "duration": 0.19767441860460622
        },
        {
          "name": "G3",
          "midi": 55,
          "time": 181.99999999997135,
          "velocity": 0.48031496062992124,
          "duration": 0.05813953488370771
        },
        {
          "name": "C3",
          "midi": 48,
          "time": 182.0116279069481,
          "velocity": 0.5118110236220472,
          "duration": 0.05813953488370771
        },
        {
          "name": "G#3",
          "midi": 56,
          "time": 182.05813953485506,
          "velocity": 0.2677165354330709,
          "duration": 0.023255813953483084
        },
        {
          "name": "F#7",
          "midi": 102,
          "time": 182.09302325578528,
          "velocity": 0.1889763779527559,
          "duration": 0.9186046511625818
        },
        {
          "name": "F7",
          "midi": 101,
          "time": 182.10465116276202,
          "velocity": 0.09448818897637795,
          "duration": 0.09302325581393234
        },
        {
          "name": "C3",
          "midi": 48,
          "time": 182.11627906973877,
          "velocity": 0.29133858267716534,
          "duration": 0.023255813953483084
        },
        {
          "name": "A#3",
          "midi": 58,
          "time": 182.13953488369225,
          "velocity": 0.5118110236220472,
          "duration": 0.034883720930224626
        },
        {
          "name": "C#6",
          "midi": 85,
          "time": 182.13953488369225,
          "velocity": 0.2992125984251969,
          "duration": 0.034883720930224626
        },
        {
          "name": "D#6",
          "midi": 87,
          "time": 182.13953488369225,
          "velocity": 0.11811023622047244,
          "duration": 0.04651162790696617
        },
        {
          "name": "F#6",
          "midi": 90,
          "time": 182.13953488369225,
          "velocity": 0.12598425196850394,
          "duration": 0.04651162790696617
        },
        {
          "name": "C7",
          "midi": 96,
          "time": 182.13953488369225,
          "velocity": 0.10236220472440945,
          "duration": 0.0813953488371908
        },
        {
          "name": "D#7",
          "midi": 99,
          "time": 182.13953488369225,
          "velocity": 0.14173228346456693,
          "duration": 0.04651162790696617
        },
        {
          "name": "A2",
          "midi": 45,
          "time": 182.151162790669,
          "velocity": 0.5511811023622047,
          "duration": 0.011627906976741542
        },
        {
          "name": "C#5",
          "midi": 73,
          "time": 182.151162790669,
          "velocity": 0.2992125984251969,
          "duration": 0.034883720930224626
        },
        {
          "name": "F#5",
          "midi": 78,
          "time": 182.151162790669,
          "velocity": 0.1889763779527559,
          "duration": 0.034883720930224626
        },
        {
          "name": "B5",
          "midi": 83,
          "time": 182.151162790669,
          "velocity": 0.1968503937007874,
          "duration": 0.29069767441853855
        },
        {
          "name": "C6",
          "midi": 84,
          "time": 182.151162790669,
          "velocity": 0.14173228346456693,
          "duration": 0.034883720930224626
        },
        {
          "name": "G#2",
          "midi": 44,
          "time": 182.16279069764573,
          "velocity": 0.5905511811023622,
          "duration": 0.011627906976741542
        },
        {
          "name": "G#5",
          "midi": 80,
          "time": 182.16279069764573,
          "velocity": 0.14173228346456693,
          "duration": 0.034883720930224626
        },
        {
          "name": "A#2",
          "midi": 46,
          "time": 182.17441860462247,
          "velocity": 0.5590551181102362,
          "duration": 0.011627906976741542
        },
        {
          "name": "D6",
          "midi": 86,
          "time": 182.17441860462247,
          "velocity": 0.23622047244094488,
          "duration": 0.05813953488370771
        },
        {
          "name": "B2",
          "midi": 47,
          "time": 182.18604651159922,
          "velocity": 0.5590551181102362,
          "duration": 0.011627906976741542
        },
        {
          "name": "C5",
          "midi": 72,
          "time": 182.18604651159922,
          "velocity": 0.14960629921259844,
          "duration": 0.04651162790696617
        },
        {
          "name": "C#6",
          "midi": 85,
          "time": 182.18604651159922,
          "velocity": 0.07086614173228346,
          "duration": 0.04651162790696617
        },
        {
          "name": "C3",
          "midi": 48,
          "time": 182.19767441857596,
          "velocity": 0.5748031496062992,
          "duration": 0.011627906976741542
        },
        {
          "name": "F#5",
          "midi": 78,
          "time": 182.19767441857596,
          "velocity": 0.14173228346456693,
          "duration": 0.05813953488370771
        },
        {
          "name": "A5",
          "midi": 81,
          "time": 182.19767441857596,
          "velocity": 0.11811023622047244,
          "duration": 0.034883720930224626
        },
        {
          "name": "C#3",
          "midi": 49,
          "time": 182.2093023255527,
          "velocity": 0.5905511811023622,
          "duration": 0.023255813953483084
        },
        {
          "name": "F4",
          "midi": 65,
          "time": 182.2093023255527,
          "velocity": 0.29133858267716534,
          "duration": 0.034883720930224626
        },
        {
          "name": "A4",
          "midi": 69,
          "time": 182.2093023255527,
          "velocity": 0.18110236220472442,
          "duration": 0.034883720930224626
        },
        {
          "name": "D5",
          "midi": 74,
          "time": 182.2093023255527,
          "velocity": 0.14173228346456693,
          "duration": 0.06976744186044925
        },
        {
          "name": "G3",
          "midi": 55,
          "time": 182.22093023252944,
          "velocity": 0.4645669291338583,
          "duration": 0.11627906976741542
        },
        {
          "name": "C3",
          "midi": 48,
          "time": 182.23255813950618,
          "velocity": 0.5669291338582677,
          "duration": 0.011627906976741542
        },
        {
          "name": "E4",
          "midi": 64,
          "time": 182.23255813950618,
          "velocity": 0.2440944881889764,
          "duration": 0.023255813953483084
        },
        {
          "name": "C#3",
          "midi": 49,
          "time": 182.24418604648292,
          "velocity": 0.5590551181102362,
          "duration": 0.011627906976741542
        },
        {
          "name": "C3",
          "midi": 48,
          "time": 182.25581395345966,
          "velocity": 0.5984251968503937,
          "duration": 0.04651162790696617
        },
        {
          "name": "D7",
          "midi": 98,
          "time": 182.2674418604364,
          "velocity": 0.14960629921259844,
          "duration": 0.04651162790696617
        },
        {
          "name": "A#4",
          "midi": 70,
          "time": 182.27906976741315,
          "velocity": 0.14173228346456693,
          "duration": 0.04651162790696617
        },
        {
          "name": "G6",
          "midi": 91,
          "time": 182.27906976741315,
          "velocity": 0.12598425196850394,
          "duration": 0.05813953488370771
        },
        {
          "name": "F#2",
          "midi": 42,
          "time": 182.30232558136663,
          "velocity": 0.5118110236220472,
          "duration": 0.011627906976741542
        },
        {
          "name": "C#3",
          "midi": 49,
          "time": 182.30232558136663,
          "velocity": 0.5511811023622047,
          "duration": 0.011627906976741542
        },
        {
          "name": "C3",
          "midi": 48,
          "time": 182.31395348834337,
          "velocity": 0.6141732283464567,
          "duration": 0.034883720930224626
        },
        {
          "name": "E4",
          "midi": 64,
          "time": 182.3255813953201,
          "velocity": 0.36220472440944884,
          "duration": 0.06976744186044925
        },
        {
          "name": "F#3",
          "midi": 54,
          "time": 182.33720930229686,
          "velocity": 0.49606299212598426,
          "duration": 0.034883720930224626
        },
        {
          "name": "B2",
          "midi": 47,
          "time": 182.3488372092736,
          "velocity": 0.5590551181102362,
          "duration": 0.011627906976741542
        },
        {
          "name": "F#5",
          "midi": 78,
          "time": 182.3488372092736,
          "velocity": 0.2992125984251969,
          "duration": 0.18604651162786467
        },
        {
          "name": "D7",
          "midi": 98,
          "time": 182.3488372092736,
          "velocity": 0.1732283464566929,
          "duration": 0.0813953488371908
        },
        {
          "name": "C3",
          "midi": 48,
          "time": 182.36046511625034,
          "velocity": 0.5590551181102362,
          "duration": 0.011627906976741542
        },
        {
          "name": "D5",
          "midi": 74,
          "time": 182.36046511625034,
          "velocity": 0.25984251968503935,
          "duration": 0.19767441860460622
        },
        {
          "name": "E6",
          "midi": 88,
          "time": 182.36046511625034,
          "velocity": 0.15748031496062992,
          "duration": 0.05813953488370771
        },
        {
          "name": "B2",
          "midi": 47,
          "time": 182.37209302322708,
          "velocity": 0.5984251968503937,
          "duration": 0.011627906976741542
        },
        {
          "name": "A2",
          "midi": 45,
          "time": 182.38372093020382,
          "velocity": 0.6062992125984252,
          "duration": 0.011627906976741542
        },
        {
          "name": "G6",
          "midi": 91,
          "time": 182.38372093020382,
          "velocity": 0.12598425196850394,
          "duration": 0.12790697674415696
        },
        {
          "name": "C#7",
          "midi": 97,
          "time": 182.38372093020382,
          "velocity": 0.2283464566929134,
          "duration": 0.4186046511626955
        },
        {
          "name": "B2",
          "midi": 47,
          "time": 182.39534883718056,
          "velocity": 0.5826771653543307,
          "duration": 0.011627906976741542
        },
        {
          "name": "G3",
          "midi": 55,
          "time": 182.39534883718056,
          "velocity": 0.4015748031496063,
          "duration": 0.09302325581393234
        },
        {
          "name": "C3",
          "midi": 48,
          "time": 182.4069767441573,
          "velocity": 0.5826771653543307,
          "duration": 0.011627906976741542
        },
        {
          "name": "E4",
          "midi": 64,
          "time": 182.4069767441573,
          "velocity": 0.2992125984251969,
          "duration": 0.26744186046505547
        },
        {
          "name": "A#4",
          "midi": 70,
          "time": 182.4069767441573,
          "velocity": 0.2204724409448819,
          "duration": 0.2209302325580893
        },
        {
          "name": "B2",
          "midi": 47,
          "time": 182.41860465113405,
          "velocity": 0.5275590551181102,
          "duration": 0.011627906976741542
        },
        {
          "name": "D#7",
          "midi": 99,
          "time": 182.4302325581108,
          "velocity": 0.11811023622047244,
          "duration": 0.05813953488370771
        },
        {
          "name": "C2",
          "midi": 36,
          "time": 182.44186046508753,
          "velocity": 0.4409448818897638,
          "duration": 0.04651162790696617
        },
        {
          "name": "D#6",
          "midi": 87,
          "time": 182.44186046508753,
          "velocity": 0.08661417322834646,
          "duration": 0.034883720930224626
        },
        {
          "name": "C3",
          "midi": 48,
          "time": 182.465116279041,
          "velocity": 0.4566929133858268,
          "duration": 0.05813953488370771
        },
        {
          "name": "B5",
          "midi": 83,
          "time": 182.465116279041,
          "velocity": 0.11811023622047244,
          "duration": 0.17441860465112313
        },
        {
          "name": "D7",
          "midi": 98,
          "time": 182.465116279041,
          "velocity": 0.2283464566929134,
          "duration": 0.09302325581393234
        },
        {
          "name": "F7",
          "midi": 101,
          "time": 182.465116279041,
          "velocity": 0.14173228346456693,
          "duration": 0.04651162790696617
        },
        {
          "name": "C7",
          "midi": 96,
          "time": 182.4883720929945,
          "velocity": 0.2283464566929134,
          "duration": 0.4651162790696617
        },
        {
          "name": "C3",
          "midi": 48,
          "time": 182.53488372090146,
          "velocity": 0.47244094488188976,
          "duration": 0.05813953488370771
        },
        {
          "name": "G3",
          "midi": 55,
          "time": 182.53488372090146,
          "velocity": 0.2755905511811024,
          "duration": 0.023255813953483084
        },
        {
          "name": "G7",
          "midi": 103,
          "time": 182.53488372090146,
          "velocity": 0.14960629921259844,
          "duration": 0.0813953488371908
        },
        {
          "name": "G#3",
          "midi": 56,
          "time": 182.55813953485494,
          "velocity": 0.25984251968503935,
          "duration": 0.023255813953483084
        },
        {
          "name": "F#5",
          "midi": 78,
          "time": 182.5697674418317,
          "velocity": 0.14173228346456693,
          "duration": 0.04651162790696617
        },
        {
          "name": "A5",
          "midi": 81,
          "time": 182.5697674418317,
          "velocity": 0.28346456692913385,
          "duration": 0.26744186046505547
        },
        {
          "name": "D#7",
          "midi": 99,
          "time": 182.5697674418317,
          "velocity": 0.10236220472440945,
          "duration": 0.034883720930224626
        },
        {
          "name": "C#2",
          "midi": 37,
          "time": 182.58139534880843,
          "velocity": 0.3464566929133858,
          "duration": 0.023255813953483084
        },
        {
          "name": "D5",
          "midi": 74,
          "time": 182.58139534880843,
          "velocity": 0.1968503937007874,
          "duration": 0.19767441860460622
        },
        {
          "name": "D7",
          "midi": 98,
          "time": 182.58139534880843,
          "velocity": 0.28346456692913385,
          "duration": 0.4651162790696617
        },
        {
          "name": "F7",
          "midi": 101,
          "time": 182.58139534880843,
          "velocity": 0.2125984251968504,
          "duration": 0.24418604651157239
        },
        {
          "name": "G3",
          "midi": 55,
          "time": 182.6046511627619,
          "velocity": 0.3543307086614173,
          "duration": 0.023255813953483084
        },
        {
          "name": "E7",
          "midi": 100,
          "time": 182.6046511627619,
          "velocity": 0.10236220472440945,
          "duration": 0.034883720930224626
        },
        {
          "name": "E2",
          "midi": 40,
          "time": 182.61627906973865,
          "velocity": 0.5118110236220472,
          "duration": 0.011627906976741542
        },
        {
          "name": "F#5",
          "midi": 78,
          "time": 182.6279069767154,
          "velocity": 0.11023622047244094,
          "duration": 0.04651162790696617
        },
        {
          "name": "D#7",
          "midi": 99,
          "time": 182.6279069767154,
          "velocity": 0.14960629921259844,
          "duration": 0.20930232558134776
        },
        {
          "name": "E3",
          "midi": 52,
          "time": 182.67441860462236,
          "velocity": 0.2992125984251969,
          "duration": 0.023255813953483084
        },
        {
          "name": "B5",
          "midi": 83,
          "time": 182.67441860462236,
          "velocity": 0.29133858267716534,
          "duration": 0.18604651162786467
        },
        {
          "name": "G2",
          "midi": 43,
          "time": 182.6860465115991,
          "velocity": 0.33070866141732286,
          "duration": 0.023255813953483084
        },
        {
          "name": "A#4",
          "midi": 70,
          "time": 182.6860465115991,
          "velocity": 0.13385826771653545,
          "duration": 0.034883720930224626
        },
        {
          "name": "F#5",
          "midi": 78,
          "time": 182.6860465115991,
          "velocity": 0.07086614173228346,
          "duration": 0.034883720930224626
        },
        {
          "name": "G6",
          "midi": 91,
          "time": 182.6860465115991,
          "velocity": 0.08661417322834646,
          "duration": 0.0813953488371908
        },
        {
          "name": "E4",
          "midi": 64,
          "time": 182.69767441857584,
          "velocity": 0.18110236220472442,
          "duration": 0.0813953488371908
        },
        {
          "name": "F2",
          "midi": 41,
          "time": 182.70930232555258,
          "velocity": 0.3228346456692913,
          "duration": 0.023255813953483084
        },
        {
          "name": "G3",
          "midi": 55,
          "time": 182.72093023252933,
          "velocity": 0.3937007874015748,
          "duration": 0.12790697674415696
        },
        {
          "name": "G#2",
          "midi": 44,
          "time": 182.73255813950607,
          "velocity": 0.3228346456692913,
          "duration": 0.023255813953483084
        },
        {
          "name": "A#4",
          "midi": 70,
          "time": 182.73255813950607,
          "velocity": 0.11811023622047244,
          "duration": 0.04651162790696617
        },
        {
          "name": "C3",
          "midi": 48,
          "time": 182.7674418604363,
          "velocity": 0.2992125984251969,
          "duration": 0.023255813953483084
        },
        {
          "name": "D#5",
          "midi": 75,
          "time": 182.77906976741303,
          "velocity": 0.1732283464566929,
          "duration": 0.034883720930224626
        },
        {
          "name": "G7",
          "midi": 103,
          "time": 182.77906976741303,
          "velocity": 0.13385826771653545,
          "duration": 0.0813953488371908
        },
        {
          "name": "G4",
          "midi": 67,
          "time": 182.79069767438978,
          "velocity": 0.4251968503937008,
          "duration": 0.19767441860460622
        },
        {
          "name": "F#2",
          "midi": 42,
          "time": 182.80232558136652,
          "velocity": 0.4251968503937008,
          "duration": 0.023255813953483084
        },
        {
          "name": "B4",
          "midi": 71,
          "time": 182.80232558136652,
          "velocity": 0.11023622047244094,
          "duration": 0.034883720930224626
        },
        {
          "name": "D5",
          "midi": 74,
          "time": 182.80232558136652,
          "velocity": 0.15748031496062992,
          "duration": 0.1395348837208985
        },
        {
          "name": "D4",
          "midi": 62,
          "time": 182.81395348834326,
          "velocity": 0.2125984251968504,
          "duration": 0.034883720930224626
        },
        {
          "name": "E5",
          "midi": 76,
          "time": 182.81395348834326,
          "velocity": 0.2440944881889764,
          "duration": 0.2558139534883139
        },
        {
          "name": "A#4",
          "midi": 70,
          "time": 182.83720930229674,
          "velocity": 0.29133858267716534,
          "duration": 0.19767441860460622
        },
        {
          "name": "C#7",
          "midi": 97,
          "time": 182.83720930229674,
          "velocity": 0.18110236220472442,
          "duration": 0.04651162790696617
        },
        {
          "name": "G#2",
          "midi": 44,
          "time": 182.84883720927348,
          "velocity": 0.4251968503937008,
          "duration": 0.034883720930224626
        },
        {
          "name": "E4",
          "midi": 64,
          "time": 182.84883720927348,
          "velocity": 0.3700787401574803,
          "duration": 0.15116279069764005
        },
        {
          "name": "C4",
          "midi": 60,
          "time": 182.86046511625023,
          "velocity": 0.25196850393700787,
          "duration": 0.09302325581393234
        },
        {
          "name": "A5",
          "midi": 81,
          "time": 182.86046511625023,
          "velocity": 0.08661417322834646,
          "duration": 0.0813953488371908
        },
        {
          "name": "F7",
          "midi": 101,
          "time": 182.8837209302037,
          "velocity": 0.07874015748031496,
          "duration": 0.04651162790696617
        },
        {
          "name": "C#7",
          "midi": 97,
          "time": 182.89534883718045,
          "velocity": 0.2755905511811024,
          "duration": 0.2558139534883139
        },
        {
          "name": "B5",
          "midi": 83,
          "time": 182.9069767441572,
          "velocity": 0.08661417322834646,
          "duration": 0.034883720930224626
        },
        {
          "name": "F2",
          "midi": 41,
          "time": 182.93023255811067,
          "velocity": 0.3858267716535433,
          "duration": 0.023255813953483084
        },
        {
          "name": "G3",
          "midi": 55,
          "time": 182.93023255811067,
          "velocity": 0.25196850393700787,
          "duration": 0.04651162790696617
        },
        {
          "name": "D#6",
          "midi": 87,
          "time": 182.95348837206416,
          "velocity": 0.1732283464566929,
          "duration": 0.1395348837208985
        },
        {
          "name": "C3",
          "midi": 48,
          "time": 182.9651162790409,
          "velocity": 0.3858267716535433,
          "duration": 0.023255813953483084
        },
        {
          "name": "D5",
          "midi": 74,
          "time": 182.9651162790409,
          "velocity": 0.11023622047244094,
          "duration": 0.034883720930224626
        },
        {
          "name": "A5",
          "midi": 81,
          "time": 182.9651162790409,
          "velocity": 0.4251968503937008,
          "duration": 0.8255813953486495
        },
        {
          "name": "A3",
          "midi": 57,
          "time": 182.98837209299438,
          "velocity": 0.3543307086614173,
          "duration": 0.023255813953483084
        },
        {
          "name": "E7",
          "midi": 100,
          "time": 182.98837209299438,
          "velocity": 0.31496062992125984,
          "duration": 0.7790697674416833
        },
        {
          "name": "G7",
          "midi": 103,
          "time": 182.98837209299438,
          "velocity": 0.15748031496062992,
          "duration": 0.04651162790696617
        },
        {
          "name": "C3",
          "midi": 48,
          "time": 182.99999999997112,
          "velocity": 0.5275590551181102,
          "duration": 0.023255813953483084
        },
        {
          "name": "F#5",
          "midi": 78,
          "time": 182.99999999997112,
          "velocity": 0.14173228346456693,
          "duration": 0.034883720930224626
        },
        {
          "name": "B5",
          "midi": 83,
          "time": 182.99999999997112,
          "velocity": 0.15748031496062992,
          "duration": 0.04651162790696617
        },
        {
          "name": "C#6",
          "midi": 85,
          "time": 182.99999999997112,
          "velocity": 0.25984251968503935,
          "duration": 0.023255813953483084
        },
        {
          "name": "A6",
          "midi": 93,
          "time": 182.99999999997112,
          "velocity": 0.48031496062992124,
          "duration": 0.9534883720928065
        },
        {
          "name": "G1",
          "midi": 31,
          "time": 183.01162790694787,
          "velocity": 0.48031496062992124,
          "duration": 0.023255813953483084
        },
        {
          "name": "D4",
          "midi": 62,
          "time": 183.01162790694787,
          "velocity": 0.44881889763779526,
          "duration": 0.023255813953483084
        },
        {
          "name": "C6",
          "midi": 84,
          "time": 183.01162790694787,
          "velocity": 0.15748031496062992,
          "duration": 0.10465116279067388
        },
        {
          "name": "D3",
          "midi": 50,
          "time": 183.0232558139246,
          "velocity": 0.6220472440944882,
          "duration": 0.1627906976743816
        },
        {
          "name": "A3",
          "midi": 57,
          "time": 183.0232558139246,
          "velocity": 0.4566929133858268,
          "duration": 0.034883720930224626
        },
        {
          "name": "G4",
          "midi": 67,
          "time": 183.0232558139246,
          "velocity": 0.33858267716535434,
          "duration": 0.2209302325580893
        },
        {
          "name": "C5",
          "midi": 72,
          "time": 183.0232558139246,
          "velocity": 0.14173228346456693,
          "duration": 0.0813953488371908
        },
        {
          "name": "D6",
          "midi": 86,
          "time": 183.0232558139246,
          "velocity": 0.2677165354330709,
          "duration": 0.06976744186044925
        },
        {
          "name": "E5",
          "midi": 76,
          "time": 183.09302325578506,
          "velocity": 0.07086614173228346,
          "duration": 0.034883720930224626
        },
        {
          "name": "A2",
          "midi": 45,
          "time": 183.11627906973854,
          "velocity": 0.5433070866141733,
          "duration": 0.011627906976741542
        },
        {
          "name": "A2",
          "midi": 45,
          "time": 183.13953488369202,
          "velocity": 0.5433070866141733,
          "duration": 0.04651162790696617
        },
        {
          "name": "E5",
          "midi": 76,
          "time": 183.1627906976455,
          "velocity": 0.30708661417322836,
          "duration": 0.10465116279067388
        },
        {
          "name": "A3",
          "midi": 57,
          "time": 183.186046511599,
          "velocity": 0.3464566929133858,
          "duration": 0.034883720930224626
        },
        {
          "name": "B5",
          "midi": 83,
          "time": 183.19767441857573,
          "velocity": 0.09448818897637795,
          "duration": 0.034883720930224626
        },
        {
          "name": "E2",
          "midi": 40,
          "time": 183.20930232555247,
          "velocity": 0.5118110236220472,
          "duration": 0.011627906976741542
        },
        {
          "name": "F#5",
          "midi": 78,
          "time": 183.20930232555247,
          "velocity": 0.36220472440944884,
          "duration": 0.11627906976741542
        },
        {
          "name": "C#7",
          "midi": 97,
          "time": 183.20930232555247,
          "velocity": 0.14173228346456693,
          "duration": 0.034883720930224626
        },
        {
          "name": "D7",
          "midi": 98,
          "time": 183.20930232555247,
          "velocity": 0.11811023622047244,
          "duration": 0.04651162790696617
        },
        {
          "name": "G#1",
          "midi": 32,
          "time": 183.2209302325292,
          "velocity": 0.5118110236220472,
          "duration": 0.011627906976741542
        },
        {
          "name": "A4",
          "midi": 69,
          "time": 183.2209302325292,
          "velocity": 0.28346456692913385,
          "duration": 0.023255813953483084
        },
        {
          "name": "D#7",
          "midi": 99,
          "time": 183.2209302325292,
          "velocity": 0.1968503937007874,
          "duration": 0.3255813953487632
        },
        {
          "name": "G1",
          "midi": 31,
          "time": 183.23255813950595,
          "velocity": 0.5196850393700787,
          "duration": 0.011627906976741542
        },
        {
          "name": "D3",
          "midi": 50,
          "time": 183.23255813950595,
          "velocity": 0.6220472440944882,
          "duration": 0.1395348837208985
        },
        {
          "name": "A3",
          "midi": 57,
          "time": 183.23255813950595,
          "velocity": 0.4409448818897638,
          "duration": 0.04651162790696617
        },
        {
          "name": "C7",
          "midi": 96,
          "time": 183.23255813950595,
          "velocity": 0.11811023622047244,
          "duration": 0.06976744186044925
        },
        {
          "name": "B6",
          "midi": 95,
          "time": 183.25581395345944,
          "velocity": 0.08661417322834646,
          "duration": 0.12790697674415696
        },
        {
          "name": "C#7",
          "midi": 97,
          "time": 183.25581395345944,
          "velocity": 0.14960629921259844,
          "duration": 0.034883720930224626
        },
        {
          "name": "G4",
          "midi": 67,
          "time": 183.26744186043618,
          "velocity": 0.33070866141732286,
          "duration": 0.034883720930224626
        },
        {
          "name": "B4",
          "midi": 71,
          "time": 183.27906976741292,
          "velocity": 0.1889763779527559,
          "duration": 0.11627906976741542
        },
        {
          "name": "F#4",
          "midi": 66,
          "time": 183.29069767438966,
          "velocity": 0.2755905511811024,
          "duration": 0.04651162790696617
        },
        {
          "name": "D7",
          "midi": 98,
          "time": 183.29069767438966,
          "velocity": 0.13385826771653545,
          "duration": 0.05813953488370771
        },
        {
          "name": "A4",
          "midi": 69,
          "time": 183.3023255813664,
          "velocity": 0.2677165354330709,
          "duration": 0.1395348837208985
        },
        {
          "name": "E5",
          "midi": 76,
          "time": 183.31395348834315,
          "velocity": 0.08661417322834646,
          "duration": 0.034883720930224626
        },
        {
          "name": "A2",
          "midi": 45,
          "time": 183.3255813953199,
          "velocity": 0.5748031496062992,
          "duration": 0.023255813953483084
        },
        {
          "name": "A2",
          "midi": 45,
          "time": 183.3604651162501,
          "velocity": 0.5748031496062992,
          "duration": 0.011627906976741542
        },
        {
          "name": "G4",
          "midi": 67,
          "time": 183.3604651162501,
          "velocity": 0.23622047244094488,
          "duration": 0.023255813953483084
        },
        {
          "name": "F#5",
          "midi": 78,
          "time": 183.3604651162501,
          "velocity": 0.1732283464566929,
          "duration": 0.10465116279067388
        },
        {
          "name": "C3",
          "midi": 48,
          "time": 183.37209302322685,
          "velocity": 0.5826771653543307,
          "duration": 0.011627906976741542
        },
        {
          "name": "A2",
          "midi": 45,
          "time": 183.3837209302036,
          "velocity": 0.5511811023622047,
          "duration": 0.011627906976741542
        },
        {
          "name": "G#2",
          "midi": 44,
          "time": 183.39534883718034,
          "velocity": 0.5275590551181102,
          "duration": 0.011627906976741542
        },
        {
          "name": "G4",
          "midi": 67,
          "time": 183.39534883718034,
          "velocity": 0.25196850393700787,
          "duration": 0.023255813953483084
        },
        {
          "name": "E6",
          "midi": 88,
          "time": 183.43023255811056,
          "velocity": 0.14173228346456693,
          "duration": 0.09302325581393234
        },
        {
          "name": "C7",
          "midi": 96,
          "time": 183.43023255811056,
          "velocity": 0.25196850393700787,
          "duration": 0.10465116279067388
        },
        {
          "name": "D6",
          "midi": 86,
          "time": 183.4418604650873,
          "velocity": 0.14173228346456693,
          "duration": 0.17441860465112313
        },
        {
          "name": "D7",
          "midi": 98,
          "time": 183.4418604650873,
          "velocity": 0.16535433070866143,
          "duration": 0.24418604651157239
        },
        {
          "name": "G7",
          "midi": 103,
          "time": 183.4418604650873,
          "velocity": 0.18110236220472442,
          "duration": 0.11627906976741542
        },
        {
          "name": "A3",
          "midi": 57,
          "time": 183.45348837206404,
          "velocity": 0.2755905511811024,
          "duration": 0.023255813953483084
        },
        {
          "name": "C#7",
          "midi": 97,
          "time": 183.45348837206404,
          "velocity": 0.23622047244094488,
          "duration": 0.10465116279067388
        },
        {
          "name": "F#7",
          "midi": 102,
          "time": 183.45348837206404,
          "velocity": 0.14173228346456693,
          "duration": 0.1395348837208985
        },
        {
          "name": "A#2",
          "midi": 46,
          "time": 183.46511627904079,
          "velocity": 0.41732283464566927,
          "duration": 0.023255813953483084
        },
        {
          "name": "F#4",
          "midi": 66,
          "time": 183.46511627904079,
          "velocity": 0.08661417322834646,
          "duration": 0.034883720930224626
        },
        {
          "name": "G#2",
          "midi": 44,
          "time": 183.48837209299427,
          "velocity": 0.4330708661417323,
          "duration": 0.023255813953483084
        },
        {
          "name": "A#3",
          "midi": 58,
          "time": 183.48837209299427,
          "velocity": 0.2992125984251969,
          "duration": 0.034883720930224626
        },
        {
          "name": "D4",
          "midi": 62,
          "time": 183.48837209299427,
          "velocity": 0.2440944881889764,
          "duration": 0.05813953488370771
        },
        {
          "name": "C5",
          "midi": 72,
          "time": 183.48837209299427,
          "velocity": 0.07086614173228346,
          "duration": 0.034883720930224626
        },
        {
          "name": "F7",
          "midi": 101,
          "time": 183.51162790694775,
          "velocity": 0.09448818897637795,
          "duration": 0.04651162790696617
        },
        {
          "name": "A4",
          "midi": 69,
          "time": 183.5232558139245,
          "velocity": 0.2047244094488189,
          "duration": 0.04651162790696617
        },
        {
          "name": "A#3",
          "midi": 58,
          "time": 183.53488372090123,
          "velocity": 0.28346456692913385,
          "duration": 0.023255813953483084
        },
        {
          "name": "F#5",
          "midi": 78,
          "time": 183.53488372090123,
          "velocity": 0.11023622047244094,
          "duration": 0.0813953488371908
        },
        {
          "name": "D#3",
          "midi": 51,
          "time": 183.54651162787798,
          "velocity": 0.4566929133858268,
          "duration": 0.034883720930224626
        },
        {
          "name": "F#4",
          "midi": 66,
          "time": 183.54651162787798,
          "velocity": 0.2125984251968504,
          "duration": 0.034883720930224626
        },
        {
          "name": "C7",
          "midi": 96,
          "time": 183.55813953485472,
          "velocity": 0.08661417322834646,
          "duration": 0.034883720930224626
        },
        {
          "name": "D4",
          "midi": 62,
          "time": 183.56976744183146,
          "velocity": 0.29133858267716534,
          "duration": 0.05813953488370771
        },
        {
          "name": "D#6",
          "midi": 87,
          "time": 183.56976744183146,
          "velocity": 0.08661417322834646,
          "duration": 0.034883720930224626
        },
        {
          "name": "C#7",
          "midi": 97,
          "time": 183.56976744183146,
          "velocity": 0.4015748031496063,
          "duration": 0.8953488372090987
        },
        {
          "name": "G7",
          "midi": 103,
          "time": 183.56976744183146,
          "velocity": 0.14173228346456693,
          "duration": 0.04651162790696617
        },
        {
          "name": "D3",
          "midi": 50,
          "time": 183.5813953488082,
          "velocity": 0.4881889763779528,
          "duration": 0.04651162790696617
        },
        {
          "name": "E5",
          "midi": 76,
          "time": 183.5813953488082,
          "velocity": 0.08661417322834646,
          "duration": 0.04651162790696617
        },
        {
          "name": "A3",
          "midi": 57,
          "time": 183.59302325578494,
          "velocity": 0.23622047244094488,
          "duration": 0.034883720930224626
        },
        {
          "name": "A4",
          "midi": 69,
          "time": 183.59302325578494,
          "velocity": 0.4251968503937008,
          "duration": 0.4651162790696617
        },
        {
          "name": "D#7",
          "midi": 99,
          "time": 183.60465116276168,
          "velocity": 0.15748031496062992,
          "duration": 0.31395348837202164
        },
        {
          "name": "D#3",
          "midi": 51,
          "time": 183.62790697671517,
          "velocity": 0.44881889763779526,
          "duration": 0.023255813953483084
        },
        {
          "name": "A#3",
          "midi": 58,
          "time": 183.62790697671517,
          "velocity": 0.2992125984251969,
          "duration": 0.034883720930224626
        },
        {
          "name": "E6",
          "midi": 88,
          "time": 183.62790697671517,
          "velocity": 0.2440944881889764,
          "duration": 0.12790697674415696
        },
        {
          "name": "C7",
          "midi": 96,
          "time": 183.62790697671517,
          "velocity": 0.11023622047244094,
          "duration": 0.034883720930224626
        },
        {
          "name": "F2",
          "midi": 41,
          "time": 183.6395348836919,
          "velocity": 0.3228346456692913,
          "duration": 0.023255813953483084
        },
        {
          "name": "E5",
          "midi": 76,
          "time": 183.6395348836919,
          "velocity": 0.31496062992125984,
          "duration": 0.17441860465112313
        },
        {
          "name": "F#5",
          "midi": 78,
          "time": 183.6395348836919,
          "velocity": 0.5354330708661418,
          "duration": 0.6744186046510094
        },
        {
          "name": "D3",
          "midi": 50,
          "time": 183.65116279066865,
          "velocity": 0.6220472440944882,
          "duration": 0.1395348837208985
        },
        {
          "name": "B5",
          "midi": 83,
          "time": 183.65116279066865,
          "velocity": 0.11811023622047244,
          "duration": 0.15116279069764005
        },
        {
          "name": "A3",
          "midi": 57,
          "time": 183.6627906976454,
          "velocity": 0.4015748031496063,
          "duration": 0.04651162790696617
        },
        {
          "name": "F#4",
          "midi": 66,
          "time": 183.6627906976454,
          "velocity": 0.3228346456692913,
          "duration": 0.17441860465112313
        },
        {
          "name": "A#3",
          "midi": 58,
          "time": 183.70930232555236,
          "velocity": 0.31496062992125984,
          "duration": 0.023255813953483084
        },
        {
          "name": "A2",
          "midi": 45,
          "time": 183.75581395345932,
          "velocity": 0.47244094488188976,
          "duration": 0.023255813953483084
        },
        {
          "name": "D#3",
          "midi": 51,
          "time": 183.79069767438955,
          "velocity": 0.3464566929133858,
          "duration": 0.023255813953483084
        },
        {
          "name": "A3",
          "midi": 57,
          "time": 183.79069767438955,
          "velocity": 0.2125984251968504,
          "duration": 0.05813953488370771
        },
        {
          "name": "D3",
          "midi": 50,
          "time": 183.81395348834303,
          "velocity": 0.3858267716535433,
          "duration": 0.034883720930224626
        },
        {
          "name": "E2",
          "midi": 40,
          "time": 183.83720930229651,
          "velocity": 0.28346456692913385,
          "duration": 0.023255813953483084
        },
        {
          "name": "A#3",
          "midi": 58,
          "time": 183.83720930229651,
          "velocity": 0.3937007874015748,
          "duration": 0.023255813953483084
        },
        {
          "name": "C#5",
          "midi": 73,
          "time": 183.83720930229651,
          "velocity": 0.3464566929133858,
          "duration": 0.023255813953483084
        },
        {
          "name": "E6",
          "midi": 88,
          "time": 183.83720930229651,
          "velocity": 0.13385826771653545,
          "duration": 0.04651162790696617
        },
        {
          "name": "G7",
          "midi": 103,
          "time": 183.83720930229651,
          "velocity": 0.13385826771653545,
          "duration": 0.034883720930224626
        },
        {
          "name": "D#3",
          "midi": 51,
          "time": 183.84883720927326,
          "velocity": 0.47244094488188976,
          "duration": 0.034883720930224626
        },
        {
          "name": "E5",
          "midi": 76,
          "time": 183.84883720927326,
          "velocity": 0.2440944881889764,
          "duration": 0.06976744186044925
        },
        {
          "name": "D#6",
          "midi": 87,
          "time": 183.84883720927326,
          "velocity": 0.2125984251968504,
          "duration": 0.11627906976741542
        },
        {
          "name": "F7",
          "midi": 101,
          "time": 183.84883720927326,
          "velocity": 0.18110236220472442,
          "duration": 0.04651162790696617
        },
        {
          "name": "G4",
          "midi": 67,
          "time": 183.86046511625,
          "velocity": 0.33070866141732286,
          "duration": 0.0813953488371908
        },
        {
          "name": "D5",
          "midi": 74,
          "time": 183.86046511625,
          "velocity": 0.3779527559055118,
          "duration": 0.023255813953483084
        },
        {
          "name": "C6",
          "midi": 84,
          "time": 183.87209302322674,
          "velocity": 0.1732283464566929,
          "duration": 0.1395348837208985
        },
        {
          "name": "D3",
          "midi": 50,
          "time": 183.88372093020348,
          "velocity": 0.6535433070866141,
          "duration": 0.10465116279067388
        },
        {
          "name": "A3",
          "midi": 57,
          "time": 183.88372093020348,
          "velocity": 0.4330708661417323,
          "duration": 0.034883720930224626
        },
        {
          "name": "D#4",
          "midi": 63,
          "time": 183.88372093020348,
          "velocity": 0.3779527559055118,
          "duration": 0.023255813953483084
        },
        {
          "name": "G7",
          "midi": 103,
          "time": 183.88372093020348,
          "velocity": 0.10236220472440945,
          "duration": 0.04651162790696617
        },
        {
          "name": "C5",
          "midi": 72,
          "time": 183.89534883718022,
          "velocity": 0.2047244094488189,
          "duration": 0.0813953488371908
        },
        {
          "name": "D6",
          "midi": 86,
          "time": 183.89534883718022,
          "velocity": 0.2755905511811024,
          "duration": 0.0813953488371908
        },
        {
          "name": "F2",
          "midi": 41,
          "time": 183.90697674415696,
          "velocity": 0.5196850393700787,
          "duration": 0.023255813953483084
        },
        {
          "name": "E7",
          "midi": 100,
          "time": 183.90697674415696,
          "velocity": 0.11023622047244094,
          "duration": 0.0813953488371908
        },
        {
          "name": "C4",
          "midi": 60,
          "time": 183.93023255811045,
          "velocity": 0.2755905511811024,
          "duration": 0.023255813953483084
        },
        {
          "name": "F#4",
          "midi": 66,
          "time": 183.9418604650872,
          "velocity": 0.25196850393700787,
          "duration": 0.023255813953483084
        },
        {
          "name": "A#3",
          "midi": 58,
          "time": 183.95348837206393,
          "velocity": 0.3228346456692913,
          "duration": 0.06976744186044925
        },
        {
          "name": "G6",
          "midi": 91,
          "time": 183.95348837206393,
          "velocity": 0.07086614173228346,
          "duration": 0.05813953488370771
        },
        {
          "name": "A2",
          "midi": 45,
          "time": 183.9767441860174,
          "velocity": 0.5590551181102362,
          "duration": 0.011627906976741542
        },
        {
          "name": "D5",
          "midi": 74,
          "time": 183.9767441860174,
          "velocity": 0.11023622047244094,
          "duration": 0.05813953488370771
        },
        {
          "name": "C#3",
          "midi": 49,
          "time": 183.98837209299415,
          "velocity": 0.6220472440944882,
          "duration": 0.011627906976741542
        },
        {
          "name": "D4",
          "midi": 62,
          "time": 183.98837209299415,
          "velocity": 0.2204724409448819,
          "duration": 0.034883720930224626
        },
        {
          "name": "A2",
          "midi": 45,
          "time": 183.9999999999709,
          "velocity": 0.5905511811023622,
          "duration": 0.011627906976741542
        },
        {
          "name": "D3",
          "midi": 50,
          "time": 183.9999999999709,
          "velocity": 0.5748031496062992,
          "duration": 0.011627906976741542
        },
        {
          "name": "E5",
          "midi": 76,
          "time": 183.9999999999709,
          "velocity": 0.14173228346456693,
          "duration": 0.04651162790696617
        },
        {
          "name": "G2",
          "midi": 43,
          "time": 184.01162790694764,
          "velocity": 0.6141732283464567,
          "duration": 0.011627906976741542
        },
        {
          "name": "A2",
          "midi": 45,
          "time": 184.02325581392438,
          "velocity": 0.6220472440944882,
          "duration": 0.04651162790696617
        },
        {
          "name": "D3",
          "midi": 50,
          "time": 184.02325581392438,
          "velocity": 0.5354330708661418,
          "duration": 0.011627906976741542
        },
        {
          "name": "F#4",
          "midi": 66,
          "time": 184.02325581392438,
          "velocity": 0.3543307086614173,
          "duration": 0.2209302325580893
        },
        {
          "name": "A#3",
          "midi": 58,
          "time": 184.04651162787786,
          "velocity": 0.2992125984251969,
          "duration": 0.023255813953483084
        },
        {
          "name": "E7",
          "midi": 100,
          "time": 184.04651162787786,
          "velocity": 0.09448818897637795,
          "duration": 0.06976744186044925
        },
        {
          "name": "A5",
          "midi": 81,
          "time": 184.0581395348546,
          "velocity": 0.14960629921259844,
          "duration": 0.04651162790696617
        },
        {
          "name": "E6",
          "midi": 88,
          "time": 184.0581395348546,
          "velocity": 0.1968503937007874,
          "duration": 0.1395348837208985
        },
        {
          "name": "F#2",
          "midi": 42,
          "time": 184.06976744183135,
          "velocity": 0.5984251968503937,
          "duration": 0.011627906976741542
        },
        {
          "name": "A4",
          "midi": 69,
          "time": 184.06976744183135,
          "velocity": 0.3543307086614173,
          "duration": 0.4651162790696617
        },
        {
          "name": "E5",
          "midi": 76,
          "time": 184.06976744183135,
          "velocity": 0.23622047244094488,
          "duration": 0.04651162790696617
        },
        {
          "name": "G#2",
          "midi": 44,
          "time": 184.0813953488081,
          "velocity": 0.6141732283464567,
          "duration": 0.011627906976741542
        },
        {
          "name": "C7",
          "midi": 96,
          "time": 184.0813953488081,
          "velocity": 0.25196850393700787,
          "duration": 0.09302325581393234
        },
        {
          "name": "D7",
          "midi": 98,
          "time": 184.0813953488081,
          "velocity": 0.1889763779527559,
          "duration": 0.23255813953483084
        },
        {
          "name": "A2",
          "midi": 45,
          "time": 184.09302325578483,
          "velocity": 0.5354330708661418,
          "duration": 0.023255813953483084
        },
        {
          "name": "G7",
          "midi": 103,
          "time": 184.09302325578483,
          "velocity": 0.11811023622047244,
          "duration": 0.0813953488371908
        },
        {
          "name": "F3",
          "midi": 53,
          "time": 184.10465116276157,
          "velocity": 0.33070866141732286,
          "duration": 0.023255813953483084
        },
        {
          "name": "B4",
          "midi": 71,
          "time": 184.10465116276157,
          "velocity": 0.1732283464566929,
          "duration": 0.034883720930224626
        },
        {
          "name": "C#6",
          "midi": 85,
          "time": 184.10465116276157,
          "velocity": 0.11023622047244094,
          "duration": 0.05813953488370771
        },
        {
          "name": "D6",
          "midi": 86,
          "time": 184.10465116276157,
          "velocity": 0.14960629921259844,
          "duration": 0.1627906976743816
        },
        {
          "name": "D#7",
          "midi": 99,
          "time": 184.12790697671505,
          "velocity": 0.1968503937007874,
          "duration": 0.5813953488370771
        },
        {
          "name": "A3",
          "midi": 57,
          "time": 184.1395348836918,
          "velocity": 0.3700787401574803,
          "duration": 0.04651162790696617
        },
        {
          "name": "D3",
          "midi": 50,
          "time": 184.15116279066854,
          "velocity": 0.3543307086614173,
          "duration": 0.034883720930224626
        },
        {
          "name": "D2",
          "midi": 38,
          "time": 184.16279069764528,
          "velocity": 0.33070866141732286,
          "duration": 0.023255813953483084
        },
        {
          "name": "B4",
          "midi": 71,
          "time": 184.16279069764528,
          "velocity": 0.2125984251968504,
          "duration": 0.04651162790696617
        },
        {
          "name": "D#3",
          "midi": 51,
          "time": 184.18604651159876,
          "velocity": 0.4566929133858268,
          "duration": 0.034883720930224626
        },
        {
          "name": "D4",
          "midi": 62,
          "time": 184.18604651159876,
          "velocity": 0.2992125984251969,
          "duration": 0.0813953488371908
        },
        {
          "name": "E5",
          "midi": 76,
          "time": 184.1976744185755,
          "velocity": 0.08661417322834646,
          "duration": 0.04651162790696617
        },
        {
          "name": "C7",
          "midi": 96,
          "time": 184.1976744185755,
          "velocity": 0.13385826771653545,
          "duration": 0.09302325581393234
        },
        {
          "name": "G7",
          "midi": 103,
          "time": 184.20930232555224,
          "velocity": 0.14173228346456693,
          "duration": 0.04651162790696617
        },
        {
          "name": "D3",
          "midi": 50,
          "time": 184.22093023252899,
          "velocity": 0.5039370078740157,
          "duration": 0.05813953488370771
        },
        {
          "name": "A#3",
          "midi": 58,
          "time": 184.26744186043595,
          "velocity": 0.2992125984251969,
          "duration": 0.023255813953483084
        },
        {
          "name": "F#4",
          "midi": 66,
          "time": 184.26744186043595,
          "velocity": 0.18110236220472442,
          "duration": 0.034883720930224626
        },
        {
          "name": "F7",
          "midi": 101,
          "time": 184.26744186043595,
          "velocity": 0.07086614173228346,
          "duration": 0.034883720930224626
        },
        {
          "name": "D#3",
          "midi": 51,
          "time": 184.2790697674127,
          "velocity": 0.48031496062992124,
          "duration": 0.023255813953483084
        },
        {
          "name": "D4",
          "midi": 62,
          "time": 184.2790697674127,
          "velocity": 0.25984251968503935,
          "duration": 0.05813953488370771
        },
        {
          "name": "D#6",
          "midi": 87,
          "time": 184.2790697674127,
          "velocity": 0.1968503937007874,
          "duration": 0.11627906976741542
        },
        {
          "name": "D#2",
          "midi": 39,
          "time": 184.29069767438943,
          "velocity": 0.4645669291338583,
          "duration": 0.023255813953483084
        },
        {
          "name": "G6",
          "midi": 91,
          "time": 184.29069767438943,
          "velocity": 0.48031496062992124,
          "duration": 0.5930232558138187
        },
        {
          "name": "C5",
          "midi": 72,
          "time": 184.30232558136618,
          "velocity": 0.14960629921259844,
          "duration": 0.034883720930224626
        },
        {
          "name": "E5",
          "midi": 76,
          "time": 184.30232558136618,
          "velocity": 0.2047244094488189,
          "duration": 0.034883720930224626
        },
        {
          "name": "D6",
          "midi": 86,
          "time": 184.30232558136618,
          "velocity": 0.2677165354330709,
          "duration": 0.0813953488371908
        },
        {
          "name": "G5",
          "midi": 79,
          "time": 184.31395348834292,
          "velocity": 0.47244094488188976,
          "duration": 0.39534883720921243
        },
        {
          "name": "C6",
          "midi": 84,
          "time": 184.31395348834292,
          "velocity": 0.16535433070866143,
          "duration": 0.09302325581393234
        },
        {
          "name": "F#6",
          "midi": 90,
          "time": 184.31395348834292,
          "velocity": 0.2755905511811024,
          "duration": 0.2209302325580893
        },
        {
          "name": "A3",
          "midi": 57,
          "time": 184.32558139531966,
          "velocity": 0.2440944881889764,
          "duration": 0.023255813953483084
        },
        {
          "name": "B5",
          "midi": 83,
          "time": 184.32558139531966,
          "velocity": 0.07874015748031496,
          "duration": 0.04651162790696617
        },
        {
          "name": "D7",
          "midi": 98,
          "time": 184.32558139531966,
          "velocity": 0.5118110236220472,
          "duration": 0.7558139534882002
        },
        {
          "name": "D3",
          "midi": 50,
          "time": 184.34883720927314,
          "velocity": 0.5354330708661418,
          "duration": 0.18604651162786467
        },
        {
          "name": "D5",
          "midi": 74,
          "time": 184.36046511624988,
          "velocity": 0.2125984251968504,
          "duration": 0.0813953488371908
        },
        {
          "name": "C5",
          "midi": 72,
          "time": 184.37209302322663,
          "velocity": 0.16535433070866143,
          "duration": 0.05813953488370771
        },
        {
          "name": "F#4",
          "midi": 66,
          "time": 184.38372093020337,
          "velocity": 0.1968503937007874,
          "duration": 0.10465116279067388
        },
        {
          "name": "F7",
          "midi": 101,
          "time": 184.3953488371801,
          "velocity": 0.08661417322834646,
          "duration": 0.05813953488370771
        },
        {
          "name": "E6",
          "midi": 88,
          "time": 184.4186046511336,
          "velocity": 0.11811023622047244,
          "duration": 0.04651162790696617
        },
        {
          "name": "D6",
          "midi": 86,
          "time": 184.44186046508707,
          "velocity": 0.07874015748031496,
          "duration": 0.034883720930224626
        },
        {
          "name": "C5",
          "midi": 72,
          "time": 184.46511627904056,
          "velocity": 0.14173228346456693,
          "duration": 0.034883720930224626
        },
        {
          "name": "E7",
          "midi": 100,
          "time": 184.46511627904056,
          "velocity": 0.16535433070866143,
          "duration": 0.1627906976743816
        },
        {
          "name": "C#7",
          "midi": 97,
          "time": 184.48837209299404,
          "velocity": 0.2440944881889764,
          "duration": 0.2209302325580893
        },
        {
          "name": "A3",
          "midi": 57,
          "time": 184.49999999997078,
          "velocity": 0.2677165354330709,
          "duration": 0.023255813953483084
        },
        {
          "name": "C#5",
          "midi": 73,
          "time": 184.49999999997078,
          "velocity": 0.16535433070866143,
          "duration": 0.034883720930224626
        },
        {
          "name": "E5",
          "midi": 76,
          "time": 184.49999999997078,
          "velocity": 0.30708661417322836,
          "duration": 0.17441860465112313
        },
        {
          "name": "F#2",
          "midi": 42,
          "time": 184.51162790694752,
          "velocity": 0.3858267716535433,
          "duration": 0.023255813953483084
        },
        {
          "name": "G4",
          "midi": 67,
          "time": 184.51162790694752,
          "velocity": 0.30708661417322836,
          "duration": 0.023255813953483084
        },
        {
          "name": "C7",
          "midi": 96,
          "time": 184.51162790694752,
          "velocity": 0.08661417322834646,
          "duration": 0.034883720930224626
        },
        {
          "name": "F#5",
          "midi": 78,
          "time": 184.52325581392427,
          "velocity": 0.3464566929133858,
          "duration": 0.0813953488371908
        },
        {
          "name": "A3",
          "midi": 57,
          "time": 184.534883720901,
          "velocity": 0.3779527559055118,
          "duration": 0.034883720930224626
        },
        {
          "name": "D#4",
          "midi": 63,
          "time": 184.534883720901,
          "velocity": 0.23622047244094488,
          "duration": 0.023255813953483084
        },
        {
          "name": "F#4",
          "midi": 66,
          "time": 184.534883720901,
          "velocity": 0.3543307086614173,
          "duration": 0.18604651162786467
        },
        {
          "name": "A#4",
          "midi": 70,
          "time": 184.534883720901,
          "velocity": 0.28346456692913385,
          "duration": 0.023255813953483084
        },
        {
          "name": "C5",
          "midi": 72,
          "time": 184.534883720901,
          "velocity": 0.13385826771653545,
          "duration": 0.04651162790696617
        },
        {
          "name": "F7",
          "midi": 101,
          "time": 184.54651162787775,
          "velocity": 0.11023622047244094,
          "duration": 0.10465116279067388
        },
        {
          "name": "F#7",
          "midi": 102,
          "time": 184.54651162787775,
          "velocity": 0.11023622047244094,
          "duration": 0.04651162790696617
        },
        {
          "name": "D4",
          "midi": 62,
          "time": 184.5581395348545,
          "velocity": 0.1889763779527559,
          "duration": 0.05813953488370771
        },
        {
          "name": "A#3",
          "midi": 58,
          "time": 184.56976744183123,
          "velocity": 0.3464566929133858,
          "duration": 0.023255813953483084
        },
        {
          "name": "A2",
          "midi": 45,
          "time": 184.58139534880797,
          "velocity": 0.3700787401574803,
          "duration": 0.023255813953483084
        },
        {
          "name": "A3",
          "midi": 57,
          "time": 184.59302325578471,
          "velocity": 0.3779527559055118,
          "duration": 0.09302325581393234
        },
        {
          "name": "A5",
          "midi": 81,
          "time": 184.59302325578471,
          "velocity": 0.2440944881889764,
          "duration": 0.12790697674415696
        },
        {
          "name": "C7",
          "midi": 96,
          "time": 184.59302325578471,
          "velocity": 0.11023622047244094,
          "duration": 0.06976744186044925
        },
        {
          "name": "A4",
          "midi": 69,
          "time": 184.60465116276146,
          "velocity": 0.3858267716535433,
          "duration": 0.26744186046505547
        },
        {
          "name": "C5",
          "midi": 72,
          "time": 184.60465116276146,
          "velocity": 0.10236220472440945,
          "duration": 0.034883720930224626
        },
        {
          "name": "E2",
          "midi": 40,
          "time": 184.62790697671494,
          "velocity": 0.44881889763779526,
          "duration": 0.034883720930224626
        },
        {
          "name": "D3",
          "midi": 50,
          "time": 184.62790697671494,
          "velocity": 0.33858267716535434,
          "duration": 0.023255813953483084
        },
        {
          "name": "D#3",
          "midi": 51,
          "time": 184.65116279066842,
          "velocity": 0.41732283464566927,
          "duration": 0.023255813953483084
        },
        {
          "name": "D6",
          "midi": 86,
          "time": 184.65116279066842,
          "velocity": 0.07086614173228346,
          "duration": 0.04651162790696617
        },
        {
          "name": "C5",
          "midi": 72,
          "time": 184.66279069764516,
          "velocity": 0.2440944881889764,
          "duration": 0.06976744186044925
        },
        {
          "name": "E7",
          "midi": 100,
          "time": 184.66279069764516,
          "velocity": 0.14173228346456693,
          "duration": 0.1395348837208985
        },
        {
          "name": "D3",
          "midi": 50,
          "time": 184.6744186046219,
          "velocity": 0.47244094488188976,
          "duration": 0.023255813953483084
        },
        {
          "name": "F#6",
          "midi": 90,
          "time": 184.6744186046219,
          "velocity": 0.28346456692913385,
          "duration": 0.45348837209292014
        },
        {
          "name": "E6",
          "midi": 88,
          "time": 184.68604651159865,
          "velocity": 0.11811023622047244,
          "duration": 0.05813953488370771
        },
        {
          "name": "F7",
          "midi": 101,
          "time": 184.68604651159865,
          "velocity": 0.08661417322834646,
          "duration": 0.04651162790696617
        },
        {
          "name": "G2",
          "midi": 43,
          "time": 184.6976744185754,
          "velocity": 0.5039370078740157,
          "duration": 0.023255813953483084
        },
        {
          "name": "D#3",
          "midi": 51,
          "time": 184.6976744185754,
          "velocity": 0.5275590551181102,
          "duration": 0.023255813953483084
        },
        {
          "name": "C7",
          "midi": 96,
          "time": 184.6976744185754,
          "velocity": 0.10236220472440945,
          "duration": 0.11627906976741542
        },
        {
          "name": "C3",
          "midi": 48,
          "time": 184.72093023252887,
          "velocity": 0.6062992125984252,
          "duration": 0.011627906976741542
        },
        {
          "name": "E5",
          "midi": 76,
          "time": 184.72093023252887,
          "velocity": 0.2992125984251969,
          "duration": 0.20930232558134776
        },
        {
          "name": "G5",
          "midi": 79,
          "time": 184.72093023252887,
          "velocity": 0.4094488188976378,
          "duration": 0.12790697674415696
        },
        {
          "name": "D3",
          "midi": 50,
          "time": 184.7325581395056,
          "velocity": 0.6220472440944882,
          "duration": 0.011627906976741542
        },
        {
          "name": "E4",
          "midi": 64,
          "time": 184.7325581395056,
          "velocity": 0.4330708661417323,
          "duration": 0.3255813953487632
        },
        {
          "name": "B4",
          "midi": 71,
          "time": 184.7325581395056,
          "velocity": 0.3228346456692913,
          "duration": 0.3023255813952801
        },
        {
          "name": "D5",
          "midi": 74,
          "time": 184.7325581395056,
          "velocity": 0.07874015748031496,
          "duration": 0.04651162790696617
        },
        {
          "name": "D#7",
          "midi": 99,
          "time": 184.7325581395056,
          "velocity": 0.1889763779527559,
          "duration": 0.09302325581393234
        },
        {
          "name": "D#3",
          "midi": 51,
          "time": 184.74418604648235,
          "velocity": 0.5590551181102362,
          "duration": 0.011627906976741542
        },
        {
          "name": "B3",
          "midi": 59,
          "time": 184.74418604648235,
          "velocity": 0.3858267716535433,
          "duration": 0.04651162790696617
        },
        {
          "name": "G#6",
          "midi": 92,
          "time": 184.74418604648235,
          "velocity": 0.11023622047244094,
          "duration": 0.10465116279067388
        },
        {
          "name": "B2",
          "midi": 47,
          "time": 184.76744186043584,
          "velocity": 0.4330708661417323,
          "duration": 0.023255813953483084
        },
        {
          "name": "B6",
          "midi": 95,
          "time": 184.76744186043584,
          "velocity": 0.14173228346456693,
          "duration": 0.20930232558134776
        },
        {
          "name": "F2",
          "midi": 41,
          "time": 184.77906976741258,
          "velocity": 0.5118110236220472,
          "duration": 0.023255813953483084
        },
        {
          "name": "E3",
          "midi": 52,
          "time": 184.77906976741258,
          "velocity": 0.5275590551181102,
          "duration": 0.04651162790696617
        },
        {
          "name": "D6",
          "midi": 86,
          "time": 184.77906976741258,
          "velocity": 0.2047244094488189,
          "duration": 0.17441860465112313
        },
        {
          "name": "B3",
          "midi": 59,
          "time": 184.80232558136606,
          "velocity": 0.33858267716535434,
          "duration": 0.023255813953483084
        },
        {
          "name": "F3",
          "midi": 53,
          "time": 184.82558139531955,
          "velocity": 0.5511811023622047,
          "duration": 0.011627906976741542
        },
        {
          "name": "E3",
          "midi": 52,
          "time": 184.8372093022963,
          "velocity": 0.5433070866141733,
          "duration": 0.011627906976741542
        },
        {
          "name": "D#3",
          "midi": 51,
          "time": 184.84883720927303,
          "velocity": 0.5196850393700787,
          "duration": 0.011627906976741542
        },
        {
          "name": "D#7",
          "midi": 99,
          "time": 184.84883720927303,
          "velocity": 0.08661417322834646,
          "duration": 0.034883720930224626
        },
        {
          "name": "E7",
          "midi": 100,
          "time": 184.86046511624977,
          "velocity": 0.33858267716535434,
          "duration": 0.34883720930224626
        },
        {
          "name": "G#4",
          "midi": 68,
          "time": 184.89534883718,
          "velocity": 0.25196850393700787,
          "duration": 0.034883720930224626
        },
        {
          "name": "G6",
          "midi": 91,
          "time": 184.90697674415674,
          "velocity": 0.18110236220472442,
          "duration": 0.0813953488371908
        },
        {
          "name": "E2",
          "midi": 40,
          "time": 184.93023255811022,
          "velocity": 0.5275590551181102,
          "duration": 0.011627906976741542
        },
        {
          "name": "A3",
          "midi": 57,
          "time": 184.93023255811022,
          "velocity": 0.2992125984251969,
          "duration": 0.023255813953483084
        },
        {
          "name": "G4",
          "midi": 67,
          "time": 184.93023255811022,
          "velocity": 0.33858267716535434,
          "duration": 0.2209302325580893
        },
        {
          "name": "F#5",
          "midi": 78,
          "time": 184.93023255811022,
          "velocity": 0.4015748031496063,
          "duration": 0.05813953488370771
        },
        {
          "name": "A5",
          "midi": 81,
          "time": 184.93023255811022,
          "velocity": 0.4251968503937008,
          "duration": 0.2558139534883139
        },
        {
          "name": "D#7",
          "midi": 99,
          "time": 184.93023255811022,
          "velocity": 0.15748031496062992,
          "duration": 0.04651162790696617
        },
        {
          "name": "A#3",
          "midi": 58,
          "time": 184.9534883720637,
          "velocity": 0.28346456692913385,
          "duration": 0.023255813953483084
        },
        {
          "name": "C7",
          "midi": 96,
          "time": 184.9534883720637,
          "velocity": 0.11023622047244094,
          "duration": 0.04651162790696617
        },
        {
          "name": "D#3",
          "midi": 51,
          "time": 184.96511627904044,
          "velocity": 0.47244094488188976,
          "duration": 0.034883720930224626
        },
        {
          "name": "F2",
          "midi": 41,
          "time": 184.97674418601719,
          "velocity": 0.5118110236220472,
          "duration": 0.023255813953483084
        },
        {
          "name": "B3",
          "midi": 59,
          "time": 184.97674418601719,
          "velocity": 0.30708661417322836,
          "duration": 0.034883720930224626
        },
        {
          "name": "E3",
          "midi": 52,
          "time": 184.99999999997067,
          "velocity": 0.5511811023622047,
          "duration": 0.034883720930224626
        },
        {
          "name": "E2",
          "midi": 40,
          "time": 185.0116279069474,
          "velocity": 0.33070866141732286,
          "duration": 0.023255813953483084
        },
        {
          "name": "B6",
          "midi": 95,
          "time": 185.0116279069474,
          "velocity": 0.2047244094488189,
          "duration": 0.11627906976741542
        },
        {
          "name": "D#7",
          "midi": 99,
          "time": 185.02325581392415,
          "velocity": 0.14173228346456693,
          "duration": 0.034883720930224626
        },
        {
          "name": "F3",
          "midi": 53,
          "time": 185.0348837209009,
          "velocity": 0.5354330708661418,
          "duration": 0.011627906976741542
        },
        {
          "name": "D#3",
          "midi": 51,
          "time": 185.04651162787763,
          "velocity": 0.5511811023622047,
          "duration": 0.011627906976741542
        },
        {
          "name": "F#5",
          "midi": 78,
          "time": 185.04651162787763,
          "velocity": 0.2283464566929134,
          "duration": 0.26744186046505547
        },
        {
          "name": "E3",
          "midi": 52,
          "time": 185.05813953485438,
          "velocity": 0.5196850393700787,
          "duration": 0.011627906976741542
        },
        {
          "name": "F3",
          "midi": 53,
          "time": 185.06976744183112,
          "velocity": 0.5118110236220472,
          "duration": 0.011627906976741542
        },
        {
          "name": "E4",
          "midi": 64,
          "time": 185.06976744183112,
          "velocity": 0.1968503937007874,
          "duration": 0.06976744186044925
        },
        {
          "name": "E3",
          "midi": 52,
          "time": 185.08139534880786,
          "velocity": 0.49606299212598426,
          "duration": 0.034883720930224626
        },
        {
          "name": "B3",
          "midi": 59,
          "time": 185.08139534880786,
          "velocity": 0.25196850393700787,
          "duration": 0.04651162790696617
        },
        {
          "name": "D7",
          "midi": 98,
          "time": 185.10465116276134,
          "velocity": 0.2677165354330709,
          "duration": 0.2558139534883139
        },
        {
          "name": "D#7",
          "midi": 99,
          "time": 185.10465116276134,
          "velocity": 0.13385826771653545,
          "duration": 0.04651162790696617
        },
        {
          "name": "E2",
          "midi": 40,
          "time": 185.11627906973808,
          "velocity": 0.5196850393700787,
          "duration": 0.011627906976741542
        },
        {
          "name": "E3",
          "midi": 52,
          "time": 185.12790697671483,
          "velocity": 0.2283464566929134,
          "duration": 0.023255813953483084
        },
        {
          "name": "A#3",
          "midi": 58,
          "time": 185.13953488369157,
          "velocity": 0.1968503937007874,
          "duration": 0.034883720930224626
        },
        {
          "name": "D5",
          "midi": 74,
          "time": 185.13953488369157,
          "velocity": 0.14173228346456693,
          "duration": 0.05813953488370771
        },
        {
          "name": "F#7",
          "midi": 102,
          "time": 185.13953488369157,
          "velocity": 0.13385826771653545,
          "duration": 0.0813953488371908
        },
        {
          "name": "B6",
          "midi": 95,
          "time": 185.1511627906683,
          "velocity": 0.4251968503937008,
          "duration": 1.651162790697299
        },
        {
          "name": "C#7",
          "midi": 97,
          "time": 185.1511627906683,
          "velocity": 0.23622047244094488,
          "duration": 0.279069767441797
        },
        {
          "name": "F#6",
          "midi": 90,
          "time": 185.16279069764505,
          "velocity": 0.28346456692913385,
          "duration": 0.23255813953483084
        },
        {
          "name": "D#7",
          "midi": 99,
          "time": 185.16279069764505,
          "velocity": 0.16535433070866143,
          "duration": 0.3255813953487632
        },
        {
          "name": "B3",
          "midi": 59,
          "time": 185.1744186046218,
          "velocity": 0.2440944881889764,
          "duration": 0.023255813953483084
        },
        {
          "name": "F#2",
          "midi": 42,
          "time": 185.18604651159853,
          "velocity": 0.4881889763779528,
          "duration": 0.034883720930224626
        },
        {
          "name": "C7",
          "midi": 96,
          "time": 185.18604651159853,
          "velocity": 0.15748031496062992,
          "duration": 0.06976744186044925
        },
        {
          "name": "C5",
          "midi": 72,
          "time": 185.19767441857528,
          "velocity": 0.10236220472440945,
          "duration": 0.05813953488370771
        },
        {
          "name": "A5",
          "midi": 81,
          "time": 185.19767441857528,
          "velocity": 0.2440944881889764,
          "duration": 0.34883720930224626
        },
        {
          "name": "D#6",
          "midi": 87,
          "time": 185.19767441857528,
          "velocity": 0.11023622047244094,
          "duration": 0.1627906976743816
        },
        {
          "name": "F7",
          "midi": 101,
          "time": 185.19767441857528,
          "velocity": 0.13385826771653545,
          "duration": 0.15116279069764005
        },
        {
          "name": "G7",
          "midi": 103,
          "time": 185.19767441857528,
          "velocity": 0.12598425196850394,
          "duration": 0.034883720930224626
        },
        {
          "name": "F#4",
          "midi": 66,
          "time": 185.22093023252876,
          "velocity": 0.11023622047244094,
          "duration": 0.05813953488370771
        },
        {
          "name": "E6",
          "midi": 88,
          "time": 185.22093023252876,
          "velocity": 0.07086614173228346,
          "duration": 0.06976744186044925
        },
        {
          "name": "G#6",
          "midi": 92,
          "time": 185.22093023252876,
          "velocity": 0.07874015748031496,
          "duration": 0.06976744186044925
        },
        {
          "name": "G#4",
          "midi": 68,
          "time": 185.2325581395055,
          "velocity": 0.12598425196850394,
          "duration": 0.034883720930224626
        },
        {
          "name": "D5",
          "midi": 74,
          "time": 185.2325581395055,
          "velocity": 0.15748031496062992,
          "duration": 0.10465116279067388
        },
        {
          "name": "B3",
          "midi": 59,
          "time": 185.24418604648224,
          "velocity": 0.25984251968503935,
          "duration": 0.05813953488370771
        },
        {
          "name": "E7",
          "midi": 100,
          "time": 185.25581395345898,
          "velocity": 0.18110236220472442,
          "duration": 0.0813953488371908
        },
        {
          "name": "F3",
          "midi": 53,
          "time": 185.27906976741247,
          "velocity": 0.3779527559055118,
          "duration": 0.034883720930224626
        },
        {
          "name": "F2",
          "midi": 41,
          "time": 185.2906976743892,
          "velocity": 0.5196850393700787,
          "duration": 0.023255813953483084
        },
        {
          "name": "B5",
          "midi": 83,
          "time": 185.2906976743892,
          "velocity": 0.29133858267716534,
          "duration": 0.37209302325572935
        },
        {
          "name": "C7",
          "midi": 96,
          "time": 185.30232558136595,
          "velocity": 0.2204724409448819,
          "duration": 0.0813953488371908
        },
        {
          "name": "E2",
          "midi": 40,
          "time": 185.3139534883427,
          "velocity": 0.4251968503937008,
          "duration": 0.023255813953483084
        },
        {
          "name": "B4",
          "midi": 71,
          "time": 185.3139534883427,
          "velocity": 0.3464566929133858,
          "duration": 0.20930232558134776
        },
        {
          "name": "G6",
          "midi": 91,
          "time": 185.3139534883427,
          "velocity": 0.08661417322834646,
          "duration": 0.034883720930224626
        },
        {
          "name": "G#6",
          "midi": 92,
          "time": 185.3139534883427,
          "velocity": 0.15748031496062992,
          "duration": 0.04651162790696617
        },
        {
          "name": "G#4",
          "midi": 68,
          "time": 185.32558139531943,
          "velocity": 0.1732283464566929,
          "duration": 0.04651162790696617
        },
        {
          "name": "F4",
          "midi": 65,
          "time": 185.34883720927292,
          "velocity": 0.2440944881889764,
          "duration": 0.023255813953483084
        },
        {
          "name": "F#5",
          "midi": 78,
          "time": 185.34883720927292,
          "velocity": 0.30708661417322836,
          "duration": 0.0813953488371908
        },
        {
          "name": "G#2",
          "midi": 44,
          "time": 185.36046511624966,
          "velocity": 0.5118110236220472,
          "duration": 0.011627906976741542
        },
        {
          "name": "E5",
          "midi": 76,
          "time": 185.36046511624966,
          "velocity": 0.2992125984251969,
          "duration": 0.15116279069764005
        },
        {
          "name": "E7",
          "midi": 100,
          "time": 185.36046511624966,
          "velocity": 0.18110236220472442,
          "duration": 0.04651162790696617
        },
        {
          "name": "D3",
          "midi": 50,
          "time": 185.3720930232264,
          "velocity": 0.5511811023622047,
          "duration": 0.011627906976741542
        },
        {
          "name": "B3",
          "midi": 59,
          "time": 185.3720930232264,
          "velocity": 0.4330708661417323,
          "duration": 0.15116279069764005
        },
        {
          "name": "E4",
          "midi": 64,
          "time": 185.3720930232264,
          "velocity": 0.2440944881889764,
          "duration": 0.034883720930224626
        },
        {
          "name": "D7",
          "midi": 98,
          "time": 185.3720930232264,
          "velocity": 0.1968503937007874,
          "duration": 0.05813953488370771
        },
        {
          "name": "E3",
          "midi": 52,
          "time": 185.38372093020314,
          "velocity": 0.5275590551181102,
          "duration": 0.09302325581393234
        },
        {
          "name": "G4",
          "midi": 67,
          "time": 185.38372093020314,
          "velocity": 0.5669291338582677,
          "duration": 1.1511627906974127
        },
        {
          "name": "G6",
          "midi": 91,
          "time": 185.38372093020314,
          "velocity": 0.09448818897637795,
          "duration": 0.04651162790696617
        },
        {
          "name": "C7",
          "midi": 96,
          "time": 185.40697674415662,
          "velocity": 0.13385826771653545,
          "duration": 0.034883720930224626
        },
        {
          "name": "F2",
          "midi": 41,
          "time": 185.41860465113336,
          "velocity": 0.4881889763779528,
          "duration": 0.023255813953483084
        },
        {
          "name": "F#5",
          "midi": 78,
          "time": 185.47674418601707,
          "velocity": 0.1968503937007874,
          "duration": 0.09302325581393234
        },
        {
          "name": "D7",
          "midi": 98,
          "time": 185.4883720929938,
          "velocity": 0.11811023622047244,
          "duration": 0.034883720930224626
        },
        {
          "name": "E6",
          "midi": 88,
          "time": 185.53488372090078,
          "velocity": 0.15748031496062992,
          "duration": 0.09302325581393234
        },
        {
          "name": "E7",
          "midi": 100,
          "time": 185.54651162787752,
          "velocity": 0.2204724409448819,
          "duration": 0.11627906976741542
        },
        {
          "name": "D5",
          "midi": 74,
          "time": 185.55813953485426,
          "velocity": 0.3228346456692913,
          "duration": 0.034883720930224626
        },
        {
          "name": "E5",
          "midi": 76,
          "time": 185.55813953485426,
          "velocity": 0.2992125984251969,
          "duration": 0.406976744185954
        },
        {
          "name": "C3",
          "midi": 48,
          "time": 185.569767441831,
          "velocity": 0.5669291338582677,
          "duration": 0.023255813953483084
        },
        {
          "name": "A#3",
          "midi": 58,
          "time": 185.569767441831,
          "velocity": 0.4645669291338583,
          "duration": 0.034883720930224626
        },
        {
          "name": "A5",
          "midi": 81,
          "time": 185.569767441831,
          "velocity": 0.13385826771653545,
          "duration": 0.04651162790696617
        },
        {
          "name": "C6",
          "midi": 84,
          "time": 185.569767441831,
          "velocity": 0.12598425196850394,
          "duration": 0.034883720930224626
        },
        {
          "name": "D7",
          "midi": 98,
          "time": 185.569767441831,
          "velocity": 0.14960629921259844,
          "duration": 0.12790697674415696
        },
        {
          "name": "G7",
          "midi": 103,
          "time": 185.569767441831,
          "velocity": 0.14960629921259844,
          "duration": 0.034883720930224626
        },
        {
          "name": "F#5",
          "midi": 78,
          "time": 185.58139534880775,
          "velocity": 0.3464566929133858,
          "duration": 0.034883720930224626
        },
        {
          "name": "C#7",
          "midi": 97,
          "time": 185.58139534880775,
          "velocity": 0.2125984251968504,
          "duration": 0.05813953488370771
        },
        {
          "name": "D3",
          "midi": 50,
          "time": 185.5930232557845,
          "velocity": 0.5433070866141733,
          "duration": 0.011627906976741542
        },
        {
          "name": "D#7",
          "midi": 99,
          "time": 185.5930232557845,
          "velocity": 0.10236220472440945,
          "duration": 0.05813953488370771
        },
        {
          "name": "F7",
          "midi": 101,
          "time": 185.5930232557845,
          "velocity": 0.07086614173228346,
          "duration": 0.05813953488370771
        },
        {
          "name": "E2",
          "midi": 40,
          "time": 185.60465116276123,
          "velocity": 0.44881889763779526,
          "duration": 0.023255813953483084
        },
        {
          "name": "E3",
          "midi": 52,
          "time": 185.60465116276123,
          "velocity": 0.4645669291338583,
          "duration": 0.023255813953483084
        },
        {
          "name": "F4",
          "midi": 65,
          "time": 185.60465116276123,
          "velocity": 0.3937007874015748,
          "duration": 0.023255813953483084
        },
        {
          "name": "B4",
          "midi": 71,
          "time": 185.60465116276123,
          "velocity": 0.3543307086614173,
          "duration": 0.8255813953486495
        },
        {
          "name": "D5",
          "midi": 74,
          "time": 185.60465116276123,
          "velocity": 0.16535433070866143,
          "duration": 0.06976744186044925
        },
        {
          "name": "G#6",
          "midi": 92,
          "time": 185.60465116276123,
          "velocity": 0.11811023622047244,
          "duration": 0.17441860465112313
        },
        {
          "name": "G6",
          "midi": 91,
          "time": 185.61627906973797,
          "velocity": 0.07086614173228346,
          "duration": 0.034883720930224626
        },
        {
          "name": "C7",
          "midi": 96,
          "time": 185.61627906973797,
          "velocity": 0.14173228346456693,
          "duration": 0.05813953488370771
        },
        {
          "name": "G7",
          "midi": 103,
          "time": 185.61627906973797,
          "velocity": 0.14960629921259844,
          "duration": 0.04651162790696617
        },
        {
          "name": "E4",
          "midi": 64,
          "time": 185.6279069767147,
          "velocity": 0.2992125984251969,
          "duration": 0.04651162790696617
        },
        {
          "name": "E2",
          "midi": 40,
          "time": 185.63953488369145,
          "velocity": 0.5039370078740157,
          "duration": 0.034883720930224626
        },
        {
          "name": "E3",
          "midi": 52,
          "time": 185.63953488369145,
          "velocity": 0.5590551181102362,
          "duration": 0.05813953488370771
        },
        {
          "name": "C4",
          "midi": 60,
          "time": 185.63953488369145,
          "velocity": 0.3858267716535433,
          "duration": 0.023255813953483084
        },
        {
          "name": "A5",
          "midi": 81,
          "time": 185.63953488369145,
          "velocity": 0.10236220472440945,
          "duration": 0.034883720930224626
        },
        {
          "name": "F#5",
          "midi": 78,
          "time": 185.6511627906682,
          "velocity": 0.2204724409448819,
          "duration": 0.11627906976741542
        },
        {
          "name": "F#6",
          "midi": 90,
          "time": 185.6511627906682,
          "velocity": 0.2204724409448819,
          "duration": 0.3023255813952801
        },
        {
          "name": "B3",
          "midi": 59,
          "time": 185.66279069764494,
          "velocity": 0.3779527559055118,
          "duration": 0.034883720930224626
        },
        {
          "name": "B2",
          "midi": 47,
          "time": 185.68604651159842,
          "velocity": 0.5118110236220472,
          "duration": 0.011627906976741542
        },
        {
          "name": "F3",
          "midi": 53,
          "time": 185.69767441857516,
          "velocity": 0.5511811023622047,
          "duration": 0.011627906976741542
        },
        {
          "name": "E3",
          "midi": 52,
          "time": 185.7093023255519,
          "velocity": 0.5669291338582677,
          "duration": 0.034883720930224626
        },
        {
          "name": "C3",
          "midi": 48,
          "time": 185.7325581395054,
          "velocity": 0.5118110236220472,
          "duration": 0.011627906976741542
        },
        {
          "name": "B3",
          "midi": 59,
          "time": 185.7325581395054,
          "velocity": 0.28346456692913385,
          "duration": 0.034883720930224626
        },
        {
          "name": "B2",
          "midi": 47,
          "time": 185.74418604648213,
          "velocity": 0.5669291338582677,
          "duration": 0.04651162790696617
        },
        {
          "name": "D#7",
          "midi": 99,
          "time": 185.74418604648213,
          "velocity": 0.14960629921259844,
          "duration": 0.04651162790696617
        },
        {
          "name": "C4",
          "midi": 60,
          "time": 185.7674418604356,
          "velocity": 0.23622047244094488,
          "duration": 0.023255813953483084
        },
        {
          "name": "F#5",
          "midi": 78,
          "time": 185.77906976741235,
          "velocity": 0.33858267716535434,
          "duration": 0.1395348837208985
        },
        {
          "name": "F2",
          "midi": 41,
          "time": 185.7906976743891,
          "velocity": 0.5433070866141733,
          "duration": 0.011627906976741542
        },
        {
          "name": "D7",
          "midi": 98,
          "time": 185.7906976743891,
          "velocity": 0.11023622047244094,
          "duration": 0.12790697674415696
        },
        {
          "name": "B2",
          "midi": 47,
          "time": 185.80232558136584,
          "velocity": 0.5590551181102362,
          "duration": 0.034883720930224626
        },
        {
          "name": "G#6",
          "midi": 92,
          "time": 185.80232558136584,
          "velocity": 0.11023622047244094,
          "duration": 0.0813953488371908
        },
        {
          "name": "C#7",
          "midi": 97,
          "time": 185.80232558136584,
          "velocity": 0.16535433070866143,
          "duration": 0.0813953488371908
        },
        {
          "name": "D#7",
          "midi": 99,
          "time": 185.81395348834258,
          "velocity": 0.12598425196850394,
          "duration": 0.1395348837208985
        },
        {
          "name": "E4",
          "midi": 64,
          "time": 185.82558139531932,
          "velocity": 0.2440944881889764,
          "duration": 0.10465116279067388
        },
        {
          "name": "D#6",
          "midi": 87,
          "time": 185.82558139531932,
          "velocity": 0.12598425196850394,
          "duration": 0.1627906976743816
        },
        {
          "name": "A2",
          "midi": 45,
          "time": 185.83720930229606,
          "velocity": 0.5826771653543307,
          "duration": 0.011627906976741542
        },
        {
          "name": "D6",
          "midi": 86,
          "time": 185.83720930229606,
          "velocity": 0.09448818897637795,
          "duration": 0.04651162790696617
        },
        {
          "name": "F#2",
          "midi": 42,
          "time": 185.8488372092728,
          "velocity": 0.5118110236220472,
          "duration": 0.011627906976741542
        },
        {
          "name": "B2",
          "midi": 47,
          "time": 185.8488372092728,
          "velocity": 0.5275590551181102,
          "duration": 0.011627906976741542
        },
        {
          "name": "D3",
          "midi": 50,
          "time": 185.86046511624954,
          "velocity": 0.5433070866141733,
          "duration": 0.011627906976741542
        },
        {
          "name": "C7",
          "midi": 96,
          "time": 185.87209302322628,
          "velocity": 0.1968503937007874,
          "duration": 0.04651162790696617
        },
        {
          "name": "F3",
          "midi": 53,
          "time": 185.88372093020303,
          "velocity": 0.3543307086614173,
          "duration": 0.023255813953483084
        },
        {
          "name": "F#7",
          "midi": 102,
          "time": 185.88372093020303,
          "velocity": 0.23622047244094488,
          "duration": 0.3372093023255047
        },
        {
          "name": "C#7",
          "midi": 97,
          "time": 185.89534883717977,
          "velocity": 0.2204724409448819,
          "duration": 0.11627906976741542
        },
        {
          "name": "G#6",
          "midi": 92,
          "time": 185.9069767441565,
          "velocity": 0.10236220472440945,
          "duration": 0.04651162790696617
        },
        {
          "name": "F7",
          "midi": 101,
          "time": 185.9069767441565,
          "velocity": 0.11023622047244094,
          "duration": 0.0813953488371908
        },
        {
          "name": "G7",
          "midi": 103,
          "time": 185.91860465113325,
          "velocity": 0.14960629921259844,
          "duration": 0.05813953488370771
        },
        {
          "name": "F#5",
          "midi": 78,
          "time": 185.93023255811,
          "velocity": 0.2283464566929134,
          "duration": 0.10465116279067388
        },
        {
          "name": "D7",
          "midi": 98,
          "time": 185.93023255811,
          "velocity": 0.15748031496062992,
          "duration": 0.06976744186044925
        },
        {
          "name": "E7",
          "midi": 100,
          "time": 185.93023255811,
          "velocity": 0.08661417322834646,
          "duration": 0.034883720930224626
        },
        {
          "name": "B3",
          "midi": 59,
          "time": 185.94186046508673,
          "velocity": 0.2047244094488189,
          "duration": 0.034883720930224626
        },
        {
          "name": "E4",
          "midi": 64,
          "time": 185.94186046508673,
          "velocity": 0.2992125984251969,
          "duration": 0.34883720930224626
        },
        {
          "name": "B2",
          "midi": 47,
          "time": 185.95348837206348,
          "velocity": 0.3700787401574803,
          "duration": 0.034883720930224626
        },
        {
          "name": "D6",
          "midi": 86,
          "time": 185.95348837206348,
          "velocity": 0.12598425196850394,
          "duration": 0.04651162790696617
        },
        {
          "name": "D#7",
          "midi": 99,
          "time": 185.97674418601696,
          "velocity": 0.29133858267716534,
          "duration": 0.34883720930224626
        },
        {
          "name": "C4",
          "midi": 60,
          "time": 185.9883720929937,
          "velocity": 0.2677165354330709,
          "duration": 0.034883720930224626
        },
        {
          "name": "E3",
          "midi": 52,
          "time": 185.99999999997044,
          "velocity": 0.44881889763779526,
          "duration": 0.023255813953483084
        },
        {
          "name": "A5",
          "midi": 81,
          "time": 185.99999999997044,
          "velocity": 0.25984251968503935,
          "duration": 0.4186046511626955
        },
        {
          "name": "G#2",
          "midi": 44,
          "time": 186.01162790694718,
          "velocity": 0.47244094488188976,
          "duration": 0.023255813953483084
        },
        {
          "name": "D6",
          "midi": 86,
          "time": 186.01162790694718,
          "velocity": 0.14960629921259844,
          "duration": 0.06976744186044925
        },
        {
          "name": "A#3",
          "midi": 58,
          "time": 186.02325581392392,
          "velocity": 0.30708661417322836,
          "duration": 0.023255813953483084
        },
        {
          "name": "C7",
          "midi": 96,
          "time": 186.02325581392392,
          "velocity": 0.18110236220472442,
          "duration": 0.034883720930224626
        },
        {
          "name": "E3",
          "midi": 52,
          "time": 186.03488372090067,
          "velocity": 0.29133858267716534,
          "duration": 0.023255813953483084
        },
        {
          "name": "C#7",
          "midi": 97,
          "time": 186.03488372090067,
          "velocity": 0.2440944881889764,
          "duration": 0.11627906976741542
        },
        {
          "name": "E7",
          "midi": 100,
          "time": 186.03488372090067,
          "velocity": 0.1889763779527559,
          "duration": 0.17441860465112313
        },
        {
          "name": "F7",
          "midi": 101,
          "time": 186.03488372090067,
          "velocity": 0.2440944881889764,
          "duration": 0.279069767441797
        },
        {
          "name": "B3",
          "midi": 59,
          "time": 186.0465116278774,
          "velocity": 0.2047244094488189,
          "duration": 0.05813953488370771
        },
        {
          "name": "F3",
          "midi": 53,
          "time": 186.05813953485415,
          "velocity": 0.28346456692913385,
          "duration": 0.023255813953483084
        },
        {
          "name": "D7",
          "midi": 98,
          "time": 186.05813953485415,
          "velocity": 0.25984251968503935,
          "duration": 0.09302325581393234
        },
        {
          "name": "F2",
          "midi": 41,
          "time": 186.0697674418309,
          "velocity": 0.4330708661417323,
          "duration": 0.023255813953483084
        },
        {
          "name": "F#5",
          "midi": 78,
          "time": 186.0697674418309,
          "velocity": 0.15748031496062992,
          "duration": 0.10465116279067388
        },
        {
          "name": "D5",
          "midi": 74,
          "time": 186.08139534880763,
          "velocity": 0.1732283464566929,
          "duration": 0.09302325581393234
        },
        {
          "name": "G#6",
          "midi": 92,
          "time": 186.08139534880763,
          "velocity": 0.15748031496062992,
          "duration": 0.09302325581393234
        },
        {
          "name": "F3",
          "midi": 53,
          "time": 186.11627906973786,
          "velocity": 0.2283464566929134,
          "duration": 0.023255813953483084
        },
        {
          "name": "G7",
          "midi": 103,
          "time": 186.1279069767146,
          "velocity": 0.15748031496062992,
          "duration": 0.0813953488371908
        },
        {
          "name": "E3",
          "midi": 52,
          "time": 186.15116279066808,
          "velocity": 0.3779527559055118,
          "duration": 0.06976744186044925
        },
        {
          "name": "A#6",
          "midi": 94,
          "time": 186.15116279066808,
          "velocity": 0.07086614173228346,
          "duration": 0.034883720930224626
        },
        {
          "name": "E6",
          "midi": 88,
          "time": 186.17441860462156,
          "velocity": 0.07086614173228346,
          "duration": 0.034883720930224626
        },
        {
          "name": "C#7",
          "midi": 97,
          "time": 186.17441860462156,
          "velocity": 0.2440944881889764,
          "duration": 0.31395348837202164
        },
        {
          "name": "D7",
          "midi": 98,
          "time": 186.1860465115983,
          "velocity": 0.2440944881889764,
          "duration": 0.5232558139533694
        },
        {
          "name": "F#6",
          "midi": 90,
          "time": 186.19767441857505,
          "velocity": 0.2047244094488189,
          "duration": 0.10465116279067388
        },
        {
          "name": "A#6",
          "midi": 94,
          "time": 186.2093023255518,
          "velocity": 0.10236220472440945,
          "duration": 0.05813953488370771
        },
        {
          "name": "F#5",
          "midi": 78,
          "time": 186.22093023252853,
          "velocity": 0.2755905511811024,
          "duration": 0.06976744186044925
        },
        {
          "name": "E7",
          "midi": 100,
          "time": 186.22093023252853,
          "velocity": 0.13385826771653545,
          "duration": 0.04651162790696617
        },
        {
          "name": "D6",
          "midi": 86,
          "time": 186.23255813950527,
          "velocity": 0.10236220472440945,
          "duration": 0.06976744186044925
        },
        {
          "name": "B3",
          "midi": 59,
          "time": 186.244186046482,
          "velocity": 0.3937007874015748,
          "duration": 0.17441860465112313
        },
        {
          "name": "G2",
          "midi": 43,
          "time": 186.25581395345876,
          "velocity": 0.47244094488188976,
          "duration": 0.034883720930224626
        },
        {
          "name": "E3",
          "midi": 52,
          "time": 186.25581395345876,
          "velocity": 0.4409448818897638,
          "duration": 0.034883720930224626
        },
        {
          "name": "G#6",
          "midi": 92,
          "time": 186.25581395345876,
          "velocity": 0.10236220472440945,
          "duration": 0.06976744186044925
        },
        {
          "name": "C7",
          "midi": 96,
          "time": 186.25581395345876,
          "velocity": 0.14960629921259844,
          "duration": 0.034883720930224626
        },
        {
          "name": "F#7",
          "midi": 102,
          "time": 186.2674418604355,
          "velocity": 0.2992125984251969,
          "duration": 0.47674418604640323
        },
        {
          "name": "E3",
          "midi": 52,
          "time": 186.30232558136572,
          "velocity": 0.3779527559055118,
          "duration": 0.04651162790696617
        },
        {
          "name": "F2",
          "midi": 41,
          "time": 186.3255813953192,
          "velocity": 0.5433070866141733,
          "duration": 0.05813953488370771
        },
        {
          "name": "C7",
          "midi": 96,
          "time": 186.3488372092727,
          "velocity": 0.07874015748031496,
          "duration": 0.06976744186044925
        },
        {
          "name": "E4",
          "midi": 64,
          "time": 186.36046511624943,
          "velocity": 0.41732283464566927,
          "duration": 0.5116279069766279
        },
        {
          "name": "D5",
          "midi": 74,
          "time": 186.4069767441564,
          "velocity": 0.11023622047244094,
          "duration": 0.034883720930224626
        },
        {
          "name": "D#7",
          "midi": 99,
          "time": 186.4069767441564,
          "velocity": 0.08661417322834646,
          "duration": 0.04651162790696617
        },
        {
          "name": "C4",
          "midi": 60,
          "time": 186.41860465113314,
          "velocity": 0.2992125984251969,
          "duration": 0.023255813953483084
        },
        {
          "name": "C6",
          "midi": 84,
          "time": 186.41860465113314,
          "velocity": 0.16535433070866143,
          "duration": 0.034883720930224626
        },
        {
          "name": "F#2",
          "midi": 42,
          "time": 186.43023255810988,
          "velocity": 0.5669291338582677,
          "duration": 0.011627906976741542
        },
        {
          "name": "A3",
          "midi": 57,
          "time": 186.43023255810988,
          "velocity": 0.47244094488188976,
          "duration": 0.04651162790696617
        },
        {
          "name": "C5",
          "midi": 72,
          "time": 186.43023255810988,
          "velocity": 0.31496062992125984,
          "duration": 0.034883720930224626
        },
        {
          "name": "E7",
          "midi": 100,
          "time": 186.43023255810988,
          "velocity": 0.16535433070866143,
          "duration": 0.04651162790696617
        },
        {
          "name": "G#1",
          "midi": 32,
          "time": 186.44186046508662,
          "velocity": 0.5118110236220472,
          "duration": 0.011627906976741542
        },
        {
          "name": "G#2",
          "midi": 44,
          "time": 186.44186046508662,
          "velocity": 0.6220472440944882,
          "duration": 0.011627906976741542
        },
        {
          "name": "B5",
          "midi": 83,
          "time": 186.44186046508662,
          "velocity": 0.15748031496062992,
          "duration": 0.034883720930224626
        },
        {
          "name": "G2",
          "midi": 43,
          "time": 186.45348837206336,
          "velocity": 0.5826771653543307,
          "duration": 0.011627906976741542
        },
        {
          "name": "D3",
          "midi": 50,
          "time": 186.45348837206336,
          "velocity": 0.5275590551181102,
          "duration": 0.011627906976741542
        },
        {
          "name": "B4",
          "midi": 71,
          "time": 186.4651162790401,
          "velocity": 0.33858267716535434,
          "duration": 0.48837209302314477
        },
        {
          "name": "G#3",
          "midi": 56,
          "time": 186.47674418601684,
          "velocity": 0.49606299212598426,
          "duration": 0.023255813953483084
        },
        {
          "name": "D5",
          "midi": 74,
          "time": 186.47674418601684,
          "velocity": 0.30708661417322836,
          "duration": 0.6627906976742679
        },
        {
          "name": "B3",
          "midi": 59,
          "time": 186.49999999997033,
          "velocity": 0.3937007874015748,
          "duration": 0.034883720930224626
        },
        {
          "name": "F3",
          "midi": 53,
          "time": 186.51162790694707,
          "velocity": 0.5118110236220472,
          "duration": 0.011627906976741542
        },
        {
          "name": "E3",
          "midi": 52,
          "time": 186.5232558139238,
          "velocity": 0.5275590551181102,
          "duration": 0.023255813953483084
        },
        {
          "name": "E2",
          "midi": 40,
          "time": 186.5465116278773,
          "velocity": 0.4015748031496063,
          "duration": 0.04651162790696617
        },
        {
          "name": "F3",
          "midi": 53,
          "time": 186.5465116278773,
          "velocity": 0.4881889763779528,
          "duration": 0.023255813953483084
        },
        {
          "name": "G#4",
          "midi": 68,
          "time": 186.55813953485404,
          "velocity": 0.2283464566929134,
          "duration": 0.034883720930224626
        },
        {
          "name": "G4",
          "midi": 67,
          "time": 186.58139534880752,
          "velocity": 0.2755905511811024,
          "duration": 0.0813953488371908
        },
        {
          "name": "F3",
          "midi": 53,
          "time": 186.59302325578426,
          "velocity": 0.2755905511811024,
          "duration": 0.023255813953483084
        },
        {
          "name": "E3",
          "midi": 52,
          "time": 186.61627906973774,
          "velocity": 0.2755905511811024,
          "duration": 0.023255813953483084
        },
        {
          "name": "B3",
          "midi": 59,
          "time": 186.61627906973774,
          "velocity": 0.2677165354330709,
          "duration": 0.023255813953483084
        },
        {
          "name": "C7",
          "midi": 96,
          "time": 186.61627906973774,
          "velocity": 0.09448818897637795,
          "duration": 0.04651162790696617
        },
        {
          "name": "C6",
          "midi": 84,
          "time": 186.62790697671448,
          "velocity": 0.11023622047244094,
          "duration": 0.034883720930224626
        },
        {
          "name": "D#2",
          "midi": 39,
          "time": 186.63953488369123,
          "velocity": 0.5118110236220472,
          "duration": 0.011627906976741542
        },
        {
          "name": "F#5",
          "midi": 78,
          "time": 186.63953488369123,
          "velocity": 0.2125984251968504,
          "duration": 0.034883720930224626
        },
        {
          "name": "E2",
          "midi": 40,
          "time": 186.65116279066797,
          "velocity": 0.5669291338582677,
          "duration": 0.011627906976741542
        },
        {
          "name": "A3",
          "midi": 57,
          "time": 186.65116279066797,
          "velocity": 0.31496062992125984,
          "duration": 0.023255813953483084
        },
        {
          "name": "C#7",
          "midi": 97,
          "time": 186.65116279066797,
          "velocity": 0.13385826771653545,
          "duration": 0.06976744186044925
        },
        {
          "name": "F2",
          "midi": 41,
          "time": 186.6627906976447,
          "velocity": 0.48031496062992124,
          "duration": 0.023255813953483084
        },
        {
          "name": "A#3",
          "midi": 58,
          "time": 186.67441860462145,
          "velocity": 0.30708661417322836,
          "duration": 0.023255813953483084
        },
        {
          "name": "G4",
          "midi": 67,
          "time": 186.67441860462145,
          "velocity": 0.44881889763779526,
          "duration": 1.093023255813705
        },
        {
          "name": "F#5",
          "midi": 78,
          "time": 186.6860465115982,
          "velocity": 0.3228346456692913,
          "duration": 0.15116279069764005
        },
        {
          "name": "A6",
          "midi": 93,
          "time": 186.6860465115982,
          "velocity": 0.25984251968503935,
          "duration": 0.23255813953483084
        },
        {
          "name": "F2",
          "midi": 41,
          "time": 186.69767441857493,
          "velocity": 0.49606299212598426,
          "duration": 0.023255813953483084
        },
        {
          "name": "B3",
          "midi": 59,
          "time": 186.69767441857493,
          "velocity": 0.3228346456692913,
          "duration": 0.034883720930224626
        },
        {
          "name": "E3",
          "midi": 52,
          "time": 186.72093023252842,
          "velocity": 0.5590551181102362,
          "duration": 0.12790697674415696
        },
        {
          "name": "A#6",
          "midi": 94,
          "time": 186.7441860464819,
          "velocity": 0.33070866141732286,
          "duration": 0.15116279069764005
        },
        {
          "name": "F7",
          "midi": 101,
          "time": 186.7441860464819,
          "velocity": 0.1889763779527559,
          "duration": 0.09302325581393234
        },
        {
          "name": "B3",
          "midi": 59,
          "time": 186.75581395345864,
          "velocity": 0.33070866141732286,
          "duration": 0.0813953488371908
        },
        {
          "name": "C7",
          "midi": 96,
          "time": 186.81395348834235,
          "velocity": 0.10236220472440945,
          "duration": 0.034883720930224626
        },
        {
          "name": "E2",
          "midi": 40,
          "time": 186.8255813953191,
          "velocity": 0.5590551181102362,
          "duration": 0.023255813953483084
        },
        {
          "name": "B6",
          "midi": 95,
          "time": 186.8255813953191,
          "velocity": 0.25196850393700787,
          "duration": 0.17441860465112313
        },
        {
          "name": "E7",
          "midi": 100,
          "time": 186.83720930229583,
          "velocity": 0.14960629921259844,
          "duration": 0.0813953488371908
        },
        {
          "name": "F2",
          "midi": 41,
          "time": 186.84883720927257,
          "velocity": 0.5354330708661418,
          "duration": 0.011627906976741542
        },
        {
          "name": "E2",
          "midi": 40,
          "time": 186.86046511624932,
          "velocity": 0.4881889763779528,
          "duration": 0.023255813953483084
        },
        {
          "name": "A5",
          "midi": 81,
          "time": 186.86046511624932,
          "velocity": 0.2755905511811024,
          "duration": 0.2558139534883139
        },
        {
          "name": "D7",
          "midi": 98,
          "time": 186.86046511624932,
          "velocity": 0.2440944881889764,
          "duration": 0.06976744186044925
        },
        {
          "name": "C#7",
          "midi": 97,
          "time": 186.87209302322606,
          "velocity": 0.1968503937007874,
          "duration": 0.10465116279067388
        },
        {
          "name": "F7",
          "midi": 101,
          "time": 186.87209302322606,
          "velocity": 0.07086614173228346,
          "duration": 0.04651162790696617
        },
        {
          "name": "F2",
          "midi": 41,
          "time": 186.8837209302028,
          "velocity": 0.5590551181102362,
          "duration": 0.023255813953483084
        },
        {
          "name": "F#5",
          "midi": 78,
          "time": 186.8837209302028,
          "velocity": 0.14173228346456693,
          "duration": 0.15116279069764005
        },
        {
          "name": "F#7",
          "midi": 102,
          "time": 186.89534883717954,
          "velocity": 0.18110236220472442,
          "duration": 0.10465116279067388
        },
        {
          "name": "G2",
          "midi": 43,
          "time": 186.90697674415628,
          "velocity": 0.5039370078740157,
          "duration": 0.023255813953483084
        },
        {
          "name": "B3",
          "midi": 59,
          "time": 186.90697674415628,
          "velocity": 0.3700787401574803,
          "duration": 0.17441860465112313
        },
        {
          "name": "D#7",
          "midi": 99,
          "time": 186.91860465113302,
          "velocity": 0.10236220472440945,
          "duration": 0.04651162790696617
        },
        {
          "name": "G#2",
          "midi": 44,
          "time": 186.93023255810976,
          "velocity": 0.5275590551181102,
          "duration": 0.011627906976741542
        },
        {
          "name": "E4",
          "midi": 64,
          "time": 186.9418604650865,
          "velocity": 0.2992125984251969,
          "duration": 0.15116279069764005
        },
        {
          "name": "E2",
          "midi": 40,
          "time": 186.95348837206325,
          "velocity": 0.5433070866141733,
          "duration": 0.023255813953483084
        },
        {
          "name": "D7",
          "midi": 98,
          "time": 186.95348837206325,
          "velocity": 0.1968503937007874,
          "duration": 0.05813953488370771
        },
        {
          "name": "F3",
          "midi": 53,
          "time": 186.96511627904,
          "velocity": 0.29133858267716534,
          "duration": 0.023255813953483084
        },
        {
          "name": "F2",
          "midi": 41,
          "time": 186.97674418601673,
          "velocity": 0.5669291338582677,
          "duration": 0.04651162790696617
        },
        {
          "name": "C7",
          "midi": 96,
          "time": 186.97674418601673,
          "velocity": 0.16535433070866143,
          "duration": 0.17441860465112313
        },
        {
          "name": "A#6",
          "midi": 94,
          "time": 186.98837209299347,
          "velocity": 0.14173228346456693,
          "duration": 0.0813953488371908
        },
        {
          "name": "C#7",
          "midi": 97,
          "time": 186.98837209299347,
          "velocity": 0.2283464566929134,
          "duration": 0.2209302325580893
        },
        {
          "name": "B6",
          "midi": 95,
          "time": 187.0232558139237,
          "velocity": 0.29133858267716534,
          "duration": 0.18604651162786467
        },
        {
          "name": "D7",
          "midi": 98,
          "time": 187.0232558139237,
          "velocity": 0.2047244094488189,
          "duration": 0.12790697674415696
        },
        {
          "name": "D2",
          "midi": 38,
          "time": 187.03488372090044,
          "velocity": 0.30708661417322836,
          "duration": 0.023255813953483084
        },
        {
          "name": "E7",
          "midi": 100,
          "time": 187.03488372090044,
          "velocity": 0.2204724409448819,
          "duration": 0.09302325581393234
        },
        {
          "name": "F#7",
          "midi": 102,
          "time": 187.03488372090044,
          "velocity": 0.14960629921259844,
          "duration": 0.11627906976741542
        },
        {
          "name": "F#5",
          "midi": 78,
          "time": 187.05813953485392,
          "velocity": 0.33858267716535434,
          "duration": 0.09302325581393234
        },
        {
          "name": "F7",
          "midi": 101,
          "time": 187.05813953485392,
          "velocity": 0.14173228346456693,
          "duration": 0.034883720930224626
        },
        {
          "name": "E5",
          "midi": 76,
          "time": 187.06976744183066,
          "velocity": 0.36220472440944884,
          "duration": 0.26744186046505547
        },
        {
          "name": "G6",
          "midi": 91,
          "time": 187.06976744183066,
          "velocity": 0.1732283464566929,
          "duration": 0.09302325581393234
        },
        {
          "name": "F#2",
          "midi": 42,
          "time": 187.0813953488074,
          "velocity": 0.5196850393700787,
          "duration": 0.011627906976741542
        },
        {
          "name": "D#7",
          "midi": 99,
          "time": 187.0813953488074,
          "velocity": 0.15748031496062992,
          "duration": 0.034883720930224626
        },
        {
          "name": "G#2",
          "midi": 44,
          "time": 187.09302325578415,
          "velocity": 0.5669291338582677,
          "duration": 0.011627906976741542
        },
        {
          "name": "D3",
          "midi": 50,
          "time": 187.09302325578415,
          "velocity": 0.49606299212598426,
          "duration": 0.023255813953483084
        },
        {
          "name": "D#4",
          "midi": 63,
          "time": 187.09302325578415,
          "velocity": 0.30708661417322836,
          "duration": 0.06976744186044925
        },
        {
          "name": "A#6",
          "midi": 94,
          "time": 187.09302325578415,
          "velocity": 0.15748031496062992,
          "duration": 0.06976744186044925
        },
        {
          "name": "A#3",
          "midi": 58,
          "time": 187.11627906973763,
          "velocity": 0.3700787401574803,
          "duration": 0.023255813953483084
        },
        {
          "name": "B3",
          "midi": 59,
          "time": 187.1395348836911,
          "velocity": 0.4094488188976378,
          "duration": 0.10465116279067388
        },
        {
          "name": "D#7",
          "midi": 99,
          "time": 187.1395348836911,
          "velocity": 0.25984251968503935,
          "duration": 0.23255813953483084
        },
        {
          "name": "A5",
          "midi": 81,
          "time": 187.15116279066785,
          "velocity": 0.08661417322834646,
          "duration": 0.0813953488371908
        },
        {
          "name": "E3",
          "midi": 52,
          "time": 187.1627906976446,
          "velocity": 0.5118110236220472,
          "duration": 0.011627906976741542
        },
        {
          "name": "F3",
          "midi": 53,
          "time": 187.17441860462134,
          "velocity": 0.5118110236220472,
          "duration": 0.011627906976741542
        },
        {
          "name": "E3",
          "midi": 52,
          "time": 187.18604651159808,
          "velocity": 0.5196850393700787,
          "duration": 0.023255813953483084
        },
        {
          "name": "F#5",
          "midi": 78,
          "time": 187.18604651159808,
          "velocity": 0.12598425196850394,
          "duration": 0.034883720930224626
        },
        {
          "name": "E4",
          "midi": 64,
          "time": 187.20930232555156,
          "velocity": 0.2440944881889764,
          "duration": 0.06976744186044925
        },
        {
          "name": "E7",
          "midi": 100,
          "time": 187.2209302325283,
          "velocity": 0.3228346456692913,
          "duration": 0.4651162790696617
        },
        {
          "name": "B2",
          "midi": 47,
          "time": 187.25581395345853,
          "velocity": 0.2992125984251969,
          "duration": 0.034883720930224626
        },
        {
          "name": "B6",
          "midi": 95,
          "time": 187.25581395345853,
          "velocity": 0.31496062992125984,
          "duration": 0.37209302325572935
        },
        {
          "name": "E2",
          "midi": 40,
          "time": 187.26744186043527,
          "velocity": 0.33070866141732286,
          "duration": 0.023255813953483084
        },
        {
          "name": "C#4",
          "midi": 61,
          "time": 187.26744186043527,
          "velocity": 0.3779527559055118,
          "duration": 0.023255813953483084
        },
        {
          "name": "D5",
          "midi": 74,
          "time": 187.279069767412,
          "velocity": 0.4409448818897638,
          "duration": 0.04651162790696617
        },
        {
          "name": "A6",
          "midi": 93,
          "time": 187.279069767412,
          "velocity": 0.16535433070866143,
          "duration": 0.1627906976743816
        },
        {
          "name": "C3",
          "midi": 48,
          "time": 187.29069767438875,
          "velocity": 0.5511811023622047,
          "duration": 0.023255813953483084
        },
        {
          "name": "A5",
          "midi": 81,
          "time": 187.29069767438875,
          "velocity": 0.18110236220472442,
          "duration": 0.034883720930224626
        },
        {
          "name": "A#6",
          "midi": 94,
          "time": 187.29069767438875,
          "velocity": 0.1968503937007874,
          "duration": 0.0813953488371908
        },
        {
          "name": "D7",
          "midi": 98,
          "time": 187.29069767438875,
          "velocity": 0.1732283464566929,
          "duration": 0.0813953488371908
        },
        {
          "name": "F7",
          "midi": 101,
          "time": 187.29069767438875,
          "velocity": 0.10236220472440945,
          "duration": 0.0813953488371908
        },
        {
          "name": "F#5",
          "midi": 78,
          "time": 187.3023255813655,
          "velocity": 0.3779527559055118,
          "duration": 0.18604651162786467
        },
        {
          "name": "C#7",
          "midi": 97,
          "time": 187.3023255813655,
          "velocity": 0.2047244094488189,
          "duration": 0.09302325581393234
        },
        {
          "name": "D3",
          "midi": 50,
          "time": 187.31395348834224,
          "velocity": 0.5118110236220472,
          "duration": 0.011627906976741542
        },
        {
          "name": "E3",
          "midi": 52,
          "time": 187.32558139531898,
          "velocity": 0.5511811023622047,
          "duration": 0.12790697674415696
        },
        {
          "name": "D#5",
          "midi": 75,
          "time": 187.33720930229572,
          "velocity": 0.31496062992125984,
          "duration": 0.023255813953483084
        },
        {
          "name": "E5",
          "midi": 76,
          "time": 187.34883720927246,
          "velocity": 0.4566929133858268,
          "duration": 0.8720930232556157
        },
        {
          "name": "C#6",
          "midi": 85,
          "time": 187.3604651162492,
          "velocity": 0.09448818897637795,
          "duration": 0.034883720930224626
        },
        {
          "name": "B3",
          "midi": 59,
          "time": 187.37209302322594,
          "velocity": 0.4015748031496063,
          "duration": 0.06976744186044925
        },
        {
          "name": "D5",
          "midi": 74,
          "time": 187.39534883717943,
          "velocity": 0.2440944881889764,
          "duration": 0.09302325581393234
        },
        {
          "name": "B2",
          "midi": 47,
          "time": 187.40697674415617,
          "velocity": 0.5118110236220472,
          "duration": 0.011627906976741542
        },
        {
          "name": "C3",
          "midi": 48,
          "time": 187.45348837206313,
          "velocity": 0.5433070866141733,
          "duration": 0.023255813953483084
        },
        {
          "name": "F3",
          "midi": 53,
          "time": 187.45348837206313,
          "velocity": 0.5196850393700787,
          "duration": 0.011627906976741542
        },
        {
          "name": "B2",
          "midi": 47,
          "time": 187.47674418601662,
          "velocity": 0.5511811023622047,
          "duration": 0.023255813953483084
        },
        {
          "name": "C4",
          "midi": 60,
          "time": 187.48837209299336,
          "velocity": 0.25196850393700787,
          "duration": 0.04651162790696617
        },
        {
          "name": "F#6",
          "midi": 90,
          "time": 187.48837209299336,
          "velocity": 0.3464566929133858,
          "duration": 0.6627906976742679
        },
        {
          "name": "C3",
          "midi": 48,
          "time": 187.4999999999701,
          "velocity": 0.5669291338582677,
          "duration": 0.011627906976741542
        },
        {
          "name": "B2",
          "midi": 47,
          "time": 187.51162790694684,
          "velocity": 0.5984251968503937,
          "duration": 0.023255813953483084
        },
        {
          "name": "F#5",
          "midi": 78,
          "time": 187.51162790694684,
          "velocity": 0.5118110236220472,
          "duration": 0.2209302325580893
        },
        {
          "name": "C#7",
          "midi": 97,
          "time": 187.51162790694684,
          "velocity": 0.33070866141732286,
          "duration": 0.4651162790696617
        },
        {
          "name": "D6",
          "midi": 86,
          "time": 187.52325581392358,
          "velocity": 0.14173228346456693,
          "duration": 0.11627906976741542
        },
        {
          "name": "F2",
          "midi": 41,
          "time": 187.53488372090032,
          "velocity": 0.5196850393700787,
          "duration": 0.011627906976741542
        },
        {
          "name": "C3",
          "midi": 48,
          "time": 187.53488372090032,
          "velocity": 0.5196850393700787,
          "duration": 0.011627906976741542
        },
        {
          "name": "C#2",
          "midi": 37,
          "time": 187.54651162787707,
          "velocity": 0.5590551181102362,
          "duration": 0.011627906976741542
        },
        {
          "name": "C#5",
          "midi": 73,
          "time": 187.54651162787707,
          "velocity": 0.07086614173228346,
          "duration": 0.034883720930224626
        },
        {
          "name": "A2",
          "midi": 45,
          "time": 187.5581395348538,
          "velocity": 0.6141732283464567,
          "duration": 0.011627906976741542
        },
        {
          "name": "D#7",
          "midi": 99,
          "time": 187.5581395348538,
          "velocity": 0.08661417322834646,
          "duration": 0.04651162790696617
        },
        {
          "name": "B2",
          "midi": 47,
          "time": 187.56976744183055,
          "velocity": 0.5669291338582677,
          "duration": 0.011627906976741542
        },
        {
          "name": "D7",
          "midi": 98,
          "time": 187.56976744183055,
          "velocity": 0.18110236220472442,
          "duration": 0.0813953488371908
        },
        {
          "name": "C3",
          "midi": 48,
          "time": 187.5813953488073,
          "velocity": 0.5118110236220472,
          "duration": 0.011627906976741542
        },
        {
          "name": "E4",
          "midi": 64,
          "time": 187.5813953488073,
          "velocity": 0.14173228346456693,
          "duration": 0.05813953488370771
        },
        {
          "name": "E3",
          "midi": 52,
          "time": 187.59302325578403,
          "velocity": 0.4330708661417323,
          "duration": 0.04651162790696617
        },
        {
          "name": "C7",
          "midi": 96,
          "time": 187.59302325578403,
          "velocity": 0.12598425196850394,
          "duration": 0.18604651162786467
        },
        {
          "name": "B3",
          "midi": 59,
          "time": 187.60465116276077,
          "velocity": 0.3858267716535433,
          "duration": 0.15116279069764005
        },
        {
          "name": "F2",
          "midi": 41,
          "time": 187.61627906973752,
          "velocity": 0.5354330708661418,
          "duration": 0.05813953488370771
        },
        {
          "name": "D#7",
          "midi": 99,
          "time": 187.62790697671426,
          "velocity": 0.28346456692913385,
          "duration": 0.5465116279068525
        },
        {
          "name": "B6",
          "midi": 95,
          "time": 187.65116279066774,
          "velocity": 0.11811023622047244,
          "duration": 0.034883720930224626
        },
        {
          "name": "D7",
          "midi": 98,
          "time": 187.66279069764448,
          "velocity": 0.3700787401574803,
          "duration": 0.48837209302314477
        },
        {
          "name": "E4",
          "midi": 64,
          "time": 187.70930232555145,
          "velocity": 0.30708661417322836,
          "duration": 0.06976744186044925
        },
        {
          "name": "B6",
          "midi": 95,
          "time": 187.70930232555145,
          "velocity": 0.29133858267716534,
          "duration": 0.29069767441853855
        },
        {
          "name": "C5",
          "midi": 72,
          "time": 187.7209302325282,
          "velocity": 0.3228346456692913,
          "duration": 0.06976744186044925
        },
        {
          "name": "G5",
          "midi": 79,
          "time": 187.73255813950493,
          "velocity": 0.4645669291338583,
          "duration": 0.23255813953483084
        },
        {
          "name": "A6",
          "midi": 93,
          "time": 187.73255813950493,
          "velocity": 0.18110236220472442,
          "duration": 0.04651162790696617
        },
        {
          "name": "A4",
          "midi": 69,
          "time": 187.74418604648167,
          "velocity": 0.3700787401574803,
          "duration": 0.04651162790696617
        },
        {
          "name": "F7",
          "midi": 101,
          "time": 187.74418604648167,
          "velocity": 0.25196850393700787,
          "duration": 0.279069767441797
        },
        {
          "name": "D5",
          "midi": 74,
          "time": 187.75581395345841,
          "velocity": 0.13385826771653545,
          "duration": 0.06976744186044925
        },
        {
          "name": "C3",
          "midi": 48,
          "time": 187.76744186043516,
          "velocity": 0.3779527559055118,
          "duration": 0.023255813953483084
        },
        {
          "name": "F#3",
          "midi": 54,
          "time": 187.76744186043516,
          "velocity": 0.33070866141732286,
          "duration": 0.023255813953483084
        },
        {
          "name": "G4",
          "midi": 67,
          "time": 187.7790697674119,
          "velocity": 0.29133858267716534,
          "duration": 0.034883720930224626
        },
        {
          "name": "A#4",
          "midi": 70,
          "time": 187.7790697674119,
          "velocity": 0.23622047244094488,
          "duration": 0.034883720930224626
        },
        {
          "name": "G3",
          "midi": 55,
          "time": 187.79069767438864,
          "velocity": 0.2677165354330709,
          "duration": 0.034883720930224626
        },
        {
          "name": "G#6",
          "midi": 92,
          "time": 187.80232558136538,
          "velocity": 0.13385826771653545,
          "duration": 0.11627906976741542
        },
        {
          "name": "E4",
          "midi": 64,
          "time": 187.81395348834212,
          "velocity": 0.18110236220472442,
          "duration": 0.06976744186044925
        },
        {
          "name": "A4",
          "midi": 69,
          "time": 187.81395348834212,
          "velocity": 0.25196850393700787,
          "duration": 0.034883720930224626
        },
        {
          "name": "C5",
          "midi": 72,
          "time": 187.81395348834212,
          "velocity": 0.33070866141732286,
          "duration": 0.7674418604649418
        },
        {
          "name": "G4",
          "midi": 67,
          "time": 187.82558139531886,
          "velocity": 0.33858267716535434,
          "duration": 0.10465116279067388
        },
        {
          "name": "E7",
          "midi": 100,
          "time": 187.82558139531886,
          "velocity": 0.3228346456692913,
          "duration": 0.3604651162789878
        },
        {
          "name": "E3",
          "midi": 52,
          "time": 187.8372093022956,
          "velocity": 0.3858267716535433,
          "duration": 0.11627906976741542
        },
        {
          "name": "D5",
          "midi": 74,
          "time": 187.84883720927235,
          "velocity": 0.14960629921259844,
          "duration": 0.05813953488370771
        },
        {
          "name": "B5",
          "midi": 83,
          "time": 187.87209302322583,
          "velocity": 0.1889763779527559,
          "duration": 0.10465116279067388
        },
        {
          "name": "A4",
          "midi": 69,
          "time": 187.9186046511328,
          "velocity": 0.3700787401574803,
          "duration": 0.05813953488370771
        },
        {
          "name": "G4",
          "midi": 67,
          "time": 187.94186046508628,
          "velocity": 0.3937007874015748,
          "duration": 0.034883720930224626
        },
        {
          "name": "F#5",
          "midi": 78,
          "time": 187.94186046508628,
          "velocity": 0.3228346456692913,
          "duration": 0.29069767441853855
        },
        {
          "name": "G#6",
          "midi": 92,
          "time": 187.94186046508628,
          "velocity": 0.08661417322834646,
          "duration": 0.05813953488370771
        },
        {
          "name": "A6",
          "midi": 93,
          "time": 187.94186046508628,
          "velocity": 0.4645669291338583,
          "duration": 0.26744186046505547
        },
        {
          "name": "C7",
          "midi": 96,
          "time": 187.95348837206302,
          "velocity": 0.23622047244094488,
          "duration": 0.05813953488370771
        },
        {
          "name": "G2",
          "midi": 43,
          "time": 187.96511627903976,
          "velocity": 0.4015748031496063,
          "duration": 0.023255813953483084
        },
        {
          "name": "E3",
          "midi": 52,
          "time": 187.96511627903976,
          "velocity": 0.30708661417322836,
          "duration": 0.023255813953483084
        },
        {
          "name": "F#2",
          "midi": 42,
          "time": 187.98837209299325,
          "velocity": 0.4881889763779528,
          "duration": 0.034883720930224626
        },
        {
          "name": "G4",
          "midi": 67,
          "time": 187.99999999997,
          "velocity": 0.3700787401574803,
          "duration": 0.06976744186044925
        },
        {
          "name": "C#7",
          "midi": 97,
          "time": 187.99999999997,
          "velocity": 0.14960629921259844,
          "duration": 0.19767441860460622
        },
        {
          "name": "D#3",
          "midi": 51,
          "time": 188.0348837209002,
          "velocity": 0.3464566929133858,
          "duration": 0.023255813953483084
        },
        {
          "name": "A4",
          "midi": 69,
          "time": 188.0348837209002,
          "velocity": 0.3779527559055118,
          "duration": 0.24418604651157239
        },
        {
          "name": "A3",
          "midi": 57,
          "time": 188.04651162787695,
          "velocity": 0.23622047244094488,
          "duration": 0.034883720930224626
        },
        {
          "name": "D3",
          "midi": 50,
          "time": 188.0581395348537,
          "velocity": 0.3779527559055118,
          "duration": 0.04651162790696617
        },
        {
          "name": "F#4",
          "midi": 66,
          "time": 188.06976744183044,
          "velocity": 0.2992125984251969,
          "duration": 0.06976744186044925
        },
        {
          "name": "D3",
          "midi": 50,
          "time": 188.1162790697374,
          "velocity": 0.3937007874015748,
          "duration": 0.023255813953483084
        },
        {
          "name": "A3",
          "midi": 57,
          "time": 188.1162790697374,
          "velocity": 0.25196850393700787,
          "duration": 0.023255813953483084
        },
        {
          "name": "B6",
          "midi": 95,
          "time": 188.1162790697374,
          "velocity": 0.4015748031496063,
          "duration": 0.9418604651160649
        },
        {
          "name": "A2",
          "midi": 45,
          "time": 188.13953488369089,
          "velocity": 0.5748031496062992,
          "duration": 0.04651162790696617
        },
        {
          "name": "G7",
          "midi": 103,
          "time": 188.13953488369089,
          "velocity": 0.10236220472440945,
          "duration": 0.034883720930224626
        },
        {
          "name": "F#4",
          "midi": 66,
          "time": 188.15116279066763,
          "velocity": 0.2677165354330709,
          "duration": 0.04651162790696617
        },
        {
          "name": "D5",
          "midi": 74,
          "time": 188.15116279066763,
          "velocity": 0.14173228346456693,
          "duration": 0.04651162790696617
        },
        {
          "name": "B1",
          "midi": 35,
          "time": 188.16279069764437,
          "velocity": 0.5196850393700787,
          "duration": 0.011627906976741542
        },
        {
          "name": "C#4",
          "midi": 61,
          "time": 188.16279069764437,
          "velocity": 0.3543307086614173,
          "duration": 0.04651162790696617
        },
        {
          "name": "C#6",
          "midi": 85,
          "time": 188.16279069764437,
          "velocity": 0.09448818897637795,
          "duration": 0.04651162790696617
        },
        {
          "name": "C7",
          "midi": 96,
          "time": 188.16279069764437,
          "velocity": 0.10236220472440945,
          "duration": 0.05813953488370771
        },
        {
          "name": "G5",
          "midi": 79,
          "time": 188.1744186046211,
          "velocity": 0.2204724409448819,
          "duration": 0.034883720930224626
        },
        {
          "name": "B5",
          "midi": 83,
          "time": 188.1744186046211,
          "velocity": 0.1889763779527559,
          "duration": 0.10465116279067388
        },
        {
          "name": "D7",
          "midi": 98,
          "time": 188.1744186046211,
          "velocity": 0.2204724409448819,
          "duration": 0.24418604651157239
        },
        {
          "name": "B2",
          "midi": 47,
          "time": 188.18604651159785,
          "velocity": 0.5669291338582677,
          "duration": 0.011627906976741542
        },
        {
          "name": "C3",
          "midi": 48,
          "time": 188.1976744185746,
          "velocity": 0.5748031496062992,
          "duration": 0.023255813953483084
        },
        {
          "name": "G3",
          "midi": 55,
          "time": 188.20930232555133,
          "velocity": 0.4645669291338583,
          "duration": 0.09302325581393234
        },
        {
          "name": "C#3",
          "midi": 49,
          "time": 188.22093023252808,
          "velocity": 0.5590551181102362,
          "duration": 0.023255813953483084
        },
        {
          "name": "G5",
          "midi": 79,
          "time": 188.22093023252808,
          "velocity": 0.2125984251968504,
          "duration": 0.0813953488371908
        },
        {
          "name": "E7",
          "midi": 100,
          "time": 188.22093023252808,
          "velocity": 0.14173228346456693,
          "duration": 0.06976744186044925
        },
        {
          "name": "F7",
          "midi": 101,
          "time": 188.22093023252808,
          "velocity": 0.09448818897637795,
          "duration": 0.034883720930224626
        },
        {
          "name": "F2",
          "midi": 41,
          "time": 188.23255813950482,
          "velocity": 0.5039370078740157,
          "duration": 0.034883720930224626
        },
        {
          "name": "E4",
          "midi": 64,
          "time": 188.23255813950482,
          "velocity": 0.11811023622047244,
          "duration": 0.06976744186044925
        },
        {
          "name": "C3",
          "midi": 48,
          "time": 188.24418604648156,
          "velocity": 0.5433070866141733,
          "duration": 0.011627906976741542
        },
        {
          "name": "C#3",
          "midi": 49,
          "time": 188.2558139534583,
          "velocity": 0.5590551181102362,
          "duration": 0.011627906976741542
        },
        {
          "name": "E5",
          "midi": 76,
          "time": 188.2558139534583,
          "velocity": 0.3700787401574803,
          "duration": 0.5465116279068525
        },
        {
          "name": "A6",
          "midi": 93,
          "time": 188.2558139534583,
          "velocity": 0.2125984251968504,
          "duration": 0.24418604651157239
        },
        {
          "name": "C3",
          "midi": 48,
          "time": 188.26744186043504,
          "velocity": 0.5354330708661418,
          "duration": 0.034883720930224626
        },
        {
          "name": "A4",
          "midi": 69,
          "time": 188.29069767438853,
          "velocity": 0.1889763779527559,
          "duration": 0.034883720930224626
        },
        {
          "name": "C3",
          "midi": 48,
          "time": 188.32558139531875,
          "velocity": 0.30708661417322836,
          "duration": 0.023255813953483084
        },
        {
          "name": "E4",
          "midi": 64,
          "time": 188.32558139531875,
          "velocity": 0.30708661417322836,
          "duration": 0.06976744186044925
        },
        {
          "name": "E7",
          "midi": 100,
          "time": 188.32558139531875,
          "velocity": 0.12598425196850394,
          "duration": 0.05813953488370771
        },
        {
          "name": "F#5",
          "midi": 78,
          "time": 188.3372093022955,
          "velocity": 0.2047244094488189,
          "duration": 0.05813953488370771
        },
        {
          "name": "F#3",
          "midi": 54,
          "time": 188.34883720927223,
          "velocity": 0.31496062992125984,
          "duration": 0.023255813953483084
        },
        {
          "name": "D#7",
          "midi": 99,
          "time": 188.34883720927223,
          "velocity": 0.09448818897637795,
          "duration": 0.06976744186044925
        },
        {
          "name": "F#7",
          "midi": 102,
          "time": 188.34883720927223,
          "velocity": 0.13385826771653545,
          "duration": 0.10465116279067388
        },
        {
          "name": "A2",
          "midi": 45,
          "time": 188.36046511624897,
          "velocity": 0.5905511811023622,
          "duration": 0.04651162790696617
        },
        {
          "name": "D5",
          "midi": 74,
          "time": 188.36046511624897,
          "velocity": 0.29133858267716534,
          "duration": 0.4186046511626955
        },
        {
          "name": "B5",
          "midi": 83,
          "time": 188.36046511624897,
          "velocity": 0.2125984251968504,
          "duration": 0.10465116279067388
        },
        {
          "name": "B1",
          "midi": 35,
          "time": 188.37209302322572,
          "velocity": 0.5196850393700787,
          "duration": 0.011627906976741542
        },
        {
          "name": "A5",
          "midi": 81,
          "time": 188.37209302322572,
          "velocity": 0.07086614173228346,
          "duration": 0.034883720930224626
        },
        {
          "name": "C7",
          "midi": 96,
          "time": 188.37209302322572,
          "velocity": 0.07874015748031496,
          "duration": 0.06976744186044925
        },
        {
          "name": "C#7",
          "midi": 97,
          "time": 188.37209302322572,
          "velocity": 0.14173228346456693,
          "duration": 0.06976744186044925
        },
        {
          "name": "G4",
          "midi": 67,
          "time": 188.38372093020246,
          "velocity": 0.5118110236220472,
          "duration": 1.4767441860461759
        },
        {
          "name": "B2",
          "midi": 47,
          "time": 188.40697674415594,
          "velocity": 0.5826771653543307,
          "duration": 0.023255813953483084
        },
        {
          "name": "A4",
          "midi": 69,
          "time": 188.40697674415594,
          "velocity": 0.1732283464566929,
          "duration": 0.12790697674415696
        },
        {
          "name": "C3",
          "midi": 48,
          "time": 188.43023255810942,
          "velocity": 0.5826771653543307,
          "duration": 0.011627906976741542
        },
        {
          "name": "E4",
          "midi": 64,
          "time": 188.43023255810942,
          "velocity": 0.3464566929133858,
          "duration": 0.5697674418603356
        },
        {
          "name": "C#3",
          "midi": 49,
          "time": 188.44186046508617,
          "velocity": 0.5748031496062992,
          "duration": 0.011627906976741542
        },
        {
          "name": "G3",
          "midi": 55,
          "time": 188.44186046508617,
          "velocity": 0.4881889763779528,
          "duration": 0.12790697674415696
        },
        {
          "name": "D7",
          "midi": 98,
          "time": 188.44186046508617,
          "velocity": 0.12598425196850394,
          "duration": 0.034883720930224626
        },
        {
          "name": "C3",
          "midi": 48,
          "time": 188.4534883720629,
          "velocity": 0.5905511811023622,
          "duration": 0.0813953488371908
        },
        {
          "name": "F2",
          "midi": 41,
          "time": 188.46511627903965,
          "velocity": 0.5118110236220472,
          "duration": 0.011627906976741542
        },
        {
          "name": "F#7",
          "midi": 102,
          "time": 188.46511627903965,
          "velocity": 0.1889763779527559,
          "duration": 0.20930232558134776
        },
        {
          "name": "B5",
          "midi": 83,
          "time": 188.49999999996987,
          "velocity": 0.14960629921259844,
          "duration": 0.06976744186044925
        },
        {
          "name": "A6",
          "midi": 93,
          "time": 188.5348837209001,
          "velocity": 0.11811023622047244,
          "duration": 0.034883720930224626
        },
        {
          "name": "B2",
          "midi": 47,
          "time": 188.54651162787684,
          "velocity": 0.49606299212598426,
          "duration": 0.023255813953483084
        },
        {
          "name": "A4",
          "midi": 69,
          "time": 188.56976744183032,
          "velocity": 0.1889763779527559,
          "duration": 0.04651162790696617
        },
        {
          "name": "D#7",
          "midi": 99,
          "time": 188.56976744183032,
          "velocity": 0.14173228346456693,
          "duration": 0.11627906976741542
        },
        {
          "name": "A5",
          "midi": 81,
          "time": 188.58139534880706,
          "velocity": 0.25984251968503935,
          "duration": 0.37209302325572935
        },
        {
          "name": "D7",
          "midi": 98,
          "time": 188.58139534880706,
          "velocity": 0.25984251968503935,
          "duration": 0.26744186046505547
        },
        {
          "name": "B5",
          "midi": 83,
          "time": 188.5930232557838,
          "velocity": 0.11023622047244094,
          "duration": 0.04651162790696617
        },
        {
          "name": "C7",
          "midi": 96,
          "time": 188.5930232557838,
          "velocity": 0.14960629921259844,
          "duration": 0.0813953488371908
        },
        {
          "name": "G7",
          "midi": 103,
          "time": 188.60465116276055,
          "velocity": 0.10236220472440945,
          "duration": 0.04651162790696617
        },
        {
          "name": "D3",
          "midi": 50,
          "time": 188.6162790697373,
          "velocity": 0.3700787401574803,
          "duration": 0.023255813953483084
        },
        {
          "name": "G#3",
          "midi": 56,
          "time": 188.6162790697373,
          "velocity": 0.2992125984251969,
          "duration": 0.023255813953483084
        },
        {
          "name": "F#5",
          "midi": 78,
          "time": 188.6162790697373,
          "velocity": 0.08661417322834646,
          "duration": 0.04651162790696617
        },
        {
          "name": "A#4",
          "midi": 70,
          "time": 188.63953488369077,
          "velocity": 0.2125984251968504,
          "duration": 0.15116279069764005
        },
        {
          "name": "C#7",
          "midi": 97,
          "time": 188.63953488369077,
          "velocity": 0.2755905511811024,
          "duration": 0.2209302325580893
        },
        {
          "name": "C3",
          "midi": 48,
          "time": 188.66279069764425,
          "velocity": 0.41732283464566927,
          "duration": 0.023255813953483084
        },
        {
          "name": "F#6",
          "midi": 90,
          "time": 188.66279069764425,
          "velocity": 0.10236220472440945,
          "duration": 0.10465116279067388
        },
        {
          "name": "G3",
          "midi": 55,
          "time": 188.674418604621,
          "velocity": 0.30708661417322836,
          "duration": 0.034883720930224626
        },
        {
          "name": "C#3",
          "midi": 49,
          "time": 188.68604651159774,
          "velocity": 0.41732283464566927,
          "duration": 0.023255813953483084
        },
        {
          "name": "F7",
          "midi": 101,
          "time": 188.68604651159774,
          "velocity": 0.10236220472440945,
          "duration": 0.09302325581393234
        },
        {
          "name": "F#7",
          "midi": 102,
          "time": 188.69767441857448,
          "velocity": 0.2125984251968504,
          "duration": 1.2558139534880866
        },
        {
          "name": "C3",
          "midi": 48,
          "time": 188.70930232555122,
          "velocity": 0.4251968503937008,
          "duration": 0.06976744186044925
        },
        {
          "name": "G#3",
          "midi": 56,
          "time": 188.70930232555122,
          "velocity": 0.25196850393700787,
          "duration": 0.023255813953483084
        },
        {
          "name": "D#7",
          "midi": 99,
          "time": 188.72093023252796,
          "velocity": 0.10236220472440945,
          "duration": 0.06976744186044925
        },
        {
          "name": "E2",
          "midi": 40,
          "time": 188.7558139534582,
          "velocity": 0.4015748031496063,
          "duration": 0.034883720930224626
        },
        {
          "name": "D#6",
          "midi": 87,
          "time": 188.7558139534582,
          "velocity": 0.09448818897637795,
          "duration": 0.05813953488370771
        },
        {
          "name": "D#5",
          "midi": 75,
          "time": 188.7906976743884,
          "velocity": 0.2047244094488189,
          "duration": 0.034883720930224626
        },
        {
          "name": "B5",
          "midi": 83,
          "time": 188.7906976743884,
          "velocity": 0.1889763779527559,
          "duration": 0.18604651162786467
        },
        {
          "name": "E7",
          "midi": 100,
          "time": 188.7906976743884,
          "velocity": 0.07086614173228346,
          "duration": 0.06976744186044925
        },
        {
          "name": "C3",
          "midi": 48,
          "time": 188.80232558136515,
          "velocity": 0.5275590551181102,
          "duration": 0.011627906976741542
        },
        {
          "name": "A#4",
          "midi": 70,
          "time": 188.80232558136515,
          "velocity": 0.1889763779527559,
          "duration": 0.04651162790696617
        },
        {
          "name": "D#7",
          "midi": 99,
          "time": 188.80232558136515,
          "velocity": 0.11023622047244094,
          "duration": 0.0813953488371908
        },
        {
          "name": "A2",
          "midi": 45,
          "time": 188.8139534883419,
          "velocity": 0.5984251968503937,
          "duration": 0.011627906976741542
        },
        {
          "name": "D5",
          "midi": 74,
          "time": 188.8139534883419,
          "velocity": 0.3700787401574803,
          "duration": 0.20930232558134776
        },
        {
          "name": "E6",
          "midi": 88,
          "time": 188.8139534883419,
          "velocity": 0.2440944881889764,
          "duration": 0.04651162790696617
        },
        {
          "name": "A#2",
          "midi": 46,
          "time": 188.82558139531864,
          "velocity": 0.5275590551181102,
          "duration": 0.011627906976741542
        },
        {
          "name": "E5",
          "midi": 76,
          "time": 188.82558139531864,
          "velocity": 0.3543307086614173,
          "duration": 0.8953488372090987
        },
        {
          "name": "F7",
          "midi": 101,
          "time": 188.82558139531864,
          "velocity": 0.09448818897637795,
          "duration": 0.034883720930224626
        },
        {
          "name": "E2",
          "midi": 40,
          "time": 188.83720930229538,
          "velocity": 0.4881889763779528,
          "duration": 0.034883720930224626
        },
        {
          "name": "B2",
          "midi": 47,
          "time": 188.83720930229538,
          "velocity": 0.5275590551181102,
          "duration": 0.023255813953483084
        },
        {
          "name": "G#3",
          "midi": 56,
          "time": 188.83720930229538,
          "velocity": 0.30708661417322836,
          "duration": 0.034883720930224626
        },
        {
          "name": "C#4",
          "midi": 61,
          "time": 188.83720930229538,
          "velocity": 0.33858267716535434,
          "duration": 0.023255813953483084
        },
        {
          "name": "C7",
          "midi": 96,
          "time": 188.84883720927212,
          "velocity": 0.14960629921259844,
          "duration": 0.034883720930224626
        },
        {
          "name": "D3",
          "midi": 50,
          "time": 188.86046511624886,
          "velocity": 0.5590551181102362,
          "duration": 0.011627906976741542
        },
        {
          "name": "C4",
          "midi": 60,
          "time": 188.86046511624886,
          "velocity": 0.33070866141732286,
          "duration": 0.05813953488370771
        },
        {
          "name": "C#3",
          "midi": 49,
          "time": 188.8720930232256,
          "velocity": 0.5905511811023622,
          "duration": 0.011627906976741542
        },
        {
          "name": "G3",
          "midi": 55,
          "time": 188.8720930232256,
          "velocity": 0.3779527559055118,
          "duration": 0.05813953488370771
        },
        {
          "name": "D7",
          "midi": 98,
          "time": 188.8720930232256,
          "velocity": 0.08661417322834646,
          "duration": 0.04651162790696617
        },
        {
          "name": "C3",
          "midi": 48,
          "time": 188.88372093020234,
          "velocity": 0.5826771653543307,
          "duration": 0.011627906976741542
        },
        {
          "name": "C#3",
          "midi": 49,
          "time": 188.89534883717909,
          "velocity": 0.5669291338582677,
          "duration": 0.023255813953483084
        },
        {
          "name": "C3",
          "midi": 48,
          "time": 188.91860465113257,
          "velocity": 0.4881889763779528,
          "duration": 0.023255813953483084
        },
        {
          "name": "A#2",
          "midi": 46,
          "time": 188.94186046508605,
          "velocity": 0.3858267716535433,
          "duration": 0.023255813953483084
        },
        {
          "name": "C#4",
          "midi": 61,
          "time": 188.97674418601628,
          "velocity": 0.2755905511811024,
          "duration": 0.023255813953483084
        },
        {
          "name": "A#3",
          "midi": 58,
          "time": 188.99999999996976,
          "velocity": 0.48031496062992124,
          "duration": 0.034883720930224626
        },
        {
          "name": "A6",
          "midi": 93,
          "time": 188.99999999996976,
          "velocity": 0.14960629921259844,
          "duration": 0.034883720930224626
        },
        {
          "name": "C#7",
          "midi": 97,
          "time": 188.99999999996976,
          "velocity": 0.15748031496062992,
          "duration": 0.09302325581393234
        },
        {
          "name": "D7",
          "midi": 98,
          "time": 188.99999999996976,
          "velocity": 0.15748031496062992,
          "duration": 0.0813953488371908
        },
        {
          "name": "E4",
          "midi": 64,
          "time": 189.0116279069465,
          "velocity": 0.4015748031496063,
          "duration": 0.034883720930224626
        },
        {
          "name": "C6",
          "midi": 84,
          "time": 189.0116279069465,
          "velocity": 0.11811023622047244,
          "duration": 0.06976744186044925
        },
        {
          "name": "F#6",
          "midi": 90,
          "time": 189.0116279069465,
          "velocity": 0.23622047244094488,
          "duration": 0.05813953488370771
        },
        {
          "name": "G#6",
          "midi": 92,
          "time": 189.0116279069465,
          "velocity": 0.11023622047244094,
          "duration": 0.034883720930224626
        },
        {
          "name": "A#6",
          "midi": 94,
          "time": 189.0116279069465,
          "velocity": 0.09448818897637795,
          "duration": 0.05813953488370771
        },
        {
          "name": "C7",
          "midi": 96,
          "time": 189.0116279069465,
          "velocity": 0.14173228346456693,
          "duration": 0.06976744186044925
        },
        {
          "name": "D#7",
          "midi": 99,
          "time": 189.0116279069465,
          "velocity": 0.11811023622047244,
          "duration": 0.09302325581393234
        },
        {
          "name": "F7",
          "midi": 101,
          "time": 189.0116279069465,
          "velocity": 0.11023622047244094,
          "duration": 0.06976744186044925
        },
        {
          "name": "G#2",
          "midi": 44,
          "time": 189.02325581392324,
          "velocity": 0.5826771653543307,
          "duration": 0.023255813953483084
        },
        {
          "name": "C4",
          "midi": 60,
          "time": 189.02325581392324,
          "velocity": 0.4094488188976378,
          "duration": 0.034883720930224626
        },
        {
          "name": "C#5",
          "midi": 73,
          "time": 189.02325581392324,
          "velocity": 0.2992125984251969,
          "duration": 0.023255813953483084
        },
        {
          "name": "G7",
          "midi": 103,
          "time": 189.02325581392324,
          "velocity": 0.13385826771653545,
          "duration": 0.034883720930224626
        },
        {
          "name": "B5",
          "midi": 83,
          "time": 189.03488372089998,
          "velocity": 0.11811023622047244,
          "duration": 0.0813953488371908
        },
        {
          "name": "D6",
          "midi": 86,
          "time": 189.03488372089998,
          "velocity": 0.11811023622047244,
          "duration": 0.0813953488371908
        },
        {
          "name": "B2",
          "midi": 47,
          "time": 189.04651162787673,
          "velocity": 0.5826771653543307,
          "duration": 0.023255813953483084
        },
        {
          "name": "D5",
          "midi": 74,
          "time": 189.04651162787673,
          "velocity": 0.25196850393700787,
          "duration": 0.06976744186044925
        },
        {
          "name": "F6",
          "midi": 89,
          "time": 189.04651162787673,
          "velocity": 0.08661417322834646,
          "duration": 0.04651162790696617
        },
        {
          "name": "C3",
          "midi": 48,
          "time": 189.0697674418302,
          "velocity": 0.5905511811023622,
          "duration": 0.011627906976741542
        },
        {
          "name": "B6",
          "midi": 95,
          "time": 189.0697674418302,
          "velocity": 0.4330708661417323,
          "duration": 1.0697674418602219
        },
        {
          "name": "C#3",
          "midi": 49,
          "time": 189.08139534880695,
          "velocity": 0.5984251968503937,
          "duration": 0.011627906976741542
        },
        {
          "name": "G3",
          "midi": 55,
          "time": 189.08139534880695,
          "velocity": 0.48031496062992124,
          "duration": 0.12790697674415696
        },
        {
          "name": "E4",
          "midi": 64,
          "time": 189.08139534880695,
          "velocity": 0.2992125984251969,
          "duration": 0.1395348837208985
        },
        {
          "name": "C3",
          "midi": 48,
          "time": 189.0930232557837,
          "velocity": 0.5984251968503937,
          "duration": 0.023255813953483084
        },
        {
          "name": "F2",
          "midi": 41,
          "time": 189.10465116276043,
          "velocity": 0.5118110236220472,
          "duration": 0.011627906976741542
        },
        {
          "name": "C#3",
          "midi": 49,
          "time": 189.11627906973717,
          "velocity": 0.5826771653543307,
          "duration": 0.011627906976741542
        },
        {
          "name": "C4",
          "midi": 60,
          "time": 189.11627906973717,
          "velocity": 0.3700787401574803,
          "duration": 0.023255813953483084
        },
        {
          "name": "C3",
          "midi": 48,
          "time": 189.12790697671392,
          "velocity": 0.6220472440944882,
          "duration": 0.09302325581393234
        },
        {
          "name": "D5",
          "midi": 74,
          "time": 189.12790697671392,
          "velocity": 0.14960629921259844,
          "duration": 0.06976744186044925
        },
        {
          "name": "B5",
          "midi": 83,
          "time": 189.17441860462088,
          "velocity": 0.15748031496062992,
          "duration": 0.12790697674415696
        },
        {
          "name": "D7",
          "midi": 98,
          "time": 189.17441860462088,
          "velocity": 0.11023622047244094,
          "duration": 0.04651162790696617
        },
        {
          "name": "F#3",
          "midi": 54,
          "time": 189.2093023255511,
          "velocity": 0.49606299212598426,
          "duration": 0.023255813953483084
        },
        {
          "name": "B2",
          "midi": 47,
          "time": 189.22093023252785,
          "velocity": 0.5748031496062992,
          "duration": 0.023255813953483084
        },
        {
          "name": "G3",
          "midi": 55,
          "time": 189.2325581395046,
          "velocity": 0.44881889763779526,
          "duration": 0.023255813953483084
        },
        {
          "name": "D5",
          "midi": 74,
          "time": 189.2325581395046,
          "velocity": 0.29133858267716534,
          "duration": 0.4186046511626955
        },
        {
          "name": "F#6",
          "midi": 90,
          "time": 189.2325581395046,
          "velocity": 0.07874015748031496,
          "duration": 0.04651162790696617
        },
        {
          "name": "C7",
          "midi": 96,
          "time": 189.2325581395046,
          "velocity": 0.13385826771653545,
          "duration": 0.0813953488371908
        },
        {
          "name": "C#7",
          "midi": 97,
          "time": 189.2325581395046,
          "velocity": 0.29133858267716534,
          "duration": 0.7790697674416833
        },
        {
          "name": "A#2",
          "midi": 46,
          "time": 189.24418604648133,
          "velocity": 0.6062992125984252,
          "duration": 0.011627906976741542
        },
        {
          "name": "D7",
          "midi": 98,
          "time": 189.24418604648133,
          "velocity": 0.25196850393700787,
          "duration": 0.11627906976741542
        },
        {
          "name": "G7",
          "midi": 103,
          "time": 189.24418604648133,
          "velocity": 0.16535433070866143,
          "duration": 0.06976744186044925
        },
        {
          "name": "F#2",
          "midi": 42,
          "time": 189.25581395345807,
          "velocity": 0.5275590551181102,
          "duration": 0.023255813953483084
        },
        {
          "name": "B2",
          "midi": 47,
          "time": 189.25581395345807,
          "velocity": 0.5039370078740157,
          "duration": 0.023255813953483084
        },
        {
          "name": "E7",
          "midi": 100,
          "time": 189.25581395345807,
          "velocity": 0.18110236220472442,
          "duration": 0.04651162790696617
        },
        {
          "name": "C4",
          "midi": 60,
          "time": 189.26744186043481,
          "velocity": 0.30708661417322836,
          "duration": 0.034883720930224626
        },
        {
          "name": "E4",
          "midi": 64,
          "time": 189.26744186043481,
          "velocity": 0.2992125984251969,
          "duration": 0.11627906976741542
        },
        {
          "name": "A2",
          "midi": 45,
          "time": 189.27906976741156,
          "velocity": 0.5590551181102362,
          "duration": 0.023255813953483084
        },
        {
          "name": "G#3",
          "midi": 56,
          "time": 189.27906976741156,
          "velocity": 0.2992125984251969,
          "duration": 0.023255813953483084
        },
        {
          "name": "A#4",
          "midi": 70,
          "time": 189.27906976741156,
          "velocity": 0.2125984251968504,
          "duration": 0.15116279069764005
        },
        {
          "name": "G3",
          "midi": 55,
          "time": 189.30232558136504,
          "velocity": 0.29133858267716534,
          "duration": 0.04651162790696617
        },
        {
          "name": "C#4",
          "midi": 61,
          "time": 189.30232558136504,
          "velocity": 0.18110236220472442,
          "duration": 0.034883720930224626
        },
        {
          "name": "F7",
          "midi": 101,
          "time": 189.30232558136504,
          "velocity": 0.07874015748031496,
          "duration": 0.0813953488371908
        },
        {
          "name": "C3",
          "midi": 48,
          "time": 189.32558139531852,
          "velocity": 0.4645669291338583,
          "duration": 0.06976744186044925
        },
        {
          "name": "G7",
          "midi": 103,
          "time": 189.348837209272,
          "velocity": 0.11023622047244094,
          "duration": 0.05813953488370771
        },
        {
          "name": "B5",
          "midi": 83,
          "time": 189.36046511624875,
          "velocity": 0.14173228346456693,
          "duration": 0.2209302325580893
        },
        {
          "name": "E4",
          "midi": 64,
          "time": 189.39534883717897,
          "velocity": 0.33070866141732286,
          "duration": 0.1395348837208985
        },
        {
          "name": "D7",
          "midi": 98,
          "time": 189.39534883717897,
          "velocity": 0.2204724409448819,
          "duration": 0.034883720930224626
        },
        {
          "name": "C3",
          "midi": 48,
          "time": 189.4069767441557,
          "velocity": 0.4566929133858268,
          "duration": 0.023255813953483084
        },
        {
          "name": "D#6",
          "midi": 87,
          "time": 189.41860465113245,
          "velocity": 0.11811023622047244,
          "duration": 0.0813953488371908
        },
        {
          "name": "C7",
          "midi": 96,
          "time": 189.41860465113245,
          "velocity": 0.10236220472440945,
          "duration": 0.034883720930224626
        },
        {
          "name": "E7",
          "midi": 100,
          "time": 189.4302325581092,
          "velocity": 0.15748031496062992,
          "duration": 0.2209302325580893
        },
        {
          "name": "G3",
          "midi": 55,
          "time": 189.44186046508594,
          "velocity": 0.2677165354330709,
          "duration": 0.023255813953483084
        },
        {
          "name": "A5",
          "midi": 81,
          "time": 189.44186046508594,
          "velocity": 0.28346456692913385,
          "duration": 0.3372093023255047
        },
        {
          "name": "D7",
          "midi": 98,
          "time": 189.44186046508594,
          "velocity": 0.16535433070866143,
          "duration": 0.04651162790696617
        },
        {
          "name": "A#4",
          "midi": 70,
          "time": 189.45348837206268,
          "velocity": 0.2440944881889764,
          "duration": 0.09302325581393234
        },
        {
          "name": "F#5",
          "midi": 78,
          "time": 189.45348837206268,
          "velocity": 0.16535433070866143,
          "duration": 0.05813953488370771
        },
        {
          "name": "F7",
          "midi": 101,
          "time": 189.45348837206268,
          "velocity": 0.10236220472440945,
          "duration": 0.034883720930224626
        },
        {
          "name": "G7",
          "midi": 103,
          "time": 189.45348837206268,
          "velocity": 0.16535433070866143,
          "duration": 0.06976744186044925
        },
        {
          "name": "G6",
          "midi": 91,
          "time": 189.47674418601616,
          "velocity": 0.08661417322834646,
          "duration": 0.034883720930224626
        },
        {
          "name": "C3",
          "midi": 48,
          "time": 189.4883720929929,
          "velocity": 0.5275590551181102,
          "duration": 0.04651162790696617
        },
        {
          "name": "C7",
          "midi": 96,
          "time": 189.4883720929929,
          "velocity": 0.2047244094488189,
          "duration": 0.2558139534883139
        },
        {
          "name": "C#3",
          "midi": 49,
          "time": 189.53488372089987,
          "velocity": 0.5118110236220472,
          "duration": 0.011627906976741542
        },
        {
          "name": "G3",
          "midi": 55,
          "time": 189.53488372089987,
          "velocity": 0.2125984251968504,
          "duration": 0.034883720930224626
        },
        {
          "name": "C3",
          "midi": 48,
          "time": 189.5465116278766,
          "velocity": 0.5275590551181102,
          "duration": 0.023255813953483084
        },
        {
          "name": "D4",
          "midi": 62,
          "time": 189.55813953485335,
          "velocity": 0.11811023622047244,
          "duration": 0.034883720930224626
        },
        {
          "name": "A#4",
          "midi": 70,
          "time": 189.55813953485335,
          "velocity": 0.15748031496062992,
          "duration": 0.10465116279067388
        },
        {
          "name": "D7",
          "midi": 98,
          "time": 189.55813953485335,
          "velocity": 0.2204724409448819,
          "duration": 0.37209302325572935
        },
        {
          "name": "C#3",
          "midi": 49,
          "time": 189.5697674418301,
          "velocity": 0.3779527559055118,
          "duration": 0.034883720930224626
        },
        {
          "name": "C4",
          "midi": 60,
          "time": 189.58139534880684,
          "velocity": 0.30708661417322836,
          "duration": 0.12790697674415696
        },
        {
          "name": "G3",
          "midi": 55,
          "time": 189.59302325578358,
          "velocity": 0.3937007874015748,
          "duration": 0.1627906976743816
        },
        {
          "name": "C3",
          "midi": 48,
          "time": 189.60465116276032,
          "velocity": 0.47244094488188976,
          "duration": 0.023255813953483084
        },
        {
          "name": "D#7",
          "midi": 99,
          "time": 189.60465116276032,
          "velocity": 0.13385826771653545,
          "duration": 0.09302325581393234
        },
        {
          "name": "E4",
          "midi": 64,
          "time": 189.61627906973706,
          "velocity": 0.2677165354330709,
          "duration": 0.05813953488370771
        },
        {
          "name": "B5",
          "midi": 83,
          "time": 189.61627906973706,
          "velocity": 0.2283464566929134,
          "duration": 0.10465116279067388
        },
        {
          "name": "C3",
          "midi": 48,
          "time": 189.63953488369054,
          "velocity": 0.5196850393700787,
          "duration": 0.023255813953483084
        },
        {
          "name": "D5",
          "midi": 74,
          "time": 189.66279069764403,
          "velocity": 0.18110236220472442,
          "duration": 0.19767441860460622
        },
        {
          "name": "F7",
          "midi": 101,
          "time": 189.66279069764403,
          "velocity": 0.09448818897637795,
          "duration": 0.034883720930224626
        },
        {
          "name": "C3",
          "midi": 48,
          "time": 189.67441860462077,
          "velocity": 0.5275590551181102,
          "duration": 0.023255813953483084
        },
        {
          "name": "G7",
          "midi": 103,
          "time": 189.6860465115975,
          "velocity": 0.10236220472440945,
          "duration": 0.06976744186044925
        },
        {
          "name": "E4",
          "midi": 64,
          "time": 189.69767441857425,
          "velocity": 0.3464566929133858,
          "duration": 0.17441860465112313
        },
        {
          "name": "A#4",
          "midi": 70,
          "time": 189.69767441857425,
          "velocity": 0.13385826771653545,
          "duration": 0.09302325581393234
        },
        {
          "name": "C4",
          "midi": 60,
          "time": 189.72093023252773,
          "velocity": 0.23622047244094488,
          "duration": 0.023255813953483084
        },
        {
          "name": "D#7",
          "midi": 99,
          "time": 189.73255813950448,
          "velocity": 0.11811023622047244,
          "duration": 0.0813953488371908
        },
        {
          "name": "F7",
          "midi": 101,
          "time": 189.73255813950448,
          "velocity": 0.11811023622047244,
          "duration": 0.05813953488370771
        },
        {
          "name": "G#2",
          "midi": 44,
          "time": 189.75581395345796,
          "velocity": 0.33070866141732286,
          "duration": 0.023255813953483084
        },
        {
          "name": "B5",
          "midi": 83,
          "time": 189.7674418604347,
          "velocity": 0.16535433070866143,
          "duration": 0.06976744186044925
        },
        {
          "name": "C3",
          "midi": 48,
          "time": 189.77906976741144,
          "velocity": 0.4094488188976378,
          "duration": 0.023255813953483084
        },
        {
          "name": "C#4",
          "midi": 61,
          "time": 189.77906976741144,
          "velocity": 0.2992125984251969,
          "duration": 0.023255813953483084
        },
        {
          "name": "G7",
          "midi": 103,
          "time": 189.79069767438818,
          "velocity": 0.1732283464566929,
          "duration": 0.11627906976741542
        },
        {
          "name": "G3",
          "midi": 55,
          "time": 189.80232558136493,
          "velocity": 0.36220472440944884,
          "duration": 0.05813953488370771
        },
        {
          "name": "A#4",
          "midi": 70,
          "time": 189.80232558136493,
          "velocity": 0.18110236220472442,
          "duration": 0.06976744186044925
        },
        {
          "name": "E2",
          "midi": 40,
          "time": 189.8255813953184,
          "velocity": 0.4330708661417323,
          "duration": 0.023255813953483084
        },
        {
          "name": "C4",
          "midi": 60,
          "time": 189.8255813953184,
          "velocity": 0.16535433070866143,
          "duration": 0.034883720930224626
        },
        {
          "name": "G#4",
          "midi": 68,
          "time": 189.86046511624863,
          "velocity": 0.23622047244094488,
          "duration": 0.023255813953483084
        },
        {
          "name": "B5",
          "midi": 83,
          "time": 189.86046511624863,
          "velocity": 0.16535433070866143,
          "duration": 0.0813953488371908
        },
        {
          "name": "C#6",
          "midi": 85,
          "time": 189.86046511624863,
          "velocity": 0.2440944881889764,
          "duration": 0.023255813953483084
        },
        {
          "name": "F7",
          "midi": 101,
          "time": 189.86046511624863,
          "velocity": 0.09448818897637795,
          "duration": 0.04651162790696617
        },
        {
          "name": "F2",
          "midi": 41,
          "time": 189.87209302322537,
          "velocity": 0.5118110236220472,
          "duration": 0.011627906976741542
        },
        {
          "name": "A#3",
          "midi": 58,
          "time": 189.87209302322537,
          "velocity": 0.3858267716535433,
          "duration": 0.023255813953483084
        },
        {
          "name": "D4",
          "midi": 62,
          "time": 189.87209302322537,
          "velocity": 0.4251968503937008,
          "duration": 0.023255813953483084
        },
        {
          "name": "A5",
          "midi": 81,
          "time": 189.87209302322537,
          "velocity": 0.4094488188976378,
          "duration": 0.5465116279068525
        },
        {
          "name": "D#6",
          "midi": 87,
          "time": 189.87209302322537,
          "velocity": 0.15748031496062992,
          "duration": 0.12790697674415696
        },
        {
          "name": "A6",
          "midi": 93,
          "time": 189.87209302322537,
          "velocity": 0.48031496062992124,
          "duration": 1.3139534883717943
        },
        {
          "name": "D#7",
          "midi": 99,
          "time": 189.87209302322537,
          "velocity": 0.18110236220472442,
          "duration": 0.1627906976743816
        },
        {
          "name": "E7",
          "midi": 100,
          "time": 189.87209302322537,
          "velocity": 0.25984251968503935,
          "duration": 0.11627906976741542
        },
        {
          "name": "D3",
          "midi": 50,
          "time": 189.88372093020212,
          "velocity": 0.5590551181102362,
          "duration": 0.05813953488370771
        },
        {
          "name": "C6",
          "midi": 84,
          "time": 189.88372093020212,
          "velocity": 0.14173228346456693,
          "duration": 0.12790697674415696
        },
        {
          "name": "D6",
          "midi": 86,
          "time": 189.88372093020212,
          "velocity": 0.29133858267716534,
          "duration": 0.0813953488371908
        },
        {
          "name": "E2",
          "midi": 40,
          "time": 189.89534883717886,
          "velocity": 0.4645669291338583,
          "duration": 0.023255813953483084
        },
        {
          "name": "A3",
          "midi": 57,
          "time": 189.89534883717886,
          "velocity": 0.4645669291338583,
          "duration": 0.034883720930224626
        },
        {
          "name": "C5",
          "midi": 72,
          "time": 189.89534883717886,
          "velocity": 0.15748031496062992,
          "duration": 0.1395348837208985
        },
        {
          "name": "F2",
          "midi": 41,
          "time": 189.91860465113234,
          "velocity": 0.5196850393700787,
          "duration": 0.023255813953483084
        },
        {
          "name": "C#3",
          "midi": 49,
          "time": 189.94186046508582,
          "velocity": 0.6141732283464567,
          "duration": 0.011627906976741542
        },
        {
          "name": "D3",
          "midi": 50,
          "time": 189.95348837206257,
          "velocity": 0.6299212598425197,
          "duration": 0.04651162790696617
        },
        {
          "name": "E6",
          "midi": 88,
          "time": 189.97674418601605,
          "velocity": 0.12598425196850394,
          "duration": 0.04651162790696617
        },
        {
          "name": "A2",
          "midi": 45,
          "time": 189.9883720929928,
          "velocity": 0.5669291338582677,
          "duration": 0.011627906976741542
        },
        {
          "name": "A4",
          "midi": 69,
          "time": 189.9883720929928,
          "velocity": 0.14960629921259844,
          "duration": 0.04651162790696617
        },
        {
          "name": "C3",
          "midi": 48,
          "time": 189.99999999996953,
          "velocity": 0.6062992125984252,
          "duration": 0.011627906976741542
        },
        {
          "name": "G4",
          "midi": 67,
          "time": 189.99999999996953,
          "velocity": 0.23622047244094488,
          "duration": 0.0813953488371908
        },
        {
          "name": "A2",
          "midi": 45,
          "time": 190.01162790694627,
          "velocity": 0.5196850393700787,
          "duration": 0.011627906976741542
        },
        {
          "name": "D3",
          "midi": 50,
          "time": 190.01162790694627,
          "velocity": 0.5275590551181102,
          "duration": 0.011627906976741542
        },
        {
          "name": "E7",
          "midi": 100,
          "time": 190.03488372089976,
          "velocity": 0.33070866141732286,
          "duration": 0.5348837209301109
        },
        {
          "name": "A3",
          "midi": 57,
          "time": 190.0465116278765,
          "velocity": 0.4409448818897638,
          "duration": 0.10465116279067388
        },
        {
          "name": "E5",
          "midi": 76,
          "time": 190.06976744182998,
          "velocity": 0.36220472440944884,
          "duration": 0.05813953488370771
        },
        {
          "name": "F#5",
          "midi": 78,
          "time": 190.06976744182998,
          "velocity": 0.29133858267716534,
          "duration": 0.2209302325580893
        },
        {
          "name": "F2",
          "midi": 41,
          "time": 190.08139534880672,
          "velocity": 0.5196850393700787,
          "duration": 0.011627906976741542
        },
        {
          "name": "F#4",
          "midi": 66,
          "time": 190.08139534880672,
          "velocity": 0.29133858267716534,
          "duration": 0.15116279069764005
        },
        {
          "name": "C7",
          "midi": 96,
          "time": 190.08139534880672,
          "velocity": 0.09448818897637795,
          "duration": 0.0813953488371908
        },
        {
          "name": "C#7",
          "midi": 97,
          "time": 190.08139534880672,
          "velocity": 0.1968503937007874,
          "duration": 0.06976744186044925
        },
        {
          "name": "D7",
          "midi": 98,
          "time": 190.08139534880672,
          "velocity": 0.15748031496062992,
          "duration": 0.04651162790696617
        },
        {
          "name": "D#7",
          "midi": 99,
          "time": 190.08139534880672,
          "velocity": 0.12598425196850394,
          "duration": 0.034883720930224626
        },
        {
          "name": "D3",
          "midi": 50,
          "time": 190.1046511627602,
          "velocity": 0.6141732283464567,
          "duration": 0.10465116279067388
        },
        {
          "name": "E2",
          "midi": 40,
          "time": 190.11627906973695,
          "velocity": 0.4645669291338583,
          "duration": 0.023255813953483084
        },
        {
          "name": "E5",
          "midi": 76,
          "time": 190.13953488369043,
          "velocity": 0.1968503937007874,
          "duration": 0.034883720930224626
        },
        {
          "name": "B6",
          "midi": 95,
          "time": 190.17441860462066,
          "velocity": 0.1889763779527559,
          "duration": 0.15116279069764005
        },
        {
          "name": "A4",
          "midi": 69,
          "time": 190.1860465115974,
          "velocity": 0.3228346456692913,
          "duration": 0.12790697674415696
        },
        {
          "name": "A2",
          "midi": 45,
          "time": 190.19767441857414,
          "velocity": 0.5433070866141733,
          "duration": 0.011627906976741542
        },
        {
          "name": "D#3",
          "midi": 51,
          "time": 190.20930232555088,
          "velocity": 0.6141732283464567,
          "duration": 0.011627906976741542
        },
        {
          "name": "D4",
          "midi": 62,
          "time": 190.20930232555088,
          "velocity": 0.2755905511811024,
          "duration": 0.04651162790696617
        },
        {
          "name": "C#7",
          "midi": 97,
          "time": 190.20930232555088,
          "velocity": 0.09448818897637795,
          "duration": 0.034883720930224626
        },
        {
          "name": "D#7",
          "midi": 99,
          "time": 190.20930232555088,
          "velocity": 0.11811023622047244,
          "duration": 0.11627906976741542
        },
        {
          "name": "A2",
          "midi": 45,
          "time": 190.22093023252762,
          "velocity": 0.5826771653543307,
          "duration": 0.04651162790696617
        },
        {
          "name": "D3",
          "midi": 50,
          "time": 190.22093023252762,
          "velocity": 0.5748031496062992,
          "duration": 0.023255813953483084
        },
        {
          "name": "E5",
          "midi": 76,
          "time": 190.27906976741133,
          "velocity": 0.16535433070866143,
          "duration": 0.11627906976741542
        },
        {
          "name": "C4",
          "midi": 60,
          "time": 190.29069767438807,
          "velocity": 0.18110236220472442,
          "duration": 0.034883720930224626
        },
        {
          "name": "G5",
          "midi": 79,
          "time": 190.29069767438807,
          "velocity": 0.08661417322834646,
          "duration": 0.0813953488371908
        },
        {
          "name": "D3",
          "midi": 50,
          "time": 190.3023255813648,
          "velocity": 0.4645669291338583,
          "duration": 0.023255813953483084
        },
        {
          "name": "G4",
          "midi": 67,
          "time": 190.3023255813648,
          "velocity": 0.1732283464566929,
          "duration": 0.034883720930224626
        },
        {
          "name": "D5",
          "midi": 74,
          "time": 190.3023255813648,
          "velocity": 0.18110236220472442,
          "duration": 0.04651162790696617
        },
        {
          "name": "F#5",
          "midi": 78,
          "time": 190.3023255813648,
          "velocity": 0.08661417322834646,
          "duration": 0.05813953488370771
        },
        {
          "name": "C7",
          "midi": 96,
          "time": 190.3023255813648,
          "velocity": 0.10236220472440945,
          "duration": 0.034883720930224626
        },
        {
          "name": "D7",
          "midi": 98,
          "time": 190.3023255813648,
          "velocity": 0.1889763779527559,
          "duration": 0.09302325581393234
        },
        {
          "name": "C#7",
          "midi": 97,
          "time": 190.31395348834155,
          "velocity": 0.25196850393700787,
          "duration": 0.1627906976743816
        },
        {
          "name": "G#2",
          "midi": 44,
          "time": 190.3255813953183,
          "velocity": 0.48031496062992124,
          "duration": 0.034883720930224626
        },
        {
          "name": "A4",
          "midi": 69,
          "time": 190.33720930229504,
          "velocity": 0.2440944881889764,
          "duration": 0.05813953488370771
        },
        {
          "name": "F#6",
          "midi": 90,
          "time": 190.33720930229504,
          "velocity": 0.14173228346456693,
          "duration": 0.04651162790696617
        },
        {
          "name": "D4",
          "midi": 62,
          "time": 190.34883720927178,
          "velocity": 0.25984251968503935,
          "duration": 0.0813953488371908
        },
        {
          "name": "F7",
          "midi": 101,
          "time": 190.34883720927178,
          "velocity": 0.10236220472440945,
          "duration": 0.04651162790696617
        },
        {
          "name": "A2",
          "midi": 45,
          "time": 190.36046511624852,
          "velocity": 0.4409448818897638,
          "duration": 0.034883720930224626
        },
        {
          "name": "A#3",
          "midi": 58,
          "time": 190.36046511624852,
          "velocity": 0.30708661417322836,
          "duration": 0.023255813953483084
        },
        {
          "name": "D5",
          "midi": 74,
          "time": 190.37209302322526,
          "velocity": 0.2755905511811024,
          "duration": 0.17441860465112313
        },
        {
          "name": "C7",
          "midi": 96,
          "time": 190.383720930202,
          "velocity": 0.11023622047244094,
          "duration": 0.0813953488371908
        },
        {
          "name": "G7",
          "midi": 103,
          "time": 190.383720930202,
          "velocity": 0.10236220472440945,
          "duration": 0.04651162790696617
        },
        {
          "name": "G4",
          "midi": 67,
          "time": 190.39534883717874,
          "velocity": 0.2283464566929134,
          "duration": 0.04651162790696617
        },
        {
          "name": "D3",
          "midi": 50,
          "time": 190.41860465113223,
          "velocity": 0.4251968503937008,
          "duration": 0.034883720930224626
        },
        {
          "name": "D7",
          "midi": 98,
          "time": 190.41860465113223,
          "velocity": 0.16535433070866143,
          "duration": 0.1395348837208985
        },
        {
          "name": "F7",
          "midi": 101,
          "time": 190.41860465113223,
          "velocity": 0.09448818897637795,
          "duration": 0.034883720930224626
        },
        {
          "name": "E5",
          "midi": 76,
          "time": 190.43023255810897,
          "velocity": 0.11023622047244094,
          "duration": 0.034883720930224626
        },
        {
          "name": "A5",
          "midi": 81,
          "time": 190.43023255810897,
          "velocity": 0.31496062992125984,
          "duration": 0.11627906976741542
        },
        {
          "name": "F#7",
          "midi": 102,
          "time": 190.43023255810897,
          "velocity": 0.09448818897637795,
          "duration": 0.06976744186044925
        },
        {
          "name": "D#3",
          "midi": 51,
          "time": 190.45348837206245,
          "velocity": 0.47244094488188976,
          "duration": 0.023255813953483084
        },
        {
          "name": "G4",
          "midi": 67,
          "time": 190.45348837206245,
          "velocity": 0.2440944881889764,
          "duration": 0.05813953488370771
        },
        {
          "name": "A#3",
          "midi": 58,
          "time": 190.4651162790392,
          "velocity": 0.2440944881889764,
          "duration": 0.023255813953483084
        },
        {
          "name": "C5",
          "midi": 72,
          "time": 190.4651162790392,
          "velocity": 0.14960629921259844,
          "duration": 0.06976744186044925
        },
        {
          "name": "F#6",
          "midi": 90,
          "time": 190.4651162790392,
          "velocity": 0.11023622047244094,
          "duration": 0.034883720930224626
        },
        {
          "name": "D#3",
          "midi": 51,
          "time": 190.48837209299268,
          "velocity": 0.47244094488188976,
          "duration": 0.034883720930224626
        },
        {
          "name": "D#7",
          "midi": 99,
          "time": 190.48837209299268,
          "velocity": 0.09448818897637795,
          "duration": 0.11627906976741542
        },
        {
          "name": "B6",
          "midi": 95,
          "time": 190.49999999996942,
          "velocity": 0.07086614173228346,
          "duration": 0.04651162790696617
        },
        {
          "name": "C#7",
          "midi": 97,
          "time": 190.49999999996942,
          "velocity": 0.36220472440944884,
          "duration": 1.1395348837206711
        },
        {
          "name": "A4",
          "midi": 69,
          "time": 190.51162790694616,
          "velocity": 0.29133858267716534,
          "duration": 0.05813953488370771
        },
        {
          "name": "F#5",
          "midi": 78,
          "time": 190.51162790694616,
          "velocity": 0.5275590551181102,
          "duration": 0.6627906976742679
        },
        {
          "name": "E6",
          "midi": 88,
          "time": 190.51162790694616,
          "velocity": 0.2204724409448819,
          "duration": 0.10465116279067388
        },
        {
          "name": "C7",
          "midi": 96,
          "time": 190.51162790694616,
          "velocity": 0.07874015748031496,
          "duration": 0.05813953488370771
        },
        {
          "name": "E2",
          "midi": 40,
          "time": 190.5232558139229,
          "velocity": 0.44881889763779526,
          "duration": 0.04651162790696617
        },
        {
          "name": "D3",
          "midi": 50,
          "time": 190.5232558139229,
          "velocity": 0.6220472440944882,
          "duration": 0.1395348837208985
        },
        {
          "name": "F#4",
          "midi": 66,
          "time": 190.5232558139229,
          "velocity": 0.2992125984251969,
          "duration": 0.15116279069764005
        },
        {
          "name": "B5",
          "midi": 83,
          "time": 190.5232558139229,
          "velocity": 0.10236220472440945,
          "duration": 0.04651162790696617
        },
        {
          "name": "A3",
          "midi": 57,
          "time": 190.53488372089964,
          "velocity": 0.3779527559055118,
          "duration": 0.034883720930224626
        },
        {
          "name": "E5",
          "midi": 76,
          "time": 190.54651162787638,
          "velocity": 0.29133858267716534,
          "duration": 0.1395348837208985
        },
        {
          "name": "A#3",
          "midi": 58,
          "time": 190.56976744182987,
          "velocity": 0.36220472440944884,
          "duration": 0.034883720930224626
        },
        {
          "name": "A4",
          "midi": 69,
          "time": 190.59302325578335,
          "velocity": 0.2755905511811024,
          "duration": 0.11627906976741542
        },
        {
          "name": "A3",
          "midi": 57,
          "time": 190.62790697671358,
          "velocity": 0.2283464566929134,
          "duration": 0.05813953488370771
        },
        {
          "name": "G7",
          "midi": 103,
          "time": 190.65116279066706,
          "velocity": 0.07086614173228346,
          "duration": 0.034883720930224626
        },
        {
          "name": "D#3",
          "midi": 51,
          "time": 190.6627906976438,
          "velocity": 0.3464566929133858,
          "duration": 0.023255813953483084
        },
        {
          "name": "D#7",
          "midi": 99,
          "time": 190.67441860462054,
          "velocity": 0.08661417322834646,
          "duration": 0.04651162790696617
        },
        {
          "name": "D3",
          "midi": 50,
          "time": 190.68604651159728,
          "velocity": 0.3779527559055118,
          "duration": 0.023255813953483084
        },
        {
          "name": "D#3",
          "midi": 51,
          "time": 190.70930232555077,
          "velocity": 0.4015748031496063,
          "duration": 0.023255813953483084
        },
        {
          "name": "D5",
          "midi": 74,
          "time": 190.70930232555077,
          "velocity": 0.2440944881889764,
          "duration": 0.023255813953483084
        },
        {
          "name": "D#5",
          "midi": 75,
          "time": 190.70930232555077,
          "velocity": 0.2992125984251969,
          "duration": 0.04651162790696617
        },
        {
          "name": "C4",
          "midi": 60,
          "time": 190.7209302325275,
          "velocity": 0.4566929133858268,
          "duration": 0.023255813953483084
        },
        {
          "name": "E6",
          "midi": 88,
          "time": 190.7209302325275,
          "velocity": 0.14173228346456693,
          "duration": 0.11627906976741542
        },
        {
          "name": "G6",
          "midi": 91,
          "time": 190.7209302325275,
          "velocity": 0.14960629921259844,
          "duration": 0.034883720930224626
        },
        {
          "name": "D7",
          "midi": 98,
          "time": 190.7209302325275,
          "velocity": 0.18110236220472442,
          "duration": 0.05813953488370771
        },
        {
          "name": "D3",
          "midi": 50,
          "time": 190.73255813950425,
          "velocity": 0.6456692913385826,
          "duration": 0.12790697674415696
        },
        {
          "name": "G#4",
          "midi": 68,
          "time": 190.73255813950425,
          "velocity": 0.30708661417322836,
          "duration": 0.023255813953483084
        },
        {
          "name": "C#5",
          "midi": 73,
          "time": 190.73255813950425,
          "velocity": 0.23622047244094488,
          "duration": 0.034883720930224626
        },
        {
          "name": "A#6",
          "midi": 94,
          "time": 190.73255813950425,
          "velocity": 0.07874015748031496,
          "duration": 0.04651162790696617
        },
        {
          "name": "D#7",
          "midi": 99,
          "time": 190.73255813950425,
          "velocity": 0.11811023622047244,
          "duration": 0.06976744186044925
        },
        {
          "name": "D#4",
          "midi": 63,
          "time": 190.744186046481,
          "velocity": 0.4566929133858268,
          "duration": 0.023255813953483084
        },
        {
          "name": "G4",
          "midi": 67,
          "time": 190.75581395345773,
          "velocity": 0.2440944881889764,
          "duration": 0.023255813953483084
        },
        {
          "name": "D5",
          "midi": 74,
          "time": 190.75581395345773,
          "velocity": 0.25196850393700787,
          "duration": 0.2209302325580893
        },
        {
          "name": "C7",
          "midi": 96,
          "time": 190.75581395345773,
          "velocity": 0.11811023622047244,
          "duration": 0.034883720930224626
        },
        {
          "name": "A#3",
          "midi": 58,
          "time": 190.76744186043447,
          "velocity": 0.44881889763779526,
          "duration": 0.04651162790696617
        },
        {
          "name": "A4",
          "midi": 69,
          "time": 190.76744186043447,
          "velocity": 0.1889763779527559,
          "duration": 0.0813953488371908
        },
        {
          "name": "F#2",
          "midi": 42,
          "time": 190.77906976741122,
          "velocity": 0.5275590551181102,
          "duration": 0.023255813953483084
        },
        {
          "name": "F#4",
          "midi": 66,
          "time": 190.77906976741122,
          "velocity": 0.31496062992125984,
          "duration": 0.023255813953483084
        },
        {
          "name": "E7",
          "midi": 100,
          "time": 190.77906976741122,
          "velocity": 0.2047244094488189,
          "duration": 0.06976744186044925
        },
        {
          "name": "G#6",
          "midi": 92,
          "time": 190.8023255813647,
          "velocity": 0.25984251968503935,
          "duration": 0.09302325581393234
        },
        {
          "name": "F#4",
          "midi": 66,
          "time": 190.81395348834144,
          "velocity": 0.25984251968503935,
          "duration": 0.023255813953483084
        },
        {
          "name": "E5",
          "midi": 76,
          "time": 190.81395348834144,
          "velocity": 0.11023622047244094,
          "duration": 0.05813953488370771
        },
        {
          "name": "F7",
          "midi": 101,
          "time": 190.81395348834144,
          "velocity": 0.18110236220472442,
          "duration": 0.0813953488371908
        },
        {
          "name": "A#3",
          "midi": 58,
          "time": 190.82558139531818,
          "velocity": 0.3700787401574803,
          "duration": 0.05813953488370771
        },
        {
          "name": "A2",
          "midi": 45,
          "time": 190.83720930229492,
          "velocity": 0.5905511811023622,
          "duration": 0.04651162790696617
        },
        {
          "name": "A5",
          "midi": 81,
          "time": 190.84883720927166,
          "velocity": 0.16535433070866143,
          "duration": 0.034883720930224626
        },
        {
          "name": "F#4",
          "midi": 66,
          "time": 190.8604651162484,
          "velocity": 0.10236220472440945,
          "duration": 0.034883720930224626
        },
        {
          "name": "D3",
          "midi": 50,
          "time": 190.87209302322515,
          "velocity": 0.5669291338582677,
          "duration": 0.011627906976741542
        },
        {
          "name": "B2",
          "midi": 47,
          "time": 190.8837209302019,
          "velocity": 0.6141732283464567,
          "duration": 0.011627906976741542
        },
        {
          "name": "A2",
          "midi": 45,
          "time": 190.89534883717863,
          "velocity": 0.6141732283464567,
          "duration": 0.011627906976741542
        },
        {
          "name": "D7",
          "midi": 98,
          "time": 190.89534883717863,
          "velocity": 0.28346456692913385,
          "duration": 0.7906976744184249
        },
        {
          "name": "G#2",
          "midi": 44,
          "time": 190.90697674415537,
          "velocity": 0.6141732283464567,
          "duration": 0.011627906976741542
        },
        {
          "name": "A2",
          "midi": 45,
          "time": 190.9186046511321,
          "velocity": 0.5433070866141733,
          "duration": 0.011627906976741542
        },
        {
          "name": "A1",
          "midi": 33,
          "time": 190.93023255810886,
          "velocity": 0.5511811023622047,
          "duration": 0.011627906976741542
        },
        {
          "name": "F#4",
          "midi": 66,
          "time": 190.93023255810886,
          "velocity": 0.2755905511811024,
          "duration": 0.034883720930224626
        },
        {
          "name": "A4",
          "midi": 69,
          "time": 190.93023255810886,
          "velocity": 0.2755905511811024,
          "duration": 0.04651162790696617
        },
        {
          "name": "E6",
          "midi": 88,
          "time": 190.93023255810886,
          "velocity": 0.1968503937007874,
          "duration": 0.11627906976741542
        },
        {
          "name": "G#2",
          "midi": 44,
          "time": 190.9418604650856,
          "velocity": 0.6141732283464567,
          "duration": 0.023255813953483084
        },
        {
          "name": "D4",
          "midi": 62,
          "time": 190.9418604650856,
          "velocity": 0.33070866141732286,
          "duration": 0.19767441860460622
        },
        {
          "name": "A3",
          "midi": 57,
          "time": 190.96511627903908,
          "velocity": 0.33070866141732286,
          "duration": 0.034883720930224626
        },
        {
          "name": "E5",
          "midi": 76,
          "time": 190.97674418601582,
          "velocity": 0.2677165354330709,
          "duration": 0.11627906976741542
        },
        {
          "name": "A4",
          "midi": 69,
          "time": 190.98837209299256,
          "velocity": 0.33858267716535434,
          "duration": 0.26744186046505547
        },
        {
          "name": "F7",
          "midi": 101,
          "time": 190.98837209299256,
          "velocity": 0.10236220472440945,
          "duration": 0.09302325581393234
        },
        {
          "name": "A#3",
          "midi": 58,
          "time": 190.9999999999693,
          "velocity": 0.4015748031496063,
          "duration": 0.023255813953483084
        },
        {
          "name": "F#4",
          "midi": 66,
          "time": 190.9999999999693,
          "velocity": 0.2755905511811024,
          "duration": 0.1395348837208985
        },
        {
          "name": "D#7",
          "midi": 99,
          "time": 190.9999999999693,
          "velocity": 0.14173228346456693,
          "duration": 0.17441860465112313
        },
        {
          "name": "A3",
          "midi": 57,
          "time": 191.0232558139228,
          "velocity": 0.4015748031496063,
          "duration": 0.04651162790696617
        },
        {
          "name": "C7",
          "midi": 96,
          "time": 191.0232558139228,
          "velocity": 0.13385826771653545,
          "duration": 0.09302325581393234
        },
        {
          "name": "G7",
          "midi": 103,
          "time": 191.0232558139228,
          "velocity": 0.11811023622047244,
          "duration": 0.06976744186044925
        },
        {
          "name": "D3",
          "midi": 50,
          "time": 191.058139534853,
          "velocity": 0.4251968503937008,
          "duration": 0.034883720930224626
        },
        {
          "name": "A3",
          "midi": 57,
          "time": 191.0813953488065,
          "velocity": 0.3228346456692913,
          "duration": 0.04651162790696617
        },
        {
          "name": "D2",
          "midi": 38,
          "time": 191.09302325578324,
          "velocity": 0.36220472440944884,
          "duration": 0.023255813953483084
        },
        {
          "name": "D#3",
          "midi": 51,
          "time": 191.09302325578324,
          "velocity": 0.47244094488188976,
          "duration": 0.023255813953483084
        },
        {
          "name": "D3",
          "midi": 50,
          "time": 191.11627906973672,
          "velocity": 0.5039370078740157,
          "duration": 0.023255813953483084
        },
        {
          "name": "D#3",
          "midi": 51,
          "time": 191.1395348836902,
          "velocity": 0.5039370078740157,
          "duration": 0.023255813953483084
        },
        {
          "name": "G7",
          "midi": 103,
          "time": 191.1395348836902,
          "velocity": 0.11023622047244094,
          "duration": 0.05813953488370771
        },
        {
          "name": "D#6",
          "midi": 87,
          "time": 191.15116279066694,
          "velocity": 0.12598425196850394,
          "duration": 0.034883720930224626
        },
        {
          "name": "G6",
          "midi": 91,
          "time": 191.15116279066694,
          "velocity": 0.4566929133858268,
          "duration": 0.9883720930230311
        },
        {
          "name": "D3",
          "midi": 50,
          "time": 191.1627906976437,
          "velocity": 0.5196850393700787,
          "duration": 0.034883720930224626
        },
        {
          "name": "C#5",
          "midi": 73,
          "time": 191.1627906976437,
          "velocity": 0.16535433070866143,
          "duration": 0.06976744186044925
        },
        {
          "name": "C7",
          "midi": 96,
          "time": 191.1627906976437,
          "velocity": 0.1968503937007874,
          "duration": 0.06976744186044925
        },
        {
          "name": "G5",
          "midi": 79,
          "time": 191.17441860462043,
          "velocity": 0.4645669291338583,
          "duration": 0.558139534883594
        },
        {
          "name": "C6",
          "midi": 84,
          "time": 191.17441860462043,
          "velocity": 0.11811023622047244,
          "duration": 0.11627906976741542
        },
        {
          "name": "D6",
          "midi": 86,
          "time": 191.17441860462043,
          "velocity": 0.28346456692913385,
          "duration": 0.0813953488371908
        },
        {
          "name": "A3",
          "midi": 57,
          "time": 191.1976744185739,
          "velocity": 0.2125984251968504,
          "duration": 0.034883720930224626
        },
        {
          "name": "D#6",
          "midi": 87,
          "time": 191.1976744185739,
          "velocity": 0.14960629921259844,
          "duration": 0.04651162790696617
        },
        {
          "name": "D#7",
          "midi": 99,
          "time": 191.1976744185739,
          "velocity": 0.1732283464566929,
          "duration": 0.3604651162789878
        },
        {
          "name": "F2",
          "midi": 41,
          "time": 191.20930232555065,
          "velocity": 0.5354330708661418,
          "duration": 0.011627906976741542
        },
        {
          "name": "D5",
          "midi": 74,
          "time": 191.20930232555065,
          "velocity": 0.1889763779527559,
          "duration": 0.05813953488370771
        },
        {
          "name": "A6",
          "midi": 93,
          "time": 191.20930232555065,
          "velocity": 0.49606299212598426,
          "duration": 1.116279069767188
        },
        {
          "name": "G2",
          "midi": 43,
          "time": 191.2209302325274,
          "velocity": 0.5196850393700787,
          "duration": 0.011627906976741542
        },
        {
          "name": "E7",
          "midi": 100,
          "time": 191.2209302325274,
          "velocity": 0.1968503937007874,
          "duration": 0.17441860465112313
        },
        {
          "name": "D3",
          "midi": 50,
          "time": 191.23255813950414,
          "velocity": 0.44881889763779526,
          "duration": 0.023255813953483084
        },
        {
          "name": "C5",
          "midi": 72,
          "time": 191.23255813950414,
          "velocity": 0.10236220472440945,
          "duration": 0.06976744186044925
        },
        {
          "name": "E2",
          "midi": 40,
          "time": 191.24418604648088,
          "velocity": 0.3779527559055118,
          "duration": 0.023255813953483084
        },
        {
          "name": "E5",
          "midi": 76,
          "time": 191.24418604648088,
          "velocity": 0.09448818897637795,
          "duration": 0.04651162790696617
        },
        {
          "name": "F7",
          "midi": 101,
          "time": 191.24418604648088,
          "velocity": 0.14173228346456693,
          "duration": 0.09302325581393234
        },
        {
          "name": "F#5",
          "midi": 78,
          "time": 191.25581395345762,
          "velocity": 0.2440944881889764,
          "duration": 0.034883720930224626
        },
        {
          "name": "D3",
          "midi": 50,
          "time": 191.26744186043436,
          "velocity": 0.4566929133858268,
          "duration": 0.05813953488370771
        },
        {
          "name": "A3",
          "midi": 57,
          "time": 191.26744186043436,
          "velocity": 0.08661417322834646,
          "duration": 0.05813953488370771
        },
        {
          "name": "G#6",
          "midi": 92,
          "time": 191.26744186043436,
          "velocity": 0.10236220472440945,
          "duration": 0.04651162790696617
        },
        {
          "name": "F#4",
          "midi": 66,
          "time": 191.29069767438784,
          "velocity": 0.12598425196850394,
          "duration": 0.06976744186044925
        },
        {
          "name": "A4",
          "midi": 69,
          "time": 191.29069767438784,
          "velocity": 0.11023622047244094,
          "duration": 0.034883720930224626
        },
        {
          "name": "D5",
          "midi": 74,
          "time": 191.29069767438784,
          "velocity": 0.2992125984251969,
          "duration": 0.7558139534882002
        },
        {
          "name": "F2",
          "midi": 41,
          "time": 191.30232558136458,
          "velocity": 0.2992125984251969,
          "duration": 0.023255813953483084
        },
        {
          "name": "D3",
          "midi": 50,
          "time": 191.3372093022948,
          "velocity": 0.48031496062992124,
          "duration": 0.11627906976741542
        },
        {
          "name": "A4",
          "midi": 69,
          "time": 191.3604651162483,
          "velocity": 0.33070866141732286,
          "duration": 0.04651162790696617
        },
        {
          "name": "E5",
          "midi": 76,
          "time": 191.3604651162483,
          "velocity": 0.33070866141732286,
          "duration": 0.1627906976743816
        },
        {
          "name": "F2",
          "midi": 41,
          "time": 191.39534883717852,
          "velocity": 0.5039370078740157,
          "duration": 0.034883720930224626
        },
        {
          "name": "F#4",
          "midi": 66,
          "time": 191.39534883717852,
          "velocity": 0.2992125984251969,
          "duration": 0.1395348837208985
        },
        {
          "name": "D#4",
          "midi": 63,
          "time": 191.40697674415526,
          "velocity": 0.25196850393700787,
          "duration": 0.023255813953483084
        },
        {
          "name": "A3",
          "midi": 57,
          "time": 191.418604651132,
          "velocity": 0.36220472440944884,
          "duration": 0.15116279069764005
        },
        {
          "name": "C5",
          "midi": 72,
          "time": 191.44186046508548,
          "velocity": 0.13385826771653545,
          "duration": 0.04651162790696617
        },
        {
          "name": "C7",
          "midi": 96,
          "time": 191.44186046508548,
          "velocity": 0.07874015748031496,
          "duration": 0.034883720930224626
        },
        {
          "name": "D2",
          "midi": 38,
          "time": 191.45348837206222,
          "velocity": 0.28346456692913385,
          "duration": 0.023255813953483084
        },
        {
          "name": "D4",
          "midi": 62,
          "time": 191.46511627903897,
          "velocity": 0.36220472440944884,
          "duration": 0.11627906976741542
        },
        {
          "name": "D2",
          "midi": 38,
          "time": 191.48837209299245,
          "velocity": 0.31496062992125984,
          "duration": 0.023255813953483084
        },
        {
          "name": "D3",
          "midi": 50,
          "time": 191.48837209299245,
          "velocity": 0.4015748031496063,
          "duration": 0.05813953488370771
        },
        {
          "name": "C5",
          "midi": 72,
          "time": 191.4999999999692,
          "velocity": 0.11023622047244094,
          "duration": 0.05813953488370771
        },
        {
          "name": "D#2",
          "midi": 39,
          "time": 191.52325581392267,
          "velocity": 0.41732283464566927,
          "duration": 0.023255813953483084
        },
        {
          "name": "C7",
          "midi": 96,
          "time": 191.54651162787616,
          "velocity": 0.07874015748031496,
          "duration": 0.034883720930224626
        },
        {
          "name": "D3",
          "midi": 50,
          "time": 191.5581395348529,
          "velocity": 0.4094488188976378,
          "duration": 0.023255813953483084
        },
        {
          "name": "F#4",
          "midi": 66,
          "time": 191.5581395348529,
          "velocity": 0.30708661417322836,
          "duration": 0.034883720930224626
        },
        {
          "name": "E2",
          "midi": 40,
          "time": 191.58139534880638,
          "velocity": 0.5905511811023622,
          "duration": 0.011627906976741542
        },
        {
          "name": "D#7",
          "midi": 99,
          "time": 191.58139534880638,
          "velocity": 0.11811023622047244,
          "duration": 0.05813953488370771
        },
        {
          "name": "B2",
          "midi": 47,
          "time": 191.59302325578312,
          "velocity": 0.5826771653543307,
          "duration": 0.011627906976741542
        },
        {
          "name": "E5",
          "midi": 76,
          "time": 191.59302325578312,
          "velocity": 0.2677165354330709,
          "duration": 0.3604651162789878
        },
        {
          "name": "A5",
          "midi": 81,
          "time": 191.59302325578312,
          "velocity": 0.4566929133858268,
          "duration": 0.7093023255812341
        },
        {
          "name": "B5",
          "midi": 83,
          "time": 191.59302325578312,
          "velocity": 0.12598425196850394,
          "duration": 0.09302325581393234
        },
        {
          "name": "B6",
          "midi": 95,
          "time": 191.59302325578312,
          "velocity": 0.28346456692913385,
          "duration": 0.39534883720921243
        },
        {
          "name": "E7",
          "midi": 100,
          "time": 191.59302325578312,
          "velocity": 0.3228346456692913,
          "duration": 0.6744186046510094
        },
        {
          "name": "D3",
          "midi": 50,
          "time": 191.60465116275986,
          "velocity": 0.5433070866141733,
          "duration": 0.011627906976741542
        },
        {
          "name": "B3",
          "midi": 59,
          "time": 191.60465116275986,
          "velocity": 0.36220472440944884,
          "duration": 0.04651162790696617
        },
        {
          "name": "E4",
          "midi": 64,
          "time": 191.60465116275986,
          "velocity": 0.4094488188976378,
          "duration": 0.4418604651161786
        },
        {
          "name": "F2",
          "midi": 41,
          "time": 191.62790697671335,
          "velocity": 0.5039370078740157,
          "duration": 0.04651162790696617
        },
        {
          "name": "E3",
          "midi": 52,
          "time": 191.65116279066683,
          "velocity": 0.5275590551181102,
          "duration": 0.04651162790696617
        },
        {
          "name": "G#4",
          "midi": 68,
          "time": 191.65116279066683,
          "velocity": 0.16535433070866143,
          "duration": 0.034883720930224626
        },
        {
          "name": "F#6",
          "midi": 90,
          "time": 191.65116279066683,
          "velocity": 0.2440944881889764,
          "duration": 0.2209302325580893
        },
        {
          "name": "B3",
          "midi": 59,
          "time": 191.66279069764357,
          "velocity": 0.33858267716535434,
          "duration": 0.05813953488370771
        },
        {
          "name": "D#7",
          "midi": 99,
          "time": 191.68604651159706,
          "velocity": 0.1968503937007874,
          "duration": 0.11627906976741542
        },
        {
          "name": "F3",
          "midi": 53,
          "time": 191.6976744185738,
          "velocity": 0.5511811023622047,
          "duration": 0.011627906976741542
        },
        {
          "name": "E3",
          "midi": 52,
          "time": 191.70930232555054,
          "velocity": 0.5511811023622047,
          "duration": 0.034883720930224626
        },
        {
          "name": "A#3",
          "midi": 58,
          "time": 191.72093023252728,
          "velocity": 0.2440944881889764,
          "duration": 0.023255813953483084
        },
        {
          "name": "E2",
          "midi": 40,
          "time": 191.74418604648076,
          "velocity": 0.3543307086614173,
          "duration": 0.034883720930224626
        },
        {
          "name": "F3",
          "midi": 53,
          "time": 191.74418604648076,
          "velocity": 0.29133858267716534,
          "duration": 0.023255813953483084
        },
        {
          "name": "G#4",
          "midi": 68,
          "time": 191.76744186043425,
          "velocity": 0.1889763779527559,
          "duration": 0.034883720930224626
        },
        {
          "name": "B4",
          "midi": 71,
          "time": 191.779069767411,
          "velocity": 0.33858267716535434,
          "duration": 0.37209302325572935
        },
        {
          "name": "F#5",
          "midi": 78,
          "time": 191.79069767438773,
          "velocity": 0.4094488188976378,
          "duration": 0.06976744186044925
        },
        {
          "name": "C#2",
          "midi": 37,
          "time": 191.80232558136447,
          "velocity": 0.5275590551181102,
          "duration": 0.011627906976741542
        },
        {
          "name": "A3",
          "midi": 57,
          "time": 191.80232558136447,
          "velocity": 0.2755905511811024,
          "duration": 0.023255813953483084
        },
        {
          "name": "C#7",
          "midi": 97,
          "time": 191.80232558136447,
          "velocity": 0.16535433070866143,
          "duration": 0.034883720930224626
        },
        {
          "name": "G4",
          "midi": 67,
          "time": 191.8139534883412,
          "velocity": 0.3228346456692913,
          "duration": 0.20930232558134776
        },
        {
          "name": "E3",
          "midi": 52,
          "time": 191.8372093022947,
          "velocity": 0.4330708661417323,
          "duration": 0.023255813953483084
        },
        {
          "name": "B3",
          "midi": 59,
          "time": 191.8372093022947,
          "velocity": 0.3228346456692913,
          "duration": 0.04651162790696617
        },
        {
          "name": "D#7",
          "midi": 99,
          "time": 191.8372093022947,
          "velocity": 0.2125984251968504,
          "duration": 0.04651162790696617
        },
        {
          "name": "D7",
          "midi": 98,
          "time": 191.84883720927144,
          "velocity": 0.12598425196850394,
          "duration": 0.034883720930224626
        },
        {
          "name": "E3",
          "midi": 52,
          "time": 191.87209302322492,
          "velocity": 0.5590551181102362,
          "duration": 0.06976744186044925
        },
        {
          "name": "B3",
          "midi": 59,
          "time": 191.90697674415514,
          "velocity": 0.2677165354330709,
          "duration": 0.09302325581393234
        },
        {
          "name": "F#5",
          "midi": 78,
          "time": 191.90697674415514,
          "velocity": 0.2204724409448819,
          "duration": 0.24418604651157239
        },
        {
          "name": "D2",
          "midi": 38,
          "time": 191.9186046511319,
          "velocity": 0.36220472440944884,
          "duration": 0.023255813953483084
        },
        {
          "name": "F3",
          "midi": 53,
          "time": 191.94186046508537,
          "velocity": 0.5196850393700787,
          "duration": 0.011627906976741542
        },
        {
          "name": "E3",
          "midi": 52,
          "time": 191.9534883720621,
          "velocity": 0.49606299212598426,
          "duration": 0.023255813953483084
        },
        {
          "name": "E2",
          "midi": 40,
          "time": 191.9767441860156,
          "velocity": 0.5196850393700787,
          "duration": 0.023255813953483084
        },
        {
          "name": "D#7",
          "midi": 99,
          "time": 191.99999999996908,
          "velocity": 0.2047244094488189,
          "duration": 0.3837209302324709
        },
        {
          "name": "A4",
          "midi": 69,
          "time": 192.01162790694582,
          "velocity": 0.2125984251968504,
          "duration": 0.04651162790696617
        },
        {
          "name": "D7",
          "midi": 98,
          "time": 192.01162790694582,
          "velocity": 0.14173228346456693,
          "duration": 0.04651162790696617
        },
        {
          "name": "C4",
          "midi": 60,
          "time": 192.02325581392256,
          "velocity": 0.33858267716535434,
          "duration": 0.034883720930224626
        },
        {
          "name": "B6",
          "midi": 95,
          "time": 192.02325581392256,
          "velocity": 0.2204724409448819,
          "duration": 0.5465116279068525
        },
        {
          "name": "C#7",
          "midi": 97,
          "time": 192.02325581392256,
          "velocity": 0.2125984251968504,
          "duration": 0.10465116279067388
        },
        {
          "name": "G#2",
          "midi": 44,
          "time": 192.05813953485278,
          "velocity": 0.5039370078740157,
          "duration": 0.034883720930224626
        },
        {
          "name": "B3",
          "midi": 59,
          "time": 192.05813953485278,
          "velocity": 0.3700787401574803,
          "duration": 0.17441860465112313
        },
        {
          "name": "D#6",
          "midi": 87,
          "time": 192.05813953485278,
          "velocity": 0.08661417322834646,
          "duration": 0.034883720930224626
        },
        {
          "name": "E3",
          "midi": 52,
          "time": 192.06976744182953,
          "velocity": 0.33070866141732286,
          "duration": 0.023255813953483084
        },
        {
          "name": "F7",
          "midi": 101,
          "time": 192.08139534880627,
          "velocity": 0.07874015748031496,
          "duration": 0.034883720930224626
        },
        {
          "name": "E4",
          "midi": 64,
          "time": 192.093023255783,
          "velocity": 0.25196850393700787,
          "duration": 0.1395348837208985
        },
        {
          "name": "G4",
          "midi": 67,
          "time": 192.093023255783,
          "velocity": 0.1968503937007874,
          "duration": 0.034883720930224626
        },
        {
          "name": "F2",
          "midi": 41,
          "time": 192.10465116275975,
          "velocity": 0.5511811023622047,
          "duration": 0.06976744186044925
        },
        {
          "name": "D5",
          "midi": 74,
          "time": 192.10465116275975,
          "velocity": 0.11023622047244094,
          "duration": 0.04651162790696617
        },
        {
          "name": "D7",
          "midi": 98,
          "time": 192.10465116275975,
          "velocity": 0.4330708661417323,
          "duration": 1.1976744186043788
        },
        {
          "name": "C7",
          "midi": 96,
          "time": 192.1162790697365,
          "velocity": 0.11811023622047244,
          "duration": 0.12790697674415696
        },
        {
          "name": "D3",
          "midi": 50,
          "time": 192.13953488368998,
          "velocity": 0.3228346456692913,
          "duration": 0.023255813953483084
        },
        {
          "name": "C#7",
          "midi": 97,
          "time": 192.13953488368998,
          "velocity": 0.2125984251968504,
          "duration": 0.12790697674415696
        },
        {
          "name": "A4",
          "midi": 69,
          "time": 192.15116279066672,
          "velocity": 0.14960629921259844,
          "duration": 0.04651162790696617
        },
        {
          "name": "E2",
          "midi": 40,
          "time": 192.1744186046202,
          "velocity": 0.3937007874015748,
          "duration": 0.023255813953483084
        },
        {
          "name": "A#2",
          "midi": 46,
          "time": 192.19767441857368,
          "velocity": 0.3858267716535433,
          "duration": 0.023255813953483084
        },
        {
          "name": "F#2",
          "midi": 42,
          "time": 192.22093023252717,
          "velocity": 0.5433070866141733,
          "duration": 0.034883720930224626
        },
        {
          "name": "F#5",
          "midi": 78,
          "time": 192.22093023252717,
          "velocity": 0.2677165354330709,
          "duration": 0.0813953488371908
        },
        {
          "name": "G6",
          "midi": 91,
          "time": 192.22093023252717,
          "velocity": 0.14173228346456693,
          "duration": 0.034883720930224626
        },
        {
          "name": "B4",
          "midi": 71,
          "time": 192.2325581395039,
          "velocity": 0.3228346456692913,
          "duration": 0.19767441860460622
        },
        {
          "name": "E5",
          "midi": 76,
          "time": 192.2325581395039,
          "velocity": 0.25196850393700787,
          "duration": 0.15116279069764005
        },
        {
          "name": "G4",
          "midi": 67,
          "time": 192.24418604648065,
          "velocity": 0.4645669291338583,
          "duration": 0.23255813953483084
        },
        {
          "name": "B3",
          "midi": 59,
          "time": 192.2558139534574,
          "velocity": 0.3937007874015748,
          "duration": 0.11627906976741542
        },
        {
          "name": "E4",
          "midi": 64,
          "time": 192.26744186043413,
          "velocity": 0.2047244094488189,
          "duration": 0.1627906976743816
        },
        {
          "name": "D6",
          "midi": 86,
          "time": 192.26744186043413,
          "velocity": 0.29133858267716534,
          "duration": 0.2558139534883139
        },
        {
          "name": "E2",
          "midi": 40,
          "time": 192.27906976741087,
          "velocity": 0.4330708661417323,
          "duration": 0.023255813953483084
        },
        {
          "name": "G6",
          "midi": 91,
          "time": 192.27906976741087,
          "velocity": 0.12598425196850394,
          "duration": 0.0813953488371908
        },
        {
          "name": "E3",
          "midi": 52,
          "time": 192.29069767438762,
          "velocity": 0.4881889763779528,
          "duration": 0.06976744186044925
        },
        {
          "name": "D5",
          "midi": 74,
          "time": 192.30232558136436,
          "velocity": 0.33858267716535434,
          "duration": 0.15116279069764005
        },
        {
          "name": "F#6",
          "midi": 90,
          "time": 192.3139534883411,
          "velocity": 0.07874015748031496,
          "duration": 0.04651162790696617
        },
        {
          "name": "A5",
          "midi": 81,
          "time": 192.32558139531784,
          "velocity": 0.1732283464566929,
          "duration": 0.1395348837208985
        },
        {
          "name": "E2",
          "midi": 40,
          "time": 192.33720930229458,
          "velocity": 0.4330708661417323,
          "duration": 0.023255813953483084
        },
        {
          "name": "E3",
          "midi": 52,
          "time": 192.3720930232248,
          "velocity": 0.1968503937007874,
          "duration": 0.04651162790696617
        },
        {
          "name": "A6",
          "midi": 93,
          "time": 192.3720930232248,
          "velocity": 0.28346456692913385,
          "duration": 0.11627906976741542
        },
        {
          "name": "B3",
          "midi": 59,
          "time": 192.38372093020155,
          "velocity": 0.12598425196850394,
          "duration": 0.034883720930224626
        },
        {
          "name": "D#7",
          "midi": 99,
          "time": 192.40697674415503,
          "velocity": 0.16535433070866143,
          "duration": 0.06976744186044925
        },
        {
          "name": "E2",
          "midi": 40,
          "time": 192.41860465113177,
          "velocity": 0.31496062992125984,
          "duration": 0.023255813953483084
        },
        {
          "name": "B2",
          "midi": 47,
          "time": 192.41860465113177,
          "velocity": 0.28346456692913385,
          "duration": 0.023255813953483084
        },
        {
          "name": "F4",
          "midi": 65,
          "time": 192.43023255810851,
          "velocity": 0.4645669291338583,
          "duration": 0.023255813953483084
        },
        {
          "name": "F#5",
          "midi": 78,
          "time": 192.43023255810851,
          "velocity": 0.30708661417322836,
          "duration": 0.04651162790696617
        },
        {
          "name": "C#6",
          "midi": 85,
          "time": 192.43023255810851,
          "velocity": 0.18110236220472442,
          "duration": 0.04651162790696617
        },
        {
          "name": "C3",
          "midi": 48,
          "time": 192.44186046508526,
          "velocity": 0.5590551181102362,
          "duration": 0.023255813953483084
        },
        {
          "name": "A#3",
          "midi": 58,
          "time": 192.44186046508526,
          "velocity": 0.4881889763779528,
          "duration": 0.023255813953483084
        },
        {
          "name": "C5",
          "midi": 72,
          "time": 192.44186046508526,
          "velocity": 0.25984251968503935,
          "duration": 0.023255813953483084
        },
        {
          "name": "A#6",
          "midi": 94,
          "time": 192.44186046508526,
          "velocity": 0.08661417322834646,
          "duration": 0.034883720930224626
        },
        {
          "name": "C#7",
          "midi": 97,
          "time": 192.44186046508526,
          "velocity": 0.1968503937007874,
          "duration": 0.06976744186044925
        },
        {
          "name": "E4",
          "midi": 64,
          "time": 192.453488372062,
          "velocity": 0.3937007874015748,
          "duration": 0.034883720930224626
        },
        {
          "name": "C#5",
          "midi": 73,
          "time": 192.453488372062,
          "velocity": 0.2992125984251969,
          "duration": 0.034883720930224626
        },
        {
          "name": "D#5",
          "midi": 75,
          "time": 192.453488372062,
          "velocity": 0.12598425196850394,
          "duration": 0.04651162790696617
        },
        {
          "name": "E6",
          "midi": 88,
          "time": 192.453488372062,
          "velocity": 0.14173228346456693,
          "duration": 0.034883720930224626
        },
        {
          "name": "D3",
          "midi": 50,
          "time": 192.46511627903874,
          "velocity": 0.5118110236220472,
          "duration": 0.011627906976741542
        },
        {
          "name": "B3",
          "midi": 59,
          "time": 192.46511627903874,
          "velocity": 0.4251968503937008,
          "duration": 0.023255813953483084
        },
        {
          "name": "E3",
          "midi": 52,
          "time": 192.47674418601548,
          "velocity": 0.5433070866141733,
          "duration": 0.09302325581393234
        },
        {
          "name": "G7",
          "midi": 103,
          "time": 192.47674418601548,
          "velocity": 0.09448818897637795,
          "duration": 0.034883720930224626
        },
        {
          "name": "D#7",
          "midi": 99,
          "time": 192.48837209299222,
          "velocity": 0.1889763779527559,
          "duration": 0.12790697674415696
        },
        {
          "name": "F2",
          "midi": 41,
          "time": 192.49999999996896,
          "velocity": 0.49606299212598426,
          "duration": 0.023255813953483084
        },
        {
          "name": "A6",
          "midi": 93,
          "time": 192.49999999996896,
          "velocity": 0.1732283464566929,
          "duration": 0.06976744186044925
        },
        {
          "name": "F#4",
          "midi": 66,
          "time": 192.5116279069457,
          "velocity": 0.2440944881889764,
          "duration": 0.023255813953483084
        },
        {
          "name": "D5",
          "midi": 74,
          "time": 192.5116279069457,
          "velocity": 0.14173228346456693,
          "duration": 0.034883720930224626
        },
        {
          "name": "F#6",
          "midi": 90,
          "time": 192.5116279069457,
          "velocity": 0.2125984251968504,
          "duration": 0.20930232558134776
        },
        {
          "name": "E2",
          "midi": 40,
          "time": 192.52325581392245,
          "velocity": 0.49606299212598426,
          "duration": 0.034883720930224626
        },
        {
          "name": "B3",
          "midi": 59,
          "time": 192.52325581392245,
          "velocity": 0.3937007874015748,
          "duration": 0.034883720930224626
        },
        {
          "name": "F4",
          "midi": 65,
          "time": 192.5348837208992,
          "velocity": 0.30708661417322836,
          "duration": 0.023255813953483084
        },
        {
          "name": "C#5",
          "midi": 73,
          "time": 192.5348837208992,
          "velocity": 0.09448818897637795,
          "duration": 0.034883720930224626
        },
        {
          "name": "G4",
          "midi": 67,
          "time": 192.54651162787593,
          "velocity": 0.23622047244094488,
          "duration": 0.06976744186044925
        },
        {
          "name": "B2",
          "midi": 47,
          "time": 192.55813953485267,
          "velocity": 0.5196850393700787,
          "duration": 0.011627906976741542
        },
        {
          "name": "A#3",
          "midi": 58,
          "time": 192.55813953485267,
          "velocity": 0.3700787401574803,
          "duration": 0.023255813953483084
        },
        {
          "name": "D5",
          "midi": 74,
          "time": 192.55813953485267,
          "velocity": 0.13385826771653545,
          "duration": 0.1395348837208985
        },
        {
          "name": "D6",
          "midi": 86,
          "time": 192.55813953485267,
          "velocity": 0.15748031496062992,
          "duration": 0.05813953488370771
        },
        {
          "name": "D#3",
          "midi": 51,
          "time": 192.5697674418294,
          "velocity": 0.5511811023622047,
          "duration": 0.011627906976741542
        },
        {
          "name": "E3",
          "midi": 52,
          "time": 192.58139534880615,
          "velocity": 0.5590551181102362,
          "duration": 0.023255813953483084
        },
        {
          "name": "C3",
          "midi": 48,
          "time": 192.60465116275964,
          "velocity": 0.5590551181102362,
          "duration": 0.023255813953483084
        },
        {
          "name": "F3",
          "midi": 53,
          "time": 192.60465116275964,
          "velocity": 0.5275590551181102,
          "duration": 0.011627906976741542
        },
        {
          "name": "B3",
          "midi": 59,
          "time": 192.60465116275964,
          "velocity": 0.29133858267716534,
          "duration": 0.034883720930224626
        },
        {
          "name": "B6",
          "midi": 95,
          "time": 192.61627906973638,
          "velocity": 0.1889763779527559,
          "duration": 0.23255813953483084
        },
        {
          "name": "B2",
          "midi": 47,
          "time": 192.62790697671312,
          "velocity": 0.5748031496062992,
          "duration": 0.04651162790696617
        },
        {
          "name": "E2",
          "midi": 40,
          "time": 192.63953488368986,
          "velocity": 0.5118110236220472,
          "duration": 0.011627906976741542
        },
        {
          "name": "C4",
          "midi": 60,
          "time": 192.63953488368986,
          "velocity": 0.23622047244094488,
          "duration": 0.023255813953483084
        },
        {
          "name": "F#5",
          "midi": 78,
          "time": 192.63953488368986,
          "velocity": 0.3700787401574803,
          "duration": 0.0813953488371908
        },
        {
          "name": "D#7",
          "midi": 99,
          "time": 192.6511627906666,
          "velocity": 0.2992125984251969,
          "duration": 0.5348837209301109
        },
        {
          "name": "F2",
          "midi": 41,
          "time": 192.66279069764335,
          "velocity": 0.5590551181102362,
          "duration": 0.034883720930224626
        },
        {
          "name": "G4",
          "midi": 67,
          "time": 192.66279069764335,
          "velocity": 0.3858267716535433,
          "duration": 0.3372093023255047
        },
        {
          "name": "A6",
          "midi": 93,
          "time": 192.66279069764335,
          "velocity": 0.11811023622047244,
          "duration": 0.0813953488371908
        },
        {
          "name": "C#7",
          "midi": 97,
          "time": 192.6744186046201,
          "velocity": 0.16535433070866143,
          "duration": 0.09302325581393234
        },
        {
          "name": "B2",
          "midi": 47,
          "time": 192.68604651159683,
          "velocity": 0.5433070866141733,
          "duration": 0.04651162790696617
        },
        {
          "name": "E2",
          "midi": 40,
          "time": 192.69767441857357,
          "velocity": 0.5433070866141733,
          "duration": 0.034883720930224626
        },
        {
          "name": "E4",
          "midi": 64,
          "time": 192.69767441857357,
          "velocity": 0.28346456692913385,
          "duration": 0.0813953488371908
        },
        {
          "name": "F2",
          "midi": 41,
          "time": 192.7325581395038,
          "velocity": 0.5748031496062992,
          "duration": 0.023255813953483084
        },
        {
          "name": "E3",
          "midi": 52,
          "time": 192.74418604648054,
          "velocity": 0.3937007874015748,
          "duration": 0.04651162790696617
        },
        {
          "name": "F#5",
          "midi": 78,
          "time": 192.74418604648054,
          "velocity": 0.31496062992125984,
          "duration": 0.4186046511626955
        },
        {
          "name": "E2",
          "midi": 40,
          "time": 192.75581395345728,
          "velocity": 0.5511811023622047,
          "duration": 0.011627906976741542
        },
        {
          "name": "F2",
          "midi": 41,
          "time": 192.76744186043402,
          "velocity": 0.5511811023622047,
          "duration": 0.011627906976741542
        },
        {
          "name": "E2",
          "midi": 40,
          "time": 192.77906976741076,
          "velocity": 0.5354330708661418,
          "duration": 0.011627906976741542
        },
        {
          "name": "C7",
          "midi": 96,
          "time": 192.77906976741076,
          "velocity": 0.09448818897637795,
          "duration": 0.04651162790696617
        },
        {
          "name": "F2",
          "midi": 41,
          "time": 192.7906976743875,
          "velocity": 0.5354330708661418,
          "duration": 0.023255813953483084
        },
        {
          "name": "C#7",
          "midi": 97,
          "time": 192.7906976743875,
          "velocity": 0.2440944881889764,
          "duration": 0.17441860465112313
        },
        {
          "name": "E2",
          "midi": 40,
          "time": 192.81395348834099,
          "velocity": 0.4645669291338583,
          "duration": 0.034883720930224626
        },
        {
          "name": "F3",
          "midi": 53,
          "time": 192.81395348834099,
          "velocity": 0.2440944881889764,
          "duration": 0.034883720930224626
        },
        {
          "name": "D6",
          "midi": 86,
          "time": 192.8488372092712,
          "velocity": 0.12598425196850394,
          "duration": 0.04651162790696617
        },
        {
          "name": "G2",
          "midi": 43,
          "time": 192.8720930232247,
          "velocity": 0.44881889763779526,
          "duration": 0.023255813953483084
        },
        {
          "name": "E4",
          "midi": 64,
          "time": 192.8720930232247,
          "velocity": 0.28346456692913385,
          "duration": 0.18604651162786467
        },
        {
          "name": "D5",
          "midi": 74,
          "time": 192.8720930232247,
          "velocity": 0.11811023622047244,
          "duration": 0.034883720930224626
        },
        {
          "name": "A5",
          "midi": 81,
          "time": 192.8720930232247,
          "velocity": 0.25196850393700787,
          "duration": 0.2558139534883139
        },
        {
          "name": "C7",
          "midi": 96,
          "time": 192.8720930232247,
          "velocity": 0.09448818897637795,
          "duration": 0.05813953488370771
        },
        {
          "name": "E7",
          "midi": 100,
          "time": 192.8720930232247,
          "velocity": 0.4330708661417323,
          "duration": 0.5697674418603356
        },
        {
          "name": "D3",
          "midi": 50,
          "time": 192.89534883717818,
          "velocity": 0.4094488188976378,
          "duration": 0.023255813953483084
        },
        {
          "name": "B4",
          "midi": 71,
          "time": 192.89534883717818,
          "velocity": 0.36220472440944884,
          "duration": 0.39534883720921243
        },
        {
          "name": "F7",
          "midi": 101,
          "time": 192.90697674415492,
          "velocity": 0.23622047244094488,
          "duration": 0.279069767441797
        },
        {
          "name": "C3",
          "midi": 48,
          "time": 192.91860465113166,
          "velocity": 0.36220472440944884,
          "duration": 0.023255813953483084
        },
        {
          "name": "B3",
          "midi": 59,
          "time": 192.91860465113166,
          "velocity": 0.16535433070866143,
          "duration": 0.05813953488370771
        },
        {
          "name": "E6",
          "midi": 88,
          "time": 192.9302325581084,
          "velocity": 0.2677165354330709,
          "duration": 0.10465116279067388
        },
        {
          "name": "G7",
          "midi": 103,
          "time": 192.94186046508514,
          "velocity": 0.12598425196850394,
          "duration": 0.05813953488370771
        },
        {
          "name": "D5",
          "midi": 74,
          "time": 192.95348837206188,
          "velocity": 0.16535433070866143,
          "duration": 0.06976744186044925
        },
        {
          "name": "F2",
          "midi": 41,
          "time": 192.97674418601537,
          "velocity": 0.33070866141732286,
          "duration": 0.023255813953483084
        },
        {
          "name": "C#7",
          "midi": 97,
          "time": 192.97674418601537,
          "velocity": 0.2992125984251969,
          "duration": 0.39534883720921243
        },
        {
          "name": "E3",
          "midi": 52,
          "time": 192.9883720929921,
          "velocity": 0.3858267716535433,
          "duration": 0.15116279069764005
        },
        {
          "name": "B3",
          "midi": 59,
          "time": 192.9883720929921,
          "velocity": 0.1732283464566929,
          "duration": 0.034883720930224626
        },
        {
          "name": "E2",
          "midi": 40,
          "time": 192.99999999996885,
          "velocity": 0.29133858267716534,
          "duration": 0.023255813953483084
        },
        {
          "name": "G#6",
          "midi": 92,
          "time": 192.99999999996885,
          "velocity": 0.15748031496062992,
          "duration": 0.15116279069764005
        },
        {
          "name": "B6",
          "midi": 95,
          "time": 192.99999999996885,
          "velocity": 0.14960629921259844,
          "duration": 0.2558139534883139
        },
        {
          "name": "G4",
          "midi": 67,
          "time": 193.02325581392233,
          "velocity": 0.2204724409448819,
          "duration": 0.05813953488370771
        },
        {
          "name": "F2",
          "midi": 41,
          "time": 193.04651162787582,
          "velocity": 0.25196850393700787,
          "duration": 0.023255813953483084
        },
        {
          "name": "B3",
          "midi": 59,
          "time": 193.04651162787582,
          "velocity": 0.2047244094488189,
          "duration": 0.04651162790696617
        },
        {
          "name": "E6",
          "midi": 88,
          "time": 193.05813953485256,
          "velocity": 0.2440944881889764,
          "duration": 0.2209302325580893
        },
        {
          "name": "E5",
          "midi": 76,
          "time": 193.09302325578278,
          "velocity": 0.23622047244094488,
          "duration": 0.15116279069764005
        },
        {
          "name": "G6",
          "midi": 91,
          "time": 193.09302325578278,
          "velocity": 0.08661417322834646,
          "duration": 0.034883720930224626
        },
        {
          "name": "F2",
          "midi": 41,
          "time": 193.10465116275952,
          "velocity": 0.4566929133858268,
          "duration": 0.034883720930224626
        },
        {
          "name": "G4",
          "midi": 67,
          "time": 193.10465116275952,
          "velocity": 0.31496062992125984,
          "duration": 0.24418604651157239
        },
        {
          "name": "G7",
          "midi": 103,
          "time": 193.11627906973627,
          "velocity": 0.2047244094488189,
          "duration": 0.10465116279067388
        },
        {
          "name": "B3",
          "midi": 59,
          "time": 193.127906976713,
          "velocity": 0.36220472440944884,
          "duration": 0.1627906976743816
        },
        {
          "name": "D#6",
          "midi": 87,
          "time": 193.13953488368975,
          "velocity": 0.14173228346456693,
          "duration": 0.05813953488370771
        },
        {
          "name": "E3",
          "midi": 52,
          "time": 193.1511627906665,
          "velocity": 0.3858267716535433,
          "duration": 0.023255813953483084
        },
        {
          "name": "C7",
          "midi": 96,
          "time": 193.1511627906665,
          "velocity": 0.1732283464566929,
          "duration": 0.034883720930224626
        },
        {
          "name": "E2",
          "midi": 40,
          "time": 193.16279069764323,
          "velocity": 0.48031496062992124,
          "duration": 0.0813953488371908
        },
        {
          "name": "D#3",
          "midi": 51,
          "time": 193.17441860461997,
          "velocity": 0.31496062992125984,
          "duration": 0.023255813953483084
        },
        {
          "name": "D#7",
          "midi": 99,
          "time": 193.19767441857346,
          "velocity": 0.2204724409448819,
          "duration": 0.1627906976743816
        },
        {
          "name": "F7",
          "midi": 101,
          "time": 193.22093023252694,
          "velocity": 0.10236220472440945,
          "duration": 0.12790697674415696
        },
        {
          "name": "D#6",
          "midi": 87,
          "time": 193.23255813950368,
          "velocity": 0.07874015748031496,
          "duration": 0.034883720930224626
        },
        {
          "name": "F#6",
          "midi": 90,
          "time": 193.23255813950368,
          "velocity": 0.10236220472440945,
          "duration": 0.04651162790696617
        },
        {
          "name": "F#5",
          "midi": 78,
          "time": 193.24418604648042,
          "velocity": 0.13385826771653545,
          "duration": 0.09302325581393234
        },
        {
          "name": "G7",
          "midi": 103,
          "time": 193.25581395345716,
          "velocity": 0.11811023622047244,
          "duration": 0.06976744186044925
        },
        {
          "name": "B6",
          "midi": 95,
          "time": 193.27906976741065,
          "velocity": 0.4409448818897638,
          "duration": 1.220930232557862
        },
        {
          "name": "C5",
          "midi": 72,
          "time": 193.2906976743874,
          "velocity": 0.2440944881889764,
          "duration": 0.023255813953483084
        },
        {
          "name": "C7",
          "midi": 96,
          "time": 193.2906976743874,
          "velocity": 0.11023622047244094,
          "duration": 0.034883720930224626
        },
        {
          "name": "G2",
          "midi": 43,
          "time": 193.30232558136413,
          "velocity": 0.5590551181102362,
          "duration": 0.011627906976741542
        },
        {
          "name": "G#2",
          "midi": 44,
          "time": 193.31395348834087,
          "velocity": 0.5826771653543307,
          "duration": 0.011627906976741542
        },
        {
          "name": "B3",
          "midi": 59,
          "time": 193.31395348834087,
          "velocity": 0.3700787401574803,
          "duration": 0.023255813953483084
        },
        {
          "name": "E4",
          "midi": 64,
          "time": 193.31395348834087,
          "velocity": 0.3858267716535433,
          "duration": 0.3604651162789878
        },
        {
          "name": "B4",
          "midi": 71,
          "time": 193.31395348834087,
          "velocity": 0.41732283464566927,
          "duration": 0.558139534883594
        },
        {
          "name": "F#2",
          "midi": 42,
          "time": 193.3255813953176,
          "velocity": 0.5433070866141733,
          "duration": 0.011627906976741542
        },
        {
          "name": "G#4",
          "midi": 68,
          "time": 193.3255813953176,
          "velocity": 0.16535433070866143,
          "duration": 0.034883720930224626
        },
        {
          "name": "F#6",
          "midi": 90,
          "time": 193.3255813953176,
          "velocity": 0.14173228346456693,
          "duration": 0.0813953488371908
        },
        {
          "name": "E2",
          "midi": 40,
          "time": 193.33720930229435,
          "velocity": 0.5118110236220472,
          "duration": 0.011627906976741542
        },
        {
          "name": "B3",
          "midi": 59,
          "time": 193.3488372092711,
          "velocity": 0.3700787401574803,
          "duration": 0.023255813953483084
        },
        {
          "name": "E2",
          "midi": 40,
          "time": 193.36046511624784,
          "velocity": 0.49606299212598426,
          "duration": 0.034883720930224626
        },
        {
          "name": "E3",
          "midi": 52,
          "time": 193.36046511624784,
          "velocity": 0.5196850393700787,
          "duration": 0.06976744186044925
        },
        {
          "name": "G#4",
          "midi": 68,
          "time": 193.37209302322458,
          "velocity": 0.2204724409448819,
          "duration": 0.1395348837208985
        },
        {
          "name": "B3",
          "midi": 59,
          "time": 193.38372093020132,
          "velocity": 0.3700787401574803,
          "duration": 0.05813953488370771
        },
        {
          "name": "D7",
          "midi": 98,
          "time": 193.38372093020132,
          "velocity": 0.07874015748031496,
          "duration": 0.034883720930224626
        },
        {
          "name": "D#7",
          "midi": 99,
          "time": 193.4069767441548,
          "velocity": 0.12598425196850394,
          "duration": 0.04651162790696617
        },
        {
          "name": "F3",
          "midi": 53,
          "time": 193.45348837206177,
          "velocity": 0.2755905511811024,
          "duration": 0.023255813953483084
        },
        {
          "name": "E7",
          "midi": 100,
          "time": 193.45348837206177,
          "velocity": 0.11811023622047244,
          "duration": 0.04651162790696617
        },
        {
          "name": "B3",
          "midi": 59,
          "time": 193.4651162790385,
          "velocity": 0.1968503937007874,
          "duration": 0.034883720930224626
        },
        {
          "name": "F#7",
          "midi": 102,
          "time": 193.47674418601525,
          "velocity": 0.15748031496062992,
          "duration": 0.3023255813952801
        },
        {
          "name": "D#2",
          "midi": 39,
          "time": 193.49999999996874,
          "velocity": 0.5196850393700787,
          "duration": 0.023255813953483084
        },
        {
          "name": "F#5",
          "midi": 78,
          "time": 193.49999999996874,
          "velocity": 0.25196850393700787,
          "duration": 0.04651162790696617
        },
        {
          "name": "G4",
          "midi": 67,
          "time": 193.51162790694548,
          "velocity": 0.30708661417322836,
          "duration": 0.24418604651157239
        },
        {
          "name": "C#7",
          "midi": 97,
          "time": 193.52325581392222,
          "velocity": 0.14960629921259844,
          "duration": 0.05813953488370771
        },
        {
          "name": "E7",
          "midi": 100,
          "time": 193.52325581392222,
          "velocity": 0.11811023622047244,
          "duration": 0.06976744186044925
        },
        {
          "name": "A#3",
          "midi": 58,
          "time": 193.53488372089896,
          "velocity": 0.2755905511811024,
          "duration": 0.023255813953483084
        },
        {
          "name": "D7",
          "midi": 98,
          "time": 193.5465116278757,
          "velocity": 0.10236220472440945,
          "duration": 0.034883720930224626
        },
        {
          "name": "E3",
          "midi": 52,
          "time": 193.55813953485244,
          "velocity": 0.4409448818897638,
          "duration": 0.023255813953483084
        },
        {
          "name": "B3",
          "midi": 59,
          "time": 193.55813953485244,
          "velocity": 0.3228346456692913,
          "duration": 0.034883720930224626
        },
        {
          "name": "F#5",
          "midi": 78,
          "time": 193.55813953485244,
          "velocity": 0.33858267716535434,
          "duration": 0.11627906976741542
        },
        {
          "name": "F2",
          "midi": 41,
          "time": 193.56976744182919,
          "velocity": 0.5118110236220472,
          "duration": 0.011627906976741542
        },
        {
          "name": "G6",
          "midi": 91,
          "time": 193.58139534880593,
          "velocity": 0.07874015748031496,
          "duration": 0.034883720930224626
        },
        {
          "name": "E3",
          "midi": 52,
          "time": 193.59302325578267,
          "velocity": 0.5590551181102362,
          "duration": 0.034883720930224626
        },
        {
          "name": "B3",
          "midi": 59,
          "time": 193.6046511627594,
          "velocity": 0.30708661417322836,
          "duration": 0.10465116279067388
        },
        {
          "name": "D#3",
          "midi": 51,
          "time": 193.6279069767129,
          "velocity": 0.5433070866141733,
          "duration": 0.011627906976741542
        },
        {
          "name": "E3",
          "midi": 52,
          "time": 193.63953488368963,
          "velocity": 0.5275590551181102,
          "duration": 0.05813953488370771
        },
        {
          "name": "E2",
          "midi": 40,
          "time": 193.65116279066638,
          "velocity": 0.4330708661417323,
          "duration": 0.034883720930224626
        },
        {
          "name": "E7",
          "midi": 100,
          "time": 193.66279069764312,
          "velocity": 0.18110236220472442,
          "duration": 0.04651162790696617
        },
        {
          "name": "D#7",
          "midi": 99,
          "time": 193.67441860461986,
          "velocity": 0.07874015748031496,
          "duration": 0.04651162790696617
        },
        {
          "name": "E2",
          "midi": 40,
          "time": 193.69767441857334,
          "velocity": 0.5354330708661418,
          "duration": 0.011627906976741542
        },
        {
          "name": "F2",
          "midi": 41,
          "time": 193.70930232555008,
          "velocity": 0.5511811023622047,
          "duration": 0.023255813953483084
        },
        {
          "name": "E7",
          "midi": 100,
          "time": 193.72093023252683,
          "velocity": 0.1968503937007874,
          "duration": 0.279069767441797
        },
        {
          "name": "C4",
          "midi": 60,
          "time": 193.73255813950357,
          "velocity": 0.25984251968503935,
          "duration": 0.04651162790696617
        },
        {
          "name": "E4",
          "midi": 64,
          "time": 193.73255813950357,
          "velocity": 0.2047244094488189,
          "duration": 0.0813953488371908
        },
        {
          "name": "D5",
          "midi": 74,
          "time": 193.73255813950357,
          "velocity": 0.1732283464566929,
          "duration": 0.05813953488370771
        },
        {
          "name": "A5",
          "midi": 81,
          "time": 193.73255813950357,
          "velocity": 0.25984251968503935,
          "duration": 0.24418604651157239
        },
        {
          "name": "C#7",
          "midi": 97,
          "time": 193.73255813950357,
          "velocity": 0.2755905511811024,
          "duration": 0.0813953488371908
        },
        {
          "name": "D7",
          "midi": 98,
          "time": 193.73255813950357,
          "velocity": 0.16535433070866143,
          "duration": 0.034883720930224626
        },
        {
          "name": "D#7",
          "midi": 99,
          "time": 193.73255813950357,
          "velocity": 0.13385826771653545,
          "duration": 0.279069767441797
        },
        {
          "name": "F2",
          "midi": 41,
          "time": 193.7441860464803,
          "velocity": 0.4881889763779528,
          "duration": 0.034883720930224626
        },
        {
          "name": "F#6",
          "midi": 90,
          "time": 193.7441860464803,
          "velocity": 0.12598425196850394,
          "duration": 0.04651162790696617
        },
        {
          "name": "G3",
          "midi": 55,
          "time": 193.75581395345705,
          "velocity": 0.2283464566929134,
          "duration": 0.023255813953483084
        },
        {
          "name": "F7",
          "midi": 101,
          "time": 193.7674418604338,
          "velocity": 0.07874015748031496,
          "duration": 0.05813953488370771
        },
        {
          "name": "G7",
          "midi": 103,
          "time": 193.7674418604338,
          "velocity": 0.12598425196850394,
          "duration": 0.11627906976741542
        },
        {
          "name": "E3",
          "midi": 52,
          "time": 193.77906976741053,
          "velocity": 0.3543307086614173,
          "duration": 0.034883720930224626
        },
        {
          "name": "B3",
          "midi": 59,
          "time": 193.77906976741053,
          "velocity": 0.3228346456692913,
          "duration": 0.18604651162786467
        },
        {
          "name": "D#6",
          "midi": 87,
          "time": 193.77906976741053,
          "velocity": 0.14960629921259844,
          "duration": 0.06976744186044925
        },
        {
          "name": "C7",
          "midi": 96,
          "time": 193.79069767438727,
          "velocity": 0.15748031496062992,
          "duration": 0.10465116279067388
        },
        {
          "name": "G4",
          "midi": 67,
          "time": 193.80232558136402,
          "velocity": 0.14173228346456693,
          "duration": 0.034883720930224626
        },
        {
          "name": "D7",
          "midi": 98,
          "time": 193.80232558136402,
          "velocity": 0.1732283464566929,
          "duration": 0.09302325581393234
        },
        {
          "name": "F#7",
          "midi": 102,
          "time": 193.80232558136402,
          "velocity": 0.18110236220472442,
          "duration": 0.29069767441853855
        },
        {
          "name": "D5",
          "midi": 74,
          "time": 193.81395348834076,
          "velocity": 0.14173228346456693,
          "duration": 0.06976744186044925
        },
        {
          "name": "F#5",
          "midi": 78,
          "time": 193.81395348834076,
          "velocity": 0.09448818897637795,
          "duration": 0.05813953488370771
        },
        {
          "name": "E2",
          "midi": 40,
          "time": 193.8255813953175,
          "velocity": 0.48031496062992124,
          "duration": 0.05813953488370771
        },
        {
          "name": "C#7",
          "midi": 97,
          "time": 193.83720930229424,
          "velocity": 0.2283464566929134,
          "duration": 0.17441860465112313
        },
        {
          "name": "B5",
          "midi": 83,
          "time": 193.87209302322447,
          "velocity": 0.2047244094488189,
          "duration": 0.10465116279067388
        },
        {
          "name": "D#6",
          "midi": 87,
          "time": 193.87209302322447,
          "velocity": 0.08661417322834646,
          "duration": 0.034883720930224626
        },
        {
          "name": "F7",
          "midi": 101,
          "time": 193.87209302322447,
          "velocity": 0.11023622047244094,
          "duration": 0.06976744186044925
        },
        {
          "name": "G2",
          "midi": 43,
          "time": 193.89534883717795,
          "velocity": 0.4015748031496063,
          "duration": 0.023255813953483084
        },
        {
          "name": "G4",
          "midi": 67,
          "time": 193.89534883717795,
          "velocity": 0.4409448818897638,
          "duration": 0.26744186046505547
        },
        {
          "name": "D#3",
          "midi": 51,
          "time": 193.9069767441547,
          "velocity": 0.4251968503937008,
          "duration": 0.023255813953483084
        },
        {
          "name": "G7",
          "midi": 103,
          "time": 193.9069767441547,
          "velocity": 0.12598425196850394,
          "duration": 0.09302325581393234
        },
        {
          "name": "E4",
          "midi": 64,
          "time": 193.91860465113143,
          "velocity": 0.2283464566929134,
          "duration": 0.034883720930224626
        },
        {
          "name": "F#5",
          "midi": 78,
          "time": 193.93023255810817,
          "velocity": 0.33858267716535434,
          "duration": 0.0813953488371908
        },
        {
          "name": "C7",
          "midi": 96,
          "time": 193.94186046508491,
          "velocity": 0.07874015748031496,
          "duration": 0.034883720930224626
        },
        {
          "name": "F2",
          "midi": 41,
          "time": 193.95348837206166,
          "velocity": 0.5669291338582677,
          "duration": 0.011627906976741542
        },
        {
          "name": "G6",
          "midi": 91,
          "time": 193.95348837206166,
          "velocity": 0.18110236220472442,
          "duration": 0.11627906976741542
        },
        {
          "name": "D7",
          "midi": 98,
          "time": 193.95348837206166,
          "velocity": 0.09448818897637795,
          "duration": 0.06976744186044925
        },
        {
          "name": "F#2",
          "midi": 42,
          "time": 193.9651162790384,
          "velocity": 0.5826771653543307,
          "duration": 0.011627906976741542
        },
        {
          "name": "F2",
          "midi": 41,
          "time": 193.97674418601514,
          "velocity": 0.5433070866141733,
          "duration": 0.034883720930224626
        },
        {
          "name": "B3",
          "midi": 59,
          "time": 193.98837209299188,
          "velocity": 0.3858267716535433,
          "duration": 0.1627906976743816
        },
        {
          "name": "E4",
          "midi": 64,
          "time": 193.99999999996862,
          "velocity": 0.2204724409448819,
          "duration": 0.09302325581393234
        },
        {
          "name": "C7",
          "midi": 96,
          "time": 193.99999999996862,
          "velocity": 0.11811023622047244,
          "duration": 0.06976744186044925
        },
        {
          "name": "E2",
          "midi": 40,
          "time": 194.01162790694536,
          "velocity": 0.5118110236220472,
          "duration": 0.034883720930224626
        },
        {
          "name": "A5",
          "midi": 81,
          "time": 194.01162790694536,
          "velocity": 0.07874015748031496,
          "duration": 0.06976744186044925
        },
        {
          "name": "A6",
          "midi": 93,
          "time": 194.0232558139221,
          "velocity": 0.25984251968503935,
          "duration": 0.10465116279067388
        },
        {
          "name": "E3",
          "midi": 52,
          "time": 194.03488372089885,
          "velocity": 0.5275590551181102,
          "duration": 0.034883720930224626
        },
        {
          "name": "F7",
          "midi": 101,
          "time": 194.03488372089885,
          "velocity": 0.14960629921259844,
          "duration": 0.10465116279067388
        },
        {
          "name": "A#6",
          "midi": 94,
          "time": 194.0465116278756,
          "velocity": 0.23622047244094488,
          "duration": 0.09302325581393234
        },
        {
          "name": "E2",
          "midi": 40,
          "time": 194.05813953485233,
          "velocity": 0.41732283464566927,
          "duration": 0.04651162790696617
        },
        {
          "name": "F#5",
          "midi": 78,
          "time": 194.05813953485233,
          "velocity": 0.16535433070866143,
          "duration": 0.034883720930224626
        },
        {
          "name": "E3",
          "midi": 52,
          "time": 194.11627906973604,
          "velocity": 0.1732283464566929,
          "duration": 0.034883720930224626
        },
        {
          "name": "D5",
          "midi": 74,
          "time": 194.11627906973604,
          "velocity": 0.4015748031496063,
          "duration": 0.0813953488371908
        },
        {
          "name": "A#5",
          "midi": 82,
          "time": 194.11627906973604,
          "velocity": 0.09448818897637795,
          "duration": 0.034883720930224626
        },
        {
          "name": "E2",
          "midi": 40,
          "time": 194.12790697671278,
          "velocity": 0.2440944881889764,
          "duration": 0.023255813953483084
        },
        {
          "name": "B2",
          "midi": 47,
          "time": 194.13953488368952,
          "velocity": 0.3700787401574803,
          "duration": 0.023255813953483084
        },
        {
          "name": "A#4",
          "midi": 70,
          "time": 194.13953488368952,
          "velocity": 0.2677165354330709,
          "duration": 0.034883720930224626
        },
        {
          "name": "A6",
          "midi": 93,
          "time": 194.13953488368952,
          "velocity": 0.30708661417322836,
          "duration": 0.19767441860460622
        },
        {
          "name": "E7",
          "midi": 100,
          "time": 194.13953488368952,
          "velocity": 0.1889763779527559,
          "duration": 0.06976744186044925
        },
        {
          "name": "A5",
          "midi": 81,
          "time": 194.15116279066626,
          "velocity": 0.18110236220472442,
          "duration": 0.034883720930224626
        },
        {
          "name": "C#7",
          "midi": 97,
          "time": 194.15116279066626,
          "velocity": 0.18110236220472442,
          "duration": 0.11627906976741542
        },
        {
          "name": "D7",
          "midi": 98,
          "time": 194.15116279066626,
          "velocity": 0.1732283464566929,
          "duration": 0.1627906976743816
        },
        {
          "name": "C3",
          "midi": 48,
          "time": 194.162790697643,
          "velocity": 0.5275590551181102,
          "duration": 0.023255813953483084
        },
        {
          "name": "F#4",
          "midi": 66,
          "time": 194.162790697643,
          "velocity": 0.3779527559055118,
          "duration": 0.04651162790696617
        },
        {
          "name": "B4",
          "midi": 71,
          "time": 194.162790697643,
          "velocity": 0.3700787401574803,
          "duration": 0.43023255813943706
        },
        {
          "name": "E5",
          "midi": 76,
          "time": 194.162790697643,
          "velocity": 0.3858267716535433,
          "duration": 0.9186046511625818
        },
        {
          "name": "C#6",
          "midi": 85,
          "time": 194.162790697643,
          "velocity": 0.09448818897637795,
          "duration": 0.04651162790696617
        },
        {
          "name": "F#6",
          "midi": 90,
          "time": 194.162790697643,
          "velocity": 0.1732283464566929,
          "duration": 0.034883720930224626
        },
        {
          "name": "D#7",
          "midi": 99,
          "time": 194.162790697643,
          "velocity": 0.13385826771653545,
          "duration": 0.05813953488370771
        },
        {
          "name": "F7",
          "midi": 101,
          "time": 194.17441860461975,
          "velocity": 0.10236220472440945,
          "duration": 0.05813953488370771
        },
        {
          "name": "A#5",
          "midi": 82,
          "time": 194.1860465115965,
          "velocity": 0.10236220472440945,
          "duration": 0.05813953488370771
        },
        {
          "name": "A#3",
          "midi": 58,
          "time": 194.19767441857323,
          "velocity": 0.4015748031496063,
          "duration": 0.023255813953483084
        },
        {
          "name": "E4",
          "midi": 64,
          "time": 194.20930232554997,
          "velocity": 0.1732283464566929,
          "duration": 0.034883720930224626
        },
        {
          "name": "G4",
          "midi": 67,
          "time": 194.20930232554997,
          "velocity": 0.33070866141732286,
          "duration": 0.034883720930224626
        },
        {
          "name": "E3",
          "midi": 52,
          "time": 194.2209302325267,
          "velocity": 0.5433070866141733,
          "duration": 0.10465116279067388
        },
        {
          "name": "C4",
          "midi": 60,
          "time": 194.2209302325267,
          "velocity": 0.3779527559055118,
          "duration": 0.023255813953483084
        },
        {
          "name": "D5",
          "midi": 74,
          "time": 194.2209302325267,
          "velocity": 0.15748031496062992,
          "duration": 0.034883720930224626
        },
        {
          "name": "E2",
          "midi": 40,
          "time": 194.23255813950345,
          "velocity": 0.49606299212598426,
          "duration": 0.023255813953483084
        },
        {
          "name": "B3",
          "midi": 59,
          "time": 194.2441860464802,
          "velocity": 0.4015748031496063,
          "duration": 0.034883720930224626
        },
        {
          "name": "F4",
          "midi": 65,
          "time": 194.25581395345694,
          "velocity": 0.18110236220472442,
          "duration": 0.034883720930224626
        },
        {
          "name": "A#6",
          "midi": 94,
          "time": 194.25581395345694,
          "velocity": 0.08661417322834646,
          "duration": 0.06976744186044925
        },
        {
          "name": "C3",
          "midi": 48,
          "time": 194.26744186043368,
          "velocity": 0.5118110236220472,
          "duration": 0.011627906976741542
        },
        {
          "name": "G#4",
          "midi": 68,
          "time": 194.26744186043368,
          "velocity": 0.1732283464566929,
          "duration": 0.10465116279067388
        },
        {
          "name": "D5",
          "midi": 74,
          "time": 194.26744186043368,
          "velocity": 0.2440944881889764,
          "duration": 0.24418604651157239
        },
        {
          "name": "B2",
          "midi": 47,
          "time": 194.27906976741042,
          "velocity": 0.5196850393700787,
          "duration": 0.011627906976741542
        },
        {
          "name": "F#7",
          "midi": 102,
          "time": 194.27906976741042,
          "velocity": 0.08661417322834646,
          "duration": 0.0813953488371908
        },
        {
          "name": "C3",
          "midi": 48,
          "time": 194.32558139531739,
          "velocity": 0.5590551181102362,
          "duration": 0.023255813953483084
        },
        {
          "name": "B3",
          "midi": 59,
          "time": 194.32558139531739,
          "velocity": 0.30708661417322836,
          "duration": 0.034883720930224626
        },
        {
          "name": "B2",
          "midi": 47,
          "time": 194.34883720927087,
          "velocity": 0.5511811023622047,
          "duration": 0.023255813953483084
        },
        {
          "name": "A6",
          "midi": 93,
          "time": 194.3604651162476,
          "velocity": 0.3228346456692913,
          "duration": 0.279069767441797
        },
        {
          "name": "D7",
          "midi": 98,
          "time": 194.3604651162476,
          "velocity": 0.18110236220472442,
          "duration": 0.04651162790696617
        },
        {
          "name": "F2",
          "midi": 41,
          "time": 194.37209302322435,
          "velocity": 0.5354330708661418,
          "duration": 0.011627906976741542
        },
        {
          "name": "G4",
          "midi": 67,
          "time": 194.37209302322435,
          "velocity": 0.3543307086614173,
          "duration": 0.20930232558134776
        },
        {
          "name": "C#7",
          "midi": 97,
          "time": 194.37209302322435,
          "velocity": 0.28346456692913385,
          "duration": 0.31395348837202164
        },
        {
          "name": "E2",
          "midi": 40,
          "time": 194.3837209302011,
          "velocity": 0.5669291338582677,
          "duration": 0.034883720930224626
        },
        {
          "name": "G5",
          "midi": 79,
          "time": 194.3837209302011,
          "velocity": 0.3700787401574803,
          "duration": 0.15116279069764005
        },
        {
          "name": "B3",
          "midi": 59,
          "time": 194.39534883717783,
          "velocity": 0.2677165354330709,
          "duration": 0.04651162790696617
        },
        {
          "name": "G7",
          "midi": 103,
          "time": 194.39534883717783,
          "velocity": 0.13385826771653545,
          "duration": 0.05813953488370771
        },
        {
          "name": "C3",
          "midi": 48,
          "time": 194.40697674415458,
          "velocity": 0.5196850393700787,
          "duration": 0.011627906976741542
        },
        {
          "name": "D#6",
          "midi": 87,
          "time": 194.40697674415458,
          "velocity": 0.12598425196850394,
          "duration": 0.0813953488371908
        },
        {
          "name": "G#2",
          "midi": 44,
          "time": 194.41860465113132,
          "velocity": 0.5984251968503937,
          "duration": 0.011627906976741542
        },
        {
          "name": "E4",
          "midi": 64,
          "time": 194.41860465113132,
          "velocity": 0.1889763779527559,
          "duration": 0.17441860465112313
        },
        {
          "name": "D#7",
          "midi": 99,
          "time": 194.41860465113132,
          "velocity": 0.25196850393700787,
          "duration": 0.34883720930224626
        },
        {
          "name": "B2",
          "midi": 47,
          "time": 194.43023255810806,
          "velocity": 0.5039370078740157,
          "duration": 0.023255813953483084
        },
        {
          "name": "C7",
          "midi": 96,
          "time": 194.43023255810806,
          "velocity": 0.11811023622047244,
          "duration": 0.10465116279067388
        },
        {
          "name": "D7",
          "midi": 98,
          "time": 194.43023255810806,
          "velocity": 0.1732283464566929,
          "duration": 0.09302325581393234
        },
        {
          "name": "F#7",
          "midi": 102,
          "time": 194.43023255810806,
          "velocity": 0.10236220472440945,
          "duration": 0.1395348837208985
        },
        {
          "name": "F2",
          "midi": 41,
          "time": 194.4418604650848,
          "velocity": 0.5511811023622047,
          "duration": 0.034883720930224626
        },
        {
          "name": "A#3",
          "midi": 58,
          "time": 194.4418604650848,
          "velocity": 0.23622047244094488,
          "duration": 0.023255813953483084
        },
        {
          "name": "E2",
          "midi": 40,
          "time": 194.47674418601503,
          "velocity": 0.5590551181102362,
          "duration": 0.011627906976741542
        },
        {
          "name": "F7",
          "midi": 101,
          "time": 194.47674418601503,
          "velocity": 0.11811023622047244,
          "duration": 0.09302325581393234
        },
        {
          "name": "F2",
          "midi": 41,
          "time": 194.48837209299177,
          "velocity": 0.5354330708661418,
          "duration": 0.011627906976741542
        },
        {
          "name": "E2",
          "midi": 40,
          "time": 194.4999999999685,
          "velocity": 0.48031496062992124,
          "duration": 0.023255813953483084
        },
        {
          "name": "B3",
          "midi": 59,
          "time": 194.4999999999685,
          "velocity": 0.25984251968503935,
          "duration": 0.10465116279067388
        },
        {
          "name": "F#5",
          "midi": 78,
          "time": 194.53488372089873,
          "velocity": 0.3543307086614173,
          "duration": 0.06976744186044925
        },
        {
          "name": "G6",
          "midi": 91,
          "time": 194.53488372089873,
          "velocity": 0.4645669291338583,
          "duration": 0.20930232558134776
        },
        {
          "name": "D7",
          "midi": 98,
          "time": 194.54651162787547,
          "velocity": 0.1732283464566929,
          "duration": 0.034883720930224626
        },
        {
          "name": "E3",
          "midi": 52,
          "time": 194.55813953485222,
          "velocity": 0.33070866141732286,
          "duration": 0.023255813953483084
        },
        {
          "name": "C7",
          "midi": 96,
          "time": 194.55813953485222,
          "velocity": 0.15748031496062992,
          "duration": 0.0813953488371908
        },
        {
          "name": "B6",
          "midi": 95,
          "time": 194.56976744182896,
          "velocity": 0.3228346456692913,
          "duration": 1.4883720930229174
        },
        {
          "name": "D5",
          "midi": 74,
          "time": 194.5813953488057,
          "velocity": 0.14173228346456693,
          "duration": 0.034883720930224626
        },
        {
          "name": "G2",
          "midi": 43,
          "time": 194.59302325578244,
          "velocity": 0.4094488188976378,
          "duration": 0.023255813953483084
        },
        {
          "name": "E3",
          "midi": 52,
          "time": 194.59302325578244,
          "velocity": 0.4015748031496063,
          "duration": 0.023255813953483084
        },
        {
          "name": "G4",
          "midi": 67,
          "time": 194.59302325578244,
          "velocity": 0.30708661417322836,
          "duration": 0.023255813953483084
        },
        {
          "name": "D7",
          "midi": 98,
          "time": 194.59302325578244,
          "velocity": 0.30708661417322836,
          "duration": 0.4999999999998863
        },
        {
          "name": "B4",
          "midi": 71,
          "time": 194.60465116275918,
          "velocity": 0.3464566929133858,
          "duration": 0.19767441860460622
        },
        {
          "name": "G5",
          "midi": 79,
          "time": 194.60465116275918,
          "velocity": 0.4645669291338583,
          "duration": 0.20930232558134776
        },
        {
          "name": "E7",
          "midi": 100,
          "time": 194.60465116275918,
          "velocity": 0.23622047244094488,
          "duration": 0.29069767441853855
        },
        {
          "name": "F#7",
          "midi": 102,
          "time": 194.60465116275918,
          "velocity": 0.18110236220472442,
          "duration": 0.1627906976743816
        },
        {
          "name": "F3",
          "midi": 53,
          "time": 194.61627906973592,
          "velocity": 0.3543307086614173,
          "duration": 0.034883720930224626
        },
        {
          "name": "G#4",
          "midi": 68,
          "time": 194.61627906973592,
          "velocity": 0.2125984251968504,
          "duration": 0.034883720930224626
        },
        {
          "name": "F2",
          "midi": 41,
          "time": 194.62790697671267,
          "velocity": 0.5354330708661418,
          "duration": 0.034883720930224626
        },
        {
          "name": "F7",
          "midi": 101,
          "time": 194.62790697671267,
          "velocity": 0.2204724409448819,
          "duration": 0.43023255813943706
        },
        {
          "name": "E3",
          "midi": 52,
          "time": 194.65116279066615,
          "velocity": 0.3858267716535433,
          "duration": 0.0813953488371908
        },
        {
          "name": "G4",
          "midi": 67,
          "time": 194.65116279066615,
          "velocity": 0.2283464566929134,
          "duration": 0.023255813953483084
        },
        {
          "name": "D6",
          "midi": 86,
          "time": 194.6627906976429,
          "velocity": 0.08661417322834646,
          "duration": 0.04651162790696617
        },
        {
          "name": "A6",
          "midi": 93,
          "time": 194.6627906976429,
          "velocity": 0.09448818897637795,
          "duration": 0.034883720930224626
        },
        {
          "name": "A#6",
          "midi": 94,
          "time": 194.6627906976429,
          "velocity": 0.12598425196850394,
          "duration": 0.034883720930224626
        },
        {
          "name": "B3",
          "midi": 59,
          "time": 194.68604651159637,
          "velocity": 0.13385826771653545,
          "duration": 0.06976744186044925
        },
        {
          "name": "G4",
          "midi": 67,
          "time": 194.68604651159637,
          "velocity": 0.1968503937007874,
          "duration": 0.034883720930224626
        },
        {
          "name": "C#7",
          "midi": 97,
          "time": 194.70930232554986,
          "velocity": 0.1889763779527559,
          "duration": 0.05813953488370771
        },
        {
          "name": "G#4",
          "midi": 68,
          "time": 194.7209302325266,
          "velocity": 0.14173228346456693,
          "duration": 0.034883720930224626
        },
        {
          "name": "A#6",
          "midi": 94,
          "time": 194.7209302325266,
          "velocity": 0.10236220472440945,
          "duration": 0.034883720930224626
        },
        {
          "name": "D6",
          "midi": 86,
          "time": 194.73255813950334,
          "velocity": 0.11023622047244094,
          "duration": 0.04651162790696617
        },
        {
          "name": "F#6",
          "midi": 90,
          "time": 194.75581395345682,
          "velocity": 0.3779527559055118,
          "duration": 0.34883720930224626
        },
        {
          "name": "E2",
          "midi": 40,
          "time": 194.76744186043356,
          "velocity": 0.2047244094488189,
          "duration": 0.034883720930224626
        },
        {
          "name": "D#3",
          "midi": 51,
          "time": 194.76744186043356,
          "velocity": 0.25984251968503935,
          "duration": 0.023255813953483084
        },
        {
          "name": "A#6",
          "midi": 94,
          "time": 194.76744186043356,
          "velocity": 0.11811023622047244,
          "duration": 0.034883720930224626
        },
        {
          "name": "C#3",
          "midi": 49,
          "time": 194.79069767438705,
          "velocity": 0.3543307086614173,
          "duration": 0.023255813953483084
        },
        {
          "name": "D5",
          "midi": 74,
          "time": 194.79069767438705,
          "velocity": 0.16535433070866143,
          "duration": 0.034883720930224626
        },
        {
          "name": "C#7",
          "midi": 97,
          "time": 194.79069767438705,
          "velocity": 0.2992125984251969,
          "duration": 0.3255813953487632
        },
        {
          "name": "A4",
          "midi": 69,
          "time": 194.8023255813638,
          "velocity": 0.29133858267716534,
          "duration": 0.0813953488371908
        },
        {
          "name": "F#5",
          "midi": 78,
          "time": 194.8023255813638,
          "velocity": 0.5433070866141733,
          "duration": 0.48837209302314477
        },
        {
          "name": "F#4",
          "midi": 66,
          "time": 194.81395348834053,
          "velocity": 0.31496062992125984,
          "duration": 0.2209302325580893
        },
        {
          "name": "C7",
          "midi": 96,
          "time": 194.81395348834053,
          "velocity": 0.23622047244094488,
          "duration": 0.1395348837208985
        },
        {
          "name": "D#7",
          "midi": 99,
          "time": 194.82558139531727,
          "velocity": 0.2125984251968504,
          "duration": 0.279069767441797
        },
        {
          "name": "F2",
          "midi": 41,
          "time": 194.837209302294,
          "velocity": 0.49606299212598426,
          "duration": 0.04651162790696617
        },
        {
          "name": "B4",
          "midi": 71,
          "time": 194.837209302294,
          "velocity": 0.2283464566929134,
          "duration": 0.1627906976743816
        },
        {
          "name": "D5",
          "midi": 74,
          "time": 194.837209302294,
          "velocity": 0.1732283464566929,
          "duration": 0.04651162790696617
        },
        {
          "name": "E3",
          "midi": 52,
          "time": 194.84883720927076,
          "velocity": 0.3937007874015748,
          "duration": 0.023255813953483084
        },
        {
          "name": "D4",
          "midi": 62,
          "time": 194.8604651162475,
          "velocity": 0.2755905511811024,
          "duration": 0.1627906976743816
        },
        {
          "name": "A6",
          "midi": 93,
          "time": 194.8604651162475,
          "velocity": 0.2125984251968504,
          "duration": 0.26744186046505547
        },
        {
          "name": "D3",
          "midi": 50,
          "time": 194.88372093020098,
          "velocity": 0.4094488188976378,
          "duration": 0.10465116279067388
        },
        {
          "name": "A3",
          "midi": 57,
          "time": 194.88372093020098,
          "velocity": 0.2204724409448819,
          "duration": 0.12790697674415696
        },
        {
          "name": "A4",
          "midi": 69,
          "time": 194.9186046511312,
          "velocity": 0.3228346456692913,
          "duration": 0.18604651162786467
        },
        {
          "name": "F2",
          "midi": 41,
          "time": 194.9418604650847,
          "velocity": 0.33070866141732286,
          "duration": 0.034883720930224626
        },
        {
          "name": "G6",
          "midi": 91,
          "time": 194.95348837206143,
          "velocity": 0.16535433070866143,
          "duration": 0.09302325581393234
        },
        {
          "name": "D#3",
          "midi": 51,
          "time": 194.98837209299165,
          "velocity": 0.2755905511811024,
          "duration": 0.023255813953483084
        },
        {
          "name": "C7",
          "midi": 96,
          "time": 194.9999999999684,
          "velocity": 0.12598425196850394,
          "duration": 0.06976744186044925
        },
        {
          "name": "B5",
          "midi": 83,
          "time": 195.01162790694514,
          "velocity": 0.08661417322834646,
          "duration": 0.04651162790696617
        },
        {
          "name": "D6",
          "midi": 86,
          "time": 195.01162790694514,
          "velocity": 0.08661417322834646,
          "duration": 0.034883720930224626
        },
        {
          "name": "E7",
          "midi": 100,
          "time": 195.01162790694514,
          "velocity": 0.2992125984251969,
          "duration": 0.3604651162789878
        },
        {
          "name": "A#1",
          "midi": 34,
          "time": 195.02325581392188,
          "velocity": 0.5118110236220472,
          "duration": 0.011627906976741542
        },
        {
          "name": "A2",
          "midi": 45,
          "time": 195.02325581392188,
          "velocity": 0.5826771653543307,
          "duration": 0.023255813953483084
        },
        {
          "name": "A#3",
          "midi": 58,
          "time": 195.02325581392188,
          "velocity": 0.2992125984251969,
          "duration": 0.023255813953483084
        },
        {
          "name": "C#4",
          "midi": 61,
          "time": 195.02325581392188,
          "velocity": 0.2992125984251969,
          "duration": 0.023255813953483084
        },
        {
          "name": "E4",
          "midi": 64,
          "time": 195.03488372089862,
          "velocity": 0.2283464566929134,
          "duration": 0.034883720930224626
        },
        {
          "name": "C5",
          "midi": 72,
          "time": 195.03488372089862,
          "velocity": 0.2283464566929134,
          "duration": 0.31395348837202164
        },
        {
          "name": "G#2",
          "midi": 44,
          "time": 195.04651162787536,
          "velocity": 0.5433070866141733,
          "duration": 0.011627906976741542
        },
        {
          "name": "G5",
          "midi": 79,
          "time": 195.04651162787536,
          "velocity": 0.16535433070866143,
          "duration": 0.034883720930224626
        },
        {
          "name": "C3",
          "midi": 48,
          "time": 195.0581395348521,
          "velocity": 0.5748031496062992,
          "duration": 0.011627906976741542
        },
        {
          "name": "A#6",
          "midi": 94,
          "time": 195.0581395348521,
          "velocity": 0.2047244094488189,
          "duration": 0.034883720930224626
        },
        {
          "name": "B2",
          "midi": 47,
          "time": 195.06976744182884,
          "velocity": 0.5590551181102362,
          "duration": 0.011627906976741542
        },
        {
          "name": "C4",
          "midi": 60,
          "time": 195.06976744182884,
          "velocity": 0.31496062992125984,
          "duration": 0.023255813953483084
        },
        {
          "name": "D#5",
          "midi": 75,
          "time": 195.06976744182884,
          "velocity": 0.3779527559055118,
          "duration": 0.023255813953483084
        },
        {
          "name": "C3",
          "midi": 48,
          "time": 195.0813953488056,
          "velocity": 0.5669291338582677,
          "duration": 0.011627906976741542
        },
        {
          "name": "C#3",
          "midi": 49,
          "time": 195.09302325578233,
          "velocity": 0.5590551181102362,
          "duration": 0.011627906976741542
        },
        {
          "name": "G3",
          "midi": 55,
          "time": 195.09302325578233,
          "velocity": 0.4645669291338583,
          "duration": 0.0813953488371908
        },
        {
          "name": "E4",
          "midi": 64,
          "time": 195.09302325578233,
          "velocity": 0.16535433070866143,
          "duration": 0.09302325581393234
        },
        {
          "name": "E5",
          "midi": 76,
          "time": 195.09302325578233,
          "velocity": 0.44881889763779526,
          "duration": 0.1395348837208985
        },
        {
          "name": "C3",
          "midi": 48,
          "time": 195.10465116275907,
          "velocity": 0.5590551181102362,
          "duration": 0.023255813953483084
        },
        {
          "name": "C#3",
          "midi": 49,
          "time": 195.12790697671255,
          "velocity": 0.5669291338582677,
          "duration": 0.011627906976741542
        },
        {
          "name": "C#7",
          "midi": 97,
          "time": 195.15116279066604,
          "velocity": 0.14960629921259844,
          "duration": 0.1627906976743816
        },
        {
          "name": "F7",
          "midi": 101,
          "time": 195.15116279066604,
          "velocity": 0.08661417322834646,
          "duration": 0.034883720930224626
        },
        {
          "name": "C3",
          "midi": 48,
          "time": 195.197674418573,
          "velocity": 0.36220472440944884,
          "duration": 0.023255813953483084
        },
        {
          "name": "C7",
          "midi": 96,
          "time": 195.20930232554974,
          "velocity": 0.18110236220472442,
          "duration": 0.10465116279067388
        },
        {
          "name": "D7",
          "midi": 98,
          "time": 195.20930232554974,
          "velocity": 0.13385826771653545,
          "duration": 0.10465116279067388
        },
        {
          "name": "E4",
          "midi": 64,
          "time": 195.22093023252648,
          "velocity": 0.30708661417322836,
          "duration": 0.34883720930224626
        },
        {
          "name": "G#4",
          "midi": 68,
          "time": 195.22093023252648,
          "velocity": 0.2677165354330709,
          "duration": 0.023255813953483084
        },
        {
          "name": "A2",
          "midi": 45,
          "time": 195.23255813950323,
          "velocity": 0.5905511811023622,
          "duration": 0.034883720930224626
        },
        {
          "name": "G5",
          "midi": 79,
          "time": 195.23255813950323,
          "velocity": 0.13385826771653545,
          "duration": 0.17441860465112313
        },
        {
          "name": "D#7",
          "midi": 99,
          "time": 195.23255813950323,
          "velocity": 0.15748031496062992,
          "duration": 0.05813953488370771
        },
        {
          "name": "F7",
          "midi": 101,
          "time": 195.23255813950323,
          "velocity": 0.11811023622047244,
          "duration": 0.06976744186044925
        },
        {
          "name": "F#7",
          "midi": 102,
          "time": 195.23255813950323,
          "velocity": 0.11023622047244094,
          "duration": 0.04651162790696617
        },
        {
          "name": "B1",
          "midi": 35,
          "time": 195.24418604647997,
          "velocity": 0.5118110236220472,
          "duration": 0.011627906976741542
        },
        {
          "name": "G4",
          "midi": 67,
          "time": 195.24418604647997,
          "velocity": 0.3779527559055118,
          "duration": 0.05813953488370771
        },
        {
          "name": "D5",
          "midi": 74,
          "time": 195.24418604647997,
          "velocity": 0.28346456692913385,
          "duration": 0.34883720930224626
        },
        {
          "name": "E5",
          "midi": 76,
          "time": 195.24418604647997,
          "velocity": 0.4881889763779528,
          "duration": 0.2209302325580893
        },
        {
          "name": "B2",
          "midi": 47,
          "time": 195.26744186043345,
          "velocity": 0.5905511811023622,
          "duration": 0.034883720930224626
        },
        {
          "name": "A#4",
          "midi": 70,
          "time": 195.26744186043345,
          "velocity": 0.11811023622047244,
          "duration": 0.034883720930224626
        },
        {
          "name": "G#3",
          "midi": 56,
          "time": 195.2790697674102,
          "velocity": 0.30708661417322836,
          "duration": 0.023255813953483084
        },
        {
          "name": "C#4",
          "midi": 61,
          "time": 195.2790697674102,
          "velocity": 0.3464566929133858,
          "duration": 0.023255813953483084
        },
        {
          "name": "B5",
          "midi": 83,
          "time": 195.2790697674102,
          "velocity": 0.07874015748031496,
          "duration": 0.04651162790696617
        },
        {
          "name": "C#3",
          "midi": 49,
          "time": 195.30232558136368,
          "velocity": 0.5748031496062992,
          "duration": 0.023255813953483084
        },
        {
          "name": "C4",
          "midi": 60,
          "time": 195.30232558136368,
          "velocity": 0.3543307086614173,
          "duration": 0.18604651162786467
        },
        {
          "name": "G3",
          "midi": 55,
          "time": 195.31395348834042,
          "velocity": 0.4645669291338583,
          "duration": 0.06976744186044925
        },
        {
          "name": "A6",
          "midi": 93,
          "time": 195.31395348834042,
          "velocity": 0.14173228346456693,
          "duration": 0.09302325581393234
        },
        {
          "name": "F2",
          "midi": 41,
          "time": 195.32558139531716,
          "velocity": 0.5039370078740157,
          "duration": 0.023255813953483084
        },
        {
          "name": "C3",
          "midi": 48,
          "time": 195.32558139531716,
          "velocity": 0.5669291338582677,
          "duration": 0.011627906976741542
        },
        {
          "name": "G4",
          "midi": 67,
          "time": 195.32558139531716,
          "velocity": 0.5354330708661418,
          "duration": 0.7558139534882002
        },
        {
          "name": "C#3",
          "midi": 49,
          "time": 195.3372093022939,
          "velocity": 0.5748031496062992,
          "duration": 0.011627906976741542
        },
        {
          "name": "C3",
          "midi": 48,
          "time": 195.34883720927064,
          "velocity": 0.5826771653543307,
          "duration": 0.04651162790696617
        },
        {
          "name": "F#5",
          "midi": 78,
          "time": 195.36046511624738,
          "velocity": 0.15748031496062992,
          "duration": 0.06976744186044925
        },
        {
          "name": "B4",
          "midi": 71,
          "time": 195.38372093020087,
          "velocity": 0.08661417322834646,
          "duration": 0.034883720930224626
        },
        {
          "name": "E7",
          "midi": 100,
          "time": 195.38372093020087,
          "velocity": 0.2755905511811024,
          "duration": 1.244186046511345
        },
        {
          "name": "G3",
          "midi": 55,
          "time": 195.3953488371776,
          "velocity": 0.29133858267716534,
          "duration": 0.04651162790696617
        },
        {
          "name": "B2",
          "midi": 47,
          "time": 195.40697674415435,
          "velocity": 0.5118110236220472,
          "duration": 0.023255813953483084
        },
        {
          "name": "C7",
          "midi": 96,
          "time": 195.40697674415435,
          "velocity": 0.10236220472440945,
          "duration": 0.04651162790696617
        },
        {
          "name": "D7",
          "midi": 98,
          "time": 195.40697674415435,
          "velocity": 0.2283464566929134,
          "duration": 0.34883720930224626
        },
        {
          "name": "C3",
          "midi": 48,
          "time": 195.43023255810783,
          "velocity": 0.3779527559055118,
          "duration": 0.023255813953483084
        },
        {
          "name": "A5",
          "midi": 81,
          "time": 195.44186046508457,
          "velocity": 0.2677165354330709,
          "duration": 0.3372093023255047
        },
        {
          "name": "C#7",
          "midi": 97,
          "time": 195.45348837206132,
          "velocity": 0.2047244094488189,
          "duration": 0.18604651162786467
        },
        {
          "name": "F#7",
          "midi": 102,
          "time": 195.45348837206132,
          "velocity": 0.11023622047244094,
          "duration": 0.09302325581393234
        },
        {
          "name": "A#4",
          "midi": 70,
          "time": 195.46511627903806,
          "velocity": 0.18110236220472442,
          "duration": 0.034883720930224626
        },
        {
          "name": "C7",
          "midi": 96,
          "time": 195.46511627903806,
          "velocity": 0.10236220472440945,
          "duration": 0.05813953488370771
        },
        {
          "name": "D#7",
          "midi": 99,
          "time": 195.46511627903806,
          "velocity": 0.12598425196850394,
          "duration": 0.06976744186044925
        },
        {
          "name": "E5",
          "midi": 76,
          "time": 195.4767441860148,
          "velocity": 0.44881889763779526,
          "duration": 1.0348837209299973
        },
        {
          "name": "F#6",
          "midi": 90,
          "time": 195.48837209299154,
          "velocity": 0.12598425196850394,
          "duration": 0.034883720930224626
        },
        {
          "name": "G3",
          "midi": 55,
          "time": 195.49999999996828,
          "velocity": 0.3543307086614173,
          "duration": 0.034883720930224626
        },
        {
          "name": "C#4",
          "midi": 61,
          "time": 195.51162790694502,
          "velocity": 0.1732283464566929,
          "duration": 0.034883720930224626
        },
        {
          "name": "F7",
          "midi": 101,
          "time": 195.52325581392176,
          "velocity": 0.11023622047244094,
          "duration": 0.05813953488370771
        },
        {
          "name": "C3",
          "midi": 48,
          "time": 195.5348837208985,
          "velocity": 0.2992125984251969,
          "duration": 0.023255813953483084
        },
        {
          "name": "G3",
          "midi": 55,
          "time": 195.54651162787525,
          "velocity": 0.3543307086614173,
          "duration": 0.034883720930224626
        },
        {
          "name": "C4",
          "midi": 60,
          "time": 195.54651162787525,
          "velocity": 0.3464566929133858,
          "duration": 0.06976744186044925
        },
        {
          "name": "A#4",
          "midi": 70,
          "time": 195.558139534852,
          "velocity": 0.1732283464566929,
          "duration": 0.05813953488370771
        },
        {
          "name": "C7",
          "midi": 96,
          "time": 195.558139534852,
          "velocity": 0.08661417322834646,
          "duration": 0.04651162790696617
        },
        {
          "name": "D#7",
          "midi": 99,
          "time": 195.558139534852,
          "velocity": 0.11811023622047244,
          "duration": 0.09302325581393234
        },
        {
          "name": "C3",
          "midi": 48,
          "time": 195.58139534880547,
          "velocity": 0.4645669291338583,
          "duration": 0.023255813953483084
        },
        {
          "name": "G#3",
          "midi": 56,
          "time": 195.58139534880547,
          "velocity": 0.3700787401574803,
          "duration": 0.023255813953483084
        },
        {
          "name": "G3",
          "midi": 55,
          "time": 195.60465116275896,
          "velocity": 0.3700787401574803,
          "duration": 0.023255813953483084
        },
        {
          "name": "C7",
          "midi": 96,
          "time": 195.6162790697357,
          "velocity": 0.11811023622047244,
          "duration": 0.034883720930224626
        },
        {
          "name": "E4",
          "midi": 64,
          "time": 195.62790697671244,
          "velocity": 0.41732283464566927,
          "duration": 0.24418604651157239
        },
        {
          "name": "A#4",
          "midi": 70,
          "time": 195.62790697671244,
          "velocity": 0.1889763779527559,
          "duration": 0.09302325581393234
        },
        {
          "name": "G3",
          "midi": 55,
          "time": 195.63953488368918,
          "velocity": 0.3464566929133858,
          "duration": 0.04651162790696617
        },
        {
          "name": "C#7",
          "midi": 97,
          "time": 195.65116279066592,
          "velocity": 0.25196850393700787,
          "duration": 0.09302325581393234
        },
        {
          "name": "F7",
          "midi": 101,
          "time": 195.65116279066592,
          "velocity": 0.13385826771653545,
          "duration": 0.0813953488371908
        },
        {
          "name": "B5",
          "midi": 83,
          "time": 195.66279069764266,
          "velocity": 0.16535433070866143,
          "duration": 0.04651162790696617
        },
        {
          "name": "D#7",
          "midi": 99,
          "time": 195.66279069764266,
          "velocity": 0.13385826771653545,
          "duration": 0.04651162790696617
        },
        {
          "name": "G#2",
          "midi": 44,
          "time": 195.6744186046194,
          "velocity": 0.5511811023622047,
          "duration": 0.011627906976741542
        },
        {
          "name": "D5",
          "midi": 74,
          "time": 195.6744186046194,
          "velocity": 0.2283464566929134,
          "duration": 0.0813953488371908
        },
        {
          "name": "C7",
          "midi": 96,
          "time": 195.6744186046194,
          "velocity": 0.14173228346456693,
          "duration": 0.06976744186044925
        },
        {
          "name": "A2",
          "midi": 45,
          "time": 195.68604651159615,
          "velocity": 0.5669291338582677,
          "duration": 0.011627906976741542
        },
        {
          "name": "B2",
          "midi": 47,
          "time": 195.6976744185729,
          "velocity": 0.5748031496062992,
          "duration": 0.011627906976741542
        },
        {
          "name": "C#2",
          "midi": 37,
          "time": 195.70930232554963,
          "velocity": 0.33858267716535434,
          "duration": 0.023255813953483084
        },
        {
          "name": "C3",
          "midi": 48,
          "time": 195.70930232554963,
          "velocity": 0.5275590551181102,
          "duration": 0.023255813953483084
        },
        {
          "name": "G#3",
          "midi": 56,
          "time": 195.70930232554963,
          "velocity": 0.49606299212598426,
          "duration": 0.034883720930224626
        },
        {
          "name": "C#3",
          "midi": 49,
          "time": 195.7325581395031,
          "velocity": 0.5433070866141733,
          "duration": 0.011627906976741542
        },
        {
          "name": "C3",
          "midi": 48,
          "time": 195.74418604647985,
          "velocity": 0.6141732283464567,
          "duration": 0.06976744186044925
        },
        {
          "name": "G3",
          "midi": 55,
          "time": 195.74418604647985,
          "velocity": 0.5590551181102362,
          "duration": 0.05813953488370771
        },
        {
          "name": "B5",
          "midi": 83,
          "time": 195.74418604647985,
          "velocity": 0.11023622047244094,
          "duration": 0.05813953488370771
        },
        {
          "name": "D#7",
          "midi": 99,
          "time": 195.74418604647985,
          "velocity": 0.12598425196850394,
          "duration": 0.04651162790696617
        },
        {
          "name": "F#6",
          "midi": 90,
          "time": 195.8372093022938,
          "velocity": 0.15748031496062992,
          "duration": 0.05813953488370771
        },
        {
          "name": "C3",
          "midi": 48,
          "time": 195.84883720927053,
          "velocity": 0.36220472440944884,
          "duration": 0.023255813953483084
        },
        {
          "name": "G3",
          "midi": 55,
          "time": 195.84883720927053,
          "velocity": 0.3543307086614173,
          "duration": 0.023255813953483084
        },
        {
          "name": "D5",
          "midi": 74,
          "time": 195.86046511624727,
          "velocity": 0.33858267716535434,
          "duration": 0.034883720930224626
        },
        {
          "name": "D#7",
          "midi": 99,
          "time": 195.86046511624727,
          "velocity": 0.12598425196850394,
          "duration": 0.06976744186044925
        },
        {
          "name": "A#3",
          "midi": 58,
          "time": 195.872093023224,
          "velocity": 0.44881889763779526,
          "duration": 0.034883720930224626
        },
        {
          "name": "A5",
          "midi": 81,
          "time": 195.872093023224,
          "velocity": 0.1732283464566929,
          "duration": 0.05813953488370771
        },
        {
          "name": "C6",
          "midi": 84,
          "time": 195.872093023224,
          "velocity": 0.2047244094488189,
          "duration": 0.04651162790696617
        },
        {
          "name": "C#7",
          "midi": 97,
          "time": 195.872093023224,
          "velocity": 0.18110236220472442,
          "duration": 0.09302325581393234
        },
        {
          "name": "G7",
          "midi": 103,
          "time": 195.872093023224,
          "velocity": 0.11023622047244094,
          "duration": 0.05813953488370771
        },
        {
          "name": "G#2",
          "midi": 44,
          "time": 195.88372093020075,
          "velocity": 0.5826771653543307,
          "duration": 0.023255813953483084
        },
        {
          "name": "E4",
          "midi": 64,
          "time": 195.88372093020075,
          "velocity": 0.3779527559055118,
          "duration": 0.023255813953483084
        },
        {
          "name": "F#5",
          "midi": 78,
          "time": 195.88372093020075,
          "velocity": 0.3228346456692913,
          "duration": 0.034883720930224626
        },
        {
          "name": "D7",
          "midi": 98,
          "time": 195.88372093020075,
          "velocity": 0.1889763779527559,
          "duration": 0.0813953488371908
        },
        {
          "name": "F7",
          "midi": 101,
          "time": 195.8953488371775,
          "velocity": 0.08661417322834646,
          "duration": 0.034883720930224626
        },
        {
          "name": "A#2",
          "midi": 46,
          "time": 195.90697674415424,
          "velocity": 0.5669291338582677,
          "duration": 0.011627906976741542
        },
        {
          "name": "D5",
          "midi": 74,
          "time": 195.90697674415424,
          "velocity": 0.12598425196850394,
          "duration": 0.034883720930224626
        },
        {
          "name": "B2",
          "midi": 47,
          "time": 195.91860465113098,
          "velocity": 0.5748031496062992,
          "duration": 0.023255813953483084
        },
        {
          "name": "C#4",
          "midi": 61,
          "time": 195.91860465113098,
          "velocity": 0.4094488188976378,
          "duration": 0.023255813953483084
        },
        {
          "name": "C5",
          "midi": 72,
          "time": 195.91860465113098,
          "velocity": 0.25196850393700787,
          "duration": 0.18604651162786467
        },
        {
          "name": "A3",
          "midi": 57,
          "time": 195.93023255810772,
          "velocity": 0.41732283464566927,
          "duration": 0.023255813953483084
        },
        {
          "name": "C3",
          "midi": 48,
          "time": 195.94186046508446,
          "velocity": 0.5905511811023622,
          "duration": 0.011627906976741542
        },
        {
          "name": "A5",
          "midi": 81,
          "time": 195.94186046508446,
          "velocity": 0.08661417322834646,
          "duration": 0.034883720930224626
        },
        {
          "name": "C#3",
          "midi": 49,
          "time": 195.9534883720612,
          "velocity": 0.5984251968503937,
          "duration": 0.011627906976741542
        },
        {
          "name": "G3",
          "midi": 55,
          "time": 195.9534883720612,
          "velocity": 0.49606299212598426,
          "duration": 0.12790697674415696
        },
        {
          "name": "C3",
          "midi": 48,
          "time": 195.96511627903794,
          "velocity": 0.5984251968503937,
          "duration": 0.023255813953483084
        },
        {
          "name": "E4",
          "midi": 64,
          "time": 195.96511627903794,
          "velocity": 0.2755905511811024,
          "duration": 0.034883720930224626
        },
        {
          "name": "C#3",
          "midi": 49,
          "time": 195.98837209299143,
          "velocity": 0.5984251968503937,
          "duration": 0.011627906976741542
        },
        {
          "name": "C3",
          "midi": 48,
          "time": 195.99999999996817,
          "velocity": 0.6062992125984252,
          "duration": 0.11627906976741542
        },
        {
          "name": "G2",
          "midi": 43,
          "time": 196.0348837208984,
          "velocity": 0.5196850393700787,
          "duration": 0.011627906976741542
        },
        {
          "name": "D#7",
          "midi": 99,
          "time": 196.05813953485188,
          "velocity": 0.13385826771653545,
          "duration": 0.05813953488370771
        },
        {
          "name": "E4",
          "midi": 64,
          "time": 196.06976744182862,
          "velocity": 0.33858267716535434,
          "duration": 0.04651162790696617
        },
        {
          "name": "D5",
          "midi": 74,
          "time": 196.08139534880536,
          "velocity": 0.29133858267716534,
          "duration": 0.06976744186044925
        },
        {
          "name": "B6",
          "midi": 95,
          "time": 196.08139534880536,
          "velocity": 0.4015748031496063,
          "duration": 0.3255813953487632
        },
        {
          "name": "G4",
          "midi": 67,
          "time": 196.0930232557821,
          "velocity": 0.44881889763779526,
          "duration": 0.6395348837207848
        },
        {
          "name": "C7",
          "midi": 96,
          "time": 196.0930232557821,
          "velocity": 0.18110236220472442,
          "duration": 0.04651162790696617
        },
        {
          "name": "D7",
          "midi": 98,
          "time": 196.0930232557821,
          "velocity": 0.2204724409448819,
          "duration": 0.04651162790696617
        },
        {
          "name": "C#7",
          "midi": 97,
          "time": 196.10465116275884,
          "velocity": 0.2204724409448819,
          "duration": 0.17441860465112313
        },
        {
          "name": "A2",
          "midi": 45,
          "time": 196.11627906973558,
          "velocity": 0.5905511811023622,
          "duration": 0.011627906976741542
        },
        {
          "name": "C#4",
          "midi": 61,
          "time": 196.11627906973558,
          "velocity": 0.25196850393700787,
          "duration": 0.023255813953483084
        },
        {
          "name": "C5",
          "midi": 72,
          "time": 196.11627906973558,
          "velocity": 0.2047244094488189,
          "duration": 0.05813953488370771
        },
        {
          "name": "F#7",
          "midi": 102,
          "time": 196.11627906973558,
          "velocity": 0.10236220472440945,
          "duration": 0.0813953488371908
        },
        {
          "name": "B2",
          "midi": 47,
          "time": 196.12790697671232,
          "velocity": 0.5590551181102362,
          "duration": 0.034883720930224626
        },
        {
          "name": "E4",
          "midi": 64,
          "time": 196.12790697671232,
          "velocity": 0.2440944881889764,
          "duration": 0.04651162790696617
        },
        {
          "name": "G#3",
          "midi": 56,
          "time": 196.13953488368907,
          "velocity": 0.36220472440944884,
          "duration": 0.023255813953483084
        },
        {
          "name": "C4",
          "midi": 60,
          "time": 196.1511627906658,
          "velocity": 0.2755905511811024,
          "duration": 0.034883720930224626
        },
        {
          "name": "A#4",
          "midi": 70,
          "time": 196.1511627906658,
          "velocity": 0.30708661417322836,
          "duration": 0.26744186046505547
        },
        {
          "name": "D7",
          "midi": 98,
          "time": 196.1511627906658,
          "velocity": 0.2992125984251969,
          "duration": 0.20930232558134776
        },
        {
          "name": "G3",
          "midi": 55,
          "time": 196.16279069764255,
          "velocity": 0.4015748031496063,
          "duration": 0.04651162790696617
        },
        {
          "name": "F7",
          "midi": 101,
          "time": 196.16279069764255,
          "velocity": 0.11811023622047244,
          "duration": 0.05813953488370771
        },
        {
          "name": "C4",
          "midi": 60,
          "time": 196.19767441857277,
          "velocity": 0.36220472440944884,
          "duration": 0.06976744186044925
        },
        {
          "name": "G#3",
          "midi": 56,
          "time": 196.20930232554952,
          "velocity": 0.3464566929133858,
          "duration": 0.034883720930224626
        },
        {
          "name": "D5",
          "midi": 74,
          "time": 196.20930232554952,
          "velocity": 0.2440944881889764,
          "duration": 0.3023255813952801
        },
        {
          "name": "C3",
          "midi": 48,
          "time": 196.22093023252626,
          "velocity": 0.4881889763779528,
          "duration": 0.023255813953483084
        },
        {
          "name": "E4",
          "midi": 64,
          "time": 196.232558139503,
          "velocity": 0.2992125984251969,
          "duration": 0.09302325581393234
        },
        {
          "name": "G3",
          "midi": 55,
          "time": 196.24418604647974,
          "velocity": 0.3543307086614173,
          "duration": 0.023255813953483084
        },
        {
          "name": "E2",
          "midi": 40,
          "time": 196.26744186043322,
          "velocity": 0.4251968503937008,
          "duration": 0.023255813953483084
        },
        {
          "name": "G#3",
          "midi": 56,
          "time": 196.26744186043322,
          "velocity": 0.28346456692913385,
          "duration": 0.023255813953483084
        },
        {
          "name": "C5",
          "midi": 72,
          "time": 196.27906976740996,
          "velocity": 0.14173228346456693,
          "duration": 0.034883720930224626
        },
        {
          "name": "G3",
          "midi": 55,
          "time": 196.2906976743867,
          "velocity": 0.4330708661417323,
          "duration": 0.06976744186044925
        },
        {
          "name": "C#7",
          "midi": 97,
          "time": 196.2906976743867,
          "velocity": 0.2125984251968504,
          "duration": 0.09302325581393234
        },
        {
          "name": "C#3",
          "midi": 49,
          "time": 196.30232558136345,
          "velocity": 0.44881889763779526,
          "duration": 0.023255813953483084
        },
        {
          "name": "A5",
          "midi": 81,
          "time": 196.30232558136345,
          "velocity": 0.28346456692913385,
          "duration": 0.2558139534883139
        },
        {
          "name": "F#6",
          "midi": 90,
          "time": 196.30232558136345,
          "velocity": 0.11811023622047244,
          "duration": 0.05813953488370771
        },
        {
          "name": "D#7",
          "midi": 99,
          "time": 196.30232558136345,
          "velocity": 0.09448818897637795,
          "duration": 0.05813953488370771
        },
        {
          "name": "F#5",
          "midi": 78,
          "time": 196.3139534883402,
          "velocity": 0.11811023622047244,
          "duration": 0.05813953488370771
        },
        {
          "name": "A#6",
          "midi": 94,
          "time": 196.3139534883402,
          "velocity": 0.10236220472440945,
          "duration": 0.034883720930224626
        },
        {
          "name": "C7",
          "midi": 96,
          "time": 196.3139534883402,
          "velocity": 0.10236220472440945,
          "duration": 0.034883720930224626
        },
        {
          "name": "F#7",
          "midi": 102,
          "time": 196.3139534883402,
          "velocity": 0.12598425196850394,
          "duration": 0.04651162790696617
        },
        {
          "name": "B5",
          "midi": 83,
          "time": 196.32558139531693,
          "velocity": 0.15748031496062992,
          "duration": 0.05813953488370771
        },
        {
          "name": "F7",
          "midi": 101,
          "time": 196.32558139531693,
          "velocity": 0.13385826771653545,
          "duration": 0.04651162790696617
        },
        {
          "name": "G#5",
          "midi": 80,
          "time": 196.33720930229367,
          "velocity": 0.08661417322834646,
          "duration": 0.034883720930224626
        },
        {
          "name": "F2",
          "midi": 41,
          "time": 196.36046511624716,
          "velocity": 0.49606299212598426,
          "duration": 0.023255813953483084
        },
        {
          "name": "G#3",
          "midi": 56,
          "time": 196.36046511624716,
          "velocity": 0.33858267716535434,
          "duration": 0.023255813953483084
        },
        {
          "name": "E4",
          "midi": 64,
          "time": 196.36046511624716,
          "velocity": 0.28346456692913385,
          "duration": 0.17441860465112313
        },
        {
          "name": "C3",
          "midi": 48,
          "time": 196.3720930232239,
          "velocity": 0.4015748031496063,
          "duration": 0.023255813953483084
        },
        {
          "name": "G3",
          "midi": 55,
          "time": 196.38372093020064,
          "velocity": 0.36220472440944884,
          "duration": 0.023255813953483084
        },
        {
          "name": "C5",
          "midi": 72,
          "time": 196.38372093020064,
          "velocity": 0.11023622047244094,
          "duration": 0.1395348837208985
        },
        {
          "name": "F#7",
          "midi": 102,
          "time": 196.38372093020064,
          "velocity": 0.08661417322834646,
          "duration": 0.06976744186044925
        },
        {
          "name": "C4",
          "midi": 60,
          "time": 196.39534883717738,
          "velocity": 0.2047244094488189,
          "duration": 0.04651162790696617
        },
        {
          "name": "C3",
          "midi": 48,
          "time": 196.40697674415412,
          "velocity": 0.30708661417322836,
          "duration": 0.023255813953483084
        },
        {
          "name": "F#3",
          "midi": 54,
          "time": 196.40697674415412,
          "velocity": 0.2755905511811024,
          "duration": 0.023255813953483084
        },
        {
          "name": "B6",
          "midi": 95,
          "time": 196.41860465113086,
          "velocity": 0.4094488188976378,
          "duration": 0.4186046511626955
        },
        {
          "name": "G3",
          "midi": 55,
          "time": 196.4302325581076,
          "velocity": 0.36220472440944884,
          "duration": 0.11627906976741542
        },
        {
          "name": "B5",
          "midi": 83,
          "time": 196.4302325581076,
          "velocity": 0.11023622047244094,
          "duration": 0.05813953488370771
        },
        {
          "name": "C#7",
          "midi": 97,
          "time": 196.4883720929913,
          "velocity": 0.07874015748031496,
          "duration": 0.04651162790696617
        },
        {
          "name": "B5",
          "midi": 83,
          "time": 196.5116279069448,
          "velocity": 0.2755905511811024,
          "duration": 0.0813953488371908
        },
        {
          "name": "D5",
          "midi": 74,
          "time": 196.53488372089828,
          "velocity": 0.1732283464566929,
          "duration": 0.24418604651157239
        },
        {
          "name": "E5",
          "midi": 76,
          "time": 196.53488372089828,
          "velocity": 0.33070866141732286,
          "duration": 0.5232558139533694
        },
        {
          "name": "D7",
          "midi": 98,
          "time": 196.53488372089828,
          "velocity": 0.14960629921259844,
          "duration": 0.05813953488370771
        },
        {
          "name": "G3",
          "midi": 55,
          "time": 196.55813953485176,
          "velocity": 0.3937007874015748,
          "duration": 0.10465116279067388
        },
        {
          "name": "A#4",
          "midi": 70,
          "time": 196.55813953485176,
          "velocity": 0.18110236220472442,
          "duration": 0.18604651162786467
        },
        {
          "name": "C7",
          "midi": 96,
          "time": 196.55813953485176,
          "velocity": 0.1732283464566929,
          "duration": 0.23255813953483084
        },
        {
          "name": "C#7",
          "midi": 97,
          "time": 196.55813953485176,
          "velocity": 0.2440944881889764,
          "duration": 0.4651162790696617
        },
        {
          "name": "D#7",
          "midi": 99,
          "time": 196.55813953485176,
          "velocity": 0.11811023622047244,
          "duration": 0.10465116279067388
        },
        {
          "name": "F#7",
          "midi": 102,
          "time": 196.55813953485176,
          "velocity": 0.14960629921259844,
          "duration": 0.26744186046505547
        },
        {
          "name": "C4",
          "midi": 60,
          "time": 196.5697674418285,
          "velocity": 0.23622047244094488,
          "duration": 0.05813953488370771
        },
        {
          "name": "C#3",
          "midi": 49,
          "time": 196.58139534880524,
          "velocity": 0.3779527559055118,
          "duration": 0.05813953488370771
        },
        {
          "name": "A5",
          "midi": 81,
          "time": 196.593023255782,
          "velocity": 0.07874015748031496,
          "duration": 0.10465116279067388
        },
        {
          "name": "E4",
          "midi": 64,
          "time": 196.60465116275873,
          "velocity": 0.25984251968503935,
          "duration": 0.12790697674415696
        },
        {
          "name": "G7",
          "midi": 103,
          "time": 196.60465116275873,
          "velocity": 0.07874015748031496,
          "duration": 0.05813953488370771
        },
        {
          "name": "B5",
          "midi": 83,
          "time": 196.61627906973547,
          "velocity": 0.15748031496062992,
          "duration": 0.05813953488370771
        },
        {
          "name": "G6",
          "midi": 91,
          "time": 196.61627906973547,
          "velocity": 0.13385826771653545,
          "duration": 0.09302325581393234
        },
        {
          "name": "F7",
          "midi": 101,
          "time": 196.6279069767122,
          "velocity": 0.14173228346456693,
          "duration": 0.05813953488370771
        },
        {
          "name": "C3",
          "midi": 48,
          "time": 196.63953488368895,
          "velocity": 0.4094488188976378,
          "duration": 0.023255813953483084
        },
        {
          "name": "C2",
          "midi": 36,
          "time": 196.6511627906657,
          "velocity": 0.3228346456692913,
          "duration": 0.023255813953483084
        },
        {
          "name": "D7",
          "midi": 98,
          "time": 196.6511627906657,
          "velocity": 0.16535433070866143,
          "duration": 0.034883720930224626
        },
        {
          "name": "E7",
          "midi": 100,
          "time": 196.6511627906657,
          "velocity": 0.30708661417322836,
          "duration": 0.6046511627905602
        },
        {
          "name": "C#3",
          "midi": 49,
          "time": 196.66279069764244,
          "velocity": 0.3464566929133858,
          "duration": 0.023255813953483084
        },
        {
          "name": "C3",
          "midi": 48,
          "time": 196.68604651159592,
          "velocity": 0.4251968503937008,
          "duration": 0.034883720930224626
        },
        {
          "name": "G3",
          "midi": 55,
          "time": 196.69767441857266,
          "velocity": 0.2283464566929134,
          "duration": 0.023255813953483084
        },
        {
          "name": "B5",
          "midi": 83,
          "time": 196.72093023252614,
          "velocity": 0.1732283464566929,
          "duration": 0.06976744186044925
        },
        {
          "name": "D7",
          "midi": 98,
          "time": 196.72093023252614,
          "velocity": 0.13385826771653545,
          "duration": 0.11627906976741542
        },
        {
          "name": "E2",
          "midi": 40,
          "time": 196.73255813950288,
          "velocity": 0.5433070866141733,
          "duration": 0.011627906976741542
        },
        {
          "name": "C3",
          "midi": 48,
          "time": 196.73255813950288,
          "velocity": 0.5511811023622047,
          "duration": 0.023255813953483084
        },
        {
          "name": "A#3",
          "midi": 58,
          "time": 196.73255813950288,
          "velocity": 0.3779527559055118,
          "duration": 0.023255813953483084
        },
        {
          "name": "D#4",
          "midi": 63,
          "time": 196.73255813950288,
          "velocity": 0.3700787401574803,
          "duration": 0.023255813953483084
        },
        {
          "name": "A4",
          "midi": 69,
          "time": 196.73255813950288,
          "velocity": 0.25196850393700787,
          "duration": 0.023255813953483084
        },
        {
          "name": "C#6",
          "midi": 85,
          "time": 196.73255813950288,
          "velocity": 0.2755905511811024,
          "duration": 0.023255813953483084
        },
        {
          "name": "D#6",
          "midi": 87,
          "time": 196.73255813950288,
          "velocity": 0.15748031496062992,
          "duration": 0.09302325581393234
        },
        {
          "name": "A6",
          "midi": 93,
          "time": 196.73255813950288,
          "velocity": 0.4881889763779528,
          "duration": 0.9302325581393234
        },
        {
          "name": "F2",
          "midi": 41,
          "time": 196.74418604647963,
          "velocity": 0.5039370078740157,
          "duration": 0.023255813953483084
        },
        {
          "name": "A5",
          "midi": 81,
          "time": 196.74418604647963,
          "velocity": 0.4015748031496063,
          "duration": 0.8023255813951664
        },
        {
          "name": "F7",
          "midi": 101,
          "time": 196.74418604647963,
          "velocity": 0.11811023622047244,
          "duration": 0.034883720930224626
        },
        {
          "name": "D3",
          "midi": 50,
          "time": 196.75581395345637,
          "velocity": 0.6220472440944882,
          "duration": 0.1395348837208985
        },
        {
          "name": "A3",
          "midi": 57,
          "time": 196.75581395345637,
          "velocity": 0.48031496062992124,
          "duration": 0.05813953488370771
        },
        {
          "name": "G4",
          "midi": 67,
          "time": 196.75581395345637,
          "velocity": 0.1968503937007874,
          "duration": 0.11627906976741542
        },
        {
          "name": "C5",
          "midi": 72,
          "time": 196.75581395345637,
          "velocity": 0.14960629921259844,
          "duration": 0.06976744186044925
        },
        {
          "name": "G#5",
          "midi": 80,
          "time": 196.75581395345637,
          "velocity": 0.10236220472440945,
          "duration": 0.04651162790696617
        },
        {
          "name": "D6",
          "midi": 86,
          "time": 196.75581395345637,
          "velocity": 0.28346456692913385,
          "duration": 0.11627906976741542
        },
        {
          "name": "F2",
          "midi": 41,
          "time": 196.77906976740985,
          "velocity": 0.47244094488188976,
          "duration": 0.023255813953483084
        },
        {
          "name": "A2",
          "midi": 45,
          "time": 196.8488372092703,
          "velocity": 0.5354330708661418,
          "duration": 0.011627906976741542
        },
        {
          "name": "B6",
          "midi": 95,
          "time": 196.86046511624704,
          "velocity": 0.16535433070866143,
          "duration": 0.06976744186044925
        },
        {
          "name": "A2",
          "midi": 45,
          "time": 196.87209302322378,
          "velocity": 0.5511811023622047,
          "duration": 0.023255813953483084
        },
        {
          "name": "D#7",
          "midi": 99,
          "time": 196.87209302322378,
          "velocity": 0.10236220472440945,
          "duration": 0.04651162790696617
        },
        {
          "name": "A4",
          "midi": 69,
          "time": 196.88372093020052,
          "velocity": 0.1732283464566929,
          "duration": 0.05813953488370771
        },
        {
          "name": "D3",
          "midi": 50,
          "time": 196.906976744154,
          "velocity": 0.3543307086614173,
          "duration": 0.034883720930224626
        },
        {
          "name": "D#2",
          "midi": 39,
          "time": 196.9302325581075,
          "velocity": 0.5118110236220472,
          "duration": 0.023255813953483084
        },
        {
          "name": "D7",
          "midi": 98,
          "time": 196.94186046508423,
          "velocity": 0.13385826771653545,
          "duration": 0.09302325581393234
        },
        {
          "name": "F#7",
          "midi": 102,
          "time": 196.94186046508423,
          "velocity": 0.11023622047244094,
          "duration": 0.034883720930224626
        },
        {
          "name": "E2",
          "midi": 40,
          "time": 196.95348837206097,
          "velocity": 0.5196850393700787,
          "duration": 0.011627906976741542
        },
        {
          "name": "F#5",
          "midi": 78,
          "time": 196.95348837206097,
          "velocity": 0.3228346456692913,
          "duration": 0.1627906976743816
        },
        {
          "name": "C7",
          "midi": 96,
          "time": 196.95348837206097,
          "velocity": 0.10236220472440945,
          "duration": 0.06976744186044925
        },
        {
          "name": "F2",
          "midi": 41,
          "time": 196.96511627903772,
          "velocity": 0.5039370078740157,
          "duration": 0.05813953488370771
        },
        {
          "name": "D3",
          "midi": 50,
          "time": 196.96511627903772,
          "velocity": 0.5511811023622047,
          "duration": 0.05813953488370771
        },
        {
          "name": "F#4",
          "midi": 66,
          "time": 196.96511627903772,
          "velocity": 0.28346456692913385,
          "duration": 0.18604651162786467
        },
        {
          "name": "D#7",
          "midi": 99,
          "time": 196.96511627903772,
          "velocity": 0.10236220472440945,
          "duration": 0.034883720930224626
        },
        {
          "name": "A3",
          "midi": 57,
          "time": 196.97674418601446,
          "velocity": 0.4645669291338583,
          "duration": 0.034883720930224626
        },
        {
          "name": "C#3",
          "midi": 49,
          "time": 197.02325581392142,
          "velocity": 0.6062992125984252,
          "duration": 0.011627906976741542
        },
        {
          "name": "G7",
          "midi": 103,
          "time": 197.02325581392142,
          "velocity": 0.08661417322834646,
          "duration": 0.04651162790696617
        },
        {
          "name": "D3",
          "midi": 50,
          "time": 197.03488372089816,
          "velocity": 0.6220472440944882,
          "duration": 0.011627906976741542
        },
        {
          "name": "D#3",
          "midi": 51,
          "time": 197.0465116278749,
          "velocity": 0.6141732283464567,
          "duration": 0.011627906976741542
        },
        {
          "name": "D3",
          "midi": 50,
          "time": 197.05813953485165,
          "velocity": 0.6141732283464567,
          "duration": 0.023255813953483084
        },
        {
          "name": "A3",
          "midi": 57,
          "time": 197.05813953485165,
          "velocity": 0.2755905511811024,
          "duration": 0.04651162790696617
        },
        {
          "name": "A2",
          "midi": 45,
          "time": 197.0697674418284,
          "velocity": 0.5669291338582677,
          "duration": 0.011627906976741542
        },
        {
          "name": "C3",
          "midi": 48,
          "time": 197.08139534880513,
          "velocity": 0.6141732283464567,
          "duration": 0.011627906976741542
        },
        {
          "name": "A2",
          "midi": 45,
          "time": 197.09302325578187,
          "velocity": 0.5669291338582677,
          "duration": 0.011627906976741542
        },
        {
          "name": "D3",
          "midi": 50,
          "time": 197.09302325578187,
          "velocity": 0.5590551181102362,
          "duration": 0.011627906976741542
        },
        {
          "name": "B2",
          "midi": 47,
          "time": 197.1046511627586,
          "velocity": 0.5826771653543307,
          "duration": 0.011627906976741542
        },
        {
          "name": "A2",
          "midi": 45,
          "time": 197.11627906973536,
          "velocity": 0.5511811023622047,
          "duration": 0.011627906976741542
        },
        {
          "name": "E5",
          "midi": 76,
          "time": 197.11627906973536,
          "velocity": 0.14960629921259844,
          "duration": 0.24418604651157239
        },
        {
          "name": "G#2",
          "midi": 44,
          "time": 197.1279069767121,
          "velocity": 0.5354330708661418,
          "duration": 0.011627906976741542
        },
        {
          "name": "D3",
          "midi": 50,
          "time": 197.16279069764232,
          "velocity": 0.48031496062992124,
          "duration": 0.023255813953483084
        },
        {
          "name": "C#7",
          "midi": 97,
          "time": 197.16279069764232,
          "velocity": 0.2204724409448819,
          "duration": 0.15116279069764005
        },
        {
          "name": "D7",
          "midi": 98,
          "time": 197.16279069764232,
          "velocity": 0.2283464566929134,
          "duration": 0.20930232558134776
        },
        {
          "name": "C4",
          "midi": 60,
          "time": 197.17441860461906,
          "velocity": 0.2440944881889764,
          "duration": 0.023255813953483084
        },
        {
          "name": "G4",
          "midi": 67,
          "time": 197.17441860461906,
          "velocity": 0.1968503937007874,
          "duration": 0.06976744186044925
        },
        {
          "name": "A4",
          "midi": 69,
          "time": 197.17441860461906,
          "velocity": 0.3464566929133858,
          "duration": 0.29069767441853855
        },
        {
          "name": "D6",
          "midi": 86,
          "time": 197.17441860461906,
          "velocity": 0.13385826771653545,
          "duration": 0.10465116279067388
        },
        {
          "name": "B6",
          "midi": 95,
          "time": 197.17441860461906,
          "velocity": 0.3937007874015748,
          "duration": 0.5465116279068525
        },
        {
          "name": "F#2",
          "midi": 42,
          "time": 197.19767441857255,
          "velocity": 0.5196850393700787,
          "duration": 0.011627906976741542
        },
        {
          "name": "D4",
          "midi": 62,
          "time": 197.19767441857255,
          "velocity": 0.28346456692913385,
          "duration": 0.05813953488370771
        },
        {
          "name": "B5",
          "midi": 83,
          "time": 197.19767441857255,
          "velocity": 0.11811023622047244,
          "duration": 0.034883720930224626
        },
        {
          "name": "C5",
          "midi": 72,
          "time": 197.2093023255493,
          "velocity": 0.14173228346456693,
          "duration": 0.12790697674415696
        },
        {
          "name": "G7",
          "midi": 103,
          "time": 197.2093023255493,
          "velocity": 0.1889763779527559,
          "duration": 0.12790697674415696
        },
        {
          "name": "D3",
          "midi": 50,
          "time": 197.22093023252603,
          "velocity": 0.44881889763779526,
          "duration": 0.04651162790696617
        },
        {
          "name": "A3",
          "midi": 57,
          "time": 197.22093023252603,
          "velocity": 0.2677165354330709,
          "duration": 0.05813953488370771
        },
        {
          "name": "D#7",
          "midi": 99,
          "time": 197.22093023252603,
          "velocity": 0.14173228346456693,
          "duration": 0.0813953488371908
        },
        {
          "name": "F#6",
          "midi": 90,
          "time": 197.23255813950277,
          "velocity": 0.08661417322834646,
          "duration": 0.034883720930224626
        },
        {
          "name": "F#4",
          "midi": 66,
          "time": 197.2441860464795,
          "velocity": 0.18110236220472442,
          "duration": 0.034883720930224626
        },
        {
          "name": "F#7",
          "midi": 102,
          "time": 197.2441860464795,
          "velocity": 0.18110236220472442,
          "duration": 0.10465116279067388
        },
        {
          "name": "D5",
          "midi": 74,
          "time": 197.25581395345625,
          "velocity": 0.33070866141732286,
          "duration": 0.23255813953483084
        },
        {
          "name": "D3",
          "midi": 50,
          "time": 197.27906976740974,
          "velocity": 0.4409448818897638,
          "duration": 0.05813953488370771
        },
        {
          "name": "G4",
          "midi": 67,
          "time": 197.27906976740974,
          "velocity": 0.25196850393700787,
          "duration": 0.034883720930224626
        },
        {
          "name": "A3",
          "midi": 57,
          "time": 197.29069767438648,
          "velocity": 0.2283464566929134,
          "duration": 0.034883720930224626
        },
        {
          "name": "F#4",
          "midi": 66,
          "time": 197.31395348833996,
          "velocity": 0.25984251968503935,
          "duration": 0.06976744186044925
        },
        {
          "name": "D#7",
          "midi": 99,
          "time": 197.31395348833996,
          "velocity": 0.09448818897637795,
          "duration": 0.04651162790696617
        },
        {
          "name": "D#2",
          "midi": 39,
          "time": 197.3255813953167,
          "velocity": 0.4330708661417323,
          "duration": 0.023255813953483084
        },
        {
          "name": "C7",
          "midi": 96,
          "time": 197.3255813953167,
          "velocity": 0.11811023622047244,
          "duration": 0.034883720930224626
        },
        {
          "name": "C#7",
          "midi": 97,
          "time": 197.3255813953167,
          "velocity": 0.1889763779527559,
          "duration": 0.0813953488371908
        },
        {
          "name": "A3",
          "midi": 57,
          "time": 197.33720930229345,
          "velocity": 0.30708661417322836,
          "duration": 0.04651162790696617
        },
        {
          "name": "D3",
          "midi": 50,
          "time": 197.3488372092702,
          "velocity": 0.4330708661417323,
          "duration": 0.023255813953483084
        },
        {
          "name": "F#5",
          "midi": 78,
          "time": 197.36046511624693,
          "velocity": 0.3228346456692913,
          "duration": 0.45348837209292014
        },
        {
          "name": "G7",
          "midi": 103,
          "time": 197.36046511624693,
          "velocity": 0.09448818897637795,
          "duration": 0.06976744186044925
        },
        {
          "name": "D#3",
          "midi": 51,
          "time": 197.37209302322367,
          "velocity": 0.4881889763779528,
          "duration": 0.034883720930224626
        },
        {
          "name": "E6",
          "midi": 88,
          "time": 197.37209302322367,
          "velocity": 0.18110236220472442,
          "duration": 0.11627906976741542
        },
        {
          "name": "A#3",
          "midi": 58,
          "time": 197.3837209302004,
          "velocity": 0.3228346456692913,
          "duration": 0.023255813953483084
        },
        {
          "name": "E5",
          "midi": 76,
          "time": 197.3837209302004,
          "velocity": 0.2992125984251969,
          "duration": 0.20930232558134776
        },
        {
          "name": "E2",
          "midi": 40,
          "time": 197.39534883717715,
          "velocity": 0.44881889763779526,
          "duration": 0.023255813953483084
        },
        {
          "name": "F#4",
          "midi": 66,
          "time": 197.39534883717715,
          "velocity": 0.2992125984251969,
          "duration": 0.17441860465112313
        },
        {
          "name": "D7",
          "midi": 98,
          "time": 197.39534883717715,
          "velocity": 0.11811023622047244,
          "duration": 0.05813953488370771
        },
        {
          "name": "D#7",
          "midi": 99,
          "time": 197.39534883717715,
          "velocity": 0.07874015748031496,
          "duration": 0.034883720930224626
        },
        {
          "name": "D3",
          "midi": 50,
          "time": 197.4069767441539,
          "velocity": 0.6220472440944882,
          "duration": 0.17441860465112313
        },
        {
          "name": "A3",
          "midi": 57,
          "time": 197.4069767441539,
          "velocity": 0.3937007874015748,
          "duration": 0.034883720930224626
        },
        {
          "name": "B5",
          "midi": 83,
          "time": 197.4069767441539,
          "velocity": 0.2283464566929134,
          "duration": 0.1627906976743816
        },
        {
          "name": "C7",
          "midi": 96,
          "time": 197.4069767441539,
          "velocity": 0.11811023622047244,
          "duration": 0.04651162790696617
        },
        {
          "name": "F#7",
          "midi": 102,
          "time": 197.4069767441539,
          "velocity": 0.14960629921259844,
          "duration": 0.24418604651157239
        },
        {
          "name": "F2",
          "midi": 41,
          "time": 197.41860465113064,
          "velocity": 0.5196850393700787,
          "duration": 0.034883720930224626
        },
        {
          "name": "C#7",
          "midi": 97,
          "time": 197.41860465113064,
          "velocity": 0.13385826771653545,
          "duration": 0.04651162790696617
        },
        {
          "name": "A#3",
          "midi": 58,
          "time": 197.44186046508412,
          "velocity": 0.33858267716535434,
          "duration": 0.023255813953483084
        },
        {
          "name": "A3",
          "midi": 57,
          "time": 197.4651162790376,
          "velocity": 0.25984251968503935,
          "duration": 0.023255813953483084
        },
        {
          "name": "A4",
          "midi": 69,
          "time": 197.48837209299109,
          "velocity": 0.29133858267716534,
          "duration": 0.09302325581393234
        },
        {
          "name": "A3",
          "midi": 57,
          "time": 197.49999999996783,
          "velocity": 0.1889763779527559,
          "duration": 0.034883720930224626
        },
        {
          "name": "D5",
          "midi": 74,
          "time": 197.53488372089805,
          "velocity": 0.18110236220472442,
          "duration": 0.04651162790696617
        },
        {
          "name": "D#2",
          "midi": 39,
          "time": 197.56976744182828,
          "velocity": 0.25196850393700787,
          "duration": 0.023255813953483084
        },
        {
          "name": "E4",
          "midi": 64,
          "time": 197.56976744182828,
          "velocity": 0.3543307086614173,
          "duration": 0.023255813953483084
        },
        {
          "name": "G4",
          "midi": 67,
          "time": 197.56976744182828,
          "velocity": 0.3700787401574803,
          "duration": 0.023255813953483084
        },
        {
          "name": "D7",
          "midi": 98,
          "time": 197.56976744182828,
          "velocity": 0.4330708661417323,
          "duration": 0.965116279069548
        },
        {
          "name": "D#3",
          "midi": 51,
          "time": 197.58139534880502,
          "velocity": 0.4251968503937008,
          "duration": 0.034883720930224626
        },
        {
          "name": "C4",
          "midi": 60,
          "time": 197.58139534880502,
          "velocity": 0.4409448818897638,
          "duration": 0.034883720930224626
        },
        {
          "name": "C#5",
          "midi": 73,
          "time": 197.58139534880502,
          "velocity": 0.30708661417322836,
          "duration": 0.034883720930224626
        },
        {
          "name": "D#5",
          "midi": 75,
          "time": 197.58139534880502,
          "velocity": 0.2755905511811024,
          "duration": 0.023255813953483084
        },
        {
          "name": "A5",
          "midi": 81,
          "time": 197.58139534880502,
          "velocity": 0.1968503937007874,
          "duration": 0.0813953488371908
        },
        {
          "name": "B5",
          "midi": 83,
          "time": 197.58139534880502,
          "velocity": 0.2047244094488189,
          "duration": 0.09302325581393234
        },
        {
          "name": "D#7",
          "midi": 99,
          "time": 197.58139534880502,
          "velocity": 0.16535433070866143,
          "duration": 0.0813953488371908
        },
        {
          "name": "F4",
          "midi": 65,
          "time": 197.59302325578176,
          "velocity": 0.3700787401574803,
          "duration": 0.023255813953483084
        },
        {
          "name": "G#5",
          "midi": 80,
          "time": 197.59302325578176,
          "velocity": 0.16535433070866143,
          "duration": 0.04651162790696617
        },
        {
          "name": "C6",
          "midi": 84,
          "time": 197.59302325578176,
          "velocity": 0.18110236220472442,
          "duration": 0.1395348837208985
        },
        {
          "name": "D6",
          "midi": 86,
          "time": 197.59302325578176,
          "velocity": 0.25196850393700787,
          "duration": 0.39534883720921243
        },
        {
          "name": "A#6",
          "midi": 94,
          "time": 197.59302325578176,
          "velocity": 0.07874015748031496,
          "duration": 0.034883720930224626
        },
        {
          "name": "C#7",
          "midi": 97,
          "time": 197.59302325578176,
          "velocity": 0.1889763779527559,
          "duration": 0.06976744186044925
        },
        {
          "name": "E7",
          "midi": 100,
          "time": 197.59302325578176,
          "velocity": 0.1732283464566929,
          "duration": 0.05813953488370771
        },
        {
          "name": "F7",
          "midi": 101,
          "time": 197.59302325578176,
          "velocity": 0.07874015748031496,
          "duration": 0.10465116279067388
        },
        {
          "name": "G7",
          "midi": 103,
          "time": 197.59302325578176,
          "velocity": 0.13385826771653545,
          "duration": 0.06976744186044925
        },
        {
          "name": "G#3",
          "midi": 56,
          "time": 197.6046511627585,
          "velocity": 0.4094488188976378,
          "duration": 0.023255813953483084
        },
        {
          "name": "G4",
          "midi": 67,
          "time": 197.6046511627585,
          "velocity": 0.2677165354330709,
          "duration": 0.034883720930224626
        },
        {
          "name": "E5",
          "midi": 76,
          "time": 197.6046511627585,
          "velocity": 0.2283464566929134,
          "duration": 0.034883720930224626
        },
        {
          "name": "D#6",
          "midi": 87,
          "time": 197.6046511627585,
          "velocity": 0.1968503937007874,
          "duration": 0.05813953488370771
        },
        {
          "name": "D3",
          "midi": 50,
          "time": 197.61627906973524,
          "velocity": 0.6456692913385826,
          "duration": 0.10465116279067388
        },
        {
          "name": "D#4",
          "midi": 63,
          "time": 197.61627906973524,
          "velocity": 0.4566929133858268,
          "duration": 0.023255813953483084
        },
        {
          "name": "C5",
          "midi": 72,
          "time": 197.61627906973524,
          "velocity": 0.18110236220472442,
          "duration": 0.0813953488371908
        },
        {
          "name": "D5",
          "midi": 74,
          "time": 197.61627906973524,
          "velocity": 0.36220472440944884,
          "duration": 0.23255813953483084
        },
        {
          "name": "F2",
          "midi": 41,
          "time": 197.63953488368873,
          "velocity": 0.5196850393700787,
          "duration": 0.023255813953483084
        },
        {
          "name": "A#3",
          "midi": 58,
          "time": 197.63953488368873,
          "velocity": 0.41732283464566927,
          "duration": 0.023255813953483084
        },
        {
          "name": "F#4",
          "midi": 66,
          "time": 197.63953488368873,
          "velocity": 0.2992125984251969,
          "duration": 0.023255813953483084
        },
        {
          "name": "A4",
          "midi": 69,
          "time": 197.63953488368873,
          "velocity": 0.23622047244094488,
          "duration": 0.05813953488370771
        },
        {
          "name": "F#4",
          "midi": 66,
          "time": 197.67441860461895,
          "velocity": 0.2440944881889764,
          "duration": 0.023255813953483084
        },
        {
          "name": "A#3",
          "midi": 58,
          "time": 197.69767441857243,
          "velocity": 0.33070866141732286,
          "duration": 0.05813953488370771
        },
        {
          "name": "A2",
          "midi": 45,
          "time": 197.70930232554917,
          "velocity": 0.5511811023622047,
          "duration": 0.011627906976741542
        },
        {
          "name": "C5",
          "midi": 72,
          "time": 197.70930232554917,
          "velocity": 0.11023622047244094,
          "duration": 0.06976744186044925
        },
        {
          "name": "D#3",
          "midi": 51,
          "time": 197.72093023252592,
          "velocity": 0.6220472440944882,
          "duration": 0.011627906976741542
        },
        {
          "name": "A2",
          "midi": 45,
          "time": 197.73255813950266,
          "velocity": 0.6141732283464567,
          "duration": 0.04651162790696617
        },
        {
          "name": "D3",
          "midi": 50,
          "time": 197.73255813950266,
          "velocity": 0.5826771653543307,
          "duration": 0.011627906976741542
        },
        {
          "name": "B6",
          "midi": 95,
          "time": 197.7441860464794,
          "velocity": 0.16535433070866143,
          "duration": 0.05813953488370771
        },
        {
          "name": "A4",
          "midi": 69,
          "time": 197.76744186043288,
          "velocity": 0.1968503937007874,
          "duration": 0.034883720930224626
        },
        {
          "name": "G#2",
          "midi": 44,
          "time": 197.77906976740962,
          "velocity": 0.5984251968503937,
          "duration": 0.011627906976741542
        },
        {
          "name": "A2",
          "midi": 45,
          "time": 197.79069767438637,
          "velocity": 0.5196850393700787,
          "duration": 0.011627906976741542
        },
        {
          "name": "A6",
          "midi": 93,
          "time": 197.79069767438637,
          "velocity": 0.1968503937007874,
          "duration": 0.04651162790696617
        },
        {
          "name": "F2",
          "midi": 41,
          "time": 197.8023255813631,
          "velocity": 0.5905511811023622,
          "duration": 0.011627906976741542
        },
        {
          "name": "E6",
          "midi": 88,
          "time": 197.8023255813631,
          "velocity": 0.16535433070866143,
          "duration": 0.06976744186044925
        },
        {
          "name": "G#2",
          "midi": 44,
          "time": 197.81395348833985,
          "velocity": 0.6141732283464567,
          "duration": 0.011627906976741542
        },
        {
          "name": "A4",
          "midi": 69,
          "time": 197.81395348833985,
          "velocity": 0.3779527559055118,
          "duration": 0.3255813953487632
        },
        {
          "name": "C#7",
          "midi": 97,
          "time": 197.81395348833985,
          "velocity": 0.1968503937007874,
          "duration": 0.1395348837208985
        },
        {
          "name": "G2",
          "midi": 43,
          "time": 197.8255813953166,
          "velocity": 0.5118110236220472,
          "duration": 0.011627906976741542
        },
        {
          "name": "F#4",
          "midi": 66,
          "time": 197.8255813953166,
          "velocity": 0.3228346456692913,
          "duration": 0.1395348837208985
        },
        {
          "name": "C5",
          "midi": 72,
          "time": 197.8255813953166,
          "velocity": 0.09448818897637795,
          "duration": 0.04651162790696617
        },
        {
          "name": "F5",
          "midi": 77,
          "time": 197.8255813953166,
          "velocity": 0.25196850393700787,
          "duration": 0.023255813953483084
        },
        {
          "name": "F#5",
          "midi": 78,
          "time": 197.8255813953166,
          "velocity": 0.5433070866141733,
          "duration": 0.686046511627751
        },
        {
          "name": "F#7",
          "midi": 102,
          "time": 197.8255813953166,
          "velocity": 0.11023622047244094,
          "duration": 0.034883720930224626
        },
        {
          "name": "D3",
          "midi": 50,
          "time": 197.83720930229333,
          "velocity": 0.4566929133858268,
          "duration": 0.06976744186044925
        },
        {
          "name": "D#2",
          "midi": 39,
          "time": 197.84883720927007,
          "velocity": 0.5118110236220472,
          "duration": 0.011627906976741542
        },
        {
          "name": "E5",
          "midi": 76,
          "time": 197.84883720927007,
          "velocity": 0.2755905511811024,
          "duration": 0.06976744186044925
        },
        {
          "name": "B6",
          "midi": 95,
          "time": 197.84883720927007,
          "velocity": 0.2047244094488189,
          "duration": 0.0813953488371908
        },
        {
          "name": "E2",
          "midi": 40,
          "time": 197.86046511624681,
          "velocity": 0.4881889763779528,
          "duration": 0.023255813953483084
        },
        {
          "name": "A#3",
          "midi": 58,
          "time": 197.86046511624681,
          "velocity": 0.31496062992125984,
          "duration": 0.023255813953483084
        },
        {
          "name": "D#7",
          "midi": 99,
          "time": 197.87209302322356,
          "velocity": 0.12598425196850394,
          "duration": 0.12790697674415696
        },
        {
          "name": "A3",
          "midi": 57,
          "time": 197.8837209302003,
          "velocity": 0.36220472440944884,
          "duration": 0.1395348837208985
        },
        {
          "name": "C5",
          "midi": 72,
          "time": 197.8837209302003,
          "velocity": 0.10236220472440945,
          "duration": 0.09302325581393234
        },
        {
          "name": "C7",
          "midi": 96,
          "time": 197.8837209302003,
          "velocity": 0.07874015748031496,
          "duration": 0.034883720930224626
        },
        {
          "name": "F#7",
          "midi": 102,
          "time": 197.8837209302003,
          "velocity": 0.11811023622047244,
          "duration": 0.05813953488370771
        },
        {
          "name": "D2",
          "midi": 38,
          "time": 197.89534883717704,
          "velocity": 0.3228346456692913,
          "duration": 0.023255813953483084
        },
        {
          "name": "D#3",
          "midi": 51,
          "time": 197.90697674415378,
          "velocity": 0.41732283464566927,
          "duration": 0.023255813953483084
        },
        {
          "name": "E7",
          "midi": 100,
          "time": 197.90697674415378,
          "velocity": 0.11811023622047244,
          "duration": 0.0813953488371908
        },
        {
          "name": "D3",
          "midi": 50,
          "time": 197.93023255810726,
          "velocity": 0.44881889763779526,
          "duration": 0.04651162790696617
        },
        {
          "name": "G7",
          "midi": 103,
          "time": 197.941860465084,
          "velocity": 0.11811023622047244,
          "duration": 0.034883720930224626
        },
        {
          "name": "F#7",
          "midi": 102,
          "time": 197.95348837206075,
          "velocity": 0.09448818897637795,
          "duration": 0.034883720930224626
        },
        {
          "name": "C#7",
          "midi": 97,
          "time": 197.9651162790375,
          "velocity": 0.3228346456692913,
          "duration": 0.558139534883594
        },
        {
          "name": "F7",
          "midi": 101,
          "time": 197.97674418601423,
          "velocity": 0.07874015748031496,
          "duration": 0.034883720930224626
        },
        {
          "name": "D3",
          "midi": 50,
          "time": 197.98837209299097,
          "velocity": 0.4645669291338583,
          "duration": 0.034883720930224626
        },
        {
          "name": "D#2",
          "midi": 39,
          "time": 197.9999999999677,
          "velocity": 0.4409448818897638,
          "duration": 0.023255813953483084
        },
        {
          "name": "F#4",
          "midi": 66,
          "time": 197.9999999999677,
          "velocity": 0.28346456692913385,
          "duration": 0.09302325581393234
        },
        {
          "name": "E5",
          "midi": 76,
          "time": 197.9999999999677,
          "velocity": 0.11023622047244094,
          "duration": 0.034883720930224626
        },
        {
          "name": "B6",
          "midi": 95,
          "time": 197.9999999999677,
          "velocity": 0.12598425196850394,
          "duration": 0.11627906976741542
        },
        {
          "name": "G7",
          "midi": 103,
          "time": 197.9999999999677,
          "velocity": 0.11811023622047244,
          "duration": 0.034883720930224626
        },
        {
          "name": "C5",
          "midi": 72,
          "time": 198.01162790694445,
          "velocity": 0.16535433070866143,
          "duration": 0.05813953488370771
        },
        {
          "name": "D6",
          "midi": 86,
          "time": 198.01162790694445,
          "velocity": 0.2677165354330709,
          "duration": 0.05813953488370771
        },
        {
          "name": "C7",
          "midi": 96,
          "time": 198.0232558139212,
          "velocity": 0.18110236220472442,
          "duration": 0.15116279069764005
        },
        {
          "name": "D#6",
          "midi": 87,
          "time": 198.03488372089794,
          "velocity": 0.16535433070866143,
          "duration": 0.09302325581393234
        },
        {
          "name": "D3",
          "midi": 50,
          "time": 198.04651162787468,
          "velocity": 0.3858267716535433,
          "duration": 0.023255813953483084
        },
        {
          "name": "G7",
          "midi": 103,
          "time": 198.04651162787468,
          "velocity": 0.07086614173228346,
          "duration": 0.04651162790696617
        },
        {
          "name": "F2",
          "midi": 41,
          "time": 198.05813953485142,
          "velocity": 0.4881889763779528,
          "duration": 0.034883720930224626
        },
        {
          "name": "F7",
          "midi": 101,
          "time": 198.05813953485142,
          "velocity": 0.2125984251968504,
          "duration": 0.17441860465112313
        },
        {
          "name": "D#3",
          "midi": 51,
          "time": 198.06976744182816,
          "velocity": 0.4330708661417323,
          "duration": 0.023255813953483084
        },
        {
          "name": "C5",
          "midi": 72,
          "time": 198.0813953488049,
          "velocity": 0.12598425196850394,
          "duration": 0.06976744186044925
        },
        {
          "name": "D3",
          "midi": 50,
          "time": 198.09302325578165,
          "velocity": 0.4645669291338583,
          "duration": 0.1395348837208985
        },
        {
          "name": "D6",
          "midi": 86,
          "time": 198.11627906973513,
          "velocity": 0.08661417322834646,
          "duration": 0.04651162790696617
        },
        {
          "name": "D#7",
          "midi": 99,
          "time": 198.11627906973513,
          "velocity": 0.1889763779527559,
          "duration": 0.2209302325580893
        },
        {
          "name": "E7",
          "midi": 100,
          "time": 198.11627906973513,
          "velocity": 0.07874015748031496,
          "duration": 0.04651162790696617
        },
        {
          "name": "A3",
          "midi": 57,
          "time": 198.12790697671187,
          "velocity": 0.12598425196850394,
          "duration": 0.034883720930224626
        },
        {
          "name": "E5",
          "midi": 76,
          "time": 198.12790697671187,
          "velocity": 0.07086614173228346,
          "duration": 0.034883720930224626
        },
        {
          "name": "F#4",
          "midi": 66,
          "time": 198.15116279066535,
          "velocity": 0.14960629921259844,
          "duration": 0.06976744186044925
        },
        {
          "name": "F2",
          "midi": 41,
          "time": 198.1627906976421,
          "velocity": 0.2992125984251969,
          "duration": 0.023255813953483084
        },
        {
          "name": "A4",
          "midi": 69,
          "time": 198.17441860461884,
          "velocity": 0.12598425196850394,
          "duration": 0.05813953488370771
        },
        {
          "name": "D5",
          "midi": 74,
          "time": 198.18604651159558,
          "velocity": 0.2992125984251969,
          "duration": 0.29069767441853855
        },
        {
          "name": "E2",
          "midi": 40,
          "time": 198.20930232554906,
          "velocity": 0.28346456692913385,
          "duration": 0.023255813953483084
        },
        {
          "name": "D4",
          "midi": 62,
          "time": 198.23255813950254,
          "velocity": 0.1732283464566929,
          "duration": 0.034883720930224626
        },
        {
          "name": "E5",
          "midi": 76,
          "time": 198.23255813950254,
          "velocity": 0.33070866141732286,
          "duration": 0.279069767441797
        },
        {
          "name": "C7",
          "midi": 96,
          "time": 198.23255813950254,
          "velocity": 0.25984251968503935,
          "duration": 0.04651162790696617
        },
        {
          "name": "A4",
          "midi": 69,
          "time": 198.24418604647929,
          "velocity": 0.25196850393700787,
          "duration": 0.034883720930224626
        },
        {
          "name": "G7",
          "midi": 103,
          "time": 198.24418604647929,
          "velocity": 0.14173228346456693,
          "duration": 0.0813953488371908
        },
        {
          "name": "C3",
          "midi": 48,
          "time": 198.25581395345603,
          "velocity": 0.4251968503937008,
          "duration": 0.034883720930224626
        },
        {
          "name": "F#4",
          "midi": 66,
          "time": 198.25581395345603,
          "velocity": 0.31496062992125984,
          "duration": 0.17441860465112313
        },
        {
          "name": "F3",
          "midi": 53,
          "time": 198.26744186043277,
          "velocity": 0.3228346456692913,
          "duration": 0.023255813953483084
        },
        {
          "name": "A4",
          "midi": 69,
          "time": 198.29069767438625,
          "velocity": 0.3858267716535433,
          "duration": 0.19767441860460622
        },
        {
          "name": "D#6",
          "midi": 87,
          "time": 198.29069767438625,
          "velocity": 0.10236220472440945,
          "duration": 0.04651162790696617
        },
        {
          "name": "C7",
          "midi": 96,
          "time": 198.29069767438625,
          "velocity": 0.10236220472440945,
          "duration": 0.04651162790696617
        },
        {
          "name": "G#2",
          "midi": 44,
          "time": 198.302325581363,
          "velocity": 0.3937007874015748,
          "duration": 0.023255813953483084
        },
        {
          "name": "A3",
          "midi": 57,
          "time": 198.302325581363,
          "velocity": 0.3779527559055118,
          "duration": 0.034883720930224626
        },
        {
          "name": "D4",
          "midi": 62,
          "time": 198.31395348833973,
          "velocity": 0.25984251968503935,
          "duration": 0.034883720930224626
        },
        {
          "name": "F7",
          "midi": 101,
          "time": 198.31395348833973,
          "velocity": 0.11811023622047244,
          "duration": 0.04651162790696617
        },
        {
          "name": "A#3",
          "midi": 58,
          "time": 198.33720930229322,
          "velocity": 0.33858267716535434,
          "duration": 0.023255813953483084
        },
        {
          "name": "D#4",
          "midi": 63,
          "time": 198.34883720926996,
          "velocity": 0.25984251968503935,
          "duration": 0.023255813953483084
        },
        {
          "name": "D#3",
          "midi": 51,
          "time": 198.3604651162467,
          "velocity": 0.47244094488188976,
          "duration": 0.034883720930224626
        },
        {
          "name": "A3",
          "midi": 57,
          "time": 198.3604651162467,
          "velocity": 0.3543307086614173,
          "duration": 0.06976744186044925
        },
        {
          "name": "F2",
          "midi": 41,
          "time": 198.37209302322344,
          "velocity": 0.44881889763779526,
          "duration": 0.023255813953483084
        },
        {
          "name": "D4",
          "midi": 62,
          "time": 198.37209302322344,
          "velocity": 0.25984251968503935,
          "duration": 0.0813953488371908
        },
        {
          "name": "G7",
          "midi": 103,
          "time": 198.37209302322344,
          "velocity": 0.13385826771653545,
          "duration": 0.04651162790696617
        },
        {
          "name": "D#6",
          "midi": 87,
          "time": 198.38372093020018,
          "velocity": 0.09448818897637795,
          "duration": 0.034883720930224626
        },
        {
          "name": "D3",
          "midi": 50,
          "time": 198.39534883717693,
          "velocity": 0.48031496062992124,
          "duration": 0.04651162790696617
        },
        {
          "name": "D#7",
          "midi": 99,
          "time": 198.39534883717693,
          "velocity": 0.13385826771653545,
          "duration": 0.05813953488370771
        },
        {
          "name": "F2",
          "midi": 41,
          "time": 198.4418604650839,
          "velocity": 0.5275590551181102,
          "duration": 0.011627906976741542
        },
        {
          "name": "D#3",
          "midi": 51,
          "time": 198.4418604650839,
          "velocity": 0.5354330708661418,
          "duration": 0.023255813953483084
        },
        {
          "name": "C5",
          "midi": 72,
          "time": 198.4418604650839,
          "velocity": 0.23622047244094488,
          "duration": 0.023255813953483084
        },
        {
          "name": "B6",
          "midi": 95,
          "time": 198.4418604650839,
          "velocity": 0.41732283464566927,
          "duration": 2.03488372092977
        },
        {
          "name": "F7",
          "midi": 101,
          "time": 198.4418604650839,
          "velocity": 0.10236220472440945,
          "duration": 0.034883720930224626
        },
        {
          "name": "G7",
          "midi": 103,
          "time": 198.4418604650839,
          "velocity": 0.11811023622047244,
          "duration": 0.034883720930224626
        },
        {
          "name": "D2",
          "midi": 38,
          "time": 198.45348837206063,
          "velocity": 0.5354330708661418,
          "duration": 0.011627906976741542
        },
        {
          "name": "G#2",
          "midi": 44,
          "time": 198.45348837206063,
          "velocity": 0.5590551181102362,
          "duration": 0.011627906976741542
        },
        {
          "name": "E4",
          "midi": 64,
          "time": 198.45348837206063,
          "velocity": 0.4251968503937008,
          "duration": 0.29069767441853855
        },
        {
          "name": "E7",
          "midi": 100,
          "time": 198.45348837206063,
          "velocity": 0.30708661417322836,
          "duration": 1.7674418604647144
        },
        {
          "name": "C2",
          "midi": 36,
          "time": 198.46511627903737,
          "velocity": 0.5118110236220472,
          "duration": 0.011627906976741542
        },
        {
          "name": "C3",
          "midi": 48,
          "time": 198.46511627903737,
          "velocity": 0.5826771653543307,
          "duration": 0.011627906976741542
        },
        {
          "name": "B4",
          "midi": 71,
          "time": 198.46511627903737,
          "velocity": 0.30708661417322836,
          "duration": 0.17441860465112313
        },
        {
          "name": "D#7",
          "midi": 99,
          "time": 198.46511627903737,
          "velocity": 0.16535433070866143,
          "duration": 0.09302325581393234
        },
        {
          "name": "D3",
          "midi": 50,
          "time": 198.47674418601412,
          "velocity": 0.5433070866141733,
          "duration": 0.011627906976741542
        },
        {
          "name": "G#5",
          "midi": 80,
          "time": 198.47674418601412,
          "velocity": 0.08661417322834646,
          "duration": 0.034883720930224626
        },
        {
          "name": "A6",
          "midi": 93,
          "time": 198.47674418601412,
          "velocity": 0.13385826771653545,
          "duration": 0.06976744186044925
        },
        {
          "name": "A#6",
          "midi": 94,
          "time": 198.48837209299086,
          "velocity": 0.23622047244094488,
          "duration": 0.034883720930224626
        },
        {
          "name": "C7",
          "midi": 96,
          "time": 198.48837209299086,
          "velocity": 0.11811023622047244,
          "duration": 0.034883720930224626
        },
        {
          "name": "B3",
          "midi": 59,
          "time": 198.4999999999676,
          "velocity": 0.3543307086614173,
          "duration": 0.023255813953483084
        },
        {
          "name": "A4",
          "midi": 69,
          "time": 198.4999999999676,
          "velocity": 0.25984251968503935,
          "duration": 0.15116279069764005
        },
        {
          "name": "D#5",
          "midi": 75,
          "time": 198.4999999999676,
          "velocity": 0.4015748031496063,
          "duration": 0.023255813953483084
        },
        {
          "name": "E3",
          "midi": 52,
          "time": 198.51162790694434,
          "velocity": 0.5433070866141733,
          "duration": 0.06976744186044925
        },
        {
          "name": "E2",
          "midi": 40,
          "time": 198.52325581392108,
          "velocity": 0.49606299212598426,
          "duration": 0.023255813953483084
        },
        {
          "name": "E5",
          "midi": 76,
          "time": 198.52325581392108,
          "velocity": 0.44881889763779526,
          "duration": 1.499999999999659
        },
        {
          "name": "B3",
          "midi": 59,
          "time": 198.53488372089782,
          "velocity": 0.3543307086614173,
          "duration": 0.04651162790696617
        },
        {
          "name": "F#6",
          "midi": 90,
          "time": 198.5581395348513,
          "velocity": 0.2047244094488189,
          "duration": 0.05813953488370771
        },
        {
          "name": "D#3",
          "midi": 51,
          "time": 198.5813953488048,
          "velocity": 0.5354330708661418,
          "duration": 0.011627906976741542
        },
        {
          "name": "F#5",
          "midi": 78,
          "time": 198.5813953488048,
          "velocity": 0.08661417322834646,
          "duration": 0.04651162790696617
        },
        {
          "name": "E3",
          "midi": 52,
          "time": 198.59302325578153,
          "velocity": 0.44881889763779526,
          "duration": 0.023255813953483084
        },
        {
          "name": "D5",
          "midi": 74,
          "time": 198.60465116275827,
          "velocity": 0.1968503937007874,
          "duration": 0.2558139534883139
        },
        {
          "name": "F#6",
          "midi": 90,
          "time": 198.6395348836885,
          "velocity": 0.16535433070866143,
          "duration": 0.0813953488371908
        },
        {
          "name": "F#5",
          "midi": 78,
          "time": 198.65116279066524,
          "velocity": 0.4094488188976378,
          "duration": 0.0813953488371908
        },
        {
          "name": "D#2",
          "midi": 39,
          "time": 198.66279069764198,
          "velocity": 0.5275590551181102,
          "duration": 0.011627906976741542
        },
        {
          "name": "G4",
          "midi": 67,
          "time": 198.66279069764198,
          "velocity": 0.3700787401574803,
          "duration": 0.39534883720921243
        },
        {
          "name": "A4",
          "midi": 69,
          "time": 198.66279069764198,
          "velocity": 0.25984251968503935,
          "duration": 0.023255813953483084
        },
        {
          "name": "B4",
          "midi": 71,
          "time": 198.66279069764198,
          "velocity": 0.3543307086614173,
          "duration": 0.279069767441797
        },
        {
          "name": "C#7",
          "midi": 97,
          "time": 198.67441860461872,
          "velocity": 0.11811023622047244,
          "duration": 0.06976744186044925
        },
        {
          "name": "D#7",
          "midi": 99,
          "time": 198.67441860461872,
          "velocity": 0.11023622047244094,
          "duration": 0.05813953488370771
        },
        {
          "name": "A#3",
          "midi": 58,
          "time": 198.68604651159546,
          "velocity": 0.28346456692913385,
          "duration": 0.023255813953483084
        },
        {
          "name": "D#3",
          "midi": 51,
          "time": 198.6976744185722,
          "velocity": 0.49606299212598426,
          "duration": 0.023255813953483084
        },
        {
          "name": "D7",
          "midi": 98,
          "time": 198.6976744185722,
          "velocity": 0.13385826771653545,
          "duration": 0.04651162790696617
        },
        {
          "name": "B3",
          "midi": 59,
          "time": 198.70930232554895,
          "velocity": 0.3228346456692913,
          "duration": 0.034883720930224626
        },
        {
          "name": "F2",
          "midi": 41,
          "time": 198.7209302325257,
          "velocity": 0.5196850393700787,
          "duration": 0.011627906976741542
        },
        {
          "name": "E3",
          "midi": 52,
          "time": 198.7209302325257,
          "velocity": 0.5511811023622047,
          "duration": 0.05813953488370771
        },
        {
          "name": "G7",
          "midi": 103,
          "time": 198.7209302325257,
          "velocity": 0.10236220472440945,
          "duration": 0.034883720930224626
        },
        {
          "name": "B3",
          "midi": 59,
          "time": 198.76744186043265,
          "velocity": 0.2992125984251969,
          "duration": 0.06976744186044925
        },
        {
          "name": "D#3",
          "midi": 51,
          "time": 198.7790697674094,
          "velocity": 0.5433070866141733,
          "duration": 0.011627906976741542
        },
        {
          "name": "F#5",
          "midi": 78,
          "time": 198.7790697674094,
          "velocity": 0.25196850393700787,
          "duration": 0.23255813953483084
        },
        {
          "name": "G7",
          "midi": 103,
          "time": 198.7790697674094,
          "velocity": 0.10236220472440945,
          "duration": 0.034883720930224626
        },
        {
          "name": "E3",
          "midi": 52,
          "time": 198.79069767438614,
          "velocity": 0.5196850393700787,
          "duration": 0.05813953488370771
        },
        {
          "name": "E2",
          "midi": 40,
          "time": 198.81395348833962,
          "velocity": 0.44881889763779526,
          "duration": 0.023255813953483084
        },
        {
          "name": "E2",
          "midi": 40,
          "time": 198.84883720926985,
          "velocity": 0.5196850393700787,
          "duration": 0.023255813953483084
        },
        {
          "name": "C7",
          "midi": 96,
          "time": 198.8604651162466,
          "velocity": 0.2125984251968504,
          "duration": 0.34883720930224626
        },
        {
          "name": "D5",
          "midi": 74,
          "time": 198.88372093020007,
          "velocity": 0.14173228346456693,
          "duration": 0.1395348837208985
        },
        {
          "name": "A5",
          "midi": 81,
          "time": 198.88372093020007,
          "velocity": 0.2755905511811024,
          "duration": 0.37209302325572935
        },
        {
          "name": "D7",
          "midi": 98,
          "time": 198.88372093020007,
          "velocity": 0.2992125984251969,
          "duration": 0.034883720930224626
        },
        {
          "name": "D#6",
          "midi": 87,
          "time": 198.8953488371768,
          "velocity": 0.14960629921259844,
          "duration": 0.10465116279067388
        },
        {
          "name": "D#7",
          "midi": 99,
          "time": 198.8953488371768,
          "velocity": 0.1732283464566929,
          "duration": 0.29069767441853855
        },
        {
          "name": "F7",
          "midi": 101,
          "time": 198.8953488371768,
          "velocity": 0.11023622047244094,
          "duration": 0.0813953488371908
        },
        {
          "name": "C4",
          "midi": 60,
          "time": 198.90697674415355,
          "velocity": 0.28346456692913385,
          "duration": 0.023255813953483084
        },
        {
          "name": "C#7",
          "midi": 97,
          "time": 198.90697674415355,
          "velocity": 0.29133858267716534,
          "duration": 0.2558139534883139
        },
        {
          "name": "G7",
          "midi": 103,
          "time": 198.9186046511303,
          "velocity": 0.11023622047244094,
          "duration": 0.04651162790696617
        },
        {
          "name": "F3",
          "midi": 53,
          "time": 198.93023255810704,
          "velocity": 0.3543307086614173,
          "duration": 0.023255813953483084
        },
        {
          "name": "B3",
          "midi": 59,
          "time": 198.93023255810704,
          "velocity": 0.3228346456692913,
          "duration": 0.1627906976743816
        },
        {
          "name": "D7",
          "midi": 98,
          "time": 198.95348837206052,
          "velocity": 0.2047244094488189,
          "duration": 0.09302325581393234
        },
        {
          "name": "E2",
          "midi": 40,
          "time": 198.976744186014,
          "velocity": 0.5039370078740157,
          "duration": 0.05813953488370771
        },
        {
          "name": "F7",
          "midi": 101,
          "time": 198.98837209299074,
          "velocity": 0.15748031496062992,
          "duration": 0.11627906976741542
        },
        {
          "name": "D#6",
          "midi": 87,
          "time": 199.02325581392097,
          "velocity": 0.10236220472440945,
          "duration": 0.04651162790696617
        },
        {
          "name": "G2",
          "midi": 43,
          "time": 199.04651162787445,
          "velocity": 0.41732283464566927,
          "duration": 0.023255813953483084
        },
        {
          "name": "A4",
          "midi": 69,
          "time": 199.04651162787445,
          "velocity": 0.1889763779527559,
          "duration": 0.06976744186044925
        },
        {
          "name": "G7",
          "midi": 103,
          "time": 199.04651162787445,
          "velocity": 0.2125984251968504,
          "duration": 0.06976744186044925
        },
        {
          "name": "D#3",
          "midi": 51,
          "time": 199.0581395348512,
          "velocity": 0.4330708661417323,
          "duration": 0.023255813953483084
        },
        {
          "name": "G#5",
          "midi": 80,
          "time": 199.0581395348512,
          "velocity": 0.16535433070866143,
          "duration": 0.04651162790696617
        },
        {
          "name": "D7",
          "midi": 98,
          "time": 199.06976744182793,
          "velocity": 0.2047244094488189,
          "duration": 0.10465116279067388
        },
        {
          "name": "E3",
          "midi": 52,
          "time": 199.08139534880468,
          "velocity": 0.4251968503937008,
          "duration": 0.023255813953483084
        },
        {
          "name": "F#4",
          "midi": 66,
          "time": 199.08139534880468,
          "velocity": 0.2677165354330709,
          "duration": 0.034883720930224626
        },
        {
          "name": "F#6",
          "midi": 90,
          "time": 199.08139534880468,
          "velocity": 0.10236220472440945,
          "duration": 0.04651162790696617
        },
        {
          "name": "F#5",
          "midi": 78,
          "time": 199.09302325578142,
          "velocity": 0.30708661417322836,
          "duration": 0.06976744186044925
        },
        {
          "name": "F#2",
          "midi": 42,
          "time": 199.10465116275816,
          "velocity": 0.5511811023622047,
          "duration": 0.023255813953483084
        },
        {
          "name": "E4",
          "midi": 64,
          "time": 199.1162790697349,
          "velocity": 0.2283464566929134,
          "duration": 0.023255813953483084
        },
        {
          "name": "G4",
          "midi": 67,
          "time": 199.1162790697349,
          "velocity": 0.3464566929133858,
          "duration": 0.18604651162786467
        },
        {
          "name": "B3",
          "midi": 59,
          "time": 199.12790697671164,
          "velocity": 0.4015748031496063,
          "duration": 0.15116279069764005
        },
        {
          "name": "E2",
          "midi": 40,
          "time": 199.13953488368838,
          "velocity": 0.48031496062992124,
          "duration": 0.05813953488370771
        },
        {
          "name": "G6",
          "midi": 91,
          "time": 199.13953488368838,
          "velocity": 0.11023622047244094,
          "duration": 0.034883720930224626
        },
        {
          "name": "E4",
          "midi": 64,
          "time": 199.15116279066513,
          "velocity": 0.18110236220472442,
          "duration": 0.09302325581393234
        },
        {
          "name": "D5",
          "midi": 74,
          "time": 199.15116279066513,
          "velocity": 0.11811023622047244,
          "duration": 0.06976744186044925
        },
        {
          "name": "E3",
          "midi": 52,
          "time": 199.16279069764187,
          "velocity": 0.48031496062992124,
          "duration": 0.05813953488370771
        },
        {
          "name": "F#5",
          "midi": 78,
          "time": 199.2558139534558,
          "velocity": 0.07874015748031496,
          "duration": 0.05813953488370771
        },
        {
          "name": "C7",
          "midi": 96,
          "time": 199.29069767438602,
          "velocity": 0.1889763779527559,
          "duration": 0.10465116279067388
        },
        {
          "name": "C5",
          "midi": 72,
          "time": 199.30232558136277,
          "velocity": 0.2677165354330709,
          "duration": 0.034883720930224626
        },
        {
          "name": "D6",
          "midi": 86,
          "time": 199.30232558136277,
          "velocity": 0.2440944881889764,
          "duration": 0.034883720930224626
        },
        {
          "name": "D#6",
          "midi": 87,
          "time": 199.30232558136277,
          "velocity": 0.08661417322834646,
          "duration": 0.05813953488370771
        },
        {
          "name": "G#6",
          "midi": 92,
          "time": 199.30232558136277,
          "velocity": 0.1968503937007874,
          "duration": 0.10465116279067388
        },
        {
          "name": "G7",
          "midi": 103,
          "time": 199.30232558136277,
          "velocity": 0.16535433070866143,
          "duration": 0.12790697674415696
        },
        {
          "name": "C3",
          "midi": 48,
          "time": 199.3139534883395,
          "velocity": 0.5433070866141733,
          "duration": 0.023255813953483084
        },
        {
          "name": "B5",
          "midi": 83,
          "time": 199.3139534883395,
          "velocity": 0.14173228346456693,
          "duration": 0.11627906976741542
        },
        {
          "name": "A#6",
          "midi": 94,
          "time": 199.3139534883395,
          "velocity": 0.12598425196850394,
          "duration": 0.04651162790696617
        },
        {
          "name": "C#7",
          "midi": 97,
          "time": 199.3139534883395,
          "velocity": 0.18110236220472442,
          "duration": 0.05813953488370771
        },
        {
          "name": "D#7",
          "midi": 99,
          "time": 199.3139534883395,
          "velocity": 0.15748031496062992,
          "duration": 0.09302325581393234
        },
        {
          "name": "F#7",
          "midi": 102,
          "time": 199.3139534883395,
          "velocity": 0.09448818897637795,
          "duration": 0.04651162790696617
        },
        {
          "name": "E4",
          "midi": 64,
          "time": 199.32558139531625,
          "velocity": 0.3858267716535433,
          "duration": 0.034883720930224626
        },
        {
          "name": "C#6",
          "midi": 85,
          "time": 199.32558139531625,
          "velocity": 0.15748031496062992,
          "duration": 0.034883720930224626
        },
        {
          "name": "C5",
          "midi": 72,
          "time": 199.36046511624647,
          "velocity": 0.13385826771653545,
          "duration": 0.04651162790696617
        },
        {
          "name": "E3",
          "midi": 52,
          "time": 199.37209302322321,
          "velocity": 0.5590551181102362,
          "duration": 0.10465116279067388
        },
        {
          "name": "C4",
          "midi": 60,
          "time": 199.37209302322321,
          "velocity": 0.4094488188976378,
          "duration": 0.023255813953483084
        },
        {
          "name": "F2",
          "midi": 41,
          "time": 199.38372093019996,
          "velocity": 0.5118110236220472,
          "duration": 0.011627906976741542
        },
        {
          "name": "B3",
          "midi": 59,
          "time": 199.3953488371767,
          "velocity": 0.41732283464566927,
          "duration": 0.034883720930224626
        },
        {
          "name": "F#5",
          "midi": 78,
          "time": 199.3953488371767,
          "velocity": 0.11023622047244094,
          "duration": 0.04651162790696617
        },
        {
          "name": "C#5",
          "midi": 73,
          "time": 199.40697674415344,
          "velocity": 0.14173228346456693,
          "duration": 0.034883720930224626
        },
        {
          "name": "C3",
          "midi": 48,
          "time": 199.41860465113018,
          "velocity": 0.5118110236220472,
          "duration": 0.011627906976741542
        },
        {
          "name": "A4",
          "midi": 69,
          "time": 199.41860465113018,
          "velocity": 0.11023622047244094,
          "duration": 0.034883720930224626
        },
        {
          "name": "B2",
          "midi": 47,
          "time": 199.43023255810692,
          "velocity": 0.5275590551181102,
          "duration": 0.011627906976741542
        },
        {
          "name": "C7",
          "midi": 96,
          "time": 199.43023255810692,
          "velocity": 0.08661417322834646,
          "duration": 0.04651162790696617
        },
        {
          "name": "G4",
          "midi": 67,
          "time": 199.4534883720604,
          "velocity": 0.14173228346456693,
          "duration": 0.05813953488370771
        },
        {
          "name": "C3",
          "midi": 48,
          "time": 199.46511627903715,
          "velocity": 0.5118110236220472,
          "duration": 0.011627906976741542
        },
        {
          "name": "B2",
          "midi": 47,
          "time": 199.4767441860139,
          "velocity": 0.5669291338582677,
          "duration": 0.04651162790696617
        },
        {
          "name": "F3",
          "midi": 53,
          "time": 199.4767441860139,
          "velocity": 0.5118110236220472,
          "duration": 0.011627906976741542
        },
        {
          "name": "E2",
          "midi": 40,
          "time": 199.49999999996737,
          "velocity": 0.5275590551181102,
          "duration": 0.023255813953483084
        },
        {
          "name": "F#5",
          "midi": 78,
          "time": 199.5116279069441,
          "velocity": 0.36220472440944884,
          "duration": 0.4186046511626955
        },
        {
          "name": "A2",
          "midi": 45,
          "time": 199.52325581392085,
          "velocity": 0.5669291338582677,
          "duration": 0.011627906976741542
        },
        {
          "name": "F2",
          "midi": 41,
          "time": 199.5348837208976,
          "velocity": 0.5196850393700787,
          "duration": 0.011627906976741542
        },
        {
          "name": "B2",
          "midi": 47,
          "time": 199.5348837208976,
          "velocity": 0.5354330708661418,
          "duration": 0.011627906976741542
        },
        {
          "name": "G4",
          "midi": 67,
          "time": 199.5348837208976,
          "velocity": 0.33858267716535434,
          "duration": 0.29069767441853855
        },
        {
          "name": "C#7",
          "midi": 97,
          "time": 199.5348837208976,
          "velocity": 0.25196850393700787,
          "duration": 0.11627906976741542
        },
        {
          "name": "A#2",
          "midi": 46,
          "time": 199.54651162787434,
          "velocity": 0.5669291338582677,
          "duration": 0.011627906976741542
        },
        {
          "name": "G#6",
          "midi": 92,
          "time": 199.54651162787434,
          "velocity": 0.11023622047244094,
          "duration": 0.05813953488370771
        },
        {
          "name": "F2",
          "midi": 41,
          "time": 199.55813953485108,
          "velocity": 0.5511811023622047,
          "duration": 0.023255813953483084
        },
        {
          "name": "B2",
          "midi": 47,
          "time": 199.55813953485108,
          "velocity": 0.5118110236220472,
          "duration": 0.011627906976741542
        },
        {
          "name": "D#6",
          "midi": 87,
          "time": 199.55813953485108,
          "velocity": 0.14173228346456693,
          "duration": 0.0813953488371908
        },
        {
          "name": "B3",
          "midi": 59,
          "time": 199.56976744182782,
          "velocity": 0.3464566929133858,
          "duration": 0.18604651162786467
        },
        {
          "name": "D6",
          "midi": 86,
          "time": 199.56976744182782,
          "velocity": 0.10236220472440945,
          "duration": 0.034883720930224626
        },
        {
          "name": "E2",
          "midi": 40,
          "time": 199.58139534880456,
          "velocity": 0.5196850393700787,
          "duration": 0.011627906976741542
        },
        {
          "name": "D5",
          "midi": 74,
          "time": 199.58139534880456,
          "velocity": 0.07874015748031496,
          "duration": 0.034883720930224626
        },
        {
          "name": "G6",
          "midi": 91,
          "time": 199.58139534880456,
          "velocity": 0.07874015748031496,
          "duration": 0.034883720930224626
        },
        {
          "name": "D#2",
          "midi": 39,
          "time": 199.5930232557813,
          "velocity": 0.5433070866141733,
          "duration": 0.011627906976741542
        },
        {
          "name": "D7",
          "midi": 98,
          "time": 199.5930232557813,
          "velocity": 0.2047244094488189,
          "duration": 0.2209302325580893
        },
        {
          "name": "F2",
          "midi": 41,
          "time": 199.60465116275805,
          "velocity": 0.5196850393700787,
          "duration": 0.011627906976741542
        },
        {
          "name": "E3",
          "midi": 52,
          "time": 199.60465116275805,
          "velocity": 0.3937007874015748,
          "duration": 0.04651162790696617
        },
        {
          "name": "D#2",
          "midi": 39,
          "time": 199.6162790697348,
          "velocity": 0.4409448818897638,
          "duration": 0.034883720930224626
        },
        {
          "name": "E2",
          "midi": 40,
          "time": 199.651162790665,
          "velocity": 0.3858267716535433,
          "duration": 0.023255813953483084
        },
        {
          "name": "C#7",
          "midi": 97,
          "time": 199.66279069764175,
          "velocity": 0.2755905511811024,
          "duration": 0.17441860465112313
        },
        {
          "name": "F7",
          "midi": 101,
          "time": 199.66279069764175,
          "velocity": 0.10236220472440945,
          "duration": 0.05813953488370771
        },
        {
          "name": "F#2",
          "midi": 42,
          "time": 199.68604651159524,
          "velocity": 0.4409448818897638,
          "duration": 0.034883720930224626
        },
        {
          "name": "C3",
          "midi": 48,
          "time": 199.72093023252546,
          "velocity": 0.31496062992125984,
          "duration": 0.023255813953483084
        },
        {
          "name": "C7",
          "midi": 96,
          "time": 199.72093023252546,
          "velocity": 0.2047244094488189,
          "duration": 0.06976744186044925
        },
        {
          "name": "D5",
          "midi": 74,
          "time": 199.7325581395022,
          "velocity": 0.11023622047244094,
          "duration": 0.06976744186044925
        },
        {
          "name": "A5",
          "midi": 81,
          "time": 199.7325581395022,
          "velocity": 0.25196850393700787,
          "duration": 0.37209302325572935
        },
        {
          "name": "G#6",
          "midi": 92,
          "time": 199.7325581395022,
          "velocity": 0.1968503937007874,
          "duration": 0.18604651162786467
        },
        {
          "name": "D#7",
          "midi": 99,
          "time": 199.74418604647894,
          "velocity": 0.2283464566929134,
          "duration": 0.17441860465112313
        },
        {
          "name": "G7",
          "midi": 103,
          "time": 199.74418604647894,
          "velocity": 0.08661417322834646,
          "duration": 0.04651162790696617
        },
        {
          "name": "F#2",
          "midi": 42,
          "time": 199.7558139534557,
          "velocity": 0.5433070866141733,
          "duration": 0.011627906976741542
        },
        {
          "name": "B4",
          "midi": 71,
          "time": 199.7558139534557,
          "velocity": 0.3464566929133858,
          "duration": 0.3604651162789878
        },
        {
          "name": "F#7",
          "midi": 102,
          "time": 199.7558139534557,
          "velocity": 0.1889763779527559,
          "duration": 0.1627906976743816
        },
        {
          "name": "F2",
          "midi": 41,
          "time": 199.76744186043243,
          "velocity": 0.5748031496062992,
          "duration": 0.034883720930224626
        },
        {
          "name": "E4",
          "midi": 64,
          "time": 199.77906976740917,
          "velocity": 0.30708661417322836,
          "duration": 0.26744186046505547
        },
        {
          "name": "F7",
          "midi": 101,
          "time": 199.77906976740917,
          "velocity": 0.1889763779527559,
          "duration": 0.10465116279067388
        },
        {
          "name": "E3",
          "midi": 52,
          "time": 199.80232558136265,
          "velocity": 0.3700787401574803,
          "duration": 0.09302325581393234
        },
        {
          "name": "B3",
          "midi": 59,
          "time": 199.80232558136265,
          "velocity": 0.14173228346456693,
          "duration": 0.034883720930224626
        },
        {
          "name": "A#6",
          "midi": 94,
          "time": 199.8139534883394,
          "velocity": 0.11811023622047244,
          "duration": 0.04651162790696617
        },
        {
          "name": "G#4",
          "midi": 68,
          "time": 199.82558139531614,
          "velocity": 0.2204724409448819,
          "duration": 0.09302325581393234
        },
        {
          "name": "D5",
          "midi": 74,
          "time": 199.82558139531614,
          "velocity": 0.1732283464566929,
          "duration": 0.05813953488370771
        },
        {
          "name": "F2",
          "midi": 41,
          "time": 199.84883720926962,
          "velocity": 0.3228346456692913,
          "duration": 0.034883720930224626
        },
        {
          "name": "C#7",
          "midi": 97,
          "time": 199.86046511624636,
          "velocity": 0.18110236220472442,
          "duration": 0.05813953488370771
        },
        {
          "name": "B3",
          "midi": 59,
          "time": 199.8720930232231,
          "velocity": 0.15748031496062992,
          "duration": 0.0813953488371908
        },
        {
          "name": "A#6",
          "midi": 94,
          "time": 199.8720930232231,
          "velocity": 0.07874015748031496,
          "duration": 0.034883720930224626
        },
        {
          "name": "E2",
          "midi": 40,
          "time": 199.88372093019984,
          "velocity": 0.28346456692913385,
          "duration": 0.05813953488370771
        },
        {
          "name": "D7",
          "midi": 98,
          "time": 199.88372093019984,
          "velocity": 0.1968503937007874,
          "duration": 0.18604651162786467
        },
        {
          "name": "C7",
          "midi": 96,
          "time": 199.89534883717658,
          "velocity": 0.23622047244094488,
          "duration": 0.04651162790696617
        },
        {
          "name": "G7",
          "midi": 103,
          "time": 199.89534883717658,
          "velocity": 0.11023622047244094,
          "duration": 0.034883720930224626
        },
        {
          "name": "F7",
          "midi": 101,
          "time": 199.90697674415333,
          "velocity": 0.15748031496062992,
          "duration": 0.05813953488370771
        },
        {
          "name": "D#3",
          "midi": 51,
          "time": 199.91860465113007,
          "velocity": 0.25984251968503935,
          "duration": 0.023255813953483084
        },
        {
          "name": "A#6",
          "midi": 94,
          "time": 199.91860465113007,
          "velocity": 0.11023622047244094,
          "duration": 0.034883720930224626
        },
        {
          "name": "D6",
          "midi": 86,
          "time": 199.9302325581068,
          "velocity": 0.07874015748031496,
          "duration": 0.034883720930224626
        },
        {
          "name": "E3",
          "midi": 52,
          "time": 199.94186046508355,
          "velocity": 0.3779527559055118,
          "duration": 0.04651162790696617
        },
        {
          "name": "F#5",
          "midi": 78,
          "time": 199.94186046508355,
          "velocity": 0.3228346456692913,
          "duration": 0.0813953488371908
        },
        {
          "name": "G#6",
          "midi": 92,
          "time": 199.94186046508355,
          "velocity": 0.07086614173228346,
          "duration": 0.10465116279067388
        },
        {
          "name": "C#7",
          "midi": 97,
          "time": 199.94186046508355,
          "velocity": 0.23622047244094488,
          "duration": 0.3023255813952801
        },
        {
          "name": "A#3",
          "midi": 58,
          "time": 199.9534883720603,
          "velocity": 0.2440944881889764,
          "duration": 0.023255813953483084
        },
        {
          "name": "G4",
          "midi": 67,
          "time": 199.9534883720603,
          "velocity": 0.4330708661417323,
          "duration": 0.39534883720921243
        },
        {
          "name": "C7",
          "midi": 96,
          "time": 199.9534883720603,
          "velocity": 0.18110236220472442,
          "duration": 0.10465116279067388
        },
        {
          "name": "D#7",
          "midi": 99,
          "time": 199.9534883720603,
          "velocity": 0.11811023622047244,
          "duration": 0.06976744186044925
        },
        {
          "name": "B3",
          "midi": 59,
          "time": 199.97674418601378,
          "velocity": 0.2440944881889764,
          "duration": 0.034883720930224626
        },
        {
          "name": "F7",
          "midi": 101,
          "time": 199.97674418601378,
          "velocity": 0.1732283464566929,
          "duration": 0.26744186046505547
        },
        {
          "name": "G6",
          "midi": 91,
          "time": 199.98837209299052,
          "velocity": 0.08661417322834646,
          "duration": 0.04651162790696617
        },
        {
          "name": "D5",
          "midi": 74,
          "time": 200.011627906944,
          "velocity": 0.07086614173228346,
          "duration": 0.05813953488370771
        },
        {
          "name": "D#6",
          "midi": 87,
          "time": 200.011627906944,
          "velocity": 0.11811023622047244,
          "duration": 0.10465116279067388
        },
        {
          "name": "B3",
          "midi": 59,
          "time": 200.02325581392074,
          "velocity": 0.3543307086614173,
          "duration": 0.11627906976741542
        },
        {
          "name": "F3",
          "midi": 53,
          "time": 200.04651162787422,
          "velocity": 0.3543307086614173,
          "duration": 0.04651162790696617
        },
        {
          "name": "D#7",
          "midi": 99,
          "time": 200.04651162787422,
          "velocity": 0.2440944881889764,
          "duration": 0.18604651162786467
        },
        {
          "name": "A#6",
          "midi": 94,
          "time": 200.05813953485097,
          "velocity": 0.13385826771653545,
          "duration": 0.09302325581393234
        },
        {
          "name": "G7",
          "midi": 103,
          "time": 200.0697674418277,
          "velocity": 0.2992125984251969,
          "duration": 0.06976744186044925
        },
        {
          "name": "E5",
          "midi": 76,
          "time": 200.08139534880445,
          "velocity": 0.4330708661417323,
          "duration": 0.5116279069766279
        },
        {
          "name": "F#2",
          "midi": 42,
          "time": 200.0930232557812,
          "velocity": 0.5196850393700787,
          "duration": 0.011627906976741542
        },
        {
          "name": "D7",
          "midi": 98,
          "time": 200.0930232557812,
          "velocity": 0.09448818897637795,
          "duration": 0.04651162790696617
        },
        {
          "name": "F2",
          "midi": 41,
          "time": 200.10465116275793,
          "velocity": 0.5196850393700787,
          "duration": 0.011627906976741542
        },
        {
          "name": "E2",
          "midi": 40,
          "time": 200.11627906973467,
          "velocity": 0.4645669291338583,
          "duration": 0.023255813953483084
        },
        {
          "name": "D6",
          "midi": 86,
          "time": 200.12790697671142,
          "velocity": 0.12598425196850394,
          "duration": 0.09302325581393234
        },
        {
          "name": "F#7",
          "midi": 102,
          "time": 200.12790697671142,
          "velocity": 0.31496062992125984,
          "duration": 0.18604651162786467
        },
        {
          "name": "C7",
          "midi": 96,
          "time": 200.13953488368816,
          "velocity": 0.2677165354330709,
          "duration": 0.11627906976741542
        },
        {
          "name": "A6",
          "midi": 93,
          "time": 200.1511627906649,
          "velocity": 0.15748031496062992,
          "duration": 0.09302325581393234
        },
        {
          "name": "D7",
          "midi": 98,
          "time": 200.1511627906649,
          "velocity": 0.30708661417322836,
          "duration": 0.7558139534882002
        },
        {
          "name": "G2",
          "midi": 43,
          "time": 200.16279069764164,
          "velocity": 0.5354330708661418,
          "duration": 0.011627906976741542
        },
        {
          "name": "D#4",
          "midi": 63,
          "time": 200.16279069764164,
          "velocity": 0.30708661417322836,
          "duration": 0.023255813953483084
        },
        {
          "name": "B4",
          "midi": 71,
          "time": 200.16279069764164,
          "velocity": 0.4015748031496063,
          "duration": 0.20930232558134776
        },
        {
          "name": "D5",
          "midi": 74,
          "time": 200.16279069764164,
          "velocity": 0.1889763779527559,
          "duration": 0.04651162790696617
        },
        {
          "name": "G#6",
          "midi": 92,
          "time": 200.16279069764164,
          "velocity": 0.11023622047244094,
          "duration": 0.034883720930224626
        },
        {
          "name": "G#2",
          "midi": 44,
          "time": 200.17441860461838,
          "velocity": 0.5669291338582677,
          "duration": 0.011627906976741542
        },
        {
          "name": "F3",
          "midi": 53,
          "time": 200.17441860461838,
          "velocity": 0.5196850393700787,
          "duration": 0.011627906976741542
        },
        {
          "name": "B3",
          "midi": 59,
          "time": 200.17441860461838,
          "velocity": 0.3937007874015748,
          "duration": 0.05813953488370771
        },
        {
          "name": "D#3",
          "midi": 51,
          "time": 200.18604651159512,
          "velocity": 0.5905511811023622,
          "duration": 0.011627906976741542
        },
        {
          "name": "E4",
          "midi": 64,
          "time": 200.18604651159512,
          "velocity": 0.4251968503937008,
          "duration": 0.3023255813952801
        },
        {
          "name": "E2",
          "midi": 40,
          "time": 200.19767441857186,
          "velocity": 0.5196850393700787,
          "duration": 0.023255813953483084
        },
        {
          "name": "E3",
          "midi": 52,
          "time": 200.19767441857186,
          "velocity": 0.5669291338582677,
          "duration": 0.10465116279067388
        },
        {
          "name": "F2",
          "midi": 41,
          "time": 200.22093023252535,
          "velocity": 0.47244094488188976,
          "duration": 0.04651162790696617
        },
        {
          "name": "D5",
          "midi": 74,
          "time": 200.22093023252535,
          "velocity": 0.13385826771653545,
          "duration": 0.04651162790696617
        },
        {
          "name": "C4",
          "midi": 60,
          "time": 200.2325581395021,
          "velocity": 0.3937007874015748,
          "duration": 0.023255813953483084
        },
        {
          "name": "F#6",
          "midi": 90,
          "time": 200.2325581395021,
          "velocity": 0.13385826771653545,
          "duration": 0.034883720930224626
        },
        {
          "name": "A#6",
          "midi": 94,
          "time": 200.24418604647883,
          "velocity": 0.14173228346456693,
          "duration": 0.04651162790696617
        },
        {
          "name": "D#7",
          "midi": 99,
          "time": 200.24418604647883,
          "velocity": 0.15748031496062992,
          "duration": 0.034883720930224626
        },
        {
          "name": "B3",
          "midi": 59,
          "time": 200.25581395345557,
          "velocity": 0.3779527559055118,
          "duration": 0.034883720930224626
        },
        {
          "name": "G6",
          "midi": 91,
          "time": 200.25581395345557,
          "velocity": 0.25196850393700787,
          "duration": 0.15116279069764005
        },
        {
          "name": "G7",
          "midi": 103,
          "time": 200.25581395345557,
          "velocity": 0.2677165354330709,
          "duration": 0.18604651162786467
        },
        {
          "name": "E7",
          "midi": 100,
          "time": 200.2906976743858,
          "velocity": 0.11023622047244094,
          "duration": 0.04651162790696617
        },
        {
          "name": "F3",
          "midi": 53,
          "time": 200.31395348833928,
          "velocity": 0.25984251968503935,
          "duration": 0.023255813953483084
        },
        {
          "name": "E3",
          "midi": 52,
          "time": 200.33720930229276,
          "velocity": 0.29133858267716534,
          "duration": 0.034883720930224626
        },
        {
          "name": "D#2",
          "midi": 39,
          "time": 200.36046511624625,
          "velocity": 0.44881889763779526,
          "duration": 0.023255813953483084
        },
        {
          "name": "C2",
          "midi": 36,
          "time": 200.38372093019973,
          "velocity": 0.5354330708661418,
          "duration": 0.011627906976741542
        },
        {
          "name": "F#5",
          "midi": 78,
          "time": 200.38372093019973,
          "velocity": 0.23622047244094488,
          "duration": 0.034883720930224626
        },
        {
          "name": "F#1",
          "midi": 30,
          "time": 200.39534883717647,
          "velocity": 0.4645669291338583,
          "duration": 0.023255813953483084
        },
        {
          "name": "A3",
          "midi": 57,
          "time": 200.39534883717647,
          "velocity": 0.2677165354330709,
          "duration": 0.023255813953483084
        },
        {
          "name": "B4",
          "midi": 71,
          "time": 200.39534883717647,
          "velocity": 0.31496062992125984,
          "duration": 0.19767441860460622
        },
        {
          "name": "C#7",
          "midi": 97,
          "time": 200.39534883717647,
          "velocity": 0.15748031496062992,
          "duration": 0.05813953488370771
        },
        {
          "name": "G4",
          "midi": 67,
          "time": 200.4069767441532,
          "velocity": 0.31496062992125984,
          "duration": 0.18604651162786467
        },
        {
          "name": "C7",
          "midi": 96,
          "time": 200.4069767441532,
          "velocity": 0.10236220472440945,
          "duration": 0.034883720930224626
        },
        {
          "name": "E3",
          "midi": 52,
          "time": 200.41860465112995,
          "velocity": 0.4409448818897638,
          "duration": 0.023255813953483084
        },
        {
          "name": "G6",
          "midi": 91,
          "time": 200.41860465112995,
          "velocity": 0.2677165354330709,
          "duration": 0.37209302325572935
        },
        {
          "name": "B3",
          "midi": 59,
          "time": 200.4302325581067,
          "velocity": 0.3228346456692913,
          "duration": 0.04651162790696617
        },
        {
          "name": "F#5",
          "midi": 78,
          "time": 200.4302325581067,
          "velocity": 0.33070866141732286,
          "duration": 0.0813953488371908
        },
        {
          "name": "E3",
          "midi": 52,
          "time": 200.45348837206018,
          "velocity": 0.5511811023622047,
          "duration": 0.034883720930224626
        },
        {
          "name": "F3",
          "midi": 53,
          "time": 200.4883720929904,
          "velocity": 0.5196850393700787,
          "duration": 0.011627906976741542
        },
        {
          "name": "B3",
          "midi": 59,
          "time": 200.4883720929904,
          "velocity": 0.29133858267716534,
          "duration": 0.09302325581393234
        },
        {
          "name": "D#3",
          "midi": 51,
          "time": 200.49999999996714,
          "velocity": 0.5275590551181102,
          "duration": 0.011627906976741542
        },
        {
          "name": "E4",
          "midi": 64,
          "time": 200.49999999996714,
          "velocity": 0.2677165354330709,
          "duration": 0.09302325581393234
        },
        {
          "name": "E3",
          "midi": 52,
          "time": 200.5116279069439,
          "velocity": 0.5196850393700787,
          "duration": 0.011627906976741542
        },
        {
          "name": "F3",
          "midi": 53,
          "time": 200.52325581392063,
          "velocity": 0.5275590551181102,
          "duration": 0.011627906976741542
        },
        {
          "name": "E2",
          "midi": 40,
          "time": 200.53488372089737,
          "velocity": 0.5433070866141733,
          "duration": 0.04651162790696617
        },
        {
          "name": "F#5",
          "midi": 78,
          "time": 200.5465116278741,
          "velocity": 0.2677165354330709,
          "duration": 0.0813953488371908
        },
        {
          "name": "F2",
          "midi": 41,
          "time": 200.58139534880434,
          "velocity": 0.5433070866141733,
          "duration": 0.023255813953483084
        },
        {
          "name": "D5",
          "midi": 74,
          "time": 200.59302325578108,
          "velocity": 0.12598425196850394,
          "duration": 0.06976744186044925
        },
        {
          "name": "G5",
          "midi": 79,
          "time": 200.59302325578108,
          "velocity": 0.33858267716535434,
          "duration": 0.23255813953483084
        },
        {
          "name": "A5",
          "midi": 81,
          "time": 200.59302325578108,
          "velocity": 0.25984251968503935,
          "duration": 0.2558139534883139
        },
        {
          "name": "D6",
          "midi": 86,
          "time": 200.59302325578108,
          "velocity": 0.14960629921259844,
          "duration": 0.05813953488370771
        },
        {
          "name": "C7",
          "midi": 96,
          "time": 200.59302325578108,
          "velocity": 0.11811023622047244,
          "duration": 0.06976744186044925
        },
        {
          "name": "B4",
          "midi": 71,
          "time": 200.60465116275782,
          "velocity": 0.2047244094488189,
          "duration": 0.17441860465112313
        },
        {
          "name": "F#6",
          "midi": 90,
          "time": 200.60465116275782,
          "velocity": 0.4251968503937008,
          "duration": 0.9883720930230311
        },
        {
          "name": "B6",
          "midi": 95,
          "time": 200.60465116275782,
          "velocity": 0.31496062992125984,
          "duration": 0.6744186046510094
        },
        {
          "name": "C#7",
          "midi": 97,
          "time": 200.60465116275782,
          "velocity": 0.2440944881889764,
          "duration": 0.31395348837202164
        },
        {
          "name": "G#2",
          "midi": 44,
          "time": 200.61627906973456,
          "velocity": 0.5196850393700787,
          "duration": 0.034883720930224626
        },
        {
          "name": "F#3",
          "midi": 54,
          "time": 200.61627906973456,
          "velocity": 0.3700787401574803,
          "duration": 0.034883720930224626
        },
        {
          "name": "D#7",
          "midi": 99,
          "time": 200.61627906973456,
          "velocity": 0.2677165354330709,
          "duration": 0.31395348837202164
        },
        {
          "name": "E7",
          "midi": 100,
          "time": 200.61627906973456,
          "velocity": 0.07086614173228346,
          "duration": 0.034883720930224626
        },
        {
          "name": "C5",
          "midi": 72,
          "time": 200.6279069767113,
          "velocity": 0.09448818897637795,
          "duration": 0.034883720930224626
        },
        {
          "name": "G2",
          "midi": 43,
          "time": 200.65116279066478,
          "velocity": 0.3937007874015748,
          "duration": 0.023255813953483084
        },
        {
          "name": "F3",
          "midi": 53,
          "time": 200.65116279066478,
          "velocity": 0.3937007874015748,
          "duration": 0.023255813953483084
        },
        {
          "name": "D#6",
          "midi": 87,
          "time": 200.65116279066478,
          "velocity": 0.12598425196850394,
          "duration": 0.05813953488370771
        },
        {
          "name": "F7",
          "midi": 101,
          "time": 200.65116279066478,
          "velocity": 0.11811023622047244,
          "duration": 0.1627906976743816
        },
        {
          "name": "G#4",
          "midi": 68,
          "time": 200.66279069764153,
          "velocity": 0.1732283464566929,
          "duration": 0.0813953488371908
        },
        {
          "name": "B2",
          "midi": 47,
          "time": 200.67441860461827,
          "velocity": 0.4015748031496063,
          "duration": 0.023255813953483084
        },
        {
          "name": "F3",
          "midi": 53,
          "time": 200.72093023252523,
          "velocity": 0.3858267716535433,
          "duration": 0.023255813953483084
        },
        {
          "name": "D5",
          "midi": 74,
          "time": 200.72093023252523,
          "velocity": 0.12598425196850394,
          "duration": 0.0813953488371908
        },
        {
          "name": "F2",
          "midi": 41,
          "time": 200.73255813950198,
          "velocity": 0.49606299212598426,
          "duration": 0.04651162790696617
        },
        {
          "name": "G4",
          "midi": 67,
          "time": 200.7674418604322,
          "velocity": 0.14960629921259844,
          "duration": 0.034883720930224626
        },
        {
          "name": "E2",
          "midi": 40,
          "time": 200.77906976740894,
          "velocity": 0.3937007874015748,
          "duration": 0.023255813953483084
        },
        {
          "name": "D#6",
          "midi": 87,
          "time": 200.77906976740894,
          "velocity": 0.11023622047244094,
          "duration": 0.034883720930224626
        },
        {
          "name": "F#3",
          "midi": 54,
          "time": 200.79069767438568,
          "velocity": 0.33858267716535434,
          "duration": 0.023255813953483084
        },
        {
          "name": "F4",
          "midi": 65,
          "time": 200.79069767438568,
          "velocity": 0.2283464566929134,
          "duration": 0.023255813953483084
        },
        {
          "name": "B4",
          "midi": 71,
          "time": 200.79069767438568,
          "velocity": 0.30708661417322836,
          "duration": 0.04651162790696617
        },
        {
          "name": "D6",
          "midi": 86,
          "time": 200.79069767438568,
          "velocity": 0.13385826771653545,
          "duration": 0.034883720930224626
        },
        {
          "name": "E7",
          "midi": 100,
          "time": 200.80232558136242,
          "velocity": 0.29133858267716534,
          "duration": 0.5116279069766279
        },
        {
          "name": "G#2",
          "midi": 44,
          "time": 200.81395348833917,
          "velocity": 0.5354330708661418,
          "duration": 0.011627906976741542
        },
        {
          "name": "E4",
          "midi": 64,
          "time": 200.81395348833917,
          "velocity": 0.33070866141732286,
          "duration": 0.034883720930224626
        },
        {
          "name": "C5",
          "midi": 72,
          "time": 200.81395348833917,
          "velocity": 0.2204724409448819,
          "duration": 0.034883720930224626
        },
        {
          "name": "E5",
          "midi": 76,
          "time": 200.81395348833917,
          "velocity": 0.3858267716535433,
          "duration": 0.06976744186044925
        },
        {
          "name": "D3",
          "midi": 50,
          "time": 200.8255813953159,
          "velocity": 0.5984251968503937,
          "duration": 0.011627906976741542
        },
        {
          "name": "F#5",
          "midi": 78,
          "time": 200.8255813953159,
          "velocity": 0.3464566929133858,
          "duration": 0.023255813953483084
        },
        {
          "name": "E3",
          "midi": 52,
          "time": 200.83720930229265,
          "velocity": 0.6299212598425197,
          "duration": 0.10465116279067388
        },
        {
          "name": "B3",
          "midi": 59,
          "time": 200.83720930229265,
          "velocity": 0.4566929133858268,
          "duration": 0.1395348837208985
        },
        {
          "name": "G4",
          "midi": 67,
          "time": 200.83720930229265,
          "velocity": 0.3543307086614173,
          "duration": 0.18604651162786467
        },
        {
          "name": "A#6",
          "midi": 94,
          "time": 200.8488372092694,
          "velocity": 0.2283464566929134,
          "duration": 0.034883720930224626
        },
        {
          "name": "C7",
          "midi": 96,
          "time": 200.8488372092694,
          "velocity": 0.11811023622047244,
          "duration": 0.05813953488370771
        },
        {
          "name": "F7",
          "midi": 101,
          "time": 200.8488372092694,
          "velocity": 0.2125984251968504,
          "duration": 0.06976744186044925
        },
        {
          "name": "F#5",
          "midi": 78,
          "time": 200.86046511624613,
          "velocity": 0.2755905511811024,
          "duration": 0.023255813953483084
        },
        {
          "name": "F2",
          "midi": 41,
          "time": 200.87209302322287,
          "velocity": 0.5118110236220472,
          "duration": 0.011627906976741542
        },
        {
          "name": "E2",
          "midi": 40,
          "time": 200.88372093019962,
          "velocity": 0.5669291338582677,
          "duration": 0.034883720930224626
        },
        {
          "name": "A5",
          "midi": 81,
          "time": 200.88372093019962,
          "velocity": 0.09448818897637795,
          "duration": 0.0813953488371908
        },
        {
          "name": "E5",
          "midi": 76,
          "time": 200.89534883717636,
          "velocity": 0.4094488188976378,
          "duration": 0.3604651162789878
        },
        {
          "name": "C#7",
          "midi": 97,
          "time": 200.93023255810658,
          "velocity": 0.1968503937007874,
          "duration": 0.05813953488370771
        },
        {
          "name": "F3",
          "midi": 53,
          "time": 200.95348837206006,
          "velocity": 0.31496062992125984,
          "duration": 0.023255813953483084
        },
        {
          "name": "E3",
          "midi": 52,
          "time": 200.97674418601355,
          "velocity": 0.30708661417322836,
          "duration": 0.04651162790696617
        },
        {
          "name": "D#7",
          "midi": 99,
          "time": 200.97674418601355,
          "velocity": 0.15748031496062992,
          "duration": 0.0813953488371908
        },
        {
          "name": "F4",
          "midi": 65,
          "time": 201.01162790694377,
          "velocity": 0.3937007874015748,
          "duration": 0.034883720930224626
        },
        {
          "name": "A#4",
          "midi": 70,
          "time": 201.01162790694377,
          "velocity": 0.31496062992125984,
          "duration": 0.034883720930224626
        },
        {
          "name": "C#5",
          "midi": 73,
          "time": 201.01162790694377,
          "velocity": 0.3228346456692913,
          "duration": 0.04651162790696617
        },
        {
          "name": "A5",
          "midi": 81,
          "time": 201.01162790694377,
          "velocity": 0.2677165354330709,
          "duration": 0.034883720930224626
        },
        {
          "name": "G5",
          "midi": 79,
          "time": 201.0232558139205,
          "velocity": 0.3464566929133858,
          "duration": 0.023255813953483084
        },
        {
          "name": "C7",
          "midi": 96,
          "time": 201.0232558139205,
          "velocity": 0.13385826771653545,
          "duration": 0.034883720930224626
        },
        {
          "name": "C#7",
          "midi": 97,
          "time": 201.0232558139205,
          "velocity": 0.23622047244094488,
          "duration": 0.06976744186044925
        },
        {
          "name": "A2",
          "midi": 45,
          "time": 201.03488372089726,
          "velocity": 0.5748031496062992,
          "duration": 0.011627906976741542
        },
        {
          "name": "C6",
          "midi": 84,
          "time": 201.03488372089726,
          "velocity": 0.12598425196850394,
          "duration": 0.04651162790696617
        },
        {
          "name": "D7",
          "midi": 98,
          "time": 201.03488372089726,
          "velocity": 0.16535433070866143,
          "duration": 0.05813953488370771
        },
        {
          "name": "G7",
          "midi": 103,
          "time": 201.03488372089726,
          "velocity": 0.14173228346456693,
          "duration": 0.05813953488370771
        },
        {
          "name": "D3",
          "midi": 50,
          "time": 201.046511627874,
          "velocity": 0.5511811023622047,
          "duration": 0.011627906976741542
        },
        {
          "name": "G#4",
          "midi": 68,
          "time": 201.046511627874,
          "velocity": 0.28346456692913385,
          "duration": 0.023255813953483084
        },
        {
          "name": "B4",
          "midi": 71,
          "time": 201.046511627874,
          "velocity": 0.3779527559055118,
          "duration": 0.17441860465112313
        },
        {
          "name": "F#5",
          "midi": 78,
          "time": 201.046511627874,
          "velocity": 0.5039370078740157,
          "duration": 0.4418604651161786
        },
        {
          "name": "E3",
          "midi": 52,
          "time": 201.05813953485074,
          "velocity": 0.4881889763779528,
          "duration": 0.023255813953483084
        },
        {
          "name": "F#4",
          "midi": 66,
          "time": 201.05813953485074,
          "velocity": 0.31496062992125984,
          "duration": 0.023255813953483084
        },
        {
          "name": "D#7",
          "midi": 99,
          "time": 201.06976744182748,
          "velocity": 0.10236220472440945,
          "duration": 0.06976744186044925
        },
        {
          "name": "F2",
          "midi": 41,
          "time": 201.08139534880422,
          "velocity": 0.4881889763779528,
          "duration": 0.034883720930224626
        },
        {
          "name": "D#3",
          "midi": 51,
          "time": 201.08139534880422,
          "velocity": 0.5196850393700787,
          "duration": 0.011627906976741542
        },
        {
          "name": "G4",
          "midi": 67,
          "time": 201.08139534880422,
          "velocity": 0.29133858267716534,
          "duration": 0.09302325581393234
        },
        {
          "name": "F7",
          "midi": 101,
          "time": 201.08139534880422,
          "velocity": 0.09448818897637795,
          "duration": 0.05813953488370771
        },
        {
          "name": "E3",
          "midi": 52,
          "time": 201.09302325578096,
          "velocity": 0.5590551181102362,
          "duration": 0.05813953488370771
        },
        {
          "name": "C4",
          "midi": 60,
          "time": 201.09302325578096,
          "velocity": 0.3858267716535433,
          "duration": 0.023255813953483084
        },
        {
          "name": "B3",
          "midi": 59,
          "time": 201.11627906973445,
          "velocity": 0.3779527559055118,
          "duration": 0.04651162790696617
        },
        {
          "name": "C#7",
          "midi": 97,
          "time": 201.11627906973445,
          "velocity": 0.1732283464566929,
          "duration": 0.04651162790696617
        },
        {
          "name": "B2",
          "midi": 47,
          "time": 201.13953488368793,
          "velocity": 0.5118110236220472,
          "duration": 0.011627906976741542
        },
        {
          "name": "G#5",
          "midi": 80,
          "time": 201.13953488368793,
          "velocity": 0.14173228346456693,
          "duration": 0.034883720930224626
        },
        {
          "name": "F3",
          "midi": 53,
          "time": 201.15116279066467,
          "velocity": 0.5590551181102362,
          "duration": 0.011627906976741542
        },
        {
          "name": "D4",
          "midi": 62,
          "time": 201.15116279066467,
          "velocity": 0.2283464566929134,
          "duration": 0.023255813953483084
        },
        {
          "name": "E3",
          "midi": 52,
          "time": 201.1627906976414,
          "velocity": 0.5748031496062992,
          "duration": 0.023255813953483084
        },
        {
          "name": "C3",
          "midi": 48,
          "time": 201.1860465115949,
          "velocity": 0.5511811023622047,
          "duration": 0.034883720930224626
        },
        {
          "name": "F3",
          "midi": 53,
          "time": 201.1860465115949,
          "velocity": 0.5511811023622047,
          "duration": 0.011627906976741542
        },
        {
          "name": "B3",
          "midi": 59,
          "time": 201.1860465115949,
          "velocity": 0.2755905511811024,
          "duration": 0.04651162790696617
        },
        {
          "name": "D7",
          "midi": 98,
          "time": 201.1860465115949,
          "velocity": 0.1889763779527559,
          "duration": 0.17441860465112313
        },
        {
          "name": "B2",
          "midi": 47,
          "time": 201.22093023252512,
          "velocity": 0.5669291338582677,
          "duration": 0.034883720930224626
        },
        {
          "name": "G#4",
          "midi": 68,
          "time": 201.22093023252512,
          "velocity": 0.28346456692913385,
          "duration": 0.023255813953483084
        },
        {
          "name": "C#7",
          "midi": 97,
          "time": 201.23255813950186,
          "velocity": 0.33858267716535434,
          "duration": 0.7325581395347172
        },
        {
          "name": "F2",
          "midi": 41,
          "time": 201.2441860464786,
          "velocity": 0.5590551181102362,
          "duration": 0.023255813953483084
        },
        {
          "name": "C#4",
          "midi": 61,
          "time": 201.2441860464786,
          "velocity": 0.2440944881889764,
          "duration": 0.023255813953483084
        },
        {
          "name": "G4",
          "midi": 67,
          "time": 201.2441860464786,
          "velocity": 0.3858267716535433,
          "duration": 0.20930232558134776
        },
        {
          "name": "B4",
          "midi": 71,
          "time": 201.2441860464786,
          "velocity": 0.3464566929133858,
          "duration": 0.11627906976741542
        },
        {
          "name": "D#7",
          "midi": 99,
          "time": 201.2441860464786,
          "velocity": 0.08661417322834646,
          "duration": 0.05813953488370771
        },
        {
          "name": "G#2",
          "midi": 44,
          "time": 201.2674418604321,
          "velocity": 0.5826771653543307,
          "duration": 0.011627906976741542
        },
        {
          "name": "A#3",
          "midi": 58,
          "time": 201.2674418604321,
          "velocity": 0.2755905511811024,
          "duration": 0.023255813953483084
        },
        {
          "name": "D#4",
          "midi": 63,
          "time": 201.2674418604321,
          "velocity": 0.15748031496062992,
          "duration": 0.034883720930224626
        },
        {
          "name": "D6",
          "midi": 86,
          "time": 201.2674418604321,
          "velocity": 0.1732283464566929,
          "duration": 0.18604651162786467
        },
        {
          "name": "F6",
          "midi": 89,
          "time": 201.2674418604321,
          "velocity": 0.13385826771653545,
          "duration": 0.034883720930224626
        },
        {
          "name": "F7",
          "midi": 101,
          "time": 201.2674418604321,
          "velocity": 0.14173228346456693,
          "duration": 0.17441860465112313
        },
        {
          "name": "F2",
          "midi": 41,
          "time": 201.27906976740883,
          "velocity": 0.5196850393700787,
          "duration": 0.011627906976741542
        },
        {
          "name": "D#6",
          "midi": 87,
          "time": 201.27906976740883,
          "velocity": 0.11023622047244094,
          "duration": 0.1627906976743816
        },
        {
          "name": "E2",
          "midi": 40,
          "time": 201.29069767438557,
          "velocity": 0.5118110236220472,
          "duration": 0.023255813953483084
        },
        {
          "name": "E5",
          "midi": 76,
          "time": 201.29069767438557,
          "velocity": 0.15748031496062992,
          "duration": 0.034883720930224626
        },
        {
          "name": "C7",
          "midi": 96,
          "time": 201.29069767438557,
          "velocity": 0.08661417322834646,
          "duration": 0.034883720930224626
        },
        {
          "name": "B2",
          "midi": 47,
          "time": 201.3023255813623,
          "velocity": 0.5196850393700787,
          "duration": 0.011627906976741542
        },
        {
          "name": "D5",
          "midi": 74,
          "time": 201.3023255813623,
          "velocity": 0.11023622047244094,
          "duration": 0.034883720930224626
        },
        {
          "name": "C3",
          "midi": 48,
          "time": 201.31395348833905,
          "velocity": 0.5511811023622047,
          "duration": 0.011627906976741542
        },
        {
          "name": "F2",
          "midi": 41,
          "time": 201.3255813953158,
          "velocity": 0.5590551181102362,
          "duration": 0.023255813953483084
        },
        {
          "name": "A#3",
          "midi": 58,
          "time": 201.3255813953158,
          "velocity": 0.2440944881889764,
          "duration": 0.023255813953483084
        },
        {
          "name": "D4",
          "midi": 62,
          "time": 201.3255813953158,
          "velocity": 0.1889763779527559,
          "duration": 0.034883720930224626
        },
        {
          "name": "B3",
          "midi": 59,
          "time": 201.34883720926928,
          "velocity": 0.2283464566929134,
          "duration": 0.023255813953483084
        },
        {
          "name": "E5",
          "midi": 76,
          "time": 201.34883720926928,
          "velocity": 0.16535433070866143,
          "duration": 0.04651162790696617
        },
        {
          "name": "F6",
          "midi": 89,
          "time": 201.34883720926928,
          "velocity": 0.16535433070866143,
          "duration": 0.034883720930224626
        },
        {
          "name": "E7",
          "midi": 100,
          "time": 201.34883720926928,
          "velocity": 0.2283464566929134,
          "duration": 0.2209302325580893
        },
        {
          "name": "E4",
          "midi": 64,
          "time": 201.36046511624602,
          "velocity": 0.1968503937007874,
          "duration": 0.04651162790696617
        },
        {
          "name": "E2",
          "midi": 40,
          "time": 201.37209302322276,
          "velocity": 0.5118110236220472,
          "duration": 0.011627906976741542
        },
        {
          "name": "B4",
          "midi": 71,
          "time": 201.37209302322276,
          "velocity": 0.25196850393700787,
          "duration": 0.0813953488371908
        },
        {
          "name": "D7",
          "midi": 98,
          "time": 201.37209302322276,
          "velocity": 0.2047244094488189,
          "duration": 0.06976744186044925
        },
        {
          "name": "F2",
          "midi": 41,
          "time": 201.3837209301995,
          "velocity": 0.5275590551181102,
          "duration": 0.023255813953483084
        },
        {
          "name": "G7",
          "midi": 103,
          "time": 201.39534883717624,
          "velocity": 0.07874015748031496,
          "duration": 0.04651162790696617
        },
        {
          "name": "E2",
          "midi": 40,
          "time": 201.40697674415298,
          "velocity": 0.4645669291338583,
          "duration": 0.023255813953483084
        },
        {
          "name": "E5",
          "midi": 76,
          "time": 201.43023255810647,
          "velocity": 0.12598425196850394,
          "duration": 0.034883720930224626
        },
        {
          "name": "C#5",
          "midi": 73,
          "time": 201.4418604650832,
          "velocity": 0.25984251968503935,
          "duration": 0.04651162790696617
        },
        {
          "name": "G6",
          "midi": 91,
          "time": 201.4418604650832,
          "velocity": 0.48031496062992124,
          "duration": 0.29069767441853855
        },
        {
          "name": "G#6",
          "midi": 92,
          "time": 201.4418604650832,
          "velocity": 0.30708661417322836,
          "duration": 0.19767441860460622
        },
        {
          "name": "C7",
          "midi": 96,
          "time": 201.4418604650832,
          "velocity": 0.15748031496062992,
          "duration": 0.06976744186044925
        },
        {
          "name": "F2",
          "midi": 41,
          "time": 201.45348837205995,
          "velocity": 0.5275590551181102,
          "duration": 0.034883720930224626
        },
        {
          "name": "E3",
          "midi": 52,
          "time": 201.45348837205995,
          "velocity": 0.5511811023622047,
          "duration": 0.034883720930224626
        },
        {
          "name": "G#4",
          "midi": 68,
          "time": 201.45348837205995,
          "velocity": 0.31496062992125984,
          "duration": 0.023255813953483084
        },
        {
          "name": "A#4",
          "midi": 70,
          "time": 201.45348837205995,
          "velocity": 0.31496062992125984,
          "duration": 0.023255813953483084
        },
        {
          "name": "B6",
          "midi": 95,
          "time": 201.45348837205995,
          "velocity": 0.12598425196850394,
          "duration": 0.04651162790696617
        },
        {
          "name": "D7",
          "midi": 98,
          "time": 201.45348837205995,
          "velocity": 0.30708661417322836,
          "duration": 0.5116279069766279
        },
        {
          "name": "B3",
          "midi": 59,
          "time": 201.4651162790367,
          "velocity": 0.25984251968503935,
          "duration": 0.023255813953483084
        },
        {
          "name": "D5",
          "midi": 74,
          "time": 201.4651162790367,
          "velocity": 0.11023622047244094,
          "duration": 0.04651162790696617
        },
        {
          "name": "D#7",
          "midi": 99,
          "time": 201.4651162790367,
          "velocity": 0.25196850393700787,
          "duration": 0.5116279069766279
        },
        {
          "name": "F7",
          "midi": 101,
          "time": 201.4651162790367,
          "velocity": 0.2440944881889764,
          "duration": 0.26744186046505547
        },
        {
          "name": "G4",
          "midi": 67,
          "time": 201.47674418601343,
          "velocity": 0.3464566929133858,
          "duration": 0.10465116279067388
        },
        {
          "name": "G5",
          "midi": 79,
          "time": 201.47674418601343,
          "velocity": 0.48031496062992124,
          "duration": 0.2209302325580893
        },
        {
          "name": "D#4",
          "midi": 63,
          "time": 201.48837209299018,
          "velocity": 0.1732283464566929,
          "duration": 0.04651162790696617
        },
        {
          "name": "E3",
          "midi": 52,
          "time": 201.49999999996692,
          "velocity": 0.41732283464566927,
          "duration": 0.023255813953483084
        },
        {
          "name": "A#4",
          "midi": 70,
          "time": 201.49999999996692,
          "velocity": 0.1968503937007874,
          "duration": 0.04651162790696617
        },
        {
          "name": "F2",
          "midi": 41,
          "time": 201.51162790694366,
          "velocity": 0.48031496062992124,
          "duration": 0.023255813953483084
        },
        {
          "name": "C#5",
          "midi": 73,
          "time": 201.51162790694366,
          "velocity": 0.09448818897637795,
          "duration": 0.034883720930224626
        },
        {
          "name": "D6",
          "midi": 86,
          "time": 201.5232558139204,
          "velocity": 0.09448818897637795,
          "duration": 0.04651162790696617
        },
        {
          "name": "B6",
          "midi": 95,
          "time": 201.5232558139204,
          "velocity": 0.2125984251968504,
          "duration": 0.20930232558134776
        },
        {
          "name": "A6",
          "midi": 93,
          "time": 201.53488372089714,
          "velocity": 0.4645669291338583,
          "duration": 0.8023255813951664
        },
        {
          "name": "C#2",
          "midi": 37,
          "time": 201.54651162787388,
          "velocity": 0.25196850393700787,
          "duration": 0.023255813953483084
        },
        {
          "name": "B4",
          "midi": 71,
          "time": 201.54651162787388,
          "velocity": 0.2283464566929134,
          "duration": 0.09302325581393234
        },
        {
          "name": "D5",
          "midi": 74,
          "time": 201.54651162787388,
          "velocity": 0.2125984251968504,
          "duration": 0.12790697674415696
        },
        {
          "name": "F3",
          "midi": 53,
          "time": 201.55813953485062,
          "velocity": 0.30708661417322836,
          "duration": 0.023255813953483084
        },
        {
          "name": "F#5",
          "midi": 78,
          "time": 201.56976744182737,
          "velocity": 0.33858267716535434,
          "duration": 0.06976744186044925
        },
        {
          "name": "F#4",
          "midi": 66,
          "time": 201.5813953488041,
          "velocity": 0.2047244094488189,
          "duration": 0.034883720930224626
        },
        {
          "name": "E7",
          "midi": 100,
          "time": 201.59302325578085,
          "velocity": 0.2677165354330709,
          "duration": 0.5116279069766279
        },
        {
          "name": "E3",
          "midi": 52,
          "time": 201.6046511627576,
          "velocity": 0.3858267716535433,
          "duration": 0.06976744186044925
        },
        {
          "name": "E2",
          "midi": 40,
          "time": 201.61627906973433,
          "velocity": 0.36220472440944884,
          "duration": 0.023255813953483084
        },
        {
          "name": "F#2",
          "midi": 42,
          "time": 201.63953488368782,
          "velocity": 0.2992125984251969,
          "duration": 0.023255813953483084
        },
        {
          "name": "A#6",
          "midi": 94,
          "time": 201.63953488368782,
          "velocity": 0.12598425196850394,
          "duration": 0.06976744186044925
        },
        {
          "name": "G4",
          "midi": 67,
          "time": 201.65116279066456,
          "velocity": 0.2755905511811024,
          "duration": 0.034883720930224626
        },
        {
          "name": "F#5",
          "midi": 78,
          "time": 201.65116279066456,
          "velocity": 0.33070866141732286,
          "duration": 0.15116279069764005
        },
        {
          "name": "E6",
          "midi": 88,
          "time": 201.6627906976413,
          "velocity": 0.14960629921259844,
          "duration": 0.06976744186044925
        },
        {
          "name": "A4",
          "midi": 69,
          "time": 201.67441860461804,
          "velocity": 0.33070866141732286,
          "duration": 0.05813953488370771
        },
        {
          "name": "B4",
          "midi": 71,
          "time": 201.67441860461804,
          "velocity": 0.2283464566929134,
          "duration": 0.1627906976743816
        },
        {
          "name": "A5",
          "midi": 81,
          "time": 201.67441860461804,
          "velocity": 0.3779527559055118,
          "duration": 0.23255813953483084
        },
        {
          "name": "C#6",
          "midi": 85,
          "time": 201.67441860461804,
          "velocity": 0.07086614173228346,
          "duration": 0.06976744186044925
        },
        {
          "name": "F3",
          "midi": 53,
          "time": 201.68604651159478,
          "velocity": 0.33070866141732286,
          "duration": 0.023255813953483084
        },
        {
          "name": "F#4",
          "midi": 66,
          "time": 201.68604651159478,
          "velocity": 0.2992125984251969,
          "duration": 0.2209302325580893
        },
        {
          "name": "G2",
          "midi": 43,
          "time": 201.69767441857152,
          "velocity": 0.4409448818897638,
          "duration": 0.023255813953483084
        },
        {
          "name": "C7",
          "midi": 96,
          "time": 201.70930232554826,
          "velocity": 0.14960629921259844,
          "duration": 0.04651162790696617
        },
        {
          "name": "D5",
          "midi": 74,
          "time": 201.73255813950175,
          "velocity": 0.16535433070866143,
          "duration": 0.19767441860460622
        },
        {
          "name": "F2",
          "midi": 41,
          "time": 201.7441860464785,
          "velocity": 0.3700787401574803,
          "duration": 0.05813953488370771
        },
        {
          "name": "D3",
          "midi": 50,
          "time": 201.7441860464785,
          "velocity": 0.4881889763779528,
          "duration": 0.1395348837208985
        },
        {
          "name": "A4",
          "midi": 69,
          "time": 201.7441860464785,
          "velocity": 0.28346456692913385,
          "duration": 0.1395348837208985
        },
        {
          "name": "E6",
          "midi": 88,
          "time": 201.76744186043197,
          "velocity": 0.07086614173228346,
          "duration": 0.04651162790696617
        },
        {
          "name": "A3",
          "midi": 57,
          "time": 201.79069767438546,
          "velocity": 0.23622047244094488,
          "duration": 0.0813953488371908
        },
        {
          "name": "C7",
          "midi": 96,
          "time": 201.79069767438546,
          "velocity": 0.07874015748031496,
          "duration": 0.04651162790696617
        },
        {
          "name": "F7",
          "midi": 101,
          "time": 201.79069767438546,
          "velocity": 0.12598425196850394,
          "duration": 0.05813953488370771
        },
        {
          "name": "E5",
          "midi": 76,
          "time": 201.8023255813622,
          "velocity": 0.10236220472440945,
          "duration": 0.05813953488370771
        },
        {
          "name": "G5",
          "midi": 79,
          "time": 201.8023255813622,
          "velocity": 0.11811023622047244,
          "duration": 0.05813953488370771
        },
        {
          "name": "G7",
          "midi": 103,
          "time": 201.8023255813622,
          "velocity": 0.18110236220472442,
          "duration": 0.10465116279067388
        },
        {
          "name": "E2",
          "midi": 40,
          "time": 201.84883720926916,
          "velocity": 0.25196850393700787,
          "duration": 0.023255813953483084
        },
        {
          "name": "C#2",
          "midi": 37,
          "time": 201.87209302322265,
          "velocity": 0.49606299212598426,
          "duration": 0.023255813953483084
        },
        {
          "name": "G6",
          "midi": 91,
          "time": 201.87209302322265,
          "velocity": 0.2283464566929134,
          "duration": 0.24418604651157239
        },
        {
          "name": "G#6",
          "midi": 92,
          "time": 201.87209302322265,
          "velocity": 0.1889763779527559,
          "duration": 0.0813953488371908
        },
        {
          "name": "A2",
          "midi": 45,
          "time": 201.8837209301994,
          "velocity": 0.5748031496062992,
          "duration": 0.034883720930224626
        },
        {
          "name": "G#4",
          "midi": 68,
          "time": 201.8837209301994,
          "velocity": 0.2283464566929134,
          "duration": 0.034883720930224626
        },
        {
          "name": "E5",
          "midi": 76,
          "time": 201.8837209301994,
          "velocity": 0.11811023622047244,
          "duration": 0.04651162790696617
        },
        {
          "name": "B6",
          "midi": 95,
          "time": 201.8837209301994,
          "velocity": 0.41732283464566927,
          "duration": 1.8255813953484221
        },
        {
          "name": "B1",
          "midi": 35,
          "time": 201.89534883717613,
          "velocity": 0.5196850393700787,
          "duration": 0.011627906976741542
        },
        {
          "name": "C5",
          "midi": 72,
          "time": 201.89534883717613,
          "velocity": 0.2440944881889764,
          "duration": 0.39534883720921243
        },
        {
          "name": "B5",
          "midi": 83,
          "time": 201.89534883717613,
          "velocity": 0.18110236220472442,
          "duration": 0.18604651162786467
        },
        {
          "name": "C#6",
          "midi": 85,
          "time": 201.89534883717613,
          "velocity": 0.14960629921259844,
          "duration": 0.034883720930224626
        },
        {
          "name": "C7",
          "midi": 96,
          "time": 201.89534883717613,
          "velocity": 0.18110236220472442,
          "duration": 0.0813953488371908
        },
        {
          "name": "F7",
          "midi": 101,
          "time": 201.89534883717613,
          "velocity": 0.14960629921259844,
          "duration": 0.05813953488370771
        },
        {
          "name": "G5",
          "midi": 79,
          "time": 201.90697674415287,
          "velocity": 0.18110236220472442,
          "duration": 0.05813953488370771
        },
        {
          "name": "G#2",
          "midi": 44,
          "time": 201.9186046511296,
          "velocity": 0.5433070866141733,
          "duration": 0.011627906976741542
        },
        {
          "name": "C#4",
          "midi": 61,
          "time": 201.9186046511296,
          "velocity": 0.3779527559055118,
          "duration": 0.023255813953483084
        },
        {
          "name": "A4",
          "midi": 69,
          "time": 201.9186046511296,
          "velocity": 0.2283464566929134,
          "duration": 0.04651162790696617
        },
        {
          "name": "C3",
          "midi": 48,
          "time": 201.93023255810635,
          "velocity": 0.5669291338582677,
          "duration": 0.034883720930224626
        },
        {
          "name": "D5",
          "midi": 74,
          "time": 201.95348837205984,
          "velocity": 0.10236220472440945,
          "duration": 0.034883720930224626
        },
        {
          "name": "C#3",
          "midi": 49,
          "time": 201.96511627903658,
          "velocity": 0.5669291338582677,
          "duration": 0.011627906976741542
        },
        {
          "name": "G3",
          "midi": 55,
          "time": 201.96511627903658,
          "velocity": 0.4566929133858268,
          "duration": 0.06976744186044925
        },
        {
          "name": "G4",
          "midi": 67,
          "time": 201.96511627903658,
          "velocity": 0.49606299212598426,
          "duration": 0.43023255813943706
        },
        {
          "name": "C3",
          "midi": 48,
          "time": 201.97674418601332,
          "velocity": 0.5590551181102362,
          "duration": 0.011627906976741542
        },
        {
          "name": "A#6",
          "midi": 94,
          "time": 201.97674418601332,
          "velocity": 0.18110236220472442,
          "duration": 0.05813953488370771
        },
        {
          "name": "F2",
          "midi": 41,
          "time": 201.98837209299006,
          "velocity": 0.5118110236220472,
          "duration": 0.011627906976741542
        },
        {
          "name": "C#3",
          "midi": 49,
          "time": 201.98837209299006,
          "velocity": 0.5590551181102362,
          "duration": 0.011627906976741542
        },
        {
          "name": "C4",
          "midi": 60,
          "time": 201.98837209299006,
          "velocity": 0.2677165354330709,
          "duration": 0.023255813953483084
        },
        {
          "name": "D#6",
          "midi": 87,
          "time": 201.98837209299006,
          "velocity": 0.08661417322834646,
          "duration": 0.06976744186044925
        },
        {
          "name": "C7",
          "midi": 96,
          "time": 201.98837209299006,
          "velocity": 0.07874015748031496,
          "duration": 0.034883720930224626
        },
        {
          "name": "D7",
          "midi": 98,
          "time": 201.98837209299006,
          "velocity": 0.13385826771653545,
          "duration": 0.034883720930224626
        },
        {
          "name": "D#7",
          "midi": 99,
          "time": 201.98837209299006,
          "velocity": 0.15748031496062992,
          "duration": 0.04651162790696617
        },
        {
          "name": "C3",
          "midi": 48,
          "time": 201.9999999999668,
          "velocity": 0.5590551181102362,
          "duration": 0.04651162790696617
        },
        {
          "name": "D#5",
          "midi": 75,
          "time": 202.01162790694354,
          "velocity": 0.1889763779527559,
          "duration": 0.05813953488370771
        },
        {
          "name": "D7",
          "midi": 98,
          "time": 202.04651162787377,
          "velocity": 0.14173228346456693,
          "duration": 0.06976744186044925
        },
        {
          "name": "F7",
          "midi": 101,
          "time": 202.0581395348505,
          "velocity": 0.10236220472440945,
          "duration": 0.05813953488370771
        },
        {
          "name": "E5",
          "midi": 76,
          "time": 202.06976744182725,
          "velocity": 0.3700787401574803,
          "duration": 0.34883720930224626
        },
        {
          "name": "E4",
          "midi": 64,
          "time": 202.081395348804,
          "velocity": 0.29133858267716534,
          "duration": 0.04651162790696617
        },
        {
          "name": "A2",
          "midi": 45,
          "time": 202.10465116275748,
          "velocity": 0.5984251968503937,
          "duration": 0.034883720930224626
        },
        {
          "name": "D5",
          "midi": 74,
          "time": 202.10465116275748,
          "velocity": 0.4015748031496063,
          "duration": 0.3604651162789878
        },
        {
          "name": "B5",
          "midi": 83,
          "time": 202.10465116275748,
          "velocity": 0.2047244094488189,
          "duration": 0.15116279069764005
        },
        {
          "name": "C#7",
          "midi": 97,
          "time": 202.10465116275748,
          "velocity": 0.10236220472440945,
          "duration": 0.04651162790696617
        },
        {
          "name": "D#7",
          "midi": 99,
          "time": 202.10465116275748,
          "velocity": 0.11023622047244094,
          "duration": 0.06976744186044925
        },
        {
          "name": "C7",
          "midi": 96,
          "time": 202.11627906973422,
          "velocity": 0.14960629921259844,
          "duration": 0.04651162790696617
        },
        {
          "name": "D7",
          "midi": 98,
          "time": 202.12790697671096,
          "velocity": 0.2204724409448819,
          "duration": 0.5116279069766279
        },
        {
          "name": "B2",
          "midi": 47,
          "time": 202.1395348836877,
          "velocity": 0.5905511811023622,
          "duration": 0.023255813953483084
        },
        {
          "name": "A3",
          "midi": 57,
          "time": 202.1395348836877,
          "velocity": 0.30708661417322836,
          "duration": 0.023255813953483084
        },
        {
          "name": "C3",
          "midi": 48,
          "time": 202.16279069764119,
          "velocity": 0.5826771653543307,
          "duration": 0.011627906976741542
        },
        {
          "name": "A4",
          "midi": 69,
          "time": 202.16279069764119,
          "velocity": 0.10236220472440945,
          "duration": 0.05813953488370771
        },
        {
          "name": "C#3",
          "midi": 49,
          "time": 202.17441860461793,
          "velocity": 0.5748031496062992,
          "duration": 0.011627906976741542
        },
        {
          "name": "G3",
          "midi": 55,
          "time": 202.17441860461793,
          "velocity": 0.48031496062992124,
          "duration": 0.12790697674415696
        },
        {
          "name": "E4",
          "midi": 64,
          "time": 202.17441860461793,
          "velocity": 0.41732283464566927,
          "duration": 0.1395348837208985
        },
        {
          "name": "C3",
          "midi": 48,
          "time": 202.18604651159467,
          "velocity": 0.5748031496062992,
          "duration": 0.023255813953483084
        },
        {
          "name": "C#3",
          "midi": 49,
          "time": 202.20930232554815,
          "velocity": 0.5905511811023622,
          "duration": 0.011627906976741542
        },
        {
          "name": "C3",
          "midi": 48,
          "time": 202.2209302325249,
          "velocity": 0.5748031496062992,
          "duration": 0.04651162790696617
        },
        {
          "name": "G6",
          "midi": 91,
          "time": 202.25581395345512,
          "velocity": 0.10236220472440945,
          "duration": 0.034883720930224626
        },
        {
          "name": "B2",
          "midi": 47,
          "time": 202.2790697674086,
          "velocity": 0.5039370078740157,
          "duration": 0.023255813953483084
        },
        {
          "name": "B4",
          "midi": 71,
          "time": 202.29069767438534,
          "velocity": 0.25984251968503935,
          "duration": 0.034883720930224626
        },
        {
          "name": "A#5",
          "midi": 82,
          "time": 202.30232558136208,
          "velocity": 0.2283464566929134,
          "duration": 0.023255813953483084
        },
        {
          "name": "A#3",
          "midi": 58,
          "time": 202.31395348833883,
          "velocity": 0.48031496062992124,
          "duration": 0.034883720930224626
        },
        {
          "name": "F#6",
          "midi": 90,
          "time": 202.31395348833883,
          "velocity": 0.1968503937007874,
          "duration": 0.11627906976741542
        },
        {
          "name": "F#5",
          "midi": 78,
          "time": 202.32558139531557,
          "velocity": 0.08661417322834646,
          "duration": 0.04651162790696617
        },
        {
          "name": "A5",
          "midi": 81,
          "time": 202.32558139531557,
          "velocity": 0.2755905511811024,
          "duration": 0.23255813953483084
        },
        {
          "name": "F7",
          "midi": 101,
          "time": 202.32558139531557,
          "velocity": 0.10236220472440945,
          "duration": 0.04651162790696617
        },
        {
          "name": "G#3",
          "midi": 56,
          "time": 202.3372093022923,
          "velocity": 0.3700787401574803,
          "duration": 0.034883720930224626
        },
        {
          "name": "D#4",
          "midi": 63,
          "time": 202.3372093022923,
          "velocity": 0.3464566929133858,
          "duration": 0.023255813953483084
        },
        {
          "name": "C6",
          "midi": 84,
          "time": 202.3372093022923,
          "velocity": 0.14960629921259844,
          "duration": 0.034883720930224626
        },
        {
          "name": "G#6",
          "midi": 92,
          "time": 202.34883720926905,
          "velocity": 0.11023622047244094,
          "duration": 0.05813953488370771
        },
        {
          "name": "C7",
          "midi": 96,
          "time": 202.34883720926905,
          "velocity": 0.14960629921259844,
          "duration": 0.0813953488371908
        },
        {
          "name": "C#7",
          "midi": 97,
          "time": 202.34883720926905,
          "velocity": 0.2125984251968504,
          "duration": 0.31395348837202164
        },
        {
          "name": "A#4",
          "midi": 70,
          "time": 202.3604651162458,
          "velocity": 0.23622047244094488,
          "duration": 0.20930232558134776
        },
        {
          "name": "D#6",
          "midi": 87,
          "time": 202.3604651162458,
          "velocity": 0.11811023622047244,
          "duration": 0.05813953488370771
        },
        {
          "name": "D#7",
          "midi": 99,
          "time": 202.3604651162458,
          "velocity": 0.13385826771653545,
          "duration": 0.10465116279067388
        },
        {
          "name": "E4",
          "midi": 64,
          "time": 202.37209302322253,
          "velocity": 0.29133858267716534,
          "duration": 0.023255813953483084
        },
        {
          "name": "D#2",
          "midi": 39,
          "time": 202.38372093019927,
          "velocity": 0.3858267716535433,
          "duration": 0.023255813953483084
        },
        {
          "name": "C5",
          "midi": 72,
          "time": 202.38372093019927,
          "velocity": 0.1889763779527559,
          "duration": 0.034883720930224626
        },
        {
          "name": "C3",
          "midi": 48,
          "time": 202.39534883717602,
          "velocity": 0.4015748031496063,
          "duration": 0.023255813953483084
        },
        {
          "name": "B3",
          "midi": 59,
          "time": 202.39534883717602,
          "velocity": 0.2677165354330709,
          "duration": 0.023255813953483084
        },
        {
          "name": "F#4",
          "midi": 66,
          "time": 202.39534883717602,
          "velocity": 0.30708661417322836,
          "duration": 0.023255813953483084
        },
        {
          "name": "E4",
          "midi": 64,
          "time": 202.40697674415276,
          "velocity": 0.25196850393700787,
          "duration": 0.034883720930224626
        },
        {
          "name": "C#3",
          "midi": 49,
          "time": 202.4186046511295,
          "velocity": 0.4330708661417323,
          "duration": 0.023255813953483084
        },
        {
          "name": "A#3",
          "midi": 58,
          "time": 202.4186046511295,
          "velocity": 0.29133858267716534,
          "duration": 0.023255813953483084
        },
        {
          "name": "F6",
          "midi": 89,
          "time": 202.4186046511295,
          "velocity": 0.11811023622047244,
          "duration": 0.04651162790696617
        },
        {
          "name": "E5",
          "midi": 76,
          "time": 202.43023255810624,
          "velocity": 0.33858267716535434,
          "duration": 0.7325581395347172
        },
        {
          "name": "G5",
          "midi": 79,
          "time": 202.43023255810624,
          "velocity": 0.18110236220472442,
          "duration": 0.09302325581393234
        },
        {
          "name": "C#2",
          "midi": 37,
          "time": 202.44186046508298,
          "velocity": 0.2992125984251969,
          "duration": 0.023255813953483084
        },
        {
          "name": "C3",
          "midi": 48,
          "time": 202.44186046508298,
          "velocity": 0.41732283464566927,
          "duration": 0.04651162790696617
        },
        {
          "name": "G4",
          "midi": 67,
          "time": 202.44186046508298,
          "velocity": 0.15748031496062992,
          "duration": 0.034883720930224626
        },
        {
          "name": "F#6",
          "midi": 90,
          "time": 202.44186046508298,
          "velocity": 0.14173228346456693,
          "duration": 0.09302325581393234
        },
        {
          "name": "E7",
          "midi": 100,
          "time": 202.44186046508298,
          "velocity": 0.14960629921259844,
          "duration": 0.04651162790696617
        },
        {
          "name": "C5",
          "midi": 72,
          "time": 202.45348837205972,
          "velocity": 0.11023622047244094,
          "duration": 0.04651162790696617
        },
        {
          "name": "C7",
          "midi": 96,
          "time": 202.46511627903647,
          "velocity": 0.11811023622047244,
          "duration": 0.12790697674415696
        },
        {
          "name": "F#7",
          "midi": 102,
          "time": 202.46511627903647,
          "velocity": 0.1732283464566929,
          "duration": 0.20930232558134776
        },
        {
          "name": "G3",
          "midi": 55,
          "time": 202.4767441860132,
          "velocity": 0.3464566929133858,
          "duration": 0.05813953488370771
        },
        {
          "name": "G7",
          "midi": 103,
          "time": 202.48837209298995,
          "velocity": 0.10236220472440945,
          "duration": 0.04651162790696617
        },
        {
          "name": "C#3",
          "midi": 49,
          "time": 202.51162790694343,
          "velocity": 0.4094488188976378,
          "duration": 0.023255813953483084
        },
        {
          "name": "D5",
          "midi": 74,
          "time": 202.51162790694343,
          "velocity": 0.25984251968503935,
          "duration": 0.09302325581393234
        },
        {
          "name": "E7",
          "midi": 100,
          "time": 202.51162790694343,
          "velocity": 0.12598425196850394,
          "duration": 0.04651162790696617
        },
        {
          "name": "B5",
          "midi": 83,
          "time": 202.52325581392017,
          "velocity": 0.2283464566929134,
          "duration": 0.3255813953487632
        },
        {
          "name": "C3",
          "midi": 48,
          "time": 202.53488372089691,
          "velocity": 0.5275590551181102,
          "duration": 0.011627906976741542
        },
        {
          "name": "G4",
          "midi": 67,
          "time": 202.53488372089691,
          "velocity": 0.4330708661417323,
          "duration": 0.5348837209301109
        },
        {
          "name": "G#6",
          "midi": 92,
          "time": 202.53488372089691,
          "velocity": 0.11811023622047244,
          "duration": 0.034883720930224626
        },
        {
          "name": "D#7",
          "midi": 99,
          "time": 202.53488372089691,
          "velocity": 0.15748031496062992,
          "duration": 0.06976744186044925
        },
        {
          "name": "F7",
          "midi": 101,
          "time": 202.53488372089691,
          "velocity": 0.07086614173228346,
          "duration": 0.034883720930224626
        },
        {
          "name": "A2",
          "midi": 45,
          "time": 202.54651162787366,
          "velocity": 0.5748031496062992,
          "duration": 0.023255813953483084
        },
        {
          "name": "F#6",
          "midi": 90,
          "time": 202.5581395348504,
          "velocity": 0.15748031496062992,
          "duration": 0.1395348837208985
        },
        {
          "name": "A#2",
          "midi": 46,
          "time": 202.56976744182714,
          "velocity": 0.4645669291338583,
          "duration": 0.023255813953483084
        },
        {
          "name": "G#3",
          "midi": 56,
          "time": 202.56976744182714,
          "velocity": 0.36220472440944884,
          "duration": 0.023255813953483084
        },
        {
          "name": "D3",
          "midi": 50,
          "time": 202.59302325578062,
          "velocity": 0.5433070866141733,
          "duration": 0.023255813953483084
        },
        {
          "name": "E4",
          "midi": 64,
          "time": 202.59302325578062,
          "velocity": 0.31496062992125984,
          "duration": 0.1627906976743816
        },
        {
          "name": "A5",
          "midi": 81,
          "time": 202.59302325578062,
          "velocity": 0.14173228346456693,
          "duration": 0.06976744186044925
        },
        {
          "name": "G3",
          "midi": 55,
          "time": 202.60465116275736,
          "velocity": 0.47244094488188976,
          "duration": 0.05813953488370771
        },
        {
          "name": "C3",
          "midi": 48,
          "time": 202.6162790697341,
          "velocity": 0.5039370078740157,
          "duration": 0.05813953488370771
        },
        {
          "name": "D5",
          "midi": 74,
          "time": 202.62790697671085,
          "velocity": 0.11023622047244094,
          "duration": 0.04651162790696617
        },
        {
          "name": "A6",
          "midi": 93,
          "time": 202.66279069764107,
          "velocity": 0.14960629921259844,
          "duration": 0.09302325581393234
        },
        {
          "name": "A4",
          "midi": 69,
          "time": 202.68604651159455,
          "velocity": 0.11811023622047244,
          "duration": 0.034883720930224626
        },
        {
          "name": "C4",
          "midi": 60,
          "time": 202.6976744185713,
          "velocity": 0.16535433070866143,
          "duration": 0.034883720930224626
        },
        {
          "name": "F#7",
          "midi": 102,
          "time": 202.6976744185713,
          "velocity": 0.14173228346456693,
          "duration": 0.06976744186044925
        },
        {
          "name": "C3",
          "midi": 48,
          "time": 202.72093023252478,
          "velocity": 0.2677165354330709,
          "duration": 0.023255813953483084
        },
        {
          "name": "A#3",
          "midi": 58,
          "time": 202.74418604647826,
          "velocity": 0.30708661417322836,
          "duration": 0.023255813953483084
        },
        {
          "name": "C5",
          "midi": 72,
          "time": 202.74418604647826,
          "velocity": 0.2204724409448819,
          "duration": 0.2209302325580893
        },
        {
          "name": "F#5",
          "midi": 78,
          "time": 202.74418604647826,
          "velocity": 0.16535433070866143,
          "duration": 0.05813953488370771
        },
        {
          "name": "C7",
          "midi": 96,
          "time": 202.74418604647826,
          "velocity": 0.14173228346456693,
          "duration": 0.0813953488371908
        },
        {
          "name": "D#7",
          "midi": 99,
          "time": 202.74418604647826,
          "velocity": 0.07874015748031496,
          "duration": 0.04651162790696617
        },
        {
          "name": "F7",
          "midi": 101,
          "time": 202.74418604647826,
          "velocity": 0.08661417322834646,
          "duration": 0.034883720930224626
        },
        {
          "name": "G#2",
          "midi": 44,
          "time": 202.755813953455,
          "velocity": 0.5905511811023622,
          "duration": 0.023255813953483084
        },
        {
          "name": "G#6",
          "midi": 92,
          "time": 202.755813953455,
          "velocity": 0.12598425196850394,
          "duration": 0.05813953488370771
        },
        {
          "name": "C#7",
          "midi": 97,
          "time": 202.755813953455,
          "velocity": 0.1732283464566929,
          "duration": 0.04651162790696617
        },
        {
          "name": "A#4",
          "midi": 70,
          "time": 202.76744186043175,
          "velocity": 0.11811023622047244,
          "duration": 0.034883720930224626
        },
        {
          "name": "D7",
          "midi": 98,
          "time": 202.76744186043175,
          "velocity": 0.14960629921259844,
          "duration": 0.04651162790696617
        },
        {
          "name": "B2",
          "midi": 47,
          "time": 202.7790697674085,
          "velocity": 0.5590551181102362,
          "duration": 0.023255813953483084
        },
        {
          "name": "C#4",
          "midi": 61,
          "time": 202.7790697674085,
          "velocity": 0.4015748031496063,
          "duration": 0.023255813953483084
        },
        {
          "name": "G#3",
          "midi": 56,
          "time": 202.79069767438523,
          "velocity": 0.30708661417322836,
          "duration": 0.023255813953483084
        },
        {
          "name": "F#7",
          "midi": 102,
          "time": 202.79069767438523,
          "velocity": 0.14960629921259844,
          "duration": 0.04651162790696617
        },
        {
          "name": "C3",
          "midi": 48,
          "time": 202.80232558136197,
          "velocity": 0.5748031496062992,
          "duration": 0.011627906976741542
        },
        {
          "name": "D3",
          "midi": 50,
          "time": 202.8139534883387,
          "velocity": 0.5826771653543307,
          "duration": 0.011627906976741542
        },
        {
          "name": "E4",
          "midi": 64,
          "time": 202.8139534883387,
          "velocity": 0.13385826771653545,
          "duration": 0.06976744186044925
        },
        {
          "name": "F#6",
          "midi": 90,
          "time": 202.8139534883387,
          "velocity": 0.11023622047244094,
          "duration": 0.06976744186044925
        },
        {
          "name": "C#3",
          "midi": 49,
          "time": 202.82558139531545,
          "velocity": 0.5905511811023622,
          "duration": 0.011627906976741542
        },
        {
          "name": "G3",
          "midi": 55,
          "time": 202.82558139531545,
          "velocity": 0.5039370078740157,
          "duration": 0.11627906976741542
        },
        {
          "name": "C3",
          "midi": 48,
          "time": 202.8372093022922,
          "velocity": 0.5590551181102362,
          "duration": 0.011627906976741542
        },
        {
          "name": "C#3",
          "midi": 49,
          "time": 202.84883720926894,
          "velocity": 0.5669291338582677,
          "duration": 0.011627906976741542
        },
        {
          "name": "C3",
          "midi": 48,
          "time": 202.86046511624568,
          "velocity": 0.6220472440944882,
          "duration": 0.09302325581393234
        },
        {
          "name": "B5",
          "midi": 83,
          "time": 202.86046511624568,
          "velocity": 0.28346456692913385,
          "duration": 0.7325581395347172
        },
        {
          "name": "F#7",
          "midi": 102,
          "time": 202.86046511624568,
          "velocity": 0.1889763779527559,
          "duration": 0.6162790697673017
        },
        {
          "name": "F#2",
          "midi": 42,
          "time": 202.90697674415264,
          "velocity": 0.5118110236220472,
          "duration": 0.011627906976741542
        },
        {
          "name": "D7",
          "midi": 98,
          "time": 202.90697674415264,
          "velocity": 0.14173228346456693,
          "duration": 0.11627906976741542
        },
        {
          "name": "F#3",
          "midi": 54,
          "time": 202.94186046508287,
          "velocity": 0.49606299212598426,
          "duration": 0.034883720930224626
        },
        {
          "name": "E4",
          "midi": 64,
          "time": 202.94186046508287,
          "velocity": 0.28346456692913385,
          "duration": 0.023255813953483084
        },
        {
          "name": "B2",
          "midi": 47,
          "time": 202.9534883720596,
          "velocity": 0.5669291338582677,
          "duration": 0.011627906976741542
        },
        {
          "name": "C3",
          "midi": 48,
          "time": 202.96511627903635,
          "velocity": 0.5669291338582677,
          "duration": 0.011627906976741542
        },
        {
          "name": "D5",
          "midi": 74,
          "time": 202.96511627903635,
          "velocity": 0.3464566929133858,
          "duration": 0.26744186046505547
        },
        {
          "name": "G#6",
          "midi": 92,
          "time": 202.96511627903635,
          "velocity": 0.07086614173228346,
          "duration": 0.09302325581393234
        },
        {
          "name": "B2",
          "midi": 47,
          "time": 202.9767441860131,
          "velocity": 0.6141732283464567,
          "duration": 0.011627906976741542
        },
        {
          "name": "C5",
          "midi": 72,
          "time": 202.9767441860131,
          "velocity": 0.18110236220472442,
          "duration": 0.15116279069764005
        },
        {
          "name": "A2",
          "midi": 45,
          "time": 202.98837209298983,
          "velocity": 0.5905511811023622,
          "duration": 0.011627906976741542
        },
        {
          "name": "E4",
          "midi": 64,
          "time": 202.98837209298983,
          "velocity": 0.28346456692913385,
          "duration": 0.023255813953483084
        },
        {
          "name": "C#7",
          "midi": 97,
          "time": 202.98837209298983,
          "velocity": 0.2125984251968504,
          "duration": 0.24418604651157239
        },
        {
          "name": "B2",
          "midi": 47,
          "time": 202.99999999996658,
          "velocity": 0.5826771653543307,
          "duration": 0.011627906976741542
        },
        {
          "name": "A#4",
          "midi": 70,
          "time": 202.99999999996658,
          "velocity": 0.2047244094488189,
          "duration": 0.1627906976743816
        },
        {
          "name": "D#7",
          "midi": 99,
          "time": 202.99999999996658,
          "velocity": 0.13385826771653545,
          "duration": 0.10465116279067388
        },
        {
          "name": "C3",
          "midi": 48,
          "time": 203.01162790694332,
          "velocity": 0.5905511811023622,
          "duration": 0.011627906976741542
        },
        {
          "name": "B2",
          "midi": 47,
          "time": 203.02325581392006,
          "velocity": 0.5118110236220472,
          "duration": 0.011627906976741542
        },
        {
          "name": "E4",
          "midi": 64,
          "time": 203.02325581392006,
          "velocity": 0.2204724409448819,
          "duration": 0.09302325581393234
        },
        {
          "name": "F#6",
          "midi": 90,
          "time": 203.02325581392006,
          "velocity": 0.07086614173228346,
          "duration": 0.09302325581393234
        },
        {
          "name": "C7",
          "midi": 96,
          "time": 203.02325581392006,
          "velocity": 0.11023622047244094,
          "duration": 0.034883720930224626
        },
        {
          "name": "A6",
          "midi": 93,
          "time": 203.0348837208968,
          "velocity": 0.09448818897637795,
          "duration": 0.0813953488371908
        },
        {
          "name": "C2",
          "midi": 36,
          "time": 203.04651162787354,
          "velocity": 0.4409448818897638,
          "duration": 0.04651162790696617
        },
        {
          "name": "D7",
          "midi": 98,
          "time": 203.04651162787354,
          "velocity": 0.14960629921259844,
          "duration": 0.10465116279067388
        },
        {
          "name": "C3",
          "midi": 48,
          "time": 203.05813953485028,
          "velocity": 0.4566929133858268,
          "duration": 0.06976744186044925
        },
        {
          "name": "F7",
          "midi": 101,
          "time": 203.06976744182703,
          "velocity": 0.14173228346456693,
          "duration": 0.05813953488370771
        },
        {
          "name": "G#3",
          "midi": 56,
          "time": 203.08139534880377,
          "velocity": 0.2283464566929134,
          "duration": 0.023255813953483084
        },
        {
          "name": "C7",
          "midi": 96,
          "time": 203.08139534880377,
          "velocity": 0.25196850393700787,
          "duration": 0.47674418604640323
        },
        {
          "name": "G4",
          "midi": 67,
          "time": 203.0930232557805,
          "velocity": 0.41732283464566927,
          "duration": 0.17441860465112313
        },
        {
          "name": "G3",
          "midi": 55,
          "time": 203.116279069734,
          "velocity": 0.4251968503937008,
          "duration": 0.05813953488370771
        },
        {
          "name": "C3",
          "midi": 48,
          "time": 203.13953488368747,
          "velocity": 0.48031496062992124,
          "duration": 0.05813953488370771
        },
        {
          "name": "E4",
          "midi": 64,
          "time": 203.13953488368747,
          "velocity": 0.25196850393700787,
          "duration": 0.023255813953483084
        },
        {
          "name": "G7",
          "midi": 103,
          "time": 203.15116279066422,
          "velocity": 0.10236220472440945,
          "duration": 0.05813953488370771
        },
        {
          "name": "F#5",
          "midi": 78,
          "time": 203.16279069764096,
          "velocity": 0.1889763779527559,
          "duration": 0.04651162790696617
        },
        {
          "name": "D#6",
          "midi": 87,
          "time": 203.16279069764096,
          "velocity": 0.18110236220472442,
          "duration": 0.034883720930224626
        },
        {
          "name": "E6",
          "midi": 88,
          "time": 203.16279069764096,
          "velocity": 0.2755905511811024,
          "duration": 0.3372093023255047
        },
        {
          "name": "C#2",
          "midi": 37,
          "time": 203.1744186046177,
          "velocity": 0.3700787401574803,
          "duration": 0.034883720930224626
        },
        {
          "name": "A#3",
          "midi": 58,
          "time": 203.1744186046177,
          "velocity": 0.5118110236220472,
          "duration": 0.011627906976741542
        },
        {
          "name": "E4",
          "midi": 64,
          "time": 203.1744186046177,
          "velocity": 0.36220472440944884,
          "duration": 0.05813953488370771
        },
        {
          "name": "A5",
          "midi": 81,
          "time": 203.1744186046177,
          "velocity": 0.2992125984251969,
          "duration": 0.3604651162789878
        },
        {
          "name": "A#6",
          "midi": 94,
          "time": 203.1744186046177,
          "velocity": 0.16535433070866143,
          "duration": 0.034883720930224626
        },
        {
          "name": "D7",
          "midi": 98,
          "time": 203.1744186046177,
          "velocity": 0.28346456692913385,
          "duration": 0.5930232558138187
        },
        {
          "name": "B3",
          "midi": 59,
          "time": 203.18604651159444,
          "velocity": 0.4094488188976378,
          "duration": 0.023255813953483084
        },
        {
          "name": "A#4",
          "midi": 70,
          "time": 203.18604651159444,
          "velocity": 0.2125984251968504,
          "duration": 0.04651162790696617
        },
        {
          "name": "F7",
          "midi": 101,
          "time": 203.18604651159444,
          "velocity": 0.2204724409448819,
          "duration": 0.34883720930224626
        },
        {
          "name": "C6",
          "midi": 84,
          "time": 203.20930232554792,
          "velocity": 0.14173228346456693,
          "duration": 0.034883720930224626
        },
        {
          "name": "F2",
          "midi": 41,
          "time": 203.22093023252467,
          "velocity": 0.5118110236220472,
          "duration": 0.011627906976741542
        },
        {
          "name": "F4",
          "midi": 65,
          "time": 203.2325581395014,
          "velocity": 0.28346456692913385,
          "duration": 0.034883720930224626
        },
        {
          "name": "D#7",
          "midi": 99,
          "time": 203.2325581395014,
          "velocity": 0.18110236220472442,
          "duration": 0.04651162790696617
        },
        {
          "name": "C4",
          "midi": 60,
          "time": 203.24418604647815,
          "velocity": 0.30708661417322836,
          "duration": 0.023255813953483084
        },
        {
          "name": "D5",
          "midi": 74,
          "time": 203.2558139534549,
          "velocity": 0.25984251968503935,
          "duration": 0.12790697674415696
        },
        {
          "name": "F#5",
          "midi": 78,
          "time": 203.26744186043163,
          "velocity": 0.12598425196850394,
          "duration": 0.04651162790696617
        },
        {
          "name": "C#7",
          "midi": 97,
          "time": 203.26744186043163,
          "velocity": 0.18110236220472442,
          "duration": 0.1395348837208985
        },
        {
          "name": "F#2",
          "midi": 42,
          "time": 203.27906976740837,
          "velocity": 0.28346456692913385,
          "duration": 0.023255813953483084
        },
        {
          "name": "A#3",
          "midi": 58,
          "time": 203.27906976740837,
          "velocity": 0.31496062992125984,
          "duration": 0.05813953488370771
        },
        {
          "name": "G4",
          "midi": 67,
          "time": 203.27906976740837,
          "velocity": 0.2755905511811024,
          "duration": 0.10465116279067388
        },
        {
          "name": "A#6",
          "midi": 94,
          "time": 203.27906976740837,
          "velocity": 0.07874015748031496,
          "duration": 0.1395348837208985
        },
        {
          "name": "D#3",
          "midi": 51,
          "time": 203.29069767438511,
          "velocity": 0.2283464566929134,
          "duration": 0.023255813953483084
        },
        {
          "name": "D#7",
          "midi": 99,
          "time": 203.30232558136186,
          "velocity": 0.15748031496062992,
          "duration": 0.1395348837208985
        },
        {
          "name": "F2",
          "midi": 41,
          "time": 203.3139534883386,
          "velocity": 0.3228346456692913,
          "duration": 0.023255813953483084
        },
        {
          "name": "E4",
          "midi": 64,
          "time": 203.3139534883386,
          "velocity": 0.23622047244094488,
          "duration": 0.04651162790696617
        },
        {
          "name": "G#2",
          "midi": 44,
          "time": 203.33720930229208,
          "velocity": 0.3228346456692913,
          "duration": 0.023255813953483084
        },
        {
          "name": "B3",
          "midi": 59,
          "time": 203.34883720926882,
          "velocity": 0.25984251968503935,
          "duration": 0.023255813953483084
        },
        {
          "name": "E5",
          "midi": 76,
          "time": 203.34883720926882,
          "velocity": 0.41732283464566927,
          "duration": 0.6744186046510094
        },
        {
          "name": "C4",
          "midi": 60,
          "time": 203.3720930232223,
          "velocity": 0.25196850393700787,
          "duration": 0.04651162790696617
        },
        {
          "name": "F4",
          "midi": 65,
          "time": 203.3720930232223,
          "velocity": 0.29133858267716534,
          "duration": 0.023255813953483084
        },
        {
          "name": "E2",
          "midi": 40,
          "time": 203.38372093019905,
          "velocity": 0.5118110236220472,
          "duration": 0.011627906976741542
        },
        {
          "name": "E4",
          "midi": 64,
          "time": 203.3953488371758,
          "velocity": 0.2755905511811024,
          "duration": 0.023255813953483084
        },
        {
          "name": "D5",
          "midi": 74,
          "time": 203.3953488371758,
          "velocity": 0.25984251968503935,
          "duration": 0.06976744186044925
        },
        {
          "name": "G7",
          "midi": 103,
          "time": 203.3953488371758,
          "velocity": 0.12598425196850394,
          "duration": 0.09302325581393234
        },
        {
          "name": "G4",
          "midi": 67,
          "time": 203.40697674415253,
          "velocity": 0.33070866141732286,
          "duration": 0.19767441860460622
        },
        {
          "name": "F2",
          "midi": 41,
          "time": 203.41860465112927,
          "velocity": 0.4566929133858268,
          "duration": 0.023255813953483084
        },
        {
          "name": "D3",
          "midi": 50,
          "time": 203.430232558106,
          "velocity": 0.36220472440944884,
          "duration": 0.023255813953483084
        },
        {
          "name": "C#7",
          "midi": 97,
          "time": 203.430232558106,
          "velocity": 0.1889763779527559,
          "duration": 0.05813953488370771
        },
        {
          "name": "A#4",
          "midi": 70,
          "time": 203.44186046508275,
          "velocity": 0.31496062992125984,
          "duration": 0.20930232558134776
        },
        {
          "name": "A2",
          "midi": 45,
          "time": 203.4534883720595,
          "velocity": 0.3937007874015748,
          "duration": 0.023255813953483084
        },
        {
          "name": "C4",
          "midi": 60,
          "time": 203.4534883720595,
          "velocity": 0.2755905511811024,
          "duration": 0.09302325581393234
        },
        {
          "name": "E4",
          "midi": 64,
          "time": 203.4534883720595,
          "velocity": 0.28346456692913385,
          "duration": 0.15116279069764005
        },
        {
          "name": "D#7",
          "midi": 99,
          "time": 203.46511627903624,
          "velocity": 0.08661417322834646,
          "duration": 0.0813953488371908
        },
        {
          "name": "D5",
          "midi": 74,
          "time": 203.47674418601298,
          "velocity": 0.15748031496062992,
          "duration": 0.0813953488371908
        },
        {
          "name": "G3",
          "midi": 55,
          "time": 203.48837209298972,
          "velocity": 0.29133858267716534,
          "duration": 0.023255813953483084
        },
        {
          "name": "C#7",
          "midi": 97,
          "time": 203.49999999996646,
          "velocity": 0.2755905511811024,
          "duration": 0.12790697674415696
        },
        {
          "name": "F#7",
          "midi": 102,
          "time": 203.5116279069432,
          "velocity": 0.15748031496062992,
          "duration": 0.15116279069764005
        },
        {
          "name": "E2",
          "midi": 40,
          "time": 203.5348837208967,
          "velocity": 0.3779527559055118,
          "duration": 0.023255813953483084
        },
        {
          "name": "C3",
          "midi": 48,
          "time": 203.54651162787343,
          "velocity": 0.4094488188976378,
          "duration": 0.034883720930224626
        },
        {
          "name": "G3",
          "midi": 55,
          "time": 203.54651162787343,
          "velocity": 0.23622047244094488,
          "duration": 0.034883720930224626
        },
        {
          "name": "D#6",
          "midi": 87,
          "time": 203.58139534880365,
          "velocity": 0.16535433070866143,
          "duration": 0.12790697674415696
        },
        {
          "name": "A3",
          "midi": 57,
          "time": 203.5930232557804,
          "velocity": 0.3700787401574803,
          "duration": 0.023255813953483084
        },
        {
          "name": "E7",
          "midi": 100,
          "time": 203.5930232557804,
          "velocity": 0.3543307086614173,
          "duration": 0.7790697674416833
        },
        {
          "name": "C3",
          "midi": 48,
          "time": 203.60465116275714,
          "velocity": 0.5590551181102362,
          "duration": 0.011627906976741542
        },
        {
          "name": "F#5",
          "midi": 78,
          "time": 203.60465116275714,
          "velocity": 0.11023622047244094,
          "duration": 0.15116279069764005
        },
        {
          "name": "A5",
          "midi": 81,
          "time": 203.60465116275714,
          "velocity": 0.3937007874015748,
          "duration": 0.7558139534882002
        },
        {
          "name": "D6",
          "midi": 86,
          "time": 203.60465116275714,
          "velocity": 0.2677165354330709,
          "duration": 0.04651162790696617
        },
        {
          "name": "A6",
          "midi": 93,
          "time": 203.60465116275714,
          "velocity": 0.47244094488188976,
          "duration": 0.9302325581393234
        },
        {
          "name": "G1",
          "midi": 31,
          "time": 203.61627906973388,
          "velocity": 0.5196850393700787,
          "duration": 0.011627906976741542
        },
        {
          "name": "C6",
          "midi": 84,
          "time": 203.61627906973388,
          "velocity": 0.12598425196850394,
          "duration": 0.10465116279067388
        },
        {
          "name": "C7",
          "midi": 96,
          "time": 203.61627906973388,
          "velocity": 0.14173228346456693,
          "duration": 0.05813953488370771
        },
        {
          "name": "A#1",
          "midi": 34,
          "time": 203.62790697671062,
          "velocity": 0.5118110236220472,
          "duration": 0.011627906976741542
        },
        {
          "name": "D3",
          "midi": 50,
          "time": 203.62790697671062,
          "velocity": 0.6220472440944882,
          "duration": 0.06976744186044925
        },
        {
          "name": "A3",
          "midi": 57,
          "time": 203.62790697671062,
          "velocity": 0.4645669291338583,
          "duration": 0.04651162790696617
        },
        {
          "name": "D5",
          "midi": 74,
          "time": 203.62790697671062,
          "velocity": 0.2677165354330709,
          "duration": 0.04651162790696617
        },
        {
          "name": "C#7",
          "midi": 97,
          "time": 203.63953488368736,
          "velocity": 0.2440944881889764,
          "duration": 0.279069767441797
        },
        {
          "name": "F2",
          "midi": 41,
          "time": 203.6511627906641,
          "velocity": 0.48031496062992124,
          "duration": 0.023255813953483084
        },
        {
          "name": "C5",
          "midi": 72,
          "time": 203.6511627906641,
          "velocity": 0.09448818897637795,
          "duration": 0.1627906976743816
        },
        {
          "name": "G4",
          "midi": 67,
          "time": 203.67441860461759,
          "velocity": 0.33070866141732286,
          "duration": 0.1627906976743816
        },
        {
          "name": "D#3",
          "midi": 51,
          "time": 203.69767441857107,
          "velocity": 0.6220472440944882,
          "duration": 0.011627906976741542
        },
        {
          "name": "D3",
          "midi": 50,
          "time": 203.7093023255478,
          "velocity": 0.6220472440944882,
          "duration": 0.023255813953483084
        },
        {
          "name": "A2",
          "midi": 45,
          "time": 203.72093023252455,
          "velocity": 0.5433070866141733,
          "duration": 0.011627906976741542
        },
        {
          "name": "C#3",
          "midi": 49,
          "time": 203.7325581395013,
          "velocity": 0.6220472440944882,
          "duration": 0.011627906976741542
        },
        {
          "name": "B6",
          "midi": 95,
          "time": 203.7325581395013,
          "velocity": 0.08661417322834646,
          "duration": 0.04651162790696617
        },
        {
          "name": "A2",
          "midi": 45,
          "time": 203.74418604647803,
          "velocity": 0.5354330708661418,
          "duration": 0.011627906976741542
        },
        {
          "name": "D3",
          "midi": 50,
          "time": 203.74418604647803,
          "velocity": 0.5433070866141733,
          "duration": 0.034883720930224626
        },
        {
          "name": "A2",
          "midi": 45,
          "time": 203.76744186043152,
          "velocity": 0.4330708661417323,
          "duration": 0.023255813953483084
        },
        {
          "name": "D3",
          "midi": 50,
          "time": 203.790697674385,
          "velocity": 0.2992125984251969,
          "duration": 0.023255813953483084
        },
        {
          "name": "A3",
          "midi": 57,
          "time": 203.790697674385,
          "velocity": 0.33070866141732286,
          "duration": 0.034883720930224626
        },
        {
          "name": "A#4",
          "midi": 70,
          "time": 203.80232558136174,
          "velocity": 0.2283464566929134,
          "duration": 0.023255813953483084
        },
        {
          "name": "B6",
          "midi": 95,
          "time": 203.80232558136174,
          "velocity": 0.12598425196850394,
          "duration": 0.04651162790696617
        },
        {
          "name": "E2",
          "midi": 40,
          "time": 203.81395348833848,
          "velocity": 0.5118110236220472,
          "duration": 0.011627906976741542
        },
        {
          "name": "F#5",
          "midi": 78,
          "time": 203.81395348833848,
          "velocity": 0.29133858267716534,
          "duration": 0.2209302325580893
        },
        {
          "name": "D7",
          "midi": 98,
          "time": 203.81395348833848,
          "velocity": 0.13385826771653545,
          "duration": 0.10465116279067388
        },
        {
          "name": "G7",
          "midi": 103,
          "time": 203.81395348833848,
          "velocity": 0.13385826771653545,
          "duration": 0.0813953488371908
        },
        {
          "name": "A4",
          "midi": 69,
          "time": 203.82558139531523,
          "velocity": 0.2755905511811024,
          "duration": 0.023255813953483084
        },
        {
          "name": "D3",
          "midi": 50,
          "time": 203.83720930229197,
          "velocity": 0.6141732283464567,
          "duration": 0.1395348837208985
        },
        {
          "name": "A3",
          "midi": 57,
          "time": 203.83720930229197,
          "velocity": 0.4566929133858268,
          "duration": 0.04651162790696617
        },
        {
          "name": "F#4",
          "midi": 66,
          "time": 203.83720930229197,
          "velocity": 0.30708661417322836,
          "duration": 0.1627906976743816
        },
        {
          "name": "A#4",
          "midi": 70,
          "time": 203.83720930229197,
          "velocity": 0.18110236220472442,
          "duration": 0.034883720930224626
        },
        {
          "name": "E2",
          "midi": 40,
          "time": 203.8488372092687,
          "velocity": 0.41732283464566927,
          "duration": 0.034883720930224626
        },
        {
          "name": "C7",
          "midi": 96,
          "time": 203.8488372092687,
          "velocity": 0.08661417322834646,
          "duration": 0.034883720930224626
        },
        {
          "name": "A4",
          "midi": 69,
          "time": 203.8720930232222,
          "velocity": 0.47244094488188976,
          "duration": 0.47674418604640323
        },
        {
          "name": "C5",
          "midi": 72,
          "time": 203.8720930232222,
          "velocity": 0.11811023622047244,
          "duration": 0.10465116279067388
        },
        {
          "name": "G7",
          "midi": 103,
          "time": 203.91860465112916,
          "velocity": 0.09448818897637795,
          "duration": 0.034883720930224626
        },
        {
          "name": "A2",
          "midi": 45,
          "time": 203.9302325581059,
          "velocity": 0.5354330708661418,
          "duration": 0.011627906976741542
        },
        {
          "name": "A2",
          "midi": 45,
          "time": 203.95348837205938,
          "velocity": 0.5826771653543307,
          "duration": 0.04651162790696617
        },
        {
          "name": "C#7",
          "midi": 97,
          "time": 203.95348837205938,
          "velocity": 0.3779527559055118,
          "duration": 1.348837209302019
        },
        {
          "name": "G#2",
          "midi": 44,
          "time": 203.99999999996635,
          "velocity": 0.5196850393700787,
          "duration": 0.011627906976741542
        },
        {
          "name": "D5",
          "midi": 74,
          "time": 204.0116279069431,
          "velocity": 0.3700787401574803,
          "duration": 0.034883720930224626
        },
        {
          "name": "A#3",
          "midi": 58,
          "time": 204.02325581391983,
          "velocity": 0.4566929133858268,
          "duration": 0.023255813953483084
        },
        {
          "name": "C5",
          "midi": 72,
          "time": 204.02325581391983,
          "velocity": 0.18110236220472442,
          "duration": 0.034883720930224626
        },
        {
          "name": "C#6",
          "midi": 85,
          "time": 204.02325581391983,
          "velocity": 0.2204724409448819,
          "duration": 0.05813953488370771
        },
        {
          "name": "D#7",
          "midi": 99,
          "time": 204.02325581391983,
          "velocity": 0.13385826771653545,
          "duration": 0.1395348837208985
        },
        {
          "name": "G4",
          "midi": 67,
          "time": 204.03488372089657,
          "velocity": 0.4094488188976378,
          "duration": 0.023255813953483084
        },
        {
          "name": "G#6",
          "midi": 92,
          "time": 204.03488372089657,
          "velocity": 0.08661417322834646,
          "duration": 0.04651162790696617
        },
        {
          "name": "C7",
          "midi": 96,
          "time": 204.03488372089657,
          "velocity": 0.2677165354330709,
          "duration": 0.10465116279067388
        },
        {
          "name": "G7",
          "midi": 103,
          "time": 204.03488372089657,
          "velocity": 0.16535433070866143,
          "duration": 0.18604651162786467
        },
        {
          "name": "D7",
          "midi": 98,
          "time": 204.04651162787331,
          "velocity": 0.1732283464566929,
          "duration": 0.2558139534883139
        },
        {
          "name": "F7",
          "midi": 101,
          "time": 204.04651162787331,
          "velocity": 0.08661417322834646,
          "duration": 0.10465116279067388
        },
        {
          "name": "F#4",
          "midi": 66,
          "time": 204.05813953485006,
          "velocity": 0.36220472440944884,
          "duration": 0.034883720930224626
        },
        {
          "name": "E5",
          "midi": 76,
          "time": 204.0697674418268,
          "velocity": 0.1968503937007874,
          "duration": 0.11627906976741542
        },
        {
          "name": "F#6",
          "midi": 90,
          "time": 204.0697674418268,
          "velocity": 0.13385826771653545,
          "duration": 0.0813953488371908
        },
        {
          "name": "D5",
          "midi": 74,
          "time": 204.08139534880354,
          "velocity": 0.2440944881889764,
          "duration": 0.1395348837208985
        },
        {
          "name": "G#2",
          "midi": 44,
          "time": 204.09302325578028,
          "velocity": 0.4409448818897638,
          "duration": 0.023255813953483084
        },
        {
          "name": "F#7",
          "midi": 102,
          "time": 204.10465116275702,
          "velocity": 0.1732283464566929,
          "duration": 0.10465116279067388
        },
        {
          "name": "D3",
          "midi": 50,
          "time": 204.11627906973376,
          "velocity": 0.4251968503937008,
          "duration": 0.034883720930224626
        },
        {
          "name": "F#4",
          "midi": 66,
          "time": 204.11627906973376,
          "velocity": 0.3228346456692913,
          "duration": 0.034883720930224626
        },
        {
          "name": "A#3",
          "midi": 58,
          "time": 204.1279069767105,
          "velocity": 0.3858267716535433,
          "duration": 0.05813953488370771
        },
        {
          "name": "D#4",
          "midi": 63,
          "time": 204.13953488368725,
          "velocity": 0.3464566929133858,
          "duration": 0.023255813953483084
        },
        {
          "name": "D#3",
          "midi": 51,
          "time": 204.151162790664,
          "velocity": 0.4645669291338583,
          "duration": 0.034883720930224626
        },
        {
          "name": "D4",
          "midi": 62,
          "time": 204.16279069764073,
          "velocity": 0.36220472440944884,
          "duration": 0.06976744186044925
        },
        {
          "name": "G4",
          "midi": 67,
          "time": 204.16279069764073,
          "velocity": 0.2992125984251969,
          "duration": 0.034883720930224626
        },
        {
          "name": "D3",
          "midi": 50,
          "time": 204.1860465115942,
          "velocity": 0.4881889763779528,
          "duration": 0.04651162790696617
        },
        {
          "name": "F#5",
          "midi": 78,
          "time": 204.1860465115942,
          "velocity": 0.5354330708661418,
          "duration": 0.7325581395347172
        },
        {
          "name": "C#6",
          "midi": 85,
          "time": 204.1860465115942,
          "velocity": 0.13385826771653545,
          "duration": 0.04651162790696617
        },
        {
          "name": "D#7",
          "midi": 99,
          "time": 204.19767441857095,
          "velocity": 0.12598425196850394,
          "duration": 0.0813953488371908
        },
        {
          "name": "A#3",
          "midi": 58,
          "time": 204.2093023255477,
          "velocity": 0.29133858267716534,
          "duration": 0.034883720930224626
        },
        {
          "name": "D#2",
          "midi": 39,
          "time": 204.22093023252444,
          "velocity": 0.3464566929133858,
          "duration": 0.023255813953483084
        },
        {
          "name": "D#3",
          "midi": 51,
          "time": 204.23255813950118,
          "velocity": 0.4330708661417323,
          "duration": 0.023255813953483084
        },
        {
          "name": "C5",
          "midi": 72,
          "time": 204.23255813950118,
          "velocity": 0.18110236220472442,
          "duration": 0.034883720930224626
        },
        {
          "name": "C7",
          "midi": 96,
          "time": 204.23255813950118,
          "velocity": 0.07874015748031496,
          "duration": 0.034883720930224626
        },
        {
          "name": "F2",
          "midi": 41,
          "time": 204.24418604647792,
          "velocity": 0.31496062992125984,
          "duration": 0.023255813953483084
        },
        {
          "name": "D4",
          "midi": 62,
          "time": 204.24418604647792,
          "velocity": 0.2283464566929134,
          "duration": 0.023255813953483084
        },
        {
          "name": "G4",
          "midi": 67,
          "time": 204.24418604647792,
          "velocity": 0.31496062992125984,
          "duration": 0.034883720930224626
        },
        {
          "name": "E5",
          "midi": 76,
          "time": 204.24418604647792,
          "velocity": 0.3464566929133858,
          "duration": 0.39534883720921243
        },
        {
          "name": "G6",
          "midi": 91,
          "time": 204.24418604647792,
          "velocity": 0.07874015748031496,
          "duration": 0.034883720930224626
        },
        {
          "name": "D3",
          "midi": 50,
          "time": 204.25581395345466,
          "velocity": 0.6220472440944882,
          "duration": 0.1395348837208985
        },
        {
          "name": "B5",
          "midi": 83,
          "time": 204.25581395345466,
          "velocity": 0.12598425196850394,
          "duration": 0.0813953488371908
        },
        {
          "name": "A3",
          "midi": 57,
          "time": 204.2674418604314,
          "velocity": 0.3858267716535433,
          "duration": 0.034883720930224626
        },
        {
          "name": "C#6",
          "midi": 85,
          "time": 204.2674418604314,
          "velocity": 0.09448818897637795,
          "duration": 0.034883720930224626
        },
        {
          "name": "F#4",
          "midi": 66,
          "time": 204.27906976740815,
          "velocity": 0.2677165354330709,
          "duration": 0.20930232558134776
        },
        {
          "name": "A#3",
          "midi": 58,
          "time": 204.30232558136163,
          "velocity": 0.4015748031496063,
          "duration": 0.034883720930224626
        },
        {
          "name": "C#6",
          "midi": 85,
          "time": 204.3255813953151,
          "velocity": 0.10236220472440945,
          "duration": 0.05813953488370771
        },
        {
          "name": "A4",
          "midi": 69,
          "time": 204.37209302322208,
          "velocity": 0.30708661417322836,
          "duration": 0.10465116279067388
        },
        {
          "name": "A3",
          "midi": 57,
          "time": 204.39534883717556,
          "velocity": 0.14173228346456693,
          "duration": 0.034883720930224626
        },
        {
          "name": "D3",
          "midi": 50,
          "time": 204.4069767441523,
          "velocity": 0.3937007874015748,
          "duration": 0.04651162790696617
        },
        {
          "name": "D#3",
          "midi": 51,
          "time": 204.45348837205927,
          "velocity": 0.47244094488188976,
          "duration": 0.034883720930224626
        },
        {
          "name": "C#6",
          "midi": 85,
          "time": 204.465116279036,
          "velocity": 0.07874015748031496,
          "duration": 0.06976744186044925
        },
        {
          "name": "D7",
          "midi": 98,
          "time": 204.465116279036,
          "velocity": 0.16535433070866143,
          "duration": 0.05813953488370771
        },
        {
          "name": "D#7",
          "midi": 99,
          "time": 204.465116279036,
          "velocity": 0.13385826771653545,
          "duration": 0.0813953488371908
        },
        {
          "name": "F7",
          "midi": 101,
          "time": 204.465116279036,
          "velocity": 0.07086614173228346,
          "duration": 0.04651162790696617
        },
        {
          "name": "A3",
          "midi": 57,
          "time": 204.47674418601275,
          "velocity": 0.4409448818897638,
          "duration": 0.0813953488371908
        },
        {
          "name": "D5",
          "midi": 74,
          "time": 204.47674418601275,
          "velocity": 0.25196850393700787,
          "duration": 0.406976744185954
        },
        {
          "name": "D3",
          "midi": 50,
          "time": 204.4883720929895,
          "velocity": 0.6456692913385826,
          "duration": 0.10465116279067388
        },
        {
          "name": "F#4",
          "midi": 66,
          "time": 204.49999999996624,
          "velocity": 0.2755905511811024,
          "duration": 0.0813953488371908
        },
        {
          "name": "C7",
          "midi": 96,
          "time": 204.49999999996624,
          "velocity": 0.10236220472440945,
          "duration": 0.11627906976741542
        },
        {
          "name": "G7",
          "midi": 103,
          "time": 204.49999999996624,
          "velocity": 0.10236220472440945,
          "duration": 0.034883720930224626
        },
        {
          "name": "F#2",
          "midi": 42,
          "time": 204.52325581391972,
          "velocity": 0.5275590551181102,
          "duration": 0.011627906976741542
        },
        {
          "name": "G#5",
          "midi": 80,
          "time": 204.53488372089646,
          "velocity": 0.2677165354330709,
          "duration": 0.09302325581393234
        },
        {
          "name": "A6",
          "midi": 93,
          "time": 204.56976744182668,
          "velocity": 0.2047244094488189,
          "duration": 0.05813953488370771
        },
        {
          "name": "D#7",
          "midi": 99,
          "time": 204.56976744182668,
          "velocity": 0.13385826771653545,
          "duration": 0.034883720930224626
        },
        {
          "name": "A2",
          "midi": 45,
          "time": 204.58139534880343,
          "velocity": 0.5669291338582677,
          "duration": 0.011627906976741542
        },
        {
          "name": "C3",
          "midi": 48,
          "time": 204.59302325578017,
          "velocity": 0.6141732283464567,
          "duration": 0.011627906976741542
        },
        {
          "name": "A2",
          "midi": 45,
          "time": 204.6046511627569,
          "velocity": 0.5905511811023622,
          "duration": 0.011627906976741542
        },
        {
          "name": "D3",
          "midi": 50,
          "time": 204.6046511627569,
          "velocity": 0.5590551181102362,
          "duration": 0.011627906976741542
        },
        {
          "name": "A#2",
          "midi": 46,
          "time": 204.61627906973365,
          "velocity": 0.6141732283464567,
          "duration": 0.011627906976741542
        },
        {
          "name": "G4",
          "midi": 67,
          "time": 204.61627906973365,
          "velocity": 0.15748031496062992,
          "duration": 0.034883720930224626
        },
        {
          "name": "A2",
          "midi": 45,
          "time": 204.6279069767104,
          "velocity": 0.6220472440944882,
          "duration": 0.04651162790696617
        },
        {
          "name": "D3",
          "midi": 50,
          "time": 204.6279069767104,
          "velocity": 0.5118110236220472,
          "duration": 0.011627906976741542
        },
        {
          "name": "C#6",
          "midi": 85,
          "time": 204.6279069767104,
          "velocity": 0.07874015748031496,
          "duration": 0.034883720930224626
        },
        {
          "name": "G7",
          "midi": 103,
          "time": 204.66279069764062,
          "velocity": 0.15748031496062992,
          "duration": 0.10465116279067388
        },
        {
          "name": "G#2",
          "midi": 44,
          "time": 204.67441860461736,
          "velocity": 0.6141732283464567,
          "duration": 0.023255813953483084
        },
        {
          "name": "E5",
          "midi": 76,
          "time": 204.67441860461736,
          "velocity": 0.2992125984251969,
          "duration": 0.09302325581393234
        },
        {
          "name": "F#4",
          "midi": 66,
          "time": 204.6860465115941,
          "velocity": 0.30708661417322836,
          "duration": 0.18604651162786467
        },
        {
          "name": "C7",
          "midi": 96,
          "time": 204.6860465115941,
          "velocity": 0.25196850393700787,
          "duration": 0.09302325581393234
        },
        {
          "name": "A2",
          "midi": 45,
          "time": 204.69767441857084,
          "velocity": 0.5118110236220472,
          "duration": 0.023255813953483084
        },
        {
          "name": "D#7",
          "midi": 99,
          "time": 204.69767441857084,
          "velocity": 0.14173228346456693,
          "duration": 0.09302325581393234
        },
        {
          "name": "F3",
          "midi": 53,
          "time": 204.70930232554758,
          "velocity": 0.33858267716535434,
          "duration": 0.023255813953483084
        },
        {
          "name": "D7",
          "midi": 98,
          "time": 204.70930232554758,
          "velocity": 0.18110236220472442,
          "duration": 0.19767441860460622
        },
        {
          "name": "D#6",
          "midi": 87,
          "time": 204.72093023252432,
          "velocity": 0.11023622047244094,
          "duration": 0.04651162790696617
        },
        {
          "name": "G2",
          "midi": 43,
          "time": 204.7441860464778,
          "velocity": 0.4015748031496063,
          "duration": 0.023255813953483084
        },
        {
          "name": "A3",
          "midi": 57,
          "time": 204.7441860464778,
          "velocity": 0.3779527559055118,
          "duration": 0.04651162790696617
        },
        {
          "name": "F7",
          "midi": 101,
          "time": 204.75581395345455,
          "velocity": 0.09448818897637795,
          "duration": 0.034883720930224626
        },
        {
          "name": "D2",
          "midi": 38,
          "time": 204.7674418604313,
          "velocity": 0.3543307086614173,
          "duration": 0.023255813953483084
        },
        {
          "name": "A2",
          "midi": 45,
          "time": 204.79069767438477,
          "velocity": 0.33070866141732286,
          "duration": 0.023255813953483084
        },
        {
          "name": "D#3",
          "midi": 51,
          "time": 204.79069767438477,
          "velocity": 0.48031496062992124,
          "duration": 0.034883720930224626
        },
        {
          "name": "A4",
          "midi": 69,
          "time": 204.79069767438477,
          "velocity": 0.4251968503937008,
          "duration": 0.6046511627905602
        },
        {
          "name": "A3",
          "midi": 57,
          "time": 204.80232558136152,
          "velocity": 0.33070866141732286,
          "duration": 0.04651162790696617
        },
        {
          "name": "G7",
          "midi": 103,
          "time": 204.80232558136152,
          "velocity": 0.11811023622047244,
          "duration": 0.05813953488370771
        },
        {
          "name": "D3",
          "midi": 50,
          "time": 204.825581395315,
          "velocity": 0.5039370078740157,
          "duration": 0.05813953488370771
        },
        {
          "name": "E7",
          "midi": 100,
          "time": 204.825581395315,
          "velocity": 0.16535433070866143,
          "duration": 0.17441860465112313
        },
        {
          "name": "E5",
          "midi": 76,
          "time": 204.83720930229174,
          "velocity": 0.1968503937007874,
          "duration": 0.05813953488370771
        },
        {
          "name": "D#7",
          "midi": 99,
          "time": 204.84883720926848,
          "velocity": 0.1968503937007874,
          "duration": 0.48837209302314477
        },
        {
          "name": "B6",
          "midi": 95,
          "time": 204.86046511624522,
          "velocity": 0.07874015748031496,
          "duration": 0.05813953488370771
        },
        {
          "name": "A#3",
          "midi": 58,
          "time": 204.87209302322196,
          "velocity": 0.48031496062992124,
          "duration": 0.023255813953483084
        },
        {
          "name": "C#5",
          "midi": 73,
          "time": 204.87209302322196,
          "velocity": 0.3228346456692913,
          "duration": 0.023255813953483084
        },
        {
          "name": "F7",
          "midi": 101,
          "time": 204.87209302322196,
          "velocity": 0.07086614173228346,
          "duration": 0.04651162790696617
        },
        {
          "name": "D#3",
          "midi": 51,
          "time": 204.8837209301987,
          "velocity": 0.4566929133858268,
          "duration": 0.023255813953483084
        },
        {
          "name": "E4",
          "midi": 64,
          "time": 204.8837209301987,
          "velocity": 0.33070866141732286,
          "duration": 0.023255813953483084
        },
        {
          "name": "C7",
          "midi": 96,
          "time": 204.8837209301987,
          "velocity": 0.18110236220472442,
          "duration": 0.11627906976741542
        },
        {
          "name": "D#2",
          "midi": 39,
          "time": 204.89534883717545,
          "velocity": 0.47244094488188976,
          "duration": 0.023255813953483084
        },
        {
          "name": "D5",
          "midi": 74,
          "time": 204.89534883717545,
          "velocity": 0.33858267716535434,
          "duration": 0.034883720930224626
        },
        {
          "name": "B5",
          "midi": 83,
          "time": 204.89534883717545,
          "velocity": 0.13385826771653545,
          "duration": 0.09302325581393234
        },
        {
          "name": "C6",
          "midi": 84,
          "time": 204.89534883717545,
          "velocity": 0.2283464566929134,
          "duration": 0.09302325581393234
        },
        {
          "name": "G6",
          "midi": 91,
          "time": 204.89534883717545,
          "velocity": 0.47244094488188976,
          "duration": 1.3837209302322435
        },
        {
          "name": "G5",
          "midi": 79,
          "time": 204.9069767441522,
          "velocity": 0.4881889763779528,
          "duration": 0.406976744185954
        },
        {
          "name": "E6",
          "midi": 88,
          "time": 204.9069767441522,
          "velocity": 0.14960629921259844,
          "duration": 0.06976744186044925
        },
        {
          "name": "C#5",
          "midi": 73,
          "time": 204.91860465112893,
          "velocity": 0.15748031496062992,
          "duration": 0.034883720930224626
        },
        {
          "name": "D7",
          "midi": 98,
          "time": 204.91860465112893,
          "velocity": 0.3937007874015748,
          "duration": 1.4418604651159512
        },
        {
          "name": "A#3",
          "midi": 58,
          "time": 204.93023255810567,
          "velocity": 0.33858267716535434,
          "duration": 0.034883720930224626
        },
        {
          "name": "F4",
          "midi": 65,
          "time": 204.93023255810567,
          "velocity": 0.2755905511811024,
          "duration": 0.023255813953483084
        },
        {
          "name": "C#6",
          "midi": 85,
          "time": 204.93023255810567,
          "velocity": 0.2755905511811024,
          "duration": 0.023255813953483084
        },
        {
          "name": "D5",
          "midi": 74,
          "time": 204.9418604650824,
          "velocity": 0.2755905511811024,
          "duration": 0.2209302325580893
        },
        {
          "name": "D3",
          "midi": 50,
          "time": 204.95348837205916,
          "velocity": 0.5275590551181102,
          "duration": 0.15116279069764005
        },
        {
          "name": "C5",
          "midi": 72,
          "time": 204.95348837205916,
          "velocity": 0.2125984251968504,
          "duration": 0.09302325581393234
        },
        {
          "name": "F#4",
          "midi": 66,
          "time": 204.9651162790359,
          "velocity": 0.3779527559055118,
          "duration": 0.3604651162789878
        },
        {
          "name": "E5",
          "midi": 76,
          "time": 204.9651162790359,
          "velocity": 0.11023622047244094,
          "duration": 0.06976744186044925
        },
        {
          "name": "C#6",
          "midi": 85,
          "time": 204.9651162790359,
          "velocity": 0.15748031496062992,
          "duration": 0.04651162790696617
        },
        {
          "name": "A#3",
          "midi": 58,
          "time": 204.98837209298938,
          "velocity": 0.2677165354330709,
          "duration": 0.06976744186044925
        },
        {
          "name": "F7",
          "midi": 101,
          "time": 204.99999999996612,
          "velocity": 0.11811023622047244,
          "duration": 0.05813953488370771
        },
        {
          "name": "E7",
          "midi": 100,
          "time": 205.0232558139196,
          "velocity": 0.1968503937007874,
          "duration": 0.279069767441797
        },
        {
          "name": "E6",
          "midi": 88,
          "time": 205.03488372089635,
          "velocity": 0.12598425196850394,
          "duration": 0.034883720930224626
        },
        {
          "name": "C5",
          "midi": 72,
          "time": 205.05813953484983,
          "velocity": 0.12598425196850394,
          "duration": 0.034883720930224626
        },
        {
          "name": "C#6",
          "midi": 85,
          "time": 205.0813953488033,
          "velocity": 0.13385826771653545,
          "duration": 0.06976744186044925
        },
        {
          "name": "C#2",
          "midi": 37,
          "time": 205.09302325578005,
          "velocity": 0.5354330708661418,
          "duration": 0.023255813953483084
        },
        {
          "name": "D#4",
          "midi": 63,
          "time": 205.09302325578005,
          "velocity": 0.23622047244094488,
          "duration": 0.023255813953483084
        },
        {
          "name": "E5",
          "midi": 76,
          "time": 205.09302325578005,
          "velocity": 0.2755905511811024,
          "duration": 0.2209302325580893
        },
        {
          "name": "B5",
          "midi": 83,
          "time": 205.1046511627568,
          "velocity": 0.11811023622047244,
          "duration": 0.05813953488370771
        },
        {
          "name": "C7",
          "midi": 96,
          "time": 205.1046511627568,
          "velocity": 0.10236220472440945,
          "duration": 0.034883720930224626
        },
        {
          "name": "D3",
          "midi": 50,
          "time": 205.11627906973354,
          "velocity": 0.5039370078740157,
          "duration": 0.023255813953483084
        },
        {
          "name": "A2",
          "midi": 45,
          "time": 205.13953488368702,
          "velocity": 0.4015748031496063,
          "duration": 0.023255813953483084
        },
        {
          "name": "C5",
          "midi": 72,
          "time": 205.13953488368702,
          "velocity": 0.16535433070866143,
          "duration": 0.04651162790696617
        },
        {
          "name": "D4",
          "midi": 62,
          "time": 205.15116279066376,
          "velocity": 0.2283464566929134,
          "duration": 0.034883720930224626
        },
        {
          "name": "F7",
          "midi": 101,
          "time": 205.15116279066376,
          "velocity": 0.11023622047244094,
          "duration": 0.10465116279067388
        },
        {
          "name": "A#3",
          "midi": 58,
          "time": 205.1627906976405,
          "velocity": 0.33858267716535434,
          "duration": 0.023255813953483084
        },
        {
          "name": "D6",
          "midi": 86,
          "time": 205.1627906976405,
          "velocity": 0.09448818897637795,
          "duration": 0.05813953488370771
        },
        {
          "name": "A3",
          "midi": 57,
          "time": 205.186046511594,
          "velocity": 0.3464566929133858,
          "duration": 0.10465116279067388
        },
        {
          "name": "F#2",
          "midi": 42,
          "time": 205.19767441857073,
          "velocity": 0.47244094488188976,
          "duration": 0.034883720930224626
        },
        {
          "name": "C7",
          "midi": 96,
          "time": 205.19767441857073,
          "velocity": 0.11023622047244094,
          "duration": 0.0813953488371908
        },
        {
          "name": "C#6",
          "midi": 85,
          "time": 205.20930232554747,
          "velocity": 0.12598425196850394,
          "duration": 0.05813953488370771
        },
        {
          "name": "D3",
          "midi": 50,
          "time": 205.23255813950095,
          "velocity": 0.3937007874015748,
          "duration": 0.023255813953483084
        },
        {
          "name": "D#3",
          "midi": 51,
          "time": 205.25581395345444,
          "velocity": 0.4251968503937008,
          "duration": 0.023255813953483084
        },
        {
          "name": "C5",
          "midi": 72,
          "time": 205.26744186043118,
          "velocity": 0.25984251968503935,
          "duration": 0.06976744186044925
        },
        {
          "name": "E2",
          "midi": 40,
          "time": 205.27906976740792,
          "velocity": 0.41732283464566927,
          "duration": 0.023255813953483084
        },
        {
          "name": "D3",
          "midi": 50,
          "time": 205.27906976740792,
          "velocity": 0.4566929133858268,
          "duration": 0.023255813953483084
        },
        {
          "name": "A#3",
          "midi": 58,
          "time": 205.29069767438466,
          "velocity": 0.23622047244094488,
          "duration": 0.023255813953483084
        },
        {
          "name": "F#6",
          "midi": 90,
          "time": 205.29069767438466,
          "velocity": 0.12598425196850394,
          "duration": 0.05813953488370771
        },
        {
          "name": "F7",
          "midi": 101,
          "time": 205.29069767438466,
          "velocity": 0.07874015748031496,
          "duration": 0.034883720930224626
        },
        {
          "name": "D#3",
          "midi": 51,
          "time": 205.3023255813614,
          "velocity": 0.5354330708661418,
          "duration": 0.023255813953483084
        },
        {
          "name": "D4",
          "midi": 62,
          "time": 205.3023255813614,
          "velocity": 0.28346456692913385,
          "duration": 0.034883720930224626
        },
        {
          "name": "F#1",
          "midi": 30,
          "time": 205.31395348833814,
          "velocity": 0.5354330708661418,
          "duration": 0.011627906976741542
        },
        {
          "name": "C3",
          "midi": 48,
          "time": 205.32558139531488,
          "velocity": 0.6141732283464567,
          "duration": 0.011627906976741542
        },
        {
          "name": "B3",
          "midi": 59,
          "time": 205.32558139531488,
          "velocity": 0.3779527559055118,
          "duration": 0.06976744186044925
        },
        {
          "name": "F#5",
          "midi": 78,
          "time": 205.32558139531488,
          "velocity": 0.2992125984251969,
          "duration": 0.023255813953483084
        },
        {
          "name": "G5",
          "midi": 79,
          "time": 205.32558139531488,
          "velocity": 0.48031496062992124,
          "duration": 0.2209302325580893
        },
        {
          "name": "C#7",
          "midi": 97,
          "time": 205.32558139531488,
          "velocity": 0.2047244094488189,
          "duration": 0.05813953488370771
        },
        {
          "name": "D3",
          "midi": 50,
          "time": 205.33720930229163,
          "velocity": 0.5905511811023622,
          "duration": 0.011627906976741542
        },
        {
          "name": "E4",
          "midi": 64,
          "time": 205.33720930229163,
          "velocity": 0.3937007874015748,
          "duration": 0.39534883720921243
        },
        {
          "name": "E7",
          "midi": 100,
          "time": 205.33720930229163,
          "velocity": 0.08661417322834646,
          "duration": 0.034883720930224626
        },
        {
          "name": "D#3",
          "midi": 51,
          "time": 205.34883720926837,
          "velocity": 0.5118110236220472,
          "duration": 0.011627906976741542
        },
        {
          "name": "E3",
          "midi": 52,
          "time": 205.3604651162451,
          "velocity": 0.5354330708661418,
          "duration": 0.06976744186044925
        },
        {
          "name": "F2",
          "midi": 41,
          "time": 205.37209302322185,
          "velocity": 0.49606299212598426,
          "duration": 0.034883720930224626
        },
        {
          "name": "F#6",
          "midi": 90,
          "time": 205.3837209301986,
          "velocity": 0.11811023622047244,
          "duration": 0.034883720930224626
        },
        {
          "name": "B3",
          "midi": 59,
          "time": 205.40697674415208,
          "velocity": 0.33858267716535434,
          "duration": 0.034883720930224626
        },
        {
          "name": "A4",
          "midi": 69,
          "time": 205.40697674415208,
          "velocity": 0.2677165354330709,
          "duration": 0.11627906976741542
        },
        {
          "name": "F3",
          "midi": 53,
          "time": 205.43023255810556,
          "velocity": 0.5511811023622047,
          "duration": 0.023255813953483084
        },
        {
          "name": "E3",
          "midi": 52,
          "time": 205.45348837205904,
          "velocity": 0.5039370078740157,
          "duration": 0.023255813953483084
        },
        {
          "name": "B4",
          "midi": 71,
          "time": 205.46511627903578,
          "velocity": 0.2047244094488189,
          "duration": 0.034883720930224626
        },
        {
          "name": "F#6",
          "midi": 90,
          "time": 205.46511627903578,
          "velocity": 0.12598425196850394,
          "duration": 0.034883720930224626
        },
        {
          "name": "A5",
          "midi": 81,
          "time": 205.47674418601252,
          "velocity": 0.3700787401574803,
          "duration": 0.5813953488370771
        },
        {
          "name": "C#7",
          "midi": 97,
          "time": 205.47674418601252,
          "velocity": 0.12598425196850394,
          "duration": 0.12790697674415696
        },
        {
          "name": "E3",
          "midi": 52,
          "time": 205.51162790694275,
          "velocity": 0.2992125984251969,
          "duration": 0.023255813953483084
        },
        {
          "name": "A3",
          "midi": 57,
          "time": 205.51162790694275,
          "velocity": 0.30708661417322836,
          "duration": 0.04651162790696617
        },
        {
          "name": "B4",
          "midi": 71,
          "time": 205.51162790694275,
          "velocity": 0.3228346456692913,
          "duration": 0.2209302325580893
        },
        {
          "name": "G4",
          "midi": 67,
          "time": 205.5232558139195,
          "velocity": 0.48031496062992124,
          "duration": 0.24418604651157239
        },
        {
          "name": "E2",
          "midi": 40,
          "time": 205.53488372089623,
          "velocity": 0.5196850393700787,
          "duration": 0.011627906976741542
        },
        {
          "name": "F#5",
          "midi": 78,
          "time": 205.53488372089623,
          "velocity": 0.3937007874015748,
          "duration": 0.05813953488370771
        },
        {
          "name": "A6",
          "midi": 93,
          "time": 205.53488372089623,
          "velocity": 0.44881889763779526,
          "duration": 0.29069767441853855
        },
        {
          "name": "E7",
          "midi": 100,
          "time": 205.54651162787297,
          "velocity": 0.2755905511811024,
          "duration": 0.279069767441797
        },
        {
          "name": "A#3",
          "midi": 58,
          "time": 205.55813953484972,
          "velocity": 0.29133858267716534,
          "duration": 0.023255813953483084
        },
        {
          "name": "F2",
          "midi": 41,
          "time": 205.5813953488032,
          "velocity": 0.5118110236220472,
          "duration": 0.023255813953483084
        },
        {
          "name": "B3",
          "midi": 59,
          "time": 205.5813953488032,
          "velocity": 0.2992125984251969,
          "duration": 0.023255813953483084
        },
        {
          "name": "D6",
          "midi": 86,
          "time": 205.59302325577994,
          "velocity": 0.10236220472440945,
          "duration": 0.06976744186044925
        },
        {
          "name": "E3",
          "midi": 52,
          "time": 205.60465116275668,
          "velocity": 0.5590551181102362,
          "duration": 0.034883720930224626
        },
        {
          "name": "C4",
          "midi": 60,
          "time": 205.60465116275668,
          "velocity": 0.29133858267716534,
          "duration": 0.023255813953483084
        },
        {
          "name": "F#5",
          "midi": 78,
          "time": 205.62790697671016,
          "velocity": 0.2755905511811024,
          "duration": 0.05813953488370771
        },
        {
          "name": "F3",
          "midi": 53,
          "time": 205.6395348836869,
          "velocity": 0.5511811023622047,
          "duration": 0.011627906976741542
        },
        {
          "name": "B3",
          "midi": 59,
          "time": 205.6395348836869,
          "velocity": 0.2755905511811024,
          "duration": 0.09302325581393234
        },
        {
          "name": "D#3",
          "midi": 51,
          "time": 205.65116279066365,
          "velocity": 0.5354330708661418,
          "duration": 0.011627906976741542
        },
        {
          "name": "E3",
          "midi": 52,
          "time": 205.6627906976404,
          "velocity": 0.5118110236220472,
          "duration": 0.011627906976741542
        },
        {
          "name": "F3",
          "midi": 53,
          "time": 205.67441860461713,
          "velocity": 0.5196850393700787,
          "duration": 0.011627906976741542
        },
        {
          "name": "E3",
          "midi": 52,
          "time": 205.68604651159387,
          "velocity": 0.5039370078740157,
          "duration": 0.04651162790696617
        },
        {
          "name": "E2",
          "midi": 40,
          "time": 205.6976744185706,
          "velocity": 0.5118110236220472,
          "duration": 0.034883720930224626
        },
        {
          "name": "D5",
          "midi": 74,
          "time": 205.73255813950084,
          "velocity": 0.3937007874015748,
          "duration": 0.04651162790696617
        },
        {
          "name": "E5",
          "midi": 76,
          "time": 205.74418604647758,
          "velocity": 0.29133858267716534,
          "duration": 0.1395348837208985
        },
        {
          "name": "C6",
          "midi": 84,
          "time": 205.74418604647758,
          "velocity": 0.14173228346456693,
          "duration": 0.05813953488370771
        },
        {
          "name": "C#6",
          "midi": 85,
          "time": 205.74418604647758,
          "velocity": 0.08661417322834646,
          "duration": 0.04651162790696617
        },
        {
          "name": "F#6",
          "midi": 90,
          "time": 205.74418604647758,
          "velocity": 0.12598425196850394,
          "duration": 0.06976744186044925
        },
        {
          "name": "A#6",
          "midi": 94,
          "time": 205.74418604647758,
          "velocity": 0.07874015748031496,
          "duration": 0.034883720930224626
        },
        {
          "name": "D#7",
          "midi": 99,
          "time": 205.74418604647758,
          "velocity": 0.15748031496062992,
          "duration": 0.1395348837208985
        },
        {
          "name": "F7",
          "midi": 101,
          "time": 205.74418604647758,
          "velocity": 0.14173228346456693,
          "duration": 0.2209302325580893
        },
        {
          "name": "A#3",
          "midi": 58,
          "time": 205.75581395345432,
          "velocity": 0.4566929133858268,
          "duration": 0.023255813953483084
        },
        {
          "name": "E4",
          "midi": 64,
          "time": 205.75581395345432,
          "velocity": 0.3543307086614173,
          "duration": 0.034883720930224626
        },
        {
          "name": "B4",
          "midi": 71,
          "time": 205.75581395345432,
          "velocity": 0.2677165354330709,
          "duration": 0.06976744186044925
        },
        {
          "name": "B6",
          "midi": 95,
          "time": 205.75581395345432,
          "velocity": 0.4015748031496063,
          "duration": 2.441860465115724
        },
        {
          "name": "C#7",
          "midi": 97,
          "time": 205.75581395345432,
          "velocity": 0.23622047244094488,
          "duration": 0.26744186046505547
        },
        {
          "name": "F#7",
          "midi": 102,
          "time": 205.75581395345432,
          "velocity": 0.18110236220472442,
          "duration": 0.24418604651157239
        },
        {
          "name": "F#3",
          "midi": 54,
          "time": 205.7790697674078,
          "velocity": 0.2755905511811024,
          "duration": 0.023255813953483084
        },
        {
          "name": "B3",
          "midi": 59,
          "time": 205.7790697674078,
          "velocity": 0.36220472440944884,
          "duration": 0.023255813953483084
        },
        {
          "name": "D#6",
          "midi": 87,
          "time": 205.7790697674078,
          "velocity": 0.14960629921259844,
          "duration": 0.19767441860460622
        },
        {
          "name": "F#2",
          "midi": 42,
          "time": 205.79069767438455,
          "velocity": 0.48031496062992124,
          "duration": 0.034883720930224626
        },
        {
          "name": "C5",
          "midi": 72,
          "time": 205.8023255813613,
          "velocity": 0.1889763779527559,
          "duration": 0.034883720930224626
        },
        {
          "name": "C3",
          "midi": 48,
          "time": 205.81395348833803,
          "velocity": 0.4094488188976378,
          "duration": 0.023255813953483084
        },
        {
          "name": "D5",
          "midi": 74,
          "time": 205.81395348833803,
          "velocity": 0.23622047244094488,
          "duration": 0.12790697674415696
        },
        {
          "name": "E4",
          "midi": 64,
          "time": 205.82558139531477,
          "velocity": 0.30708661417322836,
          "duration": 0.04651162790696617
        },
        {
          "name": "C5",
          "midi": 72,
          "time": 205.860465116245,
          "velocity": 0.16535433070866143,
          "duration": 0.034883720930224626
        },
        {
          "name": "B3",
          "midi": 59,
          "time": 205.87209302322174,
          "velocity": 0.30708661417322836,
          "duration": 0.023255813953483084
        },
        {
          "name": "F3",
          "midi": 53,
          "time": 205.88372093019848,
          "velocity": 0.3700787401574803,
          "duration": 0.034883720930224626
        },
        {
          "name": "G4",
          "midi": 67,
          "time": 205.88372093019848,
          "velocity": 0.1968503937007874,
          "duration": 0.04651162790696617
        },
        {
          "name": "F2",
          "midi": 41,
          "time": 205.89534883717522,
          "velocity": 0.5196850393700787,
          "duration": 0.011627906976741542
        },
        {
          "name": "B4",
          "midi": 71,
          "time": 205.89534883717522,
          "velocity": 0.2204724409448819,
          "duration": 0.034883720930224626
        },
        {
          "name": "E2",
          "midi": 40,
          "time": 205.90697674415196,
          "velocity": 0.4881889763779528,
          "duration": 0.034883720930224626
        },
        {
          "name": "C4",
          "midi": 60,
          "time": 205.93023255810544,
          "velocity": 0.2440944881889764,
          "duration": 0.034883720930224626
        },
        {
          "name": "B4",
          "midi": 71,
          "time": 205.9418604650822,
          "velocity": 0.30708661417322836,
          "duration": 0.12790697674415696
        },
        {
          "name": "F#5",
          "midi": 78,
          "time": 205.95348837205893,
          "velocity": 0.33070866141732286,
          "duration": 0.11627906976741542
        },
        {
          "name": "G#2",
          "midi": 44,
          "time": 205.96511627903567,
          "velocity": 0.5118110236220472,
          "duration": 0.011627906976741542
        },
        {
          "name": "E5",
          "midi": 76,
          "time": 205.96511627903567,
          "velocity": 0.2755905511811024,
          "duration": 0.15116279069764005
        },
        {
          "name": "D3",
          "midi": 50,
          "time": 205.9767441860124,
          "velocity": 0.5590551181102362,
          "duration": 0.011627906976741542
        },
        {
          "name": "B3",
          "midi": 59,
          "time": 205.9767441860124,
          "velocity": 0.3779527559055118,
          "duration": 0.023255813953483084
        },
        {
          "name": "G4",
          "midi": 67,
          "time": 205.9767441860124,
          "velocity": 0.3464566929133858,
          "duration": 0.2209302325580893
        },
        {
          "name": "E3",
          "midi": 52,
          "time": 205.98837209298915,
          "velocity": 0.5275590551181102,
          "duration": 0.09302325581393234
        },
        {
          "name": "E7",
          "midi": 100,
          "time": 205.98837209298915,
          "velocity": 0.10236220472440945,
          "duration": 0.034883720930224626
        },
        {
          "name": "B3",
          "midi": 59,
          "time": 206.01162790694264,
          "velocity": 0.4015748031496063,
          "duration": 0.10465116279067388
        },
        {
          "name": "F#7",
          "midi": 102,
          "time": 206.02325581391938,
          "velocity": 0.2677165354330709,
          "duration": 1.3372093023252773
        },
        {
          "name": "E2",
          "midi": 40,
          "time": 206.03488372089612,
          "velocity": 0.49606299212598426,
          "duration": 0.023255813953483084
        },
        {
          "name": "B2",
          "midi": 47,
          "time": 206.06976744182634,
          "velocity": 0.4645669291338583,
          "duration": 0.023255813953483084
        },
        {
          "name": "G5",
          "midi": 79,
          "time": 206.06976744182634,
          "velocity": 0.3779527559055118,
          "duration": 0.3372093023255047
        },
        {
          "name": "E4",
          "midi": 64,
          "time": 206.08139534880308,
          "velocity": 0.09448818897637795,
          "duration": 0.034883720930224626
        },
        {
          "name": "B4",
          "midi": 71,
          "time": 206.1162790697333,
          "velocity": 0.08661417322834646,
          "duration": 0.06976744186044925
        },
        {
          "name": "A5",
          "midi": 81,
          "time": 206.12790697671005,
          "velocity": 0.08661417322834646,
          "duration": 0.04651162790696617
        },
        {
          "name": "B5",
          "midi": 83,
          "time": 206.16279069764028,
          "velocity": 0.2125984251968504,
          "duration": 0.0813953488371908
        },
        {
          "name": "D6",
          "midi": 86,
          "time": 206.16279069764028,
          "velocity": 0.08661417322834646,
          "duration": 0.034883720930224626
        },
        {
          "name": "C3",
          "midi": 48,
          "time": 206.17441860461702,
          "velocity": 0.5669291338582677,
          "duration": 0.023255813953483084
        },
        {
          "name": "B3",
          "midi": 59,
          "time": 206.17441860461702,
          "velocity": 0.4094488188976378,
          "duration": 0.15116279069764005
        },
        {
          "name": "E4",
          "midi": 64,
          "time": 206.18604651159376,
          "velocity": 0.3464566929133858,
          "duration": 0.406976744185954
        },
        {
          "name": "C#7",
          "midi": 97,
          "time": 206.18604651159376,
          "velocity": 0.1968503937007874,
          "duration": 0.05813953488370771
        },
        {
          "name": "D3",
          "midi": 50,
          "time": 206.1976744185705,
          "velocity": 0.5433070866141733,
          "duration": 0.011627906976741542
        },
        {
          "name": "E2",
          "midi": 40,
          "time": 206.20930232554724,
          "velocity": 0.44881889763779526,
          "duration": 0.023255813953483084
        },
        {
          "name": "E3",
          "midi": 52,
          "time": 206.20930232554724,
          "velocity": 0.47244094488188976,
          "duration": 0.023255813953483084
        },
        {
          "name": "G4",
          "midi": 67,
          "time": 206.20930232554724,
          "velocity": 0.14960629921259844,
          "duration": 0.034883720930224626
        },
        {
          "name": "E2",
          "midi": 40,
          "time": 206.24418604647747,
          "velocity": 0.49606299212598426,
          "duration": 0.034883720930224626
        },
        {
          "name": "E3",
          "midi": 52,
          "time": 206.24418604647747,
          "velocity": 0.5669291338582677,
          "duration": 0.09302325581393234
        },
        {
          "name": "B2",
          "midi": 47,
          "time": 206.29069767438443,
          "velocity": 0.5118110236220472,
          "duration": 0.011627906976741542
        },
        {
          "name": "G7",
          "midi": 103,
          "time": 206.29069767438443,
          "velocity": 0.11023622047244094,
          "duration": 0.04651162790696617
        },
        {
          "name": "C3",
          "midi": 48,
          "time": 206.3372093022914,
          "velocity": 0.5118110236220472,
          "duration": 0.011627906976741542
        },
        {
          "name": "F3",
          "midi": 53,
          "time": 206.3372093022914,
          "velocity": 0.5275590551181102,
          "duration": 0.011627906976741542
        },
        {
          "name": "A5",
          "midi": 81,
          "time": 206.3372093022914,
          "velocity": 0.14960629921259844,
          "duration": 0.06976744186044925
        },
        {
          "name": "B2",
          "midi": 47,
          "time": 206.34883720926814,
          "velocity": 0.5669291338582677,
          "duration": 0.034883720930224626
        },
        {
          "name": "C3",
          "midi": 48,
          "time": 206.38372093019836,
          "velocity": 0.5590551181102362,
          "duration": 0.011627906976741542
        },
        {
          "name": "G4",
          "midi": 67,
          "time": 206.38372093019836,
          "velocity": 0.4566929133858268,
          "duration": 0.4186046511626955
        },
        {
          "name": "F2",
          "midi": 41,
          "time": 206.3953488371751,
          "velocity": 0.5354330708661418,
          "duration": 0.011627906976741542
        },
        {
          "name": "B2",
          "midi": 47,
          "time": 206.3953488371751,
          "velocity": 0.5196850393700787,
          "duration": 0.023255813953483084
        },
        {
          "name": "F#5",
          "midi": 78,
          "time": 206.3953488371751,
          "velocity": 0.3543307086614173,
          "duration": 0.023255813953483084
        },
        {
          "name": "D7",
          "midi": 98,
          "time": 206.3953488371751,
          "velocity": 0.2204724409448819,
          "duration": 0.39534883720921243
        },
        {
          "name": "E2",
          "midi": 40,
          "time": 206.40697674415185,
          "velocity": 0.4881889763779528,
          "duration": 0.023255813953483084
        },
        {
          "name": "C#7",
          "midi": 97,
          "time": 206.40697674415185,
          "velocity": 0.25984251968503935,
          "duration": 0.7674418604649418
        },
        {
          "name": "D#7",
          "midi": 99,
          "time": 206.40697674415185,
          "velocity": 0.07874015748031496,
          "duration": 0.05813953488370771
        },
        {
          "name": "C3",
          "midi": 48,
          "time": 206.4186046511286,
          "velocity": 0.5433070866141733,
          "duration": 0.011627906976741542
        },
        {
          "name": "B2",
          "midi": 47,
          "time": 206.43023255810533,
          "velocity": 0.5590551181102362,
          "duration": 0.011627906976741542
        },
        {
          "name": "D6",
          "midi": 86,
          "time": 206.43023255810533,
          "velocity": 0.16535433070866143,
          "duration": 0.09302325581393234
        },
        {
          "name": "A2",
          "midi": 45,
          "time": 206.44186046508207,
          "velocity": 0.5669291338582677,
          "duration": 0.011627906976741542
        },
        {
          "name": "D#6",
          "midi": 87,
          "time": 206.44186046508207,
          "velocity": 0.13385826771653545,
          "duration": 0.15116279069764005
        },
        {
          "name": "F#2",
          "midi": 42,
          "time": 206.4534883720588,
          "velocity": 0.5118110236220472,
          "duration": 0.011627906976741542
        },
        {
          "name": "B2",
          "midi": 47,
          "time": 206.4534883720588,
          "velocity": 0.5275590551181102,
          "duration": 0.011627906976741542
        },
        {
          "name": "A#2",
          "midi": 46,
          "time": 206.46511627903556,
          "velocity": 0.5511811023622047,
          "duration": 0.011627906976741542
        },
        {
          "name": "F3",
          "midi": 53,
          "time": 206.48837209298904,
          "velocity": 0.36220472440944884,
          "duration": 0.023255813953483084
        },
        {
          "name": "C7",
          "midi": 96,
          "time": 206.48837209298904,
          "velocity": 0.12598425196850394,
          "duration": 0.034883720930224626
        },
        {
          "name": "F7",
          "midi": 101,
          "time": 206.51162790694252,
          "velocity": 0.2440944881889764,
          "duration": 0.406976744185954
        },
        {
          "name": "B2",
          "midi": 47,
          "time": 206.5581395348495,
          "velocity": 0.36220472440944884,
          "duration": 0.034883720930224626
        },
        {
          "name": "D6",
          "midi": 86,
          "time": 206.56976744182623,
          "velocity": 0.13385826771653545,
          "duration": 0.034883720930224626
        },
        {
          "name": "C4",
          "midi": 60,
          "time": 206.58139534880297,
          "velocity": 0.48031496062992124,
          "duration": 0.04651162790696617
        },
        {
          "name": "A4",
          "midi": 69,
          "time": 206.5930232557797,
          "velocity": 0.31496062992125984,
          "duration": 0.023255813953483084
        },
        {
          "name": "D5",
          "midi": 74,
          "time": 206.5930232557797,
          "velocity": 0.3858267716535433,
          "duration": 0.023255813953483084
        },
        {
          "name": "F#6",
          "midi": 90,
          "time": 206.5930232557797,
          "velocity": 0.15748031496062992,
          "duration": 0.0813953488371908
        },
        {
          "name": "C7",
          "midi": 96,
          "time": 206.5930232557797,
          "velocity": 0.11811023622047244,
          "duration": 0.034883720930224626
        },
        {
          "name": "E5",
          "midi": 76,
          "time": 206.60465116275645,
          "velocity": 0.2047244094488189,
          "duration": 0.06976744186044925
        },
        {
          "name": "D#7",
          "midi": 99,
          "time": 206.60465116275645,
          "velocity": 0.25196850393700787,
          "duration": 0.29069767441853855
        },
        {
          "name": "E7",
          "midi": 100,
          "time": 206.60465116275645,
          "velocity": 0.14960629921259844,
          "duration": 0.1627906976743816
        },
        {
          "name": "G#2",
          "midi": 44,
          "time": 206.6162790697332,
          "velocity": 0.48031496062992124,
          "duration": 0.023255813953483084
        },
        {
          "name": "E4",
          "midi": 64,
          "time": 206.6162790697332,
          "velocity": 0.2755905511811024,
          "duration": 0.023255813953483084
        },
        {
          "name": "C#5",
          "midi": 73,
          "time": 206.6162790697332,
          "velocity": 0.31496062992125984,
          "duration": 0.04651162790696617
        },
        {
          "name": "B3",
          "midi": 59,
          "time": 206.62790697670994,
          "velocity": 0.2677165354330709,
          "duration": 0.023255813953483084
        },
        {
          "name": "B4",
          "midi": 71,
          "time": 206.62790697670994,
          "velocity": 0.3700787401574803,
          "duration": 0.3372093023255047
        },
        {
          "name": "A#6",
          "midi": 94,
          "time": 206.62790697670994,
          "velocity": 0.12598425196850394,
          "duration": 0.034883720930224626
        },
        {
          "name": "D#6",
          "midi": 87,
          "time": 206.63953488368668,
          "velocity": 0.09448818897637795,
          "duration": 0.034883720930224626
        },
        {
          "name": "F#5",
          "midi": 78,
          "time": 206.65116279066342,
          "velocity": 0.3464566929133858,
          "duration": 0.06976744186044925
        },
        {
          "name": "A3",
          "midi": 57,
          "time": 206.66279069764016,
          "velocity": 0.29133858267716534,
          "duration": 0.023255813953483084
        },
        {
          "name": "E4",
          "midi": 64,
          "time": 206.66279069764016,
          "velocity": 0.2440944881889764,
          "duration": 0.034883720930224626
        },
        {
          "name": "D5",
          "midi": 74,
          "time": 206.66279069764016,
          "velocity": 0.2047244094488189,
          "duration": 0.09302325581393234
        },
        {
          "name": "D6",
          "midi": 86,
          "time": 206.66279069764016,
          "velocity": 0.2047244094488189,
          "duration": 0.0813953488371908
        },
        {
          "name": "G#6",
          "midi": 92,
          "time": 206.66279069764016,
          "velocity": 0.13385826771653545,
          "duration": 0.11627906976741542
        },
        {
          "name": "F2",
          "midi": 41,
          "time": 206.6744186046169,
          "velocity": 0.4330708661417323,
          "duration": 0.023255813953483084
        },
        {
          "name": "A#3",
          "midi": 58,
          "time": 206.70930232554713,
          "velocity": 0.29133858267716534,
          "duration": 0.034883720930224626
        },
        {
          "name": "D#3",
          "midi": 51,
          "time": 206.7325581395006,
          "velocity": 0.36220472440944884,
          "duration": 0.023255813953483084
        },
        {
          "name": "E4",
          "midi": 64,
          "time": 206.74418604647735,
          "velocity": 0.29133858267716534,
          "duration": 0.3023255813952801
        },
        {
          "name": "E3",
          "midi": 52,
          "time": 206.7558139534541,
          "velocity": 0.3700787401574803,
          "duration": 0.06976744186044925
        },
        {
          "name": "F#5",
          "midi": 78,
          "time": 206.7558139534541,
          "velocity": 0.1889763779527559,
          "duration": 0.034883720930224626
        },
        {
          "name": "A#6",
          "midi": 94,
          "time": 206.76744186043084,
          "velocity": 0.08661417322834646,
          "duration": 0.10465116279067388
        },
        {
          "name": "G#4",
          "midi": 68,
          "time": 206.80232558136106,
          "velocity": 0.2283464566929134,
          "duration": 0.023255813953483084
        },
        {
          "name": "F#5",
          "midi": 78,
          "time": 206.8139534883378,
          "velocity": 0.36220472440944884,
          "duration": 0.10465116279067388
        },
        {
          "name": "D7",
          "midi": 98,
          "time": 206.8139534883378,
          "velocity": 0.2283464566929134,
          "duration": 0.09302325581393234
        },
        {
          "name": "E7",
          "midi": 100,
          "time": 206.8139534883378,
          "velocity": 0.14960629921259844,
          "duration": 0.05813953488370771
        },
        {
          "name": "C2",
          "midi": 36,
          "time": 206.82558139531454,
          "velocity": 0.5196850393700787,
          "duration": 0.011627906976741542
        },
        {
          "name": "G#2",
          "midi": 44,
          "time": 206.82558139531454,
          "velocity": 0.49606299212598426,
          "duration": 0.023255813953483084
        },
        {
          "name": "G#1",
          "midi": 32,
          "time": 206.83720930229128,
          "velocity": 0.5118110236220472,
          "duration": 0.011627906976741542
        },
        {
          "name": "G4",
          "midi": 67,
          "time": 206.83720930229128,
          "velocity": 0.3228346456692913,
          "duration": 0.034883720930224626
        },
        {
          "name": "G6",
          "midi": 91,
          "time": 206.83720930229128,
          "velocity": 0.1968503937007874,
          "duration": 0.0813953488371908
        },
        {
          "name": "B3",
          "midi": 59,
          "time": 206.84883720926803,
          "velocity": 0.4094488188976378,
          "duration": 0.18604651162786467
        },
        {
          "name": "G#6",
          "midi": 92,
          "time": 206.86046511624477,
          "velocity": 0.11023622047244094,
          "duration": 0.05813953488370771
        },
        {
          "name": "C7",
          "midi": 96,
          "time": 206.86046511624477,
          "velocity": 0.07086614173228346,
          "duration": 0.034883720930224626
        },
        {
          "name": "G#2",
          "midi": 44,
          "time": 206.8720930232215,
          "velocity": 0.48031496062992124,
          "duration": 0.023255813953483084
        },
        {
          "name": "F3",
          "midi": 53,
          "time": 206.895348837175,
          "velocity": 0.4015748031496063,
          "duration": 0.023255813953483084
        },
        {
          "name": "G#4",
          "midi": 68,
          "time": 206.895348837175,
          "velocity": 0.18110236220472442,
          "duration": 0.04651162790696617
        },
        {
          "name": "A5",
          "midi": 81,
          "time": 206.895348837175,
          "velocity": 0.11023622047244094,
          "duration": 0.0813953488371908
        },
        {
          "name": "D6",
          "midi": 86,
          "time": 206.895348837175,
          "velocity": 0.08661417322834646,
          "duration": 0.04651162790696617
        },
        {
          "name": "F2",
          "midi": 41,
          "time": 206.90697674415173,
          "velocity": 0.5433070866141733,
          "duration": 0.0813953488371908
        },
        {
          "name": "G5",
          "midi": 79,
          "time": 206.90697674415173,
          "velocity": 0.2283464566929134,
          "duration": 0.1627906976743816
        },
        {
          "name": "C7",
          "midi": 96,
          "time": 206.91860465112848,
          "velocity": 0.10236220472440945,
          "duration": 0.10465116279067388
        },
        {
          "name": "D7",
          "midi": 98,
          "time": 206.91860465112848,
          "velocity": 0.33070866141732286,
          "duration": 0.8720930232556157
        },
        {
          "name": "G4",
          "midi": 67,
          "time": 206.94186046508196,
          "velocity": 0.25984251968503935,
          "duration": 0.10465116279067388
        },
        {
          "name": "D6",
          "midi": 86,
          "time": 206.98837209298893,
          "velocity": 0.12598425196850394,
          "duration": 0.04651162790696617
        },
        {
          "name": "D2",
          "midi": 38,
          "time": 206.99999999996567,
          "velocity": 0.33858267716535434,
          "duration": 0.023255813953483084
        },
        {
          "name": "D#7",
          "midi": 99,
          "time": 206.99999999996567,
          "velocity": 0.10236220472440945,
          "duration": 0.034883720930224626
        },
        {
          "name": "F2",
          "midi": 41,
          "time": 207.02325581391915,
          "velocity": 0.5826771653543307,
          "duration": 0.023255813953483084
        },
        {
          "name": "C6",
          "midi": 84,
          "time": 207.02325581391915,
          "velocity": 0.14960629921259844,
          "duration": 0.05813953488370771
        },
        {
          "name": "G#4",
          "midi": 68,
          "time": 207.0348837208959,
          "velocity": 0.31496062992125984,
          "duration": 0.04651162790696617
        },
        {
          "name": "E5",
          "midi": 76,
          "time": 207.0348837208959,
          "velocity": 0.2992125984251969,
          "duration": 0.20930232558134776
        },
        {
          "name": "G#2",
          "midi": 44,
          "time": 207.04651162787263,
          "velocity": 0.6141732283464567,
          "duration": 0.011627906976741542
        },
        {
          "name": "F#5",
          "midi": 78,
          "time": 207.04651162787263,
          "velocity": 0.1968503937007874,
          "duration": 0.10465116279067388
        },
        {
          "name": "A5",
          "midi": 81,
          "time": 207.04651162787263,
          "velocity": 0.11023622047244094,
          "duration": 0.034883720930224626
        },
        {
          "name": "D#7",
          "midi": 99,
          "time": 207.04651162787263,
          "velocity": 0.13385826771653545,
          "duration": 0.04651162790696617
        },
        {
          "name": "E7",
          "midi": 100,
          "time": 207.04651162787263,
          "velocity": 0.11023622047244094,
          "duration": 0.034883720930224626
        },
        {
          "name": "F7",
          "midi": 101,
          "time": 207.04651162787263,
          "velocity": 0.10236220472440945,
          "duration": 0.034883720930224626
        },
        {
          "name": "G7",
          "midi": 103,
          "time": 207.04651162787263,
          "velocity": 0.1968503937007874,
          "duration": 0.1627906976743816
        },
        {
          "name": "G2",
          "midi": 43,
          "time": 207.05813953484937,
          "velocity": 0.5354330708661418,
          "duration": 0.011627906976741542
        },
        {
          "name": "E4",
          "midi": 64,
          "time": 207.05813953484937,
          "velocity": 0.3779527559055118,
          "duration": 0.39534883720921243
        },
        {
          "name": "B3",
          "midi": 59,
          "time": 207.08139534880286,
          "velocity": 0.3779527559055118,
          "duration": 0.023255813953483084
        },
        {
          "name": "E3",
          "midi": 52,
          "time": 207.10465116275634,
          "velocity": 0.5275590551181102,
          "duration": 0.06976744186044925
        },
        {
          "name": "G#4",
          "midi": 68,
          "time": 207.10465116275634,
          "velocity": 0.09448818897637795,
          "duration": 0.034883720930224626
        },
        {
          "name": "B3",
          "midi": 59,
          "time": 207.11627906973308,
          "velocity": 0.3543307086614173,
          "duration": 0.04651162790696617
        },
        {
          "name": "D6",
          "midi": 86,
          "time": 207.11627906973308,
          "velocity": 0.11023622047244094,
          "duration": 0.04651162790696617
        },
        {
          "name": "G5",
          "midi": 79,
          "time": 207.12790697670982,
          "velocity": 0.28346456692913385,
          "duration": 0.12790697674415696
        },
        {
          "name": "E2",
          "midi": 40,
          "time": 207.1511627906633,
          "velocity": 0.4015748031496063,
          "duration": 0.023255813953483084
        },
        {
          "name": "G#4",
          "midi": 68,
          "time": 207.1511627906633,
          "velocity": 0.2125984251968504,
          "duration": 0.05813953488370771
        },
        {
          "name": "B3",
          "midi": 59,
          "time": 207.1744186046168,
          "velocity": 0.23622047244094488,
          "duration": 0.06976744186044925
        },
        {
          "name": "B2",
          "midi": 47,
          "time": 207.19767441857027,
          "velocity": 0.2677165354330709,
          "duration": 0.023255813953483084
        },
        {
          "name": "F3",
          "midi": 53,
          "time": 207.19767441857027,
          "velocity": 0.25196850393700787,
          "duration": 0.034883720930224626
        },
        {
          "name": "G6",
          "midi": 91,
          "time": 207.19767441857027,
          "velocity": 0.2992125984251969,
          "duration": 0.6046511627905602
        },
        {
          "name": "G4",
          "midi": 67,
          "time": 207.20930232554701,
          "velocity": 0.3700787401574803,
          "duration": 0.24418604651157239
        },
        {
          "name": "C6",
          "midi": 84,
          "time": 207.22093023252376,
          "velocity": 0.08661417322834646,
          "duration": 0.04651162790696617
        },
        {
          "name": "C7",
          "midi": 96,
          "time": 207.22093023252376,
          "velocity": 0.11811023622047244,
          "duration": 0.04651162790696617
        },
        {
          "name": "D#2",
          "midi": 39,
          "time": 207.2325581395005,
          "velocity": 0.5196850393700787,
          "duration": 0.023255813953483084
        },
        {
          "name": "G#3",
          "midi": 56,
          "time": 207.24418604647724,
          "velocity": 0.2677165354330709,
          "duration": 0.023255813953483084
        },
        {
          "name": "C2",
          "midi": 36,
          "time": 207.25581395345398,
          "velocity": 0.5118110236220472,
          "duration": 0.011627906976741542
        },
        {
          "name": "C#7",
          "midi": 97,
          "time": 207.25581395345398,
          "velocity": 0.11811023622047244,
          "duration": 0.05813953488370771
        },
        {
          "name": "G#2",
          "midi": 44,
          "time": 207.26744186043072,
          "velocity": 0.4251968503937008,
          "duration": 0.023255813953483084
        },
        {
          "name": "E3",
          "midi": 52,
          "time": 207.2906976743842,
          "velocity": 0.4330708661417323,
          "duration": 0.023255813953483084
        },
        {
          "name": "B3",
          "midi": 59,
          "time": 207.2906976743842,
          "velocity": 0.33070866141732286,
          "duration": 0.034883720930224626
        },
        {
          "name": "F#5",
          "midi": 78,
          "time": 207.2906976743842,
          "velocity": 0.30708661417322836,
          "duration": 0.09302325581393234
        },
        {
          "name": "F2",
          "midi": 41,
          "time": 207.30232558136095,
          "velocity": 0.5118110236220472,
          "duration": 0.011627906976741542
        },
        {
          "name": "E3",
          "midi": 52,
          "time": 207.32558139531443,
          "velocity": 0.5511811023622047,
          "duration": 0.06976744186044925
        },
        {
          "name": "A#6",
          "midi": 94,
          "time": 207.3488372092679,
          "velocity": 0.33858267716535434,
          "duration": 0.29069767441853855
        },
        {
          "name": "F7",
          "midi": 101,
          "time": 207.3488372092679,
          "velocity": 0.1889763779527559,
          "duration": 0.2209302325580893
        },
        {
          "name": "B3",
          "midi": 59,
          "time": 207.36046511624465,
          "velocity": 0.29133858267716534,
          "duration": 0.0813953488371908
        },
        {
          "name": "C#7",
          "midi": 97,
          "time": 207.38372093019814,
          "velocity": 0.11023622047244094,
          "duration": 0.05813953488370771
        },
        {
          "name": "E2",
          "midi": 40,
          "time": 207.39534883717488,
          "velocity": 0.4330708661417323,
          "duration": 0.023255813953483084
        },
        {
          "name": "F3",
          "midi": 53,
          "time": 207.39534883717488,
          "velocity": 0.5196850393700787,
          "duration": 0.011627906976741542
        },
        {
          "name": "D6",
          "midi": 86,
          "time": 207.40697674415162,
          "velocity": 0.09448818897637795,
          "duration": 0.04651162790696617
        },
        {
          "name": "C7",
          "midi": 96,
          "time": 207.40697674415162,
          "velocity": 0.14173228346456693,
          "duration": 0.04651162790696617
        },
        {
          "name": "E3",
          "midi": 52,
          "time": 207.41860465112836,
          "velocity": 0.47244094488188976,
          "duration": 0.023255813953483084
        },
        {
          "name": "F#5",
          "midi": 78,
          "time": 207.41860465112836,
          "velocity": 0.2440944881889764,
          "duration": 0.04651162790696617
        },
        {
          "name": "E2",
          "midi": 40,
          "time": 207.4302325581051,
          "velocity": 0.5196850393700787,
          "duration": 0.011627906976741542
        },
        {
          "name": "F2",
          "midi": 41,
          "time": 207.44186046508185,
          "velocity": 0.5511811023622047,
          "duration": 0.011627906976741542
        },
        {
          "name": "A6",
          "midi": 93,
          "time": 207.44186046508185,
          "velocity": 0.2440944881889764,
          "duration": 0.05813953488370771
        },
        {
          "name": "E7",
          "midi": 100,
          "time": 207.44186046508185,
          "velocity": 0.16535433070866143,
          "duration": 0.05813953488370771
        },
        {
          "name": "G#2",
          "midi": 44,
          "time": 207.4534883720586,
          "velocity": 0.5196850393700787,
          "duration": 0.011627906976741542
        },
        {
          "name": "A#3",
          "midi": 58,
          "time": 207.4534883720586,
          "velocity": 0.47244094488188976,
          "duration": 0.034883720930224626
        },
        {
          "name": "D5",
          "midi": 74,
          "time": 207.4534883720586,
          "velocity": 0.4251968503937008,
          "duration": 0.023255813953483084
        },
        {
          "name": "E4",
          "midi": 64,
          "time": 207.46511627903533,
          "velocity": 0.4015748031496063,
          "duration": 0.04651162790696617
        },
        {
          "name": "G4",
          "midi": 67,
          "time": 207.46511627903533,
          "velocity": 0.4566929133858268,
          "duration": 0.034883720930224626
        },
        {
          "name": "A5",
          "midi": 81,
          "time": 207.46511627903533,
          "velocity": 0.28346456692913385,
          "duration": 0.24418604651157239
        },
        {
          "name": "E6",
          "midi": 88,
          "time": 207.46511627903533,
          "velocity": 0.18110236220472442,
          "duration": 0.09302325581393234
        },
        {
          "name": "C#5",
          "midi": 73,
          "time": 207.47674418601207,
          "velocity": 0.36220472440944884,
          "duration": 0.034883720930224626
        },
        {
          "name": "D6",
          "midi": 86,
          "time": 207.47674418601207,
          "velocity": 0.25196850393700787,
          "duration": 0.10465116279067388
        },
        {
          "name": "C#7",
          "midi": 97,
          "time": 207.47674418601207,
          "velocity": 0.2755905511811024,
          "duration": 0.3837209302324709
        },
        {
          "name": "F2",
          "midi": 41,
          "time": 207.4883720929888,
          "velocity": 0.4645669291338583,
          "duration": 0.023255813953483084
        },
        {
          "name": "D#3",
          "midi": 51,
          "time": 207.49999999996555,
          "velocity": 0.3543307086614173,
          "duration": 0.023255813953483084
        },
        {
          "name": "D#6",
          "midi": 87,
          "time": 207.49999999996555,
          "velocity": 0.14960629921259844,
          "duration": 0.034883720930224626
        },
        {
          "name": "G#6",
          "midi": 92,
          "time": 207.49999999996555,
          "velocity": 0.07086614173228346,
          "duration": 0.034883720930224626
        },
        {
          "name": "G#2",
          "midi": 44,
          "time": 207.5116279069423,
          "velocity": 0.5039370078740157,
          "duration": 0.034883720930224626
        },
        {
          "name": "F4",
          "midi": 65,
          "time": 207.5116279069423,
          "velocity": 0.28346456692913385,
          "duration": 0.04651162790696617
        },
        {
          "name": "D5",
          "midi": 74,
          "time": 207.52325581391904,
          "velocity": 0.2440944881889764,
          "duration": 0.1395348837208985
        },
        {
          "name": "F#7",
          "midi": 102,
          "time": 207.53488372089578,
          "velocity": 0.07086614173228346,
          "duration": 0.04651162790696617
        },
        {
          "name": "B3",
          "midi": 59,
          "time": 207.54651162787252,
          "velocity": 0.41732283464566927,
          "duration": 0.1395348837208985
        },
        {
          "name": "F2",
          "midi": 41,
          "time": 207.55813953484926,
          "velocity": 0.5433070866141733,
          "duration": 0.06976744186044925
        },
        {
          "name": "G#4",
          "midi": 68,
          "time": 207.569767441826,
          "velocity": 0.23622047244094488,
          "duration": 0.023255813953483084
        },
        {
          "name": "E4",
          "midi": 64,
          "time": 207.58139534880274,
          "velocity": 0.2992125984251969,
          "duration": 0.10465116279067388
        },
        {
          "name": "C7",
          "midi": 96,
          "time": 207.58139534880274,
          "velocity": 0.2204724409448819,
          "duration": 0.18604651162786467
        },
        {
          "name": "D3",
          "midi": 50,
          "time": 207.59302325577949,
          "velocity": 0.28346456692913385,
          "duration": 0.023255813953483084
        },
        {
          "name": "G#4",
          "midi": 68,
          "time": 207.61627906973297,
          "velocity": 0.1889763779527559,
          "duration": 0.06976744186044925
        },
        {
          "name": "E2",
          "midi": 40,
          "time": 207.6279069767097,
          "velocity": 0.3700787401574803,
          "duration": 0.023255813953483084
        },
        {
          "name": "F7",
          "midi": 101,
          "time": 207.6279069767097,
          "velocity": 0.1732283464566929,
          "duration": 0.11627906976741542
        },
        {
          "name": "F#5",
          "midi": 78,
          "time": 207.63953488368645,
          "velocity": 0.11811023622047244,
          "duration": 0.034883720930224626
        },
        {
          "name": "A#2",
          "midi": 46,
          "time": 207.6511627906632,
          "velocity": 0.3543307086614173,
          "duration": 0.023255813953483084
        },
        {
          "name": "F3",
          "midi": 53,
          "time": 207.66279069763993,
          "velocity": 0.3700787401574803,
          "duration": 0.023255813953483084
        },
        {
          "name": "A#6",
          "midi": 94,
          "time": 207.66279069763993,
          "velocity": 0.1732283464566929,
          "duration": 0.12790697674415696
        },
        {
          "name": "F#2",
          "midi": 42,
          "time": 207.67441860461668,
          "velocity": 0.5669291338582677,
          "duration": 0.04651162790696617
        },
        {
          "name": "G4",
          "midi": 67,
          "time": 207.67441860461668,
          "velocity": 0.3937007874015748,
          "duration": 0.2209302325580893
        },
        {
          "name": "F5",
          "midi": 77,
          "time": 207.67441860461668,
          "velocity": 0.2755905511811024,
          "duration": 0.023255813953483084
        },
        {
          "name": "B4",
          "midi": 71,
          "time": 207.68604651159342,
          "velocity": 0.2992125984251969,
          "duration": 0.12790697674415696
        },
        {
          "name": "F#5",
          "midi": 78,
          "time": 207.68604651159342,
          "velocity": 0.33858267716535434,
          "duration": 0.06976744186044925
        },
        {
          "name": "D6",
          "midi": 86,
          "time": 207.68604651159342,
          "velocity": 0.10236220472440945,
          "duration": 0.04651162790696617
        },
        {
          "name": "F#6",
          "midi": 90,
          "time": 207.68604651159342,
          "velocity": 0.36220472440944884,
          "duration": 0.2209302325580893
        },
        {
          "name": "E7",
          "midi": 100,
          "time": 207.68604651159342,
          "velocity": 0.13385826771653545,
          "duration": 0.04651162790696617
        },
        {
          "name": "D3",
          "midi": 50,
          "time": 207.69767441857016,
          "velocity": 0.5039370078740157,
          "duration": 0.023255813953483084
        },
        {
          "name": "E5",
          "midi": 76,
          "time": 207.69767441857016,
          "velocity": 0.33858267716535434,
          "duration": 0.1395348837208985
        },
        {
          "name": "B3",
          "midi": 59,
          "time": 207.73255813950038,
          "velocity": 0.4094488188976378,
          "duration": 0.1395348837208985
        },
        {
          "name": "D#7",
          "midi": 99,
          "time": 207.73255813950038,
          "velocity": 0.25196850393700787,
          "duration": 0.18604651162786467
        },
        {
          "name": "E3",
          "midi": 52,
          "time": 207.74418604647713,
          "velocity": 0.5118110236220472,
          "duration": 0.034883720930224626
        },
        {
          "name": "A5",
          "midi": 81,
          "time": 207.74418604647713,
          "velocity": 0.13385826771653545,
          "duration": 0.05813953488370771
        },
        {
          "name": "F3",
          "midi": 53,
          "time": 207.77906976740735,
          "velocity": 0.5275590551181102,
          "duration": 0.011627906976741542
        },
        {
          "name": "E3",
          "midi": 52,
          "time": 207.7906976743841,
          "velocity": 0.5196850393700787,
          "duration": 0.023255813953483084
        },
        {
          "name": "F#5",
          "midi": 78,
          "time": 207.7906976743841,
          "velocity": 0.23622047244094488,
          "duration": 0.10465116279067388
        },
        {
          "name": "B5",
          "midi": 83,
          "time": 207.82558139531432,
          "velocity": 0.11023622047244094,
          "duration": 0.05813953488370771
        },
        {
          "name": "D6",
          "midi": 86,
          "time": 207.82558139531432,
          "velocity": 0.09448818897637795,
          "duration": 0.04651162790696617
        },
        {
          "name": "F2",
          "midi": 41,
          "time": 207.86046511624454,
          "velocity": 0.33070866141732286,
          "duration": 0.034883720930224626
        },
        {
          "name": "C4",
          "midi": 60,
          "time": 207.87209302322128,
          "velocity": 0.2204724409448819,
          "duration": 0.04651162790696617
        },
        {
          "name": "C3",
          "midi": 48,
          "time": 207.89534883717477,
          "velocity": 0.5433070866141733,
          "duration": 0.023255813953483084
        },
        {
          "name": "F#4",
          "midi": 66,
          "time": 207.89534883717477,
          "velocity": 0.2992125984251969,
          "duration": 0.04651162790696617
        },
        {
          "name": "D7",
          "midi": 98,
          "time": 207.89534883717477,
          "velocity": 0.1968503937007874,
          "duration": 0.0813953488371908
        },
        {
          "name": "G7",
          "midi": 103,
          "time": 207.89534883717477,
          "velocity": 0.11811023622047244,
          "duration": 0.05813953488370771
        },
        {
          "name": "F#5",
          "midi": 78,
          "time": 207.9069767441515,
          "velocity": 0.5354330708661418,
          "duration": 0.45348837209292014
        },
        {
          "name": "C#7",
          "midi": 97,
          "time": 207.9069767441515,
          "velocity": 0.2125984251968504,
          "duration": 0.0813953488371908
        },
        {
          "name": "B3",
          "midi": 59,
          "time": 207.91860465112825,
          "velocity": 0.3858267716535433,
          "duration": 0.04651162790696617
        },
        {
          "name": "A#6",
          "midi": 94,
          "time": 207.91860465112825,
          "velocity": 0.2125984251968504,
          "duration": 0.04651162790696617
        },
        {
          "name": "E3",
          "midi": 52,
          "time": 207.930232558105,
          "velocity": 0.5511811023622047,
          "duration": 0.12790697674415696
        },
        {
          "name": "D#5",
          "midi": 75,
          "time": 207.930232558105,
          "velocity": 0.3464566929133858,
          "duration": 0.034883720930224626
        },
        {
          "name": "D#7",
          "midi": 99,
          "time": 207.930232558105,
          "velocity": 0.14960629921259844,
          "duration": 0.04651162790696617
        },
        {
          "name": "E7",
          "midi": 100,
          "time": 207.930232558105,
          "velocity": 0.23622047244094488,
          "duration": 0.20930232558134776
        },
        {
          "name": "G4",
          "midi": 67,
          "time": 207.94186046508173,
          "velocity": 0.29133858267716534,
          "duration": 0.06976744186044925
        },
        {
          "name": "E5",
          "midi": 76,
          "time": 207.96511627903521,
          "velocity": 0.3858267716535433,
          "duration": 0.15116279069764005
        },
        {
          "name": "G6",
          "midi": 91,
          "time": 207.96511627903521,
          "velocity": 0.07874015748031496,
          "duration": 0.034883720930224626
        },
        {
          "name": "B2",
          "midi": 47,
          "time": 207.97674418601196,
          "velocity": 0.48031496062992124,
          "duration": 0.023255813953483084
        },
        {
          "name": "C3",
          "midi": 48,
          "time": 207.99999999996544,
          "velocity": 0.5118110236220472,
          "duration": 0.011627906976741542
        },
        {
          "name": "B2",
          "midi": 47,
          "time": 208.01162790694218,
          "velocity": 0.5118110236220472,
          "duration": 0.011627906976741542
        },
        {
          "name": "C#7",
          "midi": 97,
          "time": 208.02325581391892,
          "velocity": 0.3543307086614173,
          "duration": 0.39534883720921243
        },
        {
          "name": "D7",
          "midi": 98,
          "time": 208.0465116278724,
          "velocity": 0.15748031496062992,
          "duration": 0.0813953488371908
        },
        {
          "name": "C3",
          "midi": 48,
          "time": 208.05813953484915,
          "velocity": 0.5511811023622047,
          "duration": 0.023255813953483084
        },
        {
          "name": "F3",
          "midi": 53,
          "time": 208.05813953484915,
          "velocity": 0.5196850393700787,
          "duration": 0.011627906976741542
        },
        {
          "name": "B3",
          "midi": 59,
          "time": 208.05813953484915,
          "velocity": 0.2125984251968504,
          "duration": 0.05813953488370771
        },
        {
          "name": "G4",
          "midi": 67,
          "time": 208.0697674418259,
          "velocity": 0.25984251968503935,
          "duration": 0.034883720930224626
        },
        {
          "name": "B2",
          "midi": 47,
          "time": 208.08139534880263,
          "velocity": 0.5433070866141733,
          "duration": 0.023255813953483084
        },
        {
          "name": "E2",
          "midi": 40,
          "time": 208.09302325577937,
          "velocity": 0.5196850393700787,
          "duration": 0.011627906976741542
        },
        {
          "name": "G7",
          "midi": 103,
          "time": 208.09302325577937,
          "velocity": 0.07874015748031496,
          "duration": 0.06976744186044925
        },
        {
          "name": "A#2",
          "midi": 46,
          "time": 208.1046511627561,
          "velocity": 0.5590551181102362,
          "duration": 0.011627906976741542
        },
        {
          "name": "F#4",
          "midi": 66,
          "time": 208.1046511627561,
          "velocity": 0.30708661417322836,
          "duration": 0.023255813953483084
        },
        {
          "name": "B2",
          "midi": 47,
          "time": 208.11627906973285,
          "velocity": 0.5354330708661418,
          "duration": 0.023255813953483084
        },
        {
          "name": "B4",
          "midi": 71,
          "time": 208.11627906973285,
          "velocity": 0.28346456692913385,
          "duration": 0.19767441860460622
        },
        {
          "name": "G4",
          "midi": 67,
          "time": 208.1279069767096,
          "velocity": 0.2755905511811024,
          "duration": 0.1627906976743816
        },
        {
          "name": "G5",
          "midi": 79,
          "time": 208.1279069767096,
          "velocity": 0.30708661417322836,
          "duration": 0.023255813953483084
        },
        {
          "name": "D6",
          "midi": 86,
          "time": 208.1279069767096,
          "velocity": 0.14173228346456693,
          "duration": 0.04651162790696617
        },
        {
          "name": "F2",
          "midi": 41,
          "time": 208.13953488368634,
          "velocity": 0.5354330708661418,
          "duration": 0.011627906976741542
        },
        {
          "name": "D2",
          "midi": 38,
          "time": 208.15116279066308,
          "velocity": 0.5669291338582677,
          "duration": 0.011627906976741542
        },
        {
          "name": "G#2",
          "midi": 44,
          "time": 208.16279069763982,
          "velocity": 0.5905511811023622,
          "duration": 0.011627906976741542
        },
        {
          "name": "B3",
          "midi": 59,
          "time": 208.16279069763982,
          "velocity": 0.1732283464566929,
          "duration": 0.034883720930224626
        },
        {
          "name": "D#7",
          "midi": 99,
          "time": 208.16279069763982,
          "velocity": 0.13385826771653545,
          "duration": 0.15116279069764005
        },
        {
          "name": "B2",
          "midi": 47,
          "time": 208.17441860461656,
          "velocity": 0.5433070866141733,
          "duration": 0.011627906976741542
        },
        {
          "name": "E3",
          "midi": 52,
          "time": 208.17441860461656,
          "velocity": 0.4330708661417323,
          "duration": 0.05813953488370771
        },
        {
          "name": "A#6",
          "midi": 94,
          "time": 208.17441860461656,
          "velocity": 0.09448818897637795,
          "duration": 0.034883720930224626
        },
        {
          "name": "F7",
          "midi": 101,
          "time": 208.17441860461656,
          "velocity": 0.08661417322834646,
          "duration": 0.034883720930224626
        },
        {
          "name": "C3",
          "midi": 48,
          "time": 208.1860465115933,
          "velocity": 0.5196850393700787,
          "duration": 0.011627906976741542
        },
        {
          "name": "E5",
          "midi": 76,
          "time": 208.1860465115933,
          "velocity": 0.14173228346456693,
          "duration": 0.034883720930224626
        },
        {
          "name": "C7",
          "midi": 96,
          "time": 208.19767441857005,
          "velocity": 0.15748031496062992,
          "duration": 0.17441860465112313
        },
        {
          "name": "D7",
          "midi": 98,
          "time": 208.19767441857005,
          "velocity": 0.1889763779527559,
          "duration": 0.05813953488370771
        },
        {
          "name": "B3",
          "midi": 59,
          "time": 208.2093023255468,
          "velocity": 0.4015748031496063,
          "duration": 0.10465116279067388
        },
        {
          "name": "F2",
          "midi": 41,
          "time": 208.22093023252353,
          "velocity": 0.5275590551181102,
          "duration": 0.04651162790696617
        },
        {
          "name": "B6",
          "midi": 95,
          "time": 208.23255813950027,
          "velocity": 0.14960629921259844,
          "duration": 0.0813953488371908
        },
        {
          "name": "E3",
          "midi": 52,
          "time": 208.244186046477,
          "velocity": 0.2440944881889764,
          "duration": 0.023255813953483084
        },
        {
          "name": "E4",
          "midi": 64,
          "time": 208.25581395345375,
          "velocity": 0.2755905511811024,
          "duration": 0.05813953488370771
        },
        {
          "name": "D7",
          "midi": 98,
          "time": 208.2674418604305,
          "velocity": 0.3779527559055118,
          "duration": 0.5930232558138187
        },
        {
          "name": "G7",
          "midi": 103,
          "time": 208.2674418604305,
          "velocity": 0.11811023622047244,
          "duration": 0.034883720930224626
        },
        {
          "name": "F4",
          "midi": 65,
          "time": 208.31395348833746,
          "velocity": 0.4015748031496063,
          "duration": 0.023255813953483084
        },
        {
          "name": "A4",
          "midi": 69,
          "time": 208.31395348833746,
          "velocity": 0.3228346456692913,
          "duration": 0.034883720930224626
        },
        {
          "name": "D5",
          "midi": 74,
          "time": 208.31395348833746,
          "velocity": 0.3700787401574803,
          "duration": 0.023255813953483084
        },
        {
          "name": "C6",
          "midi": 84,
          "time": 208.31395348833746,
          "velocity": 0.14960629921259844,
          "duration": 0.0813953488371908
        },
        {
          "name": "A6",
          "midi": 93,
          "time": 208.31395348833746,
          "velocity": 0.47244094488188976,
          "duration": 0.5697674418603356
        },
        {
          "name": "E7",
          "midi": 100,
          "time": 208.31395348833746,
          "velocity": 0.07874015748031496,
          "duration": 0.04651162790696617
        },
        {
          "name": "G7",
          "midi": 103,
          "time": 208.31395348833746,
          "velocity": 0.16535433070866143,
          "duration": 0.04651162790696617
        },
        {
          "name": "C5",
          "midi": 72,
          "time": 208.3255813953142,
          "velocity": 0.2755905511811024,
          "duration": 0.023255813953483084
        },
        {
          "name": "A#5",
          "midi": 82,
          "time": 208.3255813953142,
          "velocity": 0.14173228346456693,
          "duration": 0.04651162790696617
        },
        {
          "name": "C#6",
          "midi": 85,
          "time": 208.3255813953142,
          "velocity": 0.14173228346456693,
          "duration": 0.04651162790696617
        },
        {
          "name": "G6",
          "midi": 91,
          "time": 208.3255813953142,
          "velocity": 0.47244094488188976,
          "duration": 0.3372093023255047
        },
        {
          "name": "G#6",
          "midi": 92,
          "time": 208.3255813953142,
          "velocity": 0.07874015748031496,
          "duration": 0.04651162790696617
        },
        {
          "name": "F7",
          "midi": 101,
          "time": 208.3255813953142,
          "velocity": 0.25196850393700787,
          "duration": 0.29069767441853855
        },
        {
          "name": "C#3",
          "midi": 49,
          "time": 208.33720930229094,
          "velocity": 0.3858267716535433,
          "duration": 0.023255813953483084
        },
        {
          "name": "A#3",
          "midi": 58,
          "time": 208.33720930229094,
          "velocity": 0.41732283464566927,
          "duration": 0.023255813953483084
        },
        {
          "name": "F#4",
          "midi": 66,
          "time": 208.33720930229094,
          "velocity": 0.3464566929133858,
          "duration": 0.023255813953483084
        },
        {
          "name": "G5",
          "midi": 79,
          "time": 208.33720930229094,
          "velocity": 0.48031496062992124,
          "duration": 0.23255813953483084
        },
        {
          "name": "G#4",
          "midi": 68,
          "time": 208.34883720926769,
          "velocity": 0.2992125984251969,
          "duration": 0.05813953488370771
        },
        {
          "name": "B4",
          "midi": 71,
          "time": 208.34883720926769,
          "velocity": 0.3858267716535433,
          "duration": 0.24418604651157239
        },
        {
          "name": "D#7",
          "midi": 99,
          "time": 208.34883720926769,
          "velocity": 0.2440944881889764,
          "duration": 0.47674418604640323
        },
        {
          "name": "A#3",
          "midi": 58,
          "time": 208.37209302322117,
          "velocity": 0.3228346456692913,
          "duration": 0.034883720930224626
        },
        {
          "name": "E4",
          "midi": 64,
          "time": 208.37209302322117,
          "velocity": 0.28346456692913385,
          "duration": 0.04651162790696617
        },
        {
          "name": "B6",
          "midi": 95,
          "time": 208.37209302322117,
          "velocity": 0.15748031496062992,
          "duration": 0.034883720930224626
        },
        {
          "name": "C#3",
          "midi": 49,
          "time": 208.3837209301979,
          "velocity": 0.28346456692913385,
          "duration": 0.023255813953483084
        },
        {
          "name": "E7",
          "midi": 100,
          "time": 208.3837209301979,
          "velocity": 0.08661417322834646,
          "duration": 0.05813953488370771
        },
        {
          "name": "D5",
          "midi": 74,
          "time": 208.39534883717465,
          "velocity": 0.18110236220472442,
          "duration": 0.06976744186044925
        },
        {
          "name": "B3",
          "midi": 59,
          "time": 208.4069767441514,
          "velocity": 0.2992125984251969,
          "duration": 0.023255813953483084
        },
        {
          "name": "E4",
          "midi": 64,
          "time": 208.43023255810488,
          "velocity": 0.2440944881889764,
          "duration": 0.10465116279067388
        },
        {
          "name": "G4",
          "midi": 67,
          "time": 208.43023255810488,
          "velocity": 0.3228346456692913,
          "duration": 0.12790697674415696
        },
        {
          "name": "C#7",
          "midi": 97,
          "time": 208.43023255810488,
          "velocity": 0.3464566929133858,
          "duration": 0.15116279069764005
        },
        {
          "name": "E3",
          "midi": 52,
          "time": 208.44186046508162,
          "velocity": 0.3858267716535433,
          "duration": 0.09302325581393234
        },
        {
          "name": "A#3",
          "midi": 58,
          "time": 208.44186046508162,
          "velocity": 0.2125984251968504,
          "duration": 0.04651162790696617
        },
        {
          "name": "G#6",
          "midi": 92,
          "time": 208.45348837205836,
          "velocity": 0.13385826771653545,
          "duration": 0.1395348837208985
        },
        {
          "name": "B6",
          "midi": 95,
          "time": 208.45348837205836,
          "velocity": 0.10236220472440945,
          "duration": 0.1627906976743816
        },
        {
          "name": "D5",
          "midi": 74,
          "time": 208.47674418601184,
          "velocity": 0.14173228346456693,
          "duration": 0.04651162790696617
        },
        {
          "name": "E7",
          "midi": 100,
          "time": 208.47674418601184,
          "velocity": 0.31496062992125984,
          "duration": 0.406976744185954
        },
        {
          "name": "B3",
          "midi": 59,
          "time": 208.48837209298858,
          "velocity": 0.14960629921259844,
          "duration": 0.034883720930224626
        },
        {
          "name": "C#6",
          "midi": 85,
          "time": 208.48837209298858,
          "velocity": 0.08661417322834646,
          "duration": 0.05813953488370771
        },
        {
          "name": "G#2",
          "midi": 44,
          "time": 208.51162790694207,
          "velocity": 0.3543307086614173,
          "duration": 0.023255813953483084
        },
        {
          "name": "D6",
          "midi": 86,
          "time": 208.5232558139188,
          "velocity": 0.08661417322834646,
          "duration": 0.05813953488370771
        },
        {
          "name": "D5",
          "midi": 74,
          "time": 208.53488372089555,
          "velocity": 0.2125984251968504,
          "duration": 0.04651162790696617
        },
        {
          "name": "E5",
          "midi": 76,
          "time": 208.53488372089555,
          "velocity": 0.2677165354330709,
          "duration": 0.04651162790696617
        },
        {
          "name": "B1",
          "midi": 35,
          "time": 208.5465116278723,
          "velocity": 0.5196850393700787,
          "duration": 0.023255813953483084
        },
        {
          "name": "A4",
          "midi": 69,
          "time": 208.5465116278723,
          "velocity": 0.2992125984251969,
          "duration": 0.06976744186044925
        },
        {
          "name": "A5",
          "midi": 81,
          "time": 208.5465116278723,
          "velocity": 0.3858267716535433,
          "duration": 0.24418604651157239
        },
        {
          "name": "F#4",
          "midi": 66,
          "time": 208.55813953484903,
          "velocity": 0.2992125984251969,
          "duration": 0.20930232558134776
        },
        {
          "name": "F#5",
          "midi": 78,
          "time": 208.55813953484903,
          "velocity": 0.36220472440944884,
          "duration": 0.3255813953487632
        },
        {
          "name": "C#5",
          "midi": 73,
          "time": 208.56976744182577,
          "velocity": 0.07874015748031496,
          "duration": 0.034883720930224626
        },
        {
          "name": "C7",
          "midi": 96,
          "time": 208.58139534880252,
          "velocity": 0.2440944881889764,
          "duration": 0.034883720930224626
        },
        {
          "name": "C4",
          "midi": 60,
          "time": 208.604651162756,
          "velocity": 0.1889763779527559,
          "duration": 0.04651162790696617
        },
        {
          "name": "C#7",
          "midi": 97,
          "time": 208.604651162756,
          "velocity": 0.12598425196850394,
          "duration": 0.034883720930224626
        },
        {
          "name": "B4",
          "midi": 71,
          "time": 208.62790697670948,
          "velocity": 0.2047244094488189,
          "duration": 0.09302325581393234
        },
        {
          "name": "A3",
          "midi": 57,
          "time": 208.63953488368622,
          "velocity": 0.23622047244094488,
          "duration": 0.11627906976741542
        },
        {
          "name": "D5",
          "midi": 74,
          "time": 208.63953488368622,
          "velocity": 0.11811023622047244,
          "duration": 0.09302325581393234
        },
        {
          "name": "F2",
          "midi": 41,
          "time": 208.65116279066297,
          "velocity": 0.2992125984251969,
          "duration": 0.034883720930224626
        },
        {
          "name": "D3",
          "midi": 50,
          "time": 208.65116279066297,
          "velocity": 0.4330708661417323,
          "duration": 0.05813953488370771
        },
        {
          "name": "A4",
          "midi": 69,
          "time": 208.65116279066297,
          "velocity": 0.33858267716535434,
          "duration": 0.11627906976741542
        },
        {
          "name": "E5",
          "midi": 76,
          "time": 208.65116279066297,
          "velocity": 0.07874015748031496,
          "duration": 0.034883720930224626
        },
        {
          "name": "C#7",
          "midi": 97,
          "time": 208.6627906976397,
          "velocity": 0.12598425196850394,
          "duration": 0.034883720930224626
        },
        {
          "name": "G5",
          "midi": 79,
          "time": 208.67441860461645,
          "velocity": 0.12598425196850394,
          "duration": 0.04651162790696617
        },
        {
          "name": "D#3",
          "midi": 51,
          "time": 208.70930232554667,
          "velocity": 0.36220472440944884,
          "duration": 0.023255813953483084
        },
        {
          "name": "C#7",
          "midi": 97,
          "time": 208.70930232554667,
          "velocity": 0.14960629921259844,
          "duration": 0.11627906976741542
        },
        {
          "name": "E5",
          "midi": 76,
          "time": 208.7441860464769,
          "velocity": 0.14960629921259844,
          "duration": 0.04651162790696617
        },
        {
          "name": "G7",
          "midi": 103,
          "time": 208.7441860464769,
          "velocity": 0.13385826771653545,
          "duration": 0.034883720930224626
        },
        {
          "name": "C2",
          "midi": 36,
          "time": 208.75581395345364,
          "velocity": 0.5118110236220472,
          "duration": 0.011627906976741542
        },
        {
          "name": "A2",
          "midi": 45,
          "time": 208.75581395345364,
          "velocity": 0.5748031496062992,
          "duration": 0.034883720930224626
        },
        {
          "name": "A#3",
          "midi": 58,
          "time": 208.75581395345364,
          "velocity": 0.2755905511811024,
          "duration": 0.023255813953483084
        },
        {
          "name": "D5",
          "midi": 74,
          "time": 208.75581395345364,
          "velocity": 0.16535433070866143,
          "duration": 0.05813953488370771
        },
        {
          "name": "B5",
          "midi": 83,
          "time": 208.75581395345364,
          "velocity": 0.15748031496062992,
          "duration": 0.034883720930224626
        },
        {
          "name": "C#6",
          "midi": 85,
          "time": 208.75581395345364,
          "velocity": 0.10236220472440945,
          "duration": 0.034883720930224626
        },
        {
          "name": "B6",
          "midi": 95,
          "time": 208.75581395345364,
          "velocity": 0.4094488188976378,
          "duration": 0.5697674418603356
        },
        {
          "name": "C#4",
          "midi": 61,
          "time": 208.76744186043038,
          "velocity": 0.3779527559055118,
          "duration": 0.04651162790696617
        },
        {
          "name": "C5",
          "midi": 72,
          "time": 208.76744186043038,
          "velocity": 0.23622047244094488,
          "duration": 0.29069767441853855
        },
        {
          "name": "C7",
          "midi": 96,
          "time": 208.76744186043038,
          "velocity": 0.14173228346456693,
          "duration": 0.17441860465112313
        },
        {
          "name": "A4",
          "midi": 69,
          "time": 208.77906976740712,
          "velocity": 0.2440944881889764,
          "duration": 0.023255813953483084
        },
        {
          "name": "G6",
          "midi": 91,
          "time": 208.77906976740712,
          "velocity": 0.30708661417322836,
          "duration": 0.837209302325391
        },
        {
          "name": "F7",
          "midi": 101,
          "time": 208.77906976740712,
          "velocity": 0.08661417322834646,
          "duration": 0.09302325581393234
        },
        {
          "name": "B2",
          "midi": 47,
          "time": 208.79069767438386,
          "velocity": 0.5748031496062992,
          "duration": 0.023255813953483084
        },
        {
          "name": "B4",
          "midi": 71,
          "time": 208.79069767438386,
          "velocity": 0.2125984251968504,
          "duration": 0.034883720930224626
        },
        {
          "name": "G4",
          "midi": 67,
          "time": 208.8023255813606,
          "velocity": 0.2992125984251969,
          "duration": 0.1627906976743816
        },
        {
          "name": "C3",
          "midi": 48,
          "time": 208.81395348833735,
          "velocity": 0.5748031496062992,
          "duration": 0.011627906976741542
        },
        {
          "name": "G3",
          "midi": 55,
          "time": 208.81395348833735,
          "velocity": 0.44881889763779526,
          "duration": 0.09302325581393234
        },
        {
          "name": "C#3",
          "midi": 49,
          "time": 208.8255813953141,
          "velocity": 0.5590551181102362,
          "duration": 0.023255813953483084
        },
        {
          "name": "E5",
          "midi": 76,
          "time": 208.8255813953141,
          "velocity": 0.31496062992125984,
          "duration": 0.4999999999998863
        },
        {
          "name": "F#7",
          "midi": 102,
          "time": 208.8255813953141,
          "velocity": 0.15748031496062992,
          "duration": 0.18604651162786467
        },
        {
          "name": "F2",
          "midi": 41,
          "time": 208.83720930229083,
          "velocity": 0.5118110236220472,
          "duration": 0.023255813953483084
        },
        {
          "name": "C3",
          "midi": 48,
          "time": 208.84883720926757,
          "velocity": 0.5511811023622047,
          "duration": 0.011627906976741542
        },
        {
          "name": "E4",
          "midi": 64,
          "time": 208.84883720926757,
          "velocity": 0.1732283464566929,
          "duration": 0.05813953488370771
        },
        {
          "name": "C#3",
          "midi": 49,
          "time": 208.8604651162443,
          "velocity": 0.5669291338582677,
          "duration": 0.011627906976741542
        },
        {
          "name": "C4",
          "midi": 60,
          "time": 208.8604651162443,
          "velocity": 0.3858267716535433,
          "duration": 0.1627906976743816
        },
        {
          "name": "A5",
          "midi": 81,
          "time": 208.8604651162443,
          "velocity": 0.12598425196850394,
          "duration": 0.034883720930224626
        },
        {
          "name": "C3",
          "midi": 48,
          "time": 208.87209302322105,
          "velocity": 0.5275590551181102,
          "duration": 0.011627906976741542
        },
        {
          "name": "B5",
          "midi": 83,
          "time": 208.90697674415128,
          "velocity": 0.1968503937007874,
          "duration": 0.31395348837202164
        },
        {
          "name": "C3",
          "midi": 48,
          "time": 208.93023255810476,
          "velocity": 0.30708661417322836,
          "duration": 0.023255813953483084
        },
        {
          "name": "F#3",
          "midi": 54,
          "time": 208.95348837205825,
          "velocity": 0.33858267716535434,
          "duration": 0.023255813953483084
        },
        {
          "name": "E4",
          "midi": 64,
          "time": 208.95348837205825,
          "velocity": 0.29133858267716534,
          "duration": 0.04651162790696617
        },
        {
          "name": "A6",
          "midi": 93,
          "time": 208.95348837205825,
          "velocity": 0.16535433070866143,
          "duration": 0.15116279069764005
        },
        {
          "name": "A2",
          "midi": 45,
          "time": 208.965116279035,
          "velocity": 0.5905511811023622,
          "duration": 0.034883720930224626
        },
        {
          "name": "D5",
          "midi": 74,
          "time": 208.965116279035,
          "velocity": 0.4330708661417323,
          "duration": 0.37209302325572935
        },
        {
          "name": "C#7",
          "midi": 97,
          "time": 208.965116279035,
          "velocity": 0.13385826771653545,
          "duration": 0.04651162790696617
        },
        {
          "name": "A#1",
          "midi": 34,
          "time": 208.97674418601173,
          "velocity": 0.5275590551181102,
          "duration": 0.011627906976741542
        },
        {
          "name": "G4",
          "midi": 67,
          "time": 208.97674418601173,
          "velocity": 0.3937007874015748,
          "duration": 0.06976744186044925
        },
        {
          "name": "A5",
          "midi": 81,
          "time": 208.97674418601173,
          "velocity": 0.11811023622047244,
          "duration": 0.17441860465112313
        },
        {
          "name": "D7",
          "midi": 98,
          "time": 208.97674418601173,
          "velocity": 0.1732283464566929,
          "duration": 0.15116279069764005
        },
        {
          "name": "D#7",
          "midi": 99,
          "time": 208.97674418601173,
          "velocity": 0.12598425196850394,
          "duration": 0.06976744186044925
        },
        {
          "name": "A#2",
          "midi": 46,
          "time": 208.9999999999652,
          "velocity": 0.5748031496062992,
          "duration": 0.011627906976741542
        },
        {
          "name": "F7",
          "midi": 101,
          "time": 208.9999999999652,
          "velocity": 0.14173228346456693,
          "duration": 0.11627906976741542
        },
        {
          "name": "B2",
          "midi": 47,
          "time": 209.01162790694195,
          "velocity": 0.5748031496062992,
          "duration": 0.023255813953483084
        },
        {
          "name": "A3",
          "midi": 57,
          "time": 209.01162790694195,
          "velocity": 0.31496062992125984,
          "duration": 0.023255813953483084
        },
        {
          "name": "E4",
          "midi": 64,
          "time": 209.01162790694195,
          "velocity": 0.3228346456692913,
          "duration": 0.1627906976743816
        },
        {
          "name": "F#6",
          "midi": 90,
          "time": 209.01162790694195,
          "velocity": 0.08661417322834646,
          "duration": 0.04651162790696617
        },
        {
          "name": "F#5",
          "midi": 78,
          "time": 209.0232558139187,
          "velocity": 0.1732283464566929,
          "duration": 0.06976744186044925
        },
        {
          "name": "C3",
          "midi": 48,
          "time": 209.03488372089544,
          "velocity": 0.5748031496062992,
          "duration": 0.011627906976741542
        },
        {
          "name": "F#7",
          "midi": 102,
          "time": 209.03488372089544,
          "velocity": 0.1732283464566929,
          "duration": 0.31395348837202164
        },
        {
          "name": "C#3",
          "midi": 49,
          "time": 209.04651162787218,
          "velocity": 0.5748031496062992,
          "duration": 0.011627906976741542
        },
        {
          "name": "G3",
          "midi": 55,
          "time": 209.04651162787218,
          "velocity": 0.4881889763779528,
          "duration": 0.12790697674415696
        },
        {
          "name": "C3",
          "midi": 48,
          "time": 209.05813953484892,
          "velocity": 0.5826771653543307,
          "duration": 0.0813953488371908
        },
        {
          "name": "F2",
          "midi": 41,
          "time": 209.06976744182566,
          "velocity": 0.5118110236220472,
          "duration": 0.011627906976741542
        },
        {
          "name": "G4",
          "midi": 67,
          "time": 209.06976744182566,
          "velocity": 0.5039370078740157,
          "duration": 0.7558139534882002
        },
        {
          "name": "E7",
          "midi": 100,
          "time": 209.0813953488024,
          "velocity": 0.11811023622047244,
          "duration": 0.06976744186044925
        },
        {
          "name": "F#5",
          "midi": 78,
          "time": 209.12790697670937,
          "velocity": 0.14960629921259844,
          "duration": 0.04651162790696617
        },
        {
          "name": "G#2",
          "midi": 44,
          "time": 209.1395348836861,
          "velocity": 0.5118110236220472,
          "duration": 0.011627906976741542
        },
        {
          "name": "A6",
          "midi": 93,
          "time": 209.15116279066285,
          "velocity": 0.2125984251968504,
          "duration": 0.06976744186044925
        },
        {
          "name": "F#6",
          "midi": 90,
          "time": 209.1627906976396,
          "velocity": 0.18110236220472442,
          "duration": 0.0813953488371908
        },
        {
          "name": "C#3",
          "midi": 49,
          "time": 209.17441860461633,
          "velocity": 0.3779527559055118,
          "duration": 0.023255813953483084
        },
        {
          "name": "A5",
          "midi": 81,
          "time": 209.17441860461633,
          "velocity": 0.2677165354330709,
          "duration": 0.2558139534883139
        },
        {
          "name": "C7",
          "midi": 96,
          "time": 209.17441860461633,
          "velocity": 0.2125984251968504,
          "duration": 0.10465116279067388
        },
        {
          "name": "C#7",
          "midi": 97,
          "time": 209.17441860461633,
          "velocity": 0.2755905511811024,
          "duration": 0.29069767441853855
        },
        {
          "name": "D7",
          "midi": 98,
          "time": 209.17441860461633,
          "velocity": 0.25984251968503935,
          "duration": 0.11627906976741542
        },
        {
          "name": "E7",
          "midi": 100,
          "time": 209.17441860461633,
          "velocity": 0.15748031496062992,
          "duration": 0.06976744186044925
        },
        {
          "name": "D2",
          "midi": 38,
          "time": 209.18604651159308,
          "velocity": 0.28346456692913385,
          "duration": 0.023255813953483084
        },
        {
          "name": "E4",
          "midi": 64,
          "time": 209.18604651159308,
          "velocity": 0.33858267716535434,
          "duration": 0.1395348837208985
        },
        {
          "name": "D#7",
          "midi": 99,
          "time": 209.18604651159308,
          "velocity": 0.10236220472440945,
          "duration": 0.09302325581393234
        },
        {
          "name": "F7",
          "midi": 101,
          "time": 209.18604651159308,
          "velocity": 0.11811023622047244,
          "duration": 0.10465116279067388
        },
        {
          "name": "B4",
          "midi": 71,
          "time": 209.20930232554656,
          "velocity": 0.2283464566929134,
          "duration": 0.023255813953483084
        },
        {
          "name": "A3",
          "midi": 57,
          "time": 209.23255813950004,
          "velocity": 0.3858267716535433,
          "duration": 0.023255813953483084
        },
        {
          "name": "A#4",
          "midi": 70,
          "time": 209.23255813950004,
          "velocity": 0.2283464566929134,
          "duration": 0.19767441860460622
        },
        {
          "name": "C5",
          "midi": 72,
          "time": 209.23255813950004,
          "velocity": 0.2283464566929134,
          "duration": 0.034883720930224626
        },
        {
          "name": "F#5",
          "midi": 78,
          "time": 209.23255813950004,
          "velocity": 0.14960629921259844,
          "duration": 0.034883720930224626
        },
        {
          "name": "B5",
          "midi": 83,
          "time": 209.24418604647678,
          "velocity": 0.11023622047244094,
          "duration": 0.034883720930224626
        },
        {
          "name": "F6",
          "midi": 89,
          "time": 209.24418604647678,
          "velocity": 0.11811023622047244,
          "duration": 0.04651162790696617
        },
        {
          "name": "C4",
          "midi": 60,
          "time": 209.25581395345353,
          "velocity": 0.2992125984251969,
          "duration": 0.023255813953483084
        },
        {
          "name": "F#5",
          "midi": 78,
          "time": 209.279069767407,
          "velocity": 0.18110236220472442,
          "duration": 0.034883720930224626
        },
        {
          "name": "B5",
          "midi": 83,
          "time": 209.29069767438375,
          "velocity": 0.15748031496062992,
          "duration": 0.04651162790696617
        },
        {
          "name": "E7",
          "midi": 100,
          "time": 209.29069767438375,
          "velocity": 0.11023622047244094,
          "duration": 0.05813953488370771
        },
        {
          "name": "C3",
          "midi": 48,
          "time": 209.3023255813605,
          "velocity": 0.4409448818897638,
          "duration": 0.0813953488371908
        },
        {
          "name": "D7",
          "midi": 98,
          "time": 209.31395348833723,
          "velocity": 0.2125984251968504,
          "duration": 0.23255813953483084
        },
        {
          "name": "E6",
          "midi": 88,
          "time": 209.32558139531398,
          "velocity": 0.14173228346456693,
          "duration": 0.06976744186044925
        },
        {
          "name": "C7",
          "midi": 96,
          "time": 209.32558139531398,
          "velocity": 0.11023622047244094,
          "duration": 0.034883720930224626
        },
        {
          "name": "G3",
          "midi": 55,
          "time": 209.33720930229072,
          "velocity": 0.1889763779527559,
          "duration": 0.034883720930224626
        },
        {
          "name": "F#5",
          "midi": 78,
          "time": 209.33720930229072,
          "velocity": 0.08661417322834646,
          "duration": 0.04651162790696617
        },
        {
          "name": "D5",
          "midi": 74,
          "time": 209.34883720926746,
          "velocity": 0.13385826771653545,
          "duration": 0.034883720930224626
        },
        {
          "name": "B6",
          "midi": 95,
          "time": 209.34883720926746,
          "velocity": 0.41732283464566927,
          "duration": 1.4651162790694343
        },
        {
          "name": "D4",
          "midi": 62,
          "time": 209.3604651162442,
          "velocity": 0.1968503937007874,
          "duration": 0.034883720930224626
        },
        {
          "name": "D#6",
          "midi": 87,
          "time": 209.3604651162442,
          "velocity": 0.10236220472440945,
          "duration": 0.05813953488370771
        },
        {
          "name": "E5",
          "midi": 76,
          "time": 209.37209302322094,
          "velocity": 0.41732283464566927,
          "duration": 1.0232558139532557
        },
        {
          "name": "C4",
          "midi": 60,
          "time": 209.38372093019768,
          "velocity": 0.3228346456692913,
          "duration": 0.04651162790696617
        },
        {
          "name": "B5",
          "midi": 83,
          "time": 209.38372093019768,
          "velocity": 0.23622047244094488,
          "duration": 0.31395348837202164
        },
        {
          "name": "C7",
          "midi": 96,
          "time": 209.38372093019768,
          "velocity": 0.12598425196850394,
          "duration": 0.034883720930224626
        },
        {
          "name": "D5",
          "midi": 74,
          "time": 209.39534883717442,
          "velocity": 0.2283464566929134,
          "duration": 0.20930232558134776
        },
        {
          "name": "B2",
          "midi": 47,
          "time": 209.40697674415117,
          "velocity": 0.5354330708661418,
          "duration": 0.011627906976741542
        },
        {
          "name": "A2",
          "midi": 45,
          "time": 209.4186046511279,
          "velocity": 0.5905511811023622,
          "duration": 0.011627906976741542
        },
        {
          "name": "A#2",
          "midi": 46,
          "time": 209.43023255810465,
          "velocity": 0.5354330708661418,
          "duration": 0.011627906976741542
        },
        {
          "name": "B2",
          "midi": 47,
          "time": 209.4418604650814,
          "velocity": 0.5354330708661418,
          "duration": 0.023255813953483084
        },
        {
          "name": "G#3",
          "midi": 56,
          "time": 209.4418604650814,
          "velocity": 0.33858267716535434,
          "duration": 0.034883720930224626
        },
        {
          "name": "C4",
          "midi": 60,
          "time": 209.4418604650814,
          "velocity": 0.3779527559055118,
          "duration": 0.0813953488371908
        },
        {
          "name": "A#4",
          "midi": 70,
          "time": 209.4418604650814,
          "velocity": 0.16535433070866143,
          "duration": 0.05813953488370771
        },
        {
          "name": "F#7",
          "midi": 102,
          "time": 209.4418604650814,
          "velocity": 0.18110236220472442,
          "duration": 0.2558139534883139
        },
        {
          "name": "D3",
          "midi": 50,
          "time": 209.46511627903487,
          "velocity": 0.5669291338582677,
          "duration": 0.011627906976741542
        },
        {
          "name": "E4",
          "midi": 64,
          "time": 209.46511627903487,
          "velocity": 0.29133858267716534,
          "duration": 0.18604651162786467
        },
        {
          "name": "C#3",
          "midi": 49,
          "time": 209.47674418601162,
          "velocity": 0.5905511811023622,
          "duration": 0.011627906976741542
        },
        {
          "name": "C3",
          "midi": 48,
          "time": 209.48837209298836,
          "velocity": 0.5748031496062992,
          "duration": 0.011627906976741542
        },
        {
          "name": "F7",
          "midi": 101,
          "time": 209.48837209298836,
          "velocity": 0.07086614173228346,
          "duration": 0.034883720930224626
        },
        {
          "name": "C#3",
          "midi": 49,
          "time": 209.4999999999651,
          "velocity": 0.5433070866141733,
          "duration": 0.011627906976741542
        },
        {
          "name": "C3",
          "midi": 48,
          "time": 209.51162790694184,
          "velocity": 0.5669291338582677,
          "duration": 0.034883720930224626
        },
        {
          "name": "G#3",
          "midi": 56,
          "time": 209.52325581391858,
          "velocity": 0.3228346456692913,
          "duration": 0.034883720930224626
        },
        {
          "name": "A#2",
          "midi": 46,
          "time": 209.54651162787206,
          "velocity": 0.3779527559055118,
          "duration": 0.023255813953483084
        },
        {
          "name": "C4",
          "midi": 60,
          "time": 209.54651162787206,
          "velocity": 0.28346456692913385,
          "duration": 0.06976744186044925
        },
        {
          "name": "F#5",
          "midi": 78,
          "time": 209.56976744182555,
          "velocity": 0.1889763779527559,
          "duration": 0.11627906976741542
        },
        {
          "name": "D#2",
          "midi": 39,
          "time": 209.60465116275577,
          "velocity": 0.4645669291338583,
          "duration": 0.023255813953483084
        },
        {
          "name": "A6",
          "midi": 93,
          "time": 209.60465116275577,
          "velocity": 0.12598425196850394,
          "duration": 0.11627906976741542
        },
        {
          "name": "A#3",
          "midi": 58,
          "time": 209.6162790697325,
          "velocity": 0.29133858267716534,
          "duration": 0.023255813953483084
        },
        {
          "name": "G#5",
          "midi": 80,
          "time": 209.6162790697325,
          "velocity": 0.2047244094488189,
          "duration": 0.04651162790696617
        },
        {
          "name": "C7",
          "midi": 96,
          "time": 209.6162790697325,
          "velocity": 0.11811023622047244,
          "duration": 0.034883720930224626
        },
        {
          "name": "D7",
          "midi": 98,
          "time": 209.6162790697325,
          "velocity": 0.15748031496062992,
          "duration": 0.05813953488370771
        },
        {
          "name": "D#7",
          "midi": 99,
          "time": 209.6162790697325,
          "velocity": 0.11811023622047244,
          "duration": 0.034883720930224626
        },
        {
          "name": "G#2",
          "midi": 44,
          "time": 209.62790697670926,
          "velocity": 0.5905511811023622,
          "duration": 0.023255813953483084
        },
        {
          "name": "C5",
          "midi": 72,
          "time": 209.639534883686,
          "velocity": 0.2204724409448819,
          "duration": 0.29069767441853855
        },
        {
          "name": "G6",
          "midi": 91,
          "time": 209.639534883686,
          "velocity": 0.11811023622047244,
          "duration": 0.034883720930224626
        },
        {
          "name": "C#7",
          "midi": 97,
          "time": 209.639534883686,
          "velocity": 0.14173228346456693,
          "duration": 0.04651162790696617
        },
        {
          "name": "B2",
          "midi": 47,
          "time": 209.65116279066274,
          "velocity": 0.5748031496062992,
          "duration": 0.023255813953483084
        },
        {
          "name": "G#3",
          "midi": 56,
          "time": 209.65116279066274,
          "velocity": 0.30708661417322836,
          "duration": 0.023255813953483084
        },
        {
          "name": "C#4",
          "midi": 61,
          "time": 209.65116279066274,
          "velocity": 0.3858267716535433,
          "duration": 0.023255813953483084
        },
        {
          "name": "D#7",
          "midi": 99,
          "time": 209.66279069763948,
          "velocity": 0.10236220472440945,
          "duration": 0.034883720930224626
        },
        {
          "name": "C3",
          "midi": 48,
          "time": 209.67441860461622,
          "velocity": 0.5905511811023622,
          "duration": 0.011627906976741542
        },
        {
          "name": "C#3",
          "midi": 49,
          "time": 209.68604651159296,
          "velocity": 0.5984251968503937,
          "duration": 0.011627906976741542
        },
        {
          "name": "G3",
          "midi": 55,
          "time": 209.68604651159296,
          "velocity": 0.4881889763779528,
          "duration": 0.12790697674415696
        },
        {
          "name": "C3",
          "midi": 48,
          "time": 209.6976744185697,
          "velocity": 0.5905511811023622,
          "duration": 0.023255813953483084
        },
        {
          "name": "A#4",
          "midi": 70,
          "time": 209.6976744185697,
          "velocity": 0.09448818897637795,
          "duration": 0.0813953488371908
        },
        {
          "name": "F2",
          "midi": 41,
          "time": 209.70930232554645,
          "velocity": 0.5118110236220472,
          "duration": 0.011627906976741542
        },
        {
          "name": "C#3",
          "midi": 49,
          "time": 209.7209302325232,
          "velocity": 0.5826771653543307,
          "duration": 0.011627906976741542
        },
        {
          "name": "B5",
          "midi": 83,
          "time": 209.7209302325232,
          "velocity": 0.2204724409448819,
          "duration": 0.19767441860460622
        },
        {
          "name": "C3",
          "midi": 48,
          "time": 209.73255813949993,
          "velocity": 0.6141732283464567,
          "duration": 0.09302325581393234
        },
        {
          "name": "F#7",
          "midi": 102,
          "time": 209.7790697674069,
          "velocity": 0.2204724409448819,
          "duration": 0.6744186046510094
        },
        {
          "name": "E4",
          "midi": 64,
          "time": 209.79069767438364,
          "velocity": 0.4409448818897638,
          "duration": 0.34883720930224626
        },
        {
          "name": "F#3",
          "midi": 54,
          "time": 209.81395348833712,
          "velocity": 0.5118110236220472,
          "duration": 0.023255813953483084
        },
        {
          "name": "B2",
          "midi": 47,
          "time": 209.82558139531386,
          "velocity": 0.5748031496062992,
          "duration": 0.023255813953483084
        },
        {
          "name": "D#7",
          "midi": 99,
          "time": 209.82558139531386,
          "velocity": 0.14960629921259844,
          "duration": 0.05813953488370771
        },
        {
          "name": "G4",
          "midi": 67,
          "time": 209.8372093022906,
          "velocity": 0.3464566929133858,
          "duration": 0.05813953488370771
        },
        {
          "name": "D5",
          "midi": 74,
          "time": 209.8372093022906,
          "velocity": 0.4409448818897638,
          "duration": 0.3837209302324709
        },
        {
          "name": "C7",
          "midi": 96,
          "time": 209.8372093022906,
          "velocity": 0.14173228346456693,
          "duration": 0.0813953488371908
        },
        {
          "name": "C#7",
          "midi": 97,
          "time": 209.8372093022906,
          "velocity": 0.12598425196850394,
          "duration": 0.034883720930224626
        },
        {
          "name": "F7",
          "midi": 101,
          "time": 209.8372093022906,
          "velocity": 0.14960629921259844,
          "duration": 0.15116279069764005
        },
        {
          "name": "A2",
          "midi": 45,
          "time": 209.84883720926734,
          "velocity": 0.6062992125984252,
          "duration": 0.011627906976741542
        },
        {
          "name": "F#3",
          "midi": 54,
          "time": 209.84883720926734,
          "velocity": 0.4015748031496063,
          "duration": 0.023255813953483084
        },
        {
          "name": "D7",
          "midi": 98,
          "time": 209.84883720926734,
          "velocity": 0.25984251968503935,
          "duration": 0.29069767441853855
        },
        {
          "name": "F#2",
          "midi": 42,
          "time": 209.8604651162441,
          "velocity": 0.5118110236220472,
          "duration": 0.011627906976741542
        },
        {
          "name": "B2",
          "midi": 47,
          "time": 209.8604651162441,
          "velocity": 0.49606299212598426,
          "duration": 0.023255813953483084
        },
        {
          "name": "E7",
          "midi": 100,
          "time": 209.8604651162441,
          "velocity": 0.15748031496062992,
          "duration": 0.11627906976741542
        },
        {
          "name": "A#4",
          "midi": 70,
          "time": 209.87209302322083,
          "velocity": 0.25196850393700787,
          "duration": 0.18604651162786467
        },
        {
          "name": "A2",
          "midi": 45,
          "time": 209.88372093019757,
          "velocity": 0.5590551181102362,
          "duration": 0.023255813953483084
        },
        {
          "name": "C#7",
          "midi": 97,
          "time": 209.88372093019757,
          "velocity": 0.29133858267716534,
          "duration": 0.6627906976742679
        },
        {
          "name": "G3",
          "midi": 55,
          "time": 209.90697674415105,
          "velocity": 0.2755905511811024,
          "duration": 0.04651162790696617
        },
        {
          "name": "A#6",
          "midi": 94,
          "time": 209.90697674415105,
          "velocity": 0.09448818897637795,
          "duration": 0.05813953488370771
        },
        {
          "name": "D#7",
          "midi": 99,
          "time": 209.90697674415105,
          "velocity": 0.12598425196850394,
          "duration": 0.034883720930224626
        },
        {
          "name": "G4",
          "midi": 67,
          "time": 209.9186046511278,
          "velocity": 0.44881889763779526,
          "duration": 0.1627906976743816
        },
        {
          "name": "C3",
          "midi": 48,
          "time": 209.93023255810454,
          "velocity": 0.4645669291338583,
          "duration": 0.06976744186044925
        },
        {
          "name": "B5",
          "midi": 83,
          "time": 209.96511627903476,
          "velocity": 0.2677165354330709,
          "duration": 0.17441860465112313
        },
        {
          "name": "G3",
          "midi": 55,
          "time": 209.9767441860115,
          "velocity": 0.2204724409448819,
          "duration": 0.04651162790696617
        },
        {
          "name": "D#6",
          "midi": 87,
          "time": 209.99999999996498,
          "velocity": 0.1732283464566929,
          "duration": 0.10465116279067388
        },
        {
          "name": "C3",
          "midi": 48,
          "time": 210.01162790694173,
          "velocity": 0.4566929133858268,
          "duration": 0.023255813953483084
        },
        {
          "name": "A#3",
          "midi": 58,
          "time": 210.02325581391847,
          "velocity": 0.41732283464566927,
          "duration": 0.034883720930224626
        },
        {
          "name": "A5",
          "midi": 81,
          "time": 210.02325581391847,
          "velocity": 0.2992125984251969,
          "duration": 0.39534883720921243
        },
        {
          "name": "C7",
          "midi": 96,
          "time": 210.02325581391847,
          "velocity": 0.2125984251968504,
          "duration": 0.29069767441853855
        },
        {
          "name": "F7",
          "midi": 101,
          "time": 210.0348837208952,
          "velocity": 0.14173228346456693,
          "duration": 0.06976744186044925
        },
        {
          "name": "D2",
          "midi": 38,
          "time": 210.04651162787195,
          "velocity": 0.41732283464566927,
          "duration": 0.023255813953483084
        },
        {
          "name": "F#5",
          "midi": 78,
          "time": 210.04651162787195,
          "velocity": 0.29133858267716534,
          "duration": 0.034883720930224626
        },
        {
          "name": "C6",
          "midi": 84,
          "time": 210.04651162787195,
          "velocity": 0.12598425196850394,
          "duration": 0.05813953488370771
        },
        {
          "name": "D#7",
          "midi": 99,
          "time": 210.04651162787195,
          "velocity": 0.1889763779527559,
          "duration": 0.1395348837208985
        },
        {
          "name": "E7",
          "midi": 100,
          "time": 210.04651162787195,
          "velocity": 0.14173228346456693,
          "duration": 0.26744186046505547
        },
        {
          "name": "G7",
          "midi": 103,
          "time": 210.04651162787195,
          "velocity": 0.13385826771653545,
          "duration": 0.09302325581393234
        },
        {
          "name": "A4",
          "midi": 69,
          "time": 210.0581395348487,
          "velocity": 0.2755905511811024,
          "duration": 0.034883720930224626
        },
        {
          "name": "C4",
          "midi": 60,
          "time": 210.08139534880218,
          "velocity": 0.3779527559055118,
          "duration": 0.034883720930224626
        },
        {
          "name": "C3",
          "midi": 48,
          "time": 210.09302325577892,
          "velocity": 0.5275590551181102,
          "duration": 0.04651162790696617
        },
        {
          "name": "G4",
          "midi": 67,
          "time": 210.09302325577892,
          "velocity": 0.33070866141732286,
          "duration": 0.034883720930224626
        },
        {
          "name": "A#4",
          "midi": 70,
          "time": 210.09302325577892,
          "velocity": 0.2047244094488189,
          "duration": 0.05813953488370771
        },
        {
          "name": "G#6",
          "midi": 92,
          "time": 210.10465116275566,
          "velocity": 0.09448818897637795,
          "duration": 0.034883720930224626
        },
        {
          "name": "C5",
          "midi": 72,
          "time": 210.1162790697324,
          "velocity": 0.14960629921259844,
          "duration": 0.034883720930224626
        },
        {
          "name": "A#6",
          "midi": 94,
          "time": 210.1162790697324,
          "velocity": 0.12598425196850394,
          "duration": 0.279069767441797
        },
        {
          "name": "C#3",
          "midi": 49,
          "time": 210.13953488368588,
          "velocity": 0.5196850393700787,
          "duration": 0.011627906976741542
        },
        {
          "name": "G3",
          "midi": 55,
          "time": 210.13953488368588,
          "velocity": 0.23622047244094488,
          "duration": 0.034883720930224626
        },
        {
          "name": "G4",
          "midi": 67,
          "time": 210.13953488368588,
          "velocity": 0.33070866141732286,
          "duration": 0.1395348837208985
        },
        {
          "name": "C3",
          "midi": 48,
          "time": 210.15116279066262,
          "velocity": 0.5196850393700787,
          "duration": 0.023255813953483084
        },
        {
          "name": "B5",
          "midi": 83,
          "time": 210.15116279066262,
          "velocity": 0.07086614173228346,
          "duration": 0.04651162790696617
        },
        {
          "name": "F7",
          "midi": 101,
          "time": 210.15116279066262,
          "velocity": 0.07086614173228346,
          "duration": 0.04651162790696617
        },
        {
          "name": "F#2",
          "midi": 42,
          "time": 210.1744186046161,
          "velocity": 0.2992125984251969,
          "duration": 0.023255813953483084
        },
        {
          "name": "C#3",
          "midi": 49,
          "time": 210.1744186046161,
          "velocity": 0.3937007874015748,
          "duration": 0.034883720930224626
        },
        {
          "name": "E4",
          "midi": 64,
          "time": 210.1744186046161,
          "velocity": 0.23622047244094488,
          "duration": 0.05813953488370771
        },
        {
          "name": "A#4",
          "midi": 70,
          "time": 210.1744186046161,
          "velocity": 0.1732283464566929,
          "duration": 0.06976744186044925
        },
        {
          "name": "G3",
          "midi": 55,
          "time": 210.1976744185696,
          "velocity": 0.2283464566929134,
          "duration": 0.034883720930224626
        },
        {
          "name": "C3",
          "midi": 48,
          "time": 210.20930232554633,
          "velocity": 0.48031496062992124,
          "duration": 0.023255813953483084
        },
        {
          "name": "D#7",
          "midi": 99,
          "time": 210.22093023252307,
          "velocity": 0.13385826771653545,
          "duration": 0.10465116279067388
        },
        {
          "name": "B5",
          "midi": 83,
          "time": 210.23255813949982,
          "velocity": 0.2047244094488189,
          "duration": 0.09302325581393234
        },
        {
          "name": "G6",
          "midi": 91,
          "time": 210.23255813949982,
          "velocity": 0.07874015748031496,
          "duration": 0.034883720930224626
        },
        {
          "name": "D7",
          "midi": 98,
          "time": 210.23255813949982,
          "velocity": 0.1968503937007874,
          "duration": 0.06976744186044925
        },
        {
          "name": "C3",
          "midi": 48,
          "time": 210.24418604647656,
          "velocity": 0.5433070866141733,
          "duration": 0.011627906976741542
        },
        {
          "name": "C2",
          "midi": 36,
          "time": 210.2558139534533,
          "velocity": 0.5118110236220472,
          "duration": 0.011627906976741542
        },
        {
          "name": "B2",
          "midi": 47,
          "time": 210.2558139534533,
          "velocity": 0.5590551181102362,
          "duration": 0.011627906976741542
        },
        {
          "name": "E4",
          "midi": 64,
          "time": 210.2558139534533,
          "velocity": 0.2755905511811024,
          "duration": 0.04651162790696617
        },
        {
          "name": "C3",
          "midi": 48,
          "time": 210.26744186043004,
          "velocity": 0.5275590551181102,
          "duration": 0.011627906976741542
        },
        {
          "name": "G#6",
          "midi": 92,
          "time": 210.26744186043004,
          "velocity": 0.09448818897637795,
          "duration": 0.034883720930224626
        },
        {
          "name": "C#3",
          "midi": 49,
          "time": 210.27906976740678,
          "velocity": 0.5275590551181102,
          "duration": 0.011627906976741542
        },
        {
          "name": "G#3",
          "midi": 56,
          "time": 210.29069767438352,
          "velocity": 0.3858267716535433,
          "duration": 0.023255813953483084
        },
        {
          "name": "G4",
          "midi": 67,
          "time": 210.29069767438352,
          "velocity": 0.31496062992125984,
          "duration": 0.18604651162786467
        },
        {
          "name": "A#4",
          "midi": 70,
          "time": 210.29069767438352,
          "velocity": 0.28346456692913385,
          "duration": 0.2209302325580893
        },
        {
          "name": "D5",
          "midi": 74,
          "time": 210.29069767438352,
          "velocity": 0.1968503937007874,
          "duration": 0.15116279069764005
        },
        {
          "name": "G3",
          "midi": 55,
          "time": 210.313953488337,
          "velocity": 0.3543307086614173,
          "duration": 0.04651162790696617
        },
        {
          "name": "C4",
          "midi": 60,
          "time": 210.313953488337,
          "velocity": 0.33858267716535434,
          "duration": 0.034883720930224626
        },
        {
          "name": "D7",
          "midi": 98,
          "time": 210.313953488337,
          "velocity": 0.25984251968503935,
          "duration": 0.29069767441853855
        },
        {
          "name": "F7",
          "midi": 101,
          "time": 210.32558139531375,
          "velocity": 0.12598425196850394,
          "duration": 0.06976744186044925
        },
        {
          "name": "C7",
          "midi": 96,
          "time": 210.3372093022905,
          "velocity": 0.08661417322834646,
          "duration": 0.06976744186044925
        },
        {
          "name": "E4",
          "midi": 64,
          "time": 210.34883720926723,
          "velocity": 0.36220472440944884,
          "duration": 0.11627906976741542
        },
        {
          "name": "B5",
          "midi": 83,
          "time": 210.34883720926723,
          "velocity": 0.2125984251968504,
          "duration": 0.2209302325580893
        },
        {
          "name": "D3",
          "midi": 50,
          "time": 210.36046511624397,
          "velocity": 0.31496062992125984,
          "duration": 0.023255813953483084
        },
        {
          "name": "G#3",
          "midi": 56,
          "time": 210.36046511624397,
          "velocity": 0.23622047244094488,
          "duration": 0.023255813953483084
        },
        {
          "name": "C4",
          "midi": 60,
          "time": 210.3720930232207,
          "velocity": 0.3464566929133858,
          "duration": 0.06976744186044925
        },
        {
          "name": "C3",
          "midi": 48,
          "time": 210.38372093019746,
          "velocity": 0.4251968503937008,
          "duration": 0.023255813953483084
        },
        {
          "name": "G3",
          "midi": 55,
          "time": 210.40697674415094,
          "velocity": 0.3937007874015748,
          "duration": 0.04651162790696617
        },
        {
          "name": "C7",
          "midi": 96,
          "time": 210.41860465112768,
          "velocity": 0.12598425196850394,
          "duration": 0.04651162790696617
        },
        {
          "name": "E2",
          "midi": 40,
          "time": 210.43023255810442,
          "velocity": 0.4094488188976378,
          "duration": 0.023255813953483084
        },
        {
          "name": "E7",
          "midi": 100,
          "time": 210.43023255810442,
          "velocity": 0.33858267716535434,
          "duration": 0.7325581395347172
        },
        {
          "name": "G7",
          "midi": 103,
          "time": 210.43023255810442,
          "velocity": 0.13385826771653545,
          "duration": 0.04651162790696617
        },
        {
          "name": "G3",
          "midi": 55,
          "time": 210.46511627903465,
          "velocity": 0.41732283464566927,
          "duration": 0.023255813953483084
        },
        {
          "name": "F#5",
          "midi": 78,
          "time": 210.46511627903465,
          "velocity": 0.10236220472440945,
          "duration": 0.10465116279067388
        },
        {
          "name": "D#6",
          "midi": 87,
          "time": 210.46511627903465,
          "velocity": 0.1732283464566929,
          "duration": 0.09302325581393234
        },
        {
          "name": "G#6",
          "midi": 92,
          "time": 210.46511627903465,
          "velocity": 0.08661417322834646,
          "duration": 0.034883720930224626
        },
        {
          "name": "D#7",
          "midi": 99,
          "time": 210.46511627903465,
          "velocity": 0.1732283464566929,
          "duration": 0.034883720930224626
        },
        {
          "name": "F#7",
          "midi": 102,
          "time": 210.46511627903465,
          "velocity": 0.25984251968503935,
          "duration": 0.10465116279067388
        },
        {
          "name": "F2",
          "midi": 41,
          "time": 210.4767441860114,
          "velocity": 0.5196850393700787,
          "duration": 0.011627906976741542
        },
        {
          "name": "D4",
          "midi": 62,
          "time": 210.4767441860114,
          "velocity": 0.3858267716535433,
          "duration": 0.023255813953483084
        },
        {
          "name": "A5",
          "midi": 81,
          "time": 210.4767441860114,
          "velocity": 0.36220472440944884,
          "duration": 0.06976744186044925
        },
        {
          "name": "C6",
          "midi": 84,
          "time": 210.4767441860114,
          "velocity": 0.14960629921259844,
          "duration": 0.12790697674415696
        },
        {
          "name": "D6",
          "midi": 86,
          "time": 210.4767441860114,
          "velocity": 0.2755905511811024,
          "duration": 0.06976744186044925
        },
        {
          "name": "A6",
          "midi": 93,
          "time": 210.4767441860114,
          "velocity": 0.49606299212598426,
          "duration": 1.0581395348834803
        },
        {
          "name": "D3",
          "midi": 50,
          "time": 210.48837209298813,
          "velocity": 0.5590551181102362,
          "duration": 0.05813953488370771
        },
        {
          "name": "E2",
          "midi": 40,
          "time": 210.49999999996487,
          "velocity": 0.47244094488188976,
          "duration": 0.023255813953483084
        },
        {
          "name": "A3",
          "midi": 57,
          "time": 210.49999999996487,
          "velocity": 0.48031496062992124,
          "duration": 0.034883720930224626
        },
        {
          "name": "D5",
          "midi": 74,
          "time": 210.49999999996487,
          "velocity": 0.25196850393700787,
          "duration": 0.2209302325580893
        },
        {
          "name": "F2",
          "midi": 41,
          "time": 210.52325581391835,
          "velocity": 0.5196850393700787,
          "duration": 0.023255813953483084
        },
        {
          "name": "C5",
          "midi": 72,
          "time": 210.52325581391835,
          "velocity": 0.13385826771653545,
          "duration": 0.04651162790696617
        },
        {
          "name": "C#3",
          "midi": 49,
          "time": 210.54651162787184,
          "velocity": 0.6141732283464567,
          "duration": 0.011627906976741542
        },
        {
          "name": "G4",
          "midi": 67,
          "time": 210.54651162787184,
          "velocity": 0.16535433070866143,
          "duration": 0.06976744186044925
        },
        {
          "name": "D3",
          "midi": 50,
          "time": 210.55813953484858,
          "velocity": 0.6220472440944882,
          "duration": 0.04651162790696617
        },
        {
          "name": "A5",
          "midi": 81,
          "time": 210.55813953484858,
          "velocity": 0.4094488188976378,
          "duration": 0.4651162790696617
        },
        {
          "name": "A2",
          "midi": 45,
          "time": 210.58139534880206,
          "velocity": 0.5748031496062992,
          "duration": 0.023255813953483084
        },
        {
          "name": "C3",
          "midi": 48,
          "time": 210.60465116275554,
          "velocity": 0.5905511811023622,
          "duration": 0.011627906976741542
        },
        {
          "name": "A2",
          "midi": 45,
          "time": 210.6162790697323,
          "velocity": 0.5118110236220472,
          "duration": 0.011627906976741542
        },
        {
          "name": "D3",
          "midi": 50,
          "time": 210.6162790697323,
          "velocity": 0.5196850393700787,
          "duration": 0.011627906976741542
        },
        {
          "name": "A4",
          "midi": 69,
          "time": 210.6162790697323,
          "velocity": 0.18110236220472442,
          "duration": 0.05813953488370771
        },
        {
          "name": "C5",
          "midi": 72,
          "time": 210.6162790697323,
          "velocity": 0.07086614173228346,
          "duration": 0.05813953488370771
        },
        {
          "name": "D7",
          "midi": 98,
          "time": 210.62790697670903,
          "velocity": 0.2677165354330709,
          "duration": 0.6046511627905602
        },
        {
          "name": "G4",
          "midi": 67,
          "time": 210.6511627906625,
          "velocity": 0.33070866141732286,
          "duration": 0.04651162790696617
        },
        {
          "name": "F#7",
          "midi": 102,
          "time": 210.6511627906625,
          "velocity": 0.16535433070866143,
          "duration": 0.11627906976741542
        },
        {
          "name": "F2",
          "midi": 41,
          "time": 210.68604651159274,
          "velocity": 0.5196850393700787,
          "duration": 0.011627906976741542
        },
        {
          "name": "F#5",
          "midi": 78,
          "time": 210.68604651159274,
          "velocity": 0.2755905511811024,
          "duration": 0.17441860465112313
        },
        {
          "name": "E6",
          "midi": 88,
          "time": 210.68604651159274,
          "velocity": 0.18110236220472442,
          "duration": 0.15116279069764005
        },
        {
          "name": "C7",
          "midi": 96,
          "time": 210.68604651159274,
          "velocity": 0.10236220472440945,
          "duration": 0.06976744186044925
        },
        {
          "name": "C#7",
          "midi": 97,
          "time": 210.68604651159274,
          "velocity": 0.12598425196850394,
          "duration": 0.06976744186044925
        },
        {
          "name": "D#7",
          "midi": 99,
          "time": 210.68604651159274,
          "velocity": 0.10236220472440945,
          "duration": 0.034883720930224626
        },
        {
          "name": "D3",
          "midi": 50,
          "time": 210.69767441856948,
          "velocity": 0.6220472440944882,
          "duration": 0.11627906976741542
        },
        {
          "name": "F#4",
          "midi": 66,
          "time": 210.69767441856948,
          "velocity": 0.2992125984251969,
          "duration": 0.18604651162786467
        },
        {
          "name": "E5",
          "midi": 76,
          "time": 210.69767441856948,
          "velocity": 0.3228346456692913,
          "duration": 0.3255813953487632
        },
        {
          "name": "A3",
          "midi": 57,
          "time": 210.70930232554622,
          "velocity": 0.44881889763779526,
          "duration": 0.04651162790696617
        },
        {
          "name": "F2",
          "midi": 41,
          "time": 210.7325581394997,
          "velocity": 0.4645669291338583,
          "duration": 0.023255813953483084
        },
        {
          "name": "D5",
          "midi": 74,
          "time": 210.76744186042993,
          "velocity": 0.41732283464566927,
          "duration": 0.18604651162786467
        },
        {
          "name": "F#7",
          "midi": 102,
          "time": 210.77906976740667,
          "velocity": 0.11811023622047244,
          "duration": 0.04651162790696617
        },
        {
          "name": "A2",
          "midi": 45,
          "time": 210.80232558136015,
          "velocity": 0.5511811023622047,
          "duration": 0.011627906976741542
        },
        {
          "name": "C#3",
          "midi": 49,
          "time": 210.8139534883369,
          "velocity": 0.6220472440944882,
          "duration": 0.011627906976741542
        },
        {
          "name": "A2",
          "midi": 45,
          "time": 210.82558139531363,
          "velocity": 0.5826771653543307,
          "duration": 0.04651162790696617
        },
        {
          "name": "D3",
          "midi": 50,
          "time": 210.82558139531363,
          "velocity": 0.5669291338582677,
          "duration": 0.011627906976741542
        },
        {
          "name": "D3",
          "midi": 50,
          "time": 210.84883720926712,
          "velocity": 0.5039370078740157,
          "duration": 0.023255813953483084
        },
        {
          "name": "G4",
          "midi": 67,
          "time": 210.88372093019734,
          "velocity": 0.5039370078740157,
          "duration": 0.05813953488370771
        },
        {
          "name": "C6",
          "midi": 84,
          "time": 210.89534883717408,
          "velocity": 0.13385826771653545,
          "duration": 0.04651162790696617
        },
        {
          "name": "F#6",
          "midi": 90,
          "time": 210.89534883717408,
          "velocity": 0.11811023622047244,
          "duration": 0.034883720930224626
        },
        {
          "name": "C7",
          "midi": 96,
          "time": 210.89534883717408,
          "velocity": 0.1732283464566929,
          "duration": 0.18604651162786467
        },
        {
          "name": "C#7",
          "midi": 97,
          "time": 210.89534883717408,
          "velocity": 0.36220472440944884,
          "duration": 1.093023255813705
        },
        {
          "name": "D3",
          "midi": 50,
          "time": 210.90697674415082,
          "velocity": 0.4566929133858268,
          "duration": 0.023255813953483084
        },
        {
          "name": "A3",
          "midi": 57,
          "time": 210.90697674415082,
          "velocity": 0.3779527559055118,
          "duration": 0.034883720930224626
        },
        {
          "name": "B6",
          "midi": 95,
          "time": 210.90697674415082,
          "velocity": 0.09448818897637795,
          "duration": 0.034883720930224626
        },
        {
          "name": "D#7",
          "midi": 99,
          "time": 210.90697674415082,
          "velocity": 0.13385826771653545,
          "duration": 0.24418604651157239
        },
        {
          "name": "F#7",
          "midi": 102,
          "time": 210.90697674415082,
          "velocity": 0.2440944881889764,
          "duration": 0.17441860465112313
        },
        {
          "name": "G#2",
          "midi": 44,
          "time": 210.9302325581043,
          "velocity": 0.48031496062992124,
          "duration": 0.04651162790696617
        },
        {
          "name": "F7",
          "midi": 101,
          "time": 210.94186046508105,
          "velocity": 0.14960629921259844,
          "duration": 0.10465116279067388
        },
        {
          "name": "D4",
          "midi": 62,
          "time": 210.9534883720578,
          "velocity": 0.30708661417322836,
          "duration": 0.034883720930224626
        },
        {
          "name": "C5",
          "midi": 72,
          "time": 210.9534883720578,
          "velocity": 0.2204724409448819,
          "duration": 0.05813953488370771
        },
        {
          "name": "A2",
          "midi": 45,
          "time": 210.97674418601127,
          "velocity": 0.3937007874015748,
          "duration": 0.023255813953483084
        },
        {
          "name": "F#4",
          "midi": 66,
          "time": 210.97674418601127,
          "velocity": 0.3543307086614173,
          "duration": 0.11627906976741542
        },
        {
          "name": "D5",
          "midi": 74,
          "time": 210.98837209298802,
          "velocity": 0.33858267716535434,
          "duration": 0.6162790697673017
        },
        {
          "name": "G7",
          "midi": 103,
          "time": 210.98837209298802,
          "velocity": 0.10236220472440945,
          "duration": 0.05813953488370771
        },
        {
          "name": "A#3",
          "midi": 58,
          "time": 211.0116279069415,
          "velocity": 0.3543307086614173,
          "duration": 0.023255813953483084
        },
        {
          "name": "D3",
          "midi": 50,
          "time": 211.02325581391824,
          "velocity": 0.4251968503937008,
          "duration": 0.034883720930224626
        },
        {
          "name": "A4",
          "midi": 69,
          "time": 211.02325581391824,
          "velocity": 0.2755905511811024,
          "duration": 0.1627906976743816
        },
        {
          "name": "A3",
          "midi": 57,
          "time": 211.03488372089498,
          "velocity": 0.33070866141732286,
          "duration": 0.034883720930224626
        },
        {
          "name": "A5",
          "midi": 81,
          "time": 211.03488372089498,
          "velocity": 0.3858267716535433,
          "duration": 0.18604651162786467
        },
        {
          "name": "C#6",
          "midi": 85,
          "time": 211.04651162787172,
          "velocity": 0.11023622047244094,
          "duration": 0.05813953488370771
        },
        {
          "name": "F#5",
          "midi": 78,
          "time": 211.05813953484846,
          "velocity": 0.5433070866141733,
          "duration": 0.7209302325579756
        },
        {
          "name": "D3",
          "midi": 50,
          "time": 211.0697674418252,
          "velocity": 0.4881889763779528,
          "duration": 0.023255813953483084
        },
        {
          "name": "A#3",
          "midi": 58,
          "time": 211.0697674418252,
          "velocity": 0.31496062992125984,
          "duration": 0.023255813953483084
        },
        {
          "name": "E5",
          "midi": 76,
          "time": 211.08139534880195,
          "velocity": 0.1732283464566929,
          "duration": 0.034883720930224626
        },
        {
          "name": "D#3",
          "midi": 51,
          "time": 211.0930232557787,
          "velocity": 0.47244094488188976,
          "duration": 0.034883720930224626
        },
        {
          "name": "D2",
          "midi": 38,
          "time": 211.10465116275543,
          "velocity": 0.36220472440944884,
          "duration": 0.023255813953483084
        },
        {
          "name": "G4",
          "midi": 67,
          "time": 211.10465116275543,
          "velocity": 0.31496062992125984,
          "duration": 0.04651162790696617
        },
        {
          "name": "E6",
          "midi": 88,
          "time": 211.10465116275543,
          "velocity": 0.2047244094488189,
          "duration": 0.10465116279067388
        },
        {
          "name": "E2",
          "midi": 40,
          "time": 211.1279069767089,
          "velocity": 0.44881889763779526,
          "duration": 0.034883720930224626
        },
        {
          "name": "D3",
          "midi": 50,
          "time": 211.1279069767089,
          "velocity": 0.6220472440944882,
          "duration": 0.1395348837208985
        },
        {
          "name": "B5",
          "midi": 83,
          "time": 211.1279069767089,
          "velocity": 0.11023622047244094,
          "duration": 0.09302325581393234
        },
        {
          "name": "A3",
          "midi": 57,
          "time": 211.13953488368566,
          "velocity": 0.36220472440944884,
          "duration": 0.023255813953483084
        },
        {
          "name": "C#6",
          "midi": 85,
          "time": 211.13953488368566,
          "velocity": 0.10236220472440945,
          "duration": 0.034883720930224626
        },
        {
          "name": "E5",
          "midi": 76,
          "time": 211.1511627906624,
          "velocity": 0.2283464566929134,
          "duration": 0.12790697674415696
        },
        {
          "name": "F2",
          "midi": 41,
          "time": 211.16279069763914,
          "velocity": 0.4881889763779528,
          "duration": 0.023255813953483084
        },
        {
          "name": "A#3",
          "midi": 58,
          "time": 211.16279069763914,
          "velocity": 0.4015748031496063,
          "duration": 0.023255813953483084
        },
        {
          "name": "A3",
          "midi": 57,
          "time": 211.22093023252285,
          "velocity": 0.1968503937007874,
          "duration": 0.04651162790696617
        },
        {
          "name": "A4",
          "midi": 69,
          "time": 211.2325581394996,
          "velocity": 0.3228346456692913,
          "duration": 0.3023255813952801
        },
        {
          "name": "D7",
          "midi": 98,
          "time": 211.25581395345307,
          "velocity": 0.25984251968503935,
          "duration": 0.18604651162786467
        },
        {
          "name": "D#3",
          "midi": 51,
          "time": 211.2674418604298,
          "velocity": 0.3464566929133858,
          "duration": 0.023255813953483084
        },
        {
          "name": "A3",
          "midi": 57,
          "time": 211.27906976740655,
          "velocity": 0.25196850393700787,
          "duration": 0.023255813953483084
        },
        {
          "name": "D3",
          "midi": 50,
          "time": 211.2906976743833,
          "velocity": 0.3779527559055118,
          "duration": 0.023255813953483084
        },
        {
          "name": "E4",
          "midi": 64,
          "time": 211.2906976743833,
          "velocity": 0.15748031496062992,
          "duration": 0.034883720930224626
        },
        {
          "name": "D#3",
          "midi": 51,
          "time": 211.31395348833678,
          "velocity": 0.4251968503937008,
          "duration": 0.034883720930224626
        },
        {
          "name": "F#4",
          "midi": 66,
          "time": 211.31395348833678,
          "velocity": 0.10236220472440945,
          "duration": 0.04651162790696617
        },
        {
          "name": "D#6",
          "midi": 87,
          "time": 211.32558139531352,
          "velocity": 0.14173228346456693,
          "duration": 0.11627906976741542
        },
        {
          "name": "E7",
          "midi": 100,
          "time": 211.32558139531352,
          "velocity": 0.13385826771653545,
          "duration": 0.05813953488370771
        },
        {
          "name": "D4",
          "midi": 62,
          "time": 211.33720930229026,
          "velocity": 0.48031496062992124,
          "duration": 0.39534883720921243
        },
        {
          "name": "E6",
          "midi": 88,
          "time": 211.33720930229026,
          "velocity": 0.08661417322834646,
          "duration": 0.05813953488370771
        },
        {
          "name": "D3",
          "midi": 50,
          "time": 211.348837209267,
          "velocity": 0.6535433070866141,
          "duration": 0.1395348837208985
        },
        {
          "name": "A3",
          "midi": 57,
          "time": 211.348837209267,
          "velocity": 0.4330708661417323,
          "duration": 0.06976744186044925
        },
        {
          "name": "C5",
          "midi": 72,
          "time": 211.348837209267,
          "velocity": 0.1732283464566929,
          "duration": 0.11627906976741542
        },
        {
          "name": "C7",
          "midi": 96,
          "time": 211.36046511624374,
          "velocity": 0.14960629921259844,
          "duration": 0.034883720930224626
        },
        {
          "name": "F#2",
          "midi": 42,
          "time": 211.38372093019723,
          "velocity": 0.5275590551181102,
          "duration": 0.023255813953483084
        },
        {
          "name": "F#4",
          "midi": 66,
          "time": 211.38372093019723,
          "velocity": 0.1732283464566929,
          "duration": 0.04651162790696617
        },
        {
          "name": "E5",
          "midi": 76,
          "time": 211.41860465112745,
          "velocity": 0.11023622047244094,
          "duration": 0.034883720930224626
        },
        {
          "name": "A2",
          "midi": 45,
          "time": 211.44186046508094,
          "velocity": 0.5433070866141733,
          "duration": 0.011627906976741542
        },
        {
          "name": "G#3",
          "midi": 56,
          "time": 211.44186046508094,
          "velocity": 0.25196850393700787,
          "duration": 0.023255813953483084
        },
        {
          "name": "C#6",
          "midi": 85,
          "time": 211.44186046508094,
          "velocity": 0.08661417322834646,
          "duration": 0.04651162790696617
        },
        {
          "name": "E7",
          "midi": 100,
          "time": 211.44186046508094,
          "velocity": 0.2755905511811024,
          "duration": 0.5232558139533694
        },
        {
          "name": "A2",
          "midi": 45,
          "time": 211.46511627903442,
          "velocity": 0.5984251968503937,
          "duration": 0.023255813953483084
        },
        {
          "name": "C3",
          "midi": 48,
          "time": 211.4883720929879,
          "velocity": 0.6062992125984252,
          "duration": 0.011627906976741542
        },
        {
          "name": "E5",
          "midi": 76,
          "time": 211.4883720929879,
          "velocity": 0.07874015748031496,
          "duration": 0.05813953488370771
        },
        {
          "name": "A2",
          "midi": 45,
          "time": 211.49999999996464,
          "velocity": 0.6141732283464567,
          "duration": 0.011627906976741542
        },
        {
          "name": "D3",
          "midi": 50,
          "time": 211.49999999996464,
          "velocity": 0.5118110236220472,
          "duration": 0.011627906976741542
        },
        {
          "name": "C#6",
          "midi": 85,
          "time": 211.49999999996464,
          "velocity": 0.10236220472440945,
          "duration": 0.034883720930224626
        },
        {
          "name": "G#2",
          "midi": 44,
          "time": 211.51162790694138,
          "velocity": 0.6141732283464567,
          "duration": 0.011627906976741542
        },
        {
          "name": "A2",
          "midi": 45,
          "time": 211.52325581391813,
          "velocity": 0.5354330708661418,
          "duration": 0.011627906976741542
        },
        {
          "name": "A5",
          "midi": 81,
          "time": 211.52325581391813,
          "velocity": 0.3858267716535433,
          "duration": 0.6744186046510094
        },
        {
          "name": "G7",
          "midi": 103,
          "time": 211.52325581391813,
          "velocity": 0.11811023622047244,
          "duration": 0.06976744186044925
        },
        {
          "name": "C2",
          "midi": 36,
          "time": 211.53488372089487,
          "velocity": 0.5669291338582677,
          "duration": 0.011627906976741542
        },
        {
          "name": "A#4",
          "midi": 70,
          "time": 211.53488372089487,
          "velocity": 0.2440944881889764,
          "duration": 0.023255813953483084
        },
        {
          "name": "G#2",
          "midi": 44,
          "time": 211.5465116278716,
          "velocity": 0.6141732283464567,
          "duration": 0.023255813953483084
        },
        {
          "name": "C5",
          "midi": 72,
          "time": 211.5465116278716,
          "velocity": 0.13385826771653545,
          "duration": 0.06976744186044925
        },
        {
          "name": "E6",
          "midi": 88,
          "time": 211.5465116278716,
          "velocity": 0.2047244094488189,
          "duration": 0.06976744186044925
        },
        {
          "name": "D7",
          "midi": 98,
          "time": 211.5465116278716,
          "velocity": 0.16535433070866143,
          "duration": 0.0813953488371908
        },
        {
          "name": "F#4",
          "midi": 66,
          "time": 211.55813953484835,
          "velocity": 0.33858267716535434,
          "duration": 0.18604651162786467
        },
        {
          "name": "A4",
          "midi": 69,
          "time": 211.55813953484835,
          "velocity": 0.25196850393700787,
          "duration": 0.023255813953483084
        },
        {
          "name": "C7",
          "midi": 96,
          "time": 211.55813953484835,
          "velocity": 0.08661417322834646,
          "duration": 0.034883720930224626
        },
        {
          "name": "A3",
          "midi": 57,
          "time": 211.5697674418251,
          "velocity": 0.3543307086614173,
          "duration": 0.034883720930224626
        },
        {
          "name": "E5",
          "midi": 76,
          "time": 211.58139534880183,
          "velocity": 0.33070866141732286,
          "duration": 0.12790697674415696
        },
        {
          "name": "A4",
          "midi": 69,
          "time": 211.59302325577858,
          "velocity": 0.4330708661417323,
          "duration": 0.3837209302324709
        },
        {
          "name": "C#6",
          "midi": 85,
          "time": 211.59302325577858,
          "velocity": 0.07874015748031496,
          "duration": 0.06976744186044925
        },
        {
          "name": "F7",
          "midi": 101,
          "time": 211.59302325577858,
          "velocity": 0.10236220472440945,
          "duration": 0.09302325581393234
        },
        {
          "name": "A#3",
          "midi": 58,
          "time": 211.60465116275532,
          "velocity": 0.3543307086614173,
          "duration": 0.023255813953483084
        },
        {
          "name": "D#7",
          "midi": 99,
          "time": 211.60465116275532,
          "velocity": 0.18110236220472442,
          "duration": 0.558139534883594
        },
        {
          "name": "A3",
          "midi": 57,
          "time": 211.6279069767088,
          "velocity": 0.36220472440944884,
          "duration": 0.04651162790696617
        },
        {
          "name": "G7",
          "midi": 103,
          "time": 211.6279069767088,
          "velocity": 0.18110236220472442,
          "duration": 0.05813953488370771
        },
        {
          "name": "C5",
          "midi": 72,
          "time": 211.65116279066228,
          "velocity": 0.12598425196850394,
          "duration": 0.034883720930224626
        },
        {
          "name": "D3",
          "midi": 50,
          "time": 211.66279069763902,
          "velocity": 0.4015748031496063,
          "duration": 0.034883720930224626
        },
        {
          "name": "C7",
          "midi": 96,
          "time": 211.66279069763902,
          "velocity": 0.11811023622047244,
          "duration": 0.04651162790696617
        },
        {
          "name": "A3",
          "midi": 57,
          "time": 211.6860465115925,
          "velocity": 0.3228346456692913,
          "duration": 0.034883720930224626
        },
        {
          "name": "D2",
          "midi": 38,
          "time": 211.69767441856925,
          "velocity": 0.36220472440944884,
          "duration": 0.023255813953483084
        },
        {
          "name": "D#3",
          "midi": 51,
          "time": 211.69767441856925,
          "velocity": 0.48031496062992124,
          "duration": 0.023255813953483084
        },
        {
          "name": "C5",
          "midi": 72,
          "time": 211.709302325546,
          "velocity": 0.11811023622047244,
          "duration": 0.034883720930224626
        },
        {
          "name": "G7",
          "midi": 103,
          "time": 211.709302325546,
          "velocity": 0.14960629921259844,
          "duration": 0.10465116279067388
        },
        {
          "name": "D3",
          "midi": 50,
          "time": 211.72093023252273,
          "velocity": 0.5039370078740157,
          "duration": 0.023255813953483084
        },
        {
          "name": "A#3",
          "midi": 58,
          "time": 211.72093023252273,
          "velocity": 0.4409448818897638,
          "duration": 0.05813953488370771
        },
        {
          "name": "D#4",
          "midi": 63,
          "time": 211.73255813949947,
          "velocity": 0.3464566929133858,
          "duration": 0.023255813953483084
        },
        {
          "name": "D#3",
          "midi": 51,
          "time": 211.74418604647622,
          "velocity": 0.5118110236220472,
          "duration": 0.023255813953483084
        },
        {
          "name": "C#6",
          "midi": 85,
          "time": 211.74418604647622,
          "velocity": 0.2992125984251969,
          "duration": 0.04651162790696617
        },
        {
          "name": "D#6",
          "midi": 87,
          "time": 211.74418604647622,
          "velocity": 0.1968503937007874,
          "duration": 0.11627906976741542
        },
        {
          "name": "C7",
          "midi": 96,
          "time": 211.74418604647622,
          "velocity": 0.2204724409448819,
          "duration": 0.11627906976741542
        },
        {
          "name": "D7",
          "midi": 98,
          "time": 211.74418604647622,
          "velocity": 0.4645669291338583,
          "duration": 0.7441860465114587
        },
        {
          "name": "F7",
          "midi": 101,
          "time": 211.74418604647622,
          "velocity": 0.12598425196850394,
          "duration": 0.06976744186044925
        },
        {
          "name": "E4",
          "midi": 64,
          "time": 211.75581395345296,
          "velocity": 0.2992125984251969,
          "duration": 0.023255813953483084
        },
        {
          "name": "D5",
          "midi": 74,
          "time": 211.75581395345296,
          "velocity": 0.4015748031496063,
          "duration": 0.034883720930224626
        },
        {
          "name": "E6",
          "midi": 88,
          "time": 211.75581395345296,
          "velocity": 0.2204724409448819,
          "duration": 0.15116279069764005
        },
        {
          "name": "G6",
          "midi": 91,
          "time": 211.75581395345296,
          "velocity": 0.47244094488188976,
          "duration": 0.558139534883594
        },
        {
          "name": "D3",
          "midi": 50,
          "time": 211.7674418604297,
          "velocity": 0.5275590551181102,
          "duration": 0.034883720930224626
        },
        {
          "name": "C6",
          "midi": 84,
          "time": 211.7674418604297,
          "velocity": 0.1732283464566929,
          "duration": 0.034883720930224626
        },
        {
          "name": "G5",
          "midi": 79,
          "time": 211.77906976740644,
          "velocity": 0.48031496062992124,
          "duration": 0.406976744185954
        },
        {
          "name": "C5",
          "midi": 72,
          "time": 211.79069767438318,
          "velocity": 0.1968503937007874,
          "duration": 0.17441860465112313
        },
        {
          "name": "F2",
          "midi": 41,
          "time": 211.80232558135992,
          "velocity": 0.5354330708661418,
          "duration": 0.023255813953483084
        },
        {
          "name": "A#3",
          "midi": 58,
          "time": 211.80232558135992,
          "velocity": 0.28346456692913385,
          "duration": 0.034883720930224626
        },
        {
          "name": "C#6",
          "midi": 85,
          "time": 211.80232558135992,
          "velocity": 0.25984251968503935,
          "duration": 0.023255813953483084
        },
        {
          "name": "D6",
          "midi": 86,
          "time": 211.81395348833667,
          "velocity": 0.1732283464566929,
          "duration": 0.05813953488370771
        },
        {
          "name": "G2",
          "midi": 43,
          "time": 211.8255813953134,
          "velocity": 0.5118110236220472,
          "duration": 0.011627906976741542
        },
        {
          "name": "D5",
          "midi": 74,
          "time": 211.8255813953134,
          "velocity": 0.23622047244094488,
          "duration": 0.0813953488371908
        },
        {
          "name": "F7",
          "midi": 101,
          "time": 211.8255813953134,
          "velocity": 0.10236220472440945,
          "duration": 0.04651162790696617
        },
        {
          "name": "D3",
          "midi": 50,
          "time": 211.83720930229015,
          "velocity": 0.4566929133858268,
          "duration": 0.023255813953483084
        },
        {
          "name": "F#4",
          "midi": 66,
          "time": 211.83720930229015,
          "velocity": 0.25984251968503935,
          "duration": 0.0813953488371908
        },
        {
          "name": "A#3",
          "midi": 58,
          "time": 211.86046511624363,
          "velocity": 0.23622047244094488,
          "duration": 0.04651162790696617
        },
        {
          "name": "D3",
          "midi": 50,
          "time": 211.87209302322037,
          "velocity": 0.4645669291338583,
          "duration": 0.10465116279067388
        },
        {
          "name": "F2",
          "midi": 41,
          "time": 211.9069767441506,
          "velocity": 0.2992125984251969,
          "duration": 0.023255813953483084
        },
        {
          "name": "E5",
          "midi": 76,
          "time": 211.9069767441506,
          "velocity": 0.11811023622047244,
          "duration": 0.04651162790696617
        },
        {
          "name": "C#6",
          "midi": 85,
          "time": 211.91860465112734,
          "velocity": 0.1732283464566929,
          "duration": 0.05813953488370771
        },
        {
          "name": "A3",
          "midi": 57,
          "time": 211.95348837205756,
          "velocity": 0.2677165354330709,
          "duration": 0.023255813953483084
        },
        {
          "name": "F#6",
          "midi": 90,
          "time": 211.9651162790343,
          "velocity": 0.25196850393700787,
          "duration": 0.10465116279067388
        },
        {
          "name": "C2",
          "midi": 36,
          "time": 211.97674418601105,
          "velocity": 0.5196850393700787,
          "duration": 0.011627906976741542
        },
        {
          "name": "D5",
          "midi": 74,
          "time": 211.97674418601105,
          "velocity": 0.1889763779527559,
          "duration": 0.034883720930224626
        },
        {
          "name": "E5",
          "midi": 76,
          "time": 211.97674418601105,
          "velocity": 0.25196850393700787,
          "duration": 0.20930232558134776
        },
        {
          "name": "B5",
          "midi": 83,
          "time": 211.97674418601105,
          "velocity": 0.12598425196850394,
          "duration": 0.05813953488370771
        },
        {
          "name": "D3",
          "midi": 50,
          "time": 211.9883720929878,
          "velocity": 0.4881889763779528,
          "duration": 0.023255813953483084
        },
        {
          "name": "F#4",
          "midi": 66,
          "time": 211.9883720929878,
          "velocity": 0.33070866141732286,
          "duration": 0.15116279069764005
        },
        {
          "name": "A4",
          "midi": 69,
          "time": 211.9883720929878,
          "velocity": 0.30708661417322836,
          "duration": 0.0813953488371908
        },
        {
          "name": "E7",
          "midi": 100,
          "time": 211.9883720929878,
          "velocity": 0.1889763779527559,
          "duration": 0.29069767441853855
        },
        {
          "name": "C5",
          "midi": 72,
          "time": 211.99999999996453,
          "velocity": 0.14960629921259844,
          "duration": 0.04651162790696617
        },
        {
          "name": "C#7",
          "midi": 97,
          "time": 211.99999999996453,
          "velocity": 0.2204724409448819,
          "duration": 0.18604651162786467
        },
        {
          "name": "F2",
          "midi": 41,
          "time": 212.01162790694127,
          "velocity": 0.5275590551181102,
          "duration": 0.023255813953483084
        },
        {
          "name": "D4",
          "midi": 62,
          "time": 212.023255813918,
          "velocity": 0.28346456692913385,
          "duration": 0.023255813953483084
        },
        {
          "name": "D3",
          "midi": 50,
          "time": 212.03488372089475,
          "velocity": 0.4330708661417323,
          "duration": 0.023255813953483084
        },
        {
          "name": "A3",
          "midi": 57,
          "time": 212.0465116278715,
          "velocity": 0.3937007874015748,
          "duration": 0.12790697674415696
        },
        {
          "name": "C7",
          "midi": 96,
          "time": 212.0465116278715,
          "velocity": 0.07874015748031496,
          "duration": 0.04651162790696617
        },
        {
          "name": "C5",
          "midi": 72,
          "time": 212.05813953484824,
          "velocity": 0.16535433070866143,
          "duration": 0.034883720930224626
        },
        {
          "name": "D#3",
          "midi": 51,
          "time": 212.08139534880172,
          "velocity": 0.4094488188976378,
          "duration": 0.023255813953483084
        },
        {
          "name": "D4",
          "midi": 62,
          "time": 212.08139534880172,
          "velocity": 0.2677165354330709,
          "duration": 0.023255813953483084
        },
        {
          "name": "C#6",
          "midi": 85,
          "time": 212.09302325577846,
          "velocity": 0.09448818897637795,
          "duration": 0.04651162790696617
        },
        {
          "name": "D#2",
          "midi": 39,
          "time": 212.11627906973195,
          "velocity": 0.41732283464566927,
          "duration": 0.023255813953483084
        },
        {
          "name": "D4",
          "midi": 62,
          "time": 212.11627906973195,
          "velocity": 0.3228346456692913,
          "duration": 0.05813953488370771
        },
        {
          "name": "C5",
          "midi": 72,
          "time": 212.11627906973195,
          "velocity": 0.12598425196850394,
          "duration": 0.034883720930224626
        },
        {
          "name": "F#6",
          "midi": 90,
          "time": 212.11627906973195,
          "velocity": 0.07874015748031496,
          "duration": 0.11627906976741542
        },
        {
          "name": "D#2",
          "midi": 39,
          "time": 212.15116279066217,
          "velocity": 0.4094488188976378,
          "duration": 0.023255813953483084
        },
        {
          "name": "F#4",
          "midi": 66,
          "time": 212.1627906976389,
          "velocity": 0.33070866141732286,
          "duration": 0.034883720930224626
        },
        {
          "name": "D2",
          "midi": 38,
          "time": 212.17441860461565,
          "velocity": 0.5118110236220472,
          "duration": 0.011627906976741542
        },
        {
          "name": "E3",
          "midi": 52,
          "time": 212.17441860461565,
          "velocity": 0.3858267716535433,
          "duration": 0.023255813953483084
        },
        {
          "name": "D#4",
          "midi": 63,
          "time": 212.17441860461565,
          "velocity": 0.33858267716535434,
          "duration": 0.023255813953483084
        },
        {
          "name": "F2",
          "midi": 41,
          "time": 212.1860465115924,
          "velocity": 0.5905511811023622,
          "duration": 0.011627906976741542
        },
        {
          "name": "D5",
          "midi": 74,
          "time": 212.1860465115924,
          "velocity": 0.16535433070866143,
          "duration": 0.10465116279067388
        },
        {
          "name": "G#1",
          "midi": 32,
          "time": 212.19767441856914,
          "velocity": 0.5118110236220472,
          "duration": 0.023255813953483084
        },
        {
          "name": "A2",
          "midi": 45,
          "time": 212.19767441856914,
          "velocity": 0.5984251968503937,
          "duration": 0.011627906976741542
        },
        {
          "name": "B4",
          "midi": 71,
          "time": 212.19767441856914,
          "velocity": 0.3700787401574803,
          "duration": 0.406976744185954
        },
        {
          "name": "G5",
          "midi": 79,
          "time": 212.19767441856914,
          "velocity": 0.4330708661417323,
          "duration": 0.15116279069764005
        },
        {
          "name": "C#7",
          "midi": 97,
          "time": 212.19767441856914,
          "velocity": 0.18110236220472442,
          "duration": 0.034883720930224626
        },
        {
          "name": "D#7",
          "midi": 99,
          "time": 212.19767441856914,
          "velocity": 0.15748031496062992,
          "duration": 0.06976744186044925
        },
        {
          "name": "D3",
          "midi": 50,
          "time": 212.20930232554588,
          "velocity": 0.5196850393700787,
          "duration": 0.011627906976741542
        },
        {
          "name": "B3",
          "midi": 59,
          "time": 212.20930232554588,
          "velocity": 0.36220472440944884,
          "duration": 0.04651162790696617
        },
        {
          "name": "E4",
          "midi": 64,
          "time": 212.20930232554588,
          "velocity": 0.4015748031496063,
          "duration": 0.18604651162786467
        },
        {
          "name": "F5",
          "midi": 77,
          "time": 212.20930232554588,
          "velocity": 0.2204724409448819,
          "duration": 0.04651162790696617
        },
        {
          "name": "C7",
          "midi": 96,
          "time": 212.22093023252262,
          "velocity": 0.08661417322834646,
          "duration": 0.04651162790696617
        },
        {
          "name": "D6",
          "midi": 86,
          "time": 212.2441860464761,
          "velocity": 0.2283464566929134,
          "duration": 0.29069767441853855
        },
        {
          "name": "E3",
          "midi": 52,
          "time": 212.25581395345284,
          "velocity": 0.5433070866141733,
          "duration": 0.04651162790696617
        },
        {
          "name": "B3",
          "midi": 59,
          "time": 212.26744186042959,
          "velocity": 0.3543307086614173,
          "duration": 0.05813953488370771
        },
        {
          "name": "F#6",
          "midi": 90,
          "time": 212.26744186042959,
          "velocity": 0.15748031496062992,
          "duration": 0.05813953488370771
        },
        {
          "name": "A4",
          "midi": 69,
          "time": 212.27906976740633,
          "velocity": 0.2677165354330709,
          "duration": 0.0813953488371908
        },
        {
          "name": "F#5",
          "midi": 78,
          "time": 212.29069767438307,
          "velocity": 0.1889763779527559,
          "duration": 0.04651162790696617
        },
        {
          "name": "F3",
          "midi": 53,
          "time": 212.3023255813598,
          "velocity": 0.5511811023622047,
          "duration": 0.011627906976741542
        },
        {
          "name": "D#3",
          "midi": 51,
          "time": 212.31395348833655,
          "velocity": 0.5511811023622047,
          "duration": 0.011627906976741542
        },
        {
          "name": "D#7",
          "midi": 99,
          "time": 212.31395348833655,
          "velocity": 0.12598425196850394,
          "duration": 0.06976744186044925
        },
        {
          "name": "E3",
          "midi": 52,
          "time": 212.3255813953133,
          "velocity": 0.4566929133858268,
          "duration": 0.023255813953483084
        },
        {
          "name": "A#3",
          "midi": 58,
          "time": 212.3255813953133,
          "velocity": 0.23622047244094488,
          "duration": 0.023255813953483084
        },
        {
          "name": "B6",
          "midi": 95,
          "time": 212.3255813953133,
          "velocity": 0.2125984251968504,
          "duration": 0.0813953488371908
        },
        {
          "name": "F7",
          "midi": 101,
          "time": 212.33720930229003,
          "velocity": 0.09448818897637795,
          "duration": 0.06976744186044925
        },
        {
          "name": "E2",
          "midi": 40,
          "time": 212.34883720926678,
          "velocity": 0.3464566929133858,
          "duration": 0.04651162790696617
        },
        {
          "name": "F3",
          "midi": 53,
          "time": 212.34883720926678,
          "velocity": 0.2992125984251969,
          "duration": 0.023255813953483084
        },
        {
          "name": "G6",
          "midi": 91,
          "time": 212.37209302322026,
          "velocity": 0.2125984251968504,
          "duration": 0.04651162790696617
        },
        {
          "name": "D5",
          "midi": 74,
          "time": 212.383720930197,
          "velocity": 0.09448818897637795,
          "duration": 0.034883720930224626
        },
        {
          "name": "G4",
          "midi": 67,
          "time": 212.39534883717374,
          "velocity": 0.4881889763779528,
          "duration": 0.2558139534883139
        },
        {
          "name": "F#5",
          "midi": 78,
          "time": 212.39534883717374,
          "velocity": 0.4094488188976378,
          "duration": 0.09302325581393234
        },
        {
          "name": "A5",
          "midi": 81,
          "time": 212.39534883717374,
          "velocity": 0.4251968503937008,
          "duration": 0.37209302325572935
        },
        {
          "name": "E7",
          "midi": 100,
          "time": 212.39534883717374,
          "velocity": 0.31496062992125984,
          "duration": 0.31395348837202164
        },
        {
          "name": "F#7",
          "midi": 102,
          "time": 212.39534883717374,
          "velocity": 0.11811023622047244,
          "duration": 0.0813953488371908
        },
        {
          "name": "C2",
          "midi": 36,
          "time": 212.40697674415048,
          "velocity": 0.5118110236220472,
          "duration": 0.011627906976741542
        },
        {
          "name": "A3",
          "midi": 57,
          "time": 212.40697674415048,
          "velocity": 0.30708661417322836,
          "duration": 0.023255813953483084
        },
        {
          "name": "E4",
          "midi": 64,
          "time": 212.40697674415048,
          "velocity": 0.41732283464566927,
          "duration": 0.23255813953483084
        },
        {
          "name": "C#7",
          "midi": 97,
          "time": 212.41860465112723,
          "velocity": 0.2125984251968504,
          "duration": 0.09302325581393234
        },
        {
          "name": "F#2",
          "midi": 42,
          "time": 212.4418604650807,
          "velocity": 0.5039370078740157,
          "duration": 0.023255813953483084
        },
        {
          "name": "E3",
          "midi": 52,
          "time": 212.4418604650807,
          "velocity": 0.4330708661417323,
          "duration": 0.023255813953483084
        },
        {
          "name": "B3",
          "midi": 59,
          "time": 212.4418604650807,
          "velocity": 0.30708661417322836,
          "duration": 0.034883720930224626
        },
        {
          "name": "D#7",
          "midi": 99,
          "time": 212.45348837205745,
          "velocity": 0.10236220472440945,
          "duration": 0.04651162790696617
        },
        {
          "name": "E3",
          "midi": 52,
          "time": 212.47674418601093,
          "velocity": 0.5511811023622047,
          "duration": 0.06976744186044925
        },
        {
          "name": "F#5",
          "midi": 78,
          "time": 212.49999999996442,
          "velocity": 0.29133858267716534,
          "duration": 0.11627906976741542
        },
        {
          "name": "B3",
          "midi": 59,
          "time": 212.51162790694116,
          "velocity": 0.2755905511811024,
          "duration": 0.0813953488371908
        },
        {
          "name": "E2",
          "midi": 40,
          "time": 212.54651162787138,
          "velocity": 0.44881889763779526,
          "duration": 0.023255813953483084
        },
        {
          "name": "F3",
          "midi": 53,
          "time": 212.54651162787138,
          "velocity": 0.5118110236220472,
          "duration": 0.011627906976741542
        },
        {
          "name": "G6",
          "midi": 91,
          "time": 212.55813953484812,
          "velocity": 0.15748031496062992,
          "duration": 0.04651162790696617
        },
        {
          "name": "E3",
          "midi": 52,
          "time": 212.56976744182487,
          "velocity": 0.4645669291338583,
          "duration": 0.023255813953483084
        },
        {
          "name": "E2",
          "midi": 40,
          "time": 212.5813953488016,
          "velocity": 0.5118110236220472,
          "duration": 0.023255813953483084
        },
        {
          "name": "D5",
          "midi": 74,
          "time": 212.59302325577835,
          "velocity": 0.3858267716535433,
          "duration": 0.04651162790696617
        },
        {
          "name": "C#7",
          "midi": 97,
          "time": 212.6046511627551,
          "velocity": 0.2204724409448819,
          "duration": 0.12790697674415696
        },
        {
          "name": "F7",
          "midi": 101,
          "time": 212.6046511627551,
          "velocity": 0.14173228346456693,
          "duration": 0.10465116279067388
        },
        {
          "name": "A#3",
          "midi": 58,
          "time": 212.61627906973183,
          "velocity": 0.4566929133858268,
          "duration": 0.023255813953483084
        },
        {
          "name": "C6",
          "midi": 84,
          "time": 212.61627906973183,
          "velocity": 0.09448818897637795,
          "duration": 0.04651162790696617
        },
        {
          "name": "F#6",
          "midi": 90,
          "time": 212.61627906973183,
          "velocity": 0.25196850393700787,
          "duration": 0.6162790697673017
        },
        {
          "name": "B6",
          "midi": 95,
          "time": 212.61627906973183,
          "velocity": 0.3937007874015748,
          "duration": 0.2558139534883139
        },
        {
          "name": "F#5",
          "midi": 78,
          "time": 212.62790697670857,
          "velocity": 0.30708661417322836,
          "duration": 0.04651162790696617
        },
        {
          "name": "E3",
          "midi": 52,
          "time": 212.63953488368531,
          "velocity": 0.3464566929133858,
          "duration": 0.023255813953483084
        },
        {
          "name": "D#7",
          "midi": 99,
          "time": 212.63953488368531,
          "velocity": 0.2047244094488189,
          "duration": 0.10465116279067388
        },
        {
          "name": "A4",
          "midi": 69,
          "time": 212.65116279066206,
          "velocity": 0.2677165354330709,
          "duration": 0.05813953488370771
        },
        {
          "name": "B4",
          "midi": 71,
          "time": 212.65116279066206,
          "velocity": 0.2125984251968504,
          "duration": 0.034883720930224626
        },
        {
          "name": "F5",
          "midi": 77,
          "time": 212.65116279066206,
          "velocity": 0.14173228346456693,
          "duration": 0.034883720930224626
        },
        {
          "name": "D#6",
          "midi": 87,
          "time": 212.65116279066206,
          "velocity": 0.09448818897637795,
          "duration": 0.034883720930224626
        },
        {
          "name": "G#6",
          "midi": 92,
          "time": 212.65116279066206,
          "velocity": 0.12598425196850394,
          "duration": 0.05813953488370771
        },
        {
          "name": "G#2",
          "midi": 44,
          "time": 212.6627906976388,
          "velocity": 0.5118110236220472,
          "duration": 0.034883720930224626
        },
        {
          "name": "F4",
          "midi": 65,
          "time": 212.6627906976388,
          "velocity": 0.2440944881889764,
          "duration": 0.023255813953483084
        },
        {
          "name": "E3",
          "midi": 52,
          "time": 212.67441860461554,
          "velocity": 0.30708661417322836,
          "duration": 0.023255813953483084
        },
        {
          "name": "F#4",
          "midi": 66,
          "time": 212.68604651159228,
          "velocity": 0.2992125984251969,
          "duration": 0.034883720930224626
        },
        {
          "name": "C5",
          "midi": 72,
          "time": 212.68604651159228,
          "velocity": 0.2047244094488189,
          "duration": 0.034883720930224626
        },
        {
          "name": "D5",
          "midi": 74,
          "time": 212.68604651159228,
          "velocity": 0.1968503937007874,
          "duration": 0.11627906976741542
        },
        {
          "name": "E5",
          "midi": 76,
          "time": 212.68604651159228,
          "velocity": 0.16535433070866143,
          "duration": 0.06976744186044925
        },
        {
          "name": "F2",
          "midi": 41,
          "time": 212.70930232554576,
          "velocity": 0.5511811023622047,
          "duration": 0.06976744186044925
        },
        {
          "name": "E4",
          "midi": 64,
          "time": 212.70930232554576,
          "velocity": 0.2992125984251969,
          "duration": 0.10465116279067388
        },
        {
          "name": "G#4",
          "midi": 68,
          "time": 212.70930232554576,
          "velocity": 0.25196850393700787,
          "duration": 0.04651162790696617
        },
        {
          "name": "B3",
          "midi": 59,
          "time": 212.7209302325225,
          "velocity": 0.41732283464566927,
          "duration": 0.11627906976741542
        },
        {
          "name": "G5",
          "midi": 79,
          "time": 212.73255813949925,
          "velocity": 0.2440944881889764,
          "duration": 0.09302325581393234
        },
        {
          "name": "C7",
          "midi": 96,
          "time": 212.73255813949925,
          "velocity": 0.10236220472440945,
          "duration": 0.04651162790696617
        },
        {
          "name": "D3",
          "midi": 50,
          "time": 212.744186046476,
          "velocity": 0.3228346456692913,
          "duration": 0.023255813953483084
        },
        {
          "name": "A4",
          "midi": 69,
          "time": 212.744186046476,
          "velocity": 0.2204724409448819,
          "duration": 0.034883720930224626
        },
        {
          "name": "C#7",
          "midi": 97,
          "time": 212.744186046476,
          "velocity": 0.2125984251968504,
          "duration": 0.18604651162786467
        },
        {
          "name": "G4",
          "midi": 67,
          "time": 212.75581395345273,
          "velocity": 0.2283464566929134,
          "duration": 0.023255813953483084
        },
        {
          "name": "D#7",
          "midi": 99,
          "time": 212.76744186042947,
          "velocity": 0.1732283464566929,
          "duration": 0.09302325581393234
        },
        {
          "name": "E2",
          "midi": 40,
          "time": 212.7790697674062,
          "velocity": 0.3858267716535433,
          "duration": 0.023255813953483084
        },
        {
          "name": "G#4",
          "midi": 68,
          "time": 212.7790697674062,
          "velocity": 0.28346456692913385,
          "duration": 0.023255813953483084
        },
        {
          "name": "A5",
          "midi": 81,
          "time": 212.79069767438295,
          "velocity": 0.1968503937007874,
          "duration": 0.17441860465112313
        },
        {
          "name": "E7",
          "midi": 100,
          "time": 212.79069767438295,
          "velocity": 0.2125984251968504,
          "duration": 0.09302325581393234
        },
        {
          "name": "A#2",
          "midi": 46,
          "time": 212.8023255813597,
          "velocity": 0.4015748031496063,
          "duration": 0.023255813953483084
        },
        {
          "name": "C7",
          "midi": 96,
          "time": 212.81395348833644,
          "velocity": 0.08661417322834646,
          "duration": 0.034883720930224626
        },
        {
          "name": "F7",
          "midi": 101,
          "time": 212.81395348833644,
          "velocity": 0.13385826771653545,
          "duration": 0.04651162790696617
        },
        {
          "name": "F#2",
          "midi": 42,
          "time": 212.82558139531318,
          "velocity": 0.5354330708661418,
          "duration": 0.034883720930224626
        },
        {
          "name": "A4",
          "midi": 69,
          "time": 212.82558139531318,
          "velocity": 0.2677165354330709,
          "duration": 0.023255813953483084
        },
        {
          "name": "E5",
          "midi": 76,
          "time": 212.82558139531318,
          "velocity": 0.2755905511811024,
          "duration": 0.15116279069764005
        },
        {
          "name": "F#5",
          "midi": 78,
          "time": 212.82558139531318,
          "velocity": 0.30708661417322836,
          "duration": 0.0813953488371908
        },
        {
          "name": "G4",
          "midi": 67,
          "time": 212.84883720926666,
          "velocity": 0.44881889763779526,
          "duration": 0.8255813953486495
        },
        {
          "name": "E3",
          "midi": 52,
          "time": 212.8604651162434,
          "velocity": 0.4094488188976378,
          "duration": 0.023255813953483084
        },
        {
          "name": "B3",
          "midi": 59,
          "time": 212.87209302322015,
          "velocity": 0.4015748031496063,
          "duration": 0.11627906976741542
        },
        {
          "name": "E2",
          "midi": 40,
          "time": 212.8837209301969,
          "velocity": 0.44881889763779526,
          "duration": 0.023255813953483084
        },
        {
          "name": "B6",
          "midi": 95,
          "time": 212.8837209301969,
          "velocity": 0.4015748031496063,
          "duration": 1.4534883720926928
        },
        {
          "name": "E3",
          "midi": 52,
          "time": 212.89534883717363,
          "velocity": 0.4881889763779528,
          "duration": 0.034883720930224626
        },
        {
          "name": "E3",
          "midi": 52,
          "time": 212.9418604650806,
          "velocity": 0.47244094488188976,
          "duration": 0.023255813953483084
        },
        {
          "name": "D6",
          "midi": 86,
          "time": 212.9418604650806,
          "velocity": 0.11023622047244094,
          "duration": 0.034883720930224626
        },
        {
          "name": "D#7",
          "midi": 99,
          "time": 212.9418604650806,
          "velocity": 0.11811023622047244,
          "duration": 0.1627906976743816
        },
        {
          "name": "E7",
          "midi": 100,
          "time": 212.9418604650806,
          "velocity": 0.07086614173228346,
          "duration": 0.04651162790696617
        },
        {
          "name": "B2",
          "midi": 47,
          "time": 212.9999999999643,
          "velocity": 0.29133858267716534,
          "duration": 0.04651162790696617
        },
        {
          "name": "A5",
          "midi": 81,
          "time": 212.9999999999643,
          "velocity": 0.13385826771653545,
          "duration": 0.06976744186044925
        },
        {
          "name": "D6",
          "midi": 86,
          "time": 213.01162790694104,
          "velocity": 0.14173228346456693,
          "duration": 0.06976744186044925
        },
        {
          "name": "E2",
          "midi": 40,
          "time": 213.02325581391779,
          "velocity": 0.33070866141732286,
          "duration": 0.023255813953483084
        },
        {
          "name": "C4",
          "midi": 60,
          "time": 213.02325581391779,
          "velocity": 0.2992125984251969,
          "duration": 0.04651162790696617
        },
        {
          "name": "C3",
          "midi": 48,
          "time": 213.04651162787127,
          "velocity": 0.5511811023622047,
          "duration": 0.023255813953483084
        },
        {
          "name": "E4",
          "midi": 64,
          "time": 213.04651162787127,
          "velocity": 0.3543307086614173,
          "duration": 0.11627906976741542
        },
        {
          "name": "D7",
          "midi": 98,
          "time": 213.04651162787127,
          "velocity": 0.14173228346456693,
          "duration": 0.0813953488371908
        },
        {
          "name": "C#7",
          "midi": 97,
          "time": 213.058139534848,
          "velocity": 0.1889763779527559,
          "duration": 0.0813953488371908
        },
        {
          "name": "B3",
          "midi": 59,
          "time": 213.06976744182475,
          "velocity": 0.4094488188976378,
          "duration": 0.11627906976741542
        },
        {
          "name": "E3",
          "midi": 52,
          "time": 213.0813953488015,
          "velocity": 0.5590551181102362,
          "duration": 0.12790697674415696
        },
        {
          "name": "F2",
          "midi": 41,
          "time": 213.09302325577823,
          "velocity": 0.49606299212598426,
          "duration": 0.034883720930224626
        },
        {
          "name": "C3",
          "midi": 48,
          "time": 213.15116279066194,
          "velocity": 0.5118110236220472,
          "duration": 0.011627906976741542
        },
        {
          "name": "B2",
          "midi": 47,
          "time": 213.16279069763868,
          "velocity": 0.5196850393700787,
          "duration": 0.011627906976741542
        },
        {
          "name": "F#5",
          "midi": 78,
          "time": 213.17441860461543,
          "velocity": 0.10236220472440945,
          "duration": 0.04651162790696617
        },
        {
          "name": "D#7",
          "midi": 99,
          "time": 213.18604651159217,
          "velocity": 0.2677165354330709,
          "duration": 0.7325581395347172
        },
        {
          "name": "B2",
          "midi": 47,
          "time": 213.1976744185689,
          "velocity": 0.5196850393700787,
          "duration": 0.011627906976741542
        },
        {
          "name": "C3",
          "midi": 48,
          "time": 213.20930232554565,
          "velocity": 0.5118110236220472,
          "duration": 0.011627906976741542
        },
        {
          "name": "F3",
          "midi": 53,
          "time": 213.20930232554565,
          "velocity": 0.5196850393700787,
          "duration": 0.011627906976741542
        },
        {
          "name": "B2",
          "midi": 47,
          "time": 213.2209302325224,
          "velocity": 0.5590551181102362,
          "duration": 0.034883720930224626
        },
        {
          "name": "E2",
          "midi": 40,
          "time": 213.24418604647587,
          "velocity": 0.5118110236220472,
          "duration": 0.011627906976741542
        },
        {
          "name": "A#2",
          "midi": 46,
          "time": 213.25581395345262,
          "velocity": 0.5748031496062992,
          "duration": 0.011627906976741542
        },
        {
          "name": "F#5",
          "midi": 78,
          "time": 213.25581395345262,
          "velocity": 0.3464566929133858,
          "duration": 0.06976744186044925
        },
        {
          "name": "G6",
          "midi": 91,
          "time": 213.25581395345262,
          "velocity": 0.16535433070866143,
          "duration": 0.1395348837208985
        },
        {
          "name": "F2",
          "midi": 41,
          "time": 213.26744186042936,
          "velocity": 0.5433070866141733,
          "duration": 0.011627906976741542
        },
        {
          "name": "B2",
          "midi": 47,
          "time": 213.26744186042936,
          "velocity": 0.5196850393700787,
          "duration": 0.011627906976741542
        },
        {
          "name": "C#7",
          "midi": 97,
          "time": 213.26744186042936,
          "velocity": 0.1732283464566929,
          "duration": 0.10465116279067388
        },
        {
          "name": "D7",
          "midi": 98,
          "time": 213.26744186042936,
          "velocity": 0.14173228346456693,
          "duration": 0.034883720930224626
        },
        {
          "name": "C#3",
          "midi": 49,
          "time": 213.2790697674061,
          "velocity": 0.5590551181102362,
          "duration": 0.011627906976741542
        },
        {
          "name": "F2",
          "midi": 41,
          "time": 213.29069767438284,
          "velocity": 0.5354330708661418,
          "duration": 0.011627906976741542
        },
        {
          "name": "B2",
          "midi": 47,
          "time": 213.29069767438284,
          "velocity": 0.5275590551181102,
          "duration": 0.034883720930224626
        },
        {
          "name": "D6",
          "midi": 86,
          "time": 213.29069767438284,
          "velocity": 0.14173228346456693,
          "duration": 0.10465116279067388
        },
        {
          "name": "E2",
          "midi": 40,
          "time": 213.30232558135958,
          "velocity": 0.5118110236220472,
          "duration": 0.023255813953483084
        },
        {
          "name": "E4",
          "midi": 64,
          "time": 213.30232558135958,
          "velocity": 0.28346456692913385,
          "duration": 0.04651162790696617
        },
        {
          "name": "C#3",
          "midi": 49,
          "time": 213.32558139531307,
          "velocity": 0.5590551181102362,
          "duration": 0.011627906976741542
        },
        {
          "name": "F#2",
          "midi": 42,
          "time": 213.3372093022898,
          "velocity": 0.5748031496062992,
          "duration": 0.011627906976741542
        },
        {
          "name": "F2",
          "midi": 41,
          "time": 213.34883720926655,
          "velocity": 0.5433070866141733,
          "duration": 0.011627906976741542
        },
        {
          "name": "E3",
          "midi": 52,
          "time": 213.34883720926655,
          "velocity": 0.3858267716535433,
          "duration": 0.04651162790696617
        },
        {
          "name": "F#5",
          "midi": 78,
          "time": 213.34883720926655,
          "velocity": 0.30708661417322836,
          "duration": 0.06976744186044925
        },
        {
          "name": "D7",
          "midi": 98,
          "time": 213.34883720926655,
          "velocity": 0.15748031496062992,
          "duration": 0.09302325581393234
        },
        {
          "name": "F#7",
          "midi": 102,
          "time": 213.34883720926655,
          "velocity": 0.2992125984251969,
          "duration": 0.8604651162788741
        },
        {
          "name": "E2",
          "midi": 40,
          "time": 213.3604651162433,
          "velocity": 0.5511811023622047,
          "duration": 0.011627906976741542
        },
        {
          "name": "A5",
          "midi": 81,
          "time": 213.3604651162433,
          "velocity": 0.10236220472440945,
          "duration": 0.04651162790696617
        },
        {
          "name": "F2",
          "midi": 41,
          "time": 213.37209302322003,
          "velocity": 0.5511811023622047,
          "duration": 0.011627906976741542
        },
        {
          "name": "E2",
          "midi": 40,
          "time": 213.38372093019677,
          "velocity": 0.5354330708661418,
          "duration": 0.011627906976741542
        },
        {
          "name": "C#7",
          "midi": 97,
          "time": 213.38372093019677,
          "velocity": 0.25196850393700787,
          "duration": 0.18604651162786467
        },
        {
          "name": "F2",
          "midi": 41,
          "time": 213.39534883717351,
          "velocity": 0.5354330708661418,
          "duration": 0.023255813953483084
        },
        {
          "name": "E2",
          "midi": 40,
          "time": 213.418604651127,
          "velocity": 0.4566929133858268,
          "duration": 0.034883720930224626
        },
        {
          "name": "F3",
          "midi": 53,
          "time": 213.418604651127,
          "velocity": 0.2440944881889764,
          "duration": 0.034883720930224626
        },
        {
          "name": "F#5",
          "midi": 78,
          "time": 213.43023255810374,
          "velocity": 0.33070866141732286,
          "duration": 0.0813953488371908
        },
        {
          "name": "E4",
          "midi": 64,
          "time": 213.44186046508048,
          "velocity": 0.2440944881889764,
          "duration": 0.023255813953483084
        },
        {
          "name": "D5",
          "midi": 74,
          "time": 213.45348837205722,
          "velocity": 0.41732283464566927,
          "duration": 0.05813953488370771
        },
        {
          "name": "A5",
          "midi": 81,
          "time": 213.45348837205722,
          "velocity": 0.30708661417322836,
          "duration": 0.29069767441853855
        },
        {
          "name": "G6",
          "midi": 91,
          "time": 213.45348837205722,
          "velocity": 0.14173228346456693,
          "duration": 0.06976744186044925
        },
        {
          "name": "A#3",
          "midi": 58,
          "time": 213.46511627903396,
          "velocity": 0.48031496062992124,
          "duration": 0.034883720930224626
        },
        {
          "name": "F7",
          "midi": 101,
          "time": 213.46511627903396,
          "velocity": 0.2283464566929134,
          "duration": 0.31395348837202164
        },
        {
          "name": "E5",
          "midi": 76,
          "time": 213.4767441860107,
          "velocity": 0.3543307086614173,
          "duration": 0.43023255813943706
        },
        {
          "name": "D7",
          "midi": 98,
          "time": 213.4767441860107,
          "velocity": 0.33070866141732286,
          "duration": 0.3604651162789878
        },
        {
          "name": "G#2",
          "midi": 44,
          "time": 213.48837209298745,
          "velocity": 0.4251968503937008,
          "duration": 0.034883720930224626
        },
        {
          "name": "D3",
          "midi": 50,
          "time": 213.4999999999642,
          "velocity": 0.41732283464566927,
          "duration": 0.023255813953483084
        },
        {
          "name": "F4",
          "midi": 65,
          "time": 213.4999999999642,
          "velocity": 0.2992125984251969,
          "duration": 0.023255813953483084
        },
        {
          "name": "B4",
          "midi": 71,
          "time": 213.4999999999642,
          "velocity": 0.4094488188976378,
          "duration": 0.3604651162789878
        },
        {
          "name": "C3",
          "midi": 48,
          "time": 213.52325581391767,
          "velocity": 0.36220472440944884,
          "duration": 0.023255813953483084
        },
        {
          "name": "E4",
          "midi": 64,
          "time": 213.52325581391767,
          "velocity": 0.2755905511811024,
          "duration": 0.04651162790696617
        },
        {
          "name": "C7",
          "midi": 96,
          "time": 213.52325581391767,
          "velocity": 0.07874015748031496,
          "duration": 0.034883720930224626
        },
        {
          "name": "E7",
          "midi": 100,
          "time": 213.52325581391767,
          "velocity": 0.2047244094488189,
          "duration": 0.06976744186044925
        },
        {
          "name": "D5",
          "midi": 74,
          "time": 213.5348837208944,
          "velocity": 0.2283464566929134,
          "duration": 0.09302325581393234
        },
        {
          "name": "F#5",
          "midi": 78,
          "time": 213.54651162787115,
          "velocity": 0.23622047244094488,
          "duration": 0.04651162790696617
        },
        {
          "name": "B2",
          "midi": 47,
          "time": 213.5581395348479,
          "velocity": 0.25984251968503935,
          "duration": 0.023255813953483084
        },
        {
          "name": "B3",
          "midi": 59,
          "time": 213.56976744182464,
          "velocity": 0.29133858267716534,
          "duration": 0.023255813953483084
        },
        {
          "name": "G#6",
          "midi": 92,
          "time": 213.56976744182464,
          "velocity": 0.2283464566929134,
          "duration": 0.4186046511626955
        },
        {
          "name": "F2",
          "midi": 41,
          "time": 213.58139534880138,
          "velocity": 0.3228346456692913,
          "duration": 0.023255813953483084
        },
        {
          "name": "E4",
          "midi": 64,
          "time": 213.58139534880138,
          "velocity": 0.25984251968503935,
          "duration": 0.10465116279067388
        },
        {
          "name": "C#7",
          "midi": 97,
          "time": 213.58139534880138,
          "velocity": 0.29133858267716534,
          "duration": 0.18604651162786467
        },
        {
          "name": "E3",
          "midi": 52,
          "time": 213.59302325577812,
          "velocity": 0.3779527559055118,
          "duration": 0.09302325581393234
        },
        {
          "name": "A#3",
          "midi": 58,
          "time": 213.59302325577812,
          "velocity": 0.30708661417322836,
          "duration": 0.023255813953483084
        },
        {
          "name": "A#6",
          "midi": 94,
          "time": 213.59302325577812,
          "velocity": 0.07874015748031496,
          "duration": 0.05813953488370771
        },
        {
          "name": "E2",
          "midi": 40,
          "time": 213.60465116275486,
          "velocity": 0.29133858267716534,
          "duration": 0.023255813953483084
        },
        {
          "name": "B3",
          "midi": 59,
          "time": 213.6395348836851,
          "velocity": 0.2125984251968504,
          "duration": 0.034883720930224626
        },
        {
          "name": "F#5",
          "midi": 78,
          "time": 213.65116279066183,
          "velocity": 0.31496062992125984,
          "duration": 0.09302325581393234
        },
        {
          "name": "A#6",
          "midi": 94,
          "time": 213.6744186046153,
          "velocity": 0.11811023622047244,
          "duration": 0.034883720930224626
        },
        {
          "name": "E2",
          "midi": 40,
          "time": 213.68604651159205,
          "velocity": 0.5118110236220472,
          "duration": 0.011627906976741542
        },
        {
          "name": "G4",
          "midi": 67,
          "time": 213.68604651159205,
          "velocity": 0.4015748031496063,
          "duration": 0.4186046511626955
        },
        {
          "name": "D6",
          "midi": 86,
          "time": 213.68604651159205,
          "velocity": 0.13385826771653545,
          "duration": 0.11627906976741542
        },
        {
          "name": "E7",
          "midi": 100,
          "time": 213.70930232554554,
          "velocity": 0.1732283464566929,
          "duration": 0.15116279069764005
        },
        {
          "name": "G7",
          "midi": 103,
          "time": 213.72093023252228,
          "velocity": 0.1968503937007874,
          "duration": 0.09302325581393234
        },
        {
          "name": "G#2",
          "midi": 44,
          "time": 213.73255813949902,
          "velocity": 0.4881889763779528,
          "duration": 0.023255813953483084
        },
        {
          "name": "B3",
          "midi": 59,
          "time": 213.73255813949902,
          "velocity": 0.3543307086614173,
          "duration": 0.1627906976743816
        },
        {
          "name": "D#6",
          "midi": 87,
          "time": 213.74418604647576,
          "velocity": 0.10236220472440945,
          "duration": 0.04651162790696617
        },
        {
          "name": "E3",
          "midi": 52,
          "time": 213.7558139534525,
          "velocity": 0.3543307086614173,
          "duration": 0.05813953488370771
        },
        {
          "name": "C7",
          "midi": 96,
          "time": 213.7558139534525,
          "velocity": 0.18110236220472442,
          "duration": 0.034883720930224626
        },
        {
          "name": "E2",
          "midi": 40,
          "time": 213.77906976740599,
          "velocity": 0.49606299212598426,
          "duration": 0.034883720930224626
        },
        {
          "name": "C#7",
          "midi": 97,
          "time": 213.79069767438273,
          "velocity": 0.2204724409448819,
          "duration": 0.18604651162786467
        },
        {
          "name": "A6",
          "midi": 93,
          "time": 213.80232558135947,
          "velocity": 0.09448818897637795,
          "duration": 0.05813953488370771
        },
        {
          "name": "E2",
          "midi": 40,
          "time": 213.82558139531295,
          "velocity": 0.4330708661417323,
          "duration": 0.023255813953483084
        },
        {
          "name": "F7",
          "midi": 101,
          "time": 213.82558139531295,
          "velocity": 0.09448818897637795,
          "duration": 0.09302325581393234
        },
        {
          "name": "D#6",
          "midi": 87,
          "time": 213.8372093022897,
          "velocity": 0.11811023622047244,
          "duration": 0.034883720930224626
        },
        {
          "name": "F#2",
          "midi": 42,
          "time": 213.86046511624318,
          "velocity": 0.4015748031496063,
          "duration": 0.023255813953483084
        },
        {
          "name": "D7",
          "midi": 98,
          "time": 213.86046511624318,
          "velocity": 0.1889763779527559,
          "duration": 0.12790697674415696
        },
        {
          "name": "G7",
          "midi": 103,
          "time": 213.86046511624318,
          "velocity": 0.1732283464566929,
          "duration": 0.18604651162786467
        },
        {
          "name": "D#2",
          "midi": 39,
          "time": 213.8953488371734,
          "velocity": 0.5196850393700787,
          "duration": 0.011627906976741542
        },
        {
          "name": "D#4",
          "midi": 63,
          "time": 213.8953488371734,
          "velocity": 0.25984251968503935,
          "duration": 0.023255813953483084
        },
        {
          "name": "A5",
          "midi": 81,
          "time": 213.8953488371734,
          "velocity": 0.13385826771653545,
          "duration": 0.05813953488370771
        },
        {
          "name": "C7",
          "midi": 96,
          "time": 213.8953488371734,
          "velocity": 0.11023622047244094,
          "duration": 0.034883720930224626
        },
        {
          "name": "G2",
          "midi": 43,
          "time": 213.90697674415014,
          "velocity": 0.5826771653543307,
          "duration": 0.011627906976741542
        },
        {
          "name": "A3",
          "midi": 57,
          "time": 213.90697674415014,
          "velocity": 0.4566929133858268,
          "duration": 0.04651162790696617
        },
        {
          "name": "C5",
          "midi": 72,
          "time": 213.90697674415014,
          "velocity": 0.33070866141732286,
          "duration": 0.023255813953483084
        },
        {
          "name": "G#2",
          "midi": 44,
          "time": 213.91860465112688,
          "velocity": 0.5905511811023622,
          "duration": 0.011627906976741542
        },
        {
          "name": "E4",
          "midi": 64,
          "time": 213.91860465112688,
          "velocity": 0.4330708661417323,
          "duration": 0.43023255813943706
        },
        {
          "name": "D6",
          "midi": 86,
          "time": 213.91860465112688,
          "velocity": 0.10236220472440945,
          "duration": 0.10465116279067388
        },
        {
          "name": "A6",
          "midi": 93,
          "time": 213.91860465112688,
          "velocity": 0.2283464566929134,
          "duration": 0.04651162790696617
        },
        {
          "name": "E7",
          "midi": 100,
          "time": 213.91860465112688,
          "velocity": 0.07086614173228346,
          "duration": 0.034883720930224626
        },
        {
          "name": "F#2",
          "midi": 42,
          "time": 213.93023255810363,
          "velocity": 0.5433070866141733,
          "duration": 0.011627906976741542
        },
        {
          "name": "B4",
          "midi": 71,
          "time": 213.93023255810363,
          "velocity": 0.3858267716535433,
          "duration": 0.7325581395347172
        },
        {
          "name": "E2",
          "midi": 40,
          "time": 213.94186046508037,
          "velocity": 0.5118110236220472,
          "duration": 0.011627906976741542
        },
        {
          "name": "A#6",
          "midi": 94,
          "time": 213.9534883720571,
          "velocity": 0.28346456692913385,
          "duration": 0.11627906976741542
        },
        {
          "name": "E2",
          "midi": 40,
          "time": 213.96511627903385,
          "velocity": 0.4881889763779528,
          "duration": 0.034883720930224626
        },
        {
          "name": "E3",
          "midi": 52,
          "time": 213.96511627903385,
          "velocity": 0.5196850393700787,
          "duration": 0.06976744186044925
        },
        {
          "name": "B3",
          "midi": 59,
          "time": 213.96511627903385,
          "velocity": 0.3779527559055118,
          "duration": 0.034883720930224626
        },
        {
          "name": "F#5",
          "midi": 78,
          "time": 213.99999999996407,
          "velocity": 0.15748031496062992,
          "duration": 0.05813953488370771
        },
        {
          "name": "D#7",
          "midi": 99,
          "time": 213.99999999996407,
          "velocity": 0.12598425196850394,
          "duration": 0.04651162790696617
        },
        {
          "name": "D2",
          "midi": 38,
          "time": 214.0348837208943,
          "velocity": 0.25196850393700787,
          "duration": 0.023255813953483084
        },
        {
          "name": "G#3",
          "midi": 56,
          "time": 214.04651162787104,
          "velocity": 0.31496062992125984,
          "duration": 0.023255813953483084
        },
        {
          "name": "G6",
          "midi": 91,
          "time": 214.05813953484778,
          "velocity": 0.07086614173228346,
          "duration": 0.034883720930224626
        },
        {
          "name": "E3",
          "midi": 52,
          "time": 214.08139534880127,
          "velocity": 0.2677165354330709,
          "duration": 0.023255813953483084
        },
        {
          "name": "C7",
          "midi": 96,
          "time": 214.08139534880127,
          "velocity": 0.14173228346456693,
          "duration": 0.05813953488370771
        },
        {
          "name": "E2",
          "midi": 40,
          "time": 214.093023255778,
          "velocity": 0.2992125984251969,
          "duration": 0.023255813953483084
        },
        {
          "name": "B3",
          "midi": 59,
          "time": 214.093023255778,
          "velocity": 0.1889763779527559,
          "duration": 0.034883720930224626
        },
        {
          "name": "C6",
          "midi": 84,
          "time": 214.093023255778,
          "velocity": 0.10236220472440945,
          "duration": 0.04651162790696617
        },
        {
          "name": "G4",
          "midi": 67,
          "time": 214.12790697670823,
          "velocity": 0.4015748031496063,
          "duration": 0.8488372093021326
        },
        {
          "name": "F#6",
          "midi": 90,
          "time": 214.12790697670823,
          "velocity": 0.07086614173228346,
          "duration": 0.034883720930224626
        },
        {
          "name": "C#7",
          "midi": 97,
          "time": 214.12790697670823,
          "velocity": 0.13385826771653545,
          "duration": 0.034883720930224626
        },
        {
          "name": "D7",
          "midi": 98,
          "time": 214.15116279066172,
          "velocity": 0.10236220472440945,
          "duration": 0.034883720930224626
        },
        {
          "name": "F2",
          "midi": 41,
          "time": 214.16279069763846,
          "velocity": 0.5354330708661418,
          "duration": 0.023255813953483084
        },
        {
          "name": "E3",
          "midi": 52,
          "time": 214.16279069763846,
          "velocity": 0.4251968503937008,
          "duration": 0.023255813953483084
        },
        {
          "name": "B3",
          "midi": 59,
          "time": 214.16279069763846,
          "velocity": 0.3228346456692913,
          "duration": 0.034883720930224626
        },
        {
          "name": "F#5",
          "midi": 78,
          "time": 214.16279069763846,
          "velocity": 0.3228346456692913,
          "duration": 0.10465116279067388
        },
        {
          "name": "G6",
          "midi": 91,
          "time": 214.18604651159194,
          "velocity": 0.12598425196850394,
          "duration": 0.04651162790696617
        },
        {
          "name": "E3",
          "midi": 52,
          "time": 214.19767441856868,
          "velocity": 0.5669291338582677,
          "duration": 0.10465116279067388
        },
        {
          "name": "C4",
          "midi": 60,
          "time": 214.19767441856868,
          "velocity": 0.2992125984251969,
          "duration": 0.023255813953483084
        },
        {
          "name": "F7",
          "midi": 101,
          "time": 214.20930232554542,
          "velocity": 0.18110236220472442,
          "duration": 0.10465116279067388
        },
        {
          "name": "B3",
          "midi": 59,
          "time": 214.22093023252216,
          "velocity": 0.29133858267716534,
          "duration": 0.09302325581393234
        },
        {
          "name": "A#6",
          "midi": 94,
          "time": 214.22093023252216,
          "velocity": 0.3228346456692913,
          "duration": 0.4186046511626955
        },
        {
          "name": "E7",
          "midi": 100,
          "time": 214.22093023252216,
          "velocity": 0.1732283464566929,
          "duration": 0.11627906976741542
        },
        {
          "name": "C7",
          "midi": 96,
          "time": 214.26744186042913,
          "velocity": 0.12598425196850394,
          "duration": 0.04651162790696617
        },
        {
          "name": "E2",
          "midi": 40,
          "time": 214.30232558135936,
          "velocity": 0.5354330708661418,
          "duration": 0.011627906976741542
        },
        {
          "name": "F2",
          "midi": 41,
          "time": 214.3139534883361,
          "velocity": 0.5433070866141733,
          "duration": 0.023255813953483084
        },
        {
          "name": "A6",
          "midi": 93,
          "time": 214.3139534883361,
          "velocity": 0.2283464566929134,
          "duration": 0.09302325581393234
        },
        {
          "name": "D5",
          "midi": 74,
          "time": 214.32558139531284,
          "velocity": 0.1889763779527559,
          "duration": 0.05813953488370771
        },
        {
          "name": "E2",
          "midi": 40,
          "time": 214.33720930228958,
          "velocity": 0.5275590551181102,
          "duration": 0.023255813953483084
        },
        {
          "name": "G#3",
          "midi": 56,
          "time": 214.33720930228958,
          "velocity": 0.3228346456692913,
          "duration": 0.023255813953483084
        },
        {
          "name": "F#5",
          "midi": 78,
          "time": 214.33720930228958,
          "velocity": 0.14173228346456693,
          "duration": 0.06976744186044925
        },
        {
          "name": "G6",
          "midi": 91,
          "time": 214.33720930228958,
          "velocity": 0.14960629921259844,
          "duration": 0.034883720930224626
        },
        {
          "name": "C#7",
          "midi": 97,
          "time": 214.33720930228958,
          "velocity": 0.2755905511811024,
          "duration": 0.3023255813952801
        },
        {
          "name": "D7",
          "midi": 98,
          "time": 214.33720930228958,
          "velocity": 0.1732283464566929,
          "duration": 0.034883720930224626
        },
        {
          "name": "A5",
          "midi": 81,
          "time": 214.34883720926632,
          "velocity": 0.25984251968503935,
          "duration": 0.3023255813952801
        },
        {
          "name": "D#7",
          "midi": 99,
          "time": 214.34883720926632,
          "velocity": 0.14173228346456693,
          "duration": 0.23255813953483084
        },
        {
          "name": "F2",
          "midi": 41,
          "time": 214.36046511624306,
          "velocity": 0.5748031496062992,
          "duration": 0.023255813953483084
        },
        {
          "name": "C4",
          "midi": 60,
          "time": 214.36046511624306,
          "velocity": 0.2755905511811024,
          "duration": 0.023255813953483084
        },
        {
          "name": "B6",
          "midi": 95,
          "time": 214.36046511624306,
          "velocity": 0.3228346456692913,
          "duration": 0.6395348837207848
        },
        {
          "name": "E7",
          "midi": 100,
          "time": 214.36046511624306,
          "velocity": 0.1732283464566929,
          "duration": 0.1627906976743816
        },
        {
          "name": "F7",
          "midi": 101,
          "time": 214.36046511624306,
          "velocity": 0.10236220472440945,
          "duration": 0.06976744186044925
        },
        {
          "name": "F#3",
          "midi": 54,
          "time": 214.3720930232198,
          "velocity": 0.33070866141732286,
          "duration": 0.023255813953483084
        },
        {
          "name": "D#6",
          "midi": 87,
          "time": 214.3720930232198,
          "velocity": 0.1889763779527559,
          "duration": 0.15116279069764005
        },
        {
          "name": "G7",
          "midi": 103,
          "time": 214.3720930232198,
          "velocity": 0.14173228346456693,
          "duration": 0.12790697674415696
        },
        {
          "name": "B3",
          "midi": 59,
          "time": 214.38372093019655,
          "velocity": 0.3543307086614173,
          "duration": 0.17441860465112313
        },
        {
          "name": "F#7",
          "midi": 102,
          "time": 214.38372093019655,
          "velocity": 0.11023622047244094,
          "duration": 0.15116279069764005
        },
        {
          "name": "E3",
          "midi": 52,
          "time": 214.3953488371733,
          "velocity": 0.30708661417322836,
          "duration": 0.023255813953483084
        },
        {
          "name": "D5",
          "midi": 74,
          "time": 214.40697674415003,
          "velocity": 0.12598425196850394,
          "duration": 0.0813953488371908
        },
        {
          "name": "C7",
          "midi": 96,
          "time": 214.40697674415003,
          "velocity": 0.11811023622047244,
          "duration": 0.09302325581393234
        },
        {
          "name": "D#2",
          "midi": 39,
          "time": 214.41860465112677,
          "velocity": 0.5039370078740157,
          "duration": 0.023255813953483084
        },
        {
          "name": "D7",
          "midi": 98,
          "time": 214.41860465112677,
          "velocity": 0.1889763779527559,
          "duration": 0.06976744186044925
        },
        {
          "name": "E2",
          "midi": 40,
          "time": 214.44186046508025,
          "velocity": 0.5275590551181102,
          "duration": 0.011627906976741542
        },
        {
          "name": "F3",
          "midi": 53,
          "time": 214.44186046508025,
          "velocity": 0.36220472440944884,
          "duration": 0.023255813953483084
        },
        {
          "name": "E3",
          "midi": 52,
          "time": 214.46511627903374,
          "velocity": 0.30708661417322836,
          "duration": 0.034883720930224626
        },
        {
          "name": "F7",
          "midi": 101,
          "time": 214.46511627903374,
          "velocity": 0.08661417322834646,
          "duration": 0.05813953488370771
        },
        {
          "name": "D#5",
          "midi": 75,
          "time": 214.48837209298722,
          "velocity": 0.29133858267716534,
          "duration": 0.04651162790696617
        },
        {
          "name": "G6",
          "midi": 91,
          "time": 214.49999999996396,
          "velocity": 0.2047244094488189,
          "duration": 0.17441860465112313
        },
        {
          "name": "E5",
          "midi": 76,
          "time": 214.5116279069407,
          "velocity": 0.28346456692913385,
          "duration": 0.29069767441853855
        },
        {
          "name": "E3",
          "midi": 52,
          "time": 214.52325581391744,
          "velocity": 0.48031496062992124,
          "duration": 0.034883720930224626
        },
        {
          "name": "F#5",
          "midi": 78,
          "time": 214.5348837208942,
          "velocity": 0.36220472440944884,
          "duration": 0.0813953488371908
        },
        {
          "name": "E2",
          "midi": 40,
          "time": 214.54651162787093,
          "velocity": 0.5354330708661418,
          "duration": 0.011627906976741542
        },
        {
          "name": "D7",
          "midi": 98,
          "time": 214.54651162787093,
          "velocity": 0.14173228346456693,
          "duration": 0.0813953488371908
        },
        {
          "name": "E7",
          "midi": 100,
          "time": 214.54651162787093,
          "velocity": 0.1732283464566929,
          "duration": 0.09302325581393234
        },
        {
          "name": "G#2",
          "midi": 44,
          "time": 214.55813953484767,
          "velocity": 0.5984251968503937,
          "duration": 0.011627906976741542
        },
        {
          "name": "C7",
          "midi": 96,
          "time": 214.55813953484767,
          "velocity": 0.11811023622047244,
          "duration": 0.06976744186044925
        },
        {
          "name": "G2",
          "midi": 43,
          "time": 214.5697674418244,
          "velocity": 0.5748031496062992,
          "duration": 0.011627906976741542
        },
        {
          "name": "D6",
          "midi": 86,
          "time": 214.5697674418244,
          "velocity": 0.07874015748031496,
          "duration": 0.034883720930224626
        },
        {
          "name": "F2",
          "midi": 41,
          "time": 214.58139534880115,
          "velocity": 0.5590551181102362,
          "duration": 0.034883720930224626
        },
        {
          "name": "D#6",
          "midi": 87,
          "time": 214.58139534880115,
          "velocity": 0.07086614173228346,
          "duration": 0.034883720930224626
        },
        {
          "name": "B3",
          "midi": 59,
          "time": 214.5930232557779,
          "velocity": 0.4094488188976378,
          "duration": 0.12790697674415696
        },
        {
          "name": "D#4",
          "midi": 63,
          "time": 214.5930232557779,
          "velocity": 0.2992125984251969,
          "duration": 0.023255813953483084
        },
        {
          "name": "E2",
          "midi": 40,
          "time": 214.61627906973138,
          "velocity": 0.5433070866141733,
          "duration": 0.034883720930224626
        },
        {
          "name": "G#6",
          "midi": 92,
          "time": 214.61627906973138,
          "velocity": 0.2677165354330709,
          "duration": 0.11627906976741542
        },
        {
          "name": "B2",
          "midi": 47,
          "time": 214.62790697670812,
          "velocity": 0.4881889763779528,
          "duration": 0.023255813953483084
        },
        {
          "name": "D#7",
          "midi": 99,
          "time": 214.63953488368486,
          "velocity": 0.25196850393700787,
          "duration": 0.19767441860460622
        },
        {
          "name": "F7",
          "midi": 101,
          "time": 214.63953488368486,
          "velocity": 0.14173228346456693,
          "duration": 0.05813953488370771
        },
        {
          "name": "D#3",
          "midi": 51,
          "time": 214.6511627906616,
          "velocity": 0.5275590551181102,
          "duration": 0.011627906976741542
        },
        {
          "name": "E2",
          "midi": 40,
          "time": 214.66279069763834,
          "velocity": 0.3779527559055118,
          "duration": 0.05813953488370771
        },
        {
          "name": "E3",
          "midi": 52,
          "time": 214.66279069763834,
          "velocity": 0.5118110236220472,
          "duration": 0.023255813953483084
        },
        {
          "name": "D#3",
          "midi": 51,
          "time": 214.68604651159183,
          "velocity": 0.3937007874015748,
          "duration": 0.023255813953483084
        },
        {
          "name": "A6",
          "midi": 93,
          "time": 214.68604651159183,
          "velocity": 0.31496062992125984,
          "duration": 0.5116279069766279
        },
        {
          "name": "D6",
          "midi": 86,
          "time": 214.69767441856857,
          "velocity": 0.09448818897637795,
          "duration": 0.034883720930224626
        },
        {
          "name": "E4",
          "midi": 64,
          "time": 214.7093023255453,
          "velocity": 0.1889763779527559,
          "duration": 0.034883720930224626
        },
        {
          "name": "F#5",
          "midi": 78,
          "time": 214.72093023252205,
          "velocity": 0.33858267716535434,
          "duration": 0.24418604651157239
        },
        {
          "name": "E2",
          "midi": 40,
          "time": 214.7325581394988,
          "velocity": 0.29133858267716534,
          "duration": 0.023255813953483084
        },
        {
          "name": "D5",
          "midi": 74,
          "time": 214.7325581394988,
          "velocity": 0.12598425196850394,
          "duration": 0.034883720930224626
        },
        {
          "name": "G#6",
          "midi": 92,
          "time": 214.75581395345228,
          "velocity": 0.14960629921259844,
          "duration": 0.05813953488370771
        },
        {
          "name": "C3",
          "midi": 48,
          "time": 214.76744186042902,
          "velocity": 0.5433070866141733,
          "duration": 0.023255813953483084
        },
        {
          "name": "A5",
          "midi": 81,
          "time": 214.76744186042902,
          "velocity": 0.1889763779527559,
          "duration": 0.05813953488370771
        },
        {
          "name": "C#7",
          "midi": 97,
          "time": 214.76744186042902,
          "velocity": 0.1732283464566929,
          "duration": 0.05813953488370771
        },
        {
          "name": "D7",
          "midi": 98,
          "time": 214.76744186042902,
          "velocity": 0.13385826771653545,
          "duration": 0.0813953488371908
        },
        {
          "name": "E7",
          "midi": 100,
          "time": 214.76744186042902,
          "velocity": 0.1968503937007874,
          "duration": 0.09302325581393234
        },
        {
          "name": "G7",
          "midi": 103,
          "time": 214.76744186042902,
          "velocity": 0.07086614173228346,
          "duration": 0.034883720930224626
        },
        {
          "name": "B3",
          "midi": 59,
          "time": 214.77906976740576,
          "velocity": 0.4094488188976378,
          "duration": 0.12790697674415696
        },
        {
          "name": "D#5",
          "midi": 75,
          "time": 214.7906976743825,
          "velocity": 0.3543307086614173,
          "duration": 0.034883720930224626
        },
        {
          "name": "A#6",
          "midi": 94,
          "time": 214.7906976743825,
          "velocity": 0.2125984251968504,
          "duration": 0.04651162790696617
        },
        {
          "name": "E3",
          "midi": 52,
          "time": 214.82558139531272,
          "velocity": 0.5511811023622047,
          "duration": 0.10465116279067388
        },
        {
          "name": "E5",
          "midi": 76,
          "time": 214.82558139531272,
          "velocity": 0.4015748031496063,
          "duration": 0.3604651162789878
        },
        {
          "name": "E7",
          "midi": 100,
          "time": 214.88372093019643,
          "velocity": 0.25984251968503935,
          "duration": 0.12790697674415696
        },
        {
          "name": "C3",
          "midi": 48,
          "time": 214.9302325581034,
          "velocity": 0.5196850393700787,
          "duration": 0.011627906976741542
        },
        {
          "name": "F3",
          "midi": 53,
          "time": 214.9302325581034,
          "velocity": 0.4881889763779528,
          "duration": 0.023255813953483084
        },
        {
          "name": "D5",
          "midi": 74,
          "time": 214.9302325581034,
          "velocity": 0.2204724409448819,
          "duration": 0.04651162790696617
        },
        {
          "name": "B2",
          "midi": 47,
          "time": 214.94186046508014,
          "velocity": 0.5590551181102362,
          "duration": 0.06976744186044925
        },
        {
          "name": "A5",
          "midi": 81,
          "time": 214.96511627903362,
          "velocity": 0.14960629921259844,
          "duration": 0.11627906976741542
        },
        {
          "name": "F#6",
          "midi": 90,
          "time": 214.96511627903362,
          "velocity": 0.3858267716535433,
          "duration": 0.23255813953483084
        },
        {
          "name": "D7",
          "midi": 98,
          "time": 214.96511627903362,
          "velocity": 0.2440944881889764,
          "duration": 0.05813953488370771
        },
        {
          "name": "F0",
          "midi": 17,
          "time": 214.97674418601036,
          "velocity": 0.3543307086614173,
          "duration": 0.023255813953483084
        },
        {
          "name": "F#5",
          "midi": 78,
          "time": 214.97674418601036,
          "velocity": 0.5039370078740157,
          "duration": 0.24418604651157239
        },
        {
          "name": "C#7",
          "midi": 97,
          "time": 214.97674418601036,
          "velocity": 0.33070866141732286,
          "duration": 0.31395348837202164
        },
        {
          "name": "G4",
          "midi": 67,
          "time": 214.9883720929871,
          "velocity": 0.3464566929133858,
          "duration": 0.23255813953483084
        },
        {
          "name": "D6",
          "midi": 86,
          "time": 214.9883720929871,
          "velocity": 0.14173228346456693,
          "duration": 0.11627906976741542
        },
        {
          "name": "D#7",
          "midi": 99,
          "time": 214.9883720929871,
          "velocity": 0.14960629921259844,
          "duration": 0.20930232558134776
        },
        {
          "name": "E2",
          "midi": 40,
          "time": 214.99999999996385,
          "velocity": 0.5511811023622047,
          "duration": 0.011627906976741542
        },
        {
          "name": "G7",
          "midi": 103,
          "time": 214.99999999996385,
          "velocity": 0.16535433070866143,
          "duration": 0.10465116279067388
        },
        {
          "name": "F2",
          "midi": 41,
          "time": 215.0116279069406,
          "velocity": 0.5669291338582677,
          "duration": 0.011627906976741542
        },
        {
          "name": "C3",
          "midi": 48,
          "time": 215.0116279069406,
          "velocity": 0.5354330708661418,
          "duration": 0.011627906976741542
        },
        {
          "name": "G#2",
          "midi": 44,
          "time": 215.02325581391733,
          "velocity": 0.6062992125984252,
          "duration": 0.011627906976741542
        },
        {
          "name": "D5",
          "midi": 74,
          "time": 215.02325581391733,
          "velocity": 0.2755905511811024,
          "duration": 0.279069767441797
        },
        {
          "name": "G#6",
          "midi": 92,
          "time": 215.02325581391733,
          "velocity": 0.13385826771653545,
          "duration": 0.11627906976741542
        },
        {
          "name": "B6",
          "midi": 95,
          "time": 215.02325581391733,
          "velocity": 0.14960629921259844,
          "duration": 0.034883720930224626
        },
        {
          "name": "A#2",
          "midi": 46,
          "time": 215.03488372089407,
          "velocity": 0.5275590551181102,
          "duration": 0.011627906976741542
        },
        {
          "name": "D#6",
          "midi": 87,
          "time": 215.03488372089407,
          "velocity": 0.09448818897637795,
          "duration": 0.11627906976741542
        },
        {
          "name": "C7",
          "midi": 96,
          "time": 215.03488372089407,
          "velocity": 0.12598425196850394,
          "duration": 0.10465116279067388
        },
        {
          "name": "D7",
          "midi": 98,
          "time": 215.03488372089407,
          "velocity": 0.1889763779527559,
          "duration": 0.09302325581393234
        },
        {
          "name": "E7",
          "midi": 100,
          "time": 215.03488372089407,
          "velocity": 0.10236220472440945,
          "duration": 0.09302325581393234
        },
        {
          "name": "B2",
          "midi": 47,
          "time": 215.0465116278708,
          "velocity": 0.5196850393700787,
          "duration": 0.011627906976741542
        },
        {
          "name": "F7",
          "midi": 101,
          "time": 215.0465116278708,
          "velocity": 0.12598425196850394,
          "duration": 0.12790697674415696
        },
        {
          "name": "F2",
          "midi": 41,
          "time": 215.05813953484756,
          "velocity": 0.5748031496062992,
          "duration": 0.04651162790696617
        },
        {
          "name": "B6",
          "midi": 95,
          "time": 215.0697674418243,
          "velocity": 0.08661417322834646,
          "duration": 0.1395348837208985
        },
        {
          "name": "E3",
          "midi": 52,
          "time": 215.08139534880104,
          "velocity": 0.4094488188976378,
          "duration": 0.05813953488370771
        },
        {
          "name": "E2",
          "midi": 40,
          "time": 215.10465116275452,
          "velocity": 0.4881889763779528,
          "duration": 0.023255813953483084
        },
        {
          "name": "B3",
          "midi": 59,
          "time": 215.10465116275452,
          "velocity": 0.3700787401574803,
          "duration": 0.10465116279067388
        },
        {
          "name": "D#3",
          "midi": 51,
          "time": 215.13953488368475,
          "velocity": 0.4251968503937008,
          "duration": 0.023255813953483084
        },
        {
          "name": "A5",
          "midi": 81,
          "time": 215.13953488368475,
          "velocity": 0.4094488188976378,
          "duration": 0.2558139534883139
        },
        {
          "name": "G7",
          "midi": 103,
          "time": 215.13953488368475,
          "velocity": 0.14960629921259844,
          "duration": 0.09302325581393234
        },
        {
          "name": "D7",
          "midi": 98,
          "time": 215.1511627906615,
          "velocity": 0.33858267716535434,
          "duration": 0.5697674418603356
        },
        {
          "name": "E3",
          "midi": 52,
          "time": 215.16279069763823,
          "velocity": 0.3779527559055118,
          "duration": 0.034883720930224626
        },
        {
          "name": "C7",
          "midi": 96,
          "time": 215.17441860461497,
          "velocity": 0.2047244094488189,
          "duration": 0.0813953488371908
        },
        {
          "name": "F#2",
          "midi": 42,
          "time": 215.1860465115917,
          "velocity": 0.5669291338582677,
          "duration": 0.011627906976741542
        },
        {
          "name": "A4",
          "midi": 69,
          "time": 215.1860465115917,
          "velocity": 0.3464566929133858,
          "duration": 0.023255813953483084
        },
        {
          "name": "C2",
          "midi": 36,
          "time": 215.19767441856845,
          "velocity": 0.5511811023622047,
          "duration": 0.011627906976741542
        },
        {
          "name": "C5",
          "midi": 72,
          "time": 215.19767441856845,
          "velocity": 0.29133858267716534,
          "duration": 0.05813953488370771
        },
        {
          "name": "G6",
          "midi": 91,
          "time": 215.19767441856845,
          "velocity": 0.4566929133858268,
          "duration": 0.31395348837202164
        },
        {
          "name": "E5",
          "midi": 76,
          "time": 215.2093023255452,
          "velocity": 0.2283464566929134,
          "duration": 0.034883720930224626
        },
        {
          "name": "G5",
          "midi": 79,
          "time": 215.2093023255452,
          "velocity": 0.48031496062992124,
          "duration": 0.20930232558134776
        },
        {
          "name": "D#7",
          "midi": 99,
          "time": 215.2093023255452,
          "velocity": 0.2992125984251969,
          "duration": 0.1627906976743816
        },
        {
          "name": "F7",
          "midi": 101,
          "time": 215.2093023255452,
          "velocity": 0.2283464566929134,
          "duration": 0.43023255813943706
        },
        {
          "name": "F#2",
          "midi": 42,
          "time": 215.22093023252194,
          "velocity": 0.5354330708661418,
          "duration": 0.011627906976741542
        },
        {
          "name": "A4",
          "midi": 69,
          "time": 215.22093023252194,
          "velocity": 0.3228346456692913,
          "duration": 0.034883720930224626
        },
        {
          "name": "F2",
          "midi": 41,
          "time": 215.23255813949868,
          "velocity": 0.5669291338582677,
          "duration": 0.034883720930224626
        },
        {
          "name": "G4",
          "midi": 67,
          "time": 215.23255813949868,
          "velocity": 0.33070866141732286,
          "duration": 0.04651162790696617
        },
        {
          "name": "B6",
          "midi": 95,
          "time": 215.23255813949868,
          "velocity": 0.14173228346456693,
          "duration": 0.034883720930224626
        },
        {
          "name": "A#4",
          "midi": 70,
          "time": 215.24418604647542,
          "velocity": 0.23622047244094488,
          "duration": 0.023255813953483084
        },
        {
          "name": "E4",
          "midi": 64,
          "time": 215.25581395345216,
          "velocity": 0.2677165354330709,
          "duration": 0.0813953488371908
        },
        {
          "name": "D#6",
          "midi": 87,
          "time": 215.25581395345216,
          "velocity": 0.14173228346456693,
          "duration": 0.04651162790696617
        },
        {
          "name": "G#6",
          "midi": 92,
          "time": 215.25581395345216,
          "velocity": 0.15748031496062992,
          "duration": 0.11627906976741542
        },
        {
          "name": "A#6",
          "midi": 94,
          "time": 215.25581395345216,
          "velocity": 0.14173228346456693,
          "duration": 0.04651162790696617
        },
        {
          "name": "E2",
          "midi": 40,
          "time": 215.2674418604289,
          "velocity": 0.33070866141732286,
          "duration": 0.023255813953483084
        },
        {
          "name": "C5",
          "midi": 72,
          "time": 215.2674418604289,
          "velocity": 0.2992125984251969,
          "duration": 0.12790697674415696
        },
        {
          "name": "G#4",
          "midi": 68,
          "time": 215.27906976740564,
          "velocity": 0.3543307086614173,
          "duration": 0.023255813953483084
        },
        {
          "name": "E6",
          "midi": 88,
          "time": 215.27906976740564,
          "velocity": 0.2283464566929134,
          "duration": 0.4186046511626955
        },
        {
          "name": "F#7",
          "midi": 102,
          "time": 215.27906976740564,
          "velocity": 0.28346456692913385,
          "duration": 0.5232558139533694
        },
        {
          "name": "E3",
          "midi": 52,
          "time": 215.2906976743824,
          "velocity": 0.4251968503937008,
          "duration": 0.04651162790696617
        },
        {
          "name": "C4",
          "midi": 60,
          "time": 215.2906976743824,
          "velocity": 0.30708661417322836,
          "duration": 0.10465116279067388
        },
        {
          "name": "G4",
          "midi": 67,
          "time": 215.2906976743824,
          "velocity": 0.3228346456692913,
          "duration": 0.06976744186044925
        },
        {
          "name": "B6",
          "midi": 95,
          "time": 215.2906976743824,
          "velocity": 0.29133858267716534,
          "duration": 0.24418604651157239
        },
        {
          "name": "E7",
          "midi": 100,
          "time": 215.2906976743824,
          "velocity": 0.3228346456692913,
          "duration": 0.3604651162789878
        },
        {
          "name": "A4",
          "midi": 69,
          "time": 215.31395348833587,
          "velocity": 0.4881889763779528,
          "duration": 0.18604651162786467
        },
        {
          "name": "C#7",
          "midi": 97,
          "time": 215.31395348833587,
          "velocity": 0.2992125984251969,
          "duration": 0.1627906976743816
        },
        {
          "name": "A#6",
          "midi": 94,
          "time": 215.3255813953126,
          "velocity": 0.07874015748031496,
          "duration": 0.034883720930224626
        },
        {
          "name": "A6",
          "midi": 93,
          "time": 215.33720930228935,
          "velocity": 0.47244094488188976,
          "duration": 0.4418604651161786
        },
        {
          "name": "E4",
          "midi": 64,
          "time": 215.3488372092661,
          "velocity": 0.4251968503937008,
          "duration": 0.05813953488370771
        },
        {
          "name": "G4",
          "midi": 67,
          "time": 215.37209302321958,
          "velocity": 0.4409448818897638,
          "duration": 0.034883720930224626
        },
        {
          "name": "A#6",
          "midi": 94,
          "time": 215.37209302321958,
          "velocity": 0.1732283464566929,
          "duration": 0.0813953488371908
        },
        {
          "name": "C7",
          "midi": 96,
          "time": 215.37209302321958,
          "velocity": 0.2440944881889764,
          "duration": 0.023255813953483084
        },
        {
          "name": "D3",
          "midi": 50,
          "time": 215.38372093019632,
          "velocity": 0.2677165354330709,
          "duration": 0.023255813953483084
        },
        {
          "name": "D5",
          "midi": 74,
          "time": 215.38372093019632,
          "velocity": 0.3779527559055118,
          "duration": 0.04651162790696617
        },
        {
          "name": "B4",
          "midi": 71,
          "time": 215.39534883717306,
          "velocity": 0.2755905511811024,
          "duration": 0.034883720930224626
        },
        {
          "name": "C6",
          "midi": 84,
          "time": 215.39534883717306,
          "velocity": 0.14960629921259844,
          "duration": 0.0813953488371908
        },
        {
          "name": "A#3",
          "midi": 58,
          "time": 215.4069767441498,
          "velocity": 0.4645669291338583,
          "duration": 0.023255813953483084
        },
        {
          "name": "C7",
          "midi": 96,
          "time": 215.4069767441498,
          "velocity": 0.2677165354330709,
          "duration": 0.18604651162786467
        },
        {
          "name": "G4",
          "midi": 67,
          "time": 215.41860465112654,
          "velocity": 0.3543307086614173,
          "duration": 0.023255813953483084
        },
        {
          "name": "D#5",
          "midi": 75,
          "time": 215.41860465112654,
          "velocity": 0.2047244094488189,
          "duration": 0.034883720930224626
        },
        {
          "name": "F#5",
          "midi": 78,
          "time": 215.41860465112654,
          "velocity": 0.36220472440944884,
          "duration": 0.18604651162786467
        },
        {
          "name": "C#6",
          "midi": 85,
          "time": 215.41860465112654,
          "velocity": 0.14960629921259844,
          "duration": 0.04651162790696617
        },
        {
          "name": "E3",
          "midi": 52,
          "time": 215.43023255810328,
          "velocity": 0.3858267716535433,
          "duration": 0.04651162790696617
        },
        {
          "name": "C5",
          "midi": 72,
          "time": 215.43023255810328,
          "velocity": 0.3779527559055118,
          "duration": 0.023255813953483084
        },
        {
          "name": "D#7",
          "midi": 99,
          "time": 215.43023255810328,
          "velocity": 0.2283464566929134,
          "duration": 0.26744186046505547
        },
        {
          "name": "F2",
          "midi": 41,
          "time": 215.44186046508003,
          "velocity": 0.4881889763779528,
          "duration": 0.034883720930224626
        },
        {
          "name": "F#4",
          "midi": 66,
          "time": 215.44186046508003,
          "velocity": 0.3779527559055118,
          "duration": 0.11627906976741542
        },
        {
          "name": "B4",
          "midi": 71,
          "time": 215.44186046508003,
          "velocity": 0.29133858267716534,
          "duration": 0.023255813953483084
        },
        {
          "name": "A3",
          "midi": 57,
          "time": 215.45348837205677,
          "velocity": 0.30708661417322836,
          "duration": 0.034883720930224626
        },
        {
          "name": "D5",
          "midi": 74,
          "time": 215.45348837205677,
          "velocity": 0.2992125984251969,
          "duration": 0.05813953488370771
        },
        {
          "name": "E5",
          "midi": 76,
          "time": 215.45348837205677,
          "velocity": 0.23622047244094488,
          "duration": 0.3023255813952801
        },
        {
          "name": "C5",
          "midi": 72,
          "time": 215.4651162790335,
          "velocity": 0.3228346456692913,
          "duration": 0.1395348837208985
        },
        {
          "name": "D3",
          "midi": 50,
          "time": 215.488372092987,
          "velocity": 0.41732283464566927,
          "duration": 0.10465116279067388
        },
        {
          "name": "C#7",
          "midi": 97,
          "time": 215.49999999996373,
          "velocity": 0.2125984251968504,
          "duration": 0.19767441860460622
        },
        {
          "name": "A#3",
          "midi": 58,
          "time": 215.51162790694048,
          "velocity": 0.3464566929133858,
          "duration": 0.023255813953483084
        },
        {
          "name": "A4",
          "midi": 69,
          "time": 215.51162790694048,
          "velocity": 0.4094488188976378,
          "duration": 0.20930232558134776
        },
        {
          "name": "C#4",
          "midi": 61,
          "time": 215.52325581391722,
          "velocity": 0.30708661417322836,
          "duration": 0.023255813953483084
        },
        {
          "name": "D5",
          "midi": 74,
          "time": 215.53488372089396,
          "velocity": 0.2440944881889764,
          "duration": 0.0813953488371908
        },
        {
          "name": "F2",
          "midi": 41,
          "time": 215.5465116278707,
          "velocity": 0.33858267716535434,
          "duration": 0.034883720930224626
        },
        {
          "name": "B3",
          "midi": 59,
          "time": 215.5465116278707,
          "velocity": 0.30708661417322836,
          "duration": 0.023255813953483084
        },
        {
          "name": "G6",
          "midi": 91,
          "time": 215.5465116278707,
          "velocity": 0.11811023622047244,
          "duration": 0.09302325581393234
        },
        {
          "name": "A3",
          "midi": 57,
          "time": 215.58139534880092,
          "velocity": 0.25196850393700787,
          "duration": 0.034883720930224626
        },
        {
          "name": "F#4",
          "midi": 66,
          "time": 215.58139534880092,
          "velocity": 0.25196850393700787,
          "duration": 0.04651162790696617
        },
        {
          "name": "B6",
          "midi": 95,
          "time": 215.59302325577767,
          "velocity": 0.47244094488188976,
          "duration": 2.081395348836736
        },
        {
          "name": "C4",
          "midi": 60,
          "time": 215.6046511627544,
          "velocity": 0.33858267716535434,
          "duration": 0.023255813953483084
        },
        {
          "name": "G7",
          "midi": 103,
          "time": 215.6046511627544,
          "velocity": 0.14173228346456693,
          "duration": 0.05813953488370771
        },
        {
          "name": "A#1",
          "midi": 34,
          "time": 215.6279069767079,
          "velocity": 0.5275590551181102,
          "duration": 0.011627906976741542
        },
        {
          "name": "A2",
          "midi": 45,
          "time": 215.6279069767079,
          "velocity": 0.5826771653543307,
          "duration": 0.023255813953483084
        },
        {
          "name": "A#3",
          "midi": 58,
          "time": 215.6279069767079,
          "velocity": 0.3228346456692913,
          "duration": 0.023255813953483084
        },
        {
          "name": "C5",
          "midi": 72,
          "time": 215.6279069767079,
          "velocity": 0.28346456692913385,
          "duration": 0.05813953488370771
        },
        {
          "name": "B5",
          "midi": 83,
          "time": 215.6279069767079,
          "velocity": 0.1968503937007874,
          "duration": 0.1395348837208985
        },
        {
          "name": "G5",
          "midi": 79,
          "time": 215.63953488368463,
          "velocity": 0.29133858267716534,
          "duration": 0.04651162790696617
        },
        {
          "name": "G#2",
          "midi": 44,
          "time": 215.65116279066137,
          "velocity": 0.5433070866141733,
          "duration": 0.011627906976741542
        },
        {
          "name": "C#4",
          "midi": 61,
          "time": 215.65116279066137,
          "velocity": 0.3779527559055118,
          "duration": 0.034883720930224626
        },
        {
          "name": "G4",
          "midi": 67,
          "time": 215.65116279066137,
          "velocity": 0.2677165354330709,
          "duration": 0.04651162790696617
        },
        {
          "name": "F#6",
          "midi": 90,
          "time": 215.65116279066137,
          "velocity": 0.2125984251968504,
          "duration": 0.09302325581393234
        },
        {
          "name": "C3",
          "midi": 48,
          "time": 215.66279069763812,
          "velocity": 0.5748031496062992,
          "duration": 0.011627906976741542
        },
        {
          "name": "B2",
          "midi": 47,
          "time": 215.67441860461486,
          "velocity": 0.5590551181102362,
          "duration": 0.011627906976741542
        },
        {
          "name": "D4",
          "midi": 62,
          "time": 215.67441860461486,
          "velocity": 0.25984251968503935,
          "duration": 0.023255813953483084
        },
        {
          "name": "F#5",
          "midi": 78,
          "time": 215.67441860461486,
          "velocity": 0.10236220472440945,
          "duration": 0.034883720930224626
        },
        {
          "name": "C3",
          "midi": 48,
          "time": 215.6860465115916,
          "velocity": 0.5669291338582677,
          "duration": 0.011627906976741542
        },
        {
          "name": "C#3",
          "midi": 49,
          "time": 215.69767441856834,
          "velocity": 0.5590551181102362,
          "duration": 0.011627906976741542
        },
        {
          "name": "G3",
          "midi": 55,
          "time": 215.69767441856834,
          "velocity": 0.4566929133858268,
          "duration": 0.0813953488371908
        },
        {
          "name": "C3",
          "midi": 48,
          "time": 215.70930232554508,
          "velocity": 0.5590551181102362,
          "duration": 0.023255813953483084
        },
        {
          "name": "G#4",
          "midi": 68,
          "time": 215.70930232554508,
          "velocity": 0.2677165354330709,
          "duration": 0.023255813953483084
        },
        {
          "name": "C#3",
          "midi": 49,
          "time": 215.73255813949856,
          "velocity": 0.5669291338582677,
          "duration": 0.011627906976741542
        },
        {
          "name": "A5",
          "midi": 81,
          "time": 215.73255813949856,
          "velocity": 0.14173228346456693,
          "duration": 0.1395348837208985
        },
        {
          "name": "C5",
          "midi": 72,
          "time": 215.7441860464753,
          "velocity": 0.2992125984251969,
          "duration": 0.1395348837208985
        },
        {
          "name": "C7",
          "midi": 96,
          "time": 215.7441860464753,
          "velocity": 0.16535433070866143,
          "duration": 0.05813953488370771
        },
        {
          "name": "D#7",
          "midi": 99,
          "time": 215.7441860464753,
          "velocity": 0.2047244094488189,
          "duration": 0.15116279069764005
        },
        {
          "name": "C4",
          "midi": 60,
          "time": 215.75581395345205,
          "velocity": 0.3937007874015748,
          "duration": 0.11627906976741542
        },
        {
          "name": "E5",
          "midi": 76,
          "time": 215.77906976740553,
          "velocity": 0.18110236220472442,
          "duration": 0.05813953488370771
        },
        {
          "name": "B5",
          "midi": 83,
          "time": 215.79069767438227,
          "velocity": 0.15748031496062992,
          "duration": 0.034883720930224626
        },
        {
          "name": "B2",
          "midi": 47,
          "time": 215.802325581359,
          "velocity": 0.36220472440944884,
          "duration": 0.023255813953483084
        },
        {
          "name": "E4",
          "midi": 64,
          "time": 215.81395348833576,
          "velocity": 0.31496062992125984,
          "duration": 0.04651162790696617
        },
        {
          "name": "D5",
          "midi": 74,
          "time": 215.81395348833576,
          "velocity": 0.33858267716535434,
          "duration": 0.4186046511626955
        },
        {
          "name": "F#6",
          "midi": 90,
          "time": 215.81395348833576,
          "velocity": 0.07874015748031496,
          "duration": 0.034883720930224626
        },
        {
          "name": "F#7",
          "midi": 102,
          "time": 215.81395348833576,
          "velocity": 0.29133858267716534,
          "duration": 0.4999999999998863
        },
        {
          "name": "F#5",
          "midi": 78,
          "time": 215.8255813953125,
          "velocity": 0.08661417322834646,
          "duration": 0.05813953488370771
        },
        {
          "name": "G7",
          "midi": 103,
          "time": 215.8255813953125,
          "velocity": 0.08661417322834646,
          "duration": 0.05813953488370771
        },
        {
          "name": "B1",
          "midi": 35,
          "time": 215.83720930228924,
          "velocity": 0.5118110236220472,
          "duration": 0.023255813953483084
        },
        {
          "name": "A2",
          "midi": 45,
          "time": 215.83720930228924,
          "velocity": 0.5826771653543307,
          "duration": 0.034883720930224626
        },
        {
          "name": "E6",
          "midi": 88,
          "time": 215.83720930228924,
          "velocity": 0.14960629921259844,
          "duration": 0.04651162790696617
        },
        {
          "name": "G#6",
          "midi": 92,
          "time": 215.83720930228924,
          "velocity": 0.07086614173228346,
          "duration": 0.04651162790696617
        },
        {
          "name": "C#7",
          "midi": 97,
          "time": 215.83720930228924,
          "velocity": 0.13385826771653545,
          "duration": 0.0813953488371908
        },
        {
          "name": "A6",
          "midi": 93,
          "time": 215.84883720926598,
          "velocity": 0.2440944881889764,
          "duration": 0.11627906976741542
        },
        {
          "name": "C7",
          "midi": 96,
          "time": 215.84883720926598,
          "velocity": 0.08661417322834646,
          "duration": 0.034883720930224626
        },
        {
          "name": "D7",
          "midi": 98,
          "time": 215.84883720926598,
          "velocity": 0.10236220472440945,
          "duration": 0.0813953488371908
        },
        {
          "name": "A4",
          "midi": 69,
          "time": 215.86046511624272,
          "velocity": 0.16535433070866143,
          "duration": 0.034883720930224626
        },
        {
          "name": "B5",
          "midi": 83,
          "time": 215.86046511624272,
          "velocity": 0.2440944881889764,
          "duration": 0.06976744186044925
        },
        {
          "name": "F#6",
          "midi": 90,
          "time": 215.86046511624272,
          "velocity": 0.28346456692913385,
          "duration": 0.406976744185954
        },
        {
          "name": "B2",
          "midi": 47,
          "time": 215.87209302321946,
          "velocity": 0.5905511811023622,
          "duration": 0.023255813953483084
        },
        {
          "name": "C3",
          "midi": 48,
          "time": 215.89534883717295,
          "velocity": 0.5826771653543307,
          "duration": 0.011627906976741542
        },
        {
          "name": "E4",
          "midi": 64,
          "time": 215.89534883717295,
          "velocity": 0.4094488188976378,
          "duration": 0.15116279069764005
        },
        {
          "name": "E7",
          "midi": 100,
          "time": 215.89534883717295,
          "velocity": 0.07086614173228346,
          "duration": 0.034883720930224626
        },
        {
          "name": "C#3",
          "midi": 49,
          "time": 215.9069767441497,
          "velocity": 0.5748031496062992,
          "duration": 0.023255813953483084
        },
        {
          "name": "G3",
          "midi": 55,
          "time": 215.91860465112643,
          "velocity": 0.47244094488188976,
          "duration": 0.12790697674415696
        },
        {
          "name": "F2",
          "midi": 41,
          "time": 215.93023255810317,
          "velocity": 0.5039370078740157,
          "duration": 0.023255813953483084
        },
        {
          "name": "C3",
          "midi": 48,
          "time": 215.93023255810317,
          "velocity": 0.5669291338582677,
          "duration": 0.011627906976741542
        },
        {
          "name": "G4",
          "midi": 67,
          "time": 215.93023255810317,
          "velocity": 0.49606299212598426,
          "duration": 0.23255813953483084
        },
        {
          "name": "D#7",
          "midi": 99,
          "time": 215.93023255810317,
          "velocity": 0.1968503937007874,
          "duration": 0.15116279069764005
        },
        {
          "name": "C#3",
          "midi": 49,
          "time": 215.9418604650799,
          "velocity": 0.5748031496062992,
          "duration": 0.011627906976741542
        },
        {
          "name": "C3",
          "midi": 48,
          "time": 215.95348837205665,
          "velocity": 0.5826771653543307,
          "duration": 0.05813953488370771
        },
        {
          "name": "B5",
          "midi": 83,
          "time": 215.95348837205665,
          "velocity": 0.2125984251968504,
          "duration": 0.06976744186044925
        },
        {
          "name": "A6",
          "midi": 93,
          "time": 215.98837209298688,
          "velocity": 0.1889763779527559,
          "duration": 0.11627906976741542
        },
        {
          "name": "B2",
          "midi": 47,
          "time": 216.01162790694036,
          "velocity": 0.5118110236220472,
          "duration": 0.023255813953483084
        },
        {
          "name": "C4",
          "midi": 60,
          "time": 216.0465116278706,
          "velocity": 0.5196850393700787,
          "duration": 0.011627906976741542
        },
        {
          "name": "A5",
          "midi": 81,
          "time": 216.0465116278706,
          "velocity": 0.2992125984251969,
          "duration": 0.2558139534883139
        },
        {
          "name": "C7",
          "midi": 96,
          "time": 216.0465116278706,
          "velocity": 0.12598425196850394,
          "duration": 0.05813953488370771
        },
        {
          "name": "C#7",
          "midi": 97,
          "time": 216.0465116278706,
          "velocity": 0.2677165354330709,
          "duration": 0.3023255813952801
        },
        {
          "name": "G7",
          "midi": 103,
          "time": 216.0465116278706,
          "velocity": 0.12598425196850394,
          "duration": 0.04651162790696617
        },
        {
          "name": "E4",
          "midi": 64,
          "time": 216.05813953484733,
          "velocity": 0.3858267716535433,
          "duration": 0.04651162790696617
        },
        {
          "name": "F#5",
          "midi": 78,
          "time": 216.05813953484733,
          "velocity": 0.2677165354330709,
          "duration": 0.023255813953483084
        },
        {
          "name": "D7",
          "midi": 98,
          "time": 216.05813953484733,
          "velocity": 0.23622047244094488,
          "duration": 0.3023255813952801
        },
        {
          "name": "C4",
          "midi": 60,
          "time": 216.06976744182407,
          "velocity": 0.33858267716535434,
          "duration": 0.034883720930224626
        },
        {
          "name": "C6",
          "midi": 84,
          "time": 216.06976744182407,
          "velocity": 0.12598425196850394,
          "duration": 0.04651162790696617
        },
        {
          "name": "B5",
          "midi": 83,
          "time": 216.0813953488008,
          "velocity": 0.18110236220472442,
          "duration": 0.10465116279067388
        },
        {
          "name": "F7",
          "midi": 101,
          "time": 216.0813953488008,
          "velocity": 0.08661417322834646,
          "duration": 0.09302325581393234
        },
        {
          "name": "G#3",
          "midi": 56,
          "time": 216.1046511627543,
          "velocity": 0.4015748031496063,
          "duration": 0.034883720930224626
        },
        {
          "name": "E4",
          "midi": 64,
          "time": 216.11627906973104,
          "velocity": 0.3543307086614173,
          "duration": 0.05813953488370771
        },
        {
          "name": "G7",
          "midi": 103,
          "time": 216.11627906973104,
          "velocity": 0.11811023622047244,
          "duration": 0.04651162790696617
        },
        {
          "name": "G3",
          "midi": 55,
          "time": 216.13953488368452,
          "velocity": 0.3464566929133858,
          "duration": 0.023255813953483084
        },
        {
          "name": "B4",
          "midi": 71,
          "time": 216.13953488368452,
          "velocity": 0.2125984251968504,
          "duration": 0.04651162790696617
        },
        {
          "name": "F#5",
          "midi": 78,
          "time": 216.15116279066126,
          "velocity": 0.16535433070866143,
          "duration": 0.034883720930224626
        },
        {
          "name": "D#7",
          "midi": 99,
          "time": 216.15116279066126,
          "velocity": 0.2047244094488189,
          "duration": 0.0813953488371908
        },
        {
          "name": "C#4",
          "midi": 61,
          "time": 216.162790697638,
          "velocity": 0.3543307086614173,
          "duration": 0.023255813953483084
        },
        {
          "name": "A4",
          "midi": 69,
          "time": 216.18604651159148,
          "velocity": 0.2125984251968504,
          "duration": 0.05813953488370771
        },
        {
          "name": "G4",
          "midi": 67,
          "time": 216.19767441856823,
          "velocity": 0.2125984251968504,
          "duration": 0.04651162790696617
        },
        {
          "name": "G3",
          "midi": 55,
          "time": 216.20930232554497,
          "velocity": 0.33858267716535434,
          "duration": 0.023255813953483084
        },
        {
          "name": "E4",
          "midi": 64,
          "time": 216.20930232554497,
          "velocity": 0.2677165354330709,
          "duration": 0.04651162790696617
        },
        {
          "name": "B5",
          "midi": 83,
          "time": 216.20930232554497,
          "velocity": 0.29133858267716534,
          "duration": 0.965116279069548
        },
        {
          "name": "G3",
          "midi": 55,
          "time": 216.2441860464752,
          "velocity": 0.3858267716535433,
          "duration": 0.04651162790696617
        },
        {
          "name": "E6",
          "midi": 88,
          "time": 216.25581395345193,
          "velocity": 0.1732283464566929,
          "duration": 0.15116279069764005
        },
        {
          "name": "F7",
          "midi": 101,
          "time": 216.25581395345193,
          "velocity": 0.14960629921259844,
          "duration": 0.0813953488371908
        },
        {
          "name": "E4",
          "midi": 64,
          "time": 216.26744186042868,
          "velocity": 0.3464566929133858,
          "duration": 0.2558139534883139
        },
        {
          "name": "C5",
          "midi": 72,
          "time": 216.26744186042868,
          "velocity": 0.29133858267716534,
          "duration": 0.0813953488371908
        },
        {
          "name": "D5",
          "midi": 74,
          "time": 216.26744186042868,
          "velocity": 0.2755905511811024,
          "duration": 0.20930232558134776
        },
        {
          "name": "D#7",
          "midi": 99,
          "time": 216.26744186042868,
          "velocity": 0.1968503937007874,
          "duration": 0.26744186046505547
        },
        {
          "name": "G#2",
          "midi": 44,
          "time": 216.27906976740542,
          "velocity": 0.5590551181102362,
          "duration": 0.011627906976741542
        },
        {
          "name": "G#6",
          "midi": 92,
          "time": 216.27906976740542,
          "velocity": 0.11023622047244094,
          "duration": 0.034883720930224626
        },
        {
          "name": "A2",
          "midi": 45,
          "time": 216.29069767438216,
          "velocity": 0.5511811023622047,
          "duration": 0.011627906976741542
        },
        {
          "name": "F#6",
          "midi": 90,
          "time": 216.29069767438216,
          "velocity": 0.1968503937007874,
          "duration": 0.10465116279067388
        },
        {
          "name": "B2",
          "midi": 47,
          "time": 216.3023255813589,
          "velocity": 0.5669291338582677,
          "duration": 0.011627906976741542
        },
        {
          "name": "C#4",
          "midi": 61,
          "time": 216.3023255813589,
          "velocity": 0.3464566929133858,
          "duration": 0.023255813953483084
        },
        {
          "name": "C3",
          "midi": 48,
          "time": 216.31395348833564,
          "velocity": 0.5118110236220472,
          "duration": 0.023255813953483084
        },
        {
          "name": "G#3",
          "midi": 56,
          "time": 216.31395348833564,
          "velocity": 0.4251968503937008,
          "duration": 0.023255813953483084
        },
        {
          "name": "C#3",
          "midi": 49,
          "time": 216.33720930228912,
          "velocity": 0.5433070866141733,
          "duration": 0.011627906976741542
        },
        {
          "name": "G3",
          "midi": 55,
          "time": 216.33720930228912,
          "velocity": 0.5590551181102362,
          "duration": 0.06976744186044925
        },
        {
          "name": "C3",
          "midi": 48,
          "time": 216.34883720926587,
          "velocity": 0.6141732283464567,
          "duration": 0.05813953488370771
        },
        {
          "name": "A4",
          "midi": 69,
          "time": 216.34883720926587,
          "velocity": 0.14960629921259844,
          "duration": 0.034883720930224626
        },
        {
          "name": "B4",
          "midi": 71,
          "time": 216.39534883717283,
          "velocity": 0.12598425196850394,
          "duration": 0.034883720930224626
        },
        {
          "name": "F#6",
          "midi": 90,
          "time": 216.41860465112632,
          "velocity": 0.25984251968503935,
          "duration": 0.279069767441797
        },
        {
          "name": "A6",
          "midi": 93,
          "time": 216.41860465112632,
          "velocity": 0.07086614173228346,
          "duration": 0.034883720930224626
        },
        {
          "name": "C3",
          "midi": 48,
          "time": 216.45348837205654,
          "velocity": 0.3543307086614173,
          "duration": 0.023255813953483084
        },
        {
          "name": "G3",
          "midi": 55,
          "time": 216.45348837205654,
          "velocity": 0.25984251968503935,
          "duration": 0.023255813953483084
        },
        {
          "name": "B4",
          "midi": 71,
          "time": 216.46511627903328,
          "velocity": 0.2283464566929134,
          "duration": 0.034883720930224626
        },
        {
          "name": "A4",
          "midi": 69,
          "time": 216.47674418601002,
          "velocity": 0.2440944881889764,
          "duration": 0.04651162790696617
        },
        {
          "name": "C#7",
          "midi": 97,
          "time": 216.47674418601002,
          "velocity": 0.12598425196850394,
          "duration": 0.0813953488371908
        },
        {
          "name": "G#2",
          "midi": 44,
          "time": 216.48837209298676,
          "velocity": 0.5905511811023622,
          "duration": 0.023255813953483084
        },
        {
          "name": "A#3",
          "midi": 58,
          "time": 216.48837209298676,
          "velocity": 0.29133858267716534,
          "duration": 0.023255813953483084
        },
        {
          "name": "C7",
          "midi": 96,
          "time": 216.48837209298676,
          "velocity": 0.13385826771653545,
          "duration": 0.034883720930224626
        },
        {
          "name": "D7",
          "midi": 98,
          "time": 216.48837209298676,
          "velocity": 0.14960629921259844,
          "duration": 0.0813953488371908
        },
        {
          "name": "G4",
          "midi": 67,
          "time": 216.4999999999635,
          "velocity": 0.5118110236220472,
          "duration": 0.48837209302314477
        },
        {
          "name": "A#2",
          "midi": 46,
          "time": 216.51162790694025,
          "velocity": 0.5748031496062992,
          "duration": 0.011627906976741542
        },
        {
          "name": "C5",
          "midi": 72,
          "time": 216.51162790694025,
          "velocity": 0.31496062992125984,
          "duration": 0.26744186046505547
        },
        {
          "name": "B2",
          "midi": 47,
          "time": 216.523255813917,
          "velocity": 0.5748031496062992,
          "duration": 0.023255813953483084
        },
        {
          "name": "C#4",
          "midi": 61,
          "time": 216.523255813917,
          "velocity": 0.4015748031496063,
          "duration": 0.023255813953483084
        },
        {
          "name": "E4",
          "midi": 64,
          "time": 216.53488372089373,
          "velocity": 0.30708661417322836,
          "duration": 0.18604651162786467
        },
        {
          "name": "C3",
          "midi": 48,
          "time": 216.54651162787047,
          "velocity": 0.5905511811023622,
          "duration": 0.011627906976741542
        },
        {
          "name": "C#3",
          "midi": 49,
          "time": 216.55813953484721,
          "velocity": 0.5984251968503937,
          "duration": 0.011627906976741542
        },
        {
          "name": "G3",
          "midi": 55,
          "time": 216.55813953484721,
          "velocity": 0.4881889763779528,
          "duration": 0.12790697674415696
        },
        {
          "name": "C3",
          "midi": 48,
          "time": 216.56976744182396,
          "velocity": 0.6141732283464567,
          "duration": 0.11627906976741542
        },
        {
          "name": "D#7",
          "midi": 99,
          "time": 216.5813953488007,
          "velocity": 0.2440944881889764,
          "duration": 0.3372093023255047
        },
        {
          "name": "E7",
          "midi": 100,
          "time": 216.5813953488007,
          "velocity": 0.09448818897637795,
          "duration": 0.034883720930224626
        },
        {
          "name": "G2",
          "midi": 43,
          "time": 216.6395348836844,
          "velocity": 0.5196850393700787,
          "duration": 0.011627906976741542
        },
        {
          "name": "B2",
          "midi": 47,
          "time": 216.68604651159137,
          "velocity": 0.5826771653543307,
          "duration": 0.011627906976741542
        },
        {
          "name": "C3",
          "midi": 48,
          "time": 216.6976744185681,
          "velocity": 0.5826771653543307,
          "duration": 0.011627906976741542
        },
        {
          "name": "C#7",
          "midi": 97,
          "time": 216.6976744185681,
          "velocity": 0.2440944881889764,
          "duration": 0.29069767441853855
        },
        {
          "name": "D7",
          "midi": 98,
          "time": 216.6976744185681,
          "velocity": 0.31496062992125984,
          "duration": 0.279069767441797
        },
        {
          "name": "B2",
          "midi": 47,
          "time": 216.70930232554485,
          "velocity": 0.5826771653543307,
          "duration": 0.011627906976741542
        },
        {
          "name": "G3",
          "midi": 55,
          "time": 216.70930232554485,
          "velocity": 0.33858267716535434,
          "duration": 0.023255813953483084
        },
        {
          "name": "D5",
          "midi": 74,
          "time": 216.70930232554485,
          "velocity": 0.47244094488188976,
          "duration": 0.2209302325580893
        },
        {
          "name": "C7",
          "midi": 96,
          "time": 216.70930232554485,
          "velocity": 0.1732283464566929,
          "duration": 0.04651162790696617
        },
        {
          "name": "A2",
          "midi": 45,
          "time": 216.7209302325216,
          "velocity": 0.5748031496062992,
          "duration": 0.011627906976741542
        },
        {
          "name": "C#4",
          "midi": 61,
          "time": 216.7209302325216,
          "velocity": 0.2047244094488189,
          "duration": 0.04651162790696617
        },
        {
          "name": "F#6",
          "midi": 90,
          "time": 216.7209302325216,
          "velocity": 0.16535433070866143,
          "duration": 0.10465116279067388
        },
        {
          "name": "B2",
          "midi": 47,
          "time": 216.73255813949834,
          "velocity": 0.5511811023622047,
          "duration": 0.034883720930224626
        },
        {
          "name": "G#3",
          "midi": 56,
          "time": 216.73255813949834,
          "velocity": 0.3464566929133858,
          "duration": 0.034883720930224626
        },
        {
          "name": "E4",
          "midi": 64,
          "time": 216.73255813949834,
          "velocity": 0.2047244094488189,
          "duration": 0.04651162790696617
        },
        {
          "name": "E5",
          "midi": 76,
          "time": 216.74418604647508,
          "velocity": 0.23622047244094488,
          "duration": 0.15116279069764005
        },
        {
          "name": "G3",
          "midi": 55,
          "time": 216.76744186042856,
          "velocity": 0.3779527559055118,
          "duration": 0.034883720930224626
        },
        {
          "name": "C4",
          "midi": 60,
          "time": 216.76744186042856,
          "velocity": 0.4015748031496063,
          "duration": 0.11627906976741542
        },
        {
          "name": "F7",
          "midi": 101,
          "time": 216.76744186042856,
          "velocity": 0.12598425196850394,
          "duration": 0.05813953488370771
        },
        {
          "name": "G7",
          "midi": 103,
          "time": 216.76744186042856,
          "velocity": 0.12598425196850394,
          "duration": 0.034883720930224626
        },
        {
          "name": "G#3",
          "midi": 56,
          "time": 216.8023255813588,
          "velocity": 0.3543307086614173,
          "duration": 0.04651162790696617
        },
        {
          "name": "C3",
          "midi": 48,
          "time": 216.82558139531227,
          "velocity": 0.4881889763779528,
          "duration": 0.023255813953483084
        },
        {
          "name": "E4",
          "midi": 64,
          "time": 216.837209302289,
          "velocity": 0.4330708661417323,
          "duration": 0.10465116279067388
        },
        {
          "name": "G3",
          "midi": 55,
          "time": 216.84883720926575,
          "velocity": 0.36220472440944884,
          "duration": 0.023255813953483084
        },
        {
          "name": "A#4",
          "midi": 70,
          "time": 216.84883720926575,
          "velocity": 0.30708661417322836,
          "duration": 0.1627906976743816
        },
        {
          "name": "F#6",
          "midi": 90,
          "time": 216.84883720926575,
          "velocity": 0.2204724409448819,
          "duration": 0.11627906976741542
        },
        {
          "name": "G#3",
          "midi": 56,
          "time": 216.87209302321924,
          "velocity": 0.3228346456692913,
          "duration": 0.023255813953483084
        },
        {
          "name": "E2",
          "midi": 40,
          "time": 216.88372093019598,
          "velocity": 0.4094488188976378,
          "duration": 0.023255813953483084
        },
        {
          "name": "E6",
          "midi": 88,
          "time": 216.89534883717272,
          "velocity": 0.23622047244094488,
          "duration": 0.29069767441853855
        },
        {
          "name": "C6",
          "midi": 84,
          "time": 216.90697674414946,
          "velocity": 0.16535433070866143,
          "duration": 0.04651162790696617
        },
        {
          "name": "A6",
          "midi": 93,
          "time": 216.90697674414946,
          "velocity": 0.11811023622047244,
          "duration": 0.04651162790696617
        },
        {
          "name": "A#6",
          "midi": 94,
          "time": 216.90697674414946,
          "velocity": 0.1889763779527559,
          "duration": 0.05813953488370771
        },
        {
          "name": "E7",
          "midi": 100,
          "time": 216.90697674414946,
          "velocity": 0.25984251968503935,
          "duration": 0.3023255813952801
        },
        {
          "name": "F#5",
          "midi": 78,
          "time": 216.9186046511262,
          "velocity": 0.2047244094488189,
          "duration": 0.06976744186044925
        },
        {
          "name": "A5",
          "midi": 81,
          "time": 216.9186046511262,
          "velocity": 0.30708661417322836,
          "duration": 0.2558139534883139
        },
        {
          "name": "C#5",
          "midi": 73,
          "time": 216.93023255810294,
          "velocity": 0.30708661417322836,
          "duration": 0.04651162790696617
        },
        {
          "name": "D#7",
          "midi": 99,
          "time": 216.93023255810294,
          "velocity": 0.11811023622047244,
          "duration": 0.0813953488371908
        },
        {
          "name": "F#3",
          "midi": 54,
          "time": 216.94186046507969,
          "velocity": 0.3464566929133858,
          "duration": 0.023255813953483084
        },
        {
          "name": "D#6",
          "midi": 87,
          "time": 216.94186046507969,
          "velocity": 0.16535433070866143,
          "duration": 0.034883720930224626
        },
        {
          "name": "F7",
          "midi": 101,
          "time": 216.94186046507969,
          "velocity": 0.11023622047244094,
          "duration": 0.05813953488370771
        },
        {
          "name": "F4",
          "midi": 65,
          "time": 216.95348837205643,
          "velocity": 0.2677165354330709,
          "duration": 0.023255813953483084
        },
        {
          "name": "D5",
          "midi": 74,
          "time": 216.95348837205643,
          "velocity": 0.28346456692913385,
          "duration": 0.15116279069764005
        },
        {
          "name": "G7",
          "midi": 103,
          "time": 216.95348837205643,
          "velocity": 0.10236220472440945,
          "duration": 0.034883720930224626
        },
        {
          "name": "F2",
          "midi": 41,
          "time": 216.96511627903317,
          "velocity": 0.4881889763779528,
          "duration": 0.023255813953483084
        },
        {
          "name": "C3",
          "midi": 48,
          "time": 216.9767441860099,
          "velocity": 0.3858267716535433,
          "duration": 0.023255813953483084
        },
        {
          "name": "E4",
          "midi": 64,
          "time": 216.9767441860099,
          "velocity": 0.1968503937007874,
          "duration": 0.034883720930224626
        },
        {
          "name": "C5",
          "midi": 72,
          "time": 216.9767441860099,
          "velocity": 0.25196850393700787,
          "duration": 0.04651162790696617
        },
        {
          "name": "G3",
          "midi": 55,
          "time": 216.98837209298665,
          "velocity": 0.33858267716535434,
          "duration": 0.023255813953483084
        },
        {
          "name": "G4",
          "midi": 67,
          "time": 216.9999999999634,
          "velocity": 0.3700787401574803,
          "duration": 0.12790697674415696
        },
        {
          "name": "F#6",
          "midi": 90,
          "time": 216.9999999999634,
          "velocity": 0.1889763779527559,
          "duration": 0.24418604651157239
        },
        {
          "name": "C3",
          "midi": 48,
          "time": 217.01162790694013,
          "velocity": 0.31496062992125984,
          "duration": 0.023255813953483084
        },
        {
          "name": "F#3",
          "midi": 54,
          "time": 217.01162790694013,
          "velocity": 0.29133858267716534,
          "duration": 0.023255813953483084
        },
        {
          "name": "A#4",
          "midi": 70,
          "time": 217.02325581391688,
          "velocity": 0.1889763779527559,
          "duration": 0.04651162790696617
        },
        {
          "name": "D7",
          "midi": 98,
          "time": 217.02325581391688,
          "velocity": 0.10236220472440945,
          "duration": 0.034883720930224626
        },
        {
          "name": "G3",
          "midi": 55,
          "time": 217.03488372089362,
          "velocity": 0.3228346456692913,
          "duration": 0.09302325581393234
        },
        {
          "name": "C4",
          "midi": 60,
          "time": 217.03488372089362,
          "velocity": 0.2755905511811024,
          "duration": 0.023255813953483084
        },
        {
          "name": "D#7",
          "midi": 99,
          "time": 217.03488372089362,
          "velocity": 0.2204724409448819,
          "duration": 0.18604651162786467
        },
        {
          "name": "E4",
          "midi": 64,
          "time": 217.04651162787036,
          "velocity": 0.2283464566929134,
          "duration": 0.06976744186044925
        },
        {
          "name": "C#7",
          "midi": 97,
          "time": 217.04651162787036,
          "velocity": 0.12598425196850394,
          "duration": 0.034883720930224626
        },
        {
          "name": "C4",
          "midi": 60,
          "time": 217.06976744182384,
          "velocity": 0.25984251968503935,
          "duration": 0.023255813953483084
        },
        {
          "name": "C#5",
          "midi": 73,
          "time": 217.09302325577733,
          "velocity": 0.13385826771653545,
          "duration": 0.034883720930224626
        },
        {
          "name": "C4",
          "midi": 60,
          "time": 217.10465116275407,
          "velocity": 0.29133858267716534,
          "duration": 0.05813953488370771
        },
        {
          "name": "C#7",
          "midi": 97,
          "time": 217.10465116275407,
          "velocity": 0.10236220472440945,
          "duration": 0.034883720930224626
        },
        {
          "name": "F4",
          "midi": 65,
          "time": 217.1162790697308,
          "velocity": 0.28346456692913385,
          "duration": 0.023255813953483084
        },
        {
          "name": "D#5",
          "midi": 75,
          "time": 217.1162790697308,
          "velocity": 0.1889763779527559,
          "duration": 0.034883720930224626
        },
        {
          "name": "G#2",
          "midi": 44,
          "time": 217.12790697670755,
          "velocity": 0.49606299212598426,
          "duration": 0.023255813953483084
        },
        {
          "name": "D3",
          "midi": 50,
          "time": 217.1395348836843,
          "velocity": 0.3858267716535433,
          "duration": 0.023255813953483084
        },
        {
          "name": "D7",
          "midi": 98,
          "time": 217.1395348836843,
          "velocity": 0.1732283464566929,
          "duration": 0.05813953488370771
        },
        {
          "name": "G4",
          "midi": 67,
          "time": 217.15116279066103,
          "velocity": 0.28346456692913385,
          "duration": 0.19767441860460622
        },
        {
          "name": "D5",
          "midi": 74,
          "time": 217.15116279066103,
          "velocity": 0.1889763779527559,
          "duration": 0.04651162790696617
        },
        {
          "name": "E5",
          "midi": 76,
          "time": 217.15116279066103,
          "velocity": 0.2992125984251969,
          "duration": 0.2209302325580893
        },
        {
          "name": "G7",
          "midi": 103,
          "time": 217.15116279066103,
          "velocity": 0.07086614173228346,
          "duration": 0.05813953488370771
        },
        {
          "name": "C3",
          "midi": 48,
          "time": 217.16279069763777,
          "velocity": 0.4094488188976378,
          "duration": 0.034883720930224626
        },
        {
          "name": "C#7",
          "midi": 97,
          "time": 217.16279069763777,
          "velocity": 0.2283464566929134,
          "duration": 0.2558139534883139
        },
        {
          "name": "A#4",
          "midi": 70,
          "time": 217.17441860461452,
          "velocity": 0.1968503937007874,
          "duration": 0.1395348837208985
        },
        {
          "name": "C6",
          "midi": 84,
          "time": 217.17441860461452,
          "velocity": 0.10236220472440945,
          "duration": 0.04651162790696617
        },
        {
          "name": "D#6",
          "midi": 87,
          "time": 217.17441860461452,
          "velocity": 0.11811023622047244,
          "duration": 0.034883720930224626
        },
        {
          "name": "G3",
          "midi": 55,
          "time": 217.18604651159126,
          "velocity": 0.3700787401574803,
          "duration": 0.0813953488371908
        },
        {
          "name": "B5",
          "midi": 83,
          "time": 217.18604651159126,
          "velocity": 0.23622047244094488,
          "duration": 0.09302325581393234
        },
        {
          "name": "A5",
          "midi": 81,
          "time": 217.197674418568,
          "velocity": 0.07086614173228346,
          "duration": 0.05813953488370771
        },
        {
          "name": "E4",
          "midi": 64,
          "time": 217.20930232554474,
          "velocity": 0.2755905511811024,
          "duration": 0.12790697674415696
        },
        {
          "name": "D5",
          "midi": 74,
          "time": 217.20930232554474,
          "velocity": 0.4566929133858268,
          "duration": 0.5930232558138187
        },
        {
          "name": "C#3",
          "midi": 49,
          "time": 217.22093023252148,
          "velocity": 0.3779527559055118,
          "duration": 0.023255813953483084
        },
        {
          "name": "D#7",
          "midi": 99,
          "time": 217.23255813949822,
          "velocity": 0.2204724409448819,
          "duration": 0.1627906976743816
        },
        {
          "name": "F7",
          "midi": 101,
          "time": 217.23255813949822,
          "velocity": 0.12598425196850394,
          "duration": 0.05813953488370771
        },
        {
          "name": "C3",
          "midi": 48,
          "time": 217.24418604647497,
          "velocity": 0.3779527559055118,
          "duration": 0.023255813953483084
        },
        {
          "name": "D7",
          "midi": 98,
          "time": 217.2558139534517,
          "velocity": 0.1889763779527559,
          "duration": 0.034883720930224626
        },
        {
          "name": "C#3",
          "midi": 49,
          "time": 217.26744186042845,
          "velocity": 0.33858267716535434,
          "duration": 0.023255813953483084
        },
        {
          "name": "F#3",
          "midi": 54,
          "time": 217.26744186042845,
          "velocity": 0.25984251968503935,
          "duration": 0.04651162790696617
        },
        {
          "name": "C7",
          "midi": 96,
          "time": 217.26744186042845,
          "velocity": 0.14173228346456693,
          "duration": 0.12790697674415696
        },
        {
          "name": "F#7",
          "midi": 102,
          "time": 217.26744186042845,
          "velocity": 0.1732283464566929,
          "duration": 0.12790697674415696
        },
        {
          "name": "C4",
          "midi": 60,
          "time": 217.2790697674052,
          "velocity": 0.30708661417322836,
          "duration": 0.05813953488370771
        },
        {
          "name": "C3",
          "midi": 48,
          "time": 217.29069767438193,
          "velocity": 0.4251968503937008,
          "duration": 0.034883720930224626
        },
        {
          "name": "B5",
          "midi": 83,
          "time": 217.29069767438193,
          "velocity": 0.2755905511811024,
          "duration": 0.1395348837208985
        },
        {
          "name": "F#6",
          "midi": 90,
          "time": 217.30232558135867,
          "velocity": 0.15748031496062992,
          "duration": 0.05813953488370771
        },
        {
          "name": "D7",
          "midi": 98,
          "time": 217.31395348833541,
          "velocity": 0.15748031496062992,
          "duration": 0.09302325581393234
        },
        {
          "name": "A4",
          "midi": 69,
          "time": 217.32558139531216,
          "velocity": 0.2755905511811024,
          "duration": 0.034883720930224626
        },
        {
          "name": "E2",
          "midi": 40,
          "time": 217.3372093022889,
          "velocity": 0.5590551181102362,
          "duration": 0.011627906976741542
        },
        {
          "name": "C3",
          "midi": 48,
          "time": 217.3372093022889,
          "velocity": 0.5511811023622047,
          "duration": 0.023255813953483084
        },
        {
          "name": "A#3",
          "midi": 58,
          "time": 217.3372093022889,
          "velocity": 0.3858267716535433,
          "duration": 0.023255813953483084
        },
        {
          "name": "G#5",
          "midi": 80,
          "time": 217.3372093022889,
          "velocity": 0.1968503937007874,
          "duration": 0.034883720930224626
        },
        {
          "name": "A5",
          "midi": 81,
          "time": 217.3372093022889,
          "velocity": 0.4015748031496063,
          "duration": 0.686046511627751
        },
        {
          "name": "C#6",
          "midi": 85,
          "time": 217.3372093022889,
          "velocity": 0.29133858267716534,
          "duration": 0.023255813953483084
        },
        {
          "name": "D#6",
          "midi": 87,
          "time": 217.3372093022889,
          "velocity": 0.1732283464566929,
          "duration": 0.1395348837208985
        },
        {
          "name": "A6",
          "midi": 93,
          "time": 217.3372093022889,
          "velocity": 0.49606299212598426,
          "duration": 0.9302325581393234
        },
        {
          "name": "F7",
          "midi": 101,
          "time": 217.3372093022889,
          "velocity": 0.12598425196850394,
          "duration": 0.06976744186044925
        },
        {
          "name": "F2",
          "midi": 41,
          "time": 217.34883720926564,
          "velocity": 0.5039370078740157,
          "duration": 0.023255813953483084
        },
        {
          "name": "D4",
          "midi": 62,
          "time": 217.34883720926564,
          "velocity": 0.4330708661417323,
          "duration": 0.023255813953483084
        },
        {
          "name": "E7",
          "midi": 100,
          "time": 217.34883720926564,
          "velocity": 0.3464566929133858,
          "duration": 0.6511627906975264
        },
        {
          "name": "D3",
          "midi": 50,
          "time": 217.36046511624238,
          "velocity": 0.6220472440944882,
          "duration": 0.18604651162786467
        },
        {
          "name": "A3",
          "midi": 57,
          "time": 217.36046511624238,
          "velocity": 0.47244094488188976,
          "duration": 0.05813953488370771
        },
        {
          "name": "A#4",
          "midi": 70,
          "time": 217.36046511624238,
          "velocity": 0.2283464566929134,
          "duration": 0.023255813953483084
        },
        {
          "name": "C6",
          "midi": 84,
          "time": 217.36046511624238,
          "velocity": 0.14173228346456693,
          "duration": 0.09302325581393234
        },
        {
          "name": "G4",
          "midi": 67,
          "time": 217.37209302321912,
          "velocity": 0.23622047244094488,
          "duration": 0.05813953488370771
        },
        {
          "name": "G6",
          "midi": 91,
          "time": 217.37209302321912,
          "velocity": 0.15748031496062992,
          "duration": 0.034883720930224626
        },
        {
          "name": "F2",
          "midi": 41,
          "time": 217.38372093019586,
          "velocity": 0.48031496062992124,
          "duration": 0.023255813953483084
        },
        {
          "name": "C5",
          "midi": 72,
          "time": 217.40697674414935,
          "velocity": 0.16535433070866143,
          "duration": 0.10465116279067388
        },
        {
          "name": "G#6",
          "midi": 92,
          "time": 217.40697674414935,
          "velocity": 0.1732283464566929,
          "duration": 0.0813953488371908
        },
        {
          "name": "F#5",
          "midi": 78,
          "time": 217.43023255810283,
          "velocity": 0.07086614173228346,
          "duration": 0.05813953488370771
        },
        {
          "name": "G#4",
          "midi": 68,
          "time": 217.44186046507957,
          "velocity": 0.11023622047244094,
          "duration": 0.034883720930224626
        },
        {
          "name": "A2",
          "midi": 45,
          "time": 217.4534883720563,
          "velocity": 0.5433070866141733,
          "duration": 0.011627906976741542
        },
        {
          "name": "E5",
          "midi": 76,
          "time": 217.46511627903305,
          "velocity": 0.13385826771653545,
          "duration": 0.0813953488371908
        },
        {
          "name": "A2",
          "midi": 45,
          "time": 217.4767441860098,
          "velocity": 0.5511811023622047,
          "duration": 0.023255813953483084
        },
        {
          "name": "A4",
          "midi": 69,
          "time": 217.4767441860098,
          "velocity": 0.23622047244094488,
          "duration": 0.06976744186044925
        },
        {
          "name": "E6",
          "midi": 88,
          "time": 217.4767441860098,
          "velocity": 0.25984251968503935,
          "duration": 0.15116279069764005
        },
        {
          "name": "C#7",
          "midi": 97,
          "time": 217.4767441860098,
          "velocity": 0.16535433070866143,
          "duration": 0.24418604651157239
        },
        {
          "name": "A3",
          "midi": 57,
          "time": 217.52325581391676,
          "velocity": 0.28346456692913385,
          "duration": 0.034883720930224626
        },
        {
          "name": "F#6",
          "midi": 90,
          "time": 217.5348837208935,
          "velocity": 0.09448818897637795,
          "duration": 0.034883720930224626
        },
        {
          "name": "D#2",
          "midi": 39,
          "time": 217.54651162787025,
          "velocity": 0.5196850393700787,
          "duration": 0.011627906976741542
        },
        {
          "name": "F#4",
          "midi": 66,
          "time": 217.54651162787025,
          "velocity": 0.30708661417322836,
          "duration": 0.20930232558134776
        },
        {
          "name": "C5",
          "midi": 72,
          "time": 217.54651162787025,
          "velocity": 0.16535433070866143,
          "duration": 0.034883720930224626
        },
        {
          "name": "D#7",
          "midi": 99,
          "time": 217.54651162787025,
          "velocity": 0.1732283464566929,
          "duration": 0.04651162790696617
        },
        {
          "name": "A#3",
          "midi": 58,
          "time": 217.558139534847,
          "velocity": 0.4015748031496063,
          "duration": 0.023255813953483084
        },
        {
          "name": "E5",
          "midi": 76,
          "time": 217.558139534847,
          "velocity": 0.3228346456692913,
          "duration": 0.0813953488371908
        },
        {
          "name": "F2",
          "midi": 41,
          "time": 217.56976744182373,
          "velocity": 0.5039370078740157,
          "duration": 0.05813953488370771
        },
        {
          "name": "D3",
          "midi": 50,
          "time": 217.56976744182373,
          "velocity": 0.5590551181102362,
          "duration": 0.05813953488370771
        },
        {
          "name": "A3",
          "midi": 57,
          "time": 217.58139534880047,
          "velocity": 0.44881889763779526,
          "duration": 0.034883720930224626
        },
        {
          "name": "C7",
          "midi": 96,
          "time": 217.58139534880047,
          "velocity": 0.11023622047244094,
          "duration": 0.034883720930224626
        },
        {
          "name": "C#3",
          "midi": 49,
          "time": 217.62790697670744,
          "velocity": 0.6141732283464567,
          "duration": 0.011627906976741542
        },
        {
          "name": "D3",
          "midi": 50,
          "time": 217.63953488368418,
          "velocity": 0.6220472440944882,
          "duration": 0.04651162790696617
        },
        {
          "name": "A2",
          "midi": 45,
          "time": 217.66279069763766,
          "velocity": 0.5748031496062992,
          "duration": 0.023255813953483084
        },
        {
          "name": "E6",
          "midi": 88,
          "time": 217.66279069763766,
          "velocity": 0.1968503937007874,
          "duration": 0.2558139534883139
        },
        {
          "name": "D#7",
          "midi": 99,
          "time": 217.6744186046144,
          "velocity": 0.09448818897637795,
          "duration": 0.034883720930224626
        },
        {
          "name": "C3",
          "midi": 48,
          "time": 217.68604651159114,
          "velocity": 0.6062992125984252,
          "duration": 0.011627906976741542
        },
        {
          "name": "A2",
          "midi": 45,
          "time": 217.69767441856789,
          "velocity": 0.5669291338582677,
          "duration": 0.011627906976741542
        },
        {
          "name": "D3",
          "midi": 50,
          "time": 217.69767441856789,
          "velocity": 0.5590551181102362,
          "duration": 0.011627906976741542
        },
        {
          "name": "C3",
          "midi": 48,
          "time": 217.70930232554463,
          "velocity": 0.5826771653543307,
          "duration": 0.011627906976741542
        },
        {
          "name": "A2",
          "midi": 45,
          "time": 217.72093023252137,
          "velocity": 0.5511811023622047,
          "duration": 0.011627906976741542
        },
        {
          "name": "G#2",
          "midi": 44,
          "time": 217.7325581394981,
          "velocity": 0.5275590551181102,
          "duration": 0.011627906976741542
        },
        {
          "name": "B6",
          "midi": 95,
          "time": 217.74418604647485,
          "velocity": 0.14173228346456693,
          "duration": 0.12790697674415696
        },
        {
          "name": "E5",
          "midi": 76,
          "time": 217.7558139534516,
          "velocity": 0.25984251968503935,
          "duration": 0.05813953488370771
        },
        {
          "name": "G5",
          "midi": 79,
          "time": 217.7558139534516,
          "velocity": 0.25984251968503935,
          "duration": 0.023255813953483084
        },
        {
          "name": "C#7",
          "midi": 97,
          "time": 217.7558139534516,
          "velocity": 0.3700787401574803,
          "duration": 1.3604651162787604
        },
        {
          "name": "E2",
          "midi": 40,
          "time": 217.76744186042833,
          "velocity": 0.30708661417322836,
          "duration": 0.023255813953483084
        },
        {
          "name": "D3",
          "midi": 50,
          "time": 217.76744186042833,
          "velocity": 0.48031496062992124,
          "duration": 0.023255813953483084
        },
        {
          "name": "F#4",
          "midi": 66,
          "time": 217.76744186042833,
          "velocity": 0.3543307086614173,
          "duration": 0.023255813953483084
        },
        {
          "name": "F#6",
          "midi": 90,
          "time": 217.76744186042833,
          "velocity": 0.15748031496062992,
          "duration": 0.11627906976741542
        },
        {
          "name": "D7",
          "midi": 98,
          "time": 217.76744186042833,
          "velocity": 0.23622047244094488,
          "duration": 0.04651162790696617
        },
        {
          "name": "D#7",
          "midi": 99,
          "time": 217.76744186042833,
          "velocity": 0.13385826771653545,
          "duration": 0.034883720930224626
        },
        {
          "name": "F7",
          "midi": 101,
          "time": 217.76744186042833,
          "velocity": 0.12598425196850394,
          "duration": 0.06976744186044925
        },
        {
          "name": "G4",
          "midi": 67,
          "time": 217.79069767438182,
          "velocity": 0.23622047244094488,
          "duration": 0.023255813953483084
        },
        {
          "name": "A4",
          "midi": 69,
          "time": 217.79069767438182,
          "velocity": 0.30708661417322836,
          "duration": 0.034883720930224626
        },
        {
          "name": "C5",
          "midi": 72,
          "time": 217.79069767438182,
          "velocity": 0.23622047244094488,
          "duration": 0.06976744186044925
        },
        {
          "name": "F#2",
          "midi": 42,
          "time": 217.80232558135856,
          "velocity": 0.5196850393700787,
          "duration": 0.011627906976741542
        },
        {
          "name": "B3",
          "midi": 59,
          "time": 217.80232558135856,
          "velocity": 0.25984251968503935,
          "duration": 0.023255813953483084
        },
        {
          "name": "D4",
          "midi": 62,
          "time": 217.80232558135856,
          "velocity": 0.31496062992125984,
          "duration": 0.04651162790696617
        },
        {
          "name": "D3",
          "midi": 50,
          "time": 217.82558139531204,
          "velocity": 0.44881889763779526,
          "duration": 0.034883720930224626
        },
        {
          "name": "G4",
          "midi": 67,
          "time": 217.82558139531204,
          "velocity": 0.28346456692913385,
          "duration": 0.023255813953483084
        },
        {
          "name": "D#7",
          "midi": 99,
          "time": 217.82558139531204,
          "velocity": 0.14173228346456693,
          "duration": 0.12790697674415696
        },
        {
          "name": "G#6",
          "midi": 92,
          "time": 217.83720930228878,
          "velocity": 0.10236220472440945,
          "duration": 0.06976744186044925
        },
        {
          "name": "C7",
          "midi": 96,
          "time": 217.83720930228878,
          "velocity": 0.14173228346456693,
          "duration": 0.04651162790696617
        },
        {
          "name": "F#4",
          "midi": 66,
          "time": 217.84883720926553,
          "velocity": 0.28346456692913385,
          "duration": 0.023255813953483084
        },
        {
          "name": "A4",
          "midi": 69,
          "time": 217.84883720926553,
          "velocity": 0.1968503937007874,
          "duration": 0.04651162790696617
        },
        {
          "name": "D#6",
          "midi": 87,
          "time": 217.84883720926553,
          "velocity": 0.10236220472440945,
          "duration": 0.04651162790696617
        },
        {
          "name": "D2",
          "midi": 38,
          "time": 217.86046511624227,
          "velocity": 0.3543307086614173,
          "duration": 0.023255813953483084
        },
        {
          "name": "D#3",
          "midi": 51,
          "time": 217.86046511624227,
          "velocity": 0.4015748031496063,
          "duration": 0.023255813953483084
        },
        {
          "name": "A3",
          "midi": 57,
          "time": 217.86046511624227,
          "velocity": 0.3464566929133858,
          "duration": 0.023255813953483084
        },
        {
          "name": "G7",
          "midi": 103,
          "time": 217.86046511624227,
          "velocity": 0.15748031496062992,
          "duration": 0.12790697674415696
        },
        {
          "name": "D3",
          "midi": 50,
          "time": 217.88372093019575,
          "velocity": 0.4409448818897638,
          "duration": 0.05813953488370771
        },
        {
          "name": "C5",
          "midi": 72,
          "time": 217.88372093019575,
          "velocity": 0.10236220472440945,
          "duration": 0.05813953488370771
        },
        {
          "name": "E5",
          "midi": 76,
          "time": 217.88372093019575,
          "velocity": 0.08661417322834646,
          "duration": 0.034883720930224626
        },
        {
          "name": "F#5",
          "midi": 78,
          "time": 217.88372093019575,
          "velocity": 0.11811023622047244,
          "duration": 0.06976744186044925
        },
        {
          "name": "G4",
          "midi": 67,
          "time": 217.8953488371725,
          "velocity": 0.2992125984251969,
          "duration": 0.023255813953483084
        },
        {
          "name": "D7",
          "midi": 98,
          "time": 217.8953488371725,
          "velocity": 0.14960629921259844,
          "duration": 0.04651162790696617
        },
        {
          "name": "F2",
          "midi": 41,
          "time": 217.90697674414923,
          "velocity": 0.4094488188976378,
          "duration": 0.023255813953483084
        },
        {
          "name": "A#3",
          "midi": 58,
          "time": 217.91860465112597,
          "velocity": 0.30708661417322836,
          "duration": 0.034883720930224626
        },
        {
          "name": "F#4",
          "midi": 66,
          "time": 217.91860465112597,
          "velocity": 0.28346456692913385,
          "duration": 0.06976744186044925
        },
        {
          "name": "A4",
          "midi": 69,
          "time": 217.91860465112597,
          "velocity": 0.2204724409448819,
          "duration": 0.05813953488370771
        },
        {
          "name": "D#2",
          "midi": 39,
          "time": 217.93023255810272,
          "velocity": 0.4330708661417323,
          "duration": 0.023255813953483084
        },
        {
          "name": "F#7",
          "midi": 102,
          "time": 217.94186046507946,
          "velocity": 0.2677165354330709,
          "duration": 0.7093023255812341
        },
        {
          "name": "D3",
          "midi": 50,
          "time": 217.9534883720562,
          "velocity": 0.4409448818897638,
          "duration": 0.023255813953483084
        },
        {
          "name": "A3",
          "midi": 57,
          "time": 217.9534883720562,
          "velocity": 0.2992125984251969,
          "duration": 0.034883720930224626
        },
        {
          "name": "F#6",
          "midi": 90,
          "time": 217.96511627903294,
          "velocity": 0.4409448818897638,
          "duration": 0.8023255813951664
        },
        {
          "name": "D7",
          "midi": 98,
          "time": 217.96511627903294,
          "velocity": 0.11811023622047244,
          "duration": 0.06976744186044925
        },
        {
          "name": "D#7",
          "midi": 99,
          "time": 217.96511627903294,
          "velocity": 0.14960629921259844,
          "duration": 0.05813953488370771
        },
        {
          "name": "D#3",
          "midi": 51,
          "time": 217.97674418600968,
          "velocity": 0.4881889763779528,
          "duration": 0.034883720930224626
        },
        {
          "name": "E5",
          "midi": 76,
          "time": 217.97674418600968,
          "velocity": 0.33070866141732286,
          "duration": 0.18604651162786467
        },
        {
          "name": "F#5",
          "midi": 78,
          "time": 217.97674418600968,
          "velocity": 0.5354330708661418,
          "duration": 0.6744186046510094
        },
        {
          "name": "C7",
          "midi": 96,
          "time": 217.98837209298642,
          "velocity": 0.11811023622047244,
          "duration": 0.06976744186044925
        },
        {
          "name": "E2",
          "midi": 40,
          "time": 217.99999999996317,
          "velocity": 0.44881889763779526,
          "duration": 0.023255813953483084
        },
        {
          "name": "F#4",
          "midi": 66,
          "time": 217.99999999996317,
          "velocity": 0.25196850393700787,
          "duration": 0.09302325581393234
        },
        {
          "name": "A4",
          "midi": 69,
          "time": 217.99999999996317,
          "velocity": 0.25196850393700787,
          "duration": 0.0813953488371908
        },
        {
          "name": "G7",
          "midi": 103,
          "time": 217.99999999996317,
          "velocity": 0.14960629921259844,
          "duration": 0.05813953488370771
        },
        {
          "name": "D3",
          "midi": 50,
          "time": 218.0116279069399,
          "velocity": 0.6220472440944882,
          "duration": 0.17441860465112313
        },
        {
          "name": "A3",
          "midi": 57,
          "time": 218.0116279069399,
          "velocity": 0.36220472440944884,
          "duration": 0.023255813953483084
        },
        {
          "name": "A#6",
          "midi": 94,
          "time": 218.0116279069399,
          "velocity": 0.11023622047244094,
          "duration": 0.034883720930224626
        },
        {
          "name": "E7",
          "midi": 100,
          "time": 218.0116279069399,
          "velocity": 0.2440944881889764,
          "duration": 0.17441860465112313
        },
        {
          "name": "F2",
          "midi": 41,
          "time": 218.02325581391665,
          "velocity": 0.5275590551181102,
          "duration": 0.034883720930224626
        },
        {
          "name": "B5",
          "midi": 83,
          "time": 218.02325581391665,
          "velocity": 0.09448818897637795,
          "duration": 0.0813953488371908
        },
        {
          "name": "A#3",
          "midi": 58,
          "time": 218.0348837208934,
          "velocity": 0.4015748031496063,
          "duration": 0.034883720930224626
        },
        {
          "name": "D5",
          "midi": 74,
          "time": 218.0348837208934,
          "velocity": 0.41732283464566927,
          "duration": 0.7093023255812341
        },
        {
          "name": "C5",
          "midi": 72,
          "time": 218.06976744182361,
          "velocity": 0.09448818897637795,
          "duration": 0.034883720930224626
        },
        {
          "name": "A4",
          "midi": 69,
          "time": 218.0930232557771,
          "velocity": 0.15748031496062992,
          "duration": 0.05813953488370771
        },
        {
          "name": "F#4",
          "midi": 66,
          "time": 218.1744186046143,
          "velocity": 0.2283464566929134,
          "duration": 0.15116279069764005
        },
        {
          "name": "A5",
          "midi": 81,
          "time": 218.1744186046143,
          "velocity": 0.30708661417322836,
          "duration": 0.2209302325580893
        },
        {
          "name": "D#3",
          "midi": 51,
          "time": 218.18604651159103,
          "velocity": 0.44881889763779526,
          "duration": 0.034883720930224626
        },
        {
          "name": "A#3",
          "midi": 58,
          "time": 218.19767441856777,
          "velocity": 0.36220472440944884,
          "duration": 0.023255813953483084
        },
        {
          "name": "D7",
          "midi": 98,
          "time": 218.19767441856777,
          "velocity": 0.14173228346456693,
          "duration": 0.04651162790696617
        },
        {
          "name": "D#7",
          "midi": 99,
          "time": 218.19767441856777,
          "velocity": 0.11811023622047244,
          "duration": 0.05813953488370771
        },
        {
          "name": "E7",
          "midi": 100,
          "time": 218.19767441856777,
          "velocity": 0.13385826771653545,
          "duration": 0.034883720930224626
        },
        {
          "name": "D4",
          "midi": 62,
          "time": 218.2093023255445,
          "velocity": 0.4566929133858268,
          "duration": 0.3255813953487632
        },
        {
          "name": "D3",
          "midi": 50,
          "time": 218.22093023252125,
          "velocity": 0.6456692913385826,
          "duration": 0.10465116279067388
        },
        {
          "name": "A3",
          "midi": 57,
          "time": 218.22093023252125,
          "velocity": 0.44881889763779526,
          "duration": 0.06976744186044925
        },
        {
          "name": "E6",
          "midi": 88,
          "time": 218.232558139498,
          "velocity": 0.2047244094488189,
          "duration": 0.31395348837202164
        },
        {
          "name": "C7",
          "midi": 96,
          "time": 218.232558139498,
          "velocity": 0.11023622047244094,
          "duration": 0.034883720930224626
        },
        {
          "name": "F2",
          "midi": 41,
          "time": 218.24418604647474,
          "velocity": 0.5196850393700787,
          "duration": 0.023255813953483084
        },
        {
          "name": "A2",
          "midi": 45,
          "time": 218.3139534883352,
          "velocity": 0.5511811023622047,
          "duration": 0.011627906976741542
        },
        {
          "name": "C#3",
          "midi": 49,
          "time": 218.32558139531193,
          "velocity": 0.6220472440944882,
          "duration": 0.011627906976741542
        },
        {
          "name": "A2",
          "midi": 45,
          "time": 218.33720930228867,
          "velocity": 0.6220472440944882,
          "duration": 0.06976744186044925
        },
        {
          "name": "D3",
          "midi": 50,
          "time": 218.33720930228867,
          "velocity": 0.5669291338582677,
          "duration": 0.011627906976741542
        },
        {
          "name": "A4",
          "midi": 69,
          "time": 218.33720930228867,
          "velocity": 0.2047244094488189,
          "duration": 0.06976744186044925
        },
        {
          "name": "F2",
          "midi": 41,
          "time": 218.40697674414912,
          "velocity": 0.5984251968503937,
          "duration": 0.011627906976741542
        },
        {
          "name": "A#4",
          "midi": 70,
          "time": 218.40697674414912,
          "velocity": 0.25984251968503935,
          "duration": 0.04651162790696617
        },
        {
          "name": "C#6",
          "midi": 85,
          "time": 218.40697674414912,
          "velocity": 0.11023622047244094,
          "duration": 0.04651162790696617
        },
        {
          "name": "G#2",
          "midi": 44,
          "time": 218.41860465112586,
          "velocity": 0.6062992125984252,
          "duration": 0.011627906976741542
        },
        {
          "name": "A5",
          "midi": 81,
          "time": 218.41860465112586,
          "velocity": 0.28346456692913385,
          "duration": 0.1395348837208985
        },
        {
          "name": "D7",
          "midi": 98,
          "time": 218.41860465112586,
          "velocity": 0.2283464566929134,
          "duration": 0.09302325581393234
        },
        {
          "name": "G2",
          "midi": 43,
          "time": 218.4302325581026,
          "velocity": 0.5118110236220472,
          "duration": 0.011627906976741542
        },
        {
          "name": "F#4",
          "midi": 66,
          "time": 218.4302325581026,
          "velocity": 0.2992125984251969,
          "duration": 0.17441860465112313
        },
        {
          "name": "D#7",
          "midi": 99,
          "time": 218.4302325581026,
          "velocity": 0.14173228346456693,
          "duration": 0.17441860465112313
        },
        {
          "name": "D3",
          "midi": 50,
          "time": 218.44186046507934,
          "velocity": 0.4566929133858268,
          "duration": 0.0813953488371908
        },
        {
          "name": "A3",
          "midi": 57,
          "time": 218.45348837205609,
          "velocity": 0.3464566929133858,
          "duration": 0.1627906976743816
        },
        {
          "name": "A4",
          "midi": 69,
          "time": 218.45348837205609,
          "velocity": 0.3464566929133858,
          "duration": 0.1627906976743816
        },
        {
          "name": "E5",
          "midi": 76,
          "time": 218.45348837205609,
          "velocity": 0.2992125984251969,
          "duration": 0.11627906976741542
        },
        {
          "name": "G7",
          "midi": 103,
          "time": 218.45348837205609,
          "velocity": 0.07874015748031496,
          "duration": 0.09302325581393234
        },
        {
          "name": "E2",
          "midi": 40,
          "time": 218.46511627903283,
          "velocity": 0.48031496062992124,
          "duration": 0.023255813953483084
        },
        {
          "name": "C5",
          "midi": 72,
          "time": 218.4883720929863,
          "velocity": 0.11811023622047244,
          "duration": 0.04651162790696617
        },
        {
          "name": "B6",
          "midi": 95,
          "time": 218.4883720929863,
          "velocity": 0.08661417322834646,
          "duration": 0.034883720930224626
        },
        {
          "name": "C7",
          "midi": 96,
          "time": 218.4883720929863,
          "velocity": 0.07874015748031496,
          "duration": 0.034883720930224626
        },
        {
          "name": "D7",
          "midi": 98,
          "time": 218.52325581391653,
          "velocity": 0.2992125984251969,
          "duration": 0.6162790697673017
        },
        {
          "name": "D3",
          "midi": 50,
          "time": 218.53488372089328,
          "velocity": 0.44881889763779526,
          "duration": 0.04651162790696617
        },
        {
          "name": "F2",
          "midi": 41,
          "time": 218.54651162787002,
          "velocity": 0.4094488188976378,
          "duration": 0.023255813953483084
        },
        {
          "name": "A6",
          "midi": 93,
          "time": 218.55813953484676,
          "velocity": 0.2204724409448819,
          "duration": 0.2558139534883139
        },
        {
          "name": "D#2",
          "midi": 39,
          "time": 218.5697674418235,
          "velocity": 0.4566929133858268,
          "duration": 0.023255813953483084
        },
        {
          "name": "A5",
          "midi": 81,
          "time": 218.58139534880024,
          "velocity": 0.3700787401574803,
          "duration": 0.2558139534883139
        },
        {
          "name": "D3",
          "midi": 50,
          "time": 218.59302325577698,
          "velocity": 0.4566929133858268,
          "duration": 0.034883720930224626
        },
        {
          "name": "D#2",
          "midi": 39,
          "time": 218.60465116275373,
          "velocity": 0.4409448818897638,
          "duration": 0.023255813953483084
        },
        {
          "name": "E5",
          "midi": 76,
          "time": 218.60465116275373,
          "velocity": 0.2125984251968504,
          "duration": 0.034883720930224626
        },
        {
          "name": "C#6",
          "midi": 85,
          "time": 218.61627906973047,
          "velocity": 0.2677165354330709,
          "duration": 0.034883720930224626
        },
        {
          "name": "G#6",
          "midi": 92,
          "time": 218.61627906973047,
          "velocity": 0.14960629921259844,
          "duration": 0.034883720930224626
        },
        {
          "name": "C7",
          "midi": 96,
          "time": 218.61627906973047,
          "velocity": 0.1889763779527559,
          "duration": 0.1627906976743816
        },
        {
          "name": "A#3",
          "midi": 58,
          "time": 218.6279069767072,
          "velocity": 0.4645669291338583,
          "duration": 0.034883720930224626
        },
        {
          "name": "G4",
          "midi": 67,
          "time": 218.6279069767072,
          "velocity": 0.4015748031496063,
          "duration": 0.023255813953483084
        },
        {
          "name": "G6",
          "midi": 91,
          "time": 218.6279069767072,
          "velocity": 0.44881889763779526,
          "duration": 0.558139534883594
        },
        {
          "name": "A4",
          "midi": 69,
          "time": 218.63953488368395,
          "velocity": 0.23622047244094488,
          "duration": 0.034883720930224626
        },
        {
          "name": "D#7",
          "midi": 99,
          "time": 218.63953488368395,
          "velocity": 0.09448818897637795,
          "duration": 0.05813953488370771
        },
        {
          "name": "F#4",
          "midi": 66,
          "time": 218.6511627906607,
          "velocity": 0.29133858267716534,
          "duration": 0.023255813953483084
        },
        {
          "name": "G5",
          "midi": 79,
          "time": 218.6511627906607,
          "velocity": 0.47244094488188976,
          "duration": 0.39534883720921243
        },
        {
          "name": "B6",
          "midi": 95,
          "time": 218.6511627906607,
          "velocity": 0.1732283464566929,
          "duration": 0.04651162790696617
        },
        {
          "name": "F2",
          "midi": 41,
          "time": 218.66279069763743,
          "velocity": 0.4881889763779528,
          "duration": 0.023255813953483084
        },
        {
          "name": "D#3",
          "midi": 51,
          "time": 218.66279069763743,
          "velocity": 0.4330708661417323,
          "duration": 0.034883720930224626
        },
        {
          "name": "B3",
          "midi": 59,
          "time": 218.66279069763743,
          "velocity": 0.28346456692913385,
          "duration": 0.023255813953483084
        },
        {
          "name": "D#6",
          "midi": 87,
          "time": 218.66279069763743,
          "velocity": 0.1732283464566929,
          "duration": 0.06976744186044925
        },
        {
          "name": "D4",
          "midi": 62,
          "time": 218.67441860461417,
          "velocity": 0.25984251968503935,
          "duration": 0.023255813953483084
        },
        {
          "name": "A#4",
          "midi": 70,
          "time": 218.67441860461417,
          "velocity": 0.2440944881889764,
          "duration": 0.023255813953483084
        },
        {
          "name": "F#5",
          "midi": 78,
          "time": 218.67441860461417,
          "velocity": 0.33070866141732286,
          "duration": 0.023255813953483084
        },
        {
          "name": "F7",
          "midi": 101,
          "time": 218.67441860461417,
          "velocity": 0.2204724409448819,
          "duration": 0.3023255813952801
        },
        {
          "name": "G4",
          "midi": 67,
          "time": 218.68604651159092,
          "velocity": 0.2992125984251969,
          "duration": 0.023255813953483084
        },
        {
          "name": "C6",
          "midi": 84,
          "time": 218.68604651159092,
          "velocity": 0.11811023622047244,
          "duration": 0.05813953488370771
        },
        {
          "name": "D3",
          "midi": 50,
          "time": 218.69767441856766,
          "velocity": 0.4645669291338583,
          "duration": 0.1395348837208985
        },
        {
          "name": "A4",
          "midi": 69,
          "time": 218.69767441856766,
          "velocity": 0.1889763779527559,
          "duration": 0.05813953488370771
        },
        {
          "name": "C5",
          "midi": 72,
          "time": 218.69767441856766,
          "velocity": 0.25196850393700787,
          "duration": 0.023255813953483084
        },
        {
          "name": "F#4",
          "midi": 66,
          "time": 218.7093023255444,
          "velocity": 0.33070866141732286,
          "duration": 0.034883720930224626
        },
        {
          "name": "A#3",
          "midi": 58,
          "time": 218.72093023252114,
          "velocity": 0.28346456692913385,
          "duration": 0.05813953488370771
        },
        {
          "name": "B6",
          "midi": 95,
          "time": 218.72093023252114,
          "velocity": 0.14960629921259844,
          "duration": 0.0813953488371908
        },
        {
          "name": "D#7",
          "midi": 99,
          "time": 218.72093023252114,
          "velocity": 0.1889763779527559,
          "duration": 0.2209302325580893
        },
        {
          "name": "C5",
          "midi": 72,
          "time": 218.74418604647462,
          "velocity": 0.2125984251968504,
          "duration": 0.034883720930224626
        },
        {
          "name": "E6",
          "midi": 88,
          "time": 218.74418604647462,
          "velocity": 0.16535433070866143,
          "duration": 0.06976744186044925
        },
        {
          "name": "A#3",
          "midi": 58,
          "time": 218.7906976743816,
          "velocity": 0.23622047244094488,
          "duration": 0.023255813953483084
        },
        {
          "name": "C7",
          "midi": 96,
          "time": 218.7906976743816,
          "velocity": 0.25984251968503935,
          "duration": 0.20930232558134776
        },
        {
          "name": "D5",
          "midi": 74,
          "time": 218.80232558135833,
          "velocity": 0.23622047244094488,
          "duration": 0.06976744186044925
        },
        {
          "name": "E5",
          "midi": 76,
          "time": 218.80232558135833,
          "velocity": 0.2755905511811024,
          "duration": 0.6744186046510094
        },
        {
          "name": "D2",
          "midi": 38,
          "time": 218.82558139531181,
          "velocity": 0.5196850393700787,
          "duration": 0.023255813953483084
        },
        {
          "name": "C4",
          "midi": 60,
          "time": 218.82558139531181,
          "velocity": 0.2125984251968504,
          "duration": 0.034883720930224626
        },
        {
          "name": "F#5",
          "midi": 78,
          "time": 218.82558139531181,
          "velocity": 0.25984251968503935,
          "duration": 0.10465116279067388
        },
        {
          "name": "B6",
          "midi": 95,
          "time": 218.82558139531181,
          "velocity": 0.08661417322834646,
          "duration": 0.04651162790696617
        },
        {
          "name": "F#4",
          "midi": 66,
          "time": 218.83720930228856,
          "velocity": 0.3700787401574803,
          "duration": 0.0813953488371908
        },
        {
          "name": "A#4",
          "midi": 70,
          "time": 218.83720930228856,
          "velocity": 0.2755905511811024,
          "duration": 0.023255813953483084
        },
        {
          "name": "A6",
          "midi": 93,
          "time": 218.83720930228856,
          "velocity": 0.09448818897637795,
          "duration": 0.05813953488370771
        },
        {
          "name": "A5",
          "midi": 81,
          "time": 218.8488372092653,
          "velocity": 0.4330708661417323,
          "duration": 0.9302325581393234
        },
        {
          "name": "B5",
          "midi": 83,
          "time": 218.8488372092653,
          "velocity": 0.11811023622047244,
          "duration": 0.04651162790696617
        },
        {
          "name": "B2",
          "midi": 47,
          "time": 218.86046511624204,
          "velocity": 0.4251968503937008,
          "duration": 0.023255813953483084
        },
        {
          "name": "A4",
          "midi": 69,
          "time": 218.86046511624204,
          "velocity": 0.2677165354330709,
          "duration": 0.10465116279067388
        },
        {
          "name": "D5",
          "midi": 74,
          "time": 218.88372093019552,
          "velocity": 0.16535433070866143,
          "duration": 0.04651162790696617
        },
        {
          "name": "F#6",
          "midi": 90,
          "time": 218.88372093019552,
          "velocity": 0.2677165354330709,
          "duration": 0.11627906976741542
        },
        {
          "name": "D#6",
          "midi": 87,
          "time": 218.89534883717226,
          "velocity": 0.08661417322834646,
          "duration": 0.034883720930224626
        },
        {
          "name": "D4",
          "midi": 62,
          "time": 218.906976744149,
          "velocity": 0.28346456692913385,
          "duration": 0.023255813953483084
        },
        {
          "name": "A3",
          "midi": 57,
          "time": 218.91860465112575,
          "velocity": 0.36220472440944884,
          "duration": 0.06976744186044925
        },
        {
          "name": "A6",
          "midi": 93,
          "time": 218.91860465112575,
          "velocity": 0.44881889763779526,
          "duration": 1.499999999999659
        },
        {
          "name": "B6",
          "midi": 95,
          "time": 218.91860465112575,
          "velocity": 0.15748031496062992,
          "duration": 0.04651162790696617
        },
        {
          "name": "F#4",
          "midi": 66,
          "time": 218.94186046507923,
          "velocity": 0.2677165354330709,
          "duration": 0.04651162790696617
        },
        {
          "name": "D5",
          "midi": 74,
          "time": 218.94186046507923,
          "velocity": 0.1968503937007874,
          "duration": 0.10465116279067388
        },
        {
          "name": "D#3",
          "midi": 51,
          "time": 218.9651162790327,
          "velocity": 0.47244094488188976,
          "duration": 0.023255813953483084
        },
        {
          "name": "E2",
          "midi": 40,
          "time": 218.97674418600946,
          "velocity": 0.44881889763779526,
          "duration": 0.023255813953483084
        },
        {
          "name": "D4",
          "midi": 62,
          "time": 218.97674418600946,
          "velocity": 0.2677165354330709,
          "duration": 0.0813953488371908
        },
        {
          "name": "D3",
          "midi": 50,
          "time": 218.9883720929862,
          "velocity": 0.48031496062992124,
          "duration": 0.05813953488370771
        },
        {
          "name": "G4",
          "midi": 67,
          "time": 218.9883720929862,
          "velocity": 0.30708661417322836,
          "duration": 0.023255813953483084
        },
        {
          "name": "D#7",
          "midi": 99,
          "time": 218.99999999996294,
          "velocity": 0.1968503937007874,
          "duration": 0.11627906976741542
        },
        {
          "name": "A#4",
          "midi": 70,
          "time": 219.01162790693968,
          "velocity": 0.25196850393700787,
          "duration": 0.04651162790696617
        },
        {
          "name": "F#6",
          "midi": 90,
          "time": 219.01162790693968,
          "velocity": 0.15748031496062992,
          "duration": 0.06976744186044925
        },
        {
          "name": "E2",
          "midi": 40,
          "time": 219.0465116278699,
          "velocity": 0.5433070866141733,
          "duration": 0.011627906976741542
        },
        {
          "name": "C5",
          "midi": 72,
          "time": 219.0465116278699,
          "velocity": 0.28346456692913385,
          "duration": 0.023255813953483084
        },
        {
          "name": "C#2",
          "midi": 37,
          "time": 219.05813953484665,
          "velocity": 0.5354330708661418,
          "duration": 0.011627906976741542
        },
        {
          "name": "G#2",
          "midi": 44,
          "time": 219.05813953484665,
          "velocity": 0.5669291338582677,
          "duration": 0.011627906976741542
        },
        {
          "name": "A4",
          "midi": 69,
          "time": 219.05813953484665,
          "velocity": 0.29133858267716534,
          "duration": 0.023255813953483084
        },
        {
          "name": "D5",
          "midi": 74,
          "time": 219.05813953484665,
          "velocity": 0.16535433070866143,
          "duration": 0.04651162790696617
        },
        {
          "name": "G5",
          "midi": 79,
          "time": 219.05813953484665,
          "velocity": 0.4251968503937008,
          "duration": 0.17441860465112313
        },
        {
          "name": "E7",
          "midi": 100,
          "time": 219.05813953484665,
          "velocity": 0.3543307086614173,
          "duration": 0.7441860465114587
        },
        {
          "name": "C3",
          "midi": 48,
          "time": 219.0697674418234,
          "velocity": 0.5748031496062992,
          "duration": 0.011627906976741542
        },
        {
          "name": "E4",
          "midi": 64,
          "time": 219.0697674418234,
          "velocity": 0.3858267716535433,
          "duration": 0.279069767441797
        },
        {
          "name": "B4",
          "midi": 71,
          "time": 219.0697674418234,
          "velocity": 0.31496062992125984,
          "duration": 0.15116279069764005
        },
        {
          "name": "B6",
          "midi": 95,
          "time": 219.0697674418234,
          "velocity": 0.15748031496062992,
          "duration": 0.05813953488370771
        },
        {
          "name": "C#2",
          "midi": 37,
          "time": 219.08139534880013,
          "velocity": 0.47244094488188976,
          "duration": 0.023255813953483084
        },
        {
          "name": "D3",
          "midi": 50,
          "time": 219.08139534880013,
          "velocity": 0.5118110236220472,
          "duration": 0.011627906976741542
        },
        {
          "name": "B3",
          "midi": 59,
          "time": 219.09302325577687,
          "velocity": 0.36220472440944884,
          "duration": 0.034883720930224626
        },
        {
          "name": "F2",
          "midi": 41,
          "time": 219.1046511627536,
          "velocity": 0.4881889763779528,
          "duration": 0.04651162790696617
        },
        {
          "name": "B2",
          "midi": 47,
          "time": 219.1046511627536,
          "velocity": 0.4645669291338583,
          "duration": 0.023255813953483084
        },
        {
          "name": "A4",
          "midi": 69,
          "time": 219.1046511627536,
          "velocity": 0.15748031496062992,
          "duration": 0.04651162790696617
        },
        {
          "name": "E3",
          "midi": 52,
          "time": 219.11627906973035,
          "velocity": 0.5275590551181102,
          "duration": 0.04651162790696617
        },
        {
          "name": "G#6",
          "midi": 92,
          "time": 219.11627906973035,
          "velocity": 0.2677165354330709,
          "duration": 0.0813953488371908
        },
        {
          "name": "C7",
          "midi": 96,
          "time": 219.11627906973035,
          "velocity": 0.23622047244094488,
          "duration": 0.06976744186044925
        },
        {
          "name": "F#6",
          "midi": 90,
          "time": 219.1279069767071,
          "velocity": 0.09448818897637795,
          "duration": 0.034883720930224626
        },
        {
          "name": "D#7",
          "midi": 99,
          "time": 219.1279069767071,
          "velocity": 0.15748031496062992,
          "duration": 0.06976744186044925
        },
        {
          "name": "B3",
          "midi": 59,
          "time": 219.13953488368384,
          "velocity": 0.36220472440944884,
          "duration": 0.04651162790696617
        },
        {
          "name": "D#6",
          "midi": 87,
          "time": 219.13953488368384,
          "velocity": 0.13385826771653545,
          "duration": 0.04651162790696617
        },
        {
          "name": "F3",
          "midi": 53,
          "time": 219.16279069763732,
          "velocity": 0.5511811023622047,
          "duration": 0.011627906976741542
        },
        {
          "name": "A4",
          "midi": 69,
          "time": 219.16279069763732,
          "velocity": 0.2992125984251969,
          "duration": 0.1395348837208985
        },
        {
          "name": "E3",
          "midi": 52,
          "time": 219.17441860461406,
          "velocity": 0.5433070866141733,
          "duration": 0.011627906976741542
        },
        {
          "name": "C#7",
          "midi": 97,
          "time": 219.17441860461406,
          "velocity": 0.2283464566929134,
          "duration": 0.19767441860460622
        },
        {
          "name": "D#3",
          "midi": 51,
          "time": 219.1860465115908,
          "velocity": 0.5275590551181102,
          "duration": 0.011627906976741542
        },
        {
          "name": "F2",
          "midi": 41,
          "time": 219.23255813949777,
          "velocity": 0.31496062992125984,
          "duration": 0.023255813953483084
        },
        {
          "name": "G6",
          "midi": 91,
          "time": 219.23255813949777,
          "velocity": 0.1889763779527559,
          "duration": 0.09302325581393234
        },
        {
          "name": "F#5",
          "midi": 78,
          "time": 219.25581395345125,
          "velocity": 0.4330708661417323,
          "duration": 0.0813953488371908
        },
        {
          "name": "C#2",
          "midi": 37,
          "time": 219.267441860428,
          "velocity": 0.5275590551181102,
          "duration": 0.011627906976741542
        },
        {
          "name": "A3",
          "midi": 57,
          "time": 219.267441860428,
          "velocity": 0.31496062992125984,
          "duration": 0.034883720930224626
        },
        {
          "name": "F#4",
          "midi": 66,
          "time": 219.267441860428,
          "velocity": 0.29133858267716534,
          "duration": 0.023255813953483084
        },
        {
          "name": "B4",
          "midi": 71,
          "time": 219.267441860428,
          "velocity": 0.3464566929133858,
          "duration": 0.2558139534883139
        },
        {
          "name": "G4",
          "midi": 67,
          "time": 219.29069767438148,
          "velocity": 0.3937007874015748,
          "duration": 0.19767441860460622
        },
        {
          "name": "D#3",
          "midi": 51,
          "time": 219.30232558135822,
          "velocity": 0.4881889763779528,
          "duration": 0.034883720930224626
        },
        {
          "name": "D6",
          "midi": 86,
          "time": 219.30232558135822,
          "velocity": 0.12598425196850394,
          "duration": 0.05813953488370771
        },
        {
          "name": "C7",
          "midi": 96,
          "time": 219.30232558135822,
          "velocity": 0.09448818897637795,
          "duration": 0.034883720930224626
        },
        {
          "name": "F#2",
          "midi": 42,
          "time": 219.31395348833496,
          "velocity": 0.5275590551181102,
          "duration": 0.011627906976741542
        },
        {
          "name": "B3",
          "midi": 59,
          "time": 219.31395348833496,
          "velocity": 0.3228346456692913,
          "duration": 0.034883720930224626
        },
        {
          "name": "F2",
          "midi": 41,
          "time": 219.3255813953117,
          "velocity": 0.5354330708661418,
          "duration": 0.011627906976741542
        },
        {
          "name": "E3",
          "midi": 52,
          "time": 219.33720930228844,
          "velocity": 0.5511811023622047,
          "duration": 0.04651162790696617
        },
        {
          "name": "F#5",
          "midi": 78,
          "time": 219.34883720926518,
          "velocity": 0.2440944881889764,
          "duration": 0.10465116279067388
        },
        {
          "name": "B3",
          "midi": 59,
          "time": 219.37209302321867,
          "velocity": 0.2283464566929134,
          "duration": 0.034883720930224626
        },
        {
          "name": "G6",
          "midi": 91,
          "time": 219.37209302321867,
          "velocity": 0.2125984251968504,
          "duration": 0.04651162790696617
        },
        {
          "name": "D#3",
          "midi": 51,
          "time": 219.3837209301954,
          "velocity": 0.5511811023622047,
          "duration": 0.011627906976741542
        },
        {
          "name": "E4",
          "midi": 64,
          "time": 219.3837209301954,
          "velocity": 0.33858267716535434,
          "duration": 0.09302325581393234
        },
        {
          "name": "E3",
          "midi": 52,
          "time": 219.39534883717215,
          "velocity": 0.5196850393700787,
          "duration": 0.05813953488370771
        },
        {
          "name": "C#7",
          "midi": 97,
          "time": 219.39534883717215,
          "velocity": 0.29133858267716534,
          "duration": 0.39534883720921243
        },
        {
          "name": "E2",
          "midi": 40,
          "time": 219.41860465112563,
          "velocity": 0.4645669291338583,
          "duration": 0.023255813953483084
        },
        {
          "name": "B3",
          "midi": 59,
          "time": 219.41860465112563,
          "velocity": 0.25196850393700787,
          "duration": 0.023255813953483084
        },
        {
          "name": "G6",
          "midi": 91,
          "time": 219.45348837205586,
          "velocity": 0.13385826771653545,
          "duration": 0.034883720930224626
        },
        {
          "name": "F2",
          "midi": 41,
          "time": 219.4651162790326,
          "velocity": 0.49606299212598426,
          "duration": 0.023255813953483084
        },
        {
          "name": "D5",
          "midi": 74,
          "time": 219.4651162790326,
          "velocity": 0.2992125984251969,
          "duration": 0.23255813953483084
        },
        {
          "name": "F#5",
          "midi": 78,
          "time": 219.4651162790326,
          "velocity": 0.2755905511811024,
          "duration": 0.09302325581393234
        },
        {
          "name": "B6",
          "midi": 95,
          "time": 219.4651162790326,
          "velocity": 0.07874015748031496,
          "duration": 0.034883720930224626
        },
        {
          "name": "G7",
          "midi": 103,
          "time": 219.4651162790326,
          "velocity": 0.1889763779527559,
          "duration": 0.034883720930224626
        },
        {
          "name": "A#6",
          "midi": 94,
          "time": 219.47674418600934,
          "velocity": 0.15748031496062992,
          "duration": 0.04651162790696617
        },
        {
          "name": "F7",
          "midi": 101,
          "time": 219.47674418600934,
          "velocity": 0.11023622047244094,
          "duration": 0.10465116279067388
        },
        {
          "name": "A#3",
          "midi": 58,
          "time": 219.48837209298608,
          "velocity": 0.4566929133858268,
          "duration": 0.023255813953483084
        },
        {
          "name": "E4",
          "midi": 64,
          "time": 219.48837209298608,
          "velocity": 0.36220472440944884,
          "duration": 0.034883720930224626
        },
        {
          "name": "G#4",
          "midi": 68,
          "time": 219.48837209298608,
          "velocity": 0.3464566929133858,
          "duration": 0.023255813953483084
        },
        {
          "name": "D7",
          "midi": 98,
          "time": 219.48837209298608,
          "velocity": 0.1889763779527559,
          "duration": 0.034883720930224626
        },
        {
          "name": "D#7",
          "midi": 99,
          "time": 219.48837209298608,
          "velocity": 0.14173228346456693,
          "duration": 0.19767441860460622
        },
        {
          "name": "G5",
          "midi": 79,
          "time": 219.49999999996282,
          "velocity": 0.07086614173228346,
          "duration": 0.034883720930224626
        },
        {
          "name": "D#6",
          "midi": 87,
          "time": 219.49999999996282,
          "velocity": 0.14173228346456693,
          "duration": 0.17441860465112313
        },
        {
          "name": "C4",
          "midi": 60,
          "time": 219.51162790693957,
          "velocity": 0.3228346456692913,
          "duration": 0.023255813953483084
        },
        {
          "name": "G4",
          "midi": 67,
          "time": 219.51162790693957,
          "velocity": 0.29133858267716534,
          "duration": 0.05813953488370771
        },
        {
          "name": "C6",
          "midi": 84,
          "time": 219.51162790693957,
          "velocity": 0.13385826771653545,
          "duration": 0.04651162790696617
        },
        {
          "name": "G#6",
          "midi": 92,
          "time": 219.51162790693957,
          "velocity": 0.10236220472440945,
          "duration": 0.034883720930224626
        },
        {
          "name": "C7",
          "midi": 96,
          "time": 219.51162790693957,
          "velocity": 0.2125984251968504,
          "duration": 0.15116279069764005
        },
        {
          "name": "G7",
          "midi": 103,
          "time": 219.5232558139163,
          "velocity": 0.1968503937007874,
          "duration": 0.04651162790696617
        },
        {
          "name": "E3",
          "midi": 52,
          "time": 219.5465116278698,
          "velocity": 0.3228346456692913,
          "duration": 0.023255813953483084
        },
        {
          "name": "C4",
          "midi": 60,
          "time": 219.5465116278698,
          "velocity": 0.33070866141732286,
          "duration": 0.034883720930224626
        },
        {
          "name": "D7",
          "midi": 98,
          "time": 219.5465116278698,
          "velocity": 0.1968503937007874,
          "duration": 0.09302325581393234
        },
        {
          "name": "A4",
          "midi": 69,
          "time": 219.55813953484653,
          "velocity": 0.2125984251968504,
          "duration": 0.15116279069764005
        },
        {
          "name": "B5",
          "midi": 83,
          "time": 219.55813953484653,
          "velocity": 0.11811023622047244,
          "duration": 0.034883720930224626
        },
        {
          "name": "C#6",
          "midi": 85,
          "time": 219.55813953484653,
          "velocity": 0.09448818897637795,
          "duration": 0.034883720930224626
        },
        {
          "name": "F4",
          "midi": 65,
          "time": 219.56976744182327,
          "velocity": 0.2755905511811024,
          "duration": 0.023255813953483084
        },
        {
          "name": "G#6",
          "midi": 92,
          "time": 219.56976744182327,
          "velocity": 0.16535433070866143,
          "duration": 0.05813953488370771
        },
        {
          "name": "E2",
          "midi": 40,
          "time": 219.58139534880002,
          "velocity": 0.5039370078740157,
          "duration": 0.05813953488370771
        },
        {
          "name": "F#5",
          "midi": 78,
          "time": 219.58139534880002,
          "velocity": 0.2992125984251969,
          "duration": 0.19767441860460622
        },
        {
          "name": "G7",
          "midi": 103,
          "time": 219.58139534880002,
          "velocity": 0.09448818897637795,
          "duration": 0.034883720930224626
        },
        {
          "name": "B3",
          "midi": 59,
          "time": 219.6046511627535,
          "velocity": 0.3779527559055118,
          "duration": 0.023255813953483084
        },
        {
          "name": "E6",
          "midi": 88,
          "time": 219.6046511627535,
          "velocity": 0.15748031496062992,
          "duration": 0.0813953488371908
        },
        {
          "name": "F7",
          "midi": 101,
          "time": 219.6046511627535,
          "velocity": 0.11023622047244094,
          "duration": 0.06976744186044925
        },
        {
          "name": "C4",
          "midi": 60,
          "time": 219.62790697670698,
          "velocity": 0.25984251968503935,
          "duration": 0.023255813953483084
        },
        {
          "name": "E3",
          "midi": 52,
          "time": 219.63953488368372,
          "velocity": 0.33070866141732286,
          "duration": 0.023255813953483084
        },
        {
          "name": "F#7",
          "midi": 102,
          "time": 219.63953488368372,
          "velocity": 0.12598425196850394,
          "duration": 0.09302325581393234
        },
        {
          "name": "G2",
          "midi": 43,
          "time": 219.65116279066046,
          "velocity": 0.41732283464566927,
          "duration": 0.023255813953483084
        },
        {
          "name": "B3",
          "midi": 59,
          "time": 219.65116279066046,
          "velocity": 0.3228346456692913,
          "duration": 0.04651162790696617
        },
        {
          "name": "G6",
          "midi": 91,
          "time": 219.65116279066046,
          "velocity": 0.14960629921259844,
          "duration": 0.0813953488371908
        },
        {
          "name": "G7",
          "midi": 103,
          "time": 219.65116279066046,
          "velocity": 0.15748031496062992,
          "duration": 0.06976744186044925
        },
        {
          "name": "D7",
          "midi": 98,
          "time": 219.6627906976372,
          "velocity": 0.4881889763779528,
          "duration": 1.1046511627904465
        },
        {
          "name": "E3",
          "midi": 52,
          "time": 219.67441860461395,
          "velocity": 0.3937007874015748,
          "duration": 0.023255813953483084
        },
        {
          "name": "E2",
          "midi": 40,
          "time": 219.6860465115907,
          "velocity": 0.49606299212598426,
          "duration": 0.023255813953483084
        },
        {
          "name": "E5",
          "midi": 76,
          "time": 219.6860465115907,
          "velocity": 0.2204724409448819,
          "duration": 0.12790697674415696
        },
        {
          "name": "G4",
          "midi": 67,
          "time": 219.69767441856743,
          "velocity": 0.3543307086614173,
          "duration": 0.19767441860460622
        },
        {
          "name": "C7",
          "midi": 96,
          "time": 219.69767441856743,
          "velocity": 0.1732283464566929,
          "duration": 0.0813953488371908
        },
        {
          "name": "F#2",
          "midi": 42,
          "time": 219.70930232554417,
          "velocity": 0.5511811023622047,
          "duration": 0.023255813953483084
        },
        {
          "name": "E2",
          "midi": 40,
          "time": 219.73255813949766,
          "velocity": 0.4881889763779528,
          "duration": 0.06976744186044925
        },
        {
          "name": "E4",
          "midi": 64,
          "time": 219.73255813949766,
          "velocity": 0.23622047244094488,
          "duration": 0.06976744186044925
        },
        {
          "name": "B3",
          "midi": 59,
          "time": 219.7441860464744,
          "velocity": 0.4094488188976378,
          "duration": 0.15116279069764005
        },
        {
          "name": "G6",
          "midi": 91,
          "time": 219.7441860464744,
          "velocity": 0.12598425196850394,
          "duration": 0.034883720930224626
        },
        {
          "name": "D#7",
          "midi": 99,
          "time": 219.7441860464744,
          "velocity": 0.1889763779527559,
          "duration": 0.05813953488370771
        },
        {
          "name": "D6",
          "midi": 86,
          "time": 219.75581395345114,
          "velocity": 0.25984251968503935,
          "duration": 0.34883720930224626
        },
        {
          "name": "F7",
          "midi": 101,
          "time": 219.75581395345114,
          "velocity": 0.28346456692913385,
          "duration": 0.0813953488371908
        },
        {
          "name": "G#6",
          "midi": 92,
          "time": 219.76744186042788,
          "velocity": 0.25984251968503935,
          "duration": 0.0813953488371908
        },
        {
          "name": "A4",
          "midi": 69,
          "time": 219.77906976740462,
          "velocity": 0.10236220472440945,
          "duration": 0.04651162790696617
        },
        {
          "name": "E3",
          "midi": 52,
          "time": 219.81395348833485,
          "velocity": 0.4330708661417323,
          "duration": 0.023255813953483084
        },
        {
          "name": "F#5",
          "midi": 78,
          "time": 219.81395348833485,
          "velocity": 0.13385826771653545,
          "duration": 0.05813953488370771
        },
        {
          "name": "D#7",
          "midi": 99,
          "time": 219.81395348833485,
          "velocity": 0.13385826771653545,
          "duration": 0.04651162790696617
        },
        {
          "name": "E7",
          "midi": 100,
          "time": 219.8255813953116,
          "velocity": 0.14960629921259844,
          "duration": 0.05813953488370771
        },
        {
          "name": "E3",
          "midi": 52,
          "time": 219.87209302321855,
          "velocity": 0.1889763779527559,
          "duration": 0.034883720930224626
        },
        {
          "name": "E5",
          "midi": 76,
          "time": 219.87209302321855,
          "velocity": 0.11811023622047244,
          "duration": 0.04651162790696617
        },
        {
          "name": "B5",
          "midi": 83,
          "time": 219.87209302321855,
          "velocity": 0.07874015748031496,
          "duration": 0.04651162790696617
        },
        {
          "name": "F#7",
          "midi": 102,
          "time": 219.8837209301953,
          "velocity": 0.16535433070866143,
          "duration": 0.04651162790696617
        },
        {
          "name": "C3",
          "midi": 48,
          "time": 219.90697674414878,
          "velocity": 0.5433070866141733,
          "duration": 0.023255813953483084
        },
        {
          "name": "F4",
          "midi": 65,
          "time": 219.90697674414878,
          "velocity": 0.30708661417322836,
          "duration": 0.023255813953483084
        },
        {
          "name": "B4",
          "midi": 71,
          "time": 219.90697674414878,
          "velocity": 0.31496062992125984,
          "duration": 0.43023255813943706
        },
        {
          "name": "G7",
          "midi": 103,
          "time": 219.90697674414878,
          "velocity": 0.11811023622047244,
          "duration": 0.0813953488371908
        },
        {
          "name": "F#5",
          "midi": 78,
          "time": 219.91860465112552,
          "velocity": 0.12598425196850394,
          "duration": 0.05813953488370771
        },
        {
          "name": "G#6",
          "midi": 92,
          "time": 219.91860465112552,
          "velocity": 0.14173228346456693,
          "duration": 0.04651162790696617
        },
        {
          "name": "C#7",
          "midi": 97,
          "time": 219.91860465112552,
          "velocity": 0.1968503937007874,
          "duration": 0.10465116279067388
        },
        {
          "name": "D3",
          "midi": 50,
          "time": 219.93023255810226,
          "velocity": 0.5354330708661418,
          "duration": 0.011627906976741542
        },
        {
          "name": "B3",
          "midi": 59,
          "time": 219.93023255810226,
          "velocity": 0.3858267716535433,
          "duration": 0.12790697674415696
        },
        {
          "name": "E4",
          "midi": 64,
          "time": 219.93023255810226,
          "velocity": 0.36220472440944884,
          "duration": 0.37209302325572935
        },
        {
          "name": "E7",
          "midi": 100,
          "time": 219.93023255810226,
          "velocity": 0.18110236220472442,
          "duration": 0.034883720930224626
        },
        {
          "name": "F7",
          "midi": 101,
          "time": 219.93023255810226,
          "velocity": 0.08661417322834646,
          "duration": 0.05813953488370771
        },
        {
          "name": "E3",
          "midi": 52,
          "time": 219.941860465079,
          "velocity": 0.5118110236220472,
          "duration": 0.06976744186044925
        },
        {
          "name": "F#7",
          "midi": 102,
          "time": 219.941860465079,
          "velocity": 0.15748031496062992,
          "duration": 0.15116279069764005
        },
        {
          "name": "G6",
          "midi": 91,
          "time": 219.9651162790325,
          "velocity": 0.09448818897637795,
          "duration": 0.034883720930224626
        },
        {
          "name": "G#6",
          "midi": 92,
          "time": 219.9999999999627,
          "velocity": 0.07874015748031496,
          "duration": 0.04651162790696617
        },
        {
          "name": "F3",
          "midi": 53,
          "time": 220.01162790693945,
          "velocity": 0.5275590551181102,
          "duration": 0.011627906976741542
        },
        {
          "name": "E3",
          "midi": 52,
          "time": 220.0232558139162,
          "velocity": 0.5590551181102362,
          "duration": 0.04651162790696617
        },
        {
          "name": "A4",
          "midi": 69,
          "time": 220.03488372089294,
          "velocity": 0.11811023622047244,
          "duration": 0.05813953488370771
        },
        {
          "name": "F#5",
          "midi": 78,
          "time": 220.05813953484642,
          "velocity": 0.09448818897637795,
          "duration": 0.04651162790696617
        },
        {
          "name": "A5",
          "midi": 81,
          "time": 220.05813953484642,
          "velocity": 0.1732283464566929,
          "duration": 0.12790697674415696
        },
        {
          "name": "C3",
          "midi": 48,
          "time": 220.06976744182316,
          "velocity": 0.5354330708661418,
          "duration": 0.023255813953483084
        },
        {
          "name": "F3",
          "midi": 53,
          "time": 220.06976744182316,
          "velocity": 0.5354330708661418,
          "duration": 0.011627906976741542
        },
        {
          "name": "G5",
          "midi": 79,
          "time": 220.0813953487999,
          "velocity": 0.18110236220472442,
          "duration": 0.04651162790696617
        },
        {
          "name": "B2",
          "midi": 47,
          "time": 220.09302325577664,
          "velocity": 0.5669291338582677,
          "duration": 0.034883720930224626
        },
        {
          "name": "E2",
          "midi": 40,
          "time": 220.10465116275338,
          "velocity": 0.5354330708661418,
          "duration": 0.023255813953483084
        },
        {
          "name": "G4",
          "midi": 67,
          "time": 220.11627906973013,
          "velocity": 0.5196850393700787,
          "duration": 0.26744186046505547
        },
        {
          "name": "F#5",
          "midi": 78,
          "time": 220.11627906973013,
          "velocity": 0.36220472440944884,
          "duration": 0.05813953488370771
        },
        {
          "name": "F#7",
          "midi": 102,
          "time": 220.11627906973013,
          "velocity": 0.09448818897637795,
          "duration": 0.034883720930224626
        },
        {
          "name": "A2",
          "midi": 45,
          "time": 220.12790697670687,
          "velocity": 0.5590551181102362,
          "duration": 0.011627906976741542
        },
        {
          "name": "D6",
          "midi": 86,
          "time": 220.12790697670687,
          "velocity": 0.14173228346456693,
          "duration": 0.18604651162786467
        },
        {
          "name": "G6",
          "midi": 91,
          "time": 220.12790697670687,
          "velocity": 0.16535433070866143,
          "duration": 0.1395348837208985
        },
        {
          "name": "F2",
          "midi": 41,
          "time": 220.1395348836836,
          "velocity": 0.5196850393700787,
          "duration": 0.011627906976741542
        },
        {
          "name": "B2",
          "midi": 47,
          "time": 220.1395348836836,
          "velocity": 0.5354330708661418,
          "duration": 0.011627906976741542
        },
        {
          "name": "A2",
          "midi": 45,
          "time": 220.15116279066035,
          "velocity": 0.5669291338582677,
          "duration": 0.011627906976741542
        },
        {
          "name": "D#6",
          "midi": 87,
          "time": 220.15116279066035,
          "velocity": 0.15748031496062992,
          "duration": 0.05813953488370771
        },
        {
          "name": "E7",
          "midi": 100,
          "time": 220.15116279066035,
          "velocity": 0.14960629921259844,
          "duration": 0.04651162790696617
        },
        {
          "name": "F2",
          "midi": 41,
          "time": 220.1627906976371,
          "velocity": 0.5511811023622047,
          "duration": 0.023255813953483084
        },
        {
          "name": "B2",
          "midi": 47,
          "time": 220.1627906976371,
          "velocity": 0.5118110236220472,
          "duration": 0.011627906976741542
        },
        {
          "name": "C#7",
          "midi": 97,
          "time": 220.1627906976371,
          "velocity": 0.1889763779527559,
          "duration": 0.04651162790696617
        },
        {
          "name": "F#7",
          "midi": 102,
          "time": 220.1627906976371,
          "velocity": 0.2204724409448819,
          "duration": 0.4418604651161786
        },
        {
          "name": "B3",
          "midi": 59,
          "time": 220.17441860461383,
          "velocity": 0.3700787401574803,
          "duration": 0.1627906976743816
        },
        {
          "name": "C7",
          "midi": 96,
          "time": 220.17441860461383,
          "velocity": 0.08661417322834646,
          "duration": 0.05813953488370771
        },
        {
          "name": "E2",
          "midi": 40,
          "time": 220.18604651159058,
          "velocity": 0.5433070866141733,
          "duration": 0.023255813953483084
        },
        {
          "name": "F7",
          "midi": 101,
          "time": 220.18604651159058,
          "velocity": 0.14960629921259844,
          "duration": 0.1395348837208985
        },
        {
          "name": "F2",
          "midi": 41,
          "time": 220.20930232554406,
          "velocity": 0.5118110236220472,
          "duration": 0.011627906976741542
        },
        {
          "name": "G#6",
          "midi": 92,
          "time": 220.20930232554406,
          "velocity": 0.15748031496062992,
          "duration": 0.06976744186044925
        },
        {
          "name": "D#2",
          "midi": 39,
          "time": 220.2209302325208,
          "velocity": 0.4409448818897638,
          "duration": 0.034883720930224626
        },
        {
          "name": "D5",
          "midi": 74,
          "time": 220.2209302325208,
          "velocity": 0.3543307086614173,
          "duration": 0.19767441860460622
        },
        {
          "name": "E3",
          "midi": 52,
          "time": 220.23255813949754,
          "velocity": 0.4094488188976378,
          "duration": 0.04651162790696617
        },
        {
          "name": "F#5",
          "midi": 78,
          "time": 220.23255813949754,
          "velocity": 0.2755905511811024,
          "duration": 0.023255813953483084
        },
        {
          "name": "E2",
          "midi": 40,
          "time": 220.25581395345102,
          "velocity": 0.3937007874015748,
          "duration": 0.023255813953483084
        },
        {
          "name": "D#7",
          "midi": 99,
          "time": 220.25581395345102,
          "velocity": 0.23622047244094488,
          "duration": 0.26744186046505547
        },
        {
          "name": "C#7",
          "midi": 97,
          "time": 220.26744186042777,
          "velocity": 0.30708661417322836,
          "duration": 0.11627906976741542
        },
        {
          "name": "D#6",
          "midi": 87,
          "time": 220.2790697674045,
          "velocity": 0.09448818897637795,
          "duration": 0.04651162790696617
        },
        {
          "name": "F#2",
          "midi": 42,
          "time": 220.29069767438125,
          "velocity": 0.4409448818897638,
          "duration": 0.034883720930224626
        },
        {
          "name": "G6",
          "midi": 91,
          "time": 220.31395348833473,
          "velocity": 0.16535433070866143,
          "duration": 0.10465116279067388
        },
        {
          "name": "C4",
          "midi": 60,
          "time": 220.33720930228822,
          "velocity": 0.48031496062992124,
          "duration": 0.04651162790696617
        },
        {
          "name": "A#5",
          "midi": 82,
          "time": 220.33720930228822,
          "velocity": 0.25196850393700787,
          "duration": 0.023255813953483084
        },
        {
          "name": "C#6",
          "midi": 85,
          "time": 220.33720930228822,
          "velocity": 0.2125984251968504,
          "duration": 0.034883720930224626
        },
        {
          "name": "F#6",
          "midi": 90,
          "time": 220.33720930228822,
          "velocity": 0.18110236220472442,
          "duration": 0.034883720930224626
        },
        {
          "name": "C7",
          "midi": 96,
          "time": 220.33720930228822,
          "velocity": 0.11811023622047244,
          "duration": 0.05813953488370771
        },
        {
          "name": "E7",
          "midi": 100,
          "time": 220.33720930228822,
          "velocity": 0.4251968503937008,
          "duration": 0.6046511627905602
        },
        {
          "name": "F#2",
          "midi": 42,
          "time": 220.34883720926496,
          "velocity": 0.5433070866141733,
          "duration": 0.023255813953483084
        },
        {
          "name": "C6",
          "midi": 84,
          "time": 220.34883720926496,
          "velocity": 0.13385826771653545,
          "duration": 0.034883720930224626
        },
        {
          "name": "A4",
          "midi": 69,
          "time": 220.3604651162417,
          "velocity": 0.2755905511811024,
          "duration": 0.023255813953483084
        },
        {
          "name": "F#5",
          "midi": 78,
          "time": 220.3604651162417,
          "velocity": 0.18110236220472442,
          "duration": 0.05813953488370771
        },
        {
          "name": "A5",
          "midi": 81,
          "time": 220.3604651162417,
          "velocity": 0.30708661417322836,
          "duration": 0.20930232558134776
        },
        {
          "name": "F2",
          "midi": 41,
          "time": 220.37209302321844,
          "velocity": 0.5748031496062992,
          "duration": 0.034883720930224626
        },
        {
          "name": "B4",
          "midi": 71,
          "time": 220.37209302321844,
          "velocity": 0.33858267716535434,
          "duration": 0.1395348837208985
        },
        {
          "name": "G#5",
          "midi": 80,
          "time": 220.37209302321844,
          "velocity": 0.09448818897637795,
          "duration": 0.034883720930224626
        },
        {
          "name": "F7",
          "midi": 101,
          "time": 220.38372093019518,
          "velocity": 0.18110236220472442,
          "duration": 0.406976744185954
        },
        {
          "name": "G4",
          "midi": 67,
          "time": 220.39534883717192,
          "velocity": 0.2677165354330709,
          "duration": 0.034883720930224626
        },
        {
          "name": "G#6",
          "midi": 92,
          "time": 220.39534883717192,
          "velocity": 0.10236220472440945,
          "duration": 0.0813953488371908
        },
        {
          "name": "C#7",
          "midi": 97,
          "time": 220.39534883717192,
          "velocity": 0.2047244094488189,
          "duration": 0.04651162790696617
        },
        {
          "name": "E3",
          "midi": 52,
          "time": 220.40697674414866,
          "velocity": 0.36220472440944884,
          "duration": 0.09302325581393234
        },
        {
          "name": "D#5",
          "midi": 75,
          "time": 220.40697674414866,
          "velocity": 0.3464566929133858,
          "duration": 0.06976744186044925
        },
        {
          "name": "D6",
          "midi": 86,
          "time": 220.4186046511254,
          "velocity": 0.14960629921259844,
          "duration": 0.04651162790696617
        },
        {
          "name": "G#4",
          "midi": 68,
          "time": 220.4418604650789,
          "velocity": 0.25984251968503935,
          "duration": 0.05813953488370771
        },
        {
          "name": "F2",
          "midi": 41,
          "time": 220.45348837205563,
          "velocity": 0.30708661417322836,
          "duration": 0.034883720930224626
        },
        {
          "name": "A#3",
          "midi": 58,
          "time": 220.45348837205563,
          "velocity": 0.31496062992125984,
          "duration": 0.04651162790696617
        },
        {
          "name": "B6",
          "midi": 95,
          "time": 220.46511627903237,
          "velocity": 0.1968503937007874,
          "duration": 0.1627906976743816
        },
        {
          "name": "C#7",
          "midi": 97,
          "time": 220.46511627903237,
          "velocity": 0.1889763779527559,
          "duration": 0.05813953488370771
        },
        {
          "name": "D5",
          "midi": 74,
          "time": 220.4767441860091,
          "velocity": 0.16535433070866143,
          "duration": 0.034883720930224626
        },
        {
          "name": "E5",
          "midi": 76,
          "time": 220.4767441860091,
          "velocity": 0.4094488188976378,
          "duration": 0.7906976744184249
        },
        {
          "name": "F#6",
          "midi": 90,
          "time": 220.4767441860091,
          "velocity": 0.14960629921259844,
          "duration": 0.10465116279067388
        },
        {
          "name": "A#6",
          "midi": 94,
          "time": 220.4767441860091,
          "velocity": 0.09448818897637795,
          "duration": 0.0813953488371908
        },
        {
          "name": "E2",
          "midi": 40,
          "time": 220.48837209298586,
          "velocity": 0.28346456692913385,
          "duration": 0.05813953488370771
        },
        {
          "name": "G4",
          "midi": 67,
          "time": 220.48837209298586,
          "velocity": 0.25196850393700787,
          "duration": 0.023255813953483084
        },
        {
          "name": "D#3",
          "midi": 51,
          "time": 220.51162790693934,
          "velocity": 0.2755905511811024,
          "duration": 0.034883720930224626
        },
        {
          "name": "B3",
          "midi": 59,
          "time": 220.51162790693934,
          "velocity": 0.25196850393700787,
          "duration": 0.023255813953483084
        },
        {
          "name": "G#4",
          "midi": 68,
          "time": 220.51162790693934,
          "velocity": 0.25984251968503935,
          "duration": 0.04651162790696617
        },
        {
          "name": "C7",
          "midi": 96,
          "time": 220.51162790693934,
          "velocity": 0.2283464566929134,
          "duration": 0.034883720930224626
        },
        {
          "name": "G6",
          "midi": 91,
          "time": 220.52325581391608,
          "velocity": 0.15748031496062992,
          "duration": 0.11627906976741542
        },
        {
          "name": "B5",
          "midi": 83,
          "time": 220.53488372089282,
          "velocity": 0.16535433070866143,
          "duration": 0.06976744186044925
        },
        {
          "name": "B4",
          "midi": 71,
          "time": 220.54651162786956,
          "velocity": 0.2677165354330709,
          "duration": 0.15116279069764005
        },
        {
          "name": "F#5",
          "midi": 78,
          "time": 220.54651162786956,
          "velocity": 0.29133858267716534,
          "duration": 0.0813953488371908
        },
        {
          "name": "C#7",
          "midi": 97,
          "time": 220.54651162786956,
          "velocity": 0.2440944881889764,
          "duration": 0.29069767441853855
        },
        {
          "name": "C#2",
          "midi": 37,
          "time": 220.5581395348463,
          "velocity": 0.5275590551181102,
          "duration": 0.011627906976741542
        },
        {
          "name": "C4",
          "midi": 60,
          "time": 220.5581395348463,
          "velocity": 0.2755905511811024,
          "duration": 0.023255813953483084
        },
        {
          "name": "G4",
          "midi": 67,
          "time": 220.56976744182305,
          "velocity": 0.3858267716535433,
          "duration": 0.34883720930224626
        },
        {
          "name": "D#7",
          "midi": 99,
          "time": 220.56976744182305,
          "velocity": 0.11811023622047244,
          "duration": 0.05813953488370771
        },
        {
          "name": "E3",
          "midi": 52,
          "time": 220.5813953487998,
          "velocity": 0.3700787401574803,
          "duration": 0.023255813953483084
        },
        {
          "name": "A6",
          "midi": 93,
          "time": 220.5813953487998,
          "velocity": 0.2047244094488189,
          "duration": 0.23255813953483084
        },
        {
          "name": "C7",
          "midi": 96,
          "time": 220.59302325577653,
          "velocity": 0.2204724409448819,
          "duration": 0.06976744186044925
        },
        {
          "name": "B3",
          "midi": 59,
          "time": 220.60465116275327,
          "velocity": 0.3543307086614173,
          "duration": 0.11627906976741542
        },
        {
          "name": "D#6",
          "midi": 87,
          "time": 220.60465116275327,
          "velocity": 0.08661417322834646,
          "duration": 0.1627906976743816
        },
        {
          "name": "F#7",
          "midi": 102,
          "time": 220.61627906973,
          "velocity": 0.1732283464566929,
          "duration": 0.06976744186044925
        },
        {
          "name": "D6",
          "midi": 86,
          "time": 220.62790697670675,
          "velocity": 0.10236220472440945,
          "duration": 0.04651162790696617
        },
        {
          "name": "A2",
          "midi": 45,
          "time": 220.6395348836835,
          "velocity": 0.3858267716535433,
          "duration": 0.023255813953483084
        },
        {
          "name": "G#6",
          "midi": 92,
          "time": 220.6395348836835,
          "velocity": 0.09448818897637795,
          "duration": 0.04651162790696617
        },
        {
          "name": "F3",
          "midi": 53,
          "time": 220.65116279066024,
          "velocity": 0.3779527559055118,
          "duration": 0.04651162790696617
        },
        {
          "name": "D#7",
          "midi": 99,
          "time": 220.65116279066024,
          "velocity": 0.09448818897637795,
          "duration": 0.09302325581393234
        },
        {
          "name": "D5",
          "midi": 74,
          "time": 220.68604651159046,
          "velocity": 0.08661417322834646,
          "duration": 0.05813953488370771
        },
        {
          "name": "F2",
          "midi": 41,
          "time": 220.6976744185672,
          "velocity": 0.5118110236220472,
          "duration": 0.023255813953483084
        },
        {
          "name": "F#5",
          "midi": 78,
          "time": 220.70930232554394,
          "velocity": 0.1968503937007874,
          "duration": 0.0813953488371908
        },
        {
          "name": "D6",
          "midi": 86,
          "time": 220.70930232554394,
          "velocity": 0.11023622047244094,
          "duration": 0.034883720930224626
        },
        {
          "name": "G7",
          "midi": 103,
          "time": 220.70930232554394,
          "velocity": 0.08661417322834646,
          "duration": 0.06976744186044925
        },
        {
          "name": "F2",
          "midi": 41,
          "time": 220.73255813949743,
          "velocity": 0.3543307086614173,
          "duration": 0.023255813953483084
        },
        {
          "name": "B6",
          "midi": 95,
          "time": 220.74418604647417,
          "velocity": 0.4094488188976378,
          "duration": 0.9186046511625818
        },
        {
          "name": "E4",
          "midi": 64,
          "time": 220.7558139534509,
          "velocity": 0.4015748031496063,
          "duration": 0.4418604651161786
        },
        {
          "name": "D6",
          "midi": 86,
          "time": 220.7558139534509,
          "velocity": 0.11811023622047244,
          "duration": 0.05813953488370771
        },
        {
          "name": "F#2",
          "midi": 42,
          "time": 220.76744186042765,
          "velocity": 0.5669291338582677,
          "duration": 0.011627906976741542
        },
        {
          "name": "B4",
          "midi": 71,
          "time": 220.76744186042765,
          "velocity": 0.3700787401574803,
          "duration": 0.6162790697673017
        },
        {
          "name": "C7",
          "midi": 96,
          "time": 220.76744186042765,
          "velocity": 0.1968503937007874,
          "duration": 0.04651162790696617
        },
        {
          "name": "D#7",
          "midi": 99,
          "time": 220.76744186042765,
          "velocity": 0.11811023622047244,
          "duration": 0.12790697674415696
        },
        {
          "name": "G#2",
          "midi": 44,
          "time": 220.7790697674044,
          "velocity": 0.5826771653543307,
          "duration": 0.011627906976741542
        },
        {
          "name": "D5",
          "midi": 74,
          "time": 220.7790697674044,
          "velocity": 0.1732283464566929,
          "duration": 0.034883720930224626
        },
        {
          "name": "D7",
          "midi": 98,
          "time": 220.7790697674044,
          "velocity": 0.16535433070866143,
          "duration": 0.05813953488370771
        },
        {
          "name": "D3",
          "midi": 50,
          "time": 220.79069767438114,
          "velocity": 0.5669291338582677,
          "duration": 0.011627906976741542
        },
        {
          "name": "B3",
          "midi": 59,
          "time": 220.79069767438114,
          "velocity": 0.3858267716535433,
          "duration": 0.04651162790696617
        },
        {
          "name": "F#7",
          "midi": 102,
          "time": 220.79069767438114,
          "velocity": 0.11023622047244094,
          "duration": 0.15116279069764005
        },
        {
          "name": "E3",
          "midi": 52,
          "time": 220.80232558135788,
          "velocity": 0.5354330708661418,
          "duration": 0.09302325581393234
        },
        {
          "name": "F#5",
          "midi": 78,
          "time": 220.80232558135788,
          "velocity": 0.1968503937007874,
          "duration": 0.05813953488370771
        },
        {
          "name": "F#6",
          "midi": 90,
          "time": 220.80232558135788,
          "velocity": 0.2283464566929134,
          "duration": 0.48837209302314477
        },
        {
          "name": "F2",
          "midi": 41,
          "time": 220.82558139531136,
          "velocity": 0.4881889763779528,
          "duration": 0.034883720930224626
        },
        {
          "name": "B3",
          "midi": 59,
          "time": 220.84883720926484,
          "velocity": 0.3779527559055118,
          "duration": 0.04651162790696617
        },
        {
          "name": "D6",
          "midi": 86,
          "time": 220.86046511624158,
          "velocity": 0.08661417322834646,
          "duration": 0.04651162790696617
        },
        {
          "name": "B3",
          "midi": 59,
          "time": 220.90697674414855,
          "velocity": 0.2204724409448819,
          "duration": 0.034883720930224626
        },
        {
          "name": "D#7",
          "midi": 99,
          "time": 220.9186046511253,
          "velocity": 0.16535433070866143,
          "duration": 0.2558139534883139
        },
        {
          "name": "F3",
          "midi": 53,
          "time": 220.93023255810203,
          "velocity": 0.28346456692913385,
          "duration": 0.034883720930224626
        },
        {
          "name": "G5",
          "midi": 79,
          "time": 220.93023255810203,
          "velocity": 0.11023622047244094,
          "duration": 0.04651162790696617
        },
        {
          "name": "G4",
          "midi": 67,
          "time": 220.96511627903226,
          "velocity": 0.4330708661417323,
          "duration": 0.34883720930224626
        },
        {
          "name": "F#5",
          "midi": 78,
          "time": 220.976744186009,
          "velocity": 0.2283464566929134,
          "duration": 0.023255813953483084
        },
        {
          "name": "E2",
          "midi": 40,
          "time": 220.98837209298574,
          "velocity": 0.5354330708661418,
          "duration": 0.011627906976741542
        },
        {
          "name": "G6",
          "midi": 91,
          "time": 220.98837209298574,
          "velocity": 0.07086614173228346,
          "duration": 0.034883720930224626
        },
        {
          "name": "C#7",
          "midi": 97,
          "time": 220.98837209298574,
          "velocity": 0.15748031496062992,
          "duration": 0.04651162790696617
        },
        {
          "name": "G#2",
          "midi": 44,
          "time": 220.99999999996248,
          "velocity": 0.4330708661417323,
          "duration": 0.023255813953483084
        },
        {
          "name": "A3",
          "midi": 57,
          "time": 220.99999999996248,
          "velocity": 0.25984251968503935,
          "duration": 0.023255813953483084
        },
        {
          "name": "D6",
          "midi": 86,
          "time": 221.01162790693922,
          "velocity": 0.11023622047244094,
          "duration": 0.034883720930224626
        },
        {
          "name": "E3",
          "midi": 52,
          "time": 221.02325581391597,
          "velocity": 0.4251968503937008,
          "duration": 0.023255813953483084
        },
        {
          "name": "F#5",
          "midi": 78,
          "time": 221.02325581391597,
          "velocity": 0.36220472440944884,
          "duration": 0.17441860465112313
        },
        {
          "name": "F2",
          "midi": 41,
          "time": 221.0348837208927,
          "velocity": 0.5118110236220472,
          "duration": 0.023255813953483084
        },
        {
          "name": "B3",
          "midi": 59,
          "time": 221.0348837208927,
          "velocity": 0.31496062992125984,
          "duration": 0.023255813953483084
        },
        {
          "name": "E3",
          "midi": 52,
          "time": 221.0581395348462,
          "velocity": 0.5511811023622047,
          "duration": 0.034883720930224626
        },
        {
          "name": "C4",
          "midi": 60,
          "time": 221.0581395348462,
          "velocity": 0.29133858267716534,
          "duration": 0.023255813953483084
        },
        {
          "name": "G6",
          "midi": 91,
          "time": 221.0581395348462,
          "velocity": 0.10236220472440945,
          "duration": 0.04651162790696617
        },
        {
          "name": "E7",
          "midi": 100,
          "time": 221.08139534879967,
          "velocity": 0.07874015748031496,
          "duration": 0.04651162790696617
        },
        {
          "name": "F3",
          "midi": 53,
          "time": 221.09302325577642,
          "velocity": 0.5354330708661418,
          "duration": 0.011627906976741542
        },
        {
          "name": "B3",
          "midi": 59,
          "time": 221.09302325577642,
          "velocity": 0.3779527559055118,
          "duration": 0.10465116279067388
        },
        {
          "name": "E3",
          "midi": 52,
          "time": 221.10465116275316,
          "velocity": 0.5275590551181102,
          "duration": 0.023255813953483084
        },
        {
          "name": "A6",
          "midi": 93,
          "time": 221.1162790697299,
          "velocity": 0.14173228346456693,
          "duration": 0.05813953488370771
        },
        {
          "name": "F3",
          "midi": 53,
          "time": 221.12790697670664,
          "velocity": 0.5196850393700787,
          "duration": 0.011627906976741542
        },
        {
          "name": "D6",
          "midi": 86,
          "time": 221.12790697670664,
          "velocity": 0.16535433070866143,
          "duration": 0.10465116279067388
        },
        {
          "name": "E3",
          "midi": 52,
          "time": 221.13953488368338,
          "velocity": 0.49606299212598426,
          "duration": 0.023255813953483084
        },
        {
          "name": "D7",
          "midi": 98,
          "time": 221.13953488368338,
          "velocity": 0.23622047244094488,
          "duration": 0.18604651162786467
        },
        {
          "name": "E2",
          "midi": 40,
          "time": 221.16279069763686,
          "velocity": 0.5433070866141733,
          "duration": 0.023255813953483084
        },
        {
          "name": "F3",
          "midi": 53,
          "time": 221.16279069763686,
          "velocity": 0.47244094488188976,
          "duration": 0.023255813953483084
        },
        {
          "name": "G#2",
          "midi": 44,
          "time": 221.18604651159035,
          "velocity": 0.5433070866141733,
          "duration": 0.011627906976741542
        },
        {
          "name": "D5",
          "midi": 74,
          "time": 221.18604651159035,
          "velocity": 0.4251968503937008,
          "duration": 0.05813953488370771
        },
        {
          "name": "A5",
          "midi": 81,
          "time": 221.18604651159035,
          "velocity": 0.2992125984251969,
          "duration": 0.26744186046505547
        },
        {
          "name": "E7",
          "midi": 100,
          "time": 221.18604651159035,
          "velocity": 0.14173228346456693,
          "duration": 0.05813953488370771
        },
        {
          "name": "A#3",
          "midi": 58,
          "time": 221.1976744185671,
          "velocity": 0.47244094488188976,
          "duration": 0.034883720930224626
        },
        {
          "name": "C#6",
          "midi": 85,
          "time": 221.1976744185671,
          "velocity": 0.11811023622047244,
          "duration": 0.04651162790696617
        },
        {
          "name": "C7",
          "midi": 96,
          "time": 221.1976744185671,
          "velocity": 0.09448818897637795,
          "duration": 0.10465116279067388
        },
        {
          "name": "C#7",
          "midi": 97,
          "time": 221.1976744185671,
          "velocity": 0.2283464566929134,
          "duration": 0.29069767441853855
        },
        {
          "name": "F#5",
          "midi": 78,
          "time": 221.20930232554383,
          "velocity": 0.33858267716535434,
          "duration": 0.04651162790696617
        },
        {
          "name": "G6",
          "midi": 91,
          "time": 221.20930232554383,
          "velocity": 0.12598425196850394,
          "duration": 0.0813953488371908
        },
        {
          "name": "C6",
          "midi": 84,
          "time": 221.22093023252057,
          "velocity": 0.1732283464566929,
          "duration": 0.04651162790696617
        },
        {
          "name": "G#6",
          "midi": 92,
          "time": 221.22093023252057,
          "velocity": 0.10236220472440945,
          "duration": 0.034883720930224626
        },
        {
          "name": "D#7",
          "midi": 99,
          "time": 221.22093023252057,
          "velocity": 0.2047244094488189,
          "duration": 0.3604651162789878
        },
        {
          "name": "F7",
          "midi": 101,
          "time": 221.22093023252057,
          "velocity": 0.13385826771653545,
          "duration": 0.18604651162786467
        },
        {
          "name": "G3",
          "midi": 55,
          "time": 221.2325581394973,
          "velocity": 0.2283464566929134,
          "duration": 0.023255813953483084
        },
        {
          "name": "B3",
          "midi": 59,
          "time": 221.2325581394973,
          "velocity": 0.36220472440944884,
          "duration": 0.023255813953483084
        },
        {
          "name": "F#2",
          "midi": 42,
          "time": 221.24418604647406,
          "velocity": 0.4566929133858268,
          "duration": 0.023255813953483084
        },
        {
          "name": "D#6",
          "midi": 87,
          "time": 221.24418604647406,
          "velocity": 0.18110236220472442,
          "duration": 0.18604651162786467
        },
        {
          "name": "A3",
          "midi": 57,
          "time": 221.2558139534508,
          "velocity": 0.33858267716535434,
          "duration": 0.023255813953483084
        },
        {
          "name": "D#5",
          "midi": 75,
          "time": 221.26744186042754,
          "velocity": 0.18110236220472442,
          "duration": 0.034883720930224626
        },
        {
          "name": "F#5",
          "midi": 78,
          "time": 221.26744186042754,
          "velocity": 0.1968503937007874,
          "duration": 0.06976744186044925
        },
        {
          "name": "B3",
          "midi": 59,
          "time": 221.27906976740428,
          "velocity": 0.33070866141732286,
          "duration": 0.034883720930224626
        },
        {
          "name": "F3",
          "midi": 53,
          "time": 221.29069767438102,
          "velocity": 0.2992125984251969,
          "duration": 0.023255813953483084
        },
        {
          "name": "D5",
          "midi": 74,
          "time": 221.30232558135776,
          "velocity": 0.2283464566929134,
          "duration": 0.10465116279067388
        },
        {
          "name": "E5",
          "midi": 76,
          "time": 221.3139534883345,
          "velocity": 0.2755905511811024,
          "duration": 0.37209302325572935
        },
        {
          "name": "F3",
          "midi": 53,
          "time": 221.32558139531125,
          "velocity": 0.3937007874015748,
          "duration": 0.04651162790696617
        },
        {
          "name": "B3",
          "midi": 59,
          "time": 221.32558139531125,
          "velocity": 0.2992125984251969,
          "duration": 0.023255813953483084
        },
        {
          "name": "G5",
          "midi": 79,
          "time": 221.32558139531125,
          "velocity": 0.1889763779527559,
          "duration": 0.0813953488371908
        },
        {
          "name": "D7",
          "midi": 98,
          "time": 221.337209302288,
          "velocity": 0.2283464566929134,
          "duration": 0.1627906976743816
        },
        {
          "name": "F2",
          "midi": 41,
          "time": 221.34883720926473,
          "velocity": 0.5118110236220472,
          "duration": 0.023255813953483084
        },
        {
          "name": "C4",
          "midi": 60,
          "time": 221.34883720926473,
          "velocity": 0.2440944881889764,
          "duration": 0.023255813953483084
        },
        {
          "name": "C7",
          "midi": 96,
          "time": 221.36046511624147,
          "velocity": 0.07874015748031496,
          "duration": 0.034883720930224626
        },
        {
          "name": "E2",
          "midi": 40,
          "time": 221.3720930232182,
          "velocity": 0.3937007874015748,
          "duration": 0.023255813953483084
        },
        {
          "name": "B4",
          "midi": 71,
          "time": 221.40697674414844,
          "velocity": 0.30708661417322836,
          "duration": 0.43023255813943706
        },
        {
          "name": "F#5",
          "midi": 78,
          "time": 221.40697674414844,
          "velocity": 0.31496062992125984,
          "duration": 0.0813953488371908
        },
        {
          "name": "B2",
          "midi": 47,
          "time": 221.41860465112518,
          "velocity": 0.5275590551181102,
          "duration": 0.011627906976741542
        },
        {
          "name": "E7",
          "midi": 100,
          "time": 221.41860465112518,
          "velocity": 0.12598425196850394,
          "duration": 0.034883720930224626
        },
        {
          "name": "D3",
          "midi": 50,
          "time": 221.43023255810192,
          "velocity": 0.5905511811023622,
          "duration": 0.011627906976741542
        },
        {
          "name": "B3",
          "midi": 59,
          "time": 221.43023255810192,
          "velocity": 0.4015748031496063,
          "duration": 0.023255813953483084
        },
        {
          "name": "G4",
          "midi": 67,
          "time": 221.43023255810192,
          "velocity": 0.3937007874015748,
          "duration": 0.20930232558134776
        },
        {
          "name": "E3",
          "midi": 52,
          "time": 221.44186046507866,
          "velocity": 0.6062992125984252,
          "duration": 0.10465116279067388
        },
        {
          "name": "B3",
          "midi": 59,
          "time": 221.46511627903215,
          "velocity": 0.4015748031496063,
          "duration": 0.1395348837208985
        },
        {
          "name": "A5",
          "midi": 81,
          "time": 221.4767441860089,
          "velocity": 0.11023622047244094,
          "duration": 0.034883720930224626
        },
        {
          "name": "F2",
          "midi": 41,
          "time": 221.48837209298563,
          "velocity": 0.5433070866141733,
          "duration": 0.011627906976741542
        },
        {
          "name": "E2",
          "midi": 40,
          "time": 221.49999999996237,
          "velocity": 0.5354330708661418,
          "duration": 0.011627906976741542
        },
        {
          "name": "F2",
          "midi": 41,
          "time": 221.5116279069391,
          "velocity": 0.5118110236220472,
          "duration": 0.011627906976741542
        },
        {
          "name": "A#6",
          "midi": 94,
          "time": 221.5116279069391,
          "velocity": 0.2755905511811024,
          "duration": 0.09302325581393234
        },
        {
          "name": "F7",
          "midi": 101,
          "time": 221.5116279069391,
          "velocity": 0.18110236220472442,
          "duration": 0.09302325581393234
        },
        {
          "name": "F#5",
          "midi": 78,
          "time": 221.52325581391585,
          "velocity": 0.13385826771653545,
          "duration": 0.034883720930224626
        },
        {
          "name": "A#5",
          "midi": 82,
          "time": 221.55813953484608,
          "velocity": 0.09448818897637795,
          "duration": 0.04651162790696617
        },
        {
          "name": "D6",
          "midi": 86,
          "time": 221.55813953484608,
          "velocity": 0.10236220472440945,
          "duration": 0.05813953488370771
        },
        {
          "name": "A6",
          "midi": 93,
          "time": 221.55813953484608,
          "velocity": 0.07086614173228346,
          "duration": 0.034883720930224626
        },
        {
          "name": "F#5",
          "midi": 78,
          "time": 221.56976744182282,
          "velocity": 0.11811023622047244,
          "duration": 0.034883720930224626
        },
        {
          "name": "E3",
          "midi": 52,
          "time": 221.58139534879956,
          "velocity": 0.29133858267716534,
          "duration": 0.034883720930224626
        },
        {
          "name": "F2",
          "midi": 41,
          "time": 221.5930232557763,
          "velocity": 0.2677165354330709,
          "duration": 0.023255813953483084
        },
        {
          "name": "B2",
          "midi": 47,
          "time": 221.60465116275304,
          "velocity": 0.25196850393700787,
          "duration": 0.023255813953483084
        },
        {
          "name": "A6",
          "midi": 93,
          "time": 221.60465116275304,
          "velocity": 0.23622047244094488,
          "duration": 0.10465116279067388
        },
        {
          "name": "D#7",
          "midi": 99,
          "time": 221.60465116275304,
          "velocity": 0.23622047244094488,
          "duration": 0.4999999999998863
        },
        {
          "name": "E7",
          "midi": 100,
          "time": 221.60465116275304,
          "velocity": 0.14960629921259844,
          "duration": 0.0813953488371908
        },
        {
          "name": "C3",
          "midi": 48,
          "time": 221.62790697670653,
          "velocity": 0.5590551181102362,
          "duration": 0.023255813953483084
        },
        {
          "name": "D5",
          "midi": 74,
          "time": 221.62790697670653,
          "velocity": 0.09448818897637795,
          "duration": 0.04651162790696617
        },
        {
          "name": "F#5",
          "midi": 78,
          "time": 221.62790697670653,
          "velocity": 0.3228346456692913,
          "duration": 0.26744186046505547
        },
        {
          "name": "D7",
          "midi": 98,
          "time": 221.62790697670653,
          "velocity": 0.12598425196850394,
          "duration": 0.0813953488371908
        },
        {
          "name": "F7",
          "midi": 101,
          "time": 221.62790697670653,
          "velocity": 0.07874015748031496,
          "duration": 0.0813953488371908
        },
        {
          "name": "C#7",
          "midi": 97,
          "time": 221.63953488368327,
          "velocity": 0.2047244094488189,
          "duration": 0.05813953488370771
        },
        {
          "name": "F#7",
          "midi": 102,
          "time": 221.63953488368327,
          "velocity": 0.08661417322834646,
          "duration": 0.06976744186044925
        },
        {
          "name": "D3",
          "midi": 50,
          "time": 221.65116279066,
          "velocity": 0.5275590551181102,
          "duration": 0.011627906976741542
        },
        {
          "name": "E3",
          "midi": 52,
          "time": 221.66279069763675,
          "velocity": 0.5669291338582677,
          "duration": 0.12790697674415696
        },
        {
          "name": "B3",
          "midi": 59,
          "time": 221.6744186046135,
          "velocity": 0.36220472440944884,
          "duration": 0.11627906976741542
        },
        {
          "name": "G4",
          "midi": 67,
          "time": 221.6744186046135,
          "velocity": 0.29133858267716534,
          "duration": 0.11627906976741542
        },
        {
          "name": "F2",
          "midi": 41,
          "time": 221.68604651159023,
          "velocity": 0.48031496062992124,
          "duration": 0.023255813953483084
        },
        {
          "name": "E2",
          "midi": 40,
          "time": 221.70930232554372,
          "velocity": 0.4881889763779528,
          "duration": 0.023255813953483084
        },
        {
          "name": "B6",
          "midi": 95,
          "time": 221.7325581394972,
          "velocity": 0.25984251968503935,
          "duration": 0.2209302325580893
        },
        {
          "name": "B2",
          "midi": 47,
          "time": 221.74418604647394,
          "velocity": 0.5118110236220472,
          "duration": 0.011627906976741542
        },
        {
          "name": "G6",
          "midi": 91,
          "time": 221.77906976740417,
          "velocity": 0.1889763779527559,
          "duration": 0.18604651162786467
        },
        {
          "name": "F3",
          "midi": 53,
          "time": 221.7906976743809,
          "velocity": 0.5433070866141733,
          "duration": 0.011627906976741542
        },
        {
          "name": "B2",
          "midi": 47,
          "time": 221.80232558135765,
          "velocity": 0.5511811023622047,
          "duration": 0.034883720930224626
        },
        {
          "name": "C3",
          "midi": 48,
          "time": 221.83720930228787,
          "velocity": 0.5354330708661418,
          "duration": 0.011627906976741542
        },
        {
          "name": "F#4",
          "midi": 66,
          "time": 221.83720930228787,
          "velocity": 0.25984251968503935,
          "duration": 0.023255813953483084
        },
        {
          "name": "F2",
          "midi": 41,
          "time": 221.84883720926462,
          "velocity": 0.5748031496062992,
          "duration": 0.023255813953483084
        },
        {
          "name": "D6",
          "midi": 86,
          "time": 221.84883720926462,
          "velocity": 0.15748031496062992,
          "duration": 0.2558139534883139
        },
        {
          "name": "C#7",
          "midi": 97,
          "time": 221.84883720926462,
          "velocity": 0.25196850393700787,
          "duration": 0.37209302325572935
        },
        {
          "name": "D7",
          "midi": 98,
          "time": 221.84883720926462,
          "velocity": 0.16535433070866143,
          "duration": 0.11627906976741542
        },
        {
          "name": "G4",
          "midi": 67,
          "time": 221.86046511624136,
          "velocity": 0.25196850393700787,
          "duration": 0.12790697674415696
        },
        {
          "name": "B4",
          "midi": 71,
          "time": 221.86046511624136,
          "velocity": 0.30708661417322836,
          "duration": 0.11627906976741542
        },
        {
          "name": "G5",
          "midi": 79,
          "time": 221.86046511624136,
          "velocity": 0.3700787401574803,
          "duration": 0.18604651162786467
        },
        {
          "name": "A#6",
          "midi": 94,
          "time": 221.86046511624136,
          "velocity": 0.12598425196850394,
          "duration": 0.034883720930224626
        },
        {
          "name": "F#2",
          "midi": 42,
          "time": 221.8720930232181,
          "velocity": 0.5826771653543307,
          "duration": 0.011627906976741542
        },
        {
          "name": "F2",
          "midi": 41,
          "time": 221.88372093019484,
          "velocity": 0.5511811023622047,
          "duration": 0.011627906976741542
        },
        {
          "name": "A#3",
          "midi": 58,
          "time": 221.88372093019484,
          "velocity": 0.29133858267716534,
          "duration": 0.023255813953483084
        },
        {
          "name": "D#6",
          "midi": 87,
          "time": 221.88372093019484,
          "velocity": 0.11023622047244094,
          "duration": 0.17441860465112313
        },
        {
          "name": "A6",
          "midi": 93,
          "time": 221.88372093019484,
          "velocity": 0.07874015748031496,
          "duration": 0.04651162790696617
        },
        {
          "name": "E2",
          "midi": 40,
          "time": 221.89534883717158,
          "velocity": 0.5275590551181102,
          "duration": 0.023255813953483084
        },
        {
          "name": "C7",
          "midi": 96,
          "time": 221.89534883717158,
          "velocity": 0.08661417322834646,
          "duration": 0.04651162790696617
        },
        {
          "name": "F7",
          "midi": 101,
          "time": 221.89534883717158,
          "velocity": 0.25196850393700787,
          "duration": 0.4418604651161786
        },
        {
          "name": "B2",
          "midi": 47,
          "time": 221.90697674414832,
          "velocity": 0.5275590551181102,
          "duration": 0.011627906976741542
        },
        {
          "name": "A#2",
          "midi": 46,
          "time": 221.91860465112507,
          "velocity": 0.5590551181102362,
          "duration": 0.011627906976741542
        },
        {
          "name": "E4",
          "midi": 64,
          "time": 221.91860465112507,
          "velocity": 0.14960629921259844,
          "duration": 0.06976744186044925
        },
        {
          "name": "E6",
          "midi": 88,
          "time": 221.9534883720553,
          "velocity": 0.07086614173228346,
          "duration": 0.06976744186044925
        },
        {
          "name": "E2",
          "midi": 40,
          "time": 221.97674418600877,
          "velocity": 0.5275590551181102,
          "duration": 0.011627906976741542
        },
        {
          "name": "F2",
          "midi": 41,
          "time": 221.98837209298551,
          "velocity": 0.5433070866141733,
          "duration": 0.011627906976741542
        },
        {
          "name": "F#6",
          "midi": 90,
          "time": 221.98837209298551,
          "velocity": 0.1732283464566929,
          "duration": 0.11627906976741542
        },
        {
          "name": "B6",
          "midi": 95,
          "time": 221.98837209298551,
          "velocity": 0.2125984251968504,
          "duration": 0.3372093023255047
        },
        {
          "name": "E2",
          "midi": 40,
          "time": 221.99999999996226,
          "velocity": 0.5039370078740157,
          "duration": 0.023255813953483084
        },
        {
          "name": "G4",
          "midi": 67,
          "time": 221.99999999996226,
          "velocity": 0.14173228346456693,
          "duration": 0.034883720930224626
        },
        {
          "name": "B4",
          "midi": 71,
          "time": 222.011627906939,
          "velocity": 0.1968503937007874,
          "duration": 0.034883720930224626
        },
        {
          "name": "D7",
          "midi": 98,
          "time": 222.011627906939,
          "velocity": 0.2992125984251969,
          "duration": 0.6279069767440433
        },
        {
          "name": "F2",
          "midi": 41,
          "time": 222.02325581391574,
          "velocity": 0.4881889763779528,
          "duration": 0.023255813953483084
        },
        {
          "name": "D5",
          "midi": 74,
          "time": 222.03488372089248,
          "velocity": 0.4330708661417323,
          "duration": 0.05813953488370771
        },
        {
          "name": "E3",
          "midi": 52,
          "time": 222.04651162786922,
          "velocity": 0.5354330708661418,
          "duration": 0.023255813953483084
        },
        {
          "name": "C4",
          "midi": 60,
          "time": 222.04651162786922,
          "velocity": 0.47244094488188976,
          "duration": 0.05813953488370771
        },
        {
          "name": "G4",
          "midi": 67,
          "time": 222.04651162786922,
          "velocity": 0.4330708661417323,
          "duration": 0.034883720930224626
        },
        {
          "name": "F#5",
          "midi": 78,
          "time": 222.04651162786922,
          "velocity": 0.31496062992125984,
          "duration": 0.04651162790696617
        },
        {
          "name": "C7",
          "midi": 96,
          "time": 222.04651162786922,
          "velocity": 0.15748031496062992,
          "duration": 0.06976744186044925
        },
        {
          "name": "E7",
          "midi": 100,
          "time": 222.04651162786922,
          "velocity": 0.15748031496062992,
          "duration": 0.3372093023255047
        },
        {
          "name": "F#7",
          "midi": 102,
          "time": 222.04651162786922,
          "velocity": 0.1732283464566929,
          "duration": 0.17441860465112313
        },
        {
          "name": "G7",
          "midi": 103,
          "time": 222.04651162786922,
          "velocity": 0.15748031496062992,
          "duration": 0.12790697674415696
        },
        {
          "name": "F2",
          "midi": 41,
          "time": 222.05813953484596,
          "velocity": 0.5118110236220472,
          "duration": 0.034883720930224626
        },
        {
          "name": "A#4",
          "midi": 70,
          "time": 222.05813953484596,
          "velocity": 0.29133858267716534,
          "duration": 0.023255813953483084
        },
        {
          "name": "E5",
          "midi": 76,
          "time": 222.05813953484596,
          "velocity": 0.2755905511811024,
          "duration": 0.034883720930224626
        },
        {
          "name": "G5",
          "midi": 79,
          "time": 222.05813953484596,
          "velocity": 0.4566929133858268,
          "duration": 0.24418604651157239
        },
        {
          "name": "F3",
          "midi": 53,
          "time": 222.0697674418227,
          "velocity": 0.5354330708661418,
          "duration": 0.011627906976741542
        },
        {
          "name": "E4",
          "midi": 64,
          "time": 222.0697674418227,
          "velocity": 0.23622047244094488,
          "duration": 0.023255813953483084
        },
        {
          "name": "C6",
          "midi": 84,
          "time": 222.0697674418227,
          "velocity": 0.13385826771653545,
          "duration": 0.06976744186044925
        },
        {
          "name": "E3",
          "midi": 52,
          "time": 222.08139534879945,
          "velocity": 0.48031496062992124,
          "duration": 0.023255813953483084
        },
        {
          "name": "A4",
          "midi": 69,
          "time": 222.08139534879945,
          "velocity": 0.25984251968503935,
          "duration": 0.034883720930224626
        },
        {
          "name": "B4",
          "midi": 71,
          "time": 222.08139534879945,
          "velocity": 0.3700787401574803,
          "duration": 0.15116279069764005
        },
        {
          "name": "F#4",
          "midi": 66,
          "time": 222.0930232557762,
          "velocity": 0.33858267716535434,
          "duration": 0.034883720930224626
        },
        {
          "name": "A#3",
          "midi": 58,
          "time": 222.10465116275293,
          "velocity": 0.2992125984251969,
          "duration": 0.034883720930224626
        },
        {
          "name": "D5",
          "midi": 74,
          "time": 222.10465116275293,
          "velocity": 0.15748031496062992,
          "duration": 0.034883720930224626
        },
        {
          "name": "C#6",
          "midi": 85,
          "time": 222.10465116275293,
          "velocity": 0.08661417322834646,
          "duration": 0.034883720930224626
        },
        {
          "name": "F2",
          "midi": 41,
          "time": 222.11627906972967,
          "velocity": 0.48031496062992124,
          "duration": 0.023255813953483084
        },
        {
          "name": "D6",
          "midi": 86,
          "time": 222.11627906972967,
          "velocity": 0.1732283464566929,
          "duration": 0.12790697674415696
        },
        {
          "name": "G#6",
          "midi": 92,
          "time": 222.11627906972967,
          "velocity": 0.14173228346456693,
          "duration": 0.10465116279067388
        },
        {
          "name": "D#7",
          "midi": 99,
          "time": 222.1279069767064,
          "velocity": 0.28346456692913385,
          "duration": 0.5232558139533694
        },
        {
          "name": "B3",
          "midi": 59,
          "time": 222.13953488368315,
          "velocity": 0.2755905511811024,
          "duration": 0.023255813953483084
        },
        {
          "name": "E4",
          "midi": 64,
          "time": 222.1511627906599,
          "velocity": 0.2283464566929134,
          "duration": 0.034883720930224626
        },
        {
          "name": "C3",
          "midi": 48,
          "time": 222.16279069763664,
          "velocity": 0.2677165354330709,
          "duration": 0.023255813953483084
        },
        {
          "name": "F3",
          "midi": 53,
          "time": 222.16279069763664,
          "velocity": 0.2755905511811024,
          "duration": 0.023255813953483084
        },
        {
          "name": "A#3",
          "midi": 58,
          "time": 222.16279069763664,
          "velocity": 0.2440944881889764,
          "duration": 0.05813953488370771
        },
        {
          "name": "G#4",
          "midi": 68,
          "time": 222.16279069763664,
          "velocity": 0.25196850393700787,
          "duration": 0.05813953488370771
        },
        {
          "name": "F2",
          "midi": 41,
          "time": 222.17441860461338,
          "velocity": 0.3464566929133858,
          "duration": 0.034883720930224626
        },
        {
          "name": "D5",
          "midi": 74,
          "time": 222.17441860461338,
          "velocity": 0.2204724409448819,
          "duration": 0.034883720930224626
        },
        {
          "name": "E5",
          "midi": 76,
          "time": 222.18604651159012,
          "velocity": 0.14173228346456693,
          "duration": 0.06976744186044925
        },
        {
          "name": "E3",
          "midi": 52,
          "time": 222.2093023255436,
          "velocity": 0.3543307086614173,
          "duration": 0.023255813953483084
        },
        {
          "name": "F#4",
          "midi": 66,
          "time": 222.2093023255436,
          "velocity": 0.2677165354330709,
          "duration": 0.023255813953483084
        },
        {
          "name": "A6",
          "midi": 93,
          "time": 222.2093023255436,
          "velocity": 0.13385826771653545,
          "duration": 0.05813953488370771
        },
        {
          "name": "A#6",
          "midi": 94,
          "time": 222.2093023255436,
          "velocity": 0.14960629921259844,
          "duration": 0.11627906976741542
        },
        {
          "name": "B3",
          "midi": 59,
          "time": 222.22093023252035,
          "velocity": 0.2125984251968504,
          "duration": 0.034883720930224626
        },
        {
          "name": "F#6",
          "midi": 90,
          "time": 222.22093023252035,
          "velocity": 0.36220472440944884,
          "duration": 0.37209302325572935
        },
        {
          "name": "F4",
          "midi": 65,
          "time": 222.2325581394971,
          "velocity": 0.2677165354330709,
          "duration": 0.034883720930224626
        },
        {
          "name": "C#7",
          "midi": 97,
          "time": 222.2325581394971,
          "velocity": 0.2992125984251969,
          "duration": 0.3372093023255047
        },
        {
          "name": "E3",
          "midi": 52,
          "time": 222.24418604647383,
          "velocity": 0.3464566929133858,
          "duration": 0.034883720930224626
        },
        {
          "name": "B4",
          "midi": 71,
          "time": 222.24418604647383,
          "velocity": 0.2125984251968504,
          "duration": 0.034883720930224626
        },
        {
          "name": "C7",
          "midi": 96,
          "time": 222.24418604647383,
          "velocity": 0.1732283464566929,
          "duration": 0.11627906976741542
        },
        {
          "name": "C4",
          "midi": 60,
          "time": 222.25581395345057,
          "velocity": 0.18110236220472442,
          "duration": 0.034883720930224626
        },
        {
          "name": "D5",
          "midi": 74,
          "time": 222.25581395345057,
          "velocity": 0.2755905511811024,
          "duration": 0.05813953488370771
        },
        {
          "name": "F#4",
          "midi": 66,
          "time": 222.2674418604273,
          "velocity": 0.33858267716535434,
          "duration": 0.20930232558134776
        },
        {
          "name": "F5",
          "midi": 77,
          "time": 222.2674418604273,
          "velocity": 0.23622047244094488,
          "duration": 0.034883720930224626
        },
        {
          "name": "C#6",
          "midi": 85,
          "time": 222.2674418604273,
          "velocity": 0.07874015748031496,
          "duration": 0.05813953488370771
        },
        {
          "name": "E6",
          "midi": 88,
          "time": 222.2674418604273,
          "velocity": 0.14173228346456693,
          "duration": 0.06976744186044925
        },
        {
          "name": "A4",
          "midi": 69,
          "time": 222.27906976740405,
          "velocity": 0.25984251968503935,
          "duration": 0.05813953488370771
        },
        {
          "name": "F#5",
          "midi": 78,
          "time": 222.2906976743808,
          "velocity": 0.5511811023622047,
          "duration": 0.29069767441853855
        },
        {
          "name": "D#3",
          "midi": 51,
          "time": 222.30232558135754,
          "velocity": 0.33858267716535434,
          "duration": 0.023255813953483084
        },
        {
          "name": "C#4",
          "midi": 61,
          "time": 222.30232558135754,
          "velocity": 0.23622047244094488,
          "duration": 0.034883720930224626
        },
        {
          "name": "B5",
          "midi": 83,
          "time": 222.30232558135754,
          "velocity": 0.11811023622047244,
          "duration": 0.034883720930224626
        },
        {
          "name": "G3",
          "midi": 55,
          "time": 222.32558139531102,
          "velocity": 0.2755905511811024,
          "duration": 0.034883720930224626
        },
        {
          "name": "D6",
          "midi": 86,
          "time": 222.32558139531102,
          "velocity": 0.09448818897637795,
          "duration": 0.05813953488370771
        },
        {
          "name": "E5",
          "midi": 76,
          "time": 222.33720930228776,
          "velocity": 0.2283464566929134,
          "duration": 0.18604651162786467
        },
        {
          "name": "G6",
          "midi": 91,
          "time": 222.33720930228776,
          "velocity": 0.2125984251968504,
          "duration": 0.17441860465112313
        },
        {
          "name": "F2",
          "midi": 41,
          "time": 222.3488372092645,
          "velocity": 0.33858267716535434,
          "duration": 0.023255813953483084
        },
        {
          "name": "B4",
          "midi": 71,
          "time": 222.3488372092645,
          "velocity": 0.2755905511811024,
          "duration": 0.1395348837208985
        },
        {
          "name": "D3",
          "midi": 50,
          "time": 222.36046511624124,
          "velocity": 0.5118110236220472,
          "duration": 0.11627906976741542
        },
        {
          "name": "A3",
          "midi": 57,
          "time": 222.37209302321799,
          "velocity": 0.23622047244094488,
          "duration": 0.05813953488370771
        },
        {
          "name": "A4",
          "midi": 69,
          "time": 222.38372093019473,
          "velocity": 0.2755905511811024,
          "duration": 0.09302325581393234
        },
        {
          "name": "C7",
          "midi": 96,
          "time": 222.38372093019473,
          "velocity": 0.09448818897637795,
          "duration": 0.05813953488370771
        },
        {
          "name": "F7",
          "midi": 101,
          "time": 222.4069767441482,
          "velocity": 0.12598425196850394,
          "duration": 0.04651162790696617
        },
        {
          "name": "E7",
          "midi": 100,
          "time": 222.4302325581017,
          "velocity": 0.30708661417322836,
          "duration": 1.3604651162787604
        },
        {
          "name": "A2",
          "midi": 45,
          "time": 222.4883720929854,
          "velocity": 0.5826771653543307,
          "duration": 0.034883720930224626
        },
        {
          "name": "F#4",
          "midi": 66,
          "time": 222.4883720929854,
          "velocity": 0.3543307086614173,
          "duration": 0.10465116279067388
        },
        {
          "name": "A#6",
          "midi": 94,
          "time": 222.4883720929854,
          "velocity": 0.2047244094488189,
          "duration": 0.06976744186044925
        },
        {
          "name": "C#4",
          "midi": 61,
          "time": 222.49999999996214,
          "velocity": 0.3937007874015748,
          "duration": 0.04651162790696617
        },
        {
          "name": "B5",
          "midi": 83,
          "time": 222.49999999996214,
          "velocity": 0.11811023622047244,
          "duration": 0.05813953488370771
        },
        {
          "name": "F7",
          "midi": 101,
          "time": 222.49999999996214,
          "velocity": 0.11811023622047244,
          "duration": 0.04651162790696617
        },
        {
          "name": "A#4",
          "midi": 70,
          "time": 222.51162790693888,
          "velocity": 0.15748031496062992,
          "duration": 0.04651162790696617
        },
        {
          "name": "C5",
          "midi": 72,
          "time": 222.51162790693888,
          "velocity": 0.2677165354330709,
          "duration": 0.20930232558134776
        },
        {
          "name": "A#2",
          "midi": 46,
          "time": 222.52325581391563,
          "velocity": 0.5590551181102362,
          "duration": 0.011627906976741542
        },
        {
          "name": "D#5",
          "midi": 75,
          "time": 222.52325581391563,
          "velocity": 0.30708661417322836,
          "duration": 0.034883720930224626
        },
        {
          "name": "A6",
          "midi": 93,
          "time": 222.52325581391563,
          "velocity": 0.07874015748031496,
          "duration": 0.034883720930224626
        },
        {
          "name": "B6",
          "midi": 95,
          "time": 222.52325581391563,
          "velocity": 0.4094488188976378,
          "duration": 1.8139534883716806
        },
        {
          "name": "C3",
          "midi": 48,
          "time": 222.53488372089237,
          "velocity": 0.5669291338582677,
          "duration": 0.023255813953483084
        },
        {
          "name": "D5",
          "midi": 74,
          "time": 222.53488372089237,
          "velocity": 0.12598425196850394,
          "duration": 0.034883720930224626
        },
        {
          "name": "C#3",
          "midi": 49,
          "time": 222.55813953484585,
          "velocity": 0.5669291338582677,
          "duration": 0.023255813953483084
        },
        {
          "name": "E5",
          "midi": 76,
          "time": 222.55813953484585,
          "velocity": 0.47244094488188976,
          "duration": 0.37209302325572935
        },
        {
          "name": "F2",
          "midi": 41,
          "time": 222.5697674418226,
          "velocity": 0.4881889763779528,
          "duration": 0.034883720930224626
        },
        {
          "name": "G3",
          "midi": 55,
          "time": 222.5697674418226,
          "velocity": 0.4409448818897638,
          "duration": 0.06976744186044925
        },
        {
          "name": "G5",
          "midi": 79,
          "time": 222.5697674418226,
          "velocity": 0.14173228346456693,
          "duration": 0.034883720930224626
        },
        {
          "name": "C3",
          "midi": 48,
          "time": 222.58139534879933,
          "velocity": 0.5590551181102362,
          "duration": 0.011627906976741542
        },
        {
          "name": "C#3",
          "midi": 49,
          "time": 222.59302325577607,
          "velocity": 0.5748031496062992,
          "duration": 0.011627906976741542
        },
        {
          "name": "C4",
          "midi": 60,
          "time": 222.59302325577607,
          "velocity": 0.23622047244094488,
          "duration": 0.023255813953483084
        },
        {
          "name": "C3",
          "midi": 48,
          "time": 222.60465116275282,
          "velocity": 0.5511811023622047,
          "duration": 0.023255813953483084
        },
        {
          "name": "F#5",
          "midi": 78,
          "time": 222.60465116275282,
          "velocity": 0.2283464566929134,
          "duration": 0.1627906976743816
        },
        {
          "name": "A4",
          "midi": 69,
          "time": 222.6279069767063,
          "velocity": 0.1889763779527559,
          "duration": 0.034883720930224626
        },
        {
          "name": "E4",
          "midi": 64,
          "time": 222.63953488368304,
          "velocity": 0.25196850393700787,
          "duration": 0.0813953488371908
        },
        {
          "name": "C4",
          "midi": 60,
          "time": 222.65116279065978,
          "velocity": 0.3779527559055118,
          "duration": 0.10465116279067388
        },
        {
          "name": "G6",
          "midi": 91,
          "time": 222.67441860461327,
          "velocity": 0.12598425196850394,
          "duration": 0.05813953488370771
        },
        {
          "name": "F7",
          "midi": 101,
          "time": 222.68604651159,
          "velocity": 0.07086614173228346,
          "duration": 0.034883720930224626
        },
        {
          "name": "F#7",
          "midi": 102,
          "time": 222.68604651159,
          "velocity": 0.10236220472440945,
          "duration": 0.034883720930224626
        },
        {
          "name": "A2",
          "midi": 45,
          "time": 222.69767441856675,
          "velocity": 0.5905511811023622,
          "duration": 0.04651162790696617
        },
        {
          "name": "G#6",
          "midi": 92,
          "time": 222.69767441856675,
          "velocity": 0.07874015748031496,
          "duration": 0.034883720930224626
        },
        {
          "name": "D5",
          "midi": 74,
          "time": 222.7093023255435,
          "velocity": 0.4409448818897638,
          "duration": 0.406976744185954
        },
        {
          "name": "C#7",
          "midi": 97,
          "time": 222.7093023255435,
          "velocity": 0.14173228346456693,
          "duration": 0.04651162790696617
        },
        {
          "name": "D7",
          "midi": 98,
          "time": 222.72093023252023,
          "velocity": 0.11023622047244094,
          "duration": 0.06976744186044925
        },
        {
          "name": "B5",
          "midi": 83,
          "time": 222.73255813949697,
          "velocity": 0.14173228346456693,
          "duration": 0.09302325581393234
        },
        {
          "name": "B2",
          "midi": 47,
          "time": 222.74418604647371,
          "velocity": 0.5826771653543307,
          "duration": 0.023255813953483084
        },
        {
          "name": "D#7",
          "midi": 99,
          "time": 222.74418604647371,
          "velocity": 0.14173228346456693,
          "duration": 0.05813953488370771
        },
        {
          "name": "C3",
          "midi": 48,
          "time": 222.7674418604272,
          "velocity": 0.5748031496062992,
          "duration": 0.011627906976741542
        },
        {
          "name": "E4",
          "midi": 64,
          "time": 222.7674418604272,
          "velocity": 0.25196850393700787,
          "duration": 0.0813953488371908
        },
        {
          "name": "C#3",
          "midi": 49,
          "time": 222.77906976740394,
          "velocity": 0.5669291338582677,
          "duration": 0.011627906976741542
        },
        {
          "name": "G4",
          "midi": 67,
          "time": 222.77906976740394,
          "velocity": 0.3937007874015748,
          "duration": 0.1395348837208985
        },
        {
          "name": "C3",
          "midi": 48,
          "time": 222.79069767438068,
          "velocity": 0.5748031496062992,
          "duration": 0.023255813953483084
        },
        {
          "name": "F2",
          "midi": 41,
          "time": 222.80232558135742,
          "velocity": 0.5118110236220472,
          "duration": 0.011627906976741542
        },
        {
          "name": "G3",
          "midi": 55,
          "time": 222.80232558135742,
          "velocity": 0.47244094488188976,
          "duration": 0.10465116279067388
        },
        {
          "name": "C#3",
          "midi": 49,
          "time": 222.81395348833416,
          "velocity": 0.5905511811023622,
          "duration": 0.011627906976741542
        },
        {
          "name": "F#7",
          "midi": 102,
          "time": 222.81395348833416,
          "velocity": 0.07086614173228346,
          "duration": 0.04651162790696617
        },
        {
          "name": "C3",
          "midi": 48,
          "time": 222.8255813953109,
          "velocity": 0.5826771653543307,
          "duration": 0.05813953488370771
        },
        {
          "name": "B4",
          "midi": 71,
          "time": 222.8488372092644,
          "velocity": 0.14960629921259844,
          "duration": 0.034883720930224626
        },
        {
          "name": "E4",
          "midi": 64,
          "time": 222.86046511624113,
          "velocity": 0.1968503937007874,
          "duration": 0.04651162790696617
        },
        {
          "name": "B2",
          "midi": 47,
          "time": 222.8837209301946,
          "velocity": 0.5039370078740157,
          "duration": 0.023255813953483084
        },
        {
          "name": "F#5",
          "midi": 78,
          "time": 222.9069767441481,
          "velocity": 0.23622047244094488,
          "duration": 0.04651162790696617
        },
        {
          "name": "C#7",
          "midi": 97,
          "time": 222.9069767441481,
          "velocity": 0.2125984251968504,
          "duration": 0.3372093023255047
        },
        {
          "name": "A#3",
          "midi": 58,
          "time": 222.91860465112484,
          "velocity": 0.47244094488188976,
          "duration": 0.034883720930224626
        },
        {
          "name": "A5",
          "midi": 81,
          "time": 222.91860465112484,
          "velocity": 0.30708661417322836,
          "duration": 0.3604651162789878
        },
        {
          "name": "A#6",
          "midi": 94,
          "time": 222.91860465112484,
          "velocity": 0.10236220472440945,
          "duration": 0.04651162790696617
        },
        {
          "name": "D7",
          "midi": 98,
          "time": 222.91860465112484,
          "velocity": 0.1889763779527559,
          "duration": 0.0813953488371908
        },
        {
          "name": "C3",
          "midi": 48,
          "time": 222.93023255810158,
          "velocity": 0.4015748031496063,
          "duration": 0.023255813953483084
        },
        {
          "name": "G4",
          "midi": 67,
          "time": 222.93023255810158,
          "velocity": 0.4015748031496063,
          "duration": 0.19767441860460622
        },
        {
          "name": "F#7",
          "midi": 102,
          "time": 222.93023255810158,
          "velocity": 0.14960629921259844,
          "duration": 0.17441860465112313
        },
        {
          "name": "B4",
          "midi": 71,
          "time": 222.94186046507832,
          "velocity": 0.2440944881889764,
          "duration": 0.023255813953483084
        },
        {
          "name": "E5",
          "midi": 76,
          "time": 222.94186046507832,
          "velocity": 0.4409448818897638,
          "duration": 0.5348837209301109
        },
        {
          "name": "G6",
          "midi": 91,
          "time": 222.94186046507832,
          "velocity": 0.10236220472440945,
          "duration": 0.12790697674415696
        },
        {
          "name": "F7",
          "midi": 101,
          "time": 222.94186046507832,
          "velocity": 0.08661417322834646,
          "duration": 0.05813953488370771
        },
        {
          "name": "D4",
          "midi": 62,
          "time": 222.95348837205506,
          "velocity": 0.2677165354330709,
          "duration": 0.023255813953483084
        },
        {
          "name": "C6",
          "midi": 84,
          "time": 222.95348837205506,
          "velocity": 0.14173228346456693,
          "duration": 0.034883720930224626
        },
        {
          "name": "G#3",
          "midi": 56,
          "time": 222.9651162790318,
          "velocity": 0.3700787401574803,
          "duration": 0.023255813953483084
        },
        {
          "name": "A#4",
          "midi": 70,
          "time": 222.9651162790318,
          "velocity": 0.2755905511811024,
          "duration": 0.1627906976743816
        },
        {
          "name": "D#7",
          "midi": 99,
          "time": 222.9651162790318,
          "velocity": 0.11811023622047244,
          "duration": 0.0813953488371908
        },
        {
          "name": "E4",
          "midi": 64,
          "time": 222.97674418600855,
          "velocity": 0.30708661417322836,
          "duration": 0.17441860465112313
        },
        {
          "name": "G3",
          "midi": 55,
          "time": 222.9883720929853,
          "velocity": 0.25984251968503935,
          "duration": 0.023255813953483084
        },
        {
          "name": "G#6",
          "midi": 92,
          "time": 222.9883720929853,
          "velocity": 0.09448818897637795,
          "duration": 0.06976744186044925
        },
        {
          "name": "C3",
          "midi": 48,
          "time": 222.99999999996203,
          "velocity": 0.4015748031496063,
          "duration": 0.023255813953483084
        },
        {
          "name": "F#5",
          "midi": 78,
          "time": 223.01162790693877,
          "velocity": 0.14960629921259844,
          "duration": 0.0813953488371908
        },
        {
          "name": "C#3",
          "midi": 49,
          "time": 223.0232558139155,
          "velocity": 0.4330708661417323,
          "duration": 0.023255813953483084
        },
        {
          "name": "F7",
          "midi": 101,
          "time": 223.0232558139155,
          "velocity": 0.11811023622047244,
          "duration": 0.034883720930224626
        },
        {
          "name": "D7",
          "midi": 98,
          "time": 223.03488372089225,
          "velocity": 0.12598425196850394,
          "duration": 0.034883720930224626
        },
        {
          "name": "C3",
          "midi": 48,
          "time": 223.046511627869,
          "velocity": 0.4330708661417323,
          "duration": 0.06976744186044925
        },
        {
          "name": "C5",
          "midi": 72,
          "time": 223.046511627869,
          "velocity": 0.1889763779527559,
          "duration": 0.12790697674415696
        },
        {
          "name": "C7",
          "midi": 96,
          "time": 223.05813953484574,
          "velocity": 0.14173228346456693,
          "duration": 0.1627906976743816
        },
        {
          "name": "G#6",
          "midi": 92,
          "time": 223.08139534879922,
          "velocity": 0.13385826771653545,
          "duration": 0.12790697674415696
        },
        {
          "name": "G3",
          "midi": 55,
          "time": 223.09302325577596,
          "velocity": 0.3228346456692913,
          "duration": 0.04651162790696617
        },
        {
          "name": "B5",
          "midi": 83,
          "time": 223.09302325577596,
          "velocity": 0.2047244094488189,
          "duration": 0.2209302325580893
        },
        {
          "name": "D7",
          "midi": 98,
          "time": 223.1046511627527,
          "velocity": 0.1968503937007874,
          "duration": 0.11627906976741542
        },
        {
          "name": "C#3",
          "midi": 49,
          "time": 223.11627906972944,
          "velocity": 0.41732283464566927,
          "duration": 0.023255813953483084
        },
        {
          "name": "D5",
          "midi": 74,
          "time": 223.12790697670619,
          "velocity": 0.23622047244094488,
          "duration": 0.2209302325580893
        },
        {
          "name": "G5",
          "midi": 79,
          "time": 223.12790697670619,
          "velocity": 0.18110236220472442,
          "duration": 0.04651162790696617
        },
        {
          "name": "C3",
          "midi": 48,
          "time": 223.13953488368293,
          "velocity": 0.5354330708661418,
          "duration": 0.011627906976741542
        },
        {
          "name": "F#7",
          "midi": 102,
          "time": 223.13953488368293,
          "velocity": 0.13385826771653545,
          "duration": 0.034883720930224626
        },
        {
          "name": "A2",
          "midi": 45,
          "time": 223.15116279065967,
          "velocity": 0.5669291338582677,
          "duration": 0.011627906976741542
        },
        {
          "name": "G4",
          "midi": 67,
          "time": 223.15116279065967,
          "velocity": 0.5354330708661418,
          "duration": 0.6744186046510094
        },
        {
          "name": "D#7",
          "midi": 99,
          "time": 223.15116279065967,
          "velocity": 0.14173228346456693,
          "duration": 0.06976744186044925
        },
        {
          "name": "E4",
          "midi": 64,
          "time": 223.1627906976364,
          "velocity": 0.2440944881889764,
          "duration": 0.023255813953483084
        },
        {
          "name": "G#3",
          "midi": 56,
          "time": 223.17441860461315,
          "velocity": 0.3937007874015748,
          "duration": 0.034883720930224626
        },
        {
          "name": "D3",
          "midi": 50,
          "time": 223.19767441856663,
          "velocity": 0.5433070866141733,
          "duration": 0.011627906976741542
        },
        {
          "name": "E4",
          "midi": 64,
          "time": 223.19767441856663,
          "velocity": 0.2992125984251969,
          "duration": 0.19767441860460622
        },
        {
          "name": "C#3",
          "midi": 49,
          "time": 223.20930232554338,
          "velocity": 0.5275590551181102,
          "duration": 0.011627906976741542
        },
        {
          "name": "G3",
          "midi": 55,
          "time": 223.20930232554338,
          "velocity": 0.47244094488188976,
          "duration": 0.05813953488370771
        },
        {
          "name": "C3",
          "midi": 48,
          "time": 223.22093023252012,
          "velocity": 0.49606299212598426,
          "duration": 0.05813953488370771
        },
        {
          "name": "D7",
          "midi": 98,
          "time": 223.25581395345034,
          "velocity": 0.10236220472440945,
          "duration": 0.05813953488370771
        },
        {
          "name": "C5",
          "midi": 72,
          "time": 223.29069767438057,
          "velocity": 0.13385826771653545,
          "duration": 0.06976744186044925
        },
        {
          "name": "C4",
          "midi": 60,
          "time": 223.3023255813573,
          "velocity": 0.2283464566929134,
          "duration": 0.05813953488370771
        },
        {
          "name": "C3",
          "midi": 48,
          "time": 223.3255813953108,
          "velocity": 0.2755905511811024,
          "duration": 0.023255813953483084
        },
        {
          "name": "G#6",
          "midi": 92,
          "time": 223.3255813953108,
          "velocity": 0.09448818897637795,
          "duration": 0.034883720930224626
        },
        {
          "name": "C7",
          "midi": 96,
          "time": 223.34883720926427,
          "velocity": 0.12598425196850394,
          "duration": 0.10465116279067388
        },
        {
          "name": "D#7",
          "midi": 99,
          "time": 223.34883720926427,
          "velocity": 0.10236220472440945,
          "duration": 0.034883720930224626
        },
        {
          "name": "F#7",
          "midi": 102,
          "time": 223.34883720926427,
          "velocity": 0.11023622047244094,
          "duration": 0.04651162790696617
        },
        {
          "name": "G#2",
          "midi": 44,
          "time": 223.36046511624102,
          "velocity": 0.5826771653543307,
          "duration": 0.023255813953483084
        },
        {
          "name": "C#7",
          "midi": 97,
          "time": 223.36046511624102,
          "velocity": 0.16535433070866143,
          "duration": 0.06976744186044925
        },
        {
          "name": "D7",
          "midi": 98,
          "time": 223.36046511624102,
          "velocity": 0.12598425196850394,
          "duration": 0.05813953488370771
        },
        {
          "name": "B2",
          "midi": 47,
          "time": 223.3837209301945,
          "velocity": 0.5669291338582677,
          "duration": 0.023255813953483084
        },
        {
          "name": "C#4",
          "midi": 61,
          "time": 223.3837209301945,
          "velocity": 0.3937007874015748,
          "duration": 0.023255813953483084
        },
        {
          "name": "C5",
          "midi": 72,
          "time": 223.3837209301945,
          "velocity": 0.2992125984251969,
          "duration": 0.37209302325572935
        },
        {
          "name": "C3",
          "midi": 48,
          "time": 223.40697674414798,
          "velocity": 0.5826771653543307,
          "duration": 0.011627906976741542
        },
        {
          "name": "E4",
          "midi": 64,
          "time": 223.40697674414798,
          "velocity": 0.1968503937007874,
          "duration": 0.09302325581393234
        },
        {
          "name": "D#7",
          "midi": 99,
          "time": 223.40697674414798,
          "velocity": 0.07086614173228346,
          "duration": 0.034883720930224626
        },
        {
          "name": "F#7",
          "midi": 102,
          "time": 223.40697674414798,
          "velocity": 0.11811023622047244,
          "duration": 0.06976744186044925
        },
        {
          "name": "C#3",
          "midi": 49,
          "time": 223.41860465112472,
          "velocity": 0.5905511811023622,
          "duration": 0.011627906976741542
        },
        {
          "name": "G3",
          "midi": 55,
          "time": 223.41860465112472,
          "velocity": 0.5039370078740157,
          "duration": 0.12790697674415696
        },
        {
          "name": "C3",
          "midi": 48,
          "time": 223.43023255810147,
          "velocity": 0.5905511811023622,
          "duration": 0.023255813953483084
        },
        {
          "name": "C#3",
          "midi": 49,
          "time": 223.45348837205495,
          "velocity": 0.5748031496062992,
          "duration": 0.011627906976741542
        },
        {
          "name": "C3",
          "midi": 48,
          "time": 223.4651162790317,
          "velocity": 0.6220472440944882,
          "duration": 0.09302325581393234
        },
        {
          "name": "B5",
          "midi": 83,
          "time": 223.4651162790317,
          "velocity": 0.15748031496062992,
          "duration": 0.06976744186044925
        },
        {
          "name": "E5",
          "midi": 76,
          "time": 223.48837209298517,
          "velocity": 0.28346456692913385,
          "duration": 0.06976744186044925
        },
        {
          "name": "E4",
          "midi": 64,
          "time": 223.51162790693866,
          "velocity": 0.3464566929133858,
          "duration": 0.06976744186044925
        },
        {
          "name": "F#3",
          "midi": 54,
          "time": 223.54651162786888,
          "velocity": 0.47244094488188976,
          "duration": 0.034883720930224626
        },
        {
          "name": "B2",
          "midi": 47,
          "time": 223.55813953484562,
          "velocity": 0.5669291338582677,
          "duration": 0.011627906976741542
        },
        {
          "name": "G#6",
          "midi": 92,
          "time": 223.55813953484562,
          "velocity": 0.11023622047244094,
          "duration": 0.034883720930224626
        },
        {
          "name": "C3",
          "midi": 48,
          "time": 223.56976744182236,
          "velocity": 0.5590551181102362,
          "duration": 0.011627906976741542
        },
        {
          "name": "D5",
          "midi": 74,
          "time": 223.56976744182236,
          "velocity": 0.2992125984251969,
          "duration": 0.05813953488370771
        },
        {
          "name": "E5",
          "midi": 76,
          "time": 223.56976744182236,
          "velocity": 0.4251968503937008,
          "duration": 0.43023255813943706
        },
        {
          "name": "A#2",
          "midi": 46,
          "time": 223.5813953487991,
          "velocity": 0.6220472440944882,
          "duration": 0.023255813953483084
        },
        {
          "name": "D7",
          "midi": 98,
          "time": 223.5813953487991,
          "velocity": 0.28346456692913385,
          "duration": 0.558139534883594
        },
        {
          "name": "F#7",
          "midi": 102,
          "time": 223.5813953487991,
          "velocity": 0.18110236220472442,
          "duration": 0.17441860465112313
        },
        {
          "name": "C#7",
          "midi": 97,
          "time": 223.59302325577585,
          "velocity": 0.2047244094488189,
          "duration": 0.4999999999998863
        },
        {
          "name": "B2",
          "midi": 47,
          "time": 223.6046511627526,
          "velocity": 0.5826771653543307,
          "duration": 0.011627906976741542
        },
        {
          "name": "G3",
          "midi": 55,
          "time": 223.6046511627526,
          "velocity": 0.3228346456692913,
          "duration": 0.023255813953483084
        },
        {
          "name": "C4",
          "midi": 60,
          "time": 223.6046511627526,
          "velocity": 0.33070866141732286,
          "duration": 0.15116279069764005
        },
        {
          "name": "A#4",
          "midi": 70,
          "time": 223.6046511627526,
          "velocity": 0.2047244094488189,
          "duration": 0.15116279069764005
        },
        {
          "name": "C7",
          "midi": 96,
          "time": 223.6046511627526,
          "velocity": 0.14173228346456693,
          "duration": 0.18604651162786467
        },
        {
          "name": "C3",
          "midi": 48,
          "time": 223.61627906972933,
          "velocity": 0.5826771653543307,
          "duration": 0.011627906976741542
        },
        {
          "name": "E4",
          "midi": 64,
          "time": 223.61627906972933,
          "velocity": 0.31496062992125984,
          "duration": 0.15116279069764005
        },
        {
          "name": "C2",
          "midi": 36,
          "time": 223.65116279065955,
          "velocity": 0.4251968503937008,
          "duration": 0.04651162790696617
        },
        {
          "name": "D#7",
          "midi": 99,
          "time": 223.65116279065955,
          "velocity": 0.11023622047244094,
          "duration": 0.05813953488370771
        },
        {
          "name": "C3",
          "midi": 48,
          "time": 223.6627906976363,
          "velocity": 0.44881889763779526,
          "duration": 0.06976744186044925
        },
        {
          "name": "D5",
          "midi": 74,
          "time": 223.67441860461304,
          "velocity": 0.4015748031496063,
          "duration": 0.3023255813952801
        },
        {
          "name": "B5",
          "midi": 83,
          "time": 223.67441860461304,
          "velocity": 0.13385826771653545,
          "duration": 0.05813953488370771
        },
        {
          "name": "F7",
          "midi": 101,
          "time": 223.67441860461304,
          "velocity": 0.13385826771653545,
          "duration": 0.05813953488370771
        },
        {
          "name": "G3",
          "midi": 55,
          "time": 223.72093023252,
          "velocity": 0.41732283464566927,
          "duration": 0.05813953488370771
        },
        {
          "name": "C3",
          "midi": 48,
          "time": 223.7441860464735,
          "velocity": 0.4645669291338583,
          "duration": 0.05813953488370771
        },
        {
          "name": "F#6",
          "midi": 90,
          "time": 223.7441860464735,
          "velocity": 0.18110236220472442,
          "duration": 0.06976744186044925
        },
        {
          "name": "B4",
          "midi": 71,
          "time": 223.75581395345023,
          "velocity": 0.2283464566929134,
          "duration": 0.023255813953483084
        },
        {
          "name": "A#5",
          "midi": 82,
          "time": 223.76744186042697,
          "velocity": 0.23622047244094488,
          "duration": 0.023255813953483084
        },
        {
          "name": "C#2",
          "midi": 37,
          "time": 223.7790697674037,
          "velocity": 0.3779527559055118,
          "duration": 0.034883720930224626
        },
        {
          "name": "B5",
          "midi": 83,
          "time": 223.7790697674037,
          "velocity": 0.25984251968503935,
          "duration": 0.0813953488371908
        },
        {
          "name": "D#6",
          "midi": 87,
          "time": 223.7790697674037,
          "velocity": 0.11811023622047244,
          "duration": 0.05813953488370771
        },
        {
          "name": "A6",
          "midi": 93,
          "time": 223.7790697674037,
          "velocity": 0.08661417322834646,
          "duration": 0.034883720930224626
        },
        {
          "name": "F#7",
          "midi": 102,
          "time": 223.7790697674037,
          "velocity": 0.2204724409448819,
          "duration": 0.279069767441797
        },
        {
          "name": "G7",
          "midi": 103,
          "time": 223.7790697674037,
          "velocity": 0.13385826771653545,
          "duration": 0.034883720930224626
        },
        {
          "name": "D#4",
          "midi": 63,
          "time": 223.79069767438045,
          "velocity": 0.2755905511811024,
          "duration": 0.034883720930224626
        },
        {
          "name": "A5",
          "midi": 81,
          "time": 223.79069767438045,
          "velocity": 0.33070866141732286,
          "duration": 0.23255813953483084
        },
        {
          "name": "F7",
          "midi": 101,
          "time": 223.79069767438045,
          "velocity": 0.2047244094488189,
          "duration": 0.24418604651157239
        },
        {
          "name": "C4",
          "midi": 60,
          "time": 223.8023255813572,
          "velocity": 0.3779527559055118,
          "duration": 0.05813953488370771
        },
        {
          "name": "E7",
          "midi": 100,
          "time": 223.8023255813572,
          "velocity": 0.1889763779527559,
          "duration": 0.04651162790696617
        },
        {
          "name": "A#4",
          "midi": 70,
          "time": 223.81395348833394,
          "velocity": 0.2440944881889764,
          "duration": 0.023255813953483084
        },
        {
          "name": "C7",
          "midi": 96,
          "time": 223.81395348833394,
          "velocity": 0.23622047244094488,
          "duration": 0.3023255813952801
        },
        {
          "name": "D#7",
          "midi": 99,
          "time": 223.82558139531068,
          "velocity": 0.1968503937007874,
          "duration": 0.20930232558134776
        },
        {
          "name": "G#2",
          "midi": 44,
          "time": 223.83720930228742,
          "velocity": 0.5118110236220472,
          "duration": 0.011627906976741542
        },
        {
          "name": "G4",
          "midi": 67,
          "time": 223.83720930228742,
          "velocity": 0.28346456692913385,
          "duration": 0.023255813953483084
        },
        {
          "name": "F#6",
          "midi": 90,
          "time": 223.83720930228742,
          "velocity": 0.14960629921259844,
          "duration": 0.11627906976741542
        },
        {
          "name": "A#4",
          "midi": 70,
          "time": 223.84883720926416,
          "velocity": 0.1732283464566929,
          "duration": 0.034883720930224626
        },
        {
          "name": "G4",
          "midi": 67,
          "time": 223.87209302321764,
          "velocity": 0.30708661417322836,
          "duration": 0.12790697674415696
        },
        {
          "name": "F#2",
          "midi": 42,
          "time": 223.8837209301944,
          "velocity": 0.3228346456692913,
          "duration": 0.034883720930224626
        },
        {
          "name": "A#3",
          "midi": 58,
          "time": 223.8837209301944,
          "velocity": 0.2283464566929134,
          "duration": 0.04651162790696617
        },
        {
          "name": "D#3",
          "midi": 51,
          "time": 223.89534883717113,
          "velocity": 0.2440944881889764,
          "duration": 0.023255813953483084
        },
        {
          "name": "A#6",
          "midi": 94,
          "time": 223.89534883717113,
          "velocity": 0.08661417322834646,
          "duration": 0.05813953488370771
        },
        {
          "name": "E4",
          "midi": 64,
          "time": 223.9186046511246,
          "velocity": 0.2125984251968504,
          "duration": 0.04651162790696617
        },
        {
          "name": "C5",
          "midi": 72,
          "time": 223.9186046511246,
          "velocity": 0.1968503937007874,
          "duration": 0.04651162790696617
        },
        {
          "name": "G3",
          "midi": 55,
          "time": 223.93023255810135,
          "velocity": 0.2125984251968504,
          "duration": 0.034883720930224626
        },
        {
          "name": "B5",
          "midi": 83,
          "time": 223.93023255810135,
          "velocity": 0.2440944881889764,
          "duration": 0.31395348837202164
        },
        {
          "name": "G#2",
          "midi": 44,
          "time": 223.9418604650781,
          "velocity": 0.31496062992125984,
          "duration": 0.023255813953483084
        },
        {
          "name": "C4",
          "midi": 60,
          "time": 223.96511627903158,
          "velocity": 0.2992125984251969,
          "duration": 0.0813953488371908
        },
        {
          "name": "C#2",
          "midi": 37,
          "time": 223.97674418600832,
          "velocity": 0.5118110236220472,
          "duration": 0.023255813953483084
        },
        {
          "name": "A#6",
          "midi": 94,
          "time": 223.97674418600832,
          "velocity": 0.08661417322834646,
          "duration": 0.034883720930224626
        },
        {
          "name": "D5",
          "midi": 74,
          "time": 223.98837209298506,
          "velocity": 0.23622047244094488,
          "duration": 0.20930232558134776
        },
        {
          "name": "G#6",
          "midi": 92,
          "time": 223.98837209298506,
          "velocity": 0.11811023622047244,
          "duration": 0.05813953488370771
        },
        {
          "name": "E4",
          "midi": 64,
          "time": 223.9999999999618,
          "velocity": 0.28346456692913385,
          "duration": 0.023255813953483084
        },
        {
          "name": "G5",
          "midi": 79,
          "time": 223.9999999999618,
          "velocity": 0.1889763779527559,
          "duration": 0.10465116279067388
        },
        {
          "name": "F#6",
          "midi": 90,
          "time": 223.9999999999618,
          "velocity": 0.23622047244094488,
          "duration": 0.15116279069764005
        },
        {
          "name": "G4",
          "midi": 67,
          "time": 224.01162790693854,
          "velocity": 0.33070866141732286,
          "duration": 0.18604651162786467
        },
        {
          "name": "G7",
          "midi": 103,
          "time": 224.01162790693854,
          "velocity": 0.11023622047244094,
          "duration": 0.0813953488371908
        },
        {
          "name": "F2",
          "midi": 41,
          "time": 224.02325581391528,
          "velocity": 0.4566929133858268,
          "duration": 0.023255813953483084
        },
        {
          "name": "D3",
          "midi": 50,
          "time": 224.03488372089203,
          "velocity": 0.36220472440944884,
          "duration": 0.023255813953483084
        },
        {
          "name": "G#3",
          "midi": 56,
          "time": 224.03488372089203,
          "velocity": 0.31496062992125984,
          "duration": 0.023255813953483084
        },
        {
          "name": "A#4",
          "midi": 70,
          "time": 224.04651162786877,
          "velocity": 0.28346456692913385,
          "duration": 0.19767441860460622
        },
        {
          "name": "C5",
          "midi": 72,
          "time": 224.04651162786877,
          "velocity": 0.14173228346456693,
          "duration": 0.034883720930224626
        },
        {
          "name": "D#7",
          "midi": 99,
          "time": 224.04651162786877,
          "velocity": 0.14960629921259844,
          "duration": 0.04651162790696617
        },
        {
          "name": "A2",
          "midi": 45,
          "time": 224.0581395348455,
          "velocity": 0.4015748031496063,
          "duration": 0.023255813953483084
        },
        {
          "name": "E4",
          "midi": 64,
          "time": 224.0581395348455,
          "velocity": 0.33070866141732286,
          "duration": 0.15116279069764005
        },
        {
          "name": "C4",
          "midi": 60,
          "time": 224.06976744182225,
          "velocity": 0.30708661417322836,
          "duration": 0.09302325581393234
        },
        {
          "name": "A5",
          "midi": 81,
          "time": 224.06976744182225,
          "velocity": 0.07874015748031496,
          "duration": 0.034883720930224626
        },
        {
          "name": "F7",
          "midi": 101,
          "time": 224.06976744182225,
          "velocity": 0.07874015748031496,
          "duration": 0.06976744186044925
        },
        {
          "name": "E5",
          "midi": 76,
          "time": 224.09302325577573,
          "velocity": 0.36220472440944884,
          "duration": 0.3604651162789878
        },
        {
          "name": "C#7",
          "midi": 97,
          "time": 224.10465116275248,
          "velocity": 0.2755905511811024,
          "duration": 0.24418604651157239
        },
        {
          "name": "D#7",
          "midi": 99,
          "time": 224.12790697670596,
          "velocity": 0.2204724409448819,
          "duration": 0.10465116279067388
        },
        {
          "name": "G3",
          "midi": 55,
          "time": 224.1395348836827,
          "velocity": 0.2440944881889764,
          "duration": 0.04651162790696617
        },
        {
          "name": "C3",
          "midi": 48,
          "time": 224.15116279065944,
          "velocity": 0.4094488188976378,
          "duration": 0.034883720930224626
        },
        {
          "name": "D#6",
          "midi": 87,
          "time": 224.15116279065944,
          "velocity": 0.1889763779527559,
          "duration": 0.1627906976743816
        },
        {
          "name": "G7",
          "midi": 103,
          "time": 224.15116279065944,
          "velocity": 0.07874015748031496,
          "duration": 0.04651162790696617
        },
        {
          "name": "D7",
          "midi": 98,
          "time": 224.16279069763618,
          "velocity": 0.2047244094488189,
          "duration": 0.10465116279067388
        },
        {
          "name": "A5",
          "midi": 81,
          "time": 224.17441860461292,
          "velocity": 0.4566929133858268,
          "duration": 0.8604651162788741
        },
        {
          "name": "E7",
          "midi": 100,
          "time": 224.17441860461292,
          "velocity": 0.3464566929133858,
          "duration": 0.6627906976742679
        },
        {
          "name": "C7",
          "midi": 96,
          "time": 224.1976744185664,
          "velocity": 0.1889763779527559,
          "duration": 0.06976744186044925
        },
        {
          "name": "F#7",
          "midi": 102,
          "time": 224.1976744185664,
          "velocity": 0.2125984251968504,
          "duration": 0.09302325581393234
        },
        {
          "name": "C3",
          "midi": 48,
          "time": 224.20930232554315,
          "velocity": 0.5590551181102362,
          "duration": 0.011627906976741542
        },
        {
          "name": "A#3",
          "midi": 58,
          "time": 224.20930232554315,
          "velocity": 0.3937007874015748,
          "duration": 0.023255813953483084
        },
        {
          "name": "F#5",
          "midi": 78,
          "time": 224.20930232554315,
          "velocity": 0.12598425196850394,
          "duration": 0.11627906976741542
        },
        {
          "name": "D6",
          "midi": 86,
          "time": 224.20930232554315,
          "velocity": 0.2755905511811024,
          "duration": 0.12790697674415696
        },
        {
          "name": "G7",
          "midi": 103,
          "time": 224.20930232554315,
          "velocity": 0.18110236220472442,
          "duration": 0.20930232558134776
        },
        {
          "name": "G1",
          "midi": 31,
          "time": 224.2209302325199,
          "velocity": 0.5275590551181102,
          "duration": 0.011627906976741542
        },
        {
          "name": "D4",
          "midi": 62,
          "time": 224.2209302325199,
          "velocity": 0.47244094488188976,
          "duration": 0.19767441860460622
        },
        {
          "name": "C6",
          "midi": 84,
          "time": 224.2209302325199,
          "velocity": 0.13385826771653545,
          "duration": 0.11627906976741542
        },
        {
          "name": "F#6",
          "midi": 90,
          "time": 224.2209302325199,
          "velocity": 0.14173228346456693,
          "duration": 0.034883720930224626
        },
        {
          "name": "D3",
          "midi": 50,
          "time": 224.23255813949663,
          "velocity": 0.5590551181102362,
          "duration": 0.04651162790696617
        },
        {
          "name": "A3",
          "midi": 57,
          "time": 224.23255813949663,
          "velocity": 0.4645669291338583,
          "duration": 0.04651162790696617
        },
        {
          "name": "G4",
          "midi": 67,
          "time": 224.24418604647337,
          "velocity": 0.2283464566929134,
          "duration": 0.0813953488371908
        },
        {
          "name": "C5",
          "midi": 72,
          "time": 224.26744186042686,
          "velocity": 0.08661417322834646,
          "duration": 0.034883720930224626
        },
        {
          "name": "C#3",
          "midi": 49,
          "time": 224.2790697674036,
          "velocity": 0.6062992125984252,
          "duration": 0.011627906976741542
        },
        {
          "name": "B5",
          "midi": 83,
          "time": 224.2790697674036,
          "velocity": 0.11023622047244094,
          "duration": 0.04651162790696617
        },
        {
          "name": "D3",
          "midi": 50,
          "time": 224.29069767438034,
          "velocity": 0.6220472440944882,
          "duration": 0.011627906976741542
        },
        {
          "name": "D#3",
          "midi": 51,
          "time": 224.30232558135708,
          "velocity": 0.6220472440944882,
          "duration": 0.011627906976741542
        },
        {
          "name": "D3",
          "midi": 50,
          "time": 224.31395348833382,
          "velocity": 0.6220472440944882,
          "duration": 0.023255813953483084
        },
        {
          "name": "A2",
          "midi": 45,
          "time": 224.32558139531056,
          "velocity": 0.5511811023622047,
          "duration": 0.011627906976741542
        },
        {
          "name": "C#3",
          "midi": 49,
          "time": 224.3372093022873,
          "velocity": 0.6141732283464567,
          "duration": 0.011627906976741542
        },
        {
          "name": "G4",
          "midi": 67,
          "time": 224.3372093022873,
          "velocity": 0.2125984251968504,
          "duration": 0.0813953488371908
        },
        {
          "name": "A2",
          "midi": 45,
          "time": 224.34883720926405,
          "velocity": 0.5275590551181102,
          "duration": 0.011627906976741542
        },
        {
          "name": "D3",
          "midi": 50,
          "time": 224.34883720926405,
          "velocity": 0.5354330708661418,
          "duration": 0.011627906976741542
        },
        {
          "name": "A4",
          "midi": 69,
          "time": 224.38372093019427,
          "velocity": 0.15748031496062992,
          "duration": 0.034883720930224626
        },
        {
          "name": "A3",
          "midi": 57,
          "time": 224.395348837171,
          "velocity": 0.33858267716535434,
          "duration": 0.034883720930224626
        },
        {
          "name": "E2",
          "midi": 40,
          "time": 224.4186046511245,
          "velocity": 0.5118110236220472,
          "duration": 0.011627906976741542
        },
        {
          "name": "F#4",
          "midi": 66,
          "time": 224.4186046511245,
          "velocity": 0.30708661417322836,
          "duration": 0.09302325581393234
        },
        {
          "name": "C#7",
          "midi": 97,
          "time": 224.4186046511245,
          "velocity": 0.1889763779527559,
          "duration": 0.18604651162786467
        },
        {
          "name": "A4",
          "midi": 69,
          "time": 224.43023255810124,
          "velocity": 0.2677165354330709,
          "duration": 0.023255813953483084
        },
        {
          "name": "D7",
          "midi": 98,
          "time": 224.43023255810124,
          "velocity": 0.13385826771653545,
          "duration": 0.034883720930224626
        },
        {
          "name": "D3",
          "midi": 50,
          "time": 224.44186046507798,
          "velocity": 0.6220472440944882,
          "duration": 0.1395348837208985
        },
        {
          "name": "A3",
          "midi": 57,
          "time": 224.44186046507798,
          "velocity": 0.44881889763779526,
          "duration": 0.04651162790696617
        },
        {
          "name": "G7",
          "midi": 103,
          "time": 224.44186046507798,
          "velocity": 0.09448818897637795,
          "duration": 0.04651162790696617
        },
        {
          "name": "A#4",
          "midi": 70,
          "time": 224.45348837205472,
          "velocity": 0.2677165354330709,
          "duration": 0.023255813953483084
        },
        {
          "name": "C7",
          "midi": 96,
          "time": 224.45348837205472,
          "velocity": 0.09448818897637795,
          "duration": 0.034883720930224626
        },
        {
          "name": "E2",
          "midi": 40,
          "time": 224.46511627903146,
          "velocity": 0.4330708661417323,
          "duration": 0.023255813953483084
        },
        {
          "name": "E5",
          "midi": 76,
          "time": 224.46511627903146,
          "velocity": 0.29133858267716534,
          "duration": 0.11627906976741542
        },
        {
          "name": "F#4",
          "midi": 66,
          "time": 224.52325581391517,
          "velocity": 0.25984251968503935,
          "duration": 0.10465116279067388
        },
        {
          "name": "A2",
          "midi": 45,
          "time": 224.5348837208919,
          "velocity": 0.5433070866141733,
          "duration": 0.011627906976741542
        },
        {
          "name": "G7",
          "midi": 103,
          "time": 224.5348837208919,
          "velocity": 0.07086614173228346,
          "duration": 0.04651162790696617
        },
        {
          "name": "A2",
          "midi": 45,
          "time": 224.5581395348454,
          "velocity": 0.5748031496062992,
          "duration": 0.04651162790696617
        },
        {
          "name": "D4",
          "midi": 62,
          "time": 224.60465116275236,
          "velocity": 0.2755905511811024,
          "duration": 0.023255813953483084
        },
        {
          "name": "A#3",
          "midi": 58,
          "time": 224.62790697670584,
          "velocity": 0.47244094488188976,
          "duration": 0.023255813953483084
        },
        {
          "name": "D5",
          "midi": 74,
          "time": 224.62790697670584,
          "velocity": 0.3543307086614173,
          "duration": 0.2209302325580893
        },
        {
          "name": "E6",
          "midi": 88,
          "time": 224.62790697670584,
          "velocity": 0.13385826771653545,
          "duration": 0.034883720930224626
        },
        {
          "name": "B6",
          "midi": 95,
          "time": 224.62790697670584,
          "velocity": 0.3937007874015748,
          "duration": 0.558139534883594
        },
        {
          "name": "F7",
          "midi": 101,
          "time": 224.62790697670584,
          "velocity": 0.11023622047244094,
          "duration": 0.12790697674415696
        },
        {
          "name": "G7",
          "midi": 103,
          "time": 224.62790697670584,
          "velocity": 0.14960629921259844,
          "duration": 0.12790697674415696
        },
        {
          "name": "F#4",
          "midi": 66,
          "time": 224.6395348836826,
          "velocity": 0.33858267716535434,
          "duration": 0.04651162790696617
        },
        {
          "name": "F#6",
          "midi": 90,
          "time": 224.6395348836826,
          "velocity": 0.1732283464566929,
          "duration": 0.12790697674415696
        },
        {
          "name": "D7",
          "midi": 98,
          "time": 224.6395348836826,
          "velocity": 0.1732283464566929,
          "duration": 0.04651162790696617
        },
        {
          "name": "F#7",
          "midi": 102,
          "time": 224.6395348836826,
          "velocity": 0.2992125984251969,
          "duration": 0.20930232558134776
        },
        {
          "name": "C#4",
          "midi": 61,
          "time": 224.65116279065933,
          "velocity": 0.2992125984251969,
          "duration": 0.023255813953483084
        },
        {
          "name": "E5",
          "midi": 76,
          "time": 224.65116279065933,
          "velocity": 0.11811023622047244,
          "duration": 0.06976744186044925
        },
        {
          "name": "B5",
          "midi": 83,
          "time": 224.65116279065933,
          "velocity": 0.15748031496062992,
          "duration": 0.17441860465112313
        },
        {
          "name": "C6",
          "midi": 84,
          "time": 224.65116279065933,
          "velocity": 0.14173228346456693,
          "duration": 0.05813953488370771
        },
        {
          "name": "D#7",
          "midi": 99,
          "time": 224.65116279065933,
          "velocity": 0.12598425196850394,
          "duration": 0.12790697674415696
        },
        {
          "name": "C#7",
          "midi": 97,
          "time": 224.66279069763607,
          "velocity": 0.2440944881889764,
          "duration": 0.09302325581393234
        },
        {
          "name": "F4",
          "midi": 65,
          "time": 224.68604651158955,
          "velocity": 0.25196850393700787,
          "duration": 0.04651162790696617
        },
        {
          "name": "G4",
          "midi": 67,
          "time": 224.68604651158955,
          "velocity": 0.23622047244094488,
          "duration": 0.034883720930224626
        },
        {
          "name": "E6",
          "midi": 88,
          "time": 224.68604651158955,
          "velocity": 0.12598425196850394,
          "duration": 0.034883720930224626
        },
        {
          "name": "G#2",
          "midi": 44,
          "time": 224.6976744185663,
          "velocity": 0.4330708661417323,
          "duration": 0.023255813953483084
        },
        {
          "name": "A3",
          "midi": 57,
          "time": 224.6976744185663,
          "velocity": 0.30708661417322836,
          "duration": 0.023255813953483084
        },
        {
          "name": "D3",
          "midi": 50,
          "time": 224.72093023251978,
          "velocity": 0.4251968503937008,
          "duration": 0.034883720930224626
        },
        {
          "name": "A#3",
          "midi": 58,
          "time": 224.73255813949652,
          "velocity": 0.4094488188976378,
          "duration": 0.05813953488370771
        },
        {
          "name": "F#4",
          "midi": 66,
          "time": 224.73255813949652,
          "velocity": 0.2125984251968504,
          "duration": 0.034883720930224626
        },
        {
          "name": "A4",
          "midi": 69,
          "time": 224.74418604647326,
          "velocity": 0.3464566929133858,
          "duration": 0.17441860465112313
        },
        {
          "name": "D#3",
          "midi": 51,
          "time": 224.75581395345,
          "velocity": 0.47244094488188976,
          "duration": 0.034883720930224626
        },
        {
          "name": "D4",
          "midi": 62,
          "time": 224.75581395345,
          "velocity": 0.3543307086614173,
          "duration": 0.0813953488371908
        },
        {
          "name": "F#4",
          "midi": 66,
          "time": 224.77906976740348,
          "velocity": 0.18110236220472442,
          "duration": 0.034883720930224626
        },
        {
          "name": "E5",
          "midi": 76,
          "time": 224.77906976740348,
          "velocity": 0.07086614173228346,
          "duration": 0.034883720930224626
        },
        {
          "name": "C#6",
          "midi": 85,
          "time": 224.77906976740348,
          "velocity": 0.13385826771653545,
          "duration": 0.05813953488370771
        },
        {
          "name": "C#7",
          "midi": 97,
          "time": 224.77906976740348,
          "velocity": 0.1732283464566929,
          "duration": 0.15116279069764005
        },
        {
          "name": "G7",
          "midi": 103,
          "time": 224.77906976740348,
          "velocity": 0.11023622047244094,
          "duration": 0.04651162790696617
        },
        {
          "name": "D3",
          "midi": 50,
          "time": 224.79069767438023,
          "velocity": 0.49606299212598426,
          "duration": 0.04651162790696617
        },
        {
          "name": "F#6",
          "midi": 90,
          "time": 224.79069767438023,
          "velocity": 0.15748031496062992,
          "duration": 0.11627906976741542
        },
        {
          "name": "D#7",
          "midi": 99,
          "time": 224.80232558135697,
          "velocity": 0.16535433070866143,
          "duration": 0.2209302325580893
        },
        {
          "name": "A#3",
          "midi": 58,
          "time": 224.8139534883337,
          "velocity": 0.30708661417322836,
          "duration": 0.023255813953483084
        },
        {
          "name": "G4",
          "midi": 67,
          "time": 224.8139534883337,
          "velocity": 0.2204724409448819,
          "duration": 0.034883720930224626
        },
        {
          "name": "D#3",
          "midi": 51,
          "time": 224.8372093022872,
          "velocity": 0.44881889763779526,
          "duration": 0.023255813953483084
        },
        {
          "name": "E5",
          "midi": 76,
          "time": 224.8372093022872,
          "velocity": 0.30708661417322836,
          "duration": 0.406976744185954
        },
        {
          "name": "F#5",
          "midi": 78,
          "time": 224.84883720926393,
          "velocity": 0.30708661417322836,
          "duration": 0.1627906976743816
        },
        {
          "name": "F#2",
          "midi": 42,
          "time": 224.86046511624068,
          "velocity": 0.33858267716535434,
          "duration": 0.023255813953483084
        },
        {
          "name": "D3",
          "midi": 50,
          "time": 224.86046511624068,
          "velocity": 0.6220472440944882,
          "duration": 0.1395348837208985
        },
        {
          "name": "A3",
          "midi": 57,
          "time": 224.86046511624068,
          "velocity": 0.3937007874015748,
          "duration": 0.04651162790696617
        },
        {
          "name": "E4",
          "midi": 64,
          "time": 224.86046511624068,
          "velocity": 0.2440944881889764,
          "duration": 0.023255813953483084
        },
        {
          "name": "F#4",
          "midi": 66,
          "time": 224.86046511624068,
          "velocity": 0.25984251968503935,
          "duration": 0.15116279069764005
        },
        {
          "name": "D5",
          "midi": 74,
          "time": 224.86046511624068,
          "velocity": 0.25196850393700787,
          "duration": 0.023255813953483084
        },
        {
          "name": "B5",
          "midi": 83,
          "time": 224.86046511624068,
          "velocity": 0.2047244094488189,
          "duration": 0.2558139534883139
        },
        {
          "name": "F#7",
          "midi": 102,
          "time": 224.86046511624068,
          "velocity": 0.2283464566929134,
          "duration": 0.3023255813952801
        },
        {
          "name": "C#6",
          "midi": 85,
          "time": 224.87209302321742,
          "velocity": 0.07086614173228346,
          "duration": 0.034883720930224626
        },
        {
          "name": "A#3",
          "midi": 58,
          "time": 224.90697674414764,
          "velocity": 0.4015748031496063,
          "duration": 0.034883720930224626
        },
        {
          "name": "B4",
          "midi": 71,
          "time": 224.91860465112438,
          "velocity": 0.12598425196850394,
          "duration": 0.04651162790696617
        },
        {
          "name": "A4",
          "midi": 69,
          "time": 224.9534883720546,
          "velocity": 0.28346456692913385,
          "duration": 0.11627906976741542
        },
        {
          "name": "D3",
          "midi": 50,
          "time": 225.01162790693832,
          "velocity": 0.3779527559055118,
          "duration": 0.04651162790696617
        },
        {
          "name": "F#5",
          "midi": 78,
          "time": 225.0348837208918,
          "velocity": 0.18110236220472442,
          "duration": 0.19767441860460622
        },
        {
          "name": "D#3",
          "midi": 51,
          "time": 225.05813953484528,
          "velocity": 0.48031496062992124,
          "duration": 0.034883720930224626
        },
        {
          "name": "F#4",
          "midi": 66,
          "time": 225.05813953484528,
          "velocity": 0.07086614173228346,
          "duration": 0.04651162790696617
        },
        {
          "name": "D5",
          "midi": 74,
          "time": 225.05813953484528,
          "velocity": 0.2677165354330709,
          "duration": 0.279069767441797
        },
        {
          "name": "C#7",
          "midi": 97,
          "time": 225.05813953484528,
          "velocity": 0.1968503937007874,
          "duration": 0.06976744186044925
        },
        {
          "name": "D7",
          "midi": 98,
          "time": 225.05813953484528,
          "velocity": 0.49606299212598426,
          "duration": 0.8255813953486495
        },
        {
          "name": "F7",
          "midi": 101,
          "time": 225.05813953484528,
          "velocity": 0.08661417322834646,
          "duration": 0.04651162790696617
        },
        {
          "name": "D4",
          "midi": 62,
          "time": 225.06976744182202,
          "velocity": 0.3858267716535433,
          "duration": 0.023255813953483084
        },
        {
          "name": "A#4",
          "midi": 70,
          "time": 225.06976744182202,
          "velocity": 0.2204724409448819,
          "duration": 0.034883720930224626
        },
        {
          "name": "A6",
          "midi": 93,
          "time": 225.06976744182202,
          "velocity": 0.29133858267716534,
          "duration": 0.6162790697673017
        },
        {
          "name": "G7",
          "midi": 103,
          "time": 225.06976744182202,
          "velocity": 0.12598425196850394,
          "duration": 0.05813953488370771
        },
        {
          "name": "A3",
          "midi": 57,
          "time": 225.08139534879876,
          "velocity": 0.47244094488188976,
          "duration": 0.05813953488370771
        },
        {
          "name": "D3",
          "midi": 50,
          "time": 225.0930232557755,
          "velocity": 0.6535433070866141,
          "duration": 0.10465116279067388
        },
        {
          "name": "C5",
          "midi": 72,
          "time": 225.0930232557755,
          "velocity": 0.12598425196850394,
          "duration": 0.04651162790696617
        },
        {
          "name": "C6",
          "midi": 84,
          "time": 225.0930232557755,
          "velocity": 0.13385826771653545,
          "duration": 0.09302325581393234
        },
        {
          "name": "D#6",
          "midi": 87,
          "time": 225.0930232557755,
          "velocity": 0.16535433070866143,
          "duration": 0.034883720930224626
        },
        {
          "name": "F#2",
          "midi": 42,
          "time": 225.12790697670573,
          "velocity": 0.5354330708661418,
          "duration": 0.011627906976741542
        },
        {
          "name": "G4",
          "midi": 67,
          "time": 225.12790697670573,
          "velocity": 0.11811023622047244,
          "duration": 0.034883720930224626
        },
        {
          "name": "A2",
          "midi": 45,
          "time": 225.18604651158944,
          "velocity": 0.5669291338582677,
          "duration": 0.011627906976741542
        },
        {
          "name": "F#4",
          "midi": 66,
          "time": 225.18604651158944,
          "velocity": 0.2047244094488189,
          "duration": 0.09302325581393234
        },
        {
          "name": "C3",
          "midi": 48,
          "time": 225.19767441856618,
          "velocity": 0.6062992125984252,
          "duration": 0.011627906976741542
        },
        {
          "name": "D#7",
          "midi": 99,
          "time": 225.19767441856618,
          "velocity": 0.09448818897637795,
          "duration": 0.04651162790696617
        },
        {
          "name": "A2",
          "midi": 45,
          "time": 225.20930232554292,
          "velocity": 0.5905511811023622,
          "duration": 0.011627906976741542
        },
        {
          "name": "D3",
          "midi": 50,
          "time": 225.20930232554292,
          "velocity": 0.5748031496062992,
          "duration": 0.011627906976741542
        },
        {
          "name": "B2",
          "midi": 47,
          "time": 225.22093023251966,
          "velocity": 0.6220472440944882,
          "duration": 0.011627906976741542
        },
        {
          "name": "B6",
          "midi": 95,
          "time": 225.22093023251966,
          "velocity": 0.12598425196850394,
          "duration": 0.034883720930224626
        },
        {
          "name": "A2",
          "midi": 45,
          "time": 225.2325581394964,
          "velocity": 0.6141732283464567,
          "duration": 0.011627906976741542
        },
        {
          "name": "D3",
          "midi": 50,
          "time": 225.2325581394964,
          "velocity": 0.5275590551181102,
          "duration": 0.011627906976741542
        },
        {
          "name": "G#2",
          "midi": 44,
          "time": 225.24418604647315,
          "velocity": 0.6220472440944882,
          "duration": 0.011627906976741542
        },
        {
          "name": "A2",
          "midi": 45,
          "time": 225.2558139534499,
          "velocity": 0.5511811023622047,
          "duration": 0.023255813953483084
        },
        {
          "name": "F#5",
          "midi": 78,
          "time": 225.26744186042663,
          "velocity": 0.2755905511811024,
          "duration": 0.12790697674415696
        },
        {
          "name": "G#2",
          "midi": 44,
          "time": 225.27906976740337,
          "velocity": 0.6141732283464567,
          "duration": 0.023255813953483084
        },
        {
          "name": "E5",
          "midi": 76,
          "time": 225.27906976740337,
          "velocity": 0.30708661417322836,
          "duration": 0.15116279069764005
        },
        {
          "name": "D#7",
          "midi": 99,
          "time": 225.27906976740337,
          "velocity": 0.13385826771653545,
          "duration": 0.05813953488370771
        },
        {
          "name": "F#4",
          "midi": 66,
          "time": 225.2906976743801,
          "velocity": 0.30708661417322836,
          "duration": 0.18604651162786467
        },
        {
          "name": "C7",
          "midi": 96,
          "time": 225.2906976743801,
          "velocity": 0.2440944881889764,
          "duration": 0.09302325581393234
        },
        {
          "name": "G7",
          "midi": 103,
          "time": 225.2906976743801,
          "velocity": 0.11023622047244094,
          "duration": 0.06976744186044925
        },
        {
          "name": "A2",
          "midi": 45,
          "time": 225.30232558135685,
          "velocity": 0.4881889763779528,
          "duration": 0.023255813953483084
        },
        {
          "name": "F#7",
          "midi": 102,
          "time": 225.30232558135685,
          "velocity": 0.16535433070866143,
          "duration": 0.1395348837208985
        },
        {
          "name": "A4",
          "midi": 69,
          "time": 225.32558139531034,
          "velocity": 0.3464566929133858,
          "duration": 0.04651162790696617
        },
        {
          "name": "C#7",
          "midi": 97,
          "time": 225.32558139531034,
          "velocity": 0.25984251968503935,
          "duration": 0.0813953488371908
        },
        {
          "name": "F7",
          "midi": 101,
          "time": 225.32558139531034,
          "velocity": 0.08661417322834646,
          "duration": 0.06976744186044925
        },
        {
          "name": "A3",
          "midi": 57,
          "time": 225.34883720926382,
          "velocity": 0.3543307086614173,
          "duration": 0.04651162790696617
        },
        {
          "name": "D#7",
          "midi": 99,
          "time": 225.34883720926382,
          "velocity": 0.14173228346456693,
          "duration": 0.12790697674415696
        },
        {
          "name": "D4",
          "midi": 62,
          "time": 225.36046511624056,
          "velocity": 0.33858267716535434,
          "duration": 0.11627906976741542
        },
        {
          "name": "A4",
          "midi": 69,
          "time": 225.38372093019404,
          "velocity": 0.4251968503937008,
          "duration": 0.10465116279067388
        },
        {
          "name": "D#3",
          "midi": 51,
          "time": 225.3953488371708,
          "velocity": 0.47244094488188976,
          "duration": 0.034883720930224626
        },
        {
          "name": "F#6",
          "midi": 90,
          "time": 225.3953488371708,
          "velocity": 0.18110236220472442,
          "duration": 0.04651162790696617
        },
        {
          "name": "A3",
          "midi": 57,
          "time": 225.40697674414753,
          "velocity": 0.3228346456692913,
          "duration": 0.04651162790696617
        },
        {
          "name": "D#6",
          "midi": 87,
          "time": 225.41860465112427,
          "velocity": 0.08661417322834646,
          "duration": 0.04651162790696617
        },
        {
          "name": "C#7",
          "midi": 97,
          "time": 225.41860465112427,
          "velocity": 0.33070866141732286,
          "duration": 0.5813953488370771
        },
        {
          "name": "G7",
          "midi": 103,
          "time": 225.41860465112427,
          "velocity": 0.11023622047244094,
          "duration": 0.04651162790696617
        },
        {
          "name": "D3",
          "midi": 50,
          "time": 225.430232558101,
          "velocity": 0.5039370078740157,
          "duration": 0.04651162790696617
        },
        {
          "name": "F#5",
          "midi": 78,
          "time": 225.44186046507775,
          "velocity": 0.3543307086614173,
          "duration": 0.0813953488371908
        },
        {
          "name": "C#6",
          "midi": 85,
          "time": 225.4534883720545,
          "velocity": 0.28346456692913385,
          "duration": 0.06976744186044925
        },
        {
          "name": "B6",
          "midi": 95,
          "time": 225.46511627903124,
          "velocity": 0.16535433070866143,
          "duration": 0.15116279069764005
        },
        {
          "name": "D#3",
          "midi": 51,
          "time": 225.47674418600798,
          "velocity": 0.48031496062992124,
          "duration": 0.034883720930224626
        },
        {
          "name": "A#3",
          "midi": 58,
          "time": 225.47674418600798,
          "velocity": 0.5039370078740157,
          "duration": 0.023255813953483084
        },
        {
          "name": "D5",
          "midi": 74,
          "time": 225.47674418600798,
          "velocity": 0.3700787401574803,
          "duration": 0.18604651162786467
        },
        {
          "name": "E6",
          "midi": 88,
          "time": 225.47674418600798,
          "velocity": 0.14960629921259844,
          "duration": 0.10465116279067388
        },
        {
          "name": "G6",
          "midi": 91,
          "time": 225.47674418600798,
          "velocity": 0.15748031496062992,
          "duration": 0.034883720930224626
        },
        {
          "name": "C7",
          "midi": 96,
          "time": 225.47674418600798,
          "velocity": 0.12598425196850394,
          "duration": 0.034883720930224626
        },
        {
          "name": "E7",
          "midi": 100,
          "time": 225.47674418600798,
          "velocity": 0.25196850393700787,
          "duration": 0.3604651162789878
        },
        {
          "name": "G7",
          "midi": 103,
          "time": 225.47674418600798,
          "velocity": 0.18110236220472442,
          "duration": 0.09302325581393234
        },
        {
          "name": "E5",
          "midi": 76,
          "time": 225.48837209298472,
          "velocity": 0.18110236220472442,
          "duration": 0.05813953488370771
        },
        {
          "name": "D#6",
          "midi": 87,
          "time": 225.48837209298472,
          "velocity": 0.18110236220472442,
          "duration": 0.06976744186044925
        },
        {
          "name": "F#6",
          "midi": 90,
          "time": 225.48837209298472,
          "velocity": 0.4094488188976378,
          "duration": 0.6395348837207848
        },
        {
          "name": "F7",
          "midi": 101,
          "time": 225.48837209298472,
          "velocity": 0.11023622047244094,
          "duration": 0.034883720930224626
        },
        {
          "name": "G4",
          "midi": 67,
          "time": 225.49999999996146,
          "velocity": 0.3779527559055118,
          "duration": 0.023255813953483084
        },
        {
          "name": "A4",
          "midi": 69,
          "time": 225.49999999996146,
          "velocity": 0.31496062992125984,
          "duration": 0.24418604651157239
        },
        {
          "name": "C6",
          "midi": 84,
          "time": 225.49999999996146,
          "velocity": 0.1889763779527559,
          "duration": 0.10465116279067388
        },
        {
          "name": "D#7",
          "midi": 99,
          "time": 225.49999999996146,
          "velocity": 0.2047244094488189,
          "duration": 0.5232558139533694
        },
        {
          "name": "F#2",
          "midi": 42,
          "time": 225.52325581391494,
          "velocity": 0.48031496062992124,
          "duration": 0.023255813953483084
        },
        {
          "name": "D#4",
          "midi": 63,
          "time": 225.52325581391494,
          "velocity": 0.23622047244094488,
          "duration": 0.034883720930224626
        },
        {
          "name": "F#4",
          "midi": 66,
          "time": 225.52325581391494,
          "velocity": 0.3779527559055118,
          "duration": 0.023255813953483084
        },
        {
          "name": "B5",
          "midi": 83,
          "time": 225.52325581391494,
          "velocity": 0.10236220472440945,
          "duration": 0.034883720930224626
        },
        {
          "name": "G#6",
          "midi": 92,
          "time": 225.52325581391494,
          "velocity": 0.08661417322834646,
          "duration": 0.034883720930224626
        },
        {
          "name": "A#3",
          "midi": 58,
          "time": 225.53488372089168,
          "velocity": 0.3543307086614173,
          "duration": 0.034883720930224626
        },
        {
          "name": "F#5",
          "midi": 78,
          "time": 225.53488372089168,
          "velocity": 0.5354330708661418,
          "duration": 0.6744186046510094
        },
        {
          "name": "C#6",
          "midi": 85,
          "time": 225.53488372089168,
          "velocity": 0.2755905511811024,
          "duration": 0.023255813953483084
        },
        {
          "name": "G2",
          "midi": 43,
          "time": 225.54651162786843,
          "velocity": 0.41732283464566927,
          "duration": 0.023255813953483084
        },
        {
          "name": "F4",
          "midi": 65,
          "time": 225.54651162786843,
          "velocity": 0.2283464566929134,
          "duration": 0.034883720930224626
        },
        {
          "name": "G4",
          "midi": 67,
          "time": 225.54651162786843,
          "velocity": 0.2204724409448819,
          "duration": 0.034883720930224626
        },
        {
          "name": "D3",
          "midi": 50,
          "time": 225.55813953484517,
          "velocity": 0.5275590551181102,
          "duration": 0.15116279069764005
        },
        {
          "name": "C5",
          "midi": 72,
          "time": 225.55813953484517,
          "velocity": 0.2125984251968504,
          "duration": 0.09302325581393234
        },
        {
          "name": "B3",
          "midi": 59,
          "time": 225.5697674418219,
          "velocity": 0.2440944881889764,
          "duration": 0.023255813953483084
        },
        {
          "name": "A#6",
          "midi": 94,
          "time": 225.58139534879865,
          "velocity": 0.16535433070866143,
          "duration": 0.1627906976743816
        },
        {
          "name": "A#3",
          "midi": 58,
          "time": 225.5930232557754,
          "velocity": 0.29133858267716534,
          "duration": 0.05813953488370771
        },
        {
          "name": "C#6",
          "midi": 85,
          "time": 225.60465116275213,
          "velocity": 0.11811023622047244,
          "duration": 0.034883720930224626
        },
        {
          "name": "F7",
          "midi": 101,
          "time": 225.60465116275213,
          "velocity": 0.11811023622047244,
          "duration": 0.05813953488370771
        },
        {
          "name": "F#4",
          "midi": 66,
          "time": 225.61627906972888,
          "velocity": 0.33070866141732286,
          "duration": 0.11627906976741542
        },
        {
          "name": "E6",
          "midi": 88,
          "time": 225.61627906972888,
          "velocity": 0.07874015748031496,
          "duration": 0.034883720930224626
        },
        {
          "name": "G7",
          "midi": 103,
          "time": 225.63953488368236,
          "velocity": 0.18110236220472442,
          "duration": 0.12790697674415696
        },
        {
          "name": "C#6",
          "midi": 85,
          "time": 225.6511627906591,
          "velocity": 0.2125984251968504,
          "duration": 0.10465116279067388
        },
        {
          "name": "A#3",
          "midi": 58,
          "time": 225.67441860461258,
          "velocity": 0.23622047244094488,
          "duration": 0.023255813953483084
        },
        {
          "name": "D5",
          "midi": 74,
          "time": 225.67441860461258,
          "velocity": 0.2125984251968504,
          "duration": 0.05813953488370771
        },
        {
          "name": "E5",
          "midi": 76,
          "time": 225.69767441856607,
          "velocity": 0.33070866141732286,
          "duration": 0.23255813953483084
        },
        {
          "name": "C#2",
          "midi": 37,
          "time": 225.7093023255428,
          "velocity": 0.5354330708661418,
          "duration": 0.011627906976741542
        },
        {
          "name": "D3",
          "midi": 50,
          "time": 225.72093023251955,
          "velocity": 0.49606299212598426,
          "duration": 0.023255813953483084
        },
        {
          "name": "C7",
          "midi": 96,
          "time": 225.72093023251955,
          "velocity": 0.10236220472440945,
          "duration": 0.034883720930224626
        },
        {
          "name": "F7",
          "midi": 101,
          "time": 225.72093023251955,
          "velocity": 0.10236220472440945,
          "duration": 0.05813953488370771
        },
        {
          "name": "G4",
          "midi": 67,
          "time": 225.7325581394963,
          "velocity": 0.28346456692913385,
          "duration": 0.023255813953483084
        },
        {
          "name": "D5",
          "midi": 74,
          "time": 225.74418604647303,
          "velocity": 0.2283464566929134,
          "duration": 0.23255813953483084
        },
        {
          "name": "A4",
          "midi": 69,
          "time": 225.75581395344977,
          "velocity": 0.3937007874015748,
          "duration": 0.24418604651157239
        },
        {
          "name": "C5",
          "midi": 72,
          "time": 225.75581395344977,
          "velocity": 0.07086614173228346,
          "duration": 0.034883720930224626
        },
        {
          "name": "F#4",
          "midi": 66,
          "time": 225.76744186042652,
          "velocity": 0.30708661417322836,
          "duration": 0.1627906976743816
        },
        {
          "name": "A2",
          "midi": 45,
          "time": 225.77906976740326,
          "velocity": 0.3779527559055118,
          "duration": 0.023255813953483084
        },
        {
          "name": "A3",
          "midi": 57,
          "time": 225.77906976740326,
          "velocity": 0.4015748031496063,
          "duration": 0.11627906976741542
        },
        {
          "name": "C7",
          "midi": 96,
          "time": 225.79069767438,
          "velocity": 0.11023622047244094,
          "duration": 0.09302325581393234
        },
        {
          "name": "G7",
          "midi": 103,
          "time": 225.79069767438,
          "velocity": 0.12598425196850394,
          "duration": 0.06976744186044925
        },
        {
          "name": "D4",
          "midi": 62,
          "time": 225.82558139531022,
          "velocity": 0.2755905511811024,
          "duration": 0.10465116279067388
        },
        {
          "name": "C#6",
          "midi": 85,
          "time": 225.82558139531022,
          "velocity": 0.11811023622047244,
          "duration": 0.12790697674415696
        },
        {
          "name": "F7",
          "midi": 101,
          "time": 225.82558139531022,
          "velocity": 0.10236220472440945,
          "duration": 0.034883720930224626
        },
        {
          "name": "E2",
          "midi": 40,
          "time": 225.83720930228696,
          "velocity": 0.47244094488188976,
          "duration": 0.023255813953483084
        },
        {
          "name": "D3",
          "midi": 50,
          "time": 225.83720930228696,
          "velocity": 0.3937007874015748,
          "duration": 0.023255813953483084
        },
        {
          "name": "D#3",
          "midi": 51,
          "time": 225.86046511624045,
          "velocity": 0.4409448818897638,
          "duration": 0.023255813953483084
        },
        {
          "name": "E2",
          "midi": 40,
          "time": 225.88372093019393,
          "velocity": 0.41732283464566927,
          "duration": 0.023255813953483084
        },
        {
          "name": "G7",
          "midi": 103,
          "time": 225.88372093019393,
          "velocity": 0.15748031496062992,
          "duration": 0.09302325581393234
        },
        {
          "name": "D#3",
          "midi": 51,
          "time": 225.89534883717067,
          "velocity": 0.5433070866141733,
          "duration": 0.034883720930224626
        },
        {
          "name": "C7",
          "midi": 96,
          "time": 225.89534883717067,
          "velocity": 0.11811023622047244,
          "duration": 0.05813953488370771
        },
        {
          "name": "D7",
          "midi": 98,
          "time": 225.89534883717067,
          "velocity": 0.23622047244094488,
          "duration": 0.17441860465112313
        },
        {
          "name": "F7",
          "midi": 101,
          "time": 225.89534883717067,
          "velocity": 0.10236220472440945,
          "duration": 0.034883720930224626
        },
        {
          "name": "F2",
          "midi": 41,
          "time": 225.91860465112416,
          "velocity": 0.5433070866141733,
          "duration": 0.011627906976741542
        },
        {
          "name": "C5",
          "midi": 72,
          "time": 225.91860465112416,
          "velocity": 0.2440944881889764,
          "duration": 0.023255813953483084
        },
        {
          "name": "G#6",
          "midi": 92,
          "time": 225.91860465112416,
          "velocity": 0.1889763779527559,
          "duration": 0.12790697674415696
        },
        {
          "name": "E7",
          "midi": 100,
          "time": 225.91860465112416,
          "velocity": 0.31496062992125984,
          "duration": 2.4767441860459485
        },
        {
          "name": "C3",
          "midi": 48,
          "time": 225.9302325581009,
          "velocity": 0.6141732283464567,
          "duration": 0.011627906976741542
        },
        {
          "name": "E4",
          "midi": 64,
          "time": 225.9302325581009,
          "velocity": 0.4094488188976378,
          "duration": 0.4186046511626955
        },
        {
          "name": "B5",
          "midi": 83,
          "time": 225.9302325581009,
          "velocity": 0.13385826771653545,
          "duration": 0.04651162790696617
        },
        {
          "name": "D#6",
          "midi": 87,
          "time": 225.9302325581009,
          "velocity": 0.08661417322834646,
          "duration": 0.05813953488370771
        },
        {
          "name": "B6",
          "midi": 95,
          "time": 225.9302325581009,
          "velocity": 0.33858267716535434,
          "duration": 0.39534883720921243
        },
        {
          "name": "D3",
          "midi": 50,
          "time": 225.94186046507764,
          "velocity": 0.5905511811023622,
          "duration": 0.011627906976741542
        },
        {
          "name": "B3",
          "midi": 59,
          "time": 225.94186046507764,
          "velocity": 0.3858267716535433,
          "duration": 0.04651162790696617
        },
        {
          "name": "G#5",
          "midi": 80,
          "time": 225.95348837205438,
          "velocity": 0.07874015748031496,
          "duration": 0.034883720930224626
        },
        {
          "name": "A#6",
          "midi": 94,
          "time": 225.95348837205438,
          "velocity": 0.2204724409448819,
          "duration": 0.0813953488371908
        },
        {
          "name": "D#5",
          "midi": 75,
          "time": 225.96511627903112,
          "velocity": 0.33858267716535434,
          "duration": 0.023255813953483084
        },
        {
          "name": "F2",
          "midi": 41,
          "time": 225.97674418600786,
          "velocity": 0.4881889763779528,
          "duration": 0.04651162790696617
        },
        {
          "name": "E3",
          "midi": 52,
          "time": 225.9883720929846,
          "velocity": 0.5354330708661418,
          "duration": 0.04651162790696617
        },
        {
          "name": "E5",
          "midi": 76,
          "time": 225.9883720929846,
          "velocity": 0.4251968503937008,
          "duration": 0.4418604651161786
        },
        {
          "name": "B3",
          "midi": 59,
          "time": 225.99999999996135,
          "velocity": 0.36220472440944884,
          "duration": 0.034883720930224626
        },
        {
          "name": "A6",
          "midi": 93,
          "time": 225.99999999996135,
          "velocity": 0.07874015748031496,
          "duration": 0.05813953488370771
        },
        {
          "name": "A4",
          "midi": 69,
          "time": 226.02325581391483,
          "velocity": 0.2047244094488189,
          "duration": 0.06976744186044925
        },
        {
          "name": "F3",
          "midi": 53,
          "time": 226.03488372089157,
          "velocity": 0.5511811023622047,
          "duration": 0.023255813953483084
        },
        {
          "name": "E3",
          "midi": 52,
          "time": 226.05813953484505,
          "velocity": 0.49606299212598426,
          "duration": 0.023255813953483084
        },
        {
          "name": "F2",
          "midi": 41,
          "time": 226.0697674418218,
          "velocity": 0.2755905511811024,
          "duration": 0.023255813953483084
        },
        {
          "name": "A3",
          "midi": 57,
          "time": 226.09302325577528,
          "velocity": 0.3464566929133858,
          "duration": 0.06976744186044925
        },
        {
          "name": "G#4",
          "midi": 68,
          "time": 226.09302325577528,
          "velocity": 0.14960629921259844,
          "duration": 0.034883720930224626
        },
        {
          "name": "D5",
          "midi": 74,
          "time": 226.09302325577528,
          "velocity": 0.10236220472440945,
          "duration": 0.034883720930224626
        },
        {
          "name": "G#6",
          "midi": 92,
          "time": 226.09302325577528,
          "velocity": 0.1968503937007874,
          "duration": 0.17441860465112313
        },
        {
          "name": "E3",
          "midi": 52,
          "time": 226.11627906972876,
          "velocity": 0.31496062992125984,
          "duration": 0.023255813953483084
        },
        {
          "name": "C2",
          "midi": 36,
          "time": 226.13953488368224,
          "velocity": 0.5196850393700787,
          "duration": 0.023255813953483084
        },
        {
          "name": "C#7",
          "midi": 97,
          "time": 226.13953488368224,
          "velocity": 0.10236220472440945,
          "duration": 0.06976744186044925
        },
        {
          "name": "G4",
          "midi": 67,
          "time": 226.16279069763573,
          "velocity": 0.47244094488188976,
          "duration": 0.26744186046505547
        },
        {
          "name": "C7",
          "midi": 96,
          "time": 226.16279069763573,
          "velocity": 0.11023622047244094,
          "duration": 0.034883720930224626
        },
        {
          "name": "B3",
          "midi": 59,
          "time": 226.17441860461247,
          "velocity": 0.3228346456692913,
          "duration": 0.034883720930224626
        },
        {
          "name": "D7",
          "midi": 98,
          "time": 226.17441860461247,
          "velocity": 0.10236220472440945,
          "duration": 0.09302325581393234
        },
        {
          "name": "F2",
          "midi": 41,
          "time": 226.1860465115892,
          "velocity": 0.5118110236220472,
          "duration": 0.023255813953483084
        },
        {
          "name": "E3",
          "midi": 52,
          "time": 226.2093023255427,
          "velocity": 0.5590551181102362,
          "duration": 0.06976744186044925
        },
        {
          "name": "F#6",
          "midi": 90,
          "time": 226.2093023255427,
          "velocity": 0.2047244094488189,
          "duration": 0.04651162790696617
        },
        {
          "name": "F#5",
          "midi": 78,
          "time": 226.22093023251944,
          "velocity": 0.2992125984251969,
          "duration": 0.24418604651157239
        },
        {
          "name": "D2",
          "midi": 38,
          "time": 226.25581395344966,
          "velocity": 0.3464566929133858,
          "duration": 0.023255813953483084
        },
        {
          "name": "B3",
          "midi": 59,
          "time": 226.2674418604264,
          "velocity": 0.41732283464566927,
          "duration": 0.0813953488371908
        },
        {
          "name": "F3",
          "midi": 53,
          "time": 226.27906976740314,
          "velocity": 0.5196850393700787,
          "duration": 0.011627906976741542
        },
        {
          "name": "E3",
          "midi": 52,
          "time": 226.29069767437989,
          "velocity": 0.49606299212598426,
          "duration": 0.023255813953483084
        },
        {
          "name": "E2",
          "midi": 40,
          "time": 226.31395348833337,
          "velocity": 0.5118110236220472,
          "duration": 0.023255813953483084
        },
        {
          "name": "D5",
          "midi": 74,
          "time": 226.33720930228685,
          "velocity": 0.33070866141732286,
          "duration": 0.10465116279067388
        },
        {
          "name": "B6",
          "midi": 95,
          "time": 226.33720930228685,
          "velocity": 0.3464566929133858,
          "duration": 1.6395348837205574
        },
        {
          "name": "C4",
          "midi": 60,
          "time": 226.3488372092636,
          "velocity": 0.5196850393700787,
          "duration": 0.011627906976741542
        },
        {
          "name": "G#6",
          "midi": 92,
          "time": 226.3488372092636,
          "velocity": 0.1968503937007874,
          "duration": 0.2558139534883139
        },
        {
          "name": "C#7",
          "midi": 97,
          "time": 226.3488372092636,
          "velocity": 0.23622047244094488,
          "duration": 0.3023255813952801
        },
        {
          "name": "D7",
          "midi": 98,
          "time": 226.3488372092636,
          "velocity": 0.18110236220472442,
          "duration": 0.12790697674415696
        },
        {
          "name": "F#7",
          "midi": 102,
          "time": 226.3488372092636,
          "velocity": 0.14960629921259844,
          "duration": 0.09302325581393234
        },
        {
          "name": "A#3",
          "midi": 58,
          "time": 226.36046511624033,
          "velocity": 0.44881889763779526,
          "duration": 0.023255813953483084
        },
        {
          "name": "A5",
          "midi": 81,
          "time": 226.36046511624033,
          "velocity": 0.28346456692913385,
          "duration": 0.3372093023255047
        },
        {
          "name": "D#7",
          "midi": 99,
          "time": 226.36046511624033,
          "velocity": 0.13385826771653545,
          "duration": 0.11627906976741542
        },
        {
          "name": "F7",
          "midi": 101,
          "time": 226.37209302321708,
          "velocity": 0.14960629921259844,
          "duration": 0.18604651162786467
        },
        {
          "name": "F#3",
          "midi": 54,
          "time": 226.38372093019382,
          "velocity": 0.29133858267716534,
          "duration": 0.023255813953483084
        },
        {
          "name": "D#6",
          "midi": 87,
          "time": 226.38372093019382,
          "velocity": 0.14960629921259844,
          "duration": 0.18604651162786467
        },
        {
          "name": "F#2",
          "midi": 42,
          "time": 226.39534883717056,
          "velocity": 0.47244094488188976,
          "duration": 0.023255813953483084
        },
        {
          "name": "G7",
          "midi": 103,
          "time": 226.39534883717056,
          "velocity": 0.10236220472440945,
          "duration": 0.04651162790696617
        },
        {
          "name": "A3",
          "midi": 57,
          "time": 226.4069767441473,
          "velocity": 0.3779527559055118,
          "duration": 0.023255813953483084
        },
        {
          "name": "B3",
          "midi": 59,
          "time": 226.43023255810078,
          "velocity": 0.3543307086614173,
          "duration": 0.034883720930224626
        },
        {
          "name": "G5",
          "midi": 79,
          "time": 226.43023255810078,
          "velocity": 0.11811023622047244,
          "duration": 0.05813953488370771
        },
        {
          "name": "E6",
          "midi": 88,
          "time": 226.43023255810078,
          "velocity": 0.14173228346456693,
          "duration": 0.034883720930224626
        },
        {
          "name": "F4",
          "midi": 65,
          "time": 226.44186046507753,
          "velocity": 0.30708661417322836,
          "duration": 0.023255813953483084
        },
        {
          "name": "E5",
          "midi": 76,
          "time": 226.44186046507753,
          "velocity": 0.47244094488188976,
          "duration": 1.4418604651159512
        },
        {
          "name": "E4",
          "midi": 64,
          "time": 226.45348837205427,
          "velocity": 0.2677165354330709,
          "duration": 0.023255813953483084
        },
        {
          "name": "A#3",
          "midi": 58,
          "time": 226.465116279031,
          "velocity": 0.3464566929133858,
          "duration": 0.023255813953483084
        },
        {
          "name": "D5",
          "midi": 74,
          "time": 226.465116279031,
          "velocity": 0.15748031496062992,
          "duration": 0.05813953488370771
        },
        {
          "name": "F#7",
          "midi": 102,
          "time": 226.465116279031,
          "velocity": 0.13385826771653545,
          "duration": 0.04651162790696617
        },
        {
          "name": "F3",
          "midi": 53,
          "time": 226.4883720929845,
          "velocity": 0.3543307086614173,
          "duration": 0.034883720930224626
        },
        {
          "name": "E4",
          "midi": 64,
          "time": 226.4883720929845,
          "velocity": 0.18110236220472442,
          "duration": 0.05813953488370771
        },
        {
          "name": "F#5",
          "midi": 78,
          "time": 226.4883720929845,
          "velocity": 0.30708661417322836,
          "duration": 0.15116279069764005
        },
        {
          "name": "D7",
          "midi": 98,
          "time": 226.4883720929845,
          "velocity": 0.14960629921259844,
          "duration": 0.0813953488371908
        },
        {
          "name": "F2",
          "midi": 41,
          "time": 226.49999999996123,
          "velocity": 0.5196850393700787,
          "duration": 0.011627906976741542
        },
        {
          "name": "C4",
          "midi": 60,
          "time": 226.49999999996123,
          "velocity": 0.2755905511811024,
          "duration": 0.023255813953483084
        },
        {
          "name": "B4",
          "midi": 71,
          "time": 226.49999999996123,
          "velocity": 0.1968503937007874,
          "duration": 0.05813953488370771
        },
        {
          "name": "G7",
          "midi": 103,
          "time": 226.49999999996123,
          "velocity": 0.07086614173228346,
          "duration": 0.0813953488371908
        },
        {
          "name": "E2",
          "midi": 40,
          "time": 226.51162790693797,
          "velocity": 0.4881889763779528,
          "duration": 0.034883720930224626
        },
        {
          "name": "G#4",
          "midi": 68,
          "time": 226.51162790693797,
          "velocity": 0.1732283464566929,
          "duration": 0.04651162790696617
        },
        {
          "name": "B3",
          "midi": 59,
          "time": 226.52325581391472,
          "velocity": 0.29133858267716534,
          "duration": 0.023255813953483084
        },
        {
          "name": "C4",
          "midi": 60,
          "time": 226.5465116278682,
          "velocity": 0.2283464566929134,
          "duration": 0.023255813953483084
        },
        {
          "name": "G4",
          "midi": 67,
          "time": 226.55813953484494,
          "velocity": 0.36220472440944884,
          "duration": 0.37209302325572935
        },
        {
          "name": "B5",
          "midi": 83,
          "time": 226.55813953484494,
          "velocity": 0.2125984251968504,
          "duration": 0.0813953488371908
        },
        {
          "name": "B2",
          "midi": 47,
          "time": 226.56976744182168,
          "velocity": 0.5275590551181102,
          "duration": 0.011627906976741542
        },
        {
          "name": "B4",
          "midi": 71,
          "time": 226.56976744182168,
          "velocity": 0.3464566929133858,
          "duration": 0.2209302325580893
        },
        {
          "name": "D3",
          "midi": 50,
          "time": 226.58139534879842,
          "velocity": 0.5669291338582677,
          "duration": 0.011627906976741542
        },
        {
          "name": "B3",
          "midi": 59,
          "time": 226.58139534879842,
          "velocity": 0.4251968503937008,
          "duration": 0.17441860465112313
        },
        {
          "name": "F2",
          "midi": 41,
          "time": 226.59302325577517,
          "velocity": 0.4094488188976378,
          "duration": 0.023255813953483084
        },
        {
          "name": "E3",
          "midi": 52,
          "time": 226.59302325577517,
          "velocity": 0.5196850393700787,
          "duration": 0.09302325581393234
        },
        {
          "name": "D7",
          "midi": 98,
          "time": 226.6046511627519,
          "velocity": 0.11811023622047244,
          "duration": 0.09302325581393234
        },
        {
          "name": "G6",
          "midi": 91,
          "time": 226.61627906972865,
          "velocity": 0.08661417322834646,
          "duration": 0.034883720930224626
        },
        {
          "name": "E2",
          "midi": 40,
          "time": 226.63953488368213,
          "velocity": 0.49606299212598426,
          "duration": 0.023255813953483084
        },
        {
          "name": "D#6",
          "midi": 87,
          "time": 226.69767441856584,
          "velocity": 0.09448818897637795,
          "duration": 0.034883720930224626
        },
        {
          "name": "C3",
          "midi": 48,
          "time": 226.7674418604263,
          "velocity": 0.5669291338582677,
          "duration": 0.034883720930224626
        },
        {
          "name": "F#5",
          "midi": 78,
          "time": 226.77906976740303,
          "velocity": 0.16535433070866143,
          "duration": 0.04651162790696617
        },
        {
          "name": "G#6",
          "midi": 92,
          "time": 226.77906976740303,
          "velocity": 0.12598425196850394,
          "duration": 0.05813953488370771
        },
        {
          "name": "D7",
          "midi": 98,
          "time": 226.77906976740303,
          "velocity": 0.14960629921259844,
          "duration": 0.12790697674415696
        },
        {
          "name": "E4",
          "midi": 64,
          "time": 226.79069767437977,
          "velocity": 0.3700787401574803,
          "duration": 0.3837209302324709
        },
        {
          "name": "C#7",
          "midi": 97,
          "time": 226.79069767437977,
          "velocity": 0.2125984251968504,
          "duration": 0.05813953488370771
        },
        {
          "name": "D#7",
          "midi": 99,
          "time": 226.79069767437977,
          "velocity": 0.12598425196850394,
          "duration": 0.04651162790696617
        },
        {
          "name": "D3",
          "midi": 50,
          "time": 226.8023255813565,
          "velocity": 0.5275590551181102,
          "duration": 0.011627906976741542
        },
        {
          "name": "B3",
          "midi": 59,
          "time": 226.8023255813565,
          "velocity": 0.4251968503937008,
          "duration": 0.09302325581393234
        },
        {
          "name": "E3",
          "midi": 52,
          "time": 226.81395348833325,
          "velocity": 0.5669291338582677,
          "duration": 0.12790697674415696
        },
        {
          "name": "F#7",
          "midi": 102,
          "time": 226.83720930228674,
          "velocity": 0.14173228346456693,
          "duration": 0.0813953488371908
        },
        {
          "name": "E2",
          "midi": 40,
          "time": 226.84883720926348,
          "velocity": 0.49606299212598426,
          "duration": 0.034883720930224626
        },
        {
          "name": "F#5",
          "midi": 78,
          "time": 226.84883720926348,
          "velocity": 0.3543307086614173,
          "duration": 0.19767441860460622
        },
        {
          "name": "G#6",
          "midi": 92,
          "time": 226.86046511624022,
          "velocity": 0.13385826771653545,
          "duration": 0.034883720930224626
        },
        {
          "name": "B2",
          "midi": 47,
          "time": 226.89534883717045,
          "velocity": 0.5118110236220472,
          "duration": 0.011627906976741542
        },
        {
          "name": "C4",
          "midi": 60,
          "time": 226.91860465112393,
          "velocity": 0.2440944881889764,
          "duration": 0.023255813953483084
        },
        {
          "name": "C3",
          "midi": 48,
          "time": 226.9418604650774,
          "velocity": 0.5118110236220472,
          "duration": 0.011627906976741542
        },
        {
          "name": "F3",
          "midi": 53,
          "time": 226.9418604650774,
          "velocity": 0.5275590551181102,
          "duration": 0.011627906976741542
        },
        {
          "name": "G#6",
          "midi": 92,
          "time": 226.9418604650774,
          "velocity": 0.12598425196850394,
          "duration": 0.05813953488370771
        },
        {
          "name": "B2",
          "midi": 47,
          "time": 226.95348837205415,
          "velocity": 0.5748031496062992,
          "duration": 0.06976744186044925
        },
        {
          "name": "F2",
          "midi": 41,
          "time": 226.99999999996112,
          "velocity": 0.5275590551181102,
          "duration": 0.011627906976741542
        },
        {
          "name": "C#7",
          "midi": 97,
          "time": 226.99999999996112,
          "velocity": 0.2440944881889764,
          "duration": 0.5348837209301109
        },
        {
          "name": "G4",
          "midi": 67,
          "time": 227.01162790693786,
          "velocity": 0.5118110236220472,
          "duration": 0.3023255813952801
        },
        {
          "name": "D#7",
          "midi": 99,
          "time": 227.01162790693786,
          "velocity": 0.11811023622047244,
          "duration": 0.05813953488370771
        },
        {
          "name": "C3",
          "midi": 48,
          "time": 227.0232558139146,
          "velocity": 0.5590551181102362,
          "duration": 0.023255813953483084
        },
        {
          "name": "B3",
          "midi": 59,
          "time": 227.03488372089134,
          "velocity": 0.33070866141732286,
          "duration": 0.1395348837208985
        },
        {
          "name": "D6",
          "midi": 86,
          "time": 227.03488372089134,
          "velocity": 0.08661417322834646,
          "duration": 0.05813953488370771
        },
        {
          "name": "G6",
          "midi": 91,
          "time": 227.03488372089134,
          "velocity": 0.07086614173228346,
          "duration": 0.034883720930224626
        },
        {
          "name": "F#7",
          "midi": 102,
          "time": 227.03488372089134,
          "velocity": 0.07086614173228346,
          "duration": 0.04651162790696617
        },
        {
          "name": "A2",
          "midi": 45,
          "time": 227.04651162786809,
          "velocity": 0.5511811023622047,
          "duration": 0.011627906976741542
        },
        {
          "name": "F#6",
          "midi": 90,
          "time": 227.04651162786809,
          "velocity": 0.07086614173228346,
          "duration": 0.06976744186044925
        },
        {
          "name": "G#6",
          "midi": 92,
          "time": 227.04651162786809,
          "velocity": 0.11023622047244094,
          "duration": 0.034883720930224626
        },
        {
          "name": "F#2",
          "midi": 42,
          "time": 227.05813953484483,
          "velocity": 0.5118110236220472,
          "duration": 0.011627906976741542
        },
        {
          "name": "B2",
          "midi": 47,
          "time": 227.05813953484483,
          "velocity": 0.5275590551181102,
          "duration": 0.011627906976741542
        },
        {
          "name": "D7",
          "midi": 98,
          "time": 227.05813953484483,
          "velocity": 0.11811023622047244,
          "duration": 0.04651162790696617
        },
        {
          "name": "A2",
          "midi": 45,
          "time": 227.06976744182157,
          "velocity": 0.5511811023622047,
          "duration": 0.011627906976741542
        },
        {
          "name": "D#6",
          "midi": 87,
          "time": 227.06976744182157,
          "velocity": 0.14173228346456693,
          "duration": 0.05813953488370771
        },
        {
          "name": "B5",
          "midi": 83,
          "time": 227.0813953487983,
          "velocity": 0.2047244094488189,
          "duration": 0.09302325581393234
        },
        {
          "name": "F3",
          "midi": 53,
          "time": 227.09302325577505,
          "velocity": 0.3700787401574803,
          "duration": 0.023255813953483084
        },
        {
          "name": "F#7",
          "midi": 102,
          "time": 227.09302325577505,
          "velocity": 0.08661417322834646,
          "duration": 0.10465116279067388
        },
        {
          "name": "F#5",
          "midi": 78,
          "time": 227.1046511627518,
          "velocity": 0.2755905511811024,
          "duration": 0.09302325581393234
        },
        {
          "name": "G#2",
          "midi": 44,
          "time": 227.11627906972853,
          "velocity": 0.4251968503937008,
          "duration": 0.023255813953483084
        },
        {
          "name": "F7",
          "midi": 101,
          "time": 227.11627906972853,
          "velocity": 0.12598425196850394,
          "duration": 0.0813953488371908
        },
        {
          "name": "E2",
          "midi": 40,
          "time": 227.15116279065876,
          "velocity": 0.41732283464566927,
          "duration": 0.023255813953483084
        },
        {
          "name": "B2",
          "midi": 47,
          "time": 227.15116279065876,
          "velocity": 0.3700787401574803,
          "duration": 0.04651162790696617
        },
        {
          "name": "D7",
          "midi": 98,
          "time": 227.15116279065876,
          "velocity": 0.14960629921259844,
          "duration": 0.05813953488370771
        },
        {
          "name": "C4",
          "midi": 60,
          "time": 227.19767441856573,
          "velocity": 0.5039370078740157,
          "duration": 0.04651162790696617
        },
        {
          "name": "D5",
          "midi": 74,
          "time": 227.19767441856573,
          "velocity": 0.36220472440944884,
          "duration": 0.023255813953483084
        },
        {
          "name": "D#7",
          "midi": 99,
          "time": 227.19767441856573,
          "velocity": 0.25196850393700787,
          "duration": 0.3023255813952801
        },
        {
          "name": "A5",
          "midi": 81,
          "time": 227.20930232554247,
          "velocity": 0.29133858267716534,
          "duration": 0.3604651162789878
        },
        {
          "name": "C6",
          "midi": 84,
          "time": 227.20930232554247,
          "velocity": 0.11811023622047244,
          "duration": 0.05813953488370771
        },
        {
          "name": "D#6",
          "midi": 87,
          "time": 227.20930232554247,
          "velocity": 0.15748031496062992,
          "duration": 0.034883720930224626
        },
        {
          "name": "F#6",
          "midi": 90,
          "time": 227.20930232554247,
          "velocity": 0.12598425196850394,
          "duration": 0.12790697674415696
        },
        {
          "name": "B4",
          "midi": 71,
          "time": 227.2209302325192,
          "velocity": 0.3937007874015748,
          "duration": 0.4186046511626955
        },
        {
          "name": "C#5",
          "midi": 73,
          "time": 227.2209302325192,
          "velocity": 0.29133858267716534,
          "duration": 0.023255813953483084
        },
        {
          "name": "F#5",
          "midi": 78,
          "time": 227.23255813949595,
          "velocity": 0.28346456692913385,
          "duration": 0.09302325581393234
        },
        {
          "name": "C7",
          "midi": 96,
          "time": 227.23255813949595,
          "velocity": 0.11811023622047244,
          "duration": 0.034883720930224626
        },
        {
          "name": "D7",
          "midi": 98,
          "time": 227.23255813949595,
          "velocity": 0.2204724409448819,
          "duration": 0.1395348837208985
        },
        {
          "name": "F7",
          "midi": 101,
          "time": 227.23255813949595,
          "velocity": 0.23622047244094488,
          "duration": 0.279069767441797
        },
        {
          "name": "A#3",
          "midi": 58,
          "time": 227.2441860464727,
          "velocity": 0.33858267716535434,
          "duration": 0.023255813953483084
        },
        {
          "name": "D6",
          "midi": 86,
          "time": 227.2441860464727,
          "velocity": 0.11811023622047244,
          "duration": 0.1395348837208985
        },
        {
          "name": "F#7",
          "midi": 102,
          "time": 227.2441860464727,
          "velocity": 0.12598425196850394,
          "duration": 0.034883720930224626
        },
        {
          "name": "G#6",
          "midi": 92,
          "time": 227.27906976740292,
          "velocity": 0.14173228346456693,
          "duration": 0.12790697674415696
        },
        {
          "name": "F4",
          "midi": 65,
          "time": 227.29069767437966,
          "velocity": 0.25984251968503935,
          "duration": 0.034883720930224626
        },
        {
          "name": "D5",
          "midi": 74,
          "time": 227.3023255813564,
          "velocity": 0.2125984251968504,
          "duration": 0.05813953488370771
        },
        {
          "name": "F#7",
          "midi": 102,
          "time": 227.3023255813564,
          "velocity": 0.1732283464566929,
          "duration": 0.06976744186044925
        },
        {
          "name": "A#3",
          "midi": 58,
          "time": 227.31395348833314,
          "velocity": 0.2992125984251969,
          "duration": 0.04651162790696617
        },
        {
          "name": "G#4",
          "midi": 68,
          "time": 227.31395348833314,
          "velocity": 0.1889763779527559,
          "duration": 0.034883720930224626
        },
        {
          "name": "D#3",
          "midi": 51,
          "time": 227.33720930228662,
          "velocity": 0.3700787401574803,
          "duration": 0.023255813953483084
        },
        {
          "name": "F#5",
          "midi": 78,
          "time": 227.33720930228662,
          "velocity": 0.1732283464566929,
          "duration": 0.09302325581393234
        },
        {
          "name": "D#6",
          "midi": 87,
          "time": 227.33720930228662,
          "velocity": 0.08661417322834646,
          "duration": 0.04651162790696617
        },
        {
          "name": "E4",
          "midi": 64,
          "time": 227.34883720926337,
          "velocity": 0.33070866141732286,
          "duration": 0.23255813953483084
        },
        {
          "name": "E3",
          "midi": 52,
          "time": 227.3604651162401,
          "velocity": 0.3779527559055118,
          "duration": 0.06976744186044925
        },
        {
          "name": "B3",
          "midi": 59,
          "time": 227.3604651162401,
          "velocity": 0.25196850393700787,
          "duration": 0.04651162790696617
        },
        {
          "name": "G#4",
          "midi": 68,
          "time": 227.37209302321685,
          "velocity": 0.25984251968503935,
          "duration": 0.023255813953483084
        },
        {
          "name": "A#6",
          "midi": 94,
          "time": 227.37209302321685,
          "velocity": 0.10236220472440945,
          "duration": 0.10465116279067388
        },
        {
          "name": "D7",
          "midi": 98,
          "time": 227.39534883717033,
          "velocity": 0.2283464566929134,
          "duration": 0.3372093023255047
        },
        {
          "name": "C4",
          "midi": 60,
          "time": 227.40697674414707,
          "velocity": 0.2283464566929134,
          "duration": 0.034883720930224626
        },
        {
          "name": "C2",
          "midi": 36,
          "time": 227.43023255810056,
          "velocity": 0.5118110236220472,
          "duration": 0.011627906976741542
        },
        {
          "name": "G5",
          "midi": 79,
          "time": 227.43023255810056,
          "velocity": 0.2440944881889764,
          "duration": 0.034883720930224626
        },
        {
          "name": "F#6",
          "midi": 90,
          "time": 227.43023255810056,
          "velocity": 0.10236220472440945,
          "duration": 0.05813953488370771
        },
        {
          "name": "G4",
          "midi": 67,
          "time": 227.4418604650773,
          "velocity": 0.36220472440944884,
          "duration": 0.20930232558134776
        },
        {
          "name": "D6",
          "midi": 86,
          "time": 227.4418604650773,
          "velocity": 0.11023622047244094,
          "duration": 0.04651162790696617
        },
        {
          "name": "G#6",
          "midi": 92,
          "time": 227.45348837205404,
          "velocity": 0.09448818897637795,
          "duration": 0.06976744186044925
        },
        {
          "name": "G#2",
          "midi": 44,
          "time": 227.46511627903078,
          "velocity": 0.4645669291338583,
          "duration": 0.034883720930224626
        },
        {
          "name": "B3",
          "midi": 59,
          "time": 227.46511627903078,
          "velocity": 0.41732283464566927,
          "duration": 0.1627906976743816
        },
        {
          "name": "D#6",
          "midi": 87,
          "time": 227.46511627903078,
          "velocity": 0.14960629921259844,
          "duration": 0.1395348837208985
        },
        {
          "name": "G6",
          "midi": 91,
          "time": 227.46511627903078,
          "velocity": 0.09448818897637795,
          "duration": 0.034883720930224626
        },
        {
          "name": "F#7",
          "midi": 102,
          "time": 227.47674418600752,
          "velocity": 0.11023622047244094,
          "duration": 0.06976744186044925
        },
        {
          "name": "F3",
          "midi": 53,
          "time": 227.499999999961,
          "velocity": 0.3858267716535433,
          "duration": 0.034883720930224626
        },
        {
          "name": "C7",
          "midi": 96,
          "time": 227.5232558139145,
          "velocity": 0.10236220472440945,
          "duration": 0.10465116279067388
        },
        {
          "name": "F2",
          "midi": 41,
          "time": 227.53488372089123,
          "velocity": 0.5433070866141733,
          "duration": 0.05813953488370771
        },
        {
          "name": "E3",
          "midi": 52,
          "time": 227.53488372089123,
          "velocity": 0.3858267716535433,
          "duration": 0.023255813953483084
        },
        {
          "name": "C#7",
          "midi": 97,
          "time": 227.54651162786797,
          "velocity": 0.2204724409448819,
          "duration": 0.1627906976743816
        },
        {
          "name": "D#3",
          "midi": 51,
          "time": 227.5581395348447,
          "velocity": 0.3464566929133858,
          "duration": 0.023255813953483084
        },
        {
          "name": "F#5",
          "midi": 78,
          "time": 227.5813953487982,
          "velocity": 0.1889763779527559,
          "duration": 0.034883720930224626
        },
        {
          "name": "E4",
          "midi": 64,
          "time": 227.59302325577494,
          "velocity": 0.44881889763779526,
          "duration": 0.39534883720921243
        },
        {
          "name": "D#2",
          "midi": 39,
          "time": 227.60465116275168,
          "velocity": 0.3779527559055118,
          "duration": 0.023255813953483084
        },
        {
          "name": "D#7",
          "midi": 99,
          "time": 227.60465116275168,
          "velocity": 0.15748031496062992,
          "duration": 0.10465116279067388
        },
        {
          "name": "F2",
          "midi": 41,
          "time": 227.62790697670516,
          "velocity": 0.5748031496062992,
          "duration": 0.023255813953483084
        },
        {
          "name": "G6",
          "midi": 91,
          "time": 227.62790697670516,
          "velocity": 0.09448818897637795,
          "duration": 0.034883720930224626
        },
        {
          "name": "A3",
          "midi": 57,
          "time": 227.6395348836819,
          "velocity": 0.4645669291338583,
          "duration": 0.04651162790696617
        },
        {
          "name": "C5",
          "midi": 72,
          "time": 227.6395348836819,
          "velocity": 0.29133858267716534,
          "duration": 0.023255813953483084
        },
        {
          "name": "F#7",
          "midi": 102,
          "time": 227.6395348836819,
          "velocity": 0.1732283464566929,
          "duration": 0.034883720930224626
        },
        {
          "name": "G#2",
          "midi": 44,
          "time": 227.65116279065865,
          "velocity": 0.6062992125984252,
          "duration": 0.011627906976741542
        },
        {
          "name": "D5",
          "midi": 74,
          "time": 227.65116279065865,
          "velocity": 0.12598425196850394,
          "duration": 0.04651162790696617
        },
        {
          "name": "G2",
          "midi": 43,
          "time": 227.6627906976354,
          "velocity": 0.5433070866141733,
          "duration": 0.011627906976741542
        },
        {
          "name": "G4",
          "midi": 67,
          "time": 227.6627906976354,
          "velocity": 0.3858267716535433,
          "duration": 0.18604651162786467
        },
        {
          "name": "B4",
          "midi": 71,
          "time": 227.6627906976354,
          "velocity": 0.4015748031496063,
          "duration": 0.1627906976743816
        },
        {
          "name": "C#6",
          "midi": 85,
          "time": 227.67441860461213,
          "velocity": 0.07086614173228346,
          "duration": 0.04651162790696617
        },
        {
          "name": "E3",
          "midi": 52,
          "time": 227.70930232554235,
          "velocity": 0.5118110236220472,
          "duration": 0.011627906976741542
        },
        {
          "name": "B3",
          "midi": 59,
          "time": 227.70930232554235,
          "velocity": 0.36220472440944884,
          "duration": 0.023255813953483084
        },
        {
          "name": "F#5",
          "midi": 78,
          "time": 227.70930232554235,
          "velocity": 0.18110236220472442,
          "duration": 0.09302325581393234
        },
        {
          "name": "B2",
          "midi": 47,
          "time": 227.7209302325191,
          "velocity": 0.4645669291338583,
          "duration": 0.023255813953483084
        },
        {
          "name": "E2",
          "midi": 40,
          "time": 227.73255813949584,
          "velocity": 0.4409448818897638,
          "duration": 0.023255813953483084
        },
        {
          "name": "E3",
          "midi": 52,
          "time": 227.73255813949584,
          "velocity": 0.5354330708661418,
          "duration": 0.04651162790696617
        },
        {
          "name": "B3",
          "midi": 59,
          "time": 227.79069767437954,
          "velocity": 0.28346456692913385,
          "duration": 0.05813953488370771
        },
        {
          "name": "B2",
          "midi": 47,
          "time": 227.80232558135629,
          "velocity": 0.2677165354330709,
          "duration": 0.023255813953483084
        },
        {
          "name": "F3",
          "midi": 53,
          "time": 227.80232558135629,
          "velocity": 0.29133858267716534,
          "duration": 0.023255813953483084
        },
        {
          "name": "F#7",
          "midi": 102,
          "time": 227.82558139530977,
          "velocity": 0.09448818897637795,
          "duration": 0.05813953488370771
        },
        {
          "name": "D#2",
          "midi": 39,
          "time": 227.8372093022865,
          "velocity": 0.5354330708661418,
          "duration": 0.023255813953483084
        },
        {
          "name": "B4",
          "midi": 71,
          "time": 227.84883720926325,
          "velocity": 0.3700787401574803,
          "duration": 0.20930232558134776
        },
        {
          "name": "F2",
          "midi": 41,
          "time": 227.86046511624,
          "velocity": 0.5275590551181102,
          "duration": 0.011627906976741542
        },
        {
          "name": "A3",
          "midi": 57,
          "time": 227.86046511624,
          "velocity": 0.3228346456692913,
          "duration": 0.023255813953483084
        },
        {
          "name": "G4",
          "midi": 67,
          "time": 227.86046511624,
          "velocity": 0.4251968503937008,
          "duration": 0.29069767441853855
        },
        {
          "name": "C#7",
          "midi": 97,
          "time": 227.87209302321673,
          "velocity": 0.11811023622047244,
          "duration": 0.05813953488370771
        },
        {
          "name": "F#5",
          "midi": 78,
          "time": 227.88372093019348,
          "velocity": 0.3700787401574803,
          "duration": 0.3372093023255047
        },
        {
          "name": "E3",
          "midi": 52,
          "time": 227.89534883717022,
          "velocity": 0.4251968503937008,
          "duration": 0.023255813953483084
        },
        {
          "name": "B3",
          "midi": 59,
          "time": 227.89534883717022,
          "velocity": 0.31496062992125984,
          "duration": 0.034883720930224626
        },
        {
          "name": "D7",
          "midi": 98,
          "time": 227.89534883717022,
          "velocity": 0.11811023622047244,
          "duration": 0.034883720930224626
        },
        {
          "name": "D#7",
          "midi": 99,
          "time": 227.89534883717022,
          "velocity": 0.11023622047244094,
          "duration": 0.05813953488370771
        },
        {
          "name": "F2",
          "midi": 41,
          "time": 227.90697674414696,
          "velocity": 0.5354330708661418,
          "duration": 0.011627906976741542
        },
        {
          "name": "E3",
          "midi": 52,
          "time": 227.93023255810044,
          "velocity": 0.5590551181102362,
          "duration": 0.034883720930224626
        },
        {
          "name": "C4",
          "midi": 60,
          "time": 227.93023255810044,
          "velocity": 0.2992125984251969,
          "duration": 0.023255813953483084
        },
        {
          "name": "D#3",
          "midi": 51,
          "time": 227.96511627903067,
          "velocity": 0.5590551181102362,
          "duration": 0.011627906976741542
        },
        {
          "name": "B3",
          "midi": 59,
          "time": 227.96511627903067,
          "velocity": 0.3228346456692913,
          "duration": 0.0813953488371908
        },
        {
          "name": "C#2",
          "midi": 37,
          "time": 227.9767441860074,
          "velocity": 0.36220472440944884,
          "duration": 0.023255813953483084
        },
        {
          "name": "E3",
          "midi": 52,
          "time": 227.9767441860074,
          "velocity": 0.5275590551181102,
          "duration": 0.05813953488370771
        },
        {
          "name": "D#6",
          "midi": 87,
          "time": 227.98837209298415,
          "velocity": 0.07874015748031496,
          "duration": 0.034883720930224626
        },
        {
          "name": "E2",
          "midi": 40,
          "time": 227.9999999999609,
          "velocity": 0.4566929133858268,
          "duration": 0.023255813953483084
        },
        {
          "name": "B6",
          "midi": 95,
          "time": 227.9999999999609,
          "velocity": 0.2755905511811024,
          "duration": 0.406976744185954
        },
        {
          "name": "E2",
          "midi": 40,
          "time": 228.03488372089112,
          "velocity": 0.5196850393700787,
          "duration": 0.011627906976741542
        },
        {
          "name": "F2",
          "midi": 41,
          "time": 228.04651162786786,
          "velocity": 0.5511811023622047,
          "duration": 0.011627906976741542
        },
        {
          "name": "D#7",
          "midi": 99,
          "time": 228.04651162786786,
          "velocity": 0.1968503937007874,
          "duration": 0.29069767441853855
        },
        {
          "name": "A#3",
          "midi": 58,
          "time": 228.0581395348446,
          "velocity": 0.4409448818897638,
          "duration": 0.034883720930224626
        },
        {
          "name": "D5",
          "midi": 74,
          "time": 228.0581395348446,
          "velocity": 0.4409448818897638,
          "duration": 0.04651162790696617
        },
        {
          "name": "B5",
          "midi": 83,
          "time": 228.0581395348446,
          "velocity": 0.14173228346456693,
          "duration": 0.10465116279067388
        },
        {
          "name": "A5",
          "midi": 81,
          "time": 228.06976744182134,
          "velocity": 0.29133858267716534,
          "duration": 0.24418604651157239
        },
        {
          "name": "D7",
          "midi": 98,
          "time": 228.06976744182134,
          "velocity": 0.2204724409448819,
          "duration": 0.04651162790696617
        },
        {
          "name": "E2",
          "midi": 40,
          "time": 228.08139534879808,
          "velocity": 0.5196850393700787,
          "duration": 0.011627906976741542
        },
        {
          "name": "B4",
          "midi": 71,
          "time": 228.08139534879808,
          "velocity": 0.33070866141732286,
          "duration": 0.09302325581393234
        },
        {
          "name": "C6",
          "midi": 84,
          "time": 228.08139534879808,
          "velocity": 0.16535433070866143,
          "duration": 0.05813953488370771
        },
        {
          "name": "C#7",
          "midi": 97,
          "time": 228.08139534879808,
          "velocity": 0.2047244094488189,
          "duration": 0.10465116279067388
        },
        {
          "name": "F2",
          "midi": 41,
          "time": 228.09302325577482,
          "velocity": 0.5669291338582677,
          "duration": 0.011627906976741542
        },
        {
          "name": "G#6",
          "midi": 92,
          "time": 228.09302325577482,
          "velocity": 0.10236220472440945,
          "duration": 0.04651162790696617
        },
        {
          "name": "F7",
          "midi": 101,
          "time": 228.09302325577482,
          "velocity": 0.09448818897637795,
          "duration": 0.05813953488370771
        },
        {
          "name": "G7",
          "midi": 103,
          "time": 228.09302325577482,
          "velocity": 0.07086614173228346,
          "duration": 0.04651162790696617
        },
        {
          "name": "G2",
          "midi": 43,
          "time": 228.10465116275157,
          "velocity": 0.5196850393700787,
          "duration": 0.034883720930224626
        },
        {
          "name": "E3",
          "midi": 52,
          "time": 228.1162790697283,
          "velocity": 0.3779527559055118,
          "duration": 0.034883720930224626
        },
        {
          "name": "F#7",
          "midi": 102,
          "time": 228.1162790697283,
          "velocity": 0.13385826771653545,
          "duration": 0.06976744186044925
        },
        {
          "name": "D5",
          "midi": 74,
          "time": 228.12790697670505,
          "velocity": 0.2125984251968504,
          "duration": 0.0813953488371908
        },
        {
          "name": "D7",
          "midi": 98,
          "time": 228.1395348836818,
          "velocity": 0.1732283464566929,
          "duration": 0.0813953488371908
        },
        {
          "name": "B3",
          "midi": 59,
          "time": 228.15116279065853,
          "velocity": 0.4094488188976378,
          "duration": 0.12790697674415696
        },
        {
          "name": "E2",
          "midi": 40,
          "time": 228.16279069763527,
          "velocity": 0.5118110236220472,
          "duration": 0.011627906976741542
        },
        {
          "name": "A4",
          "midi": 69,
          "time": 228.16279069763527,
          "velocity": 0.13385826771653545,
          "duration": 0.034883720930224626
        },
        {
          "name": "D#6",
          "midi": 87,
          "time": 228.16279069763527,
          "velocity": 0.07086614173228346,
          "duration": 0.05813953488370771
        },
        {
          "name": "C7",
          "midi": 96,
          "time": 228.16279069763527,
          "velocity": 0.11023622047244094,
          "duration": 0.06976744186044925
        },
        {
          "name": "F2",
          "midi": 41,
          "time": 228.17441860461201,
          "velocity": 0.5669291338582677,
          "duration": 0.06976744186044925
        },
        {
          "name": "F#3",
          "midi": 54,
          "time": 228.18604651158876,
          "velocity": 0.2755905511811024,
          "duration": 0.034883720930224626
        },
        {
          "name": "G5",
          "midi": 79,
          "time": 228.1976744185655,
          "velocity": 0.18110236220472442,
          "duration": 0.034883720930224626
        },
        {
          "name": "C#7",
          "midi": 97,
          "time": 228.1976744185655,
          "velocity": 0.1968503937007874,
          "duration": 0.12790697674415696
        },
        {
          "name": "E4",
          "midi": 64,
          "time": 228.22093023251898,
          "velocity": 0.2440944881889764,
          "duration": 0.06976744186044925
        },
        {
          "name": "G#4",
          "midi": 68,
          "time": 228.23255813949572,
          "velocity": 0.13385826771653545,
          "duration": 0.04651162790696617
        },
        {
          "name": "F#5",
          "midi": 78,
          "time": 228.23255813949572,
          "velocity": 0.29133858267716534,
          "duration": 0.11627906976741542
        },
        {
          "name": "D7",
          "midi": 98,
          "time": 228.23255813949572,
          "velocity": 0.2204724409448819,
          "duration": 0.15116279069764005
        },
        {
          "name": "F3",
          "midi": 53,
          "time": 228.2558139534492,
          "velocity": 0.4094488188976378,
          "duration": 0.034883720930224626
        },
        {
          "name": "G5",
          "midi": 79,
          "time": 228.2558139534492,
          "velocity": 0.10236220472440945,
          "duration": 0.034883720930224626
        },
        {
          "name": "F#7",
          "midi": 102,
          "time": 228.2790697674027,
          "velocity": 0.11811023622047244,
          "duration": 0.04651162790696617
        },
        {
          "name": "F#2",
          "midi": 42,
          "time": 228.29069767437943,
          "velocity": 0.5590551181102362,
          "duration": 0.023255813953483084
        },
        {
          "name": "G4",
          "midi": 67,
          "time": 228.29069767437943,
          "velocity": 0.33858267716535434,
          "duration": 0.2209302325580893
        },
        {
          "name": "B4",
          "midi": 71,
          "time": 228.29069767437943,
          "velocity": 0.2125984251968504,
          "duration": 0.12790697674415696
        },
        {
          "name": "G6",
          "midi": 91,
          "time": 228.29069767437943,
          "velocity": 0.12598425196850394,
          "duration": 0.06976744186044925
        },
        {
          "name": "C7",
          "midi": 96,
          "time": 228.29069767437943,
          "velocity": 0.08661417322834646,
          "duration": 0.06976744186044925
        },
        {
          "name": "D3",
          "midi": 50,
          "time": 228.30232558135617,
          "velocity": 0.4881889763779528,
          "duration": 0.023255813953483084
        },
        {
          "name": "G#3",
          "midi": 56,
          "time": 228.30232558135617,
          "velocity": 0.48031496062992124,
          "duration": 0.023255813953483084
        },
        {
          "name": "C#6",
          "midi": 85,
          "time": 228.30232558135617,
          "velocity": 0.09448818897637795,
          "duration": 0.034883720930224626
        },
        {
          "name": "E5",
          "midi": 76,
          "time": 228.3139534883329,
          "velocity": 0.3700787401574803,
          "duration": 0.18604651162786467
        },
        {
          "name": "C3",
          "midi": 48,
          "time": 228.32558139530965,
          "velocity": 0.4881889763779528,
          "duration": 0.023255813953483084
        },
        {
          "name": "A#3",
          "midi": 58,
          "time": 228.32558139530965,
          "velocity": 0.33070866141732286,
          "duration": 0.023255813953483084
        },
        {
          "name": "D#4",
          "midi": 63,
          "time": 228.32558139530965,
          "velocity": 0.3464566929133858,
          "duration": 0.04651162790696617
        },
        {
          "name": "D#6",
          "midi": 87,
          "time": 228.32558139530965,
          "velocity": 0.15748031496062992,
          "duration": 0.05813953488370771
        },
        {
          "name": "E3",
          "midi": 52,
          "time": 228.34883720926314,
          "velocity": 0.5354330708661418,
          "duration": 0.05813953488370771
        },
        {
          "name": "B3",
          "midi": 59,
          "time": 228.36046511623988,
          "velocity": 0.3937007874015748,
          "duration": 0.11627906976741542
        },
        {
          "name": "A#6",
          "midi": 94,
          "time": 228.3953488371701,
          "velocity": 0.1732283464566929,
          "duration": 0.0813953488371908
        },
        {
          "name": "D#7",
          "midi": 99,
          "time": 228.3953488371701,
          "velocity": 0.1889763779527559,
          "duration": 0.1627906976743816
        },
        {
          "name": "F#5",
          "midi": 78,
          "time": 228.4186046511236,
          "velocity": 0.2283464566929134,
          "duration": 0.20930232558134776
        },
        {
          "name": "D#6",
          "midi": 87,
          "time": 228.4186046511236,
          "velocity": 0.09448818897637795,
          "duration": 0.04651162790696617
        },
        {
          "name": "G7",
          "midi": 103,
          "time": 228.4186046511236,
          "velocity": 0.2677165354330709,
          "duration": 0.10465116279067388
        },
        {
          "name": "D7",
          "midi": 98,
          "time": 228.44186046507707,
          "velocity": 0.18110236220472442,
          "duration": 0.12790697674415696
        },
        {
          "name": "F#7",
          "midi": 102,
          "time": 228.46511627903055,
          "velocity": 0.25196850393700787,
          "duration": 0.10465116279067388
        },
        {
          "name": "C4",
          "midi": 60,
          "time": 228.4767441860073,
          "velocity": 0.3464566929133858,
          "duration": 0.05813953488370771
        },
        {
          "name": "E4",
          "midi": 64,
          "time": 228.48837209298404,
          "velocity": 0.41732283464566927,
          "duration": 0.2558139534883139
        },
        {
          "name": "C3",
          "midi": 48,
          "time": 228.49999999996078,
          "velocity": 0.5354330708661418,
          "duration": 0.023255813953483084
        },
        {
          "name": "A4",
          "midi": 69,
          "time": 228.49999999996078,
          "velocity": 0.23622047244094488,
          "duration": 0.023255813953483084
        },
        {
          "name": "D#6",
          "midi": 87,
          "time": 228.49999999996078,
          "velocity": 0.07086614173228346,
          "duration": 0.034883720930224626
        },
        {
          "name": "E7",
          "midi": 100,
          "time": 228.49999999996078,
          "velocity": 0.13385826771653545,
          "duration": 0.04651162790696617
        },
        {
          "name": "C#7",
          "midi": 97,
          "time": 228.51162790693752,
          "velocity": 0.1889763779527559,
          "duration": 0.05813953488370771
        },
        {
          "name": "B4",
          "midi": 71,
          "time": 228.52325581391426,
          "velocity": 0.3464566929133858,
          "duration": 0.39534883720921243
        },
        {
          "name": "E3",
          "midi": 52,
          "time": 228.534883720891,
          "velocity": 0.5433070866141733,
          "duration": 0.12790697674415696
        },
        {
          "name": "C3",
          "midi": 48,
          "time": 228.54651162786774,
          "velocity": 0.4645669291338583,
          "duration": 0.023255813953483084
        },
        {
          "name": "B3",
          "midi": 59,
          "time": 228.54651162786774,
          "velocity": 0.3464566929133858,
          "duration": 0.023255813953483084
        },
        {
          "name": "G4",
          "midi": 67,
          "time": 228.54651162786774,
          "velocity": 0.2047244094488189,
          "duration": 0.10465116279067388
        },
        {
          "name": "F2",
          "midi": 41,
          "time": 228.55813953484449,
          "velocity": 0.4645669291338583,
          "duration": 0.023255813953483084
        },
        {
          "name": "B3",
          "midi": 59,
          "time": 228.58139534879797,
          "velocity": 0.3543307086614173,
          "duration": 0.05813953488370771
        },
        {
          "name": "E7",
          "midi": 100,
          "time": 228.5930232557747,
          "velocity": 0.09448818897637795,
          "duration": 0.10465116279067388
        },
        {
          "name": "C3",
          "midi": 48,
          "time": 228.60465116275145,
          "velocity": 0.5118110236220472,
          "duration": 0.011627906976741542
        },
        {
          "name": "B2",
          "midi": 47,
          "time": 228.6162790697282,
          "velocity": 0.5196850393700787,
          "duration": 0.011627906976741542
        },
        {
          "name": "C3",
          "midi": 48,
          "time": 228.66279069763516,
          "velocity": 0.5511811023622047,
          "duration": 0.023255813953483084
        },
        {
          "name": "F3",
          "midi": 53,
          "time": 228.66279069763516,
          "velocity": 0.5118110236220472,
          "duration": 0.011627906976741542
        },
        {
          "name": "B2",
          "midi": 47,
          "time": 228.68604651158864,
          "velocity": 0.5433070866141733,
          "duration": 0.023255813953483084
        },
        {
          "name": "G4",
          "midi": 67,
          "time": 228.69767441856538,
          "velocity": 0.1889763779527559,
          "duration": 0.034883720930224626
        },
        {
          "name": "E0",
          "midi": 16,
          "time": 228.70930232554213,
          "velocity": 0.3700787401574803,
          "duration": 0.023255813953483084
        },
        {
          "name": "A#2",
          "midi": 46,
          "time": 228.70930232554213,
          "velocity": 0.5748031496062992,
          "duration": 0.011627906976741542
        },
        {
          "name": "F#5",
          "midi": 78,
          "time": 228.70930232554213,
          "velocity": 0.2204724409448819,
          "duration": 0.05813953488370771
        },
        {
          "name": "D7",
          "midi": 98,
          "time": 228.70930232554213,
          "velocity": 0.16535433070866143,
          "duration": 0.034883720930224626
        },
        {
          "name": "B2",
          "midi": 47,
          "time": 228.72093023251887,
          "velocity": 0.5905511811023622,
          "duration": 0.023255813953483084
        },
        {
          "name": "C#7",
          "midi": 97,
          "time": 228.72093023251887,
          "velocity": 0.2755905511811024,
          "duration": 0.3023255813952801
        },
        {
          "name": "F#2",
          "midi": 42,
          "time": 228.74418604647235,
          "velocity": 0.5275590551181102,
          "duration": 0.011627906976741542
        },
        {
          "name": "C3",
          "midi": 48,
          "time": 228.74418604647235,
          "velocity": 0.5118110236220472,
          "duration": 0.011627906976741542
        },
        {
          "name": "G4",
          "midi": 67,
          "time": 228.74418604647235,
          "velocity": 0.5433070866141733,
          "duration": 0.2558139534883139
        },
        {
          "name": "F#7",
          "midi": 102,
          "time": 228.74418604647235,
          "velocity": 0.11023622047244094,
          "duration": 0.06976744186044925
        },
        {
          "name": "E2",
          "midi": 40,
          "time": 228.7558139534491,
          "velocity": 0.5984251968503937,
          "duration": 0.011627906976741542
        },
        {
          "name": "E4",
          "midi": 64,
          "time": 228.7558139534491,
          "velocity": 0.3543307086614173,
          "duration": 0.1627906976743816
        },
        {
          "name": "G#6",
          "midi": 92,
          "time": 228.7558139534491,
          "velocity": 0.09448818897637795,
          "duration": 0.06976744186044925
        },
        {
          "name": "A2",
          "midi": 45,
          "time": 228.76744186042583,
          "velocity": 0.5984251968503937,
          "duration": 0.011627906976741542
        },
        {
          "name": "B3",
          "midi": 59,
          "time": 228.76744186042583,
          "velocity": 0.1732283464566929,
          "duration": 0.034883720930224626
        },
        {
          "name": "D#7",
          "midi": 99,
          "time": 228.76744186042583,
          "velocity": 0.10236220472440945,
          "duration": 0.0813953488371908
        },
        {
          "name": "B2",
          "midi": 47,
          "time": 228.77906976740258,
          "velocity": 0.5590551181102362,
          "duration": 0.034883720930224626
        },
        {
          "name": "D7",
          "midi": 98,
          "time": 228.77906976740258,
          "velocity": 0.3543307086614173,
          "duration": 0.4651162790696617
        },
        {
          "name": "F7",
          "midi": 101,
          "time": 228.77906976740258,
          "velocity": 0.07874015748031496,
          "duration": 0.034883720930224626
        },
        {
          "name": "E3",
          "midi": 52,
          "time": 228.79069767437932,
          "velocity": 0.4330708661417323,
          "duration": 0.04651162790696617
        },
        {
          "name": "C7",
          "midi": 96,
          "time": 228.80232558135606,
          "velocity": 0.2047244094488189,
          "duration": 0.23255813953483084
        },
        {
          "name": "B3",
          "midi": 59,
          "time": 228.8139534883328,
          "velocity": 0.41732283464566927,
          "duration": 0.10465116279067388
        },
        {
          "name": "F2",
          "midi": 41,
          "time": 228.82558139530954,
          "velocity": 0.5354330708661418,
          "duration": 0.04651162790696617
        },
        {
          "name": "F#5",
          "midi": 78,
          "time": 228.82558139530954,
          "velocity": 0.11811023622047244,
          "duration": 0.034883720930224626
        },
        {
          "name": "E3",
          "midi": 52,
          "time": 228.84883720926302,
          "velocity": 0.2440944881889764,
          "duration": 0.023255813953483084
        },
        {
          "name": "F#5",
          "midi": 78,
          "time": 228.8720930232165,
          "velocity": 0.1968503937007874,
          "duration": 0.04651162790696617
        },
        {
          "name": "G7",
          "midi": 103,
          "time": 228.8720930232165,
          "velocity": 0.07086614173228346,
          "duration": 0.04651162790696617
        },
        {
          "name": "D#7",
          "midi": 99,
          "time": 228.88372093019325,
          "velocity": 0.25196850393700787,
          "duration": 0.4999999999998863
        },
        {
          "name": "D5",
          "midi": 74,
          "time": 228.90697674414673,
          "velocity": 0.4330708661417323,
          "duration": 0.034883720930224626
        },
        {
          "name": "E7",
          "midi": 100,
          "time": 228.90697674414673,
          "velocity": 0.14960629921259844,
          "duration": 0.04651162790696617
        },
        {
          "name": "C5",
          "midi": 72,
          "time": 228.91860465112347,
          "velocity": 0.2755905511811024,
          "duration": 0.023255813953483084
        },
        {
          "name": "E6",
          "midi": 88,
          "time": 228.91860465112347,
          "velocity": 0.11023622047244094,
          "duration": 0.034883720930224626
        },
        {
          "name": "B6",
          "midi": 95,
          "time": 228.91860465112347,
          "velocity": 0.2677165354330709,
          "duration": 0.2558139534883139
        },
        {
          "name": "F#7",
          "midi": 102,
          "time": 228.91860465112347,
          "velocity": 0.2440944881889764,
          "duration": 0.20930232558134776
        },
        {
          "name": "E4",
          "midi": 64,
          "time": 228.93023255810022,
          "velocity": 0.41732283464566927,
          "duration": 0.04651162790696617
        },
        {
          "name": "A6",
          "midi": 93,
          "time": 228.93023255810022,
          "velocity": 0.13385826771653545,
          "duration": 0.034883720930224626
        },
        {
          "name": "A#6",
          "midi": 94,
          "time": 228.93023255810022,
          "velocity": 0.15748031496062992,
          "duration": 0.06976744186044925
        },
        {
          "name": "C#3",
          "midi": 49,
          "time": 228.94186046507696,
          "velocity": 0.3937007874015748,
          "duration": 0.023255813953483084
        },
        {
          "name": "F5",
          "midi": 77,
          "time": 228.94186046507696,
          "velocity": 0.13385826771653545,
          "duration": 0.034883720930224626
        },
        {
          "name": "C6",
          "midi": 84,
          "time": 228.94186046507696,
          "velocity": 0.14173228346456693,
          "duration": 0.06976744186044925
        },
        {
          "name": "D5",
          "midi": 74,
          "time": 228.9534883720537,
          "velocity": 0.23622047244094488,
          "duration": 0.0813953488371908
        },
        {
          "name": "A5",
          "midi": 81,
          "time": 228.9534883720537,
          "velocity": 0.11023622047244094,
          "duration": 0.034883720930224626
        },
        {
          "name": "D#6",
          "midi": 87,
          "time": 228.9534883720537,
          "velocity": 0.14173228346456693,
          "duration": 0.05813953488370771
        },
        {
          "name": "A#3",
          "midi": 58,
          "time": 228.96511627903044,
          "velocity": 0.3779527559055118,
          "duration": 0.023255813953483084
        },
        {
          "name": "B4",
          "midi": 71,
          "time": 228.96511627903044,
          "velocity": 0.2992125984251969,
          "duration": 0.19767441860460622
        },
        {
          "name": "F7",
          "midi": 101,
          "time": 228.96511627903044,
          "velocity": 0.2440944881889764,
          "duration": 0.2558139534883139
        },
        {
          "name": "E6",
          "midi": 88,
          "time": 228.97674418600718,
          "velocity": 0.14960629921259844,
          "duration": 0.034883720930224626
        },
        {
          "name": "C#2",
          "midi": 37,
          "time": 228.98837209298392,
          "velocity": 0.25984251968503935,
          "duration": 0.023255813953483084
        },
        {
          "name": "E4",
          "midi": 64,
          "time": 228.99999999996066,
          "velocity": 0.3464566929133858,
          "duration": 0.1395348837208985
        },
        {
          "name": "G#6",
          "midi": 92,
          "time": 228.99999999996066,
          "velocity": 0.15748031496062992,
          "duration": 0.18604651162786467
        },
        {
          "name": "G3",
          "midi": 55,
          "time": 229.0116279069374,
          "velocity": 0.28346456692913385,
          "duration": 0.023255813953483084
        },
        {
          "name": "B3",
          "midi": 59,
          "time": 229.0116279069374,
          "velocity": 0.2755905511811024,
          "duration": 0.023255813953483084
        },
        {
          "name": "C#7",
          "midi": 97,
          "time": 229.0348837208909,
          "velocity": 0.3543307086614173,
          "duration": 0.406976744185954
        },
        {
          "name": "E3",
          "midi": 52,
          "time": 229.04651162786763,
          "velocity": 0.33858267716535434,
          "duration": 0.034883720930224626
        },
        {
          "name": "D5",
          "midi": 74,
          "time": 229.04651162786763,
          "velocity": 0.13385826771653545,
          "duration": 0.06976744186044925
        },
        {
          "name": "B3",
          "midi": 59,
          "time": 229.05813953484437,
          "velocity": 0.2440944881889764,
          "duration": 0.023255813953483084
        },
        {
          "name": "G4",
          "midi": 67,
          "time": 229.05813953484437,
          "velocity": 0.2440944881889764,
          "duration": 0.05813953488370771
        },
        {
          "name": "E3",
          "midi": 52,
          "time": 229.0930232557746,
          "velocity": 0.3700787401574803,
          "duration": 0.034883720930224626
        },
        {
          "name": "F#6",
          "midi": 90,
          "time": 229.11627906972808,
          "velocity": 0.3858267716535433,
          "duration": 0.31395348837202164
        },
        {
          "name": "E7",
          "midi": 100,
          "time": 229.11627906972808,
          "velocity": 0.3543307086614173,
          "duration": 1.5930232558135913
        },
        {
          "name": "F3",
          "midi": 53,
          "time": 229.12790697670482,
          "velocity": 0.3937007874015748,
          "duration": 0.023255813953483084
        },
        {
          "name": "C2",
          "midi": 36,
          "time": 229.13953488368156,
          "velocity": 0.5118110236220472,
          "duration": 0.034883720930224626
        },
        {
          "name": "G4",
          "midi": 67,
          "time": 229.13953488368156,
          "velocity": 0.3464566929133858,
          "duration": 0.034883720930224626
        },
        {
          "name": "D5",
          "midi": 74,
          "time": 229.13953488368156,
          "velocity": 0.2204724409448819,
          "duration": 0.034883720930224626
        },
        {
          "name": "A#6",
          "midi": 94,
          "time": 229.13953488368156,
          "velocity": 0.1889763779527559,
          "duration": 0.05813953488370771
        },
        {
          "name": "A4",
          "midi": 69,
          "time": 229.1511627906583,
          "velocity": 0.3228346456692913,
          "duration": 0.04651162790696617
        },
        {
          "name": "C7",
          "midi": 96,
          "time": 229.1511627906583,
          "velocity": 0.25196850393700787,
          "duration": 0.06976744186044925
        },
        {
          "name": "D#3",
          "midi": 51,
          "time": 229.16279069763505,
          "velocity": 0.4409448818897638,
          "duration": 0.023255813953483084
        },
        {
          "name": "C4",
          "midi": 60,
          "time": 229.16279069763505,
          "velocity": 0.2204724409448819,
          "duration": 0.034883720930224626
        },
        {
          "name": "F5",
          "midi": 77,
          "time": 229.16279069763505,
          "velocity": 0.4330708661417323,
          "duration": 0.023255813953483084
        },
        {
          "name": "C#5",
          "midi": 73,
          "time": 229.1744186046118,
          "velocity": 0.11023622047244094,
          "duration": 0.05813953488370771
        },
        {
          "name": "F#5",
          "midi": 78,
          "time": 229.18604651158853,
          "velocity": 0.5433070866141733,
          "duration": 0.39534883720921243
        },
        {
          "name": "G#3",
          "midi": 56,
          "time": 229.209302325542,
          "velocity": 0.2755905511811024,
          "duration": 0.034883720930224626
        },
        {
          "name": "F#4",
          "midi": 66,
          "time": 229.209302325542,
          "velocity": 0.25984251968503935,
          "duration": 0.023255813953483084
        },
        {
          "name": "C4",
          "midi": 60,
          "time": 229.22093023251875,
          "velocity": 0.18110236220472442,
          "duration": 0.034883720930224626
        },
        {
          "name": "G4",
          "midi": 67,
          "time": 229.22093023251875,
          "velocity": 0.3543307086614173,
          "duration": 0.034883720930224626
        },
        {
          "name": "A6",
          "midi": 93,
          "time": 229.22093023251875,
          "velocity": 0.18110236220472442,
          "duration": 0.19767441860460622
        },
        {
          "name": "B4",
          "midi": 71,
          "time": 229.2325581394955,
          "velocity": 0.1732283464566929,
          "duration": 0.10465116279067388
        },
        {
          "name": "A3",
          "midi": 57,
          "time": 229.24418604647224,
          "velocity": 0.25196850393700787,
          "duration": 0.0813953488371908
        },
        {
          "name": "E5",
          "midi": 76,
          "time": 229.24418604647224,
          "velocity": 0.28346456692913385,
          "duration": 0.15116279069764005
        },
        {
          "name": "A5",
          "midi": 81,
          "time": 229.24418604647224,
          "velocity": 0.11023622047244094,
          "duration": 0.05813953488370771
        },
        {
          "name": "D3",
          "midi": 50,
          "time": 229.25581395344898,
          "velocity": 0.4251968503937008,
          "duration": 0.05813953488370771
        },
        {
          "name": "A4",
          "midi": 69,
          "time": 229.25581395344898,
          "velocity": 0.30708661417322836,
          "duration": 0.09302325581393234
        },
        {
          "name": "G6",
          "midi": 91,
          "time": 229.26744186042572,
          "velocity": 0.16535433070866143,
          "duration": 0.11627906976741542
        },
        {
          "name": "G4",
          "midi": 67,
          "time": 229.27906976740246,
          "velocity": 0.33070866141732286,
          "duration": 0.034883720930224626
        },
        {
          "name": "D7",
          "midi": 98,
          "time": 229.2906976743792,
          "velocity": 0.11023622047244094,
          "duration": 0.04651162790696617
        },
        {
          "name": "D#3",
          "midi": 51,
          "time": 229.3139534883327,
          "velocity": 0.3700787401574803,
          "duration": 0.034883720930224626
        },
        {
          "name": "G4",
          "midi": 67,
          "time": 229.32558139530943,
          "velocity": 0.3464566929133858,
          "duration": 0.06976744186044925
        },
        {
          "name": "A#4",
          "midi": 70,
          "time": 229.3488372092629,
          "velocity": 0.28346456692913385,
          "duration": 0.023255813953483084
        },
        {
          "name": "A5",
          "midi": 81,
          "time": 229.3488372092629,
          "velocity": 0.07086614173228346,
          "duration": 0.04651162790696617
        },
        {
          "name": "C#6",
          "midi": 85,
          "time": 229.3488372092629,
          "velocity": 0.13385826771653545,
          "duration": 0.04651162790696617
        },
        {
          "name": "B1",
          "midi": 35,
          "time": 229.36046511623965,
          "velocity": 0.5196850393700787,
          "duration": 0.011627906976741542
        },
        {
          "name": "A2",
          "midi": 45,
          "time": 229.36046511623965,
          "velocity": 0.5748031496062992,
          "duration": 0.034883720930224626
        },
        {
          "name": "C5",
          "midi": 72,
          "time": 229.36046511623965,
          "velocity": 0.2677165354330709,
          "duration": 0.09302325581393234
        },
        {
          "name": "B5",
          "midi": 83,
          "time": 229.36046511623965,
          "velocity": 0.14173228346456693,
          "duration": 0.05813953488370771
        },
        {
          "name": "E6",
          "midi": 88,
          "time": 229.36046511623965,
          "velocity": 0.4251968503937008,
          "duration": 1.3604651162787604
        },
        {
          "name": "C7",
          "midi": 96,
          "time": 229.36046511623965,
          "velocity": 0.14960629921259844,
          "duration": 0.05813953488370771
        },
        {
          "name": "C#4",
          "midi": 61,
          "time": 229.3720930232164,
          "velocity": 0.3937007874015748,
          "duration": 0.034883720930224626
        },
        {
          "name": "D7",
          "midi": 98,
          "time": 229.3720930232164,
          "velocity": 0.18110236220472442,
          "duration": 0.09302325581393234
        },
        {
          "name": "F#4",
          "midi": 66,
          "time": 229.38372093019314,
          "velocity": 0.2440944881889764,
          "duration": 0.023255813953483084
        },
        {
          "name": "A#5",
          "midi": 82,
          "time": 229.38372093019314,
          "velocity": 0.07086614173228346,
          "duration": 0.034883720930224626
        },
        {
          "name": "B2",
          "midi": 47,
          "time": 229.39534883716988,
          "velocity": 0.5669291338582677,
          "duration": 0.023255813953483084
        },
        {
          "name": "D#5",
          "midi": 75,
          "time": 229.39534883716988,
          "velocity": 0.3543307086614173,
          "duration": 0.034883720930224626
        },
        {
          "name": "G6",
          "midi": 91,
          "time": 229.39534883716988,
          "velocity": 0.2047244094488189,
          "duration": 0.10465116279067388
        },
        {
          "name": "A#6",
          "midi": 94,
          "time": 229.39534883716988,
          "velocity": 0.23622047244094488,
          "duration": 0.034883720930224626
        },
        {
          "name": "D#7",
          "midi": 99,
          "time": 229.39534883716988,
          "velocity": 0.13385826771653545,
          "duration": 0.10465116279067388
        },
        {
          "name": "C4",
          "midi": 60,
          "time": 229.40697674414662,
          "velocity": 0.31496062992125984,
          "duration": 0.034883720930224626
        },
        {
          "name": "B6",
          "midi": 95,
          "time": 229.40697674414662,
          "velocity": 0.4566929133858268,
          "duration": 1.8720930232553883
        },
        {
          "name": "F7",
          "midi": 101,
          "time": 229.40697674414662,
          "velocity": 0.11811023622047244,
          "duration": 0.034883720930224626
        },
        {
          "name": "C3",
          "midi": 48,
          "time": 229.41860465112336,
          "velocity": 0.5748031496062992,
          "duration": 0.011627906976741542
        },
        {
          "name": "F#4",
          "midi": 66,
          "time": 229.41860465112336,
          "velocity": 0.28346456692913385,
          "duration": 0.034883720930224626
        },
        {
          "name": "A#4",
          "midi": 70,
          "time": 229.41860465112336,
          "velocity": 0.1889763779527559,
          "duration": 0.034883720930224626
        },
        {
          "name": "C#3",
          "midi": 49,
          "time": 229.4302325581001,
          "velocity": 0.5511811023622047,
          "duration": 0.011627906976741542
        },
        {
          "name": "G3",
          "midi": 55,
          "time": 229.4302325581001,
          "velocity": 0.44881889763779526,
          "duration": 0.0813953488371908
        },
        {
          "name": "E5",
          "midi": 76,
          "time": 229.4302325581001,
          "velocity": 0.44881889763779526,
          "duration": 0.5116279069766279
        },
        {
          "name": "C3",
          "midi": 48,
          "time": 229.44186046507684,
          "velocity": 0.5669291338582677,
          "duration": 0.023255813953483084
        },
        {
          "name": "A#6",
          "midi": 94,
          "time": 229.44186046507684,
          "velocity": 0.1889763779527559,
          "duration": 0.034883720930224626
        },
        {
          "name": "F2",
          "midi": 41,
          "time": 229.45348837205358,
          "velocity": 0.5118110236220472,
          "duration": 0.011627906976741542
        },
        {
          "name": "C#3",
          "midi": 49,
          "time": 229.46511627903033,
          "velocity": 0.5669291338582677,
          "duration": 0.011627906976741542
        },
        {
          "name": "C4",
          "midi": 60,
          "time": 229.46511627903033,
          "velocity": 0.25984251968503935,
          "duration": 0.09302325581393234
        },
        {
          "name": "C#7",
          "midi": 97,
          "time": 229.47674418600707,
          "velocity": 0.07874015748031496,
          "duration": 0.034883720930224626
        },
        {
          "name": "D7",
          "midi": 98,
          "time": 229.4883720929838,
          "velocity": 0.15748031496062992,
          "duration": 0.20930232558134776
        },
        {
          "name": "C2",
          "midi": 36,
          "time": 229.55813953484426,
          "velocity": 0.48031496062992124,
          "duration": 0.023255813953483084
        },
        {
          "name": "A2",
          "midi": 45,
          "time": 229.569767441821,
          "velocity": 0.5984251968503937,
          "duration": 0.034883720930224626
        },
        {
          "name": "C4",
          "midi": 60,
          "time": 229.569767441821,
          "velocity": 0.3858267716535433,
          "duration": 0.05813953488370771
        },
        {
          "name": "E4",
          "midi": 64,
          "time": 229.569767441821,
          "velocity": 0.29133858267716534,
          "duration": 0.023255813953483084
        },
        {
          "name": "G#6",
          "midi": 92,
          "time": 229.569767441821,
          "velocity": 0.14173228346456693,
          "duration": 0.04651162790696617
        },
        {
          "name": "C#7",
          "midi": 97,
          "time": 229.569767441821,
          "velocity": 0.15748031496062992,
          "duration": 0.06976744186044925
        },
        {
          "name": "B1",
          "midi": 35,
          "time": 229.58139534879774,
          "velocity": 0.5275590551181102,
          "duration": 0.011627906976741542
        },
        {
          "name": "G4",
          "midi": 67,
          "time": 229.58139534879774,
          "velocity": 0.3858267716535433,
          "duration": 0.05813953488370771
        },
        {
          "name": "D5",
          "midi": 74,
          "time": 229.58139534879774,
          "velocity": 0.28346456692913385,
          "duration": 0.406976744185954
        },
        {
          "name": "C7",
          "midi": 96,
          "time": 229.58139534879774,
          "velocity": 0.09448818897637795,
          "duration": 0.06976744186044925
        },
        {
          "name": "A#2",
          "midi": 46,
          "time": 229.60465116275122,
          "velocity": 0.5826771653543307,
          "duration": 0.011627906976741542
        },
        {
          "name": "B2",
          "midi": 47,
          "time": 229.61627906972797,
          "velocity": 0.5748031496062992,
          "duration": 0.023255813953483084
        },
        {
          "name": "C#3",
          "midi": 49,
          "time": 229.63953488368145,
          "velocity": 0.5748031496062992,
          "duration": 0.023255813953483084
        },
        {
          "name": "C4",
          "midi": 60,
          "time": 229.63953488368145,
          "velocity": 0.3779527559055118,
          "duration": 0.1395348837208985
        },
        {
          "name": "E4",
          "midi": 64,
          "time": 229.63953488368145,
          "velocity": 0.30708661417322836,
          "duration": 0.29069767441853855
        },
        {
          "name": "G3",
          "midi": 55,
          "time": 229.6511627906582,
          "velocity": 0.47244094488188976,
          "duration": 0.12790697674415696
        },
        {
          "name": "C3",
          "midi": 48,
          "time": 229.66279069763493,
          "velocity": 0.5826771653543307,
          "duration": 0.09302325581393234
        },
        {
          "name": "G#6",
          "midi": 92,
          "time": 229.66279069763493,
          "velocity": 0.2047244094488189,
          "duration": 0.24418604651157239
        },
        {
          "name": "F#5",
          "midi": 78,
          "time": 229.69767441856516,
          "velocity": 0.16535433070866143,
          "duration": 0.06976744186044925
        },
        {
          "name": "D7",
          "midi": 98,
          "time": 229.72093023251864,
          "velocity": 0.23622047244094488,
          "duration": 0.10465116279067388
        },
        {
          "name": "C#3",
          "midi": 49,
          "time": 229.77906976740235,
          "velocity": 0.3858267716535433,
          "duration": 0.023255813953483084
        },
        {
          "name": "A5",
          "midi": 81,
          "time": 229.77906976740235,
          "velocity": 0.2755905511811024,
          "duration": 0.279069767441797
        },
        {
          "name": "A#4",
          "midi": 70,
          "time": 229.7906976743791,
          "velocity": 0.2125984251968504,
          "duration": 0.034883720930224626
        },
        {
          "name": "C#7",
          "midi": 97,
          "time": 229.7906976743791,
          "velocity": 0.25196850393700787,
          "duration": 0.279069767441797
        },
        {
          "name": "D#6",
          "midi": 87,
          "time": 229.80232558135583,
          "velocity": 0.11023622047244094,
          "duration": 0.034883720930224626
        },
        {
          "name": "C7",
          "midi": 96,
          "time": 229.80232558135583,
          "velocity": 0.14173228346456693,
          "duration": 0.06976744186044925
        },
        {
          "name": "G#3",
          "midi": 56,
          "time": 229.81395348833257,
          "velocity": 0.31496062992125984,
          "duration": 0.04651162790696617
        },
        {
          "name": "C4",
          "midi": 60,
          "time": 229.81395348833257,
          "velocity": 0.2755905511811024,
          "duration": 0.05813953488370771
        },
        {
          "name": "F7",
          "midi": 101,
          "time": 229.81395348833257,
          "velocity": 0.11023622047244094,
          "duration": 0.05813953488370771
        },
        {
          "name": "G7",
          "midi": 103,
          "time": 229.81395348833257,
          "velocity": 0.11811023622047244,
          "duration": 0.05813953488370771
        },
        {
          "name": "G#2",
          "midi": 44,
          "time": 229.8255813953093,
          "velocity": 0.3700787401574803,
          "duration": 0.023255813953483084
        },
        {
          "name": "D3",
          "midi": 50,
          "time": 229.8255813953093,
          "velocity": 0.36220472440944884,
          "duration": 0.023255813953483084
        },
        {
          "name": "B5",
          "midi": 83,
          "time": 229.8255813953093,
          "velocity": 0.08661417322834646,
          "duration": 0.034883720930224626
        },
        {
          "name": "D7",
          "midi": 98,
          "time": 229.83720930228606,
          "velocity": 0.2677165354330709,
          "duration": 0.2558139534883139
        },
        {
          "name": "A#4",
          "midi": 70,
          "time": 229.8488372092628,
          "velocity": 0.2125984251968504,
          "duration": 0.24418604651157239
        },
        {
          "name": "G3",
          "midi": 55,
          "time": 229.88372093019302,
          "velocity": 0.3228346456692913,
          "duration": 0.034883720930224626
        },
        {
          "name": "C4",
          "midi": 60,
          "time": 229.88372093019302,
          "velocity": 0.2204724409448819,
          "duration": 0.04651162790696617
        },
        {
          "name": "C3",
          "midi": 48,
          "time": 229.9069767441465,
          "velocity": 0.4409448818897638,
          "duration": 0.0813953488371908
        },
        {
          "name": "G#3",
          "midi": 56,
          "time": 229.91860465112325,
          "velocity": 0.2440944881889764,
          "duration": 0.023255813953483084
        },
        {
          "name": "C5",
          "midi": 72,
          "time": 229.91860465112325,
          "velocity": 0.2283464566929134,
          "duration": 0.12790697674415696
        },
        {
          "name": "G3",
          "midi": 55,
          "time": 229.94186046507673,
          "velocity": 0.2125984251968504,
          "duration": 0.04651162790696617
        },
        {
          "name": "E5",
          "midi": 76,
          "time": 229.95348837205347,
          "velocity": 0.4094488188976378,
          "duration": 0.12790697674415696
        },
        {
          "name": "G#6",
          "midi": 92,
          "time": 229.95348837205347,
          "velocity": 0.08661417322834646,
          "duration": 0.06976744186044925
        },
        {
          "name": "D#6",
          "midi": 87,
          "time": 229.9651162790302,
          "velocity": 0.11811023622047244,
          "duration": 0.05813953488370771
        },
        {
          "name": "F#7",
          "midi": 102,
          "time": 229.97674418600695,
          "velocity": 0.08661417322834646,
          "duration": 0.04651162790696617
        },
        {
          "name": "C#3",
          "midi": 49,
          "time": 229.9883720929837,
          "velocity": 0.4566929133858268,
          "duration": 0.023255813953483084
        },
        {
          "name": "C7",
          "midi": 96,
          "time": 229.9883720929837,
          "velocity": 0.14960629921259844,
          "duration": 0.034883720930224626
        },
        {
          "name": "B5",
          "midi": 83,
          "time": 229.99999999996044,
          "velocity": 0.2125984251968504,
          "duration": 0.15116279069764005
        },
        {
          "name": "A#2",
          "midi": 46,
          "time": 230.01162790693718,
          "velocity": 0.5511811023622047,
          "duration": 0.011627906976741542
        },
        {
          "name": "E4",
          "midi": 64,
          "time": 230.01162790693718,
          "velocity": 0.23622047244094488,
          "duration": 0.034883720930224626
        },
        {
          "name": "G4",
          "midi": 67,
          "time": 230.01162790693718,
          "velocity": 0.4566929133858268,
          "duration": 0.2209302325580893
        },
        {
          "name": "D5",
          "midi": 74,
          "time": 230.01162790693718,
          "velocity": 0.1732283464566929,
          "duration": 0.1627906976743816
        },
        {
          "name": "A2",
          "midi": 45,
          "time": 230.02325581391392,
          "velocity": 0.5826771653543307,
          "duration": 0.011627906976741542
        },
        {
          "name": "F#6",
          "midi": 90,
          "time": 230.02325581391392,
          "velocity": 0.09448818897637795,
          "duration": 0.10465116279067388
        },
        {
          "name": "A#2",
          "midi": 46,
          "time": 230.03488372089066,
          "velocity": 0.5354330708661418,
          "duration": 0.011627906976741542
        },
        {
          "name": "B2",
          "midi": 47,
          "time": 230.0465116278674,
          "velocity": 0.5433070866141733,
          "duration": 0.023255813953483084
        },
        {
          "name": "G#3",
          "midi": 56,
          "time": 230.0465116278674,
          "velocity": 0.2755905511811024,
          "duration": 0.023255813953483084
        },
        {
          "name": "D#7",
          "midi": 99,
          "time": 230.0465116278674,
          "velocity": 0.07874015748031496,
          "duration": 0.034883720930224626
        },
        {
          "name": "D3",
          "midi": 50,
          "time": 230.0697674418209,
          "velocity": 0.5590551181102362,
          "duration": 0.011627906976741542
        },
        {
          "name": "E4",
          "midi": 64,
          "time": 230.0697674418209,
          "velocity": 0.3937007874015748,
          "duration": 0.1395348837208985
        },
        {
          "name": "C#3",
          "midi": 49,
          "time": 230.08139534879763,
          "velocity": 0.5905511811023622,
          "duration": 0.011627906976741542
        },
        {
          "name": "G3",
          "midi": 55,
          "time": 230.08139534879763,
          "velocity": 0.3700787401574803,
          "duration": 0.05813953488370771
        },
        {
          "name": "A5",
          "midi": 81,
          "time": 230.08139534879763,
          "velocity": 0.07086614173228346,
          "duration": 0.04651162790696617
        },
        {
          "name": "F2",
          "midi": 41,
          "time": 230.09302325577437,
          "velocity": 0.5118110236220472,
          "duration": 0.011627906976741542
        },
        {
          "name": "C3",
          "midi": 48,
          "time": 230.09302325577437,
          "velocity": 0.5669291338582677,
          "duration": 0.011627906976741542
        },
        {
          "name": "G6",
          "midi": 91,
          "time": 230.09302325577437,
          "velocity": 0.08661417322834646,
          "duration": 0.034883720930224626
        },
        {
          "name": "C#3",
          "midi": 49,
          "time": 230.1046511627511,
          "velocity": 0.5433070866141733,
          "duration": 0.011627906976741542
        },
        {
          "name": "C3",
          "midi": 48,
          "time": 230.11627906972785,
          "velocity": 0.5590551181102362,
          "duration": 0.034883720930224626
        },
        {
          "name": "G#6",
          "midi": 92,
          "time": 230.19767441856504,
          "velocity": 0.15748031496062992,
          "duration": 0.10465116279067388
        },
        {
          "name": "D7",
          "midi": 98,
          "time": 230.19767441856504,
          "velocity": 0.14173228346456693,
          "duration": 0.09302325581393234
        },
        {
          "name": "A#3",
          "midi": 58,
          "time": 230.20930232554178,
          "velocity": 0.47244094488188976,
          "duration": 0.034883720930224626
        },
        {
          "name": "D5",
          "midi": 74,
          "time": 230.20930232554178,
          "velocity": 0.3700787401574803,
          "duration": 0.09302325581393234
        },
        {
          "name": "E5",
          "midi": 76,
          "time": 230.20930232554178,
          "velocity": 0.4330708661417323,
          "duration": 0.7325581395347172
        },
        {
          "name": "C#7",
          "midi": 97,
          "time": 230.20930232554178,
          "velocity": 0.12598425196850394,
          "duration": 0.09302325581393234
        },
        {
          "name": "D#7",
          "midi": 99,
          "time": 230.20930232554178,
          "velocity": 0.1889763779527559,
          "duration": 0.06976744186044925
        },
        {
          "name": "F7",
          "midi": 101,
          "time": 230.20930232554178,
          "velocity": 0.08661417322834646,
          "duration": 0.0813953488371908
        },
        {
          "name": "F#7",
          "midi": 102,
          "time": 230.20930232554178,
          "velocity": 0.07086614173228346,
          "duration": 0.034883720930224626
        },
        {
          "name": "E4",
          "midi": 64,
          "time": 230.22093023251853,
          "velocity": 0.3779527559055118,
          "duration": 0.034883720930224626
        },
        {
          "name": "F#5",
          "midi": 78,
          "time": 230.22093023251853,
          "velocity": 0.23622047244094488,
          "duration": 0.04651162790696617
        },
        {
          "name": "A5",
          "midi": 81,
          "time": 230.22093023251853,
          "velocity": 0.16535433070866143,
          "duration": 0.04651162790696617
        },
        {
          "name": "D#6",
          "midi": 87,
          "time": 230.22093023251853,
          "velocity": 0.11023622047244094,
          "duration": 0.04651162790696617
        },
        {
          "name": "C7",
          "midi": 96,
          "time": 230.22093023251853,
          "velocity": 0.07874015748031496,
          "duration": 0.034883720930224626
        },
        {
          "name": "G7",
          "midi": 103,
          "time": 230.22093023251853,
          "velocity": 0.13385826771653545,
          "duration": 0.034883720930224626
        },
        {
          "name": "G#2",
          "midi": 44,
          "time": 230.23255813949527,
          "velocity": 0.5905511811023622,
          "duration": 0.011627906976741542
        },
        {
          "name": "C4",
          "midi": 60,
          "time": 230.23255813949527,
          "velocity": 0.3464566929133858,
          "duration": 0.023255813953483084
        },
        {
          "name": "A2",
          "midi": 45,
          "time": 230.244186046472,
          "velocity": 0.5511811023622047,
          "duration": 0.011627906976741542
        },
        {
          "name": "G#4",
          "midi": 68,
          "time": 230.244186046472,
          "velocity": 0.2992125984251969,
          "duration": 0.023255813953483084
        },
        {
          "name": "B2",
          "midi": 47,
          "time": 230.25581395344875,
          "velocity": 0.5748031496062992,
          "duration": 0.023255813953483084
        },
        {
          "name": "C#4",
          "midi": 61,
          "time": 230.25581395344875,
          "velocity": 0.36220472440944884,
          "duration": 0.023255813953483084
        },
        {
          "name": "A3",
          "midi": 57,
          "time": 230.2674418604255,
          "velocity": 0.4094488188976378,
          "duration": 0.023255813953483084
        },
        {
          "name": "G4",
          "midi": 67,
          "time": 230.2674418604255,
          "velocity": 0.4015748031496063,
          "duration": 0.23255813953483084
        },
        {
          "name": "C3",
          "midi": 48,
          "time": 230.27906976740223,
          "velocity": 0.5905511811023622,
          "duration": 0.011627906976741542
        },
        {
          "name": "C#3",
          "midi": 49,
          "time": 230.29069767437898,
          "velocity": 0.6062992125984252,
          "duration": 0.011627906976741542
        },
        {
          "name": "G3",
          "midi": 55,
          "time": 230.29069767437898,
          "velocity": 0.4881889763779528,
          "duration": 0.11627906976741542
        },
        {
          "name": "C3",
          "midi": 48,
          "time": 230.30232558135572,
          "velocity": 0.5984251968503937,
          "duration": 0.023255813953483084
        },
        {
          "name": "F2",
          "midi": 41,
          "time": 230.31395348833246,
          "velocity": 0.5196850393700787,
          "duration": 0.011627906976741542
        },
        {
          "name": "C#3",
          "midi": 49,
          "time": 230.3255813953092,
          "velocity": 0.5905511811023622,
          "duration": 0.011627906976741542
        },
        {
          "name": "C3",
          "midi": 48,
          "time": 230.33720930228594,
          "velocity": 0.6141732283464567,
          "duration": 0.10465116279067388
        },
        {
          "name": "G#6",
          "midi": 92,
          "time": 230.33720930228594,
          "velocity": 0.09448818897637795,
          "duration": 0.05813953488370771
        },
        {
          "name": "D7",
          "midi": 98,
          "time": 230.33720930228594,
          "velocity": 0.14960629921259844,
          "duration": 0.05813953488370771
        },
        {
          "name": "B5",
          "midi": 83,
          "time": 230.34883720926268,
          "velocity": 0.12598425196850394,
          "duration": 0.05813953488370771
        },
        {
          "name": "G2",
          "midi": 43,
          "time": 230.37209302321617,
          "velocity": 0.5196850393700787,
          "duration": 0.011627906976741542
        },
        {
          "name": "F#3",
          "midi": 54,
          "time": 230.4069767441464,
          "velocity": 0.4881889763779528,
          "duration": 0.034883720930224626
        },
        {
          "name": "E4",
          "midi": 64,
          "time": 230.4069767441464,
          "velocity": 0.31496062992125984,
          "duration": 0.023255813953483084
        },
        {
          "name": "D7",
          "midi": 98,
          "time": 230.41860465112313,
          "velocity": 0.25984251968503935,
          "duration": 0.20930232558134776
        },
        {
          "name": "D5",
          "midi": 74,
          "time": 230.43023255809987,
          "velocity": 0.28346456692913385,
          "duration": 0.06976744186044925
        },
        {
          "name": "B2",
          "midi": 47,
          "time": 230.44186046507662,
          "velocity": 0.5669291338582677,
          "duration": 0.011627906976741542
        },
        {
          "name": "E4",
          "midi": 64,
          "time": 230.44186046507662,
          "velocity": 0.30708661417322836,
          "duration": 0.11627906976741542
        },
        {
          "name": "B5",
          "midi": 83,
          "time": 230.44186046507662,
          "velocity": 0.14173228346456693,
          "duration": 0.04651162790696617
        },
        {
          "name": "G7",
          "midi": 103,
          "time": 230.44186046507662,
          "velocity": 0.13385826771653545,
          "duration": 0.0813953488371908
        },
        {
          "name": "A2",
          "midi": 45,
          "time": 230.45348837205336,
          "velocity": 0.6062992125984252,
          "duration": 0.011627906976741542
        },
        {
          "name": "F#3",
          "midi": 54,
          "time": 230.45348837205336,
          "velocity": 0.3779527559055118,
          "duration": 0.023255813953483084
        },
        {
          "name": "C7",
          "midi": 96,
          "time": 230.45348837205336,
          "velocity": 0.13385826771653545,
          "duration": 0.06976744186044925
        },
        {
          "name": "D#7",
          "midi": 99,
          "time": 230.45348837205336,
          "velocity": 0.10236220472440945,
          "duration": 0.034883720930224626
        },
        {
          "name": "B2",
          "midi": 47,
          "time": 230.4651162790301,
          "velocity": 0.5118110236220472,
          "duration": 0.023255813953483084
        },
        {
          "name": "F#7",
          "midi": 102,
          "time": 230.4651162790301,
          "velocity": 0.09448818897637795,
          "duration": 0.05813953488370771
        },
        {
          "name": "G#3",
          "midi": 56,
          "time": 230.47674418600684,
          "velocity": 0.3543307086614173,
          "duration": 0.023255813953483084
        },
        {
          "name": "C#7",
          "midi": 97,
          "time": 230.47674418600684,
          "velocity": 0.29133858267716534,
          "duration": 0.7093023255812341
        },
        {
          "name": "A2",
          "midi": 45,
          "time": 230.48837209298358,
          "velocity": 0.5590551181102362,
          "duration": 0.023255813953483084
        },
        {
          "name": "A#4",
          "midi": 70,
          "time": 230.48837209298358,
          "velocity": 0.2204724409448819,
          "duration": 0.15116279069764005
        },
        {
          "name": "C4",
          "midi": 60,
          "time": 230.49999999996032,
          "velocity": 0.23622047244094488,
          "duration": 0.06976744186044925
        },
        {
          "name": "G3",
          "midi": 55,
          "time": 230.51162790693706,
          "velocity": 0.30708661417322836,
          "duration": 0.04651162790696617
        },
        {
          "name": "G4",
          "midi": 67,
          "time": 230.51162790693706,
          "velocity": 0.3700787401574803,
          "duration": 0.19767441860460622
        },
        {
          "name": "C3",
          "midi": 48,
          "time": 230.53488372089055,
          "velocity": 0.4566929133858268,
          "duration": 0.04651162790696617
        },
        {
          "name": "D5",
          "midi": 74,
          "time": 230.5465116278673,
          "velocity": 0.25196850393700787,
          "duration": 0.279069767441797
        },
        {
          "name": "G7",
          "midi": 103,
          "time": 230.5813953487975,
          "velocity": 0.12598425196850394,
          "duration": 0.034883720930224626
        },
        {
          "name": "C4",
          "midi": 60,
          "time": 230.59302325577426,
          "velocity": 0.36220472440944884,
          "duration": 0.1627906976743816
        },
        {
          "name": "E4",
          "midi": 64,
          "time": 230.59302325577426,
          "velocity": 0.31496062992125984,
          "duration": 0.15116279069764005
        },
        {
          "name": "B5",
          "midi": 83,
          "time": 230.59302325577426,
          "velocity": 0.08661417322834646,
          "duration": 0.034883720930224626
        },
        {
          "name": "F#6",
          "midi": 90,
          "time": 230.59302325577426,
          "velocity": 0.2440944881889764,
          "duration": 0.0813953488371908
        },
        {
          "name": "C7",
          "midi": 96,
          "time": 230.604651162751,
          "velocity": 0.12598425196850394,
          "duration": 0.05813953488370771
        },
        {
          "name": "D#7",
          "midi": 99,
          "time": 230.604651162751,
          "velocity": 0.2047244094488189,
          "duration": 0.5232558139533694
        },
        {
          "name": "C#3",
          "midi": 49,
          "time": 230.62790697670448,
          "velocity": 0.44881889763779526,
          "duration": 0.023255813953483084
        },
        {
          "name": "G3",
          "midi": 55,
          "time": 230.63953488368122,
          "velocity": 0.28346456692913385,
          "duration": 0.034883720930224626
        },
        {
          "name": "A5",
          "midi": 81,
          "time": 230.63953488368122,
          "velocity": 0.2755905511811024,
          "duration": 0.3372093023255047
        },
        {
          "name": "D#6",
          "midi": 87,
          "time": 230.63953488368122,
          "velocity": 0.11811023622047244,
          "duration": 0.0813953488371908
        },
        {
          "name": "D7",
          "midi": 98,
          "time": 230.63953488368122,
          "velocity": 0.16535433070866143,
          "duration": 0.05813953488370771
        },
        {
          "name": "F#5",
          "midi": 78,
          "time": 230.65116279065796,
          "velocity": 0.14960629921259844,
          "duration": 0.05813953488370771
        },
        {
          "name": "F7",
          "midi": 101,
          "time": 230.65116279065796,
          "velocity": 0.08661417322834646,
          "duration": 0.04651162790696617
        },
        {
          "name": "G7",
          "midi": 103,
          "time": 230.65116279065796,
          "velocity": 0.14173228346456693,
          "duration": 0.0813953488371908
        },
        {
          "name": "A#4",
          "midi": 70,
          "time": 230.6627906976347,
          "velocity": 0.25196850393700787,
          "duration": 0.0813953488371908
        },
        {
          "name": "B5",
          "midi": 83,
          "time": 230.6627906976347,
          "velocity": 0.23622047244094488,
          "duration": 0.05813953488370771
        },
        {
          "name": "C3",
          "midi": 48,
          "time": 230.6860465115882,
          "velocity": 0.5196850393700787,
          "duration": 0.0813953488371908
        },
        {
          "name": "C7",
          "midi": 96,
          "time": 230.69767441856493,
          "velocity": 0.1968503937007874,
          "duration": 0.2558139534883139
        },
        {
          "name": "F#6",
          "midi": 90,
          "time": 230.70930232554167,
          "velocity": 0.3543307086614173,
          "duration": 0.4186046511626955
        },
        {
          "name": "G4",
          "midi": 67,
          "time": 230.7209302325184,
          "velocity": 0.3228346456692913,
          "duration": 0.3604651162789878
        },
        {
          "name": "G3",
          "midi": 55,
          "time": 230.73255813949515,
          "velocity": 0.2440944881889764,
          "duration": 0.034883720930224626
        },
        {
          "name": "D7",
          "midi": 98,
          "time": 230.73255813949515,
          "velocity": 0.10236220472440945,
          "duration": 0.09302325581393234
        },
        {
          "name": "C4",
          "midi": 60,
          "time": 230.76744186042538,
          "velocity": 0.3543307086614173,
          "duration": 0.1395348837208985
        },
        {
          "name": "F#2",
          "midi": 42,
          "time": 230.77906976740212,
          "velocity": 0.2992125984251969,
          "duration": 0.023255813953483084
        },
        {
          "name": "E4",
          "midi": 64,
          "time": 230.77906976740212,
          "velocity": 0.3700787401574803,
          "duration": 0.29069767441853855
        },
        {
          "name": "C#3",
          "midi": 49,
          "time": 230.79069767437886,
          "velocity": 0.41732283464566927,
          "duration": 0.023255813953483084
        },
        {
          "name": "B5",
          "midi": 83,
          "time": 230.79069767437886,
          "velocity": 0.2204724409448819,
          "duration": 0.1395348837208985
        },
        {
          "name": "C3",
          "midi": 48,
          "time": 230.81395348833234,
          "velocity": 0.4881889763779528,
          "duration": 0.023255813953483084
        },
        {
          "name": "A#4",
          "midi": 70,
          "time": 230.81395348833234,
          "velocity": 0.11023622047244094,
          "duration": 0.034883720930224626
        },
        {
          "name": "B4",
          "midi": 71,
          "time": 230.83720930228583,
          "velocity": 0.12598425196850394,
          "duration": 0.034883720930224626
        },
        {
          "name": "C3",
          "midi": 48,
          "time": 230.84883720926257,
          "velocity": 0.5196850393700787,
          "duration": 0.023255813953483084
        },
        {
          "name": "G3",
          "midi": 55,
          "time": 230.8604651162393,
          "velocity": 0.28346456692913385,
          "duration": 0.034883720930224626
        },
        {
          "name": "D6",
          "midi": 86,
          "time": 230.8604651162393,
          "velocity": 0.07874015748031496,
          "duration": 0.034883720930224626
        },
        {
          "name": "G#6",
          "midi": 92,
          "time": 230.8604651162393,
          "velocity": 0.12598425196850394,
          "duration": 0.034883720930224626
        },
        {
          "name": "D5",
          "midi": 74,
          "time": 230.87209302321605,
          "velocity": 0.1732283464566929,
          "duration": 0.18604651162786467
        },
        {
          "name": "D7",
          "midi": 98,
          "time": 230.87209302321605,
          "velocity": 0.2440944881889764,
          "duration": 0.034883720930224626
        },
        {
          "name": "C3",
          "midi": 48,
          "time": 230.8837209301928,
          "velocity": 0.5275590551181102,
          "duration": 0.011627906976741542
        },
        {
          "name": "G3",
          "midi": 55,
          "time": 230.90697674414628,
          "velocity": 0.3937007874015748,
          "duration": 0.023255813953483084
        },
        {
          "name": "C4",
          "midi": 60,
          "time": 230.91860465112302,
          "velocity": 0.2440944881889764,
          "duration": 0.023255813953483084
        },
        {
          "name": "D7",
          "midi": 98,
          "time": 230.91860465112302,
          "velocity": 0.2125984251968504,
          "duration": 0.20930232558134776
        },
        {
          "name": "F7",
          "midi": 101,
          "time": 230.93023255809976,
          "velocity": 0.12598425196850394,
          "duration": 0.06976744186044925
        },
        {
          "name": "G3",
          "midi": 55,
          "time": 230.9418604650765,
          "velocity": 0.2992125984251969,
          "duration": 0.023255813953483084
        },
        {
          "name": "D3",
          "midi": 50,
          "time": 230.96511627902998,
          "velocity": 0.33858267716535434,
          "duration": 0.023255813953483084
        },
        {
          "name": "G#3",
          "midi": 56,
          "time": 230.96511627902998,
          "velocity": 0.3228346456692913,
          "duration": 0.04651162790696617
        },
        {
          "name": "C4",
          "midi": 60,
          "time": 230.96511627902998,
          "velocity": 0.33858267716535434,
          "duration": 0.034883720930224626
        },
        {
          "name": "A#4",
          "midi": 70,
          "time": 230.96511627902998,
          "velocity": 0.16535433070866143,
          "duration": 0.04651162790696617
        },
        {
          "name": "B5",
          "midi": 83,
          "time": 230.96511627902998,
          "velocity": 0.2047244094488189,
          "duration": 0.17441860465112313
        },
        {
          "name": "C3",
          "midi": 48,
          "time": 230.98837209298347,
          "velocity": 0.41732283464566927,
          "duration": 0.023255813953483084
        },
        {
          "name": "G3",
          "midi": 55,
          "time": 231.01162790693695,
          "velocity": 0.3700787401574803,
          "duration": 0.04651162790696617
        },
        {
          "name": "C4",
          "midi": 60,
          "time": 231.01162790693695,
          "velocity": 0.25196850393700787,
          "duration": 0.05813953488370771
        },
        {
          "name": "C7",
          "midi": 96,
          "time": 231.0232558139137,
          "velocity": 0.07874015748031496,
          "duration": 0.034883720930224626
        },
        {
          "name": "G7",
          "midi": 103,
          "time": 231.0232558139137,
          "velocity": 0.1889763779527559,
          "duration": 0.23255813953483084
        },
        {
          "name": "E2",
          "midi": 40,
          "time": 231.03488372089043,
          "velocity": 0.4251968503937008,
          "duration": 0.023255813953483084
        },
        {
          "name": "A#4",
          "midi": 70,
          "time": 231.03488372089043,
          "velocity": 0.1968503937007874,
          "duration": 0.034883720930224626
        },
        {
          "name": "E7",
          "midi": 100,
          "time": 231.03488372089043,
          "velocity": 0.33858267716535434,
          "duration": 0.6046511627905602
        },
        {
          "name": "G#3",
          "midi": 56,
          "time": 231.05813953484392,
          "velocity": 0.3700787401574803,
          "duration": 0.023255813953483084
        },
        {
          "name": "A4",
          "midi": 69,
          "time": 231.06976744182066,
          "velocity": 0.3228346456692913,
          "duration": 0.06976744186044925
        },
        {
          "name": "A5",
          "midi": 81,
          "time": 231.06976744182066,
          "velocity": 0.4645669291338583,
          "duration": 0.6511627906975264
        },
        {
          "name": "D6",
          "midi": 86,
          "time": 231.06976744182066,
          "velocity": 0.2677165354330709,
          "duration": 0.09302325581393234
        },
        {
          "name": "D#6",
          "midi": 87,
          "time": 231.06976744182066,
          "velocity": 0.18110236220472442,
          "duration": 0.10465116279067388
        },
        {
          "name": "A6",
          "midi": 93,
          "time": 231.06976744182066,
          "velocity": 0.5354330708661418,
          "duration": 0.558139534883594
        },
        {
          "name": "A#3",
          "midi": 58,
          "time": 231.0813953487974,
          "velocity": 0.4251968503937008,
          "duration": 0.023255813953483084
        },
        {
          "name": "D4",
          "midi": 62,
          "time": 231.0813953487974,
          "velocity": 0.41732283464566927,
          "duration": 0.023255813953483084
        },
        {
          "name": "F#5",
          "midi": 78,
          "time": 231.0813953487974,
          "velocity": 0.10236220472440945,
          "duration": 0.15116279069764005
        },
        {
          "name": "C6",
          "midi": 84,
          "time": 231.0813953487974,
          "velocity": 0.14173228346456693,
          "duration": 0.15116279069764005
        },
        {
          "name": "D3",
          "midi": 50,
          "time": 231.09302325577414,
          "velocity": 0.6220472440944882,
          "duration": 0.1395348837208985
        },
        {
          "name": "G4",
          "midi": 67,
          "time": 231.09302325577414,
          "velocity": 0.2204724409448819,
          "duration": 0.06976744186044925
        },
        {
          "name": "C5",
          "midi": 72,
          "time": 231.09302325577414,
          "velocity": 0.11023622047244094,
          "duration": 0.034883720930224626
        },
        {
          "name": "E2",
          "midi": 40,
          "time": 231.10465116275088,
          "velocity": 0.4645669291338583,
          "duration": 0.023255813953483084
        },
        {
          "name": "A3",
          "midi": 57,
          "time": 231.10465116275088,
          "velocity": 0.47244094488188976,
          "duration": 0.034883720930224626
        },
        {
          "name": "F2",
          "midi": 41,
          "time": 231.12790697670437,
          "velocity": 0.5196850393700787,
          "duration": 0.023255813953483084
        },
        {
          "name": "F#6",
          "midi": 90,
          "time": 231.15116279065785,
          "velocity": 0.2047244094488189,
          "duration": 0.24418604651157239
        },
        {
          "name": "A2",
          "midi": 45,
          "time": 231.18604651158807,
          "velocity": 0.5748031496062992,
          "duration": 0.023255813953483084
        },
        {
          "name": "G4",
          "midi": 67,
          "time": 231.18604651158807,
          "velocity": 0.2440944881889764,
          "duration": 0.11627906976741542
        },
        {
          "name": "A3",
          "midi": 57,
          "time": 231.25581395344852,
          "velocity": 0.44881889763779526,
          "duration": 0.09302325581393234
        },
        {
          "name": "C#7",
          "midi": 97,
          "time": 231.25581395344852,
          "velocity": 0.2204724409448819,
          "duration": 0.10465116279067388
        },
        {
          "name": "D#2",
          "midi": 39,
          "time": 231.26744186042527,
          "velocity": 0.47244094488188976,
          "duration": 0.023255813953483084
        },
        {
          "name": "A#4",
          "midi": 70,
          "time": 231.279069767402,
          "velocity": 0.2677165354330709,
          "duration": 0.023255813953483084
        },
        {
          "name": "E5",
          "midi": 76,
          "time": 231.279069767402,
          "velocity": 0.33858267716535434,
          "duration": 0.1627906976743816
        },
        {
          "name": "F#5",
          "midi": 78,
          "time": 231.29069767437875,
          "velocity": 0.29133858267716534,
          "duration": 0.1627906976743816
        },
        {
          "name": "D#7",
          "midi": 99,
          "time": 231.29069767437875,
          "velocity": 0.12598425196850394,
          "duration": 0.034883720930224626
        },
        {
          "name": "D3",
          "midi": 50,
          "time": 231.3023255813555,
          "velocity": 0.5354330708661418,
          "duration": 0.05813953488370771
        },
        {
          "name": "F#4",
          "midi": 66,
          "time": 231.3023255813555,
          "velocity": 0.33070866141732286,
          "duration": 0.15116279069764005
        },
        {
          "name": "F2",
          "midi": 41,
          "time": 231.32558139530897,
          "velocity": 0.4566929133858268,
          "duration": 0.023255813953483084
        },
        {
          "name": "C7",
          "midi": 96,
          "time": 231.32558139530897,
          "velocity": 0.07874015748031496,
          "duration": 0.034883720930224626
        },
        {
          "name": "C#3",
          "midi": 49,
          "time": 231.3604651162392,
          "velocity": 0.5984251968503937,
          "duration": 0.011627906976741542
        },
        {
          "name": "D3",
          "midi": 50,
          "time": 231.37209302321594,
          "velocity": 0.6141732283464567,
          "duration": 0.04651162790696617
        },
        {
          "name": "A2",
          "midi": 45,
          "time": 231.40697674414616,
          "velocity": 0.5590551181102362,
          "duration": 0.011627906976741542
        },
        {
          "name": "C3",
          "midi": 48,
          "time": 231.4186046511229,
          "velocity": 0.6220472440944882,
          "duration": 0.011627906976741542
        },
        {
          "name": "D4",
          "midi": 62,
          "time": 231.4186046511229,
          "velocity": 0.2440944881889764,
          "duration": 0.04651162790696617
        },
        {
          "name": "A2",
          "midi": 45,
          "time": 231.43023255809965,
          "velocity": 0.5748031496062992,
          "duration": 0.011627906976741542
        },
        {
          "name": "D3",
          "midi": 50,
          "time": 231.43023255809965,
          "velocity": 0.5669291338582677,
          "duration": 0.011627906976741542
        },
        {
          "name": "E3",
          "midi": 52,
          "time": 231.4418604650764,
          "velocity": 0.5748031496062992,
          "duration": 0.011627906976741542
        },
        {
          "name": "A2",
          "midi": 45,
          "time": 231.45348837205313,
          "velocity": 0.5590551181102362,
          "duration": 0.023255813953483084
        },
        {
          "name": "E5",
          "midi": 76,
          "time": 231.45348837205313,
          "velocity": 0.14173228346456693,
          "duration": 0.1395348837208985
        },
        {
          "name": "F#7",
          "midi": 102,
          "time": 231.48837209298335,
          "velocity": 0.25196850393700787,
          "duration": 0.7209302325579756
        },
        {
          "name": "G7",
          "midi": 103,
          "time": 231.48837209298335,
          "velocity": 0.07086614173228346,
          "duration": 0.034883720930224626
        },
        {
          "name": "F#5",
          "midi": 78,
          "time": 231.4999999999601,
          "velocity": 0.1732283464566929,
          "duration": 0.05813953488370771
        },
        {
          "name": "D3",
          "midi": 50,
          "time": 231.51162790693684,
          "velocity": 0.47244094488188976,
          "duration": 0.023255813953483084
        },
        {
          "name": "E4",
          "midi": 64,
          "time": 231.51162790693684,
          "velocity": 0.1968503937007874,
          "duration": 0.034883720930224626
        },
        {
          "name": "B6",
          "midi": 95,
          "time": 231.51162790693684,
          "velocity": 0.4881889763779528,
          "duration": 0.6511627906975264
        },
        {
          "name": "C7",
          "midi": 96,
          "time": 231.51162790693684,
          "velocity": 0.08661417322834646,
          "duration": 0.034883720930224626
        },
        {
          "name": "C#7",
          "midi": 97,
          "time": 231.51162790693684,
          "velocity": 0.2440944881889764,
          "duration": 0.18604651162786467
        },
        {
          "name": "D7",
          "midi": 98,
          "time": 231.51162790693684,
          "velocity": 0.18110236220472442,
          "duration": 0.0813953488371908
        },
        {
          "name": "G4",
          "midi": 67,
          "time": 231.52325581391358,
          "velocity": 0.2283464566929134,
          "duration": 0.05813953488370771
        },
        {
          "name": "A4",
          "midi": 69,
          "time": 231.52325581391358,
          "velocity": 0.1968503937007874,
          "duration": 0.04651162790696617
        },
        {
          "name": "G#2",
          "midi": 44,
          "time": 231.53488372089032,
          "velocity": 0.47244094488188976,
          "duration": 0.023255813953483084
        },
        {
          "name": "B5",
          "midi": 83,
          "time": 231.53488372089032,
          "velocity": 0.08661417322834646,
          "duration": 0.034883720930224626
        },
        {
          "name": "F7",
          "midi": 101,
          "time": 231.54651162786706,
          "velocity": 0.08661417322834646,
          "duration": 0.05813953488370771
        },
        {
          "name": "A2",
          "midi": 45,
          "time": 231.5581395348438,
          "velocity": 0.4409448818897638,
          "duration": 0.04651162790696617
        },
        {
          "name": "D4",
          "midi": 62,
          "time": 231.5581395348438,
          "velocity": 0.2755905511811024,
          "duration": 0.11627906976741542
        },
        {
          "name": "F#6",
          "midi": 90,
          "time": 231.5581395348438,
          "velocity": 0.14960629921259844,
          "duration": 0.1627906976743816
        },
        {
          "name": "D#7",
          "midi": 99,
          "time": 231.5581395348438,
          "velocity": 0.1889763779527559,
          "duration": 0.23255813953483084
        },
        {
          "name": "G7",
          "midi": 103,
          "time": 231.5581395348438,
          "velocity": 0.10236220472440945,
          "duration": 0.10465116279067388
        },
        {
          "name": "A#3",
          "midi": 58,
          "time": 231.56976744182055,
          "velocity": 0.2992125984251969,
          "duration": 0.023255813953483084
        },
        {
          "name": "F#4",
          "midi": 66,
          "time": 231.5813953487973,
          "velocity": 0.2204724409448819,
          "duration": 0.04651162790696617
        },
        {
          "name": "B5",
          "midi": 83,
          "time": 231.59302325577403,
          "velocity": 0.1889763779527559,
          "duration": 0.04651162790696617
        },
        {
          "name": "D3",
          "midi": 50,
          "time": 231.6162790697275,
          "velocity": 0.4251968503937008,
          "duration": 0.04651162790696617
        },
        {
          "name": "A4",
          "midi": 69,
          "time": 231.62790697670425,
          "velocity": 0.18110236220472442,
          "duration": 0.04651162790696617
        },
        {
          "name": "D7",
          "midi": 98,
          "time": 231.62790697670425,
          "velocity": 0.18110236220472442,
          "duration": 0.1395348837208985
        },
        {
          "name": "A3",
          "midi": 57,
          "time": 231.639534883681,
          "velocity": 0.30708661417322836,
          "duration": 0.034883720930224626
        },
        {
          "name": "F#4",
          "midi": 66,
          "time": 231.639534883681,
          "velocity": 0.14173228346456693,
          "duration": 0.034883720930224626
        },
        {
          "name": "D2",
          "midi": 38,
          "time": 231.66279069763448,
          "velocity": 0.4015748031496063,
          "duration": 0.023255813953483084
        },
        {
          "name": "A#6",
          "midi": 94,
          "time": 231.66279069763448,
          "velocity": 0.07874015748031496,
          "duration": 0.04651162790696617
        },
        {
          "name": "D3",
          "midi": 50,
          "time": 231.67441860461122,
          "velocity": 0.48031496062992124,
          "duration": 0.023255813953483084
        },
        {
          "name": "E7",
          "midi": 100,
          "time": 231.67441860461122,
          "velocity": 0.11023622047244094,
          "duration": 0.05813953488370771
        },
        {
          "name": "E2",
          "midi": 40,
          "time": 231.68604651158796,
          "velocity": 0.4409448818897638,
          "duration": 0.023255813953483084
        },
        {
          "name": "D#3",
          "midi": 51,
          "time": 231.6976744185647,
          "velocity": 0.47244094488188976,
          "duration": 0.034883720930224626
        },
        {
          "name": "C4",
          "midi": 60,
          "time": 231.70930232554144,
          "velocity": 0.2440944881889764,
          "duration": 0.023255813953483084
        },
        {
          "name": "E5",
          "midi": 76,
          "time": 231.70930232554144,
          "velocity": 0.29133858267716534,
          "duration": 0.1627906976743816
        },
        {
          "name": "C#7",
          "midi": 97,
          "time": 231.70930232554144,
          "velocity": 0.16535433070866143,
          "duration": 0.0813953488371908
        },
        {
          "name": "D4",
          "midi": 62,
          "time": 231.72093023251819,
          "velocity": 0.3464566929133858,
          "duration": 0.12790697674415696
        },
        {
          "name": "A4",
          "midi": 69,
          "time": 231.72093023251819,
          "velocity": 0.33858267716535434,
          "duration": 0.04651162790696617
        },
        {
          "name": "F#5",
          "midi": 78,
          "time": 231.72093023251819,
          "velocity": 0.2992125984251969,
          "duration": 0.39534883720921243
        },
        {
          "name": "B5",
          "midi": 83,
          "time": 231.72093023251819,
          "velocity": 0.25984251968503935,
          "duration": 0.18604651162786467
        },
        {
          "name": "E2",
          "midi": 40,
          "time": 231.73255813949493,
          "velocity": 0.4566929133858268,
          "duration": 0.034883720930224626
        },
        {
          "name": "D3",
          "midi": 50,
          "time": 231.73255813949493,
          "velocity": 0.6220472440944882,
          "duration": 0.11627906976741542
        },
        {
          "name": "F#4",
          "midi": 66,
          "time": 231.73255813949493,
          "velocity": 0.41732283464566927,
          "duration": 0.19767441860460622
        },
        {
          "name": "A3",
          "midi": 57,
          "time": 231.74418604647167,
          "velocity": 0.3779527559055118,
          "duration": 0.034883720930224626
        },
        {
          "name": "C#6",
          "midi": 85,
          "time": 231.74418604647167,
          "velocity": 0.07874015748031496,
          "duration": 0.10465116279067388
        },
        {
          "name": "C7",
          "midi": 96,
          "time": 231.74418604647167,
          "velocity": 0.09448818897637795,
          "duration": 0.04651162790696617
        },
        {
          "name": "A#3",
          "midi": 58,
          "time": 231.7790697674019,
          "velocity": 0.3464566929133858,
          "duration": 0.034883720930224626
        },
        {
          "name": "A4",
          "midi": 69,
          "time": 231.81395348833212,
          "velocity": 0.2677165354330709,
          "duration": 0.10465116279067388
        },
        {
          "name": "A3",
          "midi": 57,
          "time": 231.8372093022856,
          "velocity": 0.2047244094488189,
          "duration": 0.034883720930224626
        },
        {
          "name": "D#3",
          "midi": 51,
          "time": 231.87209302321583,
          "velocity": 0.36220472440944884,
          "duration": 0.023255813953483084
        },
        {
          "name": "A#3",
          "midi": 58,
          "time": 231.87209302321583,
          "velocity": 0.2755905511811024,
          "duration": 0.023255813953483084
        },
        {
          "name": "D3",
          "midi": 50,
          "time": 231.8953488371693,
          "velocity": 0.3858267716535433,
          "duration": 0.023255813953483084
        },
        {
          "name": "C7",
          "midi": 96,
          "time": 231.90697674414605,
          "velocity": 0.2204724409448819,
          "duration": 0.10465116279067388
        },
        {
          "name": "D#3",
          "midi": 51,
          "time": 231.9186046511228,
          "velocity": 0.3937007874015748,
          "duration": 0.023255813953483084
        },
        {
          "name": "C#6",
          "midi": 85,
          "time": 231.9186046511228,
          "velocity": 0.33858267716535434,
          "duration": 0.04651162790696617
        },
        {
          "name": "D#6",
          "midi": 87,
          "time": 231.9186046511228,
          "velocity": 0.14173228346456693,
          "duration": 0.034883720930224626
        },
        {
          "name": "A#6",
          "midi": 94,
          "time": 231.9186046511228,
          "velocity": 0.14173228346456693,
          "duration": 0.06976744186044925
        },
        {
          "name": "D7",
          "midi": 98,
          "time": 231.9186046511228,
          "velocity": 0.5433070866141733,
          "duration": 1.0697674418602219
        },
        {
          "name": "C4",
          "midi": 60,
          "time": 231.93023255809953,
          "velocity": 0.4330708661417323,
          "duration": 0.023255813953483084
        },
        {
          "name": "G4",
          "midi": 67,
          "time": 231.93023255809953,
          "velocity": 0.44881889763779526,
          "duration": 0.04651162790696617
        },
        {
          "name": "D5",
          "midi": 74,
          "time": 231.93023255809953,
          "velocity": 0.2992125984251969,
          "duration": 0.05813953488370771
        },
        {
          "name": "E5",
          "midi": 76,
          "time": 231.93023255809953,
          "velocity": 0.31496062992125984,
          "duration": 0.19767441860460622
        },
        {
          "name": "A#5",
          "midi": 82,
          "time": 231.93023255809953,
          "velocity": 0.11023622047244094,
          "duration": 0.034883720930224626
        },
        {
          "name": "B5",
          "midi": 83,
          "time": 231.93023255809953,
          "velocity": 0.15748031496062992,
          "duration": 0.04651162790696617
        },
        {
          "name": "F7",
          "midi": 101,
          "time": 231.93023255809953,
          "velocity": 0.10236220472440945,
          "duration": 0.034883720930224626
        },
        {
          "name": "D3",
          "midi": 50,
          "time": 231.94186046507627,
          "velocity": 0.6535433070866141,
          "duration": 0.15116279069764005
        },
        {
          "name": "D#7",
          "midi": 99,
          "time": 231.94186046507627,
          "velocity": 0.2677165354330709,
          "duration": 0.034883720930224626
        },
        {
          "name": "G7",
          "midi": 103,
          "time": 231.94186046507627,
          "velocity": 0.07086614173228346,
          "duration": 0.034883720930224626
        },
        {
          "name": "A4",
          "midi": 69,
          "time": 231.95348837205302,
          "velocity": 0.2283464566929134,
          "duration": 0.09302325581393234
        },
        {
          "name": "C6",
          "midi": 84,
          "time": 231.96511627902976,
          "velocity": 0.2047244094488189,
          "duration": 0.04651162790696617
        },
        {
          "name": "D#6",
          "midi": 87,
          "time": 231.96511627902976,
          "velocity": 0.13385826771653545,
          "duration": 0.034883720930224626
        },
        {
          "name": "A#3",
          "midi": 58,
          "time": 231.9767441860065,
          "velocity": 0.44881889763779526,
          "duration": 0.023255813953483084
        },
        {
          "name": "D#7",
          "midi": 99,
          "time": 231.99999999995998,
          "velocity": 0.07874015748031496,
          "duration": 0.034883720930224626
        },
        {
          "name": "A5",
          "midi": 81,
          "time": 232.01162790693672,
          "velocity": 0.28346456692913385,
          "duration": 0.1627906976743816
        },
        {
          "name": "F#4",
          "midi": 66,
          "time": 232.02325581391347,
          "velocity": 0.25196850393700787,
          "duration": 0.023255813953483084
        },
        {
          "name": "C6",
          "midi": 84,
          "time": 232.0348837208902,
          "velocity": 0.11023622047244094,
          "duration": 0.06976744186044925
        },
        {
          "name": "A2",
          "midi": 45,
          "time": 232.04651162786695,
          "velocity": 0.5433070866141733,
          "duration": 0.011627906976741542
        },
        {
          "name": "A#3",
          "midi": 58,
          "time": 232.04651162786695,
          "velocity": 0.31496062992125984,
          "duration": 0.04651162790696617
        },
        {
          "name": "D#7",
          "midi": 99,
          "time": 232.04651162786695,
          "velocity": 0.15748031496062992,
          "duration": 0.034883720930224626
        },
        {
          "name": "F#4",
          "midi": 66,
          "time": 232.0581395348437,
          "velocity": 0.25196850393700787,
          "duration": 0.05813953488370771
        },
        {
          "name": "A4",
          "midi": 69,
          "time": 232.0581395348437,
          "velocity": 0.13385826771653545,
          "duration": 0.034883720930224626
        },
        {
          "name": "C5",
          "midi": 72,
          "time": 232.0581395348437,
          "velocity": 0.11023622047244094,
          "duration": 0.05813953488370771
        },
        {
          "name": "A2",
          "midi": 45,
          "time": 232.06976744182043,
          "velocity": 0.6141732283464567,
          "duration": 0.04651162790696617
        },
        {
          "name": "C#6",
          "midi": 85,
          "time": 232.08139534879717,
          "velocity": 0.16535433070866143,
          "duration": 0.06976744186044925
        },
        {
          "name": "G#2",
          "midi": 44,
          "time": 232.1162790697274,
          "velocity": 0.6062992125984252,
          "duration": 0.011627906976741542
        },
        {
          "name": "D4",
          "midi": 62,
          "time": 232.1162790697274,
          "velocity": 0.23622047244094488,
          "duration": 0.023255813953483084
        },
        {
          "name": "A2",
          "midi": 45,
          "time": 232.12790697670414,
          "velocity": 0.5275590551181102,
          "duration": 0.011627906976741542
        },
        {
          "name": "D#7",
          "midi": 99,
          "time": 232.12790697670414,
          "velocity": 0.2677165354330709,
          "duration": 0.034883720930224626
        },
        {
          "name": "E2",
          "midi": 40,
          "time": 232.13953488368088,
          "velocity": 0.5826771653543307,
          "duration": 0.011627906976741542
        },
        {
          "name": "A#4",
          "midi": 70,
          "time": 232.13953488368088,
          "velocity": 0.2677165354330709,
          "duration": 0.034883720930224626
        },
        {
          "name": "F#5",
          "midi": 78,
          "time": 232.13953488368088,
          "velocity": 0.25984251968503935,
          "duration": 0.39534883720921243
        },
        {
          "name": "G#2",
          "midi": 44,
          "time": 232.15116279065762,
          "velocity": 0.6141732283464567,
          "duration": 0.011627906976741542
        },
        {
          "name": "G4",
          "midi": 67,
          "time": 232.15116279065762,
          "velocity": 0.2992125984251969,
          "duration": 0.023255813953483084
        },
        {
          "name": "E6",
          "midi": 88,
          "time": 232.15116279065762,
          "velocity": 0.2047244094488189,
          "duration": 0.05813953488370771
        },
        {
          "name": "C#7",
          "midi": 97,
          "time": 232.15116279065762,
          "velocity": 0.2283464566929134,
          "duration": 0.12790697674415696
        },
        {
          "name": "F5",
          "midi": 77,
          "time": 232.16279069763436,
          "velocity": 0.23622047244094488,
          "duration": 0.023255813953483084
        },
        {
          "name": "A3",
          "midi": 57,
          "time": 232.1744186046111,
          "velocity": 0.36220472440944884,
          "duration": 0.034883720930224626
        },
        {
          "name": "F#4",
          "midi": 66,
          "time": 232.1744186046111,
          "velocity": 0.31496062992125984,
          "duration": 0.023255813953483084
        },
        {
          "name": "C#2",
          "midi": 37,
          "time": 232.18604651158785,
          "velocity": 0.47244094488188976,
          "duration": 0.023255813953483084
        },
        {
          "name": "A4",
          "midi": 69,
          "time": 232.18604651158785,
          "velocity": 0.3858267716535433,
          "duration": 0.3837209302324709
        },
        {
          "name": "E5",
          "midi": 76,
          "time": 232.18604651158785,
          "velocity": 0.2755905511811024,
          "duration": 0.06976744186044925
        },
        {
          "name": "B6",
          "midi": 95,
          "time": 232.18604651158785,
          "velocity": 0.1889763779527559,
          "duration": 0.0813953488371908
        },
        {
          "name": "F7",
          "midi": 101,
          "time": 232.18604651158785,
          "velocity": 0.10236220472440945,
          "duration": 0.05813953488370771
        },
        {
          "name": "D4",
          "midi": 62,
          "time": 232.1976744185646,
          "velocity": 0.31496062992125984,
          "duration": 0.1395348837208985
        },
        {
          "name": "C#6",
          "midi": 85,
          "time": 232.1976744185646,
          "velocity": 0.10236220472440945,
          "duration": 0.05813953488370771
        },
        {
          "name": "A#3",
          "midi": 58,
          "time": 232.20930232554133,
          "velocity": 0.4094488188976378,
          "duration": 0.023255813953483084
        },
        {
          "name": "D#7",
          "midi": 99,
          "time": 232.20930232554133,
          "velocity": 0.14173228346456693,
          "duration": 0.17441860465112313
        },
        {
          "name": "A2",
          "midi": 45,
          "time": 232.22093023251807,
          "velocity": 0.4094488188976378,
          "duration": 0.023255813953483084
        },
        {
          "name": "F#4",
          "midi": 66,
          "time": 232.22093023251807,
          "velocity": 0.2677165354330709,
          "duration": 0.09302325581393234
        },
        {
          "name": "F#7",
          "midi": 102,
          "time": 232.22093023251807,
          "velocity": 0.49606299212598426,
          "duration": 0.6744186046510094
        },
        {
          "name": "C7",
          "midi": 96,
          "time": 232.2325581394948,
          "velocity": 0.13385826771653545,
          "duration": 0.0813953488371908
        },
        {
          "name": "G7",
          "midi": 103,
          "time": 232.2325581394948,
          "velocity": 0.11811023622047244,
          "duration": 0.05813953488370771
        },
        {
          "name": "E7",
          "midi": 100,
          "time": 232.24418604647155,
          "velocity": 0.13385826771653545,
          "duration": 0.12790697674415696
        },
        {
          "name": "D3",
          "midi": 50,
          "time": 232.26744186042504,
          "velocity": 0.41732283464566927,
          "duration": 0.034883720930224626
        },
        {
          "name": "C#7",
          "midi": 97,
          "time": 232.29069767437852,
          "velocity": 0.3464566929133858,
          "duration": 0.24418604651157239
        },
        {
          "name": "D2",
          "midi": 38,
          "time": 232.30232558135526,
          "velocity": 0.36220472440944884,
          "duration": 0.023255813953483084
        },
        {
          "name": "D#3",
          "midi": 51,
          "time": 232.30232558135526,
          "velocity": 0.4881889763779528,
          "duration": 0.023255813953483084
        },
        {
          "name": "D3",
          "midi": 50,
          "time": 232.32558139530875,
          "velocity": 0.5039370078740157,
          "duration": 0.023255813953483084
        },
        {
          "name": "G7",
          "midi": 103,
          "time": 232.32558139530875,
          "velocity": 0.14960629921259844,
          "duration": 0.06976744186044925
        },
        {
          "name": "D#4",
          "midi": 63,
          "time": 232.3372093022855,
          "velocity": 0.1968503937007874,
          "duration": 0.034883720930224626
        },
        {
          "name": "C#6",
          "midi": 85,
          "time": 232.3372093022855,
          "velocity": 0.14960629921259844,
          "duration": 0.034883720930224626
        },
        {
          "name": "C7",
          "midi": 96,
          "time": 232.3372093022855,
          "velocity": 0.2047244094488189,
          "duration": 0.0813953488371908
        },
        {
          "name": "D#3",
          "midi": 51,
          "time": 232.34883720926223,
          "velocity": 0.5039370078740157,
          "duration": 0.023255813953483084
        },
        {
          "name": "F#4",
          "midi": 66,
          "time": 232.34883720926223,
          "velocity": 0.13385826771653545,
          "duration": 0.034883720930224626
        },
        {
          "name": "E5",
          "midi": 76,
          "time": 232.34883720926223,
          "velocity": 0.14173228346456693,
          "duration": 0.1395348837208985
        },
        {
          "name": "D#6",
          "midi": 87,
          "time": 232.36046511623897,
          "velocity": 0.15748031496062992,
          "duration": 0.09302325581393234
        },
        {
          "name": "D3",
          "midi": 50,
          "time": 232.3720930232157,
          "velocity": 0.5275590551181102,
          "duration": 0.034883720930224626
        },
        {
          "name": "C6",
          "midi": 84,
          "time": 232.3720930232157,
          "velocity": 0.15748031496062992,
          "duration": 0.1395348837208985
        },
        {
          "name": "F#6",
          "midi": 90,
          "time": 232.3720930232157,
          "velocity": 0.29133858267716534,
          "duration": 0.279069767441797
        },
        {
          "name": "D#7",
          "midi": 99,
          "time": 232.3953488371692,
          "velocity": 0.1732283464566929,
          "duration": 0.37209302325572935
        },
        {
          "name": "F2",
          "midi": 41,
          "time": 232.40697674414594,
          "velocity": 0.5433070866141733,
          "duration": 0.023255813953483084
        },
        {
          "name": "C5",
          "midi": 72,
          "time": 232.41860465112268,
          "velocity": 0.14173228346456693,
          "duration": 0.04651162790696617
        },
        {
          "name": "E7",
          "midi": 100,
          "time": 232.43023255809942,
          "velocity": 0.1968503937007874,
          "duration": 0.15116279069764005
        },
        {
          "name": "D3",
          "midi": 50,
          "time": 232.44186046507616,
          "velocity": 0.4566929133858268,
          "duration": 0.023255813953483084
        },
        {
          "name": "F7",
          "midi": 101,
          "time": 232.44186046507616,
          "velocity": 0.07874015748031496,
          "duration": 0.034883720930224626
        },
        {
          "name": "F#4",
          "midi": 66,
          "time": 232.46511627902964,
          "velocity": 0.12598425196850394,
          "duration": 0.06976744186044925
        },
        {
          "name": "D3",
          "midi": 50,
          "time": 232.47674418600639,
          "velocity": 0.4566929133858268,
          "duration": 0.04651162790696617
        },
        {
          "name": "F2",
          "midi": 41,
          "time": 232.5116279069366,
          "velocity": 0.30708661417322836,
          "duration": 0.023255813953483084
        },
        {
          "name": "A3",
          "midi": 57,
          "time": 232.5116279069366,
          "velocity": 0.18110236220472442,
          "duration": 0.05813953488370771
        },
        {
          "name": "D3",
          "midi": 50,
          "time": 232.5348837208901,
          "velocity": 0.47244094488188976,
          "duration": 0.15116279069764005
        },
        {
          "name": "C#6",
          "midi": 85,
          "time": 232.5348837208901,
          "velocity": 0.13385826771653545,
          "duration": 0.04651162790696617
        },
        {
          "name": "C5",
          "midi": 72,
          "time": 232.55813953484358,
          "velocity": 0.14960629921259844,
          "duration": 0.034883720930224626
        },
        {
          "name": "F#5",
          "midi": 78,
          "time": 232.55813953484358,
          "velocity": 0.41732283464566927,
          "duration": 0.5232558139533694
        },
        {
          "name": "A#3",
          "midi": 58,
          "time": 232.58139534879706,
          "velocity": 0.2755905511811024,
          "duration": 0.05813953488370771
        },
        {
          "name": "E4",
          "midi": 64,
          "time": 232.58139534879706,
          "velocity": 0.2440944881889764,
          "duration": 0.023255813953483084
        },
        {
          "name": "A4",
          "midi": 69,
          "time": 232.58139534879706,
          "velocity": 0.3543307086614173,
          "duration": 0.0813953488371908
        },
        {
          "name": "E5",
          "midi": 76,
          "time": 232.58139534879706,
          "velocity": 0.25984251968503935,
          "duration": 0.20930232558134776
        },
        {
          "name": "B5",
          "midi": 83,
          "time": 232.58139534879706,
          "velocity": 0.13385826771653545,
          "duration": 0.0813953488371908
        },
        {
          "name": "F2",
          "midi": 41,
          "time": 232.5930232557738,
          "velocity": 0.5039370078740157,
          "duration": 0.04651162790696617
        },
        {
          "name": "C7",
          "midi": 96,
          "time": 232.60465116275054,
          "velocity": 0.07874015748031496,
          "duration": 0.034883720930224626
        },
        {
          "name": "C#7",
          "midi": 97,
          "time": 232.60465116275054,
          "velocity": 0.2755905511811024,
          "duration": 0.05813953488370771
        },
        {
          "name": "D#4",
          "midi": 63,
          "time": 232.61627906972728,
          "velocity": 0.23622047244094488,
          "duration": 0.023255813953483084
        },
        {
          "name": "F#4",
          "midi": 66,
          "time": 232.61627906972728,
          "velocity": 0.3464566929133858,
          "duration": 0.11627906976741542
        },
        {
          "name": "D5",
          "midi": 74,
          "time": 232.61627906972728,
          "velocity": 0.1889763779527559,
          "duration": 0.1627906976743816
        },
        {
          "name": "A3",
          "midi": 57,
          "time": 232.63953488368077,
          "velocity": 0.3464566929133858,
          "duration": 0.10465116279067388
        },
        {
          "name": "C5",
          "midi": 72,
          "time": 232.63953488368077,
          "velocity": 0.11811023622047244,
          "duration": 0.05813953488370771
        },
        {
          "name": "D2",
          "midi": 38,
          "time": 232.6511627906575,
          "velocity": 0.31496062992125984,
          "duration": 0.023255813953483084
        },
        {
          "name": "C7",
          "midi": 96,
          "time": 232.6511627906575,
          "velocity": 0.08661417322834646,
          "duration": 0.0813953488371908
        },
        {
          "name": "A4",
          "midi": 69,
          "time": 232.674418604611,
          "velocity": 0.36220472440944884,
          "duration": 0.20930232558134776
        },
        {
          "name": "C#7",
          "midi": 97,
          "time": 232.674418604611,
          "velocity": 0.25984251968503935,
          "duration": 0.2558139534883139
        },
        {
          "name": "D3",
          "midi": 50,
          "time": 232.69767441856447,
          "velocity": 0.4094488188976378,
          "duration": 0.04651162790696617
        },
        {
          "name": "D#4",
          "midi": 63,
          "time": 232.70930232554122,
          "velocity": 0.25984251968503935,
          "duration": 0.023255813953483084
        },
        {
          "name": "D#2",
          "midi": 39,
          "time": 232.72093023251796,
          "velocity": 0.4015748031496063,
          "duration": 0.023255813953483084
        },
        {
          "name": "E2",
          "midi": 40,
          "time": 232.74418604647144,
          "velocity": 0.41732283464566927,
          "duration": 0.023255813953483084
        },
        {
          "name": "D#3",
          "midi": 51,
          "time": 232.74418604647144,
          "velocity": 0.3543307086614173,
          "duration": 0.023255813953483084
        },
        {
          "name": "A3",
          "midi": 57,
          "time": 232.75581395344818,
          "velocity": 0.3228346456692913,
          "duration": 0.023255813953483084
        },
        {
          "name": "D3",
          "midi": 50,
          "time": 232.76744186042492,
          "velocity": 0.41732283464566927,
          "duration": 0.023255813953483084
        },
        {
          "name": "F#4",
          "midi": 66,
          "time": 232.76744186042492,
          "velocity": 0.33070866141732286,
          "duration": 0.034883720930224626
        },
        {
          "name": "D#2",
          "midi": 39,
          "time": 232.77906976740167,
          "velocity": 0.5196850393700787,
          "duration": 0.011627906976741542
        },
        {
          "name": "A#3",
          "midi": 58,
          "time": 232.77906976740167,
          "velocity": 0.23622047244094488,
          "duration": 0.034883720930224626
        },
        {
          "name": "G2",
          "midi": 43,
          "time": 232.7906976743784,
          "velocity": 0.5826771653543307,
          "duration": 0.011627906976741542
        },
        {
          "name": "B4",
          "midi": 71,
          "time": 232.7906976743784,
          "velocity": 0.23622047244094488,
          "duration": 0.023255813953483084
        },
        {
          "name": "D6",
          "midi": 86,
          "time": 232.7906976743784,
          "velocity": 0.11023622047244094,
          "duration": 0.034883720930224626
        },
        {
          "name": "B2",
          "midi": 47,
          "time": 232.80232558135515,
          "velocity": 0.5826771653543307,
          "duration": 0.011627906976741542
        },
        {
          "name": "E5",
          "midi": 76,
          "time": 232.80232558135515,
          "velocity": 0.3464566929133858,
          "duration": 0.23255813953483084
        },
        {
          "name": "E7",
          "midi": 100,
          "time": 232.80232558135515,
          "velocity": 0.5039370078740157,
          "duration": 2.534883720929656
        },
        {
          "name": "F7",
          "midi": 101,
          "time": 232.80232558135515,
          "velocity": 0.10236220472440945,
          "duration": 0.034883720930224626
        },
        {
          "name": "D3",
          "midi": 50,
          "time": 232.8139534883319,
          "velocity": 0.5118110236220472,
          "duration": 0.011627906976741542
        },
        {
          "name": "B3",
          "midi": 59,
          "time": 232.8139534883319,
          "velocity": 0.3858267716535433,
          "duration": 0.04651162790696617
        },
        {
          "name": "E4",
          "midi": 64,
          "time": 232.8139534883319,
          "velocity": 0.3858267716535433,
          "duration": 0.43023255813943706
        },
        {
          "name": "D#7",
          "midi": 99,
          "time": 232.8139534883319,
          "velocity": 0.12598425196850394,
          "duration": 0.034883720930224626
        },
        {
          "name": "D5",
          "midi": 74,
          "time": 232.82558139530863,
          "velocity": 0.12598425196850394,
          "duration": 0.04651162790696617
        },
        {
          "name": "F2",
          "midi": 41,
          "time": 232.83720930228537,
          "velocity": 0.49606299212598426,
          "duration": 0.034883720930224626
        },
        {
          "name": "E3",
          "midi": 52,
          "time": 232.84883720926211,
          "velocity": 0.5433070866141733,
          "duration": 0.06976744186044925
        },
        {
          "name": "C4",
          "midi": 60,
          "time": 232.86046511623886,
          "velocity": 0.3700787401574803,
          "duration": 0.023255813953483084
        },
        {
          "name": "C7",
          "midi": 96,
          "time": 232.86046511623886,
          "velocity": 0.14173228346456693,
          "duration": 0.034883720930224626
        },
        {
          "name": "B2",
          "midi": 47,
          "time": 232.8720930232156,
          "velocity": 0.48031496062992124,
          "duration": 0.023255813953483084
        },
        {
          "name": "D#7",
          "midi": 99,
          "time": 232.88372093019234,
          "velocity": 0.25196850393700787,
          "duration": 0.0813953488371908
        },
        {
          "name": "B6",
          "midi": 95,
          "time": 232.89534883716908,
          "velocity": 0.23622047244094488,
          "duration": 0.11627906976741542
        },
        {
          "name": "G#4",
          "midi": 68,
          "time": 232.90697674414582,
          "velocity": 0.16535433070866143,
          "duration": 0.09302325581393234
        },
        {
          "name": "D#3",
          "midi": 51,
          "time": 232.91860465112256,
          "velocity": 0.5433070866141733,
          "duration": 0.011627906976741542
        },
        {
          "name": "E3",
          "midi": 52,
          "time": 232.9302325580993,
          "velocity": 0.4566929133858268,
          "duration": 0.023255813953483084
        },
        {
          "name": "F#7",
          "midi": 102,
          "time": 232.9302325580993,
          "velocity": 0.11023622047244094,
          "duration": 0.09302325581393234
        },
        {
          "name": "E2",
          "midi": 40,
          "time": 232.9534883720528,
          "velocity": 0.3464566929133858,
          "duration": 0.034883720930224626
        },
        {
          "name": "F3",
          "midi": 53,
          "time": 232.9534883720528,
          "velocity": 0.28346456692913385,
          "duration": 0.023255813953483084
        },
        {
          "name": "C7",
          "midi": 96,
          "time": 232.96511627902953,
          "velocity": 0.11811023622047244,
          "duration": 0.09302325581393234
        },
        {
          "name": "A3",
          "midi": 57,
          "time": 232.97674418600627,
          "velocity": 0.30708661417322836,
          "duration": 0.05813953488370771
        },
        {
          "name": "D2",
          "midi": 38,
          "time": 232.988372092983,
          "velocity": 0.5118110236220472,
          "duration": 0.023255813953483084
        },
        {
          "name": "A#4",
          "midi": 70,
          "time": 232.988372092983,
          "velocity": 0.25196850393700787,
          "duration": 0.023255813953483084
        },
        {
          "name": "D7",
          "midi": 98,
          "time": 232.99999999995975,
          "velocity": 0.18110236220472442,
          "duration": 0.0813953488371908
        },
        {
          "name": "A2",
          "midi": 45,
          "time": 233.0116279069365,
          "velocity": 0.4881889763779528,
          "duration": 0.023255813953483084
        },
        {
          "name": "B4",
          "midi": 71,
          "time": 233.0116279069365,
          "velocity": 0.3228346456692913,
          "duration": 0.1627906976743816
        },
        {
          "name": "C#7",
          "midi": 97,
          "time": 233.0116279069365,
          "velocity": 0.16535433070866143,
          "duration": 0.09302325581393234
        },
        {
          "name": "G4",
          "midi": 67,
          "time": 233.02325581391324,
          "velocity": 0.3700787401574803,
          "duration": 0.31395348837202164
        },
        {
          "name": "B6",
          "midi": 95,
          "time": 233.02325581391324,
          "velocity": 0.23622047244094488,
          "duration": 0.19767441860460622
        },
        {
          "name": "G7",
          "midi": 103,
          "time": 233.02325581391324,
          "velocity": 0.15748031496062992,
          "duration": 0.04651162790696617
        },
        {
          "name": "E3",
          "midi": 52,
          "time": 233.04651162786672,
          "velocity": 0.4330708661417323,
          "duration": 0.023255813953483084
        },
        {
          "name": "B3",
          "midi": 59,
          "time": 233.04651162786672,
          "velocity": 0.30708661417322836,
          "duration": 0.034883720930224626
        },
        {
          "name": "F2",
          "midi": 41,
          "time": 233.05813953484346,
          "velocity": 0.5118110236220472,
          "duration": 0.011627906976741542
        },
        {
          "name": "E3",
          "midi": 52,
          "time": 233.08139534879695,
          "velocity": 0.5511811023622047,
          "duration": 0.034883720930224626
        },
        {
          "name": "D#3",
          "midi": 51,
          "time": 233.11627906972717,
          "velocity": 0.5511811023622047,
          "duration": 0.011627906976741542
        },
        {
          "name": "B3",
          "midi": 59,
          "time": 233.11627906972717,
          "velocity": 0.28346456692913385,
          "duration": 0.09302325581393234
        },
        {
          "name": "F#5",
          "midi": 78,
          "time": 233.11627906972717,
          "velocity": 0.1968503937007874,
          "duration": 0.09302325581393234
        },
        {
          "name": "E3",
          "midi": 52,
          "time": 233.1279069767039,
          "velocity": 0.5196850393700787,
          "duration": 0.034883720930224626
        },
        {
          "name": "D7",
          "midi": 98,
          "time": 233.13953488368065,
          "velocity": 0.11811023622047244,
          "duration": 0.034883720930224626
        },
        {
          "name": "E2",
          "midi": 40,
          "time": 233.1511627906574,
          "velocity": 0.44881889763779526,
          "duration": 0.023255813953483084
        },
        {
          "name": "C#7",
          "midi": 97,
          "time": 233.1511627906574,
          "velocity": 0.07874015748031496,
          "duration": 0.04651162790696617
        },
        {
          "name": "E3",
          "midi": 52,
          "time": 233.17441860461088,
          "velocity": 0.44881889763779526,
          "duration": 0.034883720930224626
        },
        {
          "name": "E2",
          "midi": 40,
          "time": 233.18604651158762,
          "velocity": 0.5118110236220472,
          "duration": 0.023255813953483084
        },
        {
          "name": "D5",
          "midi": 74,
          "time": 233.2093023255411,
          "velocity": 0.1968503937007874,
          "duration": 0.05813953488370771
        },
        {
          "name": "G7",
          "midi": 103,
          "time": 233.2093023255411,
          "velocity": 0.15748031496062992,
          "duration": 0.09302325581393234
        },
        {
          "name": "A5",
          "midi": 81,
          "time": 233.22093023251784,
          "velocity": 0.2677165354330709,
          "duration": 0.37209302325572935
        },
        {
          "name": "D7",
          "midi": 98,
          "time": 233.22093023251784,
          "velocity": 0.1889763779527559,
          "duration": 0.034883720930224626
        },
        {
          "name": "C5",
          "midi": 72,
          "time": 233.23255813949459,
          "velocity": 0.10236220472440945,
          "duration": 0.04651162790696617
        },
        {
          "name": "C#7",
          "midi": 97,
          "time": 233.23255813949459,
          "velocity": 0.2204724409448819,
          "duration": 0.26744186046505547
        },
        {
          "name": "F7",
          "midi": 101,
          "time": 233.23255813949459,
          "velocity": 0.10236220472440945,
          "duration": 0.04651162790696617
        },
        {
          "name": "F2",
          "midi": 41,
          "time": 233.24418604647133,
          "velocity": 0.3858267716535433,
          "duration": 0.023255813953483084
        },
        {
          "name": "C4",
          "midi": 60,
          "time": 233.24418604647133,
          "velocity": 0.3543307086614173,
          "duration": 0.023255813953483084
        },
        {
          "name": "B6",
          "midi": 95,
          "time": 233.24418604647133,
          "velocity": 0.11811023622047244,
          "duration": 0.04651162790696617
        },
        {
          "name": "D#3",
          "midi": 51,
          "time": 233.25581395344807,
          "velocity": 0.3858267716535433,
          "duration": 0.023255813953483084
        },
        {
          "name": "B5",
          "midi": 83,
          "time": 233.25581395344807,
          "velocity": 0.14960629921259844,
          "duration": 0.10465116279067388
        },
        {
          "name": "C7",
          "midi": 96,
          "time": 233.25581395344807,
          "velocity": 0.08661417322834646,
          "duration": 0.034883720930224626
        },
        {
          "name": "G#2",
          "midi": 44,
          "time": 233.2674418604248,
          "velocity": 0.5196850393700787,
          "duration": 0.023255813953483084
        },
        {
          "name": "B3",
          "midi": 59,
          "time": 233.2674418604248,
          "velocity": 0.3779527559055118,
          "duration": 0.17441860465112313
        },
        {
          "name": "E3",
          "midi": 52,
          "time": 233.27906976740155,
          "velocity": 0.31496062992125984,
          "duration": 0.04651162790696617
        },
        {
          "name": "D7",
          "midi": 98,
          "time": 233.27906976740155,
          "velocity": 0.1968503937007874,
          "duration": 0.09302325581393234
        },
        {
          "name": "D#7",
          "midi": 99,
          "time": 233.27906976740155,
          "velocity": 0.14960629921259844,
          "duration": 0.17441860465112313
        },
        {
          "name": "F#7",
          "midi": 102,
          "time": 233.27906976740155,
          "velocity": 0.12598425196850394,
          "duration": 0.034883720930224626
        },
        {
          "name": "D5",
          "midi": 74,
          "time": 233.2906976743783,
          "velocity": 0.25196850393700787,
          "duration": 0.1395348837208985
        },
        {
          "name": "F#6",
          "midi": 90,
          "time": 233.2906976743783,
          "velocity": 0.14960629921259844,
          "duration": 0.20930232558134776
        },
        {
          "name": "F2",
          "midi": 41,
          "time": 233.30232558135503,
          "velocity": 0.5511811023622047,
          "duration": 0.0813953488371908
        },
        {
          "name": "F#5",
          "midi": 78,
          "time": 233.30232558135503,
          "velocity": 0.13385826771653545,
          "duration": 0.12790697674415696
        },
        {
          "name": "E4",
          "midi": 64,
          "time": 233.31395348833178,
          "velocity": 0.31496062992125984,
          "duration": 0.3023255813952801
        },
        {
          "name": "B6",
          "midi": 95,
          "time": 233.31395348833178,
          "velocity": 0.1732283464566929,
          "duration": 0.19767441860460622
        },
        {
          "name": "C7",
          "midi": 96,
          "time": 233.31395348833178,
          "velocity": 0.18110236220472442,
          "duration": 0.1627906976743816
        },
        {
          "name": "G7",
          "midi": 103,
          "time": 233.32558139530852,
          "velocity": 0.16535433070866143,
          "duration": 0.18604651162786467
        },
        {
          "name": "D3",
          "midi": 50,
          "time": 233.348837209262,
          "velocity": 0.3228346456692913,
          "duration": 0.023255813953483084
        },
        {
          "name": "G#4",
          "midi": 68,
          "time": 233.36046511623874,
          "velocity": 0.08661417322834646,
          "duration": 0.06976744186044925
        },
        {
          "name": "D#6",
          "midi": 87,
          "time": 233.37209302321548,
          "velocity": 0.11023622047244094,
          "duration": 0.05813953488370771
        },
        {
          "name": "E2",
          "midi": 40,
          "time": 233.38372093019223,
          "velocity": 0.3779527559055118,
          "duration": 0.023255813953483084
        },
        {
          "name": "D7",
          "midi": 98,
          "time": 233.38372093019223,
          "velocity": 0.14173228346456693,
          "duration": 0.05813953488370771
        },
        {
          "name": "A#2",
          "midi": 46,
          "time": 233.4069767441457,
          "velocity": 0.4015748031496063,
          "duration": 0.023255813953483084
        },
        {
          "name": "F#2",
          "midi": 42,
          "time": 233.4302325580992,
          "velocity": 0.5354330708661418,
          "duration": 0.034883720930224626
        },
        {
          "name": "F#5",
          "midi": 78,
          "time": 233.44186046507593,
          "velocity": 0.3779527559055118,
          "duration": 0.06976744186044925
        },
        {
          "name": "G6",
          "midi": 91,
          "time": 233.44186046507593,
          "velocity": 0.08661417322834646,
          "duration": 0.06976744186044925
        },
        {
          "name": "F7",
          "midi": 101,
          "time": 233.44186046507593,
          "velocity": 0.13385826771653545,
          "duration": 0.034883720930224626
        },
        {
          "name": "G4",
          "midi": 67,
          "time": 233.45348837205268,
          "velocity": 0.4094488188976378,
          "duration": 0.2209302325580893
        },
        {
          "name": "E3",
          "midi": 52,
          "time": 233.46511627902942,
          "velocity": 0.4251968503937008,
          "duration": 0.023255813953483084
        },
        {
          "name": "D#7",
          "midi": 99,
          "time": 233.46511627902942,
          "velocity": 0.11811023622047244,
          "duration": 0.06976744186044925
        },
        {
          "name": "B3",
          "midi": 59,
          "time": 233.47674418600616,
          "velocity": 0.4015748031496063,
          "duration": 0.1395348837208985
        },
        {
          "name": "E3",
          "midi": 52,
          "time": 233.49999999995964,
          "velocity": 0.4881889763779528,
          "duration": 0.05813953488370771
        },
        {
          "name": "F#7",
          "midi": 102,
          "time": 233.5465116278666,
          "velocity": 0.07086614173228346,
          "duration": 0.05813953488370771
        },
        {
          "name": "G7",
          "midi": 103,
          "time": 233.5697674418201,
          "velocity": 0.15748031496062992,
          "duration": 0.11627906976741542
        },
        {
          "name": "D#2",
          "midi": 39,
          "time": 233.58139534879683,
          "velocity": 0.28346456692913385,
          "duration": 0.023255813953483084
        },
        {
          "name": "B2",
          "midi": 47,
          "time": 233.60465116275032,
          "velocity": 0.3228346456692913,
          "duration": 0.04651162790696617
        },
        {
          "name": "E2",
          "midi": 40,
          "time": 233.6279069767038,
          "velocity": 0.33070866141732286,
          "duration": 0.023255813953483084
        },
        {
          "name": "B3",
          "midi": 59,
          "time": 233.6279069767038,
          "velocity": 0.3779527559055118,
          "duration": 0.023255813953483084
        },
        {
          "name": "F#5",
          "midi": 78,
          "time": 233.6279069767038,
          "velocity": 0.31496062992125984,
          "duration": 0.04651162790696617
        },
        {
          "name": "G#6",
          "midi": 92,
          "time": 233.6279069767038,
          "velocity": 0.09448818897637795,
          "duration": 0.06976744186044925
        },
        {
          "name": "D#7",
          "midi": 99,
          "time": 233.6279069767038,
          "velocity": 0.14960629921259844,
          "duration": 0.1395348837208985
        },
        {
          "name": "F4",
          "midi": 65,
          "time": 233.63953488368054,
          "velocity": 0.4015748031496063,
          "duration": 0.023255813953483084
        },
        {
          "name": "C#5",
          "midi": 73,
          "time": 233.63953488368054,
          "velocity": 0.36220472440944884,
          "duration": 0.04651162790696617
        },
        {
          "name": "F7",
          "midi": 101,
          "time": 233.63953488368054,
          "velocity": 0.11023622047244094,
          "duration": 0.04651162790696617
        },
        {
          "name": "C3",
          "midi": 48,
          "time": 233.65116279065728,
          "velocity": 0.5433070866141733,
          "duration": 0.023255813953483084
        },
        {
          "name": "A#3",
          "midi": 58,
          "time": 233.65116279065728,
          "velocity": 0.4409448818897638,
          "duration": 0.023255813953483084
        },
        {
          "name": "G#5",
          "midi": 80,
          "time": 233.65116279065728,
          "velocity": 0.1968503937007874,
          "duration": 0.2209302325580893
        },
        {
          "name": "C#7",
          "midi": 97,
          "time": 233.65116279065728,
          "velocity": 0.2047244094488189,
          "duration": 0.05813953488370771
        },
        {
          "name": "D7",
          "midi": 98,
          "time": 233.65116279065728,
          "velocity": 0.18110236220472442,
          "duration": 0.09302325581393234
        },
        {
          "name": "E4",
          "midi": 64,
          "time": 233.66279069763402,
          "velocity": 0.3543307086614173,
          "duration": 0.34883720930224626
        },
        {
          "name": "D6",
          "midi": 86,
          "time": 233.66279069763402,
          "velocity": 0.07874015748031496,
          "duration": 0.04651162790696617
        },
        {
          "name": "B3",
          "midi": 59,
          "time": 233.67441860461076,
          "velocity": 0.4330708661417323,
          "duration": 0.04651162790696617
        },
        {
          "name": "C6",
          "midi": 84,
          "time": 233.67441860461076,
          "velocity": 0.12598425196850394,
          "duration": 0.04651162790696617
        },
        {
          "name": "E3",
          "midi": 52,
          "time": 233.6860465115875,
          "velocity": 0.5511811023622047,
          "duration": 0.12790697674415696
        },
        {
          "name": "D5",
          "midi": 74,
          "time": 233.6860465115875,
          "velocity": 0.16535433070866143,
          "duration": 0.05813953488370771
        },
        {
          "name": "B5",
          "midi": 83,
          "time": 233.6860465115875,
          "velocity": 0.1889763779527559,
          "duration": 0.05813953488370771
        },
        {
          "name": "F2",
          "midi": 41,
          "time": 233.69767441856425,
          "velocity": 0.5039370078740157,
          "duration": 0.034883720930224626
        },
        {
          "name": "A5",
          "midi": 81,
          "time": 233.69767441856425,
          "velocity": 0.10236220472440945,
          "duration": 0.05813953488370771
        },
        {
          "name": "B3",
          "midi": 59,
          "time": 233.73255813949447,
          "velocity": 0.4094488188976378,
          "duration": 0.034883720930224626
        },
        {
          "name": "C3",
          "midi": 48,
          "time": 233.75581395344796,
          "velocity": 0.5118110236220472,
          "duration": 0.011627906976741542
        },
        {
          "name": "B2",
          "midi": 47,
          "time": 233.7674418604247,
          "velocity": 0.5275590551181102,
          "duration": 0.011627906976741542
        },
        {
          "name": "F#5",
          "midi": 78,
          "time": 233.7674418604247,
          "velocity": 0.3700787401574803,
          "duration": 0.1395348837208985
        },
        {
          "name": "C3",
          "midi": 48,
          "time": 233.80232558135492,
          "velocity": 0.5196850393700787,
          "duration": 0.023255813953483084
        },
        {
          "name": "G4",
          "midi": 67,
          "time": 233.80232558135492,
          "velocity": 0.15748031496062992,
          "duration": 0.05813953488370771
        },
        {
          "name": "D#7",
          "midi": 99,
          "time": 233.80232558135492,
          "velocity": 0.11023622047244094,
          "duration": 0.05813953488370771
        },
        {
          "name": "F3",
          "midi": 53,
          "time": 233.81395348833166,
          "velocity": 0.5118110236220472,
          "duration": 0.011627906976741542
        },
        {
          "name": "B2",
          "midi": 47,
          "time": 233.8255813953084,
          "velocity": 0.5590551181102362,
          "duration": 0.034883720930224626
        },
        {
          "name": "E2",
          "midi": 40,
          "time": 233.8488372092619,
          "velocity": 0.5196850393700787,
          "duration": 0.011627906976741542
        },
        {
          "name": "A2",
          "midi": 45,
          "time": 233.86046511623863,
          "velocity": 0.5669291338582677,
          "duration": 0.011627906976741542
        },
        {
          "name": "D7",
          "midi": 98,
          "time": 233.86046511623863,
          "velocity": 0.13385826771653545,
          "duration": 0.04651162790696617
        },
        {
          "name": "G7",
          "midi": 103,
          "time": 233.86046511623863,
          "velocity": 0.09448818897637795,
          "duration": 0.034883720930224626
        },
        {
          "name": "F2",
          "midi": 41,
          "time": 233.87209302321537,
          "velocity": 0.5433070866141733,
          "duration": 0.011627906976741542
        },
        {
          "name": "B2",
          "midi": 47,
          "time": 233.87209302321537,
          "velocity": 0.5669291338582677,
          "duration": 0.05813953488370771
        },
        {
          "name": "G4",
          "midi": 67,
          "time": 233.87209302321537,
          "velocity": 0.3700787401574803,
          "duration": 0.31395348837202164
        },
        {
          "name": "C#7",
          "midi": 97,
          "time": 233.87209302321537,
          "velocity": 0.16535433070866143,
          "duration": 0.10465116279067388
        },
        {
          "name": "G#5",
          "midi": 80,
          "time": 233.8837209301921,
          "velocity": 0.1889763779527559,
          "duration": 0.04651162790696617
        },
        {
          "name": "F2",
          "midi": 41,
          "time": 233.89534883716885,
          "velocity": 0.5275590551181102,
          "duration": 0.011627906976741542
        },
        {
          "name": "E2",
          "midi": 40,
          "time": 233.9069767441456,
          "velocity": 0.5118110236220472,
          "duration": 0.023255813953483084
        },
        {
          "name": "C3",
          "midi": 48,
          "time": 233.93023255809908,
          "velocity": 0.5748031496062992,
          "duration": 0.011627906976741542
        },
        {
          "name": "D7",
          "midi": 98,
          "time": 233.93023255809908,
          "velocity": 0.16535433070866143,
          "duration": 0.05813953488370771
        },
        {
          "name": "D#7",
          "midi": 99,
          "time": 233.93023255809908,
          "velocity": 0.07874015748031496,
          "duration": 0.034883720930224626
        },
        {
          "name": "F2",
          "midi": 41,
          "time": 233.94186046507582,
          "velocity": 0.5748031496062992,
          "duration": 0.011627906976741542
        },
        {
          "name": "E2",
          "midi": 40,
          "time": 233.95348837205256,
          "velocity": 0.5590551181102362,
          "duration": 0.023255813953483084
        },
        {
          "name": "F#5",
          "midi": 78,
          "time": 233.9651162790293,
          "velocity": 0.33858267716535434,
          "duration": 0.0813953488371908
        },
        {
          "name": "G#6",
          "midi": 92,
          "time": 233.9651162790293,
          "velocity": 0.18110236220472442,
          "duration": 0.09302325581393234
        },
        {
          "name": "F2",
          "midi": 41,
          "time": 233.97674418600604,
          "velocity": 0.5433070866141733,
          "duration": 0.011627906976741542
        },
        {
          "name": "C7",
          "midi": 96,
          "time": 233.97674418600604,
          "velocity": 0.11811023622047244,
          "duration": 0.04651162790696617
        },
        {
          "name": "E2",
          "midi": 40,
          "time": 233.9883720929828,
          "velocity": 0.5354330708661418,
          "duration": 0.011627906976741542
        },
        {
          "name": "D#7",
          "midi": 99,
          "time": 233.9883720929828,
          "velocity": 0.07874015748031496,
          "duration": 0.034883720930224626
        },
        {
          "name": "F2",
          "midi": 41,
          "time": 233.99999999995953,
          "velocity": 0.5354330708661418,
          "duration": 0.023255813953483084
        },
        {
          "name": "C#7",
          "midi": 97,
          "time": 233.99999999995953,
          "velocity": 0.2204724409448819,
          "duration": 0.17441860465112313
        },
        {
          "name": "G7",
          "midi": 103,
          "time": 233.99999999995953,
          "velocity": 0.12598425196850394,
          "duration": 0.034883720930224626
        },
        {
          "name": "E2",
          "midi": 40,
          "time": 234.023255813913,
          "velocity": 0.44881889763779526,
          "duration": 0.04651162790696617
        },
        {
          "name": "F3",
          "midi": 53,
          "time": 234.023255813913,
          "velocity": 0.25984251968503935,
          "duration": 0.034883720930224626
        },
        {
          "name": "F#7",
          "midi": 102,
          "time": 234.023255813913,
          "velocity": 0.10236220472440945,
          "duration": 0.0813953488371908
        },
        {
          "name": "D#6",
          "midi": 87,
          "time": 234.03488372088975,
          "velocity": 0.13385826771653545,
          "duration": 0.04651162790696617
        },
        {
          "name": "G7",
          "midi": 103,
          "time": 234.05813953484324,
          "velocity": 0.16535433070866143,
          "duration": 0.05813953488370771
        },
        {
          "name": "D5",
          "midi": 74,
          "time": 234.06976744181998,
          "velocity": 0.14960629921259844,
          "duration": 0.05813953488370771
        },
        {
          "name": "A5",
          "midi": 81,
          "time": 234.06976744181998,
          "velocity": 0.25984251968503935,
          "duration": 0.3604651162789878
        },
        {
          "name": "E4",
          "midi": 64,
          "time": 234.08139534879672,
          "velocity": 0.2992125984251969,
          "duration": 0.24418604651157239
        },
        {
          "name": "C7",
          "midi": 96,
          "time": 234.08139534879672,
          "velocity": 0.11023622047244094,
          "duration": 0.04651162790696617
        },
        {
          "name": "D7",
          "midi": 98,
          "time": 234.08139534879672,
          "velocity": 0.33070866141732286,
          "duration": 0.5116279069766279
        },
        {
          "name": "G#2",
          "midi": 44,
          "time": 234.09302325577346,
          "velocity": 0.4251968503937008,
          "duration": 0.023255813953483084
        },
        {
          "name": "B6",
          "midi": 95,
          "time": 234.09302325577346,
          "velocity": 0.1732283464566929,
          "duration": 0.3255813953487632
        },
        {
          "name": "D#7",
          "midi": 99,
          "time": 234.09302325577346,
          "velocity": 0.28346456692913385,
          "duration": 0.31395348837202164
        },
        {
          "name": "D3",
          "midi": 50,
          "time": 234.1046511627502,
          "velocity": 0.4094488188976378,
          "duration": 0.023255813953483084
        },
        {
          "name": "F7",
          "midi": 101,
          "time": 234.1046511627502,
          "velocity": 0.23622047244094488,
          "duration": 0.279069767441797
        },
        {
          "name": "F#5",
          "midi": 78,
          "time": 234.11627906972694,
          "velocity": 0.1732283464566929,
          "duration": 0.09302325581393234
        },
        {
          "name": "C3",
          "midi": 48,
          "time": 234.12790697670368,
          "velocity": 0.33858267716535434,
          "duration": 0.023255813953483084
        },
        {
          "name": "B3",
          "midi": 59,
          "time": 234.12790697670368,
          "velocity": 0.18110236220472442,
          "duration": 0.05813953488370771
        },
        {
          "name": "G#5",
          "midi": 80,
          "time": 234.13953488368043,
          "velocity": 0.11811023622047244,
          "duration": 0.06976744186044925
        },
        {
          "name": "G#6",
          "midi": 92,
          "time": 234.15116279065717,
          "velocity": 0.16535433070866143,
          "duration": 0.12790697674415696
        },
        {
          "name": "F#7",
          "midi": 102,
          "time": 234.15116279065717,
          "velocity": 0.25196850393700787,
          "duration": 0.12790697674415696
        },
        {
          "name": "G7",
          "midi": 103,
          "time": 234.15116279065717,
          "velocity": 0.18110236220472442,
          "duration": 0.10465116279067388
        },
        {
          "name": "D5",
          "midi": 74,
          "time": 234.1627906976339,
          "velocity": 0.2125984251968504,
          "duration": 0.0813953488371908
        },
        {
          "name": "F2",
          "midi": 41,
          "time": 234.1860465115874,
          "velocity": 0.33070866141732286,
          "duration": 0.023255813953483084
        },
        {
          "name": "G#4",
          "midi": 68,
          "time": 234.1860465115874,
          "velocity": 0.2047244094488189,
          "duration": 0.0813953488371908
        },
        {
          "name": "C#7",
          "midi": 97,
          "time": 234.1860465115874,
          "velocity": 0.29133858267716534,
          "duration": 0.43023255813943706
        },
        {
          "name": "E3",
          "midi": 52,
          "time": 234.19767441856413,
          "velocity": 0.3779527559055118,
          "duration": 0.12790697674415696
        },
        {
          "name": "D#2",
          "midi": 39,
          "time": 234.22093023251762,
          "velocity": 0.23622047244094488,
          "duration": 0.023255813953483084
        },
        {
          "name": "D#6",
          "midi": 87,
          "time": 234.22093023251762,
          "velocity": 0.07874015748031496,
          "duration": 0.04651162790696617
        },
        {
          "name": "F2",
          "midi": 41,
          "time": 234.2441860464711,
          "velocity": 0.2440944881889764,
          "duration": 0.034883720930224626
        },
        {
          "name": "F#5",
          "midi": 78,
          "time": 234.2441860464711,
          "velocity": 0.2677165354330709,
          "duration": 0.12790697674415696
        },
        {
          "name": "G7",
          "midi": 103,
          "time": 234.27906976740132,
          "velocity": 0.2440944881889764,
          "duration": 0.48837209302314477
        },
        {
          "name": "F#7",
          "midi": 102,
          "time": 234.29069767437807,
          "velocity": 0.23622047244094488,
          "duration": 0.18604651162786467
        },
        {
          "name": "G4",
          "midi": 67,
          "time": 234.3023255813548,
          "velocity": 0.41732283464566927,
          "duration": 0.406976744185954
        },
        {
          "name": "G#6",
          "midi": 92,
          "time": 234.3023255813548,
          "velocity": 0.09448818897637795,
          "duration": 0.04651162790696617
        },
        {
          "name": "F2",
          "midi": 41,
          "time": 234.31395348833155,
          "velocity": 0.44881889763779526,
          "duration": 0.034883720930224626
        },
        {
          "name": "D#6",
          "midi": 87,
          "time": 234.3255813953083,
          "velocity": 0.11023622047244094,
          "duration": 0.10465116279067388
        },
        {
          "name": "E3",
          "midi": 52,
          "time": 234.33720930228503,
          "velocity": 0.3779527559055118,
          "duration": 0.04651162790696617
        },
        {
          "name": "B3",
          "midi": 59,
          "time": 234.33720930228503,
          "velocity": 0.3543307086614173,
          "duration": 0.1627906976743816
        },
        {
          "name": "C7",
          "midi": 96,
          "time": 234.36046511623852,
          "velocity": 0.11811023622047244,
          "duration": 0.034883720930224626
        },
        {
          "name": "E2",
          "midi": 40,
          "time": 234.37209302321526,
          "velocity": 0.4881889763779528,
          "duration": 0.06976744186044925
        },
        {
          "name": "D#3",
          "midi": 51,
          "time": 234.383720930192,
          "velocity": 0.30708661417322836,
          "duration": 0.023255813953483084
        },
        {
          "name": "G#6",
          "midi": 92,
          "time": 234.39534883716874,
          "velocity": 0.12598425196850394,
          "duration": 0.09302325581393234
        },
        {
          "name": "D#7",
          "midi": 99,
          "time": 234.41860465112222,
          "velocity": 0.11811023622047244,
          "duration": 0.15116279069764005
        },
        {
          "name": "F7",
          "midi": 101,
          "time": 234.43023255809896,
          "velocity": 0.13385826771653545,
          "duration": 0.11627906976741542
        },
        {
          "name": "F2",
          "midi": 41,
          "time": 234.4418604650757,
          "velocity": 0.4015748031496063,
          "duration": 0.023255813953483084
        },
        {
          "name": "F#5",
          "midi": 78,
          "time": 234.4418604650757,
          "velocity": 0.2125984251968504,
          "duration": 0.0813953488371908
        },
        {
          "name": "G#5",
          "midi": 80,
          "time": 234.4418604650757,
          "velocity": 0.15748031496062992,
          "duration": 0.09302325581393234
        },
        {
          "name": "D#6",
          "midi": 87,
          "time": 234.4418604650757,
          "velocity": 0.11811023622047244,
          "duration": 0.1395348837208985
        },
        {
          "name": "A#6",
          "midi": 94,
          "time": 234.4418604650757,
          "velocity": 0.10236220472440945,
          "duration": 0.09302325581393234
        },
        {
          "name": "D#3",
          "midi": 51,
          "time": 234.4651162790292,
          "velocity": 0.3937007874015748,
          "duration": 0.023255813953483084
        },
        {
          "name": "E4",
          "midi": 64,
          "time": 234.48837209298267,
          "velocity": 0.2440944881889764,
          "duration": 0.023255813953483084
        },
        {
          "name": "D#2",
          "midi": 39,
          "time": 234.4999999999594,
          "velocity": 0.5118110236220472,
          "duration": 0.011627906976741542
        },
        {
          "name": "G#2",
          "midi": 44,
          "time": 234.51162790693616,
          "velocity": 0.5826771653543307,
          "duration": 0.011627906976741542
        },
        {
          "name": "B3",
          "midi": 59,
          "time": 234.51162790693616,
          "velocity": 0.3700787401574803,
          "duration": 0.06976744186044925
        },
        {
          "name": "D#4",
          "midi": 63,
          "time": 234.51162790693616,
          "velocity": 0.3937007874015748,
          "duration": 0.023255813953483084
        },
        {
          "name": "B4",
          "midi": 71,
          "time": 234.51162790693616,
          "velocity": 0.3779527559055118,
          "duration": 0.17441860465112313
        },
        {
          "name": "G2",
          "midi": 43,
          "time": 234.5232558139129,
          "velocity": 0.5669291338582677,
          "duration": 0.011627906976741542
        },
        {
          "name": "F2",
          "midi": 41,
          "time": 234.53488372088964,
          "velocity": 0.5511811023622047,
          "duration": 0.011627906976741542
        },
        {
          "name": "E4",
          "midi": 64,
          "time": 234.53488372088964,
          "velocity": 0.4251968503937008,
          "duration": 0.39534883720921243
        },
        {
          "name": "E2",
          "midi": 40,
          "time": 234.54651162786638,
          "velocity": 0.5354330708661418,
          "duration": 0.034883720930224626
        },
        {
          "name": "F#5",
          "midi": 78,
          "time": 234.55813953484312,
          "velocity": 0.15748031496062992,
          "duration": 0.034883720930224626
        },
        {
          "name": "C7",
          "midi": 96,
          "time": 234.55813953484312,
          "velocity": 0.11811023622047244,
          "duration": 0.04651162790696617
        },
        {
          "name": "F2",
          "midi": 41,
          "time": 234.5813953487966,
          "velocity": 0.4645669291338583,
          "duration": 0.023255813953483084
        },
        {
          "name": "F3",
          "midi": 53,
          "time": 234.59302325577335,
          "velocity": 0.5118110236220472,
          "duration": 0.023255813953483084
        },
        {
          "name": "B3",
          "midi": 59,
          "time": 234.59302325577335,
          "velocity": 0.3858267716535433,
          "duration": 0.023255813953483084
        },
        {
          "name": "B6",
          "midi": 95,
          "time": 234.59302325577335,
          "velocity": 0.07874015748031496,
          "duration": 0.04651162790696617
        },
        {
          "name": "F#5",
          "midi": 78,
          "time": 234.6046511627501,
          "velocity": 0.2047244094488189,
          "duration": 0.1395348837208985
        },
        {
          "name": "A6",
          "midi": 93,
          "time": 234.6046511627501,
          "velocity": 0.10236220472440945,
          "duration": 0.11627906976741542
        },
        {
          "name": "E3",
          "midi": 52,
          "time": 234.61627906972683,
          "velocity": 0.5039370078740157,
          "duration": 0.023255813953483084
        },
        {
          "name": "D5",
          "midi": 74,
          "time": 234.62790697670357,
          "velocity": 0.10236220472440945,
          "duration": 0.034883720930224626
        },
        {
          "name": "D2",
          "midi": 38,
          "time": 234.6395348836803,
          "velocity": 0.28346456692913385,
          "duration": 0.023255813953483084
        },
        {
          "name": "C#7",
          "midi": 97,
          "time": 234.6395348836803,
          "velocity": 0.09448818897637795,
          "duration": 0.034883720930224626
        },
        {
          "name": "E2",
          "midi": 40,
          "time": 234.6627906976338,
          "velocity": 0.25984251968503935,
          "duration": 0.034883720930224626
        },
        {
          "name": "B3",
          "midi": 59,
          "time": 234.6627906976338,
          "velocity": 0.25984251968503935,
          "duration": 0.04651162790696617
        },
        {
          "name": "E3",
          "midi": 52,
          "time": 234.67441860461054,
          "velocity": 0.2755905511811024,
          "duration": 0.034883720930224626
        },
        {
          "name": "F#7",
          "midi": 102,
          "time": 234.67441860461054,
          "velocity": 0.07874015748031496,
          "duration": 0.09302325581393234
        },
        {
          "name": "B4",
          "midi": 71,
          "time": 234.69767441856402,
          "velocity": 0.33858267716535434,
          "duration": 0.4418604651161786
        },
        {
          "name": "B6",
          "midi": 95,
          "time": 234.70930232554076,
          "velocity": 0.10236220472440945,
          "duration": 0.09302325581393234
        },
        {
          "name": "C#2",
          "midi": 37,
          "time": 234.7209302325175,
          "velocity": 0.5275590551181102,
          "duration": 0.011627906976741542
        },
        {
          "name": "G4",
          "midi": 67,
          "time": 234.7209302325175,
          "velocity": 0.3543307086614173,
          "duration": 0.2209302325580893
        },
        {
          "name": "C#7",
          "midi": 97,
          "time": 234.7209302325175,
          "velocity": 0.16535433070866143,
          "duration": 0.09302325581393234
        },
        {
          "name": "A#3",
          "midi": 58,
          "time": 234.73255813949424,
          "velocity": 0.29133858267716534,
          "duration": 0.034883720930224626
        },
        {
          "name": "D7",
          "midi": 98,
          "time": 234.75581395344773,
          "velocity": 0.11811023622047244,
          "duration": 0.034883720930224626
        },
        {
          "name": "B3",
          "midi": 59,
          "time": 234.76744186042447,
          "velocity": 0.30708661417322836,
          "duration": 0.034883720930224626
        },
        {
          "name": "F#5",
          "midi": 78,
          "time": 234.76744186042447,
          "velocity": 0.3543307086614173,
          "duration": 0.05813953488370771
        },
        {
          "name": "D#7",
          "midi": 99,
          "time": 234.76744186042447,
          "velocity": 0.11811023622047244,
          "duration": 0.04651162790696617
        },
        {
          "name": "E3",
          "midi": 52,
          "time": 234.79069767437795,
          "velocity": 0.5511811023622047,
          "duration": 0.04651162790696617
        },
        {
          "name": "D#5",
          "midi": 75,
          "time": 234.81395348833144,
          "velocity": 0.3228346456692913,
          "duration": 0.023255813953483084
        },
        {
          "name": "B3",
          "midi": 59,
          "time": 234.82558139530818,
          "velocity": 0.28346456692913385,
          "duration": 0.09302325581393234
        },
        {
          "name": "E6",
          "midi": 88,
          "time": 234.82558139530818,
          "velocity": 0.18110236220472442,
          "duration": 0.0813953488371908
        },
        {
          "name": "B6",
          "midi": 95,
          "time": 234.82558139530818,
          "velocity": 0.1889763779527559,
          "duration": 0.1627906976743816
        },
        {
          "name": "D#3",
          "midi": 51,
          "time": 234.83720930228492,
          "velocity": 0.5354330708661418,
          "duration": 0.011627906976741542
        },
        {
          "name": "E3",
          "midi": 52,
          "time": 234.84883720926166,
          "velocity": 0.5275590551181102,
          "duration": 0.011627906976741542
        },
        {
          "name": "E2",
          "midi": 40,
          "time": 234.8604651162384,
          "velocity": 0.44881889763779526,
          "duration": 0.034883720930224626
        },
        {
          "name": "F3",
          "midi": 53,
          "time": 234.8604651162384,
          "velocity": 0.5275590551181102,
          "duration": 0.011627906976741542
        },
        {
          "name": "D#6",
          "midi": 87,
          "time": 234.8604651162384,
          "velocity": 0.10236220472440945,
          "duration": 0.04651162790696617
        },
        {
          "name": "E3",
          "midi": 52,
          "time": 234.87209302321514,
          "velocity": 0.5039370078740157,
          "duration": 0.05813953488370771
        },
        {
          "name": "F#5",
          "midi": 78,
          "time": 234.89534883716863,
          "velocity": 0.28346456692913385,
          "duration": 0.11627906976741542
        },
        {
          "name": "G#5",
          "midi": 80,
          "time": 234.89534883716863,
          "velocity": 0.13385826771653545,
          "duration": 0.04651162790696617
        },
        {
          "name": "E2",
          "midi": 40,
          "time": 234.90697674414537,
          "velocity": 0.5433070866141733,
          "duration": 0.011627906976741542
        },
        {
          "name": "F2",
          "midi": 41,
          "time": 234.9186046511221,
          "velocity": 0.5511811023622047,
          "duration": 0.023255813953483084
        },
        {
          "name": "A5",
          "midi": 81,
          "time": 234.93023255809885,
          "velocity": 0.25196850393700787,
          "duration": 0.2558139534883139
        },
        {
          "name": "E4",
          "midi": 64,
          "time": 234.9418604650756,
          "velocity": 0.28346456692913385,
          "duration": 0.034883720930224626
        },
        {
          "name": "D7",
          "midi": 98,
          "time": 234.9418604650756,
          "velocity": 0.2125984251968504,
          "duration": 0.034883720930224626
        },
        {
          "name": "F2",
          "midi": 41,
          "time": 234.95348837205233,
          "velocity": 0.5196850393700787,
          "duration": 0.011627906976741542
        },
        {
          "name": "C#7",
          "midi": 97,
          "time": 234.95348837205233,
          "velocity": 0.2677165354330709,
          "duration": 0.279069767441797
        },
        {
          "name": "D#7",
          "midi": 99,
          "time": 234.95348837205233,
          "velocity": 0.11811023622047244,
          "duration": 0.2558139534883139
        },
        {
          "name": "E2",
          "midi": 40,
          "time": 234.96511627902908,
          "velocity": 0.5275590551181102,
          "duration": 0.023255813953483084
        },
        {
          "name": "G3",
          "midi": 55,
          "time": 234.96511627902908,
          "velocity": 0.3228346456692913,
          "duration": 0.023255813953483084
        },
        {
          "name": "G#6",
          "midi": 92,
          "time": 234.96511627902908,
          "velocity": 0.15748031496062992,
          "duration": 0.034883720930224626
        },
        {
          "name": "G7",
          "midi": 103,
          "time": 234.96511627902908,
          "velocity": 0.15748031496062992,
          "duration": 0.05813953488370771
        },
        {
          "name": "B3",
          "midi": 59,
          "time": 234.97674418600582,
          "velocity": 0.33070866141732286,
          "duration": 0.1627906976743816
        },
        {
          "name": "D6",
          "midi": 86,
          "time": 234.98837209298256,
          "velocity": 0.09448818897637795,
          "duration": 0.034883720930224626
        },
        {
          "name": "D#6",
          "midi": 87,
          "time": 234.98837209298256,
          "velocity": 0.1732283464566929,
          "duration": 0.1395348837208985
        },
        {
          "name": "A#6",
          "midi": 94,
          "time": 234.98837209298256,
          "velocity": 0.12598425196850394,
          "duration": 0.05813953488370771
        },
        {
          "name": "F#7",
          "midi": 102,
          "time": 234.98837209298256,
          "velocity": 0.13385826771653545,
          "duration": 0.0813953488371908
        },
        {
          "name": "E4",
          "midi": 64,
          "time": 234.9999999999593,
          "velocity": 0.1968503937007874,
          "duration": 0.06976744186044925
        },
        {
          "name": "D#5",
          "midi": 75,
          "time": 234.9999999999593,
          "velocity": 0.31496062992125984,
          "duration": 0.05813953488370771
        },
        {
          "name": "C7",
          "midi": 96,
          "time": 234.9999999999593,
          "velocity": 0.12598425196850394,
          "duration": 0.04651162790696617
        },
        {
          "name": "D7",
          "midi": 98,
          "time": 234.9999999999593,
          "velocity": 0.16535433070866143,
          "duration": 0.24418604651157239
        },
        {
          "name": "F7",
          "midi": 101,
          "time": 234.9999999999593,
          "velocity": 0.09448818897637795,
          "duration": 0.034883720930224626
        },
        {
          "name": "D#2",
          "midi": 39,
          "time": 235.01162790693604,
          "velocity": 0.5196850393700787,
          "duration": 0.023255813953483084
        },
        {
          "name": "D5",
          "midi": 74,
          "time": 235.02325581391278,
          "velocity": 0.14173228346456693,
          "duration": 0.06976744186044925
        },
        {
          "name": "E2",
          "midi": 40,
          "time": 235.03488372088952,
          "velocity": 0.5118110236220472,
          "duration": 0.011627906976741542
        },
        {
          "name": "D#2",
          "midi": 39,
          "time": 235.04651162786627,
          "velocity": 0.5118110236220472,
          "duration": 0.011627906976741542
        },
        {
          "name": "F#5",
          "midi": 78,
          "time": 235.04651162786627,
          "velocity": 0.31496062992125984,
          "duration": 0.19767441860460622
        },
        {
          "name": "B6",
          "midi": 95,
          "time": 235.04651162786627,
          "velocity": 0.16535433070866143,
          "duration": 0.11627906976741542
        },
        {
          "name": "E2",
          "midi": 40,
          "time": 235.058139534843,
          "velocity": 0.4409448818897638,
          "duration": 0.023255813953483084
        },
        {
          "name": "E5",
          "midi": 76,
          "time": 235.058139534843,
          "velocity": 0.4015748031496063,
          "duration": 0.1627906976743816
        },
        {
          "name": "G7",
          "midi": 103,
          "time": 235.058139534843,
          "velocity": 0.10236220472440945,
          "duration": 0.04651162790696617
        },
        {
          "name": "F7",
          "midi": 101,
          "time": 235.06976744181975,
          "velocity": 0.12598425196850394,
          "duration": 0.05813953488370771
        },
        {
          "name": "F2",
          "midi": 41,
          "time": 235.0813953487965,
          "velocity": 0.4094488188976378,
          "duration": 0.034883720930224626
        },
        {
          "name": "E3",
          "midi": 52,
          "time": 235.09302325577323,
          "velocity": 0.3464566929133858,
          "duration": 0.023255813953483084
        },
        {
          "name": "F6",
          "midi": 89,
          "time": 235.09302325577323,
          "velocity": 0.14960629921259844,
          "duration": 0.04651162790696617
        },
        {
          "name": "G2",
          "midi": 43,
          "time": 235.11627906972672,
          "velocity": 0.4015748031496063,
          "duration": 0.023255813953483084
        },
        {
          "name": "G7",
          "midi": 103,
          "time": 235.11627906972672,
          "velocity": 0.12598425196850394,
          "duration": 0.05813953488370771
        },
        {
          "name": "E3",
          "midi": 52,
          "time": 235.12790697670346,
          "velocity": 0.3937007874015748,
          "duration": 0.023255813953483084
        },
        {
          "name": "E2",
          "midi": 40,
          "time": 235.1395348836802,
          "velocity": 0.5118110236220472,
          "duration": 0.023255813953483084
        },
        {
          "name": "A#4",
          "midi": 70,
          "time": 235.1395348836802,
          "velocity": 0.23622047244094488,
          "duration": 0.023255813953483084
        },
        {
          "name": "C5",
          "midi": 72,
          "time": 235.1395348836802,
          "velocity": 0.2283464566929134,
          "duration": 0.05813953488370771
        },
        {
          "name": "D#6",
          "midi": 87,
          "time": 235.1395348836802,
          "velocity": 0.13385826771653545,
          "duration": 0.034883720930224626
        },
        {
          "name": "G6",
          "midi": 91,
          "time": 235.15116279065694,
          "velocity": 0.15748031496062992,
          "duration": 0.0813953488371908
        },
        {
          "name": "G#2",
          "midi": 44,
          "time": 235.16279069763368,
          "velocity": 0.5826771653543307,
          "duration": 0.011627906976741542
        },
        {
          "name": "G4",
          "midi": 67,
          "time": 235.16279069763368,
          "velocity": 0.5196850393700787,
          "duration": 0.23255813953483084
        },
        {
          "name": "F#2",
          "midi": 42,
          "time": 235.17441860461042,
          "velocity": 0.5669291338582677,
          "duration": 0.011627906976741542
        },
        {
          "name": "F2",
          "midi": 41,
          "time": 235.18604651158716,
          "velocity": 0.5590551181102362,
          "duration": 0.023255813953483084
        },
        {
          "name": "B3",
          "midi": 59,
          "time": 235.1976744185639,
          "velocity": 0.3937007874015748,
          "duration": 0.12790697674415696
        },
        {
          "name": "D#6",
          "midi": 87,
          "time": 235.1976744185639,
          "velocity": 0.11811023622047244,
          "duration": 0.04651162790696617
        },
        {
          "name": "E2",
          "midi": 40,
          "time": 235.20930232554065,
          "velocity": 0.5433070866141733,
          "duration": 0.011627906976741542
        },
        {
          "name": "E4",
          "midi": 64,
          "time": 235.20930232554065,
          "velocity": 0.2755905511811024,
          "duration": 0.06976744186044925
        },
        {
          "name": "D#5",
          "midi": 75,
          "time": 235.20930232554065,
          "velocity": 0.3779527559055118,
          "duration": 0.0813953488371908
        },
        {
          "name": "D#2",
          "midi": 39,
          "time": 235.2209302325174,
          "velocity": 0.5433070866141733,
          "duration": 0.023255813953483084
        },
        {
          "name": "E3",
          "midi": 52,
          "time": 235.2209302325174,
          "velocity": 0.5118110236220472,
          "duration": 0.034883720930224626
        },
        {
          "name": "A5",
          "midi": 81,
          "time": 235.2209302325174,
          "velocity": 0.09448818897637795,
          "duration": 0.034883720930224626
        },
        {
          "name": "D#7",
          "midi": 99,
          "time": 235.24418604647087,
          "velocity": 0.4330708661417323,
          "duration": 0.10465116279067388
        },
        {
          "name": "D#3",
          "midi": 51,
          "time": 235.2558139534476,
          "velocity": 0.5196850393700787,
          "duration": 0.011627906976741542
        },
        {
          "name": "E6",
          "midi": 88,
          "time": 235.2558139534476,
          "velocity": 0.10236220472440945,
          "duration": 0.034883720930224626
        },
        {
          "name": "A#6",
          "midi": 94,
          "time": 235.2558139534476,
          "velocity": 0.10236220472440945,
          "duration": 0.034883720930224626
        },
        {
          "name": "E3",
          "midi": 52,
          "time": 235.26744186042436,
          "velocity": 0.4881889763779528,
          "duration": 0.023255813953483084
        },
        {
          "name": "E5",
          "midi": 76,
          "time": 235.29069767437784,
          "velocity": 0.41732283464566927,
          "duration": 0.12790697674415696
        },
        {
          "name": "F#5",
          "midi": 78,
          "time": 235.29069767437784,
          "velocity": 0.3937007874015748,
          "duration": 0.31395348837202164
        },
        {
          "name": "B2",
          "midi": 47,
          "time": 235.32558139530806,
          "velocity": 0.2283464566929134,
          "duration": 0.023255813953483084
        },
        {
          "name": "G#3",
          "midi": 56,
          "time": 235.3372093022848,
          "velocity": 0.25984251968503935,
          "duration": 0.023255813953483084
        },
        {
          "name": "D6",
          "midi": 86,
          "time": 235.34883720926155,
          "velocity": 0.12598425196850394,
          "duration": 0.05813953488370771
        },
        {
          "name": "D7",
          "midi": 98,
          "time": 235.34883720926155,
          "velocity": 0.4094488188976378,
          "duration": 0.0813953488371908
        },
        {
          "name": "E7",
          "midi": 100,
          "time": 235.34883720926155,
          "velocity": 0.23622047244094488,
          "duration": 0.19767441860460622
        },
        {
          "name": "G7",
          "midi": 103,
          "time": 235.34883720926155,
          "velocity": 0.10236220472440945,
          "duration": 0.034883720930224626
        },
        {
          "name": "A#4",
          "midi": 70,
          "time": 235.3604651162383,
          "velocity": 0.2677165354330709,
          "duration": 0.023255813953483084
        },
        {
          "name": "C5",
          "midi": 72,
          "time": 235.3604651162383,
          "velocity": 0.25984251968503935,
          "duration": 0.023255813953483084
        },
        {
          "name": "D5",
          "midi": 74,
          "time": 235.3604651162383,
          "velocity": 0.2755905511811024,
          "duration": 0.023255813953483084
        },
        {
          "name": "A#6",
          "midi": 94,
          "time": 235.3604651162383,
          "velocity": 0.07874015748031496,
          "duration": 0.034883720930224626
        },
        {
          "name": "C#7",
          "midi": 97,
          "time": 235.3604651162383,
          "velocity": 0.1968503937007874,
          "duration": 0.06976744186044925
        },
        {
          "name": "G#2",
          "midi": 44,
          "time": 235.37209302321503,
          "velocity": 0.5590551181102362,
          "duration": 0.011627906976741542
        },
        {
          "name": "E4",
          "midi": 64,
          "time": 235.37209302321503,
          "velocity": 0.4015748031496063,
          "duration": 0.023255813953483084
        },
        {
          "name": "D#7",
          "midi": 99,
          "time": 235.37209302321503,
          "velocity": 0.2125984251968504,
          "duration": 0.09302325581393234
        },
        {
          "name": "D3",
          "midi": 50,
          "time": 235.38372093019177,
          "velocity": 0.5275590551181102,
          "duration": 0.011627906976741542
        },
        {
          "name": "B4",
          "midi": 71,
          "time": 235.38372093019177,
          "velocity": 0.3543307086614173,
          "duration": 0.29069767441853855
        },
        {
          "name": "E3",
          "midi": 52,
          "time": 235.3953488371685,
          "velocity": 0.4409448818897638,
          "duration": 0.023255813953483084
        },
        {
          "name": "G#5",
          "midi": 80,
          "time": 235.3953488371685,
          "velocity": 0.14173228346456693,
          "duration": 0.04651162790696617
        },
        {
          "name": "F7",
          "midi": 101,
          "time": 235.3953488371685,
          "velocity": 0.07874015748031496,
          "duration": 0.05813953488370771
        },
        {
          "name": "G4",
          "midi": 67,
          "time": 235.40697674414525,
          "velocity": 0.25984251968503935,
          "duration": 0.04651162790696617
        },
        {
          "name": "D#5",
          "midi": 75,
          "time": 235.40697674414525,
          "velocity": 0.3464566929133858,
          "duration": 0.04651162790696617
        },
        {
          "name": "F2",
          "midi": 41,
          "time": 235.418604651122,
          "velocity": 0.47244094488188976,
          "duration": 0.034883720930224626
        },
        {
          "name": "C7",
          "midi": 96,
          "time": 235.418604651122,
          "velocity": 0.08661417322834646,
          "duration": 0.034883720930224626
        },
        {
          "name": "E3",
          "midi": 52,
          "time": 235.43023255809874,
          "velocity": 0.5433070866141733,
          "duration": 0.05813953488370771
        },
        {
          "name": "C4",
          "midi": 60,
          "time": 235.43023255809874,
          "velocity": 0.3937007874015748,
          "duration": 0.023255813953483084
        },
        {
          "name": "G7",
          "midi": 103,
          "time": 235.43023255809874,
          "velocity": 0.16535433070866143,
          "duration": 0.06976744186044925
        },
        {
          "name": "C#6",
          "midi": 85,
          "time": 235.44186046507548,
          "velocity": 0.07086614173228346,
          "duration": 0.05813953488370771
        },
        {
          "name": "E6",
          "midi": 88,
          "time": 235.44186046507548,
          "velocity": 0.16535433070866143,
          "duration": 0.12790697674415696
        },
        {
          "name": "E2",
          "midi": 40,
          "time": 235.45348837205222,
          "velocity": 0.4566929133858268,
          "duration": 0.034883720930224626
        },
        {
          "name": "B3",
          "midi": 59,
          "time": 235.45348837205222,
          "velocity": 0.3700787401574803,
          "duration": 0.034883720930224626
        },
        {
          "name": "G#4",
          "midi": 68,
          "time": 235.46511627902896,
          "velocity": 0.2440944881889764,
          "duration": 0.05813953488370771
        },
        {
          "name": "B2",
          "midi": 47,
          "time": 235.4767441860057,
          "velocity": 0.5118110236220472,
          "duration": 0.011627906976741542
        },
        {
          "name": "F3",
          "midi": 53,
          "time": 235.48837209298244,
          "velocity": 0.5354330708661418,
          "duration": 0.011627906976741542
        },
        {
          "name": "E3",
          "midi": 52,
          "time": 235.4999999999592,
          "velocity": 0.5511811023622047,
          "duration": 0.023255813953483084
        },
        {
          "name": "D#5",
          "midi": 75,
          "time": 235.51162790693593,
          "velocity": 0.31496062992125984,
          "duration": 0.023255813953483084
        },
        {
          "name": "A#6",
          "midi": 94,
          "time": 235.51162790693593,
          "velocity": 0.10236220472440945,
          "duration": 0.06976744186044925
        },
        {
          "name": "C3",
          "midi": 48,
          "time": 235.52325581391267,
          "velocity": 0.5590551181102362,
          "duration": 0.034883720930224626
        },
        {
          "name": "F3",
          "midi": 53,
          "time": 235.52325581391267,
          "velocity": 0.5275590551181102,
          "duration": 0.011627906976741542
        },
        {
          "name": "B3",
          "midi": 59,
          "time": 235.52325581391267,
          "velocity": 0.30708661417322836,
          "duration": 0.04651162790696617
        },
        {
          "name": "G#4",
          "midi": 68,
          "time": 235.5348837208894,
          "velocity": 0.23622047244094488,
          "duration": 0.034883720930224626
        },
        {
          "name": "D#7",
          "midi": 99,
          "time": 235.54651162786615,
          "velocity": 0.13385826771653545,
          "duration": 0.1395348837208985
        },
        {
          "name": "B2",
          "midi": 47,
          "time": 235.5581395348429,
          "velocity": 0.5590551181102362,
          "duration": 0.06976744186044925
        },
        {
          "name": "D#5",
          "midi": 75,
          "time": 235.5581395348429,
          "velocity": 0.33070866141732286,
          "duration": 0.034883720930224626
        },
        {
          "name": "F#4",
          "midi": 66,
          "time": 235.56976744181964,
          "velocity": 0.33070866141732286,
          "duration": 0.023255813953483084
        },
        {
          "name": "D7",
          "midi": 98,
          "time": 235.56976744181964,
          "velocity": 0.2440944881889764,
          "duration": 0.04651162790696617
        },
        {
          "name": "F2",
          "midi": 41,
          "time": 235.58139534879638,
          "velocity": 0.5354330708661418,
          "duration": 0.011627906976741542
        },
        {
          "name": "E5",
          "midi": 76,
          "time": 235.58139534879638,
          "velocity": 0.33858267716535434,
          "duration": 0.023255813953483084
        },
        {
          "name": "E2",
          "midi": 40,
          "time": 235.59302325577312,
          "velocity": 0.5275590551181102,
          "duration": 0.023255813953483084
        },
        {
          "name": "E4",
          "midi": 64,
          "time": 235.59302325577312,
          "velocity": 0.33858267716535434,
          "duration": 0.19767441860460622
        },
        {
          "name": "G4",
          "midi": 67,
          "time": 235.59302325577312,
          "velocity": 0.3543307086614173,
          "duration": 0.04651162790696617
        },
        {
          "name": "G5",
          "midi": 79,
          "time": 235.59302325577312,
          "velocity": 0.3858267716535433,
          "duration": 0.2209302325580893
        },
        {
          "name": "D6",
          "midi": 86,
          "time": 235.59302325577312,
          "velocity": 0.1889763779527559,
          "duration": 0.12790697674415696
        },
        {
          "name": "C#7",
          "midi": 97,
          "time": 235.59302325577312,
          "velocity": 0.2755905511811024,
          "duration": 0.29069767441853855
        },
        {
          "name": "G7",
          "midi": 103,
          "time": 235.59302325577312,
          "velocity": 0.23622047244094488,
          "duration": 0.1395348837208985
        },
        {
          "name": "D#5",
          "midi": 75,
          "time": 235.60465116274986,
          "velocity": 0.4094488188976378,
          "duration": 0.10465116279067388
        },
        {
          "name": "E7",
          "midi": 100,
          "time": 235.60465116274986,
          "velocity": 0.08661417322834646,
          "duration": 0.12790697674415696
        },
        {
          "name": "F2",
          "midi": 41,
          "time": 235.6162790697266,
          "velocity": 0.5354330708661418,
          "duration": 0.011627906976741542
        },
        {
          "name": "A2",
          "midi": 45,
          "time": 235.62790697670334,
          "velocity": 0.5826771653543307,
          "duration": 0.011627906976741542
        },
        {
          "name": "C7",
          "midi": 96,
          "time": 235.63953488368008,
          "velocity": 0.08661417322834646,
          "duration": 0.10465116279067388
        },
        {
          "name": "F2",
          "midi": 41,
          "time": 235.65116279065683,
          "velocity": 0.5984251968503937,
          "duration": 0.023255813953483084
        },
        {
          "name": "G#4",
          "midi": 68,
          "time": 235.66279069763357,
          "velocity": 0.16535433070866143,
          "duration": 0.034883720930224626
        },
        {
          "name": "E2",
          "midi": 40,
          "time": 235.6744186046103,
          "velocity": 0.5826771653543307,
          "duration": 0.023255813953483084
        },
        {
          "name": "F#7",
          "midi": 102,
          "time": 235.6744186046103,
          "velocity": 0.11023622047244094,
          "duration": 0.0813953488371908
        },
        {
          "name": "F#5",
          "midi": 78,
          "time": 235.68604651158705,
          "velocity": 0.3937007874015748,
          "duration": 0.3023255813952801
        },
        {
          "name": "E6",
          "midi": 88,
          "time": 235.68604651158705,
          "velocity": 0.15748031496062992,
          "duration": 0.04651162790696617
        },
        {
          "name": "F2",
          "midi": 41,
          "time": 235.6976744185638,
          "velocity": 0.4881889763779528,
          "duration": 0.04651162790696617
        },
        {
          "name": "G4",
          "midi": 67,
          "time": 235.6976744185638,
          "velocity": 0.33070866141732286,
          "duration": 0.2558139534883139
        },
        {
          "name": "E5",
          "midi": 76,
          "time": 235.6976744185638,
          "velocity": 0.3464566929133858,
          "duration": 0.09302325581393234
        },
        {
          "name": "D#7",
          "midi": 99,
          "time": 235.6976744185638,
          "velocity": 0.25196850393700787,
          "duration": 0.279069767441797
        },
        {
          "name": "B3",
          "midi": 59,
          "time": 235.70930232554053,
          "velocity": 0.29133858267716534,
          "duration": 0.15116279069764005
        },
        {
          "name": "B6",
          "midi": 95,
          "time": 235.70930232554053,
          "velocity": 0.1732283464566929,
          "duration": 0.09302325581393234
        },
        {
          "name": "F7",
          "midi": 101,
          "time": 235.70930232554053,
          "velocity": 0.12598425196850394,
          "duration": 0.0813953488371908
        },
        {
          "name": "G#2",
          "midi": 44,
          "time": 235.74418604647076,
          "velocity": 0.3937007874015748,
          "duration": 0.023255813953483084
        },
        {
          "name": "D#3",
          "midi": 51,
          "time": 235.74418604647076,
          "velocity": 0.41732283464566927,
          "duration": 0.023255813953483084
        },
        {
          "name": "B4",
          "midi": 71,
          "time": 235.74418604647076,
          "velocity": 0.30708661417322836,
          "duration": 0.04651162790696617
        },
        {
          "name": "D7",
          "midi": 98,
          "time": 235.7558139534475,
          "velocity": 0.2204724409448819,
          "duration": 0.5116279069766279
        },
        {
          "name": "G7",
          "midi": 103,
          "time": 235.7558139534475,
          "velocity": 0.15748031496062992,
          "duration": 0.10465116279067388
        },
        {
          "name": "C#5",
          "midi": 73,
          "time": 235.77906976740098,
          "velocity": 0.25984251968503935,
          "duration": 0.04651162790696617
        },
        {
          "name": "D#5",
          "midi": 75,
          "time": 235.77906976740098,
          "velocity": 0.3543307086614173,
          "duration": 0.023255813953483084
        },
        {
          "name": "C7",
          "midi": 96,
          "time": 235.77906976740098,
          "velocity": 0.11811023622047244,
          "duration": 0.0813953488371908
        },
        {
          "name": "G3",
          "midi": 55,
          "time": 235.79069767437772,
          "velocity": 0.31496062992125984,
          "duration": 0.034883720930224626
        },
        {
          "name": "A#4",
          "midi": 70,
          "time": 235.79069767437772,
          "velocity": 0.33070866141732286,
          "duration": 0.023255813953483084
        },
        {
          "name": "D6",
          "midi": 86,
          "time": 235.79069767437772,
          "velocity": 0.10236220472440945,
          "duration": 0.04651162790696617
        },
        {
          "name": "A#6",
          "midi": 94,
          "time": 235.79069767437772,
          "velocity": 0.08661417322834646,
          "duration": 0.034883720930224626
        },
        {
          "name": "E4",
          "midi": 64,
          "time": 235.80232558135447,
          "velocity": 0.2992125984251969,
          "duration": 0.034883720930224626
        },
        {
          "name": "E5",
          "midi": 76,
          "time": 235.80232558135447,
          "velocity": 0.36220472440944884,
          "duration": 0.034883720930224626
        },
        {
          "name": "E7",
          "midi": 100,
          "time": 235.8139534883312,
          "velocity": 0.11023622047244094,
          "duration": 0.034883720930224626
        },
        {
          "name": "F#7",
          "midi": 102,
          "time": 235.8139534883312,
          "velocity": 0.1732283464566929,
          "duration": 0.1627906976743816
        },
        {
          "name": "F#2",
          "midi": 42,
          "time": 235.82558139530795,
          "velocity": 0.5275590551181102,
          "duration": 0.011627906976741542
        },
        {
          "name": "F2",
          "midi": 41,
          "time": 235.8372093022847,
          "velocity": 0.5196850393700787,
          "duration": 0.023255813953483084
        },
        {
          "name": "D#5",
          "midi": 75,
          "time": 235.8372093022847,
          "velocity": 0.4094488188976378,
          "duration": 0.05813953488370771
        },
        {
          "name": "B6",
          "midi": 95,
          "time": 235.8372093022847,
          "velocity": 0.13385826771653545,
          "duration": 0.09302325581393234
        },
        {
          "name": "F7",
          "midi": 101,
          "time": 235.8372093022847,
          "velocity": 0.2283464566929134,
          "duration": 0.3837209302324709
        },
        {
          "name": "E6",
          "midi": 88,
          "time": 235.84883720926143,
          "velocity": 0.09448818897637795,
          "duration": 0.15116279069764005
        },
        {
          "name": "A#6",
          "midi": 94,
          "time": 235.87209302321492,
          "velocity": 0.11811023622047244,
          "duration": 0.1395348837208985
        },
        {
          "name": "E4",
          "midi": 64,
          "time": 235.88372093019166,
          "velocity": 0.23622047244094488,
          "duration": 0.034883720930224626
        },
        {
          "name": "G7",
          "midi": 103,
          "time": 235.88372093019166,
          "velocity": 0.13385826771653545,
          "duration": 0.034883720930224626
        },
        {
          "name": "D2",
          "midi": 38,
          "time": 235.8953488371684,
          "velocity": 0.30708661417322836,
          "duration": 0.04651162790696617
        },
        {
          "name": "E3",
          "midi": 52,
          "time": 235.8953488371684,
          "velocity": 0.3937007874015748,
          "duration": 0.06976744186044925
        },
        {
          "name": "E5",
          "midi": 76,
          "time": 235.8953488371684,
          "velocity": 0.3700787401574803,
          "duration": 0.023255813953483084
        },
        {
          "name": "C#7",
          "midi": 97,
          "time": 235.90697674414514,
          "velocity": 0.1968503937007874,
          "duration": 0.06976744186044925
        },
        {
          "name": "E7",
          "midi": 100,
          "time": 235.90697674414514,
          "velocity": 0.2204724409448819,
          "duration": 0.18604651162786467
        },
        {
          "name": "B4",
          "midi": 71,
          "time": 235.91860465112188,
          "velocity": 0.2125984251968504,
          "duration": 0.09302325581393234
        },
        {
          "name": "D#5",
          "midi": 75,
          "time": 235.91860465112188,
          "velocity": 0.3779527559055118,
          "duration": 0.12790697674415696
        },
        {
          "name": "D6",
          "midi": 86,
          "time": 235.9534883720521,
          "velocity": 0.12598425196850394,
          "duration": 0.04651162790696617
        },
        {
          "name": "D#3",
          "midi": 51,
          "time": 235.96511627902885,
          "velocity": 0.28346456692913385,
          "duration": 0.023255813953483084
        },
        {
          "name": "F#4",
          "midi": 66,
          "time": 235.96511627902885,
          "velocity": 0.31496062992125984,
          "duration": 0.1395348837208985
        },
        {
          "name": "G7",
          "midi": 103,
          "time": 235.9767441860056,
          "velocity": 0.2440944881889764,
          "duration": 0.12790697674415696
        },
        {
          "name": "E3",
          "midi": 52,
          "time": 235.98837209298233,
          "velocity": 0.25196850393700787,
          "duration": 0.023255813953483084
        },
        {
          "name": "C#7",
          "midi": 97,
          "time": 235.98837209298233,
          "velocity": 0.2440944881889764,
          "duration": 0.23255813953483084
        },
        {
          "name": "E2",
          "midi": 40,
          "time": 236.01162790693581,
          "velocity": 0.4566929133858268,
          "duration": 0.023255813953483084
        },
        {
          "name": "A4",
          "midi": 69,
          "time": 236.01162790693581,
          "velocity": 0.3228346456692913,
          "duration": 0.05813953488370771
        },
        {
          "name": "F#5",
          "midi": 78,
          "time": 236.02325581391256,
          "velocity": 0.3543307086614173,
          "duration": 0.11627906976741542
        },
        {
          "name": "C7",
          "midi": 96,
          "time": 236.02325581391256,
          "velocity": 0.2677165354330709,
          "duration": 0.1395348837208985
        },
        {
          "name": "F2",
          "midi": 41,
          "time": 236.0348837208893,
          "velocity": 0.5039370078740157,
          "duration": 0.034883720930224626
        },
        {
          "name": "E6",
          "midi": 88,
          "time": 236.0348837208893,
          "velocity": 0.14173228346456693,
          "duration": 0.1627906976743816
        },
        {
          "name": "E5",
          "midi": 76,
          "time": 236.04651162786604,
          "velocity": 0.3464566929133858,
          "duration": 0.034883720930224626
        },
        {
          "name": "C#6",
          "midi": 85,
          "time": 236.04651162786604,
          "velocity": 0.07874015748031496,
          "duration": 0.034883720930224626
        },
        {
          "name": "B6",
          "midi": 95,
          "time": 236.04651162786604,
          "velocity": 0.09448818897637795,
          "duration": 0.0813953488371908
        },
        {
          "name": "D#7",
          "midi": 99,
          "time": 236.04651162786604,
          "velocity": 0.2125984251968504,
          "duration": 0.20930232558134776
        },
        {
          "name": "E3",
          "midi": 52,
          "time": 236.05813953484278,
          "velocity": 0.4094488188976378,
          "duration": 0.023255813953483084
        },
        {
          "name": "D4",
          "midi": 62,
          "time": 236.06976744181952,
          "velocity": 0.2204724409448819,
          "duration": 0.17441860465112313
        },
        {
          "name": "D3",
          "midi": 50,
          "time": 236.08139534879626,
          "velocity": 0.41732283464566927,
          "duration": 0.10465116279067388
        },
        {
          "name": "B4",
          "midi": 71,
          "time": 236.08139534879626,
          "velocity": 0.2125984251968504,
          "duration": 0.12790697674415696
        },
        {
          "name": "D#5",
          "midi": 75,
          "time": 236.08139534879626,
          "velocity": 0.33070866141732286,
          "duration": 0.023255813953483084
        },
        {
          "name": "E5",
          "midi": 76,
          "time": 236.093023255773,
          "velocity": 0.3543307086614173,
          "duration": 0.10465116279067388
        },
        {
          "name": "G4",
          "midi": 67,
          "time": 236.10465116274975,
          "velocity": 0.33858267716535434,
          "duration": 0.04651162790696617
        },
        {
          "name": "F#7",
          "midi": 102,
          "time": 236.1162790697265,
          "velocity": 0.18110236220472442,
          "duration": 0.1395348837208985
        },
        {
          "name": "A3",
          "midi": 57,
          "time": 236.12790697670323,
          "velocity": 0.2283464566929134,
          "duration": 0.11627906976741542
        },
        {
          "name": "A4",
          "midi": 69,
          "time": 236.12790697670323,
          "velocity": 0.2992125984251969,
          "duration": 0.23255813953483084
        },
        {
          "name": "F2",
          "midi": 41,
          "time": 236.1511627906567,
          "velocity": 0.3228346456692913,
          "duration": 0.034883720930224626
        },
        {
          "name": "F#4",
          "midi": 66,
          "time": 236.1511627906567,
          "velocity": 0.2677165354330709,
          "duration": 0.023255813953483084
        },
        {
          "name": "D#3",
          "midi": 51,
          "time": 236.18604651158694,
          "velocity": 0.3228346456692913,
          "duration": 0.05813953488370771
        },
        {
          "name": "F#4",
          "midi": 66,
          "time": 236.18604651158694,
          "velocity": 0.2677165354330709,
          "duration": 0.034883720930224626
        },
        {
          "name": "D#5",
          "midi": 75,
          "time": 236.19767441856368,
          "velocity": 0.33070866141732286,
          "duration": 0.034883720930224626
        },
        {
          "name": "G7",
          "midi": 103,
          "time": 236.19767441856368,
          "velocity": 0.14173228346456693,
          "duration": 0.0813953488371908
        },
        {
          "name": "C7",
          "midi": 96,
          "time": 236.20930232554042,
          "velocity": 0.14960629921259844,
          "duration": 0.034883720930224626
        },
        {
          "name": "F#5",
          "midi": 78,
          "time": 236.22093023251716,
          "velocity": 0.1889763779527559,
          "duration": 0.15116279069764005
        },
        {
          "name": "F4",
          "midi": 65,
          "time": 236.2325581394939,
          "velocity": 0.2677165354330709,
          "duration": 0.023255813953483084
        },
        {
          "name": "E5",
          "midi": 76,
          "time": 236.2325581394939,
          "velocity": 0.30708661417322836,
          "duration": 0.034883720930224626
        },
        {
          "name": "B4",
          "midi": 71,
          "time": 236.24418604647065,
          "velocity": 0.16535433070866143,
          "duration": 0.11627906976741542
        },
        {
          "name": "E4",
          "midi": 64,
          "time": 236.2558139534474,
          "velocity": 0.30708661417322836,
          "duration": 0.5813953488371055
        },
        {
          "name": "D#5",
          "midi": 75,
          "time": 236.26744186042413,
          "velocity": 0.31496062992125984,
          "duration": 0.034883720930224626
        },
        {
          "name": "D#5",
          "midi": 75,
          "time": 236.34883720926132,
          "velocity": 0.2677165354330709,
          "duration": 0.23255813953485927
        },
        {
          "name": "F2",
          "midi": 41,
          "time": 236.36046511623806,
          "velocity": 0.2755905511811024,
          "duration": 0.04651162790696617
        },
        {
          "name": "D#3",
          "midi": 51,
          "time": 236.38372093019154,
          "velocity": 0.1968503937007874,
          "duration": 0.05813953488370771
        },
        {
          "name": "B4",
          "midi": 71,
          "time": 236.4302325580985,
          "velocity": 0.3543307086614173,
          "duration": 0.36046511627901623
        },
        {
          "name": "F2",
          "midi": 41,
          "time": 236.453488372052,
          "velocity": 0.16535433070866143,
          "duration": 0.05813953488370771
        },
        {
          "name": "D3",
          "midi": 50,
          "time": 236.46511627902873,
          "velocity": 0.12598425196850394,
          "duration": 0.04651162790696617
        },
        {
          "name": "G4",
          "midi": 67,
          "time": 236.5116279069357,
          "velocity": 0.11811023622047244,
          "duration": 0.1046511627907023
        },
        {
          "name": "D#5",
          "midi": 75,
          "time": 236.62790697670314,
          "velocity": 0.2440944881889764,
          "duration": 0.034883720930224626
        },
        {
          "name": "F#5",
          "midi": 78,
          "time": 236.65116279065663,
          "velocity": 0.4330708661417323,
          "duration": 0.20930232558134776
        },
        {
          "name": "F2",
          "midi": 41,
          "time": 236.68604651158685,
          "velocity": 0.07086614173228346,
          "duration": 0.034883720930224626
        },
        {
          "name": "D#5",
          "midi": 75,
          "time": 236.77906976740078,
          "velocity": 0.2047244094488189,
          "duration": 0.034883720930224626
        },
        {
          "name": "D#5",
          "midi": 75,
          "time": 236.82558139530775,
          "velocity": 0.15748031496062992,
          "duration": 0.06976744186044925
        },
        {
          "name": "G4",
          "midi": 67,
          "time": 236.86046511623798,
          "velocity": 0.25196850393700787,
          "duration": 0.11627906976741542
        },
        {
          "name": "B4",
          "midi": 71,
          "time": 236.87209302321472,
          "velocity": 0.14960629921259844,
          "duration": 0.11627906976741542
        },
        {
          "name": "E4",
          "midi": 64,
          "time": 236.88372093019146,
          "velocity": 0.25984251968503935,
          "duration": 0.4302325581394655
        },
        {
          "name": "F#5",
          "midi": 78,
          "time": 236.88372093019146,
          "velocity": 0.12598425196850394,
          "duration": 0.06976744186044925
        },
        {
          "name": "D#5",
          "midi": 75,
          "time": 236.93023255809842,
          "velocity": 0.18110236220472442,
          "duration": 0.034883720930224626
        },
        {
          "name": "D6",
          "midi": 86,
          "time": 236.93023255809842,
          "velocity": 0.07086614173228346,
          "duration": 0.0813953488371908
        },
        {
          "name": "F#5",
          "midi": 78,
          "time": 236.9767441860054,
          "velocity": 0.11023622047244094,
          "duration": 0.034883720930224626
        },
        {
          "name": "D#5",
          "midi": 75,
          "time": 237.05813953484258,
          "velocity": 0.2047244094488189,
          "duration": 0.034883720930224626
        },
        {
          "name": "D5",
          "midi": 74,
          "time": 237.08139534879606,
          "velocity": 0.3543307086614173,
          "duration": 0.4302325581394939
        },
        {
          "name": "F#6",
          "midi": 90,
          "time": 237.10465116274955,
          "velocity": 0.07086614173228346,
          "duration": 0.034883720930224626
        },
        {
          "name": "F#6",
          "midi": 90,
          "time": 237.17441860461,
          "velocity": 0.08661417322834646,
          "duration": 0.05813953488370771
        },
        {
          "name": "E4",
          "midi": 64,
          "time": 237.32558139530767,
          "velocity": 0.2283464566929134,
          "duration": 0.15116279069766847
        },
        {
          "name": "D#5",
          "midi": 75,
          "time": 237.49999999995882,
          "velocity": 0.2755905511811024,
          "duration": 0.023255813953483084
        },
        {
          "name": "D5",
          "midi": 74,
          "time": 237.5232558139123,
          "velocity": 0.12598425196850394,
          "duration": 0.09302325581396076
        },
        {
          "name": "E5",
          "midi": 76,
          "time": 237.5232558139123,
          "velocity": 0.33070866141732286,
          "duration": 0.33720930232559
        },
        {
          "name": "E4",
          "midi": 64,
          "time": 237.53488372088904,
          "velocity": 0.11023622047244094,
          "duration": 0.06976744186047767
        },
        {
          "name": "E4",
          "midi": 64,
          "time": 237.70930232554022,
          "velocity": 0.29133858267716534,
          "duration": 0.3837209302325846
        },
        {
          "name": "G4",
          "midi": 67,
          "time": 237.74418604647045,
          "velocity": 0.12598425196850394,
          "duration": 0.04651162790696617
        },
        {
          "name": "B4",
          "midi": 71,
          "time": 237.93023255809837,
          "velocity": 0.31496062992125984,
          "duration": 0.3139534883721069
        },
        {
          "name": "G4",
          "midi": 67,
          "time": 237.9418604650751,
          "velocity": 0.1732283464566929,
          "duration": 0.06976744186047767
        },
        {
          "name": "D6",
          "midi": 86,
          "time": 237.9418604650751,
          "velocity": 0.11023622047244094,
          "duration": 0.1511627906976969
        },
        {
          "name": "F4",
          "midi": 65,
          "time": 238.16279069763328,
          "velocity": 0.25984251968503935,
          "duration": 0.023255813953483084
        },
        {
          "name": "E5",
          "midi": 76,
          "time": 238.16279069763328,
          "velocity": 0.10236220472440945,
          "duration": 0.05813953488370771
        },
        {
          "name": "E4",
          "midi": 64,
          "time": 238.18604651158677,
          "velocity": 0.25984251968503935,
          "duration": 0.27906976744185386
        },
        {
          "name": "B4",
          "midi": 71,
          "time": 238.34883720926118,
          "velocity": 0.14173228346456693,
          "duration": 0.09302325581396076
        },
        {
          "name": "D5",
          "midi": 74,
          "time": 238.37209302321466,
          "velocity": 0.33070866141732286,
          "duration": 0.5232558139534831
        },
        {
          "name": "E4",
          "midi": 64,
          "time": 238.52325581391233,
          "velocity": 0.2992125984251969,
          "duration": 0.38372093023255616
        },
        {
          "name": "A4",
          "midi": 69,
          "time": 238.80232558135418,
          "velocity": 0.2047244094488189,
          "duration": 0.2093023255814046
        },
        {
          "name": "E4",
          "midi": 64,
          "time": 238.99999999995885,
          "velocity": 0.31496062992125984,
          "duration": 0.19767441860463464
        },
        {
          "name": "G4",
          "midi": 67,
          "time": 239.12790697670303,
          "velocity": 0.11023622047244094,
          "duration": 0.034883720930224626
        },
        {
          "name": "B4",
          "midi": 71,
          "time": 239.22093023251696,
          "velocity": 0.33858267716535434,
          "duration": 0.1860465116278931
        },
        {
          "name": "E4",
          "midi": 64,
          "time": 239.24418604647045,
          "velocity": 0.18110236220472442,
          "duration": 0.11627906976744384
        },
        {
          "name": "E4",
          "midi": 64,
          "time": 239.43023255809834,
          "velocity": 0.30708661417322836,
          "duration": 0.19767441860466306
        },
        {
          "name": "B4",
          "midi": 71,
          "time": 239.5232558139123,
          "velocity": 0.11811023622047244,
          "duration": 0.11627906976744384
        },
        {
          "name": "E4",
          "midi": 64,
          "time": 239.65116279065649,
          "velocity": 0.3464566929133858,
          "duration": 0.5581395348837077
        },
        {
          "name": "G4",
          "midi": 67,
          "time": 239.6860465115867,
          "velocity": 0.10236220472440945,
          "duration": 0.034883720930224626
        },
        {
          "name": "B4",
          "midi": 71,
          "time": 239.72093023251693,
          "velocity": 0.1732283464566929,
          "duration": 0.1046511627907023
        },
        {
          "name": "B4",
          "midi": 71,
          "time": 239.8720930232146,
          "velocity": 0.31496062992125984,
          "duration": 0.24418604651162923
        },
        {
          "name": "F#5",
          "midi": 78,
          "time": 240.09302325577275,
          "velocity": 0.4566929133858268,
          "duration": 0.3604651162790731
        },
        {
          "name": "F4",
          "midi": 65,
          "time": 240.30232558135415,
          "velocity": 0.2755905511811024,
          "duration": 0.023255813953483084
        },
        {
          "name": "E4",
          "midi": 64,
          "time": 240.32558139530764,
          "velocity": 0.2677165354330709,
          "duration": 0.4186046511627808
        },
        {
          "name": "B4",
          "midi": 71,
          "time": 240.34883720926112,
          "velocity": 0.07874015748031496,
          "duration": 0.13953488372092693
        },
        {
          "name": "D5",
          "midi": 74,
          "time": 240.51162790693553,
          "velocity": 0.3779527559055118,
          "duration": 0.46511627906974695
        },
        {
          "name": "F4",
          "midi": 65,
          "time": 240.74418604647042,
          "velocity": 0.2283464566929134,
          "duration": 0.023255813953483084
        },
        {
          "name": "E4",
          "midi": 64,
          "time": 240.7674418604239,
          "velocity": 0.25984251968503935,
          "duration": 0.40697674418603924
        },
        {
          "name": "E5",
          "midi": 76,
          "time": 240.94186046507505,
          "velocity": 0.30708661417322836,
          "duration": 0.38372093023255616
        },
        {
          "name": "D5",
          "midi": 74,
          "time": 241.06976744181924,
          "velocity": 0.11023622047244094,
          "duration": 0.17441860465115155
        },
        {
          "name": "G4",
          "midi": 67,
          "time": 241.17441860460994,
          "velocity": 0.14173228346456693,
          "duration": 0.04651162790696617
        },
        {
          "name": "E4",
          "midi": 64,
          "time": 241.18604651158668,
          "velocity": 0.2992125984251969,
          "duration": 1.1860465116278363
        },
        {
          "name": "D5",
          "midi": 74,
          "time": 241.33720930228435,
          "velocity": 0.11023622047244094,
          "duration": 0.05813953488370771
        },
        {
          "name": "G4",
          "midi": 67,
          "time": 241.37209302321457,
          "velocity": 0.10236220472440945,
          "duration": 0.05813953488370771
        },
        {
          "name": "B4",
          "midi": 71,
          "time": 241.37209302321457,
          "velocity": 0.2755905511811024,
          "duration": 0.23255813953485927
        },
        {
          "name": "B5",
          "midi": 83,
          "time": 241.8023255813541,
          "velocity": 0.4251968503937008,
          "duration": 0.15116279069766847
        },
        {
          "name": "A4",
          "midi": 69,
          "time": 241.81395348833084,
          "velocity": 0.10236220472440945,
          "duration": 0.11627906976744384
        },
        {
          "name": "B4",
          "midi": 71,
          "time": 241.83720930228432,
          "velocity": 0.09448818897637795,
          "duration": 0.1046511627907023
        },
        {
          "name": "B5",
          "midi": 83,
          "time": 241.99999999995873,
          "velocity": 0.1889763779527559,
          "duration": 0.19767441860463464
        },
        {
          "name": "A4",
          "midi": 69,
          "time": 242.16279069763314,
          "velocity": 0.12598425196850394,
          "duration": 0.15116279069766847
        },
        {
          "name": "A5",
          "midi": 81,
          "time": 242.2325581394936,
          "velocity": 0.41732283464566927,
          "duration": 0.4651162790696901
        },
        {
          "name": "A4",
          "midi": 69,
          "time": 242.43023255809823,
          "velocity": 0.14173228346456693,
          "duration": 0.12790697674415696
        },
        {
          "name": "F4",
          "midi": 65,
          "time": 242.4534883720517,
          "velocity": 0.2755905511811024,
          "duration": 0.023255813953483084
        },
        {
          "name": "B5",
          "midi": 83,
          "time": 242.46511627902845,
          "velocity": 0.07874015748031496,
          "duration": 0.06976744186044925
        },
        {
          "name": "E4",
          "midi": 64,
          "time": 242.4767441860052,
          "velocity": 0.2755905511811024,
          "duration": 0.31395348837205006
        },
        {
          "name": "G4",
          "midi": 67,
          "time": 242.55813953484238,
          "velocity": 0.11811023622047244,
          "duration": 0.04651162790696617
        },
        {
          "name": "G4",
          "midi": 67,
          "time": 242.66279069763306,
          "velocity": 0.14173228346456693,
          "duration": 0.05813953488370771
        },
        {
          "name": "F#5",
          "midi": 78,
          "time": 242.66279069763306,
          "velocity": 0.4645669291338583,
          "duration": 0.3604651162790731
        },
        {
          "name": "A4",
          "midi": 69,
          "time": 242.80232558135398,
          "velocity": 0.07874015748031496,
          "duration": 0.09302325581396076
        },
        {
          "name": "E4",
          "midi": 64,
          "time": 242.87209302321446,
          "velocity": 0.3228346456692913,
          "duration": 0.8488372093023315
        },
        {
          "name": "B4",
          "midi": 71,
          "time": 243.30232558135398,
          "velocity": 0.33858267716535434,
          "duration": 0.32558139534884845
        },
        {
          "name": "F#5",
          "midi": 78,
          "time": 243.52325581391213,
          "velocity": 0.4409448818897638,
          "duration": 0.36046511627904465
        },
        {
          "name": "B4",
          "midi": 71,
          "time": 243.7209302325168,
          "velocity": 0.14960629921259844,
          "duration": 0.10465116279067388
        },
        {
          "name": "G4",
          "midi": 67,
          "time": 243.73255813949353,
          "velocity": 0.2125984251968504,
          "duration": 0.0813953488371908
        },
        {
          "name": "E4",
          "midi": 64,
          "time": 243.76744186042376,
          "velocity": 0.25984251968503935,
          "duration": 0.38372093023255616
        },
        {
          "name": "D5",
          "midi": 74,
          "time": 243.95348837205165,
          "velocity": 0.3543307086614173,
          "duration": 0.4302325581395223
        },
        {
          "name": "E4",
          "midi": 64,
          "time": 244.18604651158654,
          "velocity": 0.2677165354330709,
          "duration": 0.3255813953487916
        },
        {
          "name": "B4",
          "midi": 71,
          "time": 244.37209302321443,
          "velocity": 0.07874015748031496,
          "duration": 0.04651162790696617
        },
        {
          "name": "E5",
          "midi": 76,
          "time": 244.37209302321443,
          "velocity": 0.31496062992125984,
          "duration": 0.38372093023252773
        },
        {
          "name": "D5",
          "midi": 74,
          "time": 244.43023255809814,
          "velocity": 0.09448818897637795,
          "duration": 0.05813953488370771
        },
        {
          "name": "E4",
          "midi": 64,
          "time": 244.59302325577255,
          "velocity": 0.29133858267716534,
          "duration": 0.19767441860463464
        },
        {
          "name": "G4",
          "midi": 67,
          "time": 244.80232558135393,
          "velocity": 0.2047244094488189,
          "duration": 0.1046511627907023
        },
        {
          "name": "B4",
          "midi": 71,
          "time": 244.81395348833067,
          "velocity": 0.3228346456692913,
          "duration": 0.2325581395349161
        },
        {
          "name": "E4",
          "midi": 64,
          "time": 244.8255813953074,
          "velocity": 0.18110236220472442,
          "duration": 0.1511627906976969
        },
        {
          "name": "E4",
          "midi": 64,
          "time": 245.04651162786558,
          "velocity": 0.25984251968503935,
          "duration": 0.1627906976743816
        },
        {
          "name": "B4",
          "midi": 71,
          "time": 245.09302325577255,
          "velocity": 0.11811023622047244,
          "duration": 0.05813953488370771
        },
        {
          "name": "D5",
          "midi": 74,
          "time": 245.23255813949345,
          "velocity": 0.33858267716535434,
          "duration": 0.5348837209301962
        },
        {
          "name": "E4",
          "midi": 64,
          "time": 245.2441860464702,
          "velocity": 0.16535433070866143,
          "duration": 0.13953488372092693
        },
        {
          "name": "B4",
          "midi": 71,
          "time": 245.25581395344693,
          "velocity": 0.12598425196850394,
          "duration": 0.13953488372092693
        },
        {
          "name": "E4",
          "midi": 64,
          "time": 245.44186046507483,
          "velocity": 0.31496062992125984,
          "duration": 0.38372093023252773
        },
        {
          "name": "A4",
          "midi": 69,
          "time": 245.66279069763297,
          "velocity": 0.1968503937007874,
          "duration": 0.20930232558134776
        },
        {
          "name": "B4",
          "midi": 71,
          "time": 245.70930232553994,
          "velocity": 0.09448818897637795,
          "duration": 0.11627906976741542
        },
        {
          "name": "E4",
          "midi": 64,
          "time": 245.86046511623758,
          "velocity": 0.31496062992125984,
          "duration": 0.6395348837208985
        },
        {
          "name": "G4",
          "midi": 67,
          "time": 245.98837209298176,
          "velocity": 0.13385826771653545,
          "duration": 0.05813953488370771
        },
        {
          "name": "A4",
          "midi": 69,
          "time": 245.9999999999585,
          "velocity": 0.07874015748031496,
          "duration": 0.034883720930224626
        },
        {
          "name": "B4",
          "midi": 71,
          "time": 246.10465116274918,
          "velocity": 0.29133858267716534,
          "duration": 0.24418604651162923
        },
        {
          "name": "G4",
          "midi": 67,
          "time": 246.32558139530732,
          "velocity": 0.11023622047244094,
          "duration": 0.04651162790696617
        },
        {
          "name": "F4",
          "midi": 65,
          "time": 246.52325581391196,
          "velocity": 0.30708661417322836,
          "duration": 0.023255813953483084
        },
        {
          "name": "E4",
          "midi": 64,
          "time": 246.54651162786544,
          "velocity": 0.33858267716535434,
          "duration": 0.6279069767442138
        },
        {
          "name": "B4",
          "midi": 71,
          "time": 246.61627906972592,
          "velocity": 0.12598425196850394,
          "duration": 0.11627906976744384
        },
        {
          "name": "B4",
          "midi": 71,
          "time": 246.7441860464701,
          "velocity": 0.28346456692913385,
          "duration": 0.08139534883721922
        },
        {
          "name": "B4",
          "midi": 71,
          "time": 246.88372093019103,
          "velocity": 0.14960629921259844,
          "duration": 0.17441860465117998
        },
        {
          "name": "F#5",
          "midi": 78,
          "time": 246.9534883720515,
          "velocity": 0.4566929133858268,
          "duration": 0.3720930232558146
        },
        {
          "name": "B4",
          "midi": 71,
          "time": 247.16279069763291,
          "velocity": 0.14173228346456693,
          "duration": 0.09302325581393234
        },
        {
          "name": "F4",
          "midi": 65,
          "time": 247.17441860460966,
          "velocity": 0.2755905511811024,
          "duration": 0.023255813953483084
        },
        {
          "name": "E4",
          "midi": 64,
          "time": 247.19767441856314,
          "velocity": 0.25196850393700787,
          "duration": 0.4186046511627808
        },
        {
          "name": "D5",
          "midi": 74,
          "time": 247.3720930232143,
          "velocity": 0.3543307086614173,
          "duration": 0.627906976744157
        },
        {
          "name": "E4",
          "midi": 64,
          "time": 247.62790697670266,
          "velocity": 0.2204724409448819,
          "duration": 0.15116279069766847
        },
        {
          "name": "E5",
          "midi": 76,
          "time": 247.8023255813538,
          "velocity": 0.33070866141732286,
          "duration": 0.38372093023252773
        },
        {
          "name": "E4",
          "midi": 64,
          "time": 247.83720930228404,
          "velocity": 0.2992125984251969,
          "duration": 0.6395348837208701
        },
        {
          "name": "G4",
          "midi": 67,
          "time": 248.03488372088867,
          "velocity": 0.14960629921259844,
          "duration": 0.04651162790696617
        },
        {
          "name": "D5",
          "midi": 74,
          "time": 248.10465116274912,
          "velocity": 0.09448818897637795,
          "duration": 0.06976744186047767
        },
        {
          "name": "B4",
          "midi": 71,
          "time": 248.2325581394933,
          "velocity": 0.29133858267716534,
          "duration": 0.23255813953485927
        },
        {
          "name": "G4",
          "midi": 67,
          "time": 248.24418604647005,
          "velocity": 0.08661417322834646,
          "duration": 0.04651162790696617
        },
        {
          "name": "E4",
          "midi": 64,
          "time": 248.48837209298165,
          "velocity": 0.2677165354330709,
          "duration": 0.4069767441860108
        },
        {
          "name": "G4",
          "midi": 67,
          "time": 248.67441860460954,
          "velocity": 0.08661417322834646,
          "duration": 0.04651162790696617
        },
        {
          "name": "B5",
          "midi": 83,
          "time": 248.67441860460954,
          "velocity": 0.4251968503937008,
          "duration": 0.16279069767441
        },
        {
          "name": "B4",
          "midi": 71,
          "time": 248.68604651158628,
          "velocity": 0.07874015748031496,
          "duration": 0.15116279069766847
        },
        {
          "name": "B5",
          "midi": 83,
          "time": 248.87209302321418,
          "velocity": 0.16535433070866143,
          "duration": 0.19767441860463464
        },
        {
          "name": "E4",
          "midi": 64,
          "time": 248.9069767441444,
          "velocity": 0.2755905511811024,
          "duration": 1.3604651162790162
        },
        {
          "name": "A5",
          "midi": 81,
          "time": 249.0930232557723,
          "velocity": 0.41732283464566927,
          "duration": 0.34883720930233153
        },
        {
          "name": "B5",
          "midi": 83,
          "time": 249.33720930228392,
          "velocity": 0.07874015748031496,
          "duration": 0.06976744186047767
        },
        {
          "name": "G4",
          "midi": 67,
          "time": 249.43023255809788,
          "velocity": 0.10236220472440945,
          "duration": 0.04651162790696617
        },
        {
          "name": "A5",
          "midi": 81,
          "time": 249.47674418600485,
          "velocity": 0.10236220472440945,
          "duration": 0.06976744186044925
        },
        {
          "name": "G4",
          "midi": 67,
          "time": 249.52325581391182,
          "velocity": 0.13385826771653545,
          "duration": 0.06976744186044925
        },
        {
          "name": "F#5",
          "midi": 78,
          "time": 249.52325581391182,
          "velocity": 0.4645669291338583,
          "duration": 0.30232558139533694
        },
        {
          "name": "F#5",
          "midi": 78,
          "time": 249.86046511623738,
          "velocity": 0.10236220472440945,
          "duration": 0.1046511627907023
        }
      ],
      "controlChanges": {},
      "id": 0,
      "instrumentNumber": 0,
      "instrument": "acoustic grand piano",
      "instrumentFamily": "piano",
      "channelNumber": 0,
      "isPercussion": false
    }
  ]
}